<?xml version="1.0" encoding="UTF-8"?>
<!DOCTYPE svg PUBLIC "-//W3C//DTD SVG 1.1//EN" "http://www.w3.org/Graphics/SVG/1.1/DTD/svg11.dtd">
<svg xmlns="http://www.w3.org/2000/svg" version="1.1" width="314px" height="314px" style="shape-rendering:geometricPrecision; text-rendering:geometricPrecision; image-rendering:optimizeQuality; fill-rule:evenodd; clip-rule:evenodd" xmlns:xlink="http://www.w3.org/1999/xlink">
<g><path style="opacity:0.8" fill="#eef0f4" d="M 138.5,-0.5 C 150.5,-0.5 162.5,-0.5 174.5,-0.5C 238.781,9.93976 282.614,45.6064 306,106.5C 309.165,117.152 311.665,127.819 313.5,138.5C 313.5,150.5 313.5,162.5 313.5,174.5C 303.06,238.781 267.394,282.614 206.5,306C 195.848,309.165 185.181,311.665 174.5,313.5C 162.5,313.5 150.5,313.5 138.5,313.5C 74.2193,303.06 30.3859,267.394 7,206.5C 3.8349,195.848 1.3349,185.181 -0.5,174.5C -0.5,162.5 -0.5,150.5 -0.5,138.5C 9.93976,74.2193 45.6064,30.3859 106.5,7C 117.152,3.8349 127.819,1.3349 138.5,-0.5 Z"/></g>
<g><path style="opacity:1" fill="#132a67" d="M 188.5,4.5 C 190.515,5.92381 192.848,6.59047 195.5,6.5C 261.075,26.848 299.242,71.1813 310,139.5C 313.538,211.991 283.372,264.657 219.5,297.5C 216.603,298.129 213.936,299.129 211.5,300.5C 198.433,305.042 185.1,308.375 171.5,310.5C 159.152,310.586 146.819,310.253 134.5,309.5C 71.6765,297.873 29.8432,261.54 9,200.5C -7.42077,134.104 10.0792,78.6037 61.5,34C 75.5264,22.6537 91.1931,14.4871 108.5,9.5C 111.397,8.87096 114.064,7.87096 116.5,6.5C 119.428,6.43487 122.095,5.7682 124.5,4.5C 128.817,4.91661 132.817,4.24994 136.5,2.5C 148.66,1.34014 160.993,1.17347 173.5,2C 178.363,3.67264 183.363,4.50598 188.5,4.5 Z"/></g>
<g><path style="opacity:1" fill="#62739c" d="M 136.5,2.5 C 132.817,4.24994 128.817,4.91661 124.5,4.5C 128.267,3.20532 132.267,2.53866 136.5,2.5 Z"/></g>
<g><path style="opacity:1" fill="#8795b4" d="M 188.5,4.5 C 191.152,4.40953 193.485,5.07619 195.5,6.5C 192.848,6.59047 190.515,5.92381 188.5,4.5 Z"/></g>
<g><path style="opacity:1" fill="#7585a8" d="M 144.5,7.5 C 149.155,6.83408 153.988,6.50074 159,6.5C 165.746,6.27964 172.246,6.9463 178.5,8.5C 177.167,8.5 175.833,8.5 174.5,8.5C 164.552,7.54956 154.552,7.21622 144.5,7.5 Z"/></g>
<g><path style="opacity:1" fill="#6b7ca2" d="M 116.5,6.5 C 114.064,7.87096 111.397,8.87096 108.5,9.5C 110.617,7.3455 113.284,6.3455 116.5,6.5 Z"/></g>
<g><path style="opacity:1" fill="#eff1f4" d="M 144.5,7.5 C 154.552,7.21622 164.552,7.54956 174.5,8.5C 163.5,9.16667 152.5,9.83333 141.5,10.5C 139.5,10.5 137.5,10.5 135.5,10.5C 134.448,10.6495 133.448,10.4828 132.5,10C 134.058,9.78997 135.391,9.28997 136.5,8.5C 138.948,7.52693 141.615,7.1936 144.5,7.5 Z"/></g>
<g><path style="opacity:1" fill="#b5bcc8" d="M 174.5,8.5 C 175.833,8.5 177.167,8.5 178.5,8.5C 191.95,10.0231 204.616,13.6898 216.5,19.5C 214.901,19.2322 213.568,19.5655 212.5,20.5C 201.705,17.2173 190.705,14.384 179.5,12C 166.872,10.679 154.205,10.179 141.5,10.5C 152.5,9.83333 163.5,9.16667 174.5,8.5 Z"/></g>
<g><path style="opacity:1" fill="#6f7b8b" d="M 119.5,14.5 C 115.498,16.6098 111.165,17.9431 106.5,18.5C 110.502,16.3902 114.835,15.0569 119.5,14.5 Z"/></g>
<g><path style="opacity:1" fill="#cfd3de" d="M 136.5,8.5 C 135.391,9.28997 134.058,9.78997 132.5,10C 133.448,10.4828 134.448,10.6495 135.5,10.5C 130.453,12.4624 125.119,13.7958 119.5,14.5C 114.835,15.0569 110.502,16.3902 106.5,18.5C 89.6801,24.6923 74.6801,33.6923 61.5,45.5C 61.1667,44.5 60.5,43.8333 59.5,43.5C 81.2959,23.4373 106.963,11.7707 136.5,8.5 Z"/></g>
<g><path style="opacity:1" fill="#1c2e49" d="M 135.5,10.5 C 137.5,10.5 139.5,10.5 141.5,10.5C 154.205,10.179 166.872,10.679 179.5,12C 190.705,14.384 201.705,17.2173 212.5,20.5C 275.184,51.4996 304.684,102.166 301,172.5C 292.821,228.002 263.321,267.502 212.5,291C 188.644,300.406 163.977,303.906 138.5,301.5C 133.157,300.497 127.824,299.497 122.5,298.5C 120.485,297.076 118.152,296.41 115.5,296.5C 74.2051,283.725 44.0384,257.725 25,218.5C 0.542575,159.793 8.54257,106.127 49,57.5C 53.0356,53.2964 57.2022,49.2964 61.5,45.5C 74.6801,33.6923 89.6801,24.6923 106.5,18.5C 111.165,17.9431 115.498,16.6098 119.5,14.5C 125.119,13.7958 130.453,12.4624 135.5,10.5 Z"/></g>
<g><path style="opacity:1" fill="#01205d" d="M 139.5,12.5 C 190.174,8.8403 232.341,25.8403 266,63.5C 305.35,115.432 310.017,170.432 280,228.5C 248.857,277.66 204.023,301.493 145.5,300C 95.2081,294.454 57.3748,269.954 32,226.5C 13.8396,191.859 9.50625,155.526 19,117.5C 38.3509,58.4353 78.5176,23.4353 139.5,12.5 Z"/></g>
<g><path style="opacity:1" fill="#12263f" d="M 148.5,18.5 C 204.453,17.7193 246.953,41.0526 276,88.5C 301.647,139.418 298.981,188.751 268,236.5C 246.51,264.96 218.343,283.46 183.5,292C 114.427,301.051 63.9273,274.884 32,213.5C 11.3146,162.614 16.9812,114.947 49,70.5C 64.6234,51.2764 83.79,36.7764 106.5,27C 120.398,22.9662 134.398,20.1329 148.5,18.5 Z"/></g>
<g><path style="opacity:1" fill="#8f7430" d="M 180.5,39.5 C 173.515,38.9115 166.515,38.5782 159.5,38.5C 153.824,38.3339 148.157,38.5006 142.5,39C 142.167,39.3333 141.833,39.6667 141.5,40C 143.134,40.4935 144.801,40.6602 146.5,40.5C 146.5,41.5 146.5,42.5 146.5,43.5C 143.641,45.0201 141.307,44.3535 139.5,41.5C 137.833,41.1667 136.167,40.8333 134.5,40.5C 129.515,41.3302 124.515,41.9969 119.5,42.5C 125.878,40.3164 132.544,38.8164 139.5,38C 150.833,37.3333 162.167,37.3333 173.5,38C 176.036,38.1862 178.369,38.6862 180.5,39.5 Z"/></g>
<g><path style="opacity:1" fill="#b99941" d="M 159.5,38.5 C 166.515,38.5782 173.515,38.9115 180.5,39.5C 187.825,39.6598 194.492,41.6598 200.5,45.5C 199.167,45.5 197.833,45.5 196.5,45.5C 195.127,45.6567 193.793,45.49 192.5,45C 191.601,43.7638 190.434,42.9304 189,42.5C 184.998,44.2387 180.831,45.4053 176.5,46C 174.759,47.6196 172.925,49.1196 171,50.5C 170.316,51.7839 170.483,52.9505 171.5,54C 167.251,56.1935 162.918,58.1935 158.5,60C 160.708,60.1909 162.708,60.6909 164.5,61.5C 157.5,61.5 150.5,61.5 143.5,61.5C 142.334,59.834 142.334,58.1673 143.5,56.5C 144.72,55.2889 145.887,55.2889 147,56.5C 149.279,53.0469 151.779,49.7136 154.5,46.5C 157.156,43.8403 160.156,41.6736 163.5,40C 161.942,39.79 160.609,39.29 159.5,38.5 Z"/></g>
<g><path style="opacity:1" fill="#a07c25" d="M 159.5,38.5 C 160.609,39.29 161.942,39.79 163.5,40C 160.156,41.6736 157.156,43.8403 154.5,46.5C 151.779,49.7136 149.279,53.0469 147,56.5C 145.887,55.2889 144.72,55.2889 143.5,56.5C 142.334,58.1673 142.334,59.834 143.5,61.5C 140.72,61.9452 138.053,61.9452 135.5,61.5C 132.693,64.163 129.693,66.4963 126.5,68.5C 120.366,70.1212 114.7,72.7879 109.5,76.5C 96.4559,77.147 83.7892,76.4803 71.5,74.5C 84.6403,59.2825 100.64,48.6158 119.5,42.5C 124.515,41.9969 129.515,41.3302 134.5,40.5C 136.167,40.8333 137.833,41.1667 139.5,41.5C 141.307,44.3535 143.641,45.0201 146.5,43.5C 146.5,42.5 146.5,41.5 146.5,40.5C 144.801,40.6602 143.134,40.4935 141.5,40C 141.833,39.6667 142.167,39.3333 142.5,39C 148.157,38.5006 153.824,38.3339 159.5,38.5 Z"/></g>
<g><path style="opacity:1" fill="#cdb358" d="M 196.5,45.5 C 197.219,47.7638 197.552,50.0971 197.5,52.5C 193.698,51.8803 190.365,52.7137 187.5,55C 188.5,55.3333 189.5,55.6667 190.5,56C 188.409,57.7264 186.076,58.8931 183.5,59.5C 183.5,60.5 183.5,61.5 183.5,62.5C 181.473,62.3379 179.473,62.5045 177.5,63C 179.723,63.5662 181.723,64.3995 183.5,65.5C 181.097,65.552 178.764,65.2186 176.5,64.5C 174.162,62.9605 171.495,62.2938 168.5,62.5C 167.432,61.5655 166.099,61.2322 164.5,61.5C 162.708,60.6909 160.708,60.1909 158.5,60C 162.918,58.1935 167.251,56.1935 171.5,54C 170.483,52.9505 170.316,51.7839 171,50.5C 172.925,49.1196 174.759,47.6196 176.5,46C 180.831,45.4053 184.998,44.2387 189,42.5C 190.434,42.9304 191.601,43.7638 192.5,45C 193.793,45.49 195.127,45.6567 196.5,45.5 Z"/></g>
<g><path style="opacity:1" fill="#dde0e6" d="M 216.5,19.5 C 272.53,47.0816 301.863,92.2483 304.5,155C 303.25,212.524 278.25,256.191 229.5,286C 224.473,288.513 219.473,291.013 214.5,293.5C 209.856,294.599 205.522,296.266 201.5,298.5C 199.095,299.768 196.428,300.435 193.5,300.5C 190.848,300.41 188.515,301.076 186.5,302.5C 180.539,302.613 174.872,303.613 169.5,305.5C 159.494,305.666 149.494,305.5 139.5,305C 132.213,304.225 125.213,302.725 118.5,300.5C 116.485,299.076 114.152,298.41 111.5,298.5C 77.8921,287.388 51.3921,267.054 32,237.5C 6.35707,194.688 1.6904,149.688 18,102.5C 26.9994,79.35 40.8327,59.6833 59.5,43.5C 60.5,43.8333 61.1667,44.5 61.5,45.5C 57.2022,49.2964 53.0356,53.2964 49,57.5C 8.54257,106.127 0.542575,159.793 25,218.5C 44.0384,257.725 74.2051,283.725 115.5,296.5C 117.515,297.924 119.848,298.59 122.5,298.5C 127.824,299.497 133.157,300.497 138.5,301.5C 163.977,303.906 188.644,300.406 212.5,291C 263.321,267.502 292.821,228.002 301,172.5C 304.684,102.166 275.184,51.4996 212.5,20.5C 213.568,19.5655 214.901,19.2322 216.5,19.5 Z"/></g>
<g><path style="opacity:1" fill="#a27e28" d="M 176.5,251.5 C 177.5,252.167 178.5,252.833 179.5,253.5C 185.709,258.028 190.375,263.695 193.5,270.5C 189.054,271.122 184.721,272.122 180.5,273.5C 172.184,274.185 163.851,274.518 155.5,274.5C 156.209,273.596 157.209,273.263 158.5,273.5C 158.34,271.801 158.506,270.134 159,268.5C 161.53,266.627 164.03,264.793 166.5,263C 166.043,262.586 165.709,262.086 165.5,261.5C 167.311,258.522 169.644,256.022 172.5,254C 170.431,253.676 170.098,252.842 171.5,251.5C 173.003,250.948 174.669,250.948 176.5,251.5 Z"/></g>
<g><path style="opacity:1" fill="#bfa149" d="M 149.5,249.5 C 155.833,249.5 162.167,249.5 168.5,249.5C 167.319,251.067 165.653,251.901 163.5,252C 159.671,254.853 156.171,258.019 153,261.5C 152.803,263.861 151.636,265.528 149.5,266.5C 150.025,267.192 150.692,267.692 151.5,268C 150.624,270.376 148.958,271.876 146.5,272.5C 147.949,273.172 149.282,273.839 150.5,274.5C 145.797,274.563 141.13,274.229 136.5,273.5C 132.2,273.245 128.2,272.245 124.5,270.5C 128.808,271.368 133.141,271.534 137.5,271C 136.289,270.107 136.289,269.274 137.5,268.5C 139.381,266.266 141.715,264.933 144.5,264.5C 144.351,263.448 144.517,262.448 145,261.5C 148.395,257.86 151.895,254.36 155.5,251C 153.292,250.809 151.292,250.309 149.5,249.5 Z"/></g>
<g><path style="opacity:1" fill="#e7d37a" d="M 123.5,242.5 C 126.167,243.167 128.833,243.833 131.5,244.5C 136.069,246.995 141.069,248.328 146.5,248.5C 146.5,248.833 146.5,249.167 146.5,249.5C 142.293,249.441 139.96,251.441 139.5,255.5C 135.138,254.858 131.805,256.358 129.5,260C 125.005,261.016 122.005,263.516 120.5,267.5C 117.574,266.539 114.574,265.873 111.5,265.5C 108.088,264.925 105.088,263.592 102.5,261.5C 102.196,260.85 101.863,260.183 101.5,259.5C 104.683,256.134 106.516,252.134 107,247.5C 108.87,245.781 111.037,244.781 113.5,244.5C 113.5,243.5 113.5,242.5 113.5,241.5C 116.206,241.575 118.873,241.908 121.5,242.5C 121.426,246.161 122.426,246.828 124.5,244.5C 124.137,243.817 123.804,243.15 123.5,242.5 Z"/></g>
<g><path style="opacity:1" fill="#cdb359" d="M 146.5,249.5 C 147.5,249.5 148.5,249.5 149.5,249.5C 151.292,250.309 153.292,250.809 155.5,251C 151.895,254.36 148.395,257.86 145,261.5C 144.517,262.448 144.351,263.448 144.5,264.5C 141.715,264.933 139.381,266.266 137.5,268.5C 136.289,269.274 136.289,270.107 137.5,271C 133.141,271.534 128.808,271.368 124.5,270.5C 119.65,269.884 115.317,268.217 111.5,265.5C 114.574,265.873 117.574,266.539 120.5,267.5C 122.005,263.516 125.005,261.016 129.5,260C 131.805,256.358 135.138,254.858 139.5,255.5C 139.96,251.441 142.293,249.441 146.5,249.5 Z"/></g>
<g><path style="opacity:1" fill="#78704a" d="M 171.5,247.5 C 175.589,247.588 178.256,249.588 179.5,253.5C 178.5,252.833 177.5,252.167 176.5,251.5C 176.389,250.883 176.056,250.383 175.5,250C 173.19,249.503 170.857,249.337 168.5,249.5C 162.167,249.5 155.833,249.5 149.5,249.5C 148.5,249.5 147.5,249.5 146.5,249.5C 146.5,249.167 146.5,248.833 146.5,248.5C 155.017,248.826 163.35,248.493 171.5,247.5 Z"/></g>
<g><path style="opacity:1" fill="#344049" d="M 131.5,244.5 C 144.668,247.174 158.001,248.174 171.5,247.5C 163.35,248.493 155.017,248.826 146.5,248.5C 141.069,248.328 136.069,246.995 131.5,244.5 Z"/></g>
<g><path style="opacity:1" fill="#6b7363" d="M 115.5,238.5 C 117.967,238.755 119.967,239.755 121.5,241.5C 119.033,241.245 117.033,240.245 115.5,238.5 Z"/></g>
<g><path style="opacity:1" fill="#f2e79a" d="M 82.5,210.5 C 89.3052,219.471 97.3052,227.304 106.5,234C 109.553,235.527 112.553,237.027 115.5,238.5C 117.033,240.245 119.033,241.245 121.5,241.5C 122.167,241.833 122.833,242.167 123.5,242.5C 123.804,243.15 124.137,243.817 124.5,244.5C 122.426,246.828 121.426,246.161 121.5,242.5C 118.873,241.908 116.206,241.575 113.5,241.5C 113.5,242.5 113.5,243.5 113.5,244.5C 111.037,244.781 108.87,245.781 107,247.5C 106.516,252.134 104.683,256.134 101.5,259.5C 101.863,260.183 102.196,260.85 102.5,261.5C 85.3889,253.059 71.7222,240.726 61.5,224.5C 63.2318,226.371 65.3984,227.704 68,228.5C 68.49,229.793 68.6567,231.127 68.5,232.5C 69.5,232.5 70.5,232.5 71.5,232.5C 71.7135,230.856 71.3802,229.356 70.5,228C 75.1903,225.992 79.5237,223.492 83.5,220.5C 83.9312,219.707 84.2645,218.873 84.5,218C 83.7511,215.503 83.0845,213.003 82.5,210.5 Z"/></g>
<g><path style="opacity:1" fill="#b7973e" d="M 196.5,216.5 C 198.167,217.5 199.5,218.833 200.5,220.5C 200.859,222.371 201.859,223.871 203.5,225C 202.552,225.483 201.552,225.649 200.5,225.5C 198.997,228.524 196.83,231.19 194,233.5C 193.51,234.793 193.343,236.127 193.5,237.5C 192.325,237.281 191.325,237.614 190.5,238.5C 189.731,240.737 188.564,242.737 187,244.5C 186.082,242.624 184.582,241.624 182.5,241.5C 180.5,239.167 178.5,236.833 176.5,234.5C 175.376,232.269 174.876,229.936 175,227.5C 176.194,225.475 177.694,225.141 179.5,226.5C 180.434,222.399 182.934,219.732 187,218.5C 190.537,221.436 192.037,220.436 191.5,215.5C 193.216,215.629 194.883,215.962 196.5,216.5 Z"/></g>
<g><path style="opacity:1" fill="#726236" d="M 231.5,214.5 C 228.167,219.833 223.833,224.167 218.5,227.5C 222.5,222.833 226.833,218.5 231.5,214.5 Z"/></g>
<g><path style="opacity:1" fill="#cbb15a" d="M 182.5,202.5 C 187.5,206.833 192.167,211.5 196.5,216.5C 194.883,215.962 193.216,215.629 191.5,215.5C 192.037,220.436 190.537,221.436 187,218.5C 182.934,219.732 180.434,222.399 179.5,226.5C 177.694,225.141 176.194,225.475 175,227.5C 174.876,229.936 175.376,232.269 176.5,234.5C 173.195,230.859 169.862,227.192 166.5,223.5C 170.854,218.63 175.854,213.464 181.5,208C 181.167,207.667 180.833,207.333 180.5,207C 181.582,205.67 182.249,204.17 182.5,202.5 Z"/></g>
<g><path style="opacity:1" fill="#eede87" d="M 71.5,190.5 C 75.1667,197.167 78.8333,203.833 82.5,210.5C 83.0845,213.003 83.7511,215.503 84.5,218C 84.2645,218.873 83.9312,219.707 83.5,220.5C 79.5237,223.492 75.1903,225.992 70.5,228C 71.3802,229.356 71.7135,230.856 71.5,232.5C 70.5,232.5 69.5,232.5 68.5,232.5C 68.6567,231.127 68.49,229.793 68,228.5C 65.3984,227.704 63.2318,226.371 61.5,224.5C 59.0002,221.506 57.0002,218.173 55.5,214.5C 56.2072,210.755 56.3739,207.088 56,203.5C 59.3222,200.012 62.8222,196.679 66.5,193.5C 67.325,192.614 68.325,192.281 69.5,192.5C 69.1307,190.007 69.7973,189.34 71.5,190.5 Z"/></g>
<g><path style="opacity:1" fill="#abaa89" d="M 88.5,178.5 C 88.5,186.167 88.5,193.833 88.5,201.5C 108.34,201.17 128.007,201.503 147.5,202.5C 127.5,202.5 107.5,202.5 87.5,202.5C 87.1743,194.316 87.5076,186.316 88.5,178.5 Z"/></g>
<g><path style="opacity:1" fill="#a07c25" d="M 276.5,145.5 C 279.427,190.488 262.76,226.654 226.5,254C 219.37,257.638 212.37,261.471 205.5,265.5C 204.558,265.392 203.725,265.059 203,264.5C 196.701,256.367 189.868,248.7 182.5,241.5C 184.582,241.624 186.082,242.624 187,244.5C 188.564,242.737 189.731,240.737 190.5,238.5C 191.325,237.614 192.325,237.281 193.5,237.5C 193.343,236.127 193.51,234.793 194,233.5C 196.83,231.19 198.997,228.524 200.5,225.5C 201.552,225.649 202.552,225.483 203.5,225C 201.859,223.871 200.859,222.371 200.5,220.5C 204.48,224.145 208.48,227.811 212.5,231.5C 214.264,229.722 216.264,228.389 218.5,227.5C 223.833,224.167 228.167,219.833 231.5,214.5C 246.981,194.932 253.648,172.598 251.5,147.5C 251.833,147.5 252.167,147.5 252.5,147.5C 252.5,153.833 252.5,160.167 252.5,166.5C 253.097,170.832 253.263,175.165 253,179.5C 252.333,180.833 251.667,180.833 251,179.5C 250.598,180.872 250.098,182.205 249.5,183.5C 250.247,183.736 251.08,184.07 252,184.5C 252.483,183.552 252.649,182.552 252.5,181.5C 253.822,181.67 254.989,181.337 256,180.5C 257.905,177.029 260.072,173.696 262.5,170.5C 267.061,166.36 271.395,162.027 275.5,157.5C 276.484,154.572 276.817,151.572 276.5,148.5C 276.5,147.5 276.5,146.5 276.5,145.5 Z"/></g>
<g><path style="opacity:1" fill="#dec76d" d="M 69.5,185.5 C 70.5375,186.93 71.2041,188.597 71.5,190.5C 69.7973,189.34 69.1307,190.007 69.5,192.5C 68.325,192.281 67.325,192.614 66.5,193.5C 62.8222,196.679 59.3222,200.012 56,203.5C 56.3739,207.088 56.2072,210.755 55.5,214.5C 53.0499,212.371 51.3833,209.704 50.5,206.5C 50.522,201.864 51.8553,197.697 54.5,194C 53.3507,192.27 53.3507,190.604 54.5,189C 52.0481,187.194 52.3814,185.694 55.5,184.5C 56.9987,186.802 58.332,186.469 59.5,183.5C 60.1667,184.167 60.8333,184.833 61.5,185.5C 62.4853,183.228 63.3187,180.895 64,178.5C 64.9246,179.047 65.7579,179.713 66.5,180.5C 65.4798,182.432 65.3131,184.432 66,186.5C 66.6284,183.046 67.7951,182.713 69.5,185.5 Z"/></g>
<g><path style="opacity:1" fill="#e6d277" d="M 208.5,165.5 C 208.5,166.167 208.5,166.833 208.5,167.5C 206.755,169.033 205.755,171.033 205.5,173.5C 200.648,185.021 192.315,192.688 180.5,196.5C 180.253,198.858 180.919,200.858 182.5,202.5C 182.249,204.17 181.582,205.67 180.5,207C 180.833,207.333 181.167,207.667 181.5,208C 175.854,213.464 170.854,218.63 166.5,223.5C 164.5,221.167 162.5,218.833 160.5,216.5C 161.767,217.087 162.767,217.087 163.5,216.5C 162.675,215.614 161.675,215.281 160.5,215.5C 161.787,212.57 161.287,210.237 159,208.5C 155.688,209.455 155.688,209.121 159,207.5C 160.907,209.141 161.74,208.641 161.5,206C 161.215,204.11 160.215,202.777 158.5,202C 162.606,200.739 166.939,200.573 171.5,201.5C 171.572,198.478 170.238,196.312 167.5,195C 170.014,193.196 172.681,193.03 175.5,194.5C 176.452,193.467 176.452,192.3 175.5,191C 175.613,189.72 176.28,188.887 177.5,188.5C 179.93,190.571 182.597,190.904 185.5,189.5C 187.158,187.677 188.991,186.01 191,184.5C 191.8,180.36 194.133,177.36 198,175.5C 199.75,170.248 203.25,166.915 208.5,165.5 Z"/></g>
<g><path style="opacity:1" fill="#efe397" d="M 157.5,177.5 C 155.266,180.298 152.266,182.131 148.5,183C 147.386,184.57 146.053,185.903 144.5,187C 146.271,187.535 146.604,188.369 145.5,189.5C 143.941,190.074 142.441,190.74 141,191.5C 140.667,191.167 140.333,190.833 140,190.5C 139.1,191.77 137.934,192.77 136.5,193.5C 137.167,194.167 137.833,194.833 138.5,195.5C 135.633,196.774 132.633,197.607 129.5,198C 135.729,199.434 142.062,200.434 148.5,201C 149.337,202.011 149.67,203.178 149.5,204.5C 148.5,204.167 147.833,203.5 147.5,202.5C 128.007,201.503 108.34,201.17 88.5,201.5C 88.5,193.833 88.5,186.167 88.5,178.5C 111.327,177.502 134.327,177.169 157.5,177.5 Z"/></g>
<g><path style="opacity:1" fill="#3a4954" d="M 161.5,176.5 C 161.5,176.833 161.5,177.167 161.5,177.5C 160.167,177.5 158.833,177.5 157.5,177.5C 134.327,177.169 111.327,177.502 88.5,178.5C 87.5076,186.316 87.1743,194.316 87.5,202.5C 86.1721,194.098 86.1721,185.598 87.5,177C 112.164,176.5 136.831,176.333 161.5,176.5 Z"/></g>
<g><path style="opacity:1" fill="#d0b65f" d="M 65.5,168.5 C 67.0194,174.009 68.3528,179.676 69.5,185.5C 67.7951,182.713 66.6284,183.046 66,186.5C 65.3131,184.432 65.4798,182.432 66.5,180.5C 65.7579,179.713 64.9246,179.047 64,178.5C 63.3187,180.895 62.4853,183.228 61.5,185.5C 60.8333,184.833 60.1667,184.167 59.5,183.5C 58.332,186.469 56.9987,186.802 55.5,184.5C 52.3814,185.694 52.0481,187.194 54.5,189C 53.3507,190.604 53.3507,192.27 54.5,194C 51.8553,197.697 50.522,201.864 50.5,206.5C 47.3597,200.536 45.0263,194.203 43.5,187.5C 46.0401,186.113 47.7067,183.946 48.5,181C 49.9346,181.311 51.2679,181.145 52.5,180.5C 55.1276,176.372 58.2943,172.705 62,169.5C 63.7091,175.706 64.8757,175.373 65.5,168.5 Z"/></g>
<g><path style="opacity:1" fill="#797f64" d="M 208.5,167.5 C 208.245,169.967 207.245,171.967 205.5,173.5C 205.755,171.033 206.755,169.033 208.5,167.5 Z"/></g>
<g><path style="opacity:1" fill="#cbc88f" d="M 178.5,166.5 C 177.85,168.435 177.517,170.435 177.5,172.5C 174.642,172.595 172.309,173.762 170.5,176C 167.522,176.696 164.522,177.196 161.5,177.5C 161.5,177.167 161.5,176.833 161.5,176.5C 168.17,174.821 173.837,171.487 178.5,166.5 Z"/></g>
<g><path style="opacity:1" fill="#bfa047" d="M 64.5,148.5 C 64.1795,153.695 64.5128,158.695 65.5,163.5C 65.5,165.167 65.5,166.833 65.5,168.5C 64.8757,175.373 63.7091,175.706 62,169.5C 58.2943,172.705 55.1276,176.372 52.5,180.5C 51.2679,181.145 49.9346,181.311 48.5,181C 47.7067,183.946 46.0401,186.113 43.5,187.5C 43.5,186.833 43.5,186.167 43.5,185.5C 42.046,179.631 41.3793,173.631 41.5,167.5C 45.1612,167.65 46.1612,166.15 44.5,163C 47.4376,160.102 49.271,156.602 50,152.5C 50.9734,154.392 51.6401,156.392 52,158.5C 53.1707,156.384 54.6707,155.718 56.5,156.5C 57.8613,154.972 59.028,153.305 60,151.5C 61.129,149.859 62.629,148.859 64.5,148.5 Z"/></g>
<g><path style="opacity:1" fill="#ad8930" d="M 276.5,148.5 C 276.817,151.572 276.484,154.572 275.5,157.5C 271.395,162.027 267.061,166.36 262.5,170.5C 260.072,173.696 257.905,177.029 256,180.5C 254.989,181.337 253.822,181.67 252.5,181.5C 252.649,182.552 252.483,183.552 252,184.5C 251.08,184.07 250.247,183.736 249.5,183.5C 250.098,182.205 250.598,180.872 251,179.5C 251.667,180.833 252.333,180.833 253,179.5C 253.263,175.165 253.097,170.832 252.5,166.5C 253.496,166.414 254.329,166.748 255,167.5C 256.022,161.116 259.856,156.616 266.5,154C 268.027,152.307 269.36,150.473 270.5,148.5C 272.655,148.14 274.655,148.14 276.5,148.5 Z"/></g>
<g><path style="opacity:1" fill="#7f724d" d="M 66.5,139.5 C 65.8345,147.483 65.5012,155.483 65.5,163.5C 64.5128,158.695 64.1795,153.695 64.5,148.5C 64.6761,145.273 65.3428,142.273 66.5,139.5 Z"/></g>
<g><path style="opacity:1" fill="#f1e18c" d="M 210.5,155.5 C 210.212,158.939 209.546,162.272 208.5,165.5C 203.25,166.915 199.75,170.248 198,175.5C 194.133,177.36 191.8,180.36 191,184.5C 188.991,186.01 187.158,187.677 185.5,189.5C 182.597,190.904 179.93,190.571 177.5,188.5C 176.28,188.887 175.613,189.72 175.5,191C 176.452,192.3 176.452,193.467 175.5,194.5C 172.681,193.03 170.014,193.196 167.5,195C 170.238,196.312 171.572,198.478 171.5,201.5C 166.939,200.573 162.606,200.739 158.5,202C 160.215,202.777 161.215,204.11 161.5,206C 161.74,208.641 160.907,209.141 159,207.5C 155.688,209.121 155.688,209.455 159,208.5C 161.287,210.237 161.787,212.57 160.5,215.5C 161.675,215.281 162.675,215.614 163.5,216.5C 162.767,217.087 161.767,217.087 160.5,216.5C 156.862,212.526 153.195,208.526 149.5,204.5C 149.67,203.178 149.337,202.011 148.5,201C 142.062,200.434 135.729,199.434 129.5,198C 132.633,197.607 135.633,196.774 138.5,195.5C 137.833,194.833 137.167,194.167 136.5,193.5C 137.934,192.77 139.1,191.77 140,190.5C 140.333,190.833 140.667,191.167 141,191.5C 142.441,190.74 143.941,190.074 145.5,189.5C 146.604,188.369 146.271,187.535 144.5,187C 146.053,185.903 147.386,184.57 148.5,183C 152.266,182.131 155.266,180.298 157.5,177.5C 158.833,177.5 160.167,177.5 161.5,177.5C 164.522,177.196 167.522,176.696 170.5,176C 172.309,173.762 174.642,172.595 177.5,172.5C 177.517,170.435 177.85,168.435 178.5,166.5C 178.427,164.973 179.094,163.973 180.5,163.5C 181.482,162.859 182.482,162.193 183.5,161.5C 183.71,157.312 185.71,154.645 189.5,153.5C 189.343,152.127 189.51,150.793 190,149.5C 190.893,150.711 191.726,150.711 192.5,149.5C 191.289,148.28 191.289,147.113 192.5,146C 195.917,144.207 199.084,142.041 202,139.5C 202.333,139.833 202.667,140.167 203,140.5C 203.222,137.263 203.056,134.263 202.5,131.5C 203.646,130.281 204.646,128.948 205.5,127.5C 206.379,131.154 207.213,134.821 208,138.5C 208.667,139.833 209.333,139.833 210,138.5C 210.499,144.157 210.666,149.824 210.5,155.5 Z"/></g>
<g><path style="opacity:1" fill="#ae8c35" d="M 70.5,123.5 C 69.3778,128.912 68.0445,134.245 66.5,139.5C 65.3428,142.273 64.6761,145.273 64.5,148.5C 62.629,148.859 61.129,149.859 60,151.5C 59.028,153.305 57.8613,154.972 56.5,156.5C 54.6707,155.718 53.1707,156.384 52,158.5C 51.6401,156.392 50.9734,154.392 50,152.5C 49.271,156.602 47.4376,160.102 44.5,163C 46.1612,166.15 45.1612,167.65 41.5,167.5C 41.3793,173.631 42.046,179.631 43.5,185.5C 40.7839,178.888 39.4506,171.888 39.5,164.5C 38.9935,160.993 39.6602,157.826 41.5,155C 40.3705,150.921 40.2039,146.755 41,142.5C 41.1747,146.211 41.6747,149.878 42.5,153.5C 43.1667,153.833 43.8333,154.167 44.5,154.5C 45.8035,151.957 46.8035,149.29 47.5,146.5C 52.572,144.929 55.7387,141.596 57,136.5C 59.0105,132.998 60.3439,132.998 61,136.5C 61.7504,135.874 62.5838,135.374 63.5,135C 66.3046,131.242 68.6379,127.409 70.5,123.5 Z"/></g>
<g><path style="opacity:1" fill="#c1a24a" d="M 271.5,117.5 C 274.95,126.38 276.617,135.713 276.5,145.5C 276.5,146.5 276.5,147.5 276.5,148.5C 274.655,148.14 272.655,148.14 270.5,148.5C 269.36,150.473 268.027,152.307 266.5,154C 259.856,156.616 256.022,161.116 255,167.5C 254.329,166.748 253.496,166.414 252.5,166.5C 252.5,160.167 252.5,153.833 252.5,147.5C 253.165,145.631 253.831,143.631 254.5,141.5C 255.167,141.833 255.833,142.167 256.5,142.5C 257.59,141.273 258.924,140.44 260.5,140C 263.079,136.087 266.246,132.92 270,130.5C 271.011,131.337 272.178,131.67 273.5,131.5C 272.963,126.814 272.296,122.147 271.5,117.5 Z"/></g>
<g><path style="opacity:1" fill="#d4bb62" d="M 268.5,110.5 C 270.241,112.395 271.241,114.728 271.5,117.5C 272.296,122.147 272.963,126.814 273.5,131.5C 272.178,131.67 271.011,131.337 270,130.5C 266.246,132.92 263.079,136.087 260.5,140C 258.924,140.44 257.59,141.273 256.5,142.5C 255.833,142.167 255.167,141.833 254.5,141.5C 253.831,143.631 253.165,145.631 252.5,147.5C 252.167,147.5 251.833,147.5 251.5,147.5C 249.536,141.645 248.203,135.645 247.5,129.5C 249.083,128.373 251.083,128.373 253.5,129.5C 253.523,127.4 252.856,125.567 251.5,124C 252.682,122.321 254.015,120.821 255.5,119.5C 256.281,120.729 256.781,122.062 257,123.5C 258.33,119.993 260.83,118.327 264.5,118.5C 264.197,115.412 265.53,113.746 268.5,113.5C 268.5,112.5 268.5,111.5 268.5,110.5 Z"/></g>
<g><path style="opacity:1" fill="#f0e59a" d="M 188.5,97.5 C 197.816,103.148 204.149,111.148 207.5,121.5C 207.41,124.152 208.076,126.485 209.5,128.5C 211.719,137.516 212.052,146.516 210.5,155.5C 210.666,149.824 210.499,144.157 210,138.5C 209.333,139.833 208.667,139.833 208,138.5C 207.213,134.821 206.379,131.154 205.5,127.5C 204.646,128.948 203.646,130.281 202.5,131.5C 203.056,134.263 203.222,137.263 203,140.5C 202.667,140.167 202.333,139.833 202,139.5C 199.084,142.041 195.917,144.207 192.5,146C 191.289,147.113 191.289,148.28 192.5,149.5C 191.726,150.711 190.893,150.711 190,149.5C 189.51,150.793 189.343,152.127 189.5,153.5C 185.71,154.645 183.71,157.312 183.5,161.5C 182.482,162.193 181.482,162.859 180.5,163.5C 185.924,151.701 185.757,140.034 180,128.5C 175.916,123.217 170.749,119.55 164.5,117.5C 164.5,117.167 164.5,116.833 164.5,116.5C 167.89,117.023 171.223,117.857 174.5,119C 176.037,120.11 176.703,121.61 176.5,123.5C 178.942,123.646 179.609,122.813 178.5,121C 181.455,119.552 183.455,117.385 184.5,114.5C 180.18,114.041 179.513,112.208 182.5,109C 185.167,108.333 187.833,108.333 190.5,109C 191.653,110.883 193.319,111.716 195.5,111.5C 195.254,108.53 193.588,107.197 190.5,107.5C 190.477,103.979 189.144,101.979 186.5,101.5C 187.853,100.476 188.52,99.143 188.5,97.5 Z"/></g>
<g><path style="opacity:1" fill="#979a7f" d="M 207.5,121.5 C 208.924,123.515 209.59,125.848 209.5,128.5C 208.076,126.485 207.41,124.152 207.5,121.5 Z"/></g>
<g><path style="opacity:1" fill="#404b4c" d="M 74.5,116.5 C 74.5,116.167 74.5,115.833 74.5,115.5C 102.833,115.5 131.167,115.5 159.5,115.5C 161.042,116.301 162.708,116.634 164.5,116.5C 164.5,116.833 164.5,117.167 164.5,117.5C 134.521,116.539 104.521,116.206 74.5,116.5 Z"/></g>
<g><path style="opacity:1" fill="#b2933f" d="M 120.5,88.5 C 128.833,88.5 137.167,88.5 145.5,88.5C 141.353,89.3247 137.019,89.8247 132.5,90C 128.029,93.4286 124.363,97.5952 121.5,102.5C 117.778,104.592 114.111,106.592 110.5,108.5C 110.714,110.144 110.38,111.644 109.5,113C 107.5,113.333 105.5,113.667 103.5,114C 110.826,114.5 118.159,114.666 125.5,114.5C 132.833,114.5 140.167,114.5 147.5,114.5C 151.702,114.183 155.702,114.517 159.5,115.5C 131.167,115.5 102.833,115.5 74.5,115.5C 78.6472,114.675 82.9805,114.175 87.5,114C 95.2847,107.237 102.285,99.7368 108.5,91.5C 112.494,90.0694 116.494,89.0694 120.5,88.5 Z"/></g>
<g><path style="opacity:1" fill="#dfc76d" d="M 173.5,90.5 C 173.5,91.1667 173.833,91.5 174.5,91.5C 175.831,94.8687 174.831,97.5353 171.5,99.5C 169.156,99.6834 166.823,100.683 164.5,102.5C 163.19,105.473 161.19,107.807 158.5,109.5C 154.976,111.76 151.31,113.427 147.5,114.5C 140.167,114.5 132.833,114.5 125.5,114.5C 127.277,113.4 129.277,112.566 131.5,112C 138.586,104.248 145.919,96.9142 153.5,90C 158.075,88.9878 162.408,89.4878 166.5,91.5C 168.747,90.6258 171.08,90.2924 173.5,90.5 Z"/></g>
<g><path style="opacity:1" fill="#f0e18c" d="M 264.5,100.5 C 266.403,103.53 267.737,106.863 268.5,110.5C 268.5,111.5 268.5,112.5 268.5,113.5C 265.53,113.746 264.197,115.412 264.5,118.5C 260.83,118.327 258.33,119.993 257,123.5C 256.781,122.062 256.281,120.729 255.5,119.5C 254.015,120.821 252.682,122.321 251.5,124C 252.856,125.567 253.523,127.4 253.5,129.5C 251.083,128.373 249.083,128.373 247.5,129.5C 245.075,122.645 242.075,115.978 238.5,109.5C 238.421,108.07 238.754,106.736 239.5,105.5C 238.311,104.571 236.978,104.238 235.5,104.5C 235.23,101.254 234.897,98.2535 234.5,95.5C 236.5,93.8333 238.5,92.1667 240.5,90.5C 243.54,93.375 245.206,92.7083 245.5,88.5C 248.86,89.2096 250.693,87.8762 251,84.5C 252.825,86.4796 253.659,88.8129 253.5,91.5C 257.314,91.6509 258.981,93.6509 258.5,97.5C 256.897,97.3118 255.563,97.8118 254.5,99C 258.098,98.1684 261.431,98.6684 264.5,100.5 Z"/></g>
<g><path style="opacity:1" fill="#efde87" d="M 174.5,91.5 C 175.5,91.5 176.5,91.5 177.5,91.5C 179.033,93.2451 181.033,94.2451 183.5,94.5C 185.332,95.2485 186.999,96.2485 188.5,97.5C 188.52,99.143 187.853,100.476 186.5,101.5C 189.144,101.979 190.477,103.979 190.5,107.5C 193.588,107.197 195.254,108.53 195.5,111.5C 193.319,111.716 191.653,110.883 190.5,109C 187.833,108.333 185.167,108.333 182.5,109C 179.513,112.208 180.18,114.041 184.5,114.5C 183.455,117.385 181.455,119.552 178.5,121C 179.609,122.813 178.942,123.646 176.5,123.5C 176.703,121.61 176.037,120.11 174.5,119C 171.223,117.857 167.89,117.023 164.5,116.5C 162.708,116.634 161.042,116.301 159.5,115.5C 155.702,114.517 151.702,114.183 147.5,114.5C 151.31,113.427 154.976,111.76 158.5,109.5C 161.19,107.807 163.19,105.473 164.5,102.5C 166.823,100.683 169.156,99.6834 171.5,99.5C 174.831,97.5353 175.831,94.8687 174.5,91.5 Z"/></g>
<g><path style="opacity:1" fill="#cbb057" d="M 145.5,88.5 C 151.167,88.5 156.833,88.5 162.5,88.5C 166.387,88.6459 170.054,89.3126 173.5,90.5C 171.08,90.2924 168.747,90.6258 166.5,91.5C 162.408,89.4878 158.075,88.9878 153.5,90C 145.919,96.9142 138.586,104.248 131.5,112C 129.277,112.566 127.277,113.4 125.5,114.5C 118.159,114.666 110.826,114.5 103.5,114C 105.5,113.667 107.5,113.333 109.5,113C 110.38,111.644 110.714,110.144 110.5,108.5C 114.111,106.592 117.778,104.592 121.5,102.5C 124.363,97.5952 128.029,93.4286 132.5,90C 137.019,89.8247 141.353,89.3247 145.5,88.5 Z"/></g>
<g><path style="opacity:1" fill="#84846b" d="M 177.5,91.5 C 179.967,91.7549 181.967,92.7549 183.5,94.5C 181.033,94.2451 179.033,93.2451 177.5,91.5 Z"/></g>
<g><path style="opacity:1" fill="#a17d25" d="M 120.5,88.5 C 116.494,89.0694 112.494,90.0694 108.5,91.5C 102.285,99.7368 95.2847,107.237 87.5,114C 82.9805,114.175 78.6472,114.675 74.5,115.5C 74.5,115.833 74.5,116.167 74.5,116.5C 73.0213,118.678 71.688,121.012 70.5,123.5C 68.6379,127.409 66.3046,131.242 63.5,135C 62.5838,135.374 61.7504,135.874 61,136.5C 60.3439,132.998 59.0105,132.998 57,136.5C 55.7387,141.596 52.572,144.929 47.5,146.5C 46.8035,149.29 45.8035,151.957 44.5,154.5C 43.8333,154.167 43.1667,153.833 42.5,153.5C 41.6747,149.878 41.1747,146.211 41,142.5C 40.2039,146.755 40.3705,150.921 41.5,155C 39.6602,157.826 38.9935,160.993 39.5,164.5C 36.6527,136.884 43.3194,111.884 59.5,89.5C 79.7576,88.5124 100.091,88.1791 120.5,88.5 Z"/></g>
<g><path style="opacity:1" fill="#716a4a" d="M 162.5,88.5 C 156.833,88.5 151.167,88.5 145.5,88.5C 137.167,88.5 128.833,88.5 120.5,88.5C 100.091,88.1791 79.7576,88.5124 59.5,89.5C 76.3201,88.1671 93.4868,87.5005 111,87.5C 128.337,87.5001 145.503,87.8334 162.5,88.5 Z"/></g>
<g><path style="opacity:1" fill="#f1e69c" d="M 228.5,60.5 C 244.395,70.3914 256.395,83.7247 264.5,100.5C 261.431,98.6684 258.098,98.1684 254.5,99C 255.563,97.8118 256.897,97.3118 258.5,97.5C 258.981,93.6509 257.314,91.6509 253.5,91.5C 253.659,88.8129 252.825,86.4796 251,84.5C 250.693,87.8762 248.86,89.2096 245.5,88.5C 245.206,92.7083 243.54,93.375 240.5,90.5C 238.5,92.1667 236.5,93.8333 234.5,95.5C 234.897,98.2535 235.23,101.254 235.5,104.5C 236.978,104.238 238.311,104.571 239.5,105.5C 238.754,106.736 238.421,108.07 238.5,109.5C 232.797,100.801 226.13,92.801 218.5,85.5C 218.047,84.5416 217.381,83.7083 216.5,83C 217.406,81.3005 217.739,79.4672 217.5,77.5C 214.743,77.6216 212.743,76.4549 211.5,74C 213.594,72.6485 215.927,72.1485 218.5,72.5C 218.5,73.8333 218.5,75.1667 218.5,76.5C 219.5,76.5 220.5,76.5 221.5,76.5C 221.617,74.5165 220.95,72.8498 219.5,71.5C 223.204,69.4371 226.871,67.4371 230.5,65.5C 230.169,63.6776 229.502,62.0109 228.5,60.5 Z"/></g>
<g><path style="opacity:1" fill="#404135" d="M 69.5,75.5 C 82.1237,77.4809 95.1237,78.1476 108.5,77.5C 95.3438,78.4956 82.0105,78.8289 68.5,78.5C 68.2627,77.209 68.596,76.209 69.5,75.5 Z"/></g>
<g><path style="opacity:1" fill="#7c6729" d="M 71.5,74.5 C 83.7892,76.4803 96.4559,77.147 109.5,76.5C 109.5,77.1667 109.167,77.5 108.5,77.5C 95.1237,78.1476 82.1237,77.4809 69.5,75.5C 70.1667,75.1667 70.8333,74.8333 71.5,74.5 Z"/></g>
<g><path style="opacity:1" fill="#394246" d="M 168.5,62.5 C 171.495,62.2938 174.162,62.9605 176.5,64.5C 163.5,63.1667 150.5,63.1667 137.5,64.5C 139.631,63.6862 141.964,63.1862 144.5,63C 152.493,62.5003 160.493,62.3336 168.5,62.5 Z"/></g>
<g><path style="opacity:1" fill="#8e7a3f" d="M 143.5,61.5 C 150.5,61.5 157.5,61.5 164.5,61.5C 166.099,61.2322 167.432,61.5655 168.5,62.5C 160.493,62.3336 152.493,62.5003 144.5,63C 141.964,63.1862 139.631,63.6862 137.5,64.5C 134.018,66.062 130.352,67.3953 126.5,68.5C 129.693,66.4963 132.693,64.163 135.5,61.5C 138.053,61.9452 140.72,61.9452 143.5,61.5 Z"/></g>
<g><path style="opacity:1" fill="#dbc56d" d="M 196.5,45.5 C 197.833,45.5 199.167,45.5 200.5,45.5C 205.761,46.4725 210.427,48.4725 214.5,51.5C 212.94,51.4809 211.44,51.1476 210,50.5C 204.442,53.6661 199.942,57.8328 196.5,63C 199.468,65.5843 199.135,67.5843 195.5,69C 197.319,69.7403 198.652,70.9069 199.5,72.5C 193.834,70.6607 188.5,68.3274 183.5,65.5C 181.723,64.3995 179.723,63.5662 177.5,63C 179.473,62.5045 181.473,62.3379 183.5,62.5C 183.5,61.5 183.5,60.5 183.5,59.5C 186.076,58.8931 188.409,57.7264 190.5,56C 189.5,55.6667 188.5,55.3333 187.5,55C 190.365,52.7137 193.698,51.8803 197.5,52.5C 197.552,50.0971 197.219,47.7638 196.5,45.5 Z"/></g>
<g><path style="opacity:1" fill="#ead880" d="M 214.5,51.5 C 219.978,53.3251 224.645,56.3251 228.5,60.5C 229.502,62.0109 230.169,63.6776 230.5,65.5C 226.871,67.4371 223.204,69.4371 219.5,71.5C 220.95,72.8498 221.617,74.5165 221.5,76.5C 220.5,76.5 219.5,76.5 218.5,76.5C 218.5,75.1667 218.5,73.8333 218.5,72.5C 215.927,72.1485 213.594,72.6485 211.5,74C 212.743,76.4549 214.743,77.6216 217.5,77.5C 217.739,79.4672 217.406,81.3005 216.5,83C 217.381,83.7083 218.047,84.5416 218.5,85.5C 212.298,80.905 205.965,76.5717 199.5,72.5C 198.652,70.9069 197.319,69.7403 195.5,69C 199.135,67.5843 199.468,65.5843 196.5,63C 199.942,57.8328 204.442,53.6661 210,50.5C 211.44,51.1476 212.94,51.4809 214.5,51.5 Z"/></g>
<g><path style="opacity:1" fill="#b59239" d="M 168.5,249.5 C 170.857,249.337 173.19,249.503 175.5,250C 176.056,250.383 176.389,250.883 176.5,251.5C 174.669,250.948 173.003,250.948 171.5,251.5C 170.098,252.842 170.431,253.676 172.5,254C 169.644,256.022 167.311,258.522 165.5,261.5C 165.709,262.086 166.043,262.586 166.5,263C 164.03,264.793 161.53,266.627 159,268.5C 158.506,270.134 158.34,271.801 158.5,273.5C 157.209,273.263 156.209,273.596 155.5,274.5C 153.833,274.5 152.167,274.5 150.5,274.5C 149.282,273.839 147.949,273.172 146.5,272.5C 148.958,271.876 150.624,270.376 151.5,268C 150.692,267.692 150.025,267.192 149.5,266.5C 151.636,265.528 152.803,263.861 153,261.5C 156.171,258.019 159.671,254.853 163.5,252C 165.653,251.901 167.319,251.067 168.5,249.5 Z"/></g>
<g><path style="opacity:1" fill="#5e5738" d="M 136.5,273.5 C 141.13,274.229 145.797,274.563 150.5,274.5C 152.167,274.5 153.833,274.5 155.5,274.5C 163.851,274.518 172.184,274.185 180.5,273.5C 172.726,275.031 164.726,275.698 156.5,275.5C 150.833,275.333 145.167,275.167 139.5,275C 138.263,274.768 137.263,274.268 136.5,273.5 Z"/></g>
<g><path style="opacity:1" fill="#586995" d="M 214.5,293.5 C 214.389,294.117 214.056,294.617 213.5,295C 209.553,296.484 205.553,297.65 201.5,298.5C 205.522,296.266 209.856,294.599 214.5,293.5 Z"/></g>
<g><path style="opacity:1" fill="#798594" d="M 115.5,296.5 C 118.152,296.41 120.485,297.076 122.5,298.5C 119.848,298.59 117.515,297.924 115.5,296.5 Z"/></g>
<g><path style="opacity:1" fill="#808faf" d="M 111.5,298.5 C 114.152,298.41 116.485,299.076 118.5,300.5C 115.848,300.59 113.515,299.924 111.5,298.5 Z"/></g>
<g><path style="opacity:1" fill="#8d9ab7" d="M 219.5,297.5 C 217.383,299.655 214.716,300.655 211.5,300.5C 213.936,299.129 216.603,298.129 219.5,297.5 Z"/></g>
<g><path style="opacity:1" fill="#697ba1" d="M 193.5,300.5 C 191.485,301.924 189.152,302.59 186.5,302.5C 188.515,301.076 190.848,300.41 193.5,300.5 Z"/></g>
<g><path style="opacity:1" fill="#4e618f" d="M 186.5,302.5 C 181.107,304.322 175.441,305.322 169.5,305.5C 174.872,303.613 180.539,302.613 186.5,302.5 Z"/></g>
<g><path style="opacity:1" fill="#8c99b6" d="M 134.5,309.5 C 146.819,310.253 159.152,310.586 171.5,310.5C 161.008,311.659 150.341,311.825 139.5,311C 137.618,310.802 135.952,310.302 134.5,309.5 Z"/></g>
</svg>
