<?xml version="1.0" encoding="UTF-8"?>
<!DOCTYPE svg PUBLIC "-//W3C//DTD SVG 1.1//EN" "http://www.w3.org/Graphics/SVG/1.1/DTD/svg11.dtd">
<svg xmlns="http://www.w3.org/2000/svg" version="1.1" width="209px" height="209px" style="shape-rendering:geometricPrecision; text-rendering:geometricPrecision; image-rendering:optimizeQuality; fill-rule:evenodd; clip-rule:evenodd" xmlns:xlink="http://www.w3.org/1999/xlink">
<g><path style="opacity:0.932" fill="#040103" d="M 89.5,19.5 C 101.912,19.0828 114.245,19.7495 126.5,21.5C 126.5,22.5 126.5,23.5 126.5,24.5C 125.448,24.3505 124.448,24.5172 123.5,25C 112.648,34.8528 102.148,45.0195 92,55.5C 79.2105,46.4597 65.0438,42.9597 49.5,45C 46.7365,45.5323 44.0698,46.3657 41.5,47.5C 41.1667,47.1667 40.8333,46.8333 40.5,46.5C 54.131,32.5194 70.4643,23.5194 89.5,19.5 Z"/></g>
<g><path style="opacity:0.977" fill="#040004" d="M 159.5,37.5 C 164.507,35.7745 169.174,36.6078 173.5,40C 174.517,41.0495 174.684,42.2161 174,43.5C 172.122,44.0527 170.622,45.0527 169.5,46.5C 172.233,49.8051 174.567,49.8051 176.5,46.5C 176.5,45.8333 176.5,45.1667 176.5,44.5C 176.5,44.1667 176.5,43.8333 176.5,43.5C 177.167,43.5 177.5,43.1667 177.5,42.5C 178.725,43.1522 179.392,44.3189 179.5,46C 179.91,48.5754 178.91,50.2421 176.5,51C 180.79,51.8683 181.456,53.8683 178.5,57C 177.552,57.4828 176.552,57.6495 175.5,57.5C 192.634,88.3605 192.801,119.36 176,150.5C 166.607,164.287 154.441,174.954 139.5,182.5C 139.167,182.333 138.833,182.167 138.5,182C 142.5,177 142.5,172 138.5,167C 136.232,165.448 133.732,164.615 131,164.5C 126.806,165.677 122.639,167.01 118.5,168.5C 115.164,167.328 112.997,164.995 112,161.5C 110.003,151.112 110.336,140.778 113,130.5C 120.656,101.2 131.656,73.2005 146,46.5C 147.315,40.278 146.149,34.6113 142.5,29.5C 147.92,31.0729 152.92,34.0729 157.5,38.5C 158.183,38.1373 158.85,37.8039 159.5,37.5 Z M 166.5,46.5 C 162.898,44.5103 162.898,43.677 166.5,44C 167.598,44.7697 167.598,45.603 166.5,46.5 Z M 169.5,46.5 C 171.833,46.5 174.167,46.5 176.5,46.5C 174.567,49.8051 172.233,49.8051 169.5,46.5 Z M 173.5,54.5 C 175.048,54.8212 175.715,55.8212 175.5,57.5C 174.094,57.0269 173.427,56.0269 173.5,54.5 Z"/></g>
<g><path style="opacity:0.511" fill="#151e19" d="M 175.5,32.5 C 180.181,32.8757 181.515,35.209 179.5,39.5C 178.914,39.2907 178.414,38.9574 178,38.5C 177.5,39.6667 176.667,40.5 175.5,41C 176.416,41.2784 177.082,41.7784 177.5,42.5C 177.5,43.1667 177.167,43.5 176.5,43.5C 175.167,43.8333 175.167,44.1667 176.5,44.5C 176.5,45.1667 176.5,45.8333 176.5,46.5C 174.167,46.5 171.833,46.5 169.5,46.5C 170.622,45.0527 172.122,44.0527 174,43.5C 174.684,42.2161 174.517,41.0495 173.5,40C 169.174,36.6078 164.507,35.7745 159.5,37.5C 155.297,34.0552 155.964,31.3886 161.5,29.5C 164.565,30.3974 166.398,32.3974 167,35.5C 167.585,32.3801 168.919,29.7134 171,27.5C 173.401,28.3988 174.901,30.0655 175.5,32.5 Z M 175.5,32.5 C 175.5,33.5 175.5,34.5 175.5,35.5C 174.391,35.5569 173.391,35.8902 172.5,36.5C 172.738,34.5956 173.738,33.2623 175.5,32.5 Z"/></g>
<g><path style="opacity:1" fill="#174c1c" d="M 130.5,58.5 C 131.167,55.5 131.833,52.5 132.5,49.5C 134.516,47.5457 135.516,45.0457 135.5,42C 135.849,35.6533 132.849,33.32 126.5,35C 123.961,37.3697 121.628,39.8697 119.5,42.5C 117.098,44.9092 114.431,46.9092 111.5,48.5C 116.663,42.5039 122.33,37.0039 128.5,32C 133.92,32.4078 137.253,35.4078 138.5,41C 136.749,47.3293 134.083,53.1626 130.5,58.5 Z"/></g>
<g><path style="opacity:1" fill="#116016" d="M 132.5,49.5 C 132.5,48.1667 132.5,46.8333 132.5,45.5C 128.996,45.0726 125.329,45.0726 121.5,45.5C 121.715,43.8212 121.048,42.8212 119.5,42.5C 121.628,39.8697 123.961,37.3697 126.5,35C 132.849,33.32 135.849,35.6533 135.5,42C 135.516,45.0457 134.516,47.5457 132.5,49.5 Z"/></g>
<g><path style="opacity:1" fill="#26762a" d="M 119.5,42.5 C 121.048,42.8212 121.715,43.8212 121.5,45.5C 125.329,45.0726 128.996,45.0726 132.5,45.5C 132.5,46.8333 132.5,48.1667 132.5,49.5C 131.833,52.5 131.167,55.5 130.5,58.5C 127.053,67.0495 123.386,75.3828 119.5,83.5C 119.5,82.1667 119.5,80.8333 119.5,79.5C 122.723,73.8649 125.389,67.8649 127.5,61.5C 126.23,56.9849 123.23,54.6516 118.5,54.5C 116.03,59.8934 113.364,65.2267 110.5,70.5C 110.155,73.1979 108.822,75.1979 106.5,76.5C 109.334,69.8543 111.834,63.1877 114,56.5C 110.251,60.4196 106.417,64.0863 102.5,67.5C 103.933,65.4418 104.6,63.1085 104.5,60.5C 101.188,60.149 98.855,61.4823 97.5,64.5C 96.3951,65.6005 95.0618,66.2671 93.5,66.5C 99.1667,60.1667 105.167,54.1667 111.5,48.5C 114.431,46.9092 117.098,44.9092 119.5,42.5 Z"/></g>
<g><path style="opacity:1" fill="#4da053" d="M 51.5,53.5 C 62.8177,51.4875 73.4843,53.6542 83.5,60C 86.7196,62.4367 90.053,64.6033 93.5,66.5C 95.0618,66.2671 96.3951,65.6005 97.5,64.5C 97.719,65.675 97.3857,66.675 96.5,67.5C 94.5914,68.3482 92.5914,68.6816 90.5,68.5C 89.2114,71.7888 86.8781,74.1221 83.5,75.5C 85.1455,73.1878 87.1455,71.1878 89.5,69.5C 78.9059,60.0313 66.5725,56.0313 52.5,57.5C 54.8863,56.08 57.553,55.08 60.5,54.5C 57.5719,53.5159 54.5719,53.1826 51.5,53.5 Z"/></g>
<g><path style="opacity:1" fill="#5bb860" d="M 51.5,53.5 C 54.5719,53.1826 57.5719,53.5159 60.5,54.5C 57.553,55.08 54.8863,56.08 52.5,57.5C 46.972,59.7047 42.3054,63.0381 38.5,67.5C 39.7829,65.3936 40.6162,63.0602 41,60.5C 43.6578,61.694 44.8244,60.694 44.5,57.5C 43.5,57.5 42.5,57.5 41.5,57.5C 44.1918,54.8193 47.5252,53.4859 51.5,53.5 Z"/></g>
<g><path style="opacity:0.919" fill="#030203" d="M 58.5,64.5 C 64.1187,65.2383 69.452,66.9049 74.5,69.5C 75.521,70.0016 75.6877,70.6683 75,71.5C 68.5949,76.6213 61.7616,81.1213 54.5,85C 51.2617,86.3677 47.9283,86.7011 44.5,86C 42.2072,79.1903 43.8738,73.1903 49.5,68C 52.4588,66.3957 55.4588,65.2291 58.5,64.5 Z"/></g>
<g><path style="opacity:1" fill="#2e9035" d="M 119.5,79.5 C 119.5,77.8333 119.5,76.1667 119.5,74.5C 117.165,73.5865 114.999,72.2532 113,70.5C 112.23,71.5981 111.397,71.5981 110.5,70.5C 113.364,65.2267 116.03,59.8934 118.5,54.5C 123.23,54.6516 126.23,56.9849 127.5,61.5C 125.389,67.8649 122.723,73.8649 119.5,79.5 Z"/></g>
<g><path style="opacity:1" fill="#76da79" d="M 41.5,57.5 C 42.5,57.5 43.5,57.5 44.5,57.5C 44.8244,60.694 43.6578,61.694 41,60.5C 40.6162,63.0602 39.7829,65.3936 38.5,67.5C 35.8557,73.2214 34.689,79.2214 35,85.5C 36.5082,90.8426 40.0082,93.8426 45.5,94.5C 43.7078,95.3091 41.7078,95.8091 39.5,96C 41.2331,97.1889 42.8998,98.3556 44.5,99.5C 44.1667,99.5 43.8333,99.5 43.5,99.5C 33.7523,97.2447 29.0856,91.078 29.5,81C 29.4619,70.9059 33.4619,63.0725 41.5,57.5 Z"/></g>
<g><path style="opacity:1" fill="#67eb6c" d="M 34.5,65.5 C 36.9965,68.0167 36.8298,70.6834 34,73.5C 33.6667,79.1667 33.3333,84.8333 33,90.5C 31.2447,87.4001 30.4114,84.0668 30.5,80.5C 31.0265,75.2585 32.3599,70.2585 34.5,65.5 Z"/></g>
<g><path style="opacity:1" fill="#49ad4e" d="M 102.5,67.5 C 102.288,69.3841 101.288,70.7174 99.5,71.5C 101.53,73.607 103.697,75.607 106,77.5C 106.399,77.2716 106.565,76.9382 106.5,76.5C 108.822,75.1979 110.155,73.1979 110.5,70.5C 111.397,71.5981 112.23,71.5981 113,70.5C 114.999,72.2532 117.165,73.5865 119.5,74.5C 119.5,76.1667 119.5,77.8333 119.5,79.5C 119.5,80.8333 119.5,82.1667 119.5,83.5C 119.107,85.2838 118.441,86.9505 117.5,88.5C 115.552,90.3204 114.552,92.6538 114.5,95.5C 114.267,98.5418 113.267,101.208 111.5,103.5C 113.206,98.6472 113.706,93.6472 113,88.5C 112.147,86.8753 111.147,86.5419 110,87.5C 108.47,85.7738 107.47,83.7738 107,81.5C 103.576,87.3835 101.076,93.7168 99.5,100.5C 98.8333,100.5 98.1667,100.5 97.5,100.5C 99.5367,94.2235 101.87,88.0569 104.5,82C 101.573,79.6176 98.7395,77.1176 96,74.5C 89.8449,80.8358 83.0116,86.1692 75.5,90.5C 76.3527,88.1073 78.0194,86.774 80.5,86.5C 80.5,85.5 80.5,84.5 80.5,83.5C 85.1667,83.5 87.5,81.1667 87.5,76.5C 84.01,76.245 81.3433,77.5783 79.5,80.5C 80.5042,82.6773 79.8375,83.0107 77.5,81.5C 76.3777,82.6302 75.0443,83.2969 73.5,83.5C 76.5203,80.4838 79.8536,77.8171 83.5,75.5C 86.8781,74.1221 89.2114,71.7888 90.5,68.5C 92.5914,68.6816 94.5914,68.3482 96.5,67.5C 97.3857,66.675 97.719,65.675 97.5,64.5C 98.855,61.4823 101.188,60.149 104.5,60.5C 104.6,63.1085 103.933,65.4418 102.5,67.5 Z"/></g>
<g><path style="opacity:1" fill="#5dd062" d="M 75.5,90.5 C 71.8362,93.3346 67.8362,95.668 63.5,97.5C 63.5,96.5 63.5,95.5 63.5,94.5C 65.9099,94.0791 67.7432,92.7458 69,90.5C 70.3561,91.3802 71.8561,91.7135 73.5,91.5C 73.5,89.8333 73.5,88.1667 73.5,86.5C 71.901,86.7678 70.5676,86.4345 69.5,85.5C 70.6049,84.3995 71.9382,83.7329 73.5,83.5C 75.0443,83.2969 76.3777,82.6302 77.5,81.5C 79.8375,83.0107 80.5042,82.6773 79.5,80.5C 81.3433,77.5783 84.01,76.245 87.5,76.5C 87.5,81.1667 85.1667,83.5 80.5,83.5C 80.5,84.5 80.5,85.5 80.5,86.5C 78.0194,86.774 76.3527,88.1073 75.5,90.5 Z"/></g>
<g><path style="opacity:0.972" fill="#040103" d="M 19.5,83.5 C 26.6137,105.725 41.6137,113.225 64.5,106C 74.1376,102.184 82.8043,96.8509 90.5,90C 91.3317,89.3123 91.9984,89.479 92.5,90.5C 83.0457,112.934 79.2123,136.267 81,160.5C 83.2562,174.878 91.0896,184.711 104.5,190C 68.9495,189.643 42.7828,173.809 26,142.5C 17.5075,123.549 15.3409,103.882 19.5,83.5 Z"/></g>
<g><path style="opacity:1" fill="#54cb5b" d="M 111.5,103.5 C 110.167,109.167 108.833,114.833 107.5,120.5C 106.087,116.775 106.421,113.108 108.5,109.5C 106.982,106.643 104.649,104.976 101.5,104.5C 101.843,102.517 101.176,101.183 99.5,100.5C 101.076,93.7168 103.576,87.3835 107,81.5C 107.47,83.7738 108.47,85.7738 110,87.5C 111.147,86.5419 112.147,86.8753 113,88.5C 113.706,93.6472 113.206,98.6472 111.5,103.5 Z"/></g>
<g><path style="opacity:0.341" fill="#649d66" d="M 117.5,88.5 C 117.065,91.1573 116.065,93.4907 114.5,95.5C 114.552,92.6538 115.552,90.3204 117.5,88.5 Z"/></g>
<g><path style="opacity:1" fill="#70e973" d="M 69.5,85.5 C 70.5676,86.4345 71.901,86.7678 73.5,86.5C 73.5,88.1667 73.5,89.8333 73.5,91.5C 71.8561,91.7135 70.3561,91.3802 69,90.5C 67.7432,92.7458 65.9099,94.0791 63.5,94.5C 63.5,95.5 63.5,96.5 63.5,97.5C 63.1667,97.5 62.8333,97.5 62.5,97.5C 56.6431,99.0636 50.6431,99.7303 44.5,99.5C 42.8998,98.3556 41.2331,97.1889 39.5,96C 41.7078,95.8091 43.7078,95.3091 45.5,94.5C 54.408,94.3981 62.408,91.3981 69.5,85.5 Z"/></g>
<g><path style="opacity:0.471" fill="#91d992" d="M 62.5,97.5 C 56.391,100.508 50.0577,101.174 43.5,99.5C 43.8333,99.5 44.1667,99.5 44.5,99.5C 50.6431,99.7303 56.6431,99.0636 62.5,97.5 Z"/></g>
<g><path style="opacity:0.557" fill="#82d987" d="M 94.5,111.5 C 93.9933,115.86 93.3266,120.193 92.5,124.5C 91.8333,125.5 91.1667,126.5 90.5,127.5C 91.2317,121.906 92.565,116.573 94.5,111.5 Z"/></g>
<g><path style="opacity:1" fill="#69f370" d="M 92.5,124.5 C 93.3266,120.193 93.9933,115.86 94.5,111.5C 95.9403,110.637 97.2736,110.637 98.5,111.5C 99.1667,110.833 99.8333,110.167 100.5,109.5C 101.906,110.951 103.406,112.284 105,113.5C 105.669,119.918 104.503,126.251 101.5,132.5C 99.8944,136.255 97.8944,139.922 95.5,143.5C 94.6509,141.106 93.6509,138.773 92.5,136.5C 92.6697,132.682 92.6697,128.682 92.5,124.5 Z"/></g>
<g><path style="opacity:0.425" fill="#88d98b" d="M 90.5,127.5 C 89.7616,138.15 89.4283,148.817 89.5,159.5C 88.8344,155.681 88.5011,151.681 88.5,147.5C 88.3897,140.608 89.0564,133.942 90.5,127.5 Z"/></g>
<g><path style="opacity:1" fill="#6ceb70" d="M 97.5,100.5 C 98.1667,100.5 98.8333,100.5 99.5,100.5C 101.176,101.183 101.843,102.517 101.5,104.5C 104.649,104.976 106.982,106.643 108.5,109.5C 106.421,113.108 106.087,116.775 107.5,120.5C 105.545,125.654 104.212,130.987 103.5,136.5C 102.732,137.263 102.232,138.263 102,139.5C 101.5,146.158 101.334,152.825 101.5,159.5C 100.512,154.36 100.179,149.026 100.5,143.5C 99.5,143.5 98.5,143.5 97.5,143.5C 96.4532,147.522 96.2866,151.522 97,155.5C 94.3688,149.733 92.3688,143.733 91,137.5C 90.2747,147.194 90.4414,156.86 91.5,166.5C 90.0762,164.485 89.4095,162.152 89.5,159.5C 89.4283,148.817 89.7616,138.15 90.5,127.5C 91.1667,126.5 91.8333,125.5 92.5,124.5C 92.6697,128.682 92.6697,132.682 92.5,136.5C 93.6509,138.773 94.6509,141.106 95.5,143.5C 97.8944,139.922 99.8944,136.255 101.5,132.5C 104.503,126.251 105.669,119.918 105,113.5C 103.406,112.284 101.906,110.951 100.5,109.5C 99.8333,110.167 99.1667,110.833 98.5,111.5C 97.2736,110.637 95.9403,110.637 94.5,111.5C 95.3028,107.761 96.3028,104.095 97.5,100.5 Z"/></g>
<g><path style="opacity:0.098" fill="#85d287" d="M 103.5,136.5 C 102.167,145.167 102.167,153.833 103.5,162.5C 102.833,161.5 102.167,160.5 101.5,159.5C 101.334,152.825 101.5,146.158 102,139.5C 102.232,138.263 102.732,137.263 103.5,136.5 Z"/></g>
<g><path style="opacity:1" fill="#6af570" d="M 101.5,159.5 C 102.167,160.5 102.833,161.5 103.5,162.5C 104.653,166.139 106.319,169.472 108.5,172.5C 109.96,174.463 111.627,176.296 113.5,178C 117.516,178.186 121.516,178.186 125.5,178C 124.619,178.708 123.953,179.542 123.5,180.5C 122.71,181.401 121.71,182.068 120.5,182.5C 114.548,181.829 108.548,180.829 102.5,179.5C 100.596,179.262 99.2623,178.262 98.5,176.5C 96.6465,172.779 94.3131,169.446 91.5,166.5C 90.4414,156.86 90.2747,147.194 91,137.5C 92.3688,143.733 94.3688,149.733 97,155.5C 96.2866,151.522 96.4532,147.522 97.5,143.5C 98.5,143.5 99.5,143.5 100.5,143.5C 100.179,149.026 100.512,154.36 101.5,159.5 Z"/></g>
<g><path style="opacity:0.698" fill="#88d78b" d="M 91.5,166.5 C 94.3131,169.446 96.6465,172.779 98.5,176.5C 94.7166,174.295 92.3833,170.961 91.5,166.5 Z"/></g>
<g><path style="opacity:0.906" fill="#84c388" d="M 130.5,177.5 C 130.5,176.5 130.5,175.5 130.5,174.5C 129.5,174.5 128.5,174.5 127.5,174.5C 129.102,172.926 131.102,172.259 133.5,172.5C 133.759,174.989 132.759,176.656 130.5,177.5 Z"/></g>
<g><path style="opacity:1" fill="#81e784" d="M 108.5,172.5 C 110.595,173.412 112.595,174.579 114.5,176C 118.984,176.731 123.318,176.231 127.5,174.5C 128.5,174.5 129.5,174.5 130.5,174.5C 130.5,175.5 130.5,176.5 130.5,177.5C 128.574,179.293 126.241,180.293 123.5,180.5C 123.953,179.542 124.619,178.708 125.5,178C 121.516,178.186 117.516,178.186 113.5,178C 111.627,176.296 109.96,174.463 108.5,172.5 Z"/></g>
<g><path style="opacity:1" fill="#8bdd90" d="M 102.5,179.5 C 108.548,180.829 114.548,181.829 120.5,182.5C 116.154,182.666 111.821,182.499 107.5,182C 105.509,181.626 103.842,180.793 102.5,179.5 Z"/></g>
</svg>
