<?xml version="1.0" encoding="UTF-8"?>
<!DOCTYPE svg PUBLIC "-//W3C//DTD SVG 1.1//EN" "http://www.w3.org/Graphics/SVG/1.1/DTD/svg11.dtd">
<svg xmlns="http://www.w3.org/2000/svg" version="1.1" width="64px" height="64px" style="shape-rendering:geometricPrecision; text-rendering:geometricPrecision; image-rendering:optimizeQuality; fill-rule:evenodd; clip-rule:evenodd" xmlns:xlink="http://www.w3.org/1999/xlink">
<g><path style="opacity:0.993" fill="#232a49" d="M 17.5,7.5 C 23.8421,7.33379 30.1754,7.50046 36.5,8C 51.7584,14.356 56.9251,25.5226 52,41.5C 48.5868,48.5825 43.0868,53.0825 35.5,55C 29.8431,55.4994 24.1764,55.6661 18.5,55.5C 18.5,45.8333 18.5,36.1667 18.5,26.5C 20.5,26.5 22.5,26.5 24.5,26.5C 24.5,34.1667 24.5,41.8333 24.5,49.5C 41.1793,49.9898 48.6793,41.9898 47,25.5C 45.314,20.6058 42.1474,17.1058 37.5,15C 30.9236,13.6226 24.2569,13.1226 17.5,13.5C 17.5,11.5 17.5,9.5 17.5,7.5 Z"/></g>
<g><path style="opacity:0.995" fill="#ff9500" d="M 9.5,16.5 C 16.8409,16.3337 24.1742,16.5003 31.5,17C 38.9694,18.5636 42.9694,23.2303 43.5,31C 42.2005,40.9798 36.5339,45.8132 26.5,45.5C 26.5,43.1667 26.5,40.8333 26.5,38.5C 35.4732,39.031 38.6399,35.031 36,26.5C 34.4423,24.2324 32.2756,23.0657 29.5,23C 24.8452,22.5008 20.1785,22.3342 15.5,22.5C 15.5,30.8333 15.5,39.1667 15.5,47.5C 13.5,47.5 11.5,47.5 9.5,47.5C 9.5,37.1667 9.5,26.8333 9.5,16.5 Z"/></g>
</svg>
