<?xml version="1.0" encoding="UTF-8"?>
<!DOCTYPE svg PUBLIC "-//W3C//DTD SVG 1.1//EN" "http://www.w3.org/Graphics/SVG/1.1/DTD/svg11.dtd">
<svg xmlns="http://www.w3.org/2000/svg" version="1.1" width="141px" height="141px" style="shape-rendering:geometricPrecision; text-rendering:geometricPrecision; image-rendering:optimizeQuality; fill-rule:evenodd; clip-rule:evenodd" xmlns:xlink="http://www.w3.org/1999/xlink">
<g><path style="opacity:0.834" fill="#f2f2f2" d="M 58.5,-0.5 C 66.1667,-0.5 73.8333,-0.5 81.5,-0.5C 113.5,6.83333 133.167,26.5 140.5,58.5C 140.5,66.1667 140.5,73.8333 140.5,81.5C 133.167,113.5 113.5,133.167 81.5,140.5C 73.8333,140.5 66.1667,140.5 58.5,140.5C 26.5,133.167 6.83333,113.5 -0.5,81.5C -0.5,73.8333 -0.5,66.1667 -0.5,58.5C 6.83333,26.5 26.5,6.83333 58.5,-0.5 Z"/></g>
<g><path style="opacity:1" fill="#727272" d="M 83.5,4.5 C 73.4219,2.9724 63.4219,3.30573 53.5,5.5C 55.0261,3.87003 57.0261,3.03669 59.5,3C 62.8333,2.83333 66.1667,2.66667 69.5,2.5C 74.4371,2.30021 79.1038,2.96688 83.5,4.5 Z"/></g>
<g><path style="opacity:1" fill="#1b1b1b" d="M 83.5,4.5 C 84.5,4.5 85.5,4.5 86.5,4.5C 89.9385,6.20427 93.6052,7.5376 97.5,8.5C 122.688,20.2197 136.355,40.053 138.5,68C 137.418,99.5539 122.418,121.387 93.5,133.5C 89.8379,133.723 86.5046,134.723 83.5,136.5C 75.0184,137.72 66.6851,137.72 58.5,136.5C 56.4855,135.076 54.1522,134.41 51.5,134.5C 21.5674,123.222 5.56744,101.389 3.5,69C 5.95826,39.4034 20.6249,18.57 47.5,6.5C 49.4534,5.84442 51.4534,5.51109 53.5,5.5C 63.4219,3.30573 73.4219,2.9724 83.5,4.5 Z"/></g>
<g><path style="opacity:1" fill="#898989" d="M 86.5,4.5 C 90.7076,4.677 94.3743,6.01034 97.5,8.5C 93.6052,7.5376 89.9385,6.20427 86.5,4.5 Z"/></g>
<g><path style="opacity:1" fill="#9a771a" d="M 103.5,41.5 C 86.8052,41.2253 70.1386,41.5586 53.5,42.5C 53.9175,41.7784 54.5842,41.2784 55.5,41C 71.672,40.1719 87.672,40.3386 103.5,41.5 Z"/></g>
<g><path style="opacity:1" fill="#deaa18" d="M 103.5,41.5 C 103.932,56.2253 103.432,70.892 102,85.5C 99.1282,92.8794 93.9616,97.546 86.5,99.5C 71.8295,99.6666 57.1629,99.4999 42.5,99C 43.3805,98.2917 44.0472,97.4584 44.5,96.5C 46.6281,93.8697 48.9614,91.3697 51.5,89C 61.1667,88.6667 70.8333,88.3333 80.5,88C 86.3729,86.4559 89.8729,82.6225 91,76.5C 91.4997,68.8406 91.6664,61.1739 91.5,53.5C 81.3416,52.3415 71.0083,52.1748 60.5,53C 59.944,53.3826 59.6107,53.8826 59.5,54.5C 54.1053,56.6127 51.7719,60.6127 52.5,66.5C 60.3159,67.4924 68.3159,67.8257 76.5,67.5C 76.5,70.8333 76.5,74.1667 76.5,77.5C 64.1667,77.5 51.8333,77.5 39.5,77.5C 39.1439,69.7618 39.6439,62.0952 41,54.5C 43.738,48.927 47.9047,44.927 53.5,42.5C 70.1386,41.5586 86.8052,41.2253 103.5,41.5 Z"/></g>
<g><path style="opacity:1" fill="#68521b" d="M 91.5,53.5 C 80.7819,53.2129 70.1152,53.5462 59.5,54.5C 59.6107,53.8826 59.944,53.3826 60.5,53C 71.0083,52.1748 81.3416,52.3415 91.5,53.5 Z"/></g>
<g><path style="opacity:1" fill="#a47f1b" d="M 52.5,66.5 C 60.8333,66.5 69.1667,66.5 77.5,66.5C 77.5,70.8333 77.5,75.1667 77.5,79.5C 64.4559,80.147 51.7892,79.4803 39.5,77.5C 51.8333,77.5 64.1667,77.5 76.5,77.5C 76.5,74.1667 76.5,70.8333 76.5,67.5C 68.3159,67.8257 60.3159,67.4924 52.5,66.5 Z"/></g>
<g><path style="opacity:1" fill="#b48a1b" d="M 44.5,96.5 C 44.0472,97.4584 43.3805,98.2917 42.5,99C 57.1629,99.4999 71.8295,99.6666 86.5,99.5C 85.791,100.404 84.791,100.737 83.5,100.5C 68.9903,100.829 54.6569,100.496 40.5,99.5C 41.2623,97.7376 42.5956,96.7376 44.5,96.5 Z"/></g>
<g><path style="opacity:1" fill="#534418" d="M 40.5,99.5 C 54.6569,100.496 68.9903,100.829 83.5,100.5C 68.9946,101.826 54.3279,101.826 39.5,100.5C 39.6236,99.8933 39.9569,99.56 40.5,99.5 Z"/></g>
<g><path style="opacity:1" fill="#8f8f8f" d="M 93.5,133.5 C 90.4954,135.277 87.1621,136.277 83.5,136.5C 86.5046,134.723 89.8379,133.723 93.5,133.5 Z"/></g>
<g><path style="opacity:1" fill="#858585" d="M 51.5,134.5 C 54.1522,134.41 56.4855,135.076 58.5,136.5C 55.8478,136.59 53.5145,135.924 51.5,134.5 Z"/></g>
</svg>
