<?xml version="1.0" encoding="UTF-8"?>
<!DOCTYPE svg PUBLIC "-//W3C//DTD SVG 1.1//EN" "http://www.w3.org/Graphics/SVG/1.1/DTD/svg11.dtd">
<svg xmlns="http://www.w3.org/2000/svg" version="1.1" width="300px" height="300px" style="shape-rendering:geometricPrecision; text-rendering:geometricPrecision; image-rendering:optimizeQuality; fill-rule:evenodd; clip-rule:evenodd" xmlns:xlink="http://www.w3.org/1999/xlink">
<g><path style="opacity:0.987" fill="#8345e6" d="M 129.5,-0.5 C 142.833,-0.5 156.167,-0.5 169.5,-0.5C 242.705,14.0387 286.038,58.0387 299.5,131.5C 299.5,143.5 299.5,155.5 299.5,167.5C 286.161,240.505 243.161,284.505 170.5,299.5C 156.5,299.5 142.5,299.5 128.5,299.5C 56.2932,284.626 13.2932,240.96 -0.5,168.5C -0.5,155.833 -0.5,143.167 -0.5,130.5C 13.4159,57.5843 56.7492,13.9176 129.5,-0.5 Z"/></g>
<g><path style="opacity:1" fill="#fdfbfe" d="M 139.5,128.5 C 138.833,121.833 138.167,115.167 137.5,108.5C 136.468,105.293 134.468,102.793 131.5,101C 125.236,97.7302 119.236,94.0635 113.5,90C 110.263,88.032 106.763,86.8654 103,86.5C 91.7962,90.9374 81.4628,96.9374 72,104.5C 71.5814,105.672 70.9147,106.672 70,107.5C 69.8333,112.833 69.6667,118.167 69.5,123.5C 69.3968,129.911 69.8968,136.244 71,142.5C 72.1217,144.624 73.6217,146.457 75.5,148C 83.3333,152.416 90.9999,157.082 98.5,162C 101.833,162.667 105.167,162.667 108.5,162C 134.167,147 159.833,132 185.5,117C 191.489,114.666 197.156,115.332 202.5,119C 216.584,127.124 230.417,135.624 244,144.5C 244.667,145.833 245.333,147.167 246,148.5C 246.667,166.833 246.667,185.167 246,203.5C 244.569,206.927 242.402,209.76 239.5,212C 225.5,220 211.5,228 197.5,236C 193.833,236.667 190.167,236.667 186.5,236C 171.084,227.21 155.917,218.044 141,208.5C 140.138,206.913 139.471,205.246 139,203.5C 138.333,196.833 138.333,190.167 139,183.5C 144.779,180.028 150.613,176.695 156.5,173.5C 157.167,179.167 157.833,184.833 158.5,190.5C 159.031,194.544 161.031,197.71 164.5,200C 172.167,204.333 179.833,208.667 187.5,213C 191.594,213.767 195.594,213.434 199.5,212C 208.098,207.119 216.265,201.619 224,195.5C 224.862,193.913 225.529,192.246 226,190.5C 226.667,180.167 226.667,169.833 226,159.5C 224.551,156.384 222.384,153.884 219.5,152C 211.833,147.667 204.167,143.333 196.5,139C 193.167,138.333 189.833,138.333 186.5,139C 162.002,153.081 137.669,167.415 113.5,182C 108.453,185.484 103.12,186.151 97.5,184C 83.9976,175.748 70.3309,167.748 56.5,160C 53.8647,158.039 52.0314,155.539 51,152.5C 50.025,132.744 50.3583,113.077 52,93.5C 67.0825,83.3727 82.5825,73.8727 98.5,65C 102.167,64.3333 105.833,64.3333 109.5,65C 125.418,73.8727 140.918,83.3727 156,93.5C 157.107,97.8878 157.607,102.388 157.5,107C 157.167,110.833 156.833,114.667 156.5,118.5C 150.816,121.861 145.149,125.194 139.5,128.5 Z"/></g>
<g><path style="opacity:1" fill="#ba99f0" d="M 137.5,108.5 C 138.167,115.167 138.833,121.833 139.5,128.5C 139.44,129.043 139.107,129.376 138.5,129.5C 137.503,122.532 137.17,115.532 137.5,108.5 Z"/></g>
<g><path style="opacity:1" fill="#ceb6f4" d="M 156.5,173.5 C 156.56,172.957 156.893,172.624 157.5,172.5C 158.496,178.463 158.829,184.463 158.5,190.5C 157.833,184.833 157.167,179.167 156.5,173.5 Z"/></g>
</svg>
