<?xml version="1.0" encoding="UTF-8"?>
<!DOCTYPE svg PUBLIC "-//W3C//DTD SVG 1.1//EN" "http://www.w3.org/Graphics/SVG/1.1/DTD/svg11.dtd">
<svg xmlns="http://www.w3.org/2000/svg" version="1.1" width="293px" height="293px" style="shape-rendering:geometricPrecision; text-rendering:geometricPrecision; image-rendering:optimizeQuality; fill-rule:evenodd; clip-rule:evenodd" xmlns:xlink="http://www.w3.org/1999/xlink">
<g><path style="opacity:0.997" fill="#f9f9f6" d="M 128.5,-0.5 C 140.167,-0.5 151.833,-0.5 163.5,-0.5C 185.016,2.67218 205.016,10.0055 223.5,21.5C 221.645,22.6896 219.812,24.0229 218,25.5C 218.148,24.175 217.982,23.0084 217.5,22C 213.249,21.2077 209.582,19.3744 206.5,16.5C 202.918,17.4206 199.418,17.0873 196,15.5C 192.392,16.9493 188.892,16.7826 185.5,15C 186.956,14.5774 187.456,13.7441 187,12.5C 185.992,12.9817 184.825,13.1484 183.5,13C 182.881,14.7571 181.714,15.9238 180,16.5C 178.234,15.7665 176.401,15.4332 174.5,15.5C 168.792,15.1596 163.125,14.493 157.5,13.5C 148.676,12.3427 139.676,12.176 130.5,13C 126.264,13.3349 122.264,14.1682 118.5,15.5C 109.338,17.3308 100.671,20.3308 92.5,24.5C 89.1667,25.8333 85.8333,27.1667 82.5,28.5C 81.6016,27.8423 80.6016,27.1757 79.5,26.5C 80.4756,24.8767 79.9756,23.5433 78,22.5C 77.6924,23.3081 77.1924,23.9747 76.5,24.5C 73.1769,23.2429 69.8435,23.2429 66.5,24.5C 59.1423,29.8411 51.809,35.1744 44.5,40.5C 62.0272,22.7235 83.0272,10.5569 107.5,4C 114.621,2.41113 121.621,0.911125 128.5,-0.5 Z"/></g>
<g><path style="opacity:1" fill="#82817f" d="M 157.5,13.5 C 144.431,13.1691 131.431,13.8358 118.5,15.5C 122.264,14.1682 126.264,13.3349 130.5,13C 139.676,12.176 148.676,12.3427 157.5,13.5 Z"/></g>
<g><path style="opacity:1" fill="#f1f1ed" d="M 223.5,21.5 C 235.017,27.9375 245.017,36.2708 253.5,46.5C 251.93,47.5593 250.597,47.0593 249.5,45C 248.207,44.51 246.873,44.3433 245.5,44.5C 244.379,39.6827 241.879,38.6827 238,41.5C 233.141,40.3445 228.307,38.3445 223.5,35.5C 222.817,35.8627 222.15,36.1961 221.5,36.5C 206.673,27.5859 191.006,20.5859 174.5,15.5C 176.401,15.4332 178.234,15.7665 180,16.5C 181.714,15.9238 182.881,14.7571 183.5,13C 184.825,13.1484 185.992,12.9817 187,12.5C 187.456,13.7441 186.956,14.5774 185.5,15C 188.892,16.7826 192.392,16.9493 196,15.5C 199.418,17.0873 202.918,17.4206 206.5,16.5C 209.582,19.3744 213.249,21.2077 217.5,22C 217.982,23.0084 218.148,24.175 218,25.5C 219.812,24.0229 221.645,22.6896 223.5,21.5 Z"/></g>
<g><path style="opacity:1" fill="#27211f" d="M 157.5,13.5 C 163.125,14.493 168.792,15.1596 174.5,15.5C 191.006,20.5859 206.673,27.5859 221.5,36.5C 226.833,41.5 232.167,46.5 237.5,51.5C 236.5,51.8333 235.833,52.5 235.5,53.5C 212.542,30.8591 184.875,18.8591 152.5,17.5C 147.684,16.3503 142.684,16.1837 137.5,17C 129.449,18.0058 121.449,19.1725 113.5,20.5C 106.579,22.1196 99.5793,23.4529 92.5,24.5C 100.671,20.3308 109.338,17.3308 118.5,15.5C 131.431,13.8358 144.431,13.1691 157.5,13.5 Z"/></g>
<g><path style="opacity:1" fill="#e9ece8" d="M 82.5,28.5 C 76.1466,32.3434 70.1466,36.6768 64.5,41.5C 62.3428,43.4121 60.0094,45.0787 57.5,46.5C 56.8485,45.9094 56.1818,45.2427 55.5,44.5C 54.8333,45.5 54.1667,46.5 53.5,47.5C 51.7859,46.3915 51.1192,47.0582 51.5,49.5C 48.452,47.5297 46.2853,48.1964 45,51.5C 43.6015,50.9491 42.2682,50.6158 41,50.5C 37.8836,53.3853 34.3836,55.7186 30.5,57.5C 26.4793,62.9014 22.4793,68.2347 18.5,73.5C 24.9996,60.8565 33.6662,49.8565 44.5,40.5C 51.809,35.1744 59.1423,29.8411 66.5,24.5C 69.8435,23.2429 73.1769,23.2429 76.5,24.5C 77.1924,23.9747 77.6924,23.3081 78,22.5C 79.9756,23.5433 80.4756,24.8767 79.5,26.5C 80.6016,27.1757 81.6016,27.8423 82.5,28.5 Z"/></g>
<g><path style="opacity:1" fill="#3a424a" d="M 208.5,74.5 C 207.962,76.1172 207.629,77.7839 207.5,79.5C 207.5,80.1667 207.5,80.8333 207.5,81.5C 207.167,81.5 206.833,81.5 206.5,81.5C 205.92,75.5137 204.253,69.8471 201.5,64.5C 201.233,62.0347 200.566,59.7014 199.5,57.5C 197.274,51.9416 193.608,47.6082 188.5,44.5C 182.954,35.397 174.954,31.0636 164.5,31.5C 158.645,29.5364 152.645,28.2031 146.5,27.5C 136.519,29.9317 126.519,30.9317 116.5,30.5C 114.87,31.898 113.036,32.898 111,33.5C 107.501,32.3895 104.667,33.3895 102.5,36.5C 100.801,36.3398 99.1341,36.5065 97.5,37C 96.244,37.4169 95.5774,38.2502 95.5,39.5C 95.8333,40.1667 96.1667,40.8333 96.5,41.5C 96.5,42.1667 96.5,42.8333 96.5,43.5C 96.5,46.8333 96.5,50.1667 96.5,53.5C 96.5,56.5 96.5,59.5 96.5,62.5C 95.5655,61.4324 95.2322,60.099 95.5,58.5C 95.6661,52.8236 95.4994,47.1569 95,41.5C 94.5045,43.4727 94.3379,45.4727 94.5,47.5C 88.5956,53.3228 86.9289,51.9894 89.5,43.5C 92.2633,39.1181 95.5966,35.2847 99.5,32C 105.961,30.2623 112.294,28.2623 118.5,26C 130.77,24.3064 143.104,23.1397 155.5,22.5C 171.145,20.8229 184.311,25.4896 195,36.5C 195.333,36.1667 195.667,35.8333 196,35.5C 200.22,38.0316 204.053,40.365 207.5,42.5C 209.337,47.7138 208.337,48.5471 204.5,45C 204.833,44.6667 205.167,44.3333 205.5,44C 204.552,43.5172 203.552,43.3505 202.5,43.5C 202.299,49.1831 203.299,54.8498 205.5,60.5C 204.978,61.6074 204.645,62.7741 204.5,64C 205.711,67.0522 206.545,70.2188 207,73.5C 208.107,72.2881 208.607,72.6214 208.5,74.5 Z"/></g>
<g><path style="opacity:1" fill="#2d2019" d="M 113.5,20.5 C 88.5776,28.2385 67.4109,41.9051 50,61.5C 49.3333,60.8333 49.3333,60.1667 50,59.5C 55.9362,54.2375 61.1029,48.4042 65.5,42C 65.2716,41.6012 64.9382,41.4346 64.5,41.5C 70.1466,36.6768 76.1466,32.3434 82.5,28.5C 85.8333,27.1667 89.1667,25.8333 92.5,24.5C 99.5793,23.4529 106.579,22.1196 113.5,20.5 Z"/></g>
<g><path style="opacity:1" fill="#2b353d" d="M 208.5,74.5 C 208.607,72.6214 208.107,72.2881 207,73.5C 206.545,70.2188 205.711,67.0522 204.5,64C 204.645,62.7741 204.978,61.6074 205.5,60.5C 203.299,54.8498 202.299,49.1831 202.5,43.5C 203.552,43.3505 204.552,43.5172 205.5,44C 205.167,44.3333 204.833,44.6667 204.5,45C 208.337,48.5471 209.337,47.7138 207.5,42.5C 204.053,40.365 200.22,38.0316 196,35.5C 195.667,35.8333 195.333,36.1667 195,36.5C 184.311,25.4896 171.145,20.8229 155.5,22.5C 143.104,23.1397 130.77,24.3064 118.5,26C 112.294,28.2623 105.961,30.2623 99.5,32C 95.5966,35.2847 92.2633,39.1181 89.5,43.5C 86.9289,51.9894 88.5956,53.3228 94.5,47.5C 93.0288,53.4965 90.0288,58.6632 85.5,63C 85.8333,63.3333 86.1667,63.6667 86.5,64C 84.774,66.3407 83.274,68.8407 82,71.5C 79.1624,72.9443 76.8291,74.9443 75,77.5C 73.9781,75.8588 72.4781,74.3588 70.5,73C 71.5,72.6667 72.5,72.3333 73.5,72C 71.45,71.4745 69.6166,70.6411 68,69.5C 67.3164,67.5211 67.8164,65.8544 69.5,64.5C 68.3128,63.4805 67.3128,62.3139 66.5,61C 71.5924,56.1073 75.5924,50.6073 78.5,44.5C 79.552,44.6495 80.552,44.4828 81.5,44C 83.9614,38.876 87.9614,35.5427 93.5,34C 94.1667,33 94.8333,32 95.5,31C 99.5352,30.1265 103.535,29.1265 107.5,28C 109.324,27.34 110.657,26.1733 111.5,24.5C 132.388,21.6688 153.388,20.8355 174.5,22C 180.637,24.3211 186.97,26.1544 193.5,27.5C 197.782,28.6471 201.448,30.8138 204.5,34C 205.793,34.49 207.127,34.6567 208.5,34.5C 208.383,36.4835 209.05,38.1502 210.5,39.5C 213.844,42.3451 217.011,45.3451 220,48.5C 219.486,54.9956 218.986,61.6623 218.5,68.5C 216.167,68.5 213.833,68.5 211.5,68.5C 212.75,70.968 212.583,73.3013 211,75.5C 210.329,74.7476 209.496,74.4142 208.5,74.5 Z"/></g>
<g><path style="opacity:1" fill="#f7e2b2" d="M 183.5,48.5 C 179.271,48.0625 175.104,48.0625 171,48.5C 168.931,49.2638 166.764,49.7638 164.5,50C 161.653,53.2127 158.319,53.8794 154.5,52C 151.5,51.3333 148.5,51.3333 145.5,52C 144.965,54.1087 143.965,54.6087 142.5,53.5C 140.618,54.0933 138.785,54.7599 137,55.5C 136.692,54.6919 136.192,54.0253 135.5,53.5C 133.411,54.8034 131.744,54.3034 130.5,52C 130.957,51.586 131.291,51.086 131.5,50.5C 128.679,49.0295 126.179,49.3628 124,51.5C 121.893,49.6674 119.393,48.5007 116.5,48C 112.806,47.7221 109.139,47.7221 105.5,48C 103.167,46.8333 100.833,45.6667 98.5,44.5C 97.8326,47.6417 97.166,50.6417 96.5,53.5C 96.5,50.1667 96.5,46.8333 96.5,43.5C 118.761,42.345 141.094,42.1784 163.5,43C 168.53,43.4477 173.53,44.1144 178.5,45C 180.233,46.1889 181.9,47.3556 183.5,48.5 Z"/></g>
<g><path style="opacity:1" fill="#f5e7c6" d="M 96.5,41.5 C 121.169,41.3334 145.836,41.5 170.5,42C 172.436,42.813 174.436,43.313 176.5,43.5C 180.078,44.2915 183.412,45.6249 186.5,47.5C 188.5,49.5 190.5,51.5 192.5,53.5C 189.339,52.0869 186.339,50.4203 183.5,48.5C 181.9,47.3556 180.233,46.1889 178.5,45C 173.53,44.1144 168.53,43.4477 163.5,43C 141.094,42.1784 118.761,42.345 96.5,43.5C 96.5,42.8333 96.5,42.1667 96.5,41.5 Z"/></g>
<g><path style="opacity:1" fill="#f7f4ea" d="M 95.5,39.5 C 95.8333,39.5 96.1667,39.5 96.5,39.5C 121.192,39.2051 145.859,39.5385 170.5,40.5C 172.75,41.1302 174.75,42.1302 176.5,43.5C 174.436,43.313 172.436,42.813 170.5,42C 145.836,41.5 121.169,41.3334 96.5,41.5C 96.1667,40.8333 95.8333,40.1667 95.5,39.5 Z"/></g>
<g><path style="opacity:1" fill="#9da9b1" d="M 96.5,39.5 C 119.996,38.3369 143.663,38.1702 167.5,39C 168.737,39.2321 169.737,39.7321 170.5,40.5C 145.859,39.5385 121.192,39.2051 96.5,39.5 Z"/></g>
<g><path style="opacity:1" fill="#697378" d="M 102.5,36.5 C 124.503,36.3334 146.503,36.5 168.5,37C 170.891,37.2868 173.224,37.7868 175.5,38.5C 178.186,40.8572 181.186,42.8572 184.5,44.5C 185.425,45.3569 186.092,46.3569 186.5,47.5C 183.412,45.6249 180.078,44.2915 176.5,43.5C 174.75,42.1302 172.75,41.1302 170.5,40.5C 169.737,39.7321 168.737,39.2321 167.5,39C 143.663,38.1702 119.996,38.3369 96.5,39.5C 96.1667,39.5 95.8333,39.5 95.5,39.5C 95.5774,38.2502 96.244,37.4169 97.5,37C 99.1341,36.5065 100.801,36.3398 102.5,36.5 Z"/></g>
<g><path style="opacity:1" fill="#454f55" d="M 199.5,57.5 C 196.169,54.6946 193.169,51.5279 190.5,48C 189.207,47.51 187.873,47.3433 186.5,47.5C 186.092,46.3569 185.425,45.3569 184.5,44.5C 181.186,42.8572 178.186,40.8572 175.5,38.5C 173.224,37.7868 170.891,37.2868 168.5,37C 146.503,36.5 124.503,36.3334 102.5,36.5C 104.667,33.3895 107.501,32.3895 111,33.5C 113.036,32.898 114.87,31.898 116.5,30.5C 126.519,30.9317 136.519,29.9317 146.5,27.5C 152.645,28.2031 158.645,29.5364 164.5,31.5C 174.954,31.0636 182.954,35.397 188.5,44.5C 193.608,47.6082 197.274,51.9416 199.5,57.5 Z"/></g>
<g><path style="opacity:1" fill="#262f37" d="M 152.5,17.5 C 184.875,18.8591 212.542,30.8591 235.5,53.5C 239.174,57.1775 242.507,61.1775 245.5,65.5C 244.957,65.56 244.624,65.8933 244.5,66.5C 246.591,70.7039 247.257,75.0372 246.5,79.5C 245.188,78.5396 243.854,78.7063 242.5,80C 245.906,80.6025 246.239,81.7692 243.5,83.5C 242.914,83.2907 242.414,82.9574 242,82.5C 240.758,90.2943 239.091,90.2943 237,82.5C 235.505,84.1096 235.339,85.7763 236.5,87.5C 235.271,88.2811 233.938,88.7811 232.5,89C 234.481,89.6054 234.815,90.6054 233.5,92C 234.357,92.6891 235.023,93.5224 235.5,94.5C 234.242,93.9836 233.242,94.6503 232.5,96.5C 231.614,95.675 231.281,94.675 231.5,93.5C 229.158,93.5041 227.158,94.3375 225.5,96C 219.781,96.9031 217.781,94.5698 219.5,89C 217.18,86.8383 214.513,85.3383 211.5,84.5C 210.396,82.6115 209.063,80.9448 207.5,79.5C 207.629,77.7839 207.962,76.1172 208.5,74.5C 209.496,74.4142 210.329,74.7476 211,75.5C 212.583,73.3013 212.75,70.968 211.5,68.5C 213.833,68.5 216.167,68.5 218.5,68.5C 218.986,61.6623 219.486,54.9956 220,48.5C 217.011,45.3451 213.844,42.3451 210.5,39.5C 209.05,38.1502 208.383,36.4835 208.5,34.5C 207.127,34.6567 205.793,34.49 204.5,34C 201.448,30.8138 197.782,28.6471 193.5,27.5C 186.97,26.1544 180.637,24.3211 174.5,22C 153.388,20.8355 132.388,21.6688 111.5,24.5C 115.481,22.3219 119.815,20.8219 124.5,20C 133.797,18.7036 143.13,17.8702 152.5,17.5 Z"/></g>
<g><path style="opacity:1" fill="#dae0de" d="M 253.5,46.5 C 265.23,58.2736 274.23,71.9403 280.5,87.5C 280.607,89.3786 280.107,89.7119 279,88.5C 275.063,80.4211 270.563,72.7545 265.5,65.5C 261.878,64.3414 258.211,64.1747 254.5,65C 252.983,66.7785 252.149,66.2785 252,63.5C 251.722,64.4158 251.222,65.0825 250.5,65.5C 246.873,60.2056 242.54,55.539 237.5,51.5C 232.167,46.5 226.833,41.5 221.5,36.5C 222.15,36.1961 222.817,35.8627 223.5,35.5C 228.307,38.3445 233.141,40.3445 238,41.5C 241.879,38.6827 244.379,39.6827 245.5,44.5C 246.873,44.3433 248.207,44.51 249.5,45C 250.597,47.0593 251.93,47.5593 253.5,46.5 Z"/></g>
<g><path style="opacity:1" fill="#efd9a8" d="M 183.5,48.5 C 186.339,50.4203 189.339,52.0869 192.5,53.5C 195.115,55.3788 197.281,57.7121 199,60.5C 199.791,61.745 200.291,63.0783 200.5,64.5C 194.587,64.2721 188.921,65.2721 183.5,67.5C 181.041,65.8805 178.874,66.2138 177,68.5C 176.329,67.7476 175.496,67.4142 174.5,67.5C 171.133,65.3772 167.466,64.0439 163.5,63.5C 141.34,62.5026 119.006,62.1692 96.5,62.5C 96.5,59.5 96.5,56.5 96.5,53.5C 97.166,50.6417 97.8326,47.6417 98.5,44.5C 100.833,45.6667 103.167,46.8333 105.5,48C 109.139,47.7221 112.806,47.7221 116.5,48C 119.393,48.5007 121.893,49.6674 124,51.5C 126.179,49.3628 128.679,49.0295 131.5,50.5C 131.291,51.086 130.957,51.586 130.5,52C 131.744,54.3034 133.411,54.8034 135.5,53.5C 136.192,54.0253 136.692,54.6919 137,55.5C 138.785,54.7599 140.618,54.0933 142.5,53.5C 143.965,54.6087 144.965,54.1087 145.5,52C 148.5,51.3333 151.5,51.3333 154.5,52C 158.319,53.8794 161.653,53.2127 164.5,50C 166.764,49.7638 168.931,49.2638 171,48.5C 175.104,48.0625 179.271,48.0625 183.5,48.5 Z"/></g>
<g><path style="opacity:1" fill="#777d7f" d="M 186.5,47.5 C 187.873,47.3433 189.207,47.51 190.5,48C 193.169,51.5279 196.169,54.6946 199.5,57.5C 200.566,59.7014 201.233,62.0347 201.5,64.5C 201.167,64.5 200.833,64.5 200.5,64.5C 200.291,63.0783 199.791,61.745 199,60.5C 197.281,57.7121 195.115,55.3788 192.5,53.5C 190.5,51.5 188.5,49.5 186.5,47.5 Z"/></g>
<g><path style="opacity:1" fill="#14171d" d="M 237.5,51.5 C 242.54,55.539 246.873,60.2056 250.5,65.5C 254.416,70.9964 258.082,76.6631 261.5,82.5C 261.052,84.4646 260.052,84.7979 258.5,83.5C 254.884,76.8992 250.551,70.8992 245.5,65.5C 242.507,61.1775 239.174,57.1775 235.5,53.5C 235.833,52.5 236.5,51.8333 237.5,51.5 Z"/></g>
<g><path style="opacity:1" fill="#d1d8d5" d="M 57.5,46.5 C 51.4626,52.5354 45.796,58.8687 40.5,65.5C 40.1667,66.5 39.5,67.1667 38.5,67.5C 37.8826,67.3893 37.3826,67.056 37,66.5C 34.544,68.3213 31.7107,68.988 28.5,68.5C 28.4386,70.5922 27.4386,72.0922 25.5,73C 23.2346,74.1178 20.9013,74.9512 18.5,75.5C 17.6558,79.6452 15.6558,82.9785 12.5,85.5C 13.9922,81.1822 15.9922,77.1822 18.5,73.5C 22.4793,68.2347 26.4793,62.9014 30.5,57.5C 34.3836,55.7186 37.8836,53.3853 41,50.5C 42.2682,50.6158 43.6015,50.9491 45,51.5C 46.2853,48.1964 48.452,47.5297 51.5,49.5C 51.1192,47.0582 51.7859,46.3915 53.5,47.5C 54.1667,46.5 54.8333,45.5 55.5,44.5C 56.1818,45.2427 56.8485,45.9094 57.5,46.5 Z"/></g>
<g><path style="opacity:1" fill="#050506" d="M 163.5,63.5 C 167.466,64.0439 171.133,65.3772 174.5,67.5C 177.19,69.1935 179.19,71.5268 180.5,74.5C 180.657,75.8734 180.49,77.2068 180,78.5C 179.346,77.3044 178.846,77.3044 178.5,78.5C 181.11,83.8528 182.11,89.5195 181.5,95.5C 179.692,95.5086 178.025,95.0086 176.5,94C 167.574,85.3301 156.908,82.4968 144.5,85.5C 141.5,85.3333 138.5,85.1667 135.5,85C 135,84.5 134.5,84 134,83.5C 122.035,84.463 110.035,84.1296 98,82.5C 95.2401,81.568 93.9068,79.568 94,76.5C 93.501,72.1794 93.3343,67.8461 93.5,63.5C 116.833,63.5 140.167,63.5 163.5,63.5 Z"/></g>
<g><path style="opacity:1" fill="#dec697" d="M 200.5,64.5 C 200.833,64.5 201.167,64.5 201.5,64.5C 204.253,69.8471 205.92,75.5137 206.5,81.5C 206.631,82.2389 206.464,82.9056 206,83.5C 203.675,76.6171 200.509,75.9505 196.5,81.5C 196.167,80.8333 195.833,80.1667 195.5,79.5C 194.029,80.3805 193.196,81.7139 193,83.5C 191.984,82.3659 191.317,82.6992 191,84.5C 190.259,83.3595 189.425,83.3595 188.5,84.5C 187.989,86.8839 186.989,88.8839 185.5,90.5C 186.211,84.305 184.544,78.9716 180.5,74.5C 179.19,71.5268 177.19,69.1935 174.5,67.5C 175.496,67.4142 176.329,67.7476 177,68.5C 178.874,66.2138 181.041,65.8805 183.5,67.5C 188.921,65.2721 194.587,64.2721 200.5,64.5 Z"/></g>
<g><path style="opacity:1" fill="#bfc8c7" d="M 280.5,87.5 C 282.935,91.7994 284.602,96.466 285.5,101.5C 285.565,101.938 285.399,102.272 285,102.5C 284.311,101.643 283.478,100.977 282.5,100.5C 281.493,97.5429 280.159,94.8762 278.5,92.5C 272.011,91.5157 272.011,90.6824 278.5,90C 277.552,89.5172 276.552,89.3505 275.5,89.5C 275.5,88.5 275.5,87.5 275.5,86.5C 274.178,86.67 273.011,86.3366 272,85.5C 269.106,88.1095 266.272,88.1095 263.5,85.5C 263.068,84.2905 262.401,83.2905 261.5,82.5C 258.082,76.6631 254.416,70.9964 250.5,65.5C 251.222,65.0825 251.722,64.4158 252,63.5C 252.149,66.2785 252.983,66.7785 254.5,65C 258.211,64.1747 261.878,64.3414 265.5,65.5C 270.563,72.7545 275.063,80.4211 279,88.5C 280.107,89.7119 280.607,89.3786 280.5,87.5 Z"/></g>
<g><path style="opacity:1" fill="#1c1d21" d="M 95.5,58.5 C 95.2322,60.099 95.5655,61.4324 96.5,62.5C 119.006,62.1692 141.34,62.5026 163.5,63.5C 140.167,63.5 116.833,63.5 93.5,63.5C 93.3343,67.8461 93.501,72.1794 94,76.5C 93.9068,79.568 95.2401,81.568 98,82.5C 110.035,84.1296 122.035,84.463 134,83.5C 134.5,84 135,84.5 135.5,85C 138.5,85.1667 141.5,85.3333 144.5,85.5C 156.908,82.4968 167.574,85.3301 176.5,94C 178.025,95.0086 179.692,95.5086 181.5,95.5C 182.11,89.5195 181.11,83.8528 178.5,78.5C 178.846,77.3044 179.346,77.3044 180,78.5C 180.49,77.2068 180.657,75.8734 180.5,74.5C 184.544,78.9716 186.211,84.305 185.5,90.5C 185.737,91.791 185.404,92.791 184.5,93.5C 182.926,94.9842 181.593,96.6508 180.5,98.5C 174.421,97.1316 168.755,94.6316 163.5,91C 157.968,88.2703 152.468,88.1037 147,90.5C 140.598,89.7649 134.265,89.7649 128,90.5C 124.328,92.9428 120.828,92.6095 117.5,89.5C 116.972,88.2794 116.305,87.1127 115.5,86C 112.304,85.1955 109.304,85.3622 106.5,86.5C 102.601,86.9651 98.7672,87.6318 95,88.5C 94.3333,87.8333 93.6667,87.1667 93,86.5C 91.2173,77.8707 91.2173,69.204 93,60.5C 93.7083,59.6195 94.5416,58.9528 95.5,58.5 Z"/></g>
<g><path style="opacity:1" fill="#4d5257" d="M 106.5,86.5 C 109.304,85.3622 112.304,85.1955 115.5,86C 116.305,87.1127 116.972,88.2794 117.5,89.5C 117.5,89.8333 117.5,90.1667 117.5,90.5C 117.167,90.5 116.833,90.5 116.5,90.5C 114.109,87.083 110.775,85.7497 106.5,86.5 Z"/></g>
<g><path style="opacity:1" fill="#e6e3d7" d="M 106.5,86.5 C 110.775,85.7497 114.109,87.083 116.5,90.5C 116.565,90.9382 116.399,91.2716 116,91.5C 111.835,87.5471 107.669,87.5471 103.5,91.5C 104.075,89.5887 105.075,87.922 106.5,86.5 Z"/></g>
<g><path style="opacity:1" fill="#0e1014" d="M 152.5,17.5 C 143.13,17.8702 133.797,18.7036 124.5,20C 119.815,20.8219 115.481,22.3219 111.5,24.5C 82.7292,32.8693 60.7292,49.8693 45.5,75.5C 40.9507,76.217 38.7841,78.8837 39,83.5C 36.6338,86.2433 34.8005,89.2433 33.5,92.5C 30.3506,95.8045 28.5173,99.8045 28,104.5C 27.2917,105.381 26.4584,106.047 25.5,106.5C 28.3309,97.1699 31.9975,88.1699 36.5,79.5C 38.8799,74.8067 41.2133,70.14 43.5,65.5C 42.5,65.5 41.5,65.5 40.5,65.5C 45.796,58.8687 51.4626,52.5354 57.5,46.5C 60.0094,45.0787 62.3428,43.4121 64.5,41.5C 64.9382,41.4346 65.2716,41.6012 65.5,42C 61.1029,48.4042 55.9362,54.2375 50,59.5C 49.3333,60.1667 49.3333,60.8333 50,61.5C 67.4109,41.9051 88.5776,28.2385 113.5,20.5C 121.449,19.1725 129.449,18.0058 137.5,17C 142.684,16.1837 147.684,16.3503 152.5,17.5 Z"/></g>
<g><path style="opacity:1" fill="#111b26" d="M 40.5,65.5 C 41.5,65.5 42.5,65.5 43.5,65.5C 41.2133,70.14 38.8799,74.8067 36.5,79.5C 29.2208,90.0732 24.0541,101.74 21,114.5C 18.484,128.586 16.3174,142.586 14.5,156.5C 13.0813,145.786 13.4146,135.119 15.5,124.5C 16.3005,118.022 17.6338,111.689 19.5,105.5C 23.9417,91.8112 30.2751,79.1446 38.5,67.5C 39.5,67.1667 40.1667,66.5 40.5,65.5 Z"/></g>
<g><path style="opacity:1" fill="#232c35" d="M 95.5,58.5 C 94.5416,58.9528 93.7083,59.6195 93,60.5C 91.2173,69.204 91.2173,77.8707 93,86.5C 93.6667,87.1667 94.3333,87.8333 95,88.5C 98.7672,87.6318 102.601,86.9651 106.5,86.5C 105.075,87.922 104.075,89.5887 103.5,91.5C 103.5,93.1667 103.5,94.8333 103.5,96.5C 102.732,95.7375 102.232,94.7375 102,93.5C 100.31,99.1351 99.8101,104.802 100.5,110.5C 101.287,111.242 101.953,112.075 102.5,113C 106.821,113.499 111.154,113.666 115.5,113.5C 108.352,114.492 101.019,114.825 93.5,114.5C 93.2322,116.099 93.5655,117.432 94.5,118.5C 93.9766,122.892 92.31,126.892 89.5,130.5C 87.4714,127.209 84.8048,126.543 81.5,128.5C 77.3548,126.519 73.0214,124.852 68.5,123.5C 66.0878,124.818 63.7544,124.651 61.5,123C 61.4205,121.093 61.7539,119.093 62.5,117C 61.8333,116.333 61.1667,115.667 60.5,115C 57.4143,113.437 54.4143,111.603 51.5,109.5C 49.6225,109.623 47.7891,109.623 46,109.5C 42.7672,105.503 43.9338,103.503 49.5,103.5C 48.5504,100.932 48.5504,98.4321 49.5,96C 48.5509,95.3828 47.7175,95.5494 47,96.5C 44.4893,92.404 43.9893,88.0707 45.5,83.5C 46.6753,84.8549 47.6753,84.6883 48.5,83C 47.3659,81.984 47.6992,81.3173 49.5,81C 48.0267,80.2904 47.3601,79.1238 47.5,77.5C 49.0217,76.5688 50.3551,75.4021 51.5,74C 54.7001,69.0146 57.5335,63.8479 60,58.5C 65.571,52.9933 71.7377,48.3267 78.5,44.5C 75.5924,50.6073 71.5924,56.1073 66.5,61C 67.3128,62.3139 68.3128,63.4805 69.5,64.5C 67.8164,65.8544 67.3164,67.5211 68,69.5C 69.6166,70.6411 71.45,71.4745 73.5,72C 72.5,72.3333 71.5,72.6667 70.5,73C 72.4781,74.3588 73.9781,75.8588 75,77.5C 76.8291,74.9443 79.1624,72.9443 82,71.5C 83.274,68.8407 84.774,66.3407 86.5,64C 86.1667,63.6667 85.8333,63.3333 85.5,63C 90.0288,58.6632 93.0288,53.4965 94.5,47.5C 94.3379,45.4727 94.5045,43.4727 95,41.5C 95.4994,47.1569 95.6661,52.8236 95.5,58.5 Z"/></g>
<g><path style="opacity:1" fill="#afbabc" d="M 38.5,67.5 C 30.2751,79.1446 23.9417,91.8112 19.5,105.5C 16.7001,104.097 15.2001,105.097 15,108.5C 13.2513,107.701 11.918,108.368 11,110.5C 8.39786,111.033 6.06452,112.7 4,115.5C 3.76791,114.263 3.26791,113.263 2.5,112.5C 5.06429,103.132 8.39763,94.1323 12.5,85.5C 15.6558,82.9785 17.6558,79.6452 18.5,75.5C 20.9013,74.9512 23.2346,74.1178 25.5,73C 27.4386,72.0922 28.4386,70.5922 28.5,68.5C 31.7107,68.988 34.544,68.3213 37,66.5C 37.3826,67.056 37.8826,67.3893 38.5,67.5 Z"/></g>
<g><path style="opacity:1" fill="#1a2129" d="M 111.5,24.5 C 110.657,26.1733 109.324,27.34 107.5,28C 103.535,29.1265 99.5352,30.1265 95.5,31C 94.8333,32 94.1667,33 93.5,34C 87.9614,35.5427 83.9614,38.876 81.5,44C 80.552,44.4828 79.552,44.6495 78.5,44.5C 71.7377,48.3267 65.571,52.9933 60,58.5C 57.5335,63.8479 54.7001,69.0146 51.5,74C 50.3551,75.4021 49.0217,76.5688 47.5,77.5C 46.3115,78.0476 45.1448,78.3809 44,78.5C 42.8035,81.0891 41.8035,83.7558 41,86.5C 39.027,88.2279 37.1937,90.0613 35.5,92C 37.4322,97.4518 36.4322,102.285 32.5,106.5C 33.7515,108.001 34.7515,109.668 35.5,111.5C 37.7857,110.58 40.1191,110.58 42.5,111.5C 43.0352,114.238 42.0352,116.072 39.5,117C 39.8333,117.333 40.1667,117.667 40.5,118C 39.5,118.333 38.5,118.667 37.5,119C 38.2931,120.085 38.9598,121.252 39.5,122.5C 38.1667,122.833 36.8333,123.167 35.5,123.5C 36.9079,124.243 38.2412,125.077 39.5,126C 38.2888,126.893 38.2888,127.726 39.5,128.5C 40.1667,127.833 40.8333,127.167 41.5,126.5C 42.492,128.981 41.492,130.481 38.5,131C 39.4231,133.041 39.7564,135.208 39.5,137.5C 42.374,137.623 44.874,138.623 47,140.5C 50.7443,137.788 51.2443,138.288 48.5,142C 49.435,144.381 49.7683,146.881 49.5,149.5C 50.8734,149.657 52.2068,149.49 53.5,149C 52.2888,148.107 52.2888,147.274 53.5,146.5C 54.354,147.522 55.354,148.355 56.5,149C 55.3595,149.741 55.3595,150.575 56.5,151.5C 59.4411,152.522 62.4411,153.355 65.5,154C 63.9391,154.318 62.7724,155.151 62,156.5C 60.951,154.893 59.451,154.227 57.5,154.5C 57.2606,156.467 57.5939,158.301 58.5,160C 56.5819,161.77 56.0819,163.937 57,166.5C 57.7183,163.766 59.2183,163.1 61.5,164.5C 60.624,165.251 59.624,165.751 58.5,166C 61.8839,167.177 65.0506,168.01 68,168.5C 70.0197,167.968 70.853,166.635 70.5,164.5C 71.552,164.351 72.552,164.517 73.5,165C 72.5494,165.718 72.3828,166.551 73,167.5C 74.0113,166.663 75.1779,166.33 76.5,166.5C 79.0364,161.954 81.0364,157.454 82.5,153C 81.162,150.276 82.162,149.109 85.5,149.5C 85.7915,145.793 86.7915,142.293 88.5,139C 87.6462,137.215 88.3129,136.049 90.5,135.5C 91.4115,140.377 90.0782,144.377 86.5,147.5C 87.0522,149.003 87.0522,150.669 86.5,152.5C 87.5,152.5 88.5,152.5 89.5,152.5C 89.5,154.833 89.5,157.167 89.5,159.5C 87.0968,159.393 85.2635,160.393 84,162.5C 83.7837,164.384 83.117,166.051 82,167.5C 77.4834,166.521 75.65,168.521 76.5,173.5C 72.8183,173.335 69.1516,173.501 65.5,174C 65,174.5 64.5,175 64,175.5C 63.1376,173.913 62.4709,172.246 62,170.5C 59.8913,171.035 59.3913,172.035 60.5,173.5C 58.9255,174.631 57.2588,174.798 55.5,174C 57.099,169.027 55.4324,166.694 50.5,167C 49.5,166 48.5,165 47.5,164C 48.9733,163.29 49.6399,162.124 49.5,160.5C 48.5,160.5 47.5,160.5 46.5,160.5C 46.9051,153.06 45.9051,152.726 43.5,159.5C 42.0626,156.956 40.5626,156.956 39,159.5C 38.5172,158.552 38.3505,157.552 38.5,156.5C 37.5,156.5 36.5,156.5 35.5,156.5C 35.4392,153.95 34.1059,152.45 31.5,152C 32.1667,151.333 32.8333,150.667 33.5,150C 31.973,148.632 30.473,148.132 29,148.5C 28.5026,145.854 28.3359,143.187 28.5,140.5C 27.5,140.5 26.5,140.5 25.5,140.5C 25.5,138.5 25.5,136.5 25.5,134.5C 26.5,134.5 27.5,134.5 28.5,134.5C 28.1918,128.575 28.5251,122.741 29.5,117C 28.6839,115.077 28.0172,113.077 27.5,111C 29.4541,105.795 31.7875,100.795 34.5,96C 34.0109,94.8615 33.6775,93.6948 33.5,92.5C 34.8005,89.2433 36.6338,86.2433 39,83.5C 38.7841,78.8837 40.9507,76.217 45.5,75.5C 60.7292,49.8693 82.7292,32.8693 111.5,24.5 Z"/></g>
<g><path style="opacity:1" fill="#d2b888" d="M 116.5,90.5 C 116.833,90.5 117.167,90.5 117.5,90.5C 117.5,92.1667 117.5,93.8333 117.5,95.5C 115.486,100.507 111.819,102.34 106.5,101C 105.117,99.7292 104.117,98.2292 103.5,96.5C 103.5,94.8333 103.5,93.1667 103.5,91.5C 107.669,87.5471 111.835,87.5471 116,91.5C 116.399,91.2716 116.565,90.9382 116.5,90.5 Z"/></g>
<g><path style="opacity:1" fill="#1e262d" d="M 180.5,98.5 C 179.641,102.526 177.808,103.193 175,100.5C 170.071,99.9063 165.405,98.573 161,96.5C 156.96,96.1848 152.794,96.5181 148.5,97.5C 147.006,97.7092 145.839,98.3759 145,99.5C 144.667,98.8333 144.333,98.1667 144,97.5C 141.435,99.1793 138.602,99.846 135.5,99.5C 135.5,100.833 135.5,102.167 135.5,103.5C 132.552,103.777 129.719,103.444 127,102.5C 124.386,106.09 121.552,109.424 118.5,112.5C 119.075,109.384 119.409,106.217 119.5,103C 119.475,100.071 118.809,97.5706 117.5,95.5C 117.5,93.8333 117.5,92.1667 117.5,90.5C 117.5,90.1667 117.5,89.8333 117.5,89.5C 120.828,92.6095 124.328,92.9428 128,90.5C 134.265,89.7649 140.598,89.7649 147,90.5C 152.468,88.1037 157.968,88.2703 163.5,91C 168.755,94.6316 174.421,97.1316 180.5,98.5 Z"/></g>
<g><path style="opacity:1" fill="#262e35" d="M 184.5,93.5 C 184.122,95.921 183.455,98.2543 182.5,100.5C 181.752,102.332 180.752,103.999 179.5,105.5C 177.486,105.392 175.82,106.058 174.5,107.5C 172.844,106.854 171.177,106.187 169.5,105.5C 165.076,107.207 161.076,106.541 157.5,103.5C 150.357,104.598 143.19,105.598 136,106.5C 134.079,105.81 132.245,105.476 130.5,105.5C 127.641,108.087 124.641,110.42 121.5,112.5C 119.621,113.341 117.621,113.675 115.5,113.5C 116.209,112.596 117.209,112.263 118.5,112.5C 121.552,109.424 124.386,106.09 127,102.5C 129.719,103.444 132.552,103.777 135.5,103.5C 135.5,102.167 135.5,100.833 135.5,99.5C 138.602,99.846 141.435,99.1793 144,97.5C 144.333,98.1667 144.667,98.8333 145,99.5C 145.839,98.3759 147.006,97.7092 148.5,97.5C 152.794,96.5181 156.96,96.1848 161,96.5C 165.405,98.573 170.071,99.9063 175,100.5C 177.808,103.193 179.641,102.526 180.5,98.5C 181.593,96.6508 182.926,94.9842 184.5,93.5 Z"/></g>
<g><path style="opacity:1" fill="#110d0d" d="M 103.5,96.5 C 104.117,98.2292 105.117,99.7292 106.5,101C 111.819,102.34 115.486,100.507 117.5,95.5C 118.809,97.5706 119.475,100.071 119.5,103C 119.409,106.217 119.075,109.384 118.5,112.5C 117.209,112.263 116.209,112.596 115.5,113.5C 111.154,113.666 106.821,113.499 102.5,113C 101.953,112.075 101.287,111.242 100.5,110.5C 99.8101,104.802 100.31,99.1351 102,93.5C 102.232,94.7375 102.732,95.7375 103.5,96.5 Z"/></g>
<g><path style="opacity:1" fill="#2d363d" d="M 174.5,107.5 C 172.137,109.68 169.47,111.347 166.5,112.5C 151.5,112.5 136.5,112.5 121.5,112.5C 124.641,110.42 127.641,108.087 130.5,105.5C 132.245,105.476 134.079,105.81 136,106.5C 143.19,105.598 150.357,104.598 157.5,103.5C 161.076,106.541 165.076,107.207 169.5,105.5C 171.177,106.187 172.844,106.854 174.5,107.5 Z"/></g>
<g><path style="opacity:1" fill="#a4afb0" d="M 263.5,86.5 C 263.5,86.1667 263.5,85.8333 263.5,85.5C 266.272,88.1095 269.106,88.1095 272,85.5C 273.011,86.3366 274.178,86.67 275.5,86.5C 275.5,87.5 275.5,88.5 275.5,89.5C 276.552,89.3505 277.552,89.5172 278.5,90C 272.011,90.6824 272.011,91.5157 278.5,92.5C 280.159,94.8762 281.493,97.5429 282.5,100.5C 283.478,100.977 284.311,101.643 285,102.5C 285.399,102.272 285.565,101.938 285.5,101.5C 287.905,106.112 289.238,111.112 289.5,116.5C 289.649,117.552 289.483,118.552 289,119.5C 287.007,117.182 285.841,114.516 285.5,111.5C 284.178,111.67 283.011,111.337 282,110.5C 281.261,111.574 280.261,112.241 279,112.5C 277.31,111.851 275.477,111.851 273.5,112.5C 271.13,103.378 267.796,94.7111 263.5,86.5 Z"/></g>
<g><path style="opacity:1" fill="#c5a877" d="M 199.5,118.5 C 197.552,121.464 195.552,124.464 193.5,127.5C 194.521,129.188 195.855,130.521 197.5,131.5C 200.57,134.564 203.237,137.897 205.5,141.5C 203.186,139.523 200.853,137.523 198.5,135.5C 197.037,137.565 195.037,138.565 192.5,138.5C 190.796,137.932 189.296,137.932 188,138.5C 186.458,136.696 184.791,135.029 183,133.5C 182.29,134.973 181.124,135.64 179.5,135.5C 180.32,139.183 178.987,141.517 175.5,142.5C 172.228,141.242 168.894,140.075 165.5,139C 150.17,138.5 134.837,138.333 119.5,138.5C 119.167,138.5 118.833,138.5 118.5,138.5C 117.515,142.634 117.182,146.968 117.5,151.5C 116.746,148.977 116.08,146.311 115.5,143.5C 112.892,142.391 110.726,140.724 109,138.5C 108.127,138.735 107.293,139.069 106.5,139.5C 102.653,138.418 99.6526,137.084 97.5,135.5C 97.1758,131.445 97.5091,127.445 98.5,123.5C 99.8333,124.833 101.167,124.833 102.5,123.5C 103.748,124.04 104.915,124.707 106,125.5C 107.974,125.353 109.974,125.019 112,124.5C 116.562,125.377 120.895,126.71 125,128.5C 131.838,127.941 138.671,127.941 145.5,128.5C 154.055,126.529 162.722,125.196 171.5,124.5C 172.086,124.709 172.586,125.043 173,125.5C 174.41,124.213 175.91,123.046 177.5,122C 177.043,121.586 176.709,121.086 176.5,120.5C 177.522,119.646 178.355,118.646 179,117.5C 179.667,120.167 180.333,120.167 181,117.5C 182.667,117.833 184.333,118.167 186,118.5C 187,117.833 188,117.167 189,116.5C 192.669,118.009 194.169,116.676 193.5,112.5C 195.199,112.34 196.866,112.506 198.5,113C 194.74,115.172 195.074,117.005 199.5,118.5 Z"/></g>
<g><path style="opacity:1" fill="#747e85" d="M 179.5,105.5 C 175.473,110.851 170.139,114.184 163.5,115.5C 148.5,115.5 133.5,115.5 118.5,115.5C 120.292,114.691 122.292,114.191 124.5,114C 138.673,113.831 152.673,113.331 166.5,112.5C 169.47,111.347 172.137,109.68 174.5,107.5C 175.82,106.058 177.486,105.392 179.5,105.5 Z"/></g>
<g><path style="opacity:1" fill="#1c222b" d="M 207.5,79.5 C 209.063,80.9448 210.396,82.6115 211.5,84.5C 213.332,90.8434 215.832,96.8434 219,102.5C 220.356,103.38 221.856,103.714 223.5,103.5C 223.328,105.492 223.995,107.158 225.5,108.5C 224.372,109.262 223.205,109.929 222,110.5C 222.497,112.198 222.33,113.865 221.5,115.5C 222.992,117.156 224.658,118.656 226.5,120C 224.772,122.987 223.939,126.154 224,129.5C 224.414,129.043 224.914,128.709 225.5,128.5C 226.874,129.711 228.374,130.711 230,131.5C 233.128,130.796 236.294,130.296 239.5,130C 242,128.833 243.833,127 245,124.5C 246.998,125.271 248.665,124.605 250,122.5C 250.718,123.451 251.551,123.617 252.5,123C 251.949,121.602 251.616,120.268 251.5,119C 249.77,117.148 248.604,117.314 248,119.5C 247.506,117.866 247.34,116.199 247.5,114.5C 250.3,114.889 252.967,115.389 255.5,116C 254.572,115.612 253.905,114.945 253.5,114C 254.609,111.953 255.276,109.787 255.5,107.5C 257.288,107.785 258.955,107.452 260.5,106.5C 261.297,104.868 262.297,103.368 263.5,102C 263.333,101.5 263.167,101 263,100.5C 261.759,102.421 260.259,102.754 258.5,101.5C 260.287,100.684 261.954,99.684 263.5,98.5C 265.171,101.081 265.671,100.748 265,97.5C 263.496,94.3159 261.996,91.1493 260.5,88C 261.05,85.8424 262.05,85.3424 263.5,86.5C 267.796,94.7111 271.13,103.378 273.5,112.5C 273.629,114.216 273.962,115.883 274.5,117.5C 277.353,136.55 277.019,155.55 273.5,174.5C 272.333,181.672 270,188.338 266.5,194.5C 271.542,179.116 274.209,163.282 274.5,147C 274.333,143.167 274.167,139.333 274,135.5C 271.438,126.207 268.772,126.207 266,135.5C 265.237,132.937 264.737,132.937 264.5,135.5C 264.818,136.647 265.484,137.481 266.5,138C 264.893,139.049 264.227,140.549 264.5,142.5C 263.167,142.5 261.833,142.5 260.5,142.5C 260.649,141.448 260.483,140.448 260,139.5C 259.219,140.729 258.719,142.062 258.5,143.5C 261.487,147.598 261.987,151.932 260,156.5C 259.259,157.641 258.425,157.641 257.5,156.5C 256.24,159.959 253.906,162.459 250.5,164C 251.41,166.29 250.41,167.456 247.5,167.5C 245.613,165.867 244.113,166.2 243,168.5C 241.556,166.845 239.722,166.178 237.5,166.5C 237.014,168.807 237.014,170.973 237.5,173C 235.737,176.545 233.571,177.045 231,174.5C 227.376,175.227 223.876,174.56 220.5,172.5C 219.504,172.414 218.671,172.748 218,173.5C 217.667,171.167 217.333,168.833 217,166.5C 216.503,169.146 216.336,171.813 216.5,174.5C 216.806,177.385 216.473,180.052 215.5,182.5C 215.736,174.458 215.403,166.458 214.5,158.5C 215.018,157.423 215.352,156.256 215.5,155C 213.78,147.393 210.113,140.893 204.5,135.5C 207.109,134.673 209.109,133.007 210.5,130.5C 212.536,125.257 212.869,119.923 211.5,114.5C 212.167,112.167 212.833,109.833 213.5,107.5C 212.868,103.183 212.368,98.8497 212,94.5C 209.934,90.2902 208.434,85.9569 207.5,81.5C 207.5,80.8333 207.5,80.1667 207.5,79.5 Z"/></g>
<g><path style="opacity:1" fill="#4e595e" d="M 121.5,112.5 C 136.5,112.5 151.5,112.5 166.5,112.5C 152.673,113.331 138.673,113.831 124.5,114C 122.292,114.191 120.292,114.691 118.5,115.5C 110.427,114.868 102.76,115.535 95.5,117.5C 94.8333,117.5 94.5,117.833 94.5,118.5C 93.5655,117.432 93.2322,116.099 93.5,114.5C 101.019,114.825 108.352,114.492 115.5,113.5C 117.621,113.675 119.621,113.341 121.5,112.5 Z"/></g>
<g><path style="opacity:1" fill="#d7dde0" d="M 118.5,115.5 C 133.5,115.5 148.5,115.5 163.5,115.5C 141.167,116.167 118.833,116.833 96.5,117.5C 96.1667,117.5 95.8333,117.5 95.5,117.5C 102.76,115.535 110.427,114.868 118.5,115.5 Z"/></g>
<g><path style="opacity:1" fill="#1f2730" d="M 245.5,65.5 C 250.551,70.8992 254.884,76.8992 258.5,83.5C 260.052,84.7979 261.052,84.4646 261.5,82.5C 262.401,83.2905 263.068,84.2905 263.5,85.5C 263.5,85.8333 263.5,86.1667 263.5,86.5C 262.05,85.3424 261.05,85.8424 260.5,88C 261.996,91.1493 263.496,94.3159 265,97.5C 265.671,100.748 265.171,101.081 263.5,98.5C 261.954,99.684 260.287,100.684 258.5,101.5C 260.259,102.754 261.759,102.421 263,100.5C 263.167,101 263.333,101.5 263.5,102C 262.297,103.368 261.297,104.868 260.5,106.5C 258.955,107.452 257.288,107.785 255.5,107.5C 255.276,109.787 254.609,111.953 253.5,114C 253.905,114.945 254.572,115.612 255.5,116C 252.967,115.389 250.3,114.889 247.5,114.5C 247.34,116.199 247.506,117.866 248,119.5C 248.604,117.314 249.77,117.148 251.5,119C 251.616,120.268 251.949,121.602 252.5,123C 251.551,123.617 250.718,123.451 250,122.5C 248.665,124.605 246.998,125.271 245,124.5C 243.833,127 242,128.833 239.5,130C 236.294,130.296 233.128,130.796 230,131.5C 228.374,130.711 226.874,129.711 225.5,128.5C 224.914,128.709 224.414,129.043 224,129.5C 223.939,126.154 224.772,122.987 226.5,120C 224.658,118.656 222.992,117.156 221.5,115.5C 222.33,113.865 222.497,112.198 222,110.5C 223.205,109.929 224.372,109.262 225.5,108.5C 223.995,107.158 223.328,105.492 223.5,103.5C 221.856,103.714 220.356,103.38 219,102.5C 215.832,96.8434 213.332,90.8434 211.5,84.5C 214.513,85.3383 217.18,86.8383 219.5,89C 217.781,94.5698 219.781,96.9031 225.5,96C 227.158,94.3375 229.158,93.5041 231.5,93.5C 231.281,94.675 231.614,95.675 232.5,96.5C 233.242,94.6503 234.242,93.9836 235.5,94.5C 235.023,93.5224 234.357,92.6891 233.5,92C 234.815,90.6054 234.481,89.6054 232.5,89C 233.938,88.7811 235.271,88.2811 236.5,87.5C 235.339,85.7763 235.505,84.1096 237,82.5C 239.091,90.2943 240.758,90.2943 242,82.5C 242.414,82.9574 242.914,83.2907 243.5,83.5C 246.239,81.7692 245.906,80.6025 242.5,80C 243.854,78.7063 245.188,78.5396 246.5,79.5C 247.257,75.0372 246.591,70.7039 244.5,66.5C 244.624,65.8933 244.957,65.56 245.5,65.5 Z"/></g>
<g><path style="opacity:1" fill="#f7f5ea" d="M 182.5,100.5 C 183.043,100.56 183.376,100.893 183.5,101.5C 179.814,109.352 173.814,114.519 165.5,117C 142.502,117.5 119.502,117.667 96.5,117.5C 118.833,116.833 141.167,116.167 163.5,115.5C 170.139,114.184 175.473,110.851 179.5,105.5C 180.752,103.999 181.752,102.332 182.5,100.5 Z"/></g>
<g><path style="opacity:1" fill="#d1b584" d="M 206.5,81.5 C 206.833,81.5 207.167,81.5 207.5,81.5C 209.567,95.0416 206.9,107.375 199.5,118.5C 195.074,117.005 194.74,115.172 198.5,113C 196.866,112.506 195.199,112.34 193.5,112.5C 194.169,116.676 192.669,118.009 189,116.5C 188,117.167 187,117.833 186,118.5C 184.333,118.167 182.667,117.833 181,117.5C 180.333,120.167 179.667,120.167 179,117.5C 178.355,118.646 177.522,119.646 176.5,120.5C 176.709,121.086 177.043,121.586 177.5,122C 175.91,123.046 174.41,124.213 173,125.5C 172.586,125.043 172.086,124.709 171.5,124.5C 162.722,125.196 154.055,126.529 145.5,128.5C 138.671,127.941 131.838,127.941 125,128.5C 120.895,126.71 116.562,125.377 112,124.5C 109.974,125.019 107.974,125.353 106,125.5C 104.915,124.707 103.748,124.04 102.5,123.5C 101.167,124.833 99.8333,124.833 98.5,123.5C 97.5091,127.445 97.1758,131.445 97.5,135.5C 97.7373,136.791 97.404,137.791 96.5,138.5C 96.5,131.5 96.5,124.5 96.5,117.5C 119.502,117.667 142.502,117.5 165.5,117C 173.814,114.519 179.814,109.352 183.5,101.5C 183.376,100.893 183.043,100.56 182.5,100.5C 183.455,98.2543 184.122,95.921 184.5,93.5C 185.404,92.791 185.737,91.791 185.5,90.5C 186.989,88.8839 187.989,86.8839 188.5,84.5C 189.425,83.3595 190.259,83.3595 191,84.5C 191.317,82.6992 191.984,82.3659 193,83.5C 193.196,81.7139 194.029,80.3805 195.5,79.5C 195.833,80.1667 196.167,80.8333 196.5,81.5C 200.509,75.9505 203.675,76.6171 206,83.5C 206.464,82.9056 206.631,82.2389 206.5,81.5 Z"/></g>
<g><path style="opacity:1" fill="#93a0a1" d="M 289.5,116.5 C 290.451,117.919 290.784,119.585 290.5,121.5C 290.813,124.247 290.48,126.914 289.5,129.5C 287.641,127.808 285.641,126.308 283.5,125C 281.189,125.155 278.856,125.155 276.5,125C 277.059,124.275 277.392,123.442 277.5,122.5C 276.604,120.664 275.604,118.997 274.5,117.5C 273.962,115.883 273.629,114.216 273.5,112.5C 275.477,111.851 277.31,111.851 279,112.5C 280.261,112.241 281.261,111.574 282,110.5C 283.011,111.337 284.178,111.67 285.5,111.5C 285.841,114.516 287.007,117.182 289,119.5C 289.483,118.552 289.649,117.552 289.5,116.5 Z"/></g>
<g><path style="opacity:1" fill="#909c9f" d="M 19.5,105.5 C 17.6338,111.689 16.3005,118.022 15.5,124.5C 12.9492,128.811 9.61586,129.811 5.5,127.5C 3.484,128.178 1.484,128.844 -0.5,129.5C -0.5,129.167 -0.5,128.833 -0.5,128.5C 0.730958,123.338 1.73096,118.004 2.5,112.5C 3.26791,113.263 3.76791,114.263 4,115.5C 6.06452,112.7 8.39786,111.033 11,110.5C 11.918,108.368 13.2513,107.701 15,108.5C 15.2001,105.097 16.7001,104.097 19.5,105.5 Z"/></g>
<g><path style="opacity:1" fill="#0a0a0e" d="M 207.5,81.5 C 208.434,85.9569 209.934,90.2902 212,94.5C 212.368,98.8497 212.868,103.183 213.5,107.5C 212.833,109.833 212.167,112.167 211.5,114.5C 212.869,119.923 212.536,125.257 210.5,130.5C 209.109,133.007 207.109,134.673 204.5,135.5C 202.628,133.396 200.295,132.063 197.5,131.5C 195.855,130.521 194.521,129.188 193.5,127.5C 195.552,124.464 197.552,121.464 199.5,118.5C 206.9,107.375 209.567,95.0416 207.5,81.5 Z"/></g>
<g><path style="opacity:1" fill="#7e8b91" d="M 15.5,124.5 C 13.4146,135.119 13.0813,145.786 14.5,156.5C 15.2845,162.54 16.2845,168.54 17.5,174.5C 16.7784,174.082 16.2784,173.416 16,172.5C 15.9565,175.475 16.1231,178.475 16.5,181.5C 15.087,178.781 14.4203,175.781 14.5,172.5C 14.3822,169.312 13.5489,166.312 12,163.5C 11.8295,158.136 11.3295,152.802 10.5,147.5C 8.8435,146.008 7.3435,144.342 6,142.5C 5.66667,142.833 5.33333,143.167 5,143.5C 4.31091,142.643 3.47758,141.977 2.5,141.5C 1.36593,144.576 0.365928,147.576 -0.5,150.5C -0.5,143.5 -0.5,136.5 -0.5,129.5C 1.484,128.844 3.484,128.178 5.5,127.5C 9.61586,129.811 12.9492,128.811 15.5,124.5 Z"/></g>
<g><path style="opacity:1" fill="#7d8b92" d="M 274.5,117.5 C 275.604,118.997 276.604,120.664 277.5,122.5C 277.392,123.442 277.059,124.275 276.5,125C 278.856,125.155 281.189,125.155 283.5,125C 285.641,126.308 287.641,127.808 289.5,129.5C 290.48,126.914 290.813,124.247 290.5,121.5C 291.468,123.607 291.802,125.941 291.5,128.5C 291.666,134.842 291.5,141.175 291,147.5C 290.626,146.584 290.126,145.75 289.5,145C 287.527,144.505 285.527,144.338 283.5,144.5C 281.325,147.738 279.825,151.405 279,155.5C 278.75,163.118 277.583,170.452 275.5,177.5C 275.66,175.801 275.494,174.134 275,172.5C 274.722,173.416 274.222,174.082 273.5,174.5C 277.019,155.55 277.353,136.55 274.5,117.5 Z"/></g>
<g><path style="opacity:1" fill="#444a4e" d="M 197.5,131.5 C 200.295,132.063 202.628,133.396 204.5,135.5C 210.113,140.893 213.78,147.393 215.5,155C 215.352,156.256 215.018,157.423 214.5,158.5C 213.417,154.592 211.751,150.926 209.5,147.5C 208.649,145.118 207.316,143.118 205.5,141.5C 203.237,137.897 200.57,134.564 197.5,131.5 Z"/></g>
<g><path style="opacity:1" fill="#040305" d="M 119.5,138.5 C 134.837,138.333 150.17,138.5 165.5,139C 168.894,140.075 172.228,141.242 175.5,142.5C 183.531,147.865 188.864,155.199 191.5,164.5C 191.5,165.167 191.5,165.833 191.5,166.5C 190.778,172.223 189.778,177.889 188.5,183.5C 187.022,183.762 185.689,183.429 184.5,182.5C 183.577,180.076 182.077,178.076 180,176.5C 179.517,175.552 179.351,174.552 179.5,173.5C 178.178,173.67 177.011,173.337 176,172.5C 175.727,170.899 175.227,169.399 174.5,168C 168.822,165.299 162.989,163.132 157,161.5C 151.134,161.968 145.301,161.968 139.5,161.5C 133.277,161.529 128.11,163.862 124,168.5C 123,207.167 122,207.167 121,168.5C 120.667,175.833 120.333,183.167 120,190.5C 119.5,173.17 119.333,155.837 119.5,138.5 Z"/></g>
<g><path style="opacity:1" fill="#1e252e" d="M 47.5,77.5 C 47.3601,79.1238 48.0267,80.2904 49.5,81C 47.6992,81.3173 47.3659,81.984 48.5,83C 47.6753,84.6883 46.6753,84.8549 45.5,83.5C 43.9893,88.0707 44.4893,92.404 47,96.5C 47.7175,95.5494 48.5509,95.3828 49.5,96C 48.5504,98.4321 48.5504,100.932 49.5,103.5C 43.9338,103.503 42.7672,105.503 46,109.5C 47.7891,109.623 49.6225,109.623 51.5,109.5C 54.4143,111.603 57.4143,113.437 60.5,115C 61.1667,115.667 61.8333,116.333 62.5,117C 61.7539,119.093 61.4205,121.093 61.5,123C 63.7544,124.651 66.0878,124.818 68.5,123.5C 73.0214,124.852 77.3548,126.519 81.5,128.5C 84.8048,126.543 87.4714,127.209 89.5,130.5C 92.31,126.892 93.9766,122.892 94.5,118.5C 94.5,117.833 94.8333,117.5 95.5,117.5C 95.5,120.833 95.5,124.167 95.5,127.5C 94.8333,127.5 94.5,127.833 94.5,128.5C 92.412,130.336 91.0787,132.669 90.5,135.5C 88.3129,136.049 87.6462,137.215 88.5,139C 86.7915,142.293 85.7915,145.793 85.5,149.5C 82.162,149.109 81.162,150.276 82.5,153C 81.0364,157.454 79.0364,161.954 76.5,166.5C 75.1779,166.33 74.0113,166.663 73,167.5C 72.3828,166.551 72.5494,165.718 73.5,165C 72.552,164.517 71.552,164.351 70.5,164.5C 70.853,166.635 70.0197,167.968 68,168.5C 65.0506,168.01 61.8839,167.177 58.5,166C 59.624,165.751 60.624,165.251 61.5,164.5C 59.2183,163.1 57.7183,163.766 57,166.5C 56.0819,163.937 56.5819,161.77 58.5,160C 57.5939,158.301 57.2606,156.467 57.5,154.5C 59.451,154.227 60.951,154.893 62,156.5C 62.7724,155.151 63.9391,154.318 65.5,154C 62.4411,153.355 59.4411,152.522 56.5,151.5C 55.3595,150.575 55.3595,149.741 56.5,149C 55.354,148.355 54.354,147.522 53.5,146.5C 52.2888,147.274 52.2888,148.107 53.5,149C 52.2068,149.49 50.8734,149.657 49.5,149.5C 49.7683,146.881 49.435,144.381 48.5,142C 51.2443,138.288 50.7443,137.788 47,140.5C 44.874,138.623 42.374,137.623 39.5,137.5C 39.7564,135.208 39.4231,133.041 38.5,131C 41.492,130.481 42.492,128.981 41.5,126.5C 40.8333,127.167 40.1667,127.833 39.5,128.5C 38.2888,127.726 38.2888,126.893 39.5,126C 38.2412,125.077 36.9079,124.243 35.5,123.5C 36.8333,123.167 38.1667,122.833 39.5,122.5C 38.9598,121.252 38.2931,120.085 37.5,119C 38.5,118.667 39.5,118.333 40.5,118C 40.1667,117.667 39.8333,117.333 39.5,117C 42.0352,116.072 43.0352,114.238 42.5,111.5C 40.1191,110.58 37.7857,110.58 35.5,111.5C 34.7515,109.668 33.7515,108.001 32.5,106.5C 36.4322,102.285 37.4322,97.4518 35.5,92C 37.1937,90.0613 39.027,88.2279 41,86.5C 41.8035,83.7558 42.8035,81.0891 44,78.5C 45.1448,78.3809 46.3115,78.0476 47.5,77.5 Z"/></g>
<g><path style="opacity:1" fill="#b7996a" d="M 205.5,141.5 C 207.316,143.118 208.649,145.118 209.5,147.5C 210.973,152.463 212.473,157.463 214,162.5C 214.667,164.167 214.667,165.833 214,167.5C 212.922,162.768 210.089,160.935 205.5,162C 204.663,163.011 204.33,164.178 204.5,165.5C 203.448,165.351 202.448,165.517 201.5,166C 200.5,167.667 199.167,169 197.5,170C 199.815,171.368 199.815,172.201 197.5,172.5C 196.353,172.182 195.519,171.516 195,170.5C 194.667,173.167 194.333,175.833 194,178.5C 193.667,174.167 193.333,169.833 193,165.5C 192.617,164.944 192.117,164.611 191.5,164.5C 188.864,155.199 183.531,147.865 175.5,142.5C 178.987,141.517 180.32,139.183 179.5,135.5C 181.124,135.64 182.29,134.973 183,133.5C 184.791,135.029 186.458,136.696 188,138.5C 189.296,137.932 190.796,137.932 192.5,138.5C 195.037,138.565 197.037,137.565 198.5,135.5C 200.853,137.523 203.186,139.523 205.5,141.5 Z"/></g>
<g><path style="opacity:1" fill="#b99b6a" d="M 97.5,135.5 C 99.6526,137.084 102.653,138.418 106.5,139.5C 107.293,139.069 108.127,138.735 109,138.5C 110.726,140.724 112.892,142.391 115.5,143.5C 116.08,146.311 116.746,148.977 117.5,151.5C 117.5,158.5 117.5,165.5 117.5,172.5C 116.804,168.769 116.138,164.935 115.5,161C 112.741,160.023 110.741,160.856 109.5,163.5C 107.483,161.843 105.316,160.176 103,158.5C 101.542,159.747 100.042,159.747 98.5,158.5C 97.8319,160.969 97.1653,163.302 96.5,165.5C 96.5,156.5 96.5,147.5 96.5,138.5C 97.404,137.791 97.7373,136.791 97.5,135.5 Z"/></g>
<g><path style="opacity:1" fill="#171c24" d="M 33.5,92.5 C 33.6775,93.6948 34.0109,94.8615 34.5,96C 31.7875,100.795 29.4541,105.795 27.5,111C 28.0172,113.077 28.6839,115.077 29.5,117C 28.5251,122.741 28.1918,128.575 28.5,134.5C 27.5,134.5 26.5,134.5 25.5,134.5C 25.5,136.5 25.5,138.5 25.5,140.5C 26.5,140.5 27.5,140.5 28.5,140.5C 28.3359,143.187 28.5026,145.854 29,148.5C 30.473,148.132 31.973,148.632 33.5,150C 32.8333,150.667 32.1667,151.333 31.5,152C 34.1059,152.45 35.4392,153.95 35.5,156.5C 36.5,156.5 37.5,156.5 38.5,156.5C 38.3505,157.552 38.5172,158.552 39,159.5C 40.5626,156.956 42.0626,156.956 43.5,159.5C 45.9051,152.726 46.9051,153.06 46.5,160.5C 47.5,160.5 48.5,160.5 49.5,160.5C 49.6399,162.124 48.9733,163.29 47.5,164C 48.5,165 49.5,166 50.5,167C 55.4324,166.694 57.099,169.027 55.5,174C 57.2588,174.798 58.9255,174.631 60.5,173.5C 59.3913,172.035 59.8913,171.035 62,170.5C 62.4709,172.246 63.1376,173.913 64,175.5C 64.5,175 65,174.5 65.5,174C 69.1516,173.501 72.8183,173.335 76.5,173.5C 75.65,168.521 77.4834,166.521 82,167.5C 83.117,166.051 83.7837,164.384 84,162.5C 85.2635,160.393 87.0968,159.393 89.5,159.5C 89.5,157.167 89.5,154.833 89.5,152.5C 88.5,152.5 87.5,152.5 86.5,152.5C 87.0522,150.669 87.0522,149.003 86.5,147.5C 90.0782,144.377 91.4115,140.377 90.5,135.5C 91.0787,132.669 92.412,130.336 94.5,128.5C 94.5,132.5 94.5,136.5 94.5,140.5C 93.6862,138.369 93.1862,136.036 93,133.5C 92.6667,134.167 92.3333,134.833 92,135.5C 91.1051,148.161 90.2718,160.828 89.5,173.5C 87.5918,177.064 85.5918,180.564 83.5,184C 86.6677,184.582 87.001,185.582 84.5,187C 88.5307,189.206 88.3641,189.706 84,188.5C 82.2421,196.642 80.2421,204.642 78,212.5C 77,213.833 76,215.167 75,216.5C 66.979,216.448 58.479,216.114 49.5,215.5C 50.3822,220.726 50.3822,225.893 49.5,231C 50.448,231.483 51.448,231.649 52.5,231.5C 52.5,232.833 52.5,234.167 52.5,235.5C 35.9078,217.314 25.4078,195.981 21,171.5C 16.7357,149.292 18.2357,127.626 25.5,106.5C 26.4584,106.047 27.2917,105.381 28,104.5C 28.5173,99.8045 30.3506,95.8045 33.5,92.5 Z"/></g>
<g><path style="opacity:1" fill="#171c24" d="M 266.5,194.5 C 264.223,201.721 260.889,208.388 256.5,214.5C 256.657,213.127 256.49,211.793 256,210.5C 254.33,210.656 252.663,209.99 251,208.5C 246.371,210.897 246.538,211.897 251.5,211.5C 249.305,212.769 247.139,212.769 245,211.5C 244.077,212.759 243.243,214.092 242.5,215.5C 240.786,214.391 240.119,215.058 240.5,217.5C 243.548,217.494 244.048,218.494 242,220.5C 239.961,219.022 239.128,217.022 239.5,214.5C 237.5,214.5 235.5,214.5 233.5,214.5C 233.202,210.357 231.368,207.024 228,204.5C 227.713,202.109 227.213,199.776 226.5,197.5C 227.592,191.954 227.592,186.454 226.5,181C 224.966,179.065 222.966,177.899 220.5,177.5C 220.5,175.833 220.5,174.167 220.5,172.5C 223.876,174.56 227.376,175.227 231,174.5C 233.571,177.045 235.737,176.545 237.5,173C 237.014,170.973 237.014,168.807 237.5,166.5C 239.722,166.178 241.556,166.845 243,168.5C 244.113,166.2 245.613,165.867 247.5,167.5C 250.41,167.456 251.41,166.29 250.5,164C 253.906,162.459 256.24,159.959 257.5,156.5C 258.425,157.641 259.259,157.641 260,156.5C 261.987,151.932 261.487,147.598 258.5,143.5C 258.719,142.062 259.219,140.729 260,139.5C 260.483,140.448 260.649,141.448 260.5,142.5C 261.833,142.5 263.167,142.5 264.5,142.5C 264.227,140.549 264.893,139.049 266.5,138C 265.484,137.481 264.818,136.647 264.5,135.5C 264.737,132.937 265.237,132.937 266,135.5C 268.772,126.207 271.438,126.207 274,135.5C 274.167,139.333 274.333,143.167 274.5,147C 274.209,163.282 271.542,179.116 266.5,194.5 Z"/></g>
<g><path style="opacity:0.995" fill="#6a777f" d="M 14.5,172.5 C 10.2087,170.723 5.87537,170.39 1.5,171.5C 0.921588,168.72 0.254922,166.053 -0.5,163.5C -0.5,159.167 -0.5,154.833 -0.5,150.5C 0.365928,147.576 1.36593,144.576 2.5,141.5C 3.47758,141.977 4.31091,142.643 5,143.5C 5.33333,143.167 5.66667,142.833 6,142.5C 7.3435,144.342 8.8435,146.008 10.5,147.5C 11.3295,152.802 11.8295,158.136 12,163.5C 13.5489,166.312 14.3822,169.312 14.5,172.5 Z"/></g>
<g><path style="opacity:1" fill="#69767e" d="M 291.5,128.5 C 291.833,128.5 292.167,128.5 292.5,128.5C 292.5,140.167 292.5,151.833 292.5,163.5C 291.596,164.209 291.263,165.209 291.5,166.5C 288.591,168.688 287.091,171.688 287,175.5C 285.667,178.167 284.333,178.167 283,175.5C 280.975,177.693 278.475,178.693 275.5,178.5C 275.413,181.598 275.913,181.932 277,179.5C 278.119,180.552 278.619,181.719 278.5,183C 276.84,184.264 275.173,184.764 273.5,184.5C 273.927,181.99 274.593,179.657 275.5,177.5C 277.583,170.452 278.75,163.118 279,155.5C 279.825,151.405 281.325,147.738 283.5,144.5C 285.527,144.338 287.527,144.505 289.5,145C 290.126,145.75 290.626,146.584 291,147.5C 291.5,141.175 291.666,134.842 291.5,128.5 Z"/></g>
<g><path style="opacity:1" fill="#12141b" d="M 118.5,138.5 C 118.833,138.5 119.167,138.5 119.5,138.5C 119.333,155.837 119.5,173.17 120,190.5C 120.333,183.167 120.667,175.833 121,168.5C 122,207.167 123,207.167 124,168.5C 128.11,163.862 133.277,161.529 139.5,161.5C 145.301,161.968 151.134,161.968 157,161.5C 162.989,163.132 168.822,165.299 174.5,168C 175.227,169.399 175.727,170.899 176,172.5C 177.011,173.337 178.178,173.67 179.5,173.5C 179.351,174.552 179.517,175.552 180,176.5C 182.077,178.076 183.577,180.076 184.5,182.5C 185.689,183.429 187.022,183.762 188.5,183.5C 187.312,185.722 186.312,188.055 185.5,190.5C 183.955,191.452 182.288,191.785 180.5,191.5C 180.328,189.508 180.995,187.842 182.5,186.5C 178.573,185.345 174.573,184.512 170.5,184C 168.606,182.921 168.273,181.587 169.5,180C 163.168,175.783 156.168,174.449 148.5,176C 148,176.5 147.5,177 147,177.5C 145.602,176.949 144.268,176.616 143,176.5C 141.004,176.996 139.337,177.996 138,179.5C 136.823,175.732 135.656,175.899 134.5,180C 131.94,179.562 129.44,179.729 127,180.5C 126.444,188.264 125.611,195.931 124.5,203.5C 124.443,204.609 124.11,205.609 123.5,206.5C 122.5,207.833 121.5,209.167 120.5,210.5C 119.833,210.5 119.167,210.5 118.5,210.5C 118.5,186.5 118.5,162.5 118.5,138.5 Z"/></g>
<g><path style="opacity:1" fill="#ae8d5f" d="M 117.5,172.5 C 117.666,177.844 117.499,183.177 117,188.5C 115.173,186.698 114.006,184.532 113.5,182C 108.182,180.694 102.849,179.527 97.5,178.5C 97.8205,183.695 97.4872,188.695 96.5,193.5C 96.5,184.167 96.5,174.833 96.5,165.5C 97.1653,163.302 97.8319,160.969 98.5,158.5C 100.042,159.747 101.542,159.747 103,158.5C 105.316,160.176 107.483,161.843 109.5,163.5C 110.741,160.856 112.741,160.023 115.5,161C 116.138,164.935 116.804,168.769 117.5,172.5 Z"/></g>
<g><path style="opacity:1" fill="#2a3846" d="M 36.5,79.5 C 31.9975,88.1699 28.3309,97.1699 25.5,106.5C 18.2357,127.626 16.7357,149.292 21,171.5C 25.4078,195.981 35.9078,217.314 52.5,235.5C 53.6005,236.605 54.2671,237.938 54.5,239.5C 35.1887,221.885 22.8553,200.219 17.5,174.5C 16.2845,168.54 15.2845,162.54 14.5,156.5C 16.3174,142.586 18.484,128.586 21,114.5C 24.0541,101.74 29.2208,90.0732 36.5,79.5 Z"/></g>
<g><path style="opacity:1" fill="#a28256" d="M 118.5,138.5 C 118.5,162.5 118.5,186.5 118.5,210.5C 125.636,211.831 133.136,212.497 141,212.5C 148.5,212.333 156,212.167 163.5,212C 168.923,210.696 173.923,208.53 178.5,205.5C 183.95,201.274 187.95,195.94 190.5,189.5C 190.376,188.893 190.043,188.56 189.5,188.5C 192.366,181.222 193.032,173.889 191.5,166.5C 191.5,165.833 191.5,165.167 191.5,164.5C 192.117,164.611 192.617,164.944 193,165.5C 193.333,169.833 193.667,174.167 194,178.5C 194.333,175.833 194.667,173.167 195,170.5C 195.519,171.516 196.353,172.182 197.5,172.5C 199.815,172.201 199.815,171.368 197.5,170C 199.167,169 200.5,167.667 201.5,166C 202.448,165.517 203.448,165.351 204.5,165.5C 204.33,164.178 204.663,163.011 205.5,162C 210.089,160.935 212.922,162.768 214,167.5C 214.667,165.833 214.667,164.167 214,162.5C 212.473,157.463 210.973,152.463 209.5,147.5C 211.751,150.926 213.417,154.592 214.5,158.5C 215.403,166.458 215.736,174.458 215.5,182.5C 214.967,186.965 213.967,191.298 212.5,195.5C 210.883,196.038 209.216,196.371 207.5,196.5C 207.649,195.448 207.483,194.448 207,193.5C 205.784,197.416 203.284,200.082 199.5,201.5C 196.494,205.343 192.494,207.677 187.5,208.5C 186.965,210.271 186.131,210.604 185,209.5C 183.513,210.253 183.346,211.086 184.5,212C 182.649,212.837 180.816,213.671 179,214.5C 178.517,215.448 178.351,216.448 178.5,217.5C 175.653,217.782 172.987,217.782 170.5,217.5C 166.467,219.927 162.3,221.927 158,223.5C 149.965,221.912 141.799,221.079 133.5,221C 132.256,218.697 130.589,218.197 128.5,219.5C 125.445,216.91 122.111,215.91 118.5,216.5C 117.147,215.315 115.98,213.981 115,212.5C 113.887,213.711 112.72,213.711 111.5,212.5C 109.517,210.19 108.517,207.523 108.5,204.5C 106.473,204.662 104.473,204.495 102.5,204C 103.328,203.085 104.328,202.419 105.5,202C 104.338,201.173 103.171,200.34 102,199.5C 100.765,200.615 99.5984,200.615 98.5,199.5C 97.5078,203.783 97.1744,208.116 97.5,212.5C 97.1667,212.5 96.8333,212.5 96.5,212.5C 96.5,206.167 96.5,199.833 96.5,193.5C 97.4872,188.695 97.8205,183.695 97.5,178.5C 102.849,179.527 108.182,180.694 113.5,182C 114.006,184.532 115.173,186.698 117,188.5C 117.499,183.177 117.666,177.844 117.5,172.5C 117.5,165.5 117.5,158.5 117.5,151.5C 117.182,146.968 117.515,142.634 118.5,138.5 Z"/></g>
<g><path style="opacity:1" fill="#181c24" d="M 191.5,166.5 C 193.032,173.889 192.366,181.222 189.5,188.5C 189.167,189.167 188.833,189.833 188.5,190.5C 186.264,191.546 184.264,192.879 182.5,194.5C 180.833,194.5 179.167,194.5 177.5,194.5C 177.5,193.167 177.5,191.833 177.5,190.5C 175.179,190.771 173.179,190.104 171.5,188.5C 166.762,188.826 161.929,189.493 157,190.5C 154.955,189.113 152.788,187.946 150.5,187C 151.167,186.667 151.833,186.333 152.5,186C 150.567,185.749 148.734,185.249 147,184.5C 146.692,185.308 146.192,185.975 145.5,186.5C 144.549,185.674 143.549,185.508 142.5,186C 142.833,187 143.167,188 143.5,189C 140.937,189.918 138.77,189.418 137,187.5C 136.764,189.764 136.264,191.931 135.5,194C 132.833,194 130.167,194 127.5,194C 128.308,194.308 128.975,194.808 129.5,195.5C 129.274,199.135 127.607,201.802 124.5,203.5C 125.611,195.931 126.444,188.264 127,180.5C 129.44,179.729 131.94,179.562 134.5,180C 135.656,175.899 136.823,175.732 138,179.5C 139.337,177.996 141.004,176.996 143,176.5C 144.268,176.616 145.602,176.949 147,177.5C 147.5,177 148,176.5 148.5,176C 156.168,174.449 163.168,175.783 169.5,180C 168.273,181.587 168.606,182.921 170.5,184C 174.573,184.512 178.573,185.345 182.5,186.5C 180.995,187.842 180.328,189.508 180.5,191.5C 182.288,191.785 183.955,191.452 185.5,190.5C 186.312,188.055 187.312,185.722 188.5,183.5C 189.778,177.889 190.778,172.223 191.5,166.5 Z"/></g>
<g><path style="opacity:1" fill="#513f2f" d="M 95.5,117.5 C 95.8333,117.5 96.1667,117.5 96.5,117.5C 96.5,124.5 96.5,131.5 96.5,138.5C 96.5,147.5 96.5,156.5 96.5,165.5C 96.5,174.833 96.5,184.167 96.5,193.5C 96.5,199.833 96.5,206.167 96.5,212.5C 96.1703,228.675 96.5036,244.675 97.5,260.5C 97.44,261.043 97.1067,261.376 96.5,261.5C 95.5001,216.838 95.1667,172.172 95.5,127.5C 95.5,124.167 95.5,120.833 95.5,117.5 Z"/></g>
<g><path style="opacity:0.979" fill="#58646c" d="M 14.5,172.5 C 14.4203,175.781 15.087,178.781 16.5,181.5C 21.5844,198.669 29.5844,214.336 40.5,228.5C 38.321,228.16 36.4877,227.16 35,225.5C 31.8083,221.9 28.9749,218.067 26.5,214C 25.552,213.517 24.552,213.351 23.5,213.5C 23.264,211.027 21.9307,209.36 19.5,208.5C 18.1502,209.95 16.4835,210.617 14.5,210.5C 7.99547,198.32 3.66214,185.32 1.5,171.5C 5.87537,170.39 10.2087,170.723 14.5,172.5 Z"/></g>
<g><path style="opacity:1" fill="#08070c" d="M 216.5,174.5 C 219.101,179.241 220.768,184.408 221.5,190C 220.833,190.667 220.167,191.333 219.5,192C 220.167,195 220.833,198 221.5,201C 220.691,206.417 220.191,211.917 220,217.5C 215.267,225.597 211.933,233.931 210,242.5C 207.356,246.475 204.356,250.142 201,253.5C 199.276,250.83 198.109,251.163 197.5,254.5C 193.852,255.484 191.852,257.818 191.5,261.5C 186.899,261.976 182.399,262.976 178,264.5C 176.893,264.415 175.893,264.081 175,263.5C 174.409,266.145 173.075,266.811 171,265.5C 169.039,266.897 166.872,267.897 164.5,268.5C 162.971,268.471 161.804,267.804 161,266.5C 156.823,268.206 152.49,269.539 148,270.5C 139.56,269.026 131.06,269.859 122.5,273C 119.183,273.498 115.85,273.665 112.5,273.5C 110.214,273.405 108.214,272.738 106.5,271.5C 108.144,271.286 109.644,271.62 111,272.5C 111.862,270.913 112.529,269.246 113,267.5C 116.34,266.385 119.007,264.385 121,261.5C 123.055,261.848 125.055,261.181 127,259.5C 128.356,260.38 129.856,260.714 131.5,260.5C 131.351,261.552 131.517,262.552 132,263.5C 134.877,262.544 137.544,261.211 140,259.5C 140.674,260.578 141.674,261.245 143,261.5C 145.089,260.555 147.089,260.555 149,261.5C 150.574,260.152 152.407,259.486 154.5,259.5C 158.106,260.472 161.606,260.805 165,260.5C 167.561,258.317 170.394,257.65 173.5,258.5C 175.115,257.846 176.782,257.346 178.5,257C 179.126,256.25 179.626,255.416 180,254.5C 180.667,255.833 181.333,255.833 182,254.5C 182.333,255.167 182.667,255.833 183,256.5C 183.309,255.234 183.809,254.067 184.5,253C 189.187,250.631 193.52,248.465 197.5,246.5C 199.021,244.714 199.354,242.881 198.5,241C 200.727,238.436 202.561,235.603 204,232.5C 207.297,230.205 210.297,227.538 213,224.5C 213.576,222.623 213.409,220.789 212.5,219C 215.119,214.076 216.119,208.909 215.5,203.5C 214.914,203.291 214.414,202.957 214,202.5C 212.463,206.537 210.296,210.204 207.5,213.5C 207.709,214.086 208.043,214.586 208.5,215C 199.065,227.233 186.732,235.233 171.5,239C 154.635,239.188 137.802,239.688 121,240.5C 120.055,240.095 119.388,239.428 119,238.5C 117.924,241.079 116.091,242.746 113.5,243.5C 115.371,240.939 117.371,238.439 119.5,236C 134.833,235.667 150.167,235.333 165.5,235C 184.154,232.831 198.154,223.664 207.5,207.5C 209.716,203.734 211.383,199.734 212.5,195.5C 213.967,191.298 214.967,186.965 215.5,182.5C 216.473,180.052 216.806,177.385 216.5,174.5 Z"/></g>
<g><path style="opacity:1" fill="#99784d" d="M 212.5,195.5 C 211.383,199.734 209.716,203.734 207.5,207.5C 205.296,206.649 203.963,207.649 203.5,210.5C 201.972,211.861 200.305,213.028 198.5,214C 198.833,214.333 199.167,214.667 199.5,215C 198.382,216.074 197.382,217.24 196.5,218.5C 195.5,217.833 194.5,217.167 193.5,216.5C 188.376,218.597 183.376,221.097 178.5,224C 175.266,224.2 172.266,225.033 169.5,226.5C 168.446,226.32 167.446,225.987 166.5,225.5C 164.511,227.531 162.344,228.197 160,227.5C 156.958,230.082 153.958,230.082 151,227.5C 150.261,228.574 149.261,229.241 148,229.5C 145.046,227.607 141.879,226.107 138.5,225C 130.711,225.296 123.544,223.129 117,218.5C 115.938,219.097 114.772,219.43 113.5,219.5C 110.884,218.487 108.218,217.653 105.5,217C 104.299,216.097 103.465,214.931 103,213.5C 102.439,214.022 101.772,214.355 101,214.5C 99.9231,213.571 98.7564,212.904 97.5,212.5C 97.1744,208.116 97.5078,203.783 98.5,199.5C 99.5984,200.615 100.765,200.615 102,199.5C 103.171,200.34 104.338,201.173 105.5,202C 104.328,202.419 103.328,203.085 102.5,204C 104.473,204.495 106.473,204.662 108.5,204.5C 108.517,207.523 109.517,210.19 111.5,212.5C 112.72,213.711 113.887,213.711 115,212.5C 115.98,213.981 117.147,215.315 118.5,216.5C 122.111,215.91 125.445,216.91 128.5,219.5C 130.589,218.197 132.256,218.697 133.5,221C 141.799,221.079 149.965,221.912 158,223.5C 162.3,221.927 166.467,219.927 170.5,217.5C 172.987,217.782 175.653,217.782 178.5,217.5C 178.351,216.448 178.517,215.448 179,214.5C 180.816,213.671 182.649,212.837 184.5,212C 183.346,211.086 183.513,210.253 185,209.5C 186.131,210.604 186.965,210.271 187.5,208.5C 192.494,207.677 196.494,205.343 199.5,201.5C 203.284,200.082 205.784,197.416 207,193.5C 207.483,194.448 207.649,195.448 207.5,196.5C 209.216,196.371 210.883,196.038 212.5,195.5 Z"/></g>
<g><path style="opacity:1" fill="#0e1014" d="M 95.5,127.5 C 95.1667,172.172 95.5001,216.838 96.5,261.5C 97.1067,261.376 97.44,261.043 97.5,260.5C 102.195,255.474 106.861,250.474 111.5,245.5C 111.461,246.583 111.127,247.583 110.5,248.5C 111.811,249.258 112.311,250.258 112,251.5C 106.883,257.114 101.716,262.447 96.5,267.5C 93.0884,266.925 90.0884,265.592 87.5,263.5C 87.7733,261.549 87.1066,260.049 85.5,259C 86.1268,256.657 87.1268,254.49 88.5,252.5C 87.0239,250.58 86.0239,248.413 85.5,246C 86.619,244.124 88.2856,243.291 90.5,243.5C 90.8275,238.456 90.4941,233.456 89.5,228.5C 89.9367,230.595 88.9367,232.262 86.5,233.5C 85.9426,231.282 85.9426,228.949 86.5,226.5C 87.8333,226.5 89.1667,226.5 90.5,226.5C 89.608,223.518 88.2747,220.684 86.5,218C 87.1667,217 87.8333,216 88.5,215C 87.5939,213.301 87.2606,211.467 87.5,209.5C 88.5,209.5 89.5,209.5 90.5,209.5C 91.2348,196.52 91.7348,183.52 92,170.5C 92.3333,171.5 92.6667,172.5 93,173.5C 93.3333,200.833 93.6667,228.167 94,255.5C 94.5,217.168 94.6667,178.835 94.5,140.5C 94.5,136.5 94.5,132.5 94.5,128.5C 94.5,127.833 94.8333,127.5 95.5,127.5 Z"/></g>
<g><path style="opacity:1" fill="#20252d" d="M 182.5,194.5 C 178.879,198.633 174.879,202.3 170.5,205.5C 168.958,206.301 167.292,206.634 165.5,206.5C 151.5,206.5 137.5,206.5 123.5,206.5C 124.11,205.609 124.443,204.609 124.5,203.5C 127.607,201.802 129.274,199.135 129.5,195.5C 128.975,194.808 128.308,194.308 127.5,194C 130.167,194 132.833,194 135.5,194C 136.264,191.931 136.764,189.764 137,187.5C 138.77,189.418 140.937,189.918 143.5,189C 143.167,188 142.833,187 142.5,186C 143.549,185.508 144.549,185.674 145.5,186.5C 146.192,185.975 146.692,185.308 147,184.5C 148.734,185.249 150.567,185.749 152.5,186C 151.833,186.333 151.167,186.667 150.5,187C 152.788,187.946 154.955,189.113 157,190.5C 161.929,189.493 166.762,188.826 171.5,188.5C 173.179,190.104 175.179,190.771 177.5,190.5C 177.5,191.833 177.5,193.167 177.5,194.5C 179.167,194.5 180.833,194.5 182.5,194.5 Z"/></g>
<g><path style="opacity:1" fill="#d8cdb2" d="M 189.5,188.5 C 190.043,188.56 190.376,188.893 190.5,189.5C 187.95,195.94 183.95,201.274 178.5,205.5C 178.5,205.167 178.5,204.833 178.5,204.5C 178.5,204.167 178.5,203.833 178.5,203.5C 182.568,199.761 185.901,195.428 188.5,190.5C 188.833,189.833 189.167,189.167 189.5,188.5 Z"/></g>
<g><path style="opacity:1" fill="#575f66" d="M 188.5,190.5 C 185.901,195.428 182.568,199.761 178.5,203.5C 175.779,203.963 173.112,204.629 170.5,205.5C 174.879,202.3 178.879,198.633 182.5,194.5C 184.264,192.879 186.264,191.546 188.5,190.5 Z"/></g>
<g><path style="opacity:1" fill="#010101" d="M 106.5,271.5 C 102.703,271.128 99.3695,269.794 96.5,267.5C 101.716,262.447 106.883,257.114 112,251.5C 112.311,250.258 111.811,249.258 110.5,248.5C 111.127,247.583 111.461,246.583 111.5,245.5C 111.833,244.5 112.5,243.833 113.5,243.5C 116.091,242.746 117.924,241.079 119,238.5C 119.388,239.428 120.055,240.095 121,240.5C 137.802,239.688 154.635,239.188 171.5,239C 186.732,235.233 199.065,227.233 208.5,215C 208.043,214.586 207.709,214.086 207.5,213.5C 210.296,210.204 212.463,206.537 214,202.5C 214.414,202.957 214.914,203.291 215.5,203.5C 216.119,208.909 215.119,214.076 212.5,219C 213.409,220.789 213.576,222.623 213,224.5C 210.297,227.538 207.297,230.205 204,232.5C 202.561,235.603 200.727,238.436 198.5,241C 199.354,242.881 199.021,244.714 197.5,246.5C 193.52,248.465 189.187,250.631 184.5,253C 183.809,254.067 183.309,255.234 183,256.5C 182.667,255.833 182.333,255.167 182,254.5C 181.333,255.833 180.667,255.833 180,254.5C 179.626,255.416 179.126,256.25 178.5,257C 176.782,257.346 175.115,257.846 173.5,258.5C 170.394,257.65 167.561,258.317 165,260.5C 161.606,260.805 158.106,260.472 154.5,259.5C 152.407,259.486 150.574,260.152 149,261.5C 147.089,260.555 145.089,260.555 143,261.5C 141.674,261.245 140.674,260.578 140,259.5C 137.544,261.211 134.877,262.544 132,263.5C 131.517,262.552 131.351,261.552 131.5,260.5C 129.856,260.714 128.356,260.38 127,259.5C 125.055,261.181 123.055,261.848 121,261.5C 119.007,264.385 116.34,266.385 113,267.5C 112.529,269.246 111.862,270.913 111,272.5C 109.644,271.62 108.144,271.286 106.5,271.5 Z"/></g>
<g><path style="opacity:1" fill="#59656d" d="M 291.5,166.5 C 290.194,178.065 287.194,189.065 282.5,199.5C 278.372,200.402 274.705,202.068 271.5,204.5C 271.773,206.451 271.107,207.951 269.5,209C 269.833,209.333 270.167,209.667 270.5,210C 267.333,211.167 265.167,213.333 264,216.5C 262.51,215.272 261.01,215.272 259.5,216.5C 261.212,211.41 263.712,206.744 267,202.5C 268.875,196.373 271.042,190.373 273.5,184.5C 275.173,184.764 276.84,184.264 278.5,183C 278.619,181.719 278.119,180.552 277,179.5C 275.913,181.932 275.413,181.598 275.5,178.5C 278.475,178.693 280.975,177.693 283,175.5C 284.333,178.167 285.667,178.167 287,175.5C 287.091,171.688 288.591,168.688 291.5,166.5 Z"/></g>
<g><path style="opacity:1" fill="#4c565e" d="M 123.5,206.5 C 137.5,206.5 151.5,206.5 165.5,206.5C 152.006,207.331 138.339,207.831 124.5,208C 123.619,208.708 122.953,209.542 122.5,210.5C 121.833,210.5 121.167,210.5 120.5,210.5C 121.5,209.167 122.5,207.833 123.5,206.5 Z"/></g>
<g><path style="opacity:1" fill="#929ca4" d="M 178.5,203.5 C 178.5,203.833 178.5,204.167 178.5,204.5C 174.672,206.579 170.672,208.412 166.5,210C 151.837,210.5 137.17,210.667 122.5,210.5C 122.953,209.542 123.619,208.708 124.5,208C 138.339,207.831 152.006,207.331 165.5,206.5C 167.292,206.634 168.958,206.301 170.5,205.5C 173.112,204.629 175.779,203.963 178.5,203.5 Z"/></g>
<g><path style="opacity:1" fill="#14171f" d="M 220.5,177.5 C 222.966,177.899 224.966,179.065 226.5,181C 227.592,186.454 227.592,191.954 226.5,197.5C 227.213,199.776 227.713,202.109 228,204.5C 231.368,207.024 233.202,210.357 233.5,214.5C 235.5,214.5 237.5,214.5 239.5,214.5C 239.128,217.022 239.961,219.022 242,220.5C 244.048,218.494 243.548,217.494 240.5,217.5C 240.119,215.058 240.786,214.391 242.5,215.5C 243.243,214.092 244.077,212.759 245,211.5C 247.139,212.769 249.305,212.769 251.5,211.5C 246.538,211.897 246.371,210.897 251,208.5C 252.663,209.99 254.33,210.656 256,210.5C 256.49,211.793 256.657,213.127 256.5,214.5C 241.868,238.791 221.534,256.791 195.5,268.5C 194.391,268.557 193.391,268.89 192.5,269.5C 192.812,266.727 193.978,264.393 196,262.5C 196.71,263.973 197.876,264.64 199.5,264.5C 199.5,263.5 199.5,262.5 199.5,261.5C 201.674,261.08 203.674,261.08 205.5,261.5C 206.59,260.273 207.924,259.44 209.5,259C 209.043,258.586 208.709,258.086 208.5,257.5C 211.29,255.613 213.29,253.113 214.5,250C 213.213,246.875 213.213,243.709 214.5,240.5C 216.677,241.504 217.011,240.838 215.5,238.5C 216.628,237.738 217.795,237.071 219,236.5C 219.45,234.481 220.283,232.648 221.5,231C 221.167,230.667 220.833,230.333 220.5,230C 222.291,227.894 222.958,225.394 222.5,222.5C 223.552,222.649 224.552,222.483 225.5,222C 224.289,220.887 224.289,219.72 225.5,218.5C 224.184,217.193 223.184,215.693 222.5,214C 222.784,209.144 223.451,204.144 224.5,199C 223.689,196.895 222.689,194.895 221.5,193C 222.296,191.908 222.963,190.741 223.5,189.5C 222.183,185.565 221.183,181.565 220.5,177.5 Z"/></g>
<g><path style="opacity:1" fill="#e5e2d5" d="M 178.5,204.5 C 178.5,204.833 178.5,205.167 178.5,205.5C 173.923,208.53 168.923,210.696 163.5,212C 156,212.167 148.5,212.333 141,212.5C 133.136,212.497 125.636,211.831 118.5,210.5C 119.167,210.5 119.833,210.5 120.5,210.5C 121.167,210.5 121.833,210.5 122.5,210.5C 137.17,210.667 151.837,210.5 166.5,210C 170.672,208.412 174.672,206.579 178.5,204.5 Z"/></g>
<g><path style="opacity:1" fill="#13171e" d="M 94.5,140.5 C 94.6667,178.835 94.5,217.168 94,255.5C 93.6667,228.167 93.3333,200.833 93,173.5C 92.6667,172.5 92.3333,171.5 92,170.5C 91.7348,183.52 91.2348,196.52 90.5,209.5C 89.5,209.5 88.5,209.5 87.5,209.5C 87.2606,211.467 87.5939,213.301 88.5,215C 87.8333,216 87.1667,217 86.5,218C 88.2747,220.684 89.608,223.518 90.5,226.5C 89.1667,226.5 87.8333,226.5 86.5,226.5C 85.9426,228.949 85.9426,231.282 86.5,233.5C 88.9367,232.262 89.9367,230.595 89.5,228.5C 90.4941,233.456 90.8275,238.456 90.5,243.5C 88.2856,243.291 86.619,244.124 85.5,246C 86.0239,248.413 87.0239,250.58 88.5,252.5C 87.1268,254.49 86.1268,256.657 85.5,259C 87.1066,260.049 87.7733,261.549 87.5,263.5C 78.2923,259.067 69.9589,253.4 62.5,246.5C 60.4309,243.427 57.7642,241.094 54.5,239.5C 54.2671,237.938 53.6005,236.605 52.5,235.5C 52.5,234.167 52.5,232.833 52.5,231.5C 51.448,231.649 50.448,231.483 49.5,231C 50.3822,225.893 50.3822,220.726 49.5,215.5C 58.479,216.114 66.979,216.448 75,216.5C 76,215.167 77,213.833 78,212.5C 80.2421,204.642 82.2421,196.642 84,188.5C 88.3641,189.706 88.5307,189.206 84.5,187C 87.001,185.582 86.6677,184.582 83.5,184C 85.5918,180.564 87.5918,177.064 89.5,173.5C 90.2718,160.828 91.1051,148.161 92,135.5C 92.3333,134.833 92.6667,134.167 93,133.5C 93.1862,136.036 93.6862,138.369 94.5,140.5 Z"/></g>
<g><path style="opacity:1" fill="#4c545d" d="M 282.5,199.5 C 278.289,211.597 272.289,222.597 264.5,232.5C 263.178,232.67 262.011,232.337 261,231.5C 260.506,233.134 260.34,234.801 260.5,236.5C 256.072,239.226 251.739,242.226 247.5,245.5C 246.194,246.912 245.36,248.579 245,250.5C 243.989,249.663 242.822,249.33 241.5,249.5C 240.883,249.389 240.383,249.056 240,248.5C 238.829,249.893 237.329,250.727 235.5,251C 232.03,256.067 227.363,257.9 221.5,256.5C 236.585,245.416 249.251,232.083 259.5,216.5C 261.01,215.272 262.51,215.272 264,216.5C 265.167,213.333 267.333,211.167 270.5,210C 270.167,209.667 269.833,209.333 269.5,209C 271.107,207.951 271.773,206.451 271.5,204.5C 274.705,202.068 278.372,200.402 282.5,199.5 Z"/></g>
<g><path style="opacity:0.988" fill="#4a525b" d="M 40.5,228.5 C 56.4567,249.305 76.79,263.971 101.5,272.5C 100.127,272.343 98.7932,272.51 97.5,273C 97.8333,273.333 98.1667,273.667 98.5,274C 97.5,274.5 96.5,275 95.5,275.5C 92.7684,273.231 89.9351,270.897 87,268.5C 84.7711,271.156 82.9378,270.823 81.5,267.5C 76.2177,265.822 71.2177,263.656 66.5,261C 65.2125,259.59 64.0458,258.09 63,256.5C 62.6667,256.833 62.3333,257.167 62,257.5C 60.1136,254.758 57.6136,253.091 54.5,252.5C 53.7124,249.03 51.7124,246.363 48.5,244.5C 46.7419,245.128 45.2419,246.128 44,247.5C 42.3905,246.853 40.8905,246.02 39.5,245C 39.9574,244.586 40.2907,244.086 40.5,243.5C 39.3112,242.571 37.9778,242.238 36.5,242.5C 38.1198,238.12 36.7865,236.786 32.5,238.5C 25.007,230.194 19.007,220.861 14.5,210.5C 16.4835,210.617 18.1502,209.95 19.5,208.5C 21.9307,209.36 23.264,211.027 23.5,213.5C 24.552,213.351 25.552,213.517 26.5,214C 28.9749,218.067 31.8083,221.9 35,225.5C 36.4877,227.16 38.321,228.16 40.5,228.5 Z"/></g>
<g><path style="opacity:1" fill="#d6dee2" d="M 275.5,177.5 C 274.593,179.657 273.927,181.99 273.5,184.5C 271.042,190.373 268.875,196.373 267,202.5C 263.712,206.744 261.212,211.41 259.5,216.5C 249.251,232.083 236.585,245.416 221.5,256.5C 216.299,259.263 211.299,262.263 206.5,265.5C 203.167,266.833 199.833,268.167 196.5,269.5C 195.833,269.5 195.5,269.167 195.5,268.5C 221.534,256.791 241.868,238.791 256.5,214.5C 260.889,208.388 264.223,201.721 266.5,194.5C 270,188.338 272.333,181.672 273.5,174.5C 274.222,174.082 274.722,173.416 275,172.5C 275.494,174.134 275.66,175.801 275.5,177.5 Z"/></g>
<g><path style="opacity:1" fill="#8f6f47" d="M 207.5,207.5 C 198.154,223.664 184.154,232.831 165.5,235C 150.167,235.333 134.833,235.667 119.5,236C 117.371,238.439 115.371,240.939 113.5,243.5C 112.5,243.833 111.833,244.5 111.5,245.5C 106.861,250.474 102.195,255.474 97.5,260.5C 96.5036,244.675 96.1703,228.675 96.5,212.5C 96.8333,212.5 97.1667,212.5 97.5,212.5C 98.7564,212.904 99.9231,213.571 101,214.5C 101.772,214.355 102.439,214.022 103,213.5C 103.465,214.931 104.299,216.097 105.5,217C 108.218,217.653 110.884,218.487 113.5,219.5C 114.772,219.43 115.938,219.097 117,218.5C 123.544,223.129 130.711,225.296 138.5,225C 141.879,226.107 145.046,227.607 148,229.5C 149.261,229.241 150.261,228.574 151,227.5C 153.958,230.082 156.958,230.082 160,227.5C 162.344,228.197 164.511,227.531 166.5,225.5C 167.446,225.987 168.446,226.32 169.5,226.5C 172.266,225.033 175.266,224.2 178.5,224C 183.376,221.097 188.376,218.597 193.5,216.5C 194.5,217.167 195.5,217.833 196.5,218.5C 197.382,217.24 198.382,216.074 199.5,215C 199.167,214.667 198.833,214.333 198.5,214C 200.305,213.028 201.972,211.861 203.5,210.5C 203.963,207.649 205.296,206.649 207.5,207.5 Z"/></g>
<g><path style="opacity:1" fill="#d6dfe4" d="M 17.5,174.5 C 22.8553,200.219 35.1887,221.885 54.5,239.5C 56.5691,242.573 59.2358,244.906 62.5,246.5C 69.9589,253.4 78.2923,259.067 87.5,263.5C 90.0884,265.592 93.0884,266.925 96.5,267.5C 99.3695,269.794 102.703,271.128 106.5,271.5C 108.214,272.738 110.214,273.405 112.5,273.5C 113.209,274.404 114.209,274.737 115.5,274.5C 114.791,275.404 113.791,275.737 112.5,275.5C 108.901,274.301 105.235,273.301 101.5,272.5C 76.79,263.971 56.4567,249.305 40.5,228.5C 29.5844,214.336 21.5844,198.669 16.5,181.5C 16.1231,178.475 15.9565,175.475 16,172.5C 16.2784,173.416 16.7784,174.082 17.5,174.5 Z"/></g>
<g><path style="opacity:1" fill="#3f4750" d="M 54.5,239.5 C 57.7642,241.094 60.4309,243.427 62.5,246.5C 59.2358,244.906 56.5691,242.573 54.5,239.5 Z"/></g>
<g><path style="opacity:1" fill="#41464f" d="M 101.5,272.5 C 101.557,273.609 101.89,274.609 102.5,275.5C 101.761,275.369 101.094,275.536 100.5,276C 101.451,276.718 101.617,277.551 101,278.5C 96.3087,279.032 91.642,278.366 87,276.5C 86.8184,278.33 87.3184,279.997 88.5,281.5C 66.3222,271.645 47.6556,257.312 32.5,238.5C 36.7865,236.786 38.1198,238.12 36.5,242.5C 37.9778,242.238 39.3112,242.571 40.5,243.5C 40.2907,244.086 39.9574,244.586 39.5,245C 40.8905,246.02 42.3905,246.853 44,247.5C 45.2419,246.128 46.7419,245.128 48.5,244.5C 51.7124,246.363 53.7124,249.03 54.5,252.5C 57.6136,253.091 60.1136,254.758 62,257.5C 62.3333,257.167 62.6667,256.833 63,256.5C 64.0458,258.09 65.2125,259.59 66.5,261C 71.2177,263.656 76.2177,265.822 81.5,267.5C 82.9378,270.823 84.7711,271.156 87,268.5C 89.9351,270.897 92.7684,273.231 95.5,275.5C 96.5,275 97.5,274.5 98.5,274C 98.1667,273.667 97.8333,273.333 97.5,273C 98.7932,272.51 100.127,272.343 101.5,272.5 Z"/></g>
<g><path style="opacity:0.971" fill="#414248" d="M 264.5,232.5 C 253.681,247.657 240.347,259.99 224.5,269.5C 225.207,267.866 226.373,266.532 228,265.5C 228.346,263.782 228.846,262.115 229.5,260.5C 233.839,257.159 237.839,253.492 241.5,249.5C 242.822,249.33 243.989,249.663 245,250.5C 245.36,248.579 246.194,246.912 247.5,245.5C 251.739,242.226 256.072,239.226 260.5,236.5C 260.34,234.801 260.506,233.134 261,231.5C 262.011,232.337 263.178,232.67 264.5,232.5 Z"/></g>
<g><path style="opacity:1" fill="#4f4e52" d="M 241.5,249.5 C 237.839,253.492 233.839,257.159 229.5,260.5C 228.846,262.115 228.346,263.782 228,265.5C 226.373,266.532 225.207,267.866 224.5,269.5C 219.363,273.575 213.696,276.908 207.5,279.5C 207.196,278.85 206.863,278.183 206.5,277.5C 208.98,276.585 209.647,275.085 208.5,273C 212.131,272.794 212.465,271.627 209.5,269.5C 208.335,270.491 207.168,271.491 206,272.5C 205.5,272.333 205,272.167 204.5,272C 205.669,269.993 206.335,267.827 206.5,265.5C 211.299,262.263 216.299,259.263 221.5,256.5C 227.363,257.9 232.03,256.067 235.5,251C 237.329,250.727 238.829,249.893 240,248.5C 240.383,249.056 240.883,249.389 241.5,249.5 Z"/></g>
<g><path style="opacity:1" fill="#0d1017" d="M 220.5,172.5 C 220.5,174.167 220.5,175.833 220.5,177.5C 221.183,181.565 222.183,185.565 223.5,189.5C 222.963,190.741 222.296,191.908 221.5,193C 222.689,194.895 223.689,196.895 224.5,199C 223.451,204.144 222.784,209.144 222.5,214C 223.184,215.693 224.184,217.193 225.5,218.5C 224.289,219.72 224.289,220.887 225.5,222C 224.552,222.483 223.552,222.649 222.5,222.5C 222.958,225.394 222.291,227.894 220.5,230C 220.833,230.333 221.167,230.667 221.5,231C 220.283,232.648 219.45,234.481 219,236.5C 217.795,237.071 216.628,237.738 215.5,238.5C 217.011,240.838 216.677,241.504 214.5,240.5C 213.213,243.709 213.213,246.875 214.5,250C 213.29,253.113 211.29,255.613 208.5,257.5C 208.709,258.086 209.043,258.586 209.5,259C 207.924,259.44 206.59,260.273 205.5,261.5C 203.674,261.08 201.674,261.08 199.5,261.5C 199.5,262.5 199.5,263.5 199.5,264.5C 197.876,264.64 196.71,263.973 196,262.5C 193.978,264.393 192.812,266.727 192.5,269.5C 167.332,279.238 141.666,280.904 115.5,274.5C 114.209,274.737 113.209,274.404 112.5,273.5C 115.85,273.665 119.183,273.498 122.5,273C 131.06,269.859 139.56,269.026 148,270.5C 152.49,269.539 156.823,268.206 161,266.5C 161.804,267.804 162.971,268.471 164.5,268.5C 166.872,267.897 169.039,266.897 171,265.5C 173.075,266.811 174.409,266.145 175,263.5C 175.893,264.081 176.893,264.415 178,264.5C 182.399,262.976 186.899,261.976 191.5,261.5C 191.852,257.818 193.852,255.484 197.5,254.5C 198.109,251.163 199.276,250.83 201,253.5C 204.356,250.142 207.356,246.475 210,242.5C 211.933,233.931 215.267,225.597 220,217.5C 220.191,211.917 220.691,206.417 221.5,201C 220.833,198 220.167,195 219.5,192C 220.167,191.333 220.833,190.667 221.5,190C 220.768,184.408 219.101,179.241 216.5,174.5C 216.336,171.813 216.503,169.146 217,166.5C 217.333,168.833 217.667,171.167 218,173.5C 218.671,172.748 219.504,172.414 220.5,172.5 Z"/></g>
<g><path style="opacity:1" fill="#bebfc2" d="M 195.5,268.5 C 195.5,269.167 195.833,269.5 196.5,269.5C 177.565,277.924 157.565,281.258 136.5,279.5C 128.208,279.135 120.208,277.802 112.5,275.5C 113.791,275.737 114.791,275.404 115.5,274.5C 141.666,280.904 167.332,279.238 192.5,269.5C 193.391,268.89 194.391,268.557 195.5,268.5 Z"/></g>
<g><path style="opacity:0.936" fill="#434348" d="M 102.5,275.5 C 106.469,278.395 110.969,280.395 116,281.5C 117,280.833 118,280.167 119,279.5C 128.456,281.641 137.622,283.807 146.5,286C 148.878,286.974 148.544,287.641 145.5,288C 146.337,289.011 146.67,290.178 146.5,291.5C 149.059,291.198 151.393,291.532 153.5,292.5C 145.167,292.5 136.833,292.5 128.5,292.5C 114.845,290.417 101.512,286.75 88.5,281.5C 87.3184,279.997 86.8184,278.33 87,276.5C 91.642,278.366 96.3087,279.032 101,278.5C 101.617,277.551 101.451,276.718 100.5,276C 101.094,275.536 101.761,275.369 102.5,275.5 Z"/></g>
<g><path style="opacity:1" fill="#5f5453" d="M 206.5,265.5 C 206.335,267.827 205.669,269.993 204.5,272C 205,272.167 205.5,272.333 206,272.5C 207.168,271.491 208.335,270.491 209.5,269.5C 212.465,271.627 212.131,272.794 208.5,273C 209.647,275.085 208.98,276.585 206.5,277.5C 206.863,278.183 207.196,278.85 207.5,279.5C 201.128,282.624 194.461,284.958 187.5,286.5C 183.898,285.966 180.398,285.966 177,286.5C 175.745,285.789 174.579,284.956 173.5,284C 161.246,282.572 148.912,281.072 136.5,279.5C 157.565,281.258 177.565,277.924 196.5,269.5C 199.833,268.167 203.167,266.833 206.5,265.5 Z"/></g>
<g><path style="opacity:0.955" fill="#534c4c" d="M 101.5,272.5 C 105.235,273.301 108.901,274.301 112.5,275.5C 120.208,277.802 128.208,279.135 136.5,279.5C 148.912,281.072 161.246,282.572 173.5,284C 174.579,284.956 175.745,285.789 177,286.5C 180.398,285.966 183.898,285.966 187.5,286.5C 179.649,289.136 171.649,291.136 163.5,292.5C 160.167,292.5 156.833,292.5 153.5,292.5C 151.393,291.532 149.059,291.198 146.5,291.5C 146.67,290.178 146.337,289.011 145.5,288C 148.544,287.641 148.878,286.974 146.5,286C 137.622,283.807 128.456,281.641 119,279.5C 118,280.167 117,280.833 116,281.5C 110.969,280.395 106.469,278.395 102.5,275.5C 101.89,274.609 101.557,273.609 101.5,272.5 Z"/></g>
</svg>
