<?xml version="1.0" encoding="UTF-8"?>
<!DOCTYPE svg PUBLIC "-//W3C//DTD SVG 1.1//EN" "http://www.w3.org/Graphics/SVG/1.1/DTD/svg11.dtd">
<svg xmlns="http://www.w3.org/2000/svg" version="1.1" width="137px" height="137px" style="shape-rendering:geometricPrecision; text-rendering:geometricPrecision; image-rendering:optimizeQuality; fill-rule:evenodd; clip-rule:evenodd" xmlns:xlink="http://www.w3.org/1999/xlink">
<g><path style="opacity:1" fill="#453f26" d="M 60.5,1.5 C 65.6405,0.511923 70.9738,0.178589 76.5,0.5C 76.5,0.833333 76.5,1.16667 76.5,1.5C 74.5,1.5 72.5,1.5 70.5,1.5C 69.8333,5.5 69.1667,5.5 68.5,1.5C 67.5,1.5 66.5,1.5 65.5,1.5C 63.8333,1.5 62.1667,1.5 60.5,1.5 Z"/></g>
<g><path style="opacity:1" fill="#98926b" d="M 76.5,1.5 C 76.5,1.16667 76.5,0.833333 76.5,0.5C 77.5,0.5 78.5,0.5 79.5,0.5C 88.422,1.30466 96.422,4.30466 103.5,9.5C 97.4199,6.58322 91.0865,4.24989 84.5,2.5C 81.9039,1.73465 79.2372,1.40132 76.5,1.5 Z"/></g>
<g><path style="opacity:1" fill="#0a0704" d="M 59.5,1.5 C 59.8333,1.5 60.1667,1.5 60.5,1.5C 62.1667,1.5 63.8333,1.5 65.5,1.5C 65.5,2.83333 65.5,4.16667 65.5,5.5C 63.5,5.5 61.5,5.5 59.5,5.5C 59.5,4.16667 59.5,2.83333 59.5,1.5 Z"/></g>
<g><path style="opacity:1" fill="#221f14" d="M 65.5,1.5 C 66.5,1.5 67.5,1.5 68.5,1.5C 69.1667,5.5 69.8333,5.5 70.5,1.5C 72.5,1.5 74.5,1.5 76.5,1.5C 79.2372,1.40132 81.9039,1.73465 84.5,2.5C 84.631,3.23891 84.4643,3.90558 84,4.5C 82.9887,3.66337 81.8221,3.33003 80.5,3.5C 80.7148,5.17876 80.0481,6.17876 78.5,6.5C 77.1667,6.5 75.8333,6.5 74.5,6.5C 71.7131,5.52333 68.7131,5.19 65.5,5.5C 65.5,4.16667 65.5,2.83333 65.5,1.5 Z"/></g>
<g><path style="opacity:1" fill="#322d18" d="M 59.5,1.5 C 59.5,2.83333 59.5,4.16667 59.5,5.5C 61.5,5.5 63.5,5.5 65.5,5.5C 68.7131,5.19 71.7131,5.52333 74.5,6.5C 65.5702,5.80696 56.9035,6.80696 48.5,9.5C 48.9227,7.21879 48.256,5.55213 46.5,4.5C 50.4969,2.51113 54.8303,1.51113 59.5,1.5 Z"/></g>
<g><path style="opacity:1" fill="#363119" d="M 84.5,2.5 C 91.0865,4.24989 97.4199,6.58322 103.5,9.5C 103.973,10.9063 104.973,11.573 106.5,11.5C 106.973,12.9063 107.973,13.573 109.5,13.5C 110.167,13.5 110.5,13.8333 110.5,14.5C 110.833,15.1667 111.167,15.8333 111.5,16.5C 110.512,17.795 109.512,19.1283 108.5,20.5C 99.7192,13.1082 89.7192,8.44151 78.5,6.5C 80.0481,6.17876 80.7148,5.17876 80.5,3.5C 81.8221,3.33003 82.9887,3.66337 84,4.5C 84.4643,3.90558 84.631,3.23891 84.5,2.5 Z"/></g>
<g><path style="opacity:1" fill="#150f04" d="M 46.5,4.5 C 48.256,5.55213 48.9227,7.21879 48.5,9.5C 47.0413,9.43255 45.7079,9.76589 44.5,10.5C 42.4677,9.95218 41.4677,8.61885 41.5,6.5C 42.8195,5.05817 44.4862,4.39151 46.5,4.5 Z"/></g>
<g><path style="opacity:1" fill="#6f6316" d="M 74.5,7.5 C 85.5844,8.96856 95.5844,12.9686 104.5,19.5C 103.833,19.5 103.5,19.8333 103.5,20.5C 101.999,19.2485 100.332,18.2485 98.5,17.5C 87.1797,10.74 74.8464,8.07336 61.5,9.5C 56.287,10.0897 51.287,11.423 46.5,13.5C 46.5,12.8333 46.1667,12.5 45.5,12.5C 54.609,8.36989 64.2757,6.70323 74.5,7.5 Z"/></g>
<g><path style="opacity:1" fill="#a89d75" d="M 103.5,9.5 C 105.027,9.42702 106.027,10.0937 106.5,11.5C 104.973,11.573 103.973,10.9063 103.5,9.5 Z"/></g>
<g><path style="opacity:1" fill="#aea679" d="M 106.5,11.5 C 108.027,11.427 109.027,12.0937 109.5,13.5C 107.973,13.573 106.973,12.9063 106.5,11.5 Z"/></g>
<g><path style="opacity:1" fill="#dac668" d="M 61.5,9.5 C 74.8464,8.07336 87.1797,10.74 98.5,17.5C 98.0618,17.4346 97.7284,17.6012 97.5,18C 98.5323,19.6268 99.8656,20.7934 101.5,21.5C 100.807,26.3464 103.14,29.1797 108.5,30C 110.684,32.0165 112.684,34.1831 114.5,36.5C 115.298,36.0431 115.631,35.3764 115.5,34.5C 116.488,35.795 117.488,37.1283 118.5,38.5C 117.5,38.5 116.5,38.5 115.5,38.5C 115.202,42.6008 116.868,45.2674 120.5,46.5C 121.5,47.1667 122.5,47.8333 123.5,48.5C 122.5,48.5 121.5,48.5 120.5,48.5C 120.292,50.9201 120.626,53.2534 121.5,55.5C 122.689,56.4287 124.022,56.762 125.5,56.5C 125.833,56.5 126.167,56.5 126.5,56.5C 126.5,56.8333 126.5,57.1667 126.5,57.5C 124.552,58.1312 122.719,59.1312 121,60.5C 120.802,58.6183 120.302,56.9516 119.5,55.5C 119.598,53.4471 118.931,51.7804 117.5,50.5C 117.346,48.0301 116.346,46.0301 114.5,44.5C 112.879,40.603 110.712,36.9363 108,33.5C 106.871,31.8588 105.371,30.8588 103.5,30.5C 101.451,27.4503 98.7843,25.117 95.5,23.5C 91.9793,18.2316 86.9793,15.2316 80.5,14.5C 76.2431,14.269 72.4098,12.9357 69,10.5C 66.0538,12.3611 62.8871,12.8611 59.5,12C 61.1667,11.6667 62.8333,11.3333 64.5,11C 63.2625,10.7679 62.2625,10.2679 61.5,9.5 Z"/></g>
<g><path style="opacity:1" fill="#cfb655" d="M 61.5,9.5 C 62.2625,10.2679 63.2625,10.7679 64.5,11C 62.8333,11.3333 61.1667,11.6667 59.5,12C 62.8871,12.8611 66.0538,12.3611 69,10.5C 72.4098,12.9357 76.2431,14.269 80.5,14.5C 80.5,15.1667 80.5,15.8333 80.5,16.5C 73.5803,15.3722 66.5803,15.2055 59.5,16C 55.8909,16.7013 52.5575,17.8679 49.5,19.5C 44.7156,21.0579 40.3822,23.3912 36.5,26.5C 34.91,23.5451 35.2433,20.8784 37.5,18.5C 40.2402,16.4405 43.2402,14.7738 46.5,13.5C 51.287,11.423 56.287,10.0897 61.5,9.5 Z"/></g>
<g><path style="opacity:1" fill="#9b9355" d="M 74.5,7.5 C 74.5,7.16667 74.5,6.83333 74.5,6.5C 75.8333,6.5 77.1667,6.5 78.5,6.5C 89.7192,8.44151 99.7192,13.1082 108.5,20.5C 112.167,23.8333 115.833,27.1667 119.5,30.5C 120.5,30.5 121.5,30.5 122.5,30.5C 120.286,32.2394 120.286,34.2394 122.5,36.5C 121.833,36.5 121.5,36.8333 121.5,37.5C 117.241,30.2393 111.575,24.2393 104.5,19.5C 95.5844,12.9686 85.5844,8.96856 74.5,7.5 Z"/></g>
<g><path style="opacity:1" fill="#9d9a6d" d="M 110.5,14.5 C 115.167,17.1667 118.833,20.8333 121.5,25.5C 118.167,22.5 114.833,19.5 111.5,16.5C 111.167,15.8333 110.833,15.1667 110.5,14.5 Z"/></g>
<g><path style="opacity:1" fill="#f2e070" d="M 80.5,16.5 C 80.5476,17.5071 79.5476,17.8404 77.5,17.5C 77.5,21.1667 77.5,24.8333 77.5,28.5C 76.5,28.5 75.5,28.5 74.5,28.5C 74.9559,32.1106 74.2892,35.4439 72.5,38.5C 73.981,39.944 73.6477,40.6106 71.5,40.5C 70.3569,40.0919 69.3569,39.4252 68.5,38.5C 68.9422,31.8123 69.7756,25.1456 71,18.5C 68.2132,17.315 65.8798,17.9817 64,20.5C 63.2613,19.4258 62.2613,18.7591 61,18.5C 58.7211,19.3914 56.5544,20.3914 54.5,21.5C 53.3038,19.0185 51.8038,19.0185 50,21.5C 49.5357,20.9056 49.369,20.2389 49.5,19.5C 52.5575,17.8679 55.8909,16.7013 59.5,16C 66.5803,15.2055 73.5803,15.3722 80.5,16.5 Z"/></g>
<g><path style="opacity:1" fill="#383319" d="M 41.5,6.5 C 41.4677,8.61885 42.4677,9.95218 44.5,10.5C 38.8994,13.3059 33.5661,16.6392 28.5,20.5C 27.4884,19.1283 26.4884,17.795 25.5,16.5C 30.1522,12.1688 35.4855,8.83548 41.5,6.5 Z"/></g>
<g><path style="opacity:1" fill="#f4e877" d="M 71.5,40.5 C 71.5,40.8333 71.5,41.1667 71.5,41.5C 65.835,39.0031 60.5016,36.0031 55.5,32.5C 55.5198,30.857 54.8532,29.5237 53.5,28.5C 54.3742,26.2534 54.7076,23.9201 54.5,21.5C 56.5544,20.3914 58.7211,19.3914 61,18.5C 62.2613,18.7591 63.2613,19.4258 64,20.5C 65.8798,17.9817 68.2132,17.315 71,18.5C 69.7756,25.1456 68.9422,31.8123 68.5,38.5C 69.3569,39.4252 70.3569,40.0919 71.5,40.5 Z"/></g>
<g><path style="opacity:1" fill="#cbc59a" d="M 56.5,-0.5 C 64.1667,-0.5 71.8333,-0.5 79.5,-0.5C 79.5,-0.166667 79.5,0.166667 79.5,0.5C 78.5,0.5 77.5,0.5 76.5,0.5C 70.9738,0.178589 65.6405,0.511923 60.5,1.5C 60.1667,1.5 59.8333,1.5 59.5,1.5C 54.8303,1.51113 50.4969,2.51113 46.5,4.5C 44.4862,4.39151 42.8195,5.05817 41.5,6.5C 35.4855,8.83548 30.1522,12.1688 25.5,16.5C 22.5,19.1667 19.5,21.8333 16.5,24.5C 16.5,23.8333 16.5,23.1667 16.5,22.5C 27.1575,10.1715 40.4909,2.50482 56.5,-0.5 Z"/></g>
<g><path style="opacity:1" fill="#ead568" d="M 80.5,14.5 C 86.9793,15.2316 91.9793,18.2316 95.5,23.5C 93.2779,22.3124 90.9446,21.3124 88.5,20.5C 87.1048,24.4207 85.9382,28.4207 85,32.5C 81.4186,36.2048 78.7519,40.5382 77,45.5C 76.5172,44.552 76.3505,43.552 76.5,42.5C 74.7839,42.3713 73.1172,42.038 71.5,41.5C 71.5,41.1667 71.5,40.8333 71.5,40.5C 73.6477,40.6106 73.981,39.944 72.5,38.5C 74.2892,35.4439 74.9559,32.1106 74.5,28.5C 75.5,28.5 76.5,28.5 77.5,28.5C 77.5,24.8333 77.5,21.1667 77.5,17.5C 79.5476,17.8404 80.5476,17.5071 80.5,16.5C 80.5,15.8333 80.5,15.1667 80.5,14.5 Z"/></g>
<g><path style="opacity:1" fill="#a89f68" d="M 74.5,6.5 C 74.5,6.83333 74.5,7.16667 74.5,7.5C 64.2757,6.70323 54.609,8.36989 45.5,12.5C 36.4077,16.5872 28.4077,22.2539 21.5,29.5C 21.5,28.8333 21.1667,28.5 20.5,28.5C 22.8333,25.5 25.5,22.8333 28.5,20.5C 33.5661,16.6392 38.8994,13.3059 44.5,10.5C 45.7079,9.76589 47.0413,9.43255 48.5,9.5C 56.9035,6.80696 65.5702,5.80696 74.5,6.5 Z"/></g>
<g><path style="opacity:1" fill="#4d3f0f" d="M 45.5,12.5 C 46.1667,12.5 46.5,12.8333 46.5,13.5C 43.2402,14.7738 40.2402,16.4405 37.5,18.5C 31.6087,21.7191 26.6087,26.0524 22.5,31.5C 21.8333,31.8333 21.1667,32.1667 20.5,32.5C 20.5569,31.391 20.8902,30.391 21.5,29.5C 28.4077,22.2539 36.4077,16.5872 45.5,12.5 Z"/></g>
<g><path style="opacity:1" fill="#dccc7e" d="M 98.5,17.5 C 100.332,18.2485 101.999,19.2485 103.5,20.5C 115.976,29.3316 123.642,41.3316 126.5,56.5C 126.167,56.5 125.833,56.5 125.5,56.5C 124.833,53.8333 124.167,51.1667 123.5,48.5C 122.5,47.8333 121.5,47.1667 120.5,46.5C 121.097,46.2648 121.43,45.7648 121.5,45C 120.623,42.7473 119.623,40.5806 118.5,38.5C 117.488,37.1283 116.488,35.795 115.5,34.5C 111.179,29.7379 106.513,25.4046 101.5,21.5C 99.8656,20.7934 98.5323,19.6268 97.5,18C 97.7284,17.6012 98.0618,17.4346 98.5,17.5 Z"/></g>
<g><path style="opacity:1" fill="#f7e778" d="M 49.5,19.5 C 49.369,20.2389 49.5357,20.9056 50,21.5C 51.8038,19.0185 53.3038,19.0185 54.5,21.5C 54.7076,23.9201 54.3742,26.2534 53.5,28.5C 54.8532,29.5237 55.5198,30.857 55.5,32.5C 55.1667,32.5 54.8333,32.5 54.5,32.5C 52.4437,31.7839 50.277,31.1172 48,30.5C 47,31.8333 46,31.8333 45,30.5C 44.3109,31.3567 43.4776,32.0233 42.5,32.5C 40.8792,30.5772 39.0458,28.9105 37,27.5C 36.3292,28.2524 35.4959,28.5858 34.5,28.5C 34.8333,27.5 35.5,26.8333 36.5,26.5C 40.3822,23.3912 44.7156,21.0579 49.5,19.5 Z"/></g>
<g><path style="opacity:1" fill="#2a2409" d="M 111.5,16.5 C 114.833,19.5 118.167,22.5 121.5,25.5C 121.443,26.609 121.11,27.609 120.5,28.5C 119.662,28.8417 119.328,29.5084 119.5,30.5C 115.833,27.1667 112.167,23.8333 108.5,20.5C 109.512,19.1283 110.512,17.795 111.5,16.5 Z"/></g>
<g><path style="opacity:1" fill="#e2ca5e" d="M 95.5,23.5 C 95.5774,24.7498 96.244,25.5831 97.5,26C 96.376,26.2492 95.376,26.7492 94.5,27.5C 89.5521,34.9262 84.8855,42.5929 80.5,50.5C 80.9569,51.2975 81.6236,51.6309 82.5,51.5C 80.6455,52.6896 78.8121,54.0229 77,55.5C 77.556,49.8121 75.7227,45.1454 71.5,41.5C 73.1172,42.038 74.7839,42.3713 76.5,42.5C 76.3505,43.552 76.5172,44.552 77,45.5C 78.7519,40.5382 81.4186,36.2048 85,32.5C 85.9382,28.4207 87.1048,24.4207 88.5,20.5C 90.9446,21.3124 93.2779,22.3124 95.5,23.5 Z"/></g>
<g><path style="opacity:1" fill="#bba954" d="M 101.5,21.5 C 106.513,25.4046 111.179,29.7379 115.5,34.5C 115.631,35.3764 115.298,36.0431 114.5,36.5C 112.684,34.1831 110.684,32.0165 108.5,30C 103.14,29.1797 100.807,26.3464 101.5,21.5 Z"/></g>
<g><path style="opacity:1" fill="#6f6637" d="M 15.5,26.5 C 16.1667,27.1667 16.8333,27.8333 17.5,28.5C 16.1667,28.5 15.5,29.1667 15.5,30.5C 14.8333,30.1667 14.1667,29.8333 13.5,29.5C 13.427,27.9731 14.0937,26.9731 15.5,26.5 Z"/></g>
<g><path style="opacity:1" fill="#e7d56d" d="M 54.5,32.5 C 52.4727,32.3379 50.4727,32.5045 48.5,33C 46.4234,34.705 44.09,35.8717 41.5,36.5C 37.7812,35.271 34.4478,33.9377 31.5,32.5C 28.7915,35.2085 26.4581,38.2085 24.5,41.5C 24.1667,41.5 23.8333,41.5 23.5,41.5C 25.4105,36.2084 29.0772,31.8751 34.5,28.5C 35.4959,28.5858 36.3292,28.2524 37,27.5C 39.0458,28.9105 40.8792,30.5772 42.5,32.5C 43.4776,32.0233 44.3109,31.3567 45,30.5C 46,31.8333 47,31.8333 48,30.5C 50.277,31.1172 52.4437,31.7839 54.5,32.5 Z"/></g>
<g><path style="opacity:1" fill="#766e40" d="M 121.5,25.5 C 123.262,26.2623 124.262,27.5956 124.5,29.5C 123.833,29.1667 123.167,28.8333 122.5,28.5C 121.833,28.5 121.167,28.5 120.5,28.5C 121.11,27.609 121.443,26.609 121.5,25.5 Z"/></g>
<g><path style="opacity:1" fill="#dedea2" d="M 17.5,28.5 C 17.5,29.8333 16.8333,30.5 15.5,30.5C 15.5,29.1667 16.1667,28.5 17.5,28.5 Z"/></g>
<g><path style="opacity:1" fill="#dcbd53" d="M 95.5,23.5 C 98.7843,25.117 101.451,27.4503 103.5,30.5C 101.83,30.7512 100.33,31.4178 99,32.5C 96.0662,38.0328 92.3996,43.0328 88,47.5C 87.51,48.7932 87.3433,50.1266 87.5,51.5C 85.8333,51.5 84.1667,51.5 82.5,51.5C 81.6236,51.6309 80.9569,51.2975 80.5,50.5C 84.8855,42.5929 89.5521,34.9262 94.5,27.5C 95.376,26.7492 96.376,26.2492 97.5,26C 96.244,25.5831 95.5774,24.7498 95.5,23.5 Z"/></g>
<g><path style="opacity:1" fill="#d6d397" d="M 120.5,28.5 C 121.167,28.5 121.833,28.5 122.5,28.5C 122.5,29.1667 122.5,29.8333 122.5,30.5C 121.5,30.5 120.5,30.5 119.5,30.5C 119.328,29.5084 119.662,28.8417 120.5,28.5 Z"/></g>
<g><path style="opacity:1" fill="#dcd59b" d="M 16.5,22.5 C 16.5,23.1667 16.5,23.8333 16.5,24.5C 16.1667,25.1667 15.8333,25.8333 15.5,26.5C 14.0937,26.9731 13.427,27.9731 13.5,29.5C 10.3768,32.9758 8.0435,36.9758 6.5,41.5C 4.73292,43.7916 3.73292,46.4582 3.5,49.5C 2.83333,52.1667 2.16667,54.8333 1.5,57.5C 0.166667,63.5 0.166667,69.5 1.5,75.5C 2.83649,86.5086 6.16982,96.8419 11.5,106.5C 8.61089,103.744 6.44422,100.411 5,96.5C 2.6825,90.8632 0.849164,85.1965 -0.5,79.5C -0.5,71.8333 -0.5,64.1667 -0.5,56.5C 1.96993,43.5601 7.63659,32.2268 16.5,22.5 Z"/></g>
<g><path style="opacity:1" fill="#8b8959" d="M 124.5,29.5 C 125.906,29.9731 126.573,30.9731 126.5,32.5C 125.094,32.0269 124.427,31.0269 124.5,29.5 Z"/></g>
<g><path style="opacity:1" fill="#d2ae48" d="M 103.5,30.5 C 105.371,30.8588 106.871,31.8588 108,33.5C 110.712,36.9363 112.879,40.603 114.5,44.5C 112.058,44.8808 111.391,44.2141 112.5,42.5C 110.809,40.7438 108.809,40.2438 106.5,41C 102.361,43.4793 98.528,46.3126 95,49.5C 94.5065,51.1341 94.3398,52.8008 94.5,54.5C 91.9823,53.7362 89.649,52.7362 87.5,51.5C 87.3433,50.1266 87.51,48.7932 88,47.5C 92.3996,43.0328 96.0662,38.0328 99,32.5C 100.33,31.4178 101.83,30.7512 103.5,30.5 Z"/></g>
<g><path style="opacity:1" fill="#aca773" d="M 126.5,32.5 C 127.906,32.9731 128.573,33.9731 128.5,35.5C 127.094,35.0269 126.427,34.0269 126.5,32.5 Z"/></g>
<g><path style="opacity:1" fill="#d6be5a" d="M 41.5,36.5 C 40.3065,37.2719 39.3065,38.2719 38.5,39.5C 36.0462,40.2271 33.7128,41.2271 31.5,42.5C 29.283,41.6314 26.9496,41.298 24.5,41.5C 26.4581,38.2085 28.7915,35.2085 31.5,32.5C 34.4478,33.9377 37.7812,35.271 41.5,36.5 Z"/></g>
<g><path style="opacity:1" fill="#d1b95e" d="M 37.5,18.5 C 35.2433,20.8784 34.91,23.5451 36.5,26.5C 35.5,26.8333 34.8333,27.5 34.5,28.5C 29.0772,31.8751 25.4105,36.2084 23.5,41.5C 22.7729,43.9538 21.7729,46.2872 20.5,48.5C 18.5492,52.9667 17.2159,57.6334 16.5,62.5C 16.1795,67.6946 16.5128,72.6946 17.5,77.5C 17.5,77.8333 17.5,78.1667 17.5,78.5C 18.0901,82.6033 19.0901,86.6033 20.5,90.5C 19.5037,93.4819 19.337,96.4819 20,99.5C 19.3292,98.7476 18.4959,98.4142 17.5,98.5C 13.7828,92.015 11.4494,85.015 10.5,77.5C 10.0728,69.2903 10.9061,60.9569 13,52.5C 16.9431,45.4816 20.1098,38.4816 22.5,31.5C 26.6087,26.0524 31.6087,21.7191 37.5,18.5 Z"/></g>
<g><path style="opacity:1" fill="#a3913d" d="M 65.5,40.5 C 64.6618,40.8417 64.3284,41.5084 64.5,42.5C 62.5,41.5 60.5,40.5 58.5,39.5C 57.1917,38.7677 55.8584,37.9344 54.5,37C 52.6131,36.2204 50.9464,36.3871 49.5,37.5C 46.1835,39.1373 42.8501,40.8039 39.5,42.5C 39.6309,41.6236 39.2975,40.9569 38.5,40.5C 36.0447,42.2967 33.378,43.63 30.5,44.5C 30.8333,43.8333 31.1667,43.1667 31.5,42.5C 33.7128,41.2271 36.0462,40.2271 38.5,39.5C 41.7568,38.5383 44.7568,37.0383 47.5,35C 50.5,34.3333 53.5,34.3333 56.5,35C 59.5638,36.8588 62.5638,38.6921 65.5,40.5 Z"/></g>
<g><path style="opacity:1" fill="#3e2b01" d="M 58.5,39.5 C 57.5222,39.811 56.8555,40.4777 56.5,41.5C 58.3099,43.6234 59.6432,45.9567 60.5,48.5C 57.7364,47.035 54.903,45.7017 52,44.5C 49.9907,44.7579 48.1573,45.4245 46.5,46.5C 46.2169,45.7839 45.8836,44.9506 45.5,44C 48.4138,43.8666 50.7471,42.6999 52.5,40.5C 51.6602,39.265 50.6602,38.265 49.5,37.5C 50.9464,36.3871 52.6131,36.2204 54.5,37C 55.8584,37.9344 57.1917,38.7677 58.5,39.5 Z"/></g>
<g><path style="opacity:1" fill="#bfaa55" d="M 118.5,38.5 C 119.623,40.5806 120.623,42.7473 121.5,45C 121.43,45.7648 121.097,46.2648 120.5,46.5C 116.868,45.2674 115.202,42.6008 115.5,38.5C 116.5,38.5 117.5,38.5 118.5,38.5 Z"/></g>
<g><path style="opacity:1" fill="#3b3413" d="M 122.5,28.5 C 123.167,28.8333 123.833,29.1667 124.5,29.5C 124.427,31.0269 125.094,32.0269 126.5,32.5C 126.427,34.0269 127.094,35.0269 128.5,35.5C 130.592,38.0884 131.925,41.0884 132.5,44.5C 131.794,46.6716 130.794,48.6716 129.5,50.5C 127.558,45.6969 125.224,41.0303 122.5,36.5C 120.286,34.2394 120.286,32.2394 122.5,30.5C 122.5,29.8333 122.5,29.1667 122.5,28.5 Z"/></g>
<g><path style="opacity:1" fill="#64571e" d="M 103.5,20.5 C 103.5,19.8333 103.833,19.5 104.5,19.5C 111.575,24.2393 117.241,30.2393 121.5,37.5C 125.561,45.017 128.228,53.017 129.5,61.5C 128.833,65.5 128.167,69.5 127.5,73.5C 127.5,71.5 127.5,69.5 127.5,67.5C 127.813,63.9581 127.479,60.6248 126.5,57.5C 126.5,57.1667 126.5,56.8333 126.5,56.5C 123.642,41.3316 115.976,29.3316 103.5,20.5 Z"/></g>
<g><path style="opacity:1" fill="#b99d44" d="M 23.5,41.5 C 23.8333,41.5 24.1667,41.5 24.5,41.5C 26.9496,41.298 29.283,41.6314 31.5,42.5C 31.1667,43.1667 30.8333,43.8333 30.5,44.5C 29.5579,53.1127 29.2246,61.7794 29.5,70.5C 28.8643,62.5941 28.1977,55.2608 27.5,48.5C 26.71,49.6085 26.21,50.9419 26,52.5C 25.5172,51.552 25.3505,50.552 25.5,49.5C 23.7839,49.3713 22.1172,49.038 20.5,48.5C 21.7729,46.2872 22.7729,43.9538 23.5,41.5 Z"/></g>
<g><path style="opacity:1" fill="#7b6a1e" d="M 54.5,32.5 C 54.8333,32.5 55.1667,32.5 55.5,32.5C 60.5016,36.0031 65.835,39.0031 71.5,41.5C 75.7227,45.1454 77.556,49.8121 77,55.5C 78.8121,54.0229 80.6455,52.6896 82.5,51.5C 84.1667,51.5 85.8333,51.5 87.5,51.5C 89.649,52.7362 91.9823,53.7362 94.5,54.5C 97.2911,56.7349 100.291,58.7349 103.5,60.5C 104.5,60.8333 105.167,61.5 105.5,62.5C 104.391,62.4431 103.391,62.1098 102.5,61.5C 98.1941,59.0117 93.8608,56.5117 89.5,54C 86.633,53.1993 83.9664,53.3659 81.5,54.5C 79.5266,55.4867 77.5266,56.4867 75.5,57.5C 76.909,48.8998 73.5757,43.2331 65.5,40.5C 62.5638,38.6921 59.5638,36.8588 56.5,35C 53.5,34.3333 50.5,34.3333 47.5,35C 44.7568,37.0383 41.7568,38.5383 38.5,39.5C 39.3065,38.2719 40.3065,37.2719 41.5,36.5C 44.09,35.8717 46.4234,34.705 48.5,33C 50.4727,32.5045 52.4727,32.3379 54.5,32.5 Z"/></g>
<g><path style="opacity:1" fill="#564c1b" d="M 6.5,41.5 C 6.41423,42.4959 6.74756,43.3292 7.5,44C 6.83333,44.3333 6.16667,44.6667 5.5,45C 6.4158,45.2784 7.08247,45.7784 7.5,46.5C 5.95186,46.8212 5.28519,47.8212 5.5,49.5C 4.83333,49.5 4.16667,49.5 3.5,49.5C 3.73292,46.4582 4.73292,43.7916 6.5,41.5 Z"/></g>
<g><path style="opacity:1" fill="#ccc690" d="M 7.5,46.5 C 7.71481,48.1788 7.04814,49.1788 5.5,49.5C 5.28519,47.8212 5.95186,46.8212 7.5,46.5 Z"/></g>
<g><path style="opacity:1" fill="#513c02" d="M 49.5,37.5 C 50.6602,38.265 51.6602,39.265 52.5,40.5C 50.7471,42.6999 48.4138,43.8666 45.5,44C 45.8836,44.9506 46.2169,45.7839 46.5,46.5C 38.7583,50.4427 36.2583,56.776 39,65.5C 41.7901,68.465 44.9567,70.7984 48.5,72.5C 44.827,73.1794 43.827,75.1794 45.5,78.5C 41.5,76.5 37.5,74.5 33.5,72.5C 33.0133,71.5266 32.5133,70.5266 32,69.5C 31.3333,62.1667 31.3333,54.8333 32,47.5C 34.4795,45.6859 36.9795,44.0192 39.5,42.5C 42.8501,40.8039 46.1835,39.1373 49.5,37.5 Z"/></g>
<g><path style="opacity:1" fill="#322404" d="M 58.5,39.5 C 60.5,40.5 62.5,41.5 64.5,42.5C 68.8303,44.3254 71.497,47.492 72.5,52C 72.3363,55.9273 70.3363,58.4273 66.5,59.5C 66.6195,54.6855 64.6195,51.0188 60.5,48.5C 59.6432,45.9567 58.3099,43.6234 56.5,41.5C 56.8555,40.4777 57.5222,39.811 58.5,39.5 Z"/></g>
<g><path style="opacity:1" fill="#999559" d="M 132.5,44.5 C 133.537,45.9303 134.204,47.597 134.5,49.5C 133.883,49.3893 133.383,49.056 133,48.5C 132.29,49.9733 131.124,50.6399 129.5,50.5C 130.794,48.6716 131.794,46.6716 132.5,44.5 Z"/></g>
<g><path style="opacity:1" fill="#d3c17a" d="M 22.5,31.5 C 20.1098,38.4816 16.9431,45.4816 13,52.5C 10.9061,60.9569 10.0728,69.2903 10.5,77.5C 8.18444,65.3832 9.68444,53.7165 15,42.5C 17.1118,39.2729 18.9451,35.9396 20.5,32.5C 21.1667,32.1667 21.8333,31.8333 22.5,31.5 Z"/></g>
<g><path style="opacity:1" fill="#282109" d="M 25.5,16.5 C 26.4884,17.795 27.4884,19.1283 28.5,20.5C 25.5,22.8333 22.8333,25.5 20.5,28.5C 12.8588,37.452 8.19212,47.7853 6.5,59.5C 5.83333,62.1667 5.16667,64.8333 4.5,67.5C 3.79105,66.596 2.79105,66.2627 1.5,66.5C 1.5,63.5 1.5,60.5 1.5,57.5C 2.16667,54.8333 2.83333,52.1667 3.5,49.5C 4.16667,49.5 4.83333,49.5 5.5,49.5C 7.04814,49.1788 7.71481,48.1788 7.5,46.5C 7.08247,45.7784 6.4158,45.2784 5.5,45C 6.16667,44.6667 6.83333,44.3333 7.5,44C 6.74756,43.3292 6.41423,42.4959 6.5,41.5C 8.0435,36.9758 10.3768,32.9758 13.5,29.5C 14.1667,29.8333 14.8333,30.1667 15.5,30.5C 16.8333,30.5 17.5,29.8333 17.5,28.5C 16.8333,27.8333 16.1667,27.1667 15.5,26.5C 15.8333,25.8333 16.1667,25.1667 16.5,24.5C 19.5,21.8333 22.5,19.1667 25.5,16.5 Z"/></g>
<g><path style="opacity:1" fill="#c49535" d="M 114.5,44.5 C 116.346,46.0301 117.346,48.0301 117.5,50.5C 117.803,54.4678 115.803,55.8011 111.5,54.5C 108.054,55.6187 105.387,57.6187 103.5,60.5C 100.291,58.7349 97.2911,56.7349 94.5,54.5C 94.3398,52.8008 94.5065,51.1341 95,49.5C 98.528,46.3126 102.361,43.4793 106.5,41C 108.809,40.2438 110.809,40.7438 112.5,42.5C 111.391,44.2141 112.058,44.8808 114.5,44.5 Z"/></g>
<g><path style="opacity:1" fill="#a9852d" d="M 20.5,48.5 C 22.1172,49.038 23.7839,49.3713 25.5,49.5C 25.3505,50.552 25.5172,51.552 26,52.5C 26.21,50.9419 26.71,49.6085 27.5,48.5C 27.5,52.1667 27.5,55.8333 27.5,59.5C 24.9592,58.3511 22.4592,58.3511 20,59.5C 19.6667,58.8333 19.3333,58.1667 19,57.5C 18.2432,59.3146 17.4098,60.9812 16.5,62.5C 17.2159,57.6334 18.5492,52.9667 20.5,48.5 Z"/></g>
<g><path style="opacity:1" fill="#bda753" d="M 123.5,48.5 C 124.167,51.1667 124.833,53.8333 125.5,56.5C 124.022,56.762 122.689,56.4287 121.5,55.5C 120.626,53.2534 120.292,50.9201 120.5,48.5C 121.5,48.5 122.5,48.5 123.5,48.5 Z"/></g>
<g><path style="opacity:1" fill="#3a3310" d="M 134.5,49.5 C 134.5,50.1667 134.5,50.8333 134.5,51.5C 134.462,55.3625 134.795,59.1958 135.5,63C 135.241,64.7866 134.575,66.2866 133.5,67.5C 133.167,67.5 132.833,67.5 132.5,67.5C 132.167,67.5 131.833,67.5 131.5,67.5C 131.564,61.7377 130.897,56.0711 129.5,50.5C 131.124,50.6399 132.29,49.9733 133,48.5C 133.383,49.056 133.883,49.3893 134.5,49.5 Z"/></g>
<g><path style="opacity:1" fill="#a08e3a" d="M 60.5,48.5 C 64.6195,51.0188 66.6195,54.6855 66.5,59.5C 65.9002,60.8999 64.9002,61.8999 63.5,62.5C 62.6805,59.6946 62.1805,56.6946 62,53.5C 61.1841,52.1772 60.0174,51.5106 58.5,51.5C 54.4611,48.9524 50.4611,48.9524 46.5,51.5C 46.1667,51.5 45.8333,51.5 45.5,51.5C 43.9826,51.5106 42.8159,52.1772 42,53.5C 41.1901,57.3575 41.3567,61.0242 42.5,64.5C 44.8838,66.8847 47.5505,68.8847 50.5,70.5C 50.6716,71.4916 50.3382,72.1583 49.5,72.5C 49.1667,72.5 48.8333,72.5 48.5,72.5C 44.9567,70.7984 41.7901,68.465 39,65.5C 36.2583,56.776 38.7583,50.4427 46.5,46.5C 48.1573,45.4245 49.9907,44.7579 52,44.5C 54.903,45.7017 57.7364,47.035 60.5,48.5 Z"/></g>
<g><path style="opacity:1" fill="#e3d26c" d="M 58.5,51.5 C 59.1667,52.5 59.8333,53.5 60.5,54.5C 60.6621,56.5273 60.4955,58.5273 60,60.5C 57.5,58 55,55.5 52.5,53C 50.435,51.7047 48.435,51.2047 46.5,51.5C 50.4611,48.9524 54.4611,48.9524 58.5,51.5 Z"/></g>
<g><path style="opacity:1" fill="#cba745" d="M 117.5,50.5 C 118.931,51.7804 119.598,53.4471 119.5,55.5C 119.5,57.1667 119.5,58.8333 119.5,60.5C 115.003,59.0696 110.669,59.403 106.5,61.5C 107.127,62.4168 107.461,63.4168 107.5,64.5C 106.5,64.1667 105.833,63.5 105.5,62.5C 105.167,61.5 104.5,60.8333 103.5,60.5C 105.387,57.6187 108.054,55.6187 111.5,54.5C 115.803,55.8011 117.803,54.4678 117.5,50.5 Z"/></g>
<g><path style="opacity:1" fill="#e5dc8f" d="M 102.5,61.5 C 102.672,62.4916 102.338,63.1583 101.5,63.5C 96.6229,61.5439 91.9563,59.2105 87.5,56.5C 86.4324,55.5655 85.099,55.2322 83.5,55.5C 82.5084,55.6716 81.8417,55.3382 81.5,54.5C 83.9664,53.3659 86.633,53.1993 89.5,54C 93.8608,56.5117 98.1941,59.0117 102.5,61.5 Z"/></g>
<g><path style="opacity:1" fill="#d9c670" d="M 39.5,42.5 C 36.9795,44.0192 34.4795,45.6859 32,47.5C 31.3333,54.8333 31.3333,62.1667 32,69.5C 32.5133,70.5266 33.0133,71.5266 33.5,72.5C 33.6716,73.4916 33.3382,74.1583 32.5,74.5C 31.0256,73.5637 30.0256,72.2303 29.5,70.5C 29.2246,61.7794 29.5579,53.1127 30.5,44.5C 33.378,43.63 36.0447,42.2967 38.5,40.5C 39.2975,40.9569 39.6309,41.6236 39.5,42.5 Z"/></g>
<g><path style="opacity:1" fill="#baac57" d="M 65.5,40.5 C 73.5757,43.2331 76.909,48.8998 75.5,57.5C 77.5266,56.4867 79.5266,55.4867 81.5,54.5C 81.8417,55.3382 82.5084,55.6716 83.5,55.5C 77.6631,58.9175 71.9964,62.5842 66.5,66.5C 65.391,66.5569 64.391,66.8902 63.5,67.5C 62.325,67.719 61.325,67.3857 60.5,66.5C 61.8333,65.5 63.1667,64.5 64.5,63.5C 64.3764,62.8933 64.0431,62.56 63.5,62.5C 64.9002,61.8999 65.9002,60.8999 66.5,59.5C 70.3363,58.4273 72.3363,55.9273 72.5,52C 71.497,47.492 68.8303,44.3254 64.5,42.5C 64.3284,41.5084 64.6618,40.8417 65.5,40.5 Z"/></g>
<g><path style="opacity:1" fill="#150f04" d="M 87.5,56.5 C 91.9563,59.2105 96.6229,61.5439 101.5,63.5C 101.5,63.8333 101.5,64.1667 101.5,64.5C 99.9778,65.1909 98.9778,66.3576 98.5,68C 99.7822,73.3093 99.7822,78.476 98.5,83.5C 98.6655,79.4862 98.4988,75.4862 98,71.5C 94.7294,68.7843 91.2294,66.451 87.5,64.5C 86.365,63.5255 85.365,62.3588 84.5,61C 85.7111,59.8869 85.7111,58.7202 84.5,57.5C 85.325,56.6143 86.325,56.281 87.5,56.5 Z"/></g>
<g><path style="opacity:1" fill="#976c1b" d="M 27.5,59.5 C 29.8486,68.6556 26.6819,71.6556 18,68.5C 17.502,71.4816 17.3354,74.4816 17.5,77.5C 16.5128,72.6946 16.1795,67.6946 16.5,62.5C 17.4098,60.9812 18.2432,59.3146 19,57.5C 19.3333,58.1667 19.6667,58.8333 20,59.5C 22.4592,58.3511 24.9592,58.3511 27.5,59.5 Z"/></g>
<g><path style="opacity:1" fill="#281d04" d="M 83.5,55.5 C 85.099,55.2322 86.4324,55.5655 87.5,56.5C 86.325,56.281 85.325,56.6143 84.5,57.5C 85.7111,58.7202 85.7111,59.8869 84.5,61C 85.365,62.3588 86.365,63.5255 87.5,64.5C 86.1667,64.5 84.8333,64.5 83.5,64.5C 78.6857,67.4086 73.6857,70.0753 68.5,72.5C 67.7611,72.631 67.0944,72.4643 66.5,72C 66.8541,70.3745 66.8541,68.5412 66.5,66.5C 71.9964,62.5842 77.6631,58.9175 83.5,55.5 Z"/></g>
<g><path style="opacity:1" fill="#947724" d="M 45.5,51.5 C 44.3995,52.6049 43.7329,53.9382 43.5,55.5C 43.2606,57.4672 43.5939,59.3005 44.5,61C 49.2366,62.4417 53.9033,63.9417 58.5,65.5C 59.1499,65.1961 59.8165,64.8627 60.5,64.5C 61.8056,61.0202 61.8056,57.6868 60.5,54.5C 59.8333,53.5 59.1667,52.5 58.5,51.5C 60.0174,51.5106 61.1841,52.1772 62,53.5C 62.1805,56.6946 62.6805,59.6946 63.5,62.5C 64.0431,62.56 64.3764,62.8933 64.5,63.5C 63.1667,64.5 61.8333,65.5 60.5,66.5C 61.325,67.3857 62.325,67.719 63.5,67.5C 60.2984,68.8622 57.2984,70.6955 54.5,73C 52.6131,73.7796 50.9464,73.6129 49.5,72.5C 50.3382,72.1583 50.6716,71.4916 50.5,70.5C 53.5158,70.1594 56.1825,68.9927 58.5,67C 56.3841,67.2821 54.2175,67.7821 52,68.5C 48.7222,67.378 45.5555,66.0446 42.5,64.5C 41.3567,61.0242 41.1901,57.3575 42,53.5C 42.8159,52.1772 43.9826,51.5106 45.5,51.5 Z"/></g>
<g><path style="opacity:1" fill="#b38f36" d="M 43.5,55.5 C 46.1685,56.0989 48.0018,57.7656 49,60.5C 49.3333,60.1667 49.6667,59.8333 50,59.5C 52.5448,60.5218 55.0448,61.6884 57.5,63C 58.2524,63.6708 58.5858,64.5041 58.5,65.5C 53.9033,63.9417 49.2366,62.4417 44.5,61C 43.5939,59.3005 43.2606,57.4672 43.5,55.5 Z"/></g>
<g><path style="opacity:1" fill="#c5a848" d="M 45.5,51.5 C 45.8333,51.5 46.1667,51.5 46.5,51.5C 48.435,51.2047 50.435,51.7047 52.5,53C 55,55.5 57.5,58 60,60.5C 60.4955,58.5273 60.6621,56.5273 60.5,54.5C 61.8056,57.6868 61.8056,61.0202 60.5,64.5C 59.8165,64.8627 59.1499,65.1961 58.5,65.5C 58.5858,64.5041 58.2524,63.6708 57.5,63C 55.0448,61.6884 52.5448,60.5218 50,59.5C 49.6667,59.8333 49.3333,60.1667 49,60.5C 48.0018,57.7656 46.1685,56.0989 43.5,55.5C 43.7329,53.9382 44.3995,52.6049 45.5,51.5 Z"/></g>
<g><path style="opacity:1" fill="#dac060" d="M 119.5,55.5 C 120.302,56.9516 120.802,58.6183 121,60.5C 122.719,59.1312 124.552,58.1312 126.5,57.5C 127.479,60.6248 127.813,63.9581 127.5,67.5C 122.663,65.683 117.663,65.183 112.5,66C 110.845,67.4443 110.178,69.2776 110.5,71.5C 110.5,72.1667 110.167,72.5 109.5,72.5C 109.663,70.1432 109.497,67.8098 109,65.5C 108.617,64.944 108.117,64.6107 107.5,64.5C 107.461,63.4168 107.127,62.4168 106.5,61.5C 110.669,59.403 115.003,59.0696 119.5,60.5C 119.5,58.8333 119.5,57.1667 119.5,55.5 Z"/></g>
<g><path style="opacity:1" fill="#5d562a" d="M 134.5,51.5 C 135.167,53.1667 135.833,54.8333 136.5,56.5C 136.5,64.1667 136.5,71.8333 136.5,79.5C 136.167,79.5 135.833,79.5 135.5,79.5C 135.5,76.5 135.5,73.5 135.5,70.5C 134.041,70.4326 132.708,70.7659 131.5,71.5C 131.5,70.1667 131.5,68.8333 131.5,67.5C 131.833,67.5 132.167,67.5 132.5,67.5C 132.948,69.4646 133.948,69.7979 135.5,68.5C 135.043,67.7025 134.376,67.3691 133.5,67.5C 134.575,66.2866 135.241,64.7866 135.5,63C 134.795,59.1958 134.462,55.3625 134.5,51.5 Z"/></g>
<g><path style="opacity:1" fill="#070500" d="M 101.5,64.5 C 102.721,65.0283 103.887,65.695 105,66.5C 105.5,74.1594 105.666,81.8261 105.5,89.5C 104.833,89.8333 104.167,90.1667 103.5,90.5C 100.665,89.9305 98.9988,88.2639 98.5,85.5C 98.5,84.8333 98.5,84.1667 98.5,83.5C 99.7822,78.476 99.7822,73.3093 98.5,68C 98.9778,66.3576 99.9778,65.1909 101.5,64.5 Z"/></g>
<g><path style="opacity:1" fill="#69631e" d="M 6.5,59.5 C 6.5,64.8333 6.5,70.1667 6.5,75.5C 5.83333,73.5 5.16667,71.5 4.5,69.5C 4.5,68.8333 4.5,68.1667 4.5,67.5C 5.16667,64.8333 5.83333,62.1667 6.5,59.5 Z"/></g>
<g><path style="opacity:1" fill="#e1cb68" d="M 127.5,67.5 C 127.5,69.5 127.5,71.5 127.5,73.5C 127.5,74.5 127.5,75.5 127.5,76.5C 126.835,74.3021 126.168,71.9688 125.5,69.5C 124.792,72.3664 124.125,75.1997 123.5,78C 125.119,78.2355 126.119,79.0689 126.5,80.5C 126.5,81.5 126.5,82.5 126.5,83.5C 125.167,86.5 123.833,89.5 122.5,92.5C 121.577,91.6971 120.577,91.5304 119.5,92C 116.586,94.739 115.919,97.9057 117.5,101.5C 113.812,108.522 108.479,113.855 101.5,117.5C 96.3122,116.43 92.3122,118.097 89.5,122.5C 86.6727,121.632 83.6727,121.632 80.5,122.5C 86.1059,119.697 91.7726,116.864 97.5,114C 99.9962,112.669 101.996,110.836 103.5,108.5C 105.5,106.167 107.5,103.833 109.5,101.5C 116.7,92.773 120.2,82.773 120,71.5C 116.747,71.9136 113.58,71.9136 110.5,71.5C 110.178,69.2776 110.845,67.4443 112.5,66C 117.663,65.183 122.663,65.683 127.5,67.5 Z"/></g>
<g><path style="opacity:1" fill="#e5dea8" d="M 4.5,67.5 C 4.5,68.1667 4.5,68.8333 4.5,69.5C 1.83333,68.8333 1.83333,68.1667 4.5,67.5 Z"/></g>
<g><path style="opacity:1" fill="#7b6e23" d="M 84.5,66.5 C 88.173,68.0002 91.5063,70.0002 94.5,72.5C 91.3681,71.4335 88.3681,70.1001 85.5,68.5C 82.8172,69.5103 80.1505,70.5103 77.5,71.5C 79.6572,69.5879 81.9906,67.9213 84.5,66.5 Z"/></g>
<g><path style="opacity:1" fill="#d9d895" d="M 132.5,67.5 C 132.833,67.5 133.167,67.5 133.5,67.5C 134.376,67.3691 135.043,67.7025 135.5,68.5C 133.948,69.7979 132.948,69.4646 132.5,67.5 Z"/></g>
<g><path style="opacity:1" fill="#716633" d="M 1.5,57.5 C 1.5,60.5 1.5,63.5 1.5,66.5C 2.79105,66.2627 3.79105,66.596 4.5,67.5C 1.83333,68.1667 1.83333,68.8333 4.5,69.5C 3.79105,70.404 2.79105,70.7373 1.5,70.5C 1.5,72.1667 1.5,73.8333 1.5,75.5C 0.166667,69.5 0.166667,63.5 1.5,57.5 Z"/></g>
<g><path style="opacity:1" fill="#664b0c" d="M 42.5,64.5 C 45.5555,66.0446 48.7222,67.378 52,68.5C 54.2175,67.7821 56.3841,67.2821 58.5,67C 56.1825,68.9927 53.5158,70.1594 50.5,70.5C 47.5505,68.8847 44.8838,66.8847 42.5,64.5 Z"/></g>
<g><path style="opacity:1" fill="#f1e07a" d="M 94.5,72.5 C 94.6653,76.1817 94.4986,79.8484 94,83.5C 90.8904,86.1396 87.3904,87.8062 83.5,88.5C 81.4922,86.7324 79.3256,85.0657 77,83.5C 76.7435,80.443 76.2435,77.443 75.5,74.5C 76.1925,73.4822 76.8592,72.4822 77.5,71.5C 80.1505,70.5103 82.8172,69.5103 85.5,68.5C 88.3681,70.1001 91.3681,71.4335 94.5,72.5 Z"/></g>
<g><path style="opacity:1" fill="#cdae50" d="M 127.5,76.5 C 127.768,78.099 127.434,79.4324 126.5,80.5C 126.119,79.0689 125.119,78.2355 123.5,78C 124.125,75.1997 124.792,72.3664 125.5,69.5C 126.168,71.9688 126.835,74.3021 127.5,76.5 Z"/></g>
<g><path style="opacity:1" fill="#3c2a01" d="M 66.5,66.5 C 66.8541,68.5412 66.8541,70.3745 66.5,72C 67.0944,72.4643 67.7611,72.631 68.5,72.5C 67.8333,73.1667 67.1667,73.8333 66.5,74.5C 62.3627,76.4022 58.3627,78.5688 54.5,81C 52.8659,81.4935 51.1992,81.6602 49.5,81.5C 48.1283,80.4884 46.795,79.4884 45.5,78.5C 43.827,75.1794 44.827,73.1794 48.5,72.5C 48.8333,72.5 49.1667,72.5 49.5,72.5C 50.9464,73.6129 52.6131,73.7796 54.5,73C 57.2984,70.6955 60.2984,68.8622 63.5,67.5C 64.391,66.8902 65.391,66.5569 66.5,66.5 Z"/></g>
<g><path style="opacity:1" fill="#bab278" d="M 122.5,36.5 C 125.224,41.0303 127.558,45.6969 129.5,50.5C 130.897,56.0711 131.564,61.7377 131.5,67.5C 131.5,68.8333 131.5,70.1667 131.5,71.5C 130.987,80.1914 128.987,88.5248 125.5,96.5C 122.759,100.97 119.759,105.304 116.5,109.5C 115.833,109.5 115.5,109.167 115.5,108.5C 120.805,101.558 124.805,93.8914 127.5,85.5C 129.161,77.6015 129.827,69.6015 129.5,61.5C 128.228,53.017 125.561,45.017 121.5,37.5C 121.5,36.8333 121.833,36.5 122.5,36.5 Z"/></g>
<g><path style="opacity:1" fill="#403915" d="M 135.5,79.5 C 134.94,87.1801 132.607,94.1801 128.5,100.5C 128.119,98.1529 128.785,95.8195 130.5,93.5C 129.998,92.479 129.332,92.3123 128.5,93C 128.026,94.7286 127.026,95.8953 125.5,96.5C 128.987,88.5248 130.987,80.1914 131.5,71.5C 132.708,70.7659 134.041,70.4326 135.5,70.5C 135.5,73.5 135.5,76.5 135.5,79.5 Z"/></g>
<g><path style="opacity:1" fill="#82540a" d="M 29.5,70.5 C 30.0256,72.2303 31.0256,73.5637 32.5,74.5C 37.4743,77.9911 42.8076,80.9911 48.5,83.5C 50.6074,84.4682 52.9407,84.8016 55.5,84.5C 55.1583,85.3382 54.4916,85.6716 53.5,85.5C 51.0504,85.702 48.717,85.3686 46.5,84.5C 44.8561,84.2865 43.3561,84.6198 42,85.5C 41.2411,83.9371 40.0744,82.9371 38.5,82.5C 36.8613,82.1924 35.0279,82.1924 33,82.5C 27.9306,79.9617 22.764,78.6284 17.5,78.5C 17.5,78.1667 17.5,77.8333 17.5,77.5C 17.3354,74.4816 17.502,71.4816 18,68.5C 26.6819,71.6556 29.8486,68.6556 27.5,59.5C 27.5,55.8333 27.5,52.1667 27.5,48.5C 28.1977,55.2608 28.8643,62.5941 29.5,70.5 Z"/></g>
<g><path style="opacity:1" fill="#e0d775" d="M 102.5,61.5 C 103.391,62.1098 104.391,62.4431 105.5,62.5C 105.833,63.5 106.5,64.1667 107.5,64.5C 108.606,72.7852 108.773,81.1185 108,89.5C 107.004,91.6605 105.504,93.3272 103.5,94.5C 104.167,92.8333 104.833,91.1667 105.5,89.5C 105.666,81.8261 105.5,74.1594 105,66.5C 103.887,65.695 102.721,65.0283 101.5,64.5C 101.5,64.1667 101.5,63.8333 101.5,63.5C 102.338,63.1583 102.672,62.4916 102.5,61.5 Z"/></g>
<g><path style="opacity:1" fill="#bcae5c" d="M 83.5,64.5 C 81.9689,65.9245 82.3023,66.5912 84.5,66.5C 81.9906,67.9213 79.6572,69.5879 77.5,71.5C 75.6159,71.7118 74.2826,72.7118 73.5,74.5C 75.1407,77.5583 75.9741,80.8917 76,84.5C 77.1451,85.6364 78.3117,86.6364 79.5,87.5C 78.6618,87.8417 78.3284,88.5084 78.5,89.5C 76.6675,88.7515 75.0009,87.7515 73.5,86.5C 72.9159,83.5274 72.2492,80.5274 71.5,77.5C 70.8165,77.8627 70.1499,78.1961 69.5,78.5C 68.448,78.6495 67.448,78.4828 66.5,78C 70.4937,76.54 70.4937,75.3733 66.5,74.5C 67.1667,73.8333 67.8333,73.1667 68.5,72.5C 73.6857,70.0753 78.6857,67.4086 83.5,64.5 Z"/></g>
<g><path style="opacity:1" fill="#835001" d="M 17.5,78.5 C 22.764,78.6284 27.9306,79.9617 33,82.5C 35.0279,82.1924 36.8613,82.1924 38.5,82.5C 35.6918,88.9858 32.0251,94.9858 27.5,100.5C 24.3583,97.6983 22.0249,94.365 20.5,90.5C 19.0901,86.6033 18.0901,82.6033 17.5,78.5 Z"/></g>
<g><path style="opacity:1" fill="#b5a24d" d="M 33.5,72.5 C 37.5,74.5 41.5,76.5 45.5,78.5C 46.795,79.4884 48.1283,80.4884 49.5,81.5C 51.0311,82.9245 50.6977,83.5912 48.5,83.5C 42.8076,80.9911 37.4743,77.9911 32.5,74.5C 33.3382,74.1583 33.6716,73.4916 33.5,72.5 Z"/></g>
<g><path style="opacity:1" fill="#3c2f05" d="M 129.5,61.5 C 129.827,69.6015 129.161,77.6015 127.5,85.5C 126.662,85.1583 126.328,84.4916 126.5,83.5C 126.5,82.5 126.5,81.5 126.5,80.5C 127.434,79.4324 127.768,78.099 127.5,76.5C 127.5,75.5 127.5,74.5 127.5,73.5C 128.167,69.5 128.833,65.5 129.5,61.5 Z"/></g>
<g><path style="opacity:1" fill="#7c681d" d="M 77.5,71.5 C 76.8592,72.4822 76.1925,73.4822 75.5,74.5C 76.2435,77.443 76.7435,80.443 77,83.5C 79.3256,85.0657 81.4922,86.7324 83.5,88.5C 82.1667,88.1667 80.8333,87.8333 79.5,87.5C 78.3117,86.6364 77.1451,85.6364 76,84.5C 75.9741,80.8917 75.1407,77.5583 73.5,74.5C 74.2826,72.7118 75.6159,71.7118 77.5,71.5 Z"/></g>
<g><path style="opacity:1" fill="#95882f" d="M 107.5,64.5 C 108.117,64.6107 108.617,64.944 109,65.5C 109.497,67.8098 109.663,70.1432 109.5,72.5C 109.666,78.8421 109.5,85.1754 109,91.5C 105.551,95.1234 101.717,98.1234 97.5,100.5C 94.3777,101.561 91.3777,102.895 88.5,104.5C 88.5,104.167 88.5,103.833 88.5,103.5C 93.2985,100.263 98.2985,97.263 103.5,94.5C 105.504,93.3272 107.004,91.6605 108,89.5C 108.773,81.1185 108.606,72.7852 107.5,64.5 Z"/></g>
<g><path style="opacity:1" fill="#9d8b34" d="M 66.5,74.5 C 70.4937,75.3733 70.4937,76.54 66.5,78C 67.448,78.4828 68.448,78.6495 69.5,78.5C 68.7387,79.3909 67.7387,80.0576 66.5,80.5C 65.5159,83.4281 65.1826,86.4281 65.5,89.5C 64.6829,87.0314 64.1829,84.3647 64,81.5C 63.502,84.4816 63.3354,87.4816 63.5,90.5C 62.8339,87.3107 62.1672,83.9773 61.5,80.5C 59.0894,81.3611 57.0894,82.6944 55.5,84.5C 52.9407,84.8016 50.6074,84.4682 48.5,83.5C 50.6977,83.5912 51.0311,82.9245 49.5,81.5C 51.1992,81.6602 52.8659,81.4935 54.5,81C 58.3627,78.5688 62.3627,76.4022 66.5,74.5 Z"/></g>
<g><path style="opacity:1" fill="#f5ec84" d="M 110.5,71.5 C 113.58,71.9136 116.747,71.9136 120,71.5C 120.2,82.773 116.7,92.773 109.5,101.5C 107.13,101.264 105.13,100.264 103.5,98.5C 101.55,99.3721 99.5504,100.039 97.5,100.5C 101.717,98.1234 105.551,95.1234 109,91.5C 109.5,85.1754 109.666,78.8421 109.5,72.5C 110.167,72.5 110.5,72.1667 110.5,71.5 Z"/></g>
<g><path style="opacity:1" fill="#332204" d="M 73.5,86.5 C 70.5053,88.1433 69.8386,90.4767 71.5,93.5C 68.8021,93.1551 66.8021,91.8218 65.5,89.5C 65.1826,86.4281 65.5159,83.4281 66.5,80.5C 67.7387,80.0576 68.7387,79.3909 69.5,78.5C 70.1499,78.1961 70.8165,77.8627 71.5,77.5C 72.2492,80.5274 72.9159,83.5274 73.5,86.5 Z"/></g>
<g><path style="opacity:1" fill="#4c4314" d="M 6.5,80.5 C 7.94586,83.2542 8.94586,86.2542 9.5,89.5C 8.83333,89.1667 8.16667,88.8333 7.5,88.5C 7.5,87.1667 6.83333,86.5 5.5,86.5C 5.91753,85.7784 6.5842,85.2784 7.5,85C 6.61983,83.6439 6.28649,82.1439 6.5,80.5 Z"/></g>
<g><path style="opacity:1" fill="#817728" d="M 94.5,72.5 C 95.6453,76.3112 95.8119,80.3112 95,84.5C 91.9177,86.625 88.7511,88.625 85.5,90.5C 84.4777,90.1445 83.811,89.4778 83.5,88.5C 87.3904,87.8062 90.8904,86.1396 94,83.5C 94.4986,79.8484 94.6653,76.1817 94.5,72.5 Z"/></g>
<g><path style="opacity:1" fill="#130f02" d="M 98.5,85.5 C 98.9988,88.2639 100.665,89.9305 103.5,90.5C 98.5393,94.3198 93.2059,97.6532 87.5,100.5C 83.8453,101.075 80.8453,100.075 78.5,97.5C 79.2066,95.8656 80.3732,94.5323 82,93.5C 84.1176,94.7387 85.951,94.4054 87.5,92.5C 91.3359,90.4164 95.0026,88.083 98.5,85.5 Z"/></g>
<g><path style="opacity:1" fill="#bfb883" d="M 5.5,86.5 C 6.83333,86.5 7.5,87.1667 7.5,88.5C 7.10343,89.525 6.43677,89.6917 5.5,89C 4.22641,88.0228 4.22641,87.1894 5.5,86.5 Z"/></g>
<g><path style="opacity:1" fill="#453913" d="M 20.5,32.5 C 18.9451,35.9396 17.1118,39.2729 15,42.5C 9.68444,53.7165 8.18444,65.3832 10.5,77.5C 11.4494,85.015 13.7828,92.015 17.5,98.5C 21.4413,104.774 26.1079,110.44 31.5,115.5C 31.5,115.833 31.5,116.167 31.5,116.5C 18.0308,106.247 10.1974,92.5805 8,75.5C 6.82671,62.0335 9.49338,49.3669 16,37.5C 17.0491,35.3825 18.5491,33.7158 20.5,32.5 Z"/></g>
<g><path style="opacity:1" fill="#ede49d" d="M 129.5,88.5 C 131.337,88.6395 131.67,89.3061 130.5,90.5C 129.702,90.0431 129.369,89.3764 129.5,88.5 Z"/></g>
<g><path style="opacity:1" fill="#dad48c" d="M 83.5,64.5 C 84.8333,64.5 86.1667,64.5 87.5,64.5C 91.2294,66.451 94.7294,68.7843 98,71.5C 98.4988,75.4862 98.6655,79.4862 98.5,83.5C 98.5,84.1667 98.5,84.8333 98.5,85.5C 95.0026,88.083 91.3359,90.4164 87.5,92.5C 83.9966,92.8711 80.9966,91.8711 78.5,89.5C 78.3284,88.5084 78.6618,87.8417 79.5,87.5C 80.8333,87.8333 82.1667,88.1667 83.5,88.5C 83.811,89.4778 84.4777,90.1445 85.5,90.5C 88.7511,88.625 91.9177,86.625 95,84.5C 95.8119,80.3112 95.6453,76.3112 94.5,72.5C 91.5063,70.0002 88.173,68.0002 84.5,66.5C 82.3023,66.5912 81.9689,65.9245 83.5,64.5 Z"/></g>
<g><path style="opacity:1" fill="#282007" d="M 4.5,69.5 C 5.16667,71.5 5.83333,73.5 6.5,75.5C 6.5,77.1667 6.5,78.8333 6.5,80.5C 6.28649,82.1439 6.61983,83.6439 7.5,85C 6.5842,85.2784 5.91753,85.7784 5.5,86.5C 4.22641,87.1894 4.22641,88.0228 5.5,89C 6.43677,89.6917 7.10343,89.525 7.5,88.5C 8.16667,88.8333 8.83333,89.1667 9.5,89.5C 13.7954,100.797 20.4621,110.463 29.5,118.5C 27.9699,119.211 26.6366,120.211 25.5,121.5C 24.0892,119.086 22.0892,117.419 19.5,116.5C 18.6109,114.264 17.2776,112.264 15.5,110.5C 16.2427,109.818 16.9094,109.151 17.5,108.5C 16.5,105.833 15.5,105.833 14.5,108.5C 14.1667,108.5 13.8333,108.5 13.5,108.5C 13.1667,107.5 12.5,106.833 11.5,106.5C 6.16982,96.8419 2.83649,86.5086 1.5,75.5C 1.5,73.8333 1.5,72.1667 1.5,70.5C 2.79105,70.7373 3.79105,70.404 4.5,69.5 Z"/></g>
<g><path style="opacity:1" fill="#251b04" d="M 73.5,86.5 C 75.0009,87.7515 76.6675,88.7515 78.5,89.5C 80.9966,91.8711 83.9966,92.8711 87.5,92.5C 85.951,94.4054 84.1176,94.7387 82,93.5C 80.3732,94.5323 79.2066,95.8656 78.5,97.5C 75.6689,96.9213 73.3356,95.588 71.5,93.5C 69.8386,90.4767 70.5053,88.1433 73.5,86.5 Z"/></g>
<g><path style="opacity:1" fill="#8e5809" d="M 38.5,82.5 C 40.0744,82.9371 41.2411,83.9371 42,85.5C 43.3561,84.6198 44.8561,84.2865 46.5,84.5C 46.6495,85.552 46.4828,86.552 46,87.5C 40.3389,92.1615 35.0055,97.1615 30,102.5C 29.3292,101.748 28.4959,101.414 27.5,101.5C 27.5,101.167 27.5,100.833 27.5,100.5C 32.0251,94.9858 35.6918,88.9858 38.5,82.5 Z"/></g>
<g><path style="opacity:1" fill="#b8ac61" d="M 65.5,89.5 C 66.8021,91.8218 68.8021,93.1551 71.5,93.5C 73.3356,95.588 75.6689,96.9213 78.5,97.5C 80.8453,100.075 83.8453,101.075 87.5,100.5C 85.5,101.167 83.5,101.833 81.5,102.5C 74.7747,99.479 68.7747,95.479 63.5,90.5C 63.3354,87.4816 63.502,84.4816 64,81.5C 64.1829,84.3647 64.6829,87.0314 65.5,89.5 Z"/></g>
<g><path style="opacity:1" fill="#d1b65b" d="M 122.5,92.5 C 121.59,95.9922 119.924,98.9922 117.5,101.5C 115.919,97.9057 116.586,94.739 119.5,92C 120.577,91.5304 121.577,91.6971 122.5,92.5 Z"/></g>
<g><path style="opacity:1" fill="#342d12" d="M 128.5,100.5 C 121.387,114.28 110.72,124.28 96.5,130.5C 95.9744,128.77 94.9744,127.436 93.5,126.5C 102.378,122.552 110.045,116.885 116.5,109.5C 119.759,105.304 122.759,100.97 125.5,96.5C 127.026,95.8953 128.026,94.7286 128.5,93C 129.332,92.3123 129.998,92.479 130.5,93.5C 128.785,95.8195 128.119,98.1529 128.5,100.5 Z"/></g>
<g><path style="opacity:1" fill="#9f6e19" d="M 46.5,84.5 C 48.717,85.3686 51.0504,85.702 53.5,85.5C 51.9334,88.9205 50.1,92.2538 48,95.5C 44.5733,98.2564 41.9066,101.59 40,105.5C 38.871,107.141 37.371,108.141 35.5,108.5C 32.2358,106.906 29.5691,104.573 27.5,101.5C 28.4959,101.414 29.3292,101.748 30,102.5C 35.0055,97.1615 40.3389,92.1615 46,87.5C 46.4828,86.552 46.6495,85.552 46.5,84.5 Z"/></g>
<g><path style="opacity:1" fill="#f2da6e" d="M 65.5,95.5 C 70.5941,98.0774 75.5941,100.911 80.5,104C 83.146,104.497 85.8127,104.664 88.5,104.5C 91.3777,102.895 94.3777,101.561 97.5,100.5C 99.5504,100.039 101.55,99.3721 103.5,98.5C 105.13,100.264 107.13,101.264 109.5,101.5C 107.5,103.833 105.5,106.167 103.5,108.5C 101.938,108.733 100.605,109.4 99.5,110.5C 98.5979,106.767 96.0979,104.767 92,104.5C 91.0546,104.905 90.3879,105.572 90,106.5C 86.5894,105.707 83.0894,105.207 79.5,105C 77.5795,103.878 75.5795,103.044 73.5,102.5C 73.4208,103.93 73.7542,105.264 74.5,106.5C 72.2846,108.626 71.1179,111.292 71,114.5C 69.7949,115.071 68.6283,115.738 67.5,116.5C 69.0064,117.747 70.5064,117.747 72,116.5C 73.8705,118.219 76.0372,119.219 78.5,119.5C 73.7746,121.401 68.7746,121.901 63.5,121C 62.572,120.612 61.9054,119.945 61.5,119C 62.2538,114.205 62.7538,109.372 63,104.5C 64.6819,103.135 64.8486,101.635 63.5,100C 65.0368,98.8904 65.7035,97.3904 65.5,95.5 Z"/></g>
<g><path style="opacity:1" fill="#6f611b" d="M 126.5,83.5 C 126.328,84.4916 126.662,85.1583 127.5,85.5C 124.805,93.8914 120.805,101.558 115.5,108.5C 97.1527,127.725 75.1527,133.725 49.5,126.5C 42.556,124.699 36.556,121.365 31.5,116.5C 31.5,116.167 31.5,115.833 31.5,115.5C 40.3621,122.262 50.3621,126.262 61.5,127.5C 73.1601,128.875 84.4934,127.042 95.5,122C 97.7472,120.723 99.7472,119.223 101.5,117.5C 108.479,113.855 113.812,108.522 117.5,101.5C 119.924,98.9922 121.59,95.9922 122.5,92.5C 123.833,89.5 125.167,86.5 126.5,83.5 Z"/></g>
<g><path style="opacity:1" fill="#755f18" d="M 63.5,90.5 C 68.7747,95.479 74.7747,99.479 81.5,102.5C 83.6074,103.468 85.9407,103.802 88.5,103.5C 88.5,103.833 88.5,104.167 88.5,104.5C 85.8127,104.664 83.146,104.497 80.5,104C 75.5941,100.911 70.5941,98.0774 65.5,95.5C 65.5,94.8333 65.1667,94.5 64.5,94.5C 63.8333,93.1667 62.8333,92.1667 61.5,91.5C 61.5,90.8333 61.5,90.1667 61.5,89.5C 61.8076,87.076 61.4742,84.7427 60.5,82.5C 58.9246,83.4565 57.258,84.1231 55.5,84.5C 57.0894,82.6944 59.0894,81.3611 61.5,80.5C 62.1672,83.9773 62.8339,87.3107 63.5,90.5 Z"/></g>
<g><path style="opacity:1" fill="#e0da8f" d="M 105.5,89.5 C 104.833,91.1667 104.167,92.8333 103.5,94.5C 98.2985,97.263 93.2985,100.263 88.5,103.5C 85.9407,103.802 83.6074,103.468 81.5,102.5C 83.5,101.833 85.5,101.167 87.5,100.5C 93.2059,97.6532 98.5393,94.3198 103.5,90.5C 104.167,90.1667 104.833,89.8333 105.5,89.5 Z"/></g>
<g><path style="opacity:1" fill="#c69c3b" d="M 61.5,89.5 C 61.5,90.1667 61.5,90.8333 61.5,91.5C 60.6335,93.9016 59.3001,96.0683 57.5,98C 58.6902,101.249 58.3568,104.416 56.5,107.5C 54.3223,110.662 52.3223,113.995 50.5,117.5C 51.7658,118.362 53.0992,119.029 54.5,119.5C 56.0858,120.148 57.7525,120.648 59.5,121C 58.944,121.383 58.6107,121.883 58.5,122.5C 58.5654,122.938 58.3988,123.272 58,123.5C 54.9886,121.059 51.4886,119.893 47.5,120C 43.7545,117.144 40.0878,114.31 36.5,111.5C 39.4049,112.352 42.2382,112.685 45,112.5C 47.0156,108.469 49.0156,104.469 51,100.5C 51.6667,99.1667 52.3333,99.1667 53,100.5C 54.4842,94.8814 56.8175,89.5481 60,84.5C 60.1981,86.3817 60.6981,88.0484 61.5,89.5 Z"/></g>
<g><path style="opacity:1" fill="#f9d666" d="M 99.5,110.5 C 93.3672,115.397 86.3672,118.397 78.5,119.5C 76.0372,119.219 73.8705,118.219 72,116.5C 70.5064,117.747 69.0064,117.747 67.5,116.5C 68.6283,115.738 69.7949,115.071 71,114.5C 71.1179,111.292 72.2846,108.626 74.5,106.5C 73.7542,105.264 73.4208,103.93 73.5,102.5C 75.5795,103.044 77.5795,103.878 79.5,105C 83.0894,105.207 86.5894,105.707 90,106.5C 90.3879,105.572 91.0546,104.905 92,104.5C 96.0979,104.767 98.5979,106.767 99.5,110.5 Z"/></g>
<g><path style="opacity:1" fill="#bfb77d" d="M 119.5,106.5 C 122.957,106.667 123.29,107.667 120.5,109.5C 119.614,108.675 119.281,107.675 119.5,106.5 Z"/></g>
<g><path style="opacity:1" fill="#cbbf89" d="M 11.5,106.5 C 12.5,106.833 13.1667,107.5 13.5,108.5C 13.5,108.833 13.5,109.167 13.5,109.5C 12.0937,109.027 11.427,108.027 11.5,106.5 Z"/></g>
<g><path style="opacity:1" fill="#d4d293" d="M 17.5,108.5 C 16.5,108.5 15.5,108.5 14.5,108.5C 15.5,105.833 16.5,105.833 17.5,108.5 Z"/></g>
<g><path style="opacity:1" fill="#b4852a" d="M 61.5,89.5 C 60.6981,88.0484 60.1981,86.3817 60,84.5C 56.8175,89.5481 54.4842,94.8814 53,100.5C 52.3333,99.1667 51.6667,99.1667 51,100.5C 49.0156,104.469 47.0156,108.469 45,112.5C 42.2382,112.685 39.4049,112.352 36.5,111.5C 36.4431,110.391 36.1098,109.391 35.5,108.5C 37.371,108.141 38.871,107.141 40,105.5C 41.9066,101.59 44.5733,98.2564 48,95.5C 50.1,92.2538 51.9334,88.9205 53.5,85.5C 54.4916,85.6716 55.1583,85.3382 55.5,84.5C 57.258,84.1231 58.9246,83.4565 60.5,82.5C 61.4742,84.7427 61.8076,87.076 61.5,89.5 Z"/></g>
<g><path style="opacity:1" fill="#dbb64f" d="M 61.5,91.5 C 62.8333,92.1667 63.8333,93.1667 64.5,94.5C 62.3127,96.7777 60.6461,98.9444 59.5,101C 59.9574,101.414 60.2907,101.914 60.5,102.5C 59.1044,106.84 58.6044,111.173 59,115.5C 58.6667,114.833 58.3333,114.167 58,113.5C 57.6667,114.833 57.3333,116.167 57,117.5C 55.692,116.849 54.8586,117.515 54.5,119.5C 53.0992,119.029 51.7658,118.362 50.5,117.5C 52.3223,113.995 54.3223,110.662 56.5,107.5C 58.3568,104.416 58.6902,101.249 57.5,98C 59.3001,96.0683 60.6335,93.9016 61.5,91.5 Z"/></g>
<g><path style="opacity:1" fill="#a29965" d="M 13.5,108.5 C 13.8333,108.5 14.1667,108.5 14.5,108.5C 15.5,108.5 16.5,108.5 17.5,108.5C 16.9094,109.151 16.2427,109.818 15.5,110.5C 17.2776,112.264 18.6109,114.264 19.5,116.5C 16.7805,114.781 14.7805,112.447 13.5,109.5C 13.5,109.167 13.5,108.833 13.5,108.5 Z"/></g>
<g><path style="opacity:1" fill="#b9b072" d="M 20.5,28.5 C 21.1667,28.5 21.5,28.8333 21.5,29.5C 20.8902,30.391 20.5569,31.391 20.5,32.5C 18.5491,33.7158 17.0491,35.3825 16,37.5C 9.49338,49.3669 6.82671,62.0335 8,75.5C 10.1974,92.5805 18.0308,106.247 31.5,116.5C 36.556,121.365 42.556,124.699 49.5,126.5C 49.1583,127.338 48.4916,127.672 47.5,127.5C 44.8333,126.5 42.1667,125.5 39.5,124.5C 38.4863,123.326 37.153,122.66 35.5,122.5C 33.8525,120.674 31.8525,119.34 29.5,118.5C 20.4621,110.463 13.7954,100.797 9.5,89.5C 8.94586,86.2542 7.94586,83.2542 6.5,80.5C 6.5,78.8333 6.5,77.1667 6.5,75.5C 6.5,70.1667 6.5,64.8333 6.5,59.5C 8.19212,47.7853 12.8588,37.452 20.5,28.5 Z"/></g>
<g><path style="opacity:1" fill="#c9af54" d="M 20.5,90.5 C 22.0249,94.365 24.3583,97.6983 27.5,100.5C 27.5,100.833 27.5,101.167 27.5,101.5C 29.5691,104.573 32.2358,106.906 35.5,108.5C 36.1098,109.391 36.4431,110.391 36.5,111.5C 40.0878,114.31 43.7545,117.144 47.5,120C 51.4886,119.893 54.9886,121.059 58,123.5C 58.3988,123.272 58.5654,122.938 58.5,122.5C 61.5466,124.1 64.88,125.1 68.5,125.5C 72.9162,125.225 76.9162,124.225 80.5,122.5C 83.6727,121.632 86.6727,121.632 89.5,122.5C 80.4796,125.838 71.1463,127.505 61.5,127.5C 50.3621,126.262 40.3621,122.262 31.5,115.5C 26.1079,110.44 21.4413,104.774 17.5,98.5C 18.4959,98.4142 19.3292,98.7476 20,99.5C 19.337,96.4819 19.5037,93.4819 20.5,90.5 Z"/></g>
<g><path style="opacity:1" fill="#9d9563" d="M 19.5,116.5 C 22.0892,117.419 24.0892,119.086 25.5,121.5C 22.9108,120.581 20.9108,118.914 19.5,116.5 Z"/></g>
<g><path style="opacity:1" fill="#dbc25c" d="M 64.5,94.5 C 65.1667,94.5 65.5,94.8333 65.5,95.5C 65.7035,97.3904 65.0368,98.8904 63.5,100C 64.8486,101.635 64.6819,103.135 63,104.5C 62.7538,109.372 62.2538,114.205 61.5,119C 61.9054,119.945 62.572,120.612 63.5,121C 68.7746,121.901 73.7746,121.401 78.5,119.5C 86.3672,118.397 93.3672,115.397 99.5,110.5C 100.605,109.4 101.938,108.733 103.5,108.5C 101.996,110.836 99.9962,112.669 97.5,114C 91.7726,116.864 86.1059,119.697 80.5,122.5C 76.9162,124.225 72.9162,125.225 68.5,125.5C 64.88,125.1 61.5466,124.1 58.5,122.5C 58.6107,121.883 58.944,121.383 59.5,121C 57.7525,120.648 56.0858,120.148 54.5,119.5C 54.8586,117.515 55.692,116.849 57,117.5C 57.3333,116.167 57.6667,114.833 58,113.5C 58.3333,114.167 58.6667,114.833 59,115.5C 58.6044,111.173 59.1044,106.84 60.5,102.5C 60.2907,101.914 59.9574,101.414 59.5,101C 60.6461,98.9444 62.3127,96.7777 64.5,94.5 Z"/></g>
<g><path style="opacity:1" fill="#2b240f" d="M 29.5,118.5 C 31.8525,119.34 33.8525,120.674 35.5,122.5C 34.7326,123.172 34.0659,124.005 33.5,125C 34.9561,125.423 35.4561,126.256 35,127.5C 34.3292,126.748 33.4959,126.414 32.5,126.5C 32.3893,125.883 32.056,125.383 31.5,125C 33.0074,124.163 33.5074,122.996 33,121.5C 31.984,122.634 31.3173,122.301 31,120.5C 27.5451,123.878 27.0451,123.211 29.5,118.5 Z"/></g>
<g><path style="opacity:1" fill="#ccb566" d="M 101.5,117.5 C 99.7472,119.223 97.7472,120.723 95.5,122C 84.4934,127.042 73.1601,128.875 61.5,127.5C 71.1463,127.505 80.4796,125.838 89.5,122.5C 92.3122,118.097 96.3122,116.43 101.5,117.5 Z"/></g>
<g><path style="opacity:1" fill="#595237" d="M 29.5,118.5 C 27.0451,123.211 27.5451,123.878 31,120.5C 31.3173,122.301 31.984,122.634 33,121.5C 33.5074,122.996 33.0074,124.163 31.5,125C 32.056,125.383 32.3893,125.883 32.5,126.5C 29.6298,125.567 27.2964,123.9 25.5,121.5C 26.6366,120.211 27.9699,119.211 29.5,118.5 Z"/></g>
<g><path style="opacity:1" fill="#514d2e" d="M 35.5,122.5 C 37.153,122.66 38.4863,123.326 39.5,124.5C 38.8141,125.848 37.8141,127.015 36.5,128C 38.3668,128.711 39.8668,128.211 41,126.5C 40.4742,128.227 40.6409,129.894 41.5,131.5C 38.0078,130.59 35.0078,128.924 32.5,126.5C 33.4959,126.414 34.3292,126.748 35,127.5C 35.4561,126.256 34.9561,125.423 33.5,125C 34.0659,124.005 34.7326,123.172 35.5,122.5 Z"/></g>
<g><path style="opacity:1" fill="#39351e" d="M 39.5,124.5 C 42.1667,125.5 44.8333,126.5 47.5,127.5C 48.8333,128.167 50.1667,128.833 51.5,129.5C 50.8141,130.848 49.8141,132.015 48.5,133C 50.8878,133.865 52.3878,133.032 53,130.5C 54.5095,131.09 56.0095,131.756 57.5,132.5C 56.8075,133.518 56.1408,134.518 55.5,135.5C 50.5436,135.095 45.8769,133.762 41.5,131.5C 40.6409,129.894 40.4742,128.227 41,126.5C 39.8668,128.211 38.3668,128.711 36.5,128C 37.8141,127.015 38.8141,125.848 39.5,124.5 Z"/></g>
<g><path style="opacity:1" fill="#998e52" d="M 115.5,108.5 C 115.5,109.167 115.833,109.5 116.5,109.5C 110.045,116.885 102.378,122.552 93.5,126.5C 91.6943,127.024 90.0276,127.691 88.5,128.5C 83.3971,129.588 78.3971,130.588 73.5,131.5C 69.8333,131.5 66.1667,131.5 62.5,131.5C 59.0542,130.313 55.3875,129.646 51.5,129.5C 50.1667,128.833 48.8333,128.167 47.5,127.5C 48.4916,127.672 49.1583,127.338 49.5,126.5C 75.1527,133.725 97.1527,127.725 115.5,108.5 Z"/></g>
<g><path style="opacity:1" fill="#3d3824" d="M 88.5,128.5 C 89.6256,129.858 89.6256,131.192 88.5,132.5C 88.2635,131.753 87.9302,130.92 87.5,130C 86.8333,129.333 86.1667,129.333 85.5,130C 86.3366,131.011 86.67,132.178 86.5,133.5C 83.7473,133.004 81.0806,133.004 78.5,133.5C 77.2209,132.032 75.5542,131.365 73.5,131.5C 78.3971,130.588 83.3971,129.588 88.5,128.5 Z"/></g>
<g><path style="opacity:1" fill="#292415" d="M 93.5,126.5 C 94.9744,127.436 95.9744,128.77 96.5,130.5C 91.0873,133.268 85.4206,135.268 79.5,136.5C 71.8333,136.5 64.1667,136.5 56.5,136.5C 56.5,135.833 56.1667,135.5 55.5,135.5C 56.1408,134.518 56.8075,133.518 57.5,132.5C 56.0095,131.756 54.5095,131.09 53,130.5C 52.3878,133.032 50.8878,133.865 48.5,133C 49.8141,132.015 50.8141,130.848 51.5,129.5C 55.3875,129.646 59.0542,130.313 62.5,131.5C 61.7611,131.369 61.0944,131.536 60.5,132C 61.7659,132.309 62.9326,132.809 64,133.5C 66.7191,132.556 69.5525,132.223 72.5,132.5C 72.5,133.5 72.5,134.5 72.5,135.5C 75.0821,135.975 77.0821,135.308 78.5,133.5C 81.0806,133.004 83.7473,133.004 86.5,133.5C 86.67,132.178 86.3366,131.011 85.5,130C 86.1667,129.333 86.8333,129.333 87.5,130C 87.9302,130.92 88.2635,131.753 88.5,132.5C 89.6256,131.192 89.6256,129.858 88.5,128.5C 90.0276,127.691 91.6943,127.024 93.5,126.5 Z"/></g>
<g><path style="opacity:1" fill="#050300" d="M 62.5,131.5 C 66.1667,131.5 69.8333,131.5 73.5,131.5C 75.5542,131.365 77.2209,132.032 78.5,133.5C 77.0821,135.308 75.0821,135.975 72.5,135.5C 72.5,134.5 72.5,133.5 72.5,132.5C 69.5525,132.223 66.7191,132.556 64,133.5C 62.9326,132.809 61.7659,132.309 60.5,132C 61.0944,131.536 61.7611,131.369 62.5,131.5 Z"/></g>
</svg>
