<?xml version="1.0" encoding="UTF-8"?>
<!DOCTYPE svg PUBLIC "-//W3C//DTD SVG 1.1//EN" "http://www.w3.org/Graphics/SVG/1.1/DTD/svg11.dtd">
<svg xmlns="http://www.w3.org/2000/svg" version="1.1" width="218px" height="218px" style="shape-rendering:geometricPrecision; text-rendering:geometricPrecision; image-rendering:optimizeQuality; fill-rule:evenodd; clip-rule:evenodd" xmlns:xlink="http://www.w3.org/1999/xlink">
<g><path style="opacity:0.963" fill="#40a7f2" d="M 93.5,-0.5 C 103.5,-0.5 113.5,-0.5 123.5,-0.5C 149.816,3.65659 171.816,15.6566 189.5,35.5C 187.595,35.9055 185.595,36.2389 183.5,36.5C 184.766,37.7236 185.933,39.0569 187,40.5C 187.333,40.1667 187.667,39.8333 188,39.5C 189.009,41.0249 189.509,42.6916 189.5,44.5C 193.639,45.8717 195.639,48.8717 195.5,53.5C 188.069,42.9016 179.069,33.735 168.5,26C 164.778,23.8104 161.111,21.6437 157.5,19.5C 155.017,16.2586 151.684,14.5919 147.5,14.5C 143.109,13.3195 138.776,11.9861 134.5,10.5C 132.485,9.07619 130.152,8.40953 127.5,8.5C 124.794,8.4249 122.127,8.09157 119.5,7.5C 112.011,6.34434 104.345,6.17767 96.5,7C 91.8534,7.53843 87.52,8.7051 83.5,10.5C 81.901,10.2322 80.5676,10.5655 79.5,11.5C 76.0836,11.5275 73.0836,12.5275 70.5,14.5C 67.3815,15.3173 64.3815,16.3173 61.5,17.5C 61.1949,15.0807 61.1949,12.414 61.5,9.5C 71.8662,4.91359 82.5329,1.58025 93.5,-0.5 Z"/></g>
<g><path style="opacity:1" fill="#215d8b" d="M 119.5,7.5 C 107.366,7.03963 95.366,8.03963 83.5,10.5C 87.52,8.7051 91.8534,7.53843 96.5,7C 104.345,6.17767 112.011,6.34434 119.5,7.5 Z"/></g>
<g><path style="opacity:1" fill="#0f1926" d="M 119.5,7.5 C 122.127,8.09157 124.794,8.4249 127.5,8.5C 129.515,9.92381 131.848,10.5905 134.5,10.5C 138.776,11.9861 143.109,13.3195 147.5,14.5C 150.614,16.5422 153.948,18.2089 157.5,19.5C 161.111,21.6437 164.778,23.8104 168.5,26C 179.069,33.735 188.069,42.9016 195.5,53.5C 217.003,90.979 216.669,128.312 194.5,165.5C 184.047,179.285 171.381,190.618 156.5,199.5C 154.287,200.773 151.954,201.773 149.5,202.5C 145.605,203.462 141.939,204.796 138.5,206.5C 136.139,206.674 133.806,207.007 131.5,207.5C 129.738,207.643 128.071,207.309 126.5,206.5C 119.436,209.049 112.436,209.049 105.5,206.5C 101.069,208.525 96.402,209.025 91.5,208C 84.3571,205.42 77.0238,203.587 69.5,202.5C 67.8984,200.926 65.8984,200.259 63.5,200.5C 59.4054,198.458 55.4054,196.124 51.5,193.5C 46.5389,189.874 41.8722,185.874 37.5,181.5C 35.1667,178.5 32.5,175.833 29.5,173.5C 20.1949,160.488 13.5282,146.154 9.5,130.5C 7.91142,120.908 7.24475,111.242 7.5,101.5C 9.53649,74.2627 20.5365,51.4293 40.5,33C 47.2118,27.3242 54.2118,22.1576 61.5,17.5C 64.3815,16.3173 67.3815,15.3173 70.5,14.5C 73.855,14.3104 76.855,13.3104 79.5,11.5C 80.5676,10.5655 81.901,10.2322 83.5,10.5C 95.366,8.03963 107.366,7.03963 119.5,7.5 Z"/></g>
<g><path style="opacity:1" fill="#1d5988" d="M 127.5,8.5 C 130.152,8.40953 132.485,9.07619 134.5,10.5C 131.848,10.5905 129.515,9.92381 127.5,8.5 Z"/></g>
<g><path style="opacity:1" fill="#245984" d="M 79.5,11.5 C 76.855,13.3104 73.855,14.3104 70.5,14.5C 73.0836,12.5275 76.0836,11.5275 79.5,11.5 Z"/></g>
<g><path style="opacity:1" fill="#2e72a5" d="M 147.5,14.5 C 151.684,14.5919 155.017,16.2586 157.5,19.5C 153.948,18.2089 150.614,16.5422 147.5,14.5 Z"/></g>
<g><path style="opacity:0.961" fill="#4bacf4" d="M 61.5,9.5 C 61.1949,12.414 61.1949,15.0807 61.5,17.5C 54.2118,22.1576 47.2118,27.3242 40.5,33C 20.5365,51.4293 9.53649,74.2627 7.5,101.5C 6.51045,107.31 6.17711,113.31 6.5,119.5C 4.16667,119.5 1.83333,119.5 -0.5,119.5C -0.5,110.833 -0.5,102.167 -0.5,93.5C 6.5253,55.4563 27.192,27.4563 61.5,9.5 Z"/></g>
<g><path style="opacity:1" fill="#48505a" d="M 63.5,69.5 C 56.0869,68.8721 49.0869,69.5388 42.5,71.5C 41.596,70.791 41.2627,69.791 41.5,68.5C 49.0191,68.175 56.3524,68.5084 63.5,69.5 Z"/></g>
<g><path style="opacity:1" fill="#f9f9fa" d="M 63.5,69.5 C 69.2711,87.9902 74.7711,106.657 80,125.5C 83.6105,116.003 87.6105,106.669 92,97.5C 94.1057,94.8823 96.6057,92.8823 99.5,91.5C 103.434,90.6403 107.434,90.307 111.5,90.5C 116.034,92.1938 119.534,95.1938 122,99.5C 126.181,109.193 130.348,118.859 134.5,128.5C 132.608,137.061 129.942,145.394 126.5,153.5C 124.955,154.452 123.288,154.785 121.5,154.5C 116.815,145.122 112.648,135.456 109,125.5C 108.385,123.884 107.385,122.551 106,121.5C 101.618,131.307 97.6176,141.307 94,151.5C 88.0572,157.328 80.8905,159.161 72.5,157C 68.6331,154.11 66.1331,150.277 65,145.5C 57.8042,120.711 50.3042,96.0444 42.5,71.5C 49.0869,69.5388 56.0869,68.8721 63.5,69.5 Z"/></g>
<g><path style="opacity:1" fill="#71baef" d="M 166.5,101.5 C 159.167,101.5 151.833,101.5 144.5,101.5C 144.5,100.5 144.5,99.5 144.5,98.5C 147.27,88.9195 150.27,79.4195 153.5,70C 161.159,69.5003 168.826,69.3336 176.5,69.5C 173.181,80.1465 169.848,90.8132 166.5,101.5 Z"/></g>
<g><path style="opacity:1" fill="#7b8187" d="M 111.5,90.5 C 107.434,90.307 103.434,90.6403 99.5,91.5C 99.6107,90.8826 99.944,90.3826 100.5,90C 104.358,89.1901 108.024,89.3567 111.5,90.5 Z"/></g>
<g><path style="opacity:0.972" fill="#4dabf2" d="M 189.5,35.5 C 204.72,51.9418 214.054,71.2751 217.5,93.5C 217.5,103.5 217.5,113.5 217.5,123.5C 215.528,135.052 211.861,146.052 206.5,156.5C 204.5,156.5 202.5,156.5 200.5,156.5C 199.74,160.361 197.74,163.361 194.5,165.5C 216.669,128.312 217.003,90.979 195.5,53.5C 195.639,48.8717 193.639,45.8717 189.5,44.5C 189.509,42.6916 189.009,41.0249 188,39.5C 187.667,39.8333 187.333,40.1667 187,40.5C 185.933,39.0569 184.766,37.7236 183.5,36.5C 185.595,36.2389 187.595,35.9055 189.5,35.5 Z"/></g>
<g><path style="opacity:1" fill="#3d6d92" d="M 144.5,98.5 C 144.5,99.5 144.5,100.5 144.5,101.5C 151.833,101.5 159.167,101.5 166.5,101.5C 159.018,102.492 151.352,102.825 143.5,102.5C 143.232,100.901 143.566,99.5676 144.5,98.5 Z"/></g>
<g><path style="opacity:1" fill="#71b9ec" d="M 121.5,154.5 C 123.288,154.785 124.955,154.452 126.5,153.5C 129.942,145.394 132.608,137.061 134.5,128.5C 136.943,123.5 138.61,118.166 139.5,112.5C 147.167,112.5 154.833,112.5 162.5,112.5C 158.841,125.977 154.675,139.31 150,152.5C 148.442,154.359 146.609,155.859 144.5,157C 137.833,157.667 131.167,157.667 124.5,157C 123.429,156.148 122.429,155.315 121.5,154.5 Z"/></g>
<g><path style="opacity:1" fill="#4b8fc3" d="M 7.5,101.5 C 7.24475,111.242 7.91142,120.908 9.5,130.5C 7.43177,127.237 6.43177,123.57 6.5,119.5C 6.17711,113.31 6.51045,107.31 7.5,101.5 Z"/></g>
<g><path style="opacity:0.993" fill="#57afef" d="M -0.5,119.5 C 1.83333,119.5 4.16667,119.5 6.5,119.5C 6.43177,123.57 7.43177,127.237 9.5,130.5C 13.5282,146.154 20.1949,160.488 29.5,173.5C 27.8516,172.223 26.0183,171.223 24,170.5C 23.51,169.207 23.3433,167.873 23.5,166.5C 20.8333,166.5 18.1667,166.5 15.5,166.5C 7.37984,153.132 2.04651,138.799 -0.5,123.5C -0.5,122.167 -0.5,120.833 -0.5,119.5 Z"/></g>
<g><path style="opacity:0.925" fill="#3c98ea" d="M 206.5,156.5 C 199.146,173.19 187.812,186.523 172.5,196.5C 171.183,196.179 169.849,195.846 168.5,195.5C 164.429,196.882 160.429,198.215 156.5,199.5C 171.381,190.618 184.047,179.285 194.5,165.5C 197.74,163.361 199.74,160.361 200.5,156.5C 202.5,156.5 204.5,156.5 206.5,156.5 Z"/></g>
<g><path style="opacity:0.893" fill="#3f9ef0" d="M 15.5,166.5 C 18.1667,166.5 20.8333,166.5 23.5,166.5C 23.3433,167.873 23.51,169.207 24,170.5C 26.0183,171.223 27.8516,172.223 29.5,173.5C 32.5,175.833 35.1667,178.5 37.5,181.5C 34.525,181.287 31.8584,180.287 29.5,178.5C 28.2613,178.942 27.2613,179.609 26.5,180.5C 22.3621,176.235 18.6954,171.569 15.5,166.5 Z"/></g>
<g><path style="opacity:0.877" fill="#3192ef" d="M 37.5,181.5 C 41.8722,185.874 46.5389,189.874 51.5,193.5C 47.85,192.325 44.1834,192.325 40.5,193.5C 35.226,189.895 30.5593,185.562 26.5,180.5C 27.2613,179.609 28.2613,178.942 29.5,178.5C 31.8584,180.287 34.525,181.287 37.5,181.5 Z"/></g>
<g><path style="opacity:1" fill="#133f71" d="M 63.5,200.5 C 65.8984,200.259 67.8984,200.926 69.5,202.5C 67.1016,202.741 65.1016,202.074 63.5,200.5 Z"/></g>
<g><path style="opacity:1" fill="#2282eb" d="M 51.5,193.5 C 55.4054,196.124 59.4054,198.458 63.5,200.5C 65.1016,202.074 67.1016,202.741 69.5,202.5C 78.7644,207.297 88.7644,209.963 99.5,210.5C 103.634,211.485 107.968,211.818 112.5,211.5C 111.374,212.858 111.374,214.192 112.5,215.5C 120.749,214.03 129.082,213.363 137.5,213.5C 132.911,215.147 128.244,216.48 123.5,217.5C 113.5,217.5 103.5,217.5 93.5,217.5C 90.1129,216.712 86.7796,215.712 83.5,214.5C 87.8461,214.666 92.1794,214.499 96.5,214C 84.5044,211.547 72.5044,209.047 60.5,206.5C 52.8015,203.657 46.1348,199.324 40.5,193.5C 44.1834,192.325 47.85,192.325 51.5,193.5 Z"/></g>
<g><path style="opacity:1" fill="#1b5492" d="M 149.5,202.5 C 146.374,204.99 142.708,206.323 138.5,206.5C 141.939,204.796 145.605,203.462 149.5,202.5 Z"/></g>
<g><path style="opacity:0.91" fill="#2788ed" d="M 172.5,196.5 C 165.275,202.951 156.942,207.617 147.5,210.5C 147.611,209.883 147.944,209.383 148.5,209C 147.234,208.691 146.067,208.191 145,207.5C 140.287,208.768 135.454,209.435 130.5,209.5C 130.5,209.167 130.5,208.833 130.5,208.5C 130.833,208.5 131.167,208.5 131.5,208.5C 134.152,208.59 136.485,207.924 138.5,206.5C 142.708,206.323 146.374,204.99 149.5,202.5C 151.954,201.773 154.287,200.773 156.5,199.5C 160.429,198.215 164.429,196.882 168.5,195.5C 169.849,195.846 171.183,196.179 172.5,196.5 Z"/></g>
<g><path style="opacity:1" fill="#164a87" d="M 138.5,206.5 C 136.485,207.924 134.152,208.59 131.5,208.5C 131.5,208.167 131.5,207.833 131.5,207.5C 133.806,207.007 136.139,206.674 138.5,206.5 Z"/></g>
<g><path style="opacity:1" fill="#0e2037" d="M 69.5,202.5 C 77.0238,203.587 84.3571,205.42 91.5,208C 96.402,209.025 101.069,208.525 105.5,206.5C 112.436,209.049 119.436,209.049 126.5,206.5C 128.071,207.309 129.738,207.643 131.5,207.5C 131.5,207.833 131.5,208.167 131.5,208.5C 131.167,208.5 130.833,208.5 130.5,208.5C 120.248,210.179 109.914,210.846 99.5,210.5C 88.7644,209.963 78.7644,207.297 69.5,202.5 Z"/></g>
<g><path style="opacity:0.971" fill="#419cf4" d="M 60.5,206.5 C 72.5044,209.047 84.5044,211.547 96.5,214C 92.1794,214.499 87.8461,214.666 83.5,214.5C 75.1972,213.4 67.5305,210.734 60.5,206.5 Z"/></g>
<g><path style="opacity:1" fill="#2562ab" d="M 130.5,208.5 C 130.5,208.833 130.5,209.167 130.5,209.5C 124.631,210.954 118.631,211.621 112.5,211.5C 107.968,211.818 103.634,211.485 99.5,210.5C 109.914,210.846 120.248,210.179 130.5,208.5 Z"/></g>
<g><path style="opacity:1" fill="#197cee" d="M 147.5,210.5 C 144.495,212.277 141.162,213.277 137.5,213.5C 129.082,213.363 120.749,214.03 112.5,215.5C 111.374,214.192 111.374,212.858 112.5,211.5C 118.631,211.621 124.631,210.954 130.5,209.5C 135.454,209.435 140.287,208.768 145,207.5C 146.067,208.191 147.234,208.691 148.5,209C 147.944,209.383 147.611,209.883 147.5,210.5 Z"/></g>
</svg>
