<?xml version="1.0" encoding="UTF-8"?>
<!DOCTYPE svg PUBLIC "-//W3C//DTD SVG 1.1//EN" "http://www.w3.org/Graphics/SVG/1.1/DTD/svg11.dtd">
<svg xmlns="http://www.w3.org/2000/svg" version="1.1" width="64px" height="64px" style="shape-rendering:geometricPrecision; text-rendering:geometricPrecision; image-rendering:optimizeQuality; fill-rule:evenodd; clip-rule:evenodd" xmlns:xlink="http://www.w3.org/1999/xlink">
<g><path style="opacity:0.984" fill="#352b3e" d="M 22.5,-0.5 C 28.5,-0.5 34.5,-0.5 40.5,-0.5C 44.1493,1.07949 47.6493,3.07949 51,5.5C 51.7175,4.54943 52.5509,4.38277 53.5,5C 55,6.5 56.5,8 58,9.5C 57.3829,11.0948 57.7163,12.4281 59,13.5C 59.3333,13.1667 59.6667,12.8333 60,12.5C 61.1889,14.2331 62.3556,15.8998 63.5,17.5C 63.5,18.5 63.5,19.5 63.5,20.5C 62.1667,21.1667 62.1667,21.8333 63.5,22.5C 63.5,28.5 63.5,34.5 63.5,40.5C 62.1667,41.1667 62.1667,41.8333 63.5,42.5C 63.5,43.5 63.5,44.5 63.5,45.5C 62.407,47.3492 61.0737,49.0158 59.5,50.5C 59.1667,49.1667 58.8333,49.1667 58.5,50.5C 57.1667,50.8333 57.1667,51.1667 58.5,51.5C 57.5,54.5 55.5,56.5 52.5,57.5C 52.1667,56.1667 51.8333,56.1667 51.5,57.5C 50.8333,57.5 50.5,57.8333 50.5,58.5C 49.5084,58.3284 48.8417,58.6618 48.5,59.5C 47.8333,59.5 47.5,59.8333 47.5,60.5C 46.5084,60.3284 45.8417,60.6618 45.5,61.5C 43.2143,61.595 41.2143,62.2616 39.5,63.5C 34.1667,63.5 28.8333,63.5 23.5,63.5C 21.7857,62.2616 19.7857,61.595 17.5,61.5C 14.8217,58.826 11.8217,57.326 8.5,57C 5.25464,53.267 2.25464,49.4337 -0.5,45.5C -0.5,44.5 -0.5,43.5 -0.5,42.5C 0.833333,41.8333 0.833333,41.1667 -0.5,40.5C -0.5,34.5 -0.5,28.5 -0.5,22.5C 0.833333,21.8333 0.833333,21.1667 -0.5,20.5C -0.5,19.5 -0.5,18.5 -0.5,17.5C 0.644443,15.8998 1.81111,14.2331 3,12.5C 3.9138,13.6537 4.74714,13.487 5.5,12C 4.54943,11.2825 4.38277,10.4491 5,9.5C 6.5,8 8,6.5 9.5,5C 10.4491,4.38277 11.2825,4.54943 12,5.5C 15.3507,3.07949 18.8507,1.07949 22.5,-0.5 Z"/></g>
<g><path style="opacity:1" fill="#e3e2e5" d="M 23.5,2.5 C 41.3876,-0.147031 53.5543,6.85297 60,23.5C 63.1496,41.3747 56.3163,53.5413 39.5,60C 21.6253,63.1496 9.45866,56.3163 3,39.5C -0.0230431,21.535 6.81029,9.20168 23.5,2.5 Z"/></g>
<g><path style="opacity:1" fill="#645f6f" d="M 12.5,15.5 C 4.62516,26.121 4.62516,36.7877 12.5,47.5C 12.4827,49.0281 11.816,49.5281 10.5,49C 6.11656,43.6419 4.11656,37.4752 4.5,30.5C 4.03198,24.0682 6.03198,18.5682 10.5,14C 11.816,13.4719 12.4827,13.9719 12.5,15.5 Z"/></g>
<g><path style="opacity:1" fill="#5e5969" d="M 50.5,47.5 C 58.4504,36.7654 58.4504,26.0988 50.5,15.5C 50.5173,13.9719 51.184,13.4719 52.5,14C 58.6625,22.28 60.1625,31.4466 57,41.5C 55.8773,44.2487 54.3773,46.7487 52.5,49C 51.184,49.5281 50.5173,49.0281 50.5,47.5 Z"/></g>
<g><path style="opacity:1" fill="#f3f2f0" d="M 47.5,12.5 C 48.5,13.5 49.5,14.5 50.5,15.5C 58.4504,26.0988 58.4504,36.7654 50.5,47.5C 49.5,48.5 48.5,49.5 47.5,50.5C 36.7654,58.4504 26.0988,58.4504 15.5,50.5C 14.5,49.5 13.5,48.5 12.5,47.5C 4.62516,36.7877 4.62516,26.121 12.5,15.5C 13.5,14.5 14.5,13.5 15.5,12.5C 26.1377,4.55589 36.8043,4.55589 47.5,12.5 Z"/></g>
<g><path style="opacity:1" fill="#f3a650" d="M 24.5,24.5 C 25.922,25.925 27.5887,26.925 29.5,27.5C 29.5,28.5 29.5,29.5 29.5,30.5C 31.1561,32.0603 33.1561,33.0603 35.5,33.5C 33.5,33.5 31.5,33.5 29.5,33.5C 29.5,35.5 29.5,37.5 29.5,39.5C 31.8568,39.6633 34.1902,39.4966 36.5,39C 37.756,38.5831 38.4226,37.7498 38.5,36.5C 40.4113,37.075 42.078,38.075 43.5,39.5C 41.4157,42.7058 38.4157,44.0391 34.5,43.5C 33.8333,50.1667 33.1667,50.1667 32.5,43.5C 31.5,43.5 30.5,43.5 29.5,43.5C 29.5,45.1667 29.5,46.8333 29.5,48.5C 28.5,48.5 27.5,48.5 26.5,48.5C 26.5,46.8333 26.5,45.1667 26.5,43.5C 24.5,43.5 22.5,43.5 20.5,43.5C 20.5,42.1667 20.5,40.8333 20.5,39.5C 21.8333,39.5 23.1667,39.5 24.5,39.5C 24.5,34.5 24.5,29.5 24.5,24.5 Z"/></g>
<g><path style="opacity:1" fill="#f5f3f1" d="M 35.5,33.5 C 36.8333,34.1667 37.8333,35.1667 38.5,36.5C 37.8333,35.1667 36.8333,34.1667 35.5,33.5 Z"/></g>
<g><path style="opacity:1" fill="#f5eee9" d="M 29.5,30.5 C 29.5,29.5 29.5,28.5 29.5,27.5C 29.5,26.1667 29.5,24.8333 29.5,23.5C 34.4786,22.65 36.4786,24.4834 35.5,29C 33.6547,30.128 31.6547,30.628 29.5,30.5 Z"/></g>
<g><path style="opacity:1" fill="#ef9547" d="M 43.5,39.5 C 42.078,38.075 40.4113,37.075 38.5,36.5C 37.8333,35.1667 36.8333,34.1667 35.5,33.5C 33.1561,33.0603 31.1561,32.0603 29.5,30.5C 31.6547,30.628 33.6547,30.128 35.5,29C 36.4786,24.4834 34.4786,22.65 29.5,23.5C 29.5,24.8333 29.5,26.1667 29.5,27.5C 27.5887,26.925 25.922,25.925 24.5,24.5C 23.2921,23.7659 21.9587,23.4326 20.5,23.5C 20.5,22.5 20.5,21.5 20.5,20.5C 22.5,20.5 24.5,20.5 26.5,20.5C 26.5,18.8333 26.5,17.1667 26.5,15.5C 27.5,15.5 28.5,15.5 29.5,15.5C 30.1667,22.1667 30.8333,22.1667 31.5,15.5C 32.8333,15.5 34.1667,15.5 35.5,15.5C 35.2148,17.288 35.5481,18.9547 36.5,20.5C 42.6531,21.9512 43.9864,25.2845 40.5,30.5C 44.3506,32.6843 45.3506,35.6843 43.5,39.5 Z"/></g>
<g><path style="opacity:1" fill="#5f5a6a" d="M 47.5,12.5 C 36.8043,4.55589 26.1377,4.55589 15.5,12.5C 13.0728,11.7211 13.0728,10.5545 15.5,9C 26.2039,3.00433 36.8706,3.00433 47.5,9C 49.9272,10.5545 49.9272,11.7211 47.5,12.5 Z"/></g>
<g><path style="opacity:0.012" fill="#352641" d="M 58.5,50.5 C 58.8333,50.5 59.1667,50.5 59.5,50.5C 59.3147,51.1701 58.9813,51.1701 58.5,50.5 Z"/></g>
<g><path style="opacity:1" fill="#645f6f" d="M 15.5,50.5 C 26.0988,58.4504 36.7654,58.4504 47.5,50.5C 49.0281,50.5173 49.5281,51.184 49,52.5C 38.153,59.8102 26.9864,60.3102 15.5,54C 13.0728,52.4455 13.0728,51.2789 15.5,50.5 Z"/></g>
<g><path style="opacity:0.012" fill="#352641" d="M 51.5,57.5 C 51.8333,57.5 52.1667,57.5 52.5,57.5C 52.3147,58.1701 51.9813,58.1701 51.5,57.5 Z"/></g>
<g><path style="opacity:0.012" fill="#352641" d="M 50.5,58.5 C 50.8333,58.5 51.1667,58.5 51.5,58.5C 51.3147,59.1701 50.9813,59.1701 50.5,58.5 Z"/></g>
<g><path style="opacity:0.008" fill="#2f2231" d="M 48.5,60.5 C 48.5,60.1667 48.5,59.8333 48.5,59.5C 49.1667,59.5 49.8333,59.5 50.5,59.5C 50.1583,60.3382 49.4916,60.6716 48.5,60.5 Z"/></g>
<g><path style="opacity:0.012" fill="#352641" d="M 47.5,60.5 C 47.8333,60.5 48.1667,60.5 48.5,60.5C 48.3147,61.1701 47.9813,61.1701 47.5,60.5 Z"/></g>
<g><path style="opacity:0.012" fill="#251b2e" d="M 17.5,61.5 C 17.5,61.8333 17.5,62.1667 17.5,62.5C 14.8333,62.1667 14.8333,61.8333 17.5,61.5 Z"/></g>
<g><path style="opacity:0.004" fill="#16111d" d="M 45.5,62.5 C 45.5,62.1667 45.5,61.8333 45.5,61.5C 46.1667,61.5 46.8333,61.5 47.5,61.5C 47.1583,62.3382 46.4916,62.6716 45.5,62.5 Z"/></g>
<g><path style="opacity:0.012" fill="#251b2e" d="M 17.5,63.5 C 17.5,63.1667 17.5,62.8333 17.5,62.5C 18.4916,62.3284 19.1583,62.6618 19.5,63.5C 18.8333,63.5 18.1667,63.5 17.5,63.5 Z"/></g>
<g><path style="opacity:0.004" fill="#16111d" d="M 43.5,63.5 C 43.8417,62.6618 44.5084,62.3284 45.5,62.5C 45.5,62.8333 45.5,63.1667 45.5,63.5C 44.8333,63.5 44.1667,63.5 43.5,63.5 Z"/></g>
</svg>
