<?xml version="1.0" encoding="UTF-8"?>
<!DOCTYPE svg PUBLIC "-//W3C//DTD SVG 1.1//EN" "http://www.w3.org/Graphics/SVG/1.1/DTD/svg11.dtd">
<svg xmlns="http://www.w3.org/2000/svg" version="1.1" width="83px" height="83px" style="shape-rendering:geometricPrecision; text-rendering:geometricPrecision; image-rendering:optimizeQuality; fill-rule:evenodd; clip-rule:evenodd" xmlns:xlink="http://www.w3.org/1999/xlink">
<g><path style="opacity:1" fill="#f0fcfc" d="M 31.5,-0.5 C 37.8333,-0.5 44.1667,-0.5 50.5,-0.5C 51.5,0.166667 52.5,0.833333 53.5,1.5C 51.2336,3.21727 48.7336,4.55061 46,5.5C 44.0073,3.59395 44.5073,2.42728 47.5,2C 42.5765,0.481194 37.5765,0.314527 32.5,1.5C 32.6495,2.55198 32.4828,3.55198 32,4.5C 29.2567,7.65444 26.7567,10.9878 24.5,14.5C 24.8333,14.8333 25.1667,15.1667 25.5,15.5C 26.6223,14.3698 27.9557,13.7031 29.5,13.5C 28.3995,14.6049 27.7329,15.9382 27.5,17.5C 26.1667,18.5 24.8333,19.5 23.5,20.5C 23.5,19.1667 23.5,17.8333 23.5,16.5C 16.453,15.4666 15.953,13.4666 22,10.5C 22.49,9.20677 22.6567,7.87344 22.5,6.5C 20.0706,6.88438 17.7373,7.55104 15.5,8.5C 15.9528,7.54163 16.6195,6.7083 17.5,6C 22.1373,3.51112 26.804,1.34445 31.5,-0.5 Z"/></g>
<g><path style="opacity:1" fill="#fafbfd" d="M 53.5,1.5 C 62.1466,3.50092 68.8132,8.16758 73.5,15.5C 72.3734,14.8783 71.3734,14.045 70.5,13C 69.365,12.2506 68.365,12.4173 67.5,13.5C 67.358,15.6937 67.6914,18.0271 68.5,20.5C 66.64,21.0715 64.9733,21.0715 63.5,20.5C 60.5888,19.1761 59.0888,16.8428 59,13.5C 56.9307,12.7362 54.764,12.2362 52.5,12C 51.6634,10.9887 51.33,9.82207 51.5,8.5C 48.2139,7.79287 44.8806,7.45954 41.5,7.5C 41.8747,10.3965 41.3747,13.0632 40,15.5C 40.5679,5.42266 37.7346,4.08933 31.5,11.5C 31.1667,12.5 30.5,13.1667 29.5,13.5C 27.9557,13.7031 26.6223,14.3698 25.5,15.5C 25.1667,15.1667 24.8333,14.8333 24.5,14.5C 26.7567,10.9878 29.2567,7.65444 32,4.5C 32.4828,3.55198 32.6495,2.55198 32.5,1.5C 37.5765,0.314527 42.5765,0.481194 47.5,2C 44.5073,2.42728 44.0073,3.59395 46,5.5C 48.7336,4.55061 51.2336,3.21727 53.5,1.5 Z"/></g>
<g><path style="opacity:1" fill="#e3fcfa" d="M 63.5,20.5 C 63.5,21.1667 63.5,21.8333 63.5,22.5C 58.53,18.6755 53.53,14.8422 48.5,11C 46.9751,9.99136 45.3084,9.49136 43.5,9.5C 43.5,10.8333 43.5,12.1667 43.5,13.5C 42.596,14.209 42.2627,15.209 42.5,16.5C 41.469,18.9608 40.8023,21.6275 40.5,24.5C 38.8828,26.1209 37.7162,28.1209 37,30.5C 36.8297,26.5066 36.9963,22.5066 37.5,18.5C 37.5751,15.7938 37.9084,13.1272 38.5,10.5C 37.5,10.5 36.5,10.5 35.5,10.5C 34.1667,10.8333 32.8333,11.1667 31.5,11.5C 37.7346,4.08933 40.5679,5.42266 40,15.5C 41.3747,13.0632 41.8747,10.3965 41.5,7.5C 44.8806,7.45954 48.2139,7.79287 51.5,8.5C 51.33,9.82207 51.6634,10.9887 52.5,12C 54.764,12.2362 56.9307,12.7362 59,13.5C 59.0888,16.8428 60.5888,19.1761 63.5,20.5 Z"/></g>
<g><path style="opacity:1" fill="#fcfafd" d="M 23.5,20.5 C 23.1667,20.5 22.8333,20.5 22.5,20.5C 18.0479,20.8432 15.7146,23.3432 15.5,28C 16.2551,39.1498 16.7551,50.3164 17,61.5C 19.6217,62.953 22.1217,64.6197 24.5,66.5C 25.7387,67.212 26.2387,68.212 26,69.5C 24.3333,70.8333 22.6667,70.8333 21,69.5C 20.3076,70.0253 19.8076,70.6919 19.5,71.5C 22.2787,72.3888 24.9454,73.5555 27.5,75C 20.8988,76.2724 20.8988,77.6057 27.5,79C 26.9056,79.4643 26.2389,79.631 25.5,79.5C 17.4432,76.6435 11.1099,71.6435 6.5,64.5C 7.20193,62.4425 7.53527,60.4425 7.5,58.5C 8.95712,63.0945 11.6238,66.7612 15.5,69.5C 16.737,69.4435 17.737,68.9435 18.5,68C 17.0953,66.7308 15.4286,66.2308 13.5,66.5C 13.6922,61.8701 13.0255,57.3701 11.5,53C 14.1667,46 14.1667,39 11.5,32C 12.1173,26.3521 13.7839,21.1854 16.5,16.5C 14.9547,15.5481 13.288,15.2148 11.5,15.5C 11.9613,12.6967 13.2947,10.3634 15.5,8.5C 17.7373,7.55104 20.0706,6.88438 22.5,6.5C 22.6567,7.87344 22.49,9.20677 22,10.5C 15.953,13.4666 16.453,15.4666 23.5,16.5C 23.5,17.8333 23.5,19.1667 23.5,20.5 Z"/></g>
<g><path style="opacity:1" fill="#befaee" d="M 35.5,10.5 C 32.8739,12.8235 30.2072,15.1568 27.5,17.5C 27.7329,15.9382 28.3995,14.6049 29.5,13.5C 30.5,13.1667 31.1667,12.5 31.5,11.5C 32.8333,11.1667 34.1667,10.8333 35.5,10.5 Z"/></g>
<g><path style="opacity:0.985" fill="#fcfdfd" d="M 73.5,15.5 C 74.4584,15.9528 75.2917,16.6195 76,17.5C 78.4889,22.1373 80.6555,26.804 82.5,31.5C 82.5,37.8333 82.5,44.1667 82.5,50.5C 79.253,61.4148 72.9197,70.0815 63.5,76.5C 62.713,74.8958 61.3797,74.2291 59.5,74.5C 59.7845,72.5853 59.4511,70.9187 58.5,69.5C 59.6194,66.4983 61.786,64.4983 65,63.5C 65.4186,64.6721 66.0853,65.6721 67,66.5C 67.2271,55.7545 66.7271,44.7545 65.5,33.5C 65.5,31.8333 65.5,30.1667 65.5,28.5C 63.7078,27.6909 61.7078,27.1909 59.5,27C 60.756,26.5831 61.4226,25.7498 61.5,24.5C 62.5,24.1667 63.1667,23.5 63.5,22.5C 63.5,21.8333 63.5,21.1667 63.5,20.5C 64.9733,21.0715 66.64,21.0715 68.5,20.5C 67.6914,18.0271 67.358,15.6937 67.5,13.5C 68.365,12.4173 69.365,12.2506 70.5,13C 71.3734,14.045 72.3734,14.8783 73.5,15.5 Z"/></g>
<g><path style="opacity:1" fill="#48c09c" d="M 35.5,10.5 C 36.5,10.5 37.5,10.5 38.5,10.5C 37.9084,13.1272 37.5751,15.7938 37.5,18.5C 36.8333,20.1667 36.1667,21.8333 35.5,23.5C 36.1091,19.9947 34.9424,17.328 32,15.5C 31.3076,16.0253 30.8076,16.6919 30.5,17.5C 32.4286,20.2249 32.9286,23.2249 32,26.5C 30.2817,24.1029 29.1151,21.4362 28.5,18.5C 27.059,19.8651 25.7256,21.3651 24.5,23C 23.2068,23.49 21.8734,23.6567 20.5,23.5C 21.1667,22.5 21.8333,21.5 22.5,20.5C 22.8333,20.5 23.1667,20.5 23.5,20.5C 24.8333,19.5 26.1667,18.5 27.5,17.5C 30.2072,15.1568 32.8739,12.8235 35.5,10.5 Z"/></g>
<g><path style="opacity:1" fill="#33ca9c" d="M 60.5,24.5 C 57.9906,25.9213 55.6572,27.5879 53.5,29.5C 52.8333,29.5 52.1667,29.5 51.5,29.5C 47.2409,27.8715 44.0742,29.2048 42,33.5C 42.0299,27.8516 42.1966,22.1849 42.5,16.5C 42.2627,15.209 42.596,14.209 43.5,13.5C 44.1499,13.1961 44.8165,12.8627 45.5,12.5C 46.8924,13.6053 48.059,14.9386 49,16.5C 49.7175,15.5494 50.5509,15.3828 51.5,16C 53.607,17.2635 54.607,19.0968 54.5,21.5C 56.5,21.5 58.5,21.5 60.5,21.5C 60.5,22.5 60.5,23.5 60.5,24.5 Z"/></g>
<g><path style="opacity:1" fill="#4cbe9b" d="M 63.5,22.5 C 63.1667,23.5 62.5,24.1667 61.5,24.5C 61.1667,24.5 60.8333,24.5 60.5,24.5C 60.5,23.5 60.5,22.5 60.5,21.5C 58.5,21.5 56.5,21.5 54.5,21.5C 54.607,19.0968 53.607,17.2635 51.5,16C 50.5509,15.3828 49.7175,15.5494 49,16.5C 48.059,14.9386 46.8924,13.6053 45.5,12.5C 44.8165,12.8627 44.1499,13.1961 43.5,13.5C 43.5,12.1667 43.5,10.8333 43.5,9.5C 45.3084,9.49136 46.9751,9.99136 48.5,11C 53.53,14.8422 58.53,18.6755 63.5,22.5 Z"/></g>
<g><path style="opacity:0.993" fill="#f8fdfd" d="M 15.5,8.5 C 13.2947,10.3634 11.9613,12.6967 11.5,15.5C 13.288,15.2148 14.9547,15.5481 16.5,16.5C 13.7839,21.1854 12.1173,26.3521 11.5,32C 14.1667,39 14.1667,46 11.5,53C 13.0255,57.3701 13.6922,61.8701 13.5,66.5C 15.4286,66.2308 17.0953,66.7308 18.5,68C 17.737,68.9435 16.737,69.4435 15.5,69.5C 11.6238,66.7612 8.95712,63.0945 7.5,58.5C 7.53527,60.4425 7.20193,62.4425 6.5,64.5C 3.62382,60.081 1.29049,55.4143 -0.5,50.5C -0.5,44.1667 -0.5,37.8333 -0.5,31.5C 2.23715,22.8712 6.90382,15.3712 13.5,9C 14.0944,8.53566 14.7611,8.36899 15.5,8.5 Z"/></g>
<g><path style="opacity:1" fill="#cbf9f1" d="M 60.5,24.5 C 60.8333,24.5 61.1667,24.5 61.5,24.5C 61.4226,25.7498 60.756,26.5831 59.5,27C 61.7078,27.1909 63.7078,27.6909 65.5,28.5C 65.1667,28.5 64.8333,28.5 64.5,28.5C 61.5466,28.1496 59.2133,29.1496 57.5,31.5C 57.4142,30.5041 57.7476,29.6708 58.5,29C 56.8034,28.6155 55.1368,28.7822 53.5,29.5C 55.6572,27.5879 57.9906,25.9213 60.5,24.5 Z"/></g>
<g><path style="opacity:1" fill="#6dbaa4" d="M 40.5,26.5 C 39.7878,29.9251 39.7878,33.2585 40.5,36.5C 39.8333,36.5 39.5,36.8333 39.5,37.5C 38.8333,37.5 38.1667,37.5 37.5,37.5C 38.0552,33.6032 39.0552,29.9365 40.5,26.5 Z"/></g>
<g><path style="opacity:1" fill="#4cbb9b" d="M 34.5,27.5 C 31.8984,37.1584 31.8984,46.825 34.5,56.5C 33.6851,55.5707 32.8518,54.5707 32,53.5C 30.1641,45.5105 30.1641,37.5105 32,29.5C 32.7083,28.6195 33.5416,27.9528 34.5,27.5 Z"/></g>
<g><path style="opacity:1" fill="#47be9b" d="M 42.5,16.5 C 42.1966,22.1849 42.0299,27.8516 42,33.5C 44.0742,29.2048 47.2409,27.8715 51.5,29.5C 47.9709,32.0145 44.3043,34.3478 40.5,36.5C 39.7878,33.2585 39.7878,29.9251 40.5,26.5C 40.5,25.8333 40.5,25.1667 40.5,24.5C 40.8023,21.6275 41.469,18.9608 42.5,16.5 Z"/></g>
<g><path style="opacity:1" fill="#32ca9c" d="M 35.5,23.5 C 35.5674,24.9587 35.2341,26.2921 34.5,27.5C 33.5416,27.9528 32.7083,28.6195 32,29.5C 30.1641,37.5105 30.1641,45.5105 32,53.5C 32.8518,54.5707 33.6851,55.5707 34.5,56.5C 35.5,59.8333 36.5,63.1667 37.5,66.5C 37.5,68.1667 37.5,69.8333 37.5,71.5C 34.6385,70.7529 32.6385,69.0862 31.5,66.5C 31.5,65.1667 31.5,63.8333 31.5,62.5C 27.1194,63.4662 24.1194,61.9662 22.5,58C 23.5372,55.4867 22.5372,53.9867 19.5,53.5C 19.5,43.5 19.5,33.5 19.5,23.5C 19.8333,23.5 20.1667,23.5 20.5,23.5C 21.8734,23.6567 23.2068,23.49 24.5,23C 25.7256,21.3651 27.059,19.8651 28.5,18.5C 29.1151,21.4362 30.2817,24.1029 32,26.5C 32.9286,23.2249 32.4286,20.2249 30.5,17.5C 30.8076,16.6919 31.3076,16.0253 32,15.5C 34.9424,17.328 36.1091,19.9947 35.5,23.5 Z"/></g>
<g><path style="opacity:1" fill="#dffefb" d="M 22.5,20.5 C 21.8333,21.5 21.1667,22.5 20.5,23.5C 20.1667,23.5 19.8333,23.5 19.5,23.5C 18.3403,35.3262 18.1737,47.3262 19,59.5C 19.3826,60.056 19.8826,60.3893 20.5,60.5C 22.0905,62.6326 24.0905,64.2993 26.5,65.5C 26.5,65.8333 26.5,66.1667 26.5,66.5C 25.8333,66.5 25.1667,66.5 24.5,66.5C 22.1217,64.6197 19.6217,62.953 17,61.5C 16.7551,50.3164 16.2551,39.1498 15.5,28C 15.7146,23.3432 18.0479,20.8432 22.5,20.5 Z"/></g>
<g><path style="opacity:1" fill="#51b197" d="M 19.5,23.5 C 19.5,33.5 19.5,43.5 19.5,53.5C 20.2186,55.7638 20.552,58.0971 20.5,60.5C 19.8826,60.3893 19.3826,60.056 19,59.5C 18.1737,47.3262 18.3403,35.3262 19.5,23.5 Z"/></g>
<g><path style="opacity:1" fill="#34ca9d" d="M 54.5,50.5 C 53.209,50.7373 52.209,50.404 51.5,49.5C 51.5,48.5 51.5,47.5 51.5,46.5C 48.763,45.969 46.0964,45.1356 43.5,44C 42.6634,42.9887 42.33,41.8221 42.5,40.5C 46.2118,40.123 49.2118,38.4563 51.5,35.5C 55.5409,33.8093 59.5409,32.1426 63.5,30.5C 63.5,38.1667 63.5,45.8333 63.5,53.5C 60.6819,52.0303 57.6819,51.0303 54.5,50.5 Z"/></g>
<g><path style="opacity:1" fill="#4bbf9c" d="M 64.5,28.5 C 64.5,37.1667 64.5,45.8333 64.5,54.5C 63.209,54.2627 62.209,54.596 61.5,55.5C 58.5999,54.5568 56.2666,52.8901 54.5,50.5C 57.6819,51.0303 60.6819,52.0303 63.5,53.5C 63.5,45.8333 63.5,38.1667 63.5,30.5C 59.5409,32.1426 55.5409,33.8093 51.5,35.5C 53.1184,33.684 55.1184,32.3507 57.5,31.5C 59.2133,29.1496 61.5466,28.1496 64.5,28.5 Z"/></g>
<g><path style="opacity:1" fill="#70c5ad" d="M 64.5,28.5 C 64.8333,28.5 65.1667,28.5 65.5,28.5C 65.5,30.1667 65.5,31.8333 65.5,33.5C 65.5,41.1667 65.5,48.8333 65.5,56.5C 64.5,56.5 63.5,56.5 62.5,56.5C 62.5,55.8333 62.1667,55.5 61.5,55.5C 62.209,54.596 63.209,54.2627 64.5,54.5C 64.5,45.8333 64.5,37.1667 64.5,28.5 Z"/></g>
<g><path style="opacity:1" fill="#defcf8" d="M 57.5,31.5 C 55.1184,32.3507 53.1184,33.684 51.5,35.5C 48.3516,36.5758 45.3516,37.9091 42.5,39.5C 42.1788,37.9519 41.1788,37.2852 39.5,37.5C 39.5,36.8333 39.8333,36.5 40.5,36.5C 44.3043,34.3478 47.9709,32.0145 51.5,29.5C 52.1667,29.5 52.8333,29.5 53.5,29.5C 55.1368,28.7822 56.8034,28.6155 58.5,29C 57.7476,29.6708 57.4142,30.5041 57.5,31.5 Z"/></g>
<g><path style="opacity:1" fill="#5abc9f" d="M 51.5,35.5 C 49.2118,38.4563 46.2118,40.123 42.5,40.5C 42.5,40.1667 42.5,39.8333 42.5,39.5C 45.3516,37.9091 48.3516,36.5758 51.5,35.5 Z"/></g>
<g><path style="opacity:1" fill="#f2fafb" d="M 37.5,37.5 C 38.1667,37.5 38.8333,37.5 39.5,37.5C 41.1788,37.2852 42.1788,37.9519 42.5,39.5C 42.5,39.8333 42.5,40.1667 42.5,40.5C 41.391,40.5569 40.391,40.8902 39.5,41.5C 38.9033,41.7352 38.5699,42.2352 38.5,43C 39.2718,44.221 40.2718,45.221 41.5,46C 38.0071,46.1647 36.1738,47.998 36,51.5C 34.0726,44.9202 34.0726,38.2535 36,31.5C 36.1909,33.7078 36.6909,35.7078 37.5,37.5 Z"/></g>
<g><path style="opacity:1" fill="#58c0a1" d="M 42.5,40.5 C 42.33,41.8221 42.6634,42.9887 43.5,44C 46.0964,45.1356 48.763,45.969 51.5,46.5C 51.5,47.5 51.5,48.5 51.5,49.5C 46.7369,47.7986 42.7369,45.1319 39.5,41.5C 40.391,40.8902 41.391,40.5569 42.5,40.5 Z"/></g>
<g><path style="opacity:1" fill="#54b79b" d="M 43.5,50.5 C 48.1932,52.8466 52.8599,55.1799 57.5,57.5C 58.6935,58.2719 59.6935,59.2719 60.5,60.5C 58.4458,60.6347 56.7791,59.968 55.5,58.5C 52.1367,56.3148 48.47,54.8148 44.5,54C 43.6634,52.9887 43.33,51.8221 43.5,50.5 Z"/></g>
<g><path style="opacity:1" fill="#d7fbf6" d="M 37.5,18.5 C 36.9963,22.5066 36.8297,26.5066 37,30.5C 37.7162,28.1209 38.8828,26.1209 40.5,24.5C 40.5,25.1667 40.5,25.8333 40.5,26.5C 39.0552,29.9365 38.0552,33.6032 37.5,37.5C 36.6909,35.7078 36.1909,33.7078 36,31.5C 34.0726,38.2535 34.0726,44.9202 36,51.5C 36.1738,47.998 38.0071,46.1647 41.5,46C 40.2718,45.221 39.2718,44.221 38.5,43C 38.5699,42.2352 38.9033,41.7352 39.5,41.5C 42.7369,45.1319 46.7369,47.7986 51.5,49.5C 52.209,50.404 53.209,50.7373 54.5,50.5C 56.2666,52.8901 58.5999,54.5568 61.5,55.5C 62.1667,55.5 62.5,55.8333 62.5,56.5C 60.5853,56.2155 58.9187,56.5489 57.5,57.5C 52.8599,55.1799 48.1932,52.8466 43.5,50.5C 43.1667,50.5 42.8333,50.5 42.5,50.5C 41.713,48.8958 40.3797,48.2291 38.5,48.5C 38.8333,51.1667 39.1667,53.8333 39.5,56.5C 38.5416,56.0472 37.7083,55.3805 37,54.5C 36.8297,58.4934 36.9963,62.4934 37.5,66.5C 36.5,63.1667 35.5,59.8333 34.5,56.5C 31.8984,46.825 31.8984,37.1584 34.5,27.5C 35.2341,26.2921 35.5674,24.9587 35.5,23.5C 36.1667,21.8333 36.8333,20.1667 37.5,18.5 Z"/></g>
<g><path style="opacity:1" fill="#4ab898" d="M 42.5,50.5 C 40.6921,51.9179 40.0254,53.9179 40.5,56.5C 40.1667,56.5 39.8333,56.5 39.5,56.5C 39.1667,53.8333 38.8333,51.1667 38.5,48.5C 40.3797,48.2291 41.713,48.8958 42.5,50.5 Z"/></g>
<g><path style="opacity:1" fill="#e4fcf8" d="M 65.5,33.5 C 66.7271,44.7545 67.2271,55.7545 67,66.5C 66.0853,65.6721 65.4186,64.6721 65,63.5C 61.786,64.4983 59.6194,66.4983 58.5,69.5C 55.3019,72.1248 51.6352,73.7915 47.5,74.5C 50.6881,72.0681 53.6881,69.4015 56.5,66.5C 58.9324,65.2498 61.2657,63.7498 63.5,62C 62.7562,60.9614 61.7562,60.4614 60.5,60.5C 59.6935,59.2719 58.6935,58.2719 57.5,57.5C 58.9187,56.5489 60.5853,56.2155 62.5,56.5C 63.5,56.5 64.5,56.5 65.5,56.5C 65.5,48.8333 65.5,41.1667 65.5,33.5 Z"/></g>
<g><path style="opacity:1" fill="#2fcb9c" d="M 42.5,50.5 C 42.8333,50.5 43.1667,50.5 43.5,50.5C 43.33,51.8221 43.6634,52.9887 44.5,54C 48.47,54.8148 52.1367,56.3148 55.5,58.5C 55.2089,59.6491 54.3756,60.3158 53,60.5C 49.6894,58.8805 46.6894,59.2139 44,61.5C 42.6412,60.635 41.4745,59.635 40.5,58.5C 40.5,57.8333 40.5,57.1667 40.5,56.5C 40.0254,53.9179 40.6921,51.9179 42.5,50.5 Z"/></g>
<g><path style="opacity:1" fill="#effcfc" d="M 39.5,56.5 C 40.069,60.3293 39.4023,63.6627 37.5,66.5C 36.9963,62.4934 36.8297,58.4934 37,54.5C 37.7083,55.3805 38.5416,56.0472 39.5,56.5 Z"/></g>
<g><path style="opacity:1" fill="#3ac69c" d="M 40.5,58.5 C 41.4745,59.635 42.6412,60.635 44,61.5C 46.6894,59.2139 49.6894,58.8805 53,60.5C 54.3756,60.3158 55.2089,59.6491 55.5,58.5C 56.7791,59.968 58.4458,60.6347 60.5,60.5C 61.7562,60.4614 62.7562,60.9614 63.5,62C 61.2657,63.7498 58.9324,65.2498 56.5,66.5C 53.1773,68.148 49.844,69.8147 46.5,71.5C 44.4616,70.3384 43.1282,68.6717 42.5,66.5C 41.469,64.0392 40.8023,61.3725 40.5,58.5 Z"/></g>
<g><path style="opacity:1" fill="#40c29b" d="M 19.5,53.5 C 22.5372,53.9867 23.5372,55.4867 22.5,58C 24.1194,61.9662 27.1194,63.4662 31.5,62.5C 31.5,63.8333 31.5,65.1667 31.5,66.5C 29.9582,65.6993 28.2915,65.366 26.5,65.5C 24.0905,64.2993 22.0905,62.6326 20.5,60.5C 20.552,58.0971 20.2186,55.7638 19.5,53.5 Z"/></g>
<g><path style="opacity:1" fill="#d6faf5" d="M 39.5,56.5 C 39.8333,56.5 40.1667,56.5 40.5,56.5C 40.5,57.1667 40.5,57.8333 40.5,58.5C 40.8023,61.3725 41.469,64.0392 42.5,66.5C 42.59,68.6963 42.9233,70.863 43.5,73C 43.6842,74.3756 44.3509,75.2089 45.5,75.5C 44.4324,76.4345 43.099,76.7678 41.5,76.5C 41.6488,73.3926 41.1488,70.3926 40,67.5C 39.79,69.0581 39.29,70.3915 38.5,71.5C 38.1667,71.5 37.8333,71.5 37.5,71.5C 37.5,69.8333 37.5,68.1667 37.5,66.5C 39.4023,63.6627 40.069,60.3293 39.5,56.5 Z"/></g>
<g><path style="opacity:1" fill="#60b99f" d="M 26.5,66.5 C 26.5,66.1667 26.5,65.8333 26.5,65.5C 28.2915,65.366 29.9582,65.6993 31.5,66.5C 32.6385,69.0862 34.6385,70.7529 37.5,71.5C 37.8333,71.5 38.1667,71.5 38.5,71.5C 38.6716,72.4916 38.3382,73.1583 37.5,73.5C 34.1667,71.5 30.8333,69.5 27.5,67.5C 27.5,66.8333 27.1667,66.5 26.5,66.5 Z"/></g>
<g><path style="opacity:0.941" fill="#f9fcfd" d="M 24.5,66.5 C 25.1667,66.5 25.8333,66.5 26.5,66.5C 27.1667,66.5 27.5,66.8333 27.5,67.5C 27.4166,70.2819 28.25,72.6152 30,74.5C 32.3818,73.1337 34.5485,73.467 36.5,75.5C 37.2975,75.0431 37.6309,74.3764 37.5,73.5C 38.3382,73.1583 38.6716,72.4916 38.5,71.5C 39.29,70.3915 39.79,69.0581 40,67.5C 41.1488,70.3926 41.6488,73.3926 41.5,76.5C 43.099,76.7678 44.4324,76.4345 45.5,75.5C 46.1667,75.1667 46.8333,74.8333 47.5,74.5C 51.6352,73.7915 55.3019,72.1248 58.5,69.5C 59.4511,70.9187 59.7845,72.5853 59.5,74.5C 61.3797,74.2291 62.713,74.8958 63.5,76.5C 59.222,78.8084 54.8887,80.8084 50.5,82.5C 44.1667,82.5 37.8333,82.5 31.5,82.5C 29.5,81.5 27.5,80.5 25.5,79.5C 26.2389,79.631 26.9056,79.4643 27.5,79C 20.8988,77.6057 20.8988,76.2724 27.5,75C 24.9454,73.5555 22.2787,72.3888 19.5,71.5C 19.8076,70.6919 20.3076,70.0253 21,69.5C 22.6667,70.8333 24.3333,70.8333 26,69.5C 26.2387,68.212 25.7387,67.212 24.5,66.5 Z"/></g>
<g><path style="opacity:1" fill="#4fb797" d="M 42.5,66.5 C 43.1282,68.6717 44.4616,70.3384 46.5,71.5C 49.844,69.8147 53.1773,68.148 56.5,66.5C 53.6881,69.4015 50.6881,72.0681 47.5,74.5C 46.8333,74.8333 46.1667,75.1667 45.5,75.5C 44.3509,75.2089 43.6842,74.3756 43.5,73C 42.9233,70.863 42.59,68.6963 42.5,66.5 Z"/></g>
<g><path style="opacity:1" fill="#e2fcf9" d="M 27.5,67.5 C 30.8333,69.5 34.1667,71.5 37.5,73.5C 37.6309,74.3764 37.2975,75.0431 36.5,75.5C 34.5485,73.467 32.3818,73.1337 30,74.5C 28.25,72.6152 27.4166,70.2819 27.5,67.5 Z"/></g>
</svg>
