<?xml version="1.0" encoding="UTF-8"?>
<!DOCTYPE svg PUBLIC "-//W3C//DTD SVG 1.1//EN" "http://www.w3.org/Graphics/SVG/1.1/DTD/svg11.dtd">
<svg xmlns="http://www.w3.org/2000/svg" version="1.1" width="254px" height="254px" style="shape-rendering:geometricPrecision; text-rendering:geometricPrecision; image-rendering:optimizeQuality; fill-rule:evenodd; clip-rule:evenodd" xmlns:xlink="http://www.w3.org/1999/xlink">
<g><path style="opacity:0.995" fill="#eae9de" d="M 110.5,-0.5 C 121.167,-0.5 131.833,-0.5 142.5,-0.5C 188.949,7.14191 222.449,32.1419 243,74.5C 244.136,77.0964 244.969,79.763 245.5,82.5C 258.052,124.335 252.719,163.668 229.5,200.5C 214.307,222.5 193.973,238 168.5,247C 159.817,249.63 151.151,251.797 142.5,253.5C 131.833,253.5 121.167,253.5 110.5,253.5C 84.0507,249.443 60.7173,238.61 40.5,221C 36.8926,217.902 33.8926,214.402 31.5,210.5C 5.47717,178.255 -4.02283,141.588 3,100.5C 5.66236,89.5204 9.16236,78.8537 13.5,68.5C 18.24,58.2532 24.4066,48.9199 32,40.5C 53.5582,17.9712 79.7249,4.30455 110.5,-0.5 Z"/></g>
<g><path style="opacity:1" fill="#090a09" d="M 116.5,5.5 C 173.603,4.81605 213.936,30.3161 237.5,82C 252.494,126.055 245.994,166.555 218,203.5C 184.289,240.977 142.789,253.811 93.5,242C 45.0333,225.536 16.8667,192.036 9,141.5C 4.17154,89.9935 23.3382,50.1601 66.5,22C 82.0775,12.7819 98.7442,7.28194 116.5,5.5 Z"/></g>
<g><path style="opacity:1" fill="#132d2e" d="M 195.5,35.5 C 192.549,35.7128 189.882,35.0461 187.5,33.5C 185.079,31.7622 182.412,30.4289 179.5,29.5C 179.047,28.5416 178.381,27.7083 177.5,27C 174.707,25.3459 171.707,24.1792 168.5,23.5C 165.994,22.2504 163.327,21.5838 160.5,21.5C 156.052,18.4643 151.052,16.7976 145.5,16.5C 133.616,13.8759 121.616,13.8759 109.5,16.5C 106.273,16.6761 103.273,17.3428 100.5,18.5C 95.8275,18.4882 93.9942,20.8215 95,25.5C 99.8346,27.8068 99.6679,29.4734 94.5,30.5C 94.6107,29.8826 94.944,29.3826 95.5,29C 93.3367,28.7547 91.67,27.7547 90.5,26C 87.8333,25.3333 85.1667,25.3333 82.5,26C 78.2003,27.9229 73.8669,29.7563 69.5,31.5C 67.0474,33.2725 64.3807,34.7725 61.5,36C 60.0206,39.5722 57.3539,41.4055 53.5,41.5C 53.6495,42.552 53.4828,43.552 53,44.5C 51.4933,45.5046 50.3267,46.838 49.5,48.5C 45.1622,49.5044 42.4956,52.1711 41.5,56.5C 37.314,59.8523 33.6474,63.6856 30.5,68C 29.5632,68.6917 28.8966,68.525 28.5,67.5C 50.3841,31.8789 82.3841,13.2122 124.5,11.5C 151.042,11.5686 174.708,19.5686 195.5,35.5 Z"/></g>
<g><path style="opacity:1" fill="#486167" d="M 109.5,16.5 C 107.811,17.3037 106.145,18.3037 104.5,19.5C 106.549,23.5727 109.882,25.2394 114.5,24.5C 110.756,26.1522 106.756,26.6522 102.5,26C 100.722,23.8646 100.055,21.3646 100.5,18.5C 103.273,17.3428 106.273,16.6761 109.5,16.5 Z"/></g>
<g><path style="opacity:1" fill="#cedce2" d="M 145.5,16.5 C 151.052,16.7976 156.052,18.4643 160.5,21.5C 158.208,21.2436 156.041,21.5769 154,22.5C 153.517,21.552 153.351,20.552 153.5,19.5C 147.013,19.7954 140.68,19.2954 134.5,18C 137.429,20.5041 140.429,22.6708 143.5,24.5C 139.481,24.3542 135.481,24.0209 131.5,23.5C 127.59,22.8999 123.923,21.5666 120.5,19.5C 120.5,18.5 120.5,17.5 120.5,16.5C 128.67,15.5212 137.003,15.5212 145.5,16.5 Z"/></g>
<g><path style="opacity:1" fill="#a8c0ca" d="M 120.5,16.5 C 120.5,17.5 120.5,18.5 120.5,19.5C 123.923,21.5666 127.59,22.8999 131.5,23.5C 126.821,23.6658 122.155,23.4992 117.5,23C 110.462,17.8257 111.462,15.659 120.5,16.5 Z"/></g>
<g><path style="opacity:1" fill="#74878d" d="M 145.5,16.5 C 137.003,15.5212 128.67,15.5212 120.5,16.5C 111.462,15.659 110.462,17.8257 117.5,23C 122.155,23.4992 126.821,23.6658 131.5,23.5C 135.481,24.0209 139.481,24.3542 143.5,24.5C 145.947,25.225 148.447,25.8917 151,26.5C 152.03,26.8361 152.53,27.5028 152.5,28.5C 152.167,28.5 151.833,28.5 151.5,28.5C 144.878,27.3478 138.211,26.1812 131.5,25C 125.843,24.5006 120.176,24.3339 114.5,24.5C 109.882,25.2394 106.549,23.5727 104.5,19.5C 106.145,18.3037 107.811,17.3037 109.5,16.5C 121.616,13.8759 133.616,13.8759 145.5,16.5 Z"/></g>
<g><path style="opacity:1" fill="#7c8e91" d="M 168.5,23.5 C 171.707,24.1792 174.707,25.3459 177.5,27C 178.381,27.7083 179.047,28.5416 179.5,29.5C 175.353,28.241 171.686,26.241 168.5,23.5 Z"/></g>
<g><path style="opacity:1" fill="#ebf2f3" d="M 160.5,21.5 C 163.327,21.5838 165.994,22.2504 168.5,23.5C 171.686,26.241 175.353,28.241 179.5,29.5C 182.412,30.4289 185.079,31.7622 187.5,33.5C 201.894,43.7293 213.728,56.3959 223,71.5C 226.04,79.9138 229.207,88.2472 232.5,96.5C 232.658,100.841 233.658,104.841 235.5,108.5C 235.5,109.5 235.5,110.5 235.5,111.5C 235.666,119.174 235.5,126.841 235,134.5C 233.333,135.167 231.667,135.833 230,136.5C 229.667,136.167 229.333,135.833 229,135.5C 228.827,129.984 228.327,124.651 227.5,119.5C 227.13,115.226 226.13,111.226 224.5,107.5C 224.656,103.418 224.156,99.4183 223,95.5C 222.303,93.4156 221.136,91.7489 219.5,90.5C 219.5,89.8333 219.5,89.1667 219.5,88.5C 218.826,85.4741 217.993,82.4741 217,79.5C 208.12,64.0739 196.287,51.4072 181.5,41.5C 177.232,38.6905 172.898,35.8572 168.5,33C 163.21,31.1788 157.877,29.6788 152.5,28.5C 152.53,27.5028 152.03,26.8361 151,26.5C 148.447,25.8917 145.947,25.225 143.5,24.5C 140.429,22.6708 137.429,20.5041 134.5,18C 140.68,19.2954 147.013,19.7954 153.5,19.5C 153.351,20.552 153.517,21.552 154,22.5C 156.041,21.5769 158.208,21.2436 160.5,21.5 Z"/></g>
<g><path style="opacity:1" fill="#0b0f0f" d="M 147.5,32.5 C 153.552,33.5058 159.218,35.5058 164.5,38.5C 187.995,50.1411 204.662,68.1411 214.5,92.5C 216.927,97.1897 218.593,102.19 219.5,107.5C 223.484,121.976 224.817,136.642 223.5,151.5C 223.017,140.761 221.851,130.094 220,119.5C 219.683,117.699 219.016,117.366 218,118.5C 217.191,124.749 217.358,130.916 218.5,137C 217.572,137.388 216.905,138.055 216.5,139C 218.182,140.895 218.682,143.062 218,145.5C 217.586,145.043 217.086,144.709 216.5,144.5C 215.834,152.2 214,159.533 211,166.5C 210.292,167.381 209.458,168.047 208.5,168.5C 210.03,163.078 211.863,157.745 214,152.5C 214.499,147.845 214.666,143.179 214.5,138.5C 215.997,131.136 215.83,123.803 214,116.5C 211.664,111.817 210.331,106.817 210,101.5C 208.989,100.663 207.822,100.33 206.5,100.5C 206.666,96.4862 206.499,92.4862 206,88.5C 201.88,80.4323 197.213,72.7656 192,65.5C 186.626,60.6941 181.126,56.0275 175.5,51.5C 173.167,50.8333 170.833,50.1667 168.5,49.5C 165.047,44.7757 160.38,42.7757 154.5,43.5C 152.708,43.634 151.042,43.3007 149.5,42.5C 147.485,41.0762 145.152,40.4095 142.5,40.5C 141.737,39.7321 140.737,39.2321 139.5,39C 130.99,38.1768 122.656,38.3434 114.5,39.5C 110.042,40.0401 105.709,41.0401 101.5,42.5C 93.9388,45.2797 86.6055,48.613 79.5,52.5C 77.9397,52.4809 76.4397,52.1476 75,51.5C 73.6998,52.7073 72.1998,53.3739 70.5,53.5C 70.5,54.8333 70.5,56.1667 70.5,57.5C 68.139,57.6741 65.8056,58.0074 63.5,58.5C 63.5,59.5 63.5,60.5 63.5,61.5C 60.8333,62.5 58.1667,63.5 55.5,64.5C 55.6567,65.8734 55.49,67.2068 55,68.5C 53.4667,68.9437 51.9667,69.277 50.5,69.5C 49.9394,71.4259 49.7727,73.4259 50,75.5C 48.6283,74.0899 47.795,72.4233 47.5,70.5C 61.3753,50.4457 80.042,37.279 103.5,31C 118.349,28.5135 133.015,29.0135 147.5,32.5 Z"/></g>
<g><path style="opacity:1" fill="#505b57" d="M 151.5,28.5 C 151.833,28.5 152.167,28.5 152.5,28.5C 157.877,29.6788 163.21,31.1788 168.5,33C 172.898,35.8572 177.232,38.6905 181.5,41.5C 181.511,43.0174 182.177,44.1841 183.5,45C 190.149,49.3802 196.149,54.5469 201.5,60.5C 207.33,70.0841 213.33,79.4174 219.5,88.5C 219.5,89.1667 219.5,89.8333 219.5,90.5C 221.486,96.1055 223.153,101.772 224.5,107.5C 224.5,110.5 224.5,113.5 224.5,116.5C 222.941,113.132 222.108,109.465 222,105.5C 221.925,107.935 221.092,108.602 219.5,107.5C 218.593,102.19 216.927,97.1897 214.5,92.5C 215.117,92.6107 215.617,92.944 216,93.5C 210.321,73.7211 198.821,57.8878 181.5,46C 176.633,42.7352 171.633,39.7352 166.5,37C 164.052,36.1469 163.386,36.6469 164.5,38.5C 159.218,35.5058 153.552,33.5058 147.5,32.5C 147.082,31.7784 146.416,31.2784 145.5,31C 148.051,30.9977 150.051,30.1644 151.5,28.5 Z"/></g>
<g><path style="opacity:1" fill="#363d3f" d="M 100.5,18.5 C 100.055,21.3646 100.722,23.8646 102.5,26C 106.756,26.6522 110.756,26.1522 114.5,24.5C 120.176,24.3339 125.843,24.5006 131.5,25C 138.211,26.1812 144.878,27.3478 151.5,28.5C 150.051,30.1644 148.051,30.9977 145.5,31C 146.416,31.2784 147.082,31.7784 147.5,32.5C 133.015,29.0135 118.349,28.5135 103.5,31C 80.042,37.279 61.3753,50.4457 47.5,70.5C 45.8333,72.5 44.1667,74.5 42.5,76.5C 42.5912,74.3023 41.9245,73.9689 40.5,75.5C 50.342,59.4915 63.342,46.6581 79.5,37C 84.7251,35.2282 89.7251,33.0616 94.5,30.5C 99.6679,29.4734 99.8346,27.8068 95,25.5C 93.9942,20.8215 95.8275,18.4882 100.5,18.5 Z"/></g>
<g><path style="opacity:1" fill="#39574d" d="M 114.5,39.5 C 122.656,38.3434 130.99,38.1768 139.5,39C 140.737,39.2321 141.737,39.7321 142.5,40.5C 138.865,39.8857 135.198,39.5524 131.5,39.5C 125.833,39.5 120.167,39.5 114.5,39.5 Z"/></g>
<g><path style="opacity:1" fill="#809180" d="M 131.5,39.5 C 135.198,39.5524 138.865,39.8857 142.5,40.5C 145.152,40.4095 147.485,41.0762 149.5,42.5C 146.001,41.5565 142.668,41.5565 139.5,42.5C 136.873,41.9084 134.206,41.5751 131.5,41.5C 131.5,40.8333 131.5,40.1667 131.5,39.5 Z"/></g>
<g><path style="opacity:1" fill="#477770" d="M 114.5,39.5 C 120.167,39.5 125.833,39.5 131.5,39.5C 131.5,40.1667 131.5,40.8333 131.5,41.5C 125.974,41.1786 120.64,41.5119 115.5,42.5C 111.524,43.2952 107.524,43.9619 103.5,44.5C 101.007,44.8693 100.34,44.2027 101.5,42.5C 105.709,41.0401 110.042,40.0401 114.5,39.5 Z"/></g>
<g><path style="opacity:1" fill="#4e623a" d="M 139.5,43.5 C 140.167,43.5 140.833,43.5 141.5,43.5C 136.802,50.7877 138.802,55.4543 147.5,57.5C 150.489,57.8143 152.822,59.1476 154.5,61.5C 148.473,59.2688 142.473,57.2688 136.5,55.5C 135.879,54.5343 134.545,53.5343 132.5,52.5C 130.998,46.6573 133.331,43.6573 139.5,43.5 Z"/></g>
<g><path style="opacity:1" fill="#78873d" d="M 141.5,43.5 C 144.454,44.4279 147.454,45.2612 150.5,46C 151.056,46.3826 151.389,46.8826 151.5,47.5C 149.5,47.5 147.5,47.5 145.5,47.5C 145.311,51.037 145.977,54.3703 147.5,57.5C 138.802,55.4543 136.802,50.7877 141.5,43.5 Z"/></g>
<g><path style="opacity:1" fill="#b6c091" d="M 149.5,42.5 C 151.042,43.3007 152.708,43.634 154.5,43.5C 159.011,45.7922 163.345,48.4589 167.5,51.5C 166.167,51.5 164.833,51.5 163.5,51.5C 159.878,49.022 155.878,47.6887 151.5,47.5C 151.389,46.8826 151.056,46.3826 150.5,46C 147.454,45.2612 144.454,44.4279 141.5,43.5C 140.833,43.5 140.167,43.5 139.5,43.5C 139.5,43.1667 139.5,42.8333 139.5,42.5C 142.668,41.5565 146.001,41.5565 149.5,42.5 Z"/></g>
<g><path style="opacity:1" fill="#102b2a" d="M 115.5,42.5 C 119.214,42.5713 122.547,43.738 125.5,46C 123.246,46.6237 121.579,47.957 120.5,50C 121.5,50.3333 122.5,50.6667 123.5,51C 124.833,51.6667 124.833,52.3333 123.5,53C 120.305,53.1805 117.305,53.6805 114.5,54.5C 106.919,56.0267 99.5862,58.36 92.5,61.5C 93.6305,59.268 94.7972,57.268 96,55.5C 94.9805,54.3128 93.8139,53.3128 92.5,52.5C 89.9159,53.3928 87.2492,53.7261 84.5,53.5C 90.2109,49.1536 96.5442,46.1536 103.5,44.5C 107.524,43.9619 111.524,43.2952 115.5,42.5 Z"/></g>
<g><path style="opacity:1" fill="#2a483a" d="M 115.5,42.5 C 120.64,41.5119 125.974,41.1786 131.5,41.5C 134.206,41.5751 136.873,41.9084 139.5,42.5C 139.5,42.8333 139.5,43.1667 139.5,43.5C 133.331,43.6573 130.998,46.6573 132.5,52.5C 134.545,53.5343 135.879,54.5343 136.5,55.5C 129.209,54.6076 121.876,54.2743 114.5,54.5C 117.305,53.6805 120.305,53.1805 123.5,53C 124.833,52.3333 124.833,51.6667 123.5,51C 122.5,50.6667 121.5,50.3333 120.5,50C 121.579,47.957 123.246,46.6237 125.5,46C 122.547,43.738 119.214,42.5713 115.5,42.5 Z"/></g>
<g><path style="opacity:1" fill="#426060" d="M 101.5,42.5 C 100.34,44.2027 101.007,44.8693 103.5,44.5C 96.5442,46.1536 90.2109,49.1536 84.5,53.5C 78.3151,56.672 72.6484,60.672 67.5,65.5C 66.479,64.9984 66.3123,64.3317 67,63.5C 70.9169,59.4727 75.0835,55.806 79.5,52.5C 86.6055,48.613 93.9388,45.2797 101.5,42.5 Z"/></g>
<g><path style="opacity:1" fill="#d7c754" d="M 163.5,52.5 C 166.751,52.9526 169.085,54.6193 170.5,57.5C 167.452,55.5397 164.118,54.7064 160.5,55C 159.483,56.0495 159.316,57.2161 160,58.5C 162.2,59.6508 163.7,61.3175 164.5,63.5C 162.381,62.2615 160.381,60.7615 158.5,59C 157.552,58.5172 156.552,58.3505 155.5,58.5C 155.5,57.5 155.5,56.5 155.5,55.5C 154.022,55.762 152.689,55.4287 151.5,54.5C 153.005,53.1585 153.672,51.4918 153.5,49.5C 156.823,50.4925 160.156,51.4925 163.5,52.5 Z"/></g>
<g><path style="opacity:1" fill="#b6b052" d="M 151.5,47.5 C 155.878,47.6887 159.878,49.022 163.5,51.5C 163.5,51.8333 163.5,52.1667 163.5,52.5C 160.156,51.4925 156.823,50.4925 153.5,49.5C 153.672,51.4918 153.005,53.1585 151.5,54.5C 152.689,55.4287 154.022,55.762 155.5,55.5C 155.5,56.5 155.5,57.5 155.5,58.5C 156.552,58.3505 157.552,58.5172 158.5,59C 160.381,60.7615 162.381,62.2615 164.5,63.5C 164.5,64.1667 164.5,64.8333 164.5,65.5C 163.167,65.1667 161.833,64.8333 160.5,64.5C 159.393,62.0311 157.393,61.0311 154.5,61.5C 152.822,59.1476 150.489,57.8143 147.5,57.5C 145.977,54.3703 145.311,51.037 145.5,47.5C 147.5,47.5 149.5,47.5 151.5,47.5 Z"/></g>
<g><path style="opacity:1" fill="#57654c" d="M 177.5,57.5 C 181.167,59.1667 183.833,61.8333 185.5,65.5C 182.5,63.1667 179.833,60.5 177.5,57.5 Z"/></g>
<g><path style="opacity:1" fill="#060f12" d="M 94.5,30.5 C 89.7251,33.0616 84.7251,35.2282 79.5,37C 63.342,46.6581 50.342,59.4915 40.5,75.5C 39.2719,76.3065 38.2719,77.3065 37.5,78.5C 33.1601,70.4769 28.8267,70.6436 24.5,79C 23.6683,79.6877 23.0016,79.521 22.5,78.5C 23.752,74.322 25.752,70.6553 28.5,67.5C 28.8966,68.525 29.5632,68.6917 30.5,68C 33.6474,63.6856 37.314,59.8523 41.5,56.5C 42.4956,52.1711 45.1622,49.5044 49.5,48.5C 50.3267,46.838 51.4933,45.5046 53,44.5C 53.4828,43.552 53.6495,42.552 53.5,41.5C 57.3539,41.4055 60.0206,39.5722 61.5,36C 64.3807,34.7725 67.0474,33.2725 69.5,31.5C 73.8669,29.7563 78.2003,27.9229 82.5,26C 85.1667,25.3333 87.8333,25.3333 90.5,26C 91.67,27.7547 93.3367,28.7547 95.5,29C 94.944,29.3826 94.6107,29.8826 94.5,30.5 Z"/></g>
<g><path style="opacity:1" fill="#070808" d="M 163.5,72.5 C 163.842,73.3382 164.508,73.6716 165.5,73.5C 165.5,74.1667 165.5,74.8333 165.5,75.5C 162.614,77.6343 159.947,79.9677 157.5,82.5C 140.471,70.8427 122.138,68.3427 102.5,75C 87.711,81.9517 77.711,93.1183 72.5,108.5C 71.7321,109.263 71.2321,110.263 71,111.5C 70.3333,120.167 70.3333,128.833 71,137.5C 71.2321,138.737 71.7321,139.737 72.5,140.5C 82.9591,168.742 103.292,181.242 133.5,178C 166.633,168.274 181.133,146.108 177,111.5C 176.333,110.167 175.667,108.833 175,107.5C 152.069,106.169 129.236,106.169 106.5,107.5C 106.5,111.167 106.5,114.833 106.5,118.5C 121.658,119.496 136.991,119.83 152.5,119.5C 152.5,130.833 152.5,142.167 152.5,153.5C 137.5,153.5 122.5,153.5 107.5,153.5C 107.5,150.167 107.5,146.833 107.5,143.5C 119.012,143.828 130.346,143.495 141.5,142.5C 141.5,138.5 141.5,134.5 141.5,130.5C 125.833,130.5 110.167,130.5 94.5,130.5C 94.5,118.833 94.5,107.167 94.5,95.5C 124.174,95.1668 153.841,95.5002 183.5,96.5C 195.326,128.541 188.326,155.707 162.5,178C 135.232,195.303 108.565,194.636 82.5,176C 71.373,166.118 64.0396,153.951 60.5,139.5C 59.6423,131.868 59.3089,124.201 59.5,116.5C 62.8491,92.0198 75.8491,74.5198 98.5,64C 121.74,55.7406 143.406,58.5739 163.5,72.5 Z"/></g>
<g><path style="opacity:1" fill="#766d42" d="M 154.5,61.5 C 157.393,61.0311 159.393,62.0311 160.5,64.5C 158.181,64.0075 156.181,63.0075 154.5,61.5 Z"/></g>
<g><path style="opacity:1" fill="#f0e075" d="M 170.5,57.5 C 177.823,59.8375 183.156,64.5042 186.5,71.5C 183.239,68.7585 179.572,66.5918 175.5,65C 174.773,63.6012 174.273,62.1012 174,60.5C 172.271,60.0257 171.105,59.0257 170.5,57.5 Z"/></g>
<g><path style="opacity:1" fill="#778784" d="M 181.5,41.5 C 196.287,51.4072 208.12,64.0739 217,79.5C 217.993,82.4741 218.826,85.4741 219.5,88.5C 213.33,79.4174 207.33,70.0841 201.5,60.5C 196.149,54.5469 190.149,49.3802 183.5,45C 182.177,44.1841 181.511,43.0174 181.5,41.5 Z"/></g>
<g><path style="opacity:1" fill="#8e8d8e" d="M 214.5,92.5 C 204.662,68.1411 187.995,50.1411 164.5,38.5C 163.386,36.6469 164.052,36.1469 166.5,37C 171.633,39.7352 176.633,42.7352 181.5,46C 198.821,57.8878 210.321,73.7211 216,93.5C 215.617,92.944 215.117,92.6107 214.5,92.5 Z"/></g>
<g><path style="opacity:1" fill="#b3b4b5" d="M 114.5,54.5 C 121.876,54.2743 129.209,54.6076 136.5,55.5C 142.473,57.2688 148.473,59.2688 154.5,61.5C 156.181,63.0075 158.181,64.0075 160.5,64.5C 162.833,66.5 165.167,68.5 167.5,70.5C 165.517,70.1568 164.183,70.8235 163.5,72.5C 143.406,58.5739 121.74,55.7406 98.5,64C 75.8491,74.5198 62.8491,92.0198 59.5,116.5C 58.5093,122.979 58.176,129.646 58.5,136.5C 58.631,137.239 58.4643,137.906 58,138.5C 57.2917,137.619 56.4584,136.953 55.5,136.5C 55.7678,134.901 55.4345,133.568 54.5,132.5C 54.5,125.5 54.5,118.5 54.5,111.5C 55.3382,111.158 55.6716,110.492 55.5,109.5C 56.475,106.933 57.1417,104.267 57.5,101.5C 64.1842,83.8153 75.8508,70.4819 92.5,61.5C 99.5862,58.36 106.919,56.0267 114.5,54.5 Z"/></g>
<g><path style="opacity:1" fill="#dec973" d="M 164.5,65.5 C 169.973,66.1234 173.973,68.9567 176.5,74C 177.448,74.4828 178.448,74.6495 179.5,74.5C 179.629,76.2161 179.962,77.8828 180.5,79.5C 175.126,74.8235 169.793,70.1568 164.5,65.5 Z"/></g>
<g><path style="opacity:1" fill="#111b1e" d="M 79.5,52.5 C 75.0835,55.806 70.9169,59.4727 67,63.5C 66.3123,64.3317 66.479,64.9984 67.5,65.5C 72.6484,60.672 78.3151,56.672 84.5,53.5C 87.2492,53.7261 89.9159,53.3928 92.5,52.5C 93.8139,53.3128 94.9805,54.3128 96,55.5C 94.7972,57.268 93.6305,59.268 92.5,61.5C 75.8508,70.4819 64.1842,83.8153 57.5,101.5C 57.093,97.7422 57.093,94.0756 57.5,90.5C 54.6981,88.0193 54.0314,85.0193 55.5,81.5C 62.1557,77.3823 65.3223,71.3823 65,63.5C 63.647,64.6853 62.4803,66.0186 61.5,67.5C 60.8333,67.1667 60.1667,66.8333 59.5,66.5C 58.646,67.5217 57.646,68.3551 56.5,69C 54.843,72.4436 52.6764,75.6103 50,78.5C 49.3333,77.8333 48.6667,77.1667 48,76.5C 46.322,78.6659 44.1553,79.9993 41.5,80.5C 41.8333,79.1667 42.1667,77.8333 42.5,76.5C 44.1667,74.5 45.8333,72.5 47.5,70.5C 47.795,72.4233 48.6283,74.0899 50,75.5C 49.7727,73.4259 49.9394,71.4259 50.5,69.5C 51.9667,69.277 53.4667,68.9437 55,68.5C 55.49,67.2068 55.6567,65.8734 55.5,64.5C 58.1667,63.5 60.8333,62.5 63.5,61.5C 63.5,60.5 63.5,59.5 63.5,58.5C 65.8056,58.0074 68.139,57.6741 70.5,57.5C 70.5,56.1667 70.5,54.8333 70.5,53.5C 72.1998,53.3739 73.6998,52.7073 75,51.5C 76.4397,52.1476 77.9397,52.4809 79.5,52.5 Z"/></g>
<g><path style="opacity:1" fill="#685634" d="M 160.5,64.5 C 161.833,64.8333 163.167,65.1667 164.5,65.5C 169.793,70.1568 175.126,74.8235 180.5,79.5C 181.344,82.678 183.011,85.3446 185.5,87.5C 186.861,89.8505 188.194,92.1838 189.5,94.5C 188.5,93.8333 187.5,93.1667 186.5,92.5C 185.833,91.8333 185.167,91.1667 184.5,90.5C 180.305,82.6335 174.638,75.9669 167.5,70.5C 165.167,68.5 162.833,66.5 160.5,64.5 Z"/></g>
<g><path style="opacity:1" fill="#8d9696" d="M 42.5,76.5 C 42.1667,77.8333 41.8333,79.1667 41.5,80.5C 38.6896,84.2104 36.6896,88.2104 35.5,92.5C 36.3235,90.5454 36.4901,88.5454 36,86.5C 35.2917,87.3805 34.4584,88.0472 33.5,88.5C 35.734,85.6011 37.0674,82.2678 37.5,78.5C 38.2719,77.3065 39.2719,76.3065 40.5,75.5C 41.9245,73.9689 42.5912,74.3023 42.5,76.5 Z"/></g>
<g><path style="opacity:1" fill="#efdc55" d="M 170.5,57.5 C 171.105,59.0257 172.271,60.0257 174,60.5C 174.273,62.1012 174.773,63.6012 175.5,65C 179.572,66.5918 183.239,68.7585 186.5,71.5C 186.833,72.5 187.5,73.1667 188.5,73.5C 188.268,77.4575 189.101,81.1242 191,84.5C 193.144,85.6461 194.977,87.1461 196.5,89C 195.678,91.4339 195.344,93.9339 195.5,96.5C 197.167,96.5 198.833,96.5 200.5,96.5C 201.117,100.495 199.951,103.828 197,106.5C 195.873,103.623 195.206,100.623 195,97.5C 191.948,95.7457 190.114,93.079 189.5,89.5C 188.423,88.2949 187.09,87.6282 185.5,87.5C 183.011,85.3446 181.344,82.678 180.5,79.5C 179.962,77.8828 179.629,76.2161 179.5,74.5C 178.448,74.6495 177.448,74.4828 176.5,74C 173.973,68.9567 169.973,66.1234 164.5,65.5C 164.5,64.8333 164.5,64.1667 164.5,63.5C 163.7,61.3175 162.2,59.6508 160,58.5C 159.316,57.2161 159.483,56.0495 160.5,55C 164.118,54.7064 167.452,55.5397 170.5,57.5 Z"/></g>
<g><path style="opacity:1" fill="#d0d7a5" d="M 163.5,52.5 C 163.5,52.1667 163.5,51.8333 163.5,51.5C 164.833,51.5 166.167,51.5 167.5,51.5C 170.861,53.5113 174.194,55.5113 177.5,57.5C 179.833,60.5 182.5,63.1667 185.5,65.5C 195.78,75.3835 202.446,87.3835 205.5,101.5C 204.833,101.5 204.167,101.5 203.5,101.5C 201.251,95.9268 199.084,90.2601 197,84.5C 193.931,80.9418 191.098,77.2751 188.5,73.5C 187.5,73.1667 186.833,72.5 186.5,71.5C 183.156,64.5042 177.823,59.8375 170.5,57.5C 169.085,54.6193 166.751,52.9526 163.5,52.5 Z"/></g>
<g><path style="opacity:1" fill="#788787" d="M 219.5,90.5 C 221.136,91.7489 222.303,93.4156 223,95.5C 224.156,99.4183 224.656,103.418 224.5,107.5C 223.153,101.772 221.486,96.1055 219.5,90.5 Z"/></g>
<g><path style="opacity:0.663" fill="#fdfdfc" d="M 13.5,68.5 C 9.16236,78.8537 5.66236,89.5204 3,100.5C -4.02283,141.588 5.47717,178.255 31.5,210.5C 19.1243,197.773 10.291,182.773 5,165.5C 2.95516,157.751 1.12183,150.085 -0.5,142.5C -0.5,131.833 -0.5,121.167 -0.5,110.5C 1.70257,95.6944 6.36924,81.6944 13.5,68.5 Z"/></g>
<g><path style="opacity:1" fill="#847844" d="M 189.5,95.5 C 191.245,97.0326 192.245,99.0326 192.5,101.5C 190.755,99.9674 189.755,97.9674 189.5,95.5 Z"/></g>
<g><path style="opacity:1" fill="#e2d369" d="M 188.5,73.5 C 191.098,77.2751 193.931,80.9418 197,84.5C 199.084,90.2601 201.251,95.9268 203.5,101.5C 203.808,103.924 203.474,106.257 202.5,108.5C 200.018,109.067 197.684,109.734 195.5,110.5C 193.928,107.785 192.928,104.785 192.5,101.5C 192.245,99.0326 191.245,97.0326 189.5,95.5C 189.5,95.1667 189.5,94.8333 189.5,94.5C 188.194,92.1838 186.861,89.8505 185.5,87.5C 187.09,87.6282 188.423,88.2949 189.5,89.5C 190.114,93.079 191.948,95.7457 195,97.5C 195.206,100.623 195.873,103.623 197,106.5C 199.951,103.828 201.117,100.495 200.5,96.5C 198.833,96.5 197.167,96.5 195.5,96.5C 195.344,93.9339 195.678,91.4339 196.5,89C 194.977,87.1461 193.144,85.6461 191,84.5C 189.101,81.1242 188.268,77.4575 188.5,73.5 Z"/></g>
<g><path style="opacity:0.66" fill="#fdfdfb" d="M 245.5,82.5 C 246.793,83.842 247.626,85.5087 248,87.5C 250.045,95.2487 251.878,102.915 253.5,110.5C 253.5,121.167 253.5,131.833 253.5,142.5C 250.44,161.314 243.94,178.981 234,195.5C 232.951,197.618 231.451,199.284 229.5,200.5C 252.719,163.668 258.052,124.335 245.5,82.5 Z"/></g>
<g><path style="opacity:1" fill="#7c8f8d" d="M 232.5,96.5 C 234.342,100.159 235.342,104.159 235.5,108.5C 233.658,104.841 232.658,100.841 232.5,96.5 Z"/></g>
<g><path style="opacity:1" fill="#143523" d="M 154.5,43.5 C 160.38,42.7757 165.047,44.7757 168.5,49.5C 170.833,50.1667 173.167,50.8333 175.5,51.5C 181.126,56.0275 186.626,60.6941 192,65.5C 197.213,72.7656 201.88,80.4323 206,88.5C 206.499,92.4862 206.666,96.4862 206.5,100.5C 207.822,100.33 208.989,100.663 210,101.5C 210.331,106.817 211.664,111.817 214,116.5C 215.83,123.803 215.997,131.136 214.5,138.5C 210.386,139.73 206.22,140.73 202,141.5C 198.793,140.745 197.293,138.745 197.5,135.5C 201.137,136.165 204.803,136.832 208.5,137.5C 210.051,136.2 211.051,134.533 211.5,132.5C 212.611,127.584 212.778,122.584 212,117.5C 211.617,116.944 211.117,116.611 210.5,116.5C 209.492,114.456 208.492,112.456 207.5,110.5C 207.324,107.273 206.657,104.273 205.5,101.5C 202.446,87.3835 195.78,75.3835 185.5,65.5C 183.833,61.8333 181.167,59.1667 177.5,57.5C 174.194,55.5113 170.861,53.5113 167.5,51.5C 163.345,48.4589 159.011,45.7922 154.5,43.5 Z"/></g>
<g><path style="opacity:1" fill="#c6c8c8" d="M 167.5,70.5 C 174.638,75.9669 180.305,82.6335 184.5,90.5C 183.194,91.4674 182.527,92.8007 182.5,94.5C 176.167,94.5 169.833,94.5 163.5,94.5C 160.678,93.4928 157.678,92.6595 154.5,92C 155.167,91.6667 155.833,91.3333 156.5,91C 152.03,89.5431 148.363,86.8765 145.5,83C 127.451,75.3576 110.451,76.8576 94.5,87.5C 93.8333,88.5 93.1667,89.5 92.5,90.5C 93.0253,91.1924 93.6919,91.6924 94.5,92C 92.1053,92.6813 89.772,93.5147 87.5,94.5C 86.5,96.1667 85.1667,97.5 83.5,98.5C 81.7215,103.202 79.3882,107.535 76.5,111.5C 76.8178,112.647 77.4844,113.481 78.5,114C 77.5838,114.374 76.7504,114.874 76,115.5C 75.803,123.987 75.1363,132.321 74,140.5C 74.3076,139.692 74.8076,139.025 75.5,138.5C 76.7202,139.711 77.8869,139.711 79,138.5C 79.4922,139.549 79.3256,140.549 78.5,141.5C 78.8457,142.696 79.3457,142.696 80,141.5C 80.7048,145.243 82.2048,148.576 84.5,151.5C 82.6652,152.428 82.3318,153.594 83.5,155C 89.3336,155.06 95.3336,155.394 101.5,156C 98.0439,155.907 95.0439,156.907 92.5,159C 109.361,171.855 127.361,173.522 146.5,164C 149.017,161.651 151.35,159.151 153.5,156.5C 137.672,155.833 122.005,155.167 106.5,154.5C 122.167,154.5 137.833,154.5 153.5,154.5C 153.833,154.5 154.167,154.5 154.5,154.5C 154.958,157.15 155.958,157.65 157.5,156C 157.167,155.667 156.833,155.333 156.5,155C 158.363,152.705 160.363,150.538 162.5,148.5C 163.789,143.263 165.623,138.263 168,133.5C 168.938,125.377 168.438,117.377 166.5,109.5C 167.873,109.657 169.207,109.49 170.5,109C 149.191,107.654 127.858,107.154 106.5,107.5C 129.236,106.169 152.069,106.169 175,107.5C 175.667,108.833 176.333,110.167 177,111.5C 181.133,146.108 166.633,168.274 133.5,178C 103.292,181.242 82.9591,168.742 72.5,140.5C 71.1667,129.833 71.1667,119.167 72.5,108.5C 77.711,93.1183 87.711,81.9517 102.5,75C 122.138,68.3427 140.471,70.8427 157.5,82.5C 159.438,84.1628 161.772,84.8294 164.5,84.5C 166.693,85.7969 169.027,85.7969 171.5,84.5C 169.416,81.1693 168.416,77.5026 168.5,73.5C 167.5,73.5 166.5,73.5 165.5,73.5C 164.508,73.6716 163.842,73.3382 163.5,72.5C 164.183,70.8235 165.517,70.1568 167.5,70.5 Z"/></g>
<g><path style="opacity:1" fill="#dcdddc" d="M 106.5,107.5 C 127.858,107.154 149.191,107.654 170.5,109C 169.207,109.49 167.873,109.657 166.5,109.5C 168.438,117.377 168.938,125.377 168,133.5C 165.623,138.263 163.789,143.263 162.5,148.5C 160.363,150.538 158.363,152.705 156.5,155C 156.833,155.333 157.167,155.667 157.5,156C 155.958,157.65 154.958,157.15 154.5,154.5C 154.5,142.5 154.5,130.5 154.5,118.5C 151.5,118.5 148.5,118.5 145.5,118.5C 144.319,116.933 142.653,116.099 140.5,116C 140.833,115.667 141.167,115.333 141.5,115C 140.139,113.416 139.472,111.582 139.5,109.5C 132.203,108.466 121.536,108.133 107.5,108.5C 107.5,111.833 107.5,115.167 107.5,118.5C 107.167,118.5 106.833,118.5 106.5,118.5C 106.5,114.833 106.5,111.167 106.5,107.5 Z"/></g>
<g><path style="opacity:1" fill="#f5f5f5" d="M 145.5,118.5 C 132.833,118.5 120.167,118.5 107.5,118.5C 107.5,115.167 107.5,111.833 107.5,108.5C 121.536,108.133 132.203,108.466 139.5,109.5C 139.472,111.582 140.139,113.416 141.5,115C 141.167,115.333 140.833,115.667 140.5,116C 142.653,116.099 144.319,116.933 145.5,118.5 Z"/></g>
<g><path style="opacity:1" fill="#e86618" d="M 165.5,75.5 C 167.554,78.0076 168.554,81.0076 168.5,84.5C 167.167,84.5 165.833,84.5 164.5,84.5C 161.772,84.8294 159.438,84.1628 157.5,82.5C 159.947,79.9677 162.614,77.6343 165.5,75.5 Z"/></g>
<g><path style="opacity:1" fill="#cfb09e" d="M 165.5,73.5 C 166.5,73.5 167.5,73.5 168.5,73.5C 168.416,77.5026 169.416,81.1693 171.5,84.5C 169.027,85.7969 166.693,85.7969 164.5,84.5C 165.833,84.5 167.167,84.5 168.5,84.5C 168.554,81.0076 167.554,78.0076 165.5,75.5C 165.5,74.8333 165.5,74.1667 165.5,73.5 Z"/></g>
<g><path style="opacity:1" fill="#bedd83" d="M 203.5,101.5 C 204.167,101.5 204.833,101.5 205.5,101.5C 206.657,104.273 207.324,107.273 207.5,110.5C 207.657,111.873 207.49,113.207 207,114.5C 206.617,113.944 206.117,113.611 205.5,113.5C 204.551,112.848 203.385,112.514 202,112.5C 200.319,112.608 199.152,113.275 198.5,114.5C 198.167,114.5 197.833,114.5 197.5,114.5C 197.573,112.973 196.906,111.973 195.5,111.5C 195.5,111.167 195.5,110.833 195.5,110.5C 197.684,109.734 200.018,109.067 202.5,108.5C 203.474,106.257 203.808,103.924 203.5,101.5 Z"/></g>
<g><path style="opacity:1" fill="#1e3939" d="M 187.5,33.5 C 189.882,35.0461 192.549,35.7128 195.5,35.5C 227.453,61.4292 241.953,95.0958 239,136.5C 236.6,159.621 227.933,179.954 213,197.5C 212.329,196.748 211.496,196.414 210.5,196.5C 211.167,195.5 211.833,194.5 212.5,193.5C 218.737,185.372 224.237,176.705 229,167.5C 231.003,164.5 231.836,161.167 231.5,157.5C 232.995,151.547 234.328,145.547 235.5,139.5C 236.735,130.019 236.735,120.686 235.5,111.5C 235.5,110.5 235.5,109.5 235.5,108.5C 235.342,104.159 234.342,100.159 232.5,96.5C 229.207,88.2472 226.04,79.9138 223,71.5C 213.728,56.3959 201.894,43.7293 187.5,33.5 Z"/></g>
<g><path style="opacity:1" fill="#d5d6d5" d="M 163.5,94.5 C 140.327,94.1692 117.327,94.5025 94.5,95.5C 94.5,107.167 94.5,118.833 94.5,130.5C 110.167,130.5 125.833,130.5 141.5,130.5C 141.5,134.5 141.5,138.5 141.5,142.5C 129.5,142.5 117.5,142.5 105.5,142.5C 101.833,142.5 98.1667,142.5 94.5,142.5C 94.5,146.5 94.5,150.5 94.5,154.5C 98.5,154.5 102.5,154.5 106.5,154.5C 122.005,155.167 137.672,155.833 153.5,156.5C 151.35,159.151 149.017,161.651 146.5,164C 127.361,173.522 109.361,171.855 92.5,159C 95.0439,156.907 98.0439,155.907 101.5,156C 95.3336,155.394 89.3336,155.06 83.5,155C 82.3318,153.594 82.6652,152.428 84.5,151.5C 82.2048,148.576 80.7048,145.243 80,141.5C 79.3457,142.696 78.8457,142.696 78.5,141.5C 79.3256,140.549 79.4922,139.549 79,138.5C 77.8869,139.711 76.7202,139.711 75.5,138.5C 74.8076,139.025 74.3076,139.692 74,140.5C 75.1363,132.321 75.803,123.987 76,115.5C 76.7504,114.874 77.5838,114.374 78.5,114C 77.4844,113.481 76.8178,112.647 76.5,111.5C 79.3882,107.535 81.7215,103.202 83.5,98.5C 85.1667,97.5 86.5,96.1667 87.5,94.5C 89.772,93.5147 92.1053,92.6813 94.5,92C 93.6919,91.6924 93.0253,91.1924 92.5,90.5C 93.1667,89.5 93.8333,88.5 94.5,87.5C 110.451,76.8576 127.451,75.3576 145.5,83C 148.363,86.8765 152.03,89.5431 156.5,91C 155.833,91.3333 155.167,91.6667 154.5,92C 157.678,92.6595 160.678,93.4928 163.5,94.5 Z"/></g>
<g><path style="opacity:1" fill="#2c3c39" d="M 33.5,102.5 C 31.9698,113.767 31.3032,125.101 31.5,136.5C 30.5489,135.081 30.2155,133.415 30.5,131.5C 30.269,122.092 30.9356,112.759 32.5,103.5C 32.5,102.833 32.8333,102.5 33.5,102.5 Z"/></g>
<g><path style="opacity:1" fill="#5e4421" d="M 55.5,109.5 C 55.6716,110.492 55.3382,111.158 54.5,111.5C 49.4557,112.522 45.1224,114.855 41.5,118.5C 40.0669,120.558 39.4003,122.892 39.5,125.5C 39.5,127.5 39.5,129.5 39.5,131.5C 38.3547,127.689 38.1881,123.689 39,119.5C 41.733,115.293 44.5664,111.293 47.5,107.5C 50.1849,108.171 52.8516,108.838 55.5,109.5 Z"/></g>
<g><path style="opacity:1" fill="#8b6a2a" d="M 54.5,111.5 C 54.5,118.5 54.5,125.5 54.5,132.5C 54.5,133.167 54.5,133.833 54.5,134.5C 51.3776,134.72 48.0442,134.72 44.5,134.5C 44.5,135.5 44.5,136.5 44.5,137.5C 43.8333,137.5 43.1667,137.5 42.5,137.5C 41.4706,135.483 40.4706,133.483 39.5,131.5C 40.6049,132.6 41.9382,133.267 43.5,133.5C 46.728,132.586 50.0613,132.253 53.5,132.5C 53.8282,127.125 53.4948,121.792 52.5,116.5C 51.7065,116.069 50.8732,115.735 50,115.5C 47.1054,116.409 44.2721,117.409 41.5,118.5C 45.1224,114.855 49.4557,112.522 54.5,111.5 Z"/></g>
<g><path style="opacity:1" fill="#4cf087" d="M 205.5,113.5 C 207.563,117.427 208.563,121.761 208.5,126.5C 201.949,125.275 198.616,121.275 198.5,114.5C 199.152,113.275 200.319,112.608 202,112.5C 203.385,112.514 204.551,112.848 205.5,113.5 Z"/></g>
<g><path style="opacity:1" fill="#d7dfdc" d="M 35.5,92.5 C 34.2154,95.5885 33.5488,98.9219 33.5,102.5C 32.8333,102.5 32.5,102.833 32.5,103.5C 30.9823,106.534 30.1489,109.867 30,113.5C 29.1808,119.681 29.3475,125.681 30.5,131.5C 30.2155,133.415 30.5489,135.081 31.5,136.5C 31.7751,141.777 32.7751,146.777 34.5,151.5C 34.7845,153.415 34.4511,155.081 33.5,156.5C 31.7768,152.999 30.4434,149.332 29.5,145.5C 28.5367,141.899 27.87,138.233 27.5,134.5C 27.3994,124.148 27.7327,113.815 28.5,103.5C 30.0114,98.4569 31.6781,93.4569 33.5,88.5C 34.4584,88.0472 35.2917,87.3805 36,86.5C 36.4901,88.5454 36.3235,90.5454 35.5,92.5 Z"/></g>
<g><path style="opacity:1" fill="#95a29f" d="M 32.5,103.5 C 30.9356,112.759 30.269,122.092 30.5,131.5C 29.3475,125.681 29.1808,119.681 30,113.5C 30.1489,109.867 30.9823,106.534 32.5,103.5 Z"/></g>
<g><path style="opacity:1" fill="#bb913f" d="M 43.5,133.5 C 43.3284,132.508 43.6618,131.842 44.5,131.5C 47.6521,131.953 50.1521,130.953 52,128.5C 52.8236,125.118 52.657,121.784 51.5,118.5C 46.0365,117.067 42.3699,119.067 40.5,124.5C 40.5,125.167 40.1667,125.5 39.5,125.5C 39.4003,122.892 40.0669,120.558 41.5,118.5C 44.2721,117.409 47.1054,116.409 50,115.5C 50.8732,115.735 51.7065,116.069 52.5,116.5C 53.4948,121.792 53.8282,127.125 53.5,132.5C 50.0613,132.253 46.728,132.586 43.5,133.5 Z"/></g>
<g><path style="opacity:1" fill="#818282" d="M 72.5,108.5 C 71.1667,119.167 71.1667,129.833 72.5,140.5C 71.7321,139.737 71.2321,138.737 71,137.5C 70.3333,128.833 70.3333,120.167 71,111.5C 71.2321,110.263 71.7321,109.263 72.5,108.5 Z"/></g>
<g><path style="opacity:1" fill="#3f4041" d="M 59.5,116.5 C 59.3089,124.201 59.6423,131.868 60.5,139.5C 59.8333,138.5 59.1667,137.5 58.5,136.5C 58.176,129.646 58.5093,122.979 59.5,116.5 Z"/></g>
<g><path style="opacity:1" fill="#4adb8f" d="M 207.5,110.5 C 208.492,112.456 209.492,114.456 210.5,116.5C 211.383,121.103 211.717,125.77 211.5,130.5C 205.914,131.627 201.581,129.96 198.5,125.5C 197.756,121.881 197.423,118.215 197.5,114.5C 197.833,114.5 198.167,114.5 198.5,114.5C 198.616,121.275 201.949,125.275 208.5,126.5C 208.563,121.761 207.563,117.427 205.5,113.5C 206.117,113.611 206.617,113.944 207,114.5C 207.49,113.207 207.657,111.873 207.5,110.5 Z"/></g>
<g><path style="opacity:1" fill="#969c9a" d="M 28.5,103.5 C 27.7327,113.815 27.3994,124.148 27.5,134.5C 26.5076,126.684 26.1743,118.684 26.5,110.5C 26.9267,107.99 27.5933,105.657 28.5,103.5 Z"/></g>
<g><path style="opacity:1" fill="#16161e" d="M 26.5,110.5 C 26.1743,118.684 26.5076,126.684 27.5,134.5C 27.87,138.233 28.5367,141.899 29.5,145.5C 27.283,146.369 24.9496,146.702 22.5,146.5C 22.7445,142.763 23.4112,139.097 24.5,135.5C 24.0519,131.655 22.7186,128.155 20.5,125C 22.1341,124.506 23.8008,124.34 25.5,124.5C 25.1805,119.637 25.5139,114.97 26.5,110.5 Z"/></g>
<g><path style="opacity:1" fill="#35af74" d="M 210.5,116.5 C 211.117,116.611 211.617,116.944 212,117.5C 212.778,122.584 212.611,127.584 211.5,132.5C 207.131,132.533 202.798,132.2 198.5,131.5C 198.5,129.5 198.5,127.5 198.5,125.5C 201.581,129.96 205.914,131.627 211.5,130.5C 211.717,125.77 211.383,121.103 210.5,116.5 Z"/></g>
<g><path style="opacity:1" fill="#2c7a54" d="M 195.5,111.5 C 196.906,111.973 197.573,112.973 197.5,114.5C 197.423,118.215 197.756,121.881 198.5,125.5C 198.5,127.5 198.5,129.5 198.5,131.5C 202.798,132.2 207.131,132.533 211.5,132.5C 211.051,134.533 210.051,136.2 208.5,137.5C 204.803,136.832 201.137,136.165 197.5,135.5C 197.817,131.298 197.483,127.298 196.5,123.5C 196.495,119.466 196.162,115.466 195.5,111.5 Z"/></g>
<g><path style="opacity:1" fill="#4e4e4e" d="M 20.5,144.5 C 19.596,145.209 19.2627,146.209 19.5,147.5C 18.8826,147.389 18.3826,147.056 18,146.5C 16.589,136.87 16.2557,127.203 17,117.5C 18.4136,126.476 19.5803,135.476 20.5,144.5 Z"/></g>
<g><path style="opacity:1" fill="#bcd2d4" d="M 235.5,111.5 C 236.735,120.686 236.735,130.019 235.5,139.5C 234.696,141.189 233.696,142.855 232.5,144.5C 230.958,145.747 229.458,145.747 228,144.5C 227.5,136.173 227.334,127.84 227.5,119.5C 228.327,124.651 228.827,129.984 229,135.5C 229.333,135.833 229.667,136.167 230,136.5C 231.667,135.833 233.333,135.167 235,134.5C 235.5,126.841 235.666,119.174 235.5,111.5 Z"/></g>
<g><path style="opacity:1" fill="#768079" d="M 31.5,136.5 C 33.2249,141.223 34.2249,146.223 34.5,151.5C 32.7751,146.777 31.7751,141.777 31.5,136.5 Z"/></g>
<g><path style="opacity:1" fill="#7e959a" d="M 224.5,107.5 C 226.13,111.226 227.13,115.226 227.5,119.5C 227.334,127.84 227.5,136.173 228,144.5C 229.458,145.747 230.958,145.747 232.5,144.5C 233.696,142.855 234.696,141.189 235.5,139.5C 234.328,145.547 232.995,151.547 231.5,157.5C 230.883,157.611 230.383,157.944 230,158.5C 228.951,156.893 227.451,156.227 225.5,156.5C 225.646,147.329 225.979,138.162 226.5,129C 226.431,124.579 225.765,120.412 224.5,116.5C 224.5,113.5 224.5,110.5 224.5,107.5 Z"/></g>
<g><path style="opacity:1" fill="#0c1214" d="M 186.5,92.5 C 187.5,93.1667 188.5,93.8333 189.5,94.5C 189.5,94.8333 189.5,95.1667 189.5,95.5C 189.755,97.9674 190.755,99.9674 192.5,101.5C 192.928,104.785 193.928,107.785 195.5,110.5C 195.5,110.833 195.5,111.167 195.5,111.5C 196.162,115.466 196.495,119.466 196.5,123.5C 196.054,131.173 195.888,138.84 196,146.5C 197.873,145.911 199.54,146.578 201,148.5C 201.219,147.062 201.719,145.729 202.5,144.5C 204.741,144.881 207.074,145.048 209.5,145C 207.319,149.878 205.819,155.045 205,160.5C 201.657,167.197 197.823,173.53 193.5,179.5C 193.649,178.448 193.483,177.448 193,176.5C 191.306,180.396 190.14,180.062 189.5,175.5C 188.914,175.709 188.414,176.043 188,176.5C 187.502,174.473 187.669,172.473 188.5,170.5C 187.775,169.133 187.108,167.8 186.5,166.5C 186.649,165.448 186.483,164.448 186,163.5C 175.546,178.806 161.379,188.806 143.5,193.5C 141.265,193.795 139.265,193.461 137.5,192.5C 179.014,179.834 197.181,151.834 192,108.5C 190.438,103.05 188.605,97.7165 186.5,92.5 Z"/></g>
<g><path style="opacity:1" fill="#3b494a" d="M 224.5,116.5 C 225.765,120.412 226.431,124.579 226.5,129C 225.979,138.162 225.646,147.329 225.5,156.5C 227.451,156.227 228.951,156.893 230,158.5C 230.383,157.944 230.883,157.611 231.5,157.5C 231.836,161.167 231.003,164.5 229,167.5C 224.237,176.705 218.737,185.372 212.5,193.5C 212.241,189.932 210.241,188.599 206.5,189.5C 212.706,180.422 217.873,170.756 222,160.5C 222.696,157.522 223.196,154.522 223.5,151.5C 224.817,136.642 223.484,121.976 219.5,107.5C 221.092,108.602 221.925,107.935 222,105.5C 222.108,109.465 222.941,113.132 224.5,116.5 Z"/></g>
<g><path style="opacity:1" fill="#9fa39a" d="M 20.5,144.5 C 23.3585,150.91 25.5252,157.576 27,164.5C 28.9103,168.655 31.077,172.655 33.5,176.5C 35.4032,181.307 38.0699,185.64 41.5,189.5C 41.5,189.833 41.5,190.167 41.5,190.5C 40.6043,189.494 39.9377,189.494 39.5,190.5C 29.2553,177.895 22.5887,163.561 19.5,147.5C 19.2627,146.209 19.596,145.209 20.5,144.5 Z"/></g>
<g><path style="opacity:1" fill="#202823" d="M 37.5,168.5 C 40.1633,173.159 42.8299,177.825 45.5,182.5C 45.5394,183.583 45.8728,184.583 46.5,185.5C 45.675,186.386 44.675,186.719 43.5,186.5C 43.7148,188.179 43.0481,189.179 41.5,189.5C 38.0699,185.64 35.4032,181.307 33.5,176.5C 36.8931,174.927 38.2264,172.26 37.5,168.5 Z"/></g>
<g><path style="opacity:1" fill="#aaacad" d="M 184.5,90.5 C 185.167,91.1667 185.833,91.8333 186.5,92.5C 188.605,97.7165 190.438,103.05 192,108.5C 197.181,151.834 179.014,179.834 137.5,192.5C 134.941,192.198 132.607,192.532 130.5,193.5C 123.138,193.635 115.804,193.302 108.5,192.5C 99.6653,189.66 91.332,185.66 83.5,180.5C 83.1667,180.5 82.8333,180.5 82.5,180.5C 72.9504,172.604 65.6171,162.937 60.5,151.5C 60.0431,150.702 59.3764,150.369 58.5,150.5C 56.8692,145.976 55.8692,141.309 55.5,136.5C 56.4584,136.953 57.2917,137.619 58,138.5C 58.4643,137.906 58.631,137.239 58.5,136.5C 59.1667,137.5 59.8333,138.5 60.5,139.5C 64.0396,153.951 71.373,166.118 82.5,176C 108.565,194.636 135.232,195.303 162.5,178C 188.326,155.707 195.326,128.541 183.5,96.5C 153.841,95.5002 124.174,95.1668 94.5,95.5C 117.327,94.5025 140.327,94.1692 163.5,94.5C 169.833,94.5 176.167,94.5 182.5,94.5C 182.527,92.8007 183.194,91.4674 184.5,90.5 Z"/></g>
<g><path style="opacity:1" fill="#465552" d="M 45.5,182.5 C 47.5869,183.585 48.9202,185.251 49.5,187.5C 50.7967,189.993 51.7967,192.66 52.5,195.5C 52.1207,197.213 51.1207,198.213 49.5,198.5C 46.4728,196.14 43.8062,193.473 41.5,190.5C 41.5,190.167 41.5,189.833 41.5,189.5C 43.0481,189.179 43.7148,188.179 43.5,186.5C 44.675,186.719 45.675,186.386 46.5,185.5C 45.8728,184.583 45.5394,183.583 45.5,182.5 Z"/></g>
<g><path style="opacity:1" fill="#7d7769" d="M 206.5,189.5 C 210.241,188.599 212.241,189.932 212.5,193.5C 211.833,194.5 211.167,195.5 210.5,196.5C 208.5,198.167 206.5,199.833 204.5,201.5C 203.751,198.905 202.084,197.738 199.5,198C 195.022,202.401 190.355,206.568 185.5,210.5C 186.609,212.214 185.942,212.881 183.5,212.5C 183.5,213.5 183.5,214.5 183.5,215.5C 180.214,216.207 176.881,216.54 173.5,216.5C 173.5,216.167 173.5,215.833 173.5,215.5C 185.732,208.532 196.732,199.865 206.5,189.5 Z"/></g>
<g><path style="opacity:1" fill="#c4c7bf" d="M 41.5,190.5 C 43.8062,193.473 46.4728,196.14 49.5,198.5C 50.8333,200.5 52.5,202.167 54.5,203.5C 56.424,205.485 58.424,207.485 60.5,209.5C 60.1667,209.833 59.8333,210.167 59.5,210.5C 58.0603,209.048 56.3936,208.048 54.5,207.5C 48.3904,202.729 43.3904,197.062 39.5,190.5C 39.9377,189.494 40.6043,189.494 41.5,190.5 Z"/></g>
<g><path style="opacity:1" fill="#37372b" d="M 210.5,196.5 C 207.167,201.833 202.833,206.167 197.5,209.5C 199.833,206.833 202.167,204.167 204.5,201.5C 206.5,199.833 208.5,198.167 210.5,196.5 Z"/></g>
<g><path style="opacity:1" fill="#788782" d="M 49.5,187.5 C 54.1396,192.806 59.1396,197.806 64.5,202.5C 63.6661,203.748 62.3328,204.415 60.5,204.5C 58.4523,204.328 56.4523,203.995 54.5,203.5C 52.5,202.167 50.8333,200.5 49.5,198.5C 51.1207,198.213 52.1207,197.213 52.5,195.5C 51.7967,192.66 50.7967,189.993 49.5,187.5 Z"/></g>
<g><path style="opacity:1" fill="#cbd1d1" d="M 34.5,151.5 C 41.4996,171.045 52.8329,187.878 68.5,202C 75.3085,206.728 82.3085,210.894 89.5,214.5C 90.2905,215.401 91.2905,216.068 92.5,216.5C 92.1583,217.338 91.4916,217.672 90.5,217.5C 88.079,217.122 85.7457,216.455 83.5,215.5C 77.0303,211.427 70.6969,207.093 64.5,202.5C 59.1396,197.806 54.1396,192.806 49.5,187.5C 48.9202,185.251 47.5869,183.585 45.5,182.5C 42.8299,177.825 40.1633,173.159 37.5,168.5C 34.9454,164.965 33.6121,160.965 33.5,156.5C 34.4511,155.081 34.7845,153.415 34.5,151.5 Z"/></g>
<g><path style="opacity:1" fill="#aaa79c" d="M 64.5,202.5 C 70.6969,207.093 77.0303,211.427 83.5,215.5C 83.1667,215.5 82.8333,215.5 82.5,215.5C 82.1667,215.5 81.8333,215.5 81.5,215.5C 76.1121,213.931 70.9455,211.931 66,209.5C 64.0902,211.627 64.2569,213.627 66.5,215.5C 65.8333,215.5 65.1667,215.5 64.5,215.5C 60.4281,213.792 57.0948,211.126 54.5,207.5C 56.3936,208.048 58.0603,209.048 59.5,210.5C 59.8333,210.167 60.1667,209.833 60.5,209.5C 58.424,207.485 56.424,205.485 54.5,203.5C 56.4523,203.995 58.4523,204.328 60.5,204.5C 62.3328,204.415 63.6661,203.748 64.5,202.5 Z"/></g>
<g><path style="opacity:1" fill="#545557" d="M 89.5,214.5 C 91.8984,214.259 93.8984,214.926 95.5,216.5C 94.5,216.5 93.5,216.5 92.5,216.5C 91.2905,216.068 90.2905,215.401 89.5,214.5 Z"/></g>
<g><path style="opacity:1" fill="#645f48" d="M 64.5,215.5 C 65.1667,215.5 65.8333,215.5 66.5,215.5C 70.723,217.462 74.723,219.795 78.5,222.5C 73.2636,221.215 68.5969,218.882 64.5,215.5 Z"/></g>
<g><path style="opacity:1" fill="#090b0c" d="M 57.5,101.5 C 57.1417,104.267 56.475,106.933 55.5,109.5C 52.8516,108.838 50.1849,108.171 47.5,107.5C 44.5664,111.293 41.733,115.293 39,119.5C 38.1881,123.689 38.3547,127.689 39.5,131.5C 40.4706,133.483 41.4706,135.483 42.5,137.5C 44.1853,143.753 45.6853,150.087 47,156.5C 47.3826,157.056 47.8826,157.389 48.5,157.5C 50.233,163.883 53.233,169.55 57.5,174.5C 60.1699,178.012 62.6699,181.678 65,185.5C 68.0628,188.076 71.2295,190.409 74.5,192.5C 75.2623,194.262 76.5956,195.262 78.5,195.5C 78.9081,196.643 79.5748,197.643 80.5,198.5C 83.455,199.543 86.1217,200.877 88.5,202.5C 93.7596,205.279 99.4263,207.279 105.5,208.5C 135.489,215.598 161.989,208.598 185,187.5C 185.591,186.517 185.257,185.85 184,185.5C 170.926,197.194 155.76,204.694 138.5,208C 132.509,208.499 126.509,208.666 120.5,208.5C 122.389,207.678 124.389,206.845 126.5,206C 125.376,205.751 124.376,205.251 123.5,204.5C 124.165,202.899 124.499,201.399 124.5,200C 123.263,199.768 122.263,199.268 121.5,198.5C 128.747,198.888 135.747,198.221 142.5,196.5C 160.947,191.951 175.613,181.951 186.5,166.5C 187.108,167.8 187.775,169.133 188.5,170.5C 187.669,172.473 187.502,174.473 188,176.5C 188.414,176.043 188.914,175.709 189.5,175.5C 190.14,180.062 191.306,180.396 193,176.5C 193.483,177.448 193.649,178.448 193.5,179.5C 192.191,182.778 190.358,185.778 188,188.5C 172.062,205.097 152.895,215.597 130.5,220C 131.43,220.991 132.596,221.491 134,221.5C 156.881,217.638 177.047,208.304 194.5,193.5C 199.357,185.051 204.023,176.718 208.5,168.5C 209.458,168.047 210.292,167.381 211,166.5C 214,159.533 215.834,152.2 216.5,144.5C 217.086,144.709 217.586,145.043 218,145.5C 218.682,143.062 218.182,140.895 216.5,139C 216.905,138.055 217.572,137.388 218.5,137C 217.358,130.916 217.191,124.749 218,118.5C 219.016,117.366 219.683,117.699 220,119.5C 221.851,130.094 223.017,140.761 223.5,151.5C 223.196,154.522 222.696,157.522 222,160.5C 217.873,170.756 212.706,180.422 206.5,189.5C 196.732,199.865 185.732,208.532 173.5,215.5C 170.228,216.758 166.894,217.925 163.5,219C 162.058,219.377 161.058,220.21 160.5,221.5C 156.816,222.609 153.149,223.609 149.5,224.5C 144.489,224.612 139.489,224.946 134.5,225.5C 126.107,222.766 117.44,221.099 108.5,220.5C 103.886,219.915 99.5531,218.582 95.5,216.5C 93.8984,214.926 91.8984,214.259 89.5,214.5C 82.3085,210.894 75.3085,206.728 68.5,202C 52.8329,187.878 41.4996,171.045 34.5,151.5C 34.2249,146.223 33.2249,141.223 31.5,136.5C 31.3032,125.101 31.9698,113.767 33.5,102.5C 33.5488,98.9219 34.2154,95.5885 35.5,92.5C 36.6896,88.2104 38.6896,84.2104 41.5,80.5C 44.1553,79.9993 46.322,78.6659 48,76.5C 48.6667,77.1667 49.3333,77.8333 50,78.5C 52.6764,75.6103 54.843,72.4436 56.5,69C 57.646,68.3551 58.646,67.5217 59.5,66.5C 60.1667,66.8333 60.8333,67.1667 61.5,67.5C 62.4803,66.0186 63.647,64.6853 65,63.5C 65.3223,71.3823 62.1557,77.3823 55.5,81.5C 54.0314,85.0193 54.6981,88.0193 57.5,90.5C 57.093,94.0756 57.093,97.7422 57.5,101.5 Z"/></g>
<g><path style="opacity:1" fill="#84775e" d="M 88.5,202.5 C 91.0409,203.103 93.3743,203.103 95.5,202.5C 97.0495,203.441 98.7162,204.107 100.5,204.5C 102.421,205.363 104.421,206.029 106.5,206.5C 107.263,207.268 108.263,207.768 109.5,208C 108.207,208.49 106.873,208.657 105.5,208.5C 99.4263,207.279 93.7596,205.279 88.5,202.5 Z"/></g>
<g><path style="opacity:1" fill="#363632" d="M 105.5,208.5 C 106.873,208.657 108.207,208.49 109.5,208C 108.263,207.768 107.263,207.268 106.5,206.5C 111.015,207.982 115.681,208.648 120.5,208.5C 126.509,208.666 132.509,208.499 138.5,208C 155.76,204.694 170.926,197.194 184,185.5C 185.257,185.85 185.591,186.517 185,187.5C 161.989,208.598 135.489,215.598 105.5,208.5 Z"/></g>
<g><path style="opacity:1" fill="#1c1205" d="M 109.5,197.5 C 111.833,197.5 114.167,197.5 116.5,197.5C 117.919,198.451 119.585,198.784 121.5,198.5C 122.263,199.268 123.263,199.768 124.5,200C 124.499,201.399 124.165,202.899 123.5,204.5C 124.376,205.251 125.376,205.751 126.5,206C 124.389,206.845 122.389,207.678 120.5,208.5C 115.681,208.648 111.015,207.982 106.5,206.5C 106.821,204.952 107.821,204.285 109.5,204.5C 109.5,202.167 109.5,199.833 109.5,197.5 Z"/></g>
<g><path style="opacity:1" fill="#45270b" d="M 101.5,194.5 C 104.443,194.98 107.11,195.98 109.5,197.5C 109.5,199.833 109.5,202.167 109.5,204.5C 107.821,204.285 106.821,204.952 106.5,206.5C 104.421,206.029 102.421,205.363 100.5,204.5C 100.187,200.958 100.521,197.625 101.5,194.5 Z"/></g>
<g><path style="opacity:1" fill="#c1a96a" d="M 78.5,195.5 C 80.1667,196.167 81.8333,196.833 83.5,197.5C 85.8333,198.167 88.1667,198.833 90.5,199.5C 91.8993,200.89 93.5659,201.89 95.5,202.5C 93.3743,203.103 91.0409,203.103 88.5,202.5C 86.1217,200.877 83.455,199.543 80.5,198.5C 79.5748,197.643 78.9081,196.643 78.5,195.5 Z"/></g>
<g><path style="opacity:1" fill="#31322f" d="M 130.5,193.5 C 132.607,192.532 134.941,192.198 137.5,192.5C 139.265,193.461 141.265,193.795 143.5,193.5C 141.502,194.148 139.502,194.981 137.5,196C 139.134,196.494 140.801,196.66 142.5,196.5C 135.747,198.221 128.747,198.888 121.5,198.5C 119.585,198.784 117.919,198.451 116.5,197.5C 117.873,197.657 119.207,197.49 120.5,197C 118.942,196.79 117.609,196.29 116.5,195.5C 123.284,195.92 129.95,195.42 136.5,194C 134.527,193.505 132.527,193.338 130.5,193.5 Z"/></g>
<g><path style="opacity:1" fill="#805914" d="M 93.5,190.5 C 95.7188,192.606 98.3855,193.606 101.5,193.5C 101.5,193.833 101.5,194.167 101.5,194.5C 100.521,197.625 100.187,200.958 100.5,204.5C 98.7162,204.107 97.0495,203.441 95.5,202.5C 96.0594,198.435 95.3928,194.435 93.5,190.5 Z"/></g>
<g><path style="opacity:1" fill="#4a4233" d="M 83.5,180.5 C 91.332,185.66 99.6653,189.66 108.5,192.5C 110.698,194.397 113.364,195.397 116.5,195.5C 117.609,196.29 118.942,196.79 120.5,197C 119.207,197.49 117.873,197.657 116.5,197.5C 114.167,197.5 111.833,197.5 109.5,197.5C 107.11,195.98 104.443,194.98 101.5,194.5C 101.5,194.167 101.5,193.833 101.5,193.5C 102.738,193.19 102.738,192.69 101.5,192C 94.555,189.378 88.555,185.544 83.5,180.5 Z"/></g>
<g><path style="opacity:1" fill="#b78c2b" d="M 91.5,189.5 C 92.1667,189.833 92.8333,190.167 93.5,190.5C 95.3928,194.435 96.0594,198.435 95.5,202.5C 93.5659,201.89 91.8993,200.89 90.5,199.5C 92.7846,196.435 93.1179,193.102 91.5,189.5 Z"/></g>
<g><path style="opacity:1" fill="#0b0c09" d="M 108.5,192.5 C 115.804,193.302 123.138,193.635 130.5,193.5C 132.527,193.338 134.527,193.505 136.5,194C 129.95,195.42 123.284,195.92 116.5,195.5C 113.364,195.397 110.698,194.397 108.5,192.5 Z"/></g>
<g><path style="opacity:1" fill="#efd351" d="M 81.5,182.5 C 84.8333,184.833 88.1667,187.167 91.5,189.5C 93.1179,193.102 92.7846,196.435 90.5,199.5C 88.1667,198.833 85.8333,198.167 83.5,197.5C 82.1944,195.184 80.8611,192.85 79.5,190.5C 74.9974,190.692 72.3307,188.692 71.5,184.5C 71.3691,183.624 71.7025,182.957 72.5,182.5C 75.4091,182.116 78.4091,182.116 81.5,182.5 Z"/></g>
<g><path style="opacity:1" fill="#ebdf83" d="M 69.5,184.5 C 70.1667,184.5 70.8333,184.5 71.5,184.5C 72.3307,188.692 74.9974,190.692 79.5,190.5C 80.8611,192.85 82.1944,195.184 83.5,197.5C 81.8333,196.833 80.1667,196.167 78.5,195.5C 76.5956,195.262 75.2623,194.262 74.5,192.5C 72.0105,190.345 70.3439,187.678 69.5,184.5 Z"/></g>
<g><path style="opacity:1" fill="#ad9854" d="M 80.5,180.5 C 81.1667,180.5 81.8333,180.5 82.5,180.5C 82.8333,180.5 83.1667,180.5 83.5,180.5C 88.555,185.544 94.555,189.378 101.5,192C 102.738,192.69 102.738,193.19 101.5,193.5C 98.3855,193.606 95.7188,192.606 93.5,190.5C 92.8333,190.167 92.1667,189.833 91.5,189.5C 88.1667,187.167 84.8333,184.833 81.5,182.5C 81.1667,181.833 80.8333,181.167 80.5,180.5 Z"/></g>
<g><path style="opacity:1" fill="#bfab68" d="M 58.5,172.5 C 58.8333,173.5 59.5,174.167 60.5,174.5C 61.517,176.911 63.1837,178.578 65.5,179.5C 65.831,182.038 67.1643,183.704 69.5,184.5C 70.3439,187.678 72.0105,190.345 74.5,192.5C 71.2295,190.409 68.0628,188.076 65,185.5C 62.6699,181.678 60.1699,178.012 57.5,174.5C 57.3284,173.508 57.6618,172.842 58.5,172.5 Z"/></g>
<g><path style="opacity:1" fill="#172324" d="M 196.5,123.5 C 197.483,127.298 197.817,131.298 197.5,135.5C 197.293,138.745 198.793,140.745 202,141.5C 206.22,140.73 210.386,139.73 214.5,138.5C 214.666,143.179 214.499,147.845 214,152.5C 211.863,157.745 210.03,163.078 208.5,168.5C 204.023,176.718 199.357,185.051 194.5,193.5C 177.047,208.304 156.881,217.638 134,221.5C 132.596,221.491 131.43,220.991 130.5,220C 152.895,215.597 172.062,205.097 188,188.5C 190.358,185.778 192.191,182.778 193.5,179.5C 197.823,173.53 201.657,167.197 205,160.5C 205.819,155.045 207.319,149.878 209.5,145C 207.074,145.048 204.741,144.881 202.5,144.5C 201.719,145.729 201.219,147.062 201,148.5C 199.54,146.578 197.873,145.911 196,146.5C 195.888,138.84 196.054,131.173 196.5,123.5 Z"/></g>
<g><path style="opacity:1" fill="#434c4a" d="M 186.5,166.5 C 175.613,181.951 160.947,191.951 142.5,196.5C 140.801,196.66 139.134,196.494 137.5,196C 139.502,194.981 141.502,194.148 143.5,193.5C 161.379,188.806 175.546,178.806 186,163.5C 186.483,164.448 186.649,165.448 186.5,166.5 Z"/></g>
<g><path style="opacity:1" fill="#e6be46" d="M 72.5,172.5 C 74.8333,175.5 77.5,178.167 80.5,180.5C 80.8333,181.167 81.1667,181.833 81.5,182.5C 78.4091,182.116 75.4091,182.116 72.5,182.5C 71.7025,182.957 71.3691,183.624 71.5,184.5C 70.8333,184.5 70.1667,184.5 69.5,184.5C 67.1643,183.704 65.831,182.038 65.5,179.5C 65.281,178.325 65.6143,177.325 66.5,176.5C 68.1331,174.497 70.1331,173.164 72.5,172.5 Z"/></g>
<g><path style="opacity:1" fill="#a57a33" d="M 72.5,172.5 C 70.1331,173.164 68.1331,174.497 66.5,176.5C 65.6143,177.325 65.281,178.325 65.5,179.5C 63.1837,178.578 61.517,176.911 60.5,174.5C 62.9822,173.337 64.3155,171.337 64.5,168.5C 68.1488,167.414 70.8155,168.748 72.5,172.5 Z"/></g>
<g><path style="opacity:1" fill="#744519" d="M 64.5,167.5 C 64.5,167.833 64.5,168.167 64.5,168.5C 64.3155,171.337 62.9822,173.337 60.5,174.5C 59.5,174.167 58.8333,173.5 58.5,172.5C 58.5,172.167 58.5,171.833 58.5,171.5C 59.9473,170.378 60.9473,168.878 61.5,167C 62.5768,166.53 63.5768,166.697 64.5,167.5 Z"/></g>
<g><path style="opacity:1" fill="#938574" d="M 49.5,155.5 C 51.1601,158.798 52.8267,162.131 54.5,165.5C 55.4411,167.772 56.7745,169.772 58.5,171.5C 58.5,171.833 58.5,172.167 58.5,172.5C 57.6618,172.842 57.3284,173.508 57.5,174.5C 53.233,169.55 50.233,163.883 48.5,157.5C 48.3284,156.508 48.6618,155.842 49.5,155.5 Z"/></g>
<g><path style="opacity:1" fill="#796d4e" d="M 58.5,150.5 C 59.3764,150.369 60.0431,150.702 60.5,151.5C 65.6171,162.937 72.9504,172.604 82.5,180.5C 81.8333,180.5 81.1667,180.5 80.5,180.5C 77.5,178.167 74.8333,175.5 72.5,172.5C 70.8155,168.748 68.1488,167.414 64.5,168.5C 64.5,168.167 64.5,167.833 64.5,167.5C 64.8676,163.956 63.8676,160.956 61.5,158.5C 60.5,155.833 59.5,153.167 58.5,150.5 Z"/></g>
<g><path style="opacity:1" fill="#472d12" d="M 61.5,158.5 C 63.8676,160.956 64.8676,163.956 64.5,167.5C 63.5768,166.697 62.5768,166.53 61.5,167C 60.9473,168.878 59.9473,170.378 58.5,171.5C 56.7745,169.772 55.4411,167.772 54.5,165.5C 55.3764,165.631 56.0431,165.298 56.5,164.5C 54.4391,159.554 56.1057,157.554 61.5,158.5 Z"/></g>
<g><path style="opacity:1" fill="#df6d27" d="M 105.5,142.5 C 106.43,146.4 106.763,150.4 106.5,154.5C 102.5,154.5 98.5,154.5 94.5,154.5C 94.5,150.5 94.5,146.5 94.5,142.5C 98.1667,142.5 101.833,142.5 105.5,142.5 Z"/></g>
<g><path style="opacity:1" fill="#56554b" d="M 42.5,137.5 C 43.1667,137.5 43.8333,137.5 44.5,137.5C 44.8333,138.167 45.1667,138.833 45.5,139.5C 46.4265,144.906 47.7598,150.24 49.5,155.5C 48.6618,155.842 48.3284,156.508 48.5,157.5C 47.8826,157.389 47.3826,157.056 47,156.5C 45.6853,150.087 44.1853,143.753 42.5,137.5 Z"/></g>
<g><path style="opacity:1" fill="#1c150a" d="M 54.5,132.5 C 55.4345,133.568 55.7678,134.901 55.5,136.5C 55.8692,141.309 56.8692,145.976 58.5,150.5C 59.5,153.167 60.5,155.833 61.5,158.5C 56.1057,157.554 54.4391,159.554 56.5,164.5C 56.0431,165.298 55.3764,165.631 54.5,165.5C 52.8267,162.131 51.1601,158.798 49.5,155.5C 47.7598,150.24 46.4265,144.906 45.5,139.5C 48.3748,139.63 51.3748,139.297 54.5,138.5C 54.5,137.167 54.5,135.833 54.5,134.5C 54.5,133.833 54.5,133.167 54.5,132.5 Z"/></g>
<g><path style="opacity:1" fill="#fd6501" d="M 95.5,143.5 C 98.5,143.5 101.5,143.5 104.5,143.5C 104.5,146.833 104.5,150.167 104.5,153.5C 101.5,153.5 98.5,153.5 95.5,153.5C 95.5,150.167 95.5,146.833 95.5,143.5 Z"/></g>
<g><path style="opacity:1" fill="#432b06" d="M 54.5,134.5 C 54.5,135.833 54.5,137.167 54.5,138.5C 51.3748,139.297 48.3748,139.63 45.5,139.5C 45.1667,138.833 44.8333,138.167 44.5,137.5C 44.5,136.5 44.5,135.5 44.5,134.5C 48.0442,134.72 51.3776,134.72 54.5,134.5 Z"/></g>
<g><path style="opacity:1" fill="#f4f4f4" d="M 95.5,132.5 C 110.324,131.504 125.324,131.171 140.5,131.5C 140.5,134.833 140.5,138.167 140.5,141.5C 123.47,141.853 109.803,141.52 99.5,140.5C 100.226,136.693 98.8926,134.026 95.5,132.5 Z"/></g>
<g><path style="opacity:1" fill="#e3b03d" d="M 44.5,131.5 C 44.6495,130.448 44.4828,129.448 44,128.5C 43.2597,126.681 42.0931,125.348 40.5,124.5C 42.3699,119.067 46.0365,117.067 51.5,118.5C 52.657,121.784 52.8236,125.118 52,128.5C 50.1521,130.953 47.6521,131.953 44.5,131.5 Z"/></g>
<g><path style="opacity:1" fill="#e1c468" d="M 40.5,124.5 C 42.0931,125.348 43.2597,126.681 44,128.5C 44.4828,129.448 44.6495,130.448 44.5,131.5C 43.6618,131.842 43.3284,132.508 43.5,133.5C 41.9382,133.267 40.6049,132.6 39.5,131.5C 39.5,129.5 39.5,127.5 39.5,125.5C 40.1667,125.5 40.5,125.167 40.5,124.5 Z"/></g>
<g><path style="opacity:1" fill="#2d2b2b" d="M 152.5,119.5 C 153.495,130.988 153.828,142.655 153.5,154.5C 137.833,154.5 122.167,154.5 106.5,154.5C 106.763,150.4 106.43,146.4 105.5,142.5C 117.5,142.5 129.5,142.5 141.5,142.5C 130.346,143.495 119.012,143.828 107.5,143.5C 107.5,146.833 107.5,150.167 107.5,153.5C 122.5,153.5 137.5,153.5 152.5,153.5C 152.5,142.167 152.5,130.833 152.5,119.5 Z"/></g>
<g><path style="opacity:1" fill="#848484" d="M 106.5,118.5 C 106.833,118.5 107.167,118.5 107.5,118.5C 120.167,118.5 132.833,118.5 145.5,118.5C 148.5,118.5 151.5,118.5 154.5,118.5C 154.5,130.5 154.5,142.5 154.5,154.5C 154.167,154.5 153.833,154.5 153.5,154.5C 153.828,142.655 153.495,130.988 152.5,119.5C 136.991,119.83 121.658,119.496 106.5,118.5 Z"/></g>
<g><path style="opacity:1" fill="#b7af97" d="M 81.5,215.5 C 81.2786,216.735 80.6119,217.735 79.5,218.5C 84.1602,220.495 88.4935,222.995 92.5,226C 92.2716,226.399 91.9382,226.565 91.5,226.5C 89.5648,225.85 87.5648,225.517 85.5,225.5C 83.0202,224.758 80.6869,223.758 78.5,222.5C 74.723,219.795 70.723,217.462 66.5,215.5C 64.2569,213.627 64.0902,211.627 66,209.5C 70.9455,211.931 76.1121,213.931 81.5,215.5 Z"/></g>
<g><path style="opacity:1" fill="#99917e" d="M 204.5,201.5 C 202.167,204.167 199.833,206.833 197.5,209.5C 181.328,221.458 163.328,229.624 143.5,234C 133.09,234.808 122.757,234.641 112.5,233.5C 105.384,231.572 98.3835,229.239 91.5,226.5C 91.9382,226.565 92.2716,226.399 92.5,226C 88.4935,222.995 84.1602,220.495 79.5,218.5C 80.6119,217.735 81.2786,216.735 81.5,215.5C 81.8333,215.5 82.1667,215.5 82.5,215.5C 84.5721,217.076 86.5721,218.909 88.5,221C 95.9016,222.688 102.902,225.355 109.5,229C 116.996,229.074 124.329,228.574 131.5,227.5C 137.755,227.284 143.755,226.284 149.5,224.5C 153.149,223.609 156.816,222.609 160.5,221.5C 165.011,220.069 169.345,218.402 173.5,216.5C 176.881,216.54 180.214,216.207 183.5,215.5C 183.5,214.5 183.5,213.5 183.5,212.5C 185.942,212.881 186.609,212.214 185.5,210.5C 190.355,206.568 195.022,202.401 199.5,198C 202.084,197.738 203.751,198.905 204.5,201.5 Z"/></g>
<g><path style="opacity:1" fill="#535248" d="M 108.5,220.5 C 117.44,221.099 126.107,222.766 134.5,225.5C 139.489,224.946 144.489,224.612 149.5,224.5C 143.755,226.284 137.755,227.284 131.5,227.5C 127.774,227.823 124.107,227.489 120.5,226.5C 121.833,225.833 123.167,225.167 124.5,224.5C 121.87,223.619 119.203,222.952 116.5,222.5C 113.572,222.435 110.905,221.768 108.5,220.5 Z"/></g>
<g><path style="opacity:1" fill="#7b8072" d="M 82.5,215.5 C 82.8333,215.5 83.1667,215.5 83.5,215.5C 85.7457,216.455 88.079,217.122 90.5,217.5C 98.6411,222.838 107.641,225.005 117.5,224C 116.944,223.617 116.611,223.117 116.5,222.5C 119.203,222.952 121.87,223.619 124.5,224.5C 123.167,225.167 121.833,225.833 120.5,226.5C 124.107,227.489 127.774,227.823 131.5,227.5C 124.329,228.574 116.996,229.074 109.5,229C 102.902,225.355 95.9016,222.688 88.5,221C 86.5721,218.909 84.5721,217.076 82.5,215.5 Z"/></g>
<g><path style="opacity:1" fill="#4f483c" d="M 173.5,215.5 C 173.5,215.833 173.5,216.167 173.5,216.5C 169.345,218.402 165.011,220.069 160.5,221.5C 161.058,220.21 162.058,219.377 163.5,219C 166.894,217.925 170.228,216.758 173.5,215.5 Z"/></g>
<g><path style="opacity:1" fill="#adb8b4" d="M 92.5,216.5 C 93.5,216.5 94.5,216.5 95.5,216.5C 99.5531,218.582 103.886,219.915 108.5,220.5C 110.905,221.768 113.572,222.435 116.5,222.5C 116.611,223.117 116.944,223.617 117.5,224C 107.641,225.005 98.6411,222.838 90.5,217.5C 91.4916,217.672 92.1583,217.338 92.5,216.5 Z"/></g>
<g><path style="opacity:1" fill="#635d4e" d="M 85.5,225.5 C 87.5648,225.517 89.5648,225.85 91.5,226.5C 98.3835,229.239 105.384,231.572 112.5,233.5C 102.801,232.83 93.8011,230.163 85.5,225.5 Z"/></g>
</svg>
