<?xml version="1.0" encoding="UTF-8"?>
<!DOCTYPE svg PUBLIC "-//W3C//DTD SVG 1.1//EN" "http://www.w3.org/Graphics/SVG/1.1/DTD/svg11.dtd">
<svg xmlns="http://www.w3.org/2000/svg" version="1.1" width="243px" height="243px" style="shape-rendering:geometricPrecision; text-rendering:geometricPrecision; image-rendering:optimizeQuality; fill-rule:evenodd; clip-rule:evenodd" xmlns:xlink="http://www.w3.org/1999/xlink">
<g><path style="opacity:0.987" fill="#e7e5db" d="M 88.5,-0.5 C 109.167,-0.5 129.833,-0.5 150.5,-0.5C 200.29,15.2884 230.957,48.6217 242.5,99.5C 242.5,113.5 242.5,127.5 242.5,141.5C 230.348,193.986 198.348,227.653 146.5,242.5C 128.5,242.5 110.5,242.5 92.5,242.5C 45.938,229.604 14.938,200.271 -0.5,154.5C -0.5,131.833 -0.5,109.167 -0.5,86.5C 14.3303,42.3366 43.9969,13.3366 88.5,-0.5 Z"/></g>
<g><path style="opacity:1" fill="#040405" d="M 5.5,104.5 C 6.16667,107.167 6.83333,109.833 7.5,112.5C 26.9929,113.497 46.6596,113.83 66.5,113.5C 66.5,116.5 66.5,119.5 66.5,122.5C 46.3264,122.17 26.3264,122.503 6.5,123.5C 6.18178,128.032 6.51511,132.366 7.5,136.5C 7.5,136.833 7.5,137.167 7.5,137.5C 28.4021,138.177 49.4021,138.844 70.5,139.5C 70.8333,139.5 71.1667,139.5 71.5,139.5C 71.5569,140.609 71.8902,141.609 72.5,142.5C 73.1098,143.391 73.4431,144.391 73.5,145.5C 57.3589,147.162 41.0256,148.162 24.5,148.5C 23.1764,153.234 23.1764,158.067 24.5,163C 40.5,163.333 56.5,163.667 72.5,164C 74.7705,166.782 77.4372,168.949 80.5,170.5C 84.1477,173.66 88.1477,176.327 92.5,178.5C 94.0326,180.245 96.0326,181.245 98.5,181.5C 101.592,182.184 104.592,183.184 107.5,184.5C 108.919,185.451 110.585,185.784 112.5,185.5C 112.167,188.167 111.833,190.833 111.5,193.5C 110.566,194.568 110.232,195.901 110.5,197.5C 103.306,196.58 96.306,194.913 89.5,192.5C 84.6449,190.345 79.9782,187.678 75.5,184.5C 71.1208,181.3 67.1208,177.633 63.5,173.5C 56.3524,172.508 49.0191,172.175 41.5,172.5C 41.5,177.5 41.5,182.5 41.5,187.5C 47.1667,187.5 52.8333,187.5 58.5,187.5C 59.9108,189.914 61.9108,191.581 64.5,192.5C 67.7365,195.797 71.4031,198.63 75.5,201C 77.4068,202.122 79.4068,202.955 81.5,203.5C 84.3399,205.915 87.6733,207.248 91.5,207.5C 91.6107,208.117 91.944,208.617 92.5,209C 95.146,209.497 97.8127,209.664 100.5,209.5C 101.167,210.167 101.833,210.833 102.5,211.5C 109.114,212.904 115.947,213.571 123,213.5C 127.015,213.499 130.849,213.165 134.5,212.5C 137.833,212.167 141.167,211.833 144.5,211.5C 150.457,210.852 155.79,208.852 160.5,205.5C 165.186,203.132 169.853,200.799 174.5,198.5C 178.736,195.364 183.07,192.197 187.5,189C 190.777,186.234 193.443,183.067 195.5,179.5C 196.833,178.5 198.167,177.5 199.5,176.5C 202.605,173.725 204.938,170.392 206.5,166.5C 209.617,160.819 211.95,154.819 213.5,148.5C 199.328,147.833 184.994,147.167 170.5,146.5C 177.303,133.763 179.303,120.429 176.5,106.5C 175.918,102.468 174.584,98.8013 172.5,95.5C 171.529,93.5168 170.529,91.5168 169.5,89.5C 184.167,88.8333 198.833,88.1667 213.5,87.5C 210.054,72.9556 202.721,60.6223 191.5,50.5C 188.455,47.4534 185.122,44.7867 181.5,42.5C 172.548,34.5612 162.214,29.2279 150.5,26.5C 146.645,23.9645 142.312,22.9645 137.5,23.5C 119.325,20.5002 101.658,22.6668 84.5,30C 83.0577,30.3768 82.0577,31.2101 81.5,32.5C 79.847,32.6596 78.5137,33.3263 77.5,34.5C 72.8033,36.1775 68.8033,38.8442 65.5,42.5C 62.7746,43.713 60.4412,45.5464 58.5,48C 52.8431,48.4994 47.1764,48.6661 41.5,48.5C 41.5,53.1667 41.5,57.8333 41.5,62.5C 49.3516,62.8254 57.0182,62.492 64.5,61.5C 69.1927,57.1386 73.8594,52.8052 78.5,48.5C 84.8423,45.6617 91.1756,42.8284 97.5,40C 101.832,39.4167 106.165,38.9167 110.5,38.5C 111.488,42.4848 112.488,46.4848 113.5,50.5C 111.565,51.1495 109.565,51.4828 107.5,51.5C 97.6275,53.5597 88.9608,57.893 81.5,64.5C 77.5,66.5 74.5,69.5 72.5,73.5C 72.1667,73.5 71.8333,73.5 71.5,73.5C 57.8333,73.5 44.1667,73.5 30.5,73.5C 28.5,73.5 26.5,73.5 24.5,73.5C 23.1764,78.2337 23.1764,83.0671 24.5,88C 42.3381,88.8286 60.0048,88.6619 77.5,87.5C 77.5,87.1667 77.5,86.8333 77.5,86.5C 78.5,86.1667 79.1667,85.5 79.5,84.5C 83.1938,80.1396 87.1938,76.1396 91.5,72.5C 92.1667,72.5 92.8333,72.5 93.5,72.5C 94.4959,72.5858 95.3292,72.2524 96,71.5C 96.4643,72.0944 96.631,72.7611 96.5,73.5C 96.5,73.8333 96.5,74.1667 96.5,74.5C 87.3575,79.0994 80.6908,86.0994 76.5,95.5C 75.1805,96.9418 73.5138,97.6085 71.5,97.5C 50.1667,97.5 28.8333,97.5 7.5,97.5C 7.5,97.1667 7.5,96.8333 7.5,96.5C 21.0655,43.7174 54.7321,12.8841 108.5,4C 154.509,1.42568 191.009,18.5923 218,55.5C 246.643,105.502 243.643,153.502 209,199.5C 171.544,237.981 127.377,248.481 76.5,231C 39.4312,213.919 16.2646,185.419 7,145.5C 4.60218,131.882 4.10218,118.216 5.5,104.5 Z"/></g>
<g><path style="opacity:1" fill="#40275c" d="M 137.5,23.5 C 142.312,22.9645 146.645,23.9645 150.5,26.5C 146.089,25.402 141.755,24.402 137.5,23.5 Z"/></g>
<g><path style="opacity:1" fill="#4c4082" d="M 137.5,23.5 C 131.5,23.5 125.5,23.5 119.5,23.5C 108.463,23.1893 98.13,25.5227 88.5,30.5C 86.4418,31.9331 84.1085,32.5997 81.5,32.5C 82.0577,31.2101 83.0577,30.3768 84.5,30C 101.658,22.6668 119.325,20.5002 137.5,23.5 Z"/></g>
<g><path style="opacity:1" fill="#7672f7" d="M 119.5,23.5 C 116.003,24.4025 112.337,25.0691 108.5,25.5C 103.914,25.7402 100.247,27.7402 97.5,31.5C 98.6006,35.1199 100.934,37.1199 104.5,37.5C 98.6873,37.8979 93.1873,39.5646 88,42.5C 87.3828,41.5509 87.5494,40.7175 88.5,40C 87.8333,39.6667 87.1667,39.3333 86.5,39C 87.6853,37.647 89.0186,36.4803 90.5,35.5C 89.5,34.8333 88.5,34.1667 87.5,33.5C 88.1272,32.5832 88.4606,31.5832 88.5,30.5C 98.13,25.5227 108.463,23.1893 119.5,23.5 Z"/></g>
<g><path style="opacity:1" fill="#874dfb" d="M 119.5,23.5 C 125.5,23.5 131.5,23.5 137.5,23.5C 141.755,24.402 146.089,25.402 150.5,26.5C 151.913,27.9348 153.58,28.9348 155.5,29.5C 152.68,29.0387 150.013,29.0387 147.5,29.5C 144.436,27.7018 141.103,26.7018 137.5,26.5C 133.469,24.5613 129.136,24.0613 124.5,25C 122.077,26.5707 120.744,28.7374 120.5,31.5C 123.119,31.7683 125.619,31.435 128,30.5C 133.706,32.381 133.206,33.5476 126.5,34C 125.572,34.3879 124.905,35.0546 124.5,36C 125.833,41.6667 125.833,47.3333 124.5,53C 125.996,56.3098 127.663,59.4765 129.5,62.5C 123.996,62.9316 118.663,62.2649 113.5,60.5C 111.112,57.5176 111.612,54.851 115,52.5C 115.425,48.1305 115.092,43.7972 114,39.5C 111.454,35.9504 107.954,34.6171 103.5,35.5C 103.324,31.8079 104.991,29.8079 108.5,29.5C 108.5,28.1667 108.5,26.8333 108.5,25.5C 112.337,25.0691 116.003,24.4025 119.5,23.5 Z"/></g>
<g><path style="opacity:1" fill="#9f3bef" d="M 137.5,26.5 C 141.103,26.7018 144.436,27.7018 147.5,29.5C 150.013,29.0387 152.68,29.0387 155.5,29.5C 157.176,30.1834 157.843,31.5168 157.5,33.5C 158.93,33.4208 160.264,33.7542 161.5,34.5C 162.187,36.2744 163.02,37.9411 164,39.5C 164.333,45.8333 164.667,52.1667 165,58.5C 168.511,61.9935 167.845,64.6602 163,66.5C 161.433,65.1439 159.6,64.4772 157.5,64.5C 156.964,69.3548 158.964,71.5214 163.5,71C 164.147,69.3905 164.98,67.8905 166,66.5C 167.158,66.9981 167.991,67.8315 168.5,69C 166.974,71.8594 164.807,74.0261 162,75.5C 160.061,75.0457 158.228,74.379 156.5,73.5C 150.522,69.6771 144.189,66.6771 137.5,64.5C 138.552,64.6495 139.552,64.4828 140.5,64C 136.914,62.0227 136.747,59.8561 140,57.5C 140.167,54 140.333,50.5 140.5,47C 140.044,42.2114 140.044,37.5447 140.5,33C 137.373,31.5937 136.373,29.427 137.5,26.5 Z"/></g>
<g><path style="opacity:1" fill="#b037e2" d="M 150.5,26.5 C 162.214,29.2279 172.548,34.5612 181.5,42.5C 182.014,44.3664 182.68,46.1997 183.5,48C 182.632,49.8646 182.966,51.698 184.5,53.5C 181.966,63.3749 181.299,73.3749 182.5,83.5C 184.427,84.8624 186.427,85.8624 188.5,86.5C 182.167,86.5 175.833,86.5 169.5,86.5C 165.5,81.8333 161.167,77.5 156.5,73.5C 158.228,74.379 160.061,75.0457 162,75.5C 164.807,74.0261 166.974,71.8594 168.5,69C 167.991,67.8315 167.158,66.9981 166,66.5C 164.98,67.8905 164.147,69.3905 163.5,71C 158.964,71.5214 156.964,69.3548 157.5,64.5C 159.6,64.4772 161.433,65.1439 163,66.5C 167.845,64.6602 168.511,61.9935 165,58.5C 164.667,52.1667 164.333,45.8333 164,39.5C 163.02,37.9411 162.187,36.2744 161.5,34.5C 160.264,33.7542 158.93,33.4208 157.5,33.5C 157.843,31.5168 157.176,30.1834 155.5,29.5C 153.58,28.9348 151.913,27.9348 150.5,26.5 Z"/></g>
<g><path style="opacity:1" fill="#6d80f3" d="M 88.5,30.5 C 88.4606,31.5832 88.1272,32.5832 87.5,33.5C 88.5,34.1667 89.5,34.8333 90.5,35.5C 89.0186,36.4803 87.6853,37.647 86.5,39C 87.1667,39.3333 87.8333,39.6667 88.5,40C 87.5494,40.7175 87.3828,41.5509 88,42.5C 93.1873,39.5646 98.6873,37.8979 104.5,37.5C 106.735,37.2053 108.735,37.5386 110.5,38.5C 106.165,38.9167 101.832,39.4167 97.5,40C 91.1756,42.8284 84.8423,45.6617 78.5,48.5C 76.2227,47.9158 74.2227,46.7491 72.5,45C 74.9819,41.9505 76.6486,38.4505 77.5,34.5C 78.5137,33.3263 79.847,32.6596 81.5,32.5C 84.1085,32.5997 86.4418,31.9331 88.5,30.5 Z"/></g>
<g><path style="opacity:1" fill="#8f40fa" d="M 137.5,26.5 C 136.373,29.427 137.373,31.5937 140.5,33C 140.044,37.5447 140.044,42.2114 140.5,47C 140.333,50.5 140.167,54 140,57.5C 136.747,59.8561 136.914,62.0227 140.5,64C 139.552,64.4828 138.552,64.6495 137.5,64.5C 137.167,64.5 136.833,64.5 136.5,64.5C 134.562,62.8372 132.228,62.1706 129.5,62.5C 127.663,59.4765 125.996,56.3098 124.5,53C 125.833,47.3333 125.833,41.6667 124.5,36C 124.905,35.0546 125.572,34.3879 126.5,34C 133.206,33.5476 133.706,32.381 128,30.5C 125.619,31.435 123.119,31.7683 120.5,31.5C 120.744,28.7374 122.077,26.5707 124.5,25C 129.136,24.0613 133.469,24.5613 137.5,26.5 Z"/></g>
<g><path style="opacity:1" fill="#49387d" d="M 110.5,38.5 C 113.199,42.2279 114.199,46.2279 113.5,50.5C 112.488,46.4848 111.488,42.4848 110.5,38.5 Z"/></g>
<g><path style="opacity:1" fill="#6399f2" d="M 77.5,34.5 C 76.6486,38.4505 74.9819,41.9505 72.5,45C 74.2227,46.7491 76.2227,47.9158 78.5,48.5C 73.8594,52.8052 69.1927,57.1386 64.5,61.5C 61.8127,61.6641 59.146,61.4974 56.5,61C 55.6433,60.3109 54.9767,59.4776 54.5,58.5C 56.9861,52.3486 60.6528,47.0152 65.5,42.5C 68.8033,38.8442 72.8033,36.1775 77.5,34.5 Z"/></g>
<g><path style="opacity:1" fill="#52a9e8" d="M 65.5,42.5 C 60.6528,47.0152 56.9861,52.3486 54.5,58.5C 54.9767,59.4776 55.6433,60.3109 56.5,61C 59.146,61.4974 61.8127,61.6641 64.5,61.5C 57.0182,62.492 49.3516,62.8254 41.5,62.5C 41.5,57.8333 41.5,53.1667 41.5,48.5C 47.1764,48.6661 52.8431,48.4994 58.5,48C 60.4412,45.5464 62.7746,43.713 65.5,42.5 Z"/></g>
<g><path style="opacity:1" fill="#7e5ff7" d="M 108.5,25.5 C 108.5,26.8333 108.5,28.1667 108.5,29.5C 104.991,29.8079 103.324,31.8079 103.5,35.5C 107.954,34.6171 111.454,35.9504 114,39.5C 115.092,43.7972 115.425,48.1305 115,52.5C 111.612,54.851 111.112,57.5176 113.5,60.5C 118.663,62.2649 123.996,62.9316 129.5,62.5C 132.228,62.1706 134.562,62.8372 136.5,64.5C 128.352,63.2851 120.352,63.2851 112.5,64.5C 110.833,64.5 109.167,64.5 107.5,64.5C 101.974,65.9845 98.9743,63.6511 98.5,57.5C 98.9371,55.9256 99.9371,54.7589 101.5,54C 103.723,53.4338 105.723,52.6005 107.5,51.5C 109.565,51.4828 111.565,51.1495 113.5,50.5C 114.199,46.2279 113.199,42.2279 110.5,38.5C 108.735,37.5386 106.735,37.2053 104.5,37.5C 100.934,37.1199 98.6006,35.1199 97.5,31.5C 100.247,27.7402 103.914,25.7402 108.5,25.5 Z"/></g>
<g><path style="opacity:1" fill="#7771fa" d="M 98.5,57.5 C 98.9743,63.6511 101.974,65.9845 107.5,64.5C 104.375,66.2245 101.042,67.7245 97.5,69C 95.9069,69.9487 94.5736,71.1154 93.5,72.5C 92.8333,72.5 92.1667,72.5 91.5,72.5C 89.8985,70.1446 88.2319,67.6446 86.5,65C 88.5,64.1667 90.5,63.3333 92.5,62.5C 91.5714,60.6783 92.2381,59.3449 94.5,58.5C 95.6888,57.5713 97.0222,57.238 98.5,57.5 Z"/></g>
<g><path style="opacity:1" fill="#6d80f1" d="M 107.5,51.5 C 105.723,52.6005 103.723,53.4338 101.5,54C 99.9371,54.7589 98.9371,55.9256 98.5,57.5C 97.0222,57.238 95.6888,57.5713 94.5,58.5C 92.2381,59.3449 91.5714,60.6783 92.5,62.5C 90.5,63.3333 88.5,64.1667 86.5,65C 88.2319,67.6446 89.8985,70.1446 91.5,72.5C 87.1938,76.1396 83.1938,80.1396 79.5,84.5C 77.8333,84.5 76.1667,84.5 74.5,84.5C 75.0557,80.8072 73.7224,78.1405 70.5,76.5C 70.8627,75.8165 71.1961,75.1499 71.5,74.5C 71.5,74.1667 71.5,73.8333 71.5,73.5C 71.8333,73.5 72.1667,73.5 72.5,73.5C 75.8333,70.8333 78.8333,67.8333 81.5,64.5C 88.9608,57.893 97.6275,53.5597 107.5,51.5 Z"/></g>
<g><path style="opacity:1" fill="#281950" d="M 107.5,64.5 C 109.167,64.5 110.833,64.5 112.5,64.5C 117.032,64.1818 121.366,64.5151 125.5,65.5C 115.307,66.4025 105.64,69.0692 96.5,73.5C 96.631,72.7611 96.4643,72.0944 96,71.5C 95.3292,72.2524 94.4959,72.5858 93.5,72.5C 94.5736,71.1154 95.9069,69.9487 97.5,69C 101.042,67.7245 104.375,66.2245 107.5,64.5 Z"/></g>
<g><path style="opacity:1" fill="#351a91" d="M 125.5,65.5 C 133.089,65.1484 140.089,66.8151 146.5,70.5C 139.822,69.4942 133.156,68.4942 126.5,67.5C 122.122,67.6222 117.789,68.1222 113.5,69C 116.482,69.498 119.482,69.6646 122.5,69.5C 122.5,70.5 122.5,71.5 122.5,72.5C 124.735,72.2053 126.735,72.5386 128.5,73.5C 121.351,73.0496 114.351,73.7163 107.5,75.5C 105.857,75.5198 104.524,74.8532 103.5,73.5C 101.085,74.3052 98.7513,75.3052 96.5,76.5C 95.537,76.0302 95.537,75.3635 96.5,74.5C 96.5,74.1667 96.5,73.8333 96.5,73.5C 105.64,69.0692 115.307,66.4025 125.5,65.5 Z"/></g>
<g><path style="opacity:1" fill="#5e317e" d="M 112.5,64.5 C 120.352,63.2851 128.352,63.2851 136.5,64.5C 136.833,64.5 137.167,64.5 137.5,64.5C 144.189,66.6771 150.522,69.6771 156.5,73.5C 161.167,77.5 165.5,81.8333 169.5,86.5C 169.5,86.8333 169.5,87.1667 169.5,87.5C 169.167,87.5 168.833,87.5 168.5,87.5C 167.833,87.1667 167.167,86.8333 166.5,86.5C 166.5,85.8333 166.167,85.5 165.5,85.5C 164.833,84.1667 163.833,83.1667 162.5,82.5C 160.5,79.8333 158.167,77.5 155.5,75.5C 152.76,73.4405 149.76,71.7738 146.5,70.5C 140.089,66.8151 133.089,65.1484 125.5,65.5C 121.366,64.5151 117.032,64.1818 112.5,64.5 Z"/></g>
<g><path style="opacity:1" fill="#4e5c97" d="M 81.5,64.5 C 78.8333,67.8333 75.8333,70.8333 72.5,73.5C 74.5,69.5 77.5,66.5 81.5,64.5 Z"/></g>
<g><path style="opacity:1" fill="#7d2bbc" d="M 146.5,70.5 C 149.76,71.7738 152.76,73.4405 155.5,75.5C 153.473,75.6621 151.473,75.4955 149.5,75C 146.853,72.7841 143.853,71.7841 140.5,72C 144.512,73.8033 144.178,74.8033 139.5,75C 140.381,75.7083 141.047,76.5416 141.5,77.5C 137.363,75.7128 133.03,74.3794 128.5,73.5C 126.735,72.5386 124.735,72.2053 122.5,72.5C 122.5,71.5 122.5,70.5 122.5,69.5C 119.482,69.6646 116.482,69.498 113.5,69C 117.789,68.1222 122.122,67.6222 126.5,67.5C 133.156,68.4942 139.822,69.4942 146.5,70.5 Z"/></g>
<g><path style="opacity:1" fill="#c332d7" d="M 181.5,42.5 C 185.122,44.7867 188.455,47.4534 191.5,50.5C 192.259,52.4358 193.259,54.2691 194.5,56C 193.67,57.4651 193.504,58.9651 194,60.5C 197.318,63.4182 200.484,65.7516 203.5,67.5C 204.519,71.9201 204.519,76.0867 203.5,80C 204,80.5 204.5,81 205,81.5C 206,80.1667 207,78.8333 208,77.5C 209.142,79.6787 209.975,82.0121 210.5,84.5C 210.291,85.086 209.957,85.586 209.5,86C 202.508,86.4996 195.508,86.6663 188.5,86.5C 186.427,85.8624 184.427,84.8624 182.5,83.5C 181.299,73.3749 181.966,63.3749 184.5,53.5C 182.966,51.698 182.632,49.8646 183.5,48C 182.68,46.1997 182.014,44.3664 181.5,42.5 Z"/></g>
<g><path style="opacity:1" fill="#b43db5" d="M 191.5,50.5 C 202.721,60.6223 210.054,72.9556 213.5,87.5C 198.833,87.5 184.167,87.5 169.5,87.5C 169.5,87.1667 169.5,86.8333 169.5,86.5C 175.833,86.5 182.167,86.5 188.5,86.5C 195.508,86.6663 202.508,86.4996 209.5,86C 209.957,85.586 210.291,85.086 210.5,84.5C 209.975,82.0121 209.142,79.6787 208,77.5C 207,78.8333 206,80.1667 205,81.5C 204.5,81 204,80.5 203.5,80C 204.519,76.0867 204.519,71.9201 203.5,67.5C 200.484,65.7516 197.318,63.4182 194,60.5C 193.504,58.9651 193.67,57.4651 194.5,56C 193.259,54.2691 192.259,52.4358 191.5,50.5 Z"/></g>
<g><path style="opacity:1" fill="#54a5e3" d="M 30.5,73.5 C 44.1667,73.5 57.8333,73.5 71.5,73.5C 71.5,73.8333 71.5,74.1667 71.5,74.5C 66.8333,74.5 62.1667,74.5 57.5,74.5C 57.8478,78.5568 58.5145,82.5568 59.5,86.5C 65.5,86.5 71.5,86.5 77.5,86.5C 77.5,86.8333 77.5,87.1667 77.5,87.5C 66.5,87.5 55.5,87.5 44.5,87.5C 44.9443,85.8868 45.9443,84.7202 47.5,84C 46.624,82.414 45.624,80.914 44.5,79.5C 44.9005,77.5658 45.9005,76.0658 47.5,75C 41.6518,74.8272 35.9851,74.3272 30.5,73.5 Z"/></g>
<g><path style="opacity:1" fill="#c446e1" d="M 155.5,75.5 C 158.167,77.5 160.5,79.8333 162.5,82.5C 159.619,81.7263 156.952,80.3929 154.5,78.5C 153.304,78.8457 153.304,79.3457 154.5,80C 152.19,80.4966 149.857,80.6633 147.5,80.5C 145.5,79.5 143.5,78.5 141.5,77.5C 141.047,76.5416 140.381,75.7083 139.5,75C 144.178,74.8033 144.512,73.8033 140.5,72C 143.853,71.7841 146.853,72.7841 149.5,75C 151.473,75.4955 153.473,75.6621 155.5,75.5 Z"/></g>
<g><path style="opacity:1" fill="#3bcaee" d="M 24.5,73.5 C 26.5,73.5 28.5,73.5 30.5,73.5C 35.9851,74.3272 41.6518,74.8272 47.5,75C 45.9005,76.0658 44.9005,77.5658 44.5,79.5C 45.624,80.914 46.624,82.414 47.5,84C 45.9443,84.7202 44.9443,85.8868 44.5,87.5C 38.1579,87.6662 31.8246,87.4995 25.5,87C 24.5333,82.5986 24.2,78.0986 24.5,73.5 Z"/></g>
<g><path style="opacity:1" fill="#e37fef" d="M 162.5,82.5 C 163.833,83.1667 164.833,84.1667 165.5,85.5C 163.418,85.528 161.584,84.8613 160,83.5C 159.692,84.3081 159.192,84.9747 158.5,85.5C 156.49,83.8287 154.157,83.162 151.5,83.5C 150.128,82.4884 148.795,81.4884 147.5,80.5C 149.857,80.6633 152.19,80.4966 154.5,80C 153.304,79.3457 153.304,78.8457 154.5,78.5C 156.952,80.3929 159.619,81.7263 162.5,82.5 Z"/></g>
<g><path style="opacity:1" fill="#659afa" d="M 71.5,74.5 C 71.1961,75.1499 70.8627,75.8165 70.5,76.5C 73.7224,78.1405 75.0557,80.8072 74.5,84.5C 76.1667,84.5 77.8333,84.5 79.5,84.5C 79.1667,85.5 78.5,86.1667 77.5,86.5C 71.5,86.5 65.5,86.5 59.5,86.5C 58.5145,82.5568 57.8478,78.5568 57.5,74.5C 62.1667,74.5 66.8333,74.5 71.5,74.5 Z"/></g>
<g><path style="opacity:1" fill="#25414f" d="M 24.5,73.5 C 24.2,78.0986 24.5333,82.5986 25.5,87C 31.8246,87.4995 38.1579,87.6662 44.5,87.5C 55.5,87.5 66.5,87.5 77.5,87.5C 60.0048,88.6619 42.3381,88.8286 24.5,88C 23.1764,83.0671 23.1764,78.2337 24.5,73.5 Z"/></g>
<g><path style="opacity:1" fill="#cc931b" d="M 96.5,82.5 C 102.332,81.9785 104.332,84.3118 102.5,89.5C 102.44,88.9569 102.107,88.6236 101.5,88.5C 100.614,89.325 100.281,90.325 100.5,91.5C 95.5218,90.8615 93.8551,88.1949 95.5,83.5C 95.5,82.8333 95.8333,82.5 96.5,82.5 Z"/></g>
<g><path style="opacity:1" fill="#462149" d="M 168.5,87.5 C 168.833,87.5 169.167,87.5 169.5,87.5C 184.167,87.5 198.833,87.5 213.5,87.5C 198.833,88.1667 184.167,88.8333 169.5,89.5C 169.167,89.5 168.833,89.5 168.5,89.5C 168.5,88.8333 168.5,88.1667 168.5,87.5 Z"/></g>
<g><path style="opacity:1" fill="#0c1475" d="M 107.5,75.5 C 103.266,76.9149 99.5995,79.2482 96.5,82.5C 95.8333,82.5 95.5,82.8333 95.5,83.5C 94.0783,83.7086 92.745,84.2086 91.5,85C 80.4568,96.9811 76.1235,111.148 78.5,127.5C 78.1667,127.5 77.8333,127.5 77.5,127.5C 77.5028,119.13 77.6695,110.797 78,102.5C 77.0853,103.328 76.4186,104.328 76,105.5C 75.9957,102.169 76.829,99.0022 78.5,96C 77.9056,95.5357 77.2389,95.369 76.5,95.5C 80.6908,86.0994 87.3575,79.0994 96.5,74.5C 95.537,75.3635 95.537,76.0302 96.5,76.5C 98.7513,75.3052 101.085,74.3052 103.5,73.5C 104.524,74.8532 105.857,75.5198 107.5,75.5 Z"/></g>
<g><path style="opacity:1" fill="#f5dbf7" d="M 166.5,86.5 C 167.167,86.8333 167.833,87.1667 168.5,87.5C 168.5,88.1667 168.5,88.8333 168.5,89.5C 169.543,98.5759 166.71,98.9092 160,90.5C 159.333,89.5 159.333,88.5 160,87.5C 160.333,87.8333 160.667,88.1667 161,88.5C 161.308,87.6919 161.808,87.0253 162.5,86.5C 163.995,87.7053 165.328,87.7053 166.5,86.5 Z"/></g>
<g><path style="opacity:1" fill="#e1baef" d="M 151.5,83.5 C 154.157,83.162 156.49,83.8287 158.5,85.5C 159.192,84.9747 159.692,84.3081 160,83.5C 161.584,84.8613 163.418,85.528 165.5,85.5C 166.167,85.5 166.5,85.8333 166.5,86.5C 165.328,87.7053 163.995,87.7053 162.5,86.5C 161.808,87.0253 161.308,87.6919 161,88.5C 160.667,88.1667 160.333,87.8333 160,87.5C 159.333,88.5 159.333,89.5 160,90.5C 166.71,98.9092 169.543,98.5759 168.5,89.5C 168.833,89.5 169.167,89.5 169.5,89.5C 170.529,91.5168 171.529,93.5168 172.5,95.5C 171.883,95.3893 171.383,95.056 171,94.5C 170.833,95.6667 170.667,96.8333 170.5,98C 171.028,100.881 171.694,103.715 172.5,106.5C 172.565,106.938 172.399,107.272 172,107.5C 170.556,105.845 168.722,105.178 166.5,105.5C 163.094,97.0913 158.094,89.758 151.5,83.5 Z"/></g>
<g><path style="opacity:1" fill="#28414c" d="M 7.5,97.5 C 28.8333,97.5 50.1667,97.5 71.5,97.5C 71.7373,98.791 71.404,99.791 70.5,100.5C 66.9707,98.5772 62.9707,97.9106 58.5,98.5C 47.5,98.5 36.5,98.5 25.5,98.5C 19.8333,98.5 14.1667,98.5 8.5,98.5C 7.83333,98.5 7.5,98.1667 7.5,97.5 Z"/></g>
<g><path style="opacity:1" fill="#5ea1f1" d="M 58.5,98.5 C 62.9707,97.9106 66.9707,98.5772 70.5,100.5C 69.9249,104.627 68.9249,108.627 67.5,112.5C 60.5,112.5 53.5,112.5 46.5,112.5C 48.2922,111.691 50.2922,111.191 52.5,111C 51.6919,110.692 51.0253,110.192 50.5,109.5C 50.9458,106.899 51.1125,104.233 51,101.5C 53.4799,100.188 55.9799,99.1885 58.5,98.5 Z"/></g>
<g><path style="opacity:1" fill="#47b7e0" d="M 7.5,96.5 C 7.5,96.8333 7.5,97.1667 7.5,97.5C 7.5,98.1667 7.83333,98.5 8.5,98.5C 8.5,98.8333 8.5,99.1667 8.5,99.5C 7.51658,103.298 7.18325,107.298 7.5,111.5C 11.8333,111.5 16.1667,111.5 20.5,111.5C 26.1667,111.5 31.8333,111.5 37.5,111.5C 36.8483,108.294 37.015,104.96 38,101.5C 39.3988,100.773 40.8988,100.273 42.5,100C 36.6518,99.8272 30.9851,99.3272 25.5,98.5C 36.5,98.5 47.5,98.5 58.5,98.5C 55.9799,99.1885 53.4799,100.188 51,101.5C 51.1125,104.233 50.9458,106.899 50.5,109.5C 51.0253,110.192 51.6919,110.692 52.5,111C 50.2922,111.191 48.2922,111.691 46.5,112.5C 33.5,112.5 20.5,112.5 7.5,112.5C 6.83333,109.833 6.16667,107.167 5.5,104.5C 5.96282,101.67 6.62949,99.003 7.5,96.5 Z"/></g>
<g><path style="opacity:1" fill="#39d2f2" d="M 8.5,99.5 C 8.5,99.1667 8.5,98.8333 8.5,98.5C 14.1667,98.5 19.8333,98.5 25.5,98.5C 30.9851,99.3272 36.6518,99.8272 42.5,100C 40.8988,100.273 39.3988,100.773 38,101.5C 37.015,104.96 36.8483,108.294 37.5,111.5C 31.8333,111.5 26.1667,111.5 20.5,111.5C 22.8147,110.712 24.1481,109.046 24.5,106.5C 23.0229,104.361 22.0229,102.028 21.5,99.5C 17.1667,99.5 12.8333,99.5 8.5,99.5 Z"/></g>
<g><path style="opacity:1" fill="#22e9ef" d="M 8.5,99.5 C 12.8333,99.5 17.1667,99.5 21.5,99.5C 22.0229,102.028 23.0229,104.361 24.5,106.5C 24.1481,109.046 22.8147,110.712 20.5,111.5C 16.1667,111.5 11.8333,111.5 7.5,111.5C 7.18325,107.298 7.51658,103.298 8.5,99.5 Z"/></g>
<g><path style="opacity:1" fill="#081f57" d="M 76.5,95.5 C 73.1854,103.459 70.1854,111.459 67.5,119.5C 67.5,117.167 67.5,114.833 67.5,112.5C 68.9249,108.627 69.9249,104.627 70.5,100.5C 71.404,99.791 71.7373,98.791 71.5,97.5C 73.5138,97.6085 75.1805,96.9418 76.5,95.5 Z"/></g>
<g><path style="opacity:1" fill="#223f4d" d="M 7.5,112.5 C 20.5,112.5 33.5,112.5 46.5,112.5C 53.5,112.5 60.5,112.5 67.5,112.5C 67.5,114.833 67.5,117.167 67.5,119.5C 67.5,120.833 67.5,122.167 67.5,123.5C 61.1667,123.5 54.8333,123.5 48.5,123.5C 42.5,123.5 36.5,123.5 30.5,123.5C 22.5,123.5 14.5,123.5 6.5,123.5C 26.3264,122.503 46.3264,122.17 66.5,122.5C 66.5,119.5 66.5,116.5 66.5,113.5C 46.6596,113.83 26.9929,113.497 7.5,112.5 Z"/></g>
<g><path style="opacity:1" fill="#71aef1" d="M 166.5,105.5 C 168.722,105.178 170.556,105.845 172,107.5C 172.399,107.272 172.565,106.938 172.5,106.5C 173.404,107.209 173.737,108.209 173.5,109.5C 173.997,114.205 172.664,118.205 169.5,121.5C 168.833,117.687 168.166,114.021 167.5,110.5C 166.962,108.883 166.629,107.216 166.5,105.5 Z"/></g>
<g><path style="opacity:1" fill="#0e49ba" d="M 76.5,95.5 C 77.2389,95.369 77.9056,95.5357 78.5,96C 76.829,99.0022 75.9957,102.169 76,105.5C 76.4186,104.328 77.0853,103.328 78,102.5C 77.6695,110.797 77.5028,119.13 77.5,127.5C 75.5,127.167 73.5,126.833 71.5,126.5C 71.8134,129.247 71.48,131.914 70.5,134.5C 69.8182,133.757 69.1515,133.091 68.5,132.5C 68.2962,129.482 67.9629,126.482 67.5,123.5C 67.5,122.167 67.5,120.833 67.5,119.5C 70.1854,111.459 73.1854,103.459 76.5,95.5 Z"/></g>
<g><path style="opacity:1" fill="#3390e9" d="M 173.5,109.5 C 174.836,115.723 174.669,122.056 173,128.5C 171.688,127.215 169.855,127.215 167.5,128.5C 167.5,122.5 167.5,116.5 167.5,110.5C 168.166,114.021 168.833,117.687 169.5,121.5C 172.664,118.205 173.997,114.205 173.5,109.5 Z"/></g>
<g><path style="opacity:1" fill="#3c5fd1" d="M 172.5,95.5 C 174.584,98.8013 175.918,102.468 176.5,106.5C 176.83,113.532 176.497,120.532 175.5,127.5C 172.548,134.737 169.048,141.737 165,148.5C 164.464,146.433 164.964,144.599 166.5,143C 165.473,142.487 164.473,141.987 163.5,141.5C 165.006,137.12 166.34,132.786 167.5,128.5C 169.855,127.215 171.688,127.215 173,128.5C 174.669,122.056 174.836,115.723 173.5,109.5C 173.737,108.209 173.404,107.209 172.5,106.5C 171.694,103.715 171.028,100.881 170.5,98C 170.667,96.8333 170.833,95.6667 171,94.5C 171.383,95.056 171.883,95.3893 172.5,95.5 Z"/></g>
<g><path style="opacity:1" fill="#4abaf8" d="M 48.5,124.5 C 49.5,124.5 50.5,124.5 51.5,124.5C 50.7929,127.786 50.4595,131.119 50.5,134.5C 53.925,134.367 54.2583,135.033 51.5,136.5C 48.6354,136.945 46.1354,136.278 44,134.5C 43.3897,131.173 42.8897,127.839 42.5,124.5C 44.5,124.5 46.5,124.5 48.5,124.5 Z"/></g>
<g><path style="opacity:1" fill="#43bcdf" d="M 30.5,123.5 C 36.5,123.5 42.5,123.5 48.5,123.5C 48.5,123.833 48.5,124.167 48.5,124.5C 46.5,124.5 44.5,124.5 42.5,124.5C 42.8897,127.839 43.3897,131.173 44,134.5C 46.1354,136.278 48.6354,136.945 51.5,136.5C 57.5,136.5 63.5,136.5 69.5,136.5C 69.5,136.833 69.5,137.167 69.5,137.5C 48.8333,137.5 28.1667,137.5 7.5,137.5C 7.5,137.167 7.5,136.833 7.5,136.5C 10.5,136.5 13.5,136.5 16.5,136.5C 28.4321,139.563 33.0988,135.229 30.5,123.5 Z"/></g>
<g><path style="opacity:1" fill="#2cd9ea" d="M 6.5,123.5 C 14.5,123.5 22.5,123.5 30.5,123.5C 33.0988,135.229 28.4321,139.563 16.5,136.5C 17.1642,134.513 18.3308,132.846 20,131.5C 20.2033,128.339 18.7033,126.172 15.5,125C 12.854,124.503 10.1873,124.336 7.5,124.5C 7.5,128.5 7.5,132.5 7.5,136.5C 6.51511,132.366 6.18178,128.032 6.5,123.5 Z"/></g>
<g><path style="opacity:1" fill="#1feeec" d="M 16.5,136.5 C 13.5,136.5 10.5,136.5 7.5,136.5C 7.5,132.5 7.5,128.5 7.5,124.5C 10.1873,124.336 12.854,124.503 15.5,125C 18.7033,126.172 20.2033,128.339 20,131.5C 18.3308,132.846 17.1642,134.513 16.5,136.5 Z"/></g>
<g><path style="opacity:1" fill="#5ca4f7" d="M 48.5,124.5 C 48.5,124.167 48.5,123.833 48.5,123.5C 54.8333,123.5 61.1667,123.5 67.5,123.5C 67.9629,126.482 68.2962,129.482 68.5,132.5C 68.4326,133.959 68.7659,135.292 69.5,136.5C 63.5,136.5 57.5,136.5 51.5,136.5C 54.2583,135.033 53.925,134.367 50.5,134.5C 50.4595,131.119 50.7929,127.786 51.5,124.5C 50.5,124.5 49.5,124.5 48.5,124.5 Z"/></g>
<g><path style="opacity:1" fill="#2f3896" d="M 176.5,106.5 C 179.303,120.429 177.303,133.763 170.5,146.5C 184.994,147.167 199.328,147.833 213.5,148.5C 198.657,148.171 183.99,148.504 169.5,149.5C 167.833,151.5 166.167,153.5 164.5,155.5C 164.879,152.433 163.879,151.433 161.5,152.5C 160.347,151.687 160.347,150.687 161.5,149.5C 161.043,148.702 160.376,148.369 159.5,148.5C 160.584,145.996 161.917,143.663 163.5,141.5C 164.473,141.987 165.473,142.487 166.5,143C 164.964,144.599 164.464,146.433 165,148.5C 169.048,141.737 172.548,134.737 175.5,127.5C 176.497,120.532 176.83,113.532 176.5,106.5 Z"/></g>
<g><path style="opacity:1" fill="#1a6fd5" d="M 77.5,127.5 C 77.8333,127.5 78.1667,127.5 78.5,127.5C 78.9926,129.806 79.3259,132.139 79.5,134.5C 78.5178,133.859 77.5178,133.193 76.5,132.5C 75.8076,133.025 75.3076,133.692 75,134.5C 74.6667,134.167 74.3333,133.833 74,133.5C 73.9977,136.051 73.1644,138.051 71.5,139.5C 71.1667,139.5 70.8333,139.5 70.5,139.5C 70.6716,138.508 70.3382,137.842 69.5,137.5C 69.5,137.167 69.5,136.833 69.5,136.5C 68.7659,135.292 68.4326,133.959 68.5,132.5C 69.1515,133.091 69.8182,133.757 70.5,134.5C 71.48,131.914 71.8134,129.247 71.5,126.5C 73.5,126.833 75.5,127.167 77.5,127.5 Z"/></g>
<g><path style="opacity:1" fill="#1f323a" d="M 7.5,137.5 C 28.1667,137.5 48.8333,137.5 69.5,137.5C 70.3382,137.842 70.6716,138.508 70.5,139.5C 49.4021,138.844 28.4021,138.177 7.5,137.5 Z"/></g>
<g><path style="opacity:1" fill="#3fabec" d="M 79.5,134.5 C 80.4408,136.05 81.1075,137.716 81.5,139.5C 79.5648,138.85 77.5648,138.517 75.5,138.5C 75.5,139.833 75.5,141.167 75.5,142.5C 74.5,142.5 73.5,142.5 72.5,142.5C 71.8902,141.609 71.5569,140.609 71.5,139.5C 73.1644,138.051 73.9977,136.051 74,133.5C 74.3333,133.833 74.6667,134.167 75,134.5C 75.3076,133.692 75.8076,133.025 76.5,132.5C 77.5178,133.193 78.5178,133.859 79.5,134.5 Z"/></g>
<g><path style="opacity:1" fill="#84e3f8" d="M 81.5,139.5 C 82.8139,142.128 84.1473,144.795 85.5,147.5C 85.5979,149.553 84.9313,151.22 83.5,152.5C 83.1667,152.5 82.8333,152.5 82.5,152.5C 81.0253,148.79 78.3587,146.456 74.5,145.5C 74.1667,145.5 73.8333,145.5 73.5,145.5C 73.4431,144.391 73.1098,143.391 72.5,142.5C 73.5,142.5 74.5,142.5 75.5,142.5C 75.5,141.167 75.5,139.833 75.5,138.5C 77.5648,138.517 79.5648,138.85 81.5,139.5 Z"/></g>
<g><path style="opacity:1" fill="#2f4b61" d="M 73.5,145.5 C 73.8333,145.5 74.1667,145.5 74.5,145.5C 74.5,146.5 74.5,147.5 74.5,148.5C 71.1667,148.5 67.8333,148.5 64.5,148.5C 53.1667,148.5 41.8333,148.5 30.5,148.5C 28.5,148.5 26.5,148.5 24.5,148.5C 41.0256,148.162 57.3589,147.162 73.5,145.5 Z"/></g>
<g><path style="opacity:1" fill="#0d1b4f" d="M 128.5,73.5 C 133.03,74.3794 137.363,75.7128 141.5,77.5C 143.5,78.5 145.5,79.5 147.5,80.5C 148.795,81.4884 150.128,82.4884 151.5,83.5C 158.094,89.758 163.094,97.0913 166.5,105.5C 166.629,107.216 166.962,108.883 167.5,110.5C 167.5,116.5 167.5,122.5 167.5,128.5C 166.34,132.786 165.006,137.12 163.5,141.5C 161.917,143.663 160.584,145.996 159.5,148.5C 145.857,165.243 128.523,170.577 107.5,164.5C 102.035,162.268 97.0353,159.268 92.5,155.5C 90.1568,152.793 87.8235,150.126 85.5,147.5C 84.1473,144.795 82.8139,142.128 81.5,139.5C 81.1075,137.716 80.4408,136.05 79.5,134.5C 79.3259,132.139 78.9926,129.806 78.5,127.5C 76.1235,111.148 80.4568,96.9811 91.5,85C 92.745,84.2086 94.0783,83.7086 95.5,83.5C 93.8551,88.1949 95.5218,90.8615 100.5,91.5C 100.281,90.325 100.614,89.325 101.5,88.5C 102.107,88.6236 102.44,88.9569 102.5,89.5C 104.332,84.3118 102.332,81.9785 96.5,82.5C 99.5995,79.2482 103.266,76.9149 107.5,75.5C 114.351,73.7163 121.351,73.0496 128.5,73.5 Z"/></g>
<g><path style="opacity:1" fill="#c4831f" d="M 146.5,145.5 C 147.925,147.031 148.591,146.698 148.5,144.5C 149.542,143.209 150.708,143.209 152,144.5C 153.67,151.18 151.67,152.846 146,149.5C 145.235,147.934 145.402,146.601 146.5,145.5 Z"/></g>
<g><path style="opacity:1" fill="#151f5c" d="M 124.5,156.5 C 123.833,156.5 123.167,156.5 122.5,156.5C 120.801,156.66 119.134,156.494 117.5,156C 117.018,154.992 116.852,153.825 117,152.5C 116,153.5 115,154.5 114,155.5C 110.83,153.994 107.663,152.494 104.5,151C 104.085,148.974 103.085,147.474 101.5,146.5C 104.479,142.854 107.812,139.521 111.5,136.5C 115.075,139.912 119.241,142.245 124,143.5C 124.499,147.821 124.666,152.154 124.5,156.5 Z"/></g>
<g><path style="opacity:1" fill="#4313c8" d="M 126.5,82.5 C 126.5,86.8333 126.5,91.1667 126.5,95.5C 131.716,95.608 136.049,97.608 139.5,101.5C 142.188,99.4789 144.521,97.1456 146.5,94.5C 147.338,94.8417 147.672,95.5084 147.5,96.5C 141.145,99.9458 140.311,104.279 145,109.5C 146.149,112.393 146.649,115.393 146.5,118.5C 149.609,118.264 152.609,118.597 155.5,119.5C 155.167,120.167 154.833,120.833 154.5,121.5C 151.833,121.5 149.167,121.5 146.5,121.5C 145.808,126.256 144.474,130.922 142.5,135.5C 143.74,139.061 145.74,142.061 148.5,144.5C 148.591,146.698 147.925,147.031 146.5,145.5C 144.516,143.015 142.35,140.682 140,138.5C 135.741,140.882 131.241,142.549 126.5,143.5C 126.5,147.833 126.5,152.167 126.5,156.5C 126.062,157.506 125.396,157.506 124.5,156.5C 124.666,152.154 124.499,147.821 124,143.5C 119.241,142.245 115.075,139.912 111.5,136.5C 107.812,139.521 104.479,142.854 101.5,146.5C 101.5,146.833 101.5,147.167 101.5,147.5C 99.2043,147.196 98.871,146.196 100.5,144.5C 103.129,141.369 105.962,138.369 109,135.5C 109.667,134.5 109.667,133.5 109,132.5C 106.087,128.669 104.254,124.336 103.5,119.5C 99.2351,118.561 94.9017,118.228 90.5,118.5C 89.8333,117.833 89.1667,117.167 88.5,116.5C 93.5,116.5 98.5,116.5 103.5,116.5C 105.003,111.501 107.003,106.667 109.5,102C 107.125,98.7602 104.625,95.5935 102,92.5C 101.26,91.2506 101.427,90.2506 102.5,89.5C 105.531,93.0289 108.697,96.3622 112,99.5C 115.463,96.1174 119.629,94.7841 124.5,95.5C 124.5,91.1667 124.5,86.8333 124.5,82.5C 125.167,79.8333 125.833,79.8333 126.5,82.5 Z"/></g>
<g><path style="opacity:1" fill="#a287e6" d="M 117.5,125.5 C 117.5,126.833 117.5,128.167 117.5,129.5C 119.099,129.232 120.432,129.566 121.5,130.5C 119.833,130.5 118.167,130.5 116.5,130.5C 116.216,128.585 116.549,126.919 117.5,125.5 Z"/></g>
<g><path style="opacity:1" fill="#b77a23" d="M 154.5,121.5 C 154.833,120.833 155.167,120.167 155.5,119.5C 155.5,118.5 155.5,117.5 155.5,116.5C 160,116.164 161.833,118.164 161,122.5C 158.136,125.402 155.969,125.068 154.5,121.5 Z"/></g>
<g><path style="opacity:1" fill="#9673e9" d="M 117.5,110.5 C 118.5,110.5 119.5,110.5 120.5,110.5C 120.819,115.363 120.486,120.03 119.5,124.5C 120.015,119.52 119.348,114.854 117.5,110.5 Z"/></g>
<g><path style="opacity:1" fill="#cb971b" d="M 88.5,116.5 C 89.1667,117.167 89.8333,117.833 90.5,118.5C 88.9472,121.254 86.6139,122.087 83.5,121C 80.8333,118 80.8333,115 83.5,112C 86.4066,111.146 88.7399,111.979 90.5,114.5C 89.7573,115.182 89.0906,115.849 88.5,116.5 Z"/></g>
<g><path style="opacity:1" fill="#a183e0" d="M 122.5,102.5 C 122.5,103.833 122.5,105.167 122.5,106.5C 120.833,106.5 119.167,106.5 117.5,106.5C 118.568,105.566 119.901,105.232 121.5,105.5C 121.263,104.209 121.596,103.209 122.5,102.5 Z"/></g>
<g><path style="opacity:1" fill="#e6e3eb" d="M 121.5,130.5 C 120.432,129.566 119.099,129.232 117.5,129.5C 117.5,128.167 117.5,126.833 117.5,125.5C 118.492,125.672 119.158,125.338 119.5,124.5C 120.486,120.03 120.819,115.363 120.5,110.5C 119.5,110.5 118.5,110.5 117.5,110.5C 116.167,109.167 116.167,107.833 117.5,106.5C 119.167,106.5 120.833,106.5 122.5,106.5C 122.5,105.167 122.5,103.833 122.5,102.5C 125.304,101.888 128.304,101.888 131.5,102.5C 131.215,104.288 131.548,105.955 132.5,107.5C 137.335,109.146 138.668,112.312 136.5,117C 139.452,121.321 139.119,125.321 135.5,129C 134.207,129.49 132.873,129.657 131.5,129.5C 131.5,131.5 131.5,133.5 131.5,135.5C 128.5,135.5 125.5,135.5 122.5,135.5C 122.784,133.585 122.451,131.919 121.5,130.5 Z"/></g>
<g><path style="opacity:1" fill="#8b6bd9" d="M 127.5,120.5 C 127.5,121.833 127.5,123.167 127.5,124.5C 128.5,124.5 129.5,124.5 130.5,124.5C 129.432,125.434 128.099,125.768 126.5,125.5C 126.216,123.585 126.549,121.919 127.5,120.5 Z"/></g>
<g><path style="opacity:1" fill="#4b18d4" d="M 127.5,120.5 C 131.035,120.337 132.035,121.67 130.5,124.5C 129.5,124.5 128.5,124.5 127.5,124.5C 127.5,123.167 127.5,121.833 127.5,120.5 Z"/></g>
<g><path style="opacity:1" fill="#6b41d8" d="M 126.5,111.5 C 129.5,111.167 130.833,112.5 130.5,115.5C 129.167,115.5 127.833,115.5 126.5,115.5C 126.5,114.167 126.5,112.833 126.5,111.5 Z"/></g>
<g><path style="opacity:1" fill="#c78a1f" d="M 147.5,96.5 C 147.672,95.5084 147.338,94.8417 146.5,94.5C 145.199,93.1155 145.199,91.6155 146.5,90C 148.976,89.3198 150.809,90.1531 152,92.5C 152.357,96.3239 150.857,97.6572 147.5,96.5 Z"/></g>
<g><path style="opacity:1" fill="#c8971e" d="M 126.5,82.5 C 125.833,79.8333 125.167,79.8333 124.5,82.5C 122.561,81.9862 121.561,80.6528 121.5,78.5C 121.775,76.3911 122.942,75.0578 125,74.5C 128.51,75.6605 129.844,77.9939 129,81.5C 128.329,82.2524 127.496,82.5858 126.5,82.5 Z"/></g>
<g><path style="opacity:1" fill="#5aa1f5" d="M 74.5,145.5 C 78.3587,146.456 81.0253,148.79 82.5,152.5C 81.1667,152.5 79.8333,152.5 78.5,152.5C 74.8015,150.494 70.8015,149.994 66.5,151C 67.7955,153.294 68.6289,156.127 69,159.5C 70.8778,160.053 72.3778,161.053 73.5,162.5C 72.8333,162.5 72.1667,162.5 71.5,162.5C 66.9834,161.834 62.3167,161.167 57.5,160.5C 56.7579,159.713 55.9246,159.047 55,158.5C 55.4058,156.13 55.5725,153.796 55.5,151.5C 58.5757,150.366 61.5757,149.366 64.5,148.5C 67.8333,148.5 71.1667,148.5 74.5,148.5C 74.5,147.5 74.5,146.5 74.5,145.5 Z"/></g>
<g><path style="opacity:1" fill="#cb8710" d="M 100.5,144.5 C 98.871,146.196 99.2043,147.196 101.5,147.5C 102.817,152.345 100.817,154.178 95.5,153C 91.847,147.164 93.5137,144.331 100.5,144.5 Z"/></g>
<g><path style="opacity:1" fill="#ad37e4" d="M 169.5,149.5 C 175.5,149.5 181.5,149.5 187.5,149.5C 187.047,150.458 186.381,151.292 185.5,152C 186.167,152.333 186.833,152.667 187.5,153C 184.583,154.528 181.583,155.861 178.5,157C 180.116,157.615 181.449,158.615 182.5,160C 180.777,160.523 179.444,161.523 178.5,163C 179.481,170.115 179.481,177.115 178.5,184C 178.594,186.954 179.094,187.121 180,184.5C 180.374,185.416 180.874,186.25 181.5,187C 179.361,190.968 177.027,194.801 174.5,198.5C 169.853,200.799 165.186,203.132 160.5,205.5C 160.167,205.5 159.833,205.5 159.5,205.5C 158.748,203.9 157.748,202.4 156.5,201C 158.338,199.16 160.338,197.493 162.5,196C 162,195.5 161.5,195 161,194.5C 156.378,196.171 152.211,195.338 148.5,192C 151.959,191.209 155.293,190.209 158.5,189C 158,188.5 157.5,188 157,187.5C 156.762,183.778 156.262,180.111 155.5,176.5C 156.256,174.549 156.589,172.716 156.5,171C 155.809,169.933 155.309,168.766 155,167.5C 153.989,168.337 152.822,168.67 151.5,168.5C 151.5,169.5 151.5,170.5 151.5,171.5C 149.533,171.739 147.699,171.406 146,170.5C 140.243,173.49 134.077,174.823 127.5,174.5C 138.828,172.719 149.161,168.385 158.5,161.5C 160.833,159.833 162.833,157.833 164.5,155.5C 166.167,153.5 167.833,151.5 169.5,149.5 Z"/></g>
<g><path style="opacity:1" fill="#34d1ec" d="M 24.5,148.5 C 26.5,148.5 28.5,148.5 30.5,148.5C 32.9686,149.317 35.6353,149.817 38.5,150C 37.5442,153.394 37.2108,156.894 37.5,160.5C 33.5,160.833 29.5,161.167 25.5,161.5C 24.5151,157.366 24.1818,153.032 24.5,148.5 Z"/></g>
<g><path style="opacity:1" fill="#c637ca" d="M 169.5,149.5 C 183.99,148.504 198.657,148.171 213.5,148.5C 211.95,154.819 209.617,160.819 206.5,166.5C 203.395,169.275 201.062,172.608 199.5,176.5C 198.167,177.5 196.833,178.5 195.5,179.5C 195.461,178.417 195.127,177.417 194.5,176.5C 195.274,175.289 196.107,175.289 197,176.5C 197.287,174.109 197.787,171.776 198.5,169.5C 197.975,168.808 197.308,168.308 196.5,168C 198.439,167.092 199.439,165.592 199.5,163.5C 203.068,163.241 204.401,161.241 203.5,157.5C 201.774,157.185 200.107,157.019 198.5,157C 197.853,158.609 197.02,160.109 196,161.5C 195.849,158.881 195.015,156.547 193.5,154.5C 195.361,153.472 196.695,151.972 197.5,150C 194.183,149.502 190.85,149.335 187.5,149.5C 181.5,149.5 175.5,149.5 169.5,149.5 Z"/></g>
<g><path style="opacity:1" fill="#219ae8" d="M 85.5,147.5 C 87.8235,150.126 90.1568,152.793 92.5,155.5C 92.4226,156.75 91.756,157.583 90.5,158C 91.5,159 92.5,160 93.5,161C 88.9269,159.846 85.5936,157.013 83.5,152.5C 84.9313,151.22 85.5979,149.553 85.5,147.5 Z"/></g>
<g><path style="opacity:1" fill="#4cb2ea" d="M 30.5,148.5 C 41.8333,148.5 53.1667,148.5 64.5,148.5C 61.5757,149.366 58.5757,150.366 55.5,151.5C 55.5725,153.796 55.4058,156.13 55,158.5C 55.9246,159.047 56.7579,159.713 57.5,160.5C 62.3167,161.167 66.9834,161.834 71.5,162.5C 55.9909,162.83 40.6576,162.496 25.5,161.5C 29.5,161.167 33.5,160.833 37.5,160.5C 37.2108,156.894 37.5442,153.394 38.5,150C 35.6353,149.817 32.9686,149.317 30.5,148.5 Z"/></g>
<g><path style="opacity:1" fill="#0c1543" d="M 164.5,155.5 C 162.833,157.833 160.833,159.833 158.5,161.5C 158.179,159.952 157.179,159.285 155.5,159.5C 157.845,157.486 159.845,155.153 161.5,152.5C 163.879,151.433 164.879,152.433 164.5,155.5 Z"/></g>
<g><path style="opacity:1" fill="#bd33d9" d="M 187.5,149.5 C 190.85,149.335 194.183,149.502 197.5,150C 196.695,151.972 195.361,153.472 193.5,154.5C 195.015,156.547 195.849,158.881 196,161.5C 197.02,160.109 197.853,158.609 198.5,157C 200.107,157.019 201.774,157.185 203.5,157.5C 204.401,161.241 203.068,163.241 199.5,163.5C 199.439,165.592 198.439,167.092 196.5,168C 197.308,168.308 197.975,168.808 198.5,169.5C 197.787,171.776 197.287,174.109 197,176.5C 196.107,175.289 195.274,175.289 194.5,176.5C 195.127,177.417 195.461,178.417 195.5,179.5C 193.443,183.067 190.777,186.234 187.5,189C 183.07,192.197 178.736,195.364 174.5,198.5C 177.027,194.801 179.361,190.968 181.5,187C 180.874,186.25 180.374,185.416 180,184.5C 179.094,187.121 178.594,186.954 178.5,184C 179.481,177.115 179.481,170.115 178.5,163C 179.444,161.523 180.777,160.523 182.5,160C 181.449,158.615 180.116,157.615 178.5,157C 181.583,155.861 184.583,154.528 187.5,153C 186.833,152.667 186.167,152.333 185.5,152C 186.381,151.292 187.047,150.458 187.5,149.5 Z"/></g>
<g><path style="opacity:1" fill="#976534" d="M 122.5,156.5 C 123.167,156.5 123.833,156.5 124.5,156.5C 125.396,157.506 126.062,157.506 126.5,156.5C 128.5,156.5 129.5,157.5 129.5,159.5C 127.283,158.631 124.95,158.298 122.5,158.5C 122.5,160.167 122.5,161.833 122.5,163.5C 121.244,161.274 121.244,158.941 122.5,156.5 Z"/></g>
<g><path style="opacity:1" fill="#24394b" d="M 24.5,148.5 C 24.1818,153.032 24.5151,157.366 25.5,161.5C 40.6576,162.496 55.9909,162.83 71.5,162.5C 72.1667,162.5 72.8333,162.5 73.5,162.5C 75.8333,165.167 78.1667,167.833 80.5,170.5C 77.4372,168.949 74.7705,166.782 72.5,164C 56.5,163.667 40.5,163.333 24.5,163C 23.1764,158.067 23.1764,153.234 24.5,148.5 Z"/></g>
<g><path style="opacity:1" fill="#ce810d" d="M 129.5,159.5 C 128.956,164.191 126.623,165.524 122.5,163.5C 122.5,161.833 122.5,160.167 122.5,158.5C 124.95,158.298 127.283,158.631 129.5,159.5 Z"/></g>
<g><path style="opacity:1" fill="#6a88f5" d="M 78.5,152.5 C 79.7536,155.093 81.4202,157.427 83.5,159.5C 83.5494,162.099 84.5494,164.266 86.5,166C 84.9644,167.599 84.4644,169.433 85,171.5C 85.6667,170.833 86.3333,170.167 87,169.5C 88.9291,172.474 90.7625,175.474 92.5,178.5C 88.1477,176.327 84.1477,173.66 80.5,170.5C 78.1667,167.833 75.8333,165.167 73.5,162.5C 72.3778,161.053 70.8778,160.053 69,159.5C 68.6289,156.127 67.7955,153.294 66.5,151C 70.8015,149.994 74.8015,150.494 78.5,152.5 Z"/></g>
<g><path style="opacity:1" fill="#134db1" d="M 78.5,152.5 C 79.8333,152.5 81.1667,152.5 82.5,152.5C 82.8333,152.5 83.1667,152.5 83.5,152.5C 85.5936,157.013 88.9269,159.846 93.5,161C 92.5,160 91.5,159 90.5,158C 91.756,157.583 92.4226,156.75 92.5,155.5C 97.0353,159.268 102.035,162.268 107.5,164.5C 108.791,165.473 108.791,166.473 107.5,167.5C 108.602,168.176 109.602,168.842 110.5,169.5C 106.675,169.115 103.009,168.115 99.5,166.5C 97.1966,166.876 96.8632,167.876 98.5,169.5C 92.9739,166.977 87.9739,163.644 83.5,159.5C 81.4202,157.427 79.7536,155.093 78.5,152.5 Z"/></g>
<g><path style="opacity:1" fill="#08071a" d="M 155.5,159.5 C 157.179,159.285 158.179,159.952 158.5,161.5C 149.161,168.385 138.828,172.719 127.5,174.5C 127.167,174.5 126.833,174.5 126.5,174.5C 122.167,174.5 117.833,174.5 113.5,174.5C 113.5,173.833 113.167,173.5 112.5,173.5C 112.389,172.883 112.056,172.383 111.5,172C 117.681,171.828 123.681,171.328 129.5,170.5C 139.114,169.025 147.781,165.358 155.5,159.5 Z"/></g>
<g><path style="opacity:1" fill="#061a7d" d="M 159.5,148.5 C 160.376,148.369 161.043,148.702 161.5,149.5C 160.347,150.687 160.347,151.687 161.5,152.5C 159.845,155.153 157.845,157.486 155.5,159.5C 147.781,165.358 139.114,169.025 129.5,170.5C 122.978,170.823 116.645,170.49 110.5,169.5C 109.602,168.842 108.602,168.176 107.5,167.5C 108.791,166.473 108.791,165.473 107.5,164.5C 128.523,170.577 145.857,165.243 159.5,148.5 Z"/></g>
<g><path style="opacity:1" fill="#542657" d="M 206.5,166.5 C 204.938,170.392 202.605,173.725 199.5,176.5C 201.062,172.608 203.395,169.275 206.5,166.5 Z"/></g>
<g><path style="opacity:1" fill="#061b4e" d="M 110.5,169.5 C 116.645,170.49 122.978,170.823 129.5,170.5C 123.681,171.328 117.681,171.828 111.5,172C 112.056,172.383 112.389,172.883 112.5,173.5C 107.482,173.009 102.816,171.676 98.5,169.5C 96.8632,167.876 97.1966,166.876 99.5,166.5C 103.009,168.115 106.675,169.115 110.5,169.5 Z"/></g>
<g><path style="opacity:1" fill="#736ff2" d="M 83.5,159.5 C 87.9739,163.644 92.9739,166.977 98.5,169.5C 102.816,171.676 107.482,173.009 112.5,173.5C 113.167,173.5 113.5,173.833 113.5,174.5C 110.998,174.251 108.498,173.917 106,173.5C 104.272,173.454 102.772,173.954 101.5,175C 101.594,176.422 101.928,177.922 102.5,179.5C 105.433,181.462 108.433,183.129 111.5,184.5C 110.167,184.5 108.833,184.5 107.5,184.5C 104.592,183.184 101.592,182.184 98.5,181.5C 96.9674,179.755 94.9674,178.755 92.5,178.5C 90.7625,175.474 88.9291,172.474 87,169.5C 86.3333,170.167 85.6667,170.833 85,171.5C 84.4644,169.433 84.9644,167.599 86.5,166C 84.5494,164.266 83.5494,162.099 83.5,159.5 Z"/></g>
<g><path style="opacity:1" fill="#5ba5f4" d="M 54.5,173.5 C 57.5,173.5 60.5,173.5 63.5,173.5C 67.1208,177.633 71.1208,181.3 75.5,184.5C 72.6072,184.368 70.2739,183.201 68.5,181C 67.0563,180.219 65.723,180.386 64.5,181.5C 66.2611,183.253 67.5944,185.253 68.5,187.5C 67.5004,189.48 66.1671,191.146 64.5,192.5C 61.9108,191.581 59.9108,189.914 58.5,187.5C 56.0521,186.527 53.3854,186.194 50.5,186.5C 49.7036,183.444 48.7036,180.444 47.5,177.5C 47.8333,176.833 48.1667,176.167 48.5,175.5C 53.0075,179.605 55.0075,178.939 54.5,173.5 Z"/></g>
<g><path style="opacity:1" fill="#7b62f6" d="M 113.5,174.5 C 117.833,174.5 122.167,174.5 126.5,174.5C 126.5,174.833 126.5,175.167 126.5,175.5C 122.167,175.5 117.833,175.5 113.5,175.5C 113.535,179.817 114.868,183.65 117.5,187C 114.521,191.123 112.188,195.623 110.5,200.5C 111.025,201.192 111.692,201.692 112.5,202C 108.446,206.029 109.113,209.196 114.5,211.5C 110.5,211.5 106.5,211.5 102.5,211.5C 101.833,210.833 101.167,210.167 100.5,209.5C 99.8953,207.974 98.7286,206.974 97,206.5C 97.4315,203.676 96.9315,200.842 95.5,198C 100.684,197.991 105.684,197.824 110.5,197.5C 110.232,195.901 110.566,194.568 111.5,193.5C 113.31,190.855 114.31,187.855 114.5,184.5C 113.5,184.5 112.5,184.5 111.5,184.5C 108.433,183.129 105.433,181.462 102.5,179.5C 101.928,177.922 101.594,176.422 101.5,175C 102.772,173.954 104.272,173.454 106,173.5C 108.498,173.917 110.998,174.251 113.5,174.5 Z"/></g>
<g><path style="opacity:1" fill="#874cfb" d="M 126.5,175.5 C 126.389,176.117 126.056,176.617 125.5,177C 126.696,178.364 127.696,179.864 128.5,181.5C 127.871,191.05 127.205,200.55 126.5,210C 132.141,211.608 137.807,211.441 143.5,209.5C 145.691,208.257 148.024,207.424 150.5,207C 149.567,205.392 150.233,204.559 152.5,204.5C 154.453,205.156 156.453,205.489 158.5,205.5C 153.915,207.695 149.249,209.695 144.5,211.5C 141.167,211.833 137.833,212.167 134.5,212.5C 127.798,212.664 121.131,212.331 114.5,211.5C 109.113,209.196 108.446,206.029 112.5,202C 111.692,201.692 111.025,201.192 110.5,200.5C 112.188,195.623 114.521,191.123 117.5,187C 114.868,183.65 113.535,179.817 113.5,175.5C 117.833,175.5 122.167,175.5 126.5,175.5 Z"/></g>
<g><path style="opacity:1" fill="#4cbdf0" d="M 54.5,173.5 C 55.0075,178.939 53.0075,179.605 48.5,175.5C 48.1667,176.167 47.8333,176.833 47.5,177.5C 48.7036,180.444 49.7036,183.444 50.5,186.5C 47.8333,186.5 45.1667,186.5 42.5,186.5C 42.5,182.167 42.5,177.833 42.5,173.5C 46.5,173.5 50.5,173.5 54.5,173.5 Z"/></g>
<g><path style="opacity:1" fill="#3e3b71" d="M 92.5,178.5 C 94.9674,178.755 96.9674,179.755 98.5,181.5C 96.0326,181.245 94.0326,180.245 92.5,178.5 Z"/></g>
<g><path style="opacity:1" fill="#953ef6" d="M 159.5,205.5 C 159.167,205.5 158.833,205.5 158.5,205.5C 156.453,205.489 154.453,205.156 152.5,204.5C 150.233,204.559 149.567,205.392 150.5,207C 148.024,207.424 145.691,208.257 143.5,209.5C 137.807,211.441 132.141,211.608 126.5,210C 127.205,200.55 127.871,191.05 128.5,181.5C 127.696,179.864 126.696,178.364 125.5,177C 126.056,176.617 126.389,176.117 126.5,175.5C 126.5,175.167 126.5,174.833 126.5,174.5C 126.833,174.5 127.167,174.5 127.5,174.5C 134.077,174.823 140.243,173.49 146,170.5C 147.699,171.406 149.533,171.739 151.5,171.5C 151.5,170.5 151.5,169.5 151.5,168.5C 152.822,168.67 153.989,168.337 155,167.5C 155.309,168.766 155.809,169.933 156.5,171C 156.589,172.716 156.256,174.549 155.5,176.5C 156.262,180.111 156.762,183.778 157,187.5C 157.5,188 158,188.5 158.5,189C 155.293,190.209 151.959,191.209 148.5,192C 152.211,195.338 156.378,196.171 161,194.5C 161.5,195 162,195.5 162.5,196C 160.338,197.493 158.338,199.16 156.5,201C 157.748,202.4 158.748,203.9 159.5,205.5 Z"/></g>
<g><path style="opacity:1" fill="#688df3" d="M 75.5,184.5 C 79.9782,187.678 84.6449,190.345 89.5,192.5C 87.4595,191.481 85.4595,191.481 83.5,192.5C 83.723,193.967 84.0563,195.467 84.5,197C 83.2091,199.878 81.7091,199.712 80,196.5C 79.6258,197.416 79.1258,198.25 78.5,199C 80.3757,199.918 81.3757,201.418 81.5,203.5C 79.4068,202.955 77.4068,202.122 75.5,201C 71.4031,198.63 67.7365,195.797 64.5,192.5C 66.1671,191.146 67.5004,189.48 68.5,187.5C 67.5944,185.253 66.2611,183.253 64.5,181.5C 65.723,180.386 67.0563,180.219 68.5,181C 70.2739,183.201 72.6072,184.368 75.5,184.5 Z"/></g>
<g><path style="opacity:1" fill="#3c6e8b" d="M 63.5,173.5 C 60.5,173.5 57.5,173.5 54.5,173.5C 50.5,173.5 46.5,173.5 42.5,173.5C 42.5,177.833 42.5,182.167 42.5,186.5C 45.1667,186.5 47.8333,186.5 50.5,186.5C 53.3854,186.194 56.0521,186.527 58.5,187.5C 52.8333,187.5 47.1667,187.5 41.5,187.5C 41.5,182.5 41.5,177.5 41.5,172.5C 49.0191,172.175 56.3524,172.508 63.5,173.5 Z"/></g>
<g><path style="opacity:1" fill="#3f326b" d="M 107.5,184.5 C 108.833,184.5 110.167,184.5 111.5,184.5C 112.5,184.5 113.5,184.5 114.5,184.5C 114.31,187.855 113.31,190.855 111.5,193.5C 111.833,190.833 112.167,188.167 112.5,185.5C 110.585,185.784 108.919,185.451 107.5,184.5 Z"/></g>
<g><path style="opacity:1" fill="#51569a" d="M 81.5,203.5 C 85.3267,203.752 88.6601,205.085 91.5,207.5C 87.6733,207.248 84.3399,205.915 81.5,203.5 Z"/></g>
<g><path style="opacity:1" fill="#7078f2" d="M 89.5,192.5 C 96.306,194.913 103.306,196.58 110.5,197.5C 105.684,197.824 100.684,197.991 95.5,198C 96.9315,200.842 97.4315,203.676 97,206.5C 98.7286,206.974 99.8953,207.974 100.5,209.5C 97.8127,209.664 95.146,209.497 92.5,209C 91.944,208.617 91.6107,208.117 91.5,207.5C 88.6601,205.085 85.3267,203.752 81.5,203.5C 81.3757,201.418 80.3757,199.918 78.5,199C 79.1258,198.25 79.6258,197.416 80,196.5C 81.7091,199.712 83.2091,199.878 84.5,197C 84.0563,195.467 83.723,193.967 83.5,192.5C 85.4595,191.481 87.4595,191.481 89.5,192.5 Z"/></g>
<g><path style="opacity:1" fill="#3b2455" d="M 158.5,205.5 C 158.833,205.5 159.167,205.5 159.5,205.5C 159.833,205.5 160.167,205.5 160.5,205.5C 155.79,208.852 150.457,210.852 144.5,211.5C 149.249,209.695 153.915,207.695 158.5,205.5 Z"/></g>
<g><path style="opacity:1" fill="#5b429a" d="M 102.5,211.5 C 106.5,211.5 110.5,211.5 114.5,211.5C 121.131,212.331 127.798,212.664 134.5,212.5C 130.849,213.165 127.015,213.499 123,213.5C 115.947,213.571 109.114,212.904 102.5,211.5 Z"/></g>
</svg>
