<?xml version="1.0" encoding="UTF-8"?>
<!DOCTYPE svg PUBLIC "-//W3C//DTD SVG 1.1//EN" "http://www.w3.org/Graphics/SVG/1.1/DTD/svg11.dtd">
<svg xmlns="http://www.w3.org/2000/svg" version="1.1" width="225px" height="225px" style="shape-rendering:geometricPrecision; text-rendering:geometricPrecision; image-rendering:optimizeQuality; fill-rule:evenodd; clip-rule:evenodd" xmlns:xlink="http://www.w3.org/1999/xlink">
<g><path style="opacity:1" fill="#dc5447" d="M 155.5,18.5 C 134.095,11.0793 112.095,8.74595 89.5,11.5C 112.294,6.09879 134.294,8.43212 155.5,18.5 Z"/></g>
<g><path style="opacity:1" fill="#dc372d" d="M 85.5,12.5 C 83.0826,14.8834 80.0826,16.5501 76.5,17.5C 71.8069,18.8529 67.1402,20.1862 62.5,21.5C 69.5669,17.1395 77.2335,14.1395 85.5,12.5 Z"/></g>
<g><path style="opacity:1" fill="#dc4137" d="M 155.5,18.5 C 161.489,20.4905 166.823,23.4905 171.5,27.5C 166.172,25.5109 160.839,23.5109 155.5,21.5C 155.5,20.5 155.5,19.5 155.5,18.5 Z"/></g>
<g><path style="opacity:1" fill="#d75c4c" d="M 171.5,27.5 C 173.754,28.1237 175.421,29.457 176.5,31.5C 173.796,31.3304 172.129,29.9971 171.5,27.5 Z"/></g>
<g><path style="opacity:1" fill="#e43229" d="M 62.5,21.5 C 60.4056,23.4739 58.4056,25.6406 56.5,28C 57.34,29.7674 58.6734,31.1007 60.5,32C 59.0953,33.2692 57.4286,33.7692 55.5,33.5C 55.5,31.8333 55.5,30.1667 55.5,28.5C 53.0862,30.2245 50.4196,31.5578 47.5,32.5C 47.5,33.8333 47.5,35.1667 47.5,36.5C 45.8333,36.5 44.1667,36.5 42.5,36.5C 42.2865,38.1439 42.6198,39.6439 43.5,41C 42.3333,41.5 41.5,42.3333 41,43.5C 37.2857,42.1127 35.119,43.446 34.5,47.5C 33.5,47.5 32.5,47.5 31.5,47.5C 39.6777,36.2471 50.011,27.5804 62.5,21.5 Z"/></g>
<g><path style="opacity:1" fill="#f11817" d="M 131.5,35.5 C 131.833,35.5 132.167,35.5 132.5,35.5C 138.538,38.3551 144.538,41.5218 150.5,45C 149.142,47.7515 149.809,48.2515 152.5,46.5C 154.601,46.6316 156.101,47.6316 157,49.5C 157.671,48.7476 158.504,48.4142 159.5,48.5C 159.837,50.672 160.837,52.5054 162.5,54C 162.265,54.8732 161.931,55.7065 161.5,56.5C 162.93,56.3062 164.43,56.3062 166,56.5C 166.507,57.9961 166.007,59.1627 164.5,60C 166.049,61.214 167.215,62.714 168,64.5C 168.49,63.2068 168.657,61.8734 168.5,60.5C 169.5,60.5 170.5,60.5 171.5,60.5C 170.833,62.8194 170.666,65.1527 171,67.5C 171.333,67.1667 171.667,66.8333 172,66.5C 173.307,67.7717 174.807,68.7717 176.5,69.5C 176.291,70.086 175.957,70.586 175.5,71C 177.59,71.6695 179.257,72.8361 180.5,74.5C 178.833,74.5 177.167,74.5 175.5,74.5C 175.351,75.552 175.517,76.552 176,77.5C 176.519,76.4844 177.353,75.8178 178.5,75.5C 182.559,76.6392 183.059,78.3058 180,80.5C 176.879,78.2015 174.546,78.5348 173,81.5C 172,81.1667 171,80.8333 170,80.5C 164.552,81.1457 159.052,81.8124 153.5,82.5C 151.891,84.9402 149.557,86.1069 146.5,86C 144.937,88.4763 145.604,89.9763 148.5,90.5C 150.898,89.611 152.898,88.111 154.5,86C 159.918,85.4662 160.418,86.2995 156,88.5C 155.517,89.448 155.351,90.448 155.5,91.5C 162.131,92.331 168.798,92.6643 175.5,92.5C 175.5,91.5 175.5,90.5 175.5,89.5C 179.172,89.1826 180.838,90.8493 180.5,94.5C 184.322,95.1797 185.989,97.513 185.5,101.5C 183.833,99.1667 181.833,97.1667 179.5,95.5C 175.44,93.983 171.107,93.3164 166.5,93.5C 163.314,93.502 160.314,93.8353 157.5,94.5C 157.5,106.833 157.5,119.167 157.5,131.5C 160.625,132.479 163.958,132.813 167.5,132.5C 167.48,134.143 168.147,135.476 169.5,136.5C 166.932,137.28 164.932,138.78 163.5,141C 163.833,141.5 164.167,142 164.5,142.5C 166.662,140.98 168.995,139.98 171.5,139.5C 171.426,143.161 172.426,143.828 174.5,141.5C 175.809,143.891 176.809,143.891 177.5,141.5C 177.176,139.431 176.342,139.098 175,140.5C 173.991,138.975 173.491,137.308 173.5,135.5C 177.167,135.164 180.5,135.997 183.5,138C 182.167,138.667 182.167,139.333 183.5,140C 181.981,141.351 180.648,142.851 179.5,144.5C 183.371,145.141 184.038,146.641 181.5,149C 182.973,149.71 183.64,150.876 183.5,152.5C 185.665,152.116 187.332,152.783 188.5,154.5C 188.043,155.298 187.376,155.631 186.5,155.5C 186.209,154.351 185.376,153.684 184,153.5C 180.759,154.295 178.593,156.295 177.5,159.5C 176.5,159.5 175.5,159.5 174.5,159.5C 174.5,160.5 174.5,161.5 174.5,162.5C 173.127,162.343 171.793,162.51 170.5,163C 171.337,164.011 171.67,165.178 171.5,166.5C 168.437,170.566 164.771,173.899 160.5,176.5C 157.769,177.027 155.102,177.86 152.5,179C 152.833,179.333 153.167,179.667 153.5,180C 151,180.671 149.333,182.171 148.5,184.5C 145.753,184.187 143.086,184.52 140.5,185.5C 136.728,187.354 133.061,189.354 129.5,191.5C 118.136,194.135 106.803,194.135 95.5,191.5C 93.4855,190.076 91.1522,189.41 88.5,189.5C 81.9397,187.882 75.9397,185.216 70.5,181.5C 69.9717,180.279 69.305,179.113 68.5,178C 72.2676,176.823 72.1009,175.656 68,174.5C 66.6124,175.554 65.1124,175.72 63.5,175C 63.761,172.797 63.261,170.63 62,168.5C 61.6851,171.147 60.5184,171.813 58.5,170.5C 56.4125,168.255 55.0792,165.588 54.5,162.5C 52.1538,160.489 49.4871,159.156 46.5,158.5C 45.0665,157.167 43.7332,155.667 42.5,154C 40.8659,153.506 39.1992,153.34 37.5,153.5C 36.6862,155.631 36.1862,157.964 36,160.5C 33.7391,161.772 33.2391,163.438 34.5,165.5C 37.4928,161.876 40.3261,161.876 43,165.5C 43.49,166.793 43.6567,168.127 43.5,169.5C 42.1779,169.67 41.0113,169.337 40,168.5C 39,171.167 38,171.167 37,168.5C 36.6258,169.416 36.1258,170.25 35.5,171C 36.3081,171.308 36.9747,171.808 37.5,172.5C 35.8076,174.359 34.3076,176.359 33,178.5C 31.8118,177.437 31.3118,176.103 31.5,174.5C 30.5,174.5 29.5,174.5 28.5,174.5C 27.8037,171.68 26.8037,169.013 25.5,166.5C 25.5723,163.259 27.239,161.426 30.5,161C 29.737,160.056 28.737,159.556 27.5,159.5C 25.7284,160.36 24.3951,161.693 23.5,163.5C 21.6666,161.851 19.9999,160.184 18.5,158.5C 16.9925,156.819 15.9925,154.819 15.5,152.5C 15.323,148.292 13.9897,144.626 11.5,141.5C 11.5,141.167 11.5,140.833 11.5,140.5C 9.83504,125.555 9.16838,110.555 9.5,95.5C 9.5,95.1667 9.5,94.8333 9.5,94.5C 10.1515,93.9094 10.8182,93.2427 11.5,92.5C 13.3447,84.7877 15.3447,77.121 17.5,69.5C 20.6718,61.1425 25.3385,53.8092 31.5,47.5C 28.9994,51.1678 26.9994,55.1678 25.5,59.5C 27.8822,61.0707 30.5488,61.904 33.5,62C 31.1144,62.2835 30.4477,63.2835 31.5,65C 33.5185,64.8475 35.5185,64.3475 37.5,63.5C 39.4646,63.9483 39.7979,64.9483 38.5,66.5C 36.9825,65.0892 35.6492,65.2559 34.5,67C 36.25,68.7542 36.9167,70.9208 36.5,73.5C 38.8568,73.6633 41.1902,73.4966 43.5,73C 44.2524,72.3292 44.5858,71.4959 44.5,70.5C 46.5271,69.0634 48.6938,67.7301 51,66.5C 51.561,63.7206 52.3944,61.054 53.5,58.5C 54.1667,57.1667 55.1667,56.1667 56.5,55.5C 60.7483,53.9998 64.0816,51.3331 66.5,47.5C 69.4982,47.7511 71.9982,46.7511 74,44.5C 74.9503,45.0223 75.7836,45.689 76.5,46.5C 77.1667,45.5 77.8333,44.5 78.5,43.5C 82.7628,41.8658 86.4295,39.5324 89.5,36.5C 97.0573,36.0773 104.557,35.4106 112,34.5C 118.507,34.786 125.007,35.1194 131.5,35.5 Z M 46.5,87.5 C 46.8828,93.4004 47.8828,99.067 49.5,104.5C 49.5,105.5 49.5,106.5 49.5,107.5C 44.4361,108.091 39.7695,107.091 35.5,104.5C 33.542,99.3345 32.2086,94.0012 31.5,88.5C 33.3972,87.1952 35.7305,86.5286 38.5,86.5C 41.2529,86.5511 43.9195,86.8844 46.5,87.5 Z M 79.5,89.5 C 79.5,90.1667 79.5,90.8333 79.5,91.5C 78.525,94.3112 77.8583,97.3112 77.5,100.5C 77.5,100.833 77.5,101.167 77.5,101.5C 75.883,104.784 73.5497,107.451 70.5,109.5C 67.0078,110.41 64.0078,112.076 61.5,114.5C 59.326,114.75 57.6594,115.75 56.5,117.5C 52.8467,118.989 50.3467,121.656 49,125.5C 47.3693,129.688 46.5359,134.021 46.5,138.5C 41.5947,139.445 36.5947,139.779 31.5,139.5C 31.5,138.5 31.5,137.5 31.5,136.5C 31.5,136.167 31.5,135.833 31.5,135.5C 32.627,131.317 33.627,126.983 34.5,122.5C 40.8107,117.041 47.8107,112.541 55.5,109C 61.8814,103.701 64.8814,96.8678 64.5,88.5C 69.193,86.6402 74.193,85.9735 79.5,86.5C 79.5,87.5 79.5,88.5 79.5,89.5 Z M 97.5,94.5 C 100.5,94.5 103.5,94.5 106.5,94.5C 106.5,106.833 106.5,119.167 106.5,131.5C 103.5,131.5 100.5,131.5 97.5,131.5C 97.5,119.167 97.5,106.833 97.5,94.5 Z M 137.5,95.5 C 144.884,98.7665 148.55,104.6 148.5,113C 148.226,116.592 147.559,120.092 146.5,123.5C 144.628,126.529 141.961,128.695 138.5,130C 131.908,131.329 125.241,131.829 118.5,131.5C 118.5,119.167 118.5,106.833 118.5,94.5C 124.863,94.407 131.196,94.7403 137.5,95.5 Z M 73.5,120.5 C 75.0627,121.945 76.396,123.611 77.5,125.5C 77.8583,128.689 78.525,131.689 79.5,134.5C 79.5,135.167 79.5,135.833 79.5,136.5C 79.5,137.5 79.5,138.5 79.5,139.5C 74.193,140.026 69.193,139.36 64.5,137.5C 64.0155,131.411 63.0155,125.411 61.5,119.5C 65.6507,118.186 69.6507,118.519 73.5,120.5 Z"/></g>
<g><path style="opacity:1" fill="#e6483c" d="M 51.5,52.5 C 46.1103,58.2701 41.4436,64.6034 37.5,71.5C 40.0996,72.8456 42.4329,72.5123 44.5,70.5C 44.5858,71.4959 44.2524,72.3292 43.5,73C 41.1902,73.4966 38.8568,73.6633 36.5,73.5C 36.9167,70.9208 36.25,68.7542 34.5,67C 35.6492,65.2559 36.9825,65.0892 38.5,66.5C 39.7979,64.9483 39.4646,63.9483 37.5,63.5C 37.281,62.325 37.6143,61.325 38.5,60.5C 39.7362,61.2458 41.0695,61.5792 42.5,61.5C 42.2267,59.549 42.8934,58.049 44.5,57C 44.1667,56.6667 43.8333,56.3333 43.5,56C 44.7932,55.51 46.1266,55.3433 47.5,55.5C 47.3433,54.1266 47.51,52.7932 48,51.5C 49.0113,52.3366 50.1779,52.67 51.5,52.5 Z"/></g>
<g><path style="opacity:1" fill="#dd3c30" d="M 53.5,58.5 C 52.3944,61.054 51.561,63.7206 51,66.5C 48.6938,67.7301 46.5271,69.0634 44.5,70.5C 46.7376,65.9289 49.7376,61.9289 53.5,58.5 Z"/></g>
<g><path style="opacity:1" fill="#e62d24" d="M 159.5,48.5 C 164.46,51.7923 168.793,55.7923 172.5,60.5C 172.427,62.0269 173.094,63.0269 174.5,63.5C 176.969,66.1438 179.302,68.9772 181.5,72C 183.259,72.7975 184.926,72.6309 186.5,71.5C 184.807,68.8159 183.14,66.1492 181.5,63.5C 183.527,63.3379 185.527,63.5045 187.5,64C 186.643,64.6891 185.977,65.5224 185.5,66.5C 187.229,68.8511 187.896,71.5178 187.5,74.5C 185.167,74.5 182.833,74.5 180.5,74.5C 179.257,72.8361 177.59,71.6695 175.5,71C 175.957,70.586 176.291,70.086 176.5,69.5C 174.807,68.7717 173.307,67.7717 172,66.5C 171.667,66.8333 171.333,67.1667 171,67.5C 170.666,65.1527 170.833,62.8194 171.5,60.5C 170.5,60.5 169.5,60.5 168.5,60.5C 168.657,61.8734 168.49,63.2068 168,64.5C 167.215,62.714 166.049,61.214 164.5,60C 166.007,59.1627 166.507,57.9961 166,56.5C 164.43,56.3062 162.93,56.3062 161.5,56.5C 161.931,55.7065 162.265,54.8732 162.5,54C 160.837,52.5054 159.837,50.672 159.5,48.5 Z"/></g>
<g><path style="opacity:1" fill="#e05e52" d="M 206.5,69.5 C 208.008,71.1815 209.008,73.1815 209.5,75.5C 207.031,74.3933 206.031,72.3933 206.5,69.5 Z"/></g>
<g><path style="opacity:1" fill="#f11716" d="M 155.5,18.5 C 155.5,19.5 155.5,20.5 155.5,21.5C 160.839,23.5109 166.172,25.5109 171.5,27.5C 172.129,29.9971 173.796,31.3304 176.5,31.5C 189.861,41.5258 199.861,54.1925 206.5,69.5C 206.031,72.3933 207.031,74.3933 209.5,75.5C 209.5,75.8333 209.5,76.1667 209.5,76.5C 209.662,83.8484 211.162,90.8484 214,97.5C 214.5,108.828 214.667,120.162 214.5,131.5C 214.675,133.621 214.341,135.621 213.5,137.5C 211.692,138.918 211.025,140.918 211.5,143.5C 210.485,149.214 208.485,154.547 205.5,159.5C 204.5,159.5 203.5,159.5 202.5,159.5C 202.5,160.5 202.5,161.5 202.5,162.5C 197.872,162.945 196.372,165.278 198,169.5C 197.465,167.729 196.631,167.396 195.5,168.5C 195.833,169.167 196.167,169.833 196.5,170.5C 196.154,171.696 195.654,171.696 195,170.5C 194.51,171.793 194.343,173.127 194.5,174.5C 193.448,174.351 192.448,174.517 191.5,175C 191.833,175.333 192.167,175.667 192.5,176C 191.186,176.985 190.186,178.152 189.5,179.5C 188.294,176.702 186.294,174.535 183.5,173C 185.107,171.951 185.773,170.451 185.5,168.5C 184.5,168.5 183.5,168.5 182.5,168.5C 182.5,169.833 182.5,171.167 182.5,172.5C 181.167,172.5 179.833,172.5 178.5,172.5C 178.351,171.448 178.517,170.448 179,169.5C 183.882,166.068 186.382,161.401 186.5,155.5C 187.376,155.631 188.043,155.298 188.5,154.5C 187.332,152.783 185.665,152.116 183.5,152.5C 183.64,150.876 182.973,149.71 181.5,149C 184.038,146.641 183.371,145.141 179.5,144.5C 180.648,142.851 181.981,141.351 183.5,140C 182.167,139.333 182.167,138.667 183.5,138C 180.5,135.997 177.167,135.164 173.5,135.5C 173.491,137.308 173.991,138.975 175,140.5C 176.342,139.098 177.176,139.431 177.5,141.5C 176.809,143.891 175.809,143.891 174.5,141.5C 172.426,143.828 171.426,143.161 171.5,139.5C 168.995,139.98 166.662,140.98 164.5,142.5C 164.167,142 163.833,141.5 163.5,141C 164.932,138.78 166.932,137.28 169.5,136.5C 168.147,135.476 167.48,134.143 167.5,132.5C 167.5,132.167 167.5,131.833 167.5,131.5C 174.827,132.205 182.16,132.372 189.5,132C 190.337,130.989 190.67,129.822 190.5,128.5C 189.448,128.649 188.448,128.483 187.5,128C 186.324,125.024 184.658,122.524 182.5,120.5C 184.162,117.646 185.662,114.646 187,111.5C 187.667,108.833 187.667,106.167 187,103.5C 186.722,102.584 186.222,101.918 185.5,101.5C 185.989,97.513 184.322,95.1797 180.5,94.5C 180.838,90.8493 179.172,89.1826 175.5,89.5C 175.5,90.5 175.5,91.5 175.5,92.5C 168.798,92.6643 162.131,92.331 155.5,91.5C 155.351,90.448 155.517,89.448 156,88.5C 160.418,86.2995 159.918,85.4662 154.5,86C 152.898,88.111 150.898,89.611 148.5,90.5C 145.604,89.9763 144.937,88.4763 146.5,86C 149.557,86.1069 151.891,84.9402 153.5,82.5C 159.052,81.8124 164.552,81.1457 170,80.5C 171,80.8333 172,81.1667 173,81.5C 174.546,78.5348 176.879,78.2015 180,80.5C 183.059,78.3058 182.559,76.6392 178.5,75.5C 177.353,75.8178 176.519,76.4844 176,77.5C 175.517,76.552 175.351,75.552 175.5,74.5C 177.167,74.5 178.833,74.5 180.5,74.5C 182.833,74.5 185.167,74.5 187.5,74.5C 187.896,71.5178 187.229,68.8511 185.5,66.5C 185.977,65.5224 186.643,64.6891 187.5,64C 185.527,63.5045 183.527,63.3379 181.5,63.5C 181.334,60.8316 180.334,58.4983 178.5,56.5C 181.167,55.5 181.167,54.5 178.5,53.5C 176.018,54.2693 174.185,53.2693 173,50.5C 172.464,48.4328 172.964,46.5994 174.5,45C 173.584,44.6258 172.75,44.1258 172,43.5C 171.653,45.1802 170.653,46.1802 169,46.5C 166.888,43.6944 164.054,42.3611 160.5,42.5C 153.407,38.2867 146.073,34.62 138.5,31.5C 137.571,30.6851 136.571,29.8518 135.5,29C 123.395,25.8475 111.395,25.6809 99.5,28.5C 97.6208,29.3414 95.6208,29.6747 93.5,29.5C 90.6122,28.9898 88.2789,29.6565 86.5,31.5C 86.1667,31.5 85.8333,31.5 85.5,31.5C 82.0861,31.7358 78.7527,32.4025 75.5,33.5C 74.3881,34.2652 73.7214,35.2652 73.5,36.5C 70.979,36.4397 68.6457,37.1064 66.5,38.5C 65.5581,38.3918 64.7247,38.0585 64,37.5C 64.1484,38.825 63.9817,39.9916 63.5,41C 62.2575,41.3114 61.2575,40.8114 60.5,39.5C 59.2888,40.2739 59.2888,41.1072 60.5,42C 59.2161,42.6838 58.0495,42.5171 57,41.5C 54.2038,43.7147 53.3705,46.3814 54.5,49.5C 53.8333,50.8333 52.8333,51.8333 51.5,52.5C 50.1779,52.67 49.0113,52.3366 48,51.5C 47.51,52.7932 47.3433,54.1266 47.5,55.5C 46.1266,55.3433 44.7932,55.51 43.5,56C 43.8333,56.3333 44.1667,56.6667 44.5,57C 42.8934,58.049 42.2267,59.549 42.5,61.5C 41.0695,61.5792 39.7362,61.2458 38.5,60.5C 37.6143,61.325 37.281,62.325 37.5,63.5C 35.5185,64.3475 33.5185,64.8475 31.5,65C 30.4477,63.2835 31.1144,62.2835 33.5,62C 30.5488,61.904 27.8822,61.0707 25.5,59.5C 26.9994,55.1678 28.9994,51.1678 31.5,47.5C 32.5,47.5 33.5,47.5 34.5,47.5C 35.119,43.446 37.2857,42.1127 41,43.5C 41.5,42.3333 42.3333,41.5 43.5,41C 42.6198,39.6439 42.2865,38.1439 42.5,36.5C 44.1667,36.5 45.8333,36.5 47.5,36.5C 47.5,35.1667 47.5,33.8333 47.5,32.5C 50.4196,31.5578 53.0862,30.2245 55.5,28.5C 55.5,30.1667 55.5,31.8333 55.5,33.5C 57.4286,33.7692 59.0953,33.2692 60.5,32C 58.6734,31.1007 57.34,29.7674 56.5,28C 58.4056,25.6406 60.4056,23.4739 62.5,21.5C 67.1402,20.1862 71.8069,18.8529 76.5,17.5C 80.0826,16.5501 83.0826,14.8834 85.5,12.5C 86.5676,11.5655 87.901,11.2322 89.5,11.5C 112.095,8.74595 134.095,11.0793 155.5,18.5 Z"/></g>
<g><path style="opacity:1" fill="#d97d75" d="M 172.5,60.5 C 173.906,60.9731 174.573,61.9731 174.5,63.5C 173.094,63.0269 172.427,62.0269 172.5,60.5 Z"/></g>
<g><path style="opacity:1" fill="#e23c2e" d="M 160.5,42.5 C 164.054,42.3611 166.888,43.6944 169,46.5C 170.653,46.1802 171.653,45.1802 172,43.5C 172.75,44.1258 173.584,44.6258 174.5,45C 172.964,46.5994 172.464,48.4328 173,50.5C 174.185,53.2693 176.018,54.2693 178.5,53.5C 181.167,54.5 181.167,55.5 178.5,56.5C 180.334,58.4983 181.334,60.8316 181.5,63.5C 175.5,55.5 168.5,48.5 160.5,42.5 Z"/></g>
<g><path style="opacity:1" fill="#d65646" d="M 66.5,47.5 C 64.0816,51.3331 60.7483,53.9998 56.5,55.5C 59.0948,51.8743 62.4281,49.2076 66.5,47.5 Z"/></g>
<g><path style="opacity:1" fill="#e04839" d="M 132.5,35.5 C 142.475,37.9888 151.475,42.3221 159.5,48.5C 158.504,48.4142 157.671,48.7476 157,49.5C 156.101,47.6316 154.601,46.6316 152.5,46.5C 149.809,48.2515 149.142,47.7515 150.5,45C 144.538,41.5218 138.538,38.3551 132.5,35.5 Z"/></g>
<g><path style="opacity:1" fill="#e1352a" d="M 89.5,36.5 C 86.4295,39.5324 82.7628,41.8658 78.5,43.5C 77.8333,44.5 77.1667,45.5 76.5,46.5C 75.7836,45.689 74.9503,45.0223 74,44.5C 71.9982,46.7511 69.4982,47.7511 66.5,47.5C 73.2107,41.9791 80.8774,38.3125 89.5,36.5 Z"/></g>
<g><path style="opacity:1" fill="#e74133" d="M 73.5,36.5 C 67.0303,40.5734 60.6969,44.9067 54.5,49.5C 53.3705,46.3814 54.2038,43.7147 57,41.5C 58.0495,42.5171 59.2161,42.6838 60.5,42C 59.2888,41.1072 59.2888,40.2739 60.5,39.5C 61.2575,40.8114 62.2575,41.3114 63.5,41C 63.9817,39.9916 64.1484,38.825 64,37.5C 64.7247,38.0585 65.5581,38.3918 66.5,38.5C 68.6457,37.1064 70.979,36.4397 73.5,36.5 Z"/></g>
<g><path style="opacity:1" fill="#df5c4d" d="M 131.5,35.5 C 125.007,35.1194 118.507,34.786 112,34.5C 104.557,35.4106 97.0573,36.0773 89.5,36.5C 103.394,31.6403 117.394,31.307 131.5,35.5 Z"/></g>
<g><path style="opacity:1" fill="#de5044" d="M 85.5,31.5 C 81.7387,33.5375 77.7387,35.2042 73.5,36.5C 73.7214,35.2652 74.3881,34.2652 75.5,33.5C 78.7527,32.4025 82.0861,31.7358 85.5,31.5 Z"/></g>
<g><path style="opacity:1" fill="#e56a62" d="M 93.5,29.5 C 91.4006,30.6118 89.0673,31.2785 86.5,31.5C 88.2789,29.6565 90.6122,28.9898 93.5,29.5 Z"/></g>
<g><path style="opacity:1" fill="#df6052" d="M 138.5,31.5 C 125.637,28.3909 112.637,27.3909 99.5,28.5C 111.395,25.6809 123.395,25.8475 135.5,29C 136.571,29.8518 137.571,30.6851 138.5,31.5 Z"/></g>
<g><path style="opacity:0.522" fill="#ed8282" d="M 46.5,85.5 C 46.5,86.1667 46.5,86.8333 46.5,87.5C 43.9195,86.8844 41.2529,86.5511 38.5,86.5C 35.7305,86.5286 33.3972,87.1952 31.5,88.5C 30.596,87.791 30.2627,86.791 30.5,85.5C 35.8333,85.5 41.1667,85.5 46.5,85.5 Z"/></g>
<g><path style="opacity:0.52" fill="#f28786" d="M 64.5,85.5 C 69.8333,85.5 75.1667,85.5 80.5,85.5C 80.7678,87.099 80.4345,88.4324 79.5,89.5C 79.5,88.5 79.5,87.5 79.5,86.5C 74.193,85.9735 69.193,86.6402 64.5,88.5C 64.5,87.5 64.5,86.5 64.5,85.5 Z"/></g>
<g><path style="opacity:1" fill="#df726f" d="M 211.5,82.5 C 212.924,84.5145 213.59,86.8478 213.5,89.5C 212.076,87.4855 211.41,85.1522 211.5,82.5 Z"/></g>
<g><path style="opacity:1" fill="#e05447" d="M 209.5,76.5 C 210.738,78.2143 211.405,80.2143 211.5,82.5C 211.41,85.1522 212.076,87.4855 213.5,89.5C 215.631,97.2177 216.631,105.218 216.5,113.5C 216.62,119.733 215.953,125.733 214.5,131.5C 214.667,120.162 214.5,108.828 214,97.5C 211.162,90.8484 209.662,83.8484 209.5,76.5 Z"/></g>
<g><path style="opacity:1" fill="#df5d53" d="M 46.5,85.5 C 47.7773,86.6936 48.4439,88.3603 48.5,90.5C 49.0225,94.4889 49.3558,98.4889 49.5,102.5C 49.5,103.167 49.5,103.833 49.5,104.5C 47.8828,99.067 46.8828,93.4004 46.5,87.5C 46.5,86.8333 46.5,86.1667 46.5,85.5 Z"/></g>
<g><path style="opacity:1" fill="#d94038" d="M 17.5,69.5 C 15.3447,77.121 13.3447,84.7877 11.5,92.5C 10.8182,93.2427 10.1515,93.9094 9.5,94.5C 10.5915,85.5622 13.2582,77.2289 17.5,69.5 Z"/></g>
<g><path style="opacity:0.918" fill="#cc4e48" d="M 157.5,94.5 C 160.314,93.8353 163.314,93.502 166.5,93.5C 171.107,93.3164 175.44,93.983 179.5,95.5C 172.196,94.6979 164.862,94.3646 157.5,94.5 Z"/></g>
<g><path style="opacity:1" fill="#b42321" d="M 106.5,93.5 C 106.5,93.8333 106.5,94.1667 106.5,94.5C 103.5,94.5 100.5,94.5 97.5,94.5C 96.5048,106.655 96.1714,118.989 96.5,131.5C 95.5046,119.011 95.1713,106.344 95.5,93.5C 99.1667,93.5 102.833,93.5 106.5,93.5 Z"/></g>
<g><path style="opacity:1" fill="#df6863" d="M 79.5,91.5 C 79.6641,94.1873 79.4974,96.854 79,99.5C 78.6174,100.056 78.1174,100.389 77.5,100.5C 77.8583,97.3112 78.525,94.3112 79.5,91.5 Z"/></g>
<g><path style="opacity:0.145" fill="#ffcfd3" d="M 173.5,102.5 C 170.918,102.025 168.918,102.692 167.5,104.5C 167.5,106.5 167.5,108.5 167.5,110.5C 167.5,110.833 167.5,111.167 167.5,111.5C 166.521,108.375 166.187,105.042 166.5,101.5C 169.059,101.198 171.393,101.532 173.5,102.5 Z"/></g>
<g><path style="opacity:1" fill="#db4538" d="M 77.5,101.5 C 77.5163,106.166 75.183,108.832 70.5,109.5C 73.5497,107.451 75.883,104.784 77.5,101.5 Z"/></g>
<g><path style="opacity:1" fill="#eb1615" d="M 167.5,110.5 C 167.5,108.5 167.5,106.5 167.5,104.5C 169.717,103.631 172.05,103.298 174.5,103.5C 175.498,109.167 173.164,111.501 167.5,110.5 Z"/></g>
<g><path style="opacity:1" fill="#d04238" d="M 173.5,102.5 C 176.947,103.73 177.947,106.064 176.5,109.5C 173.807,111.27 170.807,111.937 167.5,111.5C 167.5,111.167 167.5,110.833 167.5,110.5C 173.164,111.501 175.498,109.167 174.5,103.5C 172.05,103.298 169.717,103.631 167.5,104.5C 168.918,102.692 170.918,102.025 173.5,102.5 Z"/></g>
<g><path style="opacity:1" fill="#d63c30" d="M 137.5,95.5 C 140.321,95.5387 142.988,96.2054 145.5,97.5C 146.798,100.623 148.298,103.623 150,106.5C 150.828,110.871 150.661,115.205 149.5,119.5C 148.943,121.332 147.943,122.665 146.5,123.5C 147.559,120.092 148.226,116.592 148.5,113C 148.55,104.6 144.884,98.7665 137.5,95.5 Z"/></g>
<g><path style="opacity:1" fill="#da574b" d="M 9.5,95.5 C 9.16838,110.555 9.83504,125.555 11.5,140.5C 8.74855,131.677 7.41521,122.511 7.5,113C 7.39045,106.933 8.05712,101.1 9.5,95.5 Z"/></g>
<g><path style="opacity:1" fill="#ed1a1a" d="M 134.5,103.5 C 135.833,104.167 136.833,105.167 137.5,106.5C 137.563,111.203 137.229,115.87 136.5,120.5C 136.167,121.5 135.5,122.167 134.5,122.5C 132.833,122.5 131.167,122.5 129.5,122.5C 129.5,116.167 129.5,109.833 129.5,103.5C 131.167,103.5 132.833,103.5 134.5,103.5 Z"/></g>
<g><path style="opacity:1" fill="#d5473e" d="M 70.5,109.5 C 68.2973,112.438 65.2973,114.105 61.5,114.5C 64.0078,112.076 67.0078,110.41 70.5,109.5 Z"/></g>
<g><path style="opacity:1" fill="#e44437" d="M 64.5,85.5 C 64.5,86.5 64.5,87.5 64.5,88.5C 64.8814,96.8678 61.8814,103.701 55.5,109C 47.8107,112.541 40.8107,117.041 34.5,122.5C 34.7135,120.856 34.3802,119.356 33.5,118C 34.549,117.508 35.549,117.674 36.5,118.5C 37.2811,117.271 37.7811,115.938 38,114.5C 39.0495,115.517 40.2161,115.684 41.5,115C 42.7786,113.354 44.4453,112.187 46.5,111.5C 44.6847,109.306 42.518,108.972 40,110.5C 37.2888,109.412 35.7888,107.412 35.5,104.5C 39.7695,107.091 44.4361,108.091 49.5,107.5C 49.5,106.5 49.5,105.5 49.5,104.5C 49.5,103.833 49.5,103.167 49.5,102.5C 50.339,103.641 51.0057,104.974 51.5,106.5C 52.6888,107.429 54.0222,107.762 55.5,107.5C 55.2308,105.571 55.7308,103.905 57,102.5C 57.3333,103.167 57.6667,103.833 58,104.5C 58.4935,102.866 58.6602,101.199 58.5,99.5C 59.5,99.5 60.5,99.5 61.5,99.5C 62.0355,95.181 62.5355,90.8477 63,86.5C 63.3826,85.944 63.8826,85.6107 64.5,85.5 Z"/></g>
<g><path style="opacity:1" fill="#c6473e" d="M 137.5,106.5 C 138.162,108.304 138.495,110.304 138.5,112.5C 138.713,115.527 138.047,118.193 136.5,120.5C 137.229,115.87 137.563,111.203 137.5,106.5 Z"/></g>
<g><path style="opacity:1" fill="#de5246" d="M 185.5,101.5 C 186.222,101.918 186.722,102.584 187,103.5C 187.667,106.167 187.667,108.833 187,111.5C 185.662,114.646 184.162,117.646 182.5,120.5C 181.305,120.134 180.639,119.301 180.5,118C 185.2,113.356 186.867,107.856 185.5,101.5 Z"/></g>
<g><path style="opacity:1" fill="#d94238" d="M 61.5,114.5 C 64.4032,116.104 67.7366,117.104 71.5,117.5C 72.6119,118.265 73.2786,119.265 73.5,120.5C 69.6507,118.519 65.6507,118.186 61.5,119.5C 63.0155,125.411 64.0155,131.411 64.5,137.5C 64.5,138.167 64.5,138.833 64.5,139.5C 62.528,132.392 61.1947,125.059 60.5,117.5C 59.1667,117.5 57.8333,117.5 56.5,117.5C 57.6594,115.75 59.326,114.75 61.5,114.5 Z"/></g>
<g><path style="opacity:1" fill="#d4675c" d="M 134.5,103.5 C 132.833,103.5 131.167,103.5 129.5,103.5C 129.5,109.833 129.5,116.167 129.5,122.5C 131.167,122.5 132.833,122.5 134.5,122.5C 132.54,124.21 130.373,124.543 128,123.5C 127.333,116.5 127.333,109.5 128,102.5C 128.414,102.043 128.914,101.709 129.5,101.5C 131.336,102.028 133.003,102.694 134.5,103.5 Z"/></g>
<g><path style="opacity:1" fill="#e36d62" d="M 34.5,122.5 C 33.627,126.983 32.627,131.317 31.5,135.5C 31.3802,131.958 31.7135,128.458 32.5,125C 32.6842,123.624 33.3509,122.791 34.5,122.5 Z"/></g>
<g><path style="opacity:1" fill="#e6362b" d="M 182.5,120.5 C 184.658,122.524 186.324,125.024 187.5,128C 188.448,128.483 189.448,128.649 190.5,128.5C 190.67,129.822 190.337,130.989 189.5,132C 182.16,132.372 174.827,132.205 167.5,131.5C 167.5,127.5 167.5,123.5 167.5,119.5C 168.708,118.218 170.042,118.218 171.5,119.5C 173.372,123.412 175.372,127.245 177.5,131C 180.882,131.824 184.216,131.657 187.5,130.5C 185.295,127.423 183.628,124.09 182.5,120.5 Z"/></g>
<g><path style="opacity:1" fill="#df736b" d="M 77.5,125.5 C 79.2655,128.123 79.9321,131.123 79.5,134.5C 78.525,131.689 77.8583,128.689 77.5,125.5 Z"/></g>
<g><path style="opacity:0.557" fill="#ff9d9a" d="M 97.5,94.5 C 97.5,106.833 97.5,119.167 97.5,131.5C 100.5,131.5 103.5,131.5 106.5,131.5C 103.713,132.477 100.713,132.81 97.5,132.5C 96.8333,132.5 96.5,132.167 96.5,131.5C 96.1714,118.989 96.5048,106.655 97.5,94.5 Z"/></g>
<g><path style="opacity:1" fill="#df4842" d="M 146.5,123.5 C 145.545,125.746 144.878,128.079 144.5,130.5C 139.138,131.917 133.638,132.584 128,132.5C 124.648,132.498 121.482,132.165 118.5,131.5C 125.241,131.829 131.908,131.329 138.5,130C 141.961,128.695 144.628,126.529 146.5,123.5 Z"/></g>
<g><path style="opacity:0.565" fill="#ff928f" d="M 167.5,119.5 C 167.5,123.5 167.5,127.5 167.5,131.5C 167.5,131.833 167.5,132.167 167.5,132.5C 163.958,132.813 160.625,132.479 157.5,131.5C 160.5,131.5 163.5,131.5 166.5,131.5C 166.183,127.298 166.517,123.298 167.5,119.5 Z"/></g>
<g><path style="opacity:1" fill="#d71f1c" d="M 137.5,95.5 C 131.196,94.7403 124.863,94.407 118.5,94.5C 118.5,106.833 118.5,119.167 118.5,131.5C 115.71,131.222 113.21,131.889 111,133.5C 106.417,133.617 101.917,133.284 97.5,132.5C 100.713,132.81 103.713,132.477 106.5,131.5C 106.5,119.167 106.5,106.833 106.5,94.5C 106.5,94.1667 106.5,93.8333 106.5,93.5C 108.479,105.12 109.146,117.12 108.5,129.5C 111.167,129.5 113.833,129.5 116.5,129.5C 116.812,117.782 116.479,106.116 115.5,94.5C 118.791,92.9753 122.291,92.3086 126,92.5C 130.355,92.0225 134.189,93.0225 137.5,95.5 Z"/></g>
<g><path style="opacity:1" fill="#da655c" d="M 213.5,137.5 C 213.405,139.786 212.738,141.786 211.5,143.5C 211.025,140.918 211.692,138.918 213.5,137.5 Z"/></g>
<g><path style="opacity:0.322" fill="#ff9b99" d="M 31.5,136.5 C 31.5,137.5 31.5,138.5 31.5,139.5C 36.5947,139.779 41.5947,139.445 46.5,138.5C 41.6042,140.446 36.2709,141.113 30.5,140.5C 30.2322,138.901 30.5655,137.568 31.5,136.5 Z"/></g>
<g><path style="opacity:0.326" fill="#ff9d9a" d="M 79.5,136.5 C 80.4345,137.568 80.7678,138.901 80.5,140.5C 74.9738,140.821 69.6405,140.488 64.5,139.5C 64.5,138.833 64.5,138.167 64.5,137.5C 69.193,139.36 74.193,140.026 79.5,139.5C 79.5,138.5 79.5,137.5 79.5,136.5 Z"/></g>
<g><path style="opacity:1" fill="#de695e" d="M 11.5,141.5 C 13.9897,144.626 15.323,148.292 15.5,152.5C 13.7957,149.061 12.4624,145.395 11.5,141.5 Z"/></g>
<g><path style="opacity:1" fill="#e4574b" d="M 177.5,159.5 C 176.2,162.432 174.2,164.766 171.5,166.5C 171.67,165.178 171.337,164.011 170.5,163C 171.793,162.51 173.127,162.343 174.5,162.5C 174.5,161.5 174.5,160.5 174.5,159.5C 175.5,159.5 176.5,159.5 177.5,159.5 Z"/></g>
<g><path style="opacity:1" fill="#e34235" d="M 205.5,159.5 C 201.355,168.634 195.688,176.634 188.5,183.5C 188.232,181.901 188.566,180.568 189.5,179.5C 190.186,178.152 191.186,176.985 192.5,176C 192.167,175.667 191.833,175.333 191.5,175C 192.448,174.517 193.448,174.351 194.5,174.5C 194.343,173.127 194.51,171.793 195,170.5C 195.654,171.696 196.154,171.696 196.5,170.5C 196.167,169.833 195.833,169.167 195.5,168.5C 196.631,167.396 197.465,167.729 198,169.5C 196.372,165.278 197.872,162.945 202.5,162.5C 202.5,161.5 202.5,160.5 202.5,159.5C 203.5,159.5 204.5,159.5 205.5,159.5 Z"/></g>
<g><path style="opacity:1" fill="#e63529" d="M 46.5,158.5 C 49.4871,159.156 52.1538,160.489 54.5,162.5C 55.0792,165.588 56.4125,168.255 58.5,170.5C 60.5184,171.813 61.6851,171.147 62,168.5C 63.261,170.63 63.761,172.797 63.5,175C 65.1124,175.72 66.6124,175.554 68,174.5C 72.1009,175.656 72.2676,176.823 68.5,178C 69.305,179.113 69.9717,180.279 70.5,181.5C 60.5483,175.882 52.5483,168.215 46.5,158.5 Z"/></g>
<g><path style="opacity:1" fill="#e92720" d="M 186.5,155.5 C 186.382,161.401 183.882,166.068 179,169.5C 178.517,170.448 178.351,171.448 178.5,172.5C 179.833,172.5 181.167,172.5 182.5,172.5C 182.5,171.167 182.5,169.833 182.5,168.5C 183.5,168.5 184.5,168.5 185.5,168.5C 185.773,170.451 185.107,171.951 183.5,173C 186.294,174.535 188.294,176.702 189.5,179.5C 188.566,180.568 188.232,181.901 188.5,183.5C 187.833,184.833 186.833,185.833 185.5,186.5C 185.5,185.5 185.5,184.5 185.5,183.5C 184.127,183.657 182.793,183.49 181.5,183C 183.5,182.333 184.833,181 185.5,179C 183.22,178.767 181.22,177.934 179.5,176.5C 178.914,176.709 178.414,177.043 178,177.5C 177.316,176.216 177.483,175.049 178.5,174C 177.833,173.833 177.167,173.667 176.5,173.5C 173.717,175.964 170.883,178.297 168,180.5C 167.383,183.176 168.216,183.843 170.5,182.5C 173.259,184.013 173.093,185.013 170,185.5C 162.251,182.249 160.751,184.082 165.5,191C 162.791,190.489 160.124,189.655 157.5,188.5C 154.039,190.282 150.372,191.282 146.5,191.5C 163.296,183.372 176.629,171.372 186.5,155.5 Z"/></g>
<g><path style="opacity:1" fill="#e15243" d="M 160.5,176.5 C 157.226,180.145 153.226,182.812 148.5,184.5C 149.333,182.171 151,180.671 153.5,180C 153.167,179.667 152.833,179.333 152.5,179C 155.102,177.86 157.769,177.027 160.5,176.5 Z"/></g>
<g><path style="opacity:1" fill="#dd5546" d="M 148.5,184.5 C 142.615,187.798 136.282,190.131 129.5,191.5C 133.061,189.354 136.728,187.354 140.5,185.5C 143.086,184.52 145.753,184.187 148.5,184.5 Z"/></g>
<g><path style="opacity:1" fill="#e2766f" d="M 88.5,189.5 C 91.1522,189.41 93.4855,190.076 95.5,191.5C 92.8478,191.59 90.5145,190.924 88.5,189.5 Z"/></g>
<g><path style="opacity:1" fill="#e7392d" d="M 185.5,186.5 C 181.722,191.617 177.055,195.617 171.5,198.5C 172.234,197.292 172.567,195.959 172.5,194.5C 173.675,194.719 174.675,194.386 175.5,193.5C 174.167,192.5 172.833,191.5 171.5,190.5C 173.386,189.594 175.22,188.594 177,187.5C 178.377,191.265 179.377,190.932 180,186.5C 181.56,185.735 183.393,185.735 185.5,186.5 Z"/></g>
<g><path style="opacity:1" fill="#d9574a" d="M 71.5,188.5 C 75.3544,189.93 79.0211,191.597 82.5,193.5C 79.0534,193.186 75.7201,192.352 72.5,191C 71.7476,190.329 71.4142,189.496 71.5,188.5 Z"/></g>
<g><path style="opacity:1" fill="#d7473c" d="M 146.5,191.5 C 143.678,194.778 140.012,196.111 135.5,195.5C 138.939,193.796 142.605,192.462 146.5,191.5 Z"/></g>
<g><path style="opacity:1" fill="#e2584a" d="M 83.5,193.5 C 90.8346,195.697 98.1679,197.364 105.5,198.5C 104.833,198.5 104.167,198.5 103.5,198.5C 97.8652,199.037 92.5318,198.37 87.5,196.5C 85.7809,195.978 84.4475,194.978 83.5,193.5 Z"/></g>
<g><path style="opacity:1" fill="#eb251f" d="M 37.5,153.5 C 45.455,168.455 56.7883,180.122 71.5,188.5C 71.4142,189.496 71.7476,190.329 72.5,191C 75.7201,192.352 79.0534,193.186 82.5,193.5C 82.8333,193.5 83.1667,193.5 83.5,193.5C 84.4475,194.978 85.7809,195.978 87.5,196.5C 86.0783,196.709 84.745,197.209 83.5,198C 84.1667,198.333 84.8333,198.667 85.5,199C 84.9491,200.398 84.6158,201.732 84.5,203C 80.7379,203.927 77.2379,203.427 74,201.5C 70.6913,202.479 70.6913,203.479 74,204.5C 74.4922,205.549 74.3256,206.549 73.5,207.5C 75.4206,208.324 76.754,209.657 77.5,211.5C 66.2569,207.883 56.2569,202.216 47.5,194.5C 34.5063,185.179 24.8396,173.179 18.5,158.5C 19.9999,160.184 21.6666,161.851 23.5,163.5C 24.3951,161.693 25.7284,160.36 27.5,159.5C 28.737,159.556 29.737,160.056 30.5,161C 27.239,161.426 25.5723,163.259 25.5,166.5C 26.8037,169.013 27.8037,171.68 28.5,174.5C 29.5,174.5 30.5,174.5 31.5,174.5C 31.3118,176.103 31.8118,177.437 33,178.5C 34.3076,176.359 35.8076,174.359 37.5,172.5C 36.9747,171.808 36.3081,171.308 35.5,171C 36.1258,170.25 36.6258,169.416 37,168.5C 38,171.167 39,171.167 40,168.5C 41.0113,169.337 42.1779,169.67 43.5,169.5C 43.6567,168.127 43.49,166.793 43,165.5C 40.3261,161.876 37.4928,161.876 34.5,165.5C 33.2391,163.438 33.7391,161.772 36,160.5C 36.1862,157.964 36.6862,155.631 37.5,153.5 Z"/></g>
<g><path style="opacity:1" fill="#f21615" d="M 47.5,194.5 C 45.402,191.56 43.0686,188.726 40.5,186C 42.1341,185.506 43.8008,185.34 45.5,185.5C 45.0724,182.754 43.4057,181.087 40.5,180.5C 38.314,184.133 36.314,183.8 34.5,179.5C 36.4825,177.976 38.8159,176.976 41.5,176.5C 39.1088,175.191 39.1088,174.191 41.5,173.5C 44.893,175.063 46.2263,177.729 45.5,181.5C 46.9305,181.579 48.2638,181.246 49.5,180.5C 49.8333,179.167 50.1667,177.833 50.5,176.5C 52.5879,178.392 54.9213,179.892 57.5,181C 55.2883,183.174 55.7883,185.008 59,186.5C 61.6748,183.944 64.1748,184.277 66.5,187.5C 65.7515,189.332 64.7515,190.999 63.5,192.5C 63.8333,192.833 64.1667,193.167 64.5,193.5C 65.8415,191.995 67.5082,191.328 69.5,191.5C 69.5,192.833 69.5,194.167 69.5,195.5C 64.4676,195.332 64.3009,196.332 69,198.5C 69.4828,199.448 69.6495,200.448 69.5,201.5C 67.1806,202.167 64.8473,202.334 62.5,202C 58.5685,196.699 53.5685,194.199 47.5,194.5 Z"/></g>
<g><path style="opacity:1" fill="#d4453a" d="M 135.5,195.5 C 134.942,196.79 133.942,197.623 132.5,198C 122.696,199.591 113.029,199.758 103.5,198.5C 104.167,198.5 104.833,198.5 105.5,198.5C 115.606,198.487 125.606,197.487 135.5,195.5 Z"/></g>
<g><path style="opacity:1" fill="#ef1616" d="M 185.5,186.5 C 183.393,185.735 181.56,185.735 180,186.5C 179.377,190.932 178.377,191.265 177,187.5C 175.22,188.594 173.386,189.594 171.5,190.5C 172.833,191.5 174.167,192.5 175.5,193.5C 174.675,194.386 173.675,194.719 172.5,194.5C 172.567,195.959 172.234,197.292 171.5,198.5C 169.738,198.643 168.071,198.309 166.5,197.5C 165.366,201.399 162.699,203.232 158.5,203C 158.833,203.333 159.167,203.667 159.5,204C 158.692,204.308 158.025,204.808 157.5,205.5C 152.45,207.489 147.783,209.822 143.5,212.5C 143.167,212.5 142.833,212.5 142.5,212.5C 137.57,212.803 132.737,212.469 128,211.5C 127.544,212.744 128.044,213.577 129.5,214C 129.167,214.333 128.833,214.667 128.5,215C 124.644,215.177 120.977,215.677 117.5,216.5C 109.483,216.499 101.483,216.166 93.5,215.5C 93.1667,215.5 92.8333,215.5 92.5,215.5C 90.1617,213.96 87.4951,213.294 84.5,213.5C 82.0347,213.233 79.7014,212.566 77.5,211.5C 76.754,209.657 75.4206,208.324 73.5,207.5C 74.3256,206.549 74.4922,205.549 74,204.5C 70.6913,203.479 70.6913,202.479 74,201.5C 77.2379,203.427 80.7379,203.927 84.5,203C 84.6158,201.732 84.9491,200.398 85.5,199C 84.8333,198.667 84.1667,198.333 83.5,198C 84.745,197.209 86.0783,196.709 87.5,196.5C 92.5318,198.37 97.8652,199.037 103.5,198.5C 113.029,199.758 122.696,199.591 132.5,198C 133.942,197.623 134.942,196.79 135.5,195.5C 140.012,196.111 143.678,194.778 146.5,191.5C 150.372,191.282 154.039,190.282 157.5,188.5C 160.124,189.655 162.791,190.489 165.5,191C 160.751,184.082 162.251,182.249 170,185.5C 173.093,185.013 173.259,184.013 170.5,182.5C 168.216,183.843 167.383,183.176 168,180.5C 170.883,178.297 173.717,175.964 176.5,173.5C 177.167,173.667 177.833,173.833 178.5,174C 177.483,175.049 177.316,176.216 178,177.5C 178.414,177.043 178.914,176.709 179.5,176.5C 181.22,177.934 183.22,178.767 185.5,179C 184.833,181 183.5,182.333 181.5,183C 182.793,183.49 184.127,183.657 185.5,183.5C 185.5,184.5 185.5,185.5 185.5,186.5 Z"/></g>
<g><path style="opacity:1" fill="#e04b3d" d="M 171.5,198.5 C 163.303,205.245 153.97,209.912 143.5,212.5C 147.783,209.822 152.45,207.489 157.5,205.5C 158.025,204.808 158.692,204.308 159.5,204C 159.167,203.667 158.833,203.333 158.5,203C 162.699,203.232 165.366,201.399 166.5,197.5C 168.071,198.309 169.738,198.643 171.5,198.5 Z"/></g>
<g><path style="opacity:1" fill="#e06a62" d="M 84.5,213.5 C 87.4951,213.294 90.1617,213.96 92.5,215.5C 89.5718,215.435 86.9052,214.768 84.5,213.5 Z"/></g>
<g><path style="opacity:1" fill="#d53e34" d="M 142.5,212.5 C 136.548,215.092 130.214,216.425 123.5,216.5C 121.5,216.5 119.5,216.5 117.5,216.5C 120.977,215.677 124.644,215.177 128.5,215C 128.833,214.667 129.167,214.333 129.5,214C 128.044,213.577 127.544,212.744 128,211.5C 132.737,212.469 137.57,212.803 142.5,212.5 Z"/></g>
<g><path style="opacity:0.584" fill="#f3807f" d="M 93.5,215.5 C 101.483,216.166 109.483,216.499 117.5,216.5C 119.5,216.5 121.5,216.5 123.5,216.5C 119.849,217.165 116.015,217.499 112,217.5C 105.601,217.63 99.4342,216.963 93.5,215.5 Z"/></g>
</svg>
