<?xml version="1.0" standalone="no"?>
<!DOCTYPE svg PUBLIC "-//W3C//DTD SVG 20010904//EN"
 "http://www.w3.org/TR/2001/REC-SVG-20010904/DTD/svg10.dtd">
<svg version="1.0" xmlns="http://www.w3.org/2000/svg"
 width="275.000000pt" height="275.000000pt" viewBox="0 0 275.000000 275.000000"
 preserveAspectRatio="xMidYMid meet">

<g transform="translate(0.000000,275.000000) scale(0.100000,-0.100000)"
fill="#000000" stroke="none">
<path d="M1280 2743 c-117 -8 -318 -52 -298 -64 8 -5 3 -11 -17 -19 -49 -17
-78 -33 -115 -61 -19 -14 -52 -32 -74 -40 -21 -8 -41 -20 -43 -26 -3 -7 -10
-13 -16 -13 -5 0 -29 -16 -52 -35 -23 -19 -55 -40 -71 -47 -16 -7 -47 -27 -69
-44 -22 -17 -51 -35 -64 -39 -42 -13 -97 -66 -201 -196 -186 -233 -286 -602
-250 -924 68 -604 503 -1085 1090 -1205 742 -151 1469 329 1620 1070 123 604
-171 1215 -717 1492 -170 87 -311 128 -502 148 -100 10 -127 10 -221 3z m172
-500 c28 -32 221 -386 234 -431 21 -67 8 -120 -55 -235 -32 -56 -113 -203
-181 -327 -209 -380 -225 -406 -273 -435 -44 -25 -44 -25 -294 -25 -238 0
-251 1 -268 20 -32 35 -22 69 67 230 47 85 186 337 308 560 403 736 356 660
410 660 23 0 43 -7 52 -17z m484 -886 c46 -59 274 -471 274 -497 0 -14 -7 -36
-16 -48 -15 -22 -16 -22 -314 -22 -298 0 -299 0 -314 22 -9 12 -16 33 -16 47
0 26 246 472 280 509 32 34 74 29 106 -11z m384 -661 c0 -2 -8 -10 -17 -17
-16 -13 -17 -12 -4 4 13 16 21 21 21 13z m38 -26 c-7 -10 -14 -17 -17 -15 -4
4 18 35 25 35 2 0 -1 -9 -8 -20z m-78 -24 c0 -2 -8 -10 -17 -17 -16 -13 -17
-12 -4 4 13 16 21 21 21 13z m29 -44 c-92 -106 -191 -195 -249 -226 -15 -8 -7
-1 92 84 29 24 80 74 113 111 33 36 62 65 64 63 3 -2 -6 -16 -20 -32z m-104
-43 c-43 -44 -131 -114 -180 -142 -29 -17 -29 -17 -7 0 80 62 147 119 175 149
18 18 36 34 42 34 5 0 -9 -18 -30 -41z m-1280 -241 c210 -93 413 -123 629 -93
65 9 120 14 122 12 2 -2 -35 -11 -84 -20 -176 -34 -413 -14 -581 49 -91 35
-229 109 -276 150 -33 29 -27 27 35 -14 41 -27 111 -65 155 -84z m1075 18 c0
-2 -7 -7 -16 -10 -8 -3 -12 -2 -9 4 6 10 25 14 25 6z"/>
</g>
</svg>
