<?xml version="1.0" encoding="UTF-8"?>
<!DOCTYPE svg PUBLIC "-//W3C//DTD SVG 1.1//EN" "http://www.w3.org/Graphics/SVG/1.1/DTD/svg11.dtd">
<svg xmlns="http://www.w3.org/2000/svg" version="1.1" width="206px" height="206px" style="shape-rendering:geometricPrecision; text-rendering:geometricPrecision; image-rendering:optimizeQuality; fill-rule:evenodd; clip-rule:evenodd" xmlns:xlink="http://www.w3.org/1999/xlink">
<g><path style="opacity:0.999" fill="#f21917" d="M 88.5,-0.5 C 97.8333,-0.5 107.167,-0.5 116.5,-0.5C 165.833,9.5 195.5,39.1667 205.5,88.5C 205.5,97.8333 205.5,107.167 205.5,116.5C 195.5,165.833 165.833,195.5 116.5,205.5C 107.167,205.5 97.8333,205.5 88.5,205.5C 39.1667,195.5 9.5,165.833 -0.5,116.5C -0.5,107.167 -0.5,97.8333 -0.5,88.5C 9.5,39.1667 39.1667,9.5 88.5,-0.5 Z"/></g>
<g><path style="opacity:1" fill="#ffeeee" d="M 90.5,17.5 C 106.021,16.0991 121.021,18.0991 135.5,23.5C 137.181,25.0075 139.181,26.0075 141.5,26.5C 156.408,34.1105 168.075,45.1105 176.5,59.5C 175.448,61.256 173.781,61.9227 171.5,61.5C 161.76,46.0885 148.426,35.0885 131.5,28.5C 128.374,26.0103 124.708,24.677 120.5,24.5C 83.4677,17.7683 54.6344,30.1017 34,61.5C 27.5407,63.4958 26.2073,61.8292 30,56.5C 41.2565,39.1293 56.7565,27.4626 76.5,21.5C 78.403,21.2041 80.0697,20.5375 81.5,19.5C 84.7814,19.5797 87.7814,18.913 90.5,17.5 Z"/></g>
<g><path style="opacity:1" fill="#fa8e8b" d="M 90.5,17.5 C 87.7814,18.913 84.7814,19.5797 81.5,19.5C 84.2186,18.087 87.2186,17.4203 90.5,17.5 Z"/></g>
<g><path style="opacity:1" fill="#fa9592" d="M 81.5,19.5 C 80.0697,20.5375 78.403,21.2041 76.5,21.5C 77.6354,19.7868 79.302,19.1201 81.5,19.5 Z"/></g>
<g><path style="opacity:1" fill="#f85e53" d="M 135.5,23.5 C 138.32,23.087 140.32,24.087 141.5,26.5C 139.181,26.0075 137.181,25.0075 135.5,23.5 Z"/></g>
<g><path style="opacity:1" fill="#fb9592" d="M 120.5,24.5 C 124.708,24.677 128.374,26.0103 131.5,28.5C 127.605,27.5376 123.939,26.2043 120.5,24.5 Z"/></g>
<g><path style="opacity:1" fill="#faa9a9" d="M 176.5,59.5 C 177.404,60.209 177.737,61.209 177.5,62.5C 175.265,62.7947 173.265,62.4614 171.5,61.5C 173.781,61.9227 175.448,61.256 176.5,59.5 Z"/></g>
<g><path style="opacity:1" fill="#faaaa8" d="M 37.5,79.5 C 36.596,78.791 36.2627,77.791 36.5,76.5C 31.8333,76.5 27.1667,76.5 22.5,76.5C 22.5,78.5 22.5,80.5 22.5,82.5C 21.5318,80.3926 21.1984,78.0593 21.5,75.5C 26.8333,75.5 32.1667,75.5 37.5,75.5C 37.5,76.8333 37.5,78.1667 37.5,79.5 Z"/></g>
<g><path style="opacity:1" fill="#fbaba9" d="M 69.5,83.5 C 69.5,81.1667 69.5,78.8333 69.5,76.5C 64.8333,76.5 60.1667,76.5 55.5,76.5C 55.7373,77.791 55.404,78.791 54.5,79.5C 54.5,78.1667 54.5,76.8333 54.5,75.5C 59.8333,75.5 65.1667,75.5 70.5,75.5C 70.8064,78.3854 70.4731,81.0521 69.5,83.5 Z"/></g>
<g><path style="opacity:1" fill="#fefbfb" d="M 37.5,79.5 C 37.448,81.9029 37.7814,84.2362 38.5,86.5C 38.8333,89.8333 39.1667,93.1667 39.5,96.5C 36.1667,96.5 32.8333,96.5 29.5,96.5C 25.0659,92.9654 22.7326,88.2987 22.5,82.5C 22.5,80.5 22.5,78.5 22.5,76.5C 27.1667,76.5 31.8333,76.5 36.5,76.5C 36.2627,77.791 36.596,78.791 37.5,79.5 Z"/></g>
<g><path style="opacity:1" fill="#fff8f8" d="M 69.5,83.5 C 69.0234,87.3789 67.8568,91.0455 66,94.5C 60.253,98.9595 54.0863,102.793 47.5,106C 41.0073,111.321 37.674,118.155 37.5,126.5C 32.807,128.36 27.807,129.026 22.5,128.5C 22.5,126.167 22.5,123.833 22.5,121.5C 22.3298,115.491 24.6632,110.658 29.5,107C 35.9969,103.586 42.3303,99.9192 48.5,96C 50.5402,93.8149 51.8736,91.3149 52.5,88.5C 54.1628,86.5615 54.8294,84.2282 54.5,81.5C 54.5,80.8333 54.5,80.1667 54.5,79.5C 55.404,78.791 55.7373,77.791 55.5,76.5C 60.1667,76.5 64.8333,76.5 69.5,76.5C 69.5,78.8333 69.5,81.1667 69.5,83.5 Z"/></g>
<g><path style="opacity:1" fill="#f98a89" d="M 126.5,84.5 C 120.833,84.5 115.167,84.5 109.5,84.5C 109.5,96.5 109.5,108.5 109.5,120.5C 115.167,120.5 120.833,120.5 126.5,120.5C 120.69,121.49 114.69,121.823 108.5,121.5C 108.5,108.833 108.5,96.1667 108.5,83.5C 114.69,83.1771 120.69,83.5104 126.5,84.5 Z"/></g>
<g><path style="opacity:1" fill="#fff9f9" d="M 126.5,84.5 C 137.431,88.3549 141.598,96.0216 139,107.5C 137.347,114.318 133.181,118.652 126.5,120.5C 120.833,120.5 115.167,120.5 109.5,120.5C 109.5,108.5 109.5,96.5 109.5,84.5C 115.167,84.5 120.833,84.5 126.5,84.5 Z"/></g>
<g><path style="opacity:1" fill="#f99f9f" d="M 167.5,84.5 C 161.167,84.5 154.833,84.5 148.5,84.5C 148.5,96.5 148.5,108.5 148.5,120.5C 151.5,120.5 154.5,120.5 157.5,120.5C 157.5,120.833 157.5,121.167 157.5,121.5C 154.167,121.5 150.833,121.5 147.5,121.5C 147.5,108.833 147.5,96.1667 147.5,83.5C 154.354,83.176 161.021,83.5093 167.5,84.5 Z"/></g>
<g><path style="opacity:1" fill="#fffafa" d="M 167.5,84.5 C 176.187,86.9241 179.021,92.5908 176,101.5C 174.692,103.641 173.192,105.641 171.5,107.5C 173.766,111.034 175.766,114.7 177.5,118.5C 174.663,120.402 171.329,121.069 167.5,120.5C 167.672,119.508 167.338,118.842 166.5,118.5C 165.59,115.008 163.924,112.008 161.5,109.5C 160.432,108.566 159.099,108.232 157.5,108.5C 157.5,112.5 157.5,116.5 157.5,120.5C 154.5,120.5 151.5,120.5 148.5,120.5C 148.5,108.5 148.5,96.5 148.5,84.5C 154.833,84.5 161.167,84.5 167.5,84.5 Z"/></g>
<g><path style="opacity:1" fill="#fa8c88" d="M 54.5,81.5 C 54.8294,84.2282 54.1628,86.5615 52.5,88.5C 52.7215,85.9327 53.3882,83.5994 54.5,81.5 Z"/></g>
<g><path style="opacity:1" fill="#f88180" d="M 86.5,83.5 C 90.1667,83.5 93.8333,83.5 97.5,83.5C 97.5,96.1667 97.5,108.833 97.5,121.5C 93.8333,121.5 90.1667,121.5 86.5,121.5C 86.5,108.833 86.5,96.1667 86.5,83.5 Z"/></g>
<g><path style="opacity:1" fill="#fefefe" d="M 87.5,84.5 C 90.5,84.5 93.5,84.5 96.5,84.5C 96.5,96.5 96.5,108.5 96.5,120.5C 93.5,120.5 90.5,120.5 87.5,120.5C 87.5,108.5 87.5,96.5 87.5,84.5 Z"/></g>
<g><path style="opacity:1" fill="#f77b7a" d="M 122.5,92.5 C 121.5,92.5 120.5,92.5 119.5,92.5C 119.5,99.1667 119.5,105.833 119.5,112.5C 120.833,112.5 122.167,112.5 123.5,112.5C 122.081,113.451 120.415,113.784 118.5,113.5C 118.5,106.167 118.5,98.8333 118.5,91.5C 120.099,91.2322 121.432,91.5655 122.5,92.5 Z"/></g>
<g><path style="opacity:1" fill="#f21d19" d="M 122.5,92.5 C 125.712,92.7124 127.712,94.3791 128.5,97.5C 128.677,101.234 128.344,104.901 127.5,108.5C 127.106,110.71 125.773,112.043 123.5,112.5C 122.167,112.5 120.833,112.5 119.5,112.5C 119.5,105.833 119.5,99.1667 119.5,92.5C 120.5,92.5 121.5,92.5 122.5,92.5 Z"/></g>
<g><path style="opacity:1" fill="#f77878" d="M 164.5,92.5 C 162.5,92.5 160.5,92.5 158.5,92.5C 158.5,95.1667 158.5,97.8333 158.5,100.5C 160.167,100.5 161.833,100.5 163.5,100.5C 161.735,101.461 159.735,101.795 157.5,101.5C 157.5,98.1667 157.5,94.8333 157.5,91.5C 160.059,91.1984 162.393,91.5318 164.5,92.5 Z"/></g>
<g><path style="opacity:1" fill="#f3271f" d="M 164.5,92.5 C 168.609,95.6354 168.276,98.3021 163.5,100.5C 161.833,100.5 160.167,100.5 158.5,100.5C 158.5,97.8333 158.5,95.1667 158.5,92.5C 160.5,92.5 162.5,92.5 164.5,92.5 Z"/></g>
<g><path style="opacity:1" fill="#fa9f9d" d="M 38.5,86.5 C 40.0823,89.8756 40.7489,93.5422 40.5,97.5C 36.6286,97.815 32.9619,97.4816 29.5,96.5C 32.8333,96.5 36.1667,96.5 39.5,96.5C 39.1667,93.1667 38.8333,89.8333 38.5,86.5 Z"/></g>
<g><path style="opacity:1" fill="#f98f8e" d="M 128.5,97.5 C 129.641,100.64 129.808,103.973 129,107.5C 128.617,108.056 128.117,108.389 127.5,108.5C 128.344,104.901 128.677,101.234 128.5,97.5 Z"/></g>
<g><path style="opacity:1" fill="#f88c8b" d="M 61.5,108.5 C 58.5,108.5 55.5,108.5 52.5,108.5C 52.5,109.5 52.5,110.5 52.5,111.5C 51.5655,110.432 51.2322,109.099 51.5,107.5C 55.0419,107.187 58.3752,107.521 61.5,108.5 Z"/></g>
<g><path style="opacity:1" fill="#fffaf9" d="M 61.5,108.5 C 64.0562,109.543 66.2228,111.21 68,113.5C 68.8279,117.466 69.3279,121.466 69.5,125.5C 69.5,126.5 69.5,127.5 69.5,128.5C 64.8333,128.5 60.1667,128.5 55.5,128.5C 55.7373,127.209 55.404,126.209 54.5,125.5C 54.2651,120.759 53.5984,116.092 52.5,111.5C 52.5,110.5 52.5,109.5 52.5,108.5C 55.5,108.5 58.5,108.5 61.5,108.5 Z"/></g>
<g><path style="opacity:1" fill="#f66e6d" d="M 161.5,109.5 C 160.5,109.5 159.5,109.5 158.5,109.5C 158.817,113.702 158.483,117.702 157.5,121.5C 157.5,121.167 157.5,120.833 157.5,120.5C 157.5,116.5 157.5,112.5 157.5,108.5C 159.099,108.232 160.432,108.566 161.5,109.5 Z"/></g>
<g><path style="opacity:1" fill="#fab0b0" d="M 177.5,118.5 C 178.404,119.209 178.737,120.209 178.5,121.5C 174.629,121.815 170.962,121.482 167.5,120.5C 171.329,121.069 174.663,120.402 177.5,118.5 Z"/></g>
<g><path style="opacity:1" fill="#f33c3a" d="M 166.5,118.5 C 167.338,118.842 167.672,119.508 167.5,120.5C 170.962,121.482 174.629,121.815 178.5,121.5C 174.702,122.483 170.702,122.817 166.5,122.5C 166.5,121.167 166.5,119.833 166.5,118.5 Z"/></g>
<g><path style="opacity:1" fill="#fdb9b7" d="M 22.5,121.5 C 22.5,123.833 22.5,126.167 22.5,128.5C 27.807,129.026 32.807,128.36 37.5,126.5C 37.5,127.5 37.5,128.5 37.5,129.5C 32.1667,129.5 26.8333,129.5 21.5,129.5C 21.1936,126.615 21.5269,123.948 22.5,121.5 Z"/></g>
<g><path style="opacity:1" fill="#fbd3d2" d="M 69.5,125.5 C 70.4345,126.568 70.7678,127.901 70.5,129.5C 65.3054,129.821 60.3054,129.487 55.5,128.5C 60.1667,128.5 64.8333,128.5 69.5,128.5C 69.5,127.5 69.5,126.5 69.5,125.5 Z"/></g>
<g><path style="opacity:1" fill="#f55453" d="M 54.5,125.5 C 55.404,126.209 55.7373,127.209 55.5,128.5C 60.3054,129.487 65.3054,129.821 70.5,129.5C 65.3595,130.488 60.0262,130.821 54.5,130.5C 54.5,128.833 54.5,127.167 54.5,125.5 Z"/></g>
<g><path style="opacity:1" fill="#fff0ef" d="M 72.5,176.5 C 76.0845,178.806 80.0845,180.139 84.5,180.5C 86.2922,181.309 88.2922,181.809 90.5,182C 103.775,183.36 116.775,182.193 129.5,178.5C 131.967,178.245 133.967,177.245 135.5,175.5C 149.974,168.361 161.641,158.027 170.5,144.5C 172.765,143.353 175.098,143.186 177.5,144C 167.439,160.894 153.439,173.394 135.5,181.5C 131.605,182.462 127.939,183.796 124.5,185.5C 112.919,187.266 101.253,187.933 89.5,187.5C 82.9706,185.326 76.3039,183.326 69.5,181.5C 50.9666,174.136 36.9666,161.636 27.5,144C 29.9018,143.186 32.2351,143.353 34.5,144.5C 43.8421,159.18 56.5088,169.847 72.5,176.5 Z"/></g>
<g><path style="opacity:1" fill="#f75f57" d="M 72.5,176.5 C 76.767,177.256 80.767,178.589 84.5,180.5C 80.0845,180.139 76.0845,178.806 72.5,176.5 Z"/></g>
<g><path style="opacity:1" fill="#febcba" d="M 135.5,175.5 C 133.967,177.245 131.967,178.245 129.5,178.5C 131.033,176.755 133.033,175.755 135.5,175.5 Z"/></g>
<g><path style="opacity:1" fill="#fd9f9c" d="M 69.5,181.5 C 76.3039,183.326 82.9706,185.326 89.5,187.5C 82.3231,186.883 75.6564,184.883 69.5,181.5 Z"/></g>
<g><path style="opacity:1" fill="#f7655f" d="M 135.5,181.5 C 132.374,183.99 128.708,185.323 124.5,185.5C 127.939,183.796 131.605,182.462 135.5,181.5 Z"/></g>
</svg>
