<?xml version="1.0" encoding="UTF-8"?>
<!DOCTYPE svg PUBLIC "-//W3C//DTD SVG 1.1//EN" "http://www.w3.org/Graphics/SVG/1.1/DTD/svg11.dtd">
<svg xmlns="http://www.w3.org/2000/svg" version="1.1" width="1182px" height="1182px" style="shape-rendering:geometricPrecision; text-rendering:geometricPrecision; image-rendering:optimizeQuality; fill-rule:evenodd; clip-rule:evenodd" xmlns:xlink="http://www.w3.org/1999/xlink">
<g><path style="opacity:0.998" fill="#f21616" d="M 573.5,117.5 C 740.804,116.407 874.638,182.073 975,314.5C 1055.56,431.636 1080.89,559.969 1051,699.5C 1012.48,848.333 923.983,955.833 785.5,1022C 684.248,1066.22 579.915,1075.22 472.5,1049C 344.885,1014.01 247.385,939.841 180,826.5C 117.018,712.311 101.685,591.977 134,465.5C 169.745,342.467 242.245,247.967 351.5,182C 420.331,142.461 494.331,120.961 573.5,117.5 Z"/></g>
<g><path style="opacity:1" fill="#fffcfc" d="M 276.5,407.5 C 266.985,407.827 257.652,407.494 248.5,406.5C 310.77,296.483 404.437,229.983 529.5,207C 646.376,191.175 750.376,220.175 841.5,294C 878.408,326.385 908.741,363.885 932.5,406.5C 922.851,407.665 913.184,407.832 903.5,407C 831.344,291.807 726.844,231.974 590,227.5C 475.523,230.41 381.523,275.41 308,362.5C 296.858,377.126 286.358,392.126 276.5,407.5 Z"/></g>
<g><path style="opacity:1" fill="#f44e4e" d="M 248.5,406.5 C 257.652,407.494 266.985,407.827 276.5,407.5C 266.992,408.823 257.325,408.823 247.5,407.5C 247.624,406.893 247.957,406.56 248.5,406.5 Z"/></g>
<g><path style="opacity:1" fill="#fffefd" d="M 308.5,563.5 C 308.5,564.5 308.5,565.5 308.5,566.5C 298.167,566.5 287.833,566.5 277.5,566.5C 252.73,563.566 237.563,549.9 232,525.5C 228.617,506.536 225.45,487.536 222.5,468.5C 245.51,468.167 268.51,468.5 291.5,469.5C 297.539,500.773 303.205,532.106 308.5,563.5 Z"/></g>
<g><path style="opacity:1" fill="#fffdfd" d="M 292.5,709.5 C 291.596,710.209 291.263,711.209 291.5,712.5C 268.5,712.5 245.5,712.5 222.5,712.5C 222.5,711.5 222.5,710.5 222.5,709.5C 225.521,692.556 228.355,675.556 231,658.5C 234.152,638.681 243.986,623.181 260.5,612C 282.909,598.6 305.576,585.6 328.5,573C 348.918,560.226 362.084,542.059 368,518.5C 371.185,502.211 374.185,485.878 377,469.5C 400.092,468.506 423.258,468.173 446.5,468.5C 443.737,486.154 440.903,503.821 438,521.5C 435.124,542.352 424.957,558.519 407.5,570C 381.669,584.748 356.003,599.748 330.5,615C 316.611,626.607 307.111,641.107 302,658.5C 298.184,675.399 295.017,692.399 292.5,709.5 Z"/></g>
<g><path style="opacity:1" fill="#fbc4c4" d="M 565.5,506.5 C 550.833,506.5 536.167,506.5 521.5,506.5C 521.5,562.833 521.5,619.167 521.5,675.5C 520.501,619.002 520.168,562.336 520.5,505.5C 535.676,505.171 550.676,505.504 565.5,506.5 Z"/></g>
<g><path style="opacity:1" fill="#fefffe" d="M 565.5,506.5 C 565.5,562.833 565.5,619.167 565.5,675.5C 550.833,675.5 536.167,675.5 521.5,675.5C 521.5,619.167 521.5,562.833 521.5,506.5C 536.167,506.5 550.833,506.5 565.5,506.5 Z"/></g>
<g><path style="opacity:1" fill="#fffefe" d="M 619.5,505.5 C 642.862,505.099 666.196,505.599 689.5,507C 735.219,515.057 757.552,542.391 756.5,589C 758.297,611.996 752.13,632.496 738,650.5C 723.687,665.237 706.187,673.403 685.5,675C 663.503,675.5 641.503,675.667 619.5,675.5C 619.5,618.833 619.5,562.167 619.5,505.5 Z"/></g>
<g><path style="opacity:1" fill="#fa9797" d="M 870.5,506.5 C 845.833,506.5 821.167,506.5 796.5,506.5C 796.5,562.833 796.5,619.167 796.5,675.5C 795.501,619.002 795.168,562.336 795.5,505.5C 820.672,505.169 845.672,505.502 870.5,506.5 Z"/></g>
<g><path style="opacity:1" fill="#fffdfd" d="M 870.5,506.5 C 916.429,509.933 934.929,534.267 926,579.5C 924.088,585.254 921.421,590.588 918,595.5C 912.923,601.082 907.423,606.082 901.5,610.5C 913.627,631.919 925.627,653.419 937.5,675C 920.503,675.5 903.503,675.667 886.5,675.5C 877.71,656.588 868.377,637.921 858.5,619.5C 852.872,618.505 847.206,618.171 841.5,618.5C 841.5,637.5 841.5,656.5 841.5,675.5C 826.5,675.5 811.5,675.5 796.5,675.5C 796.5,619.167 796.5,562.833 796.5,506.5C 821.167,506.5 845.833,506.5 870.5,506.5 Z"/></g>
<g><path style="opacity:1" fill="#f21918" d="M 841.5,541.5 C 851.545,541.205 861.545,541.705 871.5,543C 879.683,545.69 884.016,551.357 884.5,560C 884.341,572.156 878.341,579.489 866.5,582C 858.173,582.5 849.84,582.666 841.5,582.5C 841.5,568.833 841.5,555.167 841.5,541.5 Z"/></g>
<g><path style="opacity:1" fill="#f65857" d="M 674.5,542.5 C 671.5,542.5 668.5,542.5 665.5,542.5C 665.5,574.5 665.5,606.5 665.5,638.5C 668.5,638.5 671.5,638.5 674.5,638.5C 671.375,639.479 668.042,639.813 664.5,639.5C 664.5,606.833 664.5,574.167 664.5,541.5C 668.042,541.187 671.375,541.521 674.5,542.5 Z"/></g>
<g><path style="opacity:1" fill="#f21716" d="M 674.5,542.5 C 691.098,543.039 702.265,551.039 708,566.5C 711.306,581.504 711.306,596.504 708,611.5C 703.448,628.694 692.281,637.694 674.5,638.5C 671.5,638.5 668.5,638.5 665.5,638.5C 665.5,606.5 665.5,574.5 665.5,542.5C 668.5,542.5 671.5,542.5 674.5,542.5 Z"/></g>
<g><path style="opacity:1" fill="#f55352" d="M 308.5,563.5 C 309.434,564.568 309.768,565.901 309.5,567.5C 298.654,567.828 287.987,567.494 277.5,566.5C 287.833,566.5 298.167,566.5 308.5,566.5C 308.5,565.5 308.5,564.5 308.5,563.5 Z"/></g>
<g><path style="opacity:1" fill="#fffefd" d="M 360.5,614.5 C 373.885,614.097 387.218,614.597 400.5,616C 418.595,621.096 430.429,632.596 436,650.5C 440.106,671.079 443.606,691.746 446.5,712.5C 423.49,712.833 400.49,712.5 377.5,711.5C 371.446,679.23 365.779,646.897 360.5,614.5 Z"/></g>
<g><path style="opacity:1" fill="#f55251" d="M 222.5,709.5 C 222.5,710.5 222.5,711.5 222.5,712.5C 245.5,712.5 268.5,712.5 291.5,712.5C 291.263,711.209 291.596,710.209 292.5,709.5C 292.5,710.833 292.5,712.167 292.5,713.5C 268.833,713.5 245.167,713.5 221.5,713.5C 221.232,711.901 221.566,710.568 222.5,709.5 Z"/></g>
<g><path style="opacity:1" fill="#fbc4c4" d="M 903.5,774.5 C 913.008,773.177 922.675,773.177 932.5,774.5C 932.376,775.107 932.043,775.44 931.5,775.5C 922.348,774.506 913.015,774.173 903.5,774.5 Z"/></g>
<g><path style="opacity:1" fill="#fffcfc" d="M 903.5,774.5 C 913.015,774.173 922.348,774.506 931.5,775.5C 885.985,858.84 818.985,918.007 730.5,953C 662.363,978.655 592.363,985.322 520.5,973C 415.287,951.696 331.787,897.53 270,810.5C 262.582,798.665 255.415,786.665 248.5,774.5C 258.167,773.167 267.833,773.167 277.5,774.5C 339.251,874.584 428.584,933.417 545.5,951C 680.624,963.323 791.124,917.49 877,813.5C 886.351,800.78 895.184,787.78 903.5,774.5 Z"/></g>
</svg>
