<?xml version="1.0" encoding="UTF-8"?>
<!DOCTYPE svg PUBLIC "-//W3C//DTD SVG 1.1//EN" "http://www.w3.org/Graphics/SVG/1.1/DTD/svg11.dtd">
<svg xmlns="http://www.w3.org/2000/svg" version="1.1" width="246px" height="246px" style="shape-rendering:geometricPrecision; text-rendering:geometricPrecision; image-rendering:optimizeQuality; fill-rule:evenodd; clip-rule:evenodd" xmlns:xlink="http://www.w3.org/1999/xlink">
<g><path style="opacity:0.911" fill="#fdfcfa" d="M 106.5,-0.5 C 117.167,-0.5 127.833,-0.5 138.5,-0.5C 197.833,11.5 233.5,47.1667 245.5,106.5C 245.5,117.167 245.5,127.833 245.5,138.5C 233.5,197.833 197.833,233.5 138.5,245.5C 127.833,245.5 117.167,245.5 106.5,245.5C 47.1667,233.5 11.5,197.833 -0.5,138.5C -0.5,127.833 -0.5,117.167 -0.5,106.5C 11.5,47.1667 47.1667,11.5 106.5,-0.5 Z"/></g>
<g><path style="opacity:1" fill="#f7e870" d="M 159.5,10.5 C 159.586,11.4959 159.252,12.3292 158.5,13C 160.211,14.1332 160.711,15.6332 160,17.5C 157.973,17.9863 155.807,17.9863 153.5,17.5C 137.29,14.3578 120.957,13.6911 104.5,15.5C 104.062,15.5654 103.728,15.3988 103.5,15C 106.004,13.5436 106.67,11.3769 105.5,8.5C 106.025,7.80762 106.692,7.30762 107.5,7C 105.866,6.50649 104.199,6.33982 102.5,6.5C 121.739,2.99246 140.739,4.3258 159.5,10.5 Z"/></g>
<g><path style="opacity:1" fill="#e9c251" d="M 102.5,6.5 C 104.199,6.33982 105.866,6.50649 107.5,7C 106.692,7.30762 106.025,7.80762 105.5,8.5C 106.67,11.3769 106.004,13.5436 103.5,15C 103.728,15.3988 104.062,15.5654 104.5,15.5C 100.022,17.1231 95.3548,18.4565 90.5,19.5C 89.1667,19.5 87.8333,19.5 86.5,19.5C 87.1888,18.2928 87.3554,16.9594 87,15.5C 88.0113,16.3366 89.1779,16.67 90.5,16.5C 90.5023,14.1691 89.669,12.1691 88,10.5C 87.3292,11.2524 86.4959,11.5858 85.5,11.5C 86.347,10.0337 87.6803,9.20041 89.5,9C 93.7823,7.84345 98.1157,7.01011 102.5,6.5 Z"/></g>
<g><path style="opacity:1" fill="#eec954" d="M 159.5,10.5 C 165.822,12.6009 171.822,15.2675 177.5,18.5C 176.127,18.3433 174.793,18.51 173.5,19C 175.607,20.2635 176.607,22.0968 176.5,24.5C 171.717,22.457 166.717,21.1236 161.5,20.5C 158.646,19.7949 155.979,18.7949 153.5,17.5C 155.807,17.9863 157.973,17.9863 160,17.5C 160.711,15.6332 160.211,14.1332 158.5,13C 159.252,12.3292 159.586,11.4959 159.5,10.5 Z"/></g>
<g><path style="opacity:1" fill="#d0982f" d="M 86.5,19.5 C 82.0883,20.9704 77.755,22.6371 73.5,24.5C 73.8495,21.9552 73.0162,19.9552 71,18.5C 69.103,20.0163 66.9363,20.683 64.5,20.5C 70.8778,16.1469 77.8778,13.1469 85.5,11.5C 86.4959,11.5858 87.3292,11.2524 88,10.5C 89.669,12.1691 90.5023,14.1691 90.5,16.5C 89.1779,16.67 88.0113,16.3366 87,15.5C 87.3554,16.9594 87.1888,18.2928 86.5,19.5 Z"/></g>
<g><path style="opacity:1" fill="#a88235" d="M 179.5,28.5 C 182.049,28.3874 184.382,29.0541 186.5,30.5C 187.086,30.2907 187.586,29.9574 188,29.5C 194.992,35.6659 201.159,42.6659 206.5,50.5C 198.056,42.3795 189.056,35.0462 179.5,28.5 Z"/></g>
<g><path style="opacity:1" fill="#b07a23" d="M 73.5,24.5 C 61.7244,31.7318 51.0577,40.3984 41.5,50.5C 39.246,49.8763 37.5794,48.543 36.5,46.5C 38.7263,41.9375 41.7263,37.9375 45.5,34.5C 50.9354,28.6155 57.2687,23.9489 64.5,20.5C 66.9363,20.683 69.103,20.0163 71,18.5C 73.0162,19.9552 73.8495,21.9552 73.5,24.5 Z"/></g>
<g><path style="opacity:1" fill="#e4b145" d="M 177.5,18.5 C 201.674,30.3412 219.007,48.6745 229.5,73.5C 229.265,74.0967 228.765,74.4301 228,74.5C 225.156,73.5924 222.656,72.259 220.5,70.5C 216.326,63.4835 211.659,56.8169 206.5,50.5C 201.159,42.6659 194.992,35.6659 188,29.5C 187.586,29.9574 187.086,30.2907 186.5,30.5C 184.382,29.0541 182.049,28.3874 179.5,28.5C 173.376,25.7644 167.376,23.0977 161.5,20.5C 166.717,21.1236 171.717,22.457 176.5,24.5C 176.607,22.0968 175.607,20.2635 173.5,19C 174.793,18.51 176.127,18.3433 177.5,18.5 Z"/></g>
<g><path style="opacity:1" fill="#c59945" d="M 86.5,19.5 C 87.8333,19.5 89.1667,19.5 90.5,19.5C 68.8387,27.8194 50.8387,41.1528 36.5,59.5C 36.631,58.7611 36.4643,58.0944 36,57.5C 34.6223,61.4418 32.1223,62.4418 28.5,60.5C 27.9473,56.5443 27.1139,56.5443 26,60.5C 24.7292,61.8825 23.2292,62.8825 21.5,63.5C 27.326,52.0097 35.326,42.3431 45.5,34.5C 41.7263,37.9375 38.7263,41.9375 36.5,46.5C 37.5794,48.543 39.246,49.8763 41.5,50.5C 51.0577,40.3984 61.7244,31.7318 73.5,24.5C 77.755,22.6371 82.0883,20.9704 86.5,19.5 Z"/></g>
<g><path style="opacity:1" fill="#140f08" d="M 153.5,17.5 C 155.979,18.7949 158.646,19.7949 161.5,20.5C 167.376,23.0977 173.376,25.7644 179.5,28.5C 189.056,35.0462 198.056,42.3795 206.5,50.5C 211.659,56.8169 216.326,63.4835 220.5,70.5C 226.711,82.9131 231.045,95.9131 233.5,109.5C 233.5,110.167 233.5,110.833 233.5,111.5C 233.62,121.188 233.287,130.854 232.5,140.5C 231.232,142.905 230.565,145.572 230.5,148.5C 220.236,182.422 199.236,207.089 167.5,222.5C 161.252,224.455 154.918,226.122 148.5,227.5C 144.551,227.307 144.551,226.807 148.5,226C 147.833,225.667 147.167,225.333 146.5,225C 147.416,224.722 148.082,224.222 148.5,223.5C 149.1,220.375 150.267,220.042 152,222.5C 152.333,221.833 152.667,221.167 153,220.5C 157.333,222.5 159,221.167 158,216.5C 154.613,214.682 152.613,215.682 152,219.5C 151.418,216.332 150.418,215.999 149,218.5C 147.51,217.272 146.01,217.272 144.5,218.5C 144.167,218.5 143.833,218.5 143.5,218.5C 141.955,219.23 141.122,220.563 141,222.5C 140.764,220.881 139.931,219.881 138.5,219.5C 137.209,219.263 136.209,219.596 135.5,220.5C 133.512,220.173 131.512,219.84 129.5,219.5C 127.97,219.64 126.97,220.307 126.5,221.5C 127.806,222.467 128.473,223.801 128.5,225.5C 126.265,225.795 124.265,225.461 122.5,224.5C 122.454,220.765 120.787,219.432 117.5,220.5C 118.993,221.141 119.993,222.141 120.5,223.5C 119.167,223.5 117.833,223.5 116.5,223.5C 116.833,220.5 115.5,219.167 112.5,219.5C 111.833,219.5 111.167,219.5 110.5,219.5C 109.041,219.567 107.708,219.234 106.5,218.5C 106.167,218.5 105.833,218.5 105.5,218.5C 104.504,218.414 103.671,218.748 103,219.5C 100.411,215.893 97.0781,214.893 93,216.5C 91.1206,214.805 88.9539,213.472 86.5,212.5C 85.8333,212.833 85.1667,213.167 84.5,213.5C 85.5,214.167 86.5,214.833 87.5,215.5C 85.939,216.347 84.439,216.014 83,214.5C 83.0286,209.44 81.5286,209.44 78.5,214.5C 78.9377,215.506 79.6043,215.506 80.5,214.5C 81.3857,215.325 81.719,216.325 81.5,217.5C 83.7522,218.333 85.9189,218.333 88,217.5C 89.5295,218.583 91.0295,219.583 92.5,220.5C 95.1804,217.557 95.847,217.89 94.5,221.5C 96.0064,222.747 97.5064,222.747 99,221.5C 99.7083,222.381 100.542,223.047 101.5,223.5C 102.263,224.268 103.263,224.768 104.5,225C 101.301,226.275 97.9672,226.441 94.5,225.5C 81.157,222.493 69.157,216.827 58.5,208.5C 53.8594,204.195 49.1927,199.861 44.5,195.5C 43.5806,192.911 41.914,190.911 39.5,189.5C 28.0415,173.112 20.7082,155.112 17.5,135.5C 15.7785,121.706 16.4452,108.039 19.5,94.5C 23.8037,82.2247 29.4704,70.558 36.5,59.5C 50.8387,41.1528 68.8387,27.8194 90.5,19.5C 95.3548,18.4565 100.022,17.1231 104.5,15.5C 120.957,13.6911 137.29,14.3578 153.5,17.5 Z"/></g>
<g><path style="opacity:1" fill="#8f8c5e" d="M 60.5,55.5 C 60.5,56.5 60.5,57.5 60.5,58.5C 61.5,58.5 62.5,58.5 63.5,58.5C 62.1225,59.2344 60.6225,59.9011 59,60.5C 58.8019,62.3817 58.3019,64.0484 57.5,65.5C 57.5,64.1667 57.5,62.8333 57.5,61.5C 56.5,61.5 55.5,61.5 54.5,61.5C 57.5,60.5 59.5,58.5 60.5,55.5 Z"/></g>
<g><path style="opacity:1" fill="#22170e" d="M 154.5,52.5 C 175.266,61.6721 189.433,77.0054 197,98.5C 198.167,99.6667 199.333,100.833 200.5,102C 204.821,102.499 209.154,102.666 213.5,102.5C 213.5,102.833 213.5,103.167 213.5,103.5C 208.684,104.65 203.684,104.816 198.5,104C 180.688,59.0633 148.022,41.5633 100.5,51.5C 118.515,44.6724 136.515,45.0057 154.5,52.5 Z"/></g>
<g><path style="opacity:1" fill="#520507" d="M 188.5,104.5 C 193.891,129.987 187.224,151.654 168.5,169.5C 146.341,185.593 122.341,188.76 96.5,179C 92.131,177.453 88.4643,174.953 85.5,171.5C 63.7599,151.322 57.2599,126.989 66,98.5C 68.4934,92.8428 71.4934,87.5095 75,82.5C 79.037,78.631 82.8704,74.631 86.5,70.5C 90.5392,66.8114 95.2058,64.1448 100.5,62.5C 104.162,62.2766 107.495,61.2766 110.5,59.5C 145.397,54.0322 170.897,67.0322 187,98.5C 187.315,100.586 187.815,102.586 188.5,104.5 Z"/></g>
<g><path style="opacity:1" fill="#9f9682" d="M 113.5,53.5 C 106.881,55.2583 100.214,57.2583 93.5,59.5C 93.8333,58.8333 94.1667,58.1667 94.5,57.5C 98.3127,56.8404 101.979,55.6738 105.5,54C 108.146,53.5026 110.813,53.3359 113.5,53.5 Z"/></g>
<g><path style="opacity:1" fill="#9c976b" d="M 90.5,45.5 C 91.4916,45.3284 92.1583,45.6618 92.5,46.5C 71.7471,55.5859 57.0804,70.5859 48.5,91.5C 47.8333,91.5 47.5,91.1667 47.5,90.5C 56.0266,69.973 70.3599,54.973 90.5,45.5 Z"/></g>
<g><path style="opacity:1" fill="#43341f" d="M 203.5,55.5 C 205.144,55.8102 206.144,56.8102 206.5,58.5C 205.833,59.1667 205.167,59.8333 204.5,60.5C 204.5,59.8333 204.167,59.5 203.5,59.5C 205.033,57.2104 204.7,56.5437 202.5,57.5C 198.643,55.0172 198.977,54.3505 203.5,55.5 Z"/></g>
<g><path style="opacity:1" fill="#a8a58c" d="M 113.5,53.5 C 129.379,50.3082 144.379,52.6416 158.5,60.5C 158.5,60.8333 158.5,61.1667 158.5,61.5C 144.345,54.4704 129.345,51.8038 113.5,53.5 Z"/></g>
<g><path style="opacity:1" fill="#634a2a" d="M 66.5,36.5 C 67.6206,38.3157 68.1206,40.3157 68,42.5C 65.6828,39.8184 63.5161,39.985 61.5,43C 62.8989,43.5946 64.2322,43.4279 65.5,42.5C 66.521,43.0016 66.6877,43.6683 66,44.5C 57.9862,50.4485 51.1529,57.6152 45.5,66C 44.1667,66.6667 42.8333,66.6667 41.5,66C 40.5494,65.2825 40.3828,64.4491 41,63.5C 45.3475,64.7533 45.5141,63.92 41.5,61C 48.5988,51.4741 56.9322,43.3075 66.5,36.5 Z"/></g>
<g><path style="opacity:1" fill="#896f3e" d="M 175.5,49.5 C 177.156,50.1465 178.823,50.8131 180.5,51.5C 181.416,51.4573 182.083,51.1239 182.5,50.5C 184.492,52.5638 186.825,53.8971 189.5,54.5C 188.167,54.5 186.833,54.5 185.5,54.5C 185.5,55.5 185.5,56.5 185.5,57.5C 184.544,53.5001 181.877,51.6667 177.5,52C 176.619,51.2917 175.953,50.4584 175.5,49.5 Z"/></g>
<g><path style="opacity:1" fill="#f0eeee" d="M 113.5,53.5 C 129.345,51.8038 144.345,54.4704 158.5,61.5C 172.821,70.4884 183.155,82.8217 189.5,98.5C 189.993,100.806 190.326,103.139 190.5,105.5C 190.631,106.239 190.464,106.906 190,107.5C 189.768,106.263 189.268,105.263 188.5,104.5C 187.815,102.586 187.315,100.586 187,98.5C 170.897,67.0322 145.397,54.0322 110.5,59.5C 106.838,59.7234 103.505,60.7234 100.5,62.5C 95.2058,64.1448 90.5392,66.8114 86.5,70.5C 71.1637,80.8363 62.1637,95.1696 59.5,113.5C 59.1187,117.119 58.1187,120.452 56.5,123.5C 56.5,121.833 56.5,120.167 56.5,118.5C 57.8739,99.6883 65.2072,83.6883 78.5,70.5C 82.6042,65.7457 87.6042,62.079 93.5,59.5C 100.214,57.2583 106.881,55.2583 113.5,53.5 Z"/></g>
<g><path style="opacity:1" fill="#876b41" d="M 203.5,55.5 C 198.977,54.3505 198.643,55.0172 202.5,57.5C 204.7,56.5437 205.033,57.2104 203.5,59.5C 201.386,60.3399 199.553,59.6733 198,57.5C 197.667,56.1667 197.333,54.8333 197,53.5C 196.586,53.9574 196.086,54.2907 195.5,54.5C 194.018,52.5171 192.351,50.6837 190.5,49C 191.685,47.647 193.019,46.4803 194.5,45.5C 197.915,48.575 200.915,51.9083 203.5,55.5 Z"/></g>
<g><path style="opacity:1" fill="#f0ed85" d="M 71.5,51.5 C 68.8587,53.8044 66.192,56.1377 63.5,58.5C 62.5,58.5 61.5,58.5 60.5,58.5C 60.5,57.5 60.5,56.5 60.5,55.5C 61.8333,53.5 63.5,51.8333 65.5,50.5C 67.3146,49.3702 69.3146,48.7036 71.5,48.5C 71.5,49.5 71.5,50.5 71.5,51.5 Z"/></g>
<g><path style="opacity:1" fill="#281e13" d="M 214.5,106.5 C 211.913,107.816 208.913,108.483 205.5,108.5C 202.5,108.333 199.5,108.167 196.5,108C 195.667,107.167 194.833,106.333 194,105.5C 192.59,101.101 191.09,96.7676 189.5,92.5C 182.532,78.5323 172.198,67.8656 158.5,60.5C 144.379,52.6416 129.379,50.3082 113.5,53.5C 110.813,53.3359 108.146,53.5026 105.5,54C 101.979,55.6738 98.3127,56.8404 94.5,57.5C 99.4136,54.5513 104.747,52.3846 110.5,51C 145.545,46.6586 172.045,59.492 190,89.5C 191.67,95.6745 194.503,101.175 198.5,106C 203.823,106.499 209.156,106.666 214.5,106.5 Z"/></g>
<g><path style="opacity:1" fill="#afa86f" d="M 76.5,42.5 C 76.5,43.8333 76.5,45.1667 76.5,46.5C 73.8001,47.1998 72.1334,48.8664 71.5,51.5C 71.5,50.5 71.5,49.5 71.5,48.5C 69.3146,48.7036 67.3146,49.3702 65.5,50.5C 67.0745,48.0594 69.4079,46.8928 72.5,47C 74.286,45.8036 75.6193,44.3036 76.5,42.5 Z"/></g>
<g><path style="opacity:1" fill="#6f5937" d="M 154.5,51.5 C 154.5,51.8333 154.5,52.1667 154.5,52.5C 136.515,45.0057 118.515,44.6724 100.5,51.5C 98.7085,51.366 97.0418,51.6993 95.5,52.5C 95.5,51.8333 95.1667,51.5 94.5,51.5C 98.2508,50.0271 101.917,48.3604 105.5,46.5C 119.593,44.7578 133.593,45.2578 147.5,48C 150.069,48.8984 152.402,50.065 154.5,51.5 Z"/></g>
<g><path style="opacity:1" fill="#6a5432" d="M 134.5,42.5 C 133.209,42.2627 132.209,42.596 131.5,43.5C 123.13,43.3773 114.797,43.8773 106.5,45C 105.944,45.3826 105.611,45.8826 105.5,46.5C 100.781,46.6288 96.448,47.9621 92.5,50.5C 92.1583,49.6618 91.4916,49.3284 90.5,49.5C 92.964,48.4335 95.2974,47.1002 97.5,45.5C 103.489,44.3369 109.489,43.1702 115.5,42C 122.014,41.18 128.347,41.3467 134.5,42.5 Z"/></g>
<g><path style="opacity:1" fill="#2f2115" d="M 131.5,43.5 C 148.589,45.2203 163.589,51.5536 176.5,62.5C 175.833,62.5 175.5,62.8333 175.5,63.5C 169.486,57.8288 162.486,53.8288 154.5,51.5C 152.402,50.065 150.069,48.8984 147.5,48C 133.593,45.2578 119.593,44.7578 105.5,46.5C 105.611,45.8826 105.944,45.3826 106.5,45C 114.797,43.8773 123.13,43.3773 131.5,43.5 Z"/></g>
<g><path style="opacity:1" fill="#806c43" d="M 184.5,38.5 C 189.076,39.3247 190.076,41.4914 187.5,45C 185.094,45.7789 183.427,44.9456 182.5,42.5C 183.63,41.3777 184.297,40.0443 184.5,38.5 Z"/></g>
<g><path style="opacity:1" fill="#241910" d="M 145.5,42.5 C 172.948,50.0574 191.948,67.0574 202.5,93.5C 202.167,93.8333 201.833,94.1667 201.5,94.5C 188.99,64.4219 166.657,47.0886 134.5,42.5C 128.347,41.3467 122.014,41.18 115.5,42C 109.489,43.1702 103.489,44.3369 97.5,45.5C 101.456,43.2509 105.789,41.7509 110.5,41C 122.279,39.9747 133.945,40.4747 145.5,42.5 Z"/></g>
<g><path style="opacity:1" fill="#dfbf56" d="M 83.5,38.5 C 85.1667,38.5 86.8333,38.5 88.5,38.5C 88.5,39.5 88.5,40.5 88.5,41.5C 84.677,43.7495 80.677,45.4162 76.5,46.5C 76.5,45.1667 76.5,43.8333 76.5,42.5C 78.6626,40.9172 80.9959,39.5839 83.5,38.5 Z"/></g>
<g><path style="opacity:1" fill="#654f31" d="M 147.5,41.5 C 146.508,41.3284 145.842,41.6618 145.5,42.5C 133.945,40.4747 122.279,39.9747 110.5,41C 105.789,41.7509 101.456,43.2509 97.5,45.5C 95.7085,45.366 94.0418,45.6993 92.5,46.5C 92.1583,45.6618 91.4916,45.3284 90.5,45.5C 104.365,38.9075 119.031,36.7408 134.5,39C 139.101,39.1487 143.434,39.982 147.5,41.5 Z"/></g>
<g><path style="opacity:1" fill="#8a703d" d="M 93.5,35.5 C 93.5569,36.609 93.8902,37.609 94.5,38.5C 91.6421,38.0283 89.6421,39.0283 88.5,41.5C 88.5,40.5 88.5,39.5 88.5,38.5C 86.8333,38.5 85.1667,38.5 83.5,38.5C 86.8555,37.8653 90.1888,36.8653 93.5,35.5 Z"/></g>
<g><path style="opacity:1" fill="#d5b462" d="M 157.5,34.5 C 161.663,35.6495 165.329,37.8162 168.5,41C 172.565,41.7167 176.231,43.3834 179.5,46C 181.141,47.129 182.141,48.629 182.5,50.5C 182.083,51.1239 181.416,51.4573 180.5,51.5C 178.823,50.8131 177.156,50.1465 175.5,49.5C 171.885,48.6957 169.552,46.5291 168.5,43C 167.5,42.5 166.5,42 165.5,41.5C 163.902,42.4847 162.235,42.6514 160.5,42C 156.772,41.0565 153.772,39.2232 151.5,36.5C 152.918,34.6921 154.918,34.0254 157.5,34.5 Z"/></g>
<g><path style="opacity:1" fill="#bf8a32" d="M 97.5,33.5 C 100.247,33.1866 102.914,33.52 105.5,34.5C 102.342,35.0926 99.675,36.4259 97.5,38.5C 96.5,38.5 95.5,38.5 94.5,38.5C 93.8902,37.609 93.5569,36.609 93.5,35.5C 94.287,33.8958 95.6203,33.2291 97.5,33.5 Z"/></g>
<g><path style="opacity:1" fill="#998453" d="M 184.5,38.5 C 183.078,38.7086 181.745,39.2086 180.5,40C 181.696,40.6543 181.696,41.1543 180.5,41.5C 175.945,38.4364 171.278,35.6031 166.5,33C 163.443,33.1069 161.109,31.9402 159.5,29.5C 158.914,29.7093 158.414,30.0426 158,30.5C 158.046,28.6874 157.88,27.0207 157.5,25.5C 156.201,26.09 155.368,27.09 155,28.5C 154.889,23.6213 153.722,23.288 151.5,27.5C 150.572,25.6652 149.406,25.3318 148,26.5C 147.48,24.7111 147.813,23.0444 149,21.5C 149.915,22.3279 150.581,23.3279 151,24.5C 151.519,23.4844 152.353,22.8178 153.5,22.5C 158.073,23.0101 161.74,25.0101 164.5,28.5C 165.167,28.1667 165.833,27.8333 166.5,27.5C 167.298,29.0777 167.798,30.7444 168,32.5C 168.833,31.5 169.667,30.5 170.5,29.5C 170.669,31.1173 171.003,32.784 171.5,34.5C 172.719,33.7366 173.719,32.7366 174.5,31.5C 176.332,32.2485 177.999,33.2485 179.5,34.5C 178.91,35.7989 177.91,36.6322 176.5,37C 178.685,38.9291 180.351,38.4291 181.5,35.5C 183.213,35.8793 184.213,36.8793 184.5,38.5 Z"/></g>
<g><path style="opacity:1" fill="#916d32" d="M 157.5,34.5 C 154.918,34.0254 152.918,34.6921 151.5,36.5C 144.198,36.675 137.032,35.3417 130,32.5C 123.856,34.7655 117.523,35.0988 111,33.5C 106.892,36.0381 102.392,37.7048 97.5,38.5C 99.675,36.4259 102.342,35.0926 105.5,34.5C 102.914,33.52 100.247,33.1866 97.5,33.5C 105.265,32.216 112.932,30.5493 120.5,28.5C 123.903,28.3726 127.069,29.0392 130,30.5C 133.804,29.5213 137.638,29.3546 141.5,30C 143.974,30.1129 145.974,31.1129 147.5,33C 151.025,33.1787 154.359,33.6787 157.5,34.5 Z"/></g>
<g><path style="opacity:1" fill="#877142" d="M 84.5,26.5 C 86.9582,26.2275 88.6249,27.2275 89.5,29.5C 89.1667,29.8333 88.8333,30.1667 88.5,30.5C 87.8333,29.8333 87.1667,29.1667 86.5,28.5C 86.1667,29.8333 85.8333,31.1667 85.5,32.5C 82.1119,35.4842 79.4452,34.9842 77.5,31C 79.691,29.222 82.0243,27.722 84.5,26.5 Z"/></g>
<g><path style="opacity:1" fill="#9b8e58" d="M 143.5,20.5 C 144.5,20.5 145.5,20.5 146.5,20.5C 146.5,22.5 146.5,24.5 146.5,26.5C 145.167,26.5 143.833,26.5 142.5,26.5C 142.325,24.3792 142.659,22.3792 143.5,20.5 Z"/></g>
<g><path style="opacity:1" fill="#959260" d="M 125.5,18.5 C 128.431,19.0057 131.265,19.0057 134,18.5C 135.261,18.7591 136.261,19.4258 137,20.5C 138.494,19.2528 139.994,19.2528 141.5,20.5C 137.5,21.8333 137.5,23.1667 141.5,24.5C 140.833,24.8333 140.167,25.1667 139.5,25.5C 137.833,24.1667 136.167,24.1667 134.5,25.5C 132.971,25.4712 131.804,24.8045 131,23.5C 129.301,24.4061 127.467,24.7394 125.5,24.5C 125.5,22.5 125.5,20.5 125.5,18.5 Z"/></g>
<g><path style="opacity:1" fill="#9e8f5c" d="M 101.5,21.5 C 103.256,22.5521 103.923,24.2188 103.5,26.5C 100.314,27.8367 96.981,28.8367 93.5,29.5C 90.4825,28.6198 89.8158,26.7864 91.5,24C 94.8584,23.6274 95.1917,24.4608 92.5,26.5C 92.8333,26.8333 93.1667,27.1667 93.5,27.5C 94.9505,26.3446 95.9505,24.8446 96.5,23C 98.1124,22.2797 99.6124,22.4464 101,23.5C 101.464,22.9056 101.631,22.2389 101.5,21.5 Z"/></g>
<g><path style="opacity:1" fill="#262114" d="M 97.5,23.5 C 99.4646,23.9483 99.7979,24.9483 98.5,26.5C 97.6143,25.675 97.281,24.675 97.5,23.5 Z"/></g>
<g><path style="opacity:1" fill="#b1af77" d="M 107.5,19.5 C 108.693,19.9704 109.36,20.9704 109.5,22.5C 109.333,23.5 109.167,24.5 109,25.5C 107.887,24.2889 106.72,24.2889 105.5,25.5C 105.167,24.6667 104.833,23.8333 104.5,23C 105.408,21.4022 106.408,20.2355 107.5,19.5 Z"/></g>
<g><path style="opacity:1" fill="#1c1e0e" d="M 127.5,20.5 C 129.337,20.6395 129.67,21.3061 128.5,22.5C 127.702,22.0431 127.369,21.3764 127.5,20.5 Z"/></g>
<g><path style="opacity:1" fill="#9c8852" d="M 206.5,58.5 C 209.24,60.8284 208.573,62.1617 204.5,62.5C 203.227,61.7435 203.227,61.0768 204.5,60.5C 205.167,59.8333 205.833,59.1667 206.5,58.5 Z"/></g>
<g><path style="opacity:1" fill="#805c5b" d="M 110.5,59.5 C 107.495,61.2766 104.162,62.2766 100.5,62.5C 103.505,60.7234 106.838,59.7234 110.5,59.5 Z"/></g>
<g><path style="opacity:1" fill="#9d966a" d="M 89.5,57.5 C 90.1667,57.5 90.5,57.8333 90.5,58.5C 77.7843,66.2156 67.7843,76.5489 60.5,89.5C 59.8333,89.5 59.5,89.1667 59.5,88.5C 66.0904,74.9089 76.0904,64.5756 89.5,57.5 Z"/></g>
<g><path style="opacity:1" fill="#eed974" d="M 54.5,61.5 C 55.5,61.5 56.5,61.5 57.5,61.5C 57.5,62.8333 57.5,64.1667 57.5,65.5C 55.1468,67.8599 53.1468,70.5265 51.5,73.5C 50.1667,73.5 48.8333,73.5 47.5,73.5C 48.1527,68.5153 50.486,64.5153 54.5,61.5 Z"/></g>
<g><path style="opacity:1" fill="#7a6a51" d="M 158.5,60.5 C 172.198,67.8656 182.532,78.5323 189.5,92.5C 188.709,94.3093 188.709,96.3093 189.5,98.5C 183.155,82.8217 172.821,70.4884 158.5,61.5C 158.5,61.1667 158.5,60.8333 158.5,60.5 Z"/></g>
<g><path style="opacity:1" fill="#968750" d="M 204.5,63.5 C 206.604,63.2011 208.604,63.5344 210.5,64.5C 209.96,65.7481 209.293,66.9148 208.5,68C 209.833,68 211.167,68 212.5,68C 211.228,69.3068 210.228,70.8068 209.5,72.5C 207.394,69.7255 205.727,66.7255 204.5,63.5 Z"/></g>
<g><path style="opacity:1" fill="#76683f" d="M 37.5,66.5 C 38.4066,69.8045 39.9066,70.1378 42,67.5C 42.8333,70.6667 41.6667,71.8333 38.5,71C 37.6198,69.6439 37.2865,68.1439 37.5,66.5 Z"/></g>
<g><path style="opacity:1" fill="#ac935c" d="M 21.5,63.5 C 21.0819,67.3494 19.4152,70.3494 16.5,72.5C 17.4097,69.0078 19.0764,66.0078 21.5,63.5 Z"/></g>
<g><path style="opacity:1" fill="#cea448" d="M 189.5,54.5 C 191.461,56.9635 193.628,59.2968 196,61.5C 196.8,65.6398 199.133,68.6398 203,70.5C 204.777,73.0594 206.277,75.7261 207.5,78.5C 207.768,80.099 207.434,81.4324 206.5,82.5C 204.983,82.4894 203.816,81.8228 203,80.5C 200.165,76.5008 198.165,72.1675 197,67.5C 192.406,65.0746 188.572,61.7412 185.5,57.5C 185.5,56.5 185.5,55.5 185.5,54.5C 186.833,54.5 188.167,54.5 189.5,54.5 Z"/></g>
<g><path style="opacity:1" fill="#eabf5a" d="M 36.5,59.5 C 29.4704,70.558 23.8037,82.2247 19.5,94.5C 17.6992,98.7066 16.3659,103.04 15.5,107.5C 14.8505,105.565 14.5172,103.565 14.5,101.5C 12.8561,101.714 11.3561,101.38 10,100.5C 9.76791,101.737 9.26791,102.737 8.5,103.5C 8.5,100.833 8.5,98.1667 8.5,95.5C 10.7408,90.7779 12.4074,85.7779 13.5,80.5C 13.7329,77.4582 14.7329,74.7916 16.5,72.5C 19.4152,70.3494 21.0819,67.3494 21.5,63.5C 23.2292,62.8825 24.7292,61.8825 26,60.5C 27.1139,56.5443 27.9473,56.5443 28.5,60.5C 32.1223,62.4418 34.6223,61.4418 36,57.5C 36.4643,58.0944 36.631,58.7611 36.5,59.5 Z"/></g>
<g><path style="opacity:1" fill="#9b9569" d="M 94.5,51.5 C 95.1667,51.5 95.5,51.8333 95.5,52.5C 76.4153,61.2509 62.7486,75.2509 54.5,94.5C 53.8333,94.5 53.5,94.1667 53.5,93.5C 58.6749,80.6797 66.6749,69.8464 77.5,61C 82.5751,56.7953 88.2417,53.6286 94.5,51.5 Z"/></g>
<g><path style="opacity:1" fill="#a49e6f" d="M 90.5,49.5 C 91.4916,49.3284 92.1583,49.6618 92.5,50.5C 76.3531,57.6454 64.0198,68.9788 55.5,84.5C 54.8333,84.5 54.5,84.1667 54.5,83.5C 62.9398,68.3934 74.9398,57.0601 90.5,49.5 Z"/></g>
<g><path style="opacity:1" fill="#a29258" d="M 213.5,75.5 C 217.138,74.7366 218.638,76.0699 218,79.5C 217.149,76.3876 215.983,76.0542 214.5,78.5C 215.919,80.1266 215.586,80.6266 213.5,80C 212.272,78.5098 212.272,77.0098 213.5,75.5 Z"/></g>
<g><path style="opacity:1" fill="#d6c4c4" d="M 82.5,80.5 C 111.329,79.502 140.329,79.1686 169.5,79.5C 169.5,86.8333 169.5,94.1667 169.5,101.5C 164.968,101.818 160.634,101.485 156.5,100.5C 160.5,100.5 164.5,100.5 168.5,100.5C 168.5,93.8333 168.5,87.1667 168.5,80.5C 139.833,80.5 111.167,80.5 82.5,80.5 Z"/></g>
<g><path style="opacity:1" fill="#efcd62" d="M 220.5,70.5 C 222.656,72.259 225.156,73.5924 228,74.5C 228.765,74.4301 229.265,74.0967 229.5,73.5C 233.403,79.5374 235.736,86.204 236.5,93.5C 235.743,98.9676 234.743,104.301 233.5,109.5C 231.045,95.9131 226.711,82.9131 220.5,70.5 Z"/></g>
<g><path style="opacity:1" fill="#fdfcfc" d="M 82.5,80.5 C 111.167,80.5 139.833,80.5 168.5,80.5C 168.5,87.1667 168.5,93.8333 168.5,100.5C 164.5,100.5 160.5,100.5 156.5,100.5C 156.5,97.5 156.5,94.5 156.5,91.5C 148.981,91.175 141.648,91.5084 134.5,92.5C 133.503,114.66 133.169,136.994 133.5,159.5C 135.833,159.5 138.167,159.5 140.5,159.5C 140.5,163.5 140.5,167.5 140.5,171.5C 130.5,171.5 120.5,171.5 110.5,171.5C 110.5,167.5 110.5,163.5 110.5,159.5C 113.167,159.5 115.833,159.5 118.5,159.5C 118.831,136.994 118.497,114.66 117.5,92.5C 110.5,92.5 103.5,92.5 96.5,92.5C 96.5,95.1667 96.5,97.8333 96.5,100.5C 91.8333,100.5 87.1667,100.5 82.5,100.5C 82.5,93.8333 82.5,87.1667 82.5,80.5 Z"/></g>
<g><path style="opacity:1" fill="#8c7853" d="M 37.5,75.5 C 38.0431,75.56 38.3764,75.8933 38.5,76.5C 36.7576,79.4005 35.2576,82.4005 34,85.5C 31.7355,84.0842 30.5688,82.0842 30.5,79.5C 34.2896,79.9923 34.9563,79.159 32.5,77C 33.7839,76.3162 34.9505,76.4829 36,77.5C 36.7172,76.9558 37.2172,76.2891 37.5,75.5 Z"/></g>
<g><path style="opacity:1" fill="#1c160e" d="M 100.5,51.5 C 96.9617,53.7685 93.295,55.7685 89.5,57.5C 76.0904,64.5756 66.0904,74.9089 59.5,88.5C 54.9945,96.5011 52.3279,105.168 51.5,114.5C 50.8333,119.5 50.1667,124.5 49.5,129.5C 48.3512,117.374 50.0179,105.707 54.5,94.5C 62.7486,75.2509 76.4153,61.2509 95.5,52.5C 97.0418,51.6993 98.7085,51.366 100.5,51.5 Z"/></g>
<g><path style="opacity:1" fill="#846e48" d="M 213.5,103.5 C 214.167,103.5 214.5,103.167 214.5,102.5C 215.338,102.842 215.672,103.508 215.5,104.5C 214.662,104.842 214.328,105.508 214.5,106.5C 209.156,106.666 203.823,106.499 198.5,106C 194.503,101.175 191.67,95.6745 190,89.5C 172.045,59.492 145.545,46.6586 110.5,51C 104.747,52.3846 99.4136,54.5513 94.5,57.5C 93.1667,57.8333 91.8333,58.1667 90.5,58.5C 90.5,57.8333 90.1667,57.5 89.5,57.5C 93.295,55.7685 96.9617,53.7685 100.5,51.5C 148.022,41.5633 180.688,59.0633 198.5,104C 203.684,104.816 208.684,104.65 213.5,103.5 Z"/></g>
<g><path style="opacity:1" fill="#7e6d4a" d="M 207.5,78.5 C 208.268,80.7146 208.935,83.0479 209.5,85.5C 208.833,86.1667 208.167,86.8333 207.5,87.5C 207.371,85.7839 207.038,84.1172 206.5,82.5C 207.434,81.4324 207.768,80.099 207.5,78.5 Z"/></g>
<g><path style="opacity:1" fill="#d8b456" d="M 47.5,73.5 C 48.8333,73.5 50.1667,73.5 51.5,73.5C 47.4721,74.0606 46.1388,76.2272 47.5,80C 45.1445,83.5433 43.4778,87.3766 42.5,91.5C 40.8762,91.3601 39.7096,92.0267 39,93.5C 39.6954,96.8464 39.5287,100.18 38.5,103.5C 37.207,104.842 36.3736,106.509 36,108.5C 35.6667,108.167 35.3333,107.833 35,107.5C 34.5499,103.812 34.7166,100.146 35.5,96.5C 36.6871,95.4664 37.5204,94.133 38,92.5C 38.3484,84.6798 41.515,78.3465 47.5,73.5 Z"/></g>
<g><path style="opacity:1" fill="#8b7753" d="M 154.5,52.5 C 154.5,52.1667 154.5,51.8333 154.5,51.5C 162.486,53.8288 169.486,57.8288 175.5,63.5C 186.307,73.0981 194.141,84.7648 199,98.5C 200.822,100.045 202.989,100.712 205.5,100.5C 207.369,100.493 209.036,100.16 210.5,99.5C 211.5,100.5 212.5,101.5 213.5,102.5C 209.154,102.666 204.821,102.499 200.5,102C 199.333,100.833 198.167,99.6667 197,98.5C 189.433,77.0054 175.266,61.6721 154.5,52.5 Z"/></g>
<g><path style="opacity:1" fill="#907c56" d="M 145.5,42.5 C 145.842,41.6618 146.508,41.3284 147.5,41.5C 172.496,48.6568 190.663,63.9901 202,87.5C 203.43,90.3527 204.263,93.3527 204.5,96.5C 202.712,96.7852 201.045,96.4519 199.5,95.5C 194.532,82.5458 186.866,71.5458 176.5,62.5C 163.589,51.5536 148.589,45.2203 131.5,43.5C 132.209,42.596 133.209,42.2627 134.5,42.5C 166.657,47.0886 188.99,64.4219 201.5,94.5C 201.833,94.1667 202.167,93.8333 202.5,93.5C 191.948,67.0574 172.948,50.0574 145.5,42.5 Z"/></g>
<g><path style="opacity:1" fill="#a6916a" d="M 13.5,80.5 C 12.4074,85.7779 10.7408,90.7779 8.5,95.5C 9.19382,90.085 10.8605,85.085 13.5,80.5 Z"/></g>
<g><path style="opacity:1" fill="#9a8253" d="M 54.5,83.5 C 54.5,84.1667 54.8333,84.5 55.5,84.5C 42.9264,108.153 42.2598,132.153 53.5,156.5C 52.8333,156.5 52.5,156.833 52.5,157.5C 44.4575,140.705 42.2908,123.038 46,104.5C 47.7746,96.9675 50.6079,89.9675 54.5,83.5 Z"/></g>
<g><path style="opacity:1" fill="#c6acac" d="M 134.5,92.5 C 141.648,91.5084 148.981,91.175 156.5,91.5C 156.5,94.5 156.5,97.5 156.5,100.5C 155.527,98.0521 155.194,95.3854 155.5,92.5C 148.5,92.5 141.5,92.5 134.5,92.5 Z"/></g>
<g><path style="opacity:1" fill="#996d6d" d="M 117.5,92.5 C 118.497,114.66 118.831,136.994 118.5,159.5C 115.833,159.5 113.167,159.5 110.5,159.5C 112.607,158.532 114.941,158.198 117.5,158.5C 117.5,136.5 117.5,114.5 117.5,92.5 Z"/></g>
<g><path style="opacity:1" fill="#928456" d="M 226.5,102.5 C 224.801,102.34 223.134,102.506 221.5,103C 223.359,103.601 223.692,104.434 222.5,105.5C 220.414,101.09 218.747,96.4235 217.5,91.5C 217.833,90.8333 218.167,90.1667 218.5,89.5C 215.955,87.2159 215.288,84.5492 216.5,81.5C 217.451,80.6744 218.451,80.5078 219.5,81C 215.397,83.5284 215.564,84.3617 220,83.5C 221.477,84.444 222.477,85.7774 223,87.5C 224.109,92.5518 225.276,97.5518 226.5,102.5 Z"/></g>
<g><path style="opacity:1" fill="#221a11" d="M 105.5,46.5 C 101.917,48.3604 98.2508,50.0271 94.5,51.5C 88.2417,53.6286 82.5751,56.7953 77.5,61C 66.6749,69.8464 58.6749,80.6797 53.5,93.5C 45.6854,112.612 45.5188,131.946 53,151.5C 55.4375,157.392 58.6042,162.726 62.5,167.5C 70.5177,179.498 81.1844,188.165 94.5,193.5C 107.055,198.947 120.055,200.614 133.5,198.5C 136.833,198.5 140.167,198.5 143.5,198.5C 122.908,203.702 103.241,201.036 84.5,190.5C 70.7039,182.369 60.3706,171.035 53.5,156.5C 42.2598,132.153 42.9264,108.153 55.5,84.5C 64.0198,68.9788 76.3531,57.6454 92.5,50.5C 96.448,47.9621 100.781,46.6288 105.5,46.5 Z"/></g>
<g><path style="opacity:1" fill="#daba69" d="M 209.5,85.5 C 210.172,86.2674 211.005,86.9341 212,87.5C 212.853,89.9355 213.853,92.2688 215,94.5C 215.43,97.1922 215.263,99.8589 214.5,102.5C 214.5,103.167 214.167,103.5 213.5,103.5C 213.5,103.167 213.5,102.833 213.5,102.5C 212.5,101.5 211.5,100.5 210.5,99.5C 209.488,95.4848 208.488,91.4848 207.5,87.5C 208.167,86.8333 208.833,86.1667 209.5,85.5 Z"/></g>
<g><path style="opacity:1" fill="#897653" d="M 28.5,83.5 C 30.2687,84.4214 31.9354,85.5881 33.5,87C 31.8333,87.3333 30.1667,87.6667 28.5,88C 30.0016,88.5831 31.3349,89.4164 32.5,90.5C 31.5959,93.9446 30.2626,97.1113 28.5,100C 29.9916,104.503 28.4916,106.003 24,104.5C 23.1278,101.028 23.9611,98.0283 26.5,95.5C 26.0688,94.7065 25.7355,93.8732 25.5,93C 26.2734,89.7328 27.2734,86.5661 28.5,83.5 Z"/></g>
<g><path style="opacity:1" fill="#a69974" d="M 78.5,70.5 C 65.2072,83.6883 57.8739,99.6883 56.5,118.5C 55.1201,118.038 54.4534,117.038 54.5,115.5C 56.0776,101.348 61.2443,88.6813 70,77.5C 72.4356,74.5532 75.2689,72.2199 78.5,70.5 Z"/></g>
<g><path style="opacity:1" fill="#8e7348" d="M 59.5,88.5 C 59.5,89.1667 59.8333,89.5 60.5,89.5C 52.7957,105.437 50.7957,122.103 54.5,139.5C 54.1667,139.5 53.8333,139.5 53.5,139.5C 52.087,136.781 51.4203,133.781 51.5,130.5C 51.5,125.167 51.5,119.833 51.5,114.5C 52.3279,105.168 54.9945,96.5011 59.5,88.5 Z"/></g>
<g><path style="opacity:1" fill="#cabf7d" d="M 226.5,102.5 C 226.5,102.833 226.5,103.167 226.5,103.5C 225.566,104.568 225.232,105.901 225.5,107.5C 223.821,107.715 222.821,107.048 222.5,105.5C 223.692,104.434 223.359,103.601 221.5,103C 223.134,102.506 224.801,102.34 226.5,102.5 Z"/></g>
<g><path style="opacity:1" fill="#ae843f" d="M 35.5,96.5 C 34.7166,100.146 34.5499,103.812 35,107.5C 35.3333,107.833 35.6667,108.167 36,108.5C 36.3736,106.509 37.207,104.842 38.5,103.5C 37.4114,107.543 36.4114,111.543 35.5,115.5C 34.5,115.5 33.5,115.5 32.5,115.5C 33.5936,112.569 33.5936,109.569 32.5,106.5C 32.902,102.87 33.902,99.5371 35.5,96.5 Z"/></g>
<g><path style="opacity:1" fill="#fdfcfc" d="M 102.5,118.5 C 97.8333,118.5 93.1667,118.5 88.5,118.5C 88.5,127.5 88.5,136.5 88.5,145.5C 92.97,146.486 97.6367,146.819 102.5,146.5C 102.5,149.833 102.5,153.167 102.5,156.5C 94.1667,156.5 85.8333,156.5 77.5,156.5C 77.5,140.5 77.5,124.5 77.5,108.5C 85.8333,108.5 94.1667,108.5 102.5,108.5C 102.5,111.833 102.5,115.167 102.5,118.5 Z"/></g>
<g><path style="opacity:1" fill="#988453" d="M 189.5,92.5 C 191.09,96.7676 192.59,101.101 194,105.5C 194.833,106.333 195.667,107.167 196.5,108C 199.5,108.167 202.5,108.333 205.5,108.5C 208.913,108.483 211.913,107.816 214.5,106.5C 214.328,105.508 214.662,104.842 215.5,104.5C 218.44,117.055 218.107,129.389 214.5,141.5C 214.167,141.5 213.833,141.5 213.5,141.5C 213.5,141.167 213.5,140.833 213.5,140.5C 214.946,136.414 215.612,132.414 215.5,128.5C 213.62,128.229 212.287,128.896 211.5,130.5C 207.627,133.186 204.794,136.519 203,140.5C 203.383,139.944 203.883,139.611 204.5,139.5C 205.338,139.842 205.672,140.508 205.5,141.5C 202.833,141.5 200.167,141.5 197.5,141.5C 197.263,140.209 197.596,139.209 198.5,138.5C 198.897,139.525 199.563,139.692 200.5,139C 204.37,135.298 208.037,131.464 211.5,127.5C 212.528,127.074 213.861,127.074 215.5,127.5C 215.5,126.167 215.5,124.833 215.5,123.5C 215.5,122.833 215.5,122.167 215.5,121.5C 215.5,120.833 215.5,120.167 215.5,119.5C 208.24,117.535 200.573,116.868 192.5,117.5C 192.5,116.833 192.5,116.167 192.5,115.5C 203.167,114.833 203.167,114.167 192.5,113.5C 192.167,112.167 191.833,110.833 191.5,109.5C 192.289,109.783 192.956,110.283 193.5,111C 200.5,111.667 207.5,111.667 214.5,111C 208.5,110.667 202.5,110.333 196.5,110C 195.421,109.044 194.255,108.211 193,107.5C 192.275,104.21 191.108,101.21 189.5,98.5C 188.709,96.3093 188.709,94.3093 189.5,92.5 Z"/></g>
<g><path style="opacity:1" fill="#b08c8b" d="M 178.5,108.5 C 178.167,108.5 177.833,108.5 177.5,108.5C 168.167,108.5 158.833,108.5 149.5,108.5C 149.5,124.5 149.5,140.5 149.5,156.5C 152.833,156.5 156.167,156.5 159.5,156.5C 159.178,150.642 159.511,144.975 160.5,139.5C 160.5,145.5 160.5,151.5 160.5,157.5C 156.5,157.5 152.5,157.5 148.5,157.5C 148.5,140.833 148.5,124.167 148.5,107.5C 158.681,107.173 168.681,107.506 178.5,108.5 Z"/></g>
<g><path style="opacity:1" fill="#fdfcfc" d="M 177.5,108.5 C 177.5,111.833 177.5,115.167 177.5,118.5C 171.642,118.178 165.975,118.511 160.5,119.5C 160.5,122.5 160.5,125.5 160.5,128.5C 165.305,129.487 170.305,129.821 175.5,129.5C 175.5,132.5 175.5,135.5 175.5,138.5C 170.305,138.179 165.305,138.513 160.5,139.5C 159.511,144.975 159.178,150.642 159.5,156.5C 156.167,156.5 152.833,156.5 149.5,156.5C 149.5,140.5 149.5,124.5 149.5,108.5C 158.833,108.5 168.167,108.5 177.5,108.5 Z"/></g>
<g><path style="opacity:1" fill="#939260" d="M 226.5,103.5 C 225.899,106.653 226.565,109.653 228.5,112.5C 227.779,114.686 227.445,116.686 227.5,118.5C 226.3,117.469 224.966,116.635 223.5,116C 226.384,114.963 227.05,113.129 225.5,110.5C 224.833,111.5 224.167,112.5 223.5,113.5C 222.645,111.392 221.978,109.226 221.5,107C 221.57,106.235 221.903,105.735 222.5,105.5C 222.821,107.048 223.821,107.715 225.5,107.5C 225.232,105.901 225.566,104.568 226.5,103.5 Z"/></g>
<g><path style="opacity:1" fill="#150e08" d="M 189.5,98.5 C 191.108,101.21 192.275,104.21 193,107.5C 194.255,108.211 195.421,109.044 196.5,110C 202.5,110.333 208.5,110.667 214.5,111C 207.5,111.667 200.5,111.667 193.5,111C 192.956,110.283 192.289,109.783 191.5,109.5C 191.768,107.901 191.434,106.568 190.5,105.5C 190.326,103.139 189.993,100.806 189.5,98.5 Z"/></g>
<g><path style="opacity:1" fill="#968455" d="M 27.5,115.5 C 25.3792,115.675 23.3792,115.341 21.5,114.5C 21.0146,109.841 22.848,108.508 27,110.5C 27.4935,112.134 27.6602,113.801 27.5,115.5 Z"/></g>
<g><path style="opacity:1" fill="#1a1209" d="M 192.5,113.5 C 203.167,114.167 203.167,114.833 192.5,115.5C 192.5,114.833 192.5,114.167 192.5,113.5 Z"/></g>
<g><path style="opacity:1" fill="#edce5b" d="M 201.5,113.5 C 204.5,113.5 207.5,113.5 210.5,113.5C 210.5,114.5 210.5,115.5 210.5,116.5C 207.5,116.5 204.5,116.5 201.5,116.5C 201.5,115.5 201.5,114.5 201.5,113.5 Z"/></g>
<g><path style="opacity:1" fill="#42331e" d="M 211.5,113.5 C 212.978,113.238 214.311,113.571 215.5,114.5C 214.68,116.111 213.346,116.778 211.5,116.5C 211.5,115.5 211.5,114.5 211.5,113.5 Z"/></g>
<g><path style="opacity:1" fill="#cbb4b4" d="M 177.5,108.5 C 177.833,108.5 178.167,108.5 178.5,108.5C 178.5,112.167 178.5,115.833 178.5,119.5C 172.5,119.5 166.5,119.5 160.5,119.5C 165.975,118.511 171.642,118.178 177.5,118.5C 177.5,115.167 177.5,111.833 177.5,108.5 Z"/></g>
<g><path style="opacity:1" fill="#231710" d="M 192.5,117.5 C 200.573,116.868 208.24,117.535 215.5,119.5C 207.833,119.5 200.167,119.5 192.5,119.5C 192.5,118.833 192.5,118.167 192.5,117.5 Z"/></g>
<g><path style="opacity:1" fill="#5e411f" d="M 51.5,114.5 C 51.5,119.833 51.5,125.167 51.5,130.5C 50.5655,131.568 50.2322,132.901 50.5,134.5C 49.5489,133.081 49.2155,131.415 49.5,129.5C 50.1667,124.5 50.8333,119.5 51.5,114.5 Z"/></g>
<g><path style="opacity:1" fill="#8f7449" d="M 47.5,90.5 C 47.5,91.1667 47.8333,91.5 48.5,91.5C 39.4656,116.249 41.1322,140.249 53.5,163.5C 52.8333,163.5 52.5,163.833 52.5,164.5C 38.7882,140.586 37.1215,115.92 47.5,90.5 Z"/></g>
<g><path style="opacity:1" fill="#857351" d="M 192.5,119.5 C 200.167,119.5 207.833,119.5 215.5,119.5C 215.5,120.167 215.5,120.833 215.5,121.5C 214.167,121.5 212.833,121.5 211.5,121.5C 207.833,120.167 204.167,120.167 200.5,121.5C 197.833,121.5 195.167,121.5 192.5,121.5C 192.5,120.833 192.5,120.167 192.5,119.5 Z"/></g>
<g><path style="opacity:1" fill="#fcee75" d="M 236.5,93.5 C 237.222,93.9175 237.722,94.5842 238,95.5C 241.607,114.098 241.107,132.432 236.5,150.5C 235.71,149.391 235.21,148.058 235,146.5C 234.831,134.659 234.331,122.993 233.5,111.5C 233.5,110.833 233.5,110.167 233.5,109.5C 234.743,104.301 235.743,98.9676 236.5,93.5 Z"/></g>
<g><path style="opacity:1" fill="#1c0f06" d="M 211.5,121.5 C 212.833,121.5 214.167,121.5 215.5,121.5C 215.5,122.167 215.5,122.833 215.5,123.5C 214.167,123.5 212.833,123.5 211.5,123.5C 211.5,122.833 211.5,122.167 211.5,121.5 Z"/></g>
<g><path style="opacity:1" fill="#a0986e" d="M 8.5,95.5 C 8.5,98.1667 8.5,100.833 8.5,103.5C 7.68618,105.631 7.18618,107.964 7,110.5C 6.50029,118.493 6.33362,126.493 6.5,134.5C 4.83762,121.392 5.50429,108.392 8.5,95.5 Z"/></g>
<g><path style="opacity:1" fill="#ab925d" d="M 21.5,116.5 C 22.2216,116.918 22.7216,117.584 23,118.5C 23.3333,117.833 23.6667,117.167 24,116.5C 26.1857,119.152 26.8524,122.152 26,125.5C 24.1116,123.256 22.6116,123.256 21.5,125.5C 21.238,124.022 21.5713,122.689 22.5,121.5C 23.6086,122.59 24.6086,122.59 25.5,121.5C 22.6582,120.996 21.3249,119.329 21.5,116.5 Z"/></g>
<g><path style="opacity:1" fill="#a27b3a" d="M 32.5,115.5 C 32.5,119.833 32.5,124.167 32.5,128.5C 33.8333,128.5 35.1667,128.5 36.5,128.5C 35.9566,129.742 35.6233,131.075 35.5,132.5C 37.4129,134.773 38.4129,137.439 38.5,140.5C 37.8592,138.958 36.8592,137.624 35.5,136.5C 34.5159,139.428 34.1826,142.428 34.5,145.5C 33.3909,143.414 32.7243,141.08 32.5,138.5C 31.5967,130.844 31.5967,123.177 32.5,115.5 Z"/></g>
<g><path style="opacity:1" fill="#d9a03f" d="M 32.5,115.5 C 33.5,115.5 34.5,115.5 35.5,115.5C 36.4849,119.634 36.8182,123.968 36.5,128.5C 35.1667,128.5 33.8333,128.5 32.5,128.5C 32.5,124.167 32.5,119.833 32.5,115.5 Z"/></g>
<g><path style="opacity:1" fill="#1d1108" d="M 192.5,121.5 C 195.167,121.5 197.833,121.5 200.5,121.5C 200.5,122.167 200.5,122.833 200.5,123.5C 197.833,123.5 195.167,123.5 192.5,123.5C 192.5,122.833 192.5,122.167 192.5,121.5 Z"/></g>
<g><path style="opacity:1" fill="#834e4e" d="M 102.5,118.5 C 102.833,118.5 103.167,118.5 103.5,118.5C 99.03,119.486 94.3633,119.819 89.5,119.5C 89.5,128.167 89.5,136.833 89.5,145.5C 89.1667,145.5 88.8333,145.5 88.5,145.5C 88.5,136.5 88.5,127.5 88.5,118.5C 93.1667,118.5 97.8333,118.5 102.5,118.5 Z"/></g>
<g><path style="opacity:1" fill="#d2b659" d="M 211.5,121.5 C 211.5,122.167 211.5,122.833 211.5,123.5C 207.833,124.833 204.167,124.833 200.5,123.5C 200.5,122.833 200.5,122.167 200.5,121.5C 204.167,120.167 207.833,120.167 211.5,121.5 Z"/></g>
<g><path style="opacity:1" fill="#837040" d="M 192.5,123.5 C 195.167,123.5 197.833,123.5 200.5,123.5C 204.167,124.833 207.833,124.833 211.5,123.5C 212.833,123.5 214.167,123.5 215.5,123.5C 215.5,124.833 215.5,126.167 215.5,127.5C 213.861,127.074 212.528,127.074 211.5,127.5C 206.893,130.768 202.559,134.435 198.5,138.5C 198.167,137.833 197.833,137.167 197.5,136.5C 201.08,134.592 204.08,131.926 206.5,128.5C 205.998,127.479 205.332,127.312 204.5,128C 203.002,130.664 201.002,132.83 198.5,134.5C 198.167,133.833 197.833,133.167 197.5,132.5C 199.296,131.207 200.963,129.707 202.5,128C 200.565,128.058 198.898,128.891 197.5,130.5C 197.657,129.127 197.49,127.793 197,126.5C 196.819,129.695 196.319,132.695 195.5,135.5C 195.649,134.448 195.483,133.448 195,132.5C 194.184,133.823 193.017,134.489 191.5,134.5C 191.5,133.833 191.5,133.167 191.5,132.5C 192.815,131.524 194.148,130.524 195.5,129.5C 194.675,128.614 193.675,128.281 192.5,128.5C 192.5,126.833 192.5,125.167 192.5,123.5 Z"/></g>
<g><path style="opacity:1" fill="#5f4d33" d="M 21.5,114.5 C 23.3792,115.341 25.3792,115.675 27.5,115.5C 27.5,119.833 27.5,124.167 27.5,128.5C 26.2099,126.86 24.5433,126.36 22.5,127C 23.7375,127.232 24.7375,127.732 25.5,128.5C 24.1667,128.5 22.8333,128.5 21.5,128.5C 21.5,127.5 21.5,126.5 21.5,125.5C 22.6116,123.256 24.1116,123.256 26,125.5C 26.8524,122.152 26.1857,119.152 24,116.5C 23.6667,117.167 23.3333,117.833 23,118.5C 22.7216,117.584 22.2216,116.918 21.5,116.5C 21.5,115.833 21.5,115.167 21.5,114.5 Z"/></g>
<g><path style="opacity:1" fill="#8e7448" d="M 27.5,128.5 C 27.2197,133.313 27.8863,137.98 29.5,142.5C 27.9775,144.283 25.9775,144.949 23.5,144.5C 23.3184,142.409 23.6518,140.409 24.5,138.5C 21.9422,136.88 21.9422,135.38 24.5,134C 23.376,133.751 22.376,133.251 21.5,132.5C 23.0792,131.333 24.4125,130 25.5,128.5C 24.7375,127.732 23.7375,127.232 22.5,127C 24.5433,126.36 26.2099,126.86 27.5,128.5 Z"/></g>
<g><path style="opacity:1" fill="#292413" d="M 197.5,132.5 C 197.5,131.833 197.5,131.167 197.5,130.5C 198.898,128.891 200.565,128.058 202.5,128C 200.963,129.707 199.296,131.207 197.5,132.5 Z"/></g>
<g><path style="opacity:1" fill="#302011" d="M 211.5,127.5 C 208.037,131.464 204.37,135.298 200.5,139C 199.563,139.692 198.897,139.525 198.5,138.5C 202.559,134.435 206.893,130.768 211.5,127.5 Z"/></g>
<g><path style="opacity:1" fill="#eddc7a" d="M 8.5,103.5 C 8.09453,110.325 7.7612,117.159 7.5,124C 7.34335,129.978 8.01002,135.812 9.5,141.5C 10.8338,148.168 12.1671,154.835 13.5,161.5C 11.7662,159.91 10.5995,157.91 10,155.5C 9.40993,148.386 8.24326,141.386 6.5,134.5C 6.33362,126.493 6.50029,118.493 7,110.5C 7.18618,107.964 7.68618,105.631 8.5,103.5 Z"/></g>
<g><path style="opacity:1" fill="#2a211a" d="M 192.5,128.5 C 193.675,128.281 194.675,128.614 195.5,129.5C 194.148,130.524 192.815,131.524 191.5,132.5C 191.433,131.041 191.766,129.708 192.5,128.5 Z"/></g>
<g><path style="opacity:1" fill="#f5e17f" d="M 19.5,94.5 C 16.4452,108.039 15.7785,121.706 17.5,135.5C 17.5,136.833 17.5,138.167 17.5,139.5C 16.71,138.391 16.21,137.058 16,135.5C 15.5002,126.173 15.3335,116.839 15.5,107.5C 16.3659,103.04 17.6992,98.7066 19.5,94.5 Z"/></g>
<g><path style="opacity:1" fill="#d8d580" d="M 197.5,130.5 C 197.5,131.167 197.5,131.833 197.5,132.5C 197.833,133.167 198.167,133.833 198.5,134.5C 197.662,134.842 197.328,135.508 197.5,136.5C 197.833,137.167 198.167,137.833 198.5,138.5C 197.596,139.209 197.263,140.209 197.5,141.5C 197.167,141.5 196.833,141.5 196.5,141.5C 196.634,139.708 196.301,138.042 195.5,136.5C 195.5,136.167 195.5,135.833 195.5,135.5C 196.319,132.695 196.819,129.695 197,126.5C 197.49,127.793 197.657,129.127 197.5,130.5 Z"/></g>
<g><path style="opacity:1" fill="#3e3420" d="M 197.5,136.5 C 197.328,135.508 197.662,134.842 198.5,134.5C 201.002,132.83 203.002,130.664 204.5,128C 205.332,127.312 205.998,127.479 206.5,128.5C 204.08,131.926 201.08,134.592 197.5,136.5 Z"/></g>
<g><path style="opacity:1" fill="#27140a" d="M 211.5,130.5 C 209.573,133.767 207.239,136.767 204.5,139.5C 203.883,139.611 203.383,139.944 203,140.5C 204.794,136.519 207.627,133.186 211.5,130.5 Z"/></g>
<g><path style="opacity:1" fill="#9b9964" d="M 222.5,129.5 C 224.5,129.5 226.5,129.5 228.5,129.5C 228.143,135.724 226.976,141.724 225,147.5C 224.517,146.552 224.351,145.552 224.5,144.5C 222.876,144.36 221.71,145.027 221,146.5C 220.316,145.216 220.483,144.049 221.5,143C 226.73,142.091 226.73,140.925 221.5,139.5C 222.729,138.719 224.062,138.219 225.5,138C 224.552,137.517 223.552,137.351 222.5,137.5C 222.5,134.833 222.5,132.167 222.5,129.5 Z"/></g>
<g><path style="opacity:1" fill="#846638" d="M 213.5,140.5 C 212.001,139.322 211.001,137.655 210.5,135.5C 208.833,136.5 207.5,137.833 206.5,139.5C 207.397,139.669 208.397,140.002 209.5,140.5C 208.311,141.429 206.978,141.762 205.5,141.5C 205.672,140.508 205.338,139.842 204.5,139.5C 207.239,136.767 209.573,133.767 211.5,130.5C 212.287,128.896 213.62,128.229 215.5,128.5C 215.612,132.414 214.946,136.414 213.5,140.5 Z"/></g>
<g><path style="opacity:1" fill="#c3a8a8" d="M 160.5,128.5 C 165.833,128.5 171.167,128.5 176.5,128.5C 176.5,132.167 176.5,135.833 176.5,139.5C 171.167,139.5 165.833,139.5 160.5,139.5C 165.305,138.513 170.305,138.179 175.5,138.5C 175.5,135.5 175.5,132.5 175.5,129.5C 170.305,129.821 165.305,129.487 160.5,128.5 Z"/></g>
<g><path style="opacity:1" fill="#e0a939" d="M 15.5,107.5 C 15.3335,116.839 15.5002,126.173 16,135.5C 16.21,137.058 16.71,138.391 17.5,139.5C 17.033,145.328 17.6997,150.995 19.5,156.5C 19.1667,157.167 18.8333,157.833 18.5,158.5C 17.1825,156.249 15.5158,154.249 13.5,152.5C 12.3546,149.252 11.5213,145.919 11,142.5C 10.6174,141.944 10.1174,141.611 9.5,141.5C 8.01002,135.812 7.34335,129.978 7.5,124C 7.7612,117.159 8.09453,110.325 8.5,103.5C 9.26791,102.737 9.76791,101.737 10,100.5C 11.3561,101.38 12.8561,101.714 14.5,101.5C 14.5172,103.565 14.8505,105.565 15.5,107.5 Z"/></g>
<g><path style="opacity:1" fill="#58422a" d="M 213.5,140.5 C 213.5,140.833 213.5,141.167 213.5,141.5C 213.5,141.833 213.5,142.167 213.5,142.5C 208.737,142.226 204.07,142.559 199.5,143.5C 198.791,142.596 197.791,142.263 196.5,142.5C 196.5,142.167 196.5,141.833 196.5,141.5C 196.833,141.5 197.167,141.5 197.5,141.5C 200.167,141.5 202.833,141.5 205.5,141.5C 206.978,141.762 208.311,141.429 209.5,140.5C 208.397,140.002 207.397,139.669 206.5,139.5C 207.5,137.833 208.833,136.5 210.5,135.5C 211.001,137.655 212.001,139.322 213.5,140.5 Z"/></g>
<g><path style="opacity:1" fill="#ded0d0" d="M 103.5,118.5 C 103.167,118.5 102.833,118.5 102.5,118.5C 102.5,115.167 102.5,111.833 102.5,108.5C 94.1667,108.5 85.8333,108.5 77.5,108.5C 77.5,124.5 77.5,140.5 77.5,156.5C 77.1667,156.5 76.8333,156.5 76.5,156.5C 76.5,140.167 76.5,123.833 76.5,107.5C 85.5,107.5 94.5,107.5 103.5,107.5C 103.5,111.167 103.5,114.833 103.5,118.5 Z"/></g>
<g><path style="opacity:1" fill="#87724a" d="M 213.5,142.5 C 212.833,143.833 211.833,144.833 210.5,145.5C 209.036,144.84 207.369,144.507 205.5,144.5C 202.989,144.288 200.822,144.955 199,146.5C 189.299,173.372 170.799,190.705 143.5,198.5C 140.167,198.5 136.833,198.5 133.5,198.5C 139.788,197.426 145.788,195.426 151.5,192.5C 164.915,188.275 176.082,180.608 185,169.5C 190.65,161.191 195.483,152.525 199.5,143.5C 204.07,142.559 208.737,142.226 213.5,142.5 Z"/></g>
<g><path style="opacity:1" fill="#d9a64a" d="M 38.5,140.5 C 39.7278,144.15 39.7278,147.816 38.5,151.5C 36.0429,150.265 34.7095,148.265 34.5,145.5C 34.1826,142.428 34.5159,139.428 35.5,136.5C 36.8592,137.624 37.8592,138.958 38.5,140.5 Z"/></g>
<g><path style="opacity:1" fill="#b18d8d" d="M 134.5,92.5 C 134.5,114.5 134.5,136.5 134.5,158.5C 136.833,158.5 139.167,158.5 141.5,158.5C 141.5,163.167 141.5,167.833 141.5,172.5C 130.986,172.828 120.653,172.494 110.5,171.5C 120.5,171.5 130.5,171.5 140.5,171.5C 140.5,167.5 140.5,163.5 140.5,159.5C 138.167,159.5 135.833,159.5 133.5,159.5C 133.169,136.994 133.503,114.66 134.5,92.5 Z"/></g>
<g><path style="opacity:1" fill="#90784d" d="M 53.5,93.5 C 53.5,94.1667 53.8333,94.5 54.5,94.5C 50.0179,105.707 48.3512,117.374 49.5,129.5C 49.2155,131.415 49.5489,133.081 50.5,134.5C 52.1022,146.313 56.4355,156.98 63.5,166.5C 62.8333,166.5 62.5,166.833 62.5,167.5C 58.6042,162.726 55.4375,157.392 53,151.5C 45.5188,131.946 45.6854,112.612 53.5,93.5 Z"/></g>
<g><path style="opacity:1" fill="#221b1b" d="M 86.5,70.5 C 82.8704,74.631 79.037,78.631 75,82.5C 71.4934,87.5095 68.4934,92.8428 66,98.5C 57.2599,126.989 63.7599,151.322 85.5,171.5C 71.7371,161.667 63.2371,148.334 60,131.5C 59.5005,125.509 59.3338,119.509 59.5,113.5C 62.1637,95.1696 71.1637,80.8363 86.5,70.5 Z"/></g>
<g><path style="opacity:1" fill="#e7c757" d="M 233.5,111.5 C 234.331,122.993 234.831,134.659 235,146.5C 235.21,148.058 235.71,149.391 236.5,150.5C 236.405,152.786 235.738,154.786 234.5,156.5C 233.778,156.082 233.278,155.416 233,154.5C 232.667,155.167 232.333,155.833 232,156.5C 231.831,151.172 231.998,145.838 232.5,140.5C 233.287,130.854 233.62,121.188 233.5,111.5 Z"/></g>
<g><path style="opacity:1" fill="#8a7750" d="M 195.5,136.5 C 196.301,138.042 196.634,139.708 196.5,141.5C 196.5,141.833 196.5,142.167 196.5,142.5C 190.027,164.448 176.36,180.115 155.5,189.5C 154.833,189.5 154.5,189.167 154.5,188.5C 176.327,178.513 189.827,161.846 195,138.5C 185.768,168.234 165.934,186.234 135.5,192.5C 132.833,192.5 130.167,192.5 127.5,192.5C 127.5,191.167 127.5,189.833 127.5,188.5C 127.833,188.5 128.167,188.5 128.5,188.5C 128.5,189.5 128.5,190.5 128.5,191.5C 152.879,189.233 171.713,177.9 185,157.5C 188.244,151.858 190.578,145.858 192,139.5C 192.422,137.574 193.589,136.574 195.5,136.5 Z"/></g>
<g><path style="opacity:1" fill="#b2a36e" d="M 223.5,153.5 C 222.761,153.631 222.094,153.464 221.5,153C 224.468,150.822 224.135,149.656 220.5,149.5C 220.167,153.5 219.833,153.5 219.5,149.5C 220.314,147.727 221.648,147.227 223.5,148C 224.752,149.828 224.752,151.661 223.5,153.5 Z"/></g>
<g><path style="opacity:1" fill="#261b13" d="M 195.5,135.5 C 195.5,135.833 195.5,136.167 195.5,136.5C 193.589,136.574 192.422,137.574 192,139.5C 190.578,145.858 188.244,151.858 185,157.5C 171.713,177.9 152.879,189.233 128.5,191.5C 128.5,190.5 128.5,189.5 128.5,188.5C 129.167,188.5 129.833,188.5 130.5,188.5C 146.026,188.414 159.359,182.748 170.5,171.5C 181.359,161.459 188.359,149.125 191.5,134.5C 193.017,134.489 194.184,133.823 195,132.5C 195.483,133.448 195.649,134.448 195.5,135.5 Z"/></g>
<g><path style="opacity:1" fill="#685a37" d="M 219.5,149.5 C 219.833,153.5 220.167,153.5 220.5,149.5C 224.135,149.656 224.468,150.822 221.5,153C 222.094,153.464 222.761,153.631 223.5,153.5C 223.405,155.786 222.738,157.786 221.5,159.5C 221.042,156.691 219.709,156.024 217.5,157.5C 216.957,157.44 216.624,157.107 216.5,156.5C 217.661,154.115 218.661,151.781 219.5,149.5 Z"/></g>
<g><path style="opacity:1" fill="#e6c16b" d="M 213.5,141.5 C 213.833,141.5 214.167,141.5 214.5,141.5C 214.433,143.401 214.767,145.234 215.5,147C 214.146,151.607 212.146,155.773 209.5,159.5C 208.833,158.833 208.167,158.167 207.5,157.5C 208.097,153.381 209.097,149.381 210.5,145.5C 211.833,144.833 212.833,143.833 213.5,142.5C 213.5,142.167 213.5,141.833 213.5,141.5 Z"/></g>
<g><path style="opacity:1" fill="#a78080" d="M 88.5,145.5 C 88.8333,145.5 89.1667,145.5 89.5,145.5C 94.1667,145.5 98.8333,145.5 103.5,145.5C 103.5,149.5 103.5,153.5 103.5,157.5C 94.3178,157.827 85.3178,157.493 76.5,156.5C 76.8333,156.5 77.1667,156.5 77.5,156.5C 85.8333,156.5 94.1667,156.5 102.5,156.5C 102.5,153.167 102.5,149.833 102.5,146.5C 97.6367,146.819 92.97,146.486 88.5,145.5 Z"/></g>
<g><path style="opacity:1" fill="#ddbc53" d="M 38.5,151.5 C 42.338,152.684 44.338,155.351 44.5,159.5C 44.3573,161.262 44.6906,162.929 45.5,164.5C 44.675,165.386 43.675,165.719 42.5,165.5C 39.4715,161.409 38.1382,156.743 38.5,151.5 Z"/></g>
<g><path style="opacity:1" fill="#cdc3bb" d="M 188.5,104.5 C 189.268,105.263 189.768,106.263 190,107.5C 190.464,106.906 190.631,106.239 190.5,105.5C 191.434,106.568 191.768,107.901 191.5,109.5C 191.833,110.833 192.167,112.167 192.5,113.5C 192.5,114.167 192.5,114.833 192.5,115.5C 192.5,116.167 192.5,116.833 192.5,117.5C 192.5,118.167 192.5,118.833 192.5,119.5C 192.5,120.167 192.5,120.833 192.5,121.5C 192.5,122.167 192.5,122.833 192.5,123.5C 192.5,125.167 192.5,126.833 192.5,128.5C 191.766,129.708 191.433,131.041 191.5,132.5C 191.5,133.167 191.5,133.833 191.5,134.5C 188.359,149.125 181.359,161.459 170.5,171.5C 170.5,170.167 169.833,169.5 168.5,169.5C 187.224,151.654 193.891,129.987 188.5,104.5 Z"/></g>
<g><path style="opacity:1" fill="#9e9265" d="M 56.5,126.5 C 57.1098,127.391 57.4431,128.391 57.5,129.5C 56.8109,135.166 57.6443,140.833 60,146.5C 63.6617,155.835 68.8283,164.168 75.5,171.5C 75.1667,171.5 74.8333,171.5 74.5,171.5C 63.0404,159.91 56.3737,145.91 54.5,129.5C 54.4534,127.962 55.1201,126.962 56.5,126.5 Z"/></g>
<g><path style="opacity:1" fill="#a28b4f" d="M 221.5,159.5 C 220.761,159.369 220.094,159.536 219.5,160C 220.711,160.893 220.711,161.726 219.5,162.5C 216.651,161.585 215.985,159.918 217.5,157.5C 219.709,156.024 221.042,156.691 221.5,159.5 Z"/></g>
<g><path style="opacity:1" fill="#221910" d="M 97.5,45.5 C 95.2974,47.1002 92.964,48.4335 90.5,49.5C 74.9398,57.0601 62.9398,68.3934 54.5,83.5C 50.6079,89.9675 47.7746,96.9675 46,104.5C 42.2908,123.038 44.4575,140.705 52.5,157.5C 59.3416,172.009 69.675,183.342 83.5,191.5C 100.701,201.958 119.367,205.458 139.5,202C 142.104,201.61 144.438,200.776 146.5,199.5C 172.261,192.245 190.428,176.245 201,151.5C 201.667,152.833 201.667,154.167 201,155.5C 189.897,178.135 172.397,193.468 148.5,201.5C 127.589,206.8 107.256,205.133 87.5,196.5C 73.574,188.242 62.2406,177.242 53.5,163.5C 41.1322,140.249 39.4656,116.249 48.5,91.5C 57.0804,70.5859 71.7471,55.5859 92.5,46.5C 94.0418,45.6993 95.7085,45.366 97.5,45.5 Z"/></g>
<g><path style="opacity:1" fill="#e1ddda" d="M 59.5,113.5 C 59.3338,119.509 59.5005,125.509 60,131.5C 63.2371,148.334 71.7371,161.667 85.5,171.5C 88.4643,174.953 92.131,177.453 96.5,179C 122.341,188.76 146.341,185.593 168.5,169.5C 169.833,169.5 170.5,170.167 170.5,171.5C 158.623,180.434 145.29,186.101 130.5,188.5C 129.833,188.5 129.167,188.5 128.5,188.5C 128.167,188.5 127.833,188.5 127.5,188.5C 126.167,188.5 124.833,188.5 123.5,188.5C 120.167,188.167 116.833,187.833 113.5,187.5C 113.167,187.5 112.833,187.5 112.5,187.5C 111.833,187.5 111.167,187.5 110.5,187.5C 80.3592,179.688 62.6925,160.355 57.5,129.5C 57.4431,128.391 57.1098,127.391 56.5,126.5C 56.5,125.5 56.5,124.5 56.5,123.5C 58.1187,120.452 59.1187,117.119 59.5,113.5 Z"/></g>
<g><path style="opacity:1" fill="#bea962" d="M 44.5,159.5 C 47.0791,162.064 47.9125,165.064 47,168.5C 48.4087,169.781 49.9087,170.781 51.5,171.5C 50.0413,171.433 48.7079,171.766 47.5,172.5C 46.164,169.846 44.4974,167.513 42.5,165.5C 43.675,165.719 44.675,165.386 45.5,164.5C 44.6906,162.929 44.3573,161.262 44.5,159.5 Z"/></g>
<g><path style="opacity:1" fill="#2b2219" d="M 57.5,129.5 C 62.6925,160.355 80.3592,179.688 110.5,187.5C 110.38,188.586 109.713,189.253 108.5,189.5C 102.044,188.269 96.0438,185.936 90.5,182.5C 85.3604,179.09 80.3604,175.423 75.5,171.5C 68.8283,164.168 63.6617,155.835 60,146.5C 57.6443,140.833 56.8109,135.166 57.5,129.5 Z"/></g>
<g><path style="opacity:1" fill="#6a5538" d="M 207.5,157.5 C 208.167,158.167 208.833,158.833 209.5,159.5C 208.935,161.952 208.268,164.285 207.5,166.5C 207.784,164.585 207.451,162.919 206.5,161.5C 207.234,160.292 207.567,158.959 207.5,157.5 Z"/></g>
<g><path style="opacity:1" fill="#231b12" d="M 51.5,130.5 C 51.4203,133.781 52.087,136.781 53.5,139.5C 58.2243,159.447 69.2243,174.947 86.5,186C 90.4023,188.119 94.4023,189.952 98.5,191.5C 106.871,194.926 115.705,196.592 125,196.5C 133.996,196.133 142.829,194.8 151.5,192.5C 145.788,195.426 139.788,197.426 133.5,198.5C 120.652,199.414 108.319,197.414 96.5,192.5C 83.0514,186.942 72.0514,178.276 63.5,166.5C 56.4355,156.98 52.1022,146.313 50.5,134.5C 50.2322,132.901 50.5655,131.568 51.5,130.5 Z"/></g>
<g><path style="opacity:1" fill="#20170f" d="M 154.5,188.5 C 148.406,191.917 142.073,193.251 135.5,192.5C 165.934,186.234 185.768,168.234 195,138.5C 189.827,161.846 176.327,178.513 154.5,188.5 Z"/></g>
<g><path style="opacity:1" fill="#1d140b" d="M 196.5,142.5 C 197.791,142.263 198.791,142.596 199.5,143.5C 195.483,152.525 190.65,161.191 185,169.5C 176.082,180.608 164.915,188.275 151.5,192.5C 152.833,191.5 154.167,190.5 155.5,189.5C 176.36,180.115 190.027,164.448 196.5,142.5 Z"/></g>
<g><path style="opacity:1" fill="#978d64" d="M 53.5,139.5 C 53.8333,139.5 54.1667,139.5 54.5,139.5C 61.2945,163.294 75.9612,180.294 98.5,190.5C 98.5,190.833 98.5,191.167 98.5,191.5C 94.4023,189.952 90.4023,188.119 86.5,186C 69.2243,174.947 58.2243,159.447 53.5,139.5 Z"/></g>
<g><path style="opacity:1" fill="#876b3c" d="M 24.5,145.5 C 29.443,145.288 30.1097,146.288 26.5,148.5C 27.8333,149.167 29.1667,149.833 30.5,150.5C 29.3915,152.214 30.0582,152.881 32.5,152.5C 34.1102,159.513 36.7769,166.013 40.5,172C 39.7299,174.978 38.0632,175.811 35.5,174.5C 34.4847,171.978 33.1513,169.644 31.5,167.5C 32.0253,166.808 32.6919,166.308 33.5,166C 30.626,164.701 28.7927,162.535 28,159.5C 27.3333,158.5 27.3333,157.5 28,156.5C 28.3333,156.833 28.6667,157.167 29,157.5C 29.4482,155.776 30.2815,155.109 31.5,155.5C 30.3112,154.571 28.9778,154.238 27.5,154.5C 25.6773,151.837 24.6773,148.837 24.5,145.5 Z"/></g>
<g><path style="opacity:1" fill="#21190e" d="M 30.5,159.5 C 32.8324,160.162 33.4991,161.495 32.5,163.5C 30.8888,162.68 30.2222,161.346 30.5,159.5 Z"/></g>
<g><path style="opacity:1" fill="#d4a851" d="M 206.5,161.5 C 207.451,162.919 207.784,164.585 207.5,166.5C 205.819,169.203 204.153,171.869 202.5,174.5C 201.167,174.5 199.833,174.5 198.5,174.5C 198.5,173.5 198.5,172.5 198.5,171.5C 200.241,169.023 201.741,166.356 203,163.5C 204.302,162.915 205.469,162.249 206.5,161.5 Z"/></g>
<g><path style="opacity:1" fill="#dda737" d="M 232.5,140.5 C 231.998,145.838 231.831,151.172 232,156.5C 232.333,155.833 232.667,155.167 233,154.5C 233.278,155.416 233.778,156.082 234.5,156.5C 233.464,162.285 231.464,167.618 228.5,172.5C 227.5,171.5 226.5,170.5 225.5,169.5C 226.224,166.917 227.057,164.251 228,161.5C 229.507,162.535 231.007,162.368 232.5,161C 230.82,160.653 229.82,159.653 229.5,158C 230.367,154.895 230.701,151.728 230.5,148.5C 230.565,145.572 231.232,142.905 232.5,140.5 Z"/></g>
<g><path style="opacity:1" fill="#20180f" d="M 94.5,57.5 C 94.1667,58.1667 93.8333,58.8333 93.5,59.5C 87.6042,62.079 82.6042,65.7457 78.5,70.5C 75.2689,72.2199 72.4356,74.5532 70,77.5C 61.2443,88.6813 56.0776,101.348 54.5,115.5C 54.4534,117.038 55.1201,118.038 56.5,118.5C 56.5,120.167 56.5,121.833 56.5,123.5C 56.5,124.5 56.5,125.5 56.5,126.5C 55.1201,126.962 54.4534,127.962 54.5,129.5C 56.3737,145.91 63.0404,159.91 74.5,171.5C 78.8983,176.229 83.8983,180.229 89.5,183.5C 96.5971,187.755 104.264,190.421 112.5,191.5C 112.5,190.167 112.5,188.833 112.5,187.5C 112.833,187.5 113.167,187.5 113.5,187.5C 113.5,189.167 113.5,190.833 113.5,192.5C 116.833,192.5 120.167,192.5 123.5,192.5C 123.5,191.167 123.5,189.833 123.5,188.5C 124.833,188.5 126.167,188.5 127.5,188.5C 127.5,189.833 127.5,191.167 127.5,192.5C 129.292,193.309 131.292,193.809 133.5,194C 121.569,195.063 109.902,193.896 98.5,190.5C 75.9612,180.294 61.2945,163.294 54.5,139.5C 50.7957,122.103 52.7957,105.437 60.5,89.5C 67.7843,76.5489 77.7843,66.2156 90.5,58.5C 91.8333,58.1667 93.1667,57.8333 94.5,57.5 Z"/></g>
<g><path style="opacity:1" fill="#c49844" d="M 230.5,148.5 C 230.701,151.728 230.367,154.895 229.5,158C 229.82,159.653 230.82,160.653 232.5,161C 231.007,162.368 229.507,162.535 228,161.5C 227.057,164.251 226.224,166.917 225.5,169.5C 220.966,176.865 216.133,184.198 211,191.5C 204.473,198.027 197.973,204.527 191.5,211C 193.387,211.163 194.887,210.329 196,208.5C 197.429,208.47 198.929,208.803 200.5,209.5C 199.375,211.129 198.041,212.629 196.5,214C 193.778,216.358 190.778,218.191 187.5,219.5C 186.178,219.33 185.011,219.663 184,220.5C 183.02,219.019 181.853,217.685 180.5,216.5C 176.728,219.849 172.395,221.849 167.5,222.5C 199.236,207.089 220.236,182.422 230.5,148.5 Z"/></g>
<g><path style="opacity:1" fill="#a19d6e" d="M 63.5,166.5 C 72.0514,178.276 83.0514,186.942 96.5,192.5C 96.1583,193.338 95.4916,193.672 94.5,193.5C 81.1844,188.165 70.5177,179.498 62.5,167.5C 62.5,166.833 62.8333,166.5 63.5,166.5 Z"/></g>
<g><path style="opacity:1" fill="#654c2b" d="M 197.5,195.5 C 194.602,193.227 194.936,191.727 198.5,191C 197.483,189.951 197.316,188.784 198,187.5C 202.658,182.179 206.825,176.512 210.5,170.5C 215.771,172.889 215.771,175.389 210.5,178C 211.711,179.113 211.711,180.28 210.5,181.5C 207.898,184.298 205.565,187.298 203.5,190.5C 202.15,191.95 200.484,192.617 198.5,192.5C 198.737,193.791 198.404,194.791 197.5,195.5 Z"/></g>
<g><path style="opacity:1" fill="#9e9b6e" d="M 53.5,156.5 C 60.3706,171.035 70.7039,182.369 84.5,190.5C 84.5,191.167 84.1667,191.5 83.5,191.5C 69.675,183.342 59.3416,172.009 52.5,157.5C 52.5,156.833 52.8333,156.5 53.5,156.5 Z"/></g>
<g><path style="opacity:1" fill="#665037" d="M 74.5,171.5 C 74.8333,171.5 75.1667,171.5 75.5,171.5C 80.3604,175.423 85.3604,179.09 90.5,182.5C 89.8333,182.5 89.5,182.833 89.5,183.5C 83.8983,180.229 78.8983,176.229 74.5,171.5 Z"/></g>
<g><path style="opacity:1" fill="#f1dd75" d="M 51.5,171.5 C 53.4884,174.128 55.4884,176.795 57.5,179.5C 57.5,180.833 57.5,182.167 57.5,183.5C 56.5,183.5 55.5,183.5 54.5,183.5C 50.9479,180.613 48.6146,176.947 47.5,172.5C 48.7079,171.766 50.0413,171.433 51.5,171.5 Z"/></g>
<g><path style="opacity:1" fill="#8f6f3a" d="M 198.5,171.5 C 198.5,172.5 198.5,173.5 198.5,174.5C 199.833,174.5 201.167,174.5 202.5,174.5C 200.54,176.156 198.54,177.823 196.5,179.5C 195.167,179.5 193.833,179.5 192.5,179.5C 193.878,178.766 195.378,178.099 197,177.5C 197.191,175.292 197.691,173.292 198.5,171.5 Z"/></g>
<g><path style="opacity:1" fill="#867758" d="M 170.5,171.5 C 159.359,182.748 146.026,188.414 130.5,188.5C 145.29,186.101 158.623,180.434 170.5,171.5 Z"/></g>
<g><path style="opacity:1" fill="#8b8656" d="M 57.5,179.5 C 58.3019,180.952 58.8019,182.618 59,184.5C 60.9483,185.109 62.7816,185.776 64.5,186.5C 63.1667,186.5 61.8333,186.5 60.5,186.5C 60.5,187.5 60.5,188.5 60.5,189.5C 59.5,186.5 57.5,184.5 54.5,183.5C 55.5,183.5 56.5,183.5 57.5,183.5C 57.5,182.167 57.5,180.833 57.5,179.5 Z"/></g>
<g><path style="opacity:1" fill="#897852" d="M 89.5,183.5 C 89.5,182.833 89.8333,182.5 90.5,182.5C 96.0438,185.936 102.044,188.269 108.5,189.5C 109.713,189.253 110.38,188.586 110.5,187.5C 111.167,187.5 111.833,187.5 112.5,187.5C 112.5,188.833 112.5,190.167 112.5,191.5C 104.264,190.421 96.5971,187.755 89.5,183.5 Z"/></g>
<g><path style="opacity:1" fill="#979368" d="M 53.5,163.5 C 62.2406,177.242 73.574,188.242 87.5,196.5C 86.8333,196.5 86.1667,196.5 85.5,196.5C 71.2194,189.219 60.2194,178.553 52.5,164.5C 52.5,163.833 52.8333,163.5 53.5,163.5 Z"/></g>
<g><path style="opacity:1" fill="#b29553" d="M 46.5,183.5 C 47.3063,184.868 48.3063,186.201 49.5,187.5C 47.0768,190.206 45.9102,189.539 46,185.5C 45.3292,186.252 44.4959,186.586 43.5,186.5C 44.1667,185.167 45.1667,184.167 46.5,183.5 Z"/></g>
<g><path style="opacity:1" fill="#7b643c" d="M 46.5,183.5 C 50.824,186.949 55.324,190.949 60,195.5C 60.4828,196.448 60.6495,197.448 60.5,198.5C 64.0993,198.262 64.4327,199.262 61.5,201.5C 61.8333,201.833 62.1667,202.167 62.5,202.5C 65.7161,200.074 68.3828,200.741 70.5,204.5C 68.4583,209.745 66.2916,209.745 64,204.5C 62.927,205.28 61.7604,205.113 60.5,204C 58.395,201.979 56.395,199.979 54.5,198C 55.1021,196.437 55.9354,196.604 57,198.5C 58.9845,196.765 58.6512,195.432 56,194.5C 54.2739,195.576 52.4406,195.743 50.5,195C 47.9363,192.278 45.603,189.445 43.5,186.5C 44.4959,186.586 45.3292,186.252 46,185.5C 45.9102,189.539 47.0768,190.206 49.5,187.5C 48.3063,186.201 47.3063,184.868 46.5,183.5 Z"/></g>
<g><path style="opacity:1" fill="#d29b3e" d="M 192.5,179.5 C 193.833,179.5 195.167,179.5 196.5,179.5C 196.657,180.873 196.49,182.207 196,183.5C 193.628,185.703 191.461,188.037 189.5,190.5C 188.167,190.5 186.833,190.5 185.5,190.5C 185.5,189.5 185.5,188.5 185.5,187.5C 187.862,184.808 190.196,182.141 192.5,179.5 Z"/></g>
<g><path style="opacity:1" fill="#b29951" d="M 113.5,187.5 C 116.833,187.833 120.167,188.167 123.5,188.5C 123.5,189.833 123.5,191.167 123.5,192.5C 120.167,192.5 116.833,192.5 113.5,192.5C 113.5,190.833 113.5,189.167 113.5,187.5 Z"/></g>
<g><path style="opacity:1" fill="#8c7954" d="M 149.5,202.5 C 148.833,202.5 148.5,202.167 148.5,201.5C 172.397,193.468 189.897,178.135 201,155.5C 201.667,154.167 201.667,152.833 201,151.5C 190.428,176.245 172.261,192.245 146.5,199.5C 146.5,199.167 146.5,198.833 146.5,198.5C 171.429,191.237 188.763,175.57 198.5,151.5C 200.045,150.548 201.712,150.215 203.5,150.5C 194.337,176.996 176.337,194.33 149.5,202.5 Z"/></g>
<g><path style="opacity:1" fill="#846125" d="M 39.5,189.5 C 41.914,190.911 43.5806,192.911 44.5,195.5C 42.086,194.089 40.4194,192.089 39.5,189.5 Z"/></g>
<g><path style="opacity:1" fill="#f0ec82" d="M 64.5,186.5 C 66.6402,189.165 69.1402,191.498 72,193.5C 72.4828,194.448 72.6495,195.448 72.5,196.5C 71.1667,196.5 69.8333,196.5 68.5,196.5C 65.2157,194.883 62.5491,192.55 60.5,189.5C 60.5,188.5 60.5,187.5 60.5,186.5C 61.8333,186.5 63.1667,186.5 64.5,186.5 Z"/></g>
<g><path style="opacity:1" fill="#9a8046" d="M 185.5,187.5 C 185.5,188.5 185.5,189.5 185.5,190.5C 186.833,190.5 188.167,190.5 189.5,190.5C 185.982,191.35 183.315,193.35 181.5,196.5C 181.5,195.5 181.5,194.5 181.5,193.5C 179.315,193.704 177.315,194.37 175.5,195.5C 177.075,193.059 179.408,191.893 182.5,192C 183.781,190.591 184.781,189.091 185.5,187.5 Z"/></g>
<g><path style="opacity:1" fill="#625034" d="M 154.5,188.5 C 154.5,189.167 154.833,189.5 155.5,189.5C 154.167,190.5 152.833,191.5 151.5,192.5C 142.829,194.8 133.996,196.133 125,196.5C 115.705,196.592 106.871,194.926 98.5,191.5C 98.5,191.167 98.5,190.833 98.5,190.5C 109.902,193.896 121.569,195.063 133.5,194C 131.292,193.809 129.292,193.309 127.5,192.5C 130.167,192.5 132.833,192.5 135.5,192.5C 142.073,193.251 148.406,191.917 154.5,188.5 Z"/></g>
<g><path style="opacity:1" fill="#b27d27" d="M 225.5,169.5 C 226.5,170.5 227.5,171.5 228.5,172.5C 222.169,187.156 212.836,199.49 200.5,209.5C 198.929,208.803 197.429,208.47 196,208.5C 194.887,210.329 193.387,211.163 191.5,211C 197.973,204.527 204.473,198.027 211,191.5C 216.133,184.198 220.966,176.865 225.5,169.5 Z"/></g>
<g><path style="opacity:1" fill="#e6bc5a" d="M 17.5,135.5 C 20.7082,155.112 28.0415,173.112 39.5,189.5C 40.4194,192.089 42.086,194.089 44.5,195.5C 47.885,201.219 52.5517,205.552 58.5,208.5C 69.157,216.827 81.157,222.493 94.5,225.5C 97.5575,227.132 100.891,228.299 104.5,229C 115.828,229.5 127.162,229.667 138.5,229.5C 132.021,230.491 125.354,230.824 118.5,230.5C 111.468,230.17 104.468,230.503 97.5,231.5C 97.2907,232.086 96.9574,232.586 96.5,233C 94.5,233.333 92.5,233.667 90.5,234C 91.056,234.383 91.3893,234.883 91.5,235.5C 52.7934,224.124 26.7934,199.458 13.5,161.5C 12.1671,154.835 10.8338,148.168 9.5,141.5C 10.1174,141.611 10.6174,141.944 11,142.5C 11.5213,145.919 12.3546,149.252 13.5,152.5C 15.5158,154.249 17.1825,156.249 18.5,158.5C 18.8333,157.833 19.1667,157.167 19.5,156.5C 17.6997,150.995 17.033,145.328 17.5,139.5C 17.5,138.167 17.5,136.833 17.5,135.5 Z"/></g>
<g><path style="opacity:1" fill="#947533" d="M 44.5,195.5 C 49.1927,199.861 53.8594,204.195 58.5,208.5C 52.5517,205.552 47.885,201.219 44.5,195.5 Z"/></g>
<g><path style="opacity:1" fill="#8d8a58" d="M 68.5,196.5 C 69.8333,196.5 71.1667,196.5 72.5,196.5C 75.0098,196.927 77.3432,197.593 79.5,198.5C 77.901,198.232 76.5676,198.566 75.5,199.5C 73.1761,198.344 70.8428,197.344 68.5,196.5 Z"/></g>
<g><path style="opacity:1" fill="#715c39" d="M 96.5,192.5 C 108.319,197.414 120.652,199.414 133.5,198.5C 120.055,200.614 107.055,198.947 94.5,193.5C 95.4916,193.672 96.1583,193.338 96.5,192.5 Z"/></g>
<g><path style="opacity:1" fill="#d2ae58" d="M 181.5,196.5 C 179.14,198.853 176.473,200.853 173.5,202.5C 171.901,202.768 170.568,202.434 169.5,201.5C 169.795,197.871 171.795,195.871 175.5,195.5C 177.315,194.37 179.315,193.704 181.5,193.5C 181.5,194.5 181.5,195.5 181.5,196.5 Z"/></g>
<g><path style="opacity:1" fill="#6c5736" d="M 84.5,190.5 C 103.241,201.036 122.908,203.702 143.5,198.5C 144.5,198.5 145.5,198.5 146.5,198.5C 146.5,198.833 146.5,199.167 146.5,199.5C 144.438,200.776 142.104,201.61 139.5,202C 119.367,205.458 100.701,201.958 83.5,191.5C 84.1667,191.5 84.5,191.167 84.5,190.5 Z"/></g>
<g><path style="opacity:1" fill="#dabd56" d="M 79.5,198.5 C 82.6963,199.929 85.6963,201.595 88.5,203.5C 88.5,204.5 88.5,205.5 88.5,206.5C 87.1667,206.5 85.8333,206.5 84.5,206.5C 80.1124,205.821 77.1124,203.488 75.5,199.5C 76.5676,198.566 77.901,198.232 79.5,198.5 Z"/></g>
<g><path style="opacity:1" fill="#8b774d" d="M 169.5,201.5 C 170.568,202.434 171.901,202.768 173.5,202.5C 170.728,203.082 168.061,204.082 165.5,205.5C 165.38,204.414 164.713,203.747 163.5,203.5C 162.151,203.846 160.817,204.179 159.5,204.5C 159.611,203.883 159.944,203.383 160.5,203C 163.544,202.637 166.544,202.137 169.5,201.5 Z"/></g>
<g><path style="opacity:1" fill="#655134" d="M 85.5,196.5 C 86.1667,196.5 86.8333,196.5 87.5,196.5C 107.256,205.133 127.589,206.8 148.5,201.5C 148.5,202.167 148.833,202.5 149.5,202.5C 147.852,203.927 145.852,204.76 143.5,205C 122.926,209.37 103.593,206.537 85.5,196.5 Z"/></g>
<g><path style="opacity:1" fill="#dcbd6d" d="M 165.5,205.5 C 164.657,207.173 163.324,208.34 161.5,209C 157.239,210.363 152.905,210.696 148.5,210C 149.448,209.517 150.448,209.351 151.5,209.5C 151.33,208.178 151.663,207.011 152.5,206C 154.74,205.023 157.073,204.523 159.5,204.5C 160.817,204.179 162.151,203.846 163.5,203.5C 164.713,203.747 165.38,204.414 165.5,205.5 Z"/></g>
<g><path style="opacity:1" fill="#6f5d39" d="M 197.5,195.5 C 195.876,198.457 193.543,200.791 190.5,202.5C 189.201,201.91 188.368,200.91 188,199.5C 187.808,201.577 187.308,203.577 186.5,205.5C 185.549,204.674 184.549,204.508 183.5,205C 184.711,205.893 184.711,206.726 183.5,207.5C 180.182,204.641 179.182,205.308 180.5,209.5C 178.929,211.415 176.929,212.415 174.5,212.5C 174.719,211.325 174.386,210.325 173.5,209.5C 172.355,210.776 172.355,212.109 173.5,213.5C 172.672,214.415 171.672,215.081 170.5,215.5C 169.943,213.668 168.943,212.335 167.5,211.5C 171.977,208.253 176.644,205.087 181.5,202C 182.793,201.51 184.127,201.343 185.5,201.5C 185.351,200.448 185.517,199.448 186,198.5C 187.676,197.939 189.009,196.939 190,195.5C 193.297,199.404 194.297,198.738 193,193.5C 194.11,195.037 195.61,195.703 197.5,195.5 Z"/></g>
<g><path style="opacity:1" fill="#a97c31" d="M 88.5,203.5 C 89.2674,204.172 89.9341,205.005 90.5,206C 94.894,206.303 99.2273,206.97 103.5,208C 105.32,208.2 106.653,209.034 107.5,210.5C 105.721,212.344 103.388,213.01 100.5,212.5C 96.7744,212.426 93.7744,210.926 91.5,208C 88.9644,207.814 86.631,207.314 84.5,206.5C 85.8333,206.5 87.1667,206.5 88.5,206.5C 88.5,205.5 88.5,204.5 88.5,203.5 Z"/></g>
<g><path style="opacity:1" fill="#674c2c" d="M 107.5,210.5 C 109.379,211.341 111.379,211.675 113.5,211.5C 113.167,212.167 112.833,212.833 112.5,213.5C 110.08,213.292 107.747,213.626 105.5,214.5C 103.664,213.972 101.997,213.306 100.5,212.5C 103.388,213.01 105.721,212.344 107.5,210.5 Z"/></g>
<g><path style="opacity:1" fill="#bc9248" d="M 145.5,213.5 C 141.029,214.089 137.029,213.423 133.5,211.5C 137.001,210.372 140.667,209.372 144.5,208.5C 147.719,209.866 148.052,211.533 145.5,213.5 Z"/></g>
<g><path style="opacity:1" fill="#98845c" d="M 167.5,211.5 C 168.218,213.137 168.384,214.803 168,216.5C 167.331,213.733 166.164,213.233 164.5,215C 167.341,217.064 167.008,217.731 163.5,217C 161.975,213.236 163.308,211.403 167.5,211.5 Z"/></g>
<g><path style="opacity:1" fill="#8b662c" d="M 133.5,211.5 C 137.029,213.423 141.029,214.089 145.5,213.5C 143.105,214.766 140.438,215.432 137.5,215.5C 129.531,215.186 121.531,215.019 113.5,215C 112.944,214.617 112.611,214.117 112.5,213.5C 112.833,212.833 113.167,212.167 113.5,211.5C 120.233,210.536 126.9,210.536 133.5,211.5 Z"/></g>
<g><path style="opacity:1" fill="#8b6d3e" d="M 105.5,218.5 C 104.962,220.117 104.629,221.784 104.5,223.5C 103.5,223.5 102.5,223.5 101.5,223.5C 100.542,223.047 99.7083,222.381 99,221.5C 97.5064,222.747 96.0064,222.747 94.5,221.5C 95.847,217.89 95.1804,217.557 92.5,220.5C 91.0295,219.583 89.5295,218.583 88,217.5C 85.9189,218.333 83.7522,218.333 81.5,217.5C 81.719,216.325 81.3857,215.325 80.5,214.5C 79.6043,215.506 78.9377,215.506 78.5,214.5C 81.5286,209.44 83.0286,209.44 83,214.5C 84.439,216.014 85.939,216.347 87.5,215.5C 86.5,214.833 85.5,214.167 84.5,213.5C 85.1667,213.167 85.8333,212.833 86.5,212.5C 88.9539,213.472 91.1206,214.805 93,216.5C 97.0781,214.893 100.411,215.893 103,219.5C 103.671,218.748 104.504,218.414 105.5,218.5 Z"/></g>
<g><path style="opacity:1" fill="#9a865b" d="M 148.5,223.5 C 147.448,223.649 146.448,223.483 145.5,223C 149.663,220.534 149.496,219.701 145,220.5C 144.536,219.906 144.369,219.239 144.5,218.5C 146.01,217.272 147.51,217.272 149,218.5C 150.418,215.999 151.418,216.332 152,219.5C 152.613,215.682 154.613,214.682 158,216.5C 159,221.167 157.333,222.5 153,220.5C 152.667,221.167 152.333,221.833 152,222.5C 150.267,220.042 149.1,220.375 148.5,223.5 Z"/></g>
<g><path style="opacity:1" fill="#edc45b" d="M 187.5,219.5 C 179.042,225.729 169.709,230.395 159.5,233.5C 156.88,231.105 153.713,230.105 150,230.5C 139.339,231.705 128.839,231.705 118.5,230.5C 125.354,230.824 132.021,230.491 138.5,229.5C 142.011,229.101 145.344,228.434 148.5,227.5C 154.918,226.122 161.252,224.455 167.5,222.5C 172.395,221.849 176.728,219.849 180.5,216.5C 181.853,217.685 183.02,219.019 184,220.5C 185.011,219.663 186.178,219.33 187.5,219.5 Z"/></g>
<g><path style="opacity:1" fill="#31200e" d="M 105.5,218.5 C 105.833,218.5 106.167,218.5 106.5,218.5C 106.579,219.93 106.246,221.264 105.5,222.5C 109.12,225.495 110.787,224.495 110.5,219.5C 111.167,219.5 111.833,219.5 112.5,219.5C 111.334,221.166 111.334,222.833 112.5,224.5C 113.251,223.624 113.751,222.624 114,221.5C 114.219,222.938 114.719,224.271 115.5,225.5C 116.298,225.043 116.631,224.376 116.5,223.5C 117.833,223.5 119.167,223.5 120.5,223.5C 119.602,224.158 118.602,224.824 117.5,225.5C 119.397,226.652 121.064,226.319 122.5,224.5C 124.265,225.461 126.265,225.795 128.5,225.5C 128.473,223.801 127.806,222.467 126.5,221.5C 127.5,221.5 128.5,221.5 129.5,221.5C 129.672,225.971 130.506,226.304 132,222.5C 133.922,226.587 135.422,226.42 136.5,222C 136.43,221.235 136.097,220.735 135.5,220.5C 136.209,219.596 137.209,219.263 138.5,219.5C 138.5,221.167 138.5,222.833 138.5,224.5C 140.167,224.5 141.833,224.5 143.5,224.5C 143.5,222.5 143.5,220.5 143.5,218.5C 143.833,218.5 144.167,218.5 144.5,218.5C 144.369,219.239 144.536,219.906 145,220.5C 149.496,219.701 149.663,220.534 145.5,223C 146.448,223.483 147.448,223.649 148.5,223.5C 148.082,224.222 147.416,224.722 146.5,225C 147.167,225.333 147.833,225.667 148.5,226C 144.551,226.807 144.551,227.307 148.5,227.5C 145.344,228.434 142.011,229.101 138.5,229.5C 127.162,229.667 115.828,229.5 104.5,229C 100.891,228.299 97.5575,227.132 94.5,225.5C 97.9672,226.441 101.301,226.275 104.5,225C 103.263,224.768 102.263,224.268 101.5,223.5C 102.5,223.5 103.5,223.5 104.5,223.5C 104.629,221.784 104.962,220.117 105.5,218.5 Z"/></g>
<g><path style="opacity:1" fill="#a39263" d="M 143.5,218.5 C 143.5,220.5 143.5,222.5 143.5,224.5C 141.833,224.5 140.167,224.5 138.5,224.5C 138.5,222.833 138.5,221.167 138.5,219.5C 139.931,219.881 140.764,220.881 141,222.5C 141.122,220.563 141.955,219.23 143.5,218.5 Z"/></g>
<g><path style="opacity:1" fill="#a58b4c" d="M 106.5,218.5 C 107.708,219.234 109.041,219.567 110.5,219.5C 110.787,224.495 109.12,225.495 105.5,222.5C 106.246,221.264 106.579,219.93 106.5,218.5 Z"/></g>
<g><path style="opacity:1" fill="#8d784e" d="M 135.5,220.5 C 136.097,220.735 136.43,221.235 136.5,222C 135.422,226.42 133.922,226.587 132,222.5C 130.506,226.304 129.672,225.971 129.5,221.5C 128.5,221.5 127.5,221.5 126.5,221.5C 126.97,220.307 127.97,219.64 129.5,219.5C 131.512,219.84 133.512,220.173 135.5,220.5 Z"/></g>
<g><path style="opacity:1" fill="#8f7d51" d="M 122.5,224.5 C 121.064,226.319 119.397,226.652 117.5,225.5C 118.602,224.824 119.602,224.158 120.5,223.5C 119.993,222.141 118.993,221.141 117.5,220.5C 120.787,219.432 122.454,220.765 122.5,224.5 Z"/></g>
<g><path style="opacity:1" fill="#938152" d="M 112.5,219.5 C 115.5,219.167 116.833,220.5 116.5,223.5C 116.631,224.376 116.298,225.043 115.5,225.5C 114.719,224.271 114.219,222.938 114,221.5C 113.751,222.624 113.251,223.624 112.5,224.5C 111.334,222.833 111.334,221.166 112.5,219.5 Z"/></g>
<g><path style="opacity:1" fill="#f5cf49" d="M 118.5,230.5 C 128.839,231.705 139.339,231.705 150,230.5C 153.713,230.105 156.88,231.105 159.5,233.5C 154.607,235.242 149.607,236.576 144.5,237.5C 145.263,236.732 146.263,236.232 147.5,236C 143.916,234.708 140.249,233.708 136.5,233C 122.215,231.805 108.215,232.638 94.5,235.5C 93.5,235.5 92.5,235.5 91.5,235.5C 91.3893,234.883 91.056,234.383 90.5,234C 92.5,233.667 94.5,233.333 96.5,233C 96.9574,232.586 97.2907,232.086 97.5,231.5C 104.468,230.503 111.468,230.17 118.5,230.5 Z"/></g>
<g><path style="opacity:1" fill="#fbe24f" d="M 144.5,237.5 C 130.859,238.594 117.192,238.76 103.5,238C 100.149,237.943 97.1489,237.109 94.5,235.5C 108.215,232.638 122.215,231.805 136.5,233C 140.249,233.708 143.916,234.708 147.5,236C 146.263,236.232 145.263,236.732 144.5,237.5 Z"/></g>
</svg>
