<?xml version="1.0" encoding="UTF-8"?>
<!DOCTYPE svg PUBLIC "-//W3C//DTD SVG 1.1//EN" "http://www.w3.org/Graphics/SVG/1.1/DTD/svg11.dtd">
<svg xmlns="http://www.w3.org/2000/svg" version="1.1" width="143px" height="143px" style="shape-rendering:geometricPrecision; text-rendering:geometricPrecision; image-rendering:optimizeQuality; fill-rule:evenodd; clip-rule:evenodd" xmlns:xlink="http://www.w3.org/1999/xlink">
<g><path style="opacity:0.728" fill="#0e1015" d="M 60.5,-0.5 C 67.5,-0.5 74.5,-0.5 81.5,-0.5C 113.469,5.99417 133.802,24.9942 142.5,56.5C 142.5,66.1667 142.5,75.8333 142.5,85.5C 134.518,115.482 115.518,134.482 85.5,142.5C 75.8333,142.5 66.1667,142.5 56.5,142.5C 24.9942,133.802 5.99417,113.469 -0.5,81.5C -0.5,74.5 -0.5,67.5 -0.5,60.5C 6.5,26.8333 26.8333,6.5 60.5,-0.5 Z"/></g>
<g><path style="opacity:1" fill="#e9ebee" d="M 81.5,3.5 C 83.5994,4.61185 85.9327,5.27852 88.5,5.5C 108.029,10.5106 122.863,21.844 133,39.5C 144.782,65.2122 142.449,89.5455 126,112.5C 102.469,138.003 74.3027,144.836 41.5,133C 10.7197,116.272 -2.11361,90.4389 3,55.5C 15.5808,17.7855 41.7475,0.452208 81.5,3.5 Z"/></g>
<g><path style="opacity:1" fill="#506580" d="M 81.5,3.5 C 84.2282,3.17057 86.5615,3.83724 88.5,5.5C 85.9327,5.27852 83.5994,4.61185 81.5,3.5 Z"/></g>
<g><path style="opacity:1" fill="#030303" d="M 64.5,8.5 C 95.8206,7.39507 118.321,20.7284 132,48.5C 142.437,84.8825 130.937,111.716 97.5,129C 66.8099,140.134 40.6433,133.634 19,109.5C 5.51537,89.9369 2.8487,68.9369 11,46.5C 22.394,24.5838 40.2273,11.9171 64.5,8.5 Z"/></g>
<g><path style="opacity:1" fill="#c31c27" d="M 46.5,45.5 C 50.6447,45.3301 54.6447,45.9967 58.5,47.5C 60.296,51.1643 59.296,53.6643 55.5,55C 52.1667,55.6667 48.8333,55.6667 45.5,55C 44.6058,52.5587 44.2724,49.892 44.5,47C 45.4158,46.7216 46.0825,46.2216 46.5,45.5 Z"/></g>
<g><path style="opacity:1" fill="#1965a2" d="M 116.5,55.5 C 115.329,56.3446 113.995,57.0113 112.5,57.5C 106.911,55.5175 101.244,53.6841 95.5,52C 88.7019,51.6511 82.0352,50.6511 75.5,49C 89.6915,48.1488 103.358,50.3155 116.5,55.5 Z"/></g>
<g><path style="opacity:1" fill="#821217" d="M 108.5,59.5 C 107.833,59.5 107.5,59.8333 107.5,60.5C 103.646,58.407 99.6456,56.5737 95.5,55C 100.297,55.2099 104.63,56.7099 108.5,59.5 Z"/></g>
<g><path style="opacity:1" fill="#22539e" d="M 116.5,55.5 C 121.691,57.0768 125.691,60.0768 128.5,64.5C 126.379,64.3253 124.379,64.6586 122.5,65.5C 119.431,62.4229 116.097,59.7563 112.5,57.5C 113.995,57.0113 115.329,56.3446 116.5,55.5 Z"/></g>
<g><path style="opacity:1" fill="#e3e3e5" d="M 12.5,66.5 C 15.5184,66.3354 18.5184,66.502 21.5,67C 22.8333,68.6667 22.8333,70.3333 21.5,72C 18.3754,72.5438 15.3754,73.3771 12.5,74.5C 12.5,71.8333 12.5,69.1667 12.5,66.5 Z"/></g>
<g><path style="opacity:1" fill="#d8d8d9" d="M 23.5,66.5 C 24.5,66.5 25.5,66.5 26.5,66.5C 26.5,68.1667 26.5,69.8333 26.5,71.5C 28.1667,71.5 29.8333,71.5 31.5,71.5C 31.5,72.5 31.5,73.5 31.5,74.5C 28.8333,74.5 26.1667,74.5 23.5,74.5C 23.5,71.8333 23.5,69.1667 23.5,66.5 Z"/></g>
<g><path style="opacity:1" fill="#dbdadc" d="M 35.5,66.5 C 37.5273,66.3379 39.5273,66.5045 41.5,67C 42.7079,69.2503 44.0413,71.417 45.5,73.5C 49.4121,71.4469 49.4121,69.2802 45.5,67C 47.7008,66.1751 49.5341,66.6751 51,68.5C 52.4659,66.6751 54.2992,66.1751 56.5,67C 53.9199,69.1203 53.9199,71.287 56.5,73.5C 54.6351,74.6662 52.9684,74.3329 51.5,72.5C 49.808,73.9686 47.808,74.6353 45.5,74.5C 41.6384,73.4352 37.805,73.4352 34,74.5C 33.5,74.3333 33,74.1667 32.5,74C 33.7814,71.5725 34.7814,69.0725 35.5,66.5 Z"/></g>
<g><path style="opacity:1" fill="#d5d5d6" d="M 58.5,66.5 C 61.1873,66.3359 63.854,66.5026 66.5,67C 67.5914,69.0639 67.7581,71.2305 67,73.5C 58.6986,76.6535 55.8653,74.3202 58.5,66.5 Z"/></g>
<g><path style="opacity:1" fill="#d9d9db" d="M 89.5,66.5 C 94.7807,66.3152 97.4474,68.9819 97.5,74.5C 93.456,73.666 89.456,73.3327 85.5,73.5C 87.0981,71.3021 88.4314,68.9687 89.5,66.5 Z"/></g>
<g><path style="opacity:1" fill="#e5e5e6" d="M 99.5,66.5 C 102.518,66.3354 105.518,66.502 108.5,67C 109.833,68.6667 109.833,70.3333 108.5,72C 105.375,72.5438 102.375,73.3771 99.5,74.5C 99.5,71.8333 99.5,69.1667 99.5,66.5 Z"/></g>
<g><path style="opacity:1" fill="#29378a" d="M 128.5,64.5 C 129.117,64.6107 129.617,64.944 130,65.5C 130.497,68.146 130.664,70.8127 130.5,73.5C 128.5,73.5 126.5,73.5 124.5,73.5C 124.768,71.901 124.434,70.5676 123.5,69.5C 123.167,68.1667 122.833,66.8333 122.5,65.5C 124.379,64.6586 126.379,64.3253 128.5,64.5 Z"/></g>
<g><path style="opacity:1" fill="#414143" d="M 15.5,68.5 C 16.9778,68.238 18.3112,68.5713 19.5,69.5C 18.8333,69.8333 18.1667,70.1667 17.5,70.5C 16.2867,70.2528 15.62,69.5862 15.5,68.5 Z"/></g>
<g><path style="opacity:1" fill="#464648" d="M 102.5,68.5 C 103.978,68.238 105.311,68.5713 106.5,69.5C 105.833,69.8333 105.167,70.1667 104.5,70.5C 103.287,70.2528 102.62,69.5862 102.5,68.5 Z"/></g>
<g><path style="opacity:1" fill="#e3e3e5" d="M 68.5,66.5 C 71.3289,66.3249 72.9955,67.6582 73.5,70.5C 74.4287,69.3112 74.762,67.9778 74.5,66.5C 76.1667,66.5 77.8333,66.5 79.5,66.5C 79.7825,71.579 80.7825,71.7457 82.5,67C 83.5,66.3333 84.5,66.3333 85.5,67C 84.2135,69.0223 83.2135,71.1889 82.5,73.5C 79.2512,75.222 77.4179,74.222 77,70.5C 76.309,73.5906 74.4757,74.7572 71.5,74C 70.3578,71.5501 69.3578,69.0501 68.5,66.5 Z"/></g>
<g><path style="opacity:1" fill="#cb1c27" d="M 107.5,60.5 C 107.5,59.8333 107.833,59.5 108.5,59.5C 116.071,61.8726 119.237,66.8726 118,74.5C 117.623,75.9423 116.79,76.9423 115.5,77.5C 113.81,77.1436 112.81,76.1436 112.5,74.5C 114.781,68.4004 113.115,63.7337 107.5,60.5 Z"/></g>
<g><path style="opacity:1" fill="#22205a" d="M 123.5,69.5 C 124.434,70.5676 124.768,71.901 124.5,73.5C 126.5,73.5 128.5,73.5 130.5,73.5C 127.994,78.1717 124.327,81.6717 119.5,84C 109.272,88.5116 98.6052,90.845 87.5,91C 96.9233,89.7279 105.923,87.0613 114.5,83C 120.155,80.1938 123.155,75.6938 123.5,69.5 Z"/></g>
<g><path style="opacity:1" fill="#5d0f17" d="M 67.5,88.5 C 62.5,89.1667 57.5,89.8333 52.5,90.5C 49.5131,90.0022 46.5131,89.5022 43.5,89C 51.4931,88.5003 59.4931,88.3336 67.5,88.5 Z"/></g>
<g><path style="opacity:1" fill="#ae1c2a" d="M 112.5,74.5 C 112.81,76.1436 113.81,77.1436 115.5,77.5C 114.284,79.4509 112.618,80.9509 110.5,82C 91.9317,89.5339 72.5983,92.3672 52.5,90.5C 57.5,89.8333 62.5,89.1667 67.5,88.5C 80.7465,88.1272 93.4131,85.2938 105.5,80C 107.996,78.3335 110.329,76.5002 112.5,74.5 Z"/></g>
</svg>
