<?xml version="1.0" encoding="UTF-8"?>
<!DOCTYPE svg PUBLIC "-//W3C//DTD SVG 1.1//EN" "http://www.w3.org/Graphics/SVG/1.1/DTD/svg11.dtd">
<svg xmlns="http://www.w3.org/2000/svg" version="1.1" width="221px" height="221px" style="shape-rendering:geometricPrecision; text-rendering:geometricPrecision; image-rendering:optimizeQuality; fill-rule:evenodd; clip-rule:evenodd" xmlns:xlink="http://www.w3.org/1999/xlink">
<g><path style="opacity:0.767" fill="#e7e7e7" d="M 95.5,-0.5 C 105.167,-0.5 114.833,-0.5 124.5,-0.5C 145.213,2.90744 163.88,11.0741 180.5,24C 186.431,29.4242 191.764,35.2575 196.5,41.5C 181.032,24.7635 162.366,13.0968 140.5,6.5C 136.307,3.91034 131.64,2.91034 126.5,3.5C 119.877,2.62037 113.211,2.28704 106.5,2.5C 102.154,2.33432 97.8206,2.50098 93.5,3C 90.1489,3.05725 87.1489,3.89058 84.5,5.5C 80.7858,5.59025 77.4525,6.59025 74.5,8.5C 40.614,20.7188 17.2807,43.7188 4.5,77.5C 14.2447,46.2461 33.9113,23.4128 63.5,9C 73.9582,4.67606 84.6249,1.50939 95.5,-0.5 Z"/></g>
<g><path style="opacity:1" fill="#595959" d="M 106.5,2.5 C 99.3241,3.64853 91.9908,4.64853 84.5,5.5C 87.1489,3.89058 90.1489,3.05725 93.5,3C 97.8206,2.50098 102.154,2.33432 106.5,2.5 Z"/></g>
<g><path style="opacity:1" fill="#9c9c9c" d="M 126.5,3.5 C 131.64,2.91034 136.307,3.91034 140.5,6.5C 135.717,5.49146 131.05,4.49146 126.5,3.5 Z"/></g>
<g><path style="opacity:1" fill="#f0f0f0" d="M 126.5,6.5 C 128.95,6.29803 131.283,6.63137 133.5,7.5C 135.515,8.92381 137.848,9.59047 140.5,9.5C 142.216,9.62867 143.883,9.962 145.5,10.5C 147.033,12.2451 149.033,13.2451 151.5,13.5C 198.59,34.8219 220.757,71.4886 218,123.5C 212.996,155.889 197.163,181.222 170.5,199.5C 159.389,205.982 147.723,210.982 135.5,214.5C 92.2564,223.363 56.0897,211.363 27,178.5C 1.39497,145.198 -3.93837,108.864 11,69.5C 23.1307,43.5351 42.2974,24.8684 68.5,13.5C 73.7669,12.4111 78.7669,10.7444 83.5,8.5C 85.099,8.76781 86.4324,8.43448 87.5,7.5C 100.482,6.67266 113.482,6.33933 126.5,6.5 Z"/></g>
<g><path style="opacity:1" fill="#959595" d="M 83.5,8.5 C 78.7669,10.7444 73.7669,12.4111 68.5,13.5C 69.1667,12.8333 69.8333,12.1667 70.5,11.5C 74.7862,10.2934 79.1195,9.29343 83.5,8.5 Z"/></g>
<g><path style="opacity:1" fill="#7f7f7f" d="M 145.5,10.5 C 147.967,10.7549 149.967,11.7549 151.5,13.5C 149.033,13.2451 147.033,12.2451 145.5,10.5 Z"/></g>
<g><path style="opacity:1" fill="#5a5a5a" d="M 99.5,12.5 C 95.1167,14.2301 90.4501,15.2301 85.5,15.5C 85.9175,14.7784 86.5842,14.2784 87.5,14C 91.4908,13.3583 95.4908,12.8583 99.5,12.5 Z"/></g>
<g><path style="opacity:0.884" fill="#1a1a1a" d="M 106.5,2.5 C 113.211,2.28704 119.877,2.62037 126.5,3.5C 131.05,4.49146 135.717,5.49146 140.5,6.5C 162.366,13.0968 181.032,24.7635 196.5,41.5C 196.738,43.4044 197.738,44.7377 199.5,45.5C 199.738,47.4044 200.738,48.7377 202.5,49.5C 202.427,51.0269 203.094,52.0269 204.5,52.5C 212.601,65.8017 217.934,80.135 220.5,95.5C 220.5,105.167 220.5,114.833 220.5,124.5C 215.326,157.515 198.993,183.515 171.5,202.5C 171.443,201.391 171.11,200.391 170.5,199.5C 197.163,181.222 212.996,155.889 218,123.5C 220.757,71.4886 198.59,34.8219 151.5,13.5C 149.967,11.7549 147.967,10.7549 145.5,10.5C 143.883,9.962 142.216,9.62867 140.5,9.5C 138.485,8.07619 136.152,7.40953 133.5,7.5C 131.283,6.63137 128.95,6.29803 126.5,6.5C 121.177,5.8339 115.677,5.50057 110,5.5C 102.266,5.2859 94.7665,5.95257 87.5,7.5C 86.4324,8.43448 85.099,8.76781 83.5,8.5C 79.1195,9.29343 74.7862,10.2934 70.5,11.5C 70.9814,10.1794 72.3147,9.1794 74.5,8.5C 77.4525,6.59025 80.7858,5.59025 84.5,5.5C 91.9908,4.64853 99.3241,3.64853 106.5,2.5 Z"/></g>
<g><path style="opacity:1" fill="#777777" d="M 133.5,7.5 C 136.152,7.40953 138.485,8.07619 140.5,9.5C 137.848,9.59047 135.515,8.92381 133.5,7.5 Z"/></g>
<g><path style="opacity:1" fill="#aaaaaa" d="M 126.5,6.5 C 113.482,6.33933 100.482,6.67266 87.5,7.5C 94.7665,5.95257 102.266,5.2859 110,5.5C 115.677,5.50057 121.177,5.8339 126.5,6.5 Z"/></g>
<g><path style="opacity:1" fill="#252525" d="M 74.5,8.5 C 72.3147,9.1794 70.9814,10.1794 70.5,11.5C 69.8333,12.1667 69.1667,12.8333 68.5,13.5C 42.2974,24.8684 23.1307,43.5351 11,69.5C -3.93837,108.864 1.39497,145.198 27,178.5C 56.0897,211.363 92.2564,223.363 135.5,214.5C 137.199,214.34 138.866,214.506 140.5,215C 139.944,215.383 139.611,215.883 139.5,216.5C 138.432,217.434 137.099,217.768 135.5,217.5C 127.403,218.844 119.236,219.511 111,219.5C 102.122,219.236 93.2884,218.57 84.5,217.5C 79.4995,215.057 74.1662,213.39 68.5,212.5C 66.1645,209.835 63.1645,208.502 59.5,208.5C 59.0269,207.094 58.0269,206.427 56.5,206.5C 54.847,206.34 53.5137,205.674 52.5,204.5C 52.0269,203.094 51.0269,202.427 49.5,202.5C 46.4669,200.984 43.8003,198.984 41.5,196.5C 40.4154,194.413 38.7488,193.08 36.5,192.5C 15.7963,174.429 3.463,151.762 -0.5,124.5C -0.5,114.833 -0.5,105.167 -0.5,95.5C 0.393406,91.8091 1.39341,88.1424 2.5,84.5C 4.16276,82.5615 4.82943,80.2282 4.5,77.5C 17.2807,43.7188 40.614,20.7188 74.5,8.5 Z"/></g>
<g><path style="opacity:1" fill="#1f1f1f" d="M 99.5,12.5 C 136.022,9.71945 166.189,22.0528 190,49.5C 215.325,84.2167 218.325,120.883 199,159.5C 181.291,187.95 155.791,204.783 122.5,210C 110.167,211.199 98.1669,210.366 86.5,207.5C 84.4855,206.076 82.1522,205.41 79.5,205.5C 35.4181,189.205 12.0848,157.371 9.5,110C 12.7211,66.2011 34.3878,35.5344 74.5,18C 78.0704,16.6905 81.737,15.8572 85.5,15.5C 90.4501,15.2301 95.1167,14.2301 99.5,12.5 Z"/></g>
<g><path style="opacity:1" fill="#acacac" d="M 84.5,18.5 C 80.1832,20.9405 75.5166,22.6072 70.5,23.5C 74.8168,21.0595 79.4834,19.3928 84.5,18.5 Z"/></g>
<g><path style="opacity:1" fill="#fcfcfc" d="M 86.5,204.5 C 83.855,202.69 80.855,201.69 77.5,201.5C 51.9309,192.104 33.0976,175.104 21,150.5C 2.51093,99.3407 15.6776,58.5074 60.5,28C 63.7365,26.2138 67.0698,24.7138 70.5,23.5C 75.5166,22.6072 80.1832,20.9405 84.5,18.5C 91.9221,16.0513 99.5888,15.0513 107.5,15.5C 151.428,15.8828 182.928,35.8828 202,75.5C 214.162,109.733 209.495,141.4 188,170.5C 160.805,201.266 126.971,212.599 86.5,204.5 Z"/></g>
<g><path style="opacity:1" fill="#acacac" d="M 196.5,41.5 C 198.262,42.2623 199.262,43.5956 199.5,45.5C 197.738,44.7377 196.738,43.4044 196.5,41.5 Z"/></g>
<g><path style="opacity:1" fill="#c2b7d5" d="M 102.5,48.5 C 104.978,47.8359 107.645,47.5025 110.5,47.5C 114.469,47.2942 118.135,47.9608 121.5,49.5C 115.203,48.6803 108.869,48.347 102.5,48.5 Z"/></g>
<g><path style="opacity:0.886" fill="#a8a8a8" d="M 199.5,45.5 C 201.262,46.2623 202.262,47.5956 202.5,49.5C 200.738,48.7377 199.738,47.4044 199.5,45.5 Z"/></g>
<g><path style="opacity:1" fill="#502e87" d="M 102.5,48.5 C 108.869,48.347 115.203,48.6803 121.5,49.5C 139.581,53.251 151.247,63.9177 156.5,81.5C 156.5,82.8333 156.5,84.1667 156.5,85.5C 150.167,85.5 143.833,85.5 137.5,85.5C 133.889,71.556 124.889,64.2226 110.5,63.5C 95.856,64.8034 86.1893,72.47 81.5,86.5C 74.753,86.3983 68.4197,85.3983 62.5,83.5C 69.0081,63.9896 82.3414,52.3229 102.5,48.5 Z"/></g>
<g><path style="opacity:0.545" fill="#b5b5b5" d="M 202.5,49.5 C 203.906,49.9731 204.573,50.9731 204.5,52.5C 203.094,52.0269 202.427,51.0269 202.5,49.5 Z"/></g>
<g><path style="opacity:1" fill="#a6a6a6" d="M 4.5,77.5 C 4.82943,80.2282 4.16276,82.5615 2.5,84.5C 2.40953,81.8478 3.07619,79.5145 4.5,77.5 Z"/></g>
<g><path style="opacity:1" fill="#a594c1" d="M 62.5,83.5 C 68.4197,85.3983 74.753,86.3983 81.5,86.5C 75.028,86.8136 68.3614,86.8136 61.5,86.5C 61.2627,85.209 61.596,84.209 62.5,83.5 Z"/></g>
<g><path style="opacity:1" fill="#a08ebe" d="M 156.5,81.5 C 157.451,82.9187 157.784,84.5853 157.5,86.5C 150.646,86.824 143.979,86.4907 137.5,85.5C 143.833,85.5 150.167,85.5 156.5,85.5C 156.5,84.1667 156.5,82.8333 156.5,81.5 Z"/></g>
<g><path style="opacity:1" fill="#ffd724" d="M 27.5,88.5 C 35.2881,87.3134 41.7881,89.6467 47,95.5C 48.3409,98.022 49.1743,100.689 49.5,103.5C 46.8333,103.5 44.1667,103.5 41.5,103.5C 40.6225,95.7133 36.2892,92.8799 28.5,95C 23.4891,98.6913 21.1557,103.691 21.5,110C 21.1418,116.968 23.8085,122.301 29.5,126C 36.7637,127.203 41.097,124.203 42.5,117C 44.8098,116.503 47.1432,116.337 49.5,116.5C 49.0763,123.867 45.4096,128.701 38.5,131C 25.5237,133.756 17.6903,128.589 15,115.5C 12.7276,103.384 16.8943,94.3843 27.5,88.5 Z"/></g>
<g><path style="opacity:1" fill="#ffed93" d="M 56.5,89.5 C 56.5,103.167 56.5,116.833 56.5,130.5C 58.5,130.5 60.5,130.5 62.5,130.5C 60.3926,131.468 58.0593,131.802 55.5,131.5C 55.1709,117.323 55.5042,103.323 56.5,89.5 Z"/></g>
<g><path style="opacity:1" fill="#ffd71f" d="M 56.5,89.5 C 64.5852,89.0989 72.5852,89.5989 80.5,91C 90.6395,101.163 89.3061,109.497 76.5,116C 71.8452,116.499 67.1785,116.666 62.5,116.5C 62.5,121.167 62.5,125.833 62.5,130.5C 60.5,130.5 58.5,130.5 56.5,130.5C 56.5,116.833 56.5,103.167 56.5,89.5 Z"/></g>
<g><path style="opacity:1" fill="#ffd61e" d="M 103.5,88.5 C 114.207,87.2703 121.707,91.6037 126,101.5C 126.829,108.234 126.496,114.901 125,121.5C 119.56,131.536 111.394,134.37 100.5,130C 90.8453,120.156 89.012,108.99 95,96.5C 97.7291,93.6007 100.562,90.934 103.5,88.5 Z"/></g>
<g><path style="opacity:1" fill="#ffd92e" d="M 134.5,89.5 C 143.5,89.5 152.5,89.5 161.5,89.5C 161.5,91.5 161.5,93.5 161.5,95.5C 158.167,95.5 154.833,95.5 151.5,95.5C 151.5,105.5 151.5,115.5 151.5,125.5C 154.833,125.5 158.167,125.5 161.5,125.5C 161.5,127.5 161.5,129.5 161.5,131.5C 152.5,131.5 143.5,131.5 134.5,131.5C 134.5,129.5 134.5,127.5 134.5,125.5C 137.833,125.5 141.167,125.5 144.5,125.5C 144.5,115.5 144.5,105.5 144.5,95.5C 141.167,95.5 137.833,95.5 134.5,95.5C 134.5,93.5 134.5,91.5 134.5,89.5 Z"/></g>
<g><path style="opacity:1" fill="#ffd512" d="M 196.5,115.5 C 196.5,107.167 196.5,98.8333 196.5,90.5C 198.167,90.5 199.833,90.5 201.5,90.5C 201.5,103.833 201.5,117.167 201.5,130.5C 199.167,130.5 196.833,130.5 194.5,130.5C 188.774,120.723 183.274,110.723 178,100.5C 177.5,110.828 177.334,121.161 177.5,131.5C 175.5,131.5 173.5,131.5 171.5,131.5C 171.5,117.5 171.5,103.5 171.5,89.5C 174.448,89.2229 177.281,89.5562 180,90.5C 185.078,100.99 190.411,111.323 196,121.5C 196.495,119.527 196.662,117.527 196.5,115.5 Z"/></g>
<g><path style="opacity:1" fill="#ffe66b" d="M 194.5,130.5 C 196.833,130.5 199.167,130.5 201.5,130.5C 201.5,117.167 201.5,103.833 201.5,90.5C 199.833,90.5 198.167,90.5 196.5,90.5C 196.5,98.8333 196.5,107.167 196.5,115.5C 195.507,107.016 195.174,98.3494 195.5,89.5C 197.833,89.5 200.167,89.5 202.5,89.5C 202.5,103.5 202.5,117.5 202.5,131.5C 199.615,131.806 196.948,131.473 194.5,130.5 Z"/></g>
<g><path style="opacity:1" fill="#fffdf8" d="M 105.5,94.5 C 117.488,95.0821 122.321,101.415 120,113.5C 119.361,122.82 114.527,126.986 105.5,126C 98.0927,118.226 96.5927,109.393 101,99.5C 102.707,97.9625 104.207,96.2959 105.5,94.5 Z"/></g>
<g><path style="opacity:1" fill="#f7f4f0" d="M 62.5,95.5 C 66.8461,95.3343 71.1794,95.501 75.5,96C 82.2003,100.914 81.867,105.581 74.5,110C 70.5138,110.499 66.5138,110.666 62.5,110.5C 62.5,105.5 62.5,100.5 62.5,95.5 Z"/></g>
<g><path style="opacity:1" fill="#9884b8" d="M 74.5,99.5 C 71.8333,99.5 69.1667,99.5 66.5,99.5C 66.5,101.833 66.5,104.167 66.5,106.5C 65.5269,104.052 65.1936,101.385 65.5,98.5C 68.7131,98.19 71.7131,98.5233 74.5,99.5 Z"/></g>
<g><path style="opacity:1" fill="#4d2b85" d="M 74.5,99.5 C 77.1339,101.54 77.1339,103.707 74.5,106C 71.854,106.497 69.1873,106.664 66.5,106.5C 66.5,104.167 66.5,101.833 66.5,99.5C 69.1667,99.5 71.8333,99.5 74.5,99.5 Z"/></g>
<g><path style="opacity:1" fill="#b1a2c9" d="M 78.5,119.5 C 74.5,119.5 70.5,119.5 66.5,119.5C 66.8182,124.032 66.4849,128.366 65.5,132.5C 65.5,127.833 65.5,123.167 65.5,118.5C 70.0323,118.182 74.3656,118.515 78.5,119.5 Z"/></g>
<g><path style="opacity:1" fill="#502f87" d="M 78.5,119.5 C 79.3076,132.281 84.3076,143.114 93.5,152C 95.5766,153.705 97.91,154.872 100.5,155.5C 103.186,156.991 106.186,157.657 109.5,157.5C 111.696,157.495 113.696,157.162 115.5,156.5C 127.34,154.329 134.673,147.329 137.5,135.5C 144.134,134.503 150.8,134.17 157.5,134.5C 151.843,160.018 135.843,172.685 109.5,172.5C 85.5693,171.078 69.9027,158.912 62.5,136C 63.5442,134.826 64.5442,133.659 65.5,132.5C 66.4849,128.366 66.8182,124.032 66.5,119.5C 70.5,119.5 74.5,119.5 78.5,119.5 Z"/></g>
<g><path style="opacity:1" fill="#a291bf" d="M 100.5,155.5 C 105.463,156.254 110.463,156.587 115.5,156.5C 113.696,157.162 111.696,157.495 109.5,157.5C 106.186,157.657 103.186,156.991 100.5,155.5 Z"/></g>
<g><path style="opacity:1" fill="#838383" d="M 36.5,192.5 C 38.7488,193.08 40.4154,194.413 41.5,196.5C 39.2512,195.92 37.5846,194.587 36.5,192.5 Z"/></g>
<g><path style="opacity:1" fill="#969696" d="M 77.5,201.5 C 80.855,201.69 83.855,202.69 86.5,204.5C 83.0836,204.472 80.0836,203.472 77.5,201.5 Z"/></g>
<g><path style="opacity:0.545" fill="#bdbdbd" d="M 49.5,202.5 C 51.0269,202.427 52.0269,203.094 52.5,204.5C 50.9731,204.573 49.9731,203.906 49.5,202.5 Z"/></g>
<g><path style="opacity:1" fill="#363636" d="M 170.5,199.5 C 171.11,200.391 171.443,201.391 171.5,202.5C 161.806,209.291 151.139,213.957 139.5,216.5C 139.611,215.883 139.944,215.383 140.5,215C 138.866,214.506 137.199,214.34 135.5,214.5C 147.723,210.982 159.389,205.982 170.5,199.5 Z"/></g>
<g><path style="opacity:1" fill="#6f6f6f" d="M 79.5,205.5 C 82.1522,205.41 84.4855,206.076 86.5,207.5C 83.8478,207.59 81.5145,206.924 79.5,205.5 Z"/></g>
<g><path style="opacity:0.522" fill="#aeaeae" d="M 56.5,206.5 C 58.0269,206.427 59.0269,207.094 59.5,208.5C 57.9731,208.573 56.9731,207.906 56.5,206.5 Z"/></g>
<g><path style="opacity:1" fill="#8b8b8b" d="M 59.5,208.5 C 63.1645,208.502 66.1645,209.835 68.5,212.5C 65.0884,211.925 62.0884,210.592 59.5,208.5 Z"/></g>
<g><path style="opacity:1" fill="#929292" d="M 68.5,212.5 C 74.1662,213.39 79.4995,215.057 84.5,217.5C 78.8338,216.61 73.5005,214.943 68.5,212.5 Z"/></g>
<g><path style="opacity:0.961" fill="#8d8d8d" d="M 84.5,217.5 C 93.2884,218.57 102.122,219.236 111,219.5C 119.236,219.511 127.403,218.844 135.5,217.5C 131.858,218.607 128.191,219.607 124.5,220.5C 114.833,220.5 105.167,220.5 95.5,220.5C 91.8091,219.607 88.1424,218.607 84.5,217.5 Z"/></g>
</svg>
