<?xml version="1.0" encoding="UTF-8"?>
<!DOCTYPE svg PUBLIC "-//W3C//DTD SVG 1.1//EN" "http://www.w3.org/Graphics/SVG/1.1/DTD/svg11.dtd">
<svg xmlns="http://www.w3.org/2000/svg" version="1.1" width="201px" height="201px" style="shape-rendering:geometricPrecision; text-rendering:geometricPrecision; image-rendering:optimizeQuality; fill-rule:evenodd; clip-rule:evenodd" xmlns:xlink="http://www.w3.org/1999/xlink">
<g><path style="opacity:0.948" fill="#fdfd67" d="M 85.5,-0.5 C 95.1667,-0.5 104.833,-0.5 114.5,-0.5C 161.5,9.83333 190.167,38.5 200.5,85.5C 200.5,95.1667 200.5,104.833 200.5,114.5C 190.167,161.5 161.5,190.167 114.5,200.5C 104.833,200.5 95.1667,200.5 85.5,200.5C 38.5,190.167 9.83333,161.5 -0.5,114.5C -0.5,104.833 -0.5,95.1667 -0.5,85.5C 9.83333,38.5 38.5,9.83333 85.5,-0.5 Z"/></g>
<g><path style="opacity:1" fill="#e0e1b8" d="M 113.5,11.5 C 104.179,10.3317 94.8461,10.3317 85.5,11.5C 90.4127,9.9925 95.5793,9.32584 101,9.5C 104.5,9.66667 108,9.83333 111.5,10C 112.416,10.2784 113.082,10.7784 113.5,11.5 Z"/></g>
<g><path style="opacity:1" fill="#061003" d="M 113.5,11.5 C 148.412,17.5722 172.912,36.9055 187,69.5C 198.913,108.565 190.413,142.399 161.5,171C 136.497,190.752 108.497,197.252 77.5,190.5C 75.4855,189.076 73.1522,188.41 70.5,188.5C 66.2662,187.383 62.2662,185.716 58.5,183.5C 58.0269,182.094 57.0269,181.427 55.5,181.5C 54.5084,181.672 53.8417,181.338 53.5,180.5C 53.0269,179.094 52.0269,178.427 50.5,178.5C 50.0269,177.094 49.0269,176.427 47.5,176.5C 46.7377,174.738 45.4044,173.738 43.5,173.5C 42.0892,171.086 40.0892,169.419 37.5,168.5C 36.1667,166.5 34.5,164.833 32.5,163.5C 31.5806,160.911 29.914,158.911 27.5,157.5C 2.37419,118.322 3.54086,79.9883 31,42.5C 41.3318,31.6516 53.1652,22.9849 66.5,16.5C 73.0364,15.199 79.3697,13.5324 85.5,11.5C 94.8461,10.3317 104.179,10.3317 113.5,11.5 Z"/></g>
<g><path style="opacity:1" fill="#c0c3b3" d="M 85.5,11.5 C 79.3697,13.5324 73.0364,15.199 66.5,16.5C 72.4175,13.7094 78.7509,12.0428 85.5,11.5 Z"/></g>
<g><path style="opacity:1" fill="#ac9024" d="M 103.5,18.5 C 103.5,19.5 103.5,20.5 103.5,21.5C 106.572,21.1826 109.572,21.5159 112.5,22.5C 110.578,23.711 108.745,25.0443 107,26.5C 106.846,29.0631 107.346,31.5631 108.5,34C 108.167,34.5 107.833,35 107.5,35.5C 105.191,34.3492 103.024,33.0159 101,31.5C 98.7661,32.7015 96.5994,34.0348 94.5,35.5C 94.1667,35.1667 93.8333,34.8333 93.5,34.5C 94.2431,32.3622 94.9097,30.1956 95.5,28C 93.6449,25.9769 91.6449,24.1435 89.5,22.5C 92.6417,21.8326 95.6417,21.166 98.5,20.5C 98.1281,17.9783 98.9614,15.9783 101,14.5C 102.481,15.4709 103.315,16.8042 103.5,18.5 Z"/></g>
<g><path style="opacity:1" fill="#141804" d="M 103.5,18.5 C 106.488,20.273 109.821,20.9396 113.5,20.5C 113.701,24.35 115.534,25.35 119,23.5C 119.278,24.4158 119.778,25.0825 120.5,25.5C 118.975,27.0358 116.975,28.0358 114.5,28.5C 116.531,30.2492 116.865,32.2492 115.5,34.5C 117.021,34.8797 118.687,35.0464 120.5,35C 121.047,35.9246 121.713,36.7579 122.5,37.5C 122.964,35.0251 123.964,33.0251 125.5,31.5C 125.175,34.3156 124.175,36.8156 122.5,39C 132.423,42.8634 142.423,46.5301 152.5,50C 154.631,51.4705 156.631,52.9705 158.5,54.5C 153.458,52.0425 148.125,50.3758 142.5,49.5C 140.421,49.0293 138.421,48.3627 136.5,47.5C 135.391,47.4431 134.391,47.1098 133.5,46.5C 125.784,43.2613 117.784,40.5946 109.5,38.5C 106.682,37.2732 103.682,36.2732 100.5,35.5C 92.3337,36.9987 84.667,39.6653 77.5,43.5C 76.1667,43.5 74.8333,43.5 73.5,43.5C 75.2405,41.6136 76.2405,39.2803 76.5,36.5C 76.2755,34.5453 75.6089,32.8787 74.5,31.5C 75.5,31.5 76.5,31.5 77.5,31.5C 77.2011,33.604 77.5344,35.604 78.5,37.5C 80.5622,35.2753 82.8955,34.942 85.5,36.5C 86.6662,34.6351 86.3329,32.9684 84.5,31.5C 85.5,30.1667 86.5,28.8333 87.5,27.5C 85.3691,26.8313 83.3691,26.1646 81.5,25.5C 81.369,24.7611 81.5357,24.0944 82,23.5C 84.0811,24.3331 86.2478,24.3331 88.5,23.5C 88.5,22.5 88.5,21.5 88.5,20.5C 91.8333,20.5 95.1667,20.5 98.5,20.5C 95.6417,21.166 92.6417,21.8326 89.5,22.5C 91.6449,24.1435 93.6449,25.9769 95.5,28C 94.9097,30.1956 94.2431,32.3622 93.5,34.5C 93.8333,34.8333 94.1667,35.1667 94.5,35.5C 96.5994,34.0348 98.7661,32.7015 101,31.5C 103.024,33.0159 105.191,34.3492 107.5,35.5C 107.833,35 108.167,34.5 108.5,34C 107.346,31.5631 106.846,29.0631 107,26.5C 108.745,25.0443 110.578,23.711 112.5,22.5C 109.572,21.5159 106.572,21.1826 103.5,21.5C 103.5,20.5 103.5,19.5 103.5,18.5 Z"/></g>
<g><path style="opacity:1" fill="#e4d347" d="M 100.5,22.5 C 102.527,22.3379 104.527,22.5045 106.5,23C 103.073,24.796 99.9063,26.9627 97,29.5C 96.3333,28.1667 96.3333,26.8333 97,25.5C 98.5185,24.8366 99.6851,23.8366 100.5,22.5 Z"/></g>
<g><path style="opacity:1" fill="#a18a23" d="M 81.5,25.5 C 83.3691,26.1646 85.3691,26.8313 87.5,27.5C 86.5,28.8333 85.5,30.1667 84.5,31.5C 86.3329,32.9684 86.6662,34.6351 85.5,36.5C 82.8955,34.942 80.5622,35.2753 78.5,37.5C 77.5344,35.604 77.2011,33.604 77.5,31.5C 76.5,31.5 75.5,31.5 74.5,31.5C 73.596,30.791 73.2627,29.791 73.5,28.5C 75.1667,28.5 76.8333,28.5 78.5,28.5C 78.1205,25.4331 79.1205,24.4331 81.5,25.5 Z"/></g>
<g><path style="opacity:1" fill="#ac9326" d="M 125.5,31.5 C 123.964,33.0251 122.964,35.0251 122.5,37.5C 121.713,36.7579 121.047,35.9246 120.5,35C 118.687,35.0464 117.021,34.8797 115.5,34.5C 116.865,32.2492 116.531,30.2492 114.5,28.5C 116.975,28.0358 118.975,27.0358 120.5,25.5C 120.821,23.9519 121.821,23.2852 123.5,23.5C 123.5,25.1667 123.5,26.8333 123.5,28.5C 124.822,28.33 125.989,28.6634 127,29.5C 127.528,30.816 127.028,31.4827 125.5,31.5 Z"/></g>
<g><path style="opacity:1" fill="#986602" d="M 109.5,38.5 C 105.242,38.6283 101.909,40.295 99.5,43.5C 96.145,43.6896 93.145,44.6896 90.5,46.5C 85.9889,47.3758 81.6555,48.7092 77.5,50.5C 65.6112,53.5856 54.4445,58.2523 44,64.5C 43.4846,68.5773 42.6513,72.5773 41.5,76.5C 40.3112,77.4287 38.9778,77.762 37.5,77.5C 37.5,81.1667 37.5,84.8333 37.5,88.5C 36.1765,77.9927 36.1765,67.3261 37.5,56.5C 40.0956,55.5178 42.7623,54.8511 45.5,54.5C 56.3905,51.2041 67.0572,47.5374 77.5,43.5C 84.667,39.6653 92.3337,36.9987 100.5,35.5C 103.682,36.2732 106.682,37.2732 109.5,38.5 Z"/></g>
<g><path style="opacity:1" fill="#cfb635" d="M 109.5,38.5 C 117.784,40.5946 125.784,43.2613 133.5,46.5C 128.908,46.602 124.575,45.602 120.5,43.5C 118.069,44.3601 116.736,46.0268 116.5,48.5C 117.791,48.2627 118.791,48.596 119.5,49.5C 117.473,49.3379 115.473,49.5045 113.5,50C 110.64,53.0311 107.64,53.1978 104.5,50.5C 106.824,49.6702 108.824,48.3369 110.5,46.5C 106.991,44.8855 103.325,43.8855 99.5,43.5C 101.909,40.295 105.242,38.6283 109.5,38.5 Z"/></g>
<g><path style="opacity:1" fill="#e9e9de" d="M 66.5,16.5 C 53.1652,22.9849 41.3318,31.6516 31,42.5C 3.54086,79.9883 2.37419,118.322 27.5,157.5C 14.3259,141.321 7.6592,122.654 7.5,101.5C 8.72339,69.214 22.3901,43.714 48.5,25C 54.1392,21.3465 60.1392,18.5131 66.5,16.5 Z"/></g>
<g><path style="opacity:1" fill="#ede250" d="M 133.5,46.5 C 134.391,47.1098 135.391,47.4431 136.5,47.5C 134.187,50.9175 130.854,52.2508 126.5,51.5C 125.833,51.5 125.167,51.5 124.5,51.5C 123.07,50.4625 121.403,49.7959 119.5,49.5C 118.791,48.596 117.791,48.2627 116.5,48.5C 116.736,46.0268 118.069,44.3601 120.5,43.5C 124.575,45.602 128.908,46.602 133.5,46.5 Z"/></g>
<g><path style="opacity:1" fill="#5e4002" d="M 73.5,43.5 C 74.8333,43.5 76.1667,43.5 77.5,43.5C 67.0572,47.5374 56.3905,51.2041 45.5,54.5C 45.6107,53.8826 45.944,53.3826 46.5,53C 55.7112,50.0982 64.7112,46.9315 73.5,43.5 Z"/></g>
<g><path style="opacity:1" fill="#ede353" d="M 99.5,43.5 C 103.325,43.8855 106.991,44.8855 110.5,46.5C 108.824,48.3369 106.824,49.6702 104.5,50.5C 102.585,50.2155 100.919,50.5489 99.5,51.5C 93.7632,52.9682 88.0966,54.6349 82.5,56.5C 81.1266,56.6567 79.7932,56.49 78.5,56C 82.375,52.6193 86.375,49.4526 90.5,46.5C 93.145,44.6896 96.145,43.6896 99.5,43.5 Z"/></g>
<g><path style="opacity:1" fill="#ae8f21" d="M 119.5,49.5 C 121.403,49.7959 123.07,50.4625 124.5,51.5C 120.662,52.9735 116.662,53.9735 112.5,54.5C 108.213,53.2931 103.88,52.2931 99.5,51.5C 100.919,50.5489 102.585,50.2155 104.5,50.5C 107.64,53.1978 110.64,53.0311 113.5,50C 115.473,49.5045 117.473,49.3379 119.5,49.5 Z"/></g>
<g><path style="opacity:1" fill="#cfb433" d="M 136.5,47.5 C 138.421,48.3627 140.421,49.0293 142.5,49.5C 143.582,51.9785 142.582,53.4785 139.5,54C 136.445,54.6342 133.445,54.4675 130.5,53.5C 129.005,53.0113 127.671,52.3446 126.5,51.5C 130.854,52.2508 134.187,50.9175 136.5,47.5 Z"/></g>
<g><path style="opacity:1" fill="#091103" d="M 99.5,51.5 C 103.88,52.2931 108.213,53.2931 112.5,54.5C 117.941,56.8709 123.608,58.8709 129.5,60.5C 133.981,62.5504 138.648,64.2171 143.5,65.5C 145.833,66.1667 148.167,66.8333 150.5,67.5C 152.255,83.2417 151.588,98.9083 148.5,114.5C 146.796,117.939 145.462,121.605 144.5,125.5C 142.075,130.686 139.409,135.686 136.5,140.5C 126.573,151.637 115.24,161.137 102.5,169C 101.167,169.667 99.8333,169.667 98.5,169C 97.3066,167.905 95.9733,167.072 94.5,166.5C 91.7089,164.265 88.7089,162.265 85.5,160.5C 82.5256,157.862 79.5256,155.195 76.5,152.5C 74.8333,150.167 72.8333,148.167 70.5,146.5C 69.2993,144.091 67.6326,142.091 65.5,140.5C 63.8899,136.9 61.8899,133.566 59.5,130.5C 58.8333,128.833 58.1667,127.167 57.5,125.5C 52.8773,114.296 50.5439,102.63 50.5,90.5C 50.201,82.747 50.5343,75.0804 51.5,67.5C 55.808,65.6221 60.1413,63.9554 64.5,62.5C 70.773,61.0757 76.773,59.0757 82.5,56.5C 88.0966,54.6349 93.7632,52.9682 99.5,51.5 Z"/></g>
<g><path style="opacity:1" fill="#986a07" d="M 124.5,51.5 C 125.167,51.5 125.833,51.5 126.5,51.5C 127.671,52.3446 129.005,53.0113 130.5,53.5C 129.969,55.6237 128.635,57.1237 126.5,58C 127.942,58.3768 128.942,59.2101 129.5,60.5C 123.608,58.8709 117.941,56.8709 112.5,54.5C 116.662,53.9735 120.662,52.9735 124.5,51.5 Z"/></g>
<g><path style="opacity:1" fill="#a88015" d="M 142.5,49.5 C 148.125,50.3758 153.458,52.0425 158.5,54.5C 160.599,55.6118 162.933,56.2785 165.5,56.5C 165.5,57.8333 165.5,59.1667 165.5,60.5C 164.596,59.791 164.263,58.791 164.5,57.5C 161.646,58.812 158.646,59.812 155.5,60.5C 150.446,59.4796 145.446,58.6462 140.5,58C 138.833,59 137.167,60 135.5,61C 138.412,62.232 141.078,63.732 143.5,65.5C 138.648,64.2171 133.981,62.5504 129.5,60.5C 128.942,59.2101 127.942,58.3768 126.5,58C 128.635,57.1237 129.969,55.6237 130.5,53.5C 133.445,54.4675 136.445,54.6342 139.5,54C 142.582,53.4785 143.582,51.9785 142.5,49.5 Z"/></g>
<g><path style="opacity:1" fill="#dbc841" d="M 90.5,46.5 C 86.375,49.4526 82.375,52.6193 78.5,56C 79.7932,56.49 81.1266,56.6567 82.5,56.5C 76.773,59.0757 70.773,61.0757 64.5,62.5C 63.1266,62.6567 61.7932,62.49 60.5,62C 63.0698,59.886 65.4032,57.5527 67.5,55C 71.2641,54.1477 74.5974,52.6477 77.5,50.5C 81.6555,48.7092 85.9889,47.3758 90.5,46.5 Z"/></g>
<g><path style="opacity:1" fill="#cfb937" d="M 165.5,60.5 C 165.5,68.5 165.5,76.5 165.5,84.5C 164.869,86.9028 163.869,89.2361 162.5,91.5C 159.29,90.7738 155.957,90.7738 152.5,91.5C 152.5,86.5 152.5,81.5 152.5,76.5C 154.582,76.528 156.416,75.8613 158,74.5C 158.368,75.91 159.201,76.91 160.5,77.5C 161.524,76.1468 162.857,75.4802 164.5,75.5C 164.666,71.4862 164.499,67.4862 164,63.5C 163.411,65.8633 161.911,66.8633 159.5,66.5C 159.582,63.4151 158.082,61.7485 155,61.5C 152.518,62.6347 150.018,63.8014 147.5,65C 148.942,65.3768 149.942,66.2101 150.5,67.5C 148.167,66.8333 145.833,66.1667 143.5,65.5C 141.078,63.732 138.412,62.232 135.5,61C 137.167,60 138.833,59 140.5,58C 145.446,58.6462 150.446,59.4796 155.5,60.5C 158.646,59.812 161.646,58.812 164.5,57.5C 164.263,58.791 164.596,59.791 165.5,60.5 Z"/></g>
<g><path style="opacity:1" fill="#cfb57a" d="M 95.5,61.5 C 94.8902,62.391 94.5569,63.391 94.5,64.5C 93.325,64.281 92.325,64.6143 91.5,65.5C 92.0276,67.3361 92.6942,69.0028 93.5,70.5C 93.1583,71.3382 92.4916,71.6716 91.5,71.5C 91.2095,68.2049 89.5428,66.2049 86.5,65.5C 86.1667,65.5 85.8333,65.5 85.5,65.5C 88.54,63.6541 91.8733,62.3208 95.5,61.5 Z"/></g>
<g><path style="opacity:1" fill="#f1bb4c" d="M 95.5,61.5 C 95.8333,61.5 96.1667,61.5 96.5,61.5C 97.5,61.5 98.5,61.5 99.5,61.5C 99.5,64.1667 99.5,66.8333 99.5,69.5C 98.0413,69.4326 96.7079,69.7659 95.5,70.5C 95.4828,68.4352 95.1495,66.4352 94.5,64.5C 94.5569,63.391 94.8902,62.391 95.5,61.5 Z"/></g>
<g><path style="opacity:1" fill="#c2a42a" d="M 77.5,50.5 C 74.5974,52.6477 71.2641,54.1477 67.5,55C 65.4032,57.5527 63.0698,59.886 60.5,62C 61.7932,62.49 63.1266,62.6567 64.5,62.5C 60.1413,63.9554 55.808,65.6221 51.5,67.5C 49.744,68.5521 49.0773,70.2188 49.5,72.5C 48.7321,71.7375 48.2321,70.7375 48,69.5C 45.5603,70.2738 44.227,71.9405 44,74.5C 43.6667,81.1667 43.3333,87.8333 43,94.5C 42,95.1667 41,95.8333 40,96.5C 39.5014,100.152 39.3347,103.818 39.5,107.5C 38.0035,101.395 37.3369,95.0616 37.5,88.5C 37.5,84.8333 37.5,81.1667 37.5,77.5C 38.9778,77.762 40.3112,77.4287 41.5,76.5C 42.6513,72.5773 43.4846,68.5773 44,64.5C 54.4445,58.2523 65.6112,53.5856 77.5,50.5 Z"/></g>
<g><path style="opacity:1" fill="#fcf4da" d="M 94.5,64.5 C 95.1495,66.4352 95.4828,68.4352 95.5,70.5C 94.8333,70.5 94.1667,70.5 93.5,70.5C 92.6942,69.0028 92.0276,67.3361 91.5,65.5C 92.325,64.6143 93.325,64.281 94.5,64.5 Z"/></g>
<g><path style="opacity:1" fill="#cbcbcb" d="M 114.5,63.5 C 116.824,70.5054 114.491,72.8388 107.5,70.5C 105.97,69.9332 104.47,69.2666 103,68.5C 102.503,65.854 102.336,63.1873 102.5,60.5C 102.735,59.9033 103.235,59.5699 104,59.5C 107.37,61.2722 110.87,62.6055 114.5,63.5 Z"/></g>
<g><path style="opacity:1" fill="#060504" d="M 100.5,60.5 C 101.167,60.5 101.833,60.5 102.5,60.5C 102.336,63.1873 102.503,65.854 103,68.5C 104.47,69.2666 105.97,69.9332 107.5,70.5C 111.522,72.7339 115.856,74.4005 120.5,75.5C 121.889,81.5559 125.223,86.2226 130.5,89.5C 131.261,90.3909 132.261,91.0576 133.5,91.5C 134.747,99.8239 133.747,107.824 130.5,115.5C 129.787,118.594 128.787,121.594 127.5,124.5C 125.6,126.619 123.934,128.953 122.5,131.5C 119.5,134.167 116.5,136.833 113.5,139.5C 110.109,141.615 106.609,143.615 103,145.5C 102.502,148.482 102.335,151.482 102.5,154.5C 101.833,151.833 101.167,149.167 100.5,146.5C 97.5373,144.214 94.204,142.381 90.5,141C 87.2975,137.629 83.9641,134.462 80.5,131.5C 73.0641,119.269 69.0641,105.936 68.5,91.5C 70.4261,90.5139 72.4261,89.5139 74.5,88.5C 77.3231,87.0077 78.9898,84.6743 79.5,81.5C 79.8333,81.5 80.1667,81.5 80.5,81.5C 81.5783,79.4606 82.5783,77.294 83.5,75C 85.4357,74.187 87.4357,73.687 89.5,73.5C 93.1101,72.2967 96.7768,71.2967 100.5,70.5C 100.5,67.1667 100.5,63.8333 100.5,60.5 Z"/></g>
<g><path style="opacity:1" fill="#784d21" d="M 96.5,61.5 C 97.5676,60.5655 98.901,60.2322 100.5,60.5C 100.5,63.8333 100.5,67.1667 100.5,70.5C 96.7768,71.2967 93.1101,72.2967 89.5,73.5C 89.5,73.1667 89.5,72.8333 89.5,72.5C 90.1667,72.1667 90.8333,71.8333 91.5,71.5C 92.4916,71.6716 93.1583,71.3382 93.5,70.5C 94.1667,70.5 94.8333,70.5 95.5,70.5C 96.7079,69.7659 98.0413,69.4326 99.5,69.5C 99.5,66.8333 99.5,64.1667 99.5,61.5C 98.5,61.5 97.5,61.5 96.5,61.5 Z"/></g>
<g><path style="opacity:1" fill="#f2ea56" d="M 152.5,76.5 C 153.055,72.9878 152.388,69.9878 150.5,67.5C 149.942,66.2101 148.942,65.3768 147.5,65C 150.018,63.8014 152.518,62.6347 155,61.5C 158.082,61.7485 159.582,63.4151 159.5,66.5C 161.911,66.8633 163.411,65.8633 164,63.5C 164.499,67.4862 164.666,71.4862 164.5,75.5C 162.857,75.4802 161.524,76.1468 160.5,77.5C 159.201,76.91 158.368,75.91 158,74.5C 156.416,75.8613 154.582,76.528 152.5,76.5 Z"/></g>
<g><path style="opacity:1" fill="#f9b824" d="M 86.5,65.5 C 89.5428,66.2049 91.2095,68.2049 91.5,71.5C 90.8333,71.8333 90.1667,72.1667 89.5,72.5C 85.452,71.7378 84.452,69.4045 86.5,65.5 Z"/></g>
<g><path style="opacity:1" fill="#c3c3c2" d="M 129.5,73.5 C 130.167,76.844 131.834,79.5106 134.5,81.5C 134.548,84.2919 133.215,86.1253 130.5,87C 132.842,88.3919 132.842,89.2252 130.5,89.5C 125.223,86.2226 121.889,81.5559 120.5,75.5C 122.199,72.8037 124.533,70.8037 127.5,69.5C 128.172,70.9492 128.839,72.2825 129.5,73.5 Z"/></g>
<g><path style="opacity:1" fill="#7b7c79" d="M 114.5,63.5 C 119.146,65.1529 123.812,66.8195 128.5,68.5C 129.452,70.0453 129.785,71.712 129.5,73.5C 128.839,72.2825 128.172,70.9492 127.5,69.5C 124.533,70.8037 122.199,72.8037 120.5,75.5C 115.856,74.4005 111.522,72.7339 107.5,70.5C 114.491,72.8388 116.824,70.5054 114.5,63.5 Z"/></g>
<g><path style="opacity:1" fill="#f4c047" d="M 80.5,81.5 C 80.1667,81.5 79.8333,81.5 79.5,81.5C 77.4202,79.4268 75.7536,77.0934 74.5,74.5C 74.3691,73.6236 74.7025,72.9569 75.5,72.5C 79.3405,74.3303 81.0072,77.3303 80.5,81.5 Z"/></g>
<g><path style="opacity:1" fill="#c37a11" d="M 85.5,65.5 C 85.8333,65.5 86.1667,65.5 86.5,65.5C 84.452,69.4045 85.452,71.7378 89.5,72.5C 89.5,72.8333 89.5,73.1667 89.5,73.5C 87.4357,73.687 85.4357,74.187 83.5,75C 82.5783,77.294 81.5783,79.4606 80.5,81.5C 81.0072,77.3303 79.3405,74.3303 75.5,72.5C 74.7025,72.9569 74.3691,73.6236 74.5,74.5C 74.1667,74.5 73.8333,74.5 73.5,74.5C 73.2606,72.5328 73.5939,70.6995 74.5,69C 78.0207,67.3262 81.6873,66.1596 85.5,65.5 Z"/></g>
<g><path style="opacity:1" fill="#606220" d="M 51.5,67.5 C 50.5343,75.0804 50.201,82.747 50.5,90.5C 50.1667,90.5 49.8333,90.5 49.5,90.5C 49.5,84.5 49.5,78.5 49.5,72.5C 49.0773,70.2188 49.744,68.5521 51.5,67.5 Z"/></g>
<g><path style="opacity:1" fill="#e0d147" d="M 49.5,72.5 C 49.5,78.5 49.5,84.5 49.5,90.5C 49.5,92.5 49.5,94.5 49.5,96.5C 48.2794,97.0283 47.1127,97.695 46,98.5C 45.829,103.533 45.329,108.533 44.5,113.5C 43.5832,114.127 42.5832,114.461 41.5,114.5C 41.5,113.833 41.1667,113.5 40.5,113.5C 40.4828,111.435 40.1495,109.435 39.5,107.5C 39.3347,103.818 39.5014,100.152 40,96.5C 41,95.8333 42,95.1667 43,94.5C 43.3333,87.8333 43.6667,81.1667 44,74.5C 44.227,71.9405 45.5603,70.2738 48,69.5C 48.2321,70.7375 48.7321,71.7375 49.5,72.5 Z"/></g>
<g><path style="opacity:1" fill="#f5e0b1" d="M 73.5,74.5 C 73.8333,74.5 74.1667,74.5 74.5,74.5C 75.7536,77.0934 77.4202,79.4268 79.5,81.5C 78.9898,84.6743 77.3231,87.0077 74.5,88.5C 74.762,87.0222 74.4287,85.6888 73.5,84.5C 72.265,83.6602 71.265,82.6602 70.5,81.5C 71.758,79.3131 72.758,76.9798 73.5,74.5 Z"/></g>
<g><path style="opacity:1" fill="#e69a22" d="M 70.5,81.5 C 71.265,82.6602 72.265,83.6602 73.5,84.5C 74.4287,85.6888 74.762,87.0222 74.5,88.5C 72.4261,89.5139 70.4261,90.5139 68.5,91.5C 67.596,92.209 67.2627,93.209 67.5,94.5C 65.1667,94.5 62.8333,94.5 60.5,94.5C 60.5,90.8333 60.5,87.1667 60.5,83.5C 63.8774,83.0405 67.2107,82.3739 70.5,81.5 Z"/></g>
<g><path style="opacity:1" fill="#eeeae7" d="M 100.5,94.5 C 100.5,97.1667 100.5,99.8333 100.5,102.5C 104.833,102.5 109.167,102.5 113.5,102.5C 113.5,105.167 113.5,107.833 113.5,110.5C 108.833,110.5 104.167,110.5 99.5,110.5C 99.5,116.167 99.5,121.833 99.5,127.5C 96.8333,127.5 94.1667,127.5 91.5,127.5C 91.5,113.833 91.5,100.167 91.5,86.5C 99.1667,86.5 106.833,86.5 114.5,86.5C 114.5,88.8333 114.5,91.1667 114.5,93.5C 109.637,93.1805 104.97,93.5139 100.5,94.5 Z"/></g>
<g><path style="opacity:1" fill="#ccccca" d="M 143.5,84.5 C 143.5,90.1667 143.5,95.8333 143.5,101.5C 140.794,101.425 138.127,101.092 135.5,100.5C 133.317,92.463 135.984,87.1297 143.5,84.5 Z"/></g>
<g><path style="opacity:1" fill="#918f8d" d="M 100.5,94.5 C 104.97,93.5139 109.637,93.1805 114.5,93.5C 114.5,91.1667 114.5,88.8333 114.5,86.5C 106.833,86.5 99.1667,86.5 91.5,86.5C 91.5,100.167 91.5,113.833 91.5,127.5C 94.1667,127.5 96.8333,127.5 99.5,127.5C 99.5,121.833 99.5,116.167 99.5,110.5C 104.167,110.5 108.833,110.5 113.5,110.5C 109.366,111.485 105.032,111.818 100.5,111.5C 100.5,117.167 100.5,122.833 100.5,128.5C 97.1667,128.5 93.8333,128.5 90.5,128.5C 90.5,114.167 90.5,99.8333 90.5,85.5C 98.8333,85.5 107.167,85.5 115.5,85.5C 115.5,88.5 115.5,91.5 115.5,94.5C 110.5,94.5 105.5,94.5 100.5,94.5 Z"/></g>
<g><path style="opacity:1" fill="#986d0a" d="M 150.5,67.5 C 152.388,69.9878 153.055,72.9878 152.5,76.5C 152.5,81.5 152.5,86.5 152.5,91.5C 155.957,90.7738 159.29,90.7738 162.5,91.5C 163.869,89.2361 164.869,86.9028 165.5,84.5C 165.099,92.0462 164.099,99.3796 162.5,106.5C 162.657,105.127 162.49,103.793 162,102.5C 160.267,104.602 158.267,104.935 156,103.5C 154.846,104.743 153.512,105.743 152,106.5C 151.422,109.572 150.255,112.239 148.5,114.5C 151.588,98.9083 152.255,83.2417 150.5,67.5 Z"/></g>
<g><path style="opacity:1" fill="#6b6b68" d="M 134.5,81.5 C 137.929,81.7694 140.929,82.7694 143.5,84.5C 135.984,87.1297 133.317,92.463 135.5,100.5C 138.127,101.092 140.794,101.425 143.5,101.5C 142.362,106.091 141.529,110.757 141,115.5C 140.617,116.056 140.117,116.389 139.5,116.5C 139.631,115.624 139.298,114.957 138.5,114.5C 135.916,115.393 133.249,115.726 130.5,115.5C 133.747,107.824 134.747,99.8239 133.5,91.5C 132.261,91.0576 131.261,90.3909 130.5,89.5C 132.842,89.2252 132.842,88.3919 130.5,87C 133.215,86.1253 134.548,84.2919 134.5,81.5 Z"/></g>
<g><path style="opacity:1" fill="#b48c1a" d="M 162.5,106.5 C 162.768,108.099 162.434,109.432 161.5,110.5C 161.649,109.448 161.483,108.448 161,107.5C 157.107,110.865 152.94,113.865 148.5,116.5C 148.5,115.833 148.5,115.167 148.5,114.5C 150.255,112.239 151.422,109.572 152,106.5C 153.512,105.743 154.846,104.743 156,103.5C 158.267,104.935 160.267,104.602 162,102.5C 162.49,103.793 162.657,105.127 162.5,106.5 Z"/></g>
<g><path style="opacity:1" fill="#c5a529" d="M 49.5,96.5 C 49.5,98.8333 49.5,101.167 49.5,103.5C 48.5,103.5 47.5,103.5 46.5,103.5C 46.6659,108.511 46.4993,113.511 46,118.5C 44.9887,119.337 43.8221,119.67 42.5,119.5C 42.3713,117.784 42.038,116.117 41.5,114.5C 42.5832,114.461 43.5832,114.127 44.5,113.5C 45.329,108.533 45.829,103.533 46,98.5C 47.1127,97.695 48.2794,97.0283 49.5,96.5 Z"/></g>
<g><path style="opacity:1" fill="#9f7711" d="M 49.5,90.5 C 49.8333,90.5 50.1667,90.5 50.5,90.5C 50.5439,102.63 52.8773,114.296 57.5,125.5C 56.168,123.868 54.8347,122.201 53.5,120.5C 50.8941,122.418 49.8941,125.084 50.5,128.5C 49.5,128.5 48.5,128.5 47.5,128.5C 47.5,129.5 47.5,130.5 47.5,131.5C 46.5028,131.53 45.8361,131.03 45.5,130C 43.3793,124.604 41.7126,119.104 40.5,113.5C 41.1667,113.5 41.5,113.833 41.5,114.5C 42.038,116.117 42.3713,117.784 42.5,119.5C 43.8221,119.67 44.9887,119.337 46,118.5C 46.4993,113.511 46.6659,108.511 46.5,103.5C 47.5,103.5 48.5,103.5 49.5,103.5C 49.5,101.167 49.5,98.8333 49.5,96.5C 49.5,94.5 49.5,92.5 49.5,90.5 Z"/></g>
<g><path style="opacity:1" fill="#585013" d="M 148.5,114.5 C 148.5,115.167 148.5,115.833 148.5,116.5C 147.917,119.947 146.584,122.947 144.5,125.5C 145.462,121.605 146.796,117.939 148.5,114.5 Z"/></g>
<g><path style="opacity:1" fill="#c46f13" d="M 60.5,83.5 C 60.5,87.1667 60.5,90.8333 60.5,94.5C 62.8333,94.5 65.1667,94.5 67.5,94.5C 67.2627,93.209 67.596,92.209 68.5,91.5C 69.0641,105.936 73.0641,119.269 80.5,131.5C 76.8008,128.997 74.1341,129.997 72.5,134.5C 65.0921,123.445 60.9254,111.112 60,97.5C 59.1849,92.6478 59.3516,87.9811 60.5,83.5 Z"/></g>
<g><path style="opacity:1" fill="#c8b134" d="M 161.5,110.5 C 161.324,113.727 160.657,116.727 159.5,119.5C 159.785,117.712 159.452,116.045 158.5,114.5C 154.761,117.072 151.928,120.405 150,124.5C 148.333,125.5 146.667,126.5 145,127.5C 144.108,130.284 142.942,132.95 141.5,135.5C 141.709,136.086 142.043,136.586 142.5,137C 140.422,138.077 138.422,139.243 136.5,140.5C 139.409,135.686 142.075,130.686 144.5,125.5C 146.584,122.947 147.917,119.947 148.5,116.5C 152.94,113.865 157.107,110.865 161,107.5C 161.483,108.448 161.649,109.448 161.5,110.5 Z"/></g>
<g><path style="opacity:1" fill="#c1c1c2" d="M 139.5,116.5 C 138.607,120.613 136.94,124.28 134.5,127.5C 133.191,124.01 130.857,123.01 127.5,124.5C 128.787,121.594 129.787,118.594 130.5,115.5C 133.249,115.726 135.916,115.393 138.5,114.5C 139.298,114.957 139.631,115.624 139.5,116.5 Z"/></g>
<g><path style="opacity:1" fill="#c4a72c" d="M 57.5,125.5 C 58.1667,127.167 58.8333,128.833 59.5,130.5C 58.5416,130.047 57.7083,129.381 57,128.5C 55.9887,129.337 54.8221,129.67 53.5,129.5C 53.5,131.167 53.5,132.833 53.5,134.5C 52.5,134.5 51.5,134.5 50.5,134.5C 50.5,135.5 50.5,136.5 50.5,137.5C 48.9925,135.819 47.9925,133.819 47.5,131.5C 47.5,130.5 47.5,129.5 47.5,128.5C 48.5,128.5 49.5,128.5 50.5,128.5C 49.8941,125.084 50.8941,122.418 53.5,120.5C 54.8347,122.201 56.168,123.868 57.5,125.5 Z"/></g>
<g><path style="opacity:1" fill="#dadad9" d="M 134.5,127.5 C 133.274,131.62 131.274,135.287 128.5,138.5C 126.223,137.021 123.89,135.521 121.5,134C 122.252,133.329 122.586,132.496 122.5,131.5C 123.934,128.953 125.6,126.619 127.5,124.5C 130.857,123.01 133.191,124.01 134.5,127.5 Z"/></g>
<g><path style="opacity:1" fill="#a2a2a0" d="M 122.5,131.5 C 122.586,132.496 122.252,133.329 121.5,134C 123.89,135.521 126.223,137.021 128.5,138.5C 127.5,140.167 126.167,141.5 124.5,142.5C 121.791,141.987 119.291,140.987 117,139.5C 115.739,139.759 114.739,140.426 114,141.5C 113.536,140.906 113.369,140.239 113.5,139.5C 116.5,136.833 119.5,134.167 122.5,131.5 Z"/></g>
<g><path style="opacity:1" fill="#ebe252" d="M 159.5,119.5 C 159.067,122.166 158.567,124.832 158,127.5C 155.318,130.865 153.151,134.531 151.5,138.5C 150.448,138.351 149.448,138.517 148.5,139C 147.109,141.39 145.109,143.057 142.5,144C 137.019,149.315 131.685,154.815 126.5,160.5C 118.673,166.144 110.673,171.644 102.5,177C 100.674,177.292 98.8405,177.125 97,176.5C 95.1348,176.706 93.4681,177.372 92,178.5C 91.5,178.333 91,178.167 90.5,178C 91.8663,175.562 91.3663,175.062 89,176.5C 87.5936,175.586 86.0936,174.92 84.5,174.5C 82.9731,174.573 81.9731,173.906 81.5,172.5C 80.7101,171.206 79.7101,170.039 78.5,169C 79.6721,168.581 80.6721,167.915 81.5,167C 86.0786,167.483 90.4119,167.316 94.5,166.5C 95.9733,167.072 97.3066,167.905 98.5,169C 99.8333,169.667 101.167,169.667 102.5,169C 115.24,161.137 126.573,151.637 136.5,140.5C 138.422,139.243 140.422,138.077 142.5,137C 142.043,136.586 141.709,136.086 141.5,135.5C 142.942,132.95 144.108,130.284 145,127.5C 146.667,126.5 148.333,125.5 150,124.5C 151.928,120.405 154.761,117.072 158.5,114.5C 159.452,116.045 159.785,117.712 159.5,119.5 Z"/></g>
<g><path style="opacity:1" fill="#ed9d3d" d="M 80.5,131.5 C 83.9641,134.462 87.2975,137.629 90.5,141C 94.204,142.381 97.5373,144.214 100.5,146.5C 100.5,149.167 100.5,151.833 100.5,154.5C 88.6924,151.368 79.3591,144.701 72.5,134.5C 74.1341,129.997 76.8008,128.997 80.5,131.5 Z"/></g>
<g><path style="opacity:1" fill="#5b5b57" d="M 113.5,139.5 C 113.369,140.239 113.536,140.906 114,141.5C 114.739,140.426 115.739,139.759 117,139.5C 119.291,140.987 121.791,141.987 124.5,142.5C 118.36,148.629 111.027,152.629 102.5,154.5C 102.335,151.482 102.502,148.482 103,145.5C 106.609,143.615 110.109,141.615 113.5,139.5 Z"/></g>
<g><path style="opacity:1" fill="#e5d84a" d="M 59.5,130.5 C 61.8899,133.566 63.8899,136.9 65.5,140.5C 66.3657,142.144 66.8657,143.811 67,145.5C 64.4272,146.806 62.0939,148.473 60,150.5C 59.3292,149.748 58.4959,149.414 57.5,149.5C 54.6503,145.801 52.317,141.801 50.5,137.5C 50.5,136.5 50.5,135.5 50.5,134.5C 51.5,134.5 52.5,134.5 53.5,134.5C 53.5,132.833 53.5,131.167 53.5,129.5C 54.8221,129.67 55.9887,129.337 57,128.5C 57.7083,129.381 58.5416,130.047 59.5,130.5 Z"/></g>
<g><path style="opacity:1" fill="#cbb434" d="M 65.5,140.5 C 67.6326,142.091 69.2993,144.091 70.5,146.5C 70.4142,147.496 70.7476,148.329 71.5,149C 67.9331,150.111 64.5998,151.611 61.5,153.5C 59.8333,152.5 58.5,151.167 57.5,149.5C 58.4959,149.414 59.3292,149.748 60,150.5C 62.0939,148.473 64.4272,146.806 67,145.5C 66.8657,143.811 66.3657,142.144 65.5,140.5 Z"/></g>
<g><path style="opacity:1" fill="#b08a1a" d="M 70.5,146.5 C 72.8333,148.167 74.8333,150.167 76.5,152.5C 76.4142,153.496 76.7476,154.329 77.5,155C 75.2852,156.044 72.9519,156.71 70.5,157C 69.9535,157.925 69.2868,158.758 68.5,159.5C 67.5832,158.873 66.5832,158.539 65.5,158.5C 63.4131,157.415 62.0798,155.749 61.5,153.5C 64.5998,151.611 67.9331,150.111 71.5,149C 70.7476,148.329 70.4142,147.496 70.5,146.5 Z"/></g>
<g><path style="opacity:1" fill="#bc9922" d="M 151.5,138.5 C 148.554,144.071 144.888,149.071 140.5,153.5C 140.44,152.957 140.107,152.624 139.5,152.5C 135.568,155.91 131.235,158.577 126.5,160.5C 131.685,154.815 137.019,149.315 142.5,144C 145.109,143.057 147.109,141.39 148.5,139C 149.448,138.517 150.448,138.351 151.5,138.5 Z"/></g>
<g><path style="opacity:1" fill="#d4d6c8" d="M 27.5,157.5 C 29.914,158.911 31.5806,160.911 32.5,163.5C 30.086,162.089 28.4194,160.089 27.5,157.5 Z"/></g>
<g><path style="opacity:1" fill="#9a6c08" d="M 76.5,152.5 C 79.5256,155.195 82.5256,157.862 85.5,160.5C 82.1542,161.003 78.8208,161.67 75.5,162.5C 74.7542,163.736 74.4208,165.07 74.5,166.5C 70.8998,164.57 67.8998,161.903 65.5,158.5C 66.5832,158.539 67.5832,158.873 68.5,159.5C 69.2868,158.758 69.9535,157.925 70.5,157C 72.9519,156.71 75.2852,156.044 77.5,155C 76.7476,154.329 76.4142,153.496 76.5,152.5 Z"/></g>
<g><path style="opacity:1" fill="#f2f1c3" d="M 32.5,163.5 C 34.5,164.833 36.1667,166.5 37.5,168.5C 34.8333,167.833 33.1667,166.167 32.5,163.5 Z"/></g>
<g><path style="opacity:1" fill="#bea029" d="M 85.5,160.5 C 88.7089,162.265 91.7089,164.265 94.5,166.5C 90.4119,167.316 86.0786,167.483 81.5,167C 80.6721,167.915 79.6721,168.581 78.5,169C 79.7101,170.039 80.7101,171.206 81.5,172.5C 78.5726,171.243 76.2393,169.243 74.5,166.5C 74.4208,165.07 74.7542,163.736 75.5,162.5C 78.8208,161.67 82.1542,161.003 85.5,160.5 Z"/></g>
<g><path style="opacity:1" fill="#a4a89c" d="M 37.5,168.5 C 40.0892,169.419 42.0892,171.086 43.5,173.5C 40.9108,172.581 38.9108,170.914 37.5,168.5 Z"/></g>
<g><path style="opacity:1" fill="#9e6f09" d="M 140.5,153.5 C 138.085,157.422 135.085,160.922 131.5,164C 122.364,171.734 112.697,178.734 102.5,185C 100.465,185.599 98.7985,185.099 97.5,183.5C 104.891,178.758 112.225,173.925 119.5,169C 122.426,166.604 124.76,163.77 126.5,160.5C 131.235,158.577 135.568,155.91 139.5,152.5C 140.107,152.624 140.44,152.957 140.5,153.5 Z"/></g>
<g><path style="opacity:1" fill="#909588" d="M 43.5,173.5 C 45.4044,173.738 46.7377,174.738 47.5,176.5C 45.5956,176.262 44.2623,175.262 43.5,173.5 Z"/></g>
<g><path style="opacity:1" fill="#959a8d" d="M 47.5,176.5 C 49.0269,176.427 50.0269,177.094 50.5,178.5C 48.9731,178.573 47.9731,177.906 47.5,176.5 Z"/></g>
<g><path style="opacity:1" fill="#b38e1d" d="M 126.5,160.5 C 124.76,163.77 122.426,166.604 119.5,169C 112.225,173.925 104.891,178.758 97.5,183.5C 92.6063,181.227 88.273,178.227 84.5,174.5C 86.0936,174.92 87.5936,175.586 89,176.5C 91.3663,175.062 91.8663,175.562 90.5,178C 91,178.167 91.5,178.333 92,178.5C 93.4681,177.372 95.1348,176.706 97,176.5C 98.8405,177.125 100.674,177.292 102.5,177C 110.673,171.644 118.673,166.144 126.5,160.5 Z"/></g>
<g><path style="opacity:1" fill="#9ca08f" d="M 50.5,178.5 C 52.0269,178.427 53.0269,179.094 53.5,180.5C 51.9731,180.573 50.9731,179.906 50.5,178.5 Z"/></g>
<g><path style="opacity:1" fill="#aaae98" d="M 55.5,181.5 C 57.0269,181.427 58.0269,182.094 58.5,183.5C 56.9731,183.573 55.9731,182.906 55.5,181.5 Z"/></g>
<g><path style="opacity:1" fill="#7a8069" d="M 70.5,188.5 C 73.1522,188.41 75.4855,189.076 77.5,190.5C 74.8478,190.59 72.5145,189.924 70.5,188.5 Z"/></g>
</svg>
