<?xml version="1.0" encoding="UTF-8"?>
<!DOCTYPE svg PUBLIC "-//W3C//DTD SVG 1.1//EN" "http://www.w3.org/Graphics/SVG/1.1/DTD/svg11.dtd">
<svg xmlns="http://www.w3.org/2000/svg" version="1.1" width="96px" height="96px" style="shape-rendering:geometricPrecision; text-rendering:geometricPrecision; image-rendering:optimizeQuality; fill-rule:evenodd; clip-rule:evenodd" xmlns:xlink="http://www.w3.org/1999/xlink">
<g><path style="opacity:0.955" fill="#2a76ca" d="M 36.5,-0.5 C 43.8333,-0.5 51.1667,-0.5 58.5,-0.5C 77.5789,5.57915 89.9123,18.2458 95.5,37.5C 95.5,44.1667 95.5,50.8333 95.5,57.5C 89.9123,76.7542 77.5789,89.4209 58.5,95.5C 51.1667,95.5 43.8333,95.5 36.5,95.5C 17.5976,90.2645 5.26431,78.2645 -0.5,59.5C -0.5,51.5 -0.5,43.5 -0.5,35.5C 5.24693,16.7533 17.5803,4.75333 36.5,-0.5 Z"/></g>
<g><path style="opacity:1" fill="#f2f6fb" d="M 34.5,14.5 C 35.5,14.5 36.5,14.5 37.5,14.5C 37.5,16.1667 37.5,17.8333 37.5,19.5C 18.6045,28.6328 13.1045,42.9661 21,62.5C 25.1288,68.7964 30.6288,73.4631 37.5,76.5C 38.6309,78.0745 38.7975,79.7412 38,81.5C 37.4387,82.0219 36.772,82.3552 36,82.5C 17.36,74.2287 9.36,59.8954 12,39.5C 15.4938,27.5088 22.9938,19.1755 34.5,14.5 Z"/></g>
<g><path style="opacity:1" fill="#b3ceed" d="M 34.5,14.5 C 35.5676,13.5655 36.901,13.2322 38.5,13.5C 38.7947,15.7354 38.4614,17.7354 37.5,19.5C 37.5,17.8333 37.5,16.1667 37.5,14.5C 36.5,14.5 35.5,14.5 34.5,14.5 Z"/></g>
<g><path style="opacity:1" fill="#f1f6fb" d="M 56.5,13.5 C 75.5404,19.8805 84.3737,33.2138 83,53.5C 79.6165,68.3434 70.7832,78.0101 56.5,82.5C 56.3379,80.4727 56.5045,78.4727 57,76.5C 73.0851,69.3328 79.4184,56.9995 76,39.5C 72.7578,29.9238 66.4244,23.2571 57,19.5C 56.5045,17.5273 56.3379,15.5273 56.5,13.5 Z"/></g>
<g><path style="opacity:1" fill="#f1f5fb" d="M 44.5,24.5 C 46.5,24.5 48.5,24.5 50.5,24.5C 50.2011,26.604 50.5344,28.604 51.5,30.5C 56.1158,31.9325 58.6158,34.9325 59,39.5C 58.1074,40.0814 57.1074,40.4148 56,40.5C 53.8693,39.4598 52.036,37.9598 50.5,36C 47.8333,35.3333 45.1667,35.3333 42.5,36C 39.7348,38.9663 40.0682,41.633 43.5,44C 48.0556,44.1095 52.3889,45.1095 56.5,47C 62.7245,55.1728 61.0579,61.3394 51.5,65.5C 50.5344,67.396 50.2011,69.396 50.5,71.5C 48.5,71.5 46.5,71.5 44.5,71.5C 44.5,69.5 44.5,67.5 44.5,65.5C 37.8333,64.8333 34.1667,61.1667 33.5,54.5C 35.5273,54.3379 37.5273,54.5045 39.5,55C 40.13,56.892 41.13,58.5587 42.5,60C 46.3169,61.0234 49.8169,60.5234 53,58.5C 53.7581,56.2305 53.5914,54.0639 52.5,52C 48.5733,50.7884 44.5733,49.7884 40.5,49C 34.5333,45.6076 33.0333,40.7742 36,34.5C 38.1413,31.6792 40.9746,30.3459 44.5,30.5C 44.5,28.5 44.5,26.5 44.5,24.5 Z"/></g>
</svg>
