<?xml version="1.0" encoding="UTF-8"?>
<!DOCTYPE svg PUBLIC "-//W3C//DTD SVG 1.1//EN" "http://www.w3.org/Graphics/SVG/1.1/DTD/svg11.dtd">
<svg xmlns="http://www.w3.org/2000/svg" version="1.1" width="230px" height="230px" style="shape-rendering:geometricPrecision; text-rendering:geometricPrecision; image-rendering:optimizeQuality; fill-rule:evenodd; clip-rule:evenodd" xmlns:xlink="http://www.w3.org/1999/xlink">
<g><path style="opacity:0.988" fill="#443556" d="M 96.5,-0.5 C 108.5,-0.5 120.5,-0.5 132.5,-0.5C 186.496,10.163 218.83,42.4963 229.5,96.5C 229.5,108.5 229.5,120.5 229.5,132.5C 218.833,186.5 186.5,218.833 132.5,229.5C 120.5,229.5 108.5,229.5 96.5,229.5C 87.0002,228.092 77.6669,225.592 68.5,222C 59.6206,217.3 50.9539,212.3 42.5,207C 35.0518,200.885 28.2184,194.052 22,186.5C 19.0568,182.949 16.8901,178.949 15.5,174.5C 12.6151,166.292 9.28179,158.292 5.5,150.5C 3.58006,140.337 1.58006,130.337 -0.5,120.5C -0.5,112.5 -0.5,104.5 -0.5,96.5C 5.03726,63.5307 21.0373,37.364 47.5,18C 62.6026,8.35775 78.9359,2.19109 96.5,-0.5 Z"/></g>
<g><path style="opacity:1" fill="#948c9f" d="M 126.5,8.5 C 107.098,7.40071 88.4316,10.4007 70.5,17.5C 72.6737,15.9186 75.0071,14.4186 77.5,13C 93.6484,7.77157 109.982,6.27157 126.5,8.5 Z"/></g>
<g><path style="opacity:1" fill="#433454" d="M 102.5,13.5 C 142.916,10.7738 175.416,25.1072 200,56.5C 204.993,63.7393 208.493,71.7393 210.5,80.5C 210.784,87.7923 212.284,94.7923 215,101.5C 215.561,114.878 215.061,128.211 213.5,141.5C 213.657,142.873 213.49,144.207 213,145.5C 209.517,152.443 206.184,159.443 203,166.5C 197.286,173.375 191.786,180.375 186.5,187.5C 174.758,196.704 162.091,204.371 148.5,210.5C 141.071,211.584 133.738,213.084 126.5,215C 114.434,215.787 102.434,215.287 90.5,213.5C 85.062,212.193 79.7287,210.359 74.5,208C 72.1019,206.476 69.7686,204.976 67.5,203.5C 62.7317,199.909 58.0651,196.075 53.5,192C 52.2068,191.51 50.8734,191.343 49.5,191.5C 45.8333,187.167 41.8333,183.167 37.5,179.5C 33.5789,173.398 29.4122,167.398 25,161.5C 21.0611,151.413 17.8945,141.08 15.5,130.5C 14.7327,120.185 14.3994,109.852 14.5,99.5C 14.3284,98.5084 14.6618,97.8417 15.5,97.5C 16.7212,89.3227 18.8879,81.3227 22,73.5C 23.5819,69.0828 25.7485,65.0828 28.5,61.5C 37.462,49.5374 47.7954,38.8708 59.5,29.5C 66.3147,28.5552 72.648,26.5552 78.5,23.5C 78.281,22.325 78.6143,21.325 79.5,20.5C 81.0255,20.0057 82.3588,19.339 83.5,18.5C 90.0545,17.2793 96.3878,15.6127 102.5,13.5 Z"/></g>
<g><path style="opacity:1" fill="#7f758c" d="M 100.5,13.5 C 101.167,13.5 101.833,13.5 102.5,13.5C 96.3878,15.6127 90.0545,17.2793 83.5,18.5C 88.5531,15.1487 94.2197,13.482 100.5,13.5 Z"/></g>
<g><path style="opacity:1" fill="#635772" d="M 83.5,18.5 C 82.3588,19.339 81.0255,20.0057 79.5,20.5C 78.6143,21.325 78.281,22.325 78.5,23.5C 72.648,26.5552 66.3147,28.5552 59.5,29.5C 61.4006,27.2043 63.7339,25.371 66.5,24C 71.9975,21.5814 77.6641,19.7481 83.5,18.5 Z"/></g>
<g><path style="opacity:1" fill="#7f7987" d="M 131.5,32.5 C 127.833,31.8333 124.167,31.1667 120.5,30.5C 120.334,35.1785 120.501,39.8452 121,44.5C 121.717,45.0442 122.217,45.7109 122.5,46.5C 121.504,46.5858 120.671,46.2524 120,45.5C 119.501,39.8431 119.334,34.1764 119.5,28.5C 123.784,29.2613 127.784,30.5947 131.5,32.5 Z"/></g>
<g><path style="opacity:1" fill="#eceaed" d="M 126.5,8.5 C 128.435,9.14952 130.435,9.48285 132.5,9.5C 132.611,10.1174 132.944,10.6174 133.5,11C 136.232,11.413 138.899,12.0797 141.5,13C 132.528,12.5079 123.528,12.0079 114.5,11.5C 110.5,11.6667 106.5,11.8333 102.5,12C 101.584,12.2784 100.918,12.7784 100.5,13.5C 94.2197,13.482 88.5531,15.1487 83.5,18.5C 77.6641,19.7481 71.9975,21.5814 66.5,24C 63.7339,25.371 61.4006,27.2043 59.5,29.5C 46.4516,37.5482 36.1183,48.2149 28.5,61.5C 26.9907,62.8595 26.324,62.3595 26.5,60C 26.7728,58.4672 27.1062,56.9672 27.5,55.5C 28.1667,54.1667 28.8333,52.8333 29.5,51.5C 38.1994,41.7998 47.5328,32.7998 57.5,24.5C 61.5924,21.95 65.9258,19.6167 70.5,17.5C 88.4316,10.4007 107.098,7.40071 126.5,8.5 Z"/></g>
<g><path style="opacity:1" fill="#958d9f" d="M 59.5,29.5 C 47.7954,38.8708 37.462,49.5374 28.5,61.5C 36.1183,48.2149 46.4516,37.5482 59.5,29.5 Z"/></g>
<g><path style="opacity:1" fill="#80768c" d="M 183.5,32.5 C 188.167,35.1667 191.833,38.8333 194.5,43.5C 190.5,40.1667 186.833,36.5 183.5,32.5 Z"/></g>
<g><path style="opacity:1" fill="#d6d3da" d="M 132.5,9.5 C 140.091,10.3638 147.424,12.1971 154.5,15C 159.747,17.6627 165.08,20.3294 170.5,23C 174.426,26.7641 178.759,29.9307 183.5,32.5C 186.833,36.5 190.5,40.1667 194.5,43.5C 198.46,47.3972 201.96,51.7305 205,56.5C 212.289,70.359 217.622,85.0256 221,100.5C 221.5,109.16 221.666,117.827 221.5,126.5C 218.178,138.416 214.511,150.416 210.5,162.5C 207.171,167.15 204.338,172.15 202,177.5C 200.281,180.288 198.115,182.621 195.5,184.5C 190.14,189.528 184.807,194.528 179.5,199.5C 177.429,201.1 175.095,201.6 172.5,201C 177.349,196.732 182.016,192.232 186.5,187.5C 191.786,180.375 197.286,173.375 203,166.5C 206.184,159.443 209.517,152.443 213,145.5C 213.49,144.207 213.657,142.873 213.5,141.5C 218.15,125.443 218.65,109.109 215,92.5C 214.162,88.1402 212.662,84.1402 210.5,80.5C 208.493,71.7393 204.993,63.7393 200,56.5C 175.416,25.1072 142.916,10.7738 102.5,13.5C 101.833,13.5 101.167,13.5 100.5,13.5C 100.918,12.7784 101.584,12.2784 102.5,12C 106.5,11.8333 110.5,11.6667 114.5,11.5C 123.528,12.0079 132.528,12.5079 141.5,13C 138.899,12.0797 136.232,11.413 133.5,11C 132.944,10.6174 132.611,10.1174 132.5,9.5 Z"/></g>
<g><path style="opacity:1" fill="#765445" d="M 108.5,31.5 C 106.739,32.3127 105.072,33.3127 103.5,34.5C 98.4908,35.5571 93.4908,36.7238 88.5,38C 86.6803,38.2004 85.347,39.0337 84.5,40.5C 83.1667,40.5 81.8333,40.5 80.5,40.5C 82.6723,39.1983 85.0056,38.0317 87.5,37C 94.5749,35.315 101.575,33.4817 108.5,31.5 Z"/></g>
<g><path style="opacity:1" fill="#c9831e" d="M 108.5,31.5 C 110.5,31.5 112.5,31.5 114.5,31.5C 114.5,36.5 114.5,41.5 114.5,46.5C 112.435,46.5172 110.435,46.8505 108.5,47.5C 112.155,43.9187 112.489,39.9187 109.5,35.5C 107.604,34.5344 105.604,34.2011 103.5,34.5C 105.072,33.3127 106.739,32.3127 108.5,31.5 Z"/></g>
<g><path style="opacity:1" fill="#b08448" d="M 103.5,34.5 C 103.167,35.1667 102.833,35.8333 102.5,36.5C 100.379,36.3253 98.3792,36.6586 96.5,37.5C 93.9902,37.9267 91.6568,38.5933 89.5,39.5C 88.209,39.2627 87.209,39.596 86.5,40.5C 85.8333,40.5 85.1667,40.5 84.5,40.5C 85.347,39.0337 86.6803,38.2004 88.5,38C 93.4908,36.7238 98.4908,35.5571 103.5,34.5 Z"/></g>
<g><path style="opacity:1" fill="#f8e8c0" d="M 102.5,36.5 C 104.5,40.1667 106.5,43.8333 108.5,47.5C 106.786,48.7384 104.786,49.405 102.5,49.5C 101.167,49.5 99.8333,49.5 98.5,49.5C 97.4066,45.6061 96.7399,41.6061 96.5,37.5C 98.3792,36.6586 100.379,36.3253 102.5,36.5 Z"/></g>
<g><path style="opacity:1" fill="#9e96a7" d="M 57.5,24.5 C 47.5328,32.7998 38.1994,41.7998 29.5,51.5C 34.524,43.9653 40.524,37.132 47.5,31C 50.4645,28.1903 53.7978,26.0236 57.5,24.5 Z"/></g>
<g><path style="opacity:1" fill="#f7ca5f" d="M 103.5,34.5 C 105.604,34.2011 107.604,34.5344 109.5,35.5C 112.489,39.9187 112.155,43.9187 108.5,47.5C 106.5,43.8333 104.5,40.1667 102.5,36.5C 102.833,35.8333 103.167,35.1667 103.5,34.5 Z"/></g>
<g><path style="opacity:1" fill="#b3b2b4" d="M 131.5,32.5 C 133.5,33.5 135.5,34.5 137.5,35.5C 135.167,35.5 132.833,35.5 130.5,35.5C 128.915,39.0108 128.415,42.6775 129,46.5C 131.365,47.2891 133.532,48.4558 135.5,50C 137.81,50.4966 140.143,50.6633 142.5,50.5C 142.851,46.6311 144.184,43.1311 146.5,40C 146.257,39.0979 145.923,38.2646 145.5,37.5C 149.834,37.5511 153.5,39.0511 156.5,42C 149.906,42.8648 147.239,46.5314 148.5,53C 145.493,53.3013 142.493,53.1346 139.5,52.5C 136.673,52.4162 134.006,51.7496 131.5,50.5C 129.102,48.0257 126.102,46.6924 122.5,46.5C 122.217,45.7109 121.717,45.0442 121,44.5C 120.501,39.8452 120.334,35.1785 120.5,30.5C 124.167,31.1667 127.833,31.8333 131.5,32.5 Z"/></g>
<g><path style="opacity:1" fill="#80533c" d="M 80.5,40.5 C 76.0574,43.5404 71.0574,45.207 65.5,45.5C 70.294,43.4118 75.294,41.7451 80.5,40.5 Z"/></g>
<g><path style="opacity:1" fill="#413152" d="M 131.5,50.5 C 134.006,51.7496 136.673,52.4162 139.5,52.5C 144.547,54.7673 149.88,56.434 155.5,57.5C 157.8,63.1001 160.467,68.4334 163.5,73.5C 165.5,76.1667 167.833,78.5 170.5,80.5C 171.058,81.7899 172.058,82.6232 173.5,83C 176.824,83.9428 180.157,84.7761 183.5,85.5C 183.5,89.1667 183.5,92.8333 183.5,96.5C 183.5,97.8333 183.5,99.1667 183.5,100.5C 182.753,108.476 180.587,116.143 177,123.5C 176.503,125.81 176.337,128.143 176.5,130.5C 174.556,134.802 172.556,139.136 170.5,143.5C 167.699,145.219 165.699,147.719 164.5,151C 163.552,151.483 162.552,151.649 161.5,151.5C 161.815,147.629 161.482,143.962 160.5,140.5C 160.008,138.181 159.008,136.181 157.5,134.5C 156.833,131.833 155.167,130.167 152.5,129.5C 152.027,128.094 151.027,127.427 149.5,127.5C 148.167,126.833 146.833,126.167 145.5,125.5C 145.179,123.952 144.179,123.285 142.5,123.5C 142.5,117.167 142.5,110.833 142.5,104.5C 133.833,104.5 125.167,104.5 116.5,104.5C 116.5,101.167 116.5,97.8333 116.5,94.5C 125.506,94.6664 134.506,94.4998 143.5,94C 144.833,87.6667 144.833,81.3333 143.5,75C 127.122,74.1818 110.789,74.3485 94.5,75.5C 93.5002,101.825 93.1669,128.158 93.5,154.5C 100.175,154.666 106.842,154.5 113.5,154C 114,153.5 114.5,153 115,152.5C 115.5,143.173 115.666,133.839 115.5,124.5C 122.022,124.177 128.355,124.51 134.5,125.5C 129.285,127.709 125.285,131.376 122.5,136.5C 121.322,139.541 120.655,142.708 120.5,146C 120.336,148.544 121.003,150.71 122.5,152.5C 123.167,154.167 123.833,155.833 124.5,157.5C 125.167,160.167 126.833,161.833 129.5,162.5C 129.973,163.906 130.973,164.573 132.5,164.5C 132.918,165.222 133.584,165.722 134.5,166C 139.202,166.172 143.868,166.672 148.5,167.5C 139.79,174.686 130.123,180.019 119.5,183.5C 114.696,182.139 109.696,181.139 104.5,180.5C 100.369,178.848 96.3691,177.014 92.5,175C 91.6195,174.292 90.9528,173.458 90.5,172.5C 88.1002,169.097 85.1002,166.43 81.5,164.5C 79.5,162.833 77.5,161.167 75.5,159.5C 70.3935,150.188 65.0602,141.188 59.5,132.5C 59.5225,124.9 57.6892,117.9 54,111.5C 52.5582,103.548 52.2249,95.5476 53,87.5C 55.6171,86.7807 57.7838,85.4474 59.5,83.5C 61.4044,83.2624 62.7377,82.2624 63.5,80.5C 63.8333,80.5 64.1667,80.5 64.5,80.5C 69.2251,78.1078 72.5584,74.4412 74.5,69.5C 76.4484,67.6796 77.4484,65.3462 77.5,62.5C 78.1667,61.5 78.8333,60.5 79.5,59.5C 90.8282,56.1137 102.161,52.6137 113.5,49C 114,48.5 114.5,48 115,47.5C 115.499,41.5092 115.666,35.5092 115.5,29.5C 113.139,29.6741 110.806,30.0074 108.5,30.5C 110.587,27.6692 113.254,27.0025 116.5,28.5C 117.33,34.1376 117.83,39.8042 118,45.5C 121.603,49.367 126.103,51.0337 131.5,50.5 Z"/></g>
<g><path style="opacity:1" fill="#d6d6d6" d="M 137.5,35.5 C 140.221,35.9628 142.888,36.6295 145.5,37.5C 145.923,38.2646 146.257,39.0979 146.5,40C 144.184,43.1311 142.851,46.6311 142.5,50.5C 140.143,50.6633 137.81,50.4966 135.5,50C 133.532,48.4558 131.365,47.2891 129,46.5C 128.415,42.6775 128.915,39.0108 130.5,35.5C 132.833,35.5 135.167,35.5 137.5,35.5 Z"/></g>
<g><path style="opacity:1" fill="#fad77f" d="M 96.5,37.5 C 96.7399,41.6061 97.4066,45.6061 98.5,49.5C 97.3285,50.3446 95.9952,51.0113 94.5,51.5C 93.8333,47.5 93.1667,43.5 92.5,39.5C 91.5,39.5 90.5,39.5 89.5,39.5C 91.6568,38.5933 93.9902,37.9267 96.5,37.5 Z"/></g>
<g><path style="opacity:1" fill="#7a757e" d="M 131.5,32.5 C 146.174,34.758 160.008,39.4246 173,46.5C 173.497,49.146 173.664,51.8127 173.5,54.5C 172.232,52.0948 171.565,49.4282 171.5,46.5C 169.315,46.7036 167.315,47.3702 165.5,48.5C 166.234,47.2921 166.567,45.9587 166.5,44.5C 162.446,43.8155 158.446,43.8155 154.5,44.5C 153.42,46.9962 152.086,49.3295 150.5,51.5C 151.722,53.9783 153.722,54.9783 156.5,54.5C 155.89,55.391 155.557,56.391 155.5,57.5C 149.88,56.434 144.547,54.7673 139.5,52.5C 142.493,53.1346 145.493,53.3013 148.5,53C 147.239,46.5314 149.906,42.8648 156.5,42C 153.5,39.0511 149.834,37.5511 145.5,37.5C 142.888,36.6295 140.221,35.9628 137.5,35.5C 135.5,34.5 133.5,33.5 131.5,32.5 Z"/></g>
<g><path style="opacity:1" fill="#f6b319" d="M 89.5,39.5 C 90.5,39.5 91.5,39.5 92.5,39.5C 93.1667,43.5 93.8333,47.5 94.5,51.5C 94.1583,52.3382 93.4916,52.6716 92.5,52.5C 90.396,52.7989 88.396,52.4656 86.5,51.5C 84.2561,47.6674 84.2561,44.0008 86.5,40.5C 87.209,39.596 88.209,39.2627 89.5,39.5 Z"/></g>
<g><path style="opacity:1" fill="#5f4246" d="M 79.5,59.5 C 87.3514,56.551 95.018,53.2177 102.5,49.5C 104.786,49.405 106.786,48.7384 108.5,47.5C 110.435,46.8505 112.435,46.5172 114.5,46.5C 114.5,41.5 114.5,36.5 114.5,31.5C 112.5,31.5 110.5,31.5 108.5,31.5C 108.5,31.1667 108.5,30.8333 108.5,30.5C 110.806,30.0074 113.139,29.6741 115.5,29.5C 115.666,35.5092 115.499,41.5092 115,47.5C 114.5,48 114,48.5 113.5,49C 102.161,52.6137 90.8282,56.1137 79.5,59.5 Z"/></g>
<g><path style="opacity:1" fill="#595955" d="M 165.5,48.5 C 162.013,49.7454 159.013,51.7454 156.5,54.5C 153.722,54.9783 151.722,53.9783 150.5,51.5C 152.086,49.3295 153.42,46.9962 154.5,44.5C 158.446,43.8155 162.446,43.8155 166.5,44.5C 166.567,45.9587 166.234,47.2921 165.5,48.5 Z"/></g>
<g><path style="opacity:1" fill="#c77913" d="M 80.5,40.5 C 81.8333,40.5 83.1667,40.5 84.5,40.5C 85.1667,40.5 85.8333,40.5 86.5,40.5C 84.2561,44.0008 84.2561,47.6674 86.5,51.5C 88.396,52.4656 90.396,52.7989 92.5,52.5C 87.9723,54.4039 83.3056,56.2372 78.5,58C 77.6198,59.3561 77.2865,60.8561 77.5,62.5C 77.4484,65.3462 76.4484,67.6796 74.5,69.5C 74.8333,68.1667 75.1667,66.8333 75.5,65.5C 75.6602,63.8008 75.4935,62.1341 75,60.5C 72.5,58 70,55.5 67.5,53C 66.5,52.3333 65.5,52.3333 64.5,53C 63.9152,54.3024 63.2485,55.469 62.5,56.5C 61.8075,52.2473 62.8075,48.5807 65.5,45.5C 71.0574,45.207 76.0574,43.5404 80.5,40.5 Z"/></g>
<g><path style="opacity:1" fill="#916237" d="M 98.5,49.5 C 99.8333,49.5 101.167,49.5 102.5,49.5C 95.018,53.2177 87.3514,56.551 79.5,59.5C 78.8333,60.5 78.1667,61.5 77.5,62.5C 77.2865,60.8561 77.6198,59.3561 78.5,58C 83.3056,56.2372 87.9723,54.4039 92.5,52.5C 93.4916,52.6716 94.1583,52.3382 94.5,51.5C 95.9952,51.0113 97.3285,50.3446 98.5,49.5 Z"/></g>
<g><path style="opacity:1" fill="#79594c" d="M 65.5,45.5 C 62.8075,48.5807 61.8075,52.2473 62.5,56.5C 60.8038,60.2178 58.8038,63.8845 56.5,67.5C 54.5,68.1667 52.5,68.8333 50.5,69.5C 52.5078,67.7324 54.6744,66.0657 57,64.5C 60.1466,58.9627 61.9799,52.9627 62.5,46.5C 63.4168,45.8728 64.4168,45.5394 65.5,45.5 Z"/></g>
<g><path style="opacity:1" fill="#d0ccd4" d="M 27.5,55.5 C 27.1062,56.9672 26.7728,58.4672 26.5,60C 26.324,62.3595 26.9907,62.8595 28.5,61.5C 25.7485,65.0828 23.5819,69.0828 22,73.5C 18.8879,81.3227 16.7212,89.3227 15.5,97.5C 15.9199,92.4884 16.0866,87.4884 16,82.5C 14.9066,85.3093 13.7399,87.976 12.5,90.5C 12.5,89.5 12.5,88.5 12.5,87.5C 14.2519,78.8384 17.0852,70.5051 21,62.5C 23.6295,60.5563 25.7961,58.223 27.5,55.5 Z"/></g>
<g><path style="opacity:1" fill="#f6c450" d="M 75.5,65.5 C 74.5416,65.9528 73.7083,66.6195 73,67.5C 70.7579,63.0808 67.2579,60.4141 62.5,59.5C 62.5,58.5 62.5,57.5 62.5,56.5C 63.2485,55.469 63.9152,54.3024 64.5,53C 65.5,52.3333 66.5,52.3333 67.5,53C 70,55.5 72.5,58 75,60.5C 75.4935,62.1341 75.6602,63.8008 75.5,65.5 Z"/></g>
<g><path style="opacity:1" fill="#c0c0c2" d="M 173.5,54.5 C 174.301,56.0418 174.634,57.7085 174.5,59.5C 170.439,61.0408 166.772,63.3741 163.5,66.5C 162.425,68.8111 162.425,71.1445 163.5,73.5C 160.467,68.4334 157.8,63.1001 155.5,57.5C 155.557,56.391 155.89,55.391 156.5,54.5C 159.013,51.7454 162.013,49.7454 165.5,48.5C 167.315,47.3702 169.315,46.7036 171.5,46.5C 171.565,49.4282 172.232,52.0948 173.5,54.5 Z"/></g>
<g><path style="opacity:1" fill="#e9e9e9" d="M 174.5,59.5 C 175.618,62.6275 175.451,65.6275 174,68.5C 172.167,70.3333 170.333,72.1667 168.5,74C 166.803,74.3845 165.137,74.2178 163.5,73.5C 162.425,71.1445 162.425,68.8111 163.5,66.5C 166.772,63.3741 170.439,61.0408 174.5,59.5 Z"/></g>
<g><path style="opacity:1" fill="#f6dea5" d="M 62.5,56.5 C 62.5,57.5 62.5,58.5 62.5,59.5C 67.2579,60.4141 70.7579,63.0808 73,67.5C 73.7083,66.6195 74.5416,65.9528 75.5,65.5C 75.1667,66.8333 74.8333,68.1667 74.5,69.5C 73.1667,70.5 71.8333,71.5 70.5,72.5C 68.7801,69.2689 66.4468,66.4356 63.5,64C 61.7627,63.3877 60.7627,64.0543 60.5,66C 62.6053,70.2882 65.9387,72.7882 70.5,73.5C 69.5,75.1667 68.1667,76.5 66.5,77.5C 63.4519,73.7852 60.1185,70.4518 56.5,67.5C 58.8038,63.8845 60.8038,60.2178 62.5,56.5 Z"/></g>
<g><path style="opacity:1" fill="#fcf5e0" d="M 70.5,72.5 C 70.5,72.8333 70.5,73.1667 70.5,73.5C 65.9387,72.7882 62.6053,70.2882 60.5,66C 60.7627,64.0543 61.7627,63.3877 63.5,64C 66.4468,66.4356 68.7801,69.2689 70.5,72.5 Z"/></g>
<g><path style="opacity:1" fill="#af7d3c" d="M 56.5,67.5 C 55.9002,68.8999 54.9002,69.8999 53.5,70.5C 47.3021,72.2986 40.9688,73.2986 34.5,73.5C 34.8333,72.8333 35.1667,72.1667 35.5,71.5C 40.6716,71.8175 45.6716,71.1508 50.5,69.5C 52.5,68.8333 54.5,68.1667 56.5,67.5 Z"/></g>
<g><path style="opacity:1" fill="#f9cb5b" d="M 56.5,67.5 C 60.1185,70.4518 63.4519,73.7852 66.5,77.5C 65.8333,78.5 65.1667,79.5 64.5,80.5C 64.1667,80.5 63.8333,80.5 63.5,80.5C 63.1667,80.5 62.8333,80.5 62.5,80.5C 60.5216,76.5216 57.5216,73.5216 53.5,71.5C 53.5,71.1667 53.5,70.8333 53.5,70.5C 54.9002,69.8999 55.9002,68.8999 56.5,67.5 Z"/></g>
<g><path style="opacity:1" fill="#f7b10e" d="M 53.5,71.5 C 57.5216,73.5216 60.5216,76.5216 62.5,80.5C 59.9272,81.5552 57.2605,81.7218 54.5,81C 51.9832,78.6506 49.6499,76.1506 47.5,73.5C 49.3043,72.2319 51.3043,71.5652 53.5,71.5 Z"/></g>
<g><path style="opacity:1" fill="#b1b0b1" d="M 174.5,59.5 C 176.544,62.3709 178.877,65.0375 181.5,67.5C 181.944,69.1132 182.944,70.2798 184.5,71C 180.76,72.2899 177.593,74.4565 175,77.5C 174.316,78.7839 174.483,79.9505 175.5,81C 173.803,81.3845 172.137,81.2178 170.5,80.5C 167.833,78.5 165.5,76.1667 163.5,73.5C 165.137,74.2178 166.803,74.3845 168.5,74C 170.333,72.1667 172.167,70.3333 174,68.5C 175.451,65.6275 175.618,62.6275 174.5,59.5 Z"/></g>
<g><path style="opacity:1" fill="#a48163" d="M 74.5,69.5 C 72.5584,74.4412 69.2251,78.1078 64.5,80.5C 65.1667,79.5 65.8333,78.5 66.5,77.5C 68.1667,76.5 69.5,75.1667 70.5,73.5C 70.5,73.1667 70.5,72.8333 70.5,72.5C 71.8333,71.5 73.1667,70.5 74.5,69.5 Z"/></g>
<g><path style="opacity:1" fill="#534662" d="M 145.5,125.5 C 141.833,125.5 138.167,125.5 134.5,125.5C 128.355,124.51 122.022,124.177 115.5,124.5C 115.666,133.839 115.5,143.173 115,152.5C 114.5,153 114,153.5 113.5,154C 106.842,154.5 100.175,154.666 93.5,154.5C 93.1669,128.158 93.5002,101.825 94.5,75.5C 110.789,74.3485 127.122,74.1818 143.5,75C 144.833,81.3333 144.833,87.6667 143.5,94C 134.506,94.4998 125.506,94.6664 116.5,94.5C 116.5,97.8333 116.5,101.167 116.5,104.5C 125.167,104.5 133.833,104.5 142.5,104.5C 142.5,110.833 142.5,117.167 142.5,123.5C 144.179,123.285 145.179,123.952 145.5,125.5 Z"/></g>
<g><path style="opacity:1" fill="#a49da8" d="M 114.5,106.5 C 113.176,101.433 113.176,96.266 114.5,91C 123.827,90.5002 133.161,90.3335 142.5,90.5C 142.5,86.1667 142.5,81.8333 142.5,77.5C 127.167,77.5 111.833,77.5 96.5,77.5C 96.5,102.167 96.5,126.833 96.5,151.5C 102.167,151.5 107.833,151.5 113.5,151.5C 107.69,152.49 101.69,152.823 95.5,152.5C 95.5,127.167 95.5,101.833 95.5,76.5C 111.5,76.5 127.5,76.5 143.5,76.5C 143.805,81.7616 143.471,86.9283 142.5,92C 133.173,92.4998 123.839,92.6665 114.5,92.5C 114.5,97.1667 114.5,101.833 114.5,106.5 Z"/></g>
<g><path style="opacity:1" fill="#686665" d="M 181.5,67.5 C 187.736,70.4124 194.236,72.4124 201,73.5C 201.822,81.3446 201.656,89.0113 200.5,96.5C 200.5,89.5 200.5,82.5 200.5,75.5C 199.448,75.3505 198.448,75.5172 197.5,76C 194.429,78.5184 191.429,81.0184 188.5,83.5C 187.833,83.5 187.167,83.5 186.5,83.5C 184.865,87.573 183.865,91.9063 183.5,96.5C 183.5,92.8333 183.5,89.1667 183.5,85.5C 180.157,84.7761 176.824,83.9428 173.5,83C 172.058,82.6232 171.058,81.7899 170.5,80.5C 172.137,81.2178 173.803,81.3845 175.5,81C 174.483,79.9505 174.316,78.7839 175,77.5C 177.593,74.4565 180.76,72.2899 184.5,71C 182.944,70.2798 181.944,69.1132 181.5,67.5 Z"/></g>
<g><path style="opacity:1" fill="#e39325" d="M 53.5,70.5 C 53.5,70.8333 53.5,71.1667 53.5,71.5C 51.3043,71.5652 49.3043,72.2319 47.5,73.5C 49.6499,76.1506 51.9832,78.6506 54.5,81C 57.2605,81.7218 59.9272,81.5552 62.5,80.5C 62.8333,80.5 63.1667,80.5 63.5,80.5C 62.7377,82.2624 61.4044,83.2624 59.5,83.5C 57.1667,84.1667 54.8333,84.8333 52.5,85.5C 51.5041,85.4142 50.6708,85.7476 50,86.5C 51.2836,93.2165 48.617,95.8832 42,94.5C 39.2228,94.3689 36.7228,93.7023 34.5,92.5C 34.5,86.1667 34.5,79.8333 34.5,73.5C 40.9688,73.2986 47.3021,72.2986 53.5,70.5 Z"/></g>
<g><path style="opacity:1" fill="#ebe7e4" d="M 114.5,106.5 C 122.984,107.493 131.651,107.826 140.5,107.5C 140.5,112.167 140.5,116.833 140.5,121.5C 131.5,121.5 122.5,121.5 113.5,121.5C 113.5,131.5 113.5,141.5 113.5,151.5C 107.833,151.5 102.167,151.5 96.5,151.5C 96.5,126.833 96.5,102.167 96.5,77.5C 111.833,77.5 127.167,77.5 142.5,77.5C 142.5,81.8333 142.5,86.1667 142.5,90.5C 133.161,90.3335 123.827,90.5002 114.5,91C 113.176,96.266 113.176,101.433 114.5,106.5 Z"/></g>
<g><path style="opacity:1" fill="#8e8599" d="M 12.5,87.5 C 12.5,88.5 12.5,89.5 12.5,90.5C 9.85407,101.966 8.85407,113.633 9.5,125.5C 7.98368,113.242 8.48368,100.908 11,88.5C 11.3826,87.944 11.8826,87.6107 12.5,87.5 Z"/></g>
<g><path style="opacity:1" fill="#665974" d="M 210.5,80.5 C 212.662,84.1402 214.162,88.1402 215,92.5C 218.65,109.109 218.15,125.443 213.5,141.5C 215.061,128.211 215.561,114.878 215,101.5C 212.284,94.7923 210.784,87.7923 210.5,80.5 Z"/></g>
<g><path style="opacity:1" fill="#c8c8c7" d="M 200.5,96.5 C 200.5,96.8333 200.5,97.1667 200.5,97.5C 199.069,98.7804 198.402,100.447 198.5,102.5C 193.968,102.926 189.801,101.926 186,99.5C 185.219,94.0833 185.385,88.7499 186.5,83.5C 187.167,83.5 187.833,83.5 188.5,83.5C 191.429,81.0184 194.429,78.5184 197.5,76C 198.448,75.5172 199.448,75.3505 200.5,75.5C 200.5,82.5 200.5,89.5 200.5,96.5 Z"/></g>
<g><path style="opacity:1" fill="#ececec" d="M 188.5,83.5 C 189.873,83.6567 191.207,83.49 192.5,83C 194.761,81.1871 197.095,79.6871 199.5,78.5C 199.79,84.561 199.457,90.561 198.5,96.5C 198.167,96.8333 197.833,97.1667 197.5,97.5C 194.169,95.4165 190.503,94.4165 186.5,94.5C 186.01,90.5128 186.676,86.8462 188.5,83.5 Z"/></g>
<g><path style="opacity:1" fill="#845232" d="M 35.5,71.5 C 35.1667,72.1667 34.8333,72.8333 34.5,73.5C 34.5,79.8333 34.5,86.1667 34.5,92.5C 35.1266,97.1408 35.4599,101.807 35.5,106.5C 32.6606,95.4656 31.8273,84.1323 33,72.5C 33.6708,71.7476 34.5041,71.4142 35.5,71.5 Z"/></g>
<g><path style="opacity:1" fill="#988f9e" d="M 114.5,106.5 C 123.5,106.5 132.5,106.5 141.5,106.5C 141.821,111.695 141.487,116.695 140.5,121.5C 140.5,116.833 140.5,112.167 140.5,107.5C 131.651,107.826 122.984,107.493 114.5,106.5 Z"/></g>
<g><path style="opacity:1" fill="#b05b0c" d="M 52.5,85.5 C 51.3703,92.7535 51.2036,100.087 52,107.5C 54.3949,115.394 56.5616,123.394 58.5,131.5C 57.8826,131.389 57.3826,131.056 57,130.5C 55.4141,125.903 54.0808,121.236 53,116.5C 48.0125,113.505 43.0125,110.505 38,107.5C 37.7368,111.835 37.9035,116.168 38.5,120.5C 36.4983,116.167 35.4983,111.5 35.5,106.5C 35.4599,101.807 35.1266,97.1408 34.5,92.5C 36.7228,93.7023 39.2228,94.3689 42,94.5C 48.617,95.8832 51.2836,93.2165 50,86.5C 50.6708,85.7476 51.5041,85.4142 52.5,85.5 Z"/></g>
<g><path style="opacity:1" fill="#9e9c9b" d="M 186.5,83.5 C 185.385,88.7499 185.219,94.0833 186,99.5C 189.801,101.926 193.968,102.926 198.5,102.5C 198.402,100.447 199.069,98.7804 200.5,97.5C 200.567,102.636 199.9,107.636 198.5,112.5C 197.735,112.923 196.902,113.257 196,113.5C 191.988,111.894 187.821,111.228 183.5,111.5C 183.5,107.833 183.5,104.167 183.5,100.5C 183.5,99.1667 183.5,97.8333 183.5,96.5C 183.865,91.9063 184.865,87.573 186.5,83.5 Z"/></g>
<g><path style="opacity:1" fill="#a19aaa" d="M 14.5,99.5 C 14.3994,109.852 14.7327,120.185 15.5,130.5C 14.0282,124.399 13.3615,118.065 13.5,111.5C 13.5011,107.319 13.8344,103.319 14.5,99.5 Z"/></g>
<g><path style="opacity:1" fill="#5d3d42" d="M 59.5,83.5 C 57.7838,85.4474 55.6171,86.7807 53,87.5C 52.2249,95.5476 52.5582,103.548 54,111.5C 57.6892,117.9 59.5225,124.9 59.5,132.5C 58.8333,132.5 58.5,132.167 58.5,131.5C 56.5616,123.394 54.3949,115.394 52,107.5C 51.2036,100.087 51.3703,92.7535 52.5,85.5C 54.8333,84.8333 57.1667,84.1667 59.5,83.5 Z"/></g>
<g><path style="opacity:1" fill="#696768" d="M 183.5,100.5 C 183.5,104.167 183.5,107.833 183.5,111.5C 187.821,111.228 191.988,111.894 196,113.5C 196.902,113.257 197.735,112.923 198.5,112.5C 196.587,119.377 195.087,126.377 194,133.5C 192.962,137.468 191.462,141.135 189.5,144.5C 190.827,139.517 192.16,134.517 193.5,129.5C 187.819,129.635 182.152,129.968 176.5,130.5C 176.337,128.143 176.503,125.81 177,123.5C 180.587,116.143 182.753,108.476 183.5,100.5 Z"/></g>
<g><path style="opacity:1" fill="#c36d09" d="M 58.5,131.5 C 58.5,132.167 58.8333,132.5 59.5,132.5C 61.3006,138.098 63.634,143.431 66.5,148.5C 64.5696,147.237 62.9029,145.57 61.5,143.5C 58.1727,145.825 54.8394,148.158 51.5,150.5C 52.3745,154.334 54.0411,157.667 56.5,160.5C 55.1943,159.032 53.6943,157.699 52,156.5C 51.467,153.495 50.3004,150.828 48.5,148.5C 46.1634,142.657 44.33,136.657 43,130.5C 42.2798,128.944 41.1132,127.944 39.5,127.5C 39.3259,125.139 38.9926,122.806 38.5,120.5C 37.9035,116.168 37.7368,111.835 38,107.5C 43.0125,110.505 48.0125,113.505 53,116.5C 54.0808,121.236 55.4141,125.903 57,130.5C 57.3826,131.056 57.8826,131.389 58.5,131.5 Z"/></g>
<g><path style="opacity:1" fill="#9b9247" d="M 134.5,125.5 C 138.167,125.5 141.833,125.5 145.5,125.5C 146.833,126.167 148.167,126.833 149.5,127.5C 143.491,127.334 137.491,127.501 131.5,128C 128.631,131.038 125.631,133.871 122.5,136.5C 125.285,131.376 129.285,127.709 134.5,125.5 Z"/></g>
<g><path style="opacity:1" fill="#796e45" d="M 152.5,129.5 C 155.167,130.167 156.833,131.833 157.5,134.5C 155.5,133.167 153.833,131.5 152.5,129.5 Z"/></g>
<g><path style="opacity:1" fill="#958d9b" d="M 140.5,121.5 C 132.016,122.493 123.349,122.826 114.5,122.5C 114.827,132.348 114.494,142.014 113.5,151.5C 113.5,141.5 113.5,131.5 113.5,121.5C 122.5,121.5 131.5,121.5 140.5,121.5 Z"/></g>
<g><path style="opacity:1" fill="#756a82" d="M 221.5,126.5 C 221.665,129.85 221.498,133.183 221,136.5C 218.996,139.475 217.996,142.808 218,146.5C 215.572,151.993 213.072,157.327 210.5,162.5C 214.511,150.416 218.178,138.416 221.5,126.5 Z"/></g>
<g><path style="opacity:1" fill="#171403" d="M 146.5,131.5 C 148.153,131.66 149.486,132.326 150.5,133.5C 151.833,135.5 153.5,137.167 155.5,138.5C 158.078,147.653 155.411,154.653 147.5,159.5C 130.917,162.251 123.917,155.251 126.5,138.5C 128.63,136.873 130.63,135.04 132.5,133C 137.066,131.691 141.733,131.191 146.5,131.5 Z"/></g>
<g><path style="opacity:1" fill="#bababc" d="M 189.5,144.5 C 187.926,145.984 186.593,147.651 185.5,149.5C 185.66,147.801 185.494,146.134 185,144.5C 182.021,142.356 179.188,140.022 176.5,137.5C 174.333,139.367 172.333,141.367 170.5,143.5C 172.556,139.136 174.556,134.802 176.5,130.5C 182.152,129.968 187.819,129.635 193.5,129.5C 192.16,134.517 190.827,139.517 189.5,144.5 Z"/></g>
<g><path style="opacity:1" fill="#8c8397" d="M 9.5,126.5 C 11.1357,130.21 11.8023,134.21 11.5,138.5C 9.86434,134.79 9.19767,130.79 9.5,126.5 Z"/></g>
<g><path style="opacity:1" fill="#9e5d23" d="M 39.5,127.5 C 41.1132,127.944 42.2798,128.944 43,130.5C 44.33,136.657 46.1634,142.657 48.5,148.5C 46.8639,147.251 45.6972,145.584 45,143.5C 42.8735,138.251 41.0401,132.918 39.5,127.5 Z"/></g>
<g><path style="opacity:1" fill="#c9b723" d="M 146.5,138.5 C 147.469,139.309 148.302,140.309 149,141.5C 149.667,145.5 149.667,149.5 149,153.5C 146.636,154.881 144.136,155.881 141.5,156.5C 140.265,156.279 139.265,155.612 138.5,154.5C 136.781,155.789 135.447,155.455 134.5,153.5C 133.305,153.134 132.639,152.301 132.5,151C 134.178,149.125 135.178,146.958 135.5,144.5C 136.766,142.306 136.766,139.972 135.5,137.5C 137.828,136.276 140.161,136.276 142.5,137.5C 143.478,137.023 144.311,136.357 145,135.5C 145.232,136.737 145.732,137.737 146.5,138.5 Z"/></g>
<g><path style="opacity:0.812" fill="#625672" d="M -0.5,120.5 C 1.58006,130.337 3.58006,140.337 5.5,150.5C 9.28179,158.292 12.6151,166.292 15.5,174.5C 14.6236,174.631 13.9569,174.298 13.5,173.5C 6.22984,160.647 1.56317,146.981 -0.5,132.5C -0.5,128.5 -0.5,124.5 -0.5,120.5 Z"/></g>
<g><path style="opacity:1" fill="#6b4947" d="M 59.5,132.5 C 65.0602,141.188 70.3935,150.188 75.5,159.5C 72.0888,156.117 69.0888,152.45 66.5,148.5C 63.634,143.431 61.3006,138.098 59.5,132.5 Z"/></g>
<g><path style="opacity:1" fill="#6a6901" d="M 155.5,138.5 C 158.387,144.65 157.887,150.65 154,156.5C 152.729,157.883 151.229,158.883 149.5,159.5C 148.833,159.5 148.167,159.5 147.5,159.5C 155.411,154.653 158.078,147.653 155.5,138.5 Z"/></g>
<g><path style="opacity:1" fill="#72677f" d="M 11.5,138.5 C 13.7916,144.303 15.7916,150.303 17.5,156.5C 12.9416,151.492 10.9416,145.492 11.5,138.5 Z"/></g>
<g><path style="opacity:1" fill="#e5e3e7" d="M 15.5,97.5 C 14.6618,97.8417 14.3284,98.5084 14.5,99.5C 13.8344,103.319 13.5011,107.319 13.5,111.5C 13.3615,118.065 14.0282,124.399 15.5,130.5C 17.8945,141.08 21.0611,151.413 25,161.5C 29.4122,167.398 33.5789,173.398 37.5,179.5C 40.5,184.5 44.5,188.5 49.5,191.5C 54.5566,197.02 60.5566,201.02 67.5,203.5C 69.7686,204.976 72.1019,206.476 74.5,208C 79.7287,210.359 85.062,212.193 90.5,213.5C 108.766,217.672 127.1,217.338 145.5,212.5C 147.03,212.36 148.03,211.693 148.5,210.5C 155.72,207.648 163.054,204.981 170.5,202.5C 170.5,203.5 170.5,204.5 170.5,205.5C 167.159,207.503 163.825,209.503 160.5,211.5C 152.117,214.184 143.784,216.851 135.5,219.5C 123.852,220.302 112.185,220.635 100.5,220.5C 94.2751,217.659 87.6084,215.992 80.5,215.5C 76.662,215.172 73.3287,213.672 70.5,211C 61.6667,207.911 53.6667,203.245 46.5,197C 39.2648,189.437 32.4314,181.604 26,173.5C 22.8712,167.903 20.0378,162.236 17.5,156.5C 15.7916,150.303 13.7916,144.303 11.5,138.5C 11.8023,134.21 11.1357,130.21 9.5,126.5C 9.5,126.167 9.5,125.833 9.5,125.5C 8.85407,113.633 9.85407,101.966 12.5,90.5C 13.7399,87.976 14.9066,85.3093 16,82.5C 16.0866,87.4884 15.9199,92.4884 15.5,97.5 Z"/></g>
<g><path style="opacity:1" fill="#cac719" d="M 149.5,127.5 C 151.027,127.427 152.027,128.094 152.5,129.5C 153.833,131.5 155.5,133.167 157.5,134.5C 159.008,136.181 160.008,138.181 160.5,140.5C 161.918,149.628 158.918,156.628 151.5,161.5C 150.167,161.5 149.5,160.833 149.5,159.5C 151.229,158.883 152.729,157.883 154,156.5C 157.887,150.65 158.387,144.65 155.5,138.5C 154.833,135.833 153.167,134.167 150.5,133.5C 149.486,132.326 148.153,131.66 146.5,131.5C 146.389,130.883 146.056,130.383 145.5,130C 136.755,127.909 130.422,130.743 126.5,138.5C 125.883,138.611 125.383,138.944 125,139.5C 125.108,144.28 124.275,148.614 122.5,152.5C 121.003,150.71 120.336,148.544 120.5,146C 120.655,142.708 121.322,139.541 122.5,136.5C 125.631,133.871 128.631,131.038 131.5,128C 137.491,127.501 143.491,127.334 149.5,127.5 Z"/></g>
<g><path style="opacity:1" fill="#564e0e" d="M 141.5,140.5 C 144.5,140.167 145.833,141.5 145.5,144.5C 143.833,144.5 142.167,144.5 140.5,144.5C 140.433,143.041 140.766,141.708 141.5,140.5 Z"/></g>
<g><path style="opacity:1" fill="#746a13" d="M 146.5,138.5 C 145.732,137.737 145.232,136.737 145,135.5C 144.311,136.357 143.478,137.023 142.5,137.5C 140.161,136.276 137.828,136.276 135.5,137.5C 136.766,139.972 136.766,142.306 135.5,144.5C 135.296,141.482 134.963,138.482 134.5,135.5C 136.912,135.669 139.079,135.003 141,133.5C 142.766,134.233 144.599,134.567 146.5,134.5C 146.5,135.833 146.5,137.167 146.5,138.5 Z"/></g>
<g><path style="opacity:1" fill="#686700" d="M 150.5,133.5 C 153.167,134.167 154.833,135.833 155.5,138.5C 153.5,137.167 151.833,135.5 150.5,133.5 Z"/></g>
<g><path style="opacity:1" fill="#4f4f04" d="M 146.5,131.5 C 141.733,131.191 137.066,131.691 132.5,133C 130.63,135.04 128.63,136.873 126.5,138.5C 130.422,130.743 136.755,127.909 145.5,130C 146.056,130.383 146.389,130.883 146.5,131.5 Z"/></g>
<g><path style="opacity:1" fill="#413b0d" d="M 139.5,147.5 C 142.95,146.756 144.616,148.09 144.5,151.5C 142.833,151.5 141.167,151.5 139.5,151.5C 139.5,150.167 139.5,148.833 139.5,147.5 Z"/></g>
<g><path style="opacity:1" fill="#e18a27" d="M 66.5,148.5 C 69.0888,152.45 72.0888,156.117 75.5,159.5C 77.5,161.167 79.5,162.833 81.5,164.5C 82.8333,166.167 84.1667,167.833 85.5,169.5C 84.0695,169.579 82.7362,169.246 81.5,168.5C 78.493,163.738 74.6597,159.738 70,156.5C 69.6258,157.416 69.1258,158.25 68.5,159C 65.7513,160.123 63.2513,161.623 61,163.5C 60.5172,164.448 60.3505,165.448 60.5,166.5C 59.1667,165.167 57.8333,163.833 56.5,162.5C 56.5,161.833 56.5,161.167 56.5,160.5C 54.0411,157.667 52.3745,154.334 51.5,150.5C 54.8394,148.158 58.1727,145.825 61.5,143.5C 62.9029,145.57 64.5696,147.237 66.5,148.5 Z"/></g>
<g><path style="opacity:1" fill="#6f6612" d="M 134.5,153.5 C 135.447,155.455 136.781,155.789 138.5,154.5C 139.265,155.612 140.265,156.279 141.5,156.5C 141.53,157.497 141.03,158.164 140,158.5C 138.234,157.767 136.401,157.433 134.5,157.5C 134.5,156.167 134.5,154.833 134.5,153.5 Z"/></g>
<g><path style="opacity:1" fill="#e3e3e3" d="M 185.5,149.5 C 185.672,150.492 185.338,151.158 184.5,151.5C 181.863,154.989 179.363,158.655 177,162.5C 176.196,163.804 175.029,164.471 173.5,164.5C 169.298,162.755 165.964,160.089 163.5,156.5C 165.579,152.007 167.912,147.674 170.5,143.5C 172.333,141.367 174.333,139.367 176.5,137.5C 179.188,140.022 182.021,142.356 185,144.5C 185.494,146.134 185.66,147.801 185.5,149.5 Z"/></g>
<g><path style="opacity:1" fill="#736936" d="M 124.5,157.5 C 126.5,158.833 128.167,160.5 129.5,162.5C 126.833,161.833 125.167,160.167 124.5,157.5 Z"/></g>
<g><path style="opacity:1" fill="#f9a33e" d="M 85.5,169.5 C 86.922,170.925 88.5887,171.925 90.5,172.5C 90.9528,173.458 91.6195,174.292 92.5,175C 96.3691,177.014 100.369,178.848 104.5,180.5C 107.667,182.574 111,184.24 114.5,185.5C 114.5,190.5 114.5,195.5 114.5,200.5C 111.848,200.59 109.515,199.924 107.5,198.5C 101.18,195.012 94.5133,192.012 87.5,189.5C 78.9956,184.017 70.9956,177.684 63.5,170.5C 62.5,169.167 61.5,167.833 60.5,166.5C 60.3505,165.448 60.5172,164.448 61,163.5C 63.2513,161.623 65.7513,160.123 68.5,159C 69.1258,158.25 69.6258,157.416 70,156.5C 74.6597,159.738 78.493,163.738 81.5,168.5C 82.7362,169.246 84.0695,169.579 85.5,169.5 Z"/></g>
<g><path style="opacity:1" fill="#b2b00f" d="M 126.5,138.5 C 123.917,155.251 130.917,162.251 147.5,159.5C 148.167,159.5 148.833,159.5 149.5,159.5C 149.5,160.833 150.167,161.5 151.5,161.5C 149.91,163.234 147.91,164.4 145.5,165C 141.141,165.534 136.808,165.368 132.5,164.5C 130.973,164.573 129.973,163.906 129.5,162.5C 128.167,160.5 126.5,158.833 124.5,157.5C 123.833,155.833 123.167,154.167 122.5,152.5C 124.275,148.614 125.108,144.28 125,139.5C 125.383,138.944 125.883,138.611 126.5,138.5 Z"/></g>
<g><path style="opacity:1" fill="#72514e" d="M 81.5,164.5 C 85.1002,166.43 88.1002,169.097 90.5,172.5C 88.5887,171.925 86.922,170.925 85.5,169.5C 84.1667,167.833 82.8333,166.167 81.5,164.5 Z"/></g>
<g><path style="opacity:1" fill="#c6c5c5" d="M 184.5,151.5 C 182.351,156.465 179.684,161.132 176.5,165.5C 173.74,166.423 171.74,168.256 170.5,171C 168.82,171.034 167.32,171.201 166,171.5C 163.512,167.675 160.012,165.508 155.5,165C 157.141,163.871 158.141,162.371 158.5,160.5C 160.167,159.167 161.833,157.833 163.5,156.5C 165.964,160.089 169.298,162.755 173.5,164.5C 175.029,164.471 176.196,163.804 177,162.5C 179.363,158.655 181.863,154.989 184.5,151.5 Z"/></g>
<g><path style="opacity:1" fill="#7b564d" d="M 56.5,162.5 C 57.8333,163.833 59.1667,165.167 60.5,166.5C 61.5,167.833 62.5,169.167 63.5,170.5C 63.5,170.833 63.5,171.167 63.5,171.5C 61.4946,169.666 59.3279,167.999 57,166.5C 56.51,165.207 56.3433,163.873 56.5,162.5 Z"/></g>
<g><path style="opacity:1" fill="#979597" d="M 158.5,160.5 C 158.141,162.371 157.141,163.871 155.5,165C 160.012,165.508 163.512,167.675 166,171.5C 167.32,171.201 168.82,171.034 170.5,171C 171.74,168.256 173.74,166.423 176.5,165.5C 169.602,174.451 161.269,181.785 151.5,187.5C 150.624,187.631 149.957,187.298 149.5,186.5C 151.937,185.197 154.104,183.53 156,181.5C 154.906,178.051 152.573,175.385 149,173.5C 146.804,174.09 144.638,174.757 142.5,175.5C 142.167,175.167 141.833,174.833 141.5,174.5C 147.158,169.89 152.824,165.223 158.5,160.5 Z"/></g>
<g><path style="opacity:1" fill="#a199a9" d="M 37.5,179.5 C 41.8333,183.167 45.8333,187.167 49.5,191.5C 44.5,188.5 40.5,184.5 37.5,179.5 Z"/></g>
<g><path style="opacity:1" fill="#c68646" d="M 63.5,171.5 C 63.5,171.167 63.5,170.833 63.5,170.5C 70.9956,177.684 78.9956,184.017 87.5,189.5C 83.8832,188.358 80.5498,186.692 77.5,184.5C 72.8333,180.167 68.1667,175.833 63.5,171.5 Z"/></g>
<g><path style="opacity:1" fill="#c58546" d="M 87.5,189.5 C 94.5133,192.012 101.18,195.012 107.5,198.5C 106.833,198.5 106.167,198.5 105.5,198.5C 102.892,198.6 100.558,197.933 98.5,196.5C 94.6971,194.429 91.0305,192.096 87.5,189.5 Z"/></g>
<g><path style="opacity:1" fill="#654850" d="M 77.5,184.5 C 80.5498,186.692 83.8832,188.358 87.5,189.5C 91.0305,192.096 94.6971,194.429 98.5,196.5C 90.0281,194.712 83.0281,190.712 77.5,184.5 Z"/></g>
<g><path style="opacity:1" fill="#867d92" d="M 195.5,184.5 C 191.452,190.882 186.118,195.882 179.5,199.5C 184.807,194.528 190.14,189.528 195.5,184.5 Z"/></g>
<g><path style="opacity:1" fill="#736881" d="M 49.5,191.5 C 50.8734,191.343 52.2068,191.51 53.5,192C 58.0651,196.075 62.7317,199.909 67.5,203.5C 60.5566,201.02 54.5566,197.02 49.5,191.5 Z"/></g>
<g><path style="opacity:1" fill="#6b666a" d="M 160.5,140.5 C 161.482,143.962 161.815,147.629 161.5,151.5C 162.552,151.649 163.552,151.483 164.5,151C 165.699,147.719 167.699,145.219 170.5,143.5C 167.912,147.674 165.579,152.007 163.5,156.5C 161.833,157.833 160.167,159.167 158.5,160.5C 152.824,165.223 147.158,169.89 141.5,174.5C 141.833,174.833 142.167,175.167 142.5,175.5C 144.638,174.757 146.804,174.09 149,173.5C 152.573,175.385 154.906,178.051 156,181.5C 154.104,183.53 151.937,185.197 149.5,186.5C 149.957,187.298 150.624,187.631 151.5,187.5C 141.886,194.301 131.219,198.968 119.5,201.5C 119.5,195.5 119.5,189.5 119.5,183.5C 130.123,180.019 139.79,174.686 148.5,167.5C 143.868,166.672 139.202,166.172 134.5,166C 133.584,165.722 132.918,165.222 132.5,164.5C 136.808,165.368 141.141,165.534 145.5,165C 147.91,164.4 149.91,163.234 151.5,161.5C 158.918,156.628 161.918,149.628 160.5,140.5 Z"/></g>
<g><path style="opacity:1" fill="#42413d" d="M 133.5,182.5 C 137.147,182.622 139.981,184.288 142,187.5C 142.667,188.833 142.667,190.167 142,191.5C 134.836,193.543 128.003,196.21 121.5,199.5C 121.334,195.154 121.501,190.821 122,186.5C 126.041,185.472 129.874,184.139 133.5,182.5 Z"/></g>
<g><path style="opacity:1" fill="#7b5548" d="M 114.5,185.5 C 115.489,190.975 115.822,196.642 115.5,202.5C 111.225,203.25 107.891,201.917 105.5,198.5C 106.167,198.5 106.833,198.5 107.5,198.5C 109.515,199.924 111.848,200.59 114.5,200.5C 114.5,195.5 114.5,190.5 114.5,185.5 Z"/></g>
<g><path style="opacity:1" fill="#a8a1b0" d="M 186.5,187.5 C 182.016,192.232 177.349,196.732 172.5,201C 175.095,201.6 177.429,201.1 179.5,199.5C 177.049,202.277 174.049,204.277 170.5,205.5C 170.5,204.5 170.5,203.5 170.5,202.5C 163.054,204.981 155.72,207.648 148.5,210.5C 162.091,204.371 174.758,196.704 186.5,187.5 Z"/></g>
<g><path style="opacity:1" fill="#a39cac" d="M 148.5,210.5 C 148.03,211.693 147.03,212.36 145.5,212.5C 127.1,217.338 108.766,217.672 90.5,213.5C 102.434,215.287 114.434,215.787 126.5,215C 133.738,213.084 141.071,211.584 148.5,210.5 Z"/></g>
<g><path style="opacity:1" fill="#ada6b5" d="M 80.5,215.5 C 87.6084,215.992 94.2751,217.659 100.5,220.5C 93.3325,220.437 86.6659,218.77 80.5,215.5 Z"/></g>
<g><path style="opacity:1" fill="#a29bab" d="M 135.5,219.5 C 133.369,220.314 131.036,220.814 128.5,221C 120.173,221.5 111.84,221.666 103.5,221.5C 102.209,221.737 101.209,221.404 100.5,220.5C 112.185,220.635 123.852,220.302 135.5,219.5 Z"/></g>
<g><path style="opacity:1" fill="#695d77" d="M 160.5,211.5 C 160.389,212.117 160.056,212.617 159.5,213C 151.697,215.489 144.03,218.156 136.5,221C 125.366,222.663 114.366,222.829 103.5,221.5C 111.84,221.666 120.173,221.5 128.5,221C 131.036,220.814 133.369,220.314 135.5,219.5C 143.784,216.851 152.117,214.184 160.5,211.5 Z"/></g>
</svg>
