<?xml version="1.0" encoding="UTF-8"?>
<!DOCTYPE svg PUBLIC "-//W3C//DTD SVG 1.1//EN" "http://www.w3.org/Graphics/SVG/1.1/DTD/svg11.dtd">
<svg xmlns="http://www.w3.org/2000/svg" version="1.1" width="256px" height="256px" style="shape-rendering:geometricPrecision; text-rendering:geometricPrecision; image-rendering:optimizeQuality; fill-rule:evenodd; clip-rule:evenodd" xmlns:xlink="http://www.w3.org/1999/xlink">
<g><path style="opacity:1" fill="#e6e4db" d="M 92.5,250.5 C 75.1377,246.154 59.8044,238.154 46.5,226.5C 9.27993,191.312 -4.5534,148.312 5,97.5C 10.3906,77.1232 19.7239,58.7899 33,42.5C 47.9764,26.6126 65.4764,14.6126 85.5,6.5C 91.4719,3.84926 97.8053,2.1826 104.5,1.5C 151.838,-3.89064 191.671,10.776 224,45.5C 236.656,60.8109 244.99,78.1442 249,97.5C 258.766,147.531 245.266,190.031 208.5,225C 173.992,251.671 135.326,260.171 92.5,250.5 Z"/></g>
<g><path style="opacity:1" fill="#676766" d="M 117.5,7.5 C 112.016,8.80413 106.349,9.80413 100.5,10.5C 100.918,9.77842 101.584,9.27842 102.5,9C 107.448,7.95017 112.448,7.45017 117.5,7.5 Z"/></g>
<g><path style="opacity:1" fill="#1b1e2b" d="M 117.5,7.5 C 125.352,7.17464 133.018,7.50797 140.5,8.5C 123.652,8.56001 106.985,10.2267 90.5,13.5C 90.6107,12.8826 90.944,12.3826 91.5,12C 94.4781,11.304 97.4781,10.804 100.5,10.5C 106.349,9.80413 112.016,8.80413 117.5,7.5 Z"/></g>
<g><path style="opacity:1" fill="#77797d" d="M 154.5,10.5 C 157.428,10.5651 160.095,11.2318 162.5,12.5C 159.505,12.7062 156.838,12.0395 154.5,10.5 Z"/></g>
<g><path style="opacity:1" fill="#0a1a48" d="M 140.5,8.5 C 145.131,9.3291 149.798,9.99577 154.5,10.5C 156.838,12.0395 159.505,12.7062 162.5,12.5C 178.617,18.2269 193.284,26.5602 206.5,37.5C 207.585,39.5869 209.251,40.9202 211.5,41.5C 219.734,49.3917 226.4,58.3917 231.5,68.5C 231.247,70.8273 231.914,72.8273 233.5,74.5C 232.833,75.8333 232.167,77.1667 231.5,78.5C 232.716,79.0959 234.049,79.2626 235.5,79C 236.399,80.6516 237.399,82.1516 238.5,83.5C 239.338,83.8417 239.672,84.5084 239.5,85.5C 240.129,88.3973 241.129,91.064 242.5,93.5C 243.434,94.5676 243.768,95.901 243.5,97.5C 243.41,100.152 244.076,102.485 245.5,104.5C 246.96,112.115 247.627,119.949 247.5,128C 247.644,138.295 246.644,148.461 244.5,158.5C 242.926,160.102 242.259,162.102 242.5,164.5C 242.5,164.833 242.5,165.167 242.5,165.5C 240.935,167.509 239.935,169.843 239.5,172.5C 235.281,182.606 230.281,192.273 224.5,201.5C 223.833,201.833 223.167,202.167 222.5,202.5C 221.741,200.564 220.741,198.731 219.5,197C 220.231,192.837 222.564,190.17 226.5,189C 224.576,185.909 221.91,183.742 218.5,182.5C 222.311,178.922 224.811,174.589 226,169.5C 226.333,169.833 226.667,170.167 227,170.5C 226.639,165.697 228.806,163.363 233.5,163.5C 234.363,160.626 235.697,157.959 237.5,155.5C 237.471,153.971 236.804,152.804 235.5,152C 236.253,150.513 237.086,150.346 238,151.5C 238.5,150.5 239,149.5 239.5,148.5C 238.906,145.17 238.24,141.836 237.5,138.5C 235.844,137.008 234.344,135.342 233,133.5C 230.894,136.118 228.394,138.118 225.5,139.5C 225.328,138.508 225.662,137.842 226.5,137.5C 228.894,135.668 229.894,133.168 229.5,130C 229.333,128.5 229.167,127 229,125.5C 228.617,124.944 228.117,124.611 227.5,124.5C 226.833,123.5 226.167,122.5 225.5,121.5C 225.5,121.167 225.5,120.833 225.5,120.5C 225.811,119.522 226.478,118.855 227.5,118.5C 229.761,119.682 231.595,121.349 233,123.5C 233.875,120.785 235.708,119.452 238.5,119.5C 238.863,117.089 237.863,115.589 235.5,115C 236.081,114.107 236.415,113.107 236.5,112C 235.329,107.583 233.995,103.25 232.5,99C 233.589,93.3292 231.422,89.1625 226,86.5C 225.82,83.0445 225.153,79.7111 224,76.5C 220.667,75.8333 217.333,75.1667 214,74.5C 213.5,73.5 213,72.5 212.5,71.5C 212.82,68.2855 212.82,64.9521 212.5,61.5C 210.833,61.5 209.167,61.5 207.5,61.5C 207.48,63.143 208.147,64.4763 209.5,65.5C 208.375,67.7936 207.041,67.7936 205.5,65.5C 205.81,62.2869 205.477,59.2869 204.5,56.5C 203.488,55.1283 202.488,53.795 201.5,52.5C 201.389,51.8826 201.056,51.3826 200.5,51C 197.5,50.3333 194.5,50.3333 191.5,51C 190.619,51.7083 189.953,52.5416 189.5,53.5C 188.272,54.3065 187.272,55.3065 186.5,56.5C 186.173,53.3242 186.173,50.1575 186.5,47C 188.833,46.6667 191.167,46.3333 193.5,46C 193.957,45.586 194.291,45.086 194.5,44.5C 192.716,43.394 190.882,43.394 189,44.5C 187.189,43.5765 187.355,42.7431 189.5,42C 188.833,41.3333 188.167,40.6667 187.5,40C 183.179,39.501 178.846,39.3343 174.5,39.5C 175.834,34.1318 173.834,31.4651 168.5,31.5C 163.778,31.8023 159.111,32.469 154.5,33.5C 152.684,35.1184 151.351,37.1184 150.5,39.5C 150.413,36.194 150.079,32.8606 149.5,29.5C 150.833,28.8333 152.167,28.1667 153.5,27.5C 151.195,26.769 149.362,25.4357 148,23.5C 147.34,26.0472 147.507,28.5472 148.5,31C 148.167,31.5 147.833,32 147.5,32.5C 146.391,31.4104 145.391,31.4104 144.5,32.5C 147.2,34.5435 147.033,36.2101 144,37.5C 142.287,36.8626 142.121,35.8626 143.5,34.5C 143.043,33.7025 142.376,33.3691 141.5,33.5C 141.5,33.1667 141.5,32.8333 141.5,32.5C 142.167,31.5 142.833,30.5 143.5,29.5C 144.117,29.3893 144.617,29.056 145,28.5C 145.805,25.3035 145.638,22.3035 144.5,19.5C 143.92,17.2512 142.587,15.5846 140.5,14.5C 140.027,13.0937 139.027,12.427 137.5,12.5C 131.624,10.3183 127.624,12.3183 125.5,18.5C 124.469,20.9608 123.802,23.6275 123.5,26.5C 116.922,25.5399 110.255,25.2066 103.5,25.5C 103.819,27.7505 103.319,29.7505 102,31.5C 101.692,30.6919 101.192,30.0253 100.5,29.5C 98.941,30.4465 97.2743,31.1132 95.5,31.5C 92.2169,30.673 88.8835,30.3396 85.5,30.5C 84.5873,35.7402 83.5873,35.7402 82.5,30.5C 80.2367,33.4428 80.2367,36.2761 82.5,39C 80.3824,42.6201 78.3824,46.1201 76.5,49.5C 77.7752,46.3962 77.7752,43.3962 76.5,40.5C 76.7271,38.0672 75.7271,36.4006 73.5,35.5C 73.1667,34.5 72.5,33.8333 71.5,33.5C 70.713,31.8958 69.3797,31.2291 67.5,31.5C 65.7078,30.6909 63.7078,30.1909 61.5,30C 67.6791,25.9703 73.6791,21.8036 79.5,17.5C 82.9466,16.917 85.9466,15.5837 88.5,13.5C 89.1667,13.5 89.8333,13.5 90.5,13.5C 106.985,10.2267 123.652,8.56001 140.5,8.5 Z"/></g>
<g><path style="opacity:1" fill="#7d5c37" d="M 137.5,12.5 C 139.027,12.427 140.027,13.0937 140.5,14.5C 138.973,14.573 137.973,13.9063 137.5,12.5 Z"/></g>
<g><path style="opacity:1" fill="#5a5a59" d="M 88.5,13.5 C 85.9466,15.5837 82.9466,16.917 79.5,17.5C 82.0534,15.4163 85.0534,14.083 88.5,13.5 Z"/></g>
<g><path style="opacity:1" fill="#c4821d" d="M 137.5,12.5 C 137.973,13.9063 138.973,14.573 140.5,14.5C 142.587,15.5846 143.92,17.2512 144.5,19.5C 141.414,18.2661 138.414,16.7661 135.5,15C 133.455,14.5099 131.455,14.6765 129.5,15.5C 131.391,12.8283 134.058,11.8283 137.5,12.5 Z"/></g>
<g><path style="opacity:1" fill="#746137" d="M 137.5,12.5 C 134.058,11.8283 131.391,12.8283 129.5,15.5C 128.542,15.9528 127.708,16.6195 127,17.5C 126.502,20.4816 126.335,23.4816 126.5,26.5C 125.527,24.0521 125.194,21.3854 125.5,18.5C 127.624,12.3183 131.624,10.3183 137.5,12.5 Z"/></g>
<g><path style="opacity:0.759" fill="#fbfbf9" d="M 111.5,-0.5 C 122.167,-0.5 132.833,-0.5 143.5,-0.5C 193.488,7.97878 228.321,35.6454 248,82.5C 251.314,92.0953 253.814,101.762 255.5,111.5C 255.5,122.167 255.5,132.833 255.5,143.5C 247.021,193.488 219.355,228.321 172.5,248C 162.905,251.314 153.238,253.814 143.5,255.5C 132.833,255.5 122.167,255.5 111.5,255.5C 105.014,254.469 98.6802,252.802 92.5,250.5C 135.326,260.171 173.992,251.671 208.5,225C 245.266,190.031 258.766,147.531 249,97.5C 244.99,78.1442 236.656,60.8109 224,45.5C 191.671,10.776 151.838,-3.89064 104.5,1.5C 106.833,0.833333 109.167,0.166667 111.5,-0.5 Z"/></g>
<g><path style="opacity:1" fill="#e3ab13" d="M 144.5,19.5 C 144.658,22.9023 144.324,26.2356 143.5,29.5C 142.833,30.5 142.167,31.5 141.5,32.5C 140.5,32.5 139.5,32.5 138.5,32.5C 138.768,30.901 138.434,29.5676 137.5,28.5C 136.432,27.5655 135.099,27.2322 133.5,27.5C 132.842,28.3984 132.176,29.3984 131.5,30.5C 130.127,28.7935 128.461,27.4602 126.5,26.5C 126.335,23.4816 126.502,20.4816 127,17.5C 127.708,16.6195 128.542,15.9528 129.5,15.5C 131.455,14.6765 133.455,14.5099 135.5,15C 138.414,16.7661 141.414,18.2661 144.5,19.5 Z"/></g>
<g><path style="opacity:1" fill="#8f742d" d="M 144.5,19.5 C 145.638,22.3035 145.805,25.3035 145,28.5C 144.617,29.056 144.117,29.3893 143.5,29.5C 144.324,26.2356 144.658,22.9023 144.5,19.5 Z"/></g>
<g><path style="opacity:1" fill="#22233a" d="M 125.5,18.5 C 125.194,21.3854 125.527,24.0521 126.5,26.5C 126.5,27.1667 126.5,27.8333 126.5,28.5C 125.29,28.0679 124.29,27.4013 123.5,26.5C 123.802,23.6275 124.469,20.9608 125.5,18.5 Z"/></g>
<g><path style="opacity:1" fill="#08194d" d="M 123.5,26.5 C 124.29,27.4013 125.29,28.0679 126.5,28.5C 128.147,30.3264 130.147,31.6597 132.5,32.5C 132.5,32.8333 132.5,33.1667 132.5,33.5C 132.167,33.5 131.833,33.5 131.5,33.5C 127.901,33.2619 127.567,34.2619 130.5,36.5C 129.833,36.8333 129.167,37.1667 128.5,37.5C 126.783,36.2825 124.95,35.2825 123,34.5C 122.5,34.8333 122,35.1667 121.5,35.5C 123.5,38.1668 126.167,39.5001 129.5,39.5C 130.376,42.7989 130.543,46.1322 130,49.5C 128.559,48.7402 127.059,48.0736 125.5,47.5C 119.915,47.7913 114.248,47.7913 108.5,47.5C 108.5,49.1667 108.5,50.8333 108.5,52.5C 104.802,52.5524 101.135,52.8857 97.5,53.5C 97.5,54.5 97.5,55.5 97.5,56.5C 93.2174,55.9894 89.2174,56.6561 85.5,58.5C 84.6184,57.2402 83.6184,56.0736 82.5,55C 83.731,53.8173 83.731,52.6507 82.5,51.5C 81.914,51.7093 81.414,52.0426 81,52.5C 79.2745,51.536 77.4412,50.8693 75.5,50.5C 74.8333,50.5 74.5,50.1667 74.5,49.5C 75.1667,49.5 75.8333,49.5 76.5,49.5C 78.3824,46.1201 80.3824,42.6201 82.5,39C 80.2367,36.2761 80.2367,33.4428 82.5,30.5C 83.5873,35.7402 84.5873,35.7402 85.5,30.5C 88.8835,30.3396 92.2169,30.673 95.5,31.5C 97.2743,31.1132 98.941,30.4465 100.5,29.5C 101.192,30.0253 101.692,30.6919 102,31.5C 103.319,29.7505 103.819,27.7505 103.5,25.5C 110.255,25.2066 116.922,25.5399 123.5,26.5 Z"/></g>
<g><path style="opacity:1" fill="#8a3d77" d="M 133.5,27.5 C 135.099,27.2322 136.432,27.5655 137.5,28.5C 137.167,28.5 136.833,28.5 136.5,28.5C 135.022,29.4475 134.022,30.7809 133.5,32.5C 133.5,30.8333 133.5,29.1667 133.5,27.5 Z"/></g>
<g><path style="opacity:1" fill="#af7f3e" d="M 126.5,26.5 C 128.461,27.4602 130.127,28.7935 131.5,30.5C 132.176,29.3984 132.842,28.3984 133.5,27.5C 133.5,29.1667 133.5,30.8333 133.5,32.5C 133.167,32.5 132.833,32.5 132.5,32.5C 130.147,31.6597 128.147,30.3264 126.5,28.5C 126.5,27.8333 126.5,27.1667 126.5,26.5 Z"/></g>
<g><path style="opacity:1" fill="#091a4e" d="M 186.5,56.5 C 186.337,58.8568 186.503,61.1902 187,63.5C 187.383,64.056 187.883,64.3893 188.5,64.5C 187.833,65.1667 187.167,65.8333 186.5,66.5C 182.727,65.8224 179.894,67.1558 178,70.5C 178.615,68.2445 178.948,65.9111 179,63.5C 178.667,64.1667 178.333,64.8333 178,65.5C 176.132,63.2439 174.632,60.7439 173.5,58C 170.182,57.1208 166.848,56.2875 163.5,55.5C 163,54.5 162.5,53.5 162,52.5C 159.514,57.0954 156.014,59.7621 151.5,60.5C 152.253,58.2466 153.586,56.4133 155.5,55C 153.978,53.4782 152.478,51.9782 151,50.5C 147.913,49.693 144.913,49.3597 142,49.5C 141.308,50.0253 140.808,50.6919 140.5,51.5C 141.428,52.7678 141.595,54.1011 141,55.5C 139.538,48.3417 139.038,41.0084 139.5,33.5C 140.167,33.5 140.833,33.5 141.5,33.5C 142.376,33.3691 143.043,33.7025 143.5,34.5C 142.121,35.8626 142.287,36.8626 144,37.5C 147.033,36.2101 147.2,34.5435 144.5,32.5C 145.391,31.4104 146.391,31.4104 147.5,32.5C 147.833,32 148.167,31.5 148.5,31C 147.507,28.5472 147.34,26.0472 148,23.5C 149.362,25.4357 151.195,26.769 153.5,27.5C 152.167,28.1667 150.833,28.8333 149.5,29.5C 150.079,32.8606 150.413,36.194 150.5,39.5C 151.351,37.1184 152.684,35.1184 154.5,33.5C 159.111,32.469 163.778,31.8023 168.5,31.5C 173.834,31.4651 175.834,34.1318 174.5,39.5C 178.846,39.3343 183.179,39.501 187.5,40C 188.167,40.6667 188.833,41.3333 189.5,42C 187.355,42.7431 187.189,43.5765 189,44.5C 190.882,43.394 192.716,43.394 194.5,44.5C 194.291,45.086 193.957,45.586 193.5,46C 191.167,46.3333 188.833,46.6667 186.5,47C 186.173,50.1575 186.173,53.3242 186.5,56.5 Z"/></g>
<g><path style="opacity:1" fill="#25262b" d="M 79.5,17.5 C 73.6791,21.8036 67.6791,25.9703 61.5,30C 63.7078,30.1909 65.7078,30.6909 67.5,31.5C 64.8127,31.3359 62.146,31.5026 59.5,32C 58.944,32.3826 58.6107,32.8826 58.5,33.5C 57.8333,33.5 57.5,33.8333 57.5,34.5C 56.8333,34.8333 56.1667,35.1667 55.5,35.5C 54.2789,34.5354 52.9456,34.702 51.5,36C 47.2401,40.7677 42.5734,44.9344 37.5,48.5C 49.0508,34.7369 63.0508,24.4036 79.5,17.5 Z"/></g>
<g><path style="opacity:1" fill="#886a2d" d="M 67.5,31.5 C 69.3797,31.2291 70.713,31.8958 71.5,33.5C 67.1667,32.1667 62.8333,32.1667 58.5,33.5C 58.6107,32.8826 58.944,32.3826 59.5,32C 62.146,31.5026 64.8127,31.3359 67.5,31.5 Z"/></g>
<g><path style="opacity:1" fill="#7d4e66" d="M 137.5,28.5 C 138.434,29.5676 138.768,30.901 138.5,32.5C 139.5,32.5 140.5,32.5 141.5,32.5C 141.5,32.8333 141.5,33.1667 141.5,33.5C 140.833,33.5 140.167,33.5 139.5,33.5C 139.167,33.5 138.833,33.5 138.5,33.5C 138.167,33.5 137.833,33.5 137.5,33.5C 137.5,31.8333 137.5,30.1667 137.5,28.5 Z"/></g>
<g><path style="opacity:1" fill="#ca8515" d="M 71.5,33.5 C 72.5,33.8333 73.1667,34.5 73.5,35.5C 73.5,36.1667 73.5,36.8333 73.5,37.5C 68.6027,34.9319 63.2693,33.9319 57.5,34.5C 57.5,33.8333 57.8333,33.5 58.5,33.5C 62.8333,32.1667 67.1667,32.1667 71.5,33.5 Z"/></g>
<g><path style="opacity:1" fill="#796329" d="M 73.5,35.5 C 75.7271,36.4006 76.7271,38.0672 76.5,40.5C 76.5,40.8333 76.5,41.1667 76.5,41.5C 75.8571,39.9236 74.8571,38.5903 73.5,37.5C 73.5,36.8333 73.5,36.1667 73.5,35.5 Z"/></g>
<g><path style="opacity:1" fill="#91939a" d="M 206.5,37.5 C 208.749,38.0798 210.415,39.4131 211.5,41.5C 209.251,40.9202 207.585,39.5869 206.5,37.5 Z"/></g>
<g><path style="opacity:1" fill="#726544" d="M 54.5,37.5 C 54.2641,40.6085 54.5975,43.6085 55.5,46.5C 55.5,46.8333 55.5,47.1667 55.5,47.5C 54.8826,47.3893 54.3826,47.056 54,46.5C 53.1955,43.3035 53.3622,40.3035 54.5,37.5 Z"/></g>
<g><path style="opacity:1" fill="#dea00f" d="M 57.5,34.5 C 63.2693,33.9319 68.6027,34.9319 73.5,37.5C 74.8571,38.5903 75.8571,39.9236 76.5,41.5C 76.6621,43.5273 76.4955,45.5273 76,47.5C 75.0138,48.1712 73.8471,48.1712 72.5,47.5C 71.1667,46.1667 69.8333,46.1667 68.5,47.5C 67.0347,49.5463 67.368,51.3796 69.5,53C 66.8333,53.6667 64.1667,53.6667 61.5,53C 59.2083,50.8843 57.2083,48.7176 55.5,46.5C 54.5975,43.6085 54.2641,40.6085 54.5,37.5C 54.8333,36.8333 55.1667,36.1667 55.5,35.5C 56.1667,35.1667 56.8333,34.8333 57.5,34.5 Z"/></g>
<g><path style="opacity:1" fill="#0b1b56" d="M 131.5,33.5 C 131.5,43.1667 131.5,52.8333 131.5,62.5C 122.915,62.2237 115.248,64.557 108.5,69.5C 106.246,70.4151 104.246,71.7484 102.5,73.5C 100.589,74.075 98.922,75.075 97.5,76.5C 96.8333,75.1667 95.8333,74.1667 94.5,73.5C 92.2343,69.5644 89.2343,66.2311 85.5,63.5C 84.9202,61.2512 83.5869,59.5846 81.5,58.5C 80.2427,55.5726 78.2427,53.2393 75.5,51.5C 75.5,51.1667 75.5,50.8333 75.5,50.5C 77.4412,50.8693 79.2745,51.536 81,52.5C 81.414,52.0426 81.914,51.7093 82.5,51.5C 83.731,52.6507 83.731,53.8173 82.5,55C 83.6184,56.0736 84.6184,57.2402 85.5,58.5C 89.2174,56.6561 93.2174,55.9894 97.5,56.5C 97.5,55.5 97.5,54.5 97.5,53.5C 101.135,52.8857 104.802,52.5524 108.5,52.5C 108.5,50.8333 108.5,49.1667 108.5,47.5C 114.248,47.7913 119.915,47.7913 125.5,47.5C 127.059,48.0736 128.559,48.7402 130,49.5C 130.543,46.1322 130.376,42.7989 129.5,39.5C 126.167,39.5001 123.5,38.1668 121.5,35.5C 122,35.1667 122.5,34.8333 123,34.5C 124.95,35.2825 126.783,36.2825 128.5,37.5C 129.167,37.1667 129.833,36.8333 130.5,36.5C 127.567,34.2619 127.901,33.2619 131.5,33.5 Z"/></g>
<g><path style="opacity:1" fill="#6b1da2" d="M 72.5,47.5 C 72.8333,48.5 73.5,49.1667 74.5,49.5C 74.5,50.1667 74.8333,50.5 75.5,50.5C 75.5,50.8333 75.5,51.1667 75.5,51.5C 73.9557,51.2969 72.6223,50.6302 71.5,49.5C 70.537,49.9698 70.537,50.6365 71.5,51.5C 71.1667,51.5 70.8333,51.5 70.5,51.5C 68.8958,50.713 68.2291,49.3797 68.5,47.5C 69.8333,46.1667 71.1667,46.1667 72.5,47.5 Z"/></g>
<g><path style="opacity:1" fill="#554739" d="M 76.5,40.5 C 77.7752,43.3962 77.7752,46.3962 76.5,49.5C 75.8333,49.5 75.1667,49.5 74.5,49.5C 73.5,49.1667 72.8333,48.5 72.5,47.5C 73.8471,48.1712 75.0138,48.1712 76,47.5C 76.4955,45.5273 76.6621,43.5273 76.5,41.5C 76.5,41.1667 76.5,40.8333 76.5,40.5 Z"/></g>
<g><path style="opacity:1" fill="#9136e7" d="M 136.5,28.5 C 136.5,40.1667 136.5,51.8333 136.5,63.5C 135.5,63.5 134.5,63.5 133.5,63.5C 133.5,53.1667 133.5,42.8333 133.5,32.5C 134.022,30.7809 135.022,29.4475 136.5,28.5 Z"/></g>
<g><path style="opacity:1" fill="#3c2296" d="M 137.5,33.5 C 137.833,33.5 138.167,33.5 138.5,33.5C 138.5,43.5 138.5,53.5 138.5,63.5C 139.5,63.5 140.5,63.5 141.5,63.5C 141.5,63.8333 141.5,64.1667 141.5,64.5C 140.167,64.5 138.833,64.5 137.5,64.5C 137.5,54.1667 137.5,43.8333 137.5,33.5 Z"/></g>
<g><path style="opacity:1" fill="#0d1c56" d="M 138.5,33.5 C 138.833,33.5 139.167,33.5 139.5,33.5C 139.038,41.0084 139.538,48.3417 141,55.5C 141.595,54.1011 141.428,52.7678 140.5,51.5C 140.808,50.6919 141.308,50.0253 142,49.5C 144.913,49.3597 147.913,49.693 151,50.5C 152.478,51.9782 153.978,53.4782 155.5,55C 153.586,56.4133 152.253,58.2466 151.5,60.5C 156.014,59.7621 159.514,57.0954 162,52.5C 162.5,53.5 163,54.5 163.5,55.5C 166.848,56.2875 170.182,57.1208 173.5,58C 174.632,60.7439 176.132,63.2439 178,65.5C 178.333,64.8333 178.667,64.1667 179,63.5C 178.948,65.9111 178.615,68.2445 178,70.5C 179.894,67.1558 182.727,65.8224 186.5,66.5C 182.435,70.5594 178.768,74.8927 175.5,79.5C 170.964,79.2973 168.298,76.964 167.5,72.5C 163.33,73.0072 160.33,71.3405 158.5,67.5C 156.955,66.5481 155.288,66.2148 153.5,66.5C 153.5,65.5 153.5,64.5 153.5,63.5C 149.531,64.5151 145.531,64.5151 141.5,63.5C 140.5,63.5 139.5,63.5 138.5,63.5C 138.5,53.5 138.5,43.5 138.5,33.5 Z"/></g>
<g><path style="opacity:1" fill="#7c5e34" d="M 201.5,52.5 C 199.236,51.7814 196.903,51.448 194.5,51.5C 192.833,52.1667 191.167,52.8333 189.5,53.5C 189.953,52.5416 190.619,51.7083 191.5,51C 194.5,50.3333 197.5,50.3333 200.5,51C 201.056,51.3826 201.389,51.8826 201.5,52.5 Z"/></g>
<g><path style="opacity:1" fill="#3d3e3f" d="M 37.5,48.5 C 36.9898,51.6743 35.3231,54.0077 32.5,55.5C 33.7859,52.883 35.4525,50.5496 37.5,48.5 Z"/></g>
<g><path style="opacity:1" fill="#a37136" d="M 55.5,46.5 C 57.2083,48.7176 59.2083,50.8843 61.5,53C 64.1667,53.6667 66.8333,53.6667 69.5,53C 67.368,51.3796 67.0347,49.5463 68.5,47.5C 68.2291,49.3797 68.8958,50.713 70.5,51.5C 70.7148,53.1788 70.0481,54.1788 68.5,54.5C 62.01,55.9844 57.6767,53.6511 55.5,47.5C 55.5,47.1667 55.5,46.8333 55.5,46.5 Z"/></g>
<g><path style="opacity:1" fill="#db9811" d="M 194.5,51.5 C 196.859,52.337 198.859,53.837 200.5,56C 201.448,56.4828 202.448,56.6495 203.5,56.5C 203.263,57.791 203.596,58.791 204.5,59.5C 204.599,62.2372 204.265,64.9039 203.5,67.5C 202.395,68.6005 201.062,69.2671 199.5,69.5C 197.833,69.5 196.167,69.5 194.5,69.5C 194.5,68.5 194.5,67.5 194.5,66.5C 195.451,65.0813 195.784,63.4147 195.5,61.5C 193.901,61.2322 192.568,61.5655 191.5,62.5C 190.833,62.5 190.5,62.8333 190.5,63.5C 189.252,62.6661 188.585,61.3328 188.5,59.5C 188.672,57.4523 189.005,55.4523 189.5,53.5C 191.167,52.8333 192.833,52.1667 194.5,51.5 Z"/></g>
<g><path style="opacity:1" fill="#ba7120" d="M 194.5,51.5 C 196.903,51.448 199.236,51.7814 201.5,52.5C 202.488,53.795 203.488,55.1283 204.5,56.5C 204.5,57.5 204.5,58.5 204.5,59.5C 203.596,58.791 203.263,57.791 203.5,56.5C 202.448,56.6495 201.448,56.4828 200.5,56C 198.859,53.837 196.859,52.337 194.5,51.5 Z"/></g>
<g><path style="opacity:1" fill="#371ca1" d="M 75.5,51.5 C 78.2427,53.2393 80.2427,55.5726 81.5,58.5C 78.7573,56.7607 76.7573,54.4274 75.5,51.5 Z"/></g>
<g><path style="opacity:0.672" fill="#fbfbf9" d="M 85.5,6.5 C 65.4764,14.6126 47.9764,26.6126 33,42.5C 19.7239,58.7899 10.3906,77.1232 5,97.5C -4.5534,148.312 9.27993,191.312 46.5,226.5C 20.2271,204.966 4.56041,177.299 -0.5,143.5C -0.5,132.833 -0.5,122.167 -0.5,111.5C 6.23978,70.8515 26.9064,39.3515 61.5,17C 69.1811,12.6568 77.1811,9.15683 85.5,6.5 Z"/></g>
<g><path style="opacity:1" fill="#0a1a4e" d="M 70.5,51.5 C 70.8333,51.5 71.1667,51.5 71.5,51.5C 71.5,52.8333 71.5,54.1667 71.5,55.5C 71.7329,57.0618 72.3995,58.3951 73.5,59.5C 73.0472,60.4584 72.3805,61.2917 71.5,62C 76.0995,62.5339 77.5995,64.7006 76,68.5C 73.5872,70.4572 71.0872,71.4572 68.5,71.5C 69.8688,74.2011 69.5355,76.7011 67.5,79C 64.6318,80.383 61.6318,81.2163 58.5,81.5C 57.4317,85.4433 55.5983,89.11 53,92.5C 52.5065,94.1341 52.3398,95.8008 52.5,97.5C 51.1667,97.5 49.8333,97.5 48.5,97.5C 47.5552,102.819 47.3885,108.152 48,113.5C 46.1029,113.813 44.6029,115.147 43.5,117.5C 43.1667,117.5 42.8333,117.5 42.5,117.5C 42.9754,114.687 41.9754,112.687 39.5,111.5C 39.1667,110.833 38.8333,110.167 38.5,109.5C 38.1961,108.85 37.8627,108.183 37.5,107.5C 39.3885,106.396 41.0552,105.063 42.5,103.5C 42.1667,103.167 41.8333,102.833 41.5,102.5C 38.6564,104.103 35.6564,104.603 32.5,104C 32.0574,102.482 32.7241,101.315 34.5,100.5C 31.9433,100.218 29.2766,100.051 26.5,100C 28.3759,98.9827 30.3759,98.1494 32.5,97.5C 31.675,96.6143 30.675,96.281 29.5,96.5C 29.5,93.5 29.5,90.5 29.5,87.5C 32.0444,87.8957 34.2111,87.229 36,85.5C 36.7415,82.438 36.5748,79.438 35.5,76.5C 37.396,75.5344 39.396,75.2011 41.5,75.5C 42.2491,80.3881 43.9158,80.3881 46.5,75.5C 45.3112,74.5713 43.9778,74.238 42.5,74.5C 42.3354,71.4816 42.502,68.4816 43,65.5C 46.5,64.6667 48.6667,62.5 49.5,59C 51.5085,59.4299 53.5085,60.2632 55.5,61.5C 54.0921,62.2432 52.7588,63.0766 51.5,64C 52.3333,64.1667 53.1667,64.3333 54,64.5C 57.3673,63.1165 60.8673,62.2832 64.5,62C 65.8333,61 65.8333,60 64.5,59C 61.7737,58.8184 59.1071,58.3184 56.5,57.5C 60.1224,56.6747 63.789,56.1747 67.5,56C 68.056,55.6174 68.3893,55.1174 68.5,54.5C 70.0481,54.1788 70.7148,53.1788 70.5,51.5 Z"/></g>
<g><path style="opacity:1" fill="#252733" d="M 32.5,55.5 C 32.6567,56.8734 32.49,58.2068 32,59.5C 28.2744,64.228 24.9411,69.228 22,74.5C 19.2853,81.9132 16.1186,88.9132 12.5,95.5C 15.9885,80.5229 22.6552,67.1896 32.5,55.5 Z"/></g>
<g><path style="opacity:1" fill="#9a7c41" d="M 189.5,53.5 C 189.005,55.4523 188.672,57.4523 188.5,59.5C 188.585,61.3328 189.252,62.6661 190.5,63.5C 190.5,63.8333 190.5,64.1667 190.5,64.5C 189.833,64.5 189.167,64.5 188.5,64.5C 187.883,64.3893 187.383,64.056 187,63.5C 186.503,61.1902 186.337,58.8568 186.5,56.5C 187.272,55.3065 188.272,54.3065 189.5,53.5 Z"/></g>
<g><path style="opacity:1" fill="#3f2e95" d="M 71.5,55.5 C 71.8333,55.5 72.1667,55.5 72.5,55.5C 75.2394,58.2327 77.5727,61.2327 79.5,64.5C 77.5,62.8333 75.5,61.1667 73.5,59.5C 72.3995,58.3951 71.7329,57.0618 71.5,55.5 Z"/></g>
<g><path style="opacity:1" fill="#5817d1" d="M 75.5,51.5 C 76.7573,54.4274 78.7573,56.7607 81.5,58.5C 83.5869,59.5846 84.9202,61.2512 85.5,63.5C 87.7657,67.4356 90.7657,70.7689 94.5,73.5C 94.719,74.675 94.3857,75.675 93.5,76.5C 87.5378,70.581 82.0378,64.2476 77,57.5C 75.8904,55.9632 74.3904,55.2965 72.5,55.5C 72.1667,55.5 71.8333,55.5 71.5,55.5C 71.5,54.1667 71.5,52.8333 71.5,51.5C 70.537,50.6365 70.537,49.9698 71.5,49.5C 72.6223,50.6302 73.9557,51.2969 75.5,51.5 Z"/></g>
<g><path style="opacity:1" fill="#b4743a" d="M 191.5,62.5 C 192.568,61.5655 193.901,61.2322 195.5,61.5C 195.784,63.4147 195.451,65.0813 194.5,66.5C 194.5,65.1667 194.5,63.8333 194.5,62.5C 193.5,62.5 192.5,62.5 191.5,62.5 Z"/></g>
<g><path style="opacity:1" fill="#5d4c2a" d="M 204.5,56.5 C 205.477,59.2869 205.81,62.2869 205.5,65.5C 205.167,66.5 204.5,67.1667 203.5,67.5C 204.265,64.9039 204.599,62.2372 204.5,59.5C 204.5,58.5 204.5,57.5 204.5,56.5 Z"/></g>
<g><path style="opacity:1" fill="#09194d" d="M 225.5,120.5 C 220.699,118.697 216.366,119.363 212.5,122.5C 211.312,121.636 210.145,120.636 209,119.5C 209.63,113.519 209.463,107.519 208.5,101.5C 207.022,101.762 205.689,101.429 204.5,100.5C 204.119,98.2593 203.952,95.926 204,93.5C 202.782,91.9808 201.282,90.8141 199.5,90C 201.061,89.059 202.395,87.8924 203.5,86.5C 201.635,85.3338 199.968,85.6671 198.5,87.5C 197.894,82.2997 195.561,78.1331 191.5,75C 192.167,74.3333 192.833,73.6667 193.5,73C 192.244,72.5831 191.577,71.7498 191.5,70.5C 191.5,70.1667 191.5,69.8333 191.5,69.5C 191.833,69.5 192.167,69.5 192.5,69.5C 194.833,70.8333 197.167,70.8333 199.5,69.5C 201.062,69.2671 202.395,68.6005 203.5,67.5C 204.5,67.1667 205.167,66.5 205.5,65.5C 207.041,67.7936 208.375,67.7936 209.5,65.5C 208.147,64.4763 207.48,63.143 207.5,61.5C 209.167,61.5 210.833,61.5 212.5,61.5C 212.82,64.9521 212.82,68.2855 212.5,71.5C 213,72.5 213.5,73.5 214,74.5C 217.333,75.1667 220.667,75.8333 224,76.5C 225.153,79.7111 225.82,83.0445 226,86.5C 231.422,89.1625 233.589,93.3292 232.5,99C 233.995,103.25 235.329,107.583 236.5,112C 236.415,113.107 236.081,114.107 235.5,115C 237.863,115.589 238.863,117.089 238.5,119.5C 235.708,119.452 233.875,120.785 233,123.5C 231.595,121.349 229.761,119.682 227.5,118.5C 226.478,118.855 225.811,119.522 225.5,120.5 Z"/></g>
<g><path style="opacity:1" fill="#692e72" d="M 191.5,62.5 C 192.5,62.5 193.5,62.5 194.5,62.5C 194.5,63.8333 194.5,65.1667 194.5,66.5C 194.167,66.5 193.833,66.5 193.5,66.5C 193.598,63.7524 192.598,63.0857 190.5,64.5C 190.5,64.1667 190.5,63.8333 190.5,63.5C 190.5,62.8333 190.833,62.5 191.5,62.5 Z"/></g>
<g><path style="opacity:1" fill="#211c78" d="M 131.5,33.5 C 131.833,33.5 132.167,33.5 132.5,33.5C 132.5,43.5 132.5,53.5 132.5,63.5C 129.813,63.3359 127.146,63.5026 124.5,64C 119.038,65.6706 113.705,67.504 108.5,69.5C 115.248,64.557 122.915,62.2237 131.5,62.5C 131.5,52.8333 131.5,43.1667 131.5,33.5 Z"/></g>
<g><path style="opacity:1" fill="#0a1b56" d="M 73.5,59.5 C 75.5,61.1667 77.5,62.8333 79.5,64.5C 80.6367,67.2293 81.9701,69.896 83.5,72.5C 82.4104,73.6086 82.4104,74.6086 83.5,75.5C 84.1924,74.9747 84.6924,74.3081 85,73.5C 87.3697,76.0386 89.8697,78.3719 92.5,80.5C 84.9083,87.685 79.9083,96.3516 77.5,106.5C 76.5655,107.568 76.2322,108.901 76.5,110.5C 75.7171,112.343 75.0505,114.343 74.5,116.5C 64.1881,117.499 53.8548,117.832 43.5,117.5C 44.6029,115.147 46.1029,113.813 48,113.5C 47.3885,108.152 47.5552,102.819 48.5,97.5C 49.8333,97.5 51.1667,97.5 52.5,97.5C 52.3398,95.8008 52.5065,94.1341 53,92.5C 55.5983,89.11 57.4317,85.4433 58.5,81.5C 61.6318,81.2163 64.6318,80.383 67.5,79C 69.5355,76.7011 69.8688,74.2011 68.5,71.5C 71.0872,71.4572 73.5872,70.4572 76,68.5C 77.5995,64.7006 76.0995,62.5339 71.5,62C 72.3805,61.2917 73.0472,60.4584 73.5,59.5 Z"/></g>
<g><path style="opacity:1" fill="#3d1da4" d="M 85.5,63.5 C 89.2343,66.2311 92.2343,69.5644 94.5,73.5C 90.7657,70.7689 87.7657,67.4356 85.5,63.5 Z"/></g>
<g><path style="opacity:1" fill="#16186a" d="M 141.5,64.5 C 141.5,64.1667 141.5,63.8333 141.5,63.5C 145.531,64.5151 149.531,64.5151 153.5,63.5C 153.5,64.5 153.5,65.5 153.5,66.5C 155.288,66.2148 156.955,66.5481 158.5,67.5C 160.33,71.3405 163.33,73.0072 167.5,72.5C 168.298,76.964 170.964,79.2973 175.5,79.5C 174.686,81.2726 173.352,81.7726 171.5,81C 163.51,71.6325 153.51,66.1325 141.5,64.5 Z"/></g>
<g><path style="opacity:1" fill="#834e67" d="M 193.5,66.5 C 193.443,67.609 193.11,68.609 192.5,69.5C 192.167,69.5 191.833,69.5 191.5,69.5C 191.427,67.9731 192.094,66.9731 193.5,66.5 Z"/></g>
<g><path style="opacity:1" fill="#a57639" d="M 193.5,66.5 C 193.833,66.5 194.167,66.5 194.5,66.5C 194.5,67.5 194.5,68.5 194.5,69.5C 196.167,69.5 197.833,69.5 199.5,69.5C 197.167,70.8333 194.833,70.8333 192.5,69.5C 193.11,68.609 193.443,67.609 193.5,66.5 Z"/></g>
<g><path style="opacity:1" fill="#421bb4" d="M 193.5,66.5 C 192.094,66.9731 191.427,67.9731 191.5,69.5C 191.5,69.8333 191.5,70.1667 191.5,70.5C 190.5,71.1667 189.5,71.8333 188.5,72.5C 185.751,73.974 183.418,75.974 181.5,78.5C 181.719,77.325 181.386,76.325 180.5,75.5C 178.814,76.8569 177.148,78.1902 175.5,79.5C 178.768,74.8927 182.435,70.5594 186.5,66.5C 187.167,65.8333 187.833,65.1667 188.5,64.5C 189.167,64.5 189.833,64.5 190.5,64.5C 192.598,63.0857 193.598,63.7524 193.5,66.5 Z"/></g>
<g><path style="opacity:1" fill="#380cc7" d="M 132.5,63.5 C 132.5,64.5 132.5,65.5 132.5,66.5C 128.261,66.7765 123.928,66.9431 119.5,67C 127.11,68.7966 134.776,68.9632 142.5,67.5C 145.22,69.1107 148.22,69.944 151.5,70C 153.701,71.0432 156.034,71.8765 158.5,72.5C 157.185,73.8946 157.519,74.8946 159.5,75.5C 160.451,74.6744 161.451,74.5078 162.5,75C 162.411,76.7161 162.744,78.5494 163.5,80.5C 166.088,81.5841 168.255,83.2507 170,85.5C 170.826,83.5946 171.993,83.2612 173.5,84.5C 172.391,86.2141 173.058,86.8808 175.5,86.5C 175.34,88.1992 175.506,89.8659 176,91.5C 177.768,90.8688 178.935,91.7021 179.5,94C 178.327,95.8261 178.327,97.6595 179.5,99.5C 179.631,100.239 179.464,100.906 179,101.5C 178.163,99.9926 176.996,99.4926 175.5,100C 176.861,101.584 177.528,103.418 177.5,105.5C 175.824,106.183 175.157,107.517 175.5,109.5C 174.715,106.596 173.381,103.93 171.5,101.5C 171.443,100.391 171.11,99.391 170.5,98.5C 171.349,91.8141 168.349,87.6474 161.5,86C 156.435,78.971 149.768,75.471 141.5,75.5C 142.908,76.2432 144.241,77.0766 145.5,78C 144.552,78.4828 143.552,78.6495 142.5,78.5C 137.355,77.3093 132.355,77.3093 127.5,78.5C 122.658,79.3787 117.992,80.8787 113.5,83C 111.382,84.0491 109.716,85.5491 108.5,87.5C 108.167,87.5 107.833,87.5 107.5,87.5C 107.489,85.9826 106.823,84.8159 105.5,84C 107.609,82.8589 109.442,81.3589 111,79.5C 111.604,81.6857 112.77,81.8524 114.5,80C 113.692,79.6924 113.025,79.1924 112.5,78.5C 113.5,77.6667 114.5,76.8333 115.5,76C 114.5,75.3333 113.5,75.3333 112.5,76C 110.606,77.4038 108.606,78.5705 106.5,79.5C 104.971,79.4712 103.804,78.8045 103,77.5C 102.329,78.2524 101.496,78.5858 100.5,78.5C 103.167,75.5 105.833,72.5 108.5,69.5C 113.705,67.504 119.038,65.6706 124.5,64C 127.146,63.5026 129.813,63.3359 132.5,63.5 Z"/></g>
<g><path style="opacity:1" fill="#222071" d="M 79.5,64.5 C 83.7387,70.081 88.4053,75.4143 93.5,80.5C 93.1667,80.5 92.8333,80.5 92.5,80.5C 89.8697,78.3719 87.3697,76.0386 85,73.5C 84.6924,74.3081 84.1924,74.9747 83.5,75.5C 82.4104,74.6086 82.4104,73.6086 83.5,72.5C 81.9701,69.896 80.6367,67.2293 79.5,64.5 Z"/></g>
<g><path style="opacity:1" fill="#4a1ebe" d="M 72.5,55.5 C 74.3904,55.2965 75.8904,55.9632 77,57.5C 82.0378,64.2476 87.5378,70.581 93.5,76.5C 94.3857,75.675 94.719,74.675 94.5,73.5C 95.8333,74.1667 96.8333,75.1667 97.5,76.5C 97.5,76.8333 97.5,77.1667 97.5,77.5C 95.7817,79.3637 94.615,81.6971 94,84.5C 91.9084,86.4747 90.0751,88.4747 88.5,90.5C 90.2133,87.14 91.8799,83.8067 93.5,80.5C 88.4053,75.4143 83.7387,70.081 79.5,64.5C 77.5727,61.2327 75.2394,58.2327 72.5,55.5 Z"/></g>
<g><path style="opacity:1" fill="#5e4eaf" d="M 102.5,73.5 C 101.415,75.5869 99.7488,76.9202 97.5,77.5C 97.5,77.1667 97.5,76.8333 97.5,76.5C 98.922,75.075 100.589,74.075 102.5,73.5 Z"/></g>
<g><path style="opacity:1" fill="#273055" d="M 231.5,68.5 C 235.161,72.8246 237.494,77.8246 238.5,83.5C 237.399,82.1516 236.399,80.6516 235.5,79C 234.049,79.2626 232.716,79.0959 231.5,78.5C 232.167,77.1667 232.833,75.8333 233.5,74.5C 231.914,72.8273 231.247,70.8273 231.5,68.5 Z"/></g>
<g><path style="opacity:1" fill="#4125b2" d="M 108.5,69.5 C 105.833,72.5 103.167,75.5 100.5,78.5C 99.209,78.7373 98.209,78.404 97.5,77.5C 99.7488,76.9202 101.415,75.5869 102.5,73.5C 104.246,71.7484 106.246,70.4151 108.5,69.5 Z"/></g>
<g><path style="opacity:1" fill="#230a7a" d="M 127.5,78.5 C 132.355,77.3093 137.355,77.3093 142.5,78.5C 142.5,78.8333 142.5,79.1667 142.5,79.5C 137.537,78.746 132.537,78.4126 127.5,78.5 Z"/></g>
<g><path style="opacity:1" fill="#4510d0" d="M 107.5,87.5 C 106.167,88.5 104.833,89.5 103.5,90.5C 101.403,90.0033 99.5695,89.67 98,89.5C 97.5,90.6667 96.6667,91.5 95.5,92C 96.3081,92.3076 96.9747,92.8076 97.5,93.5C 93.3255,99.9739 92.3255,99.6406 94.5,92.5C 93.5,92.5 92.5,92.5 91.5,92.5C 90.2981,96.578 88.7981,100.578 87,104.5C 83.4945,121.376 85.3278,137.543 92.5,153C 92.1667,153.5 91.8333,154 91.5,154.5C 89.7031,152.551 87.7031,150.884 85.5,149.5C 83.0353,142.56 81.3686,135.394 80.5,128C 80.3158,126.624 79.6491,125.791 78.5,125.5C 78.1667,125.5 77.8333,125.5 77.5,125.5C 76.6993,123.958 76.366,122.292 76.5,120.5C 77.791,120.737 78.791,120.404 79.5,119.5C 80.931,113.951 82.2643,108.284 83.5,102.5C 85.1491,98.5093 86.8157,94.5093 88.5,90.5C 90.0751,88.4747 91.9084,86.4747 94,84.5C 94.615,81.6971 95.7817,79.3637 97.5,77.5C 98.209,78.404 99.209,78.7373 100.5,78.5C 101.496,78.5858 102.329,78.2524 103,77.5C 103.804,78.8045 104.971,79.4712 106.5,79.5C 108.606,78.5705 110.606,77.4038 112.5,76C 113.5,75.3333 114.5,75.3333 115.5,76C 114.5,76.8333 113.5,77.6667 112.5,78.5C 113.025,79.1924 113.692,79.6924 114.5,80C 112.77,81.8524 111.604,81.6857 111,79.5C 109.442,81.3589 107.609,82.8589 105.5,84C 106.823,84.8159 107.489,85.9826 107.5,87.5 Z"/></g>
<g><path style="opacity:1" fill="#4816c3" d="M 136.5,28.5 C 136.833,28.5 137.167,28.5 137.5,28.5C 137.5,30.1667 137.5,31.8333 137.5,33.5C 137.5,43.8333 137.5,54.1667 137.5,64.5C 138.833,64.5 140.167,64.5 141.5,64.5C 153.51,66.1325 163.51,71.6325 171.5,81C 173.352,81.7726 174.686,81.2726 175.5,79.5C 177.148,78.1902 178.814,76.8569 180.5,75.5C 181.386,76.325 181.719,77.325 181.5,78.5C 176.145,83.7697 176.478,88.7697 182.5,93.5C 183.11,94.391 183.443,95.391 183.5,96.5C 184.655,100.797 186.321,104.797 188.5,108.5C 189.434,109.568 189.768,110.901 189.5,112.5C 189.268,116.98 189.935,121.313 191.5,125.5C 198.444,126.768 205.444,127.434 212.5,127.5C 213.263,128.268 214.263,128.768 215.5,129C 207.173,129.5 198.84,129.666 190.5,129.5C 189.927,135.511 189.26,141.511 188.5,147.5C 188.672,148.492 188.338,149.158 187.5,149.5C 188.444,138.847 188.61,128.181 188,117.5C 187.722,116.584 187.222,115.918 186.5,115.5C 185.597,110.107 184.264,104.773 182.5,99.5C 181.5,99.5 180.5,99.5 179.5,99.5C 178.327,97.6595 178.327,95.8261 179.5,94C 178.935,91.7021 177.768,90.8688 176,91.5C 175.506,89.8659 175.34,88.1992 175.5,86.5C 173.058,86.8808 172.391,86.2141 173.5,84.5C 171.993,83.2612 170.826,83.5946 170,85.5C 168.255,83.2507 166.088,81.5841 163.5,80.5C 162.744,78.5494 162.411,76.7161 162.5,75C 161.451,74.5078 160.451,74.6744 159.5,75.5C 157.519,74.8946 157.185,73.8946 158.5,72.5C 156.034,71.8765 153.701,71.0432 151.5,70C 148.22,69.944 145.22,69.1107 142.5,67.5C 134.776,68.9632 127.11,68.7966 119.5,67C 123.928,66.9431 128.261,66.7765 132.5,66.5C 132.5,65.5 132.5,64.5 132.5,63.5C 132.5,53.5 132.5,43.5 132.5,33.5C 132.5,33.1667 132.5,32.8333 132.5,32.5C 132.833,32.5 133.167,32.5 133.5,32.5C 133.5,42.8333 133.5,53.1667 133.5,63.5C 134.5,63.5 135.5,63.5 136.5,63.5C 136.5,51.8333 136.5,40.1667 136.5,28.5 Z"/></g>
<g><path style="opacity:1" fill="#1703a3" d="M 170.5,98.5 C 170.167,98.5 169.833,98.5 169.5,98.5C 162.962,88.6232 153.962,82.2899 142.5,79.5C 142.5,79.1667 142.5,78.8333 142.5,78.5C 143.552,78.6495 144.552,78.4828 145.5,78C 144.241,77.0766 142.908,76.2432 141.5,75.5C 149.768,75.471 156.435,78.971 161.5,86C 168.349,87.6474 171.349,91.8141 170.5,98.5 Z"/></g>
<g><path style="opacity:1" fill="#191a6e" d="M 188.5,72.5 C 186.252,76.2543 183.419,79.5876 180,82.5C 179.833,83.3333 179.667,84.1667 179.5,85C 180.937,87.7009 181.937,90.5343 182.5,93.5C 176.478,88.7697 176.145,83.7697 181.5,78.5C 183.418,75.974 185.751,73.974 188.5,72.5 Z"/></g>
<g><path style="opacity:1" fill="#767b8b" d="M 239.5,85.5 C 241.655,87.6174 242.655,90.284 242.5,93.5C 241.129,91.064 240.129,88.3973 239.5,85.5 Z"/></g>
<g><path style="opacity:1" fill="#0b1b56" d="M 191.5,70.5 C 191.577,71.7498 192.244,72.5831 193.5,73C 192.833,73.6667 192.167,74.3333 191.5,75C 195.561,78.1331 197.894,82.2997 198.5,87.5C 199.968,85.6671 201.635,85.3338 203.5,86.5C 202.395,87.8924 201.061,89.059 199.5,90C 201.282,90.8141 202.782,91.9808 204,93.5C 203.952,95.926 204.119,98.2593 204.5,100.5C 205.689,101.429 207.022,101.762 208.5,101.5C 209.463,107.519 209.63,113.519 209,119.5C 210.145,120.636 211.312,121.636 212.5,122.5C 211.766,123.708 211.433,125.041 211.5,126.5C 205.261,125.109 198.928,124.443 192.5,124.5C 192.728,120.076 191.728,116.076 189.5,112.5C 189.768,110.901 189.434,109.568 188.5,108.5C 188.457,103.756 186.79,99.7559 183.5,96.5C 183.443,95.391 183.11,94.391 182.5,93.5C 181.937,90.5343 180.937,87.7009 179.5,85C 179.667,84.1667 179.833,83.3333 180,82.5C 183.419,79.5876 186.252,76.2543 188.5,72.5C 189.5,71.8333 190.5,71.1667 191.5,70.5 Z"/></g>
<g><path style="opacity:1" fill="#150759" d="M 107.5,87.5 C 107.833,87.5 108.167,87.5 108.5,87.5C 106.167,90.5 103.5,93.1667 100.5,95.5C 101.075,93.5887 102.075,91.922 103.5,90.5C 104.833,89.5 106.167,88.5 107.5,87.5 Z"/></g>
<g><path style="opacity:1" fill="#786cb1" d="M 92.5,80.5 C 92.8333,80.5 93.1667,80.5 93.5,80.5C 91.8799,83.8067 90.2133,87.14 88.5,90.5C 84.613,92.663 82.4463,95.9964 82,100.5C 80.2359,102.389 78.7359,104.389 77.5,106.5C 79.9083,96.3516 84.9083,87.685 92.5,80.5 Z"/></g>
<g><path style="opacity:1" fill="#040222" d="M 127.5,78.5 C 132.537,78.4126 137.537,78.746 142.5,79.5C 153.962,82.2899 162.962,88.6232 169.5,98.5C 169.427,100.027 170.094,101.027 171.5,101.5C 173.381,103.93 174.715,106.596 175.5,109.5C 175.5,110.167 175.5,110.833 175.5,111.5C 175.517,113.565 175.85,115.565 176.5,117.5C 174.386,118.784 173.386,120.784 173.5,123.5C 172.5,123.5 171.5,123.5 170.5,123.5C 170.657,124.873 170.49,126.207 170,127.5C 168.212,125.667 168.046,123.667 169.5,121.5C 166.017,120.943 164.35,118.943 164.5,115.5C 166.241,108.148 163.908,102.648 157.5,99C 142.328,98.1723 127.328,98.3389 112.5,99.5C 111.833,99.5 111.5,99.8333 111.5,100.5C 108.981,102.359 108.981,104.359 111.5,106.5C 111.586,107.496 111.252,108.329 110.5,109C 108.866,109.494 107.199,109.66 105.5,109.5C 105.318,111.591 105.652,113.591 106.5,115.5C 107.325,116.386 108.325,116.719 109.5,116.5C 109.519,121.016 107.186,123.016 102.5,122.5C 102.433,124.401 102.767,126.234 103.5,128C 97.9962,132.177 94.9962,137.677 94.5,144.5C 92.8679,141.442 91.7013,138.109 91,134.5C 90.5006,129.177 90.334,123.844 90.5,118.5C 90.9267,115.99 91.5933,113.657 92.5,111.5C 93.404,110.791 93.7373,109.791 93.5,108.5C 94.8221,108.67 95.9887,108.337 97,107.5C 97.3629,104.456 97.8629,101.456 98.5,98.5C 98.427,96.9731 99.0937,95.9731 100.5,95.5C 103.5,93.1667 106.167,90.5 108.5,87.5C 109.716,85.5491 111.382,84.0491 113.5,83C 117.992,80.8787 122.658,79.3787 127.5,78.5 Z"/></g>
<g><path style="opacity:1" fill="#12100c" d="M 112.5,99.5 C 127.328,98.3389 142.328,98.1723 157.5,99C 163.908,102.648 166.241,108.148 164.5,115.5C 163.292,119.54 161.958,123.54 160.5,127.5C 160.5,124.833 160.5,122.167 160.5,119.5C 161.973,116.983 162.64,114.15 162.5,111C 162.333,109.167 162.167,107.333 162,105.5C 161.617,104.944 161.117,104.611 160.5,104.5C 159.833,104.167 159.167,103.833 158.5,103.5C 158.167,102.5 157.5,101.833 156.5,101.5C 156.5,100.833 156.167,100.5 155.5,100.5C 141.343,99.5041 127.01,99.1707 112.5,99.5 Z"/></g>
<g><path style="opacity:1" fill="#1d197d" d="M 183.5,96.5 C 186.79,99.7559 188.457,103.756 188.5,108.5C 186.321,104.797 184.655,100.797 183.5,96.5 Z"/></g>
<g><path style="opacity:1" fill="#4b461f" d="M 112.5,99.5 C 127.01,99.1707 141.343,99.5041 155.5,100.5C 141.167,100.5 126.833,100.5 112.5,100.5C 112.5,101.5 112.5,102.5 112.5,103.5C 111.596,102.791 111.263,101.791 111.5,100.5C 111.5,99.8333 111.833,99.5 112.5,99.5 Z"/></g>
<g><path style="opacity:1" fill="#a79c50" d="M 155.5,100.5 C 156.167,100.5 156.5,100.833 156.5,101.5C 144.5,101.5 132.5,101.5 120.5,101.5C 118.833,101.5 117.167,101.5 115.5,101.5C 115.5,102.833 115.5,104.167 115.5,105.5C 114.5,104.833 113.5,104.167 112.5,103.5C 112.5,102.5 112.5,101.5 112.5,100.5C 126.833,100.5 141.167,100.5 155.5,100.5 Z"/></g>
<g><path style="opacity:1" fill="#0c0559" d="M 169.5,98.5 C 169.833,98.5 170.167,98.5 170.5,98.5C 171.11,99.391 171.443,100.391 171.5,101.5C 170.094,101.027 169.427,100.027 169.5,98.5 Z"/></g>
<g><path style="opacity:1" fill="#e3d56b" d="M 120.5,102.5 C 120.5,102.167 120.5,101.833 120.5,101.5C 132.5,101.5 144.5,101.5 156.5,101.5C 157.5,101.833 158.167,102.5 158.5,103.5C 153.228,102.6 147.895,102.267 142.5,102.5C 135.167,102.5 127.833,102.5 120.5,102.5 Z"/></g>
<g><path style="opacity:1" fill="#62677c" d="M 243.5,97.5 C 244.924,99.5145 245.59,101.848 245.5,104.5C 244.076,102.485 243.41,100.152 243.5,97.5 Z"/></g>
<g><path style="opacity:1" fill="#242633" d="M 12.5,96.5 C 12.9166,100.817 12.2499,104.817 10.5,108.5C 10.5,106.5 10.5,104.5 10.5,102.5C 10.8751,100.302 11.5418,98.3024 12.5,96.5 Z"/></g>
<g><path style="opacity:1" fill="#07053d" d="M 98.5,98.5 C 97.8629,101.456 97.3629,104.456 97,107.5C 95.9887,108.337 94.8221,108.67 93.5,108.5C 93.7373,109.791 93.404,110.791 92.5,111.5C 92.3433,110.127 92.51,108.793 93,107.5C 94.6881,104.354 96.5215,101.354 98.5,98.5 Z"/></g>
<g><path style="opacity:1" fill="#c5ae41" d="M 120.5,101.5 C 120.5,101.833 120.5,102.167 120.5,102.5C 119.876,102.917 119.543,103.584 119.5,104.5C 120.642,108.592 121.975,112.592 123.5,116.5C 120.067,113.399 117.4,109.732 115.5,105.5C 115.5,104.167 115.5,102.833 115.5,101.5C 117.167,101.5 118.833,101.5 120.5,101.5 Z"/></g>
<g><path style="opacity:1" fill="#e5cc40" d="M 120.5,102.5 C 127.833,102.5 135.167,102.5 142.5,102.5C 142.66,104.199 142.494,105.866 142,107.5C 140.373,108.532 139.207,109.866 138.5,111.5C 138.167,112.167 137.833,112.833 137.5,113.5C 136.833,113.5 136.5,113.833 136.5,114.5C 132.486,116.334 128.153,117.001 123.5,116.5C 121.975,112.592 120.642,108.592 119.5,104.5C 119.543,103.584 119.876,102.917 120.5,102.5 Z"/></g>
<g><path style="opacity:1" fill="#7553b2" d="M 88.5,90.5 C 86.8157,94.5093 85.1491,98.5093 83.5,102.5C 80.9463,106.698 79.4463,111.364 79,116.5C 77.8873,117.305 76.7206,117.972 75.5,118.5C 76.2653,115.904 76.5987,113.237 76.5,110.5C 76.2322,108.901 76.5655,107.568 77.5,106.5C 78.7359,104.389 80.2359,102.389 82,100.5C 82.4463,95.9964 84.613,92.663 88.5,90.5 Z"/></g>
<g><path style="opacity:1" fill="#877332" d="M 36.5,109.5 C 24.3273,107.002 18.6607,112.002 19.5,124.5C 16.9532,117.788 18.6199,112.288 24.5,108C 28.1667,107.333 31.8333,107.333 35.5,108C 36.056,108.383 36.3893,108.883 36.5,109.5 Z"/></g>
<g><path style="opacity:1" fill="#8e712e" d="M 39.5,111.5 C 41.9754,112.687 42.9754,114.687 42.5,117.5C 42.1667,117.5 41.8333,117.5 41.5,117.5C 41.2964,115.315 40.6298,113.315 39.5,111.5 Z"/></g>
<g><path style="opacity:1" fill="#201915" d="M 111.5,100.5 C 111.263,101.791 111.596,102.791 112.5,103.5C 113.5,104.167 114.5,104.833 115.5,105.5C 117.4,109.732 120.067,113.399 123.5,116.5C 123.5,116.833 123.5,117.167 123.5,117.5C 123.5,117.833 123.5,118.167 123.5,118.5C 122.609,117.89 121.609,117.557 120.5,117.5C 119.599,115.273 117.933,114.273 115.5,114.5C 116.226,110.74 114.893,108.073 111.5,106.5C 108.981,104.359 108.981,102.359 111.5,100.5 Z"/></g>
<g><path style="opacity:1" fill="#40341b" d="M 137.5,113.5 C 140.833,113.5 144.167,113.5 147.5,113.5C 147.784,115.415 147.451,117.081 146.5,118.5C 146.5,117.167 146.5,115.833 146.5,114.5C 143.615,114.194 140.948,114.527 138.5,115.5C 137.662,115.158 137.328,114.492 137.5,113.5 Z"/></g>
<g><path style="opacity:1" fill="#dea40e" d="M 36.5,109.5 C 37.1667,109.5 37.8333,109.5 38.5,109.5C 38.8333,110.167 39.1667,110.833 39.5,111.5C 40.6298,113.315 41.2964,115.315 41.5,117.5C 39.901,117.232 38.5676,117.566 37.5,118.5C 36.5655,119.568 36.2322,120.901 36.5,122.5C 38.1667,123.833 39.8333,125.167 41.5,126.5C 40.1667,127.167 39.1667,128.167 38.5,129.5C 35.3652,131.023 32.0318,131.69 28.5,131.5C 26.5439,130.508 24.5439,129.508 22.5,128.5C 20.7376,127.738 19.7376,126.404 19.5,124.5C 18.6607,112.002 24.3273,107.002 36.5,109.5 Z"/></g>
<g><path style="opacity:1" fill="#7645cf" d="M 83.5,102.5 C 82.2643,108.284 80.931,113.951 79.5,119.5C 78.1667,119.5 76.8333,119.5 75.5,119.5C 75.5,119.167 75.5,118.833 75.5,118.5C 76.7206,117.972 77.8873,117.305 79,116.5C 79.4463,111.364 80.9463,106.698 83.5,102.5 Z"/></g>
<g><path style="opacity:1" fill="#d1c362" d="M 136.5,114.5 C 136.5,115.5 136.5,116.5 136.5,117.5C 132.167,117.5 127.833,117.5 123.5,117.5C 123.5,117.167 123.5,116.833 123.5,116.5C 128.153,117.001 132.486,116.334 136.5,114.5 Z"/></g>
<g><path style="opacity:1" fill="#34247c" d="M 76.5,110.5 C 76.5987,113.237 76.2653,115.904 75.5,118.5C 75.5,118.833 75.5,119.167 75.5,119.5C 71.5,119.5 67.5,119.5 63.5,119.5C 55.0161,118.507 46.3494,118.174 37.5,118.5C 38.5676,117.566 39.901,117.232 41.5,117.5C 41.8333,117.5 42.1667,117.5 42.5,117.5C 42.8333,117.5 43.1667,117.5 43.5,117.5C 53.8548,117.832 64.1881,117.499 74.5,116.5C 75.0505,114.343 75.7171,112.343 76.5,110.5 Z"/></g>
<g><path style="opacity:1" fill="#968d58" d="M 137.5,113.5 C 137.328,114.492 137.662,115.158 138.5,115.5C 138.5,115.833 138.5,116.167 138.5,116.5C 133.944,118.442 128.944,119.108 123.5,118.5C 123.5,118.167 123.5,117.833 123.5,117.5C 127.833,117.5 132.167,117.5 136.5,117.5C 136.5,116.5 136.5,115.5 136.5,114.5C 136.5,113.833 136.833,113.5 137.5,113.5 Z"/></g>
<g><path style="opacity:1" fill="#c8ba5d" d="M 141.5,126.5 C 135.536,125.693 129.536,125.36 123.5,125.5C 118.695,124.513 113.695,124.179 108.5,124.5C 108.5,124.167 108.5,123.833 108.5,123.5C 121.167,123.5 133.833,123.5 146.5,123.5C 146.5,122.167 146.5,120.833 146.5,119.5C 146.5,119.167 146.5,118.833 146.5,118.5C 147.451,117.081 147.784,115.415 147.5,113.5C 144.167,113.5 140.833,113.5 137.5,113.5C 137.833,112.833 138.167,112.167 138.5,111.5C 141.896,110.802 145.229,110.802 148.5,111.5C 150.281,116.638 149.614,121.304 146.5,125.5C 144.955,126.452 143.288,126.785 141.5,126.5 Z"/></g>
<g><path style="opacity:1" fill="#180b6c" d="M 175.5,111.5 C 176.924,113.515 177.59,115.848 177.5,118.5C 176.833,118.5 176.5,118.167 176.5,117.5C 175.85,115.565 175.517,113.565 175.5,111.5 Z"/></g>
<g><path style="opacity:1" fill="#362f19" d="M 138.5,116.5 C 139.404,117.209 139.737,118.209 139.5,119.5C 133.974,119.821 128.64,119.488 123.5,118.5C 128.944,119.108 133.944,118.442 138.5,116.5 Z"/></g>
<g><path style="opacity:1" fill="#52502c" d="M 160.5,104.5 C 161.117,104.611 161.617,104.944 162,105.5C 162.167,107.333 162.333,109.167 162.5,111C 162.64,114.15 161.973,116.983 160.5,119.5C 161.69,114.477 161.69,109.477 160.5,104.5 Z"/></g>
<g><path style="opacity:1" fill="#3f4041" d="M 10.5,102.5 C 10.5,104.5 10.5,106.5 10.5,108.5C 9.54623,119.115 9.21289,129.782 9.5,140.5C 9.16667,140.5 8.83333,140.5 8.5,140.5C 8.33351,130.161 8.50017,119.828 9,109.5C 9.18618,106.964 9.68618,104.631 10.5,102.5 Z"/></g>
<g><path style="opacity:1" fill="#3710b8" d="M 63.5,119.5 C 67.5,119.5 71.5,119.5 75.5,119.5C 76.8333,119.5 78.1667,119.5 79.5,119.5C 78.791,120.404 77.791,120.737 76.5,120.5C 76.366,122.292 76.6993,123.958 77.5,125.5C 76.8333,125.5 76.1667,125.5 75.5,125.5C 75.4226,124.25 74.756,123.417 73.5,123C 61.7551,122.967 50.0885,122.134 38.5,120.5C 46.8068,119.502 55.1401,119.169 63.5,119.5 Z"/></g>
<g><path style="opacity:1" fill="#070611" d="M 146.5,118.5 C 146.5,118.833 146.5,119.167 146.5,119.5C 145.596,120.209 145.263,121.209 145.5,122.5C 133.5,122.5 121.5,122.5 109.5,122.5C 112.627,121.768 115.794,120.768 119,119.5C 120.03,119.164 120.53,118.497 120.5,117.5C 121.609,117.557 122.609,117.89 123.5,118.5C 128.64,119.488 133.974,119.821 139.5,119.5C 139.737,118.209 139.404,117.209 138.5,116.5C 138.5,116.167 138.5,115.833 138.5,115.5C 140.948,114.527 143.615,114.194 146.5,114.5C 146.5,115.833 146.5,117.167 146.5,118.5 Z"/></g>
<g><path style="opacity:1" fill="#d1cc78" d="M 158.5,103.5 C 159.167,103.833 159.833,104.167 160.5,104.5C 161.69,109.477 161.69,114.477 160.5,119.5C 159.833,121.5 159.167,123.5 158.5,125.5C 159.506,118.131 159.506,110.797 158.5,103.5 Z"/></g>
<g><path style="opacity:1" fill="#381198" d="M 37.5,118.5 C 46.3494,118.174 55.0161,118.507 63.5,119.5C 55.1401,119.169 46.8068,119.502 38.5,120.5C 50.0885,122.134 61.7551,122.967 73.5,123C 74.756,123.417 75.4226,124.25 75.5,125.5C 74.5,125.5 73.5,125.5 72.5,125.5C 62.3035,124.372 51.9702,123.372 41.5,122.5C 39.8333,122.5 38.1667,122.5 36.5,122.5C 36.2322,120.901 36.5655,119.568 37.5,118.5 Z"/></g>
<g><path style="opacity:1" fill="#383014" d="M 146.5,119.5 C 146.5,120.833 146.5,122.167 146.5,123.5C 133.833,123.5 121.167,123.5 108.5,123.5C 108.5,122.833 108.833,122.5 109.5,122.5C 121.5,122.5 133.5,122.5 145.5,122.5C 145.263,121.209 145.596,120.209 146.5,119.5 Z"/></g>
<g><path style="opacity:1" fill="#5c4b3e" d="M 225.5,120.5 C 225.5,120.833 225.5,121.167 225.5,121.5C 219.344,118.923 215.011,120.59 212.5,126.5C 212.167,126.5 211.833,126.5 211.5,126.5C 211.433,125.041 211.766,123.708 212.5,122.5C 216.366,119.363 220.699,118.697 225.5,120.5 Z"/></g>
<g><path style="opacity:1" fill="#916035" d="M 36.5,122.5 C 38.1667,122.5 39.8333,122.5 41.5,122.5C 41.8333,123.167 42.1667,123.833 42.5,124.5C 42.6716,125.492 42.3382,126.158 41.5,126.5C 39.8333,125.167 38.1667,123.833 36.5,122.5 Z"/></g>
<g><path style="opacity:1" fill="#3308e4" d="M 177.5,105.5 C 179.105,107.48 180.272,109.813 181,112.5C 182.942,122.533 182.775,132.533 180.5,142.5C 179.5,142.5 178.5,142.5 177.5,142.5C 177.5,140.167 177.5,137.833 177.5,135.5C 177.5,129.833 177.5,124.167 177.5,118.5C 177.59,115.848 176.924,113.515 175.5,111.5C 175.5,110.833 175.5,110.167 175.5,109.5C 175.157,107.517 175.824,106.183 177.5,105.5 Z"/></g>
<g><path style="opacity:1" fill="#352791" d="M 41.5,122.5 C 51.9702,123.372 62.3035,124.372 72.5,125.5C 67.5,125.5 62.5,125.5 57.5,125.5C 52.8696,124.771 48.2029,124.437 43.5,124.5C 43.1667,124.5 42.8333,124.5 42.5,124.5C 42.1667,123.833 41.8333,123.167 41.5,122.5 Z"/></g>
<g><path style="opacity:1" fill="#03021d" d="M 111.5,106.5 C 114.893,108.073 116.226,110.74 115.5,114.5C 117.933,114.273 119.599,115.273 120.5,117.5C 120.53,118.497 120.03,119.164 119,119.5C 115.794,120.768 112.627,121.768 109.5,122.5C 108.833,122.5 108.5,122.833 108.5,123.5C 106.254,126.15 106.921,128.483 110.5,130.5C 109.943,138.177 109.276,145.844 108.5,153.5C 106.763,150.992 105.93,147.992 106,144.5C 104.667,143.833 103.333,143.167 102,142.5C 100.172,145.292 98.3383,147.959 96.5,150.5C 95.2702,148.703 94.6036,146.703 94.5,144.5C 94.9962,137.677 97.9962,132.177 103.5,128C 102.767,126.234 102.433,124.401 102.5,122.5C 107.186,123.016 109.519,121.016 109.5,116.5C 108.325,116.719 107.325,116.386 106.5,115.5C 105.652,113.591 105.318,111.591 105.5,109.5C 107.199,109.66 108.866,109.494 110.5,109C 111.252,108.329 111.586,107.496 111.5,106.5 Z"/></g>
<g><path style="opacity:1" fill="#211d7a" d="M 189.5,112.5 C 191.728,116.076 192.728,120.076 192.5,124.5C 198.928,124.443 205.261,125.109 211.5,126.5C 211.833,126.5 212.167,126.5 212.5,126.5C 212.5,126.833 212.5,127.167 212.5,127.5C 205.444,127.434 198.444,126.768 191.5,125.5C 189.935,121.313 189.268,116.98 189.5,112.5 Z"/></g>
<g><path style="opacity:1" fill="#091a4e" d="M 42.5,124.5 C 42.8333,124.5 43.1667,124.5 43.5,124.5C 43.9175,125.222 44.5842,125.722 45.5,126C 44.8467,130.586 44.5133,135.253 44.5,140C 44.5563,148.53 45.723,156.697 48,164.5C 49.8123,161.72 51.979,159.22 54.5,157C 55.635,156.251 56.635,156.417 57.5,157.5C 54.9522,160.759 52.2855,163.926 49.5,167C 51.3008,167.317 51.6341,167.984 50.5,169C 53.5501,173.492 54.5501,178.325 53.5,183.5C 55.8333,183.5 58.1667,183.5 60.5,183.5C 60.5,184.833 60.5,186.167 60.5,187.5C 61.552,187.649 62.552,187.483 63.5,187C 66.6714,183.269 70.0047,179.769 73.5,176.5C 74.8235,175.15 75.8235,175.317 76.5,177C 74.1702,180.328 71.5036,183.328 68.5,186C 69.0606,187.566 68.3939,188.899 66.5,190C 67.056,190.383 67.3893,190.883 67.5,191.5C 66.8333,191.5 66.1667,191.5 65.5,191.5C 64.5514,190.848 63.3847,190.514 62,190.5C 59.9919,190.307 58.4919,190.974 57.5,192.5C 55.9382,192.733 54.6049,193.4 53.5,194.5C 51.6096,194.703 50.1096,194.037 49,192.5C 46.3603,194.503 44.8603,197.169 44.5,200.5C 42.568,203.107 40.2347,205.107 37.5,206.5C 37.3505,205.448 37.5172,204.448 38,203.5C 40.046,201.624 41.8793,199.624 43.5,197.5C 43.1667,196.833 42.8333,196.167 42.5,195.5C 41.6551,197.762 40.3217,198.429 38.5,197.5C 37.5108,193.893 37.1774,190.226 37.5,186.5C 35.1667,186.5 32.8333,186.5 30.5,186.5C 30.874,183.126 31.2073,179.46 31.5,175.5C 29.7988,175.966 28.2988,175.966 27,175.5C 25.8466,168.525 25.0133,161.525 24.5,154.5C 29.3148,155.145 30.9814,153.312 29.5,149C 32.242,147.114 33.9087,144.614 34.5,141.5C 36.6807,141.716 38.3474,140.883 39.5,139C 36.0791,138.899 32.9124,138.066 30,136.5C 27.2441,137.923 24.4108,139.256 21.5,140.5C 21.1667,140.167 20.8333,139.833 20.5,139.5C 23.0455,136.341 26.3788,134.341 30.5,133.5C 33.2052,134.859 36.0385,135.859 39,136.5C 39.8333,136.167 40.6667,135.833 41.5,135.5C 39.8872,134.573 38.2205,133.739 36.5,133C 38.5,132.667 40.5,132.333 42.5,132C 41.6195,131.292 40.9528,130.458 40.5,129.5C 41.1098,128.609 41.4431,127.609 41.5,126.5C 42.3382,126.158 42.6716,125.492 42.5,124.5 Z"/></g>
<g><path style="opacity:1" fill="#0a1b55" d="M 43.5,124.5 C 48.2029,124.437 52.8696,124.771 57.5,125.5C 61.3525,126.166 65.3525,126.833 69.5,127.5C 65.8141,127.195 62.1474,127.695 58.5,129C 59,129.5 59.5,130 60,130.5C 60.1701,136.196 60.6701,141.862 61.5,147.5C 62.086,147.709 62.586,148.043 63,148.5C 63.1922,146.423 63.6922,144.423 64.5,142.5C 64.8333,144.167 65.1667,145.833 65.5,147.5C 64.2916,151.455 63.7916,155.455 64,159.5C 65.662,163.268 67.8287,166.768 70.5,170C 69.269,171.183 69.269,172.349 70.5,173.5C 71.7321,174.145 73.0654,174.311 74.5,174C 73.7476,174.671 73.4142,175.504 73.5,176.5C 70.0047,179.769 66.6714,183.269 63.5,187C 62.552,187.483 61.552,187.649 60.5,187.5C 60.5,186.167 60.5,184.833 60.5,183.5C 58.1667,183.5 55.8333,183.5 53.5,183.5C 54.5501,178.325 53.5501,173.492 50.5,169C 51.6341,167.984 51.3008,167.317 49.5,167C 52.2855,163.926 54.9522,160.759 57.5,157.5C 56.635,156.417 55.635,156.251 54.5,157C 51.979,159.22 49.8123,161.72 48,164.5C 45.723,156.697 44.5563,148.53 44.5,140C 44.5133,135.253 44.8467,130.586 45.5,126C 44.5842,125.722 43.9175,125.222 43.5,124.5 Z"/></g>
<g><path style="opacity:1" fill="#0d1d5b" d="M 57.5,125.5 C 62.5,125.5 67.5,125.5 72.5,125.5C 73.5,125.5 74.5,125.5 75.5,125.5C 75.5,126.5 75.5,127.5 75.5,128.5C 75.5403,134.615 76.3736,140.615 78,146.5C 81.143,154.444 85.3096,161.778 90.5,168.5C 89.1667,170.167 87.8333,171.833 86.5,173.5C 84.6075,174.702 82.7742,176.035 81,177.5C 77.3158,183.007 73.1491,188.007 68.5,192.5C 68.5,191.833 68.1667,191.5 67.5,191.5C 67.3893,190.883 67.056,190.383 66.5,190C 68.3939,188.899 69.0606,187.566 68.5,186C 71.5036,183.328 74.1702,180.328 76.5,177C 75.8235,175.317 74.8235,175.15 73.5,176.5C 73.4142,175.504 73.7476,174.671 74.5,174C 73.0654,174.311 71.7321,174.145 70.5,173.5C 69.269,172.349 69.269,171.183 70.5,170C 67.8287,166.768 65.662,163.268 64,159.5C 63.7916,155.455 64.2916,151.455 65.5,147.5C 65.1667,145.833 64.8333,144.167 64.5,142.5C 63.6922,144.423 63.1922,146.423 63,148.5C 62.586,148.043 62.086,147.709 61.5,147.5C 60.6701,141.862 60.1701,136.196 60,130.5C 59.5,130 59,129.5 58.5,129C 62.1474,127.695 65.8141,127.195 69.5,127.5C 65.3525,126.833 61.3525,126.166 57.5,125.5 Z"/></g>
<g><path style="opacity:1" fill="#f8ed61" d="M 142.5,102.5 C 147.895,102.267 153.228,102.6 158.5,103.5C 159.506,110.797 159.506,118.131 158.5,125.5C 155.754,129.415 152.254,132.415 148,134.5C 147.235,136.066 147.402,137.399 148.5,138.5C 150.506,143.177 152.506,147.844 154.5,152.5C 150.5,152.5 146.5,152.5 142.5,152.5C 142.262,150.596 141.262,149.262 139.5,148.5C 139.5,148.167 139.5,147.833 139.5,147.5C 138.773,145.046 137.773,142.713 136.5,140.5C 137.583,140.539 138.583,140.873 139.5,141.5C 140.206,149.91 144.206,152.244 151.5,148.5C 149.314,147.779 147.147,147.113 145,146.5C 144.82,144.512 144.986,142.512 145.5,140.5C 143.712,140.785 142.045,140.452 140.5,139.5C 142.713,137.458 143.38,135.125 142.5,132.5C 144.005,131.158 144.672,129.492 144.5,127.5C 143.209,127.737 142.209,127.404 141.5,126.5C 143.288,126.785 144.955,126.452 146.5,125.5C 149.614,121.304 150.281,116.638 148.5,111.5C 145.229,110.802 141.896,110.802 138.5,111.5C 139.207,109.866 140.373,108.532 142,107.5C 142.494,105.866 142.66,104.199 142.5,102.5 Z"/></g>
<g><path style="opacity:1" fill="#3c3921" d="M 160.5,119.5 C 160.5,122.167 160.5,124.833 160.5,127.5C 159.778,128.551 158.778,129.218 157.5,129.5C 157.833,128.167 158.167,126.833 158.5,125.5C 159.167,123.5 159.833,121.5 160.5,119.5 Z"/></g>
<g><path style="opacity:1" fill="#554530" d="M 227.5,124.5 C 228.117,124.611 228.617,124.944 229,125.5C 229.167,127 229.333,128.5 229.5,130C 229.894,133.168 228.894,135.668 226.5,137.5C 228.623,133.307 228.956,128.973 227.5,124.5 Z"/></g>
<g><path style="opacity:1" fill="#4e3c2a" d="M 41.5,126.5 C 41.4431,127.609 41.1098,128.609 40.5,129.5C 39.8333,129.5 39.1667,129.5 38.5,129.5C 39.1667,128.167 40.1667,127.167 41.5,126.5 Z"/></g>
<g><path style="opacity:1" fill="#52492e" d="M 108.5,123.5 C 108.5,123.833 108.5,124.167 108.5,124.5C 108.704,126.685 109.37,128.685 110.5,130.5C 106.921,128.483 106.254,126.15 108.5,123.5 Z"/></g>
<g><path style="opacity:1" fill="#dac434" d="M 123.5,126.5 C 126.448,126.223 129.281,126.556 132,127.5C 132.311,128.742 131.811,129.742 130.5,130.5C 131.912,131.806 133.579,132.64 135.5,133C 135.167,133.333 134.833,133.667 134.5,134C 136.229,135.789 136.896,137.956 136.5,140.5C 135.527,138.861 134.194,137.527 132.5,136.5C 130.372,135.371 128.039,135.204 125.5,136C 124.871,138.375 123.871,140.541 122.5,142.5C 121.694,143.997 121.028,145.664 120.5,147.5C 119.635,148.583 118.635,148.749 117.5,148C 118.72,146.475 119.387,144.641 119.5,142.5C 119.217,138.804 118.717,135.137 118,131.5C 116.644,130.62 115.144,130.286 113.5,130.5C 113.36,128.876 114.027,127.71 115.5,127C 118.146,126.503 120.813,126.336 123.5,126.5 Z"/></g>
<g><path style="opacity:1" fill="#773d51" d="M 212.5,127.5 C 212.5,127.167 212.5,126.833 212.5,126.5C 214.167,126.5 215.833,126.5 217.5,126.5C 217.5,128.167 217.5,129.833 217.5,131.5C 215.833,131.5 214.167,131.5 212.5,131.5C 212.5,131.167 212.5,130.833 212.5,130.5C 213.833,130.5 215.167,130.5 216.5,130.5C 216.5,129.5 216.5,128.5 216.5,127.5C 215.167,127.5 213.833,127.5 212.5,127.5 Z"/></g>
<g><path style="opacity:1" fill="#a27c32" d="M 22.5,128.5 C 24.5439,129.508 26.5439,130.508 28.5,131.5C 27.8333,131.5 27.1667,131.5 26.5,131.5C 24.5956,131.262 23.2623,130.262 22.5,128.5 Z"/></g>
<g><path style="opacity:1" fill="#2b1386" d="M 212.5,127.5 C 213.833,127.5 215.167,127.5 216.5,127.5C 216.5,128.5 216.5,129.5 216.5,130.5C 215.167,130.5 213.833,130.5 212.5,130.5C 205.825,130.334 199.158,130.5 192.5,131C 191.599,136.69 190.265,142.19 188.5,147.5C 189.26,141.511 189.927,135.511 190.5,129.5C 198.84,129.666 207.173,129.5 215.5,129C 214.263,128.768 213.263,128.268 212.5,127.5 Z"/></g>
<g><path style="opacity:1" fill="#d28b17" d="M 225.5,121.5 C 226.167,122.5 226.833,123.5 227.5,124.5C 228.956,128.973 228.623,133.307 226.5,137.5C 225.662,137.842 225.328,138.508 225.5,139.5C 224.833,139.5 224.167,139.5 223.5,139.5C 218.982,140.133 215.316,138.8 212.5,135.5C 211.766,134.292 211.433,132.959 211.5,131.5C 211.833,131.5 212.167,131.5 212.5,131.5C 214.167,131.5 215.833,131.5 217.5,131.5C 217.5,129.833 217.5,128.167 217.5,126.5C 215.833,126.5 214.167,126.5 212.5,126.5C 215.011,120.59 219.344,118.923 225.5,121.5 Z"/></g>
<g><path style="opacity:1" fill="#f1de4e" d="M 123.5,126.5 C 123.5,126.167 123.5,125.833 123.5,125.5C 129.536,125.36 135.536,125.693 141.5,126.5C 142.209,127.404 143.209,127.737 144.5,127.5C 144.672,129.492 144.005,131.158 142.5,132.5C 143.38,135.125 142.713,137.458 140.5,139.5C 142.045,140.452 143.712,140.785 145.5,140.5C 144.986,142.512 144.82,144.512 145,146.5C 147.147,147.113 149.314,147.779 151.5,148.5C 144.206,152.244 140.206,149.91 139.5,141.5C 138.583,140.873 137.583,140.539 136.5,140.5C 136.896,137.956 136.229,135.789 134.5,134C 134.833,133.667 135.167,133.333 135.5,133C 133.579,132.64 131.912,131.806 130.5,130.5C 131.811,129.742 132.311,128.742 132,127.5C 129.281,126.556 126.448,126.223 123.5,126.5 Z"/></g>
<g><path style="opacity:1" fill="#cdc773" d="M 158.5,125.5 C 158.167,126.833 157.833,128.167 157.5,129.5C 156.194,131.473 154.527,133.139 152.5,134.5C 150.62,134.229 149.287,134.896 148.5,136.5C 148.5,137.167 148.5,137.833 148.5,138.5C 147.402,137.399 147.235,136.066 148,134.5C 152.254,132.415 155.754,129.415 158.5,125.5 Z"/></g>
<g><path style="opacity:1" fill="#0b1b55" d="M 211.5,131.5 C 211.433,132.959 211.766,134.292 212.5,135.5C 213.167,137.167 213.833,138.833 214.5,140.5C 213.444,143.612 212.111,146.612 210.5,149.5C 211.689,150.429 213.022,150.762 214.5,150.5C 214.78,153.388 213.447,154.888 210.5,155C 208.653,157.579 208.153,160.412 209,163.5C 212.232,166.114 211.899,168.448 208,170.5C 207.43,173.933 206.097,176.933 204,179.5C 202.429,181.923 200.263,183.256 197.5,183.5C 197.608,185.514 196.942,187.18 195.5,188.5C 195.167,188.5 194.833,188.5 194.5,188.5C 193.504,188.586 192.671,188.252 192,187.5C 189.642,183.442 186.808,179.775 183.5,176.5C 183.123,174.742 182.456,173.075 181.5,171.5C 182.012,168.649 183.679,167.316 186.5,167.5C 186.351,168.552 186.517,169.552 187,170.5C 188.117,169.051 188.784,167.384 189,165.5C 190,164.167 191,164.167 192,165.5C 194.862,163.517 195.195,161.183 193,158.5C 192.333,160.5 191,161.833 189,162.5C 188.13,161.892 187.63,161.059 187.5,160C 189.101,155.199 190.767,150.366 192.5,145.5C 194.784,147.863 194.784,150.363 192.5,153C 192.613,154.28 193.28,155.113 194.5,155.5C 196.6,148.318 197.933,140.984 198.5,133.5C 202.35,133.663 206.183,133.997 210,134.5C 210.232,133.263 210.732,132.263 211.5,131.5 Z"/></g>
<g><path style="opacity:1" fill="#7651c1" d="M 75.5,125.5 C 76.1667,125.5 76.8333,125.5 77.5,125.5C 77.8333,125.5 78.1667,125.5 78.5,125.5C 79.2814,130.418 79.7814,135.418 80,140.5C 82.0475,143.93 83.5475,147.597 84.5,151.5C 83.5,151.5 82.5,151.5 81.5,151.5C 80.9078,148.309 79.7411,145.309 78,142.5C 78.1138,137.394 77.2805,132.727 75.5,128.5C 75.5,127.5 75.5,126.5 75.5,125.5 Z"/></g>
<g><path style="opacity:1" fill="#7c7251" d="M 152.5,134.5 C 151.833,135.167 151.167,135.833 150.5,136.5C 149.833,136.5 149.167,136.5 148.5,136.5C 149.287,134.896 150.62,134.229 152.5,134.5 Z"/></g>
<g><path style="opacity:1" fill="#25211c" d="M 157.5,129.5 C 157.455,134.212 155.122,136.545 150.5,136.5C 151.167,135.833 151.833,135.167 152.5,134.5C 154.527,133.139 156.194,131.473 157.5,129.5 Z"/></g>
<g><path style="opacity:1" fill="#040126" d="M 176.5,137.5 C 176.768,139.099 176.434,140.432 175.5,141.5C 173.539,146.099 171.539,150.765 169.5,155.5C 168.833,155.833 168.167,156.167 167.5,156.5C 166.042,154.989 164.209,153.989 162,153.5C 162.257,150.624 161.257,147.957 159,145.5C 157.927,146.28 156.76,146.113 155.5,145C 156.701,144.097 157.535,142.931 158,141.5C 159.816,142.329 161.649,143.163 163.5,144C 164.851,147.195 167.185,149.028 170.5,149.5C 170.16,145.869 170.994,142.536 173,139.5C 173.816,138.177 174.983,137.511 176.5,137.5 Z"/></g>
<g><path style="opacity:1" fill="#cfb52d" d="M 108.5,124.5 C 113.695,124.179 118.695,124.513 123.5,125.5C 123.5,125.833 123.5,126.167 123.5,126.5C 120.813,126.336 118.146,126.503 115.5,127C 114.027,127.71 113.36,128.876 113.5,130.5C 115.144,130.286 116.644,130.62 118,131.5C 118.717,135.137 119.217,138.804 119.5,142.5C 119.387,144.641 118.72,146.475 117.5,148C 118.635,148.749 119.635,148.583 120.5,147.5C 121.028,145.664 121.694,143.997 122.5,142.5C 122.5,145.833 122.5,149.167 122.5,152.5C 119.167,152.5 115.833,152.5 112.5,152.5C 113.078,145.653 113.078,138.987 112.5,132.5C 112.167,131.5 111.5,130.833 110.5,130.5C 109.37,128.685 108.704,126.685 108.5,124.5 Z"/></g>
<g><path style="opacity:1" fill="#2d0b9b" d="M 90.5,118.5 C 90.334,123.844 90.5006,129.177 91,134.5C 91.7013,138.109 92.8679,141.442 94.5,144.5C 94.6036,146.703 95.2702,148.703 96.5,150.5C 97.5294,152.517 98.5294,154.517 99.5,156.5C 97.9098,154.576 96.0765,154.243 94,155.5C 94.8997,150.507 93.8997,145.84 91,141.5C 90.6667,142.167 90.3333,142.833 90,143.5C 89.1768,134.99 89.3434,126.656 90.5,118.5 Z"/></g>
<g><path style="opacity:1" fill="#332c3c" d="M 212.5,135.5 C 215.316,138.8 218.982,140.133 223.5,139.5C 220.713,140.477 217.713,140.81 214.5,140.5C 213.833,138.833 213.167,137.167 212.5,135.5 Z"/></g>
<g><path style="opacity:1" fill="#7747d3" d="M 78.5,125.5 C 79.6491,125.791 80.3158,126.624 80.5,128C 81.3686,135.394 83.0353,142.56 85.5,149.5C 85.5,150.167 85.5,150.833 85.5,151.5C 85.1667,151.5 84.8333,151.5 84.5,151.5C 83.5475,147.597 82.0475,143.93 80,140.5C 79.7814,135.418 79.2814,130.418 78.5,125.5 Z"/></g>
<g><path style="opacity:1" fill="#2f271a" d="M 132.5,136.5 C 134.194,137.527 135.527,138.861 136.5,140.5C 137.773,142.713 138.773,145.046 139.5,147.5C 137.926,147.063 136.759,146.063 136,144.5C 135.519,139.848 133.019,137.515 128.5,137.5C 126.216,142.353 124.549,147.353 123.5,152.5C 123.272,147.325 124.105,142.325 126,137.5C 128.041,136.577 130.208,136.244 132.5,136.5 Z"/></g>
<g><path style="opacity:1" fill="#030326" d="M 108.5,153.5 C 108.833,153.5 109.167,153.5 109.5,153.5C 109.5,153.833 109.5,154.167 109.5,154.5C 107.776,156.914 106.442,159.58 105.5,162.5C 103.5,160.5 101.5,158.5 99.5,156.5C 98.5294,154.517 97.5294,152.517 96.5,150.5C 98.3383,147.959 100.172,145.292 102,142.5C 103.333,143.167 104.667,143.833 106,144.5C 105.93,147.992 106.763,150.992 108.5,153.5 Z"/></g>
<g><path style="opacity:1" fill="#20180f" d="M 110.5,130.5 C 111.5,130.833 112.167,131.5 112.5,132.5C 112.599,135.237 112.265,137.904 111.5,140.5C 110.105,144.591 109.438,148.924 109.5,153.5C 109.167,153.5 108.833,153.5 108.5,153.5C 109.276,145.844 109.943,138.177 110.5,130.5 Z"/></g>
<g><path style="opacity:1" fill="#9d8d46" d="M 132.5,136.5 C 130.208,136.244 128.041,136.577 126,137.5C 124.105,142.325 123.272,147.325 123.5,152.5C 123.167,152.5 122.833,152.5 122.5,152.5C 122.5,149.167 122.5,145.833 122.5,142.5C 123.871,140.541 124.871,138.375 125.5,136C 128.039,135.204 130.372,135.371 132.5,136.5 Z"/></g>
<g><path style="opacity:1" fill="#6e6f71" d="M 8.5,140.5 C 8.83333,140.5 9.16667,140.5 9.5,140.5C 10.2721,144.452 10.6054,148.452 10.5,152.5C 9.51758,148.684 8.85091,144.684 8.5,140.5 Z"/></g>
<g><path style="opacity:1" fill="#03021d" d="M 164.5,115.5 C 164.35,118.943 166.017,120.943 169.5,121.5C 168.046,123.667 168.212,125.667 170,127.5C 170.49,126.207 170.657,124.873 170.5,123.5C 171.5,123.5 172.5,123.5 173.5,123.5C 173.386,120.784 174.386,118.784 176.5,117.5C 176.5,118.167 176.833,118.5 177.5,118.5C 177.5,124.167 177.5,129.833 177.5,135.5C 176.662,135.842 176.328,136.508 176.5,137.5C 174.983,137.511 173.816,138.177 173,139.5C 170.994,142.536 170.16,145.869 170.5,149.5C 167.185,149.028 164.851,147.195 163.5,144C 161.649,143.163 159.816,142.329 158,141.5C 157.535,142.931 156.701,144.097 155.5,145C 156.76,146.113 157.927,146.28 159,145.5C 161.257,147.957 162.257,150.624 162,153.5C 164.209,153.989 166.042,154.989 167.5,156.5C 167.5,157.167 167.167,157.5 166.5,157.5C 163.921,157.917 161.754,157.25 160,155.5C 153.959,156.948 147.792,157.948 141.5,158.5C 140.332,159.906 140.665,161.072 142.5,162C 148.157,162.499 153.824,162.666 159.5,162.5C 159.5,163.5 159.5,164.5 159.5,165.5C 158.833,165.833 158.167,166.167 157.5,166.5C 153.102,167.368 148.769,167.701 144.5,167.5C 142.857,165.846 141.024,164.513 139,163.5C 137.289,163.439 135.956,164.106 135,165.5C 131.985,160.97 128.652,160.637 125,164.5C 124.309,161.142 122.309,159.142 119,158.5C 115.208,159.141 112.041,160.807 109.5,163.5C 108.264,162.754 106.93,162.421 105.5,162.5C 106.442,159.58 107.776,156.914 109.5,154.5C 111.024,155.174 112.358,156.174 113.5,157.5C 116.22,155.889 119.22,155.056 122.5,155C 123.252,154.329 123.586,153.496 123.5,152.5C 124.549,147.353 126.216,142.353 128.5,137.5C 133.019,137.515 135.519,139.848 136,144.5C 136.759,146.063 137.926,147.063 139.5,147.5C 139.5,147.833 139.5,148.167 139.5,148.5C 139.738,150.404 140.738,151.738 142.5,152.5C 142.5,153.167 142.833,153.5 143.5,153.5C 147.981,154.648 152.648,154.815 157.5,154C 158.8,152.421 158.466,151.255 156.5,150.5C 154.316,146.119 151.65,142.119 148.5,138.5C 148.5,137.833 148.5,137.167 148.5,136.5C 149.167,136.5 149.833,136.5 150.5,136.5C 155.122,136.545 157.455,134.212 157.5,129.5C 158.778,129.218 159.778,128.551 160.5,127.5C 161.958,123.54 163.292,119.54 164.5,115.5 Z"/></g>
<g><path style="opacity:1" fill="#460fdf" d="M 179.5,99.5 C 180.5,99.5 181.5,99.5 182.5,99.5C 184.264,104.773 185.597,110.107 186.5,115.5C 188.447,131.423 185.78,146.423 178.5,160.5C 177.522,160.977 176.689,161.643 176,162.5C 175.282,161.549 174.449,161.383 173.5,162C 171.942,165.06 169.609,167.226 166.5,168.5C 161.12,166.226 161.287,164.226 167,162.5C 168.136,160.257 168.97,157.924 169.5,155.5C 171.335,154.878 172.502,153.544 173,151.5C 174.352,148.28 175.186,144.947 175.5,141.5C 176.434,140.432 176.768,139.099 176.5,137.5C 176.328,136.508 176.662,135.842 177.5,135.5C 177.5,137.833 177.5,140.167 177.5,142.5C 178.5,142.5 179.5,142.5 180.5,142.5C 182.775,132.533 182.942,122.533 181,112.5C 180.272,109.813 179.105,107.48 177.5,105.5C 177.528,103.418 176.861,101.584 175.5,100C 176.996,99.4926 178.163,99.9926 179,101.5C 179.464,100.906 179.631,100.239 179.5,99.5 Z"/></g>
<g><path style="opacity:1" fill="#a29238" d="M 112.5,132.5 C 113.078,138.987 113.078,145.653 112.5,152.5C 115.833,152.5 119.167,152.5 122.5,152.5C 119.038,153.482 115.371,153.815 111.5,153.5C 111.057,149.274 111.057,144.94 111.5,140.5C 112.265,137.904 112.599,135.237 112.5,132.5 Z"/></g>
<g><path style="opacity:1" fill="#0e1c5e" d="M 212.5,130.5 C 212.5,130.833 212.5,131.167 212.5,131.5C 212.167,131.5 211.833,131.5 211.5,131.5C 210.732,132.263 210.232,133.263 210,134.5C 206.183,133.997 202.35,133.663 198.5,133.5C 197.933,140.984 196.6,148.318 194.5,155.5C 193.28,155.113 192.613,154.28 192.5,153C 194.784,150.363 194.784,147.863 192.5,145.5C 190.767,150.366 189.101,155.199 187.5,160C 187.63,161.059 188.13,161.892 189,162.5C 191,161.833 192.333,160.5 193,158.5C 195.195,161.183 194.862,163.517 192,165.5C 191,164.167 190,164.167 189,165.5C 188.784,167.384 188.117,169.051 187,170.5C 186.517,169.552 186.351,168.552 186.5,167.5C 183.679,167.316 182.012,168.649 181.5,171.5C 182.456,173.075 183.123,174.742 183.5,176.5C 177.955,173.225 177.289,169.225 181.5,164.5C 184.491,159.984 186.491,154.984 187.5,149.5C 188.338,149.158 188.672,148.492 188.5,147.5C 190.265,142.19 191.599,136.69 192.5,131C 199.158,130.5 205.825,130.334 212.5,130.5 Z"/></g>
<g><path style="opacity:1" fill="#65623c" d="M 139.5,148.5 C 141.262,149.262 142.262,150.596 142.5,152.5C 140.738,151.738 139.738,150.404 139.5,148.5 Z"/></g>
<g><path style="opacity:1" fill="#6b5f2f" d="M 111.5,140.5 C 111.057,144.94 111.057,149.274 111.5,153.5C 110.833,153.5 110.167,153.5 109.5,153.5C 109.438,148.924 110.105,144.591 111.5,140.5 Z"/></g>
<g><path style="opacity:1" fill="#a49c5a" d="M 148.5,138.5 C 151.65,142.119 154.316,146.119 156.5,150.5C 156.5,151.5 156.5,152.5 156.5,153.5C 152.167,153.5 147.833,153.5 143.5,153.5C 142.833,153.5 142.5,153.167 142.5,152.5C 146.5,152.5 150.5,152.5 154.5,152.5C 152.506,147.844 150.506,143.177 148.5,138.5 Z"/></g>
<g><path style="opacity:1" fill="#3109a0" d="M 175.5,141.5 C 175.186,144.947 174.352,148.28 173,151.5C 172.502,153.544 171.335,154.878 169.5,155.5C 171.539,150.765 173.539,146.099 175.5,141.5 Z"/></g>
<g><path style="opacity:1" fill="#3f3d2c" d="M 156.5,150.5 C 158.466,151.255 158.8,152.421 157.5,154C 152.648,154.815 147.981,154.648 143.5,153.5C 147.833,153.5 152.167,153.5 156.5,153.5C 156.5,152.5 156.5,151.5 156.5,150.5 Z"/></g>
<g><path style="opacity:1" fill="#181512" d="M 122.5,152.5 C 122.833,152.5 123.167,152.5 123.5,152.5C 123.586,153.496 123.252,154.329 122.5,155C 119.22,155.056 116.22,155.889 113.5,157.5C 112.358,156.174 111.024,155.174 109.5,154.5C 109.5,154.167 109.5,153.833 109.5,153.5C 110.167,153.5 110.833,153.5 111.5,153.5C 115.371,153.815 119.038,153.482 122.5,152.5 Z"/></g>
<g><path style="opacity:1" fill="#040125" d="M 166.5,157.5 C 164.906,160.764 162.573,163.431 159.5,165.5C 159.5,164.5 159.5,163.5 159.5,162.5C 153.824,162.666 148.157,162.499 142.5,162C 140.665,161.072 140.332,159.906 141.5,158.5C 147.792,157.948 153.959,156.948 160,155.5C 161.754,157.25 163.921,157.917 166.5,157.5 Z"/></g>
<g><path style="opacity:1" fill="#7b7c7d" d="M 10.5,152.5 C 12.2766,155.505 13.2766,158.838 13.5,162.5C 11.7234,159.495 10.7234,156.162 10.5,152.5 Z"/></g>
<g><path style="opacity:1" fill="#050224" d="M 157.5,166.5 C 156.306,167.272 155.306,168.272 154.5,169.5C 149.066,171.202 143.733,172.869 138.5,174.5C 133.463,174.587 128.463,174.254 123.5,173.5C 122.508,173.672 121.842,173.338 121.5,172.5C 119.898,170.926 117.898,170.259 115.5,170.5C 111.397,168.784 108.064,166.117 105.5,162.5C 106.93,162.421 108.264,162.754 109.5,163.5C 112.041,160.807 115.208,159.141 119,158.5C 122.309,159.142 124.309,161.142 125,164.5C 128.652,160.637 131.985,160.97 135,165.5C 135.956,164.106 137.289,163.439 139,163.5C 141.024,164.513 142.857,165.846 144.5,167.5C 148.769,167.701 153.102,167.368 157.5,166.5 Z"/></g>
<g><path style="opacity:1" fill="#72469b" d="M 75.5,128.5 C 77.2805,132.727 78.1138,137.394 78,142.5C 79.7411,145.309 80.9078,148.309 81.5,151.5C 82.5,151.5 83.5,151.5 84.5,151.5C 84.8333,151.5 85.1667,151.5 85.5,151.5C 87.8836,156.077 90.5503,160.577 93.5,165C 93.0222,166.642 92.0222,167.809 90.5,168.5C 85.3096,161.778 81.143,154.444 78,146.5C 76.3736,140.615 75.5403,134.615 75.5,128.5 Z"/></g>
<g><path style="opacity:1" fill="#848894" d="M 244.5,158.5 C 244.741,160.898 244.074,162.898 242.5,164.5C 242.259,162.102 242.926,160.102 244.5,158.5 Z"/></g>
<g><path style="opacity:1" fill="#091947" d="M 55.5,35.5 C 55.1667,36.1667 54.8333,36.8333 54.5,37.5C 53.3622,40.3035 53.1955,43.3035 54,46.5C 54.3826,47.056 54.8826,47.3893 55.5,47.5C 57.6767,53.6511 62.01,55.9844 68.5,54.5C 68.3893,55.1174 68.056,55.6174 67.5,56C 63.789,56.1747 60.1224,56.6747 56.5,57.5C 59.1071,58.3184 61.7737,58.8184 64.5,59C 65.8333,60 65.8333,61 64.5,62C 60.8673,62.2832 57.3673,63.1165 54,64.5C 53.1667,64.3333 52.3333,64.1667 51.5,64C 52.7588,63.0766 54.0921,62.2432 55.5,61.5C 53.5085,60.2632 51.5085,59.4299 49.5,59C 48.6667,62.5 46.5,64.6667 43,65.5C 42.502,68.4816 42.3354,71.4816 42.5,74.5C 43.9778,74.238 45.3112,74.5713 46.5,75.5C 43.9158,80.3881 42.2491,80.3881 41.5,75.5C 39.396,75.2011 37.396,75.5344 35.5,76.5C 36.5748,79.438 36.7415,82.438 36,85.5C 34.2111,87.229 32.0444,87.8957 29.5,87.5C 29.5,90.5 29.5,93.5 29.5,96.5C 30.675,96.281 31.675,96.6143 32.5,97.5C 30.3759,98.1494 28.3759,98.9827 26.5,100C 29.2766,100.051 31.9433,100.218 34.5,100.5C 32.7241,101.315 32.0574,102.482 32.5,104C 35.6564,104.603 38.6564,104.103 41.5,102.5C 41.8333,102.833 42.1667,103.167 42.5,103.5C 41.0552,105.063 39.3885,106.396 37.5,107.5C 37.8627,108.183 38.1961,108.85 38.5,109.5C 37.8333,109.5 37.1667,109.5 36.5,109.5C 36.3893,108.883 36.056,108.383 35.5,108C 31.8333,107.333 28.1667,107.333 24.5,108C 18.6199,112.288 16.9532,117.788 19.5,124.5C 19.7376,126.404 20.7376,127.738 22.5,128.5C 23.2623,130.262 24.5956,131.262 26.5,131.5C 29.3035,132.638 32.3035,132.805 35.5,132C 37.1193,131.764 38.1193,130.931 38.5,129.5C 39.1667,129.5 39.8333,129.5 40.5,129.5C 40.9528,130.458 41.6195,131.292 42.5,132C 40.5,132.333 38.5,132.667 36.5,133C 38.2205,133.739 39.8872,134.573 41.5,135.5C 40.6667,135.833 39.8333,136.167 39,136.5C 36.0385,135.859 33.2052,134.859 30.5,133.5C 26.3788,134.341 23.0455,136.341 20.5,139.5C 20.8333,139.833 21.1667,140.167 21.5,140.5C 24.4108,139.256 27.2441,137.923 30,136.5C 32.9124,138.066 36.0791,138.899 39.5,139C 38.3474,140.883 36.6807,141.716 34.5,141.5C 33.9087,144.614 32.242,147.114 29.5,149C 30.9814,153.312 29.3148,155.145 24.5,154.5C 25.0133,161.525 25.8466,168.525 27,175.5C 28.2988,175.966 29.7988,175.966 31.5,175.5C 31.2073,179.46 30.874,183.126 30.5,186.5C 32.8333,186.5 35.1667,186.5 37.5,186.5C 37.1774,190.226 37.5108,193.893 38.5,197.5C 40.3217,198.429 41.6551,197.762 42.5,195.5C 42.8333,196.167 43.1667,196.833 43.5,197.5C 41.8793,199.624 40.046,201.624 38,203.5C 37.5172,204.448 37.3505,205.448 37.5,206.5C 29.0761,196.668 22.4094,185.668 17.5,173.5C 17.2041,171.597 16.5375,169.93 15.5,168.5C 15.0293,166.421 14.3627,164.421 13.5,162.5C 13.2766,158.838 12.2766,155.505 10.5,152.5C 10.6054,148.452 10.2721,144.452 9.5,140.5C 9.21289,129.782 9.54623,119.115 10.5,108.5C 12.2499,104.817 12.9166,100.817 12.5,96.5C 12.5,96.1667 12.5,95.8333 12.5,95.5C 16.1186,88.9132 19.2853,81.9132 22,74.5C 24.9411,69.228 28.2744,64.228 32,59.5C 32.49,58.2068 32.6567,56.8734 32.5,55.5C 35.3231,54.0077 36.9898,51.6743 37.5,48.5C 42.5734,44.9344 47.2401,40.7677 51.5,36C 52.9456,34.702 54.2789,34.5354 55.5,35.5 Z"/></g>
<g><path style="opacity:1" fill="#574230" d="M 38.5,129.5 C 38.1193,130.931 37.1193,131.764 35.5,132C 32.3035,132.805 29.3035,132.638 26.5,131.5C 27.1667,131.5 27.8333,131.5 28.5,131.5C 32.0318,131.69 35.3652,131.023 38.5,129.5 Z"/></g>
<g><path style="opacity:1" fill="#150d57" d="M 115.5,170.5 C 117.898,170.259 119.898,170.926 121.5,172.5C 119.102,172.741 117.102,172.074 115.5,170.5 Z"/></g>
<g><path style="opacity:1" fill="#94959f" d="M 242.5,165.5 C 242.834,168.491 241.834,170.824 239.5,172.5C 239.935,169.843 240.935,167.509 242.5,165.5 Z"/></g>
<g><path style="opacity:1" fill="#78787e" d="M 15.5,168.5 C 16.5375,169.93 17.2041,171.597 17.5,173.5C 15.7868,172.365 15.1201,170.698 15.5,168.5 Z"/></g>
<g><path style="opacity:1" fill="#230775" d="M 154.5,169.5 C 149.782,172.737 144.448,174.404 138.5,174.5C 143.733,172.869 149.066,171.202 154.5,169.5 Z"/></g>
<g><path style="opacity:1" fill="#400ecd" d="M 186.5,115.5 C 187.222,115.918 187.722,116.584 188,117.5C 188.61,128.181 188.444,138.847 187.5,149.5C 186.491,154.984 184.491,159.984 181.5,164.5C 180.504,164.414 179.671,164.748 179,165.5C 177.591,167.892 176.091,170.226 174.5,172.5C 171.405,174.091 168.738,176.257 166.5,179C 163.421,179.528 161.087,181.028 159.5,183.5C 158.833,183.5 158.167,183.5 157.5,183.5C 154.416,182.016 151.416,182.182 148.5,184C 142.5,184.667 136.5,184.667 130.5,184C 128.277,183.434 126.277,182.6 124.5,181.5C 123.659,179.621 123.325,177.621 123.5,175.5C 124.5,175.5 125.5,175.5 126.5,175.5C 130.702,175.817 134.702,175.483 138.5,174.5C 144.448,174.404 149.782,172.737 154.5,169.5C 155.306,168.272 156.306,167.272 157.5,166.5C 158.167,166.167 158.833,165.833 159.5,165.5C 162.573,163.431 164.906,160.764 166.5,157.5C 167.167,157.5 167.5,157.167 167.5,156.5C 168.167,156.167 168.833,155.833 169.5,155.5C 168.97,157.924 168.136,160.257 167,162.5C 161.287,164.226 161.12,166.226 166.5,168.5C 169.609,167.226 171.942,165.06 173.5,162C 174.449,161.383 175.282,161.549 176,162.5C 176.689,161.643 177.522,160.977 178.5,160.5C 185.78,146.423 188.447,131.423 186.5,115.5 Z"/></g>
<g><path style="opacity:1" fill="#3819a7" d="M 181.5,164.5 C 177.289,169.225 177.955,173.225 183.5,176.5C 186.808,179.775 189.642,183.442 192,187.5C 192.671,188.252 193.504,188.586 194.5,188.5C 194.229,190.38 194.896,191.713 196.5,192.5C 196.5,193.5 196.5,194.5 196.5,195.5C 195.041,195.567 193.708,195.234 192.5,194.5C 186.446,188.723 180.446,182.557 174.5,176C 171.538,175.91 169.204,177.243 167.5,180C 164.929,181.454 162.262,182.62 159.5,183.5C 161.087,181.028 163.421,179.528 166.5,179C 168.738,176.257 171.405,174.091 174.5,172.5C 176.091,170.226 177.591,167.892 179,165.5C 179.671,164.748 180.504,164.414 181.5,164.5 Z"/></g>
<g><path style="opacity:1" fill="#240881" d="M 123.5,173.5 C 128.463,174.254 133.463,174.587 138.5,174.5C 134.702,175.483 130.702,175.817 126.5,175.5C 125.5,174.833 124.5,174.167 123.5,173.5 Z"/></g>
<g><path style="opacity:1" fill="#0b1c58" d="M 96.5,174.5 C 104.909,182.369 114.909,187.036 126.5,188.5C 128.042,189.301 129.708,189.634 131.5,189.5C 131.5,200.167 131.5,210.833 131.5,221.5C 130.305,221.322 129.138,220.989 128,220.5C 122.337,223.118 116.837,222.284 111.5,218C 112.973,217.29 113.64,216.124 113.5,214.5C 110.463,216.011 107.296,217.344 104,218.5C 101.626,216.754 99.1262,216.42 96.5,217.5C 91.8223,214.654 87.989,210.988 85,206.5C 84.2801,208.255 83.1134,209.089 81.5,209C 80.3966,207.32 80.7299,205.82 82.5,204.5C 80.7367,204.306 78.9033,204.306 77,204.5C 76.8019,202.618 76.3019,200.952 75.5,199.5C 75.1667,199.5 74.8333,199.5 74.5,199.5C 74.5,198.167 73.8333,197.5 72.5,197.5C 80.4666,189.868 88.4666,182.201 96.5,174.5 Z"/></g>
<g><path style="opacity:1" fill="#3a0dc2" d="M 103.5,90.5 C 102.075,91.922 101.075,93.5887 100.5,95.5C 99.0937,95.9731 98.427,96.9731 98.5,98.5C 96.5215,101.354 94.6881,104.354 93,107.5C 92.51,108.793 92.3433,110.127 92.5,111.5C 91.5933,113.657 90.9267,115.99 90.5,118.5C 89.3434,126.656 89.1768,134.99 90,143.5C 90.3333,142.833 90.6667,142.167 91,141.5C 93.8997,145.84 94.8997,150.507 94,155.5C 96.0765,154.243 97.9098,154.576 99.5,156.5C 101.5,158.5 103.5,160.5 105.5,162.5C 108.064,166.117 111.397,168.784 115.5,170.5C 117.102,172.074 119.102,172.741 121.5,172.5C 121.842,173.338 122.508,173.672 123.5,173.5C 124.5,174.167 125.5,174.833 126.5,175.5C 125.5,175.5 124.5,175.5 123.5,175.5C 123.325,177.621 123.659,179.621 124.5,181.5C 123.127,181.657 121.793,181.49 120.5,181C 118.204,178.601 115.371,177.101 112,176.5C 111.127,176.735 110.293,177.069 109.5,177.5C 105.894,175.88 102.56,173.88 99.5,171.5C 97.3619,170.192 95.3619,170.525 93.5,172.5C 93.7031,170.956 94.3698,169.622 95.5,168.5C 95.1667,168.167 94.8333,167.833 94.5,167.5C 91.8136,169.856 89.147,172.189 86.5,174.5C 86.5,174.167 86.5,173.833 86.5,173.5C 87.8333,171.833 89.1667,170.167 90.5,168.5C 92.0222,167.809 93.0222,166.642 93.5,165C 90.5503,160.577 87.8836,156.077 85.5,151.5C 85.5,150.833 85.5,150.167 85.5,149.5C 87.7031,150.884 89.7031,152.551 91.5,154.5C 91.8333,154 92.1667,153.5 92.5,153C 85.3278,137.543 83.4945,121.376 87,104.5C 88.7981,100.578 90.2981,96.578 91.5,92.5C 92.5,92.5 93.5,92.5 94.5,92.5C 92.3255,99.6406 93.3255,99.9739 97.5,93.5C 96.9747,92.8076 96.3081,92.3076 95.5,92C 96.6667,91.5 97.5,90.6667 98,89.5C 99.5695,89.67 101.403,90.0033 103.5,90.5 Z"/></g>
<g><path style="opacity:1" fill="#745387" d="M 99.5,171.5 C 106.784,179.645 115.784,184.979 126.5,187.5C 126.5,187.833 126.5,188.167 126.5,188.5C 114.909,187.036 104.909,182.369 96.5,174.5C 96.5,173.833 96.5,173.167 96.5,172.5C 97.209,171.596 98.209,171.263 99.5,171.5 Z"/></g>
<g><path style="opacity:1" fill="#320c98" d="M 99.5,171.5 C 98.209,171.263 97.209,171.596 96.5,172.5C 88.5265,180.139 80.5265,187.806 72.5,195.5C 79.1375,187.528 86.1375,179.861 93.5,172.5C 95.3619,170.525 97.3619,170.192 99.5,171.5 Z"/></g>
<g><path style="opacity:1" fill="#3710a9" d="M 99.5,171.5 C 102.56,173.88 105.894,175.88 109.5,177.5C 110.293,177.069 111.127,176.735 112,176.5C 115.371,177.101 118.204,178.601 120.5,181C 121.793,181.49 123.127,181.657 124.5,181.5C 126.277,182.6 128.277,183.434 130.5,184C 136.5,184.667 142.5,184.667 148.5,184C 151.416,182.182 154.416,182.016 157.5,183.5C 154.833,184.833 152.167,186.167 149.5,187.5C 147.901,187.232 146.568,187.566 145.5,188.5C 143.167,188.5 140.833,188.5 138.5,188.5C 138.5,199.833 138.5,211.167 138.5,222.5C 138.5,223.833 138.5,225.167 138.5,226.5C 137.292,227.234 135.959,227.567 134.5,227.5C 134.5,225.833 134.5,224.167 134.5,222.5C 135.29,223.609 135.79,224.942 136,226.5C 136.5,213.838 136.667,201.171 136.5,188.5C 135.5,188.5 134.5,188.5 133.5,188.5C 133.167,188.5 132.833,188.5 132.5,188.5C 130.435,188.483 128.435,188.15 126.5,187.5C 115.784,184.979 106.784,179.645 99.5,171.5 Z"/></g>
<g><path style="opacity:1" fill="#1b167a" d="M 157.5,183.5 C 158.167,183.5 158.833,183.5 159.5,183.5C 156.9,186.46 153.567,187.794 149.5,187.5C 152.167,186.167 154.833,184.833 157.5,183.5 Z"/></g>
<g><path style="opacity:1" fill="#0c1c57" d="M 192.5,194.5 C 191.5,194.5 190.5,194.5 189.5,194.5C 188.662,194.842 188.328,195.508 188.5,196.5C 187.596,197.209 187.263,198.209 187.5,199.5C 186.127,199.343 184.793,199.51 183.5,200C 181.593,203.319 178.926,205.819 175.5,207.5C 174.926,209.059 174.26,210.559 173.5,212C 170.5,212.333 167.5,212.667 164.5,213C 163.663,214.011 163.33,215.178 163.5,216.5C 160.223,216.216 157.057,216.549 154,217.5C 151.826,215.288 149.992,215.788 148.5,219C 147.207,219.49 145.873,219.657 144.5,219.5C 144.263,220.791 144.596,221.791 145.5,222.5C 145.5,223.833 144.833,224.5 143.5,224.5C 142.395,223.4 141.062,222.733 139.5,222.5C 139.5,211.5 139.5,200.5 139.5,189.5C 141.735,189.795 143.735,189.461 145.5,188.5C 146.568,187.566 147.901,187.232 149.5,187.5C 153.567,187.794 156.9,186.46 159.5,183.5C 162.262,182.62 164.929,181.454 167.5,180C 169.204,177.243 171.538,175.91 174.5,176C 180.446,182.557 186.446,188.723 192.5,194.5 Z"/></g>
<g><path style="opacity:1" fill="#4f2695" d="M 86.5,173.5 C 86.5,173.833 86.5,174.167 86.5,174.5C 81.5496,179.787 76.5496,185.12 71.5,190.5C 70.4196,192.996 69.0862,195.33 67.5,197.5C 68.325,198.386 69.325,198.719 70.5,198.5C 69.4324,199.434 68.099,199.768 66.5,199.5C 65.9033,199.265 65.5699,198.765 65.5,198C 65.9783,196.697 66.645,195.531 67.5,194.5C 68.3382,194.158 68.6716,193.492 68.5,192.5C 73.1491,188.007 77.3158,183.007 81,177.5C 82.7742,176.035 84.6075,174.702 86.5,173.5 Z"/></g>
<g><path style="opacity:1" fill="#6e23d7" d="M 93.5,172.5 C 86.1375,179.861 79.1375,187.528 72.5,195.5C 71.0937,195.973 70.427,196.973 70.5,198.5C 69.325,198.719 68.325,198.386 67.5,197.5C 69.0862,195.33 70.4196,192.996 71.5,190.5C 76.5496,185.12 81.5496,179.787 86.5,174.5C 89.147,172.189 91.8136,169.856 94.5,167.5C 94.8333,167.833 95.1667,168.167 95.5,168.5C 94.3698,169.622 93.7031,170.956 93.5,172.5 Z"/></g>
<g><path style="opacity:1" fill="#261e78" d="M 96.5,172.5 C 96.5,173.167 96.5,173.833 96.5,174.5C 88.4666,182.201 80.4666,189.868 72.5,197.5C 71.8333,197.833 71.1667,198.167 70.5,198.5C 70.427,196.973 71.0937,195.973 72.5,195.5C 80.5265,187.806 88.5265,180.139 96.5,172.5 Z"/></g>
<g><path style="opacity:1" fill="#4a3a34" d="M 65.5,191.5 C 62.7628,191.401 60.0961,191.735 57.5,192.5C 58.4919,190.974 59.9919,190.307 62,190.5C 63.3847,190.514 64.5514,190.848 65.5,191.5 Z"/></g>
<g><path style="opacity:1" fill="#976651" d="M 194.5,188.5 C 194.833,188.5 195.167,188.5 195.5,188.5C 197.735,188.205 199.735,188.539 201.5,189.5C 199.833,189.5 198.167,189.5 196.5,189.5C 196.5,190.5 196.5,191.5 196.5,192.5C 194.896,191.713 194.229,190.38 194.5,188.5 Z"/></g>
<g><path style="opacity:1" fill="#8e5b45" d="M 65.5,191.5 C 66.1667,191.5 66.8333,191.5 67.5,191.5C 68.1667,191.5 68.5,191.833 68.5,192.5C 68.6716,193.492 68.3382,194.158 67.5,194.5C 67.2178,193.222 66.5511,192.222 65.5,191.5 Z"/></g>
<g><path style="opacity:1" fill="#826c37" d="M 57.5,192.5 C 55.8333,194.833 53.8333,196.833 51.5,198.5C 51.7329,196.938 52.3995,195.605 53.5,194.5C 54.6049,193.4 55.9382,192.733 57.5,192.5 Z"/></g>
<g><path style="opacity:1" fill="#825a2f" d="M 203.5,190.5 C 204.794,191.29 205.961,192.29 207,193.5C 207.805,196.696 207.638,199.696 206.5,202.5C 206.664,199.813 206.497,197.146 206,194.5C 204.519,193.529 203.685,192.196 203.5,190.5 Z"/></g>
<g><path style="opacity:1" fill="#775d3c" d="M 189.5,194.5 C 187.69,205.021 192.024,209.688 202.5,208.5C 202.5,208.833 202.5,209.167 202.5,209.5C 192.256,211.058 187.589,206.725 188.5,196.5C 188.328,195.508 188.662,194.842 189.5,194.5 Z"/></g>
<g><path style="opacity:1" fill="#d38b18" d="M 201.5,189.5 C 202.492,189.328 203.158,189.662 203.5,190.5C 203.685,192.196 204.519,193.529 206,194.5C 206.497,197.146 206.664,199.813 206.5,202.5C 206.5,203.167 206.5,203.833 206.5,204.5C 205.167,205.833 203.833,207.167 202.5,208.5C 192.024,209.688 187.69,205.021 189.5,194.5C 190.5,194.5 191.5,194.5 192.5,194.5C 192.62,195.586 193.287,196.253 194.5,196.5C 195.416,196.457 196.083,196.124 196.5,195.5C 196.5,194.5 196.5,193.5 196.5,192.5C 196.5,191.5 196.5,190.5 196.5,189.5C 198.167,189.5 199.833,189.5 201.5,189.5 Z"/></g>
<g><path style="opacity:1" fill="#63283e" d="M 192.5,194.5 C 193.708,195.234 195.041,195.567 196.5,195.5C 196.083,196.124 195.416,196.457 194.5,196.5C 193.287,196.253 192.62,195.586 192.5,194.5 Z"/></g>
<g><path style="opacity:1" fill="#1f1977" d="M 145.5,188.5 C 143.735,189.461 141.735,189.795 139.5,189.5C 139.5,200.5 139.5,211.5 139.5,222.5C 139.167,222.5 138.833,222.5 138.5,222.5C 138.5,211.167 138.5,199.833 138.5,188.5C 140.833,188.5 143.167,188.5 145.5,188.5 Z"/></g>
<g><path style="opacity:1" fill="#09194c" d="M 222.5,202.5 C 221.4,203.605 220.733,204.938 220.5,206.5C 208.098,220.575 193.431,231.575 176.5,239.5C 175.833,239.5 175.167,239.5 174.5,239.5C 170.549,239.282 169.882,237.949 172.5,235.5C 172.291,234.914 171.957,234.414 171.5,234C 173.447,230.93 175.947,228.43 179,226.5C 179.591,225.517 179.257,224.85 178,224.5C 172.706,228.46 168.04,233.127 164,238.5C 160.712,238.342 157.212,238.342 153.5,238.5C 154.502,235.89 154.335,233.224 153,230.5C 151.308,232.245 149.475,232.578 147.5,231.5C 148.325,230.614 149.325,230.281 150.5,230.5C 150.5,229.5 150.5,228.5 150.5,227.5C 149.022,227.762 147.689,227.429 146.5,226.5C 147.421,224.969 147.088,223.635 145.5,222.5C 144.596,221.791 144.263,220.791 144.5,219.5C 145.873,219.657 147.207,219.49 148.5,219C 149.992,215.788 151.826,215.288 154,217.5C 157.057,216.549 160.223,216.216 163.5,216.5C 163.33,215.178 163.663,214.011 164.5,213C 167.5,212.667 170.5,212.333 173.5,212C 174.26,210.559 174.926,209.059 175.5,207.5C 178.926,205.819 181.593,203.319 183.5,200C 184.793,199.51 186.127,199.343 187.5,199.5C 187.263,198.209 187.596,197.209 188.5,196.5C 187.589,206.725 192.256,211.058 202.5,209.5C 204.997,208.871 206.33,207.204 206.5,204.5C 206.5,203.833 206.5,203.167 206.5,202.5C 207.638,199.696 207.805,196.696 207,193.5C 205.961,192.29 204.794,191.29 203.5,190.5C 203.158,189.662 202.492,189.328 201.5,189.5C 199.735,188.539 197.735,188.205 195.5,188.5C 196.942,187.18 197.608,185.514 197.5,183.5C 200.263,183.256 202.429,181.923 204,179.5C 206.097,176.933 207.43,173.933 208,170.5C 211.899,168.448 212.232,166.114 209,163.5C 208.153,160.412 208.653,157.579 210.5,155C 213.447,154.888 214.78,153.388 214.5,150.5C 213.022,150.762 211.689,150.429 210.5,149.5C 212.111,146.612 213.444,143.612 214.5,140.5C 217.713,140.81 220.713,140.477 223.5,139.5C 224.167,139.5 224.833,139.5 225.5,139.5C 228.394,138.118 230.894,136.118 233,133.5C 234.344,135.342 235.844,137.008 237.5,138.5C 238.24,141.836 238.906,145.17 239.5,148.5C 239,149.5 238.5,150.5 238,151.5C 237.086,150.346 236.253,150.513 235.5,152C 236.804,152.804 237.471,153.971 237.5,155.5C 235.697,157.959 234.363,160.626 233.5,163.5C 228.806,163.363 226.639,165.697 227,170.5C 226.667,170.167 226.333,169.833 226,169.5C 224.811,174.589 222.311,178.922 218.5,182.5C 221.91,183.742 224.576,185.909 226.5,189C 222.564,190.17 220.231,192.837 219.5,197C 220.741,198.731 221.741,200.564 222.5,202.5 Z"/></g>
<g><path style="opacity:1" fill="#cf8a0f" d="M 65.5,191.5 C 66.5511,192.222 67.2178,193.222 67.5,194.5C 66.645,195.531 65.9783,196.697 65.5,198C 65.5699,198.765 65.9033,199.265 66.5,199.5C 68.3569,200.754 70.3569,200.754 72.5,199.5C 73.6658,202.837 73.6658,206.17 72.5,209.5C 66.5967,216.624 59.93,217.291 52.5,211.5C 52.573,209.973 51.9063,208.973 50.5,208.5C 50.1872,204.958 50.5206,201.625 51.5,198.5C 53.8333,196.833 55.8333,194.833 57.5,192.5C 60.0961,191.735 62.7628,191.401 65.5,191.5 Z"/></g>
<g><path style="opacity:1" fill="#09194d" d="M 75.5,199.5 C 76.3019,200.952 76.8019,202.618 77,204.5C 78.9033,204.306 80.7367,204.306 82.5,204.5C 80.7299,205.82 80.3966,207.32 81.5,209C 83.1134,209.089 84.2801,208.255 85,206.5C 87.989,210.988 91.8223,214.654 96.5,217.5C 99.1262,216.42 101.626,216.754 104,218.5C 107.296,217.344 110.463,216.011 113.5,214.5C 113.64,216.124 112.973,217.29 111.5,218C 116.837,222.284 122.337,223.118 128,220.5C 129.138,220.989 130.305,221.322 131.5,221.5C 131.833,221.5 132.167,221.5 132.5,221.5C 132.5,221.833 132.5,222.167 132.5,222.5C 130.973,222.427 129.973,223.094 129.5,224.5C 127.167,224.833 125.833,226.167 125.5,228.5C 124.566,229.568 124.232,230.901 124.5,232.5C 121.851,234.478 121.851,236.645 124.5,239C 123.003,240.662 121.337,242.162 119.5,243.5C 118.713,242.758 118.047,241.925 117.5,241C 114.3,240.899 111.3,240.232 108.5,239C 104.179,238.501 99.8461,238.334 95.5,238.5C 95.3285,240.492 95.9951,242.158 97.5,243.5C 95.674,243.92 93.674,243.92 91.5,243.5C 89.1169,242.631 87.1169,241.131 85.5,239C 85.9574,238.586 86.2907,238.086 86.5,237.5C 83.9349,235.564 81.2682,233.731 78.5,232C 79.5,231.167 80.5,230.333 81.5,229.5C 79.8669,227.497 77.8669,226.164 75.5,225.5C 75.5,226.833 75.5,228.167 75.5,229.5C 69.1655,227.968 68.8321,225.468 74.5,222C 73.062,221.781 71.7287,221.281 70.5,220.5C 70.6532,217.89 71.9865,215.557 74.5,213.5C 74.1667,212.833 73.8333,212.167 73.5,211.5C 75.3308,207.759 75.9975,203.759 75.5,199.5 Z"/></g>
<g><path style="opacity:1" fill="#6c1ddd" d="M 133.5,188.5 C 134.5,188.5 135.5,188.5 136.5,188.5C 136.667,201.171 136.5,213.838 136,226.5C 135.79,224.942 135.29,223.609 134.5,222.5C 133.523,211.248 133.189,199.914 133.5,188.5 Z"/></g>
<g><path style="opacity:1" fill="#242173" d="M 126.5,188.5 C 126.5,188.167 126.5,187.833 126.5,187.5C 128.435,188.15 130.435,188.483 132.5,188.5C 132.5,199.5 132.5,210.5 132.5,221.5C 132.167,221.5 131.833,221.5 131.5,221.5C 131.5,210.833 131.5,200.167 131.5,189.5C 129.708,189.634 128.042,189.301 126.5,188.5 Z"/></g>
<g><path style="opacity:1" fill="#a0a1a8" d="M 224.5,201.5 C 223.92,203.749 222.587,205.415 220.5,206.5C 220.733,204.938 221.4,203.605 222.5,202.5C 223.167,202.167 223.833,201.833 224.5,201.5 Z"/></g>
<g><path style="opacity:1" fill="#6a4a2f" d="M 72.5,197.5 C 73.8333,197.5 74.5,198.167 74.5,199.5C 74.6646,202.518 74.498,205.518 74,208.5C 73.6174,209.056 73.1174,209.389 72.5,209.5C 73.6658,206.17 73.6658,202.837 72.5,199.5C 70.3569,200.754 68.3569,200.754 66.5,199.5C 68.099,199.768 69.4324,199.434 70.5,198.5C 71.1667,198.167 71.8333,197.833 72.5,197.5 Z"/></g>
<g><path style="opacity:1" fill="#5f30a3" d="M 132.5,188.5 C 132.833,188.5 133.167,188.5 133.5,188.5C 133.189,199.914 133.523,211.248 134.5,222.5C 134.5,224.167 134.5,225.833 134.5,227.5C 134.167,227.5 133.833,227.5 133.5,227.5C 133.784,225.585 133.451,223.919 132.5,222.5C 132.5,222.167 132.5,221.833 132.5,221.5C 132.5,210.5 132.5,199.5 132.5,188.5 Z"/></g>
<g><path style="opacity:1" fill="#3f2b35" d="M 206.5,204.5 C 206.33,207.204 204.997,208.871 202.5,209.5C 202.5,209.167 202.5,208.833 202.5,208.5C 203.833,207.167 205.167,205.833 206.5,204.5 Z"/></g>
<g><path style="opacity:1" fill="#131d4a" d="M 53.5,194.5 C 52.3995,195.605 51.7329,196.938 51.5,198.5C 50.5206,201.625 50.1872,204.958 50.5,208.5C 50.427,210.027 51.0937,211.027 52.5,211.5C 59.93,217.291 66.5967,216.624 72.5,209.5C 73.1174,209.389 73.6174,209.056 74,208.5C 74.498,205.518 74.6646,202.518 74.5,199.5C 74.8333,199.5 75.1667,199.5 75.5,199.5C 75.9975,203.759 75.3308,207.759 73.5,211.5C 73.8333,212.167 74.1667,212.833 74.5,213.5C 71.9865,215.557 70.6532,217.89 70.5,220.5C 71.7287,221.281 73.062,221.781 74.5,222C 68.8321,225.468 69.1655,227.968 75.5,229.5C 75.5,228.167 75.5,226.833 75.5,225.5C 77.8669,226.164 79.8669,227.497 81.5,229.5C 80.5,230.333 79.5,231.167 78.5,232C 81.2682,233.731 83.9349,235.564 86.5,237.5C 86.2907,238.086 85.9574,238.586 85.5,239C 87.1169,241.131 89.1169,242.631 91.5,243.5C 88.1944,242.556 84.861,241.556 81.5,240.5C 81.0269,239.094 80.0269,238.427 78.5,238.5C 78.1667,238.5 77.8333,238.5 77.5,238.5C 77.0269,237.094 76.0269,236.427 74.5,236.5C 59.7942,229.464 47.4609,219.464 37.5,206.5C 40.2347,205.107 42.568,203.107 44.5,200.5C 44.8603,197.169 46.3603,194.503 49,192.5C 50.1096,194.037 51.6096,194.703 53.5,194.5 Z"/></g>
<g><path style="opacity:1" fill="#483933" d="M 50.5,208.5 C 51.9063,208.973 52.573,209.973 52.5,211.5C 51.0937,211.027 50.427,210.027 50.5,208.5 Z"/></g>
<g><path style="opacity:1" fill="#7e5633" d="M 138.5,222.5 C 138.833,222.5 139.167,222.5 139.5,222.5C 141.062,222.733 142.395,223.4 143.5,224.5C 146.461,228.208 147.127,232.208 145.5,236.5C 146.153,231.443 144.487,227.443 140.5,224.5C 139.818,225.243 139.151,225.909 138.5,226.5C 138.5,225.167 138.5,223.833 138.5,222.5 Z"/></g>
<g><path style="opacity:1" fill="#aa6435" d="M 132.5,222.5 C 133.451,223.919 133.784,225.585 133.5,227.5C 132.71,226.391 132.21,225.058 132,223.5C 131.329,224.252 130.496,224.586 129.5,224.5C 129.973,223.094 130.973,222.427 132.5,222.5 Z"/></g>
<g><path style="opacity:1" fill="#69563b" d="M 129.5,224.5 C 128.5,226.167 127.167,227.5 125.5,228.5C 125.833,226.167 127.167,224.833 129.5,224.5 Z"/></g>
<g><path style="opacity:1" fill="#cf8212" d="M 133.5,227.5 C 133.833,227.5 134.167,227.5 134.5,227.5C 134.917,228.124 135.584,228.457 136.5,228.5C 137.713,228.253 138.38,227.586 138.5,226.5C 139.151,225.909 139.818,225.243 140.5,224.5C 144.487,227.443 146.153,231.443 145.5,236.5C 144.89,237.391 144.557,238.391 144.5,239.5C 142.833,240.5 141.5,241.833 140.5,243.5C 140.158,244.338 139.492,244.672 138.5,244.5C 134.334,245.056 130.668,244.056 127.5,241.5C 125.515,238.879 124.515,235.879 124.5,232.5C 124.232,230.901 124.566,229.568 125.5,228.5C 127.167,227.5 128.5,226.167 129.5,224.5C 130.496,224.586 131.329,224.252 132,223.5C 132.21,225.058 132.71,226.391 133.5,227.5 Z"/></g>
<g><path style="opacity:1" fill="#77363c" d="M 138.5,226.5 C 138.38,227.586 137.713,228.253 136.5,228.5C 135.584,228.457 134.917,228.124 134.5,227.5C 135.959,227.567 137.292,227.234 138.5,226.5 Z"/></g>
<g><path style="opacity:1" fill="#777a8a" d="M 74.5,236.5 C 76.0269,236.427 77.0269,237.094 77.5,238.5C 75.9731,238.573 74.9731,237.906 74.5,236.5 Z"/></g>
<g><path style="opacity:1" fill="#858794" d="M 78.5,238.5 C 80.0269,238.427 81.0269,239.094 81.5,240.5C 79.9731,240.573 78.9731,239.906 78.5,238.5 Z"/></g>
<g><path style="opacity:1" fill="#a1a2a8" d="M 174.5,239.5 C 175.167,239.5 175.833,239.5 176.5,239.5C 172.136,242.84 167.136,244.84 161.5,245.5C 165.714,243.226 170.047,241.226 174.5,239.5 Z"/></g>
<g><path style="opacity:1" fill="#777b8a" d="M 101.5,246.5 C 104.152,246.41 106.485,247.076 108.5,248.5C 105.848,248.59 103.515,247.924 101.5,246.5 Z"/></g>
<g><path style="opacity:1" fill="#101d4b" d="M 145.5,222.5 C 147.088,223.635 147.421,224.969 146.5,226.5C 147.689,227.429 149.022,227.762 150.5,227.5C 150.5,228.5 150.5,229.5 150.5,230.5C 149.325,230.281 148.325,230.614 147.5,231.5C 149.475,232.578 151.308,232.245 153,230.5C 154.335,233.224 154.502,235.89 153.5,238.5C 157.212,238.342 160.712,238.342 164,238.5C 168.04,233.127 172.706,228.46 178,224.5C 179.257,224.85 179.591,225.517 179,226.5C 175.947,228.43 173.447,230.93 171.5,234C 171.957,234.414 172.291,234.914 172.5,235.5C 169.882,237.949 170.549,239.282 174.5,239.5C 170.047,241.226 165.714,243.226 161.5,245.5C 144.021,249.505 126.355,250.505 108.5,248.5C 106.485,247.076 104.152,246.41 101.5,246.5C 97.8379,246.277 94.5046,245.277 91.5,243.5C 93.674,243.92 95.674,243.92 97.5,243.5C 95.9951,242.158 95.3285,240.492 95.5,238.5C 99.8461,238.334 104.179,238.501 108.5,239C 111.3,240.232 114.3,240.899 117.5,241C 118.047,241.925 118.713,242.758 119.5,243.5C 121.337,242.162 123.003,240.662 124.5,239C 121.851,236.645 121.851,234.478 124.5,232.5C 124.515,235.879 125.515,238.879 127.5,241.5C 127.539,242.583 127.873,243.583 128.5,244.5C 131.98,245.806 135.313,245.806 138.5,244.5C 139.492,244.672 140.158,244.338 140.5,243.5C 142.833,243.167 144.167,241.833 144.5,239.5C 144.557,238.391 144.89,237.391 145.5,236.5C 147.127,232.208 146.461,228.208 143.5,224.5C 144.833,224.5 145.5,223.833 145.5,222.5 Z"/></g>
<g><path style="opacity:1" fill="#412d33" d="M 127.5,241.5 C 130.668,244.056 134.334,245.056 138.5,244.5C 135.313,245.806 131.98,245.806 128.5,244.5C 127.873,243.583 127.539,242.583 127.5,241.5 Z"/></g>
<g><path style="opacity:1" fill="#5a3d24" d="M 144.5,239.5 C 144.167,241.833 142.833,243.167 140.5,243.5C 141.5,241.833 142.833,240.5 144.5,239.5 Z"/></g>
</svg>
