<?xml version="1.0" encoding="UTF-8"?>
<!DOCTYPE svg PUBLIC "-//W3C//DTD SVG 1.1//EN" "http://www.w3.org/Graphics/SVG/1.1/DTD/svg11.dtd">
<svg xmlns="http://www.w3.org/2000/svg" version="1.1" width="224px" height="224px" style="shape-rendering:geometricPrecision; text-rendering:geometricPrecision; image-rendering:optimizeQuality; fill-rule:evenodd; clip-rule:evenodd" xmlns:xlink="http://www.w3.org/1999/xlink">
<g><path style="opacity:0.829" fill="#f5f5f5" d="M 96.5,-0.5 C 106.5,-0.5 116.5,-0.5 126.5,-0.5C 168.473,7.30536 198.306,30.6387 216,69.5C 217.145,72.4318 217.978,75.4318 218.5,78.5C 199.254,31.5867 164.087,6.5867 113,3.5C 60.1154,6.09013 24.4488,32.0901 6,81.5C -3.82541,118.759 3.17459,152.425 27,182.5C 59.5224,217.51 99.0224,229.01 145.5,217C 156.388,213.221 166.722,208.388 176.5,202.5C 169.522,207.996 161.855,212.496 153.5,216C 144.587,219.308 135.587,221.808 126.5,223.5C 116.5,223.5 106.5,223.5 96.5,223.5C 42.5,212.833 10.1667,180.5 -0.5,126.5C -0.5,116.5 -0.5,106.5 -0.5,96.5C 10.1667,42.5 42.5,10.1667 96.5,-0.5 Z"/></g>
<g><path style="opacity:1" fill="#1b1b1b" d="M 218.5,78.5 C 218.171,81.2282 218.837,83.5615 220.5,85.5C 221.607,89.1424 222.607,92.8091 223.5,96.5C 223.5,106.5 223.5,116.5 223.5,126.5C 219.979,150.09 209.979,170.424 193.5,187.5C 191.167,189.167 189.167,191.167 187.5,193.5C 186.833,194.833 185.833,195.833 184.5,196.5C 182.596,196.738 181.262,197.738 180.5,199.5C 178.596,199.738 177.262,200.738 176.5,202.5C 166.722,208.388 156.388,213.221 145.5,217C 99.0224,229.01 59.5224,217.51 27,182.5C 3.17459,152.425 -3.82541,118.759 6,81.5C 24.4488,32.0901 60.1154,6.09013 113,3.5C 164.087,6.5867 199.254,31.5867 218.5,78.5 Z"/></g>
<g><path style="opacity:1" fill="#f4f4f4" d="M 102.5,6.5 C 148.807,4.73147 183.973,23.3981 208,62.5C 227.196,102.296 224.196,140.296 199,176.5C 167.351,213.296 127.851,225.796 80.5,214C 31.6719,196.151 6.33855,161.151 4.5,109C 9.16965,61.3394 33.8363,29.006 78.5,12C 86.5122,9.61722 94.5122,7.78389 102.5,6.5 Z"/></g>
<g><path style="opacity:1" fill="#020303" d="M 101.5,13.5 C 139.282,11.2452 170.115,24.5786 194,53.5C 219.602,92.245 219.935,131.245 195,170.5C 162.952,208.475 123.118,219.975 75.5,205C 30.7473,184.685 9.58059,149.852 12,100.5C 22.0072,50.9915 51.8405,21.9915 101.5,13.5 Z"/></g>
<g><path style="opacity:1" fill="#0b456e" d="M 120.5,47.5 C 125.239,50.3025 128.573,54.3025 130.5,59.5C 131.053,63.1124 132.053,66.6124 133.5,70C 133.333,70.8333 133.167,71.6667 133,72.5C 132.329,71.7476 131.496,71.4142 130.5,71.5C 128.695,68.5975 126.029,67.2641 122.5,67.5C 117.061,68.0073 112.394,70.0073 108.5,73.5C 105.91,72.8717 103.577,71.705 101.5,70C 98.6511,66.9838 95.6511,64.1504 92.5,61.5C 91.479,62.0016 91.3123,62.6683 92,63.5C 95.7672,67.7765 99.9339,71.4431 104.5,74.5C 102.5,74.5 100.5,74.5 98.5,74.5C 96.6675,73.7515 95.0009,72.7515 93.5,71.5C 90.4644,68.969 88.4644,65.8023 87.5,62C 88.153,58.2019 89.4863,54.7019 91.5,51.5C 93.0002,47.827 95.0002,44.4937 97.5,41.5C 100.766,41.5674 102.266,39.9008 102,36.5C 103.667,34.5 105.333,32.5 107,30.5C 107.399,30.7284 107.565,31.0618 107.5,31.5C 105.123,35.086 103.123,38.9193 101.5,43C 100.355,45.1986 100.355,47.3652 101.5,49.5C 103.568,40.942 107.568,33.442 113.5,27C 113.272,26.6012 112.938,26.4346 112.5,26.5C 113.172,25.7326 114.005,25.0659 115,24.5C 116.718,31.3967 117.718,38.3967 118,45.5C 118.708,46.3805 119.542,47.0472 120.5,47.5 Z"/></g>
<g><path style="opacity:1" fill="#074255" d="M 121.5,42.5 C 120.174,44.1951 120.507,45.5284 122.5,46.5C 121.508,46.3284 120.842,46.6618 120.5,47.5C 119.542,47.0472 118.708,46.3805 118,45.5C 117.718,38.3967 116.718,31.3967 115,24.5C 114.005,25.0659 113.172,25.7326 112.5,26.5C 110.605,27.973 108.939,29.6397 107.5,31.5C 107.565,31.0618 107.399,30.7284 107,30.5C 105.333,32.5 103.667,34.5 102,36.5C 102.266,39.9008 100.766,41.5674 97.5,41.5C 101.405,33.7632 106.905,27.4298 114,22.5C 115.653,22.8198 116.653,23.8198 117,25.5C 118.217,31.101 118.717,36.7676 118.5,42.5C 119.5,42.5 120.5,42.5 121.5,42.5 Z"/></g>
<g><path style="opacity:1" fill="#2ebde7" d="M 131.5,52.5 C 133.271,47.0519 135.937,42.0519 139.5,37.5C 139.167,37.1667 138.833,36.8333 138.5,36.5C 135.337,40.1559 132.671,44.1559 130.5,48.5C 129.3,49.2916 127.967,49.2916 126.5,48.5C 125.167,47.8333 123.833,47.1667 122.5,46.5C 120.507,45.5284 120.174,44.1951 121.5,42.5C 127.965,38.6861 134.632,35.3528 141.5,32.5C 141.754,41.0629 139.421,48.7295 134.5,55.5C 133.145,54.8118 132.145,53.8118 131.5,52.5 Z"/></g>
<g><path style="opacity:1" fill="#afc5cf" d="M 112.5,26.5 C 112.938,26.4346 113.272,26.6012 113.5,27C 107.568,33.442 103.568,40.942 101.5,49.5C 100.355,47.3652 100.355,45.1986 101.5,43C 103.123,38.9193 105.123,35.086 107.5,31.5C 108.939,29.6397 110.605,27.973 112.5,26.5 Z"/></g>
<g><path style="opacity:1" fill="#1c81a8" d="M 131.5,52.5 C 129.246,51.8763 127.579,50.543 126.5,48.5C 127.967,49.2916 129.3,49.2916 130.5,48.5C 132.671,44.1559 135.337,40.1559 138.5,36.5C 138.833,36.8333 139.167,37.1667 139.5,37.5C 135.937,42.0519 133.271,47.0519 131.5,52.5 Z"/></g>
<g><path style="opacity:1" fill="#16706b" d="M 91.5,51.5 C 89.4863,54.7019 88.153,58.2019 87.5,62C 88.4644,65.8023 90.4644,68.969 93.5,71.5C 92.8333,71.5 92.5,71.8333 92.5,72.5C 89.6952,70.2078 87.3619,67.5411 85.5,64.5C 87.368,59.1738 86.5347,58.5071 83,62.5C 82.2991,66.7559 81.1324,70.7559 79.5,74.5C 79.9861,71.6183 79.9861,68.9517 79.5,66.5C 80.0722,64.7446 80.9055,63.0779 82,61.5C 84.9517,57.9008 88.1184,54.5675 91.5,51.5 Z"/></g>
<g><path style="opacity:1" fill="#04414e" d="M 130.5,59.5 C 134.522,65.2564 136.189,71.5898 135.5,78.5C 134.069,75.9613 132.403,73.6279 130.5,71.5C 131.496,71.4142 132.329,71.7476 133,72.5C 133.167,71.6667 133.333,70.8333 133.5,70C 132.053,66.6124 131.053,63.1124 130.5,59.5 Z"/></g>
<g><path style="opacity:1" fill="#1f4333" d="M 141.5,58.5 C 144.073,58.1485 146.406,58.6485 148.5,60C 145.397,61.4394 142.564,63.2728 140,65.5C 139.5,64.5 139,63.5 138.5,62.5C 139.524,61.1482 140.524,59.8149 141.5,58.5 Z"/></g>
<g><path style="opacity:1" fill="#0f2b2c" d="M 130.5,71.5 C 127.436,69.657 124.103,69.157 120.5,70C 122.058,70.21 123.391,70.71 124.5,71.5C 122.901,71.2322 121.568,71.5655 120.5,72.5C 116.435,70.1714 112.769,70.8381 109.5,74.5C 108.833,74.5 108.5,74.1667 108.5,73.5C 112.394,70.0073 117.061,68.0073 122.5,67.5C 126.029,67.2641 128.695,68.5975 130.5,71.5 Z"/></g>
<g><path style="opacity:1" fill="#85a9b3" d="M 108.5,73.5 C 108.5,74.1667 108.833,74.5 109.5,74.5C 108.065,75.0965 106.398,75.0965 104.5,74.5C 99.9339,71.4431 95.7672,67.7765 92,63.5C 91.3123,62.6683 91.479,62.0016 92.5,61.5C 95.6511,64.1504 98.6511,66.9838 101.5,70C 103.577,71.705 105.91,72.8717 108.5,73.5 Z"/></g>
<g><path style="opacity:1" fill="#e4efeb" d="M 125.5,72.5 C 126.609,72.5569 127.609,72.8902 128.5,73.5C 127.962,75.1172 127.629,76.7839 127.5,78.5C 125.543,81.0591 123.877,80.7258 122.5,77.5C 122.5,75.8333 122.5,74.1667 122.5,72.5C 123.5,72.5 124.5,72.5 125.5,72.5 Z"/></g>
<g><path style="opacity:1" fill="#769285" d="M 120.5,72.5 C 121.568,71.5655 122.901,71.2322 124.5,71.5C 125.167,71.5 125.5,71.8333 125.5,72.5C 124.5,72.5 123.5,72.5 122.5,72.5C 122.5,74.1667 122.5,75.8333 122.5,77.5C 121.833,75.8333 121.167,74.1667 120.5,72.5 Z"/></g>
<g><path style="opacity:1" fill="#0b3736" d="M 85.5,64.5 C 83.8185,71.7121 83.1518,79.0455 83.5,86.5C 82.3483,81.0154 82.1816,75.3487 83,69.5C 83.7568,67.6854 84.5902,66.0188 85.5,64.5 Z"/></g>
<g><path style="opacity:1" fill="#33634f" d="M 141.5,75.5 C 142.376,75.3691 143.043,75.7025 143.5,76.5C 140.74,80.564 140.074,80.2307 141.5,75.5 Z"/></g>
<g><path style="opacity:1" fill="#29b9d4" d="M 85.5,64.5 C 84.5902,66.0188 83.7568,67.6854 83,69.5C 82.1816,75.3487 82.3483,81.0154 83.5,86.5C 83.5,88.5 83.5,90.5 83.5,92.5C 82.0337,91.653 81.2004,90.3197 81,88.5C 80.8213,84.9748 80.3213,81.6414 79.5,78.5C 79.5,77.1667 79.5,75.8333 79.5,74.5C 81.1324,70.7559 82.2991,66.7559 83,62.5C 86.5347,58.5071 87.368,59.1738 85.5,64.5 Z"/></g>
<g><path style="opacity:1" fill="#29503e" d="M 128.5,73.5 C 131.428,75.1239 132.095,77.4572 130.5,80.5C 129.719,79.2713 129.219,77.938 129,76.5C 128.722,77.4158 128.222,78.0825 127.5,78.5C 127.629,76.7839 127.962,75.1172 128.5,73.5 Z"/></g>
<g><path style="opacity:1" fill="#9e9e9e" d="M 218.5,78.5 C 219.924,80.5145 220.59,82.8478 220.5,85.5C 218.837,83.5615 218.171,81.2282 218.5,78.5 Z"/></g>
<g><path style="opacity:1" fill="#106157" d="M 67.5,89.5 C 66.5139,93.97 66.1805,98.6367 66.5,103.5C 65.8333,100.167 65.1667,96.8333 64.5,93.5C 64.7828,86.4839 66.9495,80.1506 71,74.5C 71.1667,75 71.3333,75.5 71.5,76C 69.1569,80.2066 67.8236,84.7066 67.5,89.5 Z"/></g>
<g><path style="opacity:1" fill="#1ca6a0" d="M 79.5,74.5 C 79.5,75.8333 79.5,77.1667 79.5,78.5C 78.2014,86.8877 78.5347,95.2211 80.5,103.5C 78.9263,102.016 77.593,100.349 76.5,98.5C 76.3339,92.8236 76.5006,87.1569 77,81.5C 77.3903,78.8958 78.2237,76.5625 79.5,74.5 Z"/></g>
<g><path style="opacity:1" fill="#568675" d="M 93.5,71.5 C 95.0009,72.7515 96.6675,73.7515 98.5,74.5C 108.251,79.87 118.251,84.87 128.5,89.5C 127.652,90.625 126.652,90.625 125.5,89.5C 113.462,85.6489 102.462,79.9822 92.5,72.5C 92.5,71.8333 92.8333,71.5 93.5,71.5 Z"/></g>
<g><path style="opacity:1" fill="#cde0da" d="M 142.5,91.5 C 141.833,91.5 141.167,91.5 140.5,91.5C 139.766,90.2921 139.433,88.9587 139.5,87.5C 141.167,87.5 142.833,87.5 144.5,87.5C 144.473,89.1993 143.806,90.5326 142.5,91.5 Z"/></g>
<g><path style="opacity:1" fill="#568373" d="M 105.5,89.5 C 111.878,89.2946 118.211,89.6279 124.5,90.5C 125.506,91.3957 125.506,92.0623 124.5,92.5C 121.14,92.3841 117.807,92.0508 114.5,91.5C 111.5,90.8333 108.5,90.1667 105.5,89.5 Z"/></g>
<g><path style="opacity:1" fill="#2b5140" d="M 105.5,89.5 C 108.5,90.1667 111.5,90.8333 114.5,91.5C 107.79,91.1542 101.29,92.1542 95,94.5C 93.967,94.4519 93.6337,94.1186 94,93.5C 97.4562,91.0702 101.29,89.7369 105.5,89.5 Z"/></g>
<g><path style="opacity:1" fill="#08476a" d="M 79.5,66.5 C 79.9861,68.9517 79.9861,71.6183 79.5,74.5C 78.2237,76.5625 77.3903,78.8958 77,81.5C 76.5006,87.1569 76.3339,92.8236 76.5,98.5C 79.6452,115.971 88.6452,129.471 103.5,139C 101.447,139.325 99.4473,138.991 97.5,138C 77.3203,126.338 68.6536,108.838 71.5,85.5C 71.523,83.0733 72.023,80.74 73,78.5C 74.6243,74.188 76.791,70.188 79.5,66.5 Z"/></g>
<g><path style="opacity:1" fill="#14281f" d="M 125.5,89.5 C 126.652,90.625 127.652,90.625 128.5,89.5C 129.478,89.811 130.145,90.4777 130.5,91.5C 129.349,93.7731 128.349,96.1065 127.5,98.5C 123.868,99.9836 120.534,101.984 117.5,104.5C 117.167,104.333 116.833,104.167 116.5,104C 118.5,102 120.5,100 122.5,98C 120.527,97.5045 118.527,97.3379 116.5,97.5C 117.952,96.6981 119.618,96.1981 121.5,96C 120.207,95.51 118.873,95.3433 117.5,95.5C 119.969,94.6829 122.635,94.1829 125.5,94C 124.944,93.6174 124.611,93.1174 124.5,92.5C 125.506,92.0623 125.506,91.3957 124.5,90.5C 125.167,90.5 125.5,90.1667 125.5,89.5 Z"/></g>
<g><path style="opacity:1" fill="#467762" d="M 117.5,95.5 C 118.873,95.3433 120.207,95.51 121.5,96C 119.618,96.1981 117.952,96.6981 116.5,97.5C 111.699,98.9348 107.033,100.435 102.5,102C 106.667,97.9969 111.667,95.8302 117.5,95.5 Z"/></g>
<g><path style="opacity:1" fill="#17857b" d="M 69.5,87.5 C 70.4902,93.6446 70.8235,99.9779 70.5,106.5C 69.6618,106.842 69.3284,107.508 69.5,108.5C 67.351,103.024 67.0177,97.357 68.5,91.5C 68.2322,89.901 68.5655,88.5676 69.5,87.5 Z"/></g>
<g><path style="opacity:1" fill="#406e59" d="M 140.5,91.5 C 141.167,91.5 141.833,91.5 142.5,91.5C 141.612,94.0545 141.279,96.7212 141.5,99.5C 139.095,100.687 136.761,102.187 134.5,104C 132.098,104.814 129.765,104.647 127.5,103.5C 135.068,102.93 139.401,98.9298 140.5,91.5 Z"/></g>
<g><path style="opacity:1" fill="#158176" d="M 147.5,116.5 C 146.833,116.833 146.167,117.167 145.5,117.5C 144.992,114.824 144.825,112.157 145,109.5C 146.903,111.441 147.736,113.774 147.5,116.5 Z"/></g>
<g><path style="opacity:1" fill="#219eaa" d="M 64.5,93.5 C 65.1667,96.8333 65.8333,100.167 66.5,103.5C 66.9411,110.487 68.6078,117.154 71.5,123.5C 70.2101,122.942 69.3768,121.942 69,120.5C 68.51,121.793 68.3433,123.127 68.5,124.5C 64.0031,114.528 62.6697,104.195 64.5,93.5 Z"/></g>
<g><path style="opacity:1" fill="#0c201e" d="M 67.5,89.5 C 67.3284,90.4916 67.6618,91.1583 68.5,91.5C 67.0177,97.357 67.351,103.024 69.5,108.5C 70.6993,117.442 74.0327,125.442 79.5,132.5C 78.8333,132.5 78.5,132.833 78.5,133.5C 75.6742,130.516 73.3409,127.183 71.5,123.5C 68.6078,117.154 66.9411,110.487 66.5,103.5C 66.1805,98.6367 66.5139,93.97 67.5,89.5 Z"/></g>
<g><path style="opacity:1" fill="#2dbee4" d="M 79.5,78.5 C 80.3213,81.6414 80.8213,84.9748 81,88.5C 81.2004,90.3197 82.0337,91.653 83.5,92.5C 92.0586,110.459 106.059,121.792 125.5,126.5C 131.401,128.479 136.734,127.479 141.5,123.5C 143.316,121.882 144.649,119.882 145.5,117.5C 146.167,117.167 146.833,116.833 147.5,116.5C 148.163,124.169 144.83,129.169 137.5,131.5C 131.464,131.64 125.464,131.307 119.5,130.5C 112.953,128.56 106.953,125.56 101.5,121.5C 98.1877,117.521 94.521,113.854 90.5,110.5C 89.479,111.002 89.3123,111.668 90,112.5C 93.3691,116.037 96.8691,119.371 100.5,122.5C 101.833,123.167 102.833,124.167 103.5,125.5C 101.857,125.52 100.524,124.853 99.5,123.5C 97.9825,124.911 96.6492,124.744 95.5,123C 96.1667,122.667 96.8333,122.333 97.5,122C 96.3333,120.833 95.1667,119.667 94,118.5C 94,119.833 94,121.167 94,122.5C 92.6325,120.185 91.7991,120.185 91.5,122.5C 92.5761,124.986 93.9094,127.319 95.5,129.5C 87.4626,122.78 82.4626,114.113 80.5,103.5C 78.5347,95.2211 78.2014,86.8877 79.5,78.5 Z"/></g>
<g><path style="opacity:1" fill="#0f4d4b" d="M 101.5,121.5 C 100.833,121.5 100.5,121.833 100.5,122.5C 96.8691,119.371 93.3691,116.037 90,112.5C 89.3123,111.668 89.479,111.002 90.5,110.5C 94.521,113.854 98.1877,117.521 101.5,121.5 Z"/></g>
<g><path style="opacity:1" fill="#4a8073" d="M 141.5,123.5 C 136.734,127.479 131.401,128.479 125.5,126.5C 126.239,126.631 126.906,126.464 127.5,126C 119.339,123.003 111.839,118.836 105,113.5C 104.312,112.668 104.479,112.002 105.5,111.5C 115.586,121.307 127.586,125.307 141.5,123.5 Z"/></g>
<g><path style="opacity:1" fill="#073633" d="M 71.5,85.5 C 68.6536,108.838 77.3203,126.338 97.5,138C 99.4473,138.991 101.447,139.325 103.5,139C 88.6452,129.471 79.6452,115.971 76.5,98.5C 77.593,100.349 78.9263,102.016 80.5,103.5C 82.4626,114.113 87.4626,122.78 95.5,129.5C 100.058,134.616 105.725,137.95 112.5,139.5C 113.298,139.957 113.631,140.624 113.5,141.5C 111.302,141.875 109.302,142.542 107.5,143.5C 88.109,138.109 75.7757,125.776 70.5,106.5C 70.8235,99.9779 70.4902,93.6446 69.5,87.5C 69.8333,86.5 70.5,85.8333 71.5,85.5 Z"/></g>
<g><path style="opacity:1" fill="#0e615b" d="M 161.5,121.5 C 161.665,118.482 161.498,115.482 161,112.5C 160.714,127.776 153.547,138.109 139.5,143.5C 139.5,142.833 139.167,142.5 138.5,142.5C 143.322,140.252 147.655,137.252 151.5,133.5C 157.185,127.114 158.851,120.114 156.5,112.5C 156.462,109.049 155.795,105.716 154.5,102.5C 154.708,99.8152 155.875,99.1485 158,100.5C 162.291,107.087 163.458,114.087 161.5,121.5 Z"/></g>
<g><path style="opacity:1" fill="#2dbee7" d="M 70.5,106.5 C 75.7757,125.776 88.109,138.109 107.5,143.5C 108.209,144.404 109.209,144.737 110.5,144.5C 111.263,145.268 112.263,145.768 113.5,146C 120.014,146.82 126.347,146.653 132.5,145.5C 134.833,144.833 137.167,144.167 139.5,143.5C 153.547,138.109 160.714,127.776 161,112.5C 161.498,115.482 161.665,118.482 161.5,121.5C 159.626,132.414 154.292,141.248 145.5,148C 127.318,159.269 108.652,160.269 89.5,151C 79.7353,144.276 72.7353,135.443 68.5,124.5C 68.3433,123.127 68.51,121.793 69,120.5C 69.3768,121.942 70.2101,122.942 71.5,123.5C 73.3409,127.183 75.6742,130.516 78.5,133.5C 81.2508,137.757 84.5842,141.59 88.5,145C 90.212,146.751 92.212,147.418 94.5,147C 88.9969,142.663 83.9969,137.83 79.5,132.5C 74.0327,125.442 70.6993,117.442 69.5,108.5C 69.3284,107.508 69.6618,106.842 70.5,106.5 Z"/></g>
<g><path style="opacity:1" fill="#091a18" d="M 113.5,141.5 C 121.762,143.623 130.095,143.956 138.5,142.5C 139.167,142.5 139.5,142.833 139.5,143.5C 137.167,144.167 134.833,144.833 132.5,145.5C 125.132,145.683 117.799,145.35 110.5,144.5C 109.209,144.737 108.209,144.404 107.5,143.5C 109.302,142.542 111.302,141.875 113.5,141.5 Z"/></g>
<g><path style="opacity:1" fill="#0f4341" d="M 79.5,132.5 C 83.9969,137.83 88.9969,142.663 94.5,147C 92.212,147.418 90.212,146.751 88.5,145C 84.5842,141.59 81.2508,137.757 78.5,133.5C 78.5,132.833 78.8333,132.5 79.5,132.5 Z"/></g>
<g><path style="opacity:1" fill="#2ec0ed" d="M 103.5,125.5 C 109.658,129.578 116.324,132.578 123.5,134.5C 123.953,135.458 124.619,136.292 125.5,137C 135.266,139.302 143.766,137.135 151,130.5C 151.483,131.448 151.649,132.448 151.5,133.5C 147.655,137.252 143.322,140.252 138.5,142.5C 130.095,143.956 121.762,143.623 113.5,141.5C 113.631,140.624 113.298,139.957 112.5,139.5C 105.725,137.95 100.058,134.616 95.5,129.5C 93.9094,127.319 92.5761,124.986 91.5,122.5C 91.7991,120.185 92.6325,120.185 94,122.5C 94,121.167 94,119.833 94,118.5C 95.1667,119.667 96.3333,120.833 97.5,122C 96.8333,122.333 96.1667,122.667 95.5,123C 96.6492,124.744 97.9825,124.911 99.5,123.5C 100.524,124.853 101.857,125.52 103.5,125.5 Z"/></g>
<g><path style="opacity:1" fill="#157171" d="M 119.5,130.5 C 125.464,131.307 131.464,131.64 137.5,131.5C 135.19,132.164 132.69,132.497 130,132.5C 126.195,132.696 122.695,132.03 119.5,130.5 Z"/></g>
<g><path style="opacity:1" fill="#2abbd6" d="M 156.5,112.5 C 158.851,120.114 157.185,127.114 151.5,133.5C 151.649,132.448 151.483,131.448 151,130.5C 143.766,137.135 135.266,139.302 125.5,137C 124.619,136.292 123.953,135.458 123.5,134.5C 142.64,138.99 153.64,131.657 156.5,112.5 Z"/></g>
<g><path style="opacity:1" fill="#157376" d="M 110.5,144.5 C 117.799,145.35 125.132,145.683 132.5,145.5C 126.347,146.653 120.014,146.82 113.5,146C 112.263,145.768 111.263,145.268 110.5,144.5 Z"/></g>
<g><path style="opacity:1" fill="#86a296" d="M 92.5,161.5 C 96.97,160.514 101.637,160.181 106.5,160.5C 106.5,161.833 106.5,163.167 106.5,164.5C 102.5,164.5 98.5,164.5 94.5,164.5C 98.0208,163.834 101.687,163.167 105.5,162.5C 101.217,161.508 96.8839,161.174 92.5,161.5 Z"/></g>
<g><path style="opacity:1" fill="#8ca89c" d="M 132.5,161.5 C 138.31,160.51 144.31,160.177 150.5,160.5C 150.5,161.833 150.5,163.167 150.5,164.5C 148.167,164.5 145.833,164.5 143.5,164.5C 145.369,163.835 147.369,163.169 149.5,162.5C 143.872,161.505 138.206,161.171 132.5,161.5 Z"/></g>
<g><path style="opacity:1" fill="#7c968b" d="M 163.5,181.5 C 163.5,175.5 163.5,169.5 163.5,163.5C 165.924,163.808 168.257,163.474 170.5,162.5C 164.833,161.167 159.167,161.167 153.5,162.5C 155.969,163.168 158.302,163.835 160.5,164.5C 158.167,164.5 155.833,164.5 153.5,164.5C 152.566,163.432 152.232,162.099 152.5,160.5C 158.833,160.5 165.167,160.5 171.5,160.5C 171.5,161.833 171.5,163.167 171.5,164.5C 169.167,164.5 166.833,164.5 164.5,164.5C 164.822,170.358 164.489,176.025 163.5,181.5 Z"/></g>
<g><path style="opacity:1" fill="#ccdbd5" d="M 117.5,160.5 C 119.144,160.286 120.644,160.62 122,161.5C 124.81,168.103 127.31,174.77 129.5,181.5C 128.167,181.5 126.833,181.5 125.5,181.5C 123.902,176.299 121.735,171.299 119,166.5C 118.069,168.459 117.236,170.459 116.5,172.5C 119.342,173.004 120.675,174.671 120.5,177.5C 118.167,177.5 115.833,177.5 113.5,177.5C 113.833,180.5 112.5,181.833 109.5,181.5C 110.986,174.042 113.652,167.042 117.5,160.5 Z"/></g>
<g><path style="opacity:1" fill="#eef7f4" d="M 92.5,161.5 C 96.8839,161.174 101.217,161.508 105.5,162.5C 101.687,163.167 98.0208,163.834 94.5,164.5C 93.4042,168.413 93.2375,172.413 94,176.5C 94.3826,177.056 94.8826,177.389 95.5,177.5C 98.6893,178.166 102.023,178.833 105.5,179.5C 100.817,180.72 96.1501,180.72 91.5,179.5C 89.8462,173.258 90.1795,167.258 92.5,161.5 Z"/></g>
<g><path style="opacity:1" fill="#d9e5e1" d="M 132.5,161.5 C 138.206,161.171 143.872,161.505 149.5,162.5C 147.369,163.169 145.369,163.835 143.5,164.5C 143.5,170.167 143.5,175.833 143.5,181.5C 142.167,181.5 140.833,181.5 139.5,181.5C 139.5,175.833 139.5,170.167 139.5,164.5C 137.167,164.5 134.833,164.5 132.5,164.5C 132.5,163.5 132.5,162.5 132.5,161.5 Z"/></g>
<g><path style="opacity:1" fill="#e4f2ee" d="M 163.5,181.5 C 162.5,181.5 161.5,181.5 160.5,181.5C 160.5,175.833 160.5,170.167 160.5,164.5C 158.302,163.835 155.969,163.168 153.5,162.5C 159.167,161.167 164.833,161.167 170.5,162.5C 168.257,163.474 165.924,163.808 163.5,163.5C 163.5,169.5 163.5,175.5 163.5,181.5 Z"/></g>
<g><path style="opacity:1" fill="#3e544a" d="M 153.5,164.5 C 155.833,164.5 158.167,164.5 160.5,164.5C 160.5,170.167 160.5,175.833 160.5,181.5C 159.512,176.36 159.179,171.026 159.5,165.5C 157.265,165.795 155.265,165.461 153.5,164.5 Z"/></g>
<g><path style="opacity:1" fill="#28b3cd" d="M 59.5,160.5 C 64.5111,160.334 69.5111,160.501 74.5,161C 75,161.5 75.5,162 76,162.5C 75.8671,167.049 76.0338,171.549 76.5,176C 76.6464,178.034 75.9797,179.701 74.5,181C 69.2487,181.804 64.082,181.637 59,180.5C 58.2075,173.753 58.3742,167.086 59.5,160.5 Z"/></g>
<g><path style="opacity:1" fill="#0a3733" d="M 72.5,165.5 C 69.5,165.5 66.5,165.5 63.5,165.5C 63.5,169.167 63.5,172.833 63.5,176.5C 66.1667,176.5 68.8333,176.5 71.5,176.5C 71.5,175.5 71.5,174.5 71.5,173.5C 69.2646,173.795 67.2646,173.461 65.5,172.5C 67.8333,172.5 70.1667,172.5 72.5,172.5C 72.5,174.167 72.5,175.833 72.5,177.5C 69.1667,177.5 65.8333,177.5 62.5,177.5C 62.5,173.167 62.5,168.833 62.5,164.5C 66.0419,164.187 69.3752,164.521 72.5,165.5 Z"/></g>
<g><path style="opacity:1" fill="#010705" d="M 72.5,165.5 C 72.5,166.5 72.5,167.5 72.5,168.5C 70.1667,168.5 67.8333,168.5 65.5,168.5C 65.5,169.833 65.5,171.167 65.5,172.5C 67.2646,173.461 69.2646,173.795 71.5,173.5C 71.5,174.5 71.5,175.5 71.5,176.5C 68.8333,176.5 66.1667,176.5 63.5,176.5C 63.5,172.833 63.5,169.167 63.5,165.5C 66.5,165.5 69.5,165.5 72.5,165.5 Z"/></g>
<g><path style="opacity:1" fill="#8eaa9f" d="M 95.5,177.5 C 99.1667,177.5 102.833,177.5 106.5,177.5C 106.5,178.833 106.5,180.167 106.5,181.5C 101.821,181.666 97.1548,181.499 92.5,181C 91.944,180.617 91.6107,180.117 91.5,179.5C 91.6107,180.117 91.944,180.617 92.5,181C 97.1548,181.499 101.821,181.666 106.5,181.5C 106.5,180.167 106.5,178.833 106.5,177.5C 102.833,177.5 99.1667,177.5 95.5,177.5 Z"/></g>
<g><path style="opacity:0.059" fill="#ededed" d="M 193.5,187.5 C 192.5,190.5 190.5,192.5 187.5,193.5C 189.167,191.167 191.167,189.167 193.5,187.5 Z"/></g>
<g><path style="opacity:1" fill="#689585" d="M 87.5,192.5 C 89.2884,191.378 91.2884,191.211 93.5,192C 92.0041,194.201 91.0041,196.701 90.5,199.5C 90.0615,196.705 89.0615,194.372 87.5,192.5 Z"/></g>
<g><path style="opacity:1" fill="#588776" d="M 99.5,190.5 C 106.238,191.061 107.905,194.228 104.5,200C 98.4983,200.993 96.3317,198.493 98,192.5C 98.7172,191.956 99.2172,191.289 99.5,190.5 Z"/></g>
<g><path style="opacity:1" fill="#080e0b" d="M 99.5,193.5 C 101.167,193.5 102.833,193.5 104.5,193.5C 105.169,197.676 103.669,199.009 100,197.5C 99.51,196.207 99.3433,194.873 99.5,193.5 Z"/></g>
<g><path style="opacity:1" fill="#608e7d" d="M 130.5,191.5 C 132.91,191.921 134.743,193.254 136,195.5C 136.219,194.062 136.719,192.729 137.5,191.5C 139.524,199.3 138.024,200.633 133,195.5C 132.798,197.256 132.298,198.922 131.5,200.5C 130.516,197.572 130.183,194.572 130.5,191.5 Z"/></g>
<g><path style="opacity:1" fill="#669182" d="M 114.5,191.5 C 115.376,191.369 116.043,191.702 116.5,192.5C 115.833,193.5 115.167,194.5 114.5,195.5C 117.217,199.279 116.717,199.945 113,197.5C 112.692,198.308 112.192,198.975 111.5,199.5C 110.353,197.235 110.186,194.902 111,192.5C 112.579,193.8 113.745,193.466 114.5,191.5 Z"/></g>
<g><path style="opacity:1" fill="#5c8b79" d="M 121.5,190.5 C 123.167,190.5 124.833,190.5 126.5,190.5C 126.5,191.5 126.5,192.5 126.5,193.5C 121.959,193.331 121.626,193.998 125.5,195.5C 124.5,196.167 123.5,196.833 122.5,197.5C 127.363,199.675 126.697,200.675 120.5,200.5C 120.253,197.061 120.586,193.728 121.5,190.5 Z"/></g>
<g><path style="opacity:0.278" fill="#efefef" d="M 184.5,196.5 C 183.738,198.262 182.404,199.262 180.5,199.5C 181.262,197.738 182.596,196.738 184.5,196.5 Z"/></g>
<g><path style="opacity:0.4" fill="#f0f0f0" d="M 180.5,199.5 C 179.738,201.262 178.404,202.262 176.5,202.5C 177.262,200.738 178.596,199.738 180.5,199.5 Z"/></g>
</svg>
