<?xml version="1.0" encoding="UTF-8"?>
<!DOCTYPE svg PUBLIC "-//W3C//DTD SVG 1.1//EN" "http://www.w3.org/Graphics/SVG/1.1/DTD/svg11.dtd">
<svg xmlns="http://www.w3.org/2000/svg" version="1.1" width="128px" height="128px" style="shape-rendering:geometricPrecision; text-rendering:geometricPrecision; image-rendering:optimizeQuality; fill-rule:evenodd; clip-rule:evenodd" xmlns:xlink="http://www.w3.org/1999/xlink">
<g><path style="opacity:1" fill="#000000" d="M -0.5,-0.5 C 4.83333,-0.5 10.1667,-0.5 15.5,-0.5C 15.5,4.83333 15.5,10.1667 15.5,15.5C 10.1667,15.5 4.83333,15.5 -0.5,15.5C -0.5,10.1667 -0.5,4.83333 -0.5,-0.5 Z"/></g>
<g><path style="opacity:1" fill="#1d104c" d="M 68.5,13.5 C 68.5,13.1667 68.5,12.8333 68.5,12.5C 71.1667,12.8333 71.1667,13.1667 68.5,13.5 Z"/></g>
<g><path style="opacity:1" fill="#0b55d8" d="M 68.5,12.5 C 67.1667,12.8333 67.1667,13.1667 68.5,13.5C 70.5664,15.1991 72.8997,16.5324 75.5,17.5C 75.7828,18.2891 76.2828,18.9558 77,19.5C 77.8373,17.9926 79.0039,17.4926 80.5,18C 82.2333,20.2753 84.0666,22.4419 86,24.5C 87.5069,23.4652 89.0069,23.6319 90.5,25C 91.6364,26.1451 92.6364,27.3117 93.5,28.5C 94.2905,29.4013 95.2905,30.0679 96.5,30.5C 98.0683,29.5269 99.735,29.3603 101.5,30C 102.051,31.3985 102.384,32.7318 102.5,34C 105.633,34.8596 108.3,36.3596 110.5,38.5C 109.778,38.9175 109.278,39.5842 109,40.5C 108.5,51.1615 108.333,61.8281 108.5,72.5C 108.5,73.5 108.5,74.5 108.5,75.5C 108.5,75.8333 108.5,76.1667 108.5,76.5C 108.631,77.2389 108.464,77.9056 108,78.5C 106.269,76.3834 104.102,74.8834 101.5,74C 96.9381,72.7175 92.6047,72.2175 88.5,72.5C 88.5,65.5 88.5,58.5 88.5,51.5C 88.631,50.7611 88.4643,50.0944 88,49.5C 87.0138,50.1712 85.8471,50.1712 84.5,49.5C 83.5994,47.2729 81.9328,46.2729 79.5,46.5C 79.5,45.8333 79.5,45.1667 79.5,44.5C 79.1583,43.6618 78.4916,43.3284 77.5,43.5C 77.1583,42.6618 76.4916,42.3284 75.5,42.5C 75.5,41.8333 75.1667,41.5 74.5,41.5C 74.1667,41.5 73.8333,41.5 73.5,41.5C 73.5,40.8333 73.1667,40.5 72.5,40.5C 72.1667,39.1667 71.8333,39.1667 71.5,40.5C 71.1667,40.5 70.8333,40.5 70.5,40.5C 70.1667,40.5 69.8333,40.5 69.5,40.5C 69.5,39.8333 69.1667,39.5 68.5,39.5C 68.5,39.1667 68.5,38.8333 68.5,38.5C 67.4863,37.3263 66.153,36.6596 64.5,36.5C 63.8333,35.1667 63.1667,35.1667 62.5,36.5C 61.3218,39.2165 60.3218,39.5499 59.5,37.5C 62.7171,34.1159 62.0504,32.9492 57.5,34C 58.9561,34.4226 59.4561,35.2559 59,36.5C 57.5806,35.5399 56.0806,34.7065 54.5,34C 55.8333,33.3333 55.8333,32.6667 54.5,32C 51.2397,31.2165 48.0731,31.3832 45,32.5C 42.4575,31.1236 42.2908,29.957 44.5,29C 42.3496,27.5886 40.0163,26.7553 37.5,26.5C 43.1368,23.68 48.4701,20.3467 53.5,16.5C 53.5,16.1667 53.5,15.8333 53.5,15.5C 55.4961,16.0618 57.4961,15.5618 59.5,14C 58.3961,12.8687 58.7295,12.0354 60.5,11.5C 62.2781,11.5693 64.1114,11.9026 66,12.5C 67.0712,9.88747 67.9045,9.88747 68.5,12.5 Z M 64.5,36.5 C 66.153,36.6596 67.4863,37.3263 68.5,38.5C 66.6203,38.7709 65.287,38.1042 64.5,36.5 Z"/></g>
<g><path style="opacity:1" fill="#15262d" d="M 53.5,15.5 C 53.5,15.8333 53.5,16.1667 53.5,16.5C 50.6644,16.7978 50.1644,16.1311 52,14.5C 52.3826,15.056 52.8826,15.3893 53.5,15.5 Z"/></g>
<g><path style="opacity:1" fill="#1d104c" d="M 75.5,17.5 C 75.8966,16.475 76.5632,16.3083 77.5,17C 76.9056,17.4643 76.2389,17.631 75.5,17.5 Z"/></g>
<g><path style="opacity:1" fill="#248f99" d="M 33.5,28.5 C 33.1667,28.5 32.8333,28.5 32.5,28.5C 31.2267,27.9232 31.2267,27.2565 32.5,26.5C 33.2975,26.9569 33.6309,27.6236 33.5,28.5 Z"/></g>
<g><path style="opacity:1" fill="#247d8d" d="M 96.5,30.5 C 95.2905,30.0679 94.2905,29.4013 93.5,28.5C 93.369,27.7611 93.5357,27.0944 94,26.5C 95.4813,27.4709 96.3146,28.8042 96.5,30.5 Z"/></g>
<g><path style="opacity:1" fill="#0b55d9" d="M 37.5,26.5 C 40.0163,26.7553 42.3496,27.5886 44.5,29C 42.2908,29.957 42.4575,31.1236 45,32.5C 48.0731,31.3832 51.2397,31.2165 54.5,32C 55.8333,32.6667 55.8333,33.3333 54.5,34C 56.0806,34.7065 57.5806,35.5399 59,36.5C 59.4561,35.2559 58.9561,34.4226 57.5,34C 62.0504,32.9492 62.7171,34.1159 59.5,37.5C 58.6618,37.8417 58.3284,38.5084 58.5,39.5C 57.8333,39.5 57.5,39.8333 57.5,40.5C 56.3478,39.375 55.3478,39.375 54.5,40.5C 53.8333,40.8333 53.1667,41.1667 52.5,41.5C 51.8333,41.5 51.5,41.8333 51.5,42.5C 50.8333,42.5 50.5,42.8333 50.5,43.5C 48.847,43.6596 47.5137,44.3263 46.5,45.5C 45.1667,45.5 44.5,46.1667 44.5,47.5C 43.8333,47.5 43.1667,47.5 42.5,47.5C 41.8333,47.5 41.5,47.8333 41.5,48.5C 41.5,49.1667 41.1667,49.5 40.5,49.5C 40.1667,48.1667 39.8333,48.1667 39.5,49.5C 38.342,58.9911 38.1754,68.6578 39,78.5C 41.7274,80.0613 44.5607,81.3946 47.5,82.5C 47.5,83.1667 47.8333,83.5 48.5,83.5C 48.8417,84.3382 49.5084,84.6716 50.5,84.5C 50.5,85.1667 50.8333,85.5 51.5,85.5C 51.8333,85.5 52.1667,85.5 52.5,85.5C 53.7682,87.047 55.4348,88.047 57.5,88.5C 59.4346,89.81 61.4346,91.1433 63.5,92.5C 64.1067,92.3764 64.44,92.0431 64.5,91.5C 65.1667,91.5 65.5,91.1667 65.5,90.5C 68.0602,89.0749 70.3935,88.0749 72.5,87.5C 72.6458,90.9556 72.8124,94.6223 73,98.5C 74.5801,102.26 76.4135,105.927 78.5,109.5C 76.1667,110.167 73.8333,110.833 71.5,111.5C 71.5,112.5 71.5,113.5 71.5,114.5C 69.2646,114.205 67.2646,114.539 65.5,115.5C 64.5,115.5 63.5,115.5 62.5,115.5C 61.2502,115.423 60.4169,114.756 60,113.5C 58.9887,114.337 57.8221,114.67 56.5,114.5C 56.7373,113.209 56.404,112.209 55.5,111.5C 53.9567,109.443 52.9567,109.443 52.5,111.5C 49.9714,109.735 47.6381,107.735 45.5,105.5C 44.8333,105.833 44.1667,106.167 43.5,106.5C 38.6619,102.703 33.6619,99.8698 28.5,98C 29.1667,97.6667 29.8333,97.3333 30.5,97C 29.1011,96.4054 27.7678,96.5721 26.5,97.5C 25.0878,96.1936 23.4211,95.3603 21.5,95C 20.9473,93.1222 19.9473,91.6222 18.5,90.5C 18.4431,89.391 18.1098,88.391 17.5,87.5C 18.3315,71.005 18.8315,54.3384 19,37.5C 20.8557,36.0999 22.689,34.7665 24.5,33.5C 27.5113,32.3307 30.178,30.664 32.5,28.5C 32.8333,28.5 33.1667,28.5 33.5,28.5C 34.8333,27.8333 36.1667,27.1667 37.5,26.5 Z M 57.5,88.5 C 58.5,88.5 59.5,88.5 60.5,88.5C 61.4916,88.3284 62.1583,88.6618 62.5,89.5C 62.8333,90.5 63.5,91.1667 64.5,91.5C 64.44,92.0431 64.1067,92.3764 63.5,92.5C 61.4346,91.1433 59.4346,89.81 57.5,88.5 Z"/></g>
<g><path style="opacity:1" fill="#2323b4" d="M 24.5,33.5 C 22.3431,32.9467 22.5097,31.9467 25,30.5C 25.4696,31.5768 25.3029,32.5768 24.5,33.5 Z"/></g>
<g><path style="opacity:1" fill="#030107" d="M 16.5,37.5 C 17.6615,53.6615 17.8282,69.9948 17,86.5C 16.5001,70.1701 16.3334,53.8367 16.5,37.5 Z"/></g>
<g><path style="opacity:1" fill="#000005" d="M 110.5,38.5 C 111.239,38.369 111.906,38.5357 112.5,39C 111.843,50.2648 111.177,61.4315 110.5,72.5C 110.5,61.1667 110.5,49.8333 110.5,38.5 Z"/></g>
<g><path style="opacity:1" fill="#0d0e16" d="M 62.5,36.5 C 63.1667,36.5 63.8333,36.5 64.5,36.5C 65.287,38.1042 66.6203,38.7709 68.5,38.5C 68.5,38.8333 68.5,39.1667 68.5,39.5C 69.1667,39.5 69.5,39.8333 69.5,40.5C 69.8333,40.5 70.1667,40.5 70.5,40.5C 70.8333,41.8333 71.1667,41.8333 71.5,40.5C 71.8333,40.5 72.1667,40.5 72.5,40.5C 73.1667,40.5 73.5,40.8333 73.5,41.5C 73.8333,42.8333 74.1667,42.8333 74.5,41.5C 75.1667,41.5 75.5,41.8333 75.5,42.5C 75.8417,43.3382 76.5084,43.6716 77.5,43.5C 78.4916,43.3284 79.1583,43.6618 79.5,44.5C 78.1667,45.1667 78.1667,45.8333 79.5,46.5C 71.6841,47.4924 63.6841,47.8257 55.5,47.5C 55.719,46.325 55.3857,45.325 54.5,44.5C 51.7789,46.5272 48.7789,48.0272 45.5,49C 44.1667,49.6667 44.1667,50.3333 45.5,51C 43.8333,52.1667 42.1667,53.3333 40.5,54.5C 39.5481,52.9547 39.2148,51.288 39.5,49.5C 39.8333,49.5 40.1667,49.5 40.5,49.5C 41.1667,49.5 41.5,49.1667 41.5,48.5C 42.1667,48.5 42.5,48.1667 42.5,47.5C 43.1667,47.5 43.8333,47.5 44.5,47.5C 45.5,47.1667 46.1667,46.5 46.5,45.5C 48.3797,45.7709 49.713,45.1042 50.5,43.5C 51.1667,43.5 51.5,43.1667 51.5,42.5C 51.5,41.8333 51.8333,41.5 52.5,41.5C 55.1499,44.5091 55.8166,44.1758 54.5,40.5C 55.3478,39.375 56.3478,39.375 57.5,40.5C 58.1667,40.5 58.5,40.1667 58.5,39.5C 58.3284,38.5084 58.6618,37.8417 59.5,37.5C 60.3218,39.5499 61.3218,39.2165 62.5,36.5 Z"/></g>
<g><path style="opacity:1" fill="#000000" d="M 84.5,49.5 C 85.1667,50.5 85.8333,51.5 86.5,52.5C 84.8042,52.3146 83.4709,51.4813 82.5,50C 83.0944,49.5357 83.7611,49.369 84.5,49.5 Z"/></g>
<g><path style="opacity:1" fill="#060c0e" d="M 88.5,51.5 C 88.5,58.5 88.5,65.5 88.5,72.5C 87.6618,72.1583 87.3284,71.4916 87.5,70.5C 87.7886,64.4093 87.4553,58.4093 86.5,52.5C 87.1667,52.1667 87.8333,51.8333 88.5,51.5 Z"/></g>
<g><path style="opacity:1" fill="#000003" d="M 108.5,72.5 C 109.167,72.5 109.833,72.5 110.5,72.5C 110.5,74.1667 110.5,75.8333 110.5,77.5C 109.833,77.5 109.5,77.1667 109.5,76.5C 109.5,75.8333 109.167,75.5 108.5,75.5C 108.5,74.5 108.5,73.5 108.5,72.5 Z"/></g>
<g><path style="opacity:1" fill="#000000" d="M 80.5,75.5 C 79.8333,75.5 79.1667,75.5 78.5,75.5C 79.5477,73.0673 80.2144,73.0673 80.5,75.5 Z"/></g>
<g><path style="opacity:1" fill="#212646" d="M 52.5,85.5 C 52.1667,84.1667 51.8333,84.1667 51.5,85.5C 50.8333,85.5 50.5,85.1667 50.5,84.5C 50.1583,83.6618 49.4916,83.3284 48.5,83.5C 47.8333,83.5 47.5,83.1667 47.5,82.5C 46.537,81.6365 46.537,80.9698 47.5,80.5C 51.0386,81.5064 54.0386,83.3397 56.5,86C 55.1807,86.195 53.8474,86.0283 52.5,85.5 Z"/></g>
<g><path style="opacity:1" fill="#1b1838" d="M 77.5,79.5 C 76.8333,79.5 76.5,79.8333 76.5,80.5C 75.8333,80.5 75.5,80.8333 75.5,81.5C 75.5,81.8333 75.5,82.1667 75.5,82.5C 74.8333,82.5 74.5,82.8333 74.5,83.5C 74.573,85.0269 73.9063,86.0269 72.5,86.5C 70.2417,86.2249 69.9084,85.2249 71.5,83.5C 72.8848,82.4495 73.8848,81.1161 74.5,79.5C 75.6136,78.2241 76.6136,78.2241 77.5,79.5 Z"/></g>
<g><path style="opacity:1" fill="#141624" d="M 65.5,90.5 C 65.5,91.1667 65.1667,91.5 64.5,91.5C 63.5,91.1667 62.8333,90.5 62.5,89.5C 64.3046,88.7629 65.9713,87.7629 67.5,86.5C 67.8333,86.8333 68.1667,87.1667 68.5,87.5C 67.3349,88.5836 66.0016,89.4169 64.5,90C 64.7284,90.3988 65.0618,90.5654 65.5,90.5 Z"/></g>
<g><path style="opacity:1" fill="#180e30" d="M 60.5,88.5 C 59.5,88.5 58.5,88.5 57.5,88.5C 57.9567,86.4433 58.9567,86.4433 60.5,88.5 Z"/></g>
<g><path style="opacity:1" fill="#0a0412" d="M 17.5,87.5 C 18.1098,88.391 18.4431,89.391 18.5,90.5C 18.3232,97.1344 17.8232,97.1344 17,90.5C 16.6667,91.5 16.3333,92.5 16,93.5C 15.2797,91.8876 15.4464,90.3876 16.5,89C 14.0684,87.9125 14.4017,87.4125 17.5,87.5 Z"/></g>
<g><path style="opacity:1" fill="#150b26" d="M 114.5,85.5 C 115.117,85.6107 115.617,85.944 116,86.5C 116.256,89.557 116.756,92.557 117.5,95.5C 117.145,96.5223 116.478,97.189 115.5,97.5C 115.5,94.5 115.5,91.5 115.5,88.5C 115.5,87.8333 115.167,87.5 114.5,87.5C 114.5,86.8333 114.5,86.1667 114.5,85.5 Z"/></g>
<g><path style="opacity:1" fill="#4a2c84" d="M 115.5,97.5 C 115.318,99.5914 115.652,101.591 116.5,103.5C 115.66,104.735 114.66,105.735 113.5,106.5C 113.167,106.5 112.833,106.5 112.5,106.5C 112.5,106.167 112.5,105.833 112.5,105.5C 114.299,103.324 114.632,100.99 113.5,98.5C 112.808,99.0253 112.308,99.6919 112,100.5C 111.626,99.5838 111.126,98.7504 110.5,98C 111.416,97.6258 112.25,97.1258 113,96.5C 113.671,97.2524 114.504,97.5858 115.5,97.5 Z"/></g>
<g><path style="opacity:1" fill="#7d44e1" d="M 87.5,70.5 C 87.3284,71.4916 87.6618,72.1583 88.5,72.5C 92.6047,72.2175 96.9381,72.7175 101.5,74C 104.102,74.8834 106.269,76.3834 108,78.5C 108.464,77.9056 108.631,77.2389 108.5,76.5C 108.833,76.5 109.167,76.5 109.5,76.5C 109.5,77.1667 109.833,77.5 110.5,77.5C 111.118,79.7713 112.452,82.438 114.5,85.5C 114.5,86.1667 114.5,86.8333 114.5,87.5C 115.167,87.5 115.5,87.8333 115.5,88.5C 115.5,91.5 115.5,94.5 115.5,97.5C 114.504,97.5858 113.671,97.2524 113,96.5C 112.25,97.1258 111.416,97.6258 110.5,98C 111.126,98.7504 111.626,99.5838 112,100.5C 112.308,99.6919 112.808,99.0253 113.5,98.5C 114.632,100.99 114.299,103.324 112.5,105.5C 111.167,105.833 111.167,106.167 112.5,106.5C 112.833,106.5 113.167,106.5 113.5,106.5C 113.167,107.167 112.833,107.833 112.5,108.5C 112.167,108.5 111.833,108.5 111.5,108.5C 111.167,107.167 110.833,107.167 110.5,108.5C 109.833,108.5 109.5,108.833 109.5,109.5C 107.586,110.185 105.586,110.685 103.5,111C 104.305,112.113 104.972,113.279 105.5,114.5C 104.833,114.833 104.167,115.167 103.5,115.5C 103.167,115.5 102.833,115.5 102.5,115.5C 102.5,114.833 102.167,114.5 101.5,114.5C 100.391,114.557 99.391,114.89 98.5,115.5C 96.5,115.5 94.5,115.5 92.5,115.5C 90.139,115.326 87.8056,114.993 85.5,114.5C 85.5,113.833 85.1667,113.5 84.5,113.5C 83.8333,113.167 83.1667,112.833 82.5,112.5C 81.5272,111.209 80.5272,111.209 79.5,112.5C 79.0357,111.364 78.7024,110.364 78.5,109.5C 76.4135,105.927 74.5801,102.26 73,98.5C 72.8124,94.6223 72.6458,90.9556 72.5,87.5C 72.5,87.1667 72.5,86.8333 72.5,86.5C 73.9063,86.0269 74.573,85.0269 74.5,83.5C 75.1667,83.5 75.5,83.1667 75.5,82.5C 75.5,82.1667 75.5,81.8333 75.5,81.5C 76.1667,81.5 76.5,81.1667 76.5,80.5C 77.1667,80.5 77.5,80.1667 77.5,79.5C 79.6204,78.5967 79.9538,77.2633 78.5,75.5C 79.1667,75.5 79.8333,75.5 80.5,75.5C 80.4346,75.9382 80.6012,76.2716 81,76.5C 83.1087,75.9647 83.6087,74.9647 82.5,73.5C 84.0565,71.2985 85.2232,71.2985 86,73.5C 86.2321,72.2625 86.7321,71.2625 87.5,70.5 Z"/></g>
<g><path style="opacity:1" fill="#eee8f5" d="M 86.5,81.5 C 89.378,82.37 92.0447,83.7033 94.5,85.5C 95.9039,87.5471 95.5706,89.2138 93.5,90.5C 91.1846,85.3793 87.6846,84.3793 83,87.5C 81.3495,92.0678 82.8495,94.7344 87.5,95.5C 90.9568,93.9373 94.2901,92.104 97.5,90C 106.697,89.7311 109.697,94.0644 106.5,103C 104.238,104.047 102.071,105.213 100,106.5C 97.6827,105.174 95.3494,103.84 93,102.5C 92.1163,100.359 92.6163,98.6927 94.5,97.5C 96.416,102.712 99.5826,103.712 104,100.5C 105.539,96.2598 104.206,93.5932 100,92.5C 95.9409,94.7261 91.7743,96.7261 87.5,98.5C 80.2801,97.4472 77.7801,93.4472 80,86.5C 82.3256,84.9343 84.4922,83.2676 86.5,81.5 Z"/></g>
<g><path style="opacity:1" fill="#0f1a21" d="M 55.5,111.5 C 54.2022,112.116 53.2022,112.116 52.5,111.5C 52.9567,109.443 53.9567,109.443 55.5,111.5 Z"/></g>
<g><path style="opacity:1" fill="#493389" d="M 110.5,108.5 C 110.833,108.5 111.167,108.5 111.5,108.5C 111.833,108.5 112.167,108.5 112.5,108.5C 110.766,111.2 108.432,113.2 105.5,114.5C 104.972,113.279 104.305,112.113 103.5,111C 105.586,110.685 107.586,110.185 109.5,109.5C 110.167,109.5 110.5,109.167 110.5,108.5 Z"/></g>
<g><path style="opacity:1" fill="#040508" d="M 62.5,115.5 C 63.5,115.5 64.5,115.5 65.5,115.5C 67.5,115.5 69.5,115.5 71.5,115.5C 71.5,119.5 71.5,123.5 71.5,127.5C 68.8333,127.5 66.1667,127.5 63.5,127.5C 63.7633,123.4 63.4299,119.4 62.5,115.5 Z"/></g>
<g><path style="opacity:1" fill="#232350" d="M 82.5,112.5 C 83.1667,112.833 83.8333,113.167 84.5,113.5C 85.1667,113.5 85.5,113.833 85.5,114.5C 87.8056,114.993 90.139,115.326 92.5,115.5C 92.6107,116.117 92.944,116.617 93.5,117C 89.8125,117.45 86.1458,117.283 82.5,116.5C 82.5,115.167 82.5,113.833 82.5,112.5 Z"/></g>
<g><path style="opacity:1" fill="#2b2363" d="M 101.5,114.5 C 102.167,114.5 102.5,114.833 102.5,115.5C 102.833,115.5 103.167,115.5 103.5,115.5C 102.486,116.765 100.986,117.431 99,117.5C 97.5,117.333 96,117.167 94.5,117C 96.0581,116.79 97.3915,116.29 98.5,115.5C 99.391,114.89 100.391,114.557 101.5,114.5 Z"/></g>
</svg>
