<?xml version="1.0" encoding="UTF-8"?>
<!DOCTYPE svg PUBLIC "-//W3C//DTD SVG 1.1//EN" "http://www.w3.org/Graphics/SVG/1.1/DTD/svg11.dtd">
<svg xmlns="http://www.w3.org/2000/svg" version="1.1" width="217px" height="217px" style="shape-rendering:geometricPrecision; text-rendering:geometricPrecision; image-rendering:optimizeQuality; fill-rule:evenodd; clip-rule:evenodd" xmlns:xlink="http://www.w3.org/1999/xlink">
<g><path style="opacity:0.867" fill="#73859b" d="M 93.5,-0.5 C 103.167,-0.5 112.833,-0.5 122.5,-0.5C 125.167,0.166667 127.833,0.833333 130.5,1.5C 115.494,1.54559 100.494,1.54559 85.5,1.5C 88.1667,0.833333 90.8333,0.166667 93.5,-0.5 Z"/></g>
<g><path style="opacity:0.763" fill="#4e6583" d="M 85.5,1.5 C 100.494,1.54559 115.494,1.54559 130.5,1.5C 136.493,2.41067 142.16,4.07734 147.5,6.5C 146.848,7.72507 145.681,8.39174 144,8.5C 120.009,1.02186 95.8428,0.521863 71.5,7C 68.4968,8.16615 65.8302,9.83282 63.5,12C 59.0102,12.426 55.3435,14.2594 52.5,17.5C 50.2043,17.1959 49.871,16.1959 51.5,14.5C 61.9141,8.05061 73.2474,3.71727 85.5,1.5 Z"/></g>
<g><path style="opacity:0.861" fill="#273d5a" d="M 147.5,6.5 C 148.492,6.32842 149.158,6.66175 149.5,7.5C 148.475,7.89657 148.308,8.56323 149,9.5C 152.014,10.5388 154.514,12.2055 156.5,14.5C 122.231,-0.945007 88.5643,0.0549931 55.5,17.5C 54.391,17.5569 53.391,17.8902 52.5,18.5C 52.5,18.1667 52.5,17.8333 52.5,17.5C 55.3435,14.2594 59.0102,12.426 63.5,12C 65.8302,9.83282 68.4968,8.16615 71.5,7C 95.8428,0.521863 120.009,1.02186 144,8.5C 145.681,8.39174 146.848,7.72507 147.5,6.5 Z"/></g>
<g><path style="opacity:0.431" fill="#1e3147" d="M 141.5,15.5 C 131.054,13.3767 120.554,11.71 110,10.5C 104.461,10.581 98.9605,11.081 93.5,12C 92.2625,12.2321 91.2625,12.7321 90.5,13.5C 84.0119,13.5805 77.6786,14.5805 71.5,16.5C 94.77,6.94533 118.103,6.61199 141.5,15.5 Z"/></g>
<g><path style="opacity:1" fill="#496689" d="M 90.5,13.5 C 89.5,14.1667 88.5,14.8333 87.5,15.5C 84.4467,15.1107 81.78,15.7773 79.5,17.5C 75.3011,18.2677 71.3011,19.601 67.5,21.5C 68.604,19.6115 69.9373,17.9448 71.5,16.5C 77.6786,14.5805 84.0119,13.5805 90.5,13.5 Z"/></g>
<g><path style="opacity:1" fill="#9cb0cc" d="M 90.5,13.5 C 92.1667,13.5 93.8333,13.5 95.5,13.5C 93.0948,14.7682 90.4282,15.4349 87.5,15.5C 88.5,14.8333 89.5,14.1667 90.5,13.5 Z"/></g>
<g><path style="opacity:1" fill="#a2b5ce" d="M 95.5,13.5 C 103.323,12.3439 111.323,12.1772 119.5,13C 122.379,13.546 125.046,14.3794 127.5,15.5C 116.88,14.1711 106.214,13.5044 95.5,13.5 Z"/></g>
<g><path style="opacity:0.876" fill="#466588" d="M 141.5,15.5 C 142.167,15.5 142.833,15.5 143.5,15.5C 144.37,17.2737 145.703,18.607 147.5,19.5C 146.167,19.5 144.833,19.5 143.5,19.5C 138.326,17.5538 132.993,16.2205 127.5,15.5C 125.046,14.3794 122.379,13.546 119.5,13C 111.323,12.1772 103.323,12.3439 95.5,13.5C 93.8333,13.5 92.1667,13.5 90.5,13.5C 91.2625,12.7321 92.2625,12.2321 93.5,12C 98.9605,11.081 104.461,10.581 110,10.5C 120.554,11.71 131.054,13.3767 141.5,15.5 Z"/></g>
<g><path style="opacity:1" fill="#cf6563" d="M 95.5,16.5 C 106.39,16.0616 117.057,16.7283 127.5,18.5C 127.5,18.8333 127.5,19.1667 127.5,19.5C 114.167,18.1667 100.833,18.1667 87.5,19.5C 86.1667,19.5 84.8333,19.5 83.5,19.5C 87.4295,18.1767 91.4295,17.1767 95.5,16.5 Z"/></g>
<g><path style="opacity:0.877" fill="#0a0f17" d="M 55.5,17.5 C 54.8592,18.4822 54.1925,19.4822 53.5,20.5C 54.3333,20.8333 55.1667,21.1667 56,21.5C 58.4716,20.6781 60.9716,20.0114 63.5,19.5C 62.3065,20.2719 61.3065,21.2719 60.5,22.5C 54.9128,25.9464 49.2461,29.113 43.5,32C 41.1255,34.039 39.1255,36.3723 37.5,39C 36.9056,39.4643 36.2389,39.631 35.5,39.5C 36.3007,37.9582 36.634,36.2915 36.5,34.5C 34.8333,34.5 33.1667,34.5 31.5,34.5C 34.274,31.2967 37.274,28.2967 40.5,25.5C 45.0561,23.906 49.0561,21.5727 52.5,18.5C 53.391,17.8902 54.391,17.5569 55.5,17.5 Z"/></g>
<g><path style="opacity:1" fill="#e79c98" d="M 127.5,19.5 C 127.5,19.1667 127.5,18.8333 127.5,18.5C 130.228,18.1706 132.562,18.8372 134.5,20.5C 132.139,20.3259 129.806,19.9926 127.5,19.5 Z"/></g>
<g><path style="opacity:1" fill="#859fbb" d="M 143.5,19.5 C 144.833,19.5 146.167,19.5 147.5,19.5C 148.514,20.6737 149.847,21.3404 151.5,21.5C 151.5,22.1667 151.5,22.8333 151.5,23.5C 148.515,22.6743 145.849,21.341 143.5,19.5 Z"/></g>
<g><path style="opacity:0.98" fill="#29415d" d="M 71.5,16.5 C 69.9373,17.9448 68.604,19.6115 67.5,21.5C 66.8333,21.5 66.1667,21.5 65.5,21.5C 63.7839,21.6287 62.1172,21.962 60.5,22.5C 61.3065,21.2719 62.3065,20.2719 63.5,19.5C 65.7916,17.7329 68.4582,16.7329 71.5,16.5 Z"/></g>
<g><path style="opacity:0.929" fill="#233851" d="M 143.5,15.5 C 148.018,17.2611 152.351,19.2611 156.5,21.5C 154.833,21.5 153.167,21.5 151.5,21.5C 149.847,21.3404 148.514,20.6737 147.5,19.5C 145.703,18.607 144.37,17.2737 143.5,15.5 Z"/></g>
<g><path style="opacity:1" fill="#dda9a1" d="M 79.5,20.5 C 76.0497,22.2078 72.383,23.5412 68.5,24.5C 71.6257,22.0103 75.2924,20.677 79.5,20.5 Z"/></g>
<g><path style="opacity:0.845" fill="#3b5776" d="M 151.5,21.5 C 153.167,21.5 154.833,21.5 156.5,21.5C 159.681,23.5917 162.681,25.925 165.5,28.5C 162.655,26.9769 159.655,25.9769 156.5,25.5C 154.833,24.8333 153.167,24.1667 151.5,23.5C 151.5,22.8333 151.5,22.1667 151.5,21.5 Z"/></g>
<g><path style="opacity:0.384" fill="#0d172a" d="M 156.5,21.5 C 160.423,22.7951 164.09,24.6284 167.5,27C 168.381,27.7083 169.047,28.5416 169.5,29.5C 168.167,29.1667 166.833,28.8333 165.5,28.5C 162.681,25.925 159.681,23.5917 156.5,21.5 Z"/></g>
<g><path style="opacity:1" fill="#f2b8b2" d="M 139.5,21.5 C 143.847,21.889 147.514,23.5557 150.5,26.5C 146.465,25.6492 142.798,23.9826 139.5,21.5 Z"/></g>
<g><path style="opacity:0.85" fill="#33445d" d="M 149.5,7.5 C 165.299,13.2967 178.632,22.63 189.5,35.5C 193.457,41.4566 197.79,47.1233 202.5,52.5C 203.167,55.1667 203.833,57.8333 204.5,60.5C 202.078,56.6562 199.411,52.9895 196.5,49.5C 194.738,48.7377 193.738,47.4044 193.5,45.5C 190.552,39.5517 186.219,34.885 180.5,31.5C 172.88,25.3514 164.88,19.6848 156.5,14.5C 154.514,12.2055 152.014,10.5388 149,9.5C 148.308,8.56323 148.475,7.89657 149.5,7.5 Z"/></g>
<g><path style="opacity:1" fill="#6c8aa3" d="M 156.5,25.5 C 159.655,25.9769 162.655,26.9769 165.5,28.5C 166.248,30.3325 167.248,31.9991 168.5,33.5C 164.223,31.2181 160.223,28.5515 156.5,25.5 Z"/></g>
<g><path style="opacity:1" fill="#cd4742" d="M 127.5,19.5 C 129.806,19.9926 132.139,20.3259 134.5,20.5C 136.042,21.3007 137.708,21.634 139.5,21.5C 142.798,23.9826 146.465,25.6492 150.5,26.5C 150.833,26.5 151.167,26.5 151.5,26.5C 153.159,29.833 155.825,31.4997 159.5,31.5C 159.5,31.8333 159.5,32.1667 159.5,32.5C 160.486,34.4077 162.152,35.4077 164.5,35.5C 169.54,38.8783 173.873,42.8783 177.5,47.5C 178.419,50.0892 180.086,52.0892 182.5,53.5C 184.588,55.3356 185.921,57.6689 186.5,60.5C 186.739,62.4672 186.406,64.3005 185.5,66C 186.45,68.9101 188.45,70.0768 191.5,69.5C 191.654,71.9699 192.654,73.9699 194.5,75.5C 195.386,82.4658 197.052,89.1324 199.5,95.5C 199.709,106.194 199.375,116.86 198.5,127.5C 198.198,130.373 197.531,133.039 196.5,135.5C 194.544,131.258 192.877,126.925 191.5,122.5C 192.511,118.888 192.678,115.221 192,111.5C 191.846,114.525 190.346,116.191 187.5,116.5C 187.663,114.143 187.497,111.81 187,109.5C 186.586,109.043 186.086,108.709 185.5,108.5C 184.833,109.5 184.167,110.5 183.5,111.5C 182.808,110.975 182.308,110.308 182,109.5C 181.821,113.025 181.321,116.359 180.5,119.5C 180.666,113.491 180.499,107.491 180,101.5C 179.8,99.6803 178.966,98.347 177.5,97.5C 175.554,92.2353 172.221,88.2353 167.5,85.5C 166.63,83.7263 165.297,82.393 163.5,81.5C 162.168,80.1696 161.335,78.5029 161,76.5C 153.075,69.2292 144.908,62.3959 136.5,56C 133.374,55.0105 130.374,53.8438 127.5,52.5C 127.66,50.8008 127.494,49.1341 127,47.5C 122.045,47.6016 116.878,47.6016 111.5,47.5C 111.5,45.1667 111.5,42.8333 111.5,40.5C 103.834,40.4856 96.5009,38.9856 89.5,36C 86.1832,35.5017 82.8499,35.335 79.5,35.5C 79.5,33.5 79.5,31.5 79.5,29.5C 81.1937,25.477 83.8604,22.1437 87.5,19.5C 100.833,18.1667 114.167,18.1667 127.5,19.5 Z"/></g>
<g><path style="opacity:1" fill="#e09b94" d="M 151.5,26.5 C 154.213,28.1717 156.88,29.8384 159.5,31.5C 155.825,31.4997 153.159,29.833 151.5,26.5 Z"/></g>
<g><path style="opacity:1" fill="#bf4237" d="M 79.5,29.5 C 79.5,31.5 79.5,33.5 79.5,35.5C 82.8499,35.335 86.1832,35.5017 89.5,36C 96.5009,38.9856 103.834,40.4856 111.5,40.5C 111.5,42.8333 111.5,45.1667 111.5,47.5C 116.878,47.6016 122.045,47.6016 127,47.5C 127.494,49.1341 127.66,50.8008 127.5,52.5C 130.374,53.8438 133.374,55.0105 136.5,56C 144.908,62.3959 153.075,69.2292 161,76.5C 161.335,78.5029 162.168,80.1696 163.5,81.5C 162.167,81.5 160.833,81.5 159.5,81.5C 156.45,80.0648 153.117,79.3981 149.5,79.5C 147.304,79.5046 145.304,79.838 143.5,80.5C 141.5,80.8333 139.5,81.1667 137.5,81.5C 135.315,81.8881 133.482,82.8881 132,84.5C 130.401,83.9293 129.234,82.9293 128.5,81.5C 123.5,81.5 118.5,81.5 113.5,81.5C 112.833,102.167 112.167,122.833 111.5,143.5C 110.331,140.489 108.664,137.822 106.5,135.5C 106.573,133.973 105.906,132.973 104.5,132.5C 104.25,130.326 103.25,128.659 101.5,127.5C 99.668,123.164 97.3346,119.164 94.5,115.5C 93.1696,113.508 91.8363,111.508 90.5,109.5C 90.5,108.5 90.5,107.5 90.5,106.5C 92.5529,106.598 94.2196,105.931 95.5,104.5C 96.1667,104.5 96.8333,104.5 97.5,104.5C 102.167,103.167 105.167,100.167 106.5,95.5C 108.011,93.5242 108.844,91.1909 109,88.5C 109.816,83.3158 109.65,78.3158 108.5,73.5C 108.975,70.6874 107.975,68.6874 105.5,67.5C 104.662,67.1583 104.328,66.4916 104.5,65.5C 104.5,64.1667 103.833,63.5 102.5,63.5C 99.6737,63.0023 97.3403,61.6689 95.5,59.5C 93.5073,57.8368 91.1739,56.6701 88.5,56C 80.1733,55.5003 71.84,55.3336 63.5,55.5C 63.5,52.8333 63.5,50.1667 63.5,47.5C 65.1667,47.5 66.8333,47.5 68.5,47.5C 68.83,43.9793 70.33,40.9793 73,38.5C 74.5621,36.0427 75.5621,33.376 76,30.5C 77.0113,29.6634 78.1779,29.33 79.5,29.5 Z"/></g>
<g><path style="opacity:1" fill="#b6685e" d="M 63.5,27.5 C 63.5,28.5 63.5,29.5 63.5,30.5C 58.6144,31.5499 54.2811,33.7166 50.5,37C 49.552,37.4828 48.552,37.6495 47.5,37.5C 52.0182,32.8805 57.3515,29.5472 63.5,27.5 Z"/></g>
<g><path style="opacity:1" fill="#ebe8ee" d="M 95.5,16.5 C 91.4295,17.1767 87.4295,18.1767 83.5,19.5C 81.901,19.2322 80.5676,19.5655 79.5,20.5C 75.2924,20.677 71.6257,22.0103 68.5,24.5C 66.5659,25.1103 64.8993,26.1103 63.5,27.5C 57.3515,29.5472 52.0182,32.8805 47.5,37.5C 47.5,37.8333 47.5,38.1667 47.5,38.5C 43.5182,40.8169 40.1849,43.8169 37.5,47.5C 34.8103,49.1935 32.8103,51.5268 31.5,54.5C 30.1986,55.64 29.0319,56.9733 28,58.5C 26.768,61.9633 25.268,65.2966 23.5,68.5C 20.5035,71.4974 18.8369,75.164 18.5,79.5C 16.6896,82.145 15.6896,85.145 15.5,88.5C 15.0074,90.8056 14.6741,93.139 14.5,95.5C 13.5489,96.9187 13.2155,98.5853 13.5,100.5C 12.1851,107.629 11.5185,114.963 11.5,122.5C 11.1667,122.5 10.8333,122.5 10.5,122.5C 10.5,121.5 10.5,120.5 10.5,119.5C 10.3344,109.476 10.6677,99.4762 11.5,89.5C 11.5,88.8333 11.5,88.1667 11.5,87.5C 13.1667,83.5 14.8333,79.5 16.5,75.5C 18.1263,72.3752 19.4597,69.0419 20.5,65.5C 22.7132,62.9179 24.3799,59.9179 25.5,56.5C 35.5707,41.975 48.5707,30.975 64.5,23.5C 65.2975,23.0431 65.6309,22.3764 65.5,21.5C 66.1667,21.5 66.8333,21.5 67.5,21.5C 71.3011,19.601 75.3011,18.2677 79.5,17.5C 84.7968,16.7255 90.1301,16.3921 95.5,16.5 Z"/></g>
<g><path style="opacity:1" fill="#d58981" d="M 159.5,32.5 C 161.674,32.7497 163.341,33.7497 164.5,35.5C 162.152,35.4077 160.486,34.4077 159.5,32.5 Z"/></g>
<g><path style="opacity:0.224" fill="#0d1625" d="M 180.5,31.5 C 186.219,34.885 190.552,39.5517 193.5,45.5C 188.46,41.461 184.127,36.7944 180.5,31.5 Z"/></g>
<g><path style="opacity:1" fill="#f6eeef" d="M 95.5,13.5 C 106.214,13.5044 116.88,14.1711 127.5,15.5C 132.993,16.2205 138.326,17.5538 143.5,19.5C 145.849,21.341 148.515,22.6743 151.5,23.5C 153.167,24.1667 154.833,24.8333 156.5,25.5C 160.223,28.5515 164.223,31.2181 168.5,33.5C 171.5,36.1667 174.5,38.8333 177.5,41.5C 178.031,43.5441 179.198,45.2107 181,46.5C 181.49,47.7932 181.657,49.1266 181.5,50.5C 180.167,49.5 178.833,48.5 177.5,47.5C 173.873,42.8783 169.54,38.8783 164.5,35.5C 163.341,33.7497 161.674,32.7497 159.5,32.5C 159.5,32.1667 159.5,31.8333 159.5,31.5C 156.88,29.8384 154.213,28.1717 151.5,26.5C 151.167,26.5 150.833,26.5 150.5,26.5C 147.514,23.5557 143.847,21.889 139.5,21.5C 137.708,21.634 136.042,21.3007 134.5,20.5C 132.562,18.8372 130.228,18.1706 127.5,18.5C 117.057,16.7283 106.39,16.0616 95.5,16.5C 90.1301,16.3921 84.7968,16.7255 79.5,17.5C 81.78,15.7773 84.4467,15.1107 87.5,15.5C 90.4282,15.4349 93.0948,14.7682 95.5,13.5 Z"/></g>
<g><path style="opacity:0.294" fill="#0c1421" d="M 169.5,29.5 C 176.453,33.4524 182.12,38.7858 186.5,45.5C 180.485,40.3638 174.818,35.0305 169.5,29.5 Z"/></g>
<g><path style="opacity:0.78" fill="#32455e" d="M 51.5,14.5 C 49.871,16.1959 50.2043,17.1959 52.5,17.5C 52.5,17.8333 52.5,18.1667 52.5,18.5C 49.0561,21.5727 45.0561,23.906 40.5,25.5C 37.274,28.2967 34.274,31.2967 31.5,34.5C 21.9116,44.0141 14.5783,55.0141 9.5,67.5C 8.07546,69.0311 7.40879,68.6977 7.5,66.5C 16.5605,44.3517 31.2271,27.0184 51.5,14.5 Z"/></g>
<g><path style="opacity:1" fill="#3f5c7a" d="M 65.5,21.5 C 65.6309,22.3764 65.2975,23.0431 64.5,23.5C 48.5707,30.975 35.5707,41.975 25.5,56.5C 25.5172,54.4352 25.8505,52.4352 26.5,50.5C 29.0985,46.562 32.0985,42.8953 35.5,39.5C 36.2389,39.631 36.9056,39.4643 37.5,39C 39.1255,36.3723 41.1255,34.039 43.5,32C 49.2461,29.113 54.9128,25.9464 60.5,22.5C 62.1172,21.962 63.7839,21.6287 65.5,21.5 Z"/></g>
<g><path style="opacity:0.137" fill="#0a101e" d="M 189.5,35.5 C 194.976,40.3076 199.31,45.9742 202.5,52.5C 197.79,47.1233 193.457,41.4566 189.5,35.5 Z"/></g>
<g><path style="opacity:1" fill="#b7675e" d="M 47.5,38.5 C 44.7891,42.2119 41.4558,45.2119 37.5,47.5C 40.1849,43.8169 43.5182,40.8169 47.5,38.5 Z"/></g>
<g><path style="opacity:0.976" fill="#3d5674" d="M 165.5,28.5 C 166.833,28.8333 168.167,29.1667 169.5,29.5C 174.818,35.0305 180.485,40.3638 186.5,45.5C 188.262,46.2623 189.262,47.5956 189.5,49.5C 191.016,52.5331 193.016,55.1997 195.5,57.5C 196.811,61.4547 198.644,65.1214 201,68.5C 201.977,70.74 202.477,73.0733 202.5,75.5C 201.5,74.8333 200.5,74.1667 199.5,73.5C 199.672,72.5084 199.338,71.8417 198.5,71.5C 198.378,67.2542 196.711,63.9208 193.5,61.5C 192.167,59.5 190.833,57.5 189.5,55.5C 186.617,49.9448 182.617,45.2781 177.5,41.5C 174.5,38.8333 171.5,36.1667 168.5,33.5C 167.248,31.9991 166.248,30.3325 165.5,28.5 Z"/></g>
<g><path style="opacity:1" fill="#df938e" d="M 177.5,47.5 C 178.833,48.5 180.167,49.5 181.5,50.5C 182.11,51.391 182.443,52.391 182.5,53.5C 180.086,52.0892 178.419,50.0892 177.5,47.5 Z"/></g>
<g><path style="opacity:1" fill="#cbdbea" d="M 177.5,41.5 C 182.617,45.2781 186.617,49.9448 189.5,55.5C 187.142,53.3218 184.475,51.6551 181.5,50.5C 181.657,49.1266 181.49,47.7932 181,46.5C 179.198,45.2107 178.031,43.5441 177.5,41.5 Z"/></g>
<g><path style="opacity:1" fill="#d08c8b" d="M 37.5,47.5 C 36.2195,50.4474 34.2195,52.7807 31.5,54.5C 32.8103,51.5268 34.8103,49.1935 37.5,47.5 Z"/></g>
<g><path style="opacity:0.243" fill="#0c1521" d="M 189.5,49.5 C 192.471,51.4426 194.471,54.1092 195.5,57.5C 193.016,55.1997 191.016,52.5331 189.5,49.5 Z"/></g>
<g><path style="opacity:1" fill="#bf6660" d="M 44.5,56.5 C 50.6446,55.5098 56.9779,55.1765 63.5,55.5C 71.84,55.3336 80.1733,55.5003 88.5,56C 91.1739,56.6701 93.5073,57.8368 95.5,59.5C 91.6163,58.2073 87.6163,57.5407 83.5,57.5C 70.6774,56.5045 57.6774,56.1712 44.5,56.5 Z"/></g>
<g><path style="opacity:1" fill="#293f5c" d="M 26.5,50.5 C 25.8505,52.4352 25.5172,54.4352 25.5,56.5C 24.7611,56.369 24.0944,56.5357 23.5,57C 22.9021,60.0466 21.2354,62.2133 18.5,63.5C 19.9536,58.3883 22.6203,54.0549 26.5,50.5 Z"/></g>
<g><path style="opacity:1" fill="#a5352f" d="M 83.5,19.5 C 84.8333,19.5 86.1667,19.5 87.5,19.5C 83.8604,22.1437 81.1937,25.477 79.5,29.5C 78.1779,29.33 77.0113,29.6634 76,30.5C 75.5621,33.376 74.5621,36.0427 73,38.5C 70.33,40.9793 68.83,43.9793 68.5,47.5C 66.8333,47.5 65.1667,47.5 63.5,47.5C 63.5,50.1667 63.5,52.8333 63.5,55.5C 56.9779,55.1765 50.6446,55.5098 44.5,56.5C 44.5,86.5 44.5,116.5 44.5,146.5C 49.8333,146.5 55.1667,146.5 60.5,146.5C 56.3656,147.485 52.0323,147.818 47.5,147.5C 50.4791,157.417 53.1458,167.417 55.5,177.5C 53.4951,178.039 51.4951,178.705 49.5,179.5C 52.2758,182.188 54.9425,184.855 57.5,187.5C 51.0421,185.601 46.0421,181.767 42.5,176C 41.9056,175.536 41.2389,175.369 40.5,175.5C 38.9059,172.236 36.5725,169.569 33.5,167.5C 31.9134,164.572 29.9134,161.906 27.5,159.5C 27.0598,156.62 26.0598,153.954 24.5,151.5C 23.6849,147.856 22.8516,144.189 22,140.5C 21.3333,141.833 20.6667,141.833 20,140.5C 19.9005,138.347 19.0672,136.681 17.5,135.5C 17.0372,132.779 16.3705,130.112 15.5,127.5C 14.8037,116.848 14.4704,106.181 14.5,95.5C 14.6741,93.139 15.0074,90.8056 15.5,88.5C 17.4725,85.9164 18.4725,82.9164 18.5,79.5C 20.951,76.2597 22.6176,72.5931 23.5,68.5C 25.268,65.2966 26.768,61.9633 28,58.5C 29.0319,56.9733 30.1986,55.64 31.5,54.5C 34.2195,52.7807 36.2195,50.4474 37.5,47.5C 41.4558,45.2119 44.7891,42.2119 47.5,38.5C 47.5,38.1667 47.5,37.8333 47.5,37.5C 48.552,37.6495 49.552,37.4828 50.5,37C 54.2811,33.7166 58.6144,31.5499 63.5,30.5C 63.5,29.5 63.5,28.5 63.5,27.5C 64.8993,26.1103 66.5659,25.1103 68.5,24.5C 72.383,23.5412 76.0497,22.2078 79.5,20.5C 80.5676,19.5655 81.901,19.2322 83.5,19.5 Z"/></g>
<g><path style="opacity:1" fill="#fdfbf9" d="M 83.5,57.5 C 87.6163,57.5407 91.6163,58.2073 95.5,59.5C 97.3403,61.6689 99.6737,63.0023 102.5,63.5C 103.833,63.5 104.5,64.1667 104.5,65.5C 104.328,66.4916 104.662,67.1583 105.5,67.5C 106.508,69.5439 107.508,71.5439 108.5,73.5C 109.65,78.3158 109.816,83.3158 109,88.5C 108.844,91.1909 108.011,93.5242 106.5,95.5C 103.833,98.8333 100.833,101.833 97.5,104.5C 96.8333,104.5 96.1667,104.5 95.5,104.5C 93.5,104.833 91.5,105.167 89.5,105.5C 89.2322,107.099 89.5655,108.432 90.5,109.5C 91.8363,111.508 93.1696,113.508 94.5,115.5C 94.7647,119.991 96.098,123.991 98.5,127.5C 99.5,127.5 100.5,127.5 101.5,127.5C 100.621,132.001 102.121,135.334 106,137.5C 107.128,139.345 107.628,141.345 107.5,143.5C 108.833,143.5 110.167,143.5 111.5,143.5C 111.5,144.5 111.5,145.5 111.5,146.5C 105.5,146.5 99.5,146.5 93.5,146.5C 91.3521,142.737 89.0188,139.07 86.5,135.5C 86.6567,134.127 86.49,132.793 86,131.5C 83.9162,128.334 81.7496,125.334 79.5,122.5C 79.5,122.167 79.5,121.833 79.5,121.5C 79.1551,118.802 77.8218,116.802 75.5,115.5C 75.3404,113.847 74.6737,112.514 73.5,111.5C 73.5,110.5 73.5,109.5 73.5,108.5C 69.1667,108.5 64.8333,108.5 60.5,108.5C 59.5048,120.655 59.1714,132.989 59.5,145.5C 54.8333,145.5 50.1667,145.5 45.5,145.5C 45.5,116.167 45.5,86.8333 45.5,57.5C 58.1667,57.5 70.8333,57.5 83.5,57.5 Z"/></g>
<g><path style="opacity:1" fill="#f0c7c3" d="M 44.5,56.5 C 57.6774,56.1712 70.6774,56.5045 83.5,57.5C 70.8333,57.5 58.1667,57.5 45.5,57.5C 45.5,86.8333 45.5,116.167 45.5,145.5C 50.1667,145.5 54.8333,145.5 59.5,145.5C 59.1714,132.989 59.5048,120.655 60.5,108.5C 60.5,120.833 60.5,133.167 60.5,145.5C 60.5,145.833 60.5,146.167 60.5,146.5C 55.1667,146.5 49.8333,146.5 44.5,146.5C 44.5,116.5 44.5,86.5 44.5,56.5 Z"/></g>
<g><path style="opacity:0.892" fill="#03050a" d="M 31.5,34.5 C 33.1667,34.5 34.8333,34.5 36.5,34.5C 36.634,36.2915 36.3007,37.9582 35.5,39.5C 32.0985,42.8953 29.0985,46.562 26.5,50.5C 22.6203,54.0549 19.9536,58.3883 18.5,63.5C 15.1168,68.2762 12.7835,73.6096 11.5,79.5C 9.53446,84.6955 8.20113,90.0288 7.5,95.5C 7.16667,95.5 6.83333,95.5 6.5,95.5C 6.63088,94.6236 6.29755,93.9569 5.5,93.5C 4.5,94.5 3.5,95.5 2.5,96.5C 1.89628,100.303 1.22962,103.969 0.5,107.5C 0.979826,93.5823 3.97983,80.249 9.5,67.5C 14.5783,55.0141 21.9116,44.0141 31.5,34.5 Z"/></g>
<g><path style="opacity:1" fill="#496887" d="M 25.5,56.5 C 24.3799,59.9179 22.7132,62.9179 20.5,65.5C 19.8333,65.8333 19.1667,66.1667 18.5,66.5C 18.5,65.5 18.5,64.5 18.5,63.5C 21.2354,62.2133 22.9021,60.0466 23.5,57C 24.0944,56.5357 24.7611,56.369 25.5,56.5 Z"/></g>
<g><path style="opacity:1" fill="#c07d7d" d="M 102.5,63.5 C 103.833,63.5 104.5,64.1667 104.5,65.5C 103.167,65.5 102.5,64.8333 102.5,63.5 Z"/></g>
<g><path style="opacity:1" fill="#6b839e" d="M 193.5,61.5 C 196.711,63.9208 198.378,67.2542 198.5,71.5C 196.855,68.2106 195.189,64.8773 193.5,61.5 Z"/></g>
<g><path style="opacity:1" fill="#d15e5a" d="M 186.5,60.5 C 190.663,64.6192 193.33,69.6192 194.5,75.5C 192.654,73.9699 191.654,71.9699 191.5,69.5C 188.45,70.0768 186.45,68.9101 185.5,66C 186.406,64.3005 186.739,62.4672 186.5,60.5 Z"/></g>
<g><path style="opacity:0.302" fill="#040811" d="M 196.5,49.5 C 199.411,52.9895 202.078,56.6562 204.5,60.5C 205.428,64.3621 206.928,68.0288 209,71.5C 210.489,76.7875 211.656,82.1208 212.5,87.5C 211.849,86.9094 211.182,86.2427 210.5,85.5C 213.307,107.401 210.807,128.735 203,149.5C 195.586,167.075 183.752,180.742 167.5,190.5C 174.697,183.806 181.864,176.806 189,169.5C 190.445,164.944 193.111,161.278 197,158.5C 199.14,151.623 201.807,144.957 205,138.5C 206.329,132.73 207.496,127.063 208.5,121.5C 209.166,117.347 209.499,113.013 209.5,108.5C 209.706,102.251 209.04,96.2515 207.5,90.5C 207.829,87.7718 207.163,85.4385 205.5,83.5C 205.655,80.284 204.655,77.6174 202.5,75.5C 202.477,73.0733 201.977,70.74 201,68.5C 198.644,65.1214 196.811,61.4547 195.5,57.5C 198.47,61.3197 201.304,65.3197 204,69.5C 204.167,68.8333 204.333,68.1667 204.5,67.5C 202.356,61.2172 199.69,55.2172 196.5,49.5 Z"/></g>
<g><path style="opacity:1" fill="#879db8" d="M 20.5,65.5 C 19.4597,69.0419 18.1263,72.3752 16.5,75.5C 16.5172,73.4352 16.8505,71.4352 17.5,69.5C 18.1098,68.609 18.4431,67.609 18.5,66.5C 19.1667,66.1667 19.8333,65.8333 20.5,65.5 Z"/></g>
<g><path style="opacity:1" fill="#db9f95" d="M 105.5,67.5 C 107.975,68.6874 108.975,70.6874 108.5,73.5C 107.508,71.5439 106.508,69.5439 105.5,67.5 Z"/></g>
<g><path style="opacity:1" fill="#efeef0" d="M 181.5,50.5 C 184.475,51.6551 187.142,53.3218 189.5,55.5C 190.833,57.5 192.167,59.5 193.5,61.5C 195.189,64.8773 196.855,68.2106 198.5,71.5C 199.338,71.8417 199.672,72.5084 199.5,73.5C 201.558,80.247 203.558,86.9137 205.5,93.5C 206.835,104.824 206.668,116.157 205,127.5C 202.357,134.739 200.024,142.072 198,149.5C 194.934,155.487 191.434,161.154 187.5,166.5C 185.065,167.27 183.731,168.937 183.5,171.5C 182.761,171.369 182.094,171.536 181.5,172C 179.666,174.663 177.666,177.163 175.5,179.5C 173.251,180.08 171.585,181.413 170.5,183.5C 165.676,186.123 161.343,189.456 157.5,193.5C 156.167,193.833 154.833,194.167 153.5,194.5C 150.156,195.508 146.823,196.508 143.5,197.5C 146.521,195.47 149.521,193.47 152.5,191.5C 155.439,190.544 157.772,188.877 159.5,186.5C 162.674,185.99 165.008,184.323 166.5,181.5C 166.833,181.5 167.167,181.5 167.5,181.5C 170.432,180.2 172.766,178.2 174.5,175.5C 176.167,173.5 177.833,171.5 179.5,169.5C 181.063,167.27 183.063,165.27 185.5,163.5C 186.246,162.264 186.579,160.93 186.5,159.5C 189.623,156.024 191.957,152.024 193.5,147.5C 193.232,145.901 193.566,144.568 194.5,143.5C 197.852,138.806 199.519,133.472 199.5,127.5C 200.473,125.052 200.806,122.385 200.5,119.5C 201.657,110.676 201.824,101.676 201,92.5C 200.768,91.2625 200.268,90.2625 199.5,89.5C 198.991,84.297 197.324,79.6303 194.5,75.5C 193.33,69.6192 190.663,64.6192 186.5,60.5C 185.921,57.6689 184.588,55.3356 182.5,53.5C 182.443,52.391 182.11,51.391 181.5,50.5 Z"/></g>
<g><path style="opacity:1" fill="#283c59" d="M 18.5,63.5 C 18.5,64.5 18.5,65.5 18.5,66.5C 18.4431,67.609 18.1098,68.609 17.5,69.5C 15.5133,72.8008 13.5133,76.1342 11.5,79.5C 12.7835,73.6096 15.1168,68.2762 18.5,63.5 Z"/></g>
<g><path style="opacity:1" fill="#e5b3a7" d="M 84.5,71.5 C 88.5895,71.5881 91.2562,73.5881 92.5,77.5C 90.0705,75.0551 87.4038,73.0551 84.5,71.5 Z"/></g>
<g><path style="opacity:1" fill="#c27f76" d="M 23.5,68.5 C 22.6176,72.5931 20.951,76.2597 18.5,79.5C 18.8369,75.164 20.5035,71.4974 23.5,68.5 Z"/></g>
<g><path style="opacity:0.478" fill="#202634" d="M 202.5,52.5 C 208.173,61.3344 212.006,71.0011 214,81.5C 215.393,86.0947 215.726,90.7613 215,95.5C 213.856,92.9196 213.022,90.2529 212.5,87.5C 211.656,82.1208 210.489,76.7875 209,71.5C 206.928,68.0288 205.428,64.3621 204.5,60.5C 203.833,57.8333 203.167,55.1667 202.5,52.5 Z"/></g>
<g><path style="opacity:1" fill="#bf4236" d="M 83.5,71.5 C 83.8333,71.5 84.1667,71.5 84.5,71.5C 87.4038,73.0551 90.0705,75.0551 92.5,77.5C 93.3177,83.5119 91.6511,88.5119 87.5,92.5C 85.7839,92.6287 84.1172,92.962 82.5,93.5C 75.5,93.5 68.5,93.5 61.5,93.5C 61.5,86.1667 61.5,78.8333 61.5,71.5C 68.8333,71.5 76.1667,71.5 83.5,71.5 Z"/></g>
<g><path style="opacity:1" fill="#d2857d" d="M 83.5,71.5 C 76.1667,71.5 68.8333,71.5 61.5,71.5C 61.5,78.8333 61.5,86.1667 61.5,93.5C 68.5,93.5 75.5,93.5 82.5,93.5C 81.7375,94.2679 80.7375,94.7679 79.5,95C 73.1754,95.4995 66.8421,95.6662 60.5,95.5C 60.5,87.1667 60.5,78.8333 60.5,70.5C 68.3516,70.1746 76.0182,70.508 83.5,71.5 Z"/></g>
<g><path style="opacity:1" fill="#d09a95" d="M 143.5,80.5 C 145.304,79.838 147.304,79.5046 149.5,79.5C 153.117,79.3981 156.45,80.0648 159.5,81.5C 154.195,80.8058 148.862,80.4724 143.5,80.5 Z"/></g>
<g><path style="opacity:1" fill="#49628b" d="M 17.5,69.5 C 16.8505,71.4352 16.5172,73.4352 16.5,75.5C 14.8333,79.5 13.1667,83.5 11.5,87.5C 11.5,84.8333 11.5,82.1667 11.5,79.5C 13.5133,76.1342 15.5133,72.8008 17.5,69.5 Z"/></g>
<g><path style="opacity:1" fill="#2d4864" d="M 202.5,75.5 C 204.655,77.6174 205.655,80.284 205.5,83.5C 204.188,82.8549 203.188,81.8549 202.5,80.5C 203.535,78.8716 203.535,77.205 202.5,75.5 Z"/></g>
<g><path style="opacity:1" fill="#fcfaf9" d="M 143.5,80.5 C 148.862,80.4724 154.195,80.8058 159.5,81.5C 161.849,83.341 164.515,84.6743 167.5,85.5C 172.221,88.2353 175.554,92.2353 177.5,97.5C 179.297,104.686 179.963,112.02 179.5,119.5C 179.672,120.492 179.338,121.158 178.5,121.5C 177.129,123.936 176.129,126.603 175.5,129.5C 173.674,131.147 172.34,133.147 171.5,135.5C 168.865,136.473 166.865,138.14 165.5,140.5C 153.949,145.037 142.949,144.37 132.5,138.5C 132.167,137.833 131.833,137.167 131.5,136.5C 130.791,135.596 129.791,135.263 128.5,135.5C 128.5,147.167 128.5,158.833 128.5,170.5C 123.833,170.5 119.167,170.5 114.5,170.5C 114.5,141.167 114.5,111.833 114.5,82.5C 118.833,82.5 123.167,82.5 127.5,82.5C 127.5,84.8333 127.5,87.1667 127.5,89.5C 130.856,90.1378 132.856,88.8044 133.5,85.5C 134.833,84.1667 136.167,82.8333 137.5,81.5C 139.5,81.1667 141.5,80.8333 143.5,80.5 Z"/></g>
<g><path style="opacity:1" fill="#dd938b" d="M 159.5,81.5 C 160.833,81.5 162.167,81.5 163.5,81.5C 165.297,82.393 166.63,83.7263 167.5,85.5C 164.515,84.6743 161.849,83.341 159.5,81.5 Z"/></g>
<g><path style="opacity:0.69" fill="#1f2a37" d="M 7.5,66.5 C 7.40879,68.6977 8.07546,69.0311 9.5,67.5C 3.97983,80.249 0.979826,93.5823 0.5,107.5C 0.669549,109.848 1.00288,112.182 1.5,114.5C 1.5643,116.557 0.897631,118.223 -0.5,119.5C -0.5,109.167 -0.5,98.8333 -0.5,88.5C 1.56794,80.9641 4.23461,73.6307 7.5,66.5 Z"/></g>
<g><path style="opacity:1" fill="#c98a85" d="M 18.5,79.5 C 18.4725,82.9164 17.4725,85.9164 15.5,88.5C 15.6896,85.145 16.6896,82.145 18.5,79.5 Z"/></g>
<g><path style="opacity:1" fill="#d3716e" d="M 194.5,75.5 C 197.324,79.6303 198.991,84.297 199.5,89.5C 199.5,91.5 199.5,93.5 199.5,95.5C 197.052,89.1324 195.386,82.4658 194.5,75.5 Z"/></g>
<g><path style="opacity:1" fill="#bc6358" d="M 128.5,81.5 C 129.234,82.9293 130.401,83.9293 132,84.5C 133.482,82.8881 135.315,81.8881 137.5,81.5C 136.167,82.8333 134.833,84.1667 133.5,85.5C 131.976,86.1738 130.642,87.1738 129.5,88.5C 128.526,86.2573 128.192,83.924 128.5,81.5 Z"/></g>
<g><path style="opacity:1" fill="#5e7491" d="M 199.5,73.5 C 200.5,74.1667 201.5,74.8333 202.5,75.5C 203.535,77.205 203.535,78.8716 202.5,80.5C 203.188,81.8549 204.188,82.8549 205.5,83.5C 205.5,86.8333 205.5,90.1667 205.5,93.5C 203.558,86.9137 201.558,80.247 199.5,73.5 Z"/></g>
<g><path style="opacity:1" fill="#f5d3cc" d="M 92.5,77.5 C 93.647,81.6463 93.8136,85.9796 93,90.5C 91.5557,92.1554 89.7224,92.822 87.5,92.5C 91.6511,88.5119 93.3177,83.5119 92.5,77.5 Z"/></g>
<g><path style="opacity:1" fill="#c4645a" d="M 113.5,81.5 C 113.5,111.5 113.5,141.5 113.5,171.5C 112.508,163.684 112.174,155.684 112.5,147.5C 105.978,147.823 99.6446,147.49 93.5,146.5C 99.5,146.5 105.5,146.5 111.5,146.5C 111.5,145.5 111.5,144.5 111.5,143.5C 112.167,122.833 112.833,102.167 113.5,81.5 Z"/></g>
<g><path style="opacity:1" fill="#e09d96" d="M 151.5,94.5 C 147.131,94.4672 142.798,94.8005 138.5,95.5C 138.611,94.8826 138.944,94.3826 139.5,94C 143.689,93.1881 147.689,93.3547 151.5,94.5 Z"/></g>
<g><path style="opacity:1" fill="#e8b4af" d="M 113.5,81.5 C 118.5,81.5 123.5,81.5 128.5,81.5C 128.192,83.924 128.526,86.2573 129.5,88.5C 130.642,87.1738 131.976,86.1738 133.5,85.5C 132.856,88.8044 130.856,90.1378 127.5,89.5C 127.5,87.1667 127.5,84.8333 127.5,82.5C 123.167,82.5 118.833,82.5 114.5,82.5C 114.5,111.833 114.5,141.167 114.5,170.5C 119.167,170.5 123.833,170.5 128.5,170.5C 128.5,158.833 128.5,147.167 128.5,135.5C 129.791,135.263 130.791,135.596 131.5,136.5C 129.522,147.785 128.855,159.452 129.5,171.5C 124.167,171.5 118.833,171.5 113.5,171.5C 113.5,141.5 113.5,111.5 113.5,81.5 Z"/></g>
<g><path style="opacity:1" fill="#d58882" d="M 106.5,95.5 C 105.167,100.167 102.167,103.167 97.5,104.5C 100.833,101.833 103.833,98.8333 106.5,95.5 Z"/></g>
<g><path style="opacity:1" fill="#d79087" d="M 135.5,97.5 C 133.436,100.544 131.436,103.544 129.5,106.5C 129.911,102.425 131.911,99.4254 135.5,97.5 Z"/></g>
<g><path style="opacity:1" fill="#cd5954" d="M 199.5,95.5 C 200.492,103.316 200.826,111.316 200.5,119.5C 200.806,122.385 200.473,125.052 199.5,127.5C 199.167,127.5 198.833,127.5 198.5,127.5C 199.375,116.86 199.709,106.194 199.5,95.5 Z"/></g>
<g><path style="opacity:1" fill="#355271" d="M 11.5,79.5 C 11.5,82.1667 11.5,84.8333 11.5,87.5C 11.5,88.1667 11.5,88.8333 11.5,89.5C 10.1725,94.1194 9.50583,99.1194 9.5,104.5C 9.50069,109.678 9.83403,114.678 10.5,119.5C 10.5,120.5 10.5,121.5 10.5,122.5C 10.5,125.5 10.5,128.5 10.5,131.5C 9.83855,130.282 9.17189,128.949 8.5,127.5C 7.5013,116.854 7.16797,106.187 7.5,95.5C 8.20113,90.0288 9.53446,84.6955 11.5,79.5 Z"/></g>
<g><path style="opacity:1" fill="#40597b" d="M 205.5,83.5 C 207.163,85.4385 207.829,87.7718 207.5,90.5C 208.226,100.817 208.56,111.15 208.5,121.5C 207.496,127.063 206.329,132.73 205,138.5C 201.807,144.957 199.14,151.623 197,158.5C 193.111,161.278 190.445,164.944 189,169.5C 181.864,176.806 174.697,183.806 167.5,190.5C 164.341,192.08 161.007,193.08 157.5,193.5C 161.343,189.456 165.676,186.123 170.5,183.5C 172.749,182.92 174.415,181.587 175.5,179.5C 177.666,177.163 179.666,174.663 181.5,172C 182.094,171.536 182.761,171.369 183.5,171.5C 185.587,170.415 186.92,168.749 187.5,166.5C 191.434,161.154 194.934,155.487 198,149.5C 200.024,142.072 202.357,134.739 205,127.5C 206.668,116.157 206.835,104.824 205.5,93.5C 205.5,90.1667 205.5,86.8333 205.5,83.5 Z"/></g>
<g><path style="opacity:1" fill="#e3a6a2" d="M 95.5,104.5 C 94.2196,105.931 92.5529,106.598 90.5,106.5C 90.5,107.5 90.5,108.5 90.5,109.5C 89.5655,108.432 89.2322,107.099 89.5,105.5C 91.5,105.167 93.5,104.833 95.5,104.5 Z"/></g>
<g><path style="opacity:0.914" fill="#1a2d45" d="M 207.5,90.5 C 209.04,96.2515 209.706,102.251 209.5,108.5C 209.499,113.013 209.166,117.347 208.5,121.5C 208.56,111.15 208.226,100.817 207.5,90.5 Z"/></g>
<g><path style="opacity:1" fill="#bf4338" d="M 151.5,94.5 C 154.464,95.2578 157.13,96.7578 159.5,99C 160.883,100.271 161.883,101.771 162.5,103.5C 163.2,107.798 163.533,112.131 163.5,116.5C 163.5,117.5 163.5,118.5 163.5,119.5C 161.413,120.585 160.08,122.251 159.5,124.5C 157.311,126.9 154.644,128.567 151.5,129.5C 146.899,129.945 142.565,129.278 138.5,127.5C 136.264,126.611 134.264,125.278 132.5,123.5C 131.777,120.93 130.61,118.597 129,116.5C 128.192,112.973 128.359,109.64 129.5,106.5C 131.436,103.544 133.436,100.544 135.5,97.5C 135.973,96.0937 136.973,95.427 138.5,95.5C 142.798,94.8005 147.131,94.4672 151.5,94.5 Z"/></g>
<g><path style="opacity:1" fill="#cc7a73" d="M 162.5,103.5 C 164.033,105.634 164.7,108.134 164.5,111C 164.494,113.033 164.161,114.866 163.5,116.5C 163.533,112.131 163.2,107.798 162.5,103.5 Z"/></g>
<g><path style="opacity:1" fill="#bf766e" d="M 14.5,95.5 C 14.4704,106.181 14.8037,116.848 15.5,127.5C 13.7894,118.727 13.1228,109.727 13.5,100.5C 13.2155,98.5853 13.5489,96.9187 14.5,95.5 Z"/></g>
<g><path style="opacity:1" fill="#d79188" d="M 177.5,97.5 C 178.966,98.347 179.8,99.6803 180,101.5C 180.499,107.491 180.666,113.491 180.5,119.5C 180.167,119.5 179.833,119.5 179.5,119.5C 179.963,112.02 179.297,104.686 177.5,97.5 Z"/></g>
<g><path style="opacity:1" fill="#c87d73" d="M 60.5,108.5 C 64.8333,108.5 69.1667,108.5 73.5,108.5C 73.5,109.5 73.5,110.5 73.5,111.5C 69.8274,109.682 65.8274,109.016 61.5,109.5C 61.8284,121.678 61.4951,133.678 60.5,145.5C 60.5,133.167 60.5,120.833 60.5,108.5 Z"/></g>
<g><path style="opacity:1" fill="#e09090" d="M 199.5,89.5 C 200.268,90.2625 200.768,91.2625 201,92.5C 201.824,101.676 201.657,110.676 200.5,119.5C 200.826,111.316 200.492,103.316 199.5,95.5C 199.5,93.5 199.5,91.5 199.5,89.5 Z"/></g>
<g><path style="opacity:1" fill="#c04137" d="M 191.5,122.5 C 189.348,123.077 189.015,124.244 190.5,126C 189.437,127.188 188.103,127.688 186.5,127.5C 186.576,130.767 185.243,132.101 182.5,131.5C 181.669,129.42 180.669,127.42 179.5,125.5C 180.156,123.547 180.489,121.547 180.5,119.5C 181.321,116.359 181.821,113.025 182,109.5C 182.308,110.308 182.808,110.975 183.5,111.5C 184.167,110.5 184.833,109.5 185.5,108.5C 186.086,108.709 186.586,109.043 187,109.5C 187.497,111.81 187.663,114.143 187.5,116.5C 190.346,116.191 191.846,114.525 192,111.5C 192.678,115.221 192.511,118.888 191.5,122.5 Z"/></g>
<g><path style="opacity:1" fill="#7a93b3" d="M 11.5,89.5 C 10.6677,99.4762 10.3344,109.476 10.5,119.5C 9.83403,114.678 9.50069,109.678 9.5,104.5C 9.50583,99.1194 10.1725,94.1194 11.5,89.5 Z"/></g>
<g><path style="opacity:1" fill="#bd6158" d="M 75.5,115.5 C 77.8218,116.802 79.1551,118.802 79.5,121.5C 76.2244,120.878 74.8911,118.878 75.5,115.5 Z"/></g>
<g><path style="opacity:1" fill="#bf4135" d="M 73.5,111.5 C 74.6737,112.514 75.3404,113.847 75.5,115.5C 74.8911,118.878 76.2244,120.878 79.5,121.5C 79.5,121.833 79.5,122.167 79.5,122.5C 80.8146,125.322 81.8146,128.322 82.5,131.5C 83.5213,133.188 84.8546,134.521 86.5,135.5C 89.0188,139.07 91.3521,142.737 93.5,146.5C 99.6446,147.49 105.978,147.823 112.5,147.5C 112.174,155.684 112.508,163.684 113.5,171.5C 113.5,172.833 113.5,174.167 113.5,175.5C 99.4499,175.15 85.4499,175.817 71.5,177.5C 68.1805,177.359 65.0138,176.693 62,175.5C 60.0786,177.003 57.912,177.669 55.5,177.5C 53.1458,167.417 50.4791,157.417 47.5,147.5C 52.0323,147.818 56.3656,147.485 60.5,146.5C 60.5,146.167 60.5,145.833 60.5,145.5C 61.4951,133.678 61.8284,121.678 61.5,109.5C 65.8274,109.016 69.8274,109.682 73.5,111.5 Z"/></g>
<g><path style="opacity:1" fill="#f3d3c9" d="M 94.5,115.5 C 97.3346,119.164 99.668,123.164 101.5,127.5C 100.5,127.5 99.5,127.5 98.5,127.5C 96.098,123.991 94.7647,119.991 94.5,115.5 Z"/></g>
<g><path style="opacity:1" fill="#cc877f" d="M 163.5,119.5 C 162.92,121.749 161.587,123.415 159.5,124.5C 160.08,122.251 161.413,120.585 163.5,119.5 Z"/></g>
<g><path style="opacity:0.171" fill="#0a0e17" d="M 6.5,95.5 C 6.83333,95.5 7.16667,95.5 7.5,95.5C 7.16797,106.187 7.5013,116.854 8.5,127.5C 9.17189,128.949 9.83855,130.282 10.5,131.5C 10.3367,133.857 10.5034,136.19 11,138.5C 13.5436,143.477 15.7103,148.477 17.5,153.5C 17.5,154.167 17.1667,154.5 16.5,154.5C 8.0767,140.972 4.41004,126.139 5.5,110C 5.50074,104.988 5.83408,100.155 6.5,95.5 Z"/></g>
<g><path style="opacity:1" fill="#e08a7a" d="M 178.5,121.5 C 178.693,124.811 177.693,127.478 175.5,129.5C 176.129,126.603 177.129,123.936 178.5,121.5 Z"/></g>
<g><path style="opacity:1" fill="#da9e94" d="M 138.5,127.5 C 142.565,129.278 146.899,129.945 151.5,129.5C 148.024,130.643 144.358,130.81 140.5,130C 139.619,129.292 138.953,128.458 138.5,127.5 Z"/></g>
<g><path style="opacity:1" fill="#6e87a6" d="M 10.5,122.5 C 10.8333,122.5 11.1667,122.5 11.5,122.5C 12.6319,129.623 14.2985,136.623 16.5,143.5C 13.9002,139.634 11.9002,135.634 10.5,131.5C 10.5,128.5 10.5,125.5 10.5,122.5 Z"/></g>
<g><path style="opacity:1" fill="#c66257" d="M 79.5,122.5 C 81.7496,125.334 83.9162,128.334 86,131.5C 86.49,132.793 86.6567,134.127 86.5,135.5C 84.8546,134.521 83.5213,133.188 82.5,131.5C 81.8146,128.322 80.8146,125.322 79.5,122.5 Z"/></g>
<g><path style="opacity:1" fill="#f4d3cb" d="M 101.5,127.5 C 103.25,128.659 104.25,130.326 104.5,132.5C 104.427,134.027 105.094,135.027 106.5,135.5C 108.664,137.822 110.331,140.489 111.5,143.5C 110.167,143.5 108.833,143.5 107.5,143.5C 107.628,141.345 107.128,139.345 106,137.5C 102.121,135.334 100.621,132.001 101.5,127.5 Z"/></g>
<g><path style="opacity:1" fill="#db8d8e" d="M 198.5,127.5 C 198.833,127.5 199.167,127.5 199.5,127.5C 199.519,133.472 197.852,138.806 194.5,143.5C 194.963,140.779 195.629,138.112 196.5,135.5C 197.531,133.039 198.198,130.373 198.5,127.5 Z"/></g>
<g><path style="opacity:1" fill="#dc9790" d="M 104.5,132.5 C 105.906,132.973 106.573,133.973 106.5,135.5C 105.094,135.027 104.427,134.027 104.5,132.5 Z"/></g>
<g><path style="opacity:1" fill="#dc9994" d="M 175.5,129.5 C 175.155,132.198 173.822,134.198 171.5,135.5C 172.34,133.147 173.674,131.147 175.5,129.5 Z"/></g>
<g><path style="opacity:1" fill="#d8908a" d="M 171.5,135.5 C 170.167,137.167 168.833,138.833 167.5,140.5C 166.833,140.5 166.167,140.5 165.5,140.5C 166.865,138.14 168.865,136.473 171.5,135.5 Z"/></g>
<g><path style="opacity:1" fill="#ae534a" d="M 17.5,135.5 C 19.0672,136.681 19.9005,138.347 20,140.5C 20.6667,141.833 21.3333,141.833 22,140.5C 22.8516,144.189 23.6849,147.856 24.5,151.5C 23.8333,151.167 23.1667,150.833 22.5,150.5C 20.5741,145.634 18.9074,140.634 17.5,135.5 Z"/></g>
<g><path style="opacity:1" fill="#be5b55" d="M 131.5,136.5 C 131.833,137.167 132.167,137.833 132.5,138.5C 130.527,147.775 129.86,157.442 130.5,167.5C 130.768,169.099 130.434,170.432 129.5,171.5C 128.855,159.452 129.522,147.785 131.5,136.5 Z"/></g>
<g><path style="opacity:1" fill="#bf4438" d="M 130.5,167.5 C 129.86,157.442 130.527,147.775 132.5,138.5C 142.949,144.37 153.949,145.037 165.5,140.5C 166.167,140.5 166.833,140.5 167.5,140.5C 170.075,139.272 172.408,137.605 174.5,135.5C 175.663,137.55 175.496,139.55 174,141.5C 168.56,145.747 162.726,149.247 156.5,152C 155.743,153.512 154.743,154.846 153.5,156C 149.386,157.557 145.386,159.39 141.5,161.5C 140.914,161.291 140.414,160.957 140,160.5C 138.289,162.956 136.956,165.623 136,168.5C 135.71,166.956 135.044,165.623 134,164.5C 133.578,166.426 132.411,167.426 130.5,167.5 Z"/></g>
<g><path style="opacity:1" fill="#324c6d" d="M 10.5,131.5 C 11.9002,135.634 13.9002,139.634 16.5,143.5C 17.0508,146.807 17.3841,150.14 17.5,153.5C 15.7103,148.477 13.5436,143.477 11,138.5C 10.5034,136.19 10.3367,133.857 10.5,131.5 Z"/></g>
<g><path style="opacity:1" fill="#5c7894" d="M 16.5,143.5 C 18.5992,149.032 21.2659,154.365 24.5,159.5C 23.078,158.075 21.4113,157.075 19.5,156.5C 19.573,154.973 18.9063,153.973 17.5,153.5C 17.3841,150.14 17.0508,146.807 16.5,143.5 Z"/></g>
<g><path style="opacity:1" fill="#ba5e57" d="M 193.5,147.5 C 191.957,152.024 189.623,156.024 186.5,159.5C 186.248,154.066 188.581,150.066 193.5,147.5 Z"/></g>
<g><path style="opacity:1" fill="#e6b8b3" d="M 22.5,150.5 C 23.1667,150.833 23.8333,151.167 24.5,151.5C 26.0598,153.954 27.0598,156.62 27.5,159.5C 24.6066,157.252 22.9399,154.252 22.5,150.5 Z"/></g>
<g><path style="opacity:1" fill="#b33b33" d="M 179.5,119.5 C 179.833,119.5 180.167,119.5 180.5,119.5C 180.489,121.547 180.156,123.547 179.5,125.5C 180.669,127.42 181.669,129.42 182.5,131.5C 185.243,132.101 186.576,130.767 186.5,127.5C 188.103,127.688 189.437,127.188 190.5,126C 189.015,124.244 189.348,123.077 191.5,122.5C 192.877,126.925 194.544,131.258 196.5,135.5C 195.629,138.112 194.963,140.779 194.5,143.5C 193.566,144.568 193.232,145.901 193.5,147.5C 188.581,150.066 186.248,154.066 186.5,159.5C 185.242,161.929 183.409,163.929 181,165.5C 180.209,166.745 179.709,168.078 179.5,169.5C 177.833,171.5 176.167,173.5 174.5,175.5C 172.405,176.412 170.405,177.579 168.5,179C 167.748,179.671 167.414,180.504 167.5,181.5C 167.167,181.5 166.833,181.5 166.5,181.5C 163.883,182.786 161.55,184.453 159.5,186.5C 157.135,187.008 154.801,187.675 152.5,188.5C 151.614,189.325 151.281,190.325 151.5,191.5C 147.416,193.307 143.416,195.307 139.5,197.5C 136.848,197.41 134.515,198.076 132.5,199.5C 128.029,199.689 123.696,200.523 119.5,202C 111.323,202.823 103.323,202.656 95.5,201.5C 90.4803,199.591 85.147,198.591 79.5,198.5C 79.1583,197.662 78.4916,197.328 77.5,197.5C 75.3155,195.415 72.6489,194.415 69.5,194.5C 67.2504,193.87 65.2504,192.87 63.5,191.5C 61.7772,189.782 59.7772,188.449 57.5,187.5C 54.9425,184.855 52.2758,182.188 49.5,179.5C 51.4951,178.705 53.4951,178.039 55.5,177.5C 57.912,177.669 60.0786,177.003 62,175.5C 65.0138,176.693 68.1805,177.359 71.5,177.5C 85.4499,175.817 99.4499,175.15 113.5,175.5C 113.5,174.167 113.5,172.833 113.5,171.5C 118.833,171.5 124.167,171.5 129.5,171.5C 130.434,170.432 130.768,169.099 130.5,167.5C 132.411,167.426 133.578,166.426 134,164.5C 135.044,165.623 135.71,166.956 136,168.5C 136.956,165.623 138.289,162.956 140,160.5C 140.414,160.957 140.914,161.291 141.5,161.5C 145.386,159.39 149.386,157.557 153.5,156C 154.743,154.846 155.743,153.512 156.5,152C 162.726,149.247 168.56,145.747 174,141.5C 175.496,139.55 175.663,137.55 174.5,135.5C 172.408,137.605 170.075,139.272 167.5,140.5C 168.833,138.833 170.167,137.167 171.5,135.5C 173.822,134.198 175.155,132.198 175.5,129.5C 177.693,127.478 178.693,124.811 178.5,121.5C 179.338,121.158 179.672,120.492 179.5,119.5 Z"/></g>
<g><path style="opacity:1" fill="#d3968a" d="M 186.5,159.5 C 186.579,160.93 186.246,162.264 185.5,163.5C 183.063,165.27 181.063,167.27 179.5,169.5C 179.709,168.078 180.209,166.745 181,165.5C 183.409,163.929 185.242,161.929 186.5,159.5 Z"/></g>
<g><path style="opacity:1" fill="#e7b1b3" d="M 33.5,167.5 C 36.5725,169.569 38.9059,172.236 40.5,175.5C 37.4275,173.431 35.0941,170.764 33.5,167.5 Z"/></g>
<g><path style="opacity:1" fill="#728eac" d="M 187.5,166.5 C 186.92,168.749 185.587,170.415 183.5,171.5C 183.731,168.937 185.065,167.27 187.5,166.5 Z"/></g>
<g><path style="opacity:0.206" fill="#1a2029" d="M 47.5,196.5 C 47.5,197.167 47.5,197.833 47.5,198.5C 33.7855,189.786 22.7855,178.452 14.5,164.5C 14.6667,163.833 14.8333,163.167 15,162.5C 19.4866,167.476 23.4866,172.809 27,178.5C 33.7303,184.738 40.5636,190.738 47.5,196.5 Z"/></g>
<g><path style="opacity:0.361" fill="#0e1725" d="M 17.5,153.5 C 18.9063,153.973 19.573,154.973 19.5,156.5C 25.728,166.725 33.0614,176.058 41.5,184.5C 37.2628,181.772 33.4294,178.439 30,174.5C 24.7369,168.294 20.2369,161.627 16.5,154.5C 17.1667,154.5 17.5,154.167 17.5,153.5 Z"/></g>
<g><path style="opacity:1" fill="#d79d94" d="M 174.5,175.5 C 172.766,178.2 170.432,180.2 167.5,181.5C 167.414,180.504 167.748,179.671 168.5,179C 170.405,177.579 172.405,176.412 174.5,175.5 Z"/></g>
<g><path style="opacity:0.973" fill="#456281" d="M 19.5,156.5 C 21.4113,157.075 23.078,158.075 24.5,159.5C 27.1669,163.01 29.6669,166.676 32,170.5C 42.9038,182.681 55.7371,192.015 70.5,198.5C 68.2362,197.781 65.9029,197.448 63.5,197.5C 61.3911,196.609 59.3911,195.442 57.5,194C 56.2068,193.51 54.8734,193.343 53.5,193.5C 52.5221,190.675 50.5221,189.342 47.5,189.5C 46.135,187.14 44.135,185.473 41.5,184.5C 33.0614,176.058 25.728,166.725 19.5,156.5 Z"/></g>
<g><path style="opacity:1" fill="#7896af" d="M 175.5,179.5 C 174.415,181.587 172.749,182.92 170.5,183.5C 171.585,181.413 173.251,180.08 175.5,179.5 Z"/></g>
<g><path style="opacity:1" fill="#c77c76" d="M 166.5,181.5 C 165.008,184.323 162.674,185.99 159.5,186.5C 161.55,184.453 163.883,182.786 166.5,181.5 Z"/></g>
<g><path style="opacity:0.482" fill="#121d2c" d="M 41.5,184.5 C 44.135,185.473 46.135,187.14 47.5,189.5C 44.8908,188.557 42.8908,186.89 41.5,184.5 Z"/></g>
<g><path style="opacity:1" fill="#e9dfe4" d="M 13.5,100.5 C 13.1228,109.727 13.7894,118.727 15.5,127.5C 16.3705,130.112 17.0372,132.779 17.5,135.5C 18.9074,140.634 20.5741,145.634 22.5,150.5C 22.9399,154.252 24.6066,157.252 27.5,159.5C 29.9134,161.906 31.9134,164.572 33.5,167.5C 35.0941,170.764 37.4275,173.431 40.5,175.5C 41.2389,175.369 41.9056,175.536 42.5,176C 46.0421,181.767 51.0421,185.601 57.5,187.5C 58.7079,190.044 60.7079,191.378 63.5,191.5C 65.2504,192.87 67.2504,193.87 69.5,194.5C 71.6845,196.585 74.3511,197.585 77.5,197.5C 78.4916,197.328 79.1583,197.662 79.5,198.5C 84.4862,200.701 89.8196,201.701 95.5,201.5C 103.323,202.656 111.323,202.823 119.5,202C 123.696,200.523 128.029,199.689 132.5,199.5C 135.152,199.59 137.485,198.924 139.5,197.5C 140.833,197.5 142.167,197.5 143.5,197.5C 142.833,198.167 142.167,198.833 141.5,199.5C 140.508,199.328 139.842,199.662 139.5,200.5C 135.298,201.132 131.298,202.132 127.5,203.5C 115.693,205.712 103.693,206.046 91.5,204.5C 84.6277,202.362 77.6277,200.362 70.5,198.5C 55.7371,192.015 42.9038,182.681 32,170.5C 29.6669,166.676 27.1669,163.01 24.5,159.5C 21.2659,154.365 18.5992,149.032 16.5,143.5C 14.2985,136.623 12.6319,129.623 11.5,122.5C 11.5185,114.963 12.1851,107.629 13.5,100.5 Z"/></g>
<g><path style="opacity:1" fill="#bf635e" d="M 159.5,186.5 C 157.772,188.877 155.439,190.544 152.5,191.5C 152.167,191.5 151.833,191.5 151.5,191.5C 151.281,190.325 151.614,189.325 152.5,188.5C 154.801,187.675 157.135,187.008 159.5,186.5 Z"/></g>
<g><path style="opacity:1" fill="#d38680" d="M 57.5,187.5 C 59.7772,188.449 61.7772,189.782 63.5,191.5C 60.7079,191.378 58.7079,190.044 57.5,187.5 Z"/></g>
<g><path style="opacity:0.239" fill="#141f2d" d="M 47.5,189.5 C 50.5221,189.342 52.5221,190.675 53.5,193.5C 51.2228,192.551 49.2228,191.218 47.5,189.5 Z"/></g>
<g><path style="opacity:1" fill="#c77f74" d="M 69.5,194.5 C 72.6489,194.415 75.3155,195.415 77.5,197.5C 74.3511,197.585 71.6845,196.585 69.5,194.5 Z"/></g>
<g><path style="opacity:1" fill="#ecc0b6" d="M 151.5,191.5 C 151.833,191.5 152.167,191.5 152.5,191.5C 149.521,193.47 146.521,195.47 143.5,197.5C 142.167,197.5 140.833,197.5 139.5,197.5C 143.416,195.307 147.416,193.307 151.5,191.5 Z"/></g>
<g><path style="opacity:0.769" fill="#132032" d="M 167.5,190.5 C 162.779,194.529 157.446,197.529 151.5,199.5C 153.167,197.167 155.167,195.167 157.5,193.5C 161.007,193.08 164.341,192.08 167.5,190.5 Z"/></g>
<g><path style="opacity:0.584" fill="#0f1928" d="M 53.5,193.5 C 54.8734,193.343 56.2068,193.51 57.5,194C 59.3911,195.442 61.3911,196.609 63.5,197.5C 65.1667,198.833 66.8333,200.167 68.5,201.5C 62.7403,200.122 57.7403,197.455 53.5,193.5 Z"/></g>
<g><path style="opacity:1" fill="#c47066" d="M 79.5,198.5 C 85.147,198.591 90.4803,199.591 95.5,201.5C 89.8196,201.701 84.4862,200.701 79.5,198.5 Z"/></g>
<g><path style="opacity:1" fill="#f4c2c0" d="M 139.5,197.5 C 137.485,198.924 135.152,199.59 132.5,199.5C 134.515,198.076 136.848,197.41 139.5,197.5 Z"/></g>
<g><path style="opacity:1" fill="#7995b1" d="M 153.5,194.5 C 152.942,195.79 151.942,196.623 150.5,197C 147.647,198.43 144.647,199.263 141.5,199.5C 142.167,198.833 142.833,198.167 143.5,197.5C 146.823,196.508 150.156,195.508 153.5,194.5 Z"/></g>
<g><path style="opacity:1" fill="#385679" d="M 157.5,193.5 C 155.167,195.167 153.167,197.167 151.5,199.5C 151.158,200.338 150.492,200.672 149.5,200.5C 142.004,202.042 134.671,204.208 127.5,207C 114.141,207.758 100.808,207.592 87.5,206.5C 86.8333,205.833 86.1667,205.167 85.5,204.5C 87.5,204.5 89.5,204.5 91.5,204.5C 103.693,206.046 115.693,205.712 127.5,203.5C 131.924,203.728 135.924,202.728 139.5,200.5C 139.842,199.662 140.508,199.328 141.5,199.5C 144.647,199.263 147.647,198.43 150.5,197C 151.942,196.623 152.942,195.79 153.5,194.5C 154.833,194.167 156.167,193.833 157.5,193.5 Z"/></g>
<g><path style="opacity:0.996" fill="#273d59" d="M 63.5,197.5 C 65.9029,197.448 68.2362,197.781 70.5,198.5C 70.5774,199.75 71.244,200.583 72.5,201C 76.8087,202.73 81.142,203.897 85.5,204.5C 86.1667,205.167 86.8333,205.833 87.5,206.5C 86.1667,206.5 84.8333,206.5 83.5,206.5C 81.0948,205.232 78.4282,204.565 75.5,204.5C 73.5739,202.707 71.2406,201.707 68.5,201.5C 66.8333,200.167 65.1667,198.833 63.5,197.5 Z"/></g>
<g><path style="opacity:1" fill="#577697" d="M 70.5,198.5 C 77.6277,200.362 84.6277,202.362 91.5,204.5C 89.5,204.5 87.5,204.5 85.5,204.5C 81.142,203.897 76.8087,202.73 72.5,201C 71.244,200.583 70.5774,199.75 70.5,198.5 Z"/></g>
<g><path style="opacity:1" fill="#708eaf" d="M 139.5,200.5 C 135.924,202.728 131.924,203.728 127.5,203.5C 131.298,202.132 135.298,201.132 139.5,200.5 Z"/></g>
<g><path style="opacity:0.133" fill="#00070f" d="M 68.5,201.5 C 71.2406,201.707 73.5739,202.707 75.5,204.5C 72.7594,204.293 70.4261,203.293 68.5,201.5 Z"/></g>
<g><path style="opacity:0.072" fill="#010107" d="M 75.5,204.5 C 78.4282,204.565 81.0948,205.232 83.5,206.5C 80.5049,206.706 77.8383,206.04 75.5,204.5 Z"/></g>
<g><path style="opacity:0.125" fill="#0d131c" d="M 149.5,200.5 C 141.583,205.156 132.917,207.99 123.5,209C 114.5,209.667 105.5,209.667 96.5,209C 91.9244,208.728 87.5911,207.895 83.5,206.5C 84.8333,206.5 86.1667,206.5 87.5,206.5C 100.808,207.592 114.141,207.758 127.5,207C 134.671,204.208 142.004,202.042 149.5,200.5 Z"/></g>
<g><path style="opacity:0.467" fill="#1d2734" d="M 127.5,216.5 C 122.833,216.5 118.167,216.5 113.5,216.5C 109.167,215.833 104.833,215.167 100.5,214.5C 128.206,215.884 153.04,208.217 175,191.5C 175.265,193.163 174.765,194.663 173.5,196C 163.354,202.607 152.687,208.274 141.5,213C 136.5,213.364 131.834,214.53 127.5,216.5 Z"/></g>
<g><path style="opacity:0.353" fill="#232d3d" d="M 47.5,196.5 C 63.0093,205.891 79.676,211.891 97.5,214.5C 95.2646,214.205 93.2646,214.539 91.5,215.5C 88.198,214.706 84.8647,214.04 81.5,213.5C 68.9267,211.247 57.5933,206.247 47.5,198.5C 47.5,197.833 47.5,197.167 47.5,196.5 Z"/></g>
<g><path style="opacity:0.341" fill="#334863" d="M 91.5,215.5 C 93.2646,214.539 95.2646,214.205 97.5,214.5C 98.5,214.5 99.5,214.5 100.5,214.5C 104.833,215.167 109.167,215.833 113.5,216.5C 107.5,216.5 101.5,216.5 95.5,216.5C 94.4324,215.566 93.099,215.232 91.5,215.5 Z"/></g>
<g><path style="opacity:0.047" fill="#020612" d="M 81.5,213.5 C 84.8647,214.04 88.198,214.706 91.5,215.5C 93.099,215.232 94.4324,215.566 95.5,216.5C 92.5,216.5 89.5,216.5 86.5,216.5C 84.7392,215.687 83.0725,214.687 81.5,213.5 Z"/></g>
</svg>
