<?xml version="1.0" encoding="UTF-8"?>
<!DOCTYPE svg PUBLIC "-//W3C//DTD SVG 1.1//EN" "http://www.w3.org/Graphics/SVG/1.1/DTD/svg11.dtd">
<svg xmlns="http://www.w3.org/2000/svg" version="1.1" width="205px" height="205px" style="shape-rendering:geometricPrecision; text-rendering:geometricPrecision; image-rendering:optimizeQuality; fill-rule:evenodd; clip-rule:evenodd" xmlns:xlink="http://www.w3.org/1999/xlink">
<g><path style="opacity:1" fill="#71550a" d="M 87.5,-0.5 C 97.1667,-0.5 106.833,-0.5 116.5,-0.5C 135.493,2.7211 152.493,10.3878 167.5,22.5C 167.631,23.2389 167.464,23.9056 167,24.5C 166.329,23.7476 165.496,23.4142 164.5,23.5C 158.315,19.4951 151.982,15.6617 145.5,12C 138.685,9.56609 132.018,7.06609 125.5,4.5C 121.434,2.98203 117.101,2.14869 112.5,2C 105.321,1.17874 98.3209,1.3454 91.5,2.5C 80.5106,4.08082 69.844,6.91416 59.5,11C 51.0995,15.5711 43.0995,20.7378 35.5,26.5C 35.0618,26.5654 34.7284,26.3988 34.5,26C 35.8228,25.1841 36.4894,24.0174 36.5,22.5C 51.5066,10.3878 68.5066,2.7211 87.5,-0.5 Z"/></g>
<g><path style="opacity:1" fill="#4e3e08" d="M 91.5,2.5 C 98.3209,1.3454 105.321,1.17874 112.5,2C 117.101,2.14869 121.434,2.98203 125.5,4.5C 114.228,2.96966 102.895,2.30299 91.5,2.5 Z"/></g>
<g><path style="opacity:1" fill="#0f0a05" d="M 91.5,2.5 C 102.895,2.30299 114.228,2.96966 125.5,4.5C 132.018,7.06609 138.685,9.56609 145.5,12C 151.982,15.6617 158.315,19.4951 164.5,23.5C 195.468,50.6365 207.135,84.6365 199.5,125.5C 197.636,131.923 195.302,138.256 192.5,144.5C 189.09,144.616 187.756,142.95 188.5,139.5C 196.128,120.841 197.794,101.841 193.5,82.5C 192.943,74.8299 190.61,67.8299 186.5,61.5C 183.382,53.7223 179.049,46.7223 173.5,40.5C 170.5,35.5 166.5,31.5 161.5,28.5C 159.973,28.573 158.973,27.9063 158.5,26.5C 158.027,25.0937 157.027,24.427 155.5,24.5C 153.147,23.6597 151.147,22.3264 149.5,20.5C 146.696,16.4374 142.696,14.4374 137.5,14.5C 134.843,14.0652 132.509,13.0652 130.5,11.5C 125.894,9.12417 120.894,8.12417 115.5,8.5C 114.833,8.5 114.167,8.5 113.5,8.5C 109.893,7.17596 105.893,6.5093 101.5,6.5C 97.5,6.66667 93.5,6.83333 89.5,7C 85.1101,7.25926 81.1101,8.42593 77.5,10.5C 74.8427,10.9348 72.5093,11.9348 70.5,13.5C 66.6733,13.7516 63.3399,15.0849 60.5,17.5C 58.3131,18.758 55.9798,19.758 53.5,20.5C 48.2173,22.6366 43.884,25.97 40.5,30.5C 36.1667,32.8333 32.8333,36.1667 30.5,40.5C 25.6593,45.3536 21.9927,51.0203 19.5,57.5C 15.4178,64.3391 12.4178,71.6724 10.5,79.5C 8.68403,77.8816 7.3507,75.8816 6.5,73.5C 11.6322,55.0347 21.2988,39.368 35.5,26.5C 43.0995,20.7378 51.0995,15.5711 59.5,11C 69.844,6.91416 80.5106,4.08082 91.5,2.5 Z"/></g>
<g><path style="opacity:1" fill="#4e3f20" d="M 113.5,8.5 C 101.421,8.09245 89.4213,8.75911 77.5,10.5C 81.1101,8.42593 85.1101,7.25926 89.5,7C 93.5,6.83333 97.5,6.66667 101.5,6.5C 105.893,6.5093 109.893,7.17596 113.5,8.5 Z"/></g>
<g><path style="opacity:1" fill="#4a3c1e" d="M 115.5,8.5 C 120.894,8.12417 125.894,9.12417 130.5,11.5C 125.248,11.1375 120.248,10.1375 115.5,8.5 Z"/></g>
<g><path style="opacity:1" fill="#b4aa92" d="M 70.5,13.5 C 67.6601,15.9151 64.3267,17.2484 60.5,17.5C 63.3399,15.0849 66.6733,13.7516 70.5,13.5 Z"/></g>
<g><path style="opacity:1" fill="#f3f3f1" d="M 142.5,23.5 C 148.653,28.1369 154.986,32.6369 161.5,37C 167.458,42.6298 172.291,49.1298 176,56.5C 177.378,58.2134 179.045,59.5467 181,60.5C 181.465,65.0999 182.299,69.5999 183.5,74C 183.214,79.7403 180.714,84.2403 176,87.5C 175.586,87.0426 175.086,86.7093 174.5,86.5C 173.643,87.7357 172.977,89.069 172.5,90.5C 171.277,91.6139 169.944,91.7805 168.5,91C 170.63,87.0038 170.797,82.8372 169,78.5C 168.667,79.8333 168.333,81.1667 168,82.5C 167.517,81.552 167.351,80.552 167.5,79.5C 169.001,71.2208 167.001,64.0541 161.5,58C 157.884,56.5131 154.217,55.1798 150.5,54C 143.073,53.1552 135.74,51.8219 128.5,50C 120.72,46.3854 113.054,42.5521 105.5,38.5C 101.019,37.3516 96.3522,37.1849 91.5,38C 89.9336,38.6082 88.6002,39.4415 87.5,40.5C 85.5956,40.7376 84.2623,41.7376 83.5,43.5C 81.5956,43.7376 80.2623,44.7376 79.5,46.5C 74.4889,46.3341 69.4889,46.5007 64.5,47C 63.5842,47.2784 62.9175,47.7784 62.5,48.5C 56.181,51.3205 51.681,55.9872 49,62.5C 46.6052,74.316 43.7719,85.9826 40.5,97.5C 38.5401,97.1493 36.7068,95.816 35,93.5C 32.8719,93.927 30.7053,93.427 28.5,92C 21.1139,83.8989 19.6139,74.7323 24,64.5C 28.757,53.9978 35.257,44.6644 43.5,36.5C 52.6357,29.948 61.969,23.948 71.5,18.5C 95.9977,10.4886 119.664,12.1553 142.5,23.5 Z"/></g>
<g><path style="opacity:1" fill="#574a2e" d="M 137.5,14.5 C 142.696,14.4374 146.696,16.4374 149.5,20.5C 145.151,18.9922 141.151,16.9922 137.5,14.5 Z"/></g>
<g><path style="opacity:1" fill="#e2dfd7" d="M 113.5,8.5 C 114.167,8.5 114.833,8.5 115.5,8.5C 120.248,10.1375 125.248,11.1375 130.5,11.5C 132.509,13.0652 134.843,14.0652 137.5,14.5C 141.151,16.9922 145.151,18.9922 149.5,20.5C 151.147,22.3264 153.147,23.6597 155.5,24.5C 155.973,25.9063 156.973,26.573 158.5,26.5C 158.973,27.9063 159.973,28.573 161.5,28.5C 165.167,32.8333 169.167,36.8333 173.5,40.5C 179.049,46.7223 183.382,53.7223 186.5,61.5C 185.504,61.5858 184.671,61.2524 184,60.5C 182.753,57.6714 181.253,55.0048 179.5,52.5C 174.727,47.8049 170.061,42.9716 165.5,38C 159.618,33.2763 153.618,28.7763 147.5,24.5C 145.955,23.5481 144.288,23.2148 142.5,23.5C 119.664,12.1553 95.9977,10.4886 71.5,18.5C 61.2177,21.8073 51.551,26.4739 42.5,32.5C 38.1217,37.8798 33.1217,42.5465 27.5,46.5C 26.8333,48.1667 26.1667,49.8333 25.5,51.5C 23.7911,53.8756 21.7911,55.8756 19.5,57.5C 21.9927,51.0203 25.6593,45.3536 30.5,40.5C 34.1667,37.5 37.5,34.1667 40.5,30.5C 45.0223,27.4063 49.3557,24.073 53.5,20.5C 55.9798,19.758 58.3131,18.758 60.5,17.5C 64.3267,17.2484 67.6601,15.9151 70.5,13.5C 72.5093,11.9348 74.8427,10.9348 77.5,10.5C 89.4213,8.75911 101.421,8.09245 113.5,8.5 Z"/></g>
<g><path style="opacity:1" fill="#594b2c" d="M 53.5,20.5 C 49.3557,24.073 45.0223,27.4063 40.5,30.5C 43.884,25.97 48.2173,22.6366 53.5,20.5 Z"/></g>
<g><path style="opacity:1" fill="#786b4b" d="M 155.5,24.5 C 157.027,24.427 158.027,25.0937 158.5,26.5C 156.973,26.573 155.973,25.9063 155.5,24.5 Z"/></g>
<g><path style="opacity:1" fill="#5d4f30" d="M 161.5,28.5 C 166.5,31.5 170.5,35.5 173.5,40.5C 169.167,36.8333 165.167,32.8333 161.5,28.5 Z"/></g>
<g><path style="opacity:1" fill="#6d6041" d="M 40.5,30.5 C 37.5,34.1667 34.1667,37.5 30.5,40.5C 32.8333,36.1667 36.1667,32.8333 40.5,30.5 Z"/></g>
<g><path style="opacity:0.918" fill="#614412" d="M 36.5,22.5 C 36.4894,24.0174 35.8228,25.1841 34.5,26C 34.7284,26.3988 35.0618,26.5654 35.5,26.5C 21.2988,39.368 11.6322,55.0347 6.5,73.5C 4.40896,78.1906 3.07562,83.1906 2.5,88.5C 1.06873,93.9328 0.402061,99.5995 0.5,105.5C 0.621884,112.561 1.28855,119.561 2.5,126.5C 1.28794,123.22 0.287939,119.887 -0.5,116.5C -0.5,106.833 -0.5,97.1667 -0.5,87.5C 3.79488,61.2421 16.1282,39.5754 36.5,22.5 Z"/></g>
<g><path style="opacity:1" fill="#2a1727" d="M 6.5,73.5 C 7.3507,75.8816 8.68403,77.8816 10.5,79.5C 9.31866,83.7426 8.65199,88.076 8.5,92.5C 8.5,93.1667 8.16667,93.5 7.5,93.5C 5.60534,92.027 3.93867,90.3603 2.5,88.5C 3.07562,83.1906 4.40896,78.1906 6.5,73.5 Z"/></g>
<g><path style="opacity:1" fill="#55370a" d="M 167.5,22.5 C 187.872,39.5754 200.205,61.2421 204.5,87.5C 204.5,97.1667 204.5,106.833 204.5,116.5C 203.123,123.338 201.123,130.004 198.5,136.5C 197.957,136.44 197.624,136.107 197.5,135.5C 199.497,132.264 200.164,128.931 199.5,125.5C 207.135,84.6365 195.468,50.6365 164.5,23.5C 165.496,23.4142 166.329,23.7476 167,24.5C 167.464,23.9056 167.631,23.2389 167.5,22.5 Z"/></g>
<g><path style="opacity:1" fill="#c6c0a8" d="M 193.5,82.5 C 197.794,101.841 196.128,120.841 188.5,139.5C 187.833,140.167 187.167,140.833 186.5,141.5C 190.088,131.481 192.588,121.148 194,110.5C 194.463,101.158 194.296,91.8246 193.5,82.5 Z"/></g>
<g><path style="opacity:1" fill="#130f0c" d="M 2.5,88.5 C 3.93867,90.3603 5.60534,92.027 7.5,93.5C 6.8223,116.79 12.8223,138.123 25.5,157.5C 25.3433,158.873 25.51,160.207 26,161.5C 29.7635,166.268 33.9302,170.768 38.5,175C 37.9056,175.464 37.2389,175.631 36.5,175.5C 28.1169,167.951 20.2836,159.951 13,151.5C 11.3924,147.944 9.55911,144.611 7.5,141.5C 7.00745,139.194 6.67412,136.861 6.5,134.5C 4.42581,126.628 2.92581,118.628 2,110.5C 1.72187,103.165 1.88854,95.8315 2.5,88.5 Z"/></g>
<g><path style="opacity:1" fill="#3c240c" d="M 2.5,88.5 C 1.88854,95.8315 1.72187,103.165 2,110.5C 2.92581,118.628 4.42581,126.628 6.5,134.5C 4.97475,131.921 3.64142,129.254 2.5,126.5C 1.28855,119.561 0.621884,112.561 0.5,105.5C 0.402061,99.5995 1.06873,93.9328 2.5,88.5 Z"/></g>
<g><path style="opacity:1" fill="#e6e6e5" d="M 71.5,18.5 C 61.969,23.948 52.6357,29.948 43.5,36.5C 35.257,44.6644 28.757,53.9978 24,64.5C 19.6139,74.7323 21.1139,83.8989 28.5,92C 30.7053,93.427 32.8719,93.927 35,93.5C 36.7068,95.816 38.5401,97.1493 40.5,97.5C 37.5773,103.19 35.5773,109.19 34.5,115.5C 31.9826,135.02 40.6492,146.354 60.5,149.5C 62.3736,150.285 64.3736,150.952 66.5,151.5C 71.827,157.834 78.4937,162.167 86.5,164.5C 89.356,166.006 92.5226,166.672 96,166.5C 98.3608,166.496 100.527,166.163 102.5,165.5C 105.926,164.289 109.259,162.789 112.5,161C 121.875,152.623 131.542,144.623 141.5,137C 147.707,133.397 154.04,130.064 160.5,127C 165.824,123.529 168.824,118.696 169.5,112.5C 170.641,109.36 170.808,106.027 170,102.5C 168.441,97.316 166.608,92.316 164.5,87.5C 165.512,84.7479 166.512,82.0812 167.5,79.5C 167.351,80.552 167.517,81.552 168,82.5C 168.333,81.1667 168.667,79.8333 169,78.5C 170.797,82.8372 170.63,87.0038 168.5,91C 169.944,91.7805 171.277,91.6139 172.5,90.5C 172.977,89.069 173.643,87.7357 174.5,86.5C 175.086,86.7093 175.586,87.0426 176,87.5C 180.714,84.2403 183.214,79.7403 183.5,74C 182.299,69.5999 181.465,65.0999 181,60.5C 179.045,59.5467 177.378,58.2134 176,56.5C 172.291,49.1298 167.458,42.6298 161.5,37C 154.986,32.6369 148.653,28.1369 142.5,23.5C 144.288,23.2148 145.955,23.5481 147.5,24.5C 153.618,28.7763 159.618,33.2763 165.5,38C 170.061,42.9716 174.727,47.8049 179.5,52.5C 181.253,55.0048 182.753,57.6714 184,60.5C 184.671,61.2524 185.504,61.5858 186.5,61.5C 188.417,68.3691 190.084,75.3691 191.5,82.5C 191.61,84.374 190.944,85.874 189.5,87C 190.448,87.4828 191.448,87.6495 192.5,87.5C 193.122,94.1641 193.288,100.831 193,107.5C 189.187,112.671 186.187,118.337 184,124.5C 182.684,127.028 181.517,127.028 180.5,124.5C 179.571,125.689 179.238,127.022 179.5,128.5C 180.552,128.351 181.552,128.517 182.5,129C 182.167,129.333 181.833,129.667 181.5,130C 183.223,130.775 184.223,132.108 184.5,134C 182.646,136.579 180.98,139.246 179.5,142C 180.059,142.725 180.392,143.558 180.5,144.5C 179.201,147.012 178.201,149.679 177.5,152.5C 176.675,153.386 175.675,153.719 174.5,153.5C 174.657,154.873 174.49,156.207 174,157.5C 173.667,156.833 173.333,156.167 173,155.5C 172,157.833 171,160.167 170,162.5C 169.692,161.692 169.192,161.025 168.5,160.5C 165.602,164.111 161.936,166.445 157.5,167.5C 157.688,169.103 157.188,170.437 156,171.5C 155.667,171.167 155.333,170.833 155,170.5C 152.398,171.477 149.898,172.644 147.5,174C 150.028,174.669 150.028,175.502 147.5,176.5C 146.808,175.975 146.308,175.308 146,174.5C 144.301,175.406 142.467,175.739 140.5,175.5C 140.578,178.487 139.411,179.153 137,177.5C 132.927,177.773 129.427,179.273 126.5,182C 124.167,182.333 121.833,182.667 119.5,183C 120.696,183.654 120.696,184.154 119.5,184.5C 117.44,182.108 115.273,182.108 113,184.5C 105.482,183.473 97.8155,183.473 90,184.5C 86.7608,182.683 83.4275,182.349 80,183.5C 73.2903,181.437 66.6236,179.103 60,176.5C 58.2215,177.479 56.5548,177.146 55,175.5C 54.2515,173.668 53.2515,172.001 52,170.5C 49.9567,172.967 47.7901,172.967 45.5,170.5C 43.4706,171.629 43.1373,171.129 44.5,169C 41.9013,166.265 39.2346,164.432 36.5,163.5C 34.3669,159.76 31.7003,156.426 28.5,153.5C 26.8208,152.218 24.9874,151.218 23,150.5C 13.1417,132.29 8.30833,112.956 8.5,92.5C 8.65199,88.076 9.31866,83.7426 10.5,79.5C 12.4178,71.6724 15.4178,64.3391 19.5,57.5C 21.7911,55.8756 23.7911,53.8756 25.5,51.5C 26.1667,49.8333 26.8333,48.1667 27.5,46.5C 33.1217,42.5465 38.1217,37.8798 42.5,32.5C 51.551,26.4739 61.2177,21.8073 71.5,18.5 Z"/></g>
<g><path style="opacity:1" fill="#ececeb" d="M 106.5,65.5 C 122.917,69.2566 131.917,79.5899 133.5,96.5C 135.909,118.196 126.576,131.696 105.5,137C 83.283,138.734 69.283,128.901 63.5,107.5C 62.9043,90.857 69.571,78.0237 83.5,69C 85.5183,68.4954 87.5183,67.9954 89.5,67.5C 95.0105,65.7897 100.677,65.123 106.5,65.5 Z"/></g>
<g><path style="opacity:1" fill="#e7e025" d="M 124.5,57.5 C 130.458,59.2783 136.124,61.7783 141.5,65C 144.983,68.2392 148.65,71.2392 152.5,74C 156.365,78.6941 160.365,83.1941 164.5,87.5C 166.608,92.316 168.441,97.316 170,102.5C 170.808,106.027 170.641,109.36 169.5,112.5C 169.665,109.482 169.498,106.482 169,103.5C 165.326,100.866 163.326,97.1991 163,92.5C 156.187,108.849 146.021,122.516 132.5,133.5C 136.734,128.048 140.234,122.048 143,115.5C 144.156,111.582 144.656,107.582 144.5,103.5C 147.723,83.9398 141.057,68.6064 124.5,57.5 Z"/></g>
<g><path style="opacity:1" fill="#ebea1a" d="M 76.5,47.5 C 70.5484,54.0287 65.0484,61.0287 60,68.5C 56.1561,76.2002 52.8227,84.2002 50,92.5C 48.5774,102.464 48.2441,112.464 49,122.5C 49.7246,124.949 50.7246,127.283 52,129.5C 52.6667,131.167 52.6667,132.833 52,134.5C 51.487,132.479 50.3203,130.979 48.5,130C 39.6624,129.254 34.9957,124.42 34.5,115.5C 35.5773,109.19 37.5773,103.19 40.5,97.5C 43.7719,85.9826 46.6052,74.316 49,62.5C 51.681,55.9872 56.181,51.3205 62.5,48.5C 67.1304,47.7705 71.7971,47.4372 76.5,47.5 Z"/></g>
<g><path style="opacity:1" fill="#e5d736" d="M 117.5,55.5 C 119.965,55.767 122.299,56.4336 124.5,57.5C 141.057,68.6064 147.723,83.9398 144.5,103.5C 143.504,103.586 142.671,103.252 142,102.5C 141.667,103.167 141.333,103.833 141,104.5C 139.57,104.306 138.07,104.306 136.5,104.5C 135.247,101.816 134.247,99.1497 133.5,96.5C 131.917,79.5899 122.917,69.2566 106.5,65.5C 102.354,64.353 98.0204,64.1864 93.5,65C 91.6803,65.2004 90.347,66.0337 89.5,67.5C 87.5183,67.9954 85.5183,68.4954 83.5,69C 69.571,78.0237 62.9043,90.857 63.5,107.5C 62.7321,106.737 62.2321,105.737 62,104.5C 61.6758,106.569 60.8425,106.902 59.5,105.5C 58.5,106.167 57.5,106.833 56.5,107.5C 55.8076,106.975 55.3076,106.308 55,105.5C 54.5831,106.756 53.7498,107.423 52.5,107.5C 54.2017,90.9292 61.535,77.4292 74.5,67C 87.4477,58.4964 101.781,54.6631 117.5,55.5 Z"/></g>
<g><path style="opacity:1" fill="#ebe59c" d="M 106.5,65.5 C 100.677,65.123 95.0105,65.7897 89.5,67.5C 90.347,66.0337 91.6803,65.2004 93.5,65C 98.0204,64.1864 102.354,64.353 106.5,65.5 Z"/></g>
<g><path style="opacity:1" fill="#eae322" d="M 83.5,43.5 C 82.4019,44.397 82.4019,45.2303 83.5,46C 92.3015,47.1271 100.968,48.9605 109.5,51.5C 112.564,52.283 115.231,53.6163 117.5,55.5C 101.781,54.6631 87.4477,58.4964 74.5,67C 61.535,77.4292 54.2017,90.9292 52.5,107.5C 50.7976,122.847 54.4643,136.681 63.5,149C 62.552,149.483 61.552,149.649 60.5,149.5C 40.6492,146.354 31.9826,135.02 34.5,115.5C 34.9957,124.42 39.6624,129.254 48.5,130C 50.3203,130.979 51.487,132.479 52,134.5C 52.6667,132.833 52.6667,131.167 52,129.5C 50.7246,127.283 49.7246,124.949 49,122.5C 48.2441,112.464 48.5774,102.464 50,92.5C 52.8227,84.2002 56.1561,76.2002 60,68.5C 65.0484,61.0287 70.5484,54.0287 76.5,47.5C 77.791,47.7373 78.791,47.404 79.5,46.5C 80.2623,44.7376 81.5956,43.7376 83.5,43.5 Z"/></g>
<g><path style="opacity:1" fill="#f5f384" d="M 79.5,46.5 C 78.791,47.404 77.791,47.7373 76.5,47.5C 71.7971,47.4372 67.1304,47.7705 62.5,48.5C 62.9175,47.7784 63.5842,47.2784 64.5,47C 69.4889,46.5007 74.4889,46.3341 79.5,46.5 Z"/></g>
<g><path style="opacity:1" fill="#f0ee19" d="M 105.5,38.5 C 113.054,42.5521 120.72,46.3854 128.5,50C 135.74,51.8219 143.073,53.1552 150.5,54C 154.217,55.1798 157.884,56.5131 161.5,58C 167.001,64.0541 169.001,71.2208 167.5,79.5C 166.512,82.0812 165.512,84.7479 164.5,87.5C 160.365,83.1941 156.365,78.6941 152.5,74C 148.65,71.2392 144.983,68.2392 141.5,65C 136.124,61.7783 130.458,59.2783 124.5,57.5C 122.299,56.4336 119.965,55.767 117.5,55.5C 115.231,53.6163 112.564,52.283 109.5,51.5C 100.968,48.9605 92.3015,47.1271 83.5,46C 82.4019,45.2303 82.4019,44.397 83.5,43.5C 84.2623,41.7376 85.5956,40.7376 87.5,40.5C 93.3457,38.845 99.3457,38.1783 105.5,38.5 Z"/></g>
<g><path style="opacity:1" fill="#f6f466" d="M 105.5,38.5 C 99.3457,38.1783 93.3457,38.845 87.5,40.5C 88.6002,39.4415 89.9336,38.6082 91.5,38C 96.3522,37.1849 101.019,37.3516 105.5,38.5 Z"/></g>
<g><path style="opacity:1" fill="#dac82a" d="M 133.5,96.5 C 134.247,99.1497 135.247,101.816 136.5,104.5C 138.07,104.306 139.57,104.306 141,104.5C 141.333,103.833 141.667,103.167 142,102.5C 142.671,103.252 143.504,103.586 144.5,103.5C 144.656,107.582 144.156,111.582 143,115.5C 140.234,122.048 136.734,128.048 132.5,133.5C 113.239,149.475 91.2391,155.475 66.5,151.5C 64.3736,150.952 62.3736,150.285 60.5,149.5C 61.552,149.649 62.552,149.483 63.5,149C 54.4643,136.681 50.7976,122.847 52.5,107.5C 53.7498,107.423 54.5831,106.756 55,105.5C 55.3076,106.308 55.8076,106.975 56.5,107.5C 57.5,106.833 58.5,106.167 59.5,105.5C 60.8425,106.902 61.6758,106.569 62,104.5C 62.2321,105.737 62.7321,106.737 63.5,107.5C 69.283,128.901 83.283,138.734 105.5,137C 126.576,131.696 135.909,118.196 133.5,96.5 Z"/></g>
<g><path style="opacity:0.471" fill="#614810" d="M 2.5,126.5 C 3.64142,129.254 4.97475,131.921 6.5,134.5C 6.67412,136.861 7.00745,139.194 7.5,141.5C 4.86048,136.915 3.19382,131.915 2.5,126.5 Z"/></g>
<g><path style="opacity:1" fill="#3c2e0a" d="M 199.5,125.5 C 200.164,128.931 199.497,132.264 197.5,135.5C 197.624,136.107 197.957,136.44 198.5,136.5C 197.152,142.86 194.485,148.527 190.5,153.5C 190.062,152.494 189.396,152.494 188.5,153.5C 189.561,150.378 190.895,147.378 192.5,144.5C 195.302,138.256 197.636,131.923 199.5,125.5 Z"/></g>
<g><path style="opacity:1" fill="#cac5b9" d="M 8.5,92.5 C 8.30833,112.956 13.1417,132.29 23,150.5C 24.9874,151.218 26.8208,152.218 28.5,153.5C 31.7003,156.426 34.3669,159.76 36.5,163.5C 35.7545,165.136 36.0878,166.803 37.5,168.5C 40.9986,170.839 44.3319,173.339 47.5,176C 48.305,177.113 48.9717,178.279 49.5,179.5C 45.7978,177.976 42.4645,175.81 39.5,173C 34.9676,167.638 30.301,162.472 25.5,157.5C 12.8223,138.123 6.8223,116.79 7.5,93.5C 8.16667,93.5 8.5,93.1667 8.5,92.5 Z"/></g>
<g><path style="opacity:1" fill="#e3e011" d="M 169.5,112.5 C 168.824,118.696 165.824,123.529 160.5,127C 154.04,130.064 147.707,133.397 141.5,137C 131.542,144.623 121.875,152.623 112.5,161C 109.259,162.789 105.926,164.289 102.5,165.5C 97.1301,165.608 91.7968,165.275 86.5,164.5C 78.4937,162.167 71.827,157.834 66.5,151.5C 91.2391,155.475 113.239,149.475 132.5,133.5C 146.021,122.516 156.187,108.849 163,92.5C 163.326,97.1991 165.326,100.866 169,103.5C 169.498,106.482 169.665,109.482 169.5,112.5 Z"/></g>
<g><path style="opacity:1" fill="#c7c0a5" d="M 186.5,141.5 C 183.501,150.494 178.501,158.16 171.5,164.5C 176.744,157.017 181.744,149.35 186.5,141.5 Z"/></g>
<g><path style="opacity:1" fill="#e2e1dc" d="M 186.5,61.5 C 190.61,67.8299 192.943,74.8299 193.5,82.5C 194.296,91.8246 194.463,101.158 194,110.5C 192.588,121.148 190.088,131.481 186.5,141.5C 181.744,149.35 176.744,157.017 171.5,164.5C 170.139,166.599 168.639,168.599 167,170.5C 166.329,171.252 165.496,171.586 164.5,171.5C 163.448,171.351 162.448,171.517 161.5,172C 140.954,188.9 117.287,196.067 90.5,193.5C 83.1667,192.167 75.8333,190.833 68.5,189.5C 63.1312,184.495 56.7979,181.161 49.5,179.5C 48.9717,178.279 48.305,177.113 47.5,176C 44.3319,173.339 40.9986,170.839 37.5,168.5C 36.0878,166.803 35.7545,165.136 36.5,163.5C 39.2346,164.432 41.9013,166.265 44.5,169C 43.1373,171.129 43.4706,171.629 45.5,170.5C 47.7901,172.967 49.9567,172.967 52,170.5C 53.2515,172.001 54.2515,173.668 55,175.5C 56.5548,177.146 58.2215,177.479 60,176.5C 66.6236,179.103 73.2903,181.437 80,183.5C 83.4275,182.349 86.7608,182.683 90,184.5C 97.8155,183.473 105.482,183.473 113,184.5C 115.273,182.108 117.44,182.108 119.5,184.5C 120.696,184.154 120.696,183.654 119.5,183C 121.833,182.667 124.167,182.333 126.5,182C 129.427,179.273 132.927,177.773 137,177.5C 139.411,179.153 140.578,178.487 140.5,175.5C 142.467,175.739 144.301,175.406 146,174.5C 146.308,175.308 146.808,175.975 147.5,176.5C 150.028,175.502 150.028,174.669 147.5,174C 149.898,172.644 152.398,171.477 155,170.5C 155.333,170.833 155.667,171.167 156,171.5C 157.188,170.437 157.688,169.103 157.5,167.5C 161.936,166.445 165.602,164.111 168.5,160.5C 169.192,161.025 169.692,161.692 170,162.5C 171,160.167 172,157.833 173,155.5C 173.333,156.167 173.667,156.833 174,157.5C 174.49,156.207 174.657,154.873 174.5,153.5C 175.675,153.719 176.675,153.386 177.5,152.5C 178.201,149.679 179.201,147.012 180.5,144.5C 180.392,143.558 180.059,142.725 179.5,142C 180.98,139.246 182.646,136.579 184.5,134C 184.223,132.108 183.223,130.775 181.5,130C 181.833,129.667 182.167,129.333 182.5,129C 181.552,128.517 180.552,128.351 179.5,128.5C 179.238,127.022 179.571,125.689 180.5,124.5C 181.517,127.028 182.684,127.028 184,124.5C 186.187,118.337 189.187,112.671 193,107.5C 193.288,100.831 193.122,94.1641 192.5,87.5C 191.448,87.6495 190.448,87.4828 189.5,87C 190.944,85.874 191.61,84.374 191.5,82.5C 190.084,75.3691 188.417,68.3691 186.5,61.5 Z"/></g>
<g><path style="opacity:0.803" fill="#634f0a" d="M 190.5,153.5 C 178.396,175.555 160.396,190.555 136.5,198.5C 143.271,194.609 149.937,190.442 156.5,186C 157.252,185.329 157.586,184.496 157.5,183.5C 169.129,174.872 179.462,164.872 188.5,153.5C 189.396,152.494 190.062,152.494 190.5,153.5 Z"/></g>
<g><path style="opacity:1" fill="#523d04" d="M 7.5,141.5 C 9.55911,144.611 11.3924,147.944 13,151.5C 20.2836,159.951 28.1169,167.951 36.5,175.5C 58.3503,193.793 83.6836,201.626 112.5,199C 119.169,197.666 125.836,196.333 132.5,195C 140.886,191.138 149.219,187.305 157.5,183.5C 157.586,184.496 157.252,185.329 156.5,186C 149.937,190.442 143.271,194.609 136.5,198.5C 129.42,199.519 122.42,201.019 115.5,203C 104.154,203.593 92.8209,203.426 81.5,202.5C 79.572,200.526 77.2387,199.026 74.5,198C 67.1779,197.216 60.1779,195.382 53.5,192.5C 31.8423,181.177 16.509,164.177 7.5,141.5 Z"/></g>
<g><path style="opacity:1" fill="#231d0d" d="M 188.5,139.5 C 187.756,142.95 189.09,144.616 192.5,144.5C 190.895,147.378 189.561,150.378 188.5,153.5C 179.462,164.872 169.129,174.872 157.5,183.5C 149.219,187.305 140.886,191.138 132.5,195C 125.836,196.333 119.169,197.666 112.5,199C 83.6836,201.626 58.3503,193.793 36.5,175.5C 37.2389,175.631 37.9056,175.464 38.5,175C 33.9302,170.768 29.7635,166.268 26,161.5C 25.51,160.207 25.3433,158.873 25.5,157.5C 30.301,162.472 34.9676,167.638 39.5,173C 42.4645,175.81 45.7978,177.976 49.5,179.5C 54.8092,184.656 61.1426,187.989 68.5,189.5C 71.4026,191.648 74.7359,193.148 78.5,194C 86.3156,195.021 94.1489,195.855 102,196.5C 104.69,196.497 107.19,196.164 109.5,195.5C 118.37,194.616 127.037,192.782 135.5,190C 140.39,187.388 145.39,185.055 150.5,183C 155.647,179.68 160.314,175.847 164.5,171.5C 165.496,171.586 166.329,171.252 167,170.5C 168.639,168.599 170.139,166.599 171.5,164.5C 178.501,158.16 183.501,150.494 186.5,141.5C 187.167,140.833 187.833,140.167 188.5,139.5 Z"/></g>
<g><path style="opacity:1" fill="#dfdc6f" d="M 86.5,164.5 C 91.7968,165.275 97.1301,165.608 102.5,165.5C 100.527,166.163 98.3608,166.496 96,166.5C 92.5226,166.672 89.356,166.006 86.5,164.5 Z"/></g>
<g><path style="opacity:1" fill="#d4cdb7" d="M 164.5,171.5 C 160.314,175.847 155.647,179.68 150.5,183C 145.39,185.055 140.39,187.388 135.5,190C 127.037,192.782 118.37,194.616 109.5,195.5C 102.907,195.915 96.5737,195.248 90.5,193.5C 117.287,196.067 140.954,188.9 161.5,172C 162.448,171.517 163.448,171.351 164.5,171.5 Z"/></g>
<g><path style="opacity:1" fill="#bdb7a1" d="M 49.5,179.5 C 56.7979,181.161 63.1312,184.495 68.5,189.5C 61.1426,187.989 54.8092,184.656 49.5,179.5 Z"/></g>
<g><path style="opacity:1" fill="#b0a993" d="M 68.5,189.5 C 75.8333,190.833 83.1667,192.167 90.5,193.5C 96.5737,195.248 102.907,195.915 109.5,195.5C 107.19,196.164 104.69,196.497 102,196.5C 94.1489,195.855 86.3156,195.021 78.5,194C 74.7359,193.148 71.4026,191.648 68.5,189.5 Z"/></g>
<g><path style="opacity:1" fill="#715c0b" d="M 53.5,192.5 C 60.1779,195.382 67.1779,197.216 74.5,198C 77.2387,199.026 79.572,200.526 81.5,202.5C 71.4479,200.929 62.1145,197.596 53.5,192.5 Z"/></g>
<g><path style="opacity:0.964" fill="#826c15" d="M 136.5,198.5 C 130.004,201.123 123.338,203.123 116.5,204.5C 106.833,204.5 97.1667,204.5 87.5,204.5C 85.5,203.833 83.5,203.167 81.5,202.5C 92.8209,203.426 104.154,203.593 115.5,203C 122.42,201.019 129.42,199.519 136.5,198.5 Z"/></g>
</svg>
