<?xml version="1.0" encoding="UTF-8"?>
<!DOCTYPE svg PUBLIC "-//W3C//DTD SVG 1.1//EN" "http://www.w3.org/Graphics/SVG/1.1/DTD/svg11.dtd">
<svg xmlns="http://www.w3.org/2000/svg" version="1.1" width="330px" height="330px" style="shape-rendering:geometricPrecision; text-rendering:geometricPrecision; image-rendering:optimizeQuality; fill-rule:evenodd; clip-rule:evenodd" xmlns:xlink="http://www.w3.org/1999/xlink">
<g><path style="opacity:1" fill="#e9e394" d="M 161.5,10.5 C 161.027,11.9063 160.027,12.573 158.5,12.5C 159.72,10.7179 160.386,8.71791 160.5,6.5C 156.992,7.11538 153.659,8.11538 150.5,9.5C 153.494,7.00025 156.827,5.00025 160.5,3.5C 161.967,3.10615 163.467,2.77282 165,2.5C 168.17,2.51589 169.003,3.84922 167.5,6.5C 165.604,7.46557 163.604,7.7989 161.5,7.5C 161.5,8.5 161.5,9.5 161.5,10.5 Z"/></g>
<g><path style="opacity:1" fill="#ded796" d="M 198.5,19.5 C 196.323,19.4139 194.323,18.7472 192.5,17.5C 190.414,18.4887 188.747,19.822 187.5,21.5C 180.399,18.4485 173.732,14.6152 167.5,10C 165.455,9.50987 163.455,9.67653 161.5,10.5C 161.5,9.5 161.5,8.5 161.5,7.5C 163.604,7.7989 165.604,7.46557 167.5,6.5C 169.003,3.84922 168.17,2.51589 165,2.5C 163.467,2.77282 161.967,3.10615 160.5,3.5C 162.186,0.995326 164.519,0.161992 167.5,1C 177.742,7.42799 188.075,13.5947 198.5,19.5 Z"/></g>
<g><path style="opacity:1" fill="#0c0501" d="M 187.5,21.5 C 191.347,24.5926 195.68,26.9259 200.5,28.5C 205.908,32.5372 211.908,35.5372 218.5,37.5C 232.718,44.7638 247.718,50.0971 263.5,53.5C 270.872,55.8381 278.539,57.1714 286.5,57.5C 291.305,58.4872 296.305,58.8205 301.5,58.5C 304.643,85.9354 303.976,113.269 299.5,140.5C 298.371,146.812 297.371,153.145 296.5,159.5C 293.007,173.653 288.673,187.653 283.5,201.5C 278.88,212.367 273.88,223.033 268.5,233.5C 261.507,243.495 254.507,253.495 247.5,263.5C 241.194,270.14 234.861,276.807 228.5,283.5C 222.791,287.357 217.458,291.69 212.5,296.5C 202.96,302.767 193.294,308.767 183.5,314.5C 177.522,317.155 171.522,319.821 165.5,322.5C 163.805,321.826 162.138,321.159 160.5,320.5C 158.483,319.471 156.483,318.471 154.5,317.5C 152.249,316.305 149.915,315.305 147.5,314.5C 133.979,306.651 120.979,297.984 108.5,288.5C 105.126,284.124 101.126,280.458 96.5,277.5C 91.5092,271.177 86.1759,265.177 80.5,259.5C 75.7427,252.315 70.7427,245.315 65.5,238.5C 58.7429,226.578 52.7429,214.245 47.5,201.5C 45.0075,194.015 42.3408,186.682 39.5,179.5C 36.2069,166.322 33.5402,152.988 31.5,139.5C 27.0851,112.572 26.4185,85.5718 29.5,58.5C 37.0633,58.7721 44.3966,58.1055 51.5,56.5C 58.2509,55.5498 64.9176,54.2165 71.5,52.5C 83.3079,49.5841 94.6413,45.5841 105.5,40.5C 116.936,35.9478 127.936,30.6145 138.5,24.5C 145.534,20.9885 152.201,16.9885 158.5,12.5C 160.027,12.573 161.027,11.9063 161.5,10.5C 163.455,9.67653 165.455,9.50987 167.5,10C 173.732,14.6152 180.399,18.4485 187.5,21.5 Z"/></g>
<g><path style="opacity:1" fill="#cecd97" d="M 187.5,29.5 C 187.577,30.7498 188.244,31.5831 189.5,32C 188.906,32.4643 188.239,32.631 187.5,32.5C 179.865,28.6822 172.531,24.3488 165.5,19.5C 163.739,20.0351 162.406,21.0351 161.5,22.5C 161.167,22.5 160.833,22.5 160.5,22.5C 160.557,21.391 160.89,20.391 161.5,19.5C 162.406,18.0351 163.739,17.0351 165.5,16.5C 172.851,20.8607 180.184,25.194 187.5,29.5 Z"/></g>
<g><path style="opacity:1" fill="#dec553" d="M 158.5,12.5 C 152.201,16.9885 145.534,20.9885 138.5,24.5C 133.018,26.3958 127.351,27.3958 121.5,27.5C 126.613,24.4409 131.947,21.6076 137.5,19C 138.71,17.9609 139.71,16.7942 140.5,15.5C 143.494,13.0002 146.827,11.0002 150.5,9.5C 153.659,8.11538 156.992,7.11538 160.5,6.5C 160.386,8.71791 159.72,10.7179 158.5,12.5 Z"/></g>
<g><path style="opacity:1" fill="#020100" d="M 160.5,22.5 C 160.833,22.5 161.167,22.5 161.5,22.5C 162.833,22.5 164.167,22.5 165.5,22.5C 165.5,40.5 165.5,58.5 165.5,76.5C 157.928,76.0732 150.595,77.0732 143.5,79.5C 117.52,85.9246 98.6871,101.258 87,125.5C 85.5162,129.447 84.3495,133.447 83.5,137.5C 82.0762,139.515 81.4095,141.848 81.5,144.5C 80.8856,149.452 80.5523,154.452 80.5,159.5C 80.2935,165.749 80.9602,171.749 82.5,177.5C 82.5,177.833 82.5,178.167 82.5,178.5C 83.0091,183.16 84.3424,187.493 86.5,191.5C 92.6487,203.6 100.649,214.434 110.5,224C 112.717,225.723 115.05,227.223 117.5,228.5C 131.597,238.969 147.597,243.636 165.5,242.5C 165.833,243.167 166.167,243.833 166.5,244.5C 166.178,266.575 166.511,288.575 167.5,310.5C 165.653,311.573 163.653,311.573 161.5,310.5C 146.94,303.215 132.94,294.882 119.5,285.5C 111.893,279.231 104.56,272.564 97.5,265.5C 91.3949,257.609 85.0615,249.943 78.5,242.5C 75.1918,235.89 71.3584,229.556 67,223.5C 63.9309,216.796 60.7642,210.129 57.5,203.5C 40.1865,158.993 34.1865,112.993 39.5,65.5C 44.6946,65.8205 49.6946,65.4872 54.5,64.5C 62.1362,64.1358 69.4695,62.8024 76.5,60.5C 90.7051,56.8771 104.372,51.8771 117.5,45.5C 124.755,43.098 131.421,39.7647 137.5,35.5C 145.661,31.9227 153.328,27.5894 160.5,22.5 Z"/></g>
<g><path style="opacity:1" fill="#cbba74" d="M 198.5,19.5 C 207.232,23.866 215.899,28.1993 224.5,32.5C 220.342,31.5017 216.342,30.0017 212.5,28C 208.476,27.5027 204.476,27.6693 200.5,28.5C 195.68,26.9259 191.347,24.5926 187.5,21.5C 188.747,19.822 190.414,18.4887 192.5,17.5C 194.323,18.7472 196.323,19.4139 198.5,19.5 Z"/></g>
<g><path style="opacity:1" fill="#d9c67a" d="M 140.5,15.5 C 139.71,16.7942 138.71,17.9609 137.5,19C 131.947,21.6076 126.613,24.4409 121.5,27.5C 116.579,29.4638 111.579,31.1305 106.5,32.5C 117.795,26.8527 129.128,21.1861 140.5,15.5 Z"/></g>
<g><path style="opacity:1" fill="#cebe66" d="M 161.5,19.5 C 160.89,20.391 160.557,21.391 160.5,22.5C 153.328,27.5894 145.661,31.9227 137.5,35.5C 136.494,35.0623 136.494,34.3957 137.5,33.5C 145.236,28.4423 153.236,23.7756 161.5,19.5 Z"/></g>
<g><path style="opacity:1" fill="#bb9d52" d="M 224.5,32.5 C 227.241,32.7073 229.574,33.7073 231.5,35.5C 229.94,35.4809 228.44,35.1476 227,34.5C 225.189,35.4235 225.355,36.2569 227.5,37C 224.606,38.5666 221.606,38.7333 218.5,37.5C 211.908,35.5372 205.908,32.5372 200.5,28.5C 204.476,27.6693 208.476,27.5027 212.5,28C 216.342,30.0017 220.342,31.5017 224.5,32.5 Z"/></g>
<g><path style="opacity:1" fill="#1f1c21" d="M 187.5,32.5 C 194.268,37.2173 201.601,40.8839 209.5,43.5C 226.147,52.3848 243.814,58.7181 262.5,62.5C 271.853,65.0823 281.52,66.0823 291.5,65.5C 297.479,116.612 290.146,165.612 269.5,212.5C 256.071,241.588 236.738,265.921 211.5,285.5C 197.824,295.494 183.157,303.828 167.5,310.5C 166.511,288.575 166.178,266.575 166.5,244.5C 175.5,243.167 184.5,243.167 193.5,244.5C 193.5,243.5 193.5,242.5 193.5,241.5C 192.127,241.657 190.793,241.49 189.5,241C 191.577,240.808 193.577,240.308 195.5,239.5C 197.711,238.34 199.711,237.007 201.5,235.5C 203.819,235.008 205.819,234.008 207.5,232.5C 209.663,230.917 211.996,229.584 214.5,228.5C 218.106,230.49 221.106,229.823 223.5,226.5C 223.167,225.833 222.833,225.167 222.5,224.5C 224.403,222.438 226.737,221.104 229.5,220.5C 231.088,216.59 233.421,213.257 236.5,210.5C 237.421,208.223 238.087,205.89 238.5,203.5C 243.568,200.394 246.401,195.728 247,189.5C 248.319,193.737 249.319,198.071 250,202.5C 251.156,203.993 251.99,203.826 252.5,202C 251.594,196.233 250.261,190.566 248.5,185C 251.833,173.166 253.333,161 253,148.5C 254.816,153.976 255.65,153.809 255.5,148C 255.167,146.5 254.833,145 254.5,143.5C 253.107,141.117 251.441,139.783 249.5,139.5C 239.645,108.481 218.979,88.3142 187.5,79C 180.217,77.6729 172.884,76.8395 165.5,76.5C 165.5,58.5 165.5,40.5 165.5,22.5C 164.167,22.5 162.833,22.5 161.5,22.5C 162.406,21.0351 163.739,20.0351 165.5,19.5C 172.531,24.3488 179.865,28.6822 187.5,32.5 Z"/></g>
<g><path style="opacity:1" fill="#c2a448" d="M 138.5,24.5 C 127.936,30.6145 116.936,35.9478 105.5,40.5C 103.5,40.5 101.5,40.5 99.5,40.5C 99.5774,39.2502 100.244,38.4169 101.5,38C 100.975,37.3076 100.308,36.8076 99.5,36.5C 96.9795,37.7853 94.3128,38.4519 91.5,38.5C 96.2647,36.129 101.265,34.129 106.5,32.5C 111.579,31.1305 116.579,29.4638 121.5,27.5C 127.351,27.3958 133.018,26.3958 138.5,24.5 Z"/></g>
<g><path style="opacity:1" fill="#b8a56e" d="M 187.5,29.5 C 195.041,33.7701 202.707,37.7701 210.5,41.5C 210.672,42.4916 210.338,43.1583 209.5,43.5C 201.601,40.8839 194.268,37.2173 187.5,32.5C 188.239,32.631 188.906,32.4643 189.5,32C 188.244,31.5831 187.577,30.7498 187.5,29.5 Z"/></g>
<g><path style="opacity:1" fill="#baa357" d="M 137.5,33.5 C 136.494,34.3957 136.494,35.0623 137.5,35.5C 131.421,39.7647 124.755,43.098 117.5,45.5C 115.302,45.5912 114.969,44.9245 116.5,43.5C 123.374,39.8962 130.374,36.5629 137.5,33.5 Z"/></g>
<g><path style="opacity:1" fill="#af8a38" d="M 99.5,40.5 C 93.4439,44.5854 86.6106,47.252 79,48.5C 76.8154,48.0788 74.6487,47.5788 72.5,47C 73.8333,46.6667 75.1667,46.3333 76.5,46C 75.5842,45.7216 74.9175,45.2216 74.5,44.5C 80.7001,43.6578 86.3667,41.6578 91.5,38.5C 94.3128,38.4519 96.9795,37.7853 99.5,36.5C 100.308,36.8076 100.975,37.3076 101.5,38C 100.244,38.4169 99.5774,39.2502 99.5,40.5 Z"/></g>
<g><path style="opacity:1" fill="#bea372" d="M 91.5,38.5 C 86.3667,41.6578 80.7001,43.6578 74.5,44.5C 79.9409,42.1291 85.6075,40.1291 91.5,38.5 Z"/></g>
<g><path style="opacity:1" fill="#a98240" d="M 231.5,35.5 C 240.16,38.4978 248.826,41.4978 257.5,44.5C 257.791,45.6491 258.624,46.3158 260,46.5C 266.308,48.1163 272.475,49.7829 278.5,51.5C 277.262,51.81 277.262,52.31 278.5,53C 277.667,53.1667 276.833,53.3333 276,53.5C 271.897,52.9581 267.73,52.9581 263.5,53.5C 247.718,50.0971 232.718,44.7638 218.5,37.5C 221.606,38.7333 224.606,38.5666 227.5,37C 225.355,36.2569 225.189,35.4235 227,34.5C 228.44,35.1476 229.94,35.4809 231.5,35.5 Z"/></g>
<g><path style="opacity:1" fill="#967b47" d="M 210.5,41.5 C 228.708,50.5685 247.708,57.2352 267.5,61.5C 266.081,62.4511 264.415,62.7845 262.5,62.5C 243.814,58.7181 226.147,52.3848 209.5,43.5C 210.338,43.1583 210.672,42.4916 210.5,41.5 Z"/></g>
<g><path style="opacity:1" fill="#a18343" d="M 99.5,40.5 C 101.5,40.5 103.5,40.5 105.5,40.5C 94.6413,45.5841 83.3079,49.5841 71.5,52.5C 72.2299,51.2876 73.2299,50.2876 74.5,49.5C 71.0602,47.7765 67.3935,47.1098 63.5,47.5C 66.9065,45.9257 70.5732,44.9257 74.5,44.5C 74.9175,45.2216 75.5842,45.7216 76.5,46C 75.1667,46.3333 73.8333,46.6667 72.5,47C 74.6487,47.5788 76.8154,48.0788 79,48.5C 86.6106,47.252 93.4439,44.5854 99.5,40.5 Z"/></g>
<g><path style="opacity:1" fill="#ad8e68" d="M 257.5,44.5 C 267.863,47.2363 278.196,49.5696 288.5,51.5C 285.018,51.8281 281.685,51.8281 278.5,51.5C 272.475,49.7829 266.308,48.1163 260,46.5C 258.624,46.3158 257.791,45.6491 257.5,44.5 Z"/></g>
<g><path style="opacity:1" fill="#9a8045" d="M 116.5,43.5 C 114.969,44.9245 115.302,45.5912 117.5,45.5C 104.372,51.8771 90.7051,56.8771 76.5,60.5C 73.075,60.6332 72.7417,59.9665 75.5,58.5C 89.4637,54.3533 103.13,49.3533 116.5,43.5 Z"/></g>
<g><path style="opacity:1" fill="#906734" d="M 63.5,47.5 C 67.3935,47.1098 71.0602,47.7765 74.5,49.5C 73.2299,50.2876 72.2299,51.2876 71.5,52.5C 64.9176,54.2165 58.2509,55.5498 51.5,56.5C 47.1667,56.5 42.8333,56.5 38.5,56.5C 39.9526,55.1751 39.6192,54.3418 37.5,54C 34.5682,53.0467 31.5682,52.5467 28.5,52.5C 40.1221,51.5064 51.7888,49.8397 63.5,47.5 Z"/></g>
<g><path style="opacity:1" fill="#855a35" d="M 278.5,51.5 C 281.685,51.8281 285.018,51.8281 288.5,51.5C 295.18,51.6123 301.847,51.9457 308.5,52.5C 309.244,56.1185 309.577,59.7852 309.5,63.5C 307.631,61.3647 306.964,58.6981 307.5,55.5C 305.219,55.0773 303.552,55.744 302.5,57.5C 297.167,57.5 291.833,57.5 286.5,57.5C 278.539,57.1714 270.872,55.8381 263.5,53.5C 267.73,52.9581 271.897,52.9581 276,53.5C 276.833,53.3333 277.667,53.1667 278.5,53C 277.262,52.31 277.262,51.81 278.5,51.5 Z"/></g>
<g><path style="opacity:1" fill="#775933" d="M 75.5,58.5 C 72.7417,59.9665 73.075,60.6332 76.5,60.5C 69.4695,62.8024 62.1362,64.1358 54.5,64.5C 51.2869,64.81 48.2869,64.4767 45.5,63.5C 55.5887,62.3488 65.5887,60.6822 75.5,58.5 Z"/></g>
<g><path style="opacity:1" fill="#774621" d="M 28.5,52.5 C 31.5682,52.5467 34.5682,53.0467 37.5,54C 39.6192,54.3418 39.9526,55.1751 38.5,56.5C 35.4212,56.2601 32.4212,56.5934 29.5,57.5C 28.1588,61.3837 27.3255,65.3837 27,69.5C 25.8763,91.9084 26.5429,114.242 29,136.5C 29.8518,137.571 30.6851,138.571 31.5,139.5C 33.5402,152.988 36.2069,166.322 39.5,179.5C 40.3211,182.554 40.3211,185.554 39.5,188.5C 38.3233,185.47 36.6567,182.803 34.5,180.5C 33.2387,176.933 32.4054,173.266 32,169.5C 31.2917,168.619 30.4584,167.953 29.5,167.5C 28.3578,163.929 27.6911,160.262 27.5,156.5C 27.4495,152.812 27.1162,149.145 26.5,145.5C 26.4146,143.667 25.7479,142.334 24.5,141.5C 24.5,141.167 24.5,140.833 24.5,140.5C 24.821,139.183 25.1543,137.849 25.5,136.5C 21.8877,112.988 20.5544,89.3217 21.5,65.5C 21.4672,61.1311 21.8005,56.7978 22.5,52.5C 24.5,52.5 26.5,52.5 28.5,52.5 Z"/></g>
<g><path style="opacity:1" fill="#b08937" d="M 177.5,88.5 C 170.55,87.4069 163.55,87.2402 156.5,88C 153.008,87.9296 150.008,88.7629 147.5,90.5C 145.435,90.5172 143.435,90.8505 141.5,91.5C 142.197,89.9293 142.53,88.4293 142.5,87C 141.552,86.5172 140.552,86.3505 139.5,86.5C 139.5,85.5 139.5,84.5 139.5,83.5C 138.167,83.5 136.833,83.5 135.5,83.5C 136.93,82.4625 138.597,81.7959 140.5,81.5C 150.671,78.8915 161.005,78.0581 171.5,79C 170.692,79.3076 170.025,79.8076 169.5,80.5C 173.5,81.1667 177.5,81.8333 181.5,82.5C 180.68,84.1112 179.346,84.7778 177.5,84.5C 177.5,85.8333 177.5,87.1667 177.5,88.5 Z"/></g>
<g><path style="opacity:0.931" fill="#7d5a44" d="M 309.5,65.5 C 310.166,73.3262 310.5,81.3262 310.5,89.5C 310.682,101.372 310.015,113.039 308.5,124.5C 309.311,104.845 309.645,85.1779 309.5,65.5 Z"/></g>
<g><path style="opacity:0.865" fill="#876854" d="M 21.5,65.5 C 20.5544,89.3217 21.8877,112.988 25.5,136.5C 25.1543,137.849 24.821,139.183 24.5,140.5C 22.6946,131.39 21.5279,122.057 21,112.5C 20.172,96.6612 20.3387,80.9946 21.5,65.5 Z"/></g>
<g><path style="opacity:1" fill="#c4aa19" d="M 177.5,88.5 C 178.833,88.5 180.167,88.5 181.5,88.5C 183.629,89.2028 185.629,90.2028 187.5,91.5C 174.245,87.9718 160.911,87.6385 147.5,90.5C 150.008,88.7629 153.008,87.9296 156.5,88C 163.55,87.2402 170.55,87.4069 177.5,88.5 Z"/></g>
<g><path style="opacity:1" fill="#cdbb6b" d="M 135.5,83.5 C 136.833,83.5 138.167,83.5 139.5,83.5C 139.5,84.5 139.5,85.5 139.5,86.5C 140.552,86.3505 141.552,86.5172 142.5,87C 142.53,88.4293 142.197,89.9293 141.5,91.5C 137.257,94.0235 132.924,96.3569 128.5,98.5C 127.791,97.596 126.791,97.2627 125.5,97.5C 125.5,96.1667 125.5,94.8333 125.5,93.5C 123.435,93.4828 121.435,93.1495 119.5,92.5C 124.319,88.7024 129.652,85.7024 135.5,83.5 Z"/></g>
<g><path style="opacity:1" fill="#ab8631" d="M 181.5,88.5 C 185.819,87.7992 189.486,88.9659 192.5,92C 197.481,92.7478 202.481,93.2478 207.5,93.5C 207.33,94.8221 207.663,95.9887 208.5,97C 207.833,97.3333 207.167,97.6667 206.5,98C 207.386,99.6147 208.386,101.115 209.5,102.5C 206.168,100.83 203.168,98.6633 200.5,96C 195.953,95.0572 191.62,93.5572 187.5,91.5C 185.629,90.2028 183.629,89.2028 181.5,88.5 Z"/></g>
<g><path style="opacity:1" fill="#754320" d="M 309.5,63.5 C 309.5,64.1667 309.5,64.8333 309.5,65.5C 309.645,85.1779 309.311,104.845 308.5,124.5C 308.5,125.5 308.5,126.5 308.5,127.5C 307.883,127.611 307.383,127.944 307,128.5C 305.837,136.139 305.004,143.805 304.5,151.5C 304.5,152.167 304.5,152.833 304.5,153.5C 302.755,156.403 301.755,156.07 301.5,152.5C 300.726,148.535 300.393,144.535 300.5,140.5C 302.214,131.962 303.381,123.296 304,114.5C 304.667,99.5 304.667,84.5 304,69.5C 303.824,65.3123 303.324,61.3123 302.5,57.5C 303.552,55.744 305.219,55.0773 307.5,55.5C 306.964,58.6981 307.631,61.3647 309.5,63.5 Z"/></g>
<g><path style="opacity:1" fill="#593a17" d="M 143.5,79.5 C 142.5,80.1667 141.5,80.8333 140.5,81.5C 138.597,81.7959 136.93,82.4625 135.5,83.5C 129.652,85.7024 124.319,88.7024 119.5,92.5C 114.57,95.4645 110.237,99.1312 106.5,103.5C 104.122,105.878 102.122,108.545 100.5,111.5C 96.8546,114.774 94.188,118.774 92.5,123.5C 91.2652,123.721 90.2652,124.388 89.5,125.5C 87.6002,128.982 85.6002,132.982 83.5,137.5C 84.3495,133.447 85.5162,129.447 87,125.5C 98.6871,101.258 117.52,85.9246 143.5,79.5 Z"/></g>
<g><path style="opacity:1" fill="#e1db8e" d="M 119.5,92.5 C 121.435,93.1495 123.435,93.4828 125.5,93.5C 125.5,94.8333 125.5,96.1667 125.5,97.5C 126.791,97.2627 127.791,97.596 128.5,98.5C 124.525,101.804 120.525,105.137 116.5,108.5C 113.38,106.457 110.046,104.79 106.5,103.5C 110.237,99.1312 114.57,95.4645 119.5,92.5 Z"/></g>
<g><path style="opacity:1" fill="#9f753a" d="M 165.5,76.5 C 172.884,76.8395 180.217,77.6729 187.5,79C 218.979,88.3142 239.645,108.481 249.5,139.5C 249.5,140.833 249.5,142.167 249.5,143.5C 250.166,151.483 250.499,159.483 250.5,167.5C 250.737,168.791 250.404,169.791 249.5,170.5C 249.665,161.463 249.165,152.463 248,143.5C 247.882,146.371 247.216,149.038 246,151.5C 245.764,149.236 245.264,147.069 244.5,145C 244.833,144.667 245.167,144.333 245.5,144C 239.421,141.467 238.088,137.467 241.5,132C 240.437,130.812 239.103,130.312 237.5,130.5C 237.234,134.079 235.901,134.413 233.5,131.5C 232.479,130.998 232.312,130.332 233,129.5C 233.718,130.451 234.551,130.617 235.5,130C 236.313,128.686 237.313,127.519 238.5,126.5C 237.132,125.406 235.965,125.74 235,127.5C 233.887,126.289 232.72,126.289 231.5,127.5C 230.571,126.311 230.238,124.978 230.5,123.5C 229.041,123.567 227.708,123.234 226.5,122.5C 222.909,116.902 218.909,111.569 214.5,106.5C 213.415,104.413 211.749,103.08 209.5,102.5C 208.386,101.115 207.386,99.6147 206.5,98C 207.167,97.6667 207.833,97.3333 208.5,97C 207.663,95.9887 207.33,94.8221 207.5,93.5C 202.481,93.2478 197.481,92.7478 192.5,92C 189.486,88.9659 185.819,87.7992 181.5,88.5C 180.167,88.5 178.833,88.5 177.5,88.5C 177.5,87.1667 177.5,85.8333 177.5,84.5C 179.346,84.7778 180.68,84.1112 181.5,82.5C 177.5,81.8333 173.5,81.1667 169.5,80.5C 170.025,79.8076 170.692,79.3076 171.5,79C 161.005,78.0581 150.671,78.8915 140.5,81.5C 141.5,80.8333 142.5,80.1667 143.5,79.5C 150.595,77.0732 157.928,76.0732 165.5,76.5 Z"/></g>
<g><path style="opacity:1" fill="#69442a" d="M 286.5,57.5 C 291.833,57.5 297.167,57.5 302.5,57.5C 303.324,61.3123 303.824,65.3123 304,69.5C 304.667,84.5 304.667,99.5 304,114.5C 303.381,123.296 302.214,131.962 300.5,140.5C 300.167,140.5 299.833,140.5 299.5,140.5C 303.976,113.269 304.643,85.9354 301.5,58.5C 296.305,58.8205 291.305,58.4872 286.5,57.5 Z"/></g>
<g><path style="opacity:1" fill="#ba9e1a" d="M 209.5,102.5 C 211.749,103.08 213.415,104.413 214.5,106.5C 212.251,105.92 210.585,104.587 209.5,102.5 Z"/></g>
<g><path style="opacity:1" fill="#eae723" d="M 187.5,91.5 C 191.62,93.5572 195.953,95.0572 200.5,96C 203.168,98.6633 206.168,100.83 209.5,102.5C 210.585,104.587 212.251,105.92 214.5,106.5C 218.909,111.569 222.909,116.902 226.5,122.5C 235.104,136.944 237.938,152.611 235,169.5C 234.023,171.74 233.523,174.073 233.5,176.5C 220.77,211.377 195.77,228.043 158.5,226.5C 147.24,225.367 136.907,221.7 127.5,215.5C 124.81,212.815 121.81,210.482 118.5,208.5C 109.955,198.749 103.455,187.749 99,175.5C 98.1721,171.534 97.6721,167.534 97.5,163.5C 97.3338,157.491 97.5005,151.491 98,145.5C 99.3578,139.732 100.858,134.065 102.5,128.5C 106.715,121.601 111.382,114.935 116.5,108.5C 120.525,105.137 124.525,101.804 128.5,98.5C 132.924,96.3569 137.257,94.0235 141.5,91.5C 143.435,90.8505 145.435,90.5172 147.5,90.5C 160.911,87.6385 174.245,87.9718 187.5,91.5 Z"/></g>
<g><path style="opacity:1" fill="#a9ab18" d="M 206.5,104.5 C 209.089,105.419 211.089,107.086 212.5,109.5C 209.911,108.581 207.911,106.914 206.5,104.5 Z"/></g>
<g><path style="opacity:1" fill="#84830c" d="M 198.5,99.5 C 200.027,99.427 201.027,100.094 201.5,101.5C 199.973,101.573 198.973,100.906 198.5,99.5 Z"/></g>
<g><path style="opacity:1" fill="#83820d" d="M 179.5,92.5 C 182.152,92.4095 184.485,93.0762 186.5,94.5C 183.848,94.5905 181.515,93.9238 179.5,92.5 Z"/></g>
<g><path style="opacity:1" fill="#060503" d="M 179.5,92.5 C 181.515,93.9238 183.848,94.5905 186.5,94.5C 190.574,95.8595 194.574,97.5262 198.5,99.5C 198.973,100.906 199.973,101.573 201.5,101.5C 202.899,102.89 204.566,103.89 206.5,104.5C 207.911,106.914 209.911,108.581 212.5,109.5C 215.453,113.625 218.619,117.625 222,121.5C 224.656,125.144 226.489,129.144 227.5,133.5C 227.259,135.898 227.926,137.898 229.5,139.5C 236.848,171.96 226.515,197.127 198.5,215C 183.844,222.832 168.511,224.999 152.5,221.5C 150.485,220.076 148.152,219.41 145.5,219.5C 142.833,218.5 140.167,217.5 137.5,216.5C 137.027,215.094 136.027,214.427 134.5,214.5C 121.976,207.644 112.976,197.644 107.5,184.5C 107.204,182.597 106.537,180.93 105.5,179.5C 105.5,179.167 105.5,178.833 105.5,178.5C 102.895,168.693 101.895,158.693 102.5,148.5C 107.945,118.221 125.612,99.3878 155.5,92C 163.523,91.3435 171.523,91.5101 179.5,92.5 Z"/></g>
<g><path style="opacity:1" fill="#e0c84f" d="M 106.5,103.5 C 110.046,104.79 113.38,106.457 116.5,108.5C 111.382,114.935 106.715,121.601 102.5,128.5C 101.684,124.784 100.351,121.284 98.5,118C 99.6182,115.941 100.285,113.774 100.5,111.5C 102.122,108.545 104.122,105.878 106.5,103.5 Z"/></g>
<g><path style="opacity:1" fill="#6c6d6d" d="M 176.5,115.5 C 174.198,114.178 171.865,114.178 169.5,115.5C 164.26,111.882 163.26,113.215 166.5,119.5C 166.672,120.492 166.338,121.158 165.5,121.5C 164.071,118.692 163.405,115.692 163.5,112.5C 162.5,112.5 161.5,112.5 160.5,112.5C 166.887,109.229 172.887,109.896 178.5,114.5C 178.043,115.298 177.376,115.631 176.5,115.5 Z"/></g>
<g><path style="opacity:1" fill="#67442b" d="M 267.5,61.5 C 276.423,63.037 285.423,63.7037 294.5,63.5C 299.76,109.088 294.593,153.421 279,196.5C 276.954,202.184 274.454,207.517 271.5,212.5C 271.062,211.494 270.396,211.494 269.5,212.5C 290.146,165.612 297.479,116.612 291.5,65.5C 281.52,66.0823 271.853,65.0823 262.5,62.5C 264.415,62.7845 266.081,62.4511 267.5,61.5 Z"/></g>
<g><path style="opacity:1" fill="#6b4426" d="M 38.5,56.5 C 42.8333,56.5 47.1667,56.5 51.5,56.5C 44.3966,58.1055 37.0633,58.7721 29.5,58.5C 26.4185,85.5718 27.0851,112.572 31.5,139.5C 30.6851,138.571 29.8518,137.571 29,136.5C 26.5429,114.242 25.8763,91.9084 27,69.5C 27.3255,65.3837 28.1588,61.3837 29.5,57.5C 32.4212,56.5934 35.4212,56.2601 38.5,56.5 Z"/></g>
<g><path style="opacity:1" fill="#817d7b" d="M 183.5,117.5 C 183.782,118.778 184.449,119.778 185.5,120.5C 183.833,120.5 182.167,120.5 180.5,120.5C 180.649,121.552 180.483,122.552 180,123.5C 179.209,122.255 178.709,120.922 178.5,119.5C 180.443,118.922 180.777,117.922 179.5,116.5C 181.697,109.924 183.03,110.258 183.5,117.5 Z"/></g>
<g><path style="opacity:1" fill="#47171d" d="M 183.5,117.5 C 185.167,117.5 186.833,117.5 188.5,117.5C 188.263,118.791 188.596,119.791 189.5,120.5C 189.5,121.167 189.167,121.5 188.5,121.5C 187.391,121.443 186.391,121.11 185.5,120.5C 184.449,119.778 183.782,118.778 183.5,117.5 Z"/></g>
<g><path style="opacity:1" fill="#d8d8d8" d="M 205.5,125.5 C 201.31,125.977 198.31,124.311 196.5,120.5C 198.817,119.058 200.984,119.392 203,121.5C 203.718,120.549 204.551,120.383 205.5,121C 206.801,122.616 206.801,124.116 205.5,125.5 Z"/></g>
<g><path style="opacity:1" fill="#301717" d="M 166.5,119.5 C 166.833,119.5 167.167,119.5 167.5,119.5C 169.815,120.416 171.982,121.75 174,123.5C 174.688,124.332 174.521,124.998 173.5,125.5C 172.583,124.873 171.583,124.539 170.5,124.5C 169.021,120.53 168.354,120.863 168.5,125.5C 168.737,126.791 168.404,127.791 167.5,128.5C 167.662,126.473 167.495,124.473 167,122.5C 166.283,123.044 165.783,123.711 165.5,124.5C 165.167,124.5 164.833,124.5 164.5,124.5C 164.5,123.833 164.5,123.167 164.5,122.5C 165.167,122.5 165.5,122.167 165.5,121.5C 166.338,121.158 166.672,120.492 166.5,119.5 Z"/></g>
<g><path style="opacity:1" fill="#4d4c4b" d="M 164.5,122.5 C 164.5,123.167 164.5,123.833 164.5,124.5C 163.176,123.15 162.176,123.317 161.5,125C 161.989,126.138 162.322,127.305 162.5,128.5C 161.833,128.5 161.167,128.5 160.5,128.5C 160.62,126.266 160.287,124.099 159.5,122C 159.833,121.5 160.167,121 160.5,120.5C 161.622,121.63 162.956,122.297 164.5,122.5 Z"/></g>
<g><path style="opacity:1" fill="#a39c97" d="M 164.5,124.5 C 164.833,124.5 165.167,124.5 165.5,124.5C 165.912,126.973 164.912,128.306 162.5,128.5C 162.322,127.305 161.989,126.138 161.5,125C 162.176,123.317 163.176,123.15 164.5,124.5 Z"/></g>
<g><path style="opacity:1" fill="#b3b3b3" d="M 167.5,119.5 C 169.527,119.338 171.527,119.505 173.5,120C 174.666,122.867 176.332,125.367 178.5,127.5C 176.102,126.422 173.435,126.422 170.5,127.5C 170.5,126.5 170.5,125.5 170.5,124.5C 171.583,124.539 172.583,124.873 173.5,125.5C 174.521,124.998 174.688,124.332 174,123.5C 171.982,121.75 169.815,120.416 167.5,119.5 Z"/></g>
<g><path style="opacity:1" fill="#767676" d="M 196.5,120.5 C 198.31,124.311 201.31,125.977 205.5,125.5C 203.544,126.478 201.544,127.478 199.5,128.5C 200.317,126.692 199.65,125.192 197.5,124C 193.833,121.74 192.333,122.573 193,126.5C 191.293,124.963 189.793,123.296 188.5,121.5C 189.167,121.5 189.5,121.167 189.5,120.5C 190.833,119.067 192.333,117.733 194,116.5C 194.49,117.793 194.657,119.127 194.5,120.5C 191.405,121.559 192.072,121.559 196.5,120.5 Z"/></g>
<g><path style="opacity:1" fill="#1d1d1d" d="M 191.5,133.5 C 192.651,136.053 191.651,137.386 188.5,137.5C 187.785,135.245 186.452,133.412 184.5,132C 185.774,131.023 185.774,130.189 184.5,129.5C 181.914,126.221 182.914,125.054 187.5,126C 189.495,128.157 190.828,130.657 191.5,133.5 Z"/></g>
<g><path style="opacity:1" fill="#cbab43" d="M 100.5,111.5 C 100.285,113.774 99.6182,115.941 98.5,118C 100.351,121.284 101.684,124.784 102.5,128.5C 100.858,134.065 99.3578,139.732 98,145.5C 97.5005,151.491 97.3338,157.491 97.5,163.5C 96.5655,162.432 96.2322,161.099 96.5,159.5C 96.6661,153.824 96.4994,148.157 96,142.5C 95.3333,141.833 94.6667,141.167 94,140.5C 93.7837,142.384 93.117,144.051 92,145.5C 91.3321,140.727 90.4987,136.06 89.5,131.5C 90.1951,128.72 91.1951,126.053 92.5,123.5C 94.188,118.774 96.8546,114.774 100.5,111.5 Z"/></g>
<g><path style="opacity:1" fill="#561616" d="M 167.5,128.5 C 166.167,130.167 164.833,131.833 163.5,133.5C 164.348,130.306 163.015,129.639 159.5,131.5C 159.557,130.391 159.89,129.391 160.5,128.5C 161.167,128.5 161.833,128.5 162.5,128.5C 164.912,128.306 165.912,126.973 165.5,124.5C 165.783,123.711 166.283,123.044 167,122.5C 167.495,124.473 167.662,126.473 167.5,128.5 Z"/></g>
<g><path style="opacity:1" fill="#7e7d7d" d="M 184.5,129.5 C 185.774,130.189 185.774,131.023 184.5,132C 186.452,133.412 187.785,135.245 188.5,137.5C 186.868,136.554 185.201,135.554 183.5,134.5C 182.893,134.624 182.56,134.957 182.5,135.5C 180.765,133.765 178.765,132.432 176.5,131.5C 174.577,132.092 172.911,133.092 171.5,134.5C 172.099,132.066 173.599,130.399 176,129.5C 178.581,130.417 180.914,131.751 183,133.5C 183.41,132.099 183.91,130.766 184.5,129.5 Z"/></g>
<g><path style="opacity:1" fill="#7d7d7d" d="M 200.5,132.5 C 203.842,136.493 203.175,137.826 198.5,136.5C 198.527,134.801 199.194,133.467 200.5,132.5 Z"/></g>
<g><path style="opacity:1" fill="#bb1618" d="M 163.5,133.5 C 163.567,134.959 163.234,136.292 162.5,137.5C 161.5,137.5 160.5,137.5 159.5,137.5C 159.5,135.5 159.5,133.5 159.5,131.5C 163.015,129.639 164.348,130.306 163.5,133.5 Z"/></g>
<g><path style="opacity:1" fill="#e4e4e4" d="M 133.5,136.5 C 133.838,139.157 133.171,141.49 131.5,143.5C 130.571,142.311 130.238,140.978 130.5,139.5C 129.5,139.5 128.5,139.5 127.5,139.5C 126.957,139.44 126.624,139.107 126.5,138.5C 127.624,137.086 128.624,135.586 129.5,134C 131.412,133.721 132.746,134.554 133.5,136.5 Z"/></g>
<g><path style="opacity:1" fill="#1a1a1a" d="M 188.5,137.5 C 188.5,137.833 188.5,138.167 188.5,138.5C 185.751,139.489 183.751,138.489 182.5,135.5C 182.56,134.957 182.893,134.624 183.5,134.5C 185.201,135.554 186.868,136.554 188.5,137.5 Z"/></g>
<g><path style="opacity:1" fill="#f3f3f3" d="M 176.5,115.5 C 177.167,116.833 177.833,118.167 178.5,119.5C 178.709,120.922 179.209,122.255 180,123.5C 180.483,122.552 180.649,121.552 180.5,120.5C 182.167,120.5 183.833,120.5 185.5,120.5C 186.391,121.11 187.391,121.443 188.5,121.5C 189.793,123.296 191.293,124.963 193,126.5C 192.333,122.573 193.833,121.74 197.5,124C 199.65,125.192 200.317,126.692 199.5,128.5C 198.203,130.371 197.203,132.371 196.5,134.5C 195.732,133.737 195.232,132.737 195,131.5C 194.29,132.973 193.124,133.64 191.5,133.5C 190.828,130.657 189.495,128.157 187.5,126C 182.914,125.054 181.914,126.221 184.5,129.5C 183.91,130.766 183.41,132.099 183,133.5C 180.914,131.751 178.581,130.417 176,129.5C 173.599,130.399 172.099,132.066 171.5,134.5C 172.911,133.092 174.577,132.092 176.5,131.5C 178.765,132.432 180.765,133.765 182.5,135.5C 183.751,138.489 185.751,139.489 188.5,138.5C 190.153,138.66 191.486,139.326 192.5,140.5C 192.481,142.06 192.148,143.56 191.5,145C 191.833,145.5 192.167,146 192.5,146.5C 195.93,145.258 197.263,146.591 196.5,150.5C 197.552,150.649 198.552,150.483 199.5,150C 200.036,147.492 201.369,145.659 203.5,144.5C 204.167,144.167 204.833,143.833 205.5,143.5C 206.172,146.942 205.172,149.609 202.5,151.5C 200.585,151.216 198.919,151.549 197.5,152.5C 192.739,154.29 189.072,152.956 186.5,148.5C 186.068,147.29 185.401,146.29 184.5,145.5C 181.669,135.274 179.669,135.274 178.5,145.5C 177.076,147.515 176.41,149.848 176.5,152.5C 176.5,153.5 176.5,154.5 176.5,155.5C 176.334,160.844 176.501,166.177 177,171.5C 177.232,172.737 177.732,173.737 178.5,174.5C 178.573,176.027 177.906,177.027 176.5,177.5C 175.833,177.5 175.167,177.5 174.5,177.5C 171.593,176.266 169.259,174.266 167.5,171.5C 165.875,167.92 164.541,164.254 163.5,160.5C 163.5,157.5 163.5,154.5 163.5,151.5C 164.739,149.293 165.239,146.959 165,144.5C 164.667,145.167 164.333,145.833 164,146.5C 163.633,140.265 165.3,134.598 169,129.5C 169.765,127.934 169.598,126.601 168.5,125.5C 168.354,120.863 169.021,120.53 170.5,124.5C 170.5,125.5 170.5,126.5 170.5,127.5C 173.435,126.422 176.102,126.422 178.5,127.5C 176.332,125.367 174.666,122.867 173.5,120C 171.527,119.505 169.527,119.338 167.5,119.5C 167.167,119.5 166.833,119.5 166.5,119.5C 163.26,113.215 164.26,111.882 169.5,115.5C 171.865,114.178 174.198,114.178 176.5,115.5 Z"/></g>
<g><path style="opacity:1" fill="#bcbcbc" d="M 196.5,134.5 C 195.602,135.158 194.602,135.824 193.5,136.5C 195.843,137.275 198.177,137.942 200.5,138.5C 200.5,138.833 200.5,139.167 200.5,139.5C 197.721,139.279 195.054,139.612 192.5,140.5C 191.486,139.326 190.153,138.66 188.5,138.5C 188.5,138.167 188.5,137.833 188.5,137.5C 191.651,137.386 192.651,136.053 191.5,133.5C 193.124,133.64 194.29,132.973 195,131.5C 195.232,132.737 195.732,133.737 196.5,134.5 Z"/></g>
<g><path style="opacity:1" fill="#414107" d="M 227.5,133.5 C 229.074,135.102 229.741,137.102 229.5,139.5C 227.926,137.898 227.259,135.898 227.5,133.5 Z"/></g>
<g><path style="opacity:1" fill="#737373" d="M 200.5,139.5 C 200.5,139.167 200.5,138.833 200.5,138.5C 204.151,138.162 205.817,139.828 205.5,143.5C 204.833,143.833 204.167,144.167 203.5,144.5C 203.759,142.011 202.759,140.344 200.5,139.5 Z"/></g>
<g><path style="opacity:1" fill="#858683" d="M 171.5,134.5 C 171.245,137.016 170.411,139.35 169,141.5C 168.705,138.758 169.538,136.425 171.5,134.5 Z"/></g>
<g><path style="opacity:1" fill="#171717" d="M 200.5,139.5 C 202.759,140.344 203.759,142.011 203.5,144.5C 201.369,145.659 200.036,147.492 199.5,150C 198.552,150.483 197.552,150.649 196.5,150.5C 197.263,146.591 195.93,145.258 192.5,146.5C 192.167,146 191.833,145.5 191.5,145C 192.148,143.56 192.481,142.06 192.5,140.5C 195.054,139.612 197.721,139.279 200.5,139.5 Z"/></g>
<g><path style="opacity:1" fill="#744b16" d="M 92.5,123.5 C 91.1951,126.053 90.1951,128.72 89.5,131.5C 87.2478,137.187 85.9144,143.187 85.5,149.5C 84.6733,154.651 84.1733,159.984 84,165.5C 83.6667,158.167 83.3333,150.833 83,143.5C 82.6174,144.056 82.1174,144.389 81.5,144.5C 81.4095,141.848 82.0762,139.515 83.5,137.5C 85.6002,132.982 87.6002,128.982 89.5,125.5C 90.2652,124.388 91.2652,123.721 92.5,123.5 Z"/></g>
<g><path style="opacity:1" fill="#a9a9a9" d="M 133.5,136.5 C 134.167,137.833 134.833,139.167 135.5,140.5C 134.28,142.981 132.614,144.981 130.5,146.5C 130.245,143.771 129.245,141.438 127.5,139.5C 128.5,139.5 129.5,139.5 130.5,139.5C 130.238,140.978 130.571,142.311 131.5,143.5C 133.171,141.49 133.838,139.157 133.5,136.5 Z"/></g>
<g><path style="opacity:1" fill="#171717" d="M 184.5,145.5 C 183.571,144.064 182.405,142.731 181,141.5C 180.683,144.207 181.516,146.54 183.5,148.5C 184.551,149.222 185.218,150.222 185.5,151.5C 185.5,152.167 185.167,152.5 184.5,152.5C 183.457,150.148 182.124,149.981 180.5,152C 181.056,152.383 181.389,152.883 181.5,153.5C 180.5,153.833 179.833,154.5 179.5,155.5C 178.5,155.5 177.5,155.5 176.5,155.5C 176.5,154.5 176.5,153.5 176.5,152.5C 177.924,150.485 178.59,148.152 178.5,145.5C 179.669,135.274 181.669,135.274 184.5,145.5 Z"/></g>
<g><path style="opacity:1" fill="#f1f1f0" d="M 160.5,112.5 C 161.5,112.5 162.5,112.5 163.5,112.5C 163.405,115.692 164.071,118.692 165.5,121.5C 165.5,122.167 165.167,122.5 164.5,122.5C 162.956,122.297 161.622,121.63 160.5,120.5C 160.167,121 159.833,121.5 159.5,122C 160.287,124.099 160.62,126.266 160.5,128.5C 159.89,129.391 159.557,130.391 159.5,131.5C 158.262,133.214 157.595,135.214 157.5,137.5C 156.099,137.971 154.766,138.638 153.5,139.5C 153.808,140.308 154.308,140.975 155,141.5C 155.175,146.019 155.675,150.353 156.5,154.5C 156.5,154.833 156.5,155.167 156.5,155.5C 156.5,156.5 156.5,157.5 156.5,158.5C 154.896,159.287 154.229,160.62 154.5,162.5C 155.833,162.5 157.167,162.5 158.5,162.5C 158.263,163.791 158.596,164.791 159.5,165.5C 159.66,167.153 160.326,168.486 161.5,169.5C 162.041,172.766 162.207,176.1 162,179.5C 163.584,178.139 165.418,177.472 167.5,177.5C 168.436,178.974 169.77,179.974 171.5,180.5C 171.5,181.167 171.5,181.833 171.5,182.5C 171.167,182.5 170.833,182.5 170.5,182.5C 168.833,182.5 167.167,182.5 165.5,182.5C 159.665,180.669 155.331,177.002 152.5,171.5C 153.729,170.719 155.062,170.219 156.5,170C 155.833,169.667 155.167,169.333 154.5,169C 155.5,168 156.5,167 157.5,166C 157.167,165.833 156.833,165.667 156.5,165.5C 154.205,167.48 151.539,168.647 148.5,169C 149.516,169.519 150.182,170.353 150.5,171.5C 149.472,173.56 149.472,175.56 150.5,177.5C 151.293,177.069 152.127,176.735 153,176.5C 155.736,177.761 157.569,179.761 158.5,182.5C 156.94,180.365 155.273,180.198 153.5,182C 154.766,182.309 155.933,182.809 157,183.5C 157.497,186.146 157.664,188.813 157.5,191.5C 157.038,192.88 156.038,193.547 154.5,193.5C 148.985,192.988 144.152,190.988 140,187.5C 137.822,180.355 136.989,173.022 137.5,165.5C 137.5,162.833 137.5,160.167 137.5,157.5C 139.829,153.541 142.663,149.874 146,146.5C 145.398,143.003 146.565,140.003 149.5,137.5C 149.333,137.167 149.167,136.833 149,136.5C 145.281,138.791 143.615,142.124 144,146.5C 141.957,148.208 140.29,150.208 139,152.5C 137.059,148.446 136.225,148.78 136.5,153.5C 136.073,157.824 135.739,162.158 135.5,166.5C 135.167,167.833 134.833,169.167 134.5,170.5C 131.273,173.071 127.939,173.071 124.5,170.5C 124.167,170.833 123.833,171.167 123.5,171.5C 124.993,172.141 125.993,173.141 126.5,174.5C 125.325,174.281 124.325,174.614 123.5,175.5C 126.428,176.484 129.428,176.817 132.5,176.5C 132.833,176.5 133.167,176.5 133.5,176.5C 134.15,178.435 134.483,180.435 134.5,182.5C 133.25,182.423 132.417,181.756 132,180.5C 131.506,182.134 131.34,183.801 131.5,185.5C 130.833,186.833 129.833,187.833 128.5,188.5C 127.251,180.652 126.585,180.652 126.5,188.5C 125.749,189.573 124.749,189.74 123.5,189C 119.894,186.42 117.56,183.087 116.5,179C 117.871,173.884 119.038,168.718 120,163.5C 121.154,162.257 122.488,161.257 124,160.5C 124.313,154.88 126.479,150.213 130.5,146.5C 132.614,144.981 134.28,142.981 135.5,140.5C 137.495,138.36 139.995,137.027 143,136.5C 145.765,128.464 149.931,121.297 155.5,115C 157.078,113.906 158.745,113.072 160.5,112.5 Z"/></g>
<g><path style="opacity:1" fill="#695c5a" d="M 168.5,125.5 C 169.598,126.601 169.765,127.934 169,129.5C 165.3,134.598 163.633,140.265 164,146.5C 164.333,145.833 164.667,145.167 165,144.5C 165.239,146.959 164.739,149.293 163.5,151.5C 162.833,151.167 162.167,150.833 161.5,150.5C 161.294,146.102 161.627,141.768 162.5,137.5C 163.234,136.292 163.567,134.959 163.5,133.5C 164.833,131.833 166.167,130.167 167.5,128.5C 168.404,127.791 168.737,126.791 168.5,125.5 Z"/></g>
<g><path style="opacity:1" fill="#9e9e9e" d="M 184.5,145.5 C 185.401,146.29 186.068,147.29 186.5,148.5C 185.5,148.5 184.5,148.5 183.5,148.5C 181.516,146.54 180.683,144.207 181,141.5C 182.405,142.731 183.571,144.064 184.5,145.5 Z"/></g>
<g><path style="opacity:0.867" fill="#8b664e" d="M 308.5,127.5 C 307.989,135.765 306.656,143.765 304.5,151.5C 305.004,143.805 305.837,136.139 307,128.5C 307.383,127.944 307.883,127.611 308.5,127.5 Z"/></g>
<g><path style="opacity:1" fill="#464747" d="M 137.5,157.5 C 137.768,155.901 137.434,154.568 136.5,153.5C 136.225,148.78 137.059,148.446 139,152.5C 140.29,150.208 141.957,148.208 144,146.5C 143.615,142.124 145.281,138.791 149,136.5C 149.167,136.833 149.333,137.167 149.5,137.5C 146.565,140.003 145.398,143.003 146,146.5C 142.663,149.874 139.829,153.541 137.5,157.5 Z"/></g>
<g><path style="opacity:1" fill="#5b1614" d="M 159.5,131.5 C 159.5,133.5 159.5,135.5 159.5,137.5C 160.5,137.5 161.5,137.5 162.5,137.5C 161.627,141.768 161.294,146.102 161.5,150.5C 161.5,151.5 161.5,152.5 161.5,153.5C 160.448,155.256 158.781,155.923 156.5,155.5C 156.5,155.167 156.5,154.833 156.5,154.5C 156.334,150.486 156.501,146.486 157,142.5C 158.826,143.841 159.993,143.341 160.5,141C 159.929,139.401 158.929,138.234 157.5,137.5C 157.595,135.214 158.262,133.214 159.5,131.5 Z"/></g>
<g><path style="opacity:1" fill="#c21918" d="M 157.5,145.5 C 158.5,145.5 159.5,145.5 160.5,145.5C 160.5,148.5 160.5,151.5 160.5,154.5C 159.5,154.5 158.5,154.5 157.5,154.5C 157.5,151.5 157.5,148.5 157.5,145.5 Z"/></g>
<g><path style="opacity:0.984" fill="#917056" d="M 24.5,141.5 C 25.7479,142.334 26.4146,143.667 26.5,145.5C 27.1162,149.145 27.4495,152.812 27.5,156.5C 25.8821,151.744 24.8821,146.744 24.5,141.5 Z"/></g>
<g><path style="opacity:1" fill="#8f7c7d" d="M 157.5,137.5 C 158.929,138.234 159.929,139.401 160.5,141C 159.993,143.341 158.826,143.841 157,142.5C 156.501,146.486 156.334,150.486 156.5,154.5C 155.675,150.353 155.175,146.019 155,141.5C 154.308,140.975 153.808,140.308 153.5,139.5C 154.766,138.638 156.099,137.971 157.5,137.5 Z"/></g>
<g><path style="opacity:1" fill="#b18c38" d="M 89.5,131.5 C 90.4987,136.06 91.3321,140.727 92,145.5C 93.117,144.051 93.7837,142.384 94,140.5C 94.6667,141.167 95.3333,141.833 96,142.5C 96.4994,148.157 96.6661,153.824 96.5,159.5C 95.6981,160.952 95.1981,162.618 95,164.5C 92.3418,161.876 89.3418,158.876 86,155.5C 85.5045,153.527 85.3379,151.527 85.5,149.5C 85.9144,143.187 87.2478,137.187 89.5,131.5 Z"/></g>
<g><path style="opacity:1" fill="#515050" d="M 178.5,145.5 C 178.59,148.152 177.924,150.485 176.5,152.5C 176.41,149.848 177.076,147.515 178.5,145.5 Z"/></g>
<g><path style="opacity:1" fill="#6b6b6b" d="M 197.5,152.5 C 198.919,151.549 200.585,151.216 202.5,151.5C 202.833,152.167 203.167,152.833 203.5,153.5C 198.885,158.474 197.218,164.474 198.5,171.5C 197.021,170.174 196.355,168.841 196.5,167.5C 196.5,167.167 196.5,166.833 196.5,166.5C 196.271,162.918 196.271,159.584 196.5,156.5C 197.249,155.469 197.915,154.302 198.5,153C 198.272,152.601 197.938,152.435 197.5,152.5 Z"/></g>
<g><path style="opacity:1" fill="#7d5839" d="M 299.5,140.5 C 299.833,140.5 300.167,140.5 300.5,140.5C 300.393,144.535 300.726,148.535 301.5,152.5C 301.755,156.07 302.755,156.403 304.5,153.5C 302.032,168.054 298.032,182.054 292.5,195.5C 294.842,185.8 297.342,176.133 300,166.5C 300.827,162.459 300.66,158.459 299.5,154.5C 298.675,156.36 297.675,158.026 296.5,159.5C 297.371,153.145 298.371,146.812 299.5,140.5 Z"/></g>
<g><path style="opacity:1" fill="#404040" d="M 183.5,148.5 C 184.5,148.5 185.5,148.5 186.5,148.5C 189.072,152.956 192.739,154.29 197.5,152.5C 197.938,152.435 198.272,152.601 198.5,153C 197.915,154.302 197.249,155.469 196.5,156.5C 196.294,154.451 195.461,154.117 194,155.5C 194.351,157.886 194.185,160.219 193.5,162.5C 191.929,163.309 190.262,163.643 188.5,163.5C 188.094,165.109 188.094,166.443 188.5,167.5C 191.084,166.607 193.751,166.274 196.5,166.5C 196.5,166.833 196.5,167.167 196.5,167.5C 192.836,167.36 189.336,168.027 186,169.5C 185.167,169.333 184.333,169.167 183.5,169C 184.737,168.768 185.737,168.268 186.5,167.5C 187.39,165.218 187.556,162.885 187,160.5C 186.292,161.381 185.458,162.047 184.5,162.5C 183.317,159.619 182.317,156.619 181.5,153.5C 183.619,154.986 185.119,156.986 186,159.5C 187.481,158.529 188.315,157.196 188.5,155.5C 187.974,153.77 186.974,152.436 185.5,151.5C 185.218,150.222 184.551,149.222 183.5,148.5 Z"/></g>
<g><path style="opacity:1" fill="#efefef" d="M 202.5,194.5 C 202.666,190.486 202.499,186.486 202,182.5C 200.585,185.958 200.085,189.625 200.5,193.5C 198.833,194.833 197.167,194.833 195.5,193.5C 194.167,189.5 194.167,185.5 195.5,181.5C 197.851,179.93 200.518,179.097 203.5,179C 201.975,177.991 200.308,177.491 198.5,177.5C 198.5,176.5 198.5,175.5 198.5,174.5C 203.153,169.575 205.153,163.908 204.5,157.5C 204.201,155.396 204.534,153.396 205.5,151.5C 206.478,151.977 207.311,152.643 208,153.5C 208.404,161.922 209.904,170.089 212.5,178C 212.397,179.561 212.063,181.061 211.5,182.5C 210.397,182.998 209.397,183.331 208.5,183.5C 211.797,189.062 210.63,193.396 205,196.5C 203.699,196.361 202.866,195.695 202.5,194.5 Z"/></g>
<g><path style="opacity:1" fill="#ececec" d="M 184.5,152.5 C 185.048,154.532 186.381,155.532 188.5,155.5C 188.315,157.196 187.481,158.529 186,159.5C 185.119,156.986 183.619,154.986 181.5,153.5C 181.389,152.883 181.056,152.383 180.5,152C 182.124,149.981 183.457,150.148 184.5,152.5 Z"/></g>
<g><path style="opacity:1" fill="#999999" d="M 185.5,151.5 C 186.974,152.436 187.974,153.77 188.5,155.5C 186.381,155.532 185.048,154.532 184.5,152.5C 185.167,152.5 185.5,152.167 185.5,151.5 Z"/></g>
<g><path style="opacity:1" fill="#dedede" d="M 189.5,153.5 C 192.569,154.496 193.069,156.163 191,158.5C 189.991,156.975 189.491,155.308 189.5,153.5 Z"/></g>
<g><path style="opacity:1" fill="#aaa1a1" d="M 161.5,150.5 C 162.167,150.833 162.833,151.167 163.5,151.5C 163.5,154.5 163.5,157.5 163.5,160.5C 162.833,158.167 162.167,155.833 161.5,153.5C 161.5,152.5 161.5,151.5 161.5,150.5 Z"/></g>
<g><path style="opacity:1" fill="#ececec" d="M 203.5,153.5 C 203.5,155.167 203.5,156.833 203.5,158.5C 202.964,163.571 201.298,168.238 198.5,172.5C 198.5,172.167 198.5,171.833 198.5,171.5C 197.218,164.474 198.885,158.474 203.5,153.5 Z"/></g>
<g><path style="opacity:1" fill="#513011" d="M 249.5,143.5 C 250.942,148.255 251.608,153.255 251.5,158.5C 251.498,161.686 251.165,164.686 250.5,167.5C 250.499,159.483 250.166,151.483 249.5,143.5 Z"/></g>
<g><path style="opacity:1" fill="#eeeeee" d="M 181.5,153.5 C 182.317,156.619 183.317,159.619 184.5,162.5C 183.425,163.562 182.425,163.562 181.5,162.5C 180.628,160.55 179.961,158.55 179.5,156.5C 179.5,156.167 179.5,155.833 179.5,155.5C 179.833,154.5 180.5,153.833 181.5,153.5 Z"/></g>
<g><path style="opacity:1" fill="#7c7c7c" d="M 136.5,153.5 C 137.434,154.568 137.768,155.901 137.5,157.5C 137.5,160.167 137.5,162.833 137.5,165.5C 136.833,165.833 136.167,166.167 135.5,166.5C 135.739,162.158 136.073,157.824 136.5,153.5 Z"/></g>
<g><path style="opacity:1" fill="#c3c3c3" d="M 191.5,159.5 C 193.337,159.639 193.67,160.306 192.5,161.5C 191.702,161.043 191.369,160.376 191.5,159.5 Z"/></g>
<g><path style="opacity:1" fill="#676767" d="M 204.5,157.5 C 205.153,163.908 203.153,169.575 198.5,174.5C 198.5,173.833 198.5,173.167 198.5,172.5C 201.298,168.238 202.964,163.571 203.5,158.5C 204.167,158.5 204.5,158.167 204.5,157.5 Z"/></g>
<g><path style="opacity:1" fill="#343634" d="M 176.5,155.5 C 177.5,155.5 178.5,155.5 179.5,155.5C 179.5,155.833 179.5,156.167 179.5,156.5C 178.678,158.933 178.344,161.267 178.5,163.5C 177.861,164.097 177.528,164.93 177.5,166C 178.093,168.87 178.759,171.703 179.5,174.5C 179.167,174.5 178.833,174.5 178.5,174.5C 177.732,173.737 177.232,172.737 177,171.5C 176.501,166.177 176.334,160.844 176.5,155.5 Z"/></g>
<g><path style="opacity:1" fill="#f6f6f6" d="M 186.5,167.5 C 184.952,167.179 184.285,166.179 184.5,164.5C 184.5,163.833 184.5,163.167 184.5,162.5C 185.458,162.047 186.292,161.381 187,160.5C 187.556,162.885 187.39,165.218 186.5,167.5 Z"/></g>
<g><path style="opacity:1" fill="#634128" d="M 45.5,63.5 C 48.2869,64.4767 51.2869,64.81 54.5,64.5C 49.6946,65.4872 44.6946,65.8205 39.5,65.5C 34.1865,112.993 40.1865,158.993 57.5,203.5C 56.6043,202.494 55.9377,202.494 55.5,203.5C 46.9075,184.492 41.0741,164.492 38,143.5C 34.1682,116.886 33.6682,90.2194 36.5,63.5C 39.5,63.5 42.5,63.5 45.5,63.5 Z"/></g>
<g><path style="opacity:1" fill="#707070" d="M 179.5,156.5 C 179.961,158.55 180.628,160.55 181.5,162.5C 182.425,163.562 183.425,163.562 184.5,162.5C 184.5,163.167 184.5,163.833 184.5,164.5C 180.793,165.246 179.793,167.246 181.5,170.5C 179.166,168.824 178.166,166.491 178.5,163.5C 178.344,161.267 178.678,158.933 179.5,156.5 Z"/></g>
<g><path style="opacity:1" fill="#dadada" d="M 196.5,156.5 C 196.271,159.584 196.271,162.918 196.5,166.5C 193.751,166.274 191.084,166.607 188.5,167.5C 188.094,166.443 188.094,165.109 188.5,163.5C 190.262,163.643 191.929,163.309 193.5,162.5C 194.185,160.219 194.351,157.886 194,155.5C 195.461,154.117 196.294,154.451 196.5,156.5 Z"/></g>
<g><path style="opacity:1" fill="#ad171c" d="M 161.5,169.5 C 160.326,168.486 159.66,167.153 159.5,165.5C 159.5,164.5 159.5,163.5 159.5,162.5C 160.822,162.33 161.989,162.663 163,163.5C 163.813,165.436 164.313,167.436 164.5,169.5C 163.5,169.5 162.5,169.5 161.5,169.5 Z"/></g>
<g><path style="opacity:1" fill="#80522a" d="M 292.5,195.5 C 292.5,195.833 292.5,196.167 292.5,196.5C 289.347,199.454 287.181,203.121 286,207.5C 284.981,205.498 284.148,203.498 283.5,201.5C 288.673,187.653 293.007,173.653 296.5,159.5C 297.675,158.026 298.675,156.36 299.5,154.5C 300.66,158.459 300.827,162.459 300,166.5C 297.342,176.133 294.842,185.8 292.5,195.5 Z"/></g>
<g><path style="opacity:1" fill="#ae8635" d="M 226.5,122.5 C 227.708,123.234 229.041,123.567 230.5,123.5C 230.238,124.978 230.571,126.311 231.5,127.5C 232.72,126.289 233.887,126.289 235,127.5C 235.965,125.74 237.132,125.406 238.5,126.5C 237.313,127.519 236.313,128.686 235.5,130C 234.551,130.617 233.718,130.451 233,129.5C 232.312,130.332 232.479,130.998 233.5,131.5C 235.901,134.413 237.234,134.079 237.5,130.5C 239.103,130.312 240.437,130.812 241.5,132C 238.088,137.467 239.421,141.467 245.5,144C 245.167,144.333 244.833,144.667 244.5,145C 245.264,147.069 245.764,149.236 246,151.5C 247.216,149.038 247.882,146.371 248,143.5C 249.165,152.463 249.665,161.463 249.5,170.5C 248.592,177.794 246.925,184.794 244.5,191.5C 244.675,187.459 244.842,183.459 245,179.5C 244.667,179.833 244.333,180.167 244,180.5C 243.097,176.596 240.764,173.929 237,172.5C 236.617,173.056 236.117,173.389 235.5,173.5C 234.833,174.5 234.167,175.5 233.5,176.5C 233.523,174.073 234.023,171.74 235,169.5C 237.938,152.611 235.104,136.944 226.5,122.5 Z"/></g>
<g><path style="opacity:1" fill="#a9a9a9" d="M 184.5,164.5 C 184.285,166.179 184.952,167.179 186.5,167.5C 185.737,168.268 184.737,168.768 183.5,169C 184.333,169.167 185.167,169.333 186,169.5C 189.336,168.027 192.836,167.36 196.5,167.5C 196.355,168.841 197.021,170.174 198.5,171.5C 198.5,171.833 198.5,172.167 198.5,172.5C 198.5,173.167 198.5,173.833 198.5,174.5C 197.518,175.141 196.518,175.807 195.5,176.5C 194.893,176.376 194.56,176.043 194.5,175.5C 196.35,174.758 197.016,173.758 196.5,172.5C 196.672,171.508 196.338,170.842 195.5,170.5C 190.964,170.635 186.297,170.635 181.5,170.5C 179.793,167.246 180.793,165.246 184.5,164.5 Z"/></g>
<g><path style="opacity:1" fill="#9b732d" d="M 85.5,149.5 C 85.3379,151.527 85.5045,153.527 86,155.5C 89.3418,158.876 92.3418,161.876 95,164.5C 95.1981,162.618 95.6981,160.952 96.5,159.5C 96.2322,161.099 96.5655,162.432 97.5,163.5C 97.6721,167.534 98.1721,171.534 99,175.5C 103.455,187.749 109.955,198.749 118.5,208.5C 117.5,208.5 116.5,208.5 115.5,208.5C 115.649,209.552 115.483,210.552 115,211.5C 113.049,209.863 113.216,208.363 115.5,207C 113.253,203.838 111.086,204.005 109,207.5C 108.5,207.167 108,206.833 107.5,206.5C 108.752,204.999 109.752,203.332 110.5,201.5C 109.467,200.548 108.3,200.548 107,201.5C 105.739,201.241 104.739,200.574 104,199.5C 103.372,193.917 101.372,188.917 98,184.5C 97.6667,184.833 97.3333,185.167 97,185.5C 95.9914,183.975 95.4914,182.308 95.5,180.5C 94.325,180.719 93.325,180.386 92.5,179.5C 91.3237,176.904 89.9903,174.404 88.5,172C 88.8333,171.667 89.1667,171.333 89.5,171C 88.451,170.508 87.451,170.674 86.5,171.5C 85.0133,166.343 84.3466,166.676 84.5,172.5C 83.6981,171.048 83.1981,169.382 83,167.5C 82.5017,170.817 82.335,174.15 82.5,177.5C 80.9602,171.749 80.2935,165.749 80.5,159.5C 80.5523,154.452 80.8856,149.452 81.5,144.5C 82.1174,144.389 82.6174,144.056 83,143.5C 83.3333,150.833 83.6667,158.167 84,165.5C 84.1733,159.984 84.6733,154.651 85.5,149.5 Z"/></g>
<g><path style="opacity:1" fill="#ecebeb" d="M 178.5,163.5 C 178.166,166.491 179.166,168.824 181.5,170.5C 182.492,172.026 183.992,172.693 186,172.5C 189.141,171.678 192.307,171.011 195.5,170.5C 196.338,170.842 196.672,171.508 196.5,172.5C 195.094,172.973 194.427,173.973 194.5,175.5C 192.483,176.529 190.483,177.529 188.5,178.5C 187.833,178.5 187.167,178.5 186.5,178.5C 183.9,177.532 181.566,176.199 179.5,174.5C 178.759,171.703 178.093,168.87 177.5,166C 177.528,164.93 177.861,164.097 178.5,163.5 Z"/></g>
<g><path style="opacity:1" fill="#908f10" d="M 102.5,148.5 C 101.895,158.693 102.895,168.693 105.5,178.5C 104.043,176.758 102.876,174.758 102,172.5C 101.177,164.323 101.344,156.323 102.5,148.5 Z"/></g>
<g><path style="opacity:1" fill="#35201e" d="M 161.5,153.5 C 162.167,155.833 162.833,158.167 163.5,160.5C 164.541,164.254 165.875,167.92 167.5,171.5C 169.259,174.266 171.593,176.266 174.5,177.5C 174.768,179.099 174.434,180.432 173.5,181.5C 173.079,179.09 171.746,177.257 169.5,176C 168.184,175.472 167.517,175.972 167.5,177.5C 165.418,177.472 163.584,178.139 162,179.5C 162.207,176.1 162.041,172.766 161.5,169.5C 162.5,169.5 163.5,169.5 164.5,169.5C 164.313,167.436 163.813,165.436 163,163.5C 161.989,162.663 160.822,162.33 159.5,162.5C 159.5,163.5 159.5,164.5 159.5,165.5C 158.596,164.791 158.263,163.791 158.5,162.5C 157.167,162.5 155.833,162.5 154.5,162.5C 154.229,160.62 154.896,159.287 156.5,158.5C 156.5,157.5 156.5,156.5 156.5,155.5C 158.781,155.923 160.448,155.256 161.5,153.5 Z"/></g>
<g><path style="opacity:1" fill="#aca5a2" d="M 156.5,158.5 C 157.467,157.194 158.801,156.527 160.5,156.5C 160.5,157.833 160.5,159.167 160.5,160.5C 158.517,160.843 157.183,160.176 156.5,158.5 Z"/></g>
<g><path style="opacity:1" fill="#393939" d="M 195.5,170.5 C 192.307,171.011 189.141,171.678 186,172.5C 183.992,172.693 182.492,172.026 181.5,170.5C 186.297,170.635 190.964,170.635 195.5,170.5 Z"/></g>
<g><path style="opacity:1" fill="#2e2e2e" d="M 134.5,170.5 C 134.833,171.167 135.167,171.833 135.5,172.5C 132.519,172.794 131.852,174.128 133.5,176.5C 133.167,176.5 132.833,176.5 132.5,176.5C 130.5,175.833 128.5,175.167 126.5,174.5C 125.993,173.141 124.993,172.141 123.5,171.5C 123.833,171.167 124.167,170.833 124.5,170.5C 127.939,173.071 131.273,173.071 134.5,170.5 Z"/></g>
<g><path style="opacity:1" fill="#3b3b3c" d="M 165.5,182.5 C 163.511,183.887 161.678,183.553 160,181.5C 159.51,182.793 159.343,184.127 159.5,185.5C 159.167,185.5 158.833,185.5 158.5,185.5C 158.5,184.5 158.5,183.5 158.5,182.5C 157.569,179.761 155.736,177.761 153,176.5C 152.127,176.735 151.293,177.069 150.5,177.5C 149.472,175.56 149.472,173.56 150.5,171.5C 150.182,170.353 149.516,169.519 148.5,169C 151.539,168.647 154.205,167.48 156.5,165.5C 156.833,165.667 157.167,165.833 157.5,166C 156.5,167 155.5,168 154.5,169C 155.167,169.333 155.833,169.667 156.5,170C 155.062,170.219 153.729,170.719 152.5,171.5C 155.331,177.002 159.665,180.669 165.5,182.5 Z"/></g>
<g><path style="opacity:1" fill="#afa5a8" d="M 163.5,171.5 C 166.956,172.536 167.29,174.203 164.5,176.5C 163.548,174.955 163.215,173.288 163.5,171.5 Z"/></g>
<g><path style="opacity:1" fill="#323232" d="M 196.5,172.5 C 197.016,173.758 196.35,174.758 194.5,175.5C 194.427,173.973 195.094,172.973 196.5,172.5 Z"/></g>
<g><path style="opacity:1" fill="#8f8f8f" d="M 126.5,174.5 C 128.5,175.167 130.5,175.833 132.5,176.5C 129.428,176.817 126.428,176.484 123.5,175.5C 124.325,174.614 125.325,174.281 126.5,174.5 Z"/></g>
<g><path style="opacity:1" fill="#a0a0a0" d="M 135.5,172.5 C 135.843,174.483 135.176,175.817 133.5,176.5C 131.852,174.128 132.519,172.794 135.5,172.5 Z"/></g>
<g><path style="opacity:1" fill="#601b23" d="M 173.5,181.5 C 172.833,181.167 172.167,180.833 171.5,180.5C 169.77,179.974 168.436,178.974 167.5,177.5C 167.517,175.972 168.184,175.472 169.5,176C 171.746,177.257 173.079,179.09 173.5,181.5 Z"/></g>
<g><path style="opacity:1" fill="#c4a859" d="M 244.5,191.5 C 243.5,192.833 242.5,194.167 241.5,195.5C 241.5,193.5 241.5,191.5 241.5,189.5C 240.448,189.649 239.448,189.483 238.5,189C 239.818,185.463 238.485,183.629 234.5,183.5C 234.633,186.925 233.967,187.258 232.5,184.5C 233.8,180.904 234.8,177.237 235.5,173.5C 236.117,173.389 236.617,173.056 237,172.5C 240.764,173.929 243.097,176.596 244,180.5C 244.333,180.167 244.667,179.833 245,179.5C 244.842,183.459 244.675,187.459 244.5,191.5 Z"/></g>
<g><path style="opacity:1" fill="#9c1a2a" d="M 179.5,178.5 C 183.31,179.754 183.31,180.754 179.5,181.5C 179.5,180.5 179.5,179.5 179.5,178.5 Z"/></g>
<g><path style="opacity:1" fill="#827b78" d="M 174.5,177.5 C 175.167,177.5 175.833,177.5 176.5,177.5C 179.288,179.993 179.121,182.326 176,184.5C 175.667,183.833 175.333,183.167 175,182.5C 173.855,183.684 172.688,183.684 171.5,182.5C 171.5,181.833 171.5,181.167 171.5,180.5C 172.167,180.833 172.833,181.167 173.5,181.5C 174.434,180.432 174.768,179.099 174.5,177.5 Z"/></g>
<g><path style="opacity:1" fill="#6a6467" d="M 186.5,178.5 C 187.167,178.5 187.833,178.5 188.5,178.5C 189.686,179.961 189.686,181.295 188.5,182.5C 187.655,181.329 186.989,179.995 186.5,178.5 Z"/></g>
<g><path style="opacity:1" fill="#909411" d="M 105.5,179.5 C 106.537,180.93 107.204,182.597 107.5,184.5C 105.787,183.365 105.12,181.698 105.5,179.5 Z"/></g>
<g><path style="opacity:1" fill="#28282a" d="M 198.5,174.5 C 198.5,175.5 198.5,176.5 198.5,177.5C 200.308,177.491 201.975,177.991 203.5,179C 200.518,179.097 197.851,179.93 195.5,181.5C 194.167,181.5 192.833,181.5 191.5,181.5C 191.5,181.833 191.5,182.167 191.5,182.5C 190.833,182.833 190.167,183.167 189.5,183.5C 188.833,183.5 188.5,183.167 188.5,182.5C 189.686,181.295 189.686,179.961 188.5,178.5C 190.483,177.529 192.483,176.529 194.5,175.5C 194.56,176.043 194.893,176.376 195.5,176.5C 196.518,175.807 197.518,175.141 198.5,174.5 Z"/></g>
<g><path style="opacity:1" fill="#d0cfd1" d="M 191.5,181.5 C 190.355,180.207 190.689,179.041 192.5,178C 193.944,177.219 195.277,177.386 196.5,178.5C 194.64,179.325 192.974,180.325 191.5,181.5 Z"/></g>
<g><path style="opacity:1" fill="#e3e4e3" d="M 191.5,182.5 C 193.414,185.684 194.08,189.351 193.5,193.5C 191.983,193.489 190.816,192.823 190,191.5C 189.503,188.854 189.336,186.187 189.5,183.5C 190.167,183.167 190.833,182.833 191.5,182.5 Z"/></g>
<g><path style="opacity:1" fill="#757575" d="M 158.5,182.5 C 158.5,183.5 158.5,184.5 158.5,185.5C 158.795,187.735 158.461,189.735 157.5,191.5C 157.664,188.813 157.497,186.146 157,183.5C 155.933,182.809 154.766,182.309 153.5,182C 155.273,180.198 156.94,180.365 158.5,182.5 Z"/></g>
<g><path style="opacity:1" fill="#8d8e8e" d="M 165.5,182.5 C 167.167,182.5 168.833,182.5 170.5,182.5C 169.432,183.434 168.099,183.768 166.5,183.5C 166.5,184.5 166.5,185.5 166.5,186.5C 163.941,186.802 161.607,186.468 159.5,185.5C 159.343,184.127 159.51,182.793 160,181.5C 161.678,183.553 163.511,183.887 165.5,182.5 Z"/></g>
<g><path style="opacity:1" fill="#533514" d="M 82.5,178.5 C 84.6098,182.502 85.9431,186.835 86.5,191.5C 84.3424,187.493 83.0091,183.16 82.5,178.5 Z"/></g>
<g><path style="opacity:1" fill="#767676" d="M 134.5,182.5 C 134.19,184.144 133.19,185.144 131.5,185.5C 131.34,183.801 131.506,182.134 132,180.5C 132.417,181.756 133.25,182.423 134.5,182.5 Z"/></g>
<g><path style="opacity:1" fill="#5b5b5b" d="M 191.5,182.5 C 191.5,182.167 191.5,181.833 191.5,181.5C 192.833,181.5 194.167,181.5 195.5,181.5C 194.167,185.5 194.167,189.5 195.5,193.5C 194.833,193.5 194.167,193.5 193.5,193.5C 194.08,189.351 193.414,185.684 191.5,182.5 Z"/></g>
<g><path style="opacity:1" fill="#835a35" d="M 29.5,167.5 C 30.4584,167.953 31.2917,168.619 32,169.5C 32.4054,173.266 33.2387,176.933 34.5,180.5C 36.6567,182.803 38.3233,185.47 39.5,188.5C 40.3211,185.554 40.3211,182.554 39.5,179.5C 42.3408,186.682 45.0075,194.015 47.5,201.5C 45.9519,201.179 45.2852,200.179 45.5,198.5C 44.5,198.5 43.5,198.5 42.5,198.5C 43.0508,201.807 43.3841,205.14 43.5,208.5C 37.6658,195.333 32.9991,181.666 29.5,167.5 Z"/></g>
<g><path style="opacity:1" fill="#7d7d7d" d="M 128.5,188.5 C 127.833,188.5 127.167,188.5 126.5,188.5C 126.585,180.652 127.251,180.652 128.5,188.5 Z"/></g>
<g><path style="opacity:1" fill="#6f6f6f" d="M 202.5,194.5 C 201.833,194.167 201.167,193.833 200.5,193.5C 200.085,189.625 200.585,185.958 202,182.5C 202.499,186.486 202.666,190.486 202.5,194.5 Z"/></g>
<g><path style="opacity:1" fill="#261e19" d="M 249.5,139.5 C 251.441,139.783 253.107,141.117 254.5,143.5C 254.833,145 255.167,146.5 255.5,148C 255.65,153.809 254.816,153.976 253,148.5C 253.333,161 251.833,173.166 248.5,185C 250.261,190.566 251.594,196.233 252.5,202C 251.99,203.826 251.156,203.993 250,202.5C 249.319,198.071 248.319,193.737 247,189.5C 246.401,195.728 243.568,200.394 238.5,203.5C 239.5,200.833 240.5,198.167 241.5,195.5C 242.5,194.167 243.5,192.833 244.5,191.5C 246.925,184.794 248.592,177.794 249.5,170.5C 250.404,169.791 250.737,168.791 250.5,167.5C 251.165,164.686 251.498,161.686 251.5,158.5C 251.608,153.255 250.942,148.255 249.5,143.5C 249.5,142.167 249.5,140.833 249.5,139.5 Z"/></g>
<g><path style="opacity:1" fill="#d5c67c" d="M 241.5,195.5 C 240.5,198.167 239.5,200.833 238.5,203.5C 236.833,205.5 235.167,207.5 233.5,209.5C 232.377,207.482 232.377,205.482 233.5,203.5C 230.922,201.426 229.422,198.76 229,195.5C 228.55,198.106 227.05,199.439 224.5,199.5C 227.421,194.659 230.088,189.659 232.5,184.5C 233.967,187.258 234.633,186.925 234.5,183.5C 238.485,183.629 239.818,185.463 238.5,189C 239.448,189.483 240.448,189.649 241.5,189.5C 241.5,191.5 241.5,193.5 241.5,195.5 Z"/></g>
<g><path style="opacity:1" fill="#cdaa66" d="M 84.5,172.5 C 88.449,195.904 100.116,214.404 119.5,228C 118.906,228.464 118.239,228.631 117.5,228.5C 115.05,227.223 112.717,225.723 110.5,224C 100.649,214.434 92.6487,203.6 86.5,191.5C 85.9431,186.835 84.6098,182.502 82.5,178.5C 82.5,178.167 82.5,177.833 82.5,177.5C 82.335,174.15 82.5017,170.817 83,167.5C 83.1981,169.382 83.6981,171.048 84.5,172.5 Z"/></g>
<g><path style="opacity:1" fill="#7e630a" d="M 235.5,173.5 C 234.8,177.237 233.8,180.904 232.5,184.5C 230.088,189.659 227.421,194.659 224.5,199.5C 222.453,201.55 220.786,203.883 219.5,206.5C 217.833,207.5 216.5,208.833 215.5,210.5C 212.553,211.781 210.219,213.781 208.5,216.5C 204.034,218.566 199.701,220.9 195.5,223.5C 188.815,225.539 182.148,227.206 175.5,228.5C 174.167,228.5 172.833,228.5 171.5,228.5C 169.833,228.5 168.167,228.5 166.5,228.5C 163.833,227.833 161.167,227.167 158.5,226.5C 195.77,228.043 220.77,211.377 233.5,176.5C 234.167,175.5 234.833,174.5 235.5,173.5 Z"/></g>
<g><path style="opacity:1" fill="#e3dc90" d="M 233.5,209.5 C 231.628,212.582 229.295,215.249 226.5,217.5C 226.628,215.345 226.128,213.345 225,211.5C 222.852,210.023 221.518,208.023 221,205.5C 220.617,206.056 220.117,206.389 219.5,206.5C 220.786,203.883 222.453,201.55 224.5,199.5C 227.05,199.439 228.55,198.106 229,195.5C 229.422,198.76 230.922,201.426 233.5,203.5C 232.377,205.482 232.377,207.482 233.5,209.5 Z"/></g>
<g><path style="opacity:1" fill="#e7d66c" d="M 226.5,217.5 C 226.167,218.5 225.5,219.167 224.5,219.5C 224.649,218.448 224.483,217.448 224,216.5C 220.127,215.007 217.294,213.007 215.5,210.5C 216.5,208.833 217.833,207.5 219.5,206.5C 220.117,206.389 220.617,206.056 221,205.5C 221.518,208.023 222.852,210.023 225,211.5C 226.128,213.345 226.628,215.345 226.5,217.5 Z"/></g>
<g><path style="opacity:1" fill="#8d6029" d="M 118.5,208.5 C 121.81,210.482 124.81,212.815 127.5,215.5C 127.062,215.435 126.728,215.601 126.5,216C 138.397,224.688 151.731,228.854 166.5,228.5C 168.167,228.5 169.833,228.5 171.5,228.5C 167.5,229.167 163.5,229.833 159.5,230.5C 156.176,229.66 152.843,229.16 149.5,229C 150.5,229.333 151.5,229.667 152.5,230C 152.167,230.333 151.833,230.667 151.5,231C 148.944,231.969 146.277,232.469 143.5,232.5C 145.396,233.466 147.396,233.799 149.5,233.5C 149.64,235.124 148.973,236.29 147.5,237C 144.5,237.333 141.5,237.667 138.5,238C 147.535,239.133 156.535,240.3 165.5,241.5C 169.5,241.5 173.5,241.5 177.5,241.5C 173.702,242.483 169.702,242.817 165.5,242.5C 147.597,243.636 131.597,238.969 117.5,228.5C 118.239,228.631 118.906,228.464 119.5,228C 100.116,214.404 88.449,195.904 84.5,172.5C 84.3466,166.676 85.0133,166.343 86.5,171.5C 87.451,170.674 88.451,170.508 89.5,171C 89.1667,171.333 88.8333,171.667 88.5,172C 89.9903,174.404 91.3237,176.904 92.5,179.5C 93.325,180.386 94.325,180.719 95.5,180.5C 95.4914,182.308 95.9914,183.975 97,185.5C 97.3333,185.167 97.6667,184.833 98,184.5C 101.372,188.917 103.372,193.917 104,199.5C 104.739,200.574 105.739,201.241 107,201.5C 108.3,200.548 109.467,200.548 110.5,201.5C 109.752,203.332 108.752,204.999 107.5,206.5C 108,206.833 108.5,207.167 109,207.5C 111.086,204.005 113.253,203.838 115.5,207C 113.216,208.363 113.049,209.863 115,211.5C 115.483,210.552 115.649,209.552 115.5,208.5C 116.5,208.5 117.5,208.5 118.5,208.5 Z"/></g>
<g><path style="opacity:1" fill="#6b6405" d="M 134.5,214.5 C 136.027,214.427 137.027,215.094 137.5,216.5C 135.973,216.573 134.973,215.906 134.5,214.5 Z"/></g>
<g><path style="opacity:1" fill="#916a3d" d="M 292.5,196.5 C 288.979,207.414 284.313,217.748 278.5,227.5C 277.504,227.414 276.671,227.748 276,228.5C 275.261,230.221 274.427,231.887 273.5,233.5C 271.872,232.465 270.205,232.465 268.5,233.5C 273.88,223.033 278.88,212.367 283.5,201.5C 284.148,203.498 284.981,205.498 286,207.5C 287.181,203.121 289.347,199.454 292.5,196.5 Z"/></g>
<g><path style="opacity:1" fill="#8c6433" d="M 47.5,201.5 C 52.7429,214.245 58.7429,226.578 65.5,238.5C 63.6458,239.241 61.9791,240.241 60.5,241.5C 53.5456,231.26 47.8789,220.26 43.5,208.5C 43.3841,205.14 43.0508,201.807 42.5,198.5C 43.5,198.5 44.5,198.5 45.5,198.5C 45.2852,200.179 45.9519,201.179 47.5,201.5 Z"/></g>
<g><path style="opacity:1" fill="#393906" d="M 145.5,219.5 C 148.152,219.41 150.485,220.076 152.5,221.5C 149.848,221.59 147.515,220.924 145.5,219.5 Z"/></g>
<g><path style="opacity:1" fill="#291e16" d="M 238.5,203.5 C 238.087,205.89 237.421,208.223 236.5,210.5C 233.421,213.257 231.088,216.59 229.5,220.5C 226.737,221.104 224.403,222.438 222.5,224.5C 222.833,225.167 223.167,225.833 223.5,226.5C 221.106,229.823 218.106,230.49 214.5,228.5C 215.167,227.833 215.833,227.167 216.5,226.5C 219.582,224.628 222.249,222.295 224.5,219.5C 225.5,219.167 226.167,218.5 226.5,217.5C 229.295,215.249 231.628,212.582 233.5,209.5C 235.167,207.5 236.833,205.5 238.5,203.5 Z"/></g>
<g><path style="opacity:1" fill="#dec34c" d="M 215.5,210.5 C 217.294,213.007 220.127,215.007 224,216.5C 224.483,217.448 224.649,218.448 224.5,219.5C 222.249,222.295 219.582,224.628 216.5,226.5C 215.022,226.762 213.689,226.429 212.5,225.5C 213.5,223.167 212.833,222.5 210.5,223.5C 206.502,221.888 205.836,219.555 208.5,216.5C 210.219,213.781 212.553,211.781 215.5,210.5 Z"/></g>
<g><path style="opacity:1" fill="#362305" d="M 127.5,215.5 C 136.907,221.7 147.24,225.367 158.5,226.5C 161.167,227.167 163.833,227.833 166.5,228.5C 151.731,228.854 138.397,224.688 126.5,216C 126.728,215.601 127.062,215.435 127.5,215.5 Z"/></g>
<g><path style="opacity:1" fill="#7b5e39" d="M 57.5,203.5 C 60.7642,210.129 63.9309,216.796 67,223.5C 71.3584,229.556 75.1918,235.89 78.5,242.5C 77.8333,242.5 77.5,242.833 77.5,243.5C 68.1253,231.428 60.7919,218.094 55.5,203.5C 55.9377,202.494 56.6043,202.494 57.5,203.5 Z"/></g>
<g><path style="opacity:1" fill="#b9973b" d="M 195.5,223.5 C 194.097,224.931 192.431,226.098 190.5,227C 192.384,227.216 194.051,227.883 195.5,229C 193.729,229.535 193.396,230.369 194.5,231.5C 196.11,232.552 197.777,232.552 199.5,231.5C 202.028,232.169 202.028,233.002 199.5,234C 200,234.167 200.5,234.333 201,234.5C 202.921,232.997 205.088,232.331 207.5,232.5C 205.819,234.008 203.819,235.008 201.5,235.5C 198.167,236.5 194.833,237.5 191.5,238.5C 183.722,238.516 176.389,237.016 169.5,234C 172.972,234.057 175.972,233.057 178.5,231C 177.429,230.148 176.429,229.315 175.5,228.5C 182.148,227.206 188.815,225.539 195.5,223.5 Z"/></g>
<g><path style="opacity:1" fill="#cdae44" d="M 208.5,216.5 C 205.836,219.555 206.502,221.888 210.5,223.5C 212.833,222.5 213.5,223.167 212.5,225.5C 213.689,226.429 215.022,226.762 216.5,226.5C 215.833,227.167 215.167,227.833 214.5,228.5C 211.996,229.584 209.663,230.917 207.5,232.5C 205.088,232.331 202.921,232.997 201,234.5C 200.5,234.333 200,234.167 199.5,234C 202.028,233.002 202.028,232.169 199.5,231.5C 197.777,232.552 196.11,232.552 194.5,231.5C 193.396,230.369 193.729,229.535 195.5,229C 194.051,227.883 192.384,227.216 190.5,227C 192.431,226.098 194.097,224.931 195.5,223.5C 199.701,220.9 204.034,218.566 208.5,216.5 Z"/></g>
<g><path style="opacity:1" fill="#a98438" d="M 171.5,228.5 C 172.833,228.5 174.167,228.5 175.5,228.5C 176.429,229.315 177.429,230.148 178.5,231C 175.972,233.057 172.972,234.057 169.5,234C 176.389,237.016 183.722,238.516 191.5,238.5C 187.111,240.246 182.444,241.246 177.5,241.5C 173.5,241.5 169.5,241.5 165.5,241.5C 167.969,240.683 170.635,240.183 173.5,240C 171.392,239.64 169.392,238.973 167.5,238C 167.957,237.586 168.291,237.086 168.5,236.5C 166.034,235.877 163.701,235.043 161.5,234C 162.833,233.667 164.167,233.333 165.5,233C 163.831,231.331 161.831,230.498 159.5,230.5C 163.5,229.833 167.5,229.167 171.5,228.5 Z"/></g>
<g><path style="opacity:1" fill="#9c722e" d="M 159.5,230.5 C 161.831,230.498 163.831,231.331 165.5,233C 164.167,233.333 162.833,233.667 161.5,234C 163.701,235.043 166.034,235.877 168.5,236.5C 168.291,237.086 167.957,237.586 167.5,238C 169.392,238.973 171.392,239.64 173.5,240C 170.635,240.183 167.969,240.683 165.5,241.5C 156.535,240.3 147.535,239.133 138.5,238C 141.5,237.667 144.5,237.333 147.5,237C 148.973,236.29 149.64,235.124 149.5,233.5C 147.396,233.799 145.396,233.466 143.5,232.5C 146.277,232.469 148.944,231.969 151.5,231C 151.833,230.667 152.167,230.333 152.5,230C 151.5,229.667 150.5,229.333 149.5,229C 152.843,229.16 156.176,229.66 159.5,230.5 Z"/></g>
<g><path style="opacity:1" fill="#292016" d="M 201.5,235.5 C 199.711,237.007 197.711,238.34 195.5,239.5C 193.577,240.308 191.577,240.808 189.5,241C 190.793,241.49 192.127,241.657 193.5,241.5C 193.5,242.5 193.5,243.5 193.5,244.5C 184.5,243.167 175.5,243.167 166.5,244.5C 166.167,243.833 165.833,243.167 165.5,242.5C 169.702,242.817 173.702,242.483 177.5,241.5C 182.444,241.246 187.111,240.246 191.5,238.5C 194.833,237.5 198.167,236.5 201.5,235.5 Z"/></g>
<g><path style="opacity:1" fill="#9c7738" d="M 65.5,238.5 C 70.7427,245.315 75.7427,252.315 80.5,259.5C 77.7632,259.073 77.9299,259.74 81,261.5C 81.5503,265.668 80.717,266.168 78.5,263C 77.2068,262.51 75.8734,262.343 74.5,262.5C 69.0788,255.987 64.4122,248.987 60.5,241.5C 61.9791,240.241 63.6458,239.241 65.5,238.5 Z"/></g>
<g><path style="opacity:1" fill="#947949" d="M 271.5,212.5 C 257.875,242.8 237.875,268.133 211.5,288.5C 211.5,287.5 211.5,286.5 211.5,285.5C 236.738,265.921 256.071,241.588 269.5,212.5C 270.396,211.494 271.062,211.494 271.5,212.5 Z"/></g>
<g><path style="opacity:1" fill="#a7834b" d="M 278.5,227.5 C 270.969,243.909 260.969,258.575 248.5,271.5C 248.67,270.178 248.337,269.011 247.5,268C 248.793,267.51 250.127,267.343 251.5,267.5C 252.234,263.56 250.901,262.227 247.5,263.5C 254.507,253.495 261.507,243.495 268.5,233.5C 270.205,232.465 271.872,232.465 273.5,233.5C 274.427,231.887 275.261,230.221 276,228.5C 276.671,227.748 277.504,227.414 278.5,227.5 Z"/></g>
<g><path style="opacity:1" fill="#8b733f" d="M 78.5,242.5 C 85.0615,249.943 91.3949,257.609 97.5,265.5C 96.5084,265.328 95.8417,265.662 95.5,266.5C 88.7436,259.412 82.7436,251.745 77.5,243.5C 77.5,242.833 77.8333,242.5 78.5,242.5 Z"/></g>
<g><path style="opacity:1" fill="#a98138" d="M 248.5,271.5 C 247.178,271.67 246.011,271.337 245,270.5C 244.506,272.134 244.34,273.801 244.5,275.5C 243.5,275.5 242.5,275.5 241.5,275.5C 241.5,276.5 241.5,277.5 241.5,278.5C 240.127,278.343 238.793,278.51 237.5,279C 238.337,280.011 238.67,281.178 238.5,282.5C 237.85,282.196 237.183,281.863 236.5,281.5C 234.999,282.752 233.332,283.752 231.5,284.5C 233.167,286.167 232.833,287.167 230.5,287.5C 227.649,285.858 226.983,286.525 228.5,289.5C 227.675,290.386 226.675,290.719 225.5,290.5C 225.15,287.547 226.15,285.213 228.5,283.5C 234.861,276.807 241.194,270.14 247.5,263.5C 250.901,262.227 252.234,263.56 251.5,267.5C 250.127,267.343 248.793,267.51 247.5,268C 248.337,269.011 248.67,270.178 248.5,271.5 Z"/></g>
<g><path style="opacity:1" fill="#ad8a46" d="M 80.5,259.5 C 86.1759,265.177 91.5092,271.177 96.5,277.5C 94.5366,276.316 92.5366,275.483 90.5,275C 89.9781,275.561 89.6448,276.228 89.5,277C 90.7073,278.3 91.3739,279.8 91.5,281.5C 85.4913,275.49 79.8246,269.157 74.5,262.5C 75.8734,262.343 77.2068,262.51 78.5,263C 80.717,266.168 81.5503,265.668 81,261.5C 77.9299,259.74 77.7632,259.073 80.5,259.5 Z"/></g>
<g><path style="opacity:1" fill="#baa064" d="M 248.5,271.5 C 245.899,275.771 242.566,279.437 238.5,282.5C 238.67,281.178 238.337,280.011 237.5,279C 238.793,278.51 240.127,278.343 241.5,278.5C 241.5,277.5 241.5,276.5 241.5,275.5C 242.5,275.5 243.5,275.5 244.5,275.5C 244.34,273.801 244.506,272.134 245,270.5C 246.011,271.337 247.178,271.67 248.5,271.5 Z"/></g>
<g><path style="opacity:1" fill="#a38e4d" d="M 97.5,265.5 C 104.56,272.564 111.893,279.231 119.5,285.5C 118.508,285.328 117.842,285.662 117.5,286.5C 109.243,280.913 101.91,274.246 95.5,266.5C 95.8417,265.662 96.5084,265.328 97.5,265.5 Z"/></g>
<g><path style="opacity:1" fill="#b89845" d="M 96.5,277.5 C 101.126,280.458 105.126,284.124 108.5,288.5C 107.957,288.56 107.624,288.893 107.5,289.5C 108.325,290.386 109.325,290.719 110.5,290.5C 110.853,292.635 110.02,293.968 108,294.5C 106.269,293.259 104.436,292.259 102.5,291.5C 98.2294,288.899 94.5628,285.566 91.5,281.5C 91.3739,279.8 90.7073,278.3 89.5,277C 89.6448,276.228 89.9781,275.561 90.5,275C 92.5366,275.483 94.5366,276.316 96.5,277.5 Z"/></g>
<g><path style="opacity:1" fill="#b99a52" d="M 238.5,282.5 C 231.922,289.777 224.589,296.11 216.5,301.5C 215.07,301.579 213.736,301.246 212.5,300.5C 211.886,304.07 210.552,304.403 208.5,301.5C 209.857,299.814 211.19,298.148 212.5,296.5C 217.458,291.69 222.791,287.357 228.5,283.5C 226.15,285.213 225.15,287.547 225.5,290.5C 226.675,290.719 227.675,290.386 228.5,289.5C 226.983,286.525 227.649,285.858 230.5,287.5C 232.833,287.167 233.167,286.167 231.5,284.5C 233.332,283.752 234.999,282.752 236.5,281.5C 237.183,281.863 237.85,282.196 238.5,282.5 Z"/></g>
<g><path style="opacity:1" fill="#cbb052" d="M 108.5,288.5 C 120.979,297.984 133.979,306.651 147.5,314.5C 143.833,313.666 140.333,312.332 137,310.5C 134.725,310.278 133.559,311.278 133.5,313.5C 132.609,312.89 131.609,312.557 130.5,312.5C 120.03,307.032 110.697,300.032 102.5,291.5C 104.436,292.259 106.269,293.259 108,294.5C 110.02,293.968 110.853,292.635 110.5,290.5C 109.325,290.719 108.325,290.386 107.5,289.5C 107.624,288.893 107.957,288.56 108.5,288.5 Z"/></g>
<g><path style="opacity:1" fill="#bfaf5b" d="M 119.5,285.5 C 132.94,294.882 146.94,303.215 161.5,310.5C 159.302,310.409 158.969,311.075 160.5,312.5C 144.662,306.092 130.329,297.425 117.5,286.5C 117.842,285.662 118.508,285.328 119.5,285.5 Z"/></g>
<g><path style="opacity:1" fill="#ccb871" d="M 212.5,296.5 C 211.19,298.148 209.857,299.814 208.5,301.5C 210.552,304.403 211.886,304.07 212.5,300.5C 213.736,301.246 215.07,301.579 216.5,301.5C 211.411,306.245 205.745,310.245 199.5,313.5C 195.11,315.192 190.777,317.192 186.5,319.5C 185.107,318.137 183.441,317.304 181.5,317C 182.756,316.583 183.423,315.75 183.5,314.5C 193.294,308.767 202.96,302.767 212.5,296.5 Z"/></g>
<g><path style="opacity:1" fill="#c7c38b" d="M 211.5,285.5 C 211.5,286.5 211.5,287.5 211.5,288.5C 197.308,299.35 181.808,308.017 165,314.5C 163.124,314.475 161.624,313.809 160.5,312.5C 158.969,311.075 159.302,310.409 161.5,310.5C 163.653,311.573 165.653,311.573 167.5,310.5C 183.157,303.828 197.824,295.494 211.5,285.5 Z"/></g>
<g><path style="opacity:1" fill="#e2c94d" d="M 147.5,314.5 C 149.915,315.305 152.249,316.305 154.5,317.5C 156.319,319.472 157.319,321.805 157.5,324.5C 156.127,324.657 154.793,324.49 153.5,324C 150.412,321.133 146.746,319.299 142.5,318.5C 140.667,316.33 138.667,314.33 136.5,312.5C 135.583,313.127 134.583,313.461 133.5,313.5C 133.559,311.278 134.725,310.278 137,310.5C 140.333,312.332 143.833,313.666 147.5,314.5 Z"/></g>
<g><path style="opacity:1" fill="#e6d677" d="M 130.5,312.5 C 131.609,312.557 132.609,312.89 133.5,313.5C 134.583,313.461 135.583,313.127 136.5,312.5C 138.667,314.33 140.667,316.33 142.5,318.5C 146.746,319.299 150.412,321.133 153.5,324C 154.793,324.49 156.127,324.657 157.5,324.5C 157.319,321.805 156.319,319.472 154.5,317.5C 156.483,318.471 158.483,319.471 160.5,320.5C 161.15,322.435 161.483,324.435 161.5,326.5C 158.833,326.167 156.167,325.833 153.5,325.5C 145.059,322.359 137.392,318.026 130.5,312.5 Z"/></g>
<g><path style="opacity:1" fill="#e2dd99" d="M 199.5,313.5 C 190.492,319.339 181.159,324.672 171.5,329.5C 167.5,329.5 163.5,329.5 159.5,329.5C 157.5,328.167 155.5,326.833 153.5,325.5C 156.167,325.833 158.833,326.167 161.5,326.5C 161.483,324.435 161.15,322.435 160.5,320.5C 162.138,321.159 163.805,321.826 165.5,322.5C 171.522,319.821 177.522,317.155 183.5,314.5C 183.423,315.75 182.756,316.583 181.5,317C 183.441,317.304 185.107,318.137 186.5,319.5C 190.777,317.192 195.11,315.192 199.5,313.5 Z"/></g>
</svg>
