<?xml version="1.0" encoding="UTF-8"?>
<!DOCTYPE svg PUBLIC "-//W3C//DTD SVG 1.1//EN" "http://www.w3.org/Graphics/SVG/1.1/DTD/svg11.dtd">
<svg xmlns="http://www.w3.org/2000/svg" version="1.1" width="221px" height="221px" style="shape-rendering:geometricPrecision; text-rendering:geometricPrecision; image-rendering:optimizeQuality; fill-rule:evenodd; clip-rule:evenodd" xmlns:xlink="http://www.w3.org/1999/xlink">
<g><path style="opacity:1" fill="#222222" d="M 125.5,2.5 C 130.05,3.49146 134.717,4.49146 139.5,5.5C 142.368,6.64002 145.368,7.64002 148.5,8.5C 149.93,9.53747 151.597,10.2041 153.5,10.5C 154.66,12.2027 153.993,12.8693 151.5,12.5C 151.167,12.5 150.833,12.5 150.5,12.5C 149.365,10.7868 147.698,10.1201 145.5,10.5C 125.908,4.19434 105.908,2.86101 85.5,6.5C 83.1016,6.25939 81.1016,6.92606 79.5,8.5C 76.1226,8.95947 72.7893,9.62614 69.5,10.5C 69.0618,10.5654 68.7284,10.3988 68.5,10C 69.9423,9.62325 70.9423,8.78991 71.5,7.5C 74.1123,6.6295 76.779,5.96283 79.5,5.5C 81.8984,5.74061 83.8984,5.07394 85.5,3.5C 98.778,1.29227 112.111,0.958939 125.5,2.5 Z"/></g>
<g><path style="opacity:1" fill="#979797" d="M 125.5,2.5 C 130.596,2.04391 135.262,3.04391 139.5,5.5C 134.717,4.49146 130.05,3.49146 125.5,2.5 Z"/></g>
<g><path style="opacity:1" fill="#5a5a5a" d="M 85.5,3.5 C 83.8984,5.07394 81.8984,5.74061 79.5,5.5C 79.5,5.16667 79.5,4.83333 79.5,4.5C 81.4352,3.85048 83.4352,3.51715 85.5,3.5 Z"/></g>
<g><path style="opacity:1" fill="#eeeeee" d="M 145.5,10.5 C 146.93,11.5375 148.597,12.2041 150.5,12.5C 150.833,12.5 151.167,12.5 151.5,12.5C 153.181,14.0075 155.181,15.0075 157.5,15.5C 172.169,22.6566 184.669,32.6566 195,45.5C 197.358,48.2223 199.191,51.2223 200.5,54.5C 200.427,56.0269 201.094,57.0269 202.5,57.5C 202.427,59.0269 203.094,60.0269 204.5,60.5C 206.715,63.5961 208.381,66.9295 209.5,70.5C 210.363,72.4214 211.029,74.4214 211.5,76.5C 211.41,79.1522 212.076,81.4855 213.5,83.5C 216.725,99.3324 217.391,115.332 215.5,131.5C 209.609,153.087 198.609,171.92 182.5,188C 174.871,194.144 166.871,199.644 158.5,204.5C 156.313,205.758 153.98,206.758 151.5,207.5C 147.605,208.462 143.939,209.796 140.5,211.5C 139.432,212.434 138.099,212.768 136.5,212.5C 132.64,212.808 128.974,213.475 125.5,214.5C 110.43,216.208 95.4298,215.542 80.5,212.5C 78.8984,210.926 76.8984,210.259 74.5,210.5C 74.1667,210.5 73.8333,210.5 73.5,210.5C 71.8243,208.166 69.491,207.166 66.5,207.5C 62.8487,206.341 59.5154,204.674 56.5,202.5C 56.0269,201.094 55.0269,200.427 53.5,200.5C 52.5084,200.672 51.8417,200.338 51.5,199.5C 51.0269,198.094 50.0269,197.427 48.5,197.5C 44.846,195.669 41.5127,193.336 38.5,190.5C 24.2993,177.631 13.6327,162.298 6.5,144.5C 6.37133,142.784 6.038,141.117 5.5,139.5C 5.59047,136.848 4.92381,134.515 3.5,132.5C 2.70634,128.642 2.03968,124.642 1.5,120.5C 1.44839,111.482 1.78172,102.482 2.5,93.5C 3.01012,90.0172 3.67679,86.6838 4.5,83.5C 6.07394,81.8984 6.74061,79.8984 6.5,77.5C 6.5,77.1667 6.5,76.8333 6.5,76.5C 8.83372,74.8243 9.83372,72.491 9.5,69.5C 9.5,68.8333 9.5,68.1667 9.5,67.5C 11.1667,64.8333 12.8333,62.1667 14.5,59.5C 15.9063,59.0269 16.573,58.0269 16.5,56.5C 16.3284,55.5084 16.6618,54.8417 17.5,54.5C 18.9063,54.0269 19.573,53.0269 19.5,51.5C 20.9063,51.0269 21.573,50.0269 21.5,48.5C 29.2776,37.4491 38.9442,28.4491 50.5,21.5C 52.0269,21.573 53.0269,20.9063 53.5,19.5C 53.8417,18.6618 54.5084,18.3284 55.5,18.5C 57.0269,18.573 58.0269,17.9063 58.5,16.5C 59.4916,16.6716 60.1583,16.3382 60.5,15.5C 63.1667,14.5 65.8333,13.5 68.5,12.5C 72.3948,11.5376 76.0615,10.2043 79.5,8.5C 81.8984,8.74061 83.8984,8.07394 85.5,6.5C 105.908,2.86101 125.908,4.19434 145.5,10.5 Z"/></g>
<g><path style="opacity:1" fill="#c9c9c9" d="M 77.5,4.5 C 78.1667,4.5 78.8333,4.5 79.5,4.5C 79.5,4.83333 79.5,5.16667 79.5,5.5C 76.779,5.96283 74.1123,6.6295 71.5,7.5C 69.8828,8.038 68.2161,8.37133 66.5,8.5C 69.7966,6.39867 73.4632,5.06533 77.5,4.5 Z"/></g>
<g><path style="opacity:1" fill="#949494" d="M 85.5,6.5 C 83.8984,8.07394 81.8984,8.74061 79.5,8.5C 81.1016,6.92606 83.1016,6.25939 85.5,6.5 Z"/></g>
<g><path style="opacity:1" fill="#929292" d="M 148.5,8.5 C 150.698,8.12012 152.365,8.78679 153.5,10.5C 151.597,10.2041 149.93,9.53747 148.5,8.5 Z"/></g>
<g><path style="opacity:0.534" fill="#e0e0e0" d="M 95.5,-0.5 C 105.167,-0.5 114.833,-0.5 124.5,-0.5C 158.403,4.89302 184.903,21.893 204,50.5C 205.122,52.4068 205.955,54.4068 206.5,56.5C 201.914,50.067 197.08,43.7337 192,37.5C 185.603,31.5953 179.103,25.9286 172.5,20.5C 172.027,19.0937 171.027,18.427 169.5,18.5C 168.508,18.6716 167.842,18.3382 167.5,17.5C 167.027,16.0937 166.027,15.427 164.5,15.5C 162.5,14.8333 160.5,14.1667 158.5,13.5C 157.341,11.7497 155.674,10.7497 153.5,10.5C 152.365,8.78679 150.698,8.12012 148.5,8.5C 145.368,7.64002 142.368,6.64002 139.5,5.5C 135.262,3.04391 130.596,2.04391 125.5,2.5C 112.111,0.958939 98.778,1.29227 85.5,3.5C 83.4352,3.51715 81.4352,3.85048 79.5,4.5C 78.8333,4.5 78.1667,4.5 77.5,4.5C 83.3703,2.32673 89.3703,0.660067 95.5,-0.5 Z"/></g>
<g><path style="opacity:0.537" fill="#e5e5e5" d="M 66.5,8.5 C 63.8333,10.1667 61.1667,11.8333 58.5,13.5C 57.8333,13.5 57.1667,13.5 56.5,13.5C 59.2466,10.7933 62.5799,9.12663 66.5,8.5 Z"/></g>
<g><path style="opacity:1" fill="#323232" d="M 71.5,7.5 C 70.9423,8.78991 69.9423,9.62325 68.5,10C 68.7284,10.3988 69.0618,10.5654 69.5,10.5C 69.1667,11.1667 68.8333,11.8333 68.5,12.5C 65.8333,13.5 63.1667,14.5 60.5,15.5C 61.6602,13.7973 60.9935,13.1307 58.5,13.5C 61.1667,11.8333 63.8333,10.1667 66.5,8.5C 68.2161,8.37133 69.8828,8.038 71.5,7.5 Z"/></g>
<g><path style="opacity:1" fill="#a5a5a5" d="M 79.5,8.5 C 76.0615,10.2043 72.3948,11.5376 68.5,12.5C 68.8333,11.8333 69.1667,11.1667 69.5,10.5C 72.7893,9.62614 76.1226,8.95947 79.5,8.5 Z"/></g>
<g><path style="opacity:1" fill="#5d5d5d" d="M 145.5,10.5 C 147.698,10.1201 149.365,10.7868 150.5,12.5C 148.597,12.2041 146.93,11.5375 145.5,10.5 Z"/></g>
<g><path style="opacity:1" fill="#020201" d="M 121.5,11.5 C 124.123,13.2655 127.123,13.9321 130.5,13.5C 133.998,14.8134 137.664,15.8134 141.5,16.5C 142.93,17.5375 144.597,18.2041 146.5,18.5C 150.745,19.6239 154.745,21.2906 158.5,23.5C 158.973,24.9063 159.973,25.573 161.5,25.5C 166.757,28.7486 171.757,32.4153 176.5,36.5C 177.262,38.2624 178.596,39.2624 180.5,39.5C 186.294,45.6195 191.294,52.2862 195.5,59.5C 195.427,61.0269 196.094,62.0269 197.5,62.5C 197.427,64.0269 198.094,65.0269 199.5,65.5C 201.169,69.5044 202.836,73.5044 204.5,77.5C 204.259,79.8984 204.926,81.8984 206.5,83.5C 207.301,85.0418 207.634,86.7085 207.5,88.5C 207.517,90.5648 207.85,92.5648 208.5,94.5C 209.942,106.546 209.609,118.546 207.5,130.5C 206.751,134.582 205.751,138.582 204.5,142.5C 203.463,143.93 202.796,145.597 202.5,147.5C 200.229,151.709 198.229,156.042 196.5,160.5C 195.094,160.973 194.427,161.973 194.5,163.5C 192.147,165.86 190.147,168.527 188.5,171.5C 187.094,171.973 186.427,172.973 186.5,174.5C 180.064,181.278 173.064,187.278 165.5,192.5C 163.973,192.427 162.973,193.094 162.5,194.5C 161.508,194.328 160.842,194.662 160.5,195.5C 158.973,195.427 157.973,196.094 157.5,197.5C 154.904,198.055 152.571,199.055 150.5,200.5C 145.856,201.599 141.522,203.266 137.5,205.5C 136.833,205.5 136.167,205.5 135.5,205.5C 133.102,205.259 131.102,205.926 129.5,207.5C 102.451,212.386 77.4507,207.719 54.5,193.5C 54.0269,192.094 53.0269,191.427 51.5,191.5C 40.8061,184.139 31.8061,175.139 24.5,164.5C 24.573,162.973 23.9063,161.973 22.5,161.5C 22.573,159.973 21.9063,158.973 20.5,158.5C 19.1667,155.5 17.8333,152.5 16.5,149.5C 16.2041,147.597 15.5375,145.93 14.5,144.5C 14.2041,142.597 13.5375,140.93 12.5,139.5C 8.42654,123.747 7.42654,107.747 9.5,91.5C 11.0739,89.8984 11.7406,87.8984 11.5,85.5C 13.3651,75.9963 17.0318,67.3297 22.5,59.5C 23.9063,59.0269 24.573,58.0269 24.5,56.5C 27.7469,50.9174 31.7469,45.9174 36.5,41.5C 39.0892,40.5806 41.0892,38.914 42.5,36.5C 43.6253,34.8712 44.9586,33.3712 46.5,32C 49.2223,29.6422 52.2223,27.8089 55.5,26.5C 57.0269,26.573 58.0269,25.9063 58.5,24.5C 62.2627,21.952 66.2627,19.952 70.5,18.5C 73.1522,18.5905 75.4855,17.9238 77.5,16.5C 79.403,16.2041 81.0697,15.5375 82.5,14.5C 82.8333,14.5 83.1667,14.5 83.5,14.5C 86.1522,14.5905 88.4855,13.9238 90.5,12.5C 100.802,11.6 111.135,11.2667 121.5,11.5 Z"/></g>
<g><path style="opacity:1" fill="#676767" d="M 121.5,11.5 C 124.727,11.6761 127.727,12.3428 130.5,13.5C 127.123,13.9321 124.123,13.2655 121.5,11.5 Z"/></g>
<g><path style="opacity:1" fill="#3e3e3e" d="M 153.5,10.5 C 155.674,10.7497 157.341,11.7497 158.5,13.5C 156.302,13.4088 155.969,14.0755 157.5,15.5C 155.181,15.0075 153.181,14.0075 151.5,12.5C 153.993,12.8693 154.66,12.2027 153.5,10.5 Z"/></g>
<g><path style="opacity:1" fill="#6b6b6b" d="M 90.5,12.5 C 88.4855,13.9238 86.1522,14.5905 83.5,14.5C 85.5145,13.0762 87.8478,12.4095 90.5,12.5 Z"/></g>
<g><path style="opacity:0.725" fill="#b8b8b8" d="M 56.5,13.5 C 50.8566,17.4676 45.19,21.4676 39.5,25.5C 39.1667,25.5 38.8333,25.5 38.5,25.5C 43.6786,20.3308 49.6786,16.3308 56.5,13.5 Z"/></g>
<g><path style="opacity:1" fill="#6f6f6f" d="M 82.5,14.5 C 81.0697,15.5375 79.403,16.2041 77.5,16.5C 78.6354,14.7868 80.302,14.1201 82.5,14.5 Z"/></g>
<g><path style="opacity:1" fill="#8e8e8e" d="M 141.5,16.5 C 143.698,16.1201 145.365,16.7868 146.5,18.5C 144.597,18.2041 142.93,17.5375 141.5,16.5 Z"/></g>
<g><path style="opacity:1" fill="#9c9c9c" d="M 164.5,15.5 C 166.027,15.427 167.027,16.0937 167.5,17.5C 165.973,17.573 164.973,16.9063 164.5,15.5 Z"/></g>
<g><path style="opacity:1" fill="#a3a3a3" d="M 58.5,16.5 C 58.0269,17.9063 57.0269,18.573 55.5,18.5C 55.9731,17.0937 56.9731,16.427 58.5,16.5 Z"/></g>
<g><path style="opacity:1" fill="#535353" d="M 77.5,16.5 C 75.4855,17.9238 73.1522,18.5905 70.5,18.5C 72.5145,17.0762 74.8478,16.4095 77.5,16.5 Z"/></g>
<g><path style="opacity:1" fill="#9f9f9f" d="M 169.5,18.5 C 171.027,18.427 172.027,19.0937 172.5,20.5C 170.973,20.573 169.973,19.9063 169.5,18.5 Z"/></g>
<g><path style="opacity:1" fill="#a5a5a5" d="M 53.5,19.5 C 53.0269,20.9063 52.0269,21.573 50.5,21.5C 50.9731,20.0937 51.9731,19.427 53.5,19.5 Z"/></g>
<g><path style="opacity:1" fill="#8f8f8f" d="M 158.5,23.5 C 160.027,23.427 161.027,24.0937 161.5,25.5C 159.973,25.573 158.973,24.9063 158.5,23.5 Z"/></g>
<g><path style="opacity:1" fill="#565656" d="M 58.5,24.5 C 58.0269,25.9063 57.0269,26.573 55.5,26.5C 55.9731,25.0937 56.9731,24.427 58.5,24.5 Z"/></g>
<g><path style="opacity:1" fill="#616161" d="M 38.5,25.5 C 38.8333,25.5 39.1667,25.5 39.5,25.5C 38.4154,27.5869 36.7488,28.9202 34.5,29.5C 35.5,27.8333 36.8333,26.5 38.5,25.5 Z"/></g>
<g><path style="opacity:1" fill="#1e1e1e" d="M 56.5,13.5 C 57.1667,13.5 57.8333,13.5 58.5,13.5C 60.9935,13.1307 61.6602,13.7973 60.5,15.5C 60.1583,16.3382 59.4916,16.6716 58.5,16.5C 56.9731,16.427 55.9731,17.0937 55.5,18.5C 54.5084,18.3284 53.8417,18.6618 53.5,19.5C 51.9731,19.427 50.9731,20.0937 50.5,21.5C 38.9442,28.4491 29.2776,37.4491 21.5,48.5C 20.0937,48.9731 19.427,49.9731 19.5,51.5C 18.0937,51.9731 17.427,52.9731 17.5,54.5C 16.6618,54.8417 16.3284,55.5084 16.5,56.5C 15.0937,56.9731 14.427,57.9731 14.5,59.5C 12.8333,62.1667 11.1667,64.8333 9.5,67.5C 8.83333,67.5 8.16667,67.5 7.5,67.5C 13.3962,52.6076 22.3962,39.941 34.5,29.5C 36.7488,28.9202 38.4154,27.5869 39.5,25.5C 45.19,21.4676 50.8566,17.4676 56.5,13.5 Z"/></g>
<g><path style="opacity:1" fill="#1f1f1f" d="M 158.5,13.5 C 160.5,14.1667 162.5,14.8333 164.5,15.5C 164.973,16.9063 165.973,17.573 167.5,17.5C 167.842,18.3382 168.508,18.6716 169.5,18.5C 169.973,19.9063 170.973,20.573 172.5,20.5C 179.103,25.9286 185.603,31.5953 192,37.5C 197.08,43.7337 201.914,50.067 206.5,56.5C 207.659,60.1513 209.326,63.4846 211.5,66.5C 211.5,67.1667 211.5,67.8333 211.5,68.5C 209.797,67.3398 209.131,68.0065 209.5,70.5C 208.381,66.9295 206.715,63.5961 204.5,60.5C 204.573,58.9731 203.906,57.9731 202.5,57.5C 202.573,55.9731 201.906,54.9731 200.5,54.5C 199.191,51.2223 197.358,48.2223 195,45.5C 184.669,32.6566 172.169,22.6566 157.5,15.5C 155.969,14.0755 156.302,13.4088 158.5,13.5 Z"/></g>
<g><path style="opacity:1" fill="#9a9a9a" d="M 176.5,36.5 C 178.404,36.7376 179.738,37.7376 180.5,39.5C 178.596,39.2624 177.262,38.2624 176.5,36.5 Z"/></g>
<g><path style="opacity:1" fill="#313131" d="M 42.5,36.5 C 41.0892,38.914 39.0892,40.5806 36.5,41.5C 37.9108,39.086 39.9108,37.4194 42.5,36.5 Z"/></g>
<g><path style="opacity:1" fill="#0e2531" d="M 133.5,45.5 C 111.66,45.1693 89.9936,45.5027 68.5,46.5C 67.8333,46.5 67.5,46.8333 67.5,47.5C 67.1667,47.5 66.8333,47.5 66.5,47.5C 66.4142,46.5041 66.7476,45.6708 67.5,45C 89.6705,44.1705 111.671,44.3371 133.5,45.5 Z"/></g>
<g><path style="opacity:1" fill="#205670" d="M 68.5,46.5 C 89.9936,45.5027 111.66,45.1693 133.5,45.5C 136.495,45.2938 139.162,45.9605 141.5,47.5C 128.53,46.5771 115.53,46.2438 102.5,46.5C 91.1667,46.5 79.8333,46.5 68.5,46.5 Z"/></g>
<g><path style="opacity:1" fill="#338db3" d="M 102.5,46.5 C 115.53,46.2438 128.53,46.5771 141.5,47.5C 142.167,47.5 142.833,47.5 143.5,47.5C 145.121,49.942 147.454,51.2753 150.5,51.5C 151.833,52.8333 153.167,54.1667 154.5,55.5C 154.833,56.8333 155.167,58.1667 155.5,59.5C 154.5,58.8333 153.5,58.1667 152.5,57.5C 151.167,56.5 149.833,55.5 148.5,54.5C 147.29,54.0679 146.29,53.4013 145.5,52.5C 144.713,50.8958 143.38,50.2291 141.5,50.5C 138.572,49.1803 135.239,48.5136 131.5,48.5C 127.081,48.4363 122.748,48.9363 118.5,50C 117.084,52.8349 115.417,55.5015 113.5,58C 114.381,58.7083 115.047,59.5416 115.5,60.5C 99.1794,59.797 82.846,59.297 66.5,59C 66.1667,58.6667 65.8333,58.3333 65.5,58C 67.5328,55.1041 68.8662,51.9374 69.5,48.5C 80.6819,48.3162 91.6819,47.6496 102.5,46.5 Z"/></g>
<g><path style="opacity:1" fill="#a6a6a6" d="M 21.5,48.5 C 21.573,50.0269 20.9063,51.0269 19.5,51.5C 19.427,49.9731 20.0937,48.9731 21.5,48.5 Z"/></g>
<g><path style="opacity:1" fill="#133340" d="M 143.5,47.5 C 146.546,47.7247 148.879,49.058 150.5,51.5C 147.454,51.2753 145.121,49.942 143.5,47.5 Z"/></g>
<g><path style="opacity:1" fill="#409abe" d="M 141.5,50.5 C 135.894,49.5931 130.227,49.2598 124.5,49.5C 123.992,52.8515 122.658,55.8515 120.5,58.5C 125.132,59.3283 129.798,59.8283 134.5,60C 136.32,60.2004 137.653,61.0337 138.5,62.5C 137.167,62.5 135.833,62.5 134.5,62.5C 134.167,62.5 133.833,62.5 133.5,62.5C 131.735,61.5386 129.735,61.2053 127.5,61.5C 123.702,60.5166 119.702,60.1832 115.5,60.5C 115.047,59.5416 114.381,58.7083 113.5,58C 115.417,55.5015 117.084,52.8349 118.5,50C 122.748,48.9363 127.081,48.4363 131.5,48.5C 135.239,48.5136 138.572,49.1803 141.5,50.5 Z"/></g>
<g><path style="opacity:1" fill="#a1a1a1" d="M 19.5,51.5 C 19.573,53.0269 18.9063,54.0269 17.5,54.5C 17.427,52.9731 18.0937,51.9731 19.5,51.5 Z"/></g>
<g><path style="opacity:1" fill="#75cae4" d="M 145.5,52.5 C 146.29,53.4013 147.29,54.0679 148.5,54.5C 149.246,61.0921 146.579,63.7588 140.5,62.5C 139.599,60.2729 137.933,59.2729 135.5,59.5C 134.955,52.0467 138.289,49.7134 145.5,52.5 Z"/></g>
<g><path style="opacity:1" fill="#54adcd" d="M 141.5,50.5 C 143.38,50.2291 144.713,50.8958 145.5,52.5C 138.289,49.7134 134.955,52.0467 135.5,59.5C 137.933,59.2729 139.599,60.2729 140.5,62.5C 139.833,62.5 139.167,62.5 138.5,62.5C 137.653,61.0337 136.32,60.2004 134.5,60C 129.798,59.8283 125.132,59.3283 120.5,58.5C 122.658,55.8515 123.992,52.8515 124.5,49.5C 130.227,49.2598 135.894,49.5931 141.5,50.5 Z"/></g>
<g><path style="opacity:1" fill="#a5a5a5" d="M 200.5,54.5 C 201.906,54.9731 202.573,55.9731 202.5,57.5C 201.094,57.0269 200.427,56.0269 200.5,54.5 Z"/></g>
<g><path style="opacity:1" fill="#a8a8a8" d="M 16.5,56.5 C 16.573,58.0269 15.9063,59.0269 14.5,59.5C 14.427,57.9731 15.0937,56.9731 16.5,56.5 Z"/></g>
<g><path style="opacity:1" fill="#555555" d="M 24.5,56.5 C 24.573,58.0269 23.9063,59.0269 22.5,59.5C 22.427,57.9731 23.0937,56.9731 24.5,56.5 Z"/></g>
<g><path style="opacity:1" fill="#65bcd9" d="M 148.5,54.5 C 149.833,55.5 151.167,56.5 152.5,57.5C 154.435,59.9691 155.768,62.8024 156.5,66C 155.389,69.0551 153.889,71.8884 152,74.5C 151.292,73.6195 150.458,72.9528 149.5,72.5C 147.205,68.5384 144.205,65.2051 140.5,62.5C 146.579,63.7588 149.246,61.0921 148.5,54.5 Z"/></g>
<g><path style="opacity:1" fill="#3181ad" d="M 68.5,46.5 C 79.8333,46.5 91.1667,46.5 102.5,46.5C 91.6819,47.6496 80.6819,48.3162 69.5,48.5C 68.8662,51.9374 67.5328,55.1041 65.5,58C 65.8333,58.3333 66.1667,58.6667 66.5,59C 82.846,59.297 99.1794,59.797 115.5,60.5C 119.702,60.1832 123.702,60.5166 127.5,61.5C 105.141,62.1559 83.1413,61.4892 61.5,59.5C 64.0078,55.8178 66.0078,51.8178 67.5,47.5C 67.5,46.8333 67.8333,46.5 68.5,46.5 Z"/></g>
<g><path style="opacity:1" fill="#909090" d="M 202.5,57.5 C 203.906,57.9731 204.573,58.9731 204.5,60.5C 203.094,60.0269 202.427,59.0269 202.5,57.5 Z"/></g>
<g><path style="opacity:1" fill="#2a6e93" d="M 61.5,59.5 C 83.1413,61.4892 105.141,62.1559 127.5,61.5C 129.735,61.2053 131.735,61.5386 133.5,62.5C 109.167,62.5 84.8333,62.5 60.5,62.5C 60.2627,61.209 60.596,60.209 61.5,59.5 Z"/></g>
<g><path style="opacity:1" fill="#4b4b4b" d="M 195.5,59.5 C 196.906,59.9731 197.573,60.9731 197.5,62.5C 196.094,62.0269 195.427,61.0269 195.5,59.5 Z"/></g>
<g><path style="opacity:1" fill="#1a415a" d="M 66.5,47.5 C 66.8333,47.5 67.1667,47.5 67.5,47.5C 66.0078,51.8178 64.0078,55.8178 61.5,59.5C 60.596,60.209 60.2627,61.209 60.5,62.5C 84.8333,62.5 109.167,62.5 133.5,62.5C 133.833,62.5 134.167,62.5 134.5,62.5C 134.5,62.8333 134.5,63.1667 134.5,63.5C 109.5,63.5 84.5,63.5 59.5,63.5C 59.5,62.5 59.5,61.5 59.5,60.5C 61.5826,55.9996 63.9159,51.6662 66.5,47.5 Z"/></g>
<g><path style="opacity:0.506" fill="#e2e2e2" d="M 206.5,56.5 C 209.207,59.2466 210.873,62.5799 211.5,66.5C 209.326,63.4846 207.659,60.1513 206.5,56.5 Z"/></g>
<g><path style="opacity:1" fill="#08141b" d="M 59.5,60.5 C 59.5,61.5 59.5,62.5 59.5,63.5C 84.5,63.5 109.5,63.5 134.5,63.5C 135.492,63.3284 136.158,63.6618 136.5,64.5C 110.5,64.5 84.5,64.5 58.5,64.5C 58.2322,62.901 58.5655,61.5676 59.5,60.5 Z"/></g>
<g><path style="opacity:1" fill="#757575" d="M 197.5,62.5 C 198.906,62.9731 199.573,63.9731 199.5,65.5C 198.094,65.0269 197.427,64.0269 197.5,62.5 Z"/></g>
<g><path style="opacity:1" fill="#1d5166" d="M 138.5,64.5 C 141.5,65.5 143.5,67.5 144.5,70.5C 142.167,68.8333 140.167,66.8333 138.5,64.5 Z"/></g>
<g><path style="opacity:1" fill="#72640b" d="M 110.5,71.5 C 106.049,70.1729 101.216,69.5063 96,69.5C 90.9881,69.5007 86.1547,69.8341 81.5,70.5C 81.1667,70.5 80.8333,70.5 80.5,70.5C 90.7809,68.5238 101.448,67.8572 112.5,68.5C 112.715,70.1788 112.048,71.1788 110.5,71.5 Z"/></g>
<g><path style="opacity:1" fill="#53abcb" d="M 152.5,57.5 C 153.5,58.1667 154.5,58.8333 155.5,59.5C 156.512,60.8717 157.512,62.205 158.5,63.5C 161.292,71.8093 161.125,80.1426 158,88.5C 154.407,93.3615 151.073,98.3615 148,103.5C 146.008,104.328 144.508,105.661 143.5,107.5C 139.803,108.008 136.136,108.674 132.5,109.5C 134.725,106.738 136.725,103.738 138.5,100.5C 134.893,99.5108 131.226,99.1774 127.5,99.5C 137.79,99.2738 145.29,94.6072 150,85.5C 150.706,81.1132 150.54,76.7799 149.5,72.5C 150.458,72.9528 151.292,73.6195 152,74.5C 153.889,71.8884 155.389,69.0551 156.5,66C 155.768,62.8024 154.435,59.9691 152.5,57.5 Z"/></g>
<g><path style="opacity:1" fill="#c7b013" d="M 81.5,70.5 C 86.1547,69.8341 90.9881,69.5007 96,69.5C 101.216,69.5063 106.049,70.1729 110.5,71.5C 110.5,71.8333 110.5,72.1667 110.5,72.5C 110.167,72.5 109.833,72.5 109.5,72.5C 104.944,70.5583 99.9443,69.8917 94.5,70.5C 90.1667,70.5 85.8333,70.5 81.5,70.5 Z"/></g>
<g><path style="opacity:1" fill="#ecc619" d="M 81.5,70.5 C 85.8333,70.5 90.1667,70.5 94.5,70.5C 93.6257,74.5782 91.959,78.2449 89.5,81.5C 89.6567,80.1266 89.49,78.7932 89,77.5C 86.9656,75.9684 84.7989,74.6351 82.5,73.5C 81.6143,72.675 81.281,71.675 81.5,70.5 Z"/></g>
<g><path style="opacity:1" fill="#e8d016" d="M 94.5,70.5 C 99.9443,69.8917 104.944,70.5583 109.5,72.5C 108.662,72.8417 108.328,73.5084 108.5,74.5C 105.757,76.2393 103.757,78.5726 102.5,81.5C 99.7573,83.2393 97.7573,85.5726 96.5,88.5C 94.5,89.8333 92.8333,91.5 91.5,93.5C 90.596,94.209 90.2627,95.209 90.5,96.5C 98.3228,97.3292 106.323,97.8292 114.5,98C 113.829,98.9862 113.829,100.153 114.5,101.5C 111.167,105.167 107.833,108.833 104.5,112.5C 101.619,111.726 98.9524,110.393 96.5,108.5C 97.3094,106.929 97.6427,105.262 97.5,103.5C 90.4163,104.126 83.7496,103.459 77.5,101.5C 77.3284,100.508 77.6618,99.8417 78.5,99.5C 80.4978,96.1721 82.4978,92.8387 84.5,89.5C 86.4543,86.9741 88.121,84.3075 89.5,81.5C 91.959,78.2449 93.6257,74.5782 94.5,70.5 Z"/></g>
<g><path style="opacity:1" fill="#b0b0b0" d="M 211.5,66.5 C 214.473,72.0852 216.473,78.0852 217.5,84.5C 216.833,83.5 216.167,82.5 215.5,81.5C 214.567,77.0355 213.234,72.7021 211.5,68.5C 211.5,67.8333 211.5,67.1667 211.5,66.5 Z"/></g>
<g><path style="opacity:1" fill="#a2a2a2" d="M 9.5,69.5 C 9.83372,72.491 8.83372,74.8243 6.5,76.5C 6.93482,73.8427 7.93482,71.5093 9.5,69.5 Z"/></g>
<g><path style="opacity:1" fill="#55450a" d="M 80.5,70.5 C 80.573,72.0269 79.9063,73.0269 78.5,73.5C 78.427,71.9731 79.0937,70.9731 80.5,70.5 Z"/></g>
<g><path style="opacity:1" fill="#e9ba1a" d="M 80.5,70.5 C 80.8333,70.5 81.1667,70.5 81.5,70.5C 81.281,71.675 81.6143,72.675 82.5,73.5C 84.7989,74.6351 86.9656,75.9684 89,77.5C 89.49,78.7932 89.6567,80.1266 89.5,81.5C 88.121,84.3075 86.4543,86.9741 84.5,89.5C 84.7224,85.2521 82.7224,82.5854 78.5,81.5C 77.5713,80.3112 77.238,78.9778 77.5,77.5C 77.8333,76.1667 78.1667,74.8333 78.5,73.5C 79.9063,73.0269 80.573,72.0269 80.5,70.5 Z"/></g>
<g><path style="opacity:1" fill="#5a5109" d="M 109.5,72.5 C 109.833,72.5 110.167,72.5 110.5,72.5C 110.167,73.5 109.5,74.1667 108.5,74.5C 108.328,73.5084 108.662,72.8417 109.5,72.5 Z"/></g>
<g><path style="opacity:1" fill="#4f470a" d="M 108.5,74.5 C 107.243,77.4274 105.243,79.7607 102.5,81.5C 103.757,78.5726 105.757,76.2393 108.5,74.5 Z"/></g>
<g><path style="opacity:1" fill="#10252e" d="M 144.5,70.5 C 146.894,72.3318 147.894,74.8318 147.5,78C 147.592,80.8211 146.926,83.3211 145.5,85.5C 145.726,80.4376 145.392,75.4376 144.5,70.5 Z"/></g>
<g><path style="opacity:1" fill="#929292" d="M 211.5,76.5 C 212.924,78.5145 213.59,80.8478 213.5,83.5C 212.076,81.4855 211.41,79.1522 211.5,76.5 Z"/></g>
<g><path style="opacity:1" fill="#ecaf1d" d="M 76.5,77.5 C 76.8333,77.5 77.1667,77.5 77.5,77.5C 77.238,78.9778 77.5713,80.3112 78.5,81.5C 82.7224,82.5854 84.7224,85.2521 84.5,89.5C 82.4978,92.8387 80.4978,96.1721 78.5,99.5C 78.9361,97.2537 79.6028,95.0871 80.5,93C 77.2946,92.0884 74.9612,90.255 73.5,87.5C 75.0795,84.3408 76.0795,81.0075 76.5,77.5 Z"/></g>
<g><path style="opacity:1" fill="#838383" d="M 6.5,77.5 C 6.74061,79.8984 6.07394,81.8984 4.5,83.5C 4.25939,81.1016 4.92606,79.1016 6.5,77.5 Z"/></g>
<g><path style="opacity:1" fill="#646464" d="M 204.5,77.5 C 206.074,79.1016 206.741,81.1016 206.5,83.5C 204.926,81.8984 204.259,79.8984 204.5,77.5 Z"/></g>
<g><path style="opacity:1" fill="#564d0a" d="M 102.5,81.5 C 101.243,84.4274 99.2427,86.7607 96.5,88.5C 97.7573,85.5726 99.7573,83.2393 102.5,81.5 Z"/></g>
<g><path style="opacity:1" fill="#153b4b" d="M 164.5,71.5 C 165.652,76.9846 165.818,82.6513 165,88.5C 164.434,90.7226 163.6,92.7226 162.5,94.5C 164.202,86.9537 164.868,79.287 164.5,71.5 Z"/></g>
<g><path style="opacity:1" fill="#363636" d="M 215.5,81.5 C 216.167,82.5 216.833,83.5 217.5,84.5C 217.5,85.8333 217.5,87.1667 217.5,88.5C 216.076,86.4855 215.41,84.1522 215.5,81.5 Z"/></g>
<g><path style="opacity:1" fill="#202020" d="M 211.5,68.5 C 213.234,72.7021 214.567,77.0355 215.5,81.5C 215.41,84.1522 216.076,86.4855 217.5,88.5C 217.676,91.7273 218.343,94.7273 219.5,97.5C 219.897,109.247 219.23,120.914 217.5,132.5C 216.833,133.833 216.167,135.167 215.5,136.5C 215.5,134.833 215.5,133.167 215.5,131.5C 217.391,115.332 216.725,99.3324 213.5,83.5C 213.59,80.8478 212.924,78.5145 211.5,76.5C 211.029,74.4214 210.363,72.4214 209.5,70.5C 209.131,68.0065 209.797,67.3398 211.5,68.5 Z"/></g>
<g><path style="opacity:0.749" fill="#111111" d="M 7.5,67.5 C 8.16667,67.5 8.83333,67.5 9.5,67.5C 9.5,68.1667 9.5,68.8333 9.5,69.5C 7.93482,71.5093 6.93482,73.8427 6.5,76.5C 6.5,76.8333 6.5,77.1667 6.5,77.5C 4.92606,79.1016 4.25939,81.1016 4.5,83.5C 3.67679,86.6838 3.01012,90.0172 2.5,93.5C 0.984839,98.5805 0.318172,103.914 0.5,109.5C 0.501313,113.349 0.834646,117.016 1.5,120.5C 2.03968,124.642 2.70634,128.642 3.5,132.5C 3.40953,135.152 4.07619,137.485 5.5,139.5C 6.038,141.117 6.37133,142.784 6.5,144.5C 5.83333,144.5 5.5,144.833 5.5,145.5C 2.74145,138.701 0.741452,131.701 -0.5,124.5C -0.5,114.833 -0.5,105.167 -0.5,95.5C 1.21223,85.998 3.8789,76.6646 7.5,67.5 Z"/></g>
<g><path style="opacity:1" fill="#707070" d="M 11.5,85.5 C 11.7406,87.8984 11.0739,89.8984 9.5,91.5C 9.25939,89.1016 9.92606,87.1016 11.5,85.5 Z"/></g>
<g><path style="opacity:1" fill="#439dc0" d="M 158.5,63.5 C 159.966,64.347 160.8,65.6803 161,67.5C 163.65,79.1168 162.15,90.1168 156.5,100.5C 152.369,103.068 148.035,105.401 143.5,107.5C 144.508,105.661 146.008,104.328 148,103.5C 151.073,98.3615 154.407,93.3615 158,88.5C 161.125,80.1426 161.292,71.8093 158.5,63.5 Z"/></g>
<g><path style="opacity:1" fill="#484108" d="M 96.5,88.5 C 95.7974,90.7157 94.4641,92.549 92.5,94C 101.676,94.1703 110.676,94.6703 119.5,95.5C 109.773,96.1389 100.44,95.4722 91.5,93.5C 92.8333,91.5 94.5,89.8333 96.5,88.5 Z"/></g>
<g><path style="opacity:1" fill="#205973" d="M 145.5,87.5 C 144.833,90.1667 143.167,91.8333 140.5,92.5C 141.833,90.5 143.5,88.8333 145.5,87.5 Z"/></g>
<g><path style="opacity:1" fill="#2d7e9f" d="M 154.5,55.5 C 160.339,59.1617 163.673,64.4951 164.5,71.5C 164.868,79.287 164.202,86.9537 162.5,94.5C 161.122,95.5451 160.122,96.8784 159.5,98.5C 158.5,99.1667 157.5,99.8333 156.5,100.5C 162.15,90.1168 163.65,79.1168 161,67.5C 160.8,65.6803 159.966,64.347 158.5,63.5C 157.512,62.205 156.512,60.8717 155.5,59.5C 155.167,58.1667 154.833,56.8333 154.5,55.5 Z"/></g>
<g><path style="opacity:0.682" fill="#a0a0a0" d="M 217.5,84.5 C 218.903,87.9085 219.57,91.5752 219.5,95.5C 219.5,96.1667 219.5,96.8333 219.5,97.5C 218.343,94.7273 217.676,91.7273 217.5,88.5C 217.5,87.1667 217.5,85.8333 217.5,84.5 Z"/></g>
<g><path style="opacity:1" fill="#8b8b8b" d="M 207.5,88.5 C 209.074,90.1016 209.741,92.1016 209.5,94.5C 209.167,94.5 208.833,94.5 208.5,94.5C 207.85,92.5648 207.517,90.5648 207.5,88.5 Z"/></g>
<g><path style="opacity:1" fill="#9f6c15" d="M 76.5,77.5 C 76.0795,81.0075 75.0795,84.3408 73.5,87.5C 70.6589,91.8489 68.3255,96.5156 66.5,101.5C 66.1667,101.5 65.8333,101.5 65.5,101.5C 65.5,100.833 65.5,100.167 65.5,99.5C 68.6588,91.849 72.3255,84.5157 76.5,77.5 Z"/></g>
<g><path style="opacity:1" fill="#887a0c" d="M 91.5,93.5 C 100.44,95.4722 109.773,96.1389 119.5,95.5C 119.737,96.791 119.404,97.791 118.5,98.5C 109.56,96.5278 100.227,95.8611 90.5,96.5C 90.2627,95.209 90.596,94.209 91.5,93.5 Z"/></g>
<g><path style="opacity:1" fill="#f09b21" d="M 73.5,87.5 C 74.9612,90.255 77.2946,92.0884 80.5,93C 79.6028,95.0871 78.9361,97.2537 78.5,99.5C 77.6618,99.8417 77.3284,100.508 77.5,101.5C 76.596,102.209 76.2627,103.209 76.5,104.5C 83.1998,104.17 89.8665,104.503 96.5,105.5C 93.9062,109.026 91.5729,112.692 89.5,116.5C 87.6519,118.733 85.9852,121.066 84.5,123.5C 86.0842,120.864 85.7508,118.53 83.5,116.5C 84.4279,115.232 84.5946,113.899 84,112.5C 78.5317,108.186 72.6983,104.52 66.5,101.5C 68.3255,96.5156 70.6589,91.8489 73.5,87.5 Z"/></g>
<g><path style="opacity:1" fill="#cfbb13" d="M 90.5,96.5 C 100.227,95.8611 109.56,96.5278 118.5,98.5C 117.5,98.8333 116.833,99.5 116.5,100.5C 115.833,100.833 115.167,101.167 114.5,101.5C 113.829,100.153 113.829,98.9862 114.5,98C 106.323,97.8292 98.3228,97.3292 90.5,96.5 Z"/></g>
<g><path style="opacity:1" fill="#66bdd9" d="M 127.5,99.5 C 131.226,99.1774 134.893,99.5108 138.5,100.5C 136.725,103.738 134.725,106.738 132.5,109.5C 127.821,109.666 123.155,109.499 118.5,109C 121.614,105.938 124.614,102.772 127.5,99.5 Z"/></g>
<g><path style="opacity:1" fill="#5a380e" d="M 65.5,99.5 C 65.5,100.167 65.5,100.833 65.5,101.5C 64.8333,101.833 64.1667,102.167 63.5,102.5C 63.427,100.973 64.0937,99.9731 65.5,99.5 Z"/></g>
<g><path style="opacity:1" fill="#133645" d="M 159.5,98.5 C 158.92,100.749 157.587,102.415 155.5,103.5C 155.557,102.391 155.89,101.391 156.5,100.5C 157.5,99.8333 158.5,99.1667 159.5,98.5 Z"/></g>
<g><path style="opacity:1" fill="#eb8b22" d="M 65.5,101.5 C 65.8333,101.5 66.1667,101.5 66.5,101.5C 72.6983,104.52 78.5317,108.186 84,112.5C 84.5946,113.899 84.4279,115.232 83.5,116.5C 85.7508,118.53 86.0842,120.864 84.5,123.5C 82.8833,127.244 84.2166,129.244 88.5,129.5C 86.0908,131.902 84.0908,134.569 82.5,137.5C 81.5,137.833 80.8333,138.5 80.5,139.5C 79.8333,139.833 79.1667,140.167 78.5,140.5C 77.8921,139.2 77.2255,137.867 76.5,136.5C 77.7709,132.792 79.4376,129.292 81.5,126C 80.5862,124.594 79.9195,123.094 79.5,121.5C 80.5375,120.07 81.2041,118.403 81.5,116.5C 82.404,115.791 82.7373,114.791 82.5,113.5C 75.3225,112.833 67.9891,112.167 60.5,111.5C 61.7878,109.261 62.7878,106.928 63.5,104.5C 63.5,103.833 63.5,103.167 63.5,102.5C 64.1667,102.167 64.8333,101.833 65.5,101.5 Z"/></g>
<g><path style="opacity:1" fill="#606060" d="M 2.5,93.5 C 1.78172,102.482 1.44839,111.482 1.5,120.5C 0.834646,117.016 0.501313,113.349 0.5,109.5C 0.318172,103.914 0.984839,98.5805 2.5,93.5 Z"/></g>
<g><path style="opacity:1" fill="#49420a" d="M 116.5,100.5 C 113.23,105.44 109.23,109.773 104.5,113.5C 104.5,113.167 104.5,112.833 104.5,112.5C 107.833,108.833 111.167,105.167 114.5,101.5C 115.167,101.167 115.833,100.833 116.5,100.5 Z"/></g>
<g><path style="opacity:1" fill="#143747" d="M 155.5,103.5 C 154.008,106.323 151.674,107.99 148.5,108.5C 150.55,106.453 152.883,104.786 155.5,103.5 Z"/></g>
<g><path style="opacity:1" fill="#3586ad" d="M 134.5,63.5 C 134.5,63.1667 134.5,62.8333 134.5,62.5C 135.833,62.5 137.167,62.5 138.5,62.5C 139.167,62.5 139.833,62.5 140.5,62.5C 144.205,65.2051 147.205,68.5384 149.5,72.5C 150.54,76.7799 150.706,81.1132 150,85.5C 145.29,94.6072 137.79,99.2738 127.5,99.5C 124.614,102.772 121.614,105.938 118.5,109C 123.155,109.499 127.821,109.666 132.5,109.5C 136.136,108.674 139.803,108.008 143.5,107.5C 148.035,105.401 152.369,103.068 156.5,100.5C 155.89,101.391 155.557,102.391 155.5,103.5C 152.883,104.786 150.55,106.453 148.5,108.5C 143.725,110.724 138.725,112.057 133.5,112.5C 126.159,112.666 118.826,112.5 111.5,112C 116.542,107.158 121.542,102.324 126.5,97.5C 129.447,96.6786 132.447,96.1786 135.5,96C 137.431,95.0978 139.097,93.9312 140.5,92.5C 143.167,91.8333 144.833,90.1667 145.5,87.5C 145.5,86.8333 145.5,86.1667 145.5,85.5C 146.926,83.3211 147.592,80.8211 147.5,78C 147.894,74.8318 146.894,72.3318 144.5,70.5C 143.5,67.5 141.5,65.5 138.5,64.5C 137.833,64.5 137.167,64.5 136.5,64.5C 136.158,63.6618 135.492,63.3284 134.5,63.5 Z"/></g>
<g><path style="opacity:1" fill="#717171" d="M 208.5,94.5 C 208.833,94.5 209.167,94.5 209.5,94.5C 210.611,103.452 210.777,112.452 210,121.5C 209.796,124.797 208.963,127.797 207.5,130.5C 209.609,118.546 209.942,106.546 208.5,94.5 Z"/></g>
<g><path style="opacity:1" fill="#e9bd1a" d="M 77.5,101.5 C 83.7496,103.459 90.4163,104.126 97.5,103.5C 97.6427,105.262 97.3094,106.929 96.5,108.5C 98.9524,110.393 101.619,111.726 104.5,112.5C 104.5,112.833 104.5,113.167 104.5,113.5C 101.167,116.5 97.8333,119.5 94.5,122.5C 92.9891,121.498 91.3224,120.831 89.5,120.5C 89.5,119.167 89.5,117.833 89.5,116.5C 91.5729,112.692 93.9062,109.026 96.5,105.5C 89.8665,104.503 83.1998,104.17 76.5,104.5C 76.2627,103.209 76.596,102.209 77.5,101.5 Z"/></g>
<g><path style="opacity:1" fill="#9e5a18" d="M 63.5,104.5 C 62.7878,106.928 61.7878,109.261 60.5,111.5C 67.9891,112.167 75.3225,112.833 82.5,113.5C 74.8333,113.5 67.1667,113.5 59.5,113.5C 59.5,112.5 59.5,111.5 59.5,110.5C 59.8702,107.733 61.2036,105.733 63.5,104.5 Z"/></g>
<g><path style="opacity:1" fill="#205270" d="M 140.5,92.5 C 139.097,93.9312 137.431,95.0978 135.5,96C 132.447,96.1786 129.447,96.6786 126.5,97.5C 121.542,102.324 116.542,107.158 111.5,112C 118.826,112.5 126.159,112.666 133.5,112.5C 129.849,113.165 126.015,113.499 122,113.5C 117.771,113.49 113.938,112.823 110.5,111.5C 115.273,106.279 120.273,101.279 125.5,96.5C 130.622,95.5697 135.622,94.2364 140.5,92.5 Z"/></g>
<g><path style="opacity:1" fill="#41250a" d="M 59.5,110.5 C 59.5,111.5 59.5,112.5 59.5,113.5C 67.1667,113.5 74.8333,113.5 82.5,113.5C 82.7373,114.791 82.404,115.791 81.5,116.5C 74.2395,114.535 66.5729,113.868 58.5,114.5C 58.2322,112.901 58.5655,111.568 59.5,110.5 Z"/></g>
<g><path style="opacity:1" fill="#0e202c" d="M 148.5,108.5 C 145.752,111.048 142.419,112.882 138.5,114C 128.839,114.5 119.172,114.666 109.5,114.5C 109.263,113.209 109.596,112.209 110.5,111.5C 113.938,112.823 117.771,113.49 122,113.5C 126.015,113.499 129.849,113.165 133.5,112.5C 138.725,112.057 143.725,110.724 148.5,108.5 Z"/></g>
<g><path style="opacity:0.71" fill="#a8a8a8" d="M 219.5,95.5 C 219.833,95.5 220.167,95.5 220.5,95.5C 220.5,105.167 220.5,114.833 220.5,124.5C 219.607,128.191 218.607,131.858 217.5,135.5C 217.5,134.5 217.5,133.5 217.5,132.5C 219.23,120.914 219.897,109.247 219.5,97.5C 219.5,96.8333 219.5,96.1667 219.5,95.5 Z"/></g>
<g><path style="opacity:1" fill="#935316" d="M 81.5,116.5 C 81.2041,118.403 80.5375,120.07 79.5,121.5C 79.1667,121.5 78.8333,121.5 78.5,121.5C 78.7497,119.326 79.7497,117.659 81.5,116.5 Z"/></g>
<g><path style="opacity:1" fill="#493b0b" d="M 104.5,113.5 C 101.899,117.771 98.5658,121.437 94.5,124.5C 94.5,123.833 94.5,123.167 94.5,122.5C 97.8333,119.5 101.167,116.5 104.5,113.5 Z"/></g>
<g><path style="opacity:1" fill="#e9a61d" d="M 89.5,116.5 C 89.5,117.833 89.5,119.167 89.5,120.5C 91.3224,120.831 92.9891,121.498 94.5,122.5C 94.5,123.167 94.5,123.833 94.5,124.5C 93.5,124.833 92.8333,125.5 92.5,126.5C 91.1667,127.5 89.8333,128.5 88.5,129.5C 84.2166,129.244 82.8833,127.244 84.5,123.5C 85.9852,121.066 87.6519,118.733 89.5,116.5 Z"/></g>
<g><path style="opacity:1" fill="#904c17" d="M 78.5,121.5 C 78.4077,123.848 77.4077,125.514 75.5,126.5C 75.7497,124.326 76.7497,122.659 78.5,121.5 Z"/></g>
<g><path style="opacity:1" fill="#944b18" d="M 75.5,126.5 C 75.0652,129.157 74.0652,131.491 72.5,133.5C 72.1667,133.5 71.8333,133.5 71.5,133.5C 72.0787,130.669 73.412,128.336 75.5,126.5 Z"/></g>
<g><path style="opacity:1" fill="#4f330d" d="M 92.5,126.5 C 89.8991,130.771 86.5658,134.437 82.5,137.5C 84.0908,134.569 86.0908,131.902 88.5,129.5C 89.8333,128.5 91.1667,127.5 92.5,126.5 Z"/></g>
<g><path style="opacity:1" fill="#944918" d="M 71.5,133.5 C 71.4077,135.848 70.4077,137.514 68.5,138.5C 68.7497,136.326 69.7497,134.659 71.5,133.5 Z"/></g>
<g><path style="opacity:1" fill="#eb7b25" d="M 78.5,121.5 C 78.8333,121.5 79.1667,121.5 79.5,121.5C 79.9195,123.094 80.5862,124.594 81.5,126C 79.4376,129.292 77.7709,132.792 76.5,136.5C 77.2255,137.867 77.8921,139.2 78.5,140.5C 76.5,142.833 74.5,145.167 72.5,147.5C 71.5,147.5 70.5,147.5 69.5,147.5C 70.0351,143.563 71.3685,139.896 73.5,136.5C 72.8728,135.583 72.5394,134.583 72.5,133.5C 74.0652,131.491 75.0652,129.157 75.5,126.5C 77.4077,125.514 78.4077,123.848 78.5,121.5 Z"/></g>
<g><path style="opacity:1" fill="#737373" d="M 3.5,132.5 C 4.92381,134.515 5.59047,136.848 5.5,139.5C 4.07619,137.485 3.40953,135.152 3.5,132.5 Z"/></g>
<g><path style="opacity:0.835" fill="#949494" d="M 217.5,132.5 C 217.5,133.5 217.5,134.5 217.5,135.5C 217.59,138.152 216.924,140.485 215.5,142.5C 215.5,140.5 215.5,138.5 215.5,136.5C 216.167,135.167 216.833,133.833 217.5,132.5 Z"/></g>
<g><path style="opacity:1" fill="#a1a1a1" d="M 12.5,139.5 C 13.5375,140.93 14.2041,142.597 14.5,144.5C 12.7868,143.365 12.1201,141.698 12.5,139.5 Z"/></g>
<g><path style="opacity:1" fill="#8e4518" d="M 68.5,138.5 C 68.4077,140.848 67.4077,142.514 65.5,143.5C 65.7497,141.326 66.7497,139.659 68.5,138.5 Z"/></g>
<g><path style="opacity:1" fill="#d86825" d="M 71.5,133.5 C 71.8333,133.5 72.1667,133.5 72.5,133.5C 72.5394,134.583 72.8728,135.583 73.5,136.5C 71.3685,139.896 70.0351,143.563 69.5,147.5C 70.5,147.5 71.5,147.5 72.5,147.5C 72.5,147.833 72.5,148.167 72.5,148.5C 70.8333,149.5 69.5,150.833 68.5,152.5C 65.0969,154.9 62.4302,157.9 60.5,161.5C 59.8333,161.833 59.1667,162.167 58.5,162.5C 57.6236,162.631 56.9569,162.298 56.5,161.5C 57.3721,159.55 58.0388,157.55 58.5,155.5C 60.9305,153.954 62.2639,151.621 62.5,148.5C 64.4077,147.514 65.4077,145.848 65.5,143.5C 67.4077,142.514 68.4077,140.848 68.5,138.5C 70.4077,137.514 71.4077,135.848 71.5,133.5 Z"/></g>
<g><path style="opacity:1" fill="#4c270e" d="M 80.5,139.5 C 78.5698,143.1 75.9031,146.1 72.5,148.5C 72.5,148.167 72.5,147.833 72.5,147.5C 74.5,145.167 76.5,142.833 78.5,140.5C 79.1667,140.167 79.8333,139.833 80.5,139.5 Z"/></g>
<g><path style="opacity:1" fill="#965a2a" d="M 108.5,145.5 C 102.794,145.171 97.1278,145.505 91.5,146.5C 90.8728,147.417 90.5394,148.417 90.5,149.5C 90.1667,149.5 89.8333,149.5 89.5,149.5C 89.2865,147.856 89.6198,146.356 90.5,145C 96.6812,144.181 102.681,144.347 108.5,145.5 Z"/></g>
<g><path style="opacity:1" fill="#945929" d="M 132.5,145.5 C 126.794,145.171 121.128,145.505 115.5,146.5C 114.873,147.417 114.539,148.417 114.5,149.5C 114.167,149.5 113.833,149.5 113.5,149.5C 113.286,147.856 113.62,146.356 114.5,145C 120.681,144.181 126.681,144.347 132.5,145.5 Z"/></g>
<g><path style="opacity:1" fill="#949494" d="M 204.5,142.5 C 204.88,144.698 204.213,146.365 202.5,147.5C 202.796,145.597 203.463,143.93 204.5,142.5 Z"/></g>
<g><path style="opacity:0.945" fill="#a4a4a4" d="M 215.5,142.5 C 215.405,144.786 214.738,146.786 213.5,148.5C 213.259,146.102 213.926,144.102 215.5,142.5 Z"/></g>
<g><path style="opacity:1" fill="#f69048" d="M 108.5,145.5 C 108.423,149.877 107.923,154.21 107,158.5C 106.617,159.056 106.117,159.389 105.5,159.5C 102.15,159.335 98.8168,159.502 95.5,160C 94.5939,161.699 94.2606,163.533 94.5,165.5C 92.5,165.5 90.5,165.5 88.5,165.5C 89.8097,160.257 90.4763,154.923 90.5,149.5C 90.5394,148.417 90.8728,147.417 91.5,146.5C 97.1278,145.505 102.794,145.171 108.5,145.5 Z"/></g>
<g><path style="opacity:1" fill="#f48f46" d="M 132.5,145.5 C 133.434,146.568 133.768,147.901 133.5,149.5C 131.735,152.123 131.068,155.123 131.5,158.5C 131.158,159.338 130.492,159.672 129.5,159.5C 126.15,159.335 122.817,159.502 119.5,160C 118.594,161.699 118.261,163.533 118.5,165.5C 116.5,165.5 114.5,165.5 112.5,165.5C 113.815,160.256 114.482,154.923 114.5,149.5C 114.539,148.417 114.873,147.417 115.5,146.5C 121.128,145.505 126.794,145.171 132.5,145.5 Z"/></g>
<g><path style="opacity:1" fill="#ed8a44" d="M 156.5,145.5 C 156.5,147.167 156.5,148.833 156.5,150.5C 154.5,150.5 152.5,150.5 150.5,150.5C 150.5,149.5 150.5,148.5 150.5,147.5C 148.833,147.5 147.167,147.5 145.5,147.5C 145.232,149.099 145.566,150.432 146.5,151.5C 149.076,152.488 151.743,153.488 154.5,154.5C 154.833,155.167 155.167,155.833 155.5,156.5C 155.785,159.829 155.118,162.829 153.5,165.5C 148.167,165.5 142.833,165.5 137.5,165.5C 137.5,163.833 137.5,162.167 137.5,160.5C 140.627,160.486 143.293,161.486 145.5,163.5C 146.713,163.253 147.38,162.586 147.5,161.5C 149.176,160.817 149.843,159.483 149.5,157.5C 148.167,157.5 146.833,157.5 145.5,157.5C 144.833,157.5 144.167,157.5 143.5,157.5C 142.508,157.672 141.842,157.338 141.5,156.5C 139.676,153.154 139.01,149.487 139.5,145.5C 145.167,144.167 150.833,144.167 156.5,145.5 Z"/></g>
<g><path style="opacity:1" fill="#929292" d="M 14.5,144.5 C 15.5375,145.93 16.2041,147.597 16.5,149.5C 14.7868,148.365 14.1201,146.698 14.5,144.5 Z"/></g>
<g><path style="opacity:1" fill="#884117" d="M 65.5,143.5 C 65.4077,145.848 64.4077,147.514 62.5,148.5C 62.7497,146.326 63.7497,144.659 65.5,143.5 Z"/></g>
<g><path style="opacity:1" fill="#886318" d="M 98.5,149.5 C 99.209,148.596 100.209,148.263 101.5,148.5C 101.802,151.059 101.468,153.393 100.5,155.5C 100.975,152.918 100.308,150.918 98.5,149.5 Z"/></g>
<g><path style="opacity:1" fill="#836016" d="M 122.5,149.5 C 123.209,148.596 124.209,148.263 125.5,148.5C 125.802,151.059 125.468,153.393 124.5,155.5C 124.975,152.918 124.308,150.918 122.5,149.5 Z"/></g>
<g><path style="opacity:1" fill="#875d1c" d="M 139.5,145.5 C 139.01,149.487 139.676,153.154 141.5,156.5C 139.983,156.489 138.816,155.823 138,154.5C 137.333,151.833 137.333,149.167 138,146.5C 138.383,145.944 138.883,145.611 139.5,145.5 Z"/></g>
<g><path style="opacity:1" fill="#b97e27" d="M 156.5,145.5 C 157.833,147.5 157.833,149.5 156.5,151.5C 153.428,151.813 150.595,151.146 148,149.5C 146.97,149.836 146.47,150.503 146.5,151.5C 145.566,150.432 145.232,149.099 145.5,147.5C 147.167,147.5 148.833,147.5 150.5,147.5C 150.5,148.5 150.5,149.5 150.5,150.5C 152.5,150.5 154.5,150.5 156.5,150.5C 156.5,148.833 156.5,147.167 156.5,145.5 Z"/></g>
<g><path style="opacity:1" fill="#9f9f9f" d="M 213.5,148.5 C 213.396,150.703 212.73,152.703 211.5,154.5C 211.167,154.5 210.833,154.5 210.5,154.5C 210.755,152.033 211.755,150.033 213.5,148.5 Z"/></g>
<g><path style="opacity:1" fill="#553e10" d="M 156.5,151.5 C 155.737,152.268 154.737,152.768 153.5,153C 154.056,153.383 154.389,153.883 154.5,154.5C 151.743,153.488 149.076,152.488 146.5,151.5C 146.47,150.503 146.97,149.836 148,149.5C 150.595,151.146 153.428,151.813 156.5,151.5 Z"/></g>
<g><path style="opacity:1" fill="#894018" d="M 62.5,148.5 C 62.2639,151.621 60.9305,153.954 58.5,155.5C 59.0787,152.669 60.412,150.336 62.5,148.5 Z"/></g>
<g><path style="opacity:1" fill="#2d2208" d="M 98.5,149.5 C 100.308,150.918 100.975,152.918 100.5,155.5C 99.5,155.5 98.5,155.5 97.5,155.5C 97.5,153.833 97.5,152.167 97.5,150.5C 97.5,149.833 97.8333,149.5 98.5,149.5 Z"/></g>
<g><path style="opacity:1" fill="#664516" d="M 108.5,145.5 C 109.533,150.032 109.366,154.698 108,159.5C 107.329,160.252 106.496,160.586 105.5,160.5C 105.5,160.167 105.5,159.833 105.5,159.5C 106.117,159.389 106.617,159.056 107,158.5C 107.923,154.21 108.423,149.877 108.5,145.5 Z"/></g>
<g><path style="opacity:1" fill="#30230a" d="M 122.5,149.5 C 124.308,150.918 124.975,152.918 124.5,155.5C 123.5,155.5 122.5,155.5 121.5,155.5C 121.5,154.5 121.5,153.5 121.5,152.5C 121.263,151.209 121.596,150.209 122.5,149.5 Z"/></g>
<g><path style="opacity:1" fill="#82581b" d="M 97.5,150.5 C 97.5,152.167 97.5,153.833 97.5,155.5C 98.5,155.5 99.5,155.5 100.5,155.5C 99.4324,156.434 98.099,156.768 96.5,156.5C 96.2053,154.265 96.5386,152.265 97.5,150.5 Z"/></g>
<g><path style="opacity:1" fill="#7f551b" d="M 121.5,152.5 C 121.5,153.5 121.5,154.5 121.5,155.5C 122.5,155.5 123.5,155.5 124.5,155.5C 123.432,156.434 122.099,156.768 120.5,156.5C 120.232,154.901 120.566,153.568 121.5,152.5 Z"/></g>
<g><path style="opacity:1" fill="#80521e" d="M 133.5,149.5 C 133.324,152.727 132.657,155.727 131.5,158.5C 131.068,155.123 131.735,152.123 133.5,149.5 Z"/></g>
<g><path style="opacity:1" fill="#bf7e2c" d="M 145.5,157.5 C 146.833,157.5 148.167,157.5 149.5,157.5C 149.843,159.483 149.176,160.817 147.5,161.5C 147.473,159.801 146.806,158.467 145.5,157.5 Z"/></g>
<g><path style="opacity:1" fill="#332709" d="M 143.5,157.5 C 144.167,157.5 144.833,157.5 145.5,157.5C 146.806,158.467 147.473,159.801 147.5,161.5C 144.014,160.047 140.347,159.381 136.5,159.5C 138.833,158.833 141.167,158.167 143.5,157.5 Z"/></g>
<g><path style="opacity:1" fill="#4d240f" d="M 68.5,152.5 C 66.5698,156.1 63.9031,159.1 60.5,161.5C 62.4302,157.9 65.0969,154.9 68.5,152.5 Z"/></g>
<g><path style="opacity:1" fill="#a2a2a2" d="M 20.5,158.5 C 21.9063,158.973 22.573,159.973 22.5,161.5C 21.0937,161.027 20.427,160.027 20.5,158.5 Z"/></g>
<g><path style="opacity:1" fill="#9e9e9e" d="M 196.5,160.5 C 196.573,162.027 195.906,163.027 194.5,163.5C 194.427,161.973 195.094,160.973 196.5,160.5 Z"/></g>
<g><path style="opacity:1" fill="#8f8f8f" d="M 22.5,161.5 C 23.9063,161.973 24.573,162.973 24.5,164.5C 23.0937,164.027 22.427,163.027 22.5,161.5 Z"/></g>
<g><path style="opacity:1" fill="#a64c1d" d="M 58.5,155.5 C 58.0388,157.55 57.3721,159.55 56.5,161.5C 56.9569,162.298 57.6236,162.631 58.5,162.5C 58.5,162.833 58.5,163.167 58.5,163.5C 56.8333,164.5 55.5,165.833 54.5,167.5C 53.1667,167.5 52.5,166.833 52.5,165.5C 54.0002,161.827 56.0002,158.494 58.5,155.5 Z"/></g>
<g><path style="opacity:1" fill="#2d200b" d="M 155.5,156.5 C 156.638,159.304 156.805,162.304 156,165.5C 155.329,166.252 154.496,166.586 153.5,166.5C 153.5,166.167 153.5,165.833 153.5,165.5C 155.118,162.829 155.785,159.829 155.5,156.5 Z"/></g>
<g><path style="opacity:1" fill="#986622" d="M 89.5,149.5 C 89.8333,149.5 90.1667,149.5 90.5,149.5C 90.4763,154.923 89.8097,160.257 88.5,165.5C 90.5,165.5 92.5,165.5 94.5,165.5C 94.2606,163.533 94.5939,161.699 95.5,160C 98.8168,159.502 102.15,159.335 105.5,159.5C 105.5,159.833 105.5,160.167 105.5,160.5C 102.375,161.479 99.0419,161.813 95.5,161.5C 95.7394,163.467 95.4061,165.301 94.5,167C 92.1902,167.497 89.8568,167.663 87.5,167.5C 87.7312,161.448 88.3978,155.448 89.5,149.5 Z"/></g>
<g><path style="opacity:1" fill="#986621" d="M 113.5,149.5 C 113.833,149.5 114.167,149.5 114.5,149.5C 114.482,154.923 113.815,160.256 112.5,165.5C 114.5,165.5 116.5,165.5 118.5,165.5C 118.261,163.533 118.594,161.699 119.5,160C 122.817,159.502 126.15,159.335 129.5,159.5C 126.663,161.402 123.329,162.069 119.5,161.5C 119.739,163.467 119.406,165.301 118.5,167C 116.19,167.497 113.857,167.663 111.5,167.5C 111.776,161.453 112.443,155.453 113.5,149.5 Z"/></g>
<g><path style="opacity:1" fill="#976522" d="M 136.5,159.5 C 140.347,159.381 144.014,160.047 147.5,161.5C 147.38,162.586 146.713,163.253 145.5,163.5C 143.293,161.486 140.627,160.486 137.5,160.5C 137.5,162.167 137.5,163.833 137.5,165.5C 142.833,165.5 148.167,165.5 153.5,165.5C 153.5,165.833 153.5,166.167 153.5,166.5C 148.25,167.615 142.917,167.781 137.5,167C 135.354,164.643 135.021,162.143 136.5,159.5 Z"/></g>
<g><path style="opacity:1" fill="#381a0c" d="M 58.5,163.5 C 57.9202,165.749 56.5869,167.415 54.5,168.5C 54.5,168.167 54.5,167.833 54.5,167.5C 55.5,165.833 56.8333,164.5 58.5,163.5 Z"/></g>
<g><path style="opacity:1" fill="#7f3a17" d="M 52.5,165.5 C 52.5,166.833 53.1667,167.5 54.5,167.5C 54.5,167.833 54.5,168.167 54.5,168.5C 52.8333,169.5 51.5,170.833 50.5,172.5C 49.6618,172.158 49.3284,171.492 49.5,170.5C 49.7497,168.326 50.7497,166.659 52.5,165.5 Z"/></g>
<g><path style="opacity:1" fill="#421e0c" d="M 49.5,170.5 C 49.3284,171.492 49.6618,172.158 50.5,172.5C 49.6782,174.728 48.3448,175.395 46.5,174.5C 47.0351,172.739 48.0351,171.406 49.5,170.5 Z"/></g>
<g><path style="opacity:1" fill="#9a9a9a" d="M 188.5,171.5 C 188.573,173.027 187.906,174.027 186.5,174.5C 186.427,172.973 187.094,171.973 188.5,171.5 Z"/></g>
<g><path style="opacity:1" fill="#242424" d="M 6.5,144.5 C 13.6327,162.298 24.2993,177.631 38.5,190.5C 37.7611,190.369 37.0944,190.536 36.5,191C 37.2524,191.671 37.5858,192.504 37.5,193.5C 21.8344,180.836 11.1678,164.836 5.5,145.5C 5.5,144.833 5.83333,144.5 6.5,144.5 Z"/></g>
<g><path style="opacity:1" fill="#252525" d="M 215.5,131.5 C 215.5,133.167 215.5,134.833 215.5,136.5C 215.5,138.5 215.5,140.5 215.5,142.5C 213.926,144.102 213.259,146.102 213.5,148.5C 211.755,150.033 210.755,152.033 210.5,154.5C 199.616,177.384 182.949,194.718 160.5,206.5C 161.66,204.797 160.993,204.131 158.5,204.5C 166.871,199.644 174.871,194.144 182.5,188C 198.609,171.92 209.609,153.087 215.5,131.5 Z"/></g>
<g><path style="opacity:1" fill="#666666" d="M 51.5,191.5 C 53.0269,191.427 54.0269,192.094 54.5,193.5C 52.9731,193.573 51.9731,192.906 51.5,191.5 Z"/></g>
<g><path style="opacity:1" fill="#707070" d="M 37.5,193.5 C 39.4044,193.738 40.7377,194.738 41.5,196.5C 39.5956,196.262 38.2623,195.262 37.5,193.5 Z"/></g>
<g><path style="opacity:1" fill="#a0a0a0" d="M 165.5,192.5 C 165.027,193.906 164.027,194.573 162.5,194.5C 162.973,193.094 163.973,192.427 165.5,192.5 Z"/></g>
<g><path style="opacity:1" fill="#a5a5a5" d="M 160.5,195.5 C 160.027,196.906 159.027,197.573 157.5,197.5C 157.973,196.094 158.973,195.427 160.5,195.5 Z"/></g>
<g><path style="opacity:1" fill="#797979" d="M 41.5,196.5 C 43.4044,196.738 44.7377,197.738 45.5,199.5C 43.5956,199.262 42.2623,198.262 41.5,196.5 Z"/></g>
<g><path style="opacity:1" fill="#d5d5d5" d="M 210.5,154.5 C 210.833,154.5 211.167,154.5 211.5,154.5C 202.436,175.074 188.436,191.574 169.5,204C 164.526,207.321 159.193,209.821 153.5,211.5C 153.833,210.833 154.167,210.167 154.5,209.5C 156.181,207.992 158.181,206.992 160.5,206.5C 182.949,194.718 199.616,177.384 210.5,154.5 Z"/></g>
<g><path style="opacity:1" fill="#a3a3a3" d="M 48.5,197.5 C 50.0269,197.427 51.0269,198.094 51.5,199.5C 49.9731,199.573 48.9731,198.906 48.5,197.5 Z"/></g>
<g><path style="opacity:0.894" fill="#8e8e8e" d="M 45.5,199.5 C 47.4044,199.738 48.7377,200.738 49.5,202.5C 47.5956,202.262 46.2623,201.262 45.5,199.5 Z"/></g>
<g><path style="opacity:1" fill="#a3a3a3" d="M 53.5,200.5 C 55.0269,200.427 56.0269,201.094 56.5,202.5C 54.9731,202.573 53.9731,201.906 53.5,200.5 Z"/></g>
<g><path style="opacity:1" fill="#9c9c9c" d="M 150.5,200.5 C 150.389,201.117 150.056,201.617 149.5,202C 145.553,203.484 141.553,204.65 137.5,205.5C 141.522,203.266 145.856,201.599 150.5,200.5 Z"/></g>
<g><path style="opacity:0.545" fill="#c5c5c5" d="M 49.5,202.5 C 51.0269,202.427 52.0269,203.094 52.5,204.5C 50.9731,204.573 49.9731,203.906 49.5,202.5 Z"/></g>
<g><path style="opacity:0.69" fill="#c3c3c3" d="M 56.5,206.5 C 62.6262,208.982 68.6262,211.649 74.5,214.5C 67.8162,213.169 61.8162,210.502 56.5,206.5 Z"/></g>
<g><path style="opacity:1" fill="#222222" d="M 38.5,190.5 C 41.5127,193.336 44.846,195.669 48.5,197.5C 48.9731,198.906 49.9731,199.573 51.5,199.5C 51.8417,200.338 52.5084,200.672 53.5,200.5C 53.9731,201.906 54.9731,202.573 56.5,202.5C 59.5154,204.674 62.8487,206.341 66.5,207.5C 68.5093,209.065 70.8427,210.065 73.5,210.5C 73.8333,210.5 74.1667,210.5 74.5,210.5C 76.1016,212.074 78.1016,212.741 80.5,212.5C 95.4298,215.542 110.43,216.208 125.5,214.5C 129.489,214.884 133.155,214.217 136.5,212.5C 138.099,212.768 139.432,212.434 140.5,211.5C 144.708,211.323 148.374,209.99 151.5,207.5C 153.98,206.758 156.313,205.758 158.5,204.5C 160.993,204.131 161.66,204.797 160.5,206.5C 158.181,206.992 156.181,207.992 154.5,209.5C 150.064,210.414 146.064,212.081 142.5,214.5C 135.834,216.488 129.168,217.821 122.5,218.5C 112.468,218.729 102.468,218.396 92.5,217.5C 91.1667,217.5 89.8333,217.5 88.5,217.5C 84.0152,216.216 79.3485,215.216 74.5,214.5C 68.6262,211.649 62.6262,208.982 56.5,206.5C 54.847,206.34 53.5137,205.674 52.5,204.5C 52.0269,203.094 51.0269,202.427 49.5,202.5C 48.7377,200.738 47.4044,199.738 45.5,199.5C 44.7377,197.738 43.4044,196.738 41.5,196.5C 40.7377,194.738 39.4044,193.738 37.5,193.5C 37.5858,192.504 37.2524,191.671 36.5,191C 37.0944,190.536 37.7611,190.369 38.5,190.5 Z"/></g>
<g><path style="opacity:1" fill="#848484" d="M 74.5,210.5 C 76.8984,210.259 78.8984,210.926 80.5,212.5C 78.1016,212.741 76.1016,212.074 74.5,210.5 Z"/></g>
<g><path style="opacity:1" fill="#595959" d="M 151.5,207.5 C 148.374,209.99 144.708,211.323 140.5,211.5C 143.939,209.796 147.605,208.462 151.5,207.5 Z"/></g>
<g><path style="opacity:1" fill="#9e9e9e" d="M 66.5,207.5 C 69.491,207.166 71.8243,208.166 73.5,210.5C 70.8427,210.065 68.5093,209.065 66.5,207.5 Z"/></g>
<g><path style="opacity:1" fill="#929292" d="M 135.5,205.5 C 133.898,207.074 131.898,207.741 129.5,207.5C 131.102,205.926 133.102,205.259 135.5,205.5 Z"/></g>
<g><path style="opacity:1" fill="#919191" d="M 154.5,209.5 C 154.167,210.167 153.833,210.833 153.5,211.5C 149.777,212.297 146.11,213.297 142.5,214.5C 146.064,212.081 150.064,210.414 154.5,209.5 Z"/></g>
<g><path style="opacity:1" fill="#939393" d="M 136.5,212.5 C 133.155,214.217 129.489,214.884 125.5,214.5C 128.974,213.475 132.64,212.808 136.5,212.5 Z"/></g>
<g><path style="opacity:1" fill="#c3c3c3" d="M 74.5,214.5 C 79.3485,215.216 84.0152,216.216 88.5,217.5C 87.1667,217.5 85.8333,217.5 84.5,217.5C 80.8379,217.277 77.5046,216.277 74.5,214.5 Z"/></g>
<g><path style="opacity:1" fill="#dcdcdc" d="M 84.5,217.5 C 85.8333,217.5 87.1667,217.5 88.5,217.5C 89.8333,217.5 91.1667,217.5 92.5,217.5C 93.5,218.167 94.5,218.833 95.5,219.5C 91.5752,219.57 87.9085,218.903 84.5,217.5 Z"/></g>
<g><path style="opacity:1" fill="#919191" d="M 92.5,217.5 C 102.468,218.396 112.468,218.729 122.5,218.5C 113.682,219.493 104.682,219.827 95.5,219.5C 94.5,218.833 93.5,218.167 92.5,217.5 Z"/></g>
<g><path style="opacity:0.7" fill="#f3f3f3" d="M 153.5,211.5 C 144.247,215.896 134.58,218.896 124.5,220.5C 114.833,220.5 105.167,220.5 95.5,220.5C 95.5,220.167 95.5,219.833 95.5,219.5C 104.682,219.827 113.682,219.493 122.5,218.5C 129.168,217.821 135.834,216.488 142.5,214.5C 146.11,213.297 149.777,212.297 153.5,211.5 Z"/></g>
</svg>
