<?xml version="1.0" encoding="UTF-8"?>
<!DOCTYPE svg PUBLIC "-//W3C//DTD SVG 1.1//EN" "http://www.w3.org/Graphics/SVG/1.1/DTD/svg11.dtd">
<svg xmlns="http://www.w3.org/2000/svg" version="1.1" width="301px" height="301px" style="shape-rendering:geometricPrecision; text-rendering:geometricPrecision; image-rendering:optimizeQuality; fill-rule:evenodd; clip-rule:evenodd" xmlns:xlink="http://www.w3.org/1999/xlink">
<g><path style="opacity:0.971" fill="#fbfb10" d="M 132.5,-0.5 C 144.167,-0.5 155.833,-0.5 167.5,-0.5C 217.066,6.85855 254.899,31.8586 281,74.5C 291.036,92.776 297.536,112.109 300.5,132.5C 300.5,144.167 300.5,155.833 300.5,167.5C 293.141,217.066 268.141,254.899 225.5,281C 207.224,291.036 187.891,297.536 167.5,300.5C 155.833,300.5 144.167,300.5 132.5,300.5C 82.9344,293.141 45.1011,268.141 19,225.5C 8.96386,207.224 2.46386,187.891 -0.5,167.5C -0.5,159.167 -0.5,150.833 -0.5,142.5C 0.88364,137.056 1.55031,131.389 1.5,125.5C 13.1987,64.6296 48.532,24.4629 107.5,5C 115.925,2.95089 124.259,1.11755 132.5,-0.5 Z"/></g>
<g><path style="opacity:1" fill="#c7c794" d="M 164.5,11.5 C 154.494,11.3335 144.494,11.5002 134.5,12C 132.942,12.21 131.609,12.71 130.5,13.5C 127.5,13.5 124.5,13.5 121.5,13.5C 125.054,12.7513 128.72,11.918 132.5,11C 143.341,10.1745 154.008,10.3412 164.5,11.5 Z"/></g>
<g><path style="opacity:1" fill="#696969" d="M 164.5,11.5 C 172.177,12.1657 179.51,13.8323 186.5,16.5C 184.801,16.3398 183.134,16.5065 181.5,17C 172.212,29.4861 160.212,33.3195 145.5,28.5C 142.844,25.8403 139.844,23.6736 136.5,22C 134.624,19.8173 133.291,17.3173 132.5,14.5C 131.817,14.1373 131.15,13.8039 130.5,13.5C 131.609,12.71 132.942,12.21 134.5,12C 144.494,11.5002 154.494,11.3335 164.5,11.5 Z"/></g>
<g><path style="opacity:1" fill="#5a5a5a" d="M 121.5,13.5 C 124.5,13.5 127.5,13.5 130.5,13.5C 131.15,13.8039 131.817,14.1373 132.5,14.5C 133.291,17.3173 134.624,19.8173 136.5,22C 139.844,23.6736 142.844,25.8403 145.5,28.5C 160.212,33.3195 172.212,29.4861 181.5,17C 183.134,16.5065 184.801,16.3398 186.5,16.5C 191.915,17.1938 196.915,18.8605 201.5,21.5C 199.223,22.8618 198.89,24.6951 200.5,27C 200.214,31.1079 198.881,34.7746 196.5,38C 197.357,38.6891 198.023,39.5224 198.5,40.5C 195.702,43.3556 192.369,45.3556 188.5,46.5C 187.719,47.7287 187.219,49.062 187,50.5C 186.667,49.8333 186.333,49.1667 186,48.5C 171.866,56.9522 157.199,58.9522 142,54.5C 141.667,54.8333 141.333,55.1667 141,55.5C 133.464,52.2216 126.298,48.3883 119.5,44C 118.341,39.8815 116.341,36.2148 113.5,33C 113.993,27.6827 114.66,22.1827 115.5,16.5C 114.167,16.5 112.833,16.5 111.5,16.5C 114.583,14.9754 117.916,13.9754 121.5,13.5 Z"/></g>
<g><path style="opacity:1" fill="#4c4c4c" d="M 111.5,16.5 C 112.833,16.5 114.167,16.5 115.5,16.5C 114.66,22.1827 113.993,27.6827 113.5,33C 116.341,36.2148 118.341,39.8815 119.5,44C 126.298,48.3883 133.464,52.2216 141,55.5C 141.333,55.1667 141.667,54.8333 142,54.5C 157.199,58.9522 171.866,56.9522 186,48.5C 186.333,49.1667 186.667,49.8333 187,50.5C 187.219,49.062 187.719,47.7287 188.5,46.5C 192.369,45.3556 195.702,43.3556 198.5,40.5C 198.023,39.5224 197.357,38.6891 196.5,38C 198.881,34.7746 200.214,31.1079 200.5,27C 198.89,24.6951 199.223,22.8618 201.5,21.5C 209.419,24.1262 216.752,27.7928 223.5,32.5C 222.504,32.5858 221.671,32.2524 221,31.5C 220.333,32.5 220.333,33.5 221,34.5C 221.667,33.1667 222.333,33.1667 223,34.5C 222.928,41.8436 222.428,49.1769 221.5,56.5C 220.5,56.5 219.5,56.5 218.5,56.5C 218.649,57.552 218.483,58.552 218,59.5C 217.768,58.2625 217.268,57.2625 216.5,56.5C 216.054,51.6703 213.388,49.0036 208.5,48.5C 205.322,45.7798 201.655,44.9464 197.5,46C 195.536,47.451 194.203,49.2843 193.5,51.5C 192.662,51.8417 192.328,52.5084 192.5,53.5C 191.637,52.537 190.97,52.537 190.5,53.5C 191.246,54.7362 191.579,56.0695 191.5,57.5C 190.178,57.67 189.011,57.3366 188,56.5C 187.871,60.118 186.038,61.7847 182.5,61.5C 182.5,62.5 182.5,63.5 182.5,64.5C 174.27,65.7107 165.77,66.7107 157,67.5C 151.632,67.0301 146.298,66.3634 141,65.5C 140,65.8333 139,66.1667 138,66.5C 133.529,62.6701 128.362,60.1701 122.5,59C 119.553,55.3761 116.053,52.5428 112,50.5C 111.178,48.2115 110.511,45.8782 110,43.5C 109.667,43.8333 109.333,44.1667 109,44.5C 108,43.1667 107,41.8333 106,40.5C 105.264,33.482 106.431,26.8153 109.5,20.5C 109.113,19.2801 108.28,18.6135 107,18.5C 105.862,18.9891 104.695,19.3225 103.5,19.5C 105.617,17.3455 108.284,16.3455 111.5,16.5 Z"/></g>
<g><path style="opacity:1" fill="#434342" d="M 192.5,53.5 C 192.403,65.5147 191.903,77.5147 191,89.5C 190.333,88.1667 189.667,88.1667 189,89.5C 188.798,91.2556 188.298,92.9223 187.5,94.5C 187.331,93.6034 186.998,92.6034 186.5,91.5C 184.44,93.1965 182.107,94.3631 179.5,95C 173.959,95.0666 168.625,95.9 163.5,97.5C 160.86,96.9049 158.193,96.5715 155.5,96.5C 155.666,90.4908 155.499,84.4908 155,78.5C 153.599,76.8078 151.766,76.1412 149.5,76.5C 149.672,75.5084 149.338,74.8417 148.5,74.5C 146.923,70.3779 143.923,68.8779 139.5,70C 137.536,71.451 136.203,73.2843 135.5,75.5C 134.596,76.209 134.263,77.209 134.5,78.5C 133.698,79.9516 133.198,81.6183 133,83.5C 126.825,83.6659 121.658,81.4993 117.5,77C 115.278,76.3054 113.111,75.4721 111,74.5C 107.699,71.5546 104.199,68.888 100.5,66.5C 99.3936,62.1017 96.8936,58.1017 93,54.5C 92.8555,50.4952 92.0221,46.6619 90.5,43C 92.5314,40.5183 92.8647,37.8516 91.5,35C 93.9972,31.4214 96.3306,27.7547 98.5,24C 94.4841,24.4926 90.4841,25.3259 86.5,26.5C 91.5376,22.82 97.2042,20.4866 103.5,19.5C 104.695,19.3225 105.862,18.9891 107,18.5C 108.28,18.6135 109.113,19.2801 109.5,20.5C 106.431,26.8153 105.264,33.482 106,40.5C 107,41.8333 108,43.1667 109,44.5C 109.333,44.1667 109.667,43.8333 110,43.5C 110.511,45.8782 111.178,48.2115 112,50.5C 116.053,52.5428 119.553,55.3761 122.5,59C 128.362,60.1701 133.529,62.6701 138,66.5C 139,66.1667 140,65.8333 141,65.5C 146.298,66.3634 151.632,67.0301 157,67.5C 165.77,66.7107 174.27,65.7107 182.5,64.5C 182.5,63.5 182.5,62.5 182.5,61.5C 186.038,61.7847 187.871,60.118 188,56.5C 189.011,57.3366 190.178,57.67 191.5,57.5C 191.579,56.0695 191.246,54.7362 190.5,53.5C 190.97,52.537 191.637,52.537 192.5,53.5 Z"/></g>
<g><path style="opacity:1" fill="#363635" d="M 223.5,32.5 C 229.727,35.7297 235.393,39.7297 240.5,44.5C 238.667,52.1152 237.5,60.1152 237,68.5C 231.93,74.2996 227.597,80.6329 224,87.5C 221.912,88.3081 219.912,89.3081 218,90.5C 217.501,95.4889 217.334,100.489 217.5,105.5C 217.167,105.5 216.833,105.5 216.5,105.5C 216.5,99.1667 216.5,92.8333 216.5,86.5C 216.5,76.5 216.5,66.5 216.5,56.5C 217.268,57.2625 217.768,58.2625 218,59.5C 218.483,58.552 218.649,57.552 218.5,56.5C 219.5,56.5 220.5,56.5 221.5,56.5C 222.428,49.1769 222.928,41.8436 223,34.5C 222.333,33.1667 221.667,33.1667 221,34.5C 220.333,33.5 220.333,32.5 221,31.5C 221.671,32.2524 222.504,32.5858 223.5,32.5 Z"/></g>
<g><path style="opacity:1" fill="#2c2b2a" d="M 84.5,72.5 C 83.522,84.0861 83.1887,95.7527 83.5,107.5C 82.6721,101.347 82.1721,95.0133 82,88.5C 81.6667,95.5 81.3333,102.5 81,109.5C 77.9338,105.43 74.2671,102.097 70,99.5C 69.4283,96.293 67.595,94.6263 64.5,94.5C 64.6602,92.8008 64.4935,91.1341 64,89.5C 61.3838,83.2731 58.5504,77.2731 55.5,71.5C 57.6229,66.6082 57.9562,61.6082 56.5,56.5C 57,55.5 57.5,54.5 58,53.5C 58.3333,53.8333 58.6667,54.1667 59,54.5C 59.7804,51.4883 60.9471,48.6549 62.5,46C 61.1807,45.805 59.8474,45.9717 58.5,46.5C 63.618,41.4419 69.2847,37.1086 75.5,33.5C 77.1368,32.7822 78.8034,32.6155 80.5,33C 78.4751,40.0982 76.1418,47.0982 73.5,54C 76.0767,61.8062 78.5767,69.6395 81,77.5C 81.5431,75.3686 82.3764,73.3686 83.5,71.5C 84.1067,71.6236 84.44,71.9569 84.5,72.5 Z"/></g>
<g><path style="opacity:1" fill="#2a2a2a" d="M 240.5,44.5 C 247.833,49.8333 254.167,56.1667 259.5,63.5C 256.894,61.9115 255.56,62.7448 255.5,66C 257.371,69.3126 257.371,72.8126 255.5,76.5C 255.719,80.9203 253.885,84.5869 250,87.5C 249.689,89.556 249.189,91.556 248.5,93.5C 247.675,94.3857 246.675,94.719 245.5,94.5C 245.657,95.8734 245.49,97.2068 245,98.5C 238.162,106.342 230.162,112.675 221,117.5C 220.259,116.359 219.425,116.359 218.5,117.5C 217.509,113.555 217.176,109.555 217.5,105.5C 217.334,100.489 217.501,95.4889 218,90.5C 219.912,89.3081 221.912,88.3081 224,87.5C 227.597,80.6329 231.93,74.2996 237,68.5C 237.5,60.1152 238.667,52.1152 240.5,44.5 Z"/></g>
<g><path style="opacity:1" fill="#fbc90a" d="M 208.5,48.5 C 209.494,89.761 209.827,131.094 209.5,172.5C 207.192,176.944 203.525,178.611 198.5,177.5C 196.11,176.109 194.443,174.109 193.5,171.5C 193.5,131.5 193.5,91.5 193.5,51.5C 194.203,49.2843 195.536,47.451 197.5,46C 201.655,44.9464 205.322,45.7798 208.5,48.5 Z"/></g>
<g><path style="opacity:1" fill="#1d1d1d" d="M 83.5,107.5 C 81.7825,125.148 84.7825,141.814 92.5,157.5C 91.2502,157.577 90.4169,158.244 90,159.5C 89.5172,158.552 89.3505,157.552 89.5,156.5C 86.7835,156.322 84.1168,155.822 81.5,155C 79.3651,154.241 78.0318,152.741 77.5,150.5C 74.3155,149.404 71.3155,148.071 68.5,146.5C 68.719,145.325 68.3857,144.325 67.5,143.5C 62.916,140.92 58.916,137.587 55.5,133.5C 54.7065,133.931 53.8732,134.265 53,134.5C 47.4701,132.512 44.3035,128.512 43.5,122.5C 41.8333,122.5 40.1667,122.5 38.5,122.5C 36.5984,112.227 34.0984,102.227 31,92.5C 30.3159,89.62 30.4826,86.7866 31.5,84C 31.3333,83.5 31.1667,83 31,82.5C 30.2917,83.3805 29.4584,84.0472 28.5,84.5C 35.8397,69.8163 45.8397,57.1497 58.5,46.5C 59.8474,45.9717 61.1807,45.805 62.5,46C 60.9471,48.6549 59.7804,51.4883 59,54.5C 58.6667,54.1667 58.3333,53.8333 58,53.5C 57.5,54.5 57,55.5 56.5,56.5C 57.9562,61.6082 57.6229,66.6082 55.5,71.5C 58.5504,77.2731 61.3838,83.2731 64,89.5C 64.4935,91.1341 64.6602,92.8008 64.5,94.5C 67.595,94.6263 69.4283,96.293 70,99.5C 74.2671,102.097 77.9338,105.43 81,109.5C 81.3333,102.5 81.6667,95.5 82,88.5C 82.1721,95.0133 82.6721,101.347 83.5,107.5 Z"/></g>
<g><path style="opacity:1" fill="#f8ce06" d="M 97.5,73.5 C 97.0582,95.222 97.8915,116.889 100,138.5C 101.038,142.468 102.538,146.135 104.5,149.5C 104.738,151.404 105.738,152.738 107.5,153.5C 108.598,154.397 108.598,155.23 107.5,156C 108.167,156.333 108.833,156.667 109.5,157C 108.687,158.314 107.687,159.481 106.5,160.5C 107.025,161.192 107.692,161.692 108.5,162C 105.854,162.497 103.187,162.664 100.5,162.5C 99.1667,162.167 97.8333,161.833 96.5,161.5C 95.5,159.833 94.1667,158.5 92.5,157.5C 84.7825,141.814 81.7825,125.148 83.5,107.5C 83.1887,95.7527 83.522,84.0861 84.5,72.5C 89.0892,68.4779 93.4225,68.8112 97.5,73.5 Z"/></g>
<g><path style="opacity:1" fill="#4d410d" d="M 208.5,48.5 C 213.388,49.0036 216.054,51.6703 216.5,56.5C 216.5,66.5 216.5,76.5 216.5,86.5C 215.897,90.858 214.73,95.1913 213,99.5C 211.804,93.5813 211.138,87.5813 211,81.5C 210.5,100.164 210.333,118.83 210.5,137.5C 210.828,149.345 210.495,161.012 209.5,172.5C 209.827,131.094 209.494,89.761 208.5,48.5 Z"/></g>
<g><path style="opacity:1" fill="#1e1d1d" d="M 259.5,63.5 C 270.922,77.0012 279.256,92.3346 284.5,109.5C 283.21,108.942 282.377,107.942 282,106.5C 280.143,109.07 277.809,111.07 275,112.5C 271.681,122.469 266.348,131.135 259,138.5C 258.667,138.167 258.333,137.833 258,137.5C 256.681,139.487 254.848,140.654 252.5,141C 249.227,143.241 246.227,145.741 243.5,148.5C 240.893,149.318 238.226,149.818 235.5,150C 234.107,151.171 233.273,152.671 233,154.5C 228.156,157.304 222.99,159.304 217.5,160.5C 217.81,163.713 217.477,166.713 216.5,169.5C 216.5,163.833 216.5,158.167 216.5,152.5C 216.5,136.833 216.5,121.167 216.5,105.5C 216.833,105.5 217.167,105.5 217.5,105.5C 217.176,109.555 217.509,113.555 218.5,117.5C 219.425,116.359 220.259,116.359 221,117.5C 230.162,112.675 238.162,106.342 245,98.5C 245.49,97.2068 245.657,95.8734 245.5,94.5C 246.675,94.719 247.675,94.3857 248.5,93.5C 249.189,91.556 249.689,89.556 250,87.5C 253.885,84.5869 255.719,80.9203 255.5,76.5C 257.371,72.8126 257.371,69.3126 255.5,66C 255.56,62.7448 256.894,61.9115 259.5,63.5 Z"/></g>
<g><path style="opacity:1" fill="#161615" d="M 92.5,157.5 C 94.1667,158.5 95.5,159.833 96.5,161.5C 98.2802,164.781 100.614,167.614 103.5,170C 108.167,170.667 112.833,170.667 117.5,170C 122.632,166.865 127.132,163.032 131,158.5C 131.497,161.146 131.664,163.813 131.5,166.5C 119.687,173.306 109.021,181.64 99.5,191.5C 98.5868,189.914 98.5868,188.414 99.5,187C 98.2559,186.544 97.4226,187.044 97,188.5C 92.2049,185.787 87.2049,183.454 82,181.5C 81.586,181.957 81.086,182.291 80.5,182.5C 77.5061,180.753 74.3394,179.42 71,178.5C 69.2649,177.318 68.2649,175.651 68,173.5C 66.0955,172.842 64.5955,171.675 63.5,170C 60.0787,170.121 57.4121,168.788 55.5,166C 50.1865,165.176 45.5198,163.009 41.5,159.5C 39.2683,156.37 37.6016,153.037 36.5,149.5C 33.8333,149.5 31.1667,149.5 28.5,149.5C 28.5,146.5 28.5,143.5 28.5,140.5C 27.1266,140.657 25.7932,140.49 24.5,140C 20.9392,135.287 17.2726,130.787 13.5,126.5C 15.7667,111.448 20.7667,97.4475 28.5,84.5C 29.4584,84.0472 30.2917,83.3805 31,82.5C 31.1667,83 31.3333,83.5 31.5,84C 30.4826,86.7866 30.3159,89.62 31,92.5C 34.0984,102.227 36.5984,112.227 38.5,122.5C 40.1667,122.5 41.8333,122.5 43.5,122.5C 44.3035,128.512 47.4701,132.512 53,134.5C 53.8732,134.265 54.7065,133.931 55.5,133.5C 58.916,137.587 62.916,140.92 67.5,143.5C 68.3857,144.325 68.719,145.325 68.5,146.5C 71.3155,148.071 74.3155,149.404 77.5,150.5C 78.0318,152.741 79.3651,154.241 81.5,155C 84.1168,155.822 86.7835,156.322 89.5,156.5C 89.3505,157.552 89.5172,158.552 90,159.5C 90.4169,158.244 91.2502,157.577 92.5,157.5 Z"/></g>
<g><path style="opacity:1" fill="#353535" d="M 134.5,78.5 C 133.992,89.4935 133.658,100.493 133.5,111.5C 132.59,113.019 131.757,114.685 131,116.5C 130.667,115.833 130.333,115.167 130,114.5C 129.481,115.516 128.647,116.182 127.5,116.5C 126.045,115.61 124.711,115.61 123.5,116.5C 121.566,116.099 120.066,115.099 119,113.5C 118.667,114.167 118.333,114.833 118,115.5C 115.506,114.225 113.006,112.892 110.5,111.5C 108.282,112.188 106.782,111.188 106,108.5C 105.722,109.416 105.222,110.082 104.5,110.5C 104.666,100.161 104.5,89.828 104,79.5C 102.814,77.3234 100.981,76.3234 98.5,76.5C 98.7373,75.209 98.404,74.209 97.5,73.5C 93.4225,68.8112 89.0892,68.4779 84.5,72.5C 84.44,71.9569 84.1067,71.6236 83.5,71.5C 82.3764,73.3686 81.5431,75.3686 81,77.5C 78.5767,69.6395 76.0767,61.8062 73.5,54C 76.1418,47.0982 78.4751,40.0982 80.5,33C 78.8034,32.6155 77.1368,32.7822 75.5,33.5C 78.894,30.7795 82.5606,28.4462 86.5,26.5C 90.4841,25.3259 94.4841,24.4926 98.5,24C 96.3306,27.7547 93.9972,31.4214 91.5,35C 92.8647,37.8516 92.5314,40.5183 90.5,43C 92.0221,46.6619 92.8555,50.4952 93,54.5C 96.8936,58.1017 99.3936,62.1017 100.5,66.5C 104.199,68.888 107.699,71.5546 111,74.5C 113.111,75.4721 115.278,76.3054 117.5,77C 121.658,81.4993 126.825,83.6659 133,83.5C 133.198,81.6183 133.698,79.9516 134.5,78.5 Z"/></g>
<g><path style="opacity:1" fill="#383209" d="M 148.5,74.5 C 149.338,74.8417 149.672,75.5084 149.5,76.5C 153.509,79.038 155.175,82.8714 154.5,88C 154.071,95.5047 153.571,103.005 153,110.5C 150.916,112.863 149.083,112.863 147.5,110.5C 148.023,98.5065 148.357,86.5065 148.5,74.5 Z"/></g>
<g><path style="opacity:1" fill="#31302e" d="M 193.5,51.5 C 193.5,91.5 193.5,131.5 193.5,171.5C 192.668,154.672 192.168,137.672 192,120.5C 191.667,122.833 191.333,125.167 191,127.5C 190.722,126.584 190.222,125.918 189.5,125.5C 189.574,121.299 187.741,119.965 184,121.5C 183.802,119.618 183.302,117.952 182.5,116.5C 181.341,114.623 179.674,114.123 177.5,115C 176.901,116.622 176.234,118.122 175.5,119.5C 174.503,119.53 173.836,119.03 173.5,118C 174.452,116.7 174.452,115.533 173.5,114.5C 172.708,116.465 172.041,118.465 171.5,120.5C 166.267,121.977 160.934,122.977 155.5,123.5C 154.509,119.555 154.176,115.555 154.5,111.5C 155.445,106.595 155.779,101.595 155.5,96.5C 158.193,96.5715 160.86,96.9049 163.5,97.5C 168.625,95.9 173.959,95.0666 179.5,95C 182.107,94.3631 184.44,93.1965 186.5,91.5C 186.998,92.6034 187.331,93.6034 187.5,94.5C 188.298,92.9223 188.798,91.2556 189,89.5C 189.667,88.1667 190.333,88.1667 191,89.5C 191.903,77.5147 192.403,65.5147 192.5,53.5C 192.328,52.5084 192.662,51.8417 193.5,51.5 Z"/></g>
<g><path style="opacity:1" fill="#161616" d="M 284.5,109.5 C 288.171,121.526 290.171,133.86 290.5,146.5C 289.678,144.611 288.845,142.611 288,140.5C 287.308,143.936 286.308,147.27 285,150.5C 282.619,149.565 280.119,149.232 277.5,149.5C 277.5,152.833 277.5,156.167 277.5,159.5C 269.737,160.382 263.404,163.882 258.5,170C 255.714,172.06 252.714,173.56 249.5,174.5C 249.5,175.5 249.5,176.5 249.5,177.5C 245.453,177.305 241.453,177.638 237.5,178.5C 233.135,182.682 228.135,185.848 222.5,188C 199.036,193.196 175.369,196.029 151.5,196.5C 151.334,188.826 151.5,181.159 152,173.5C 157.351,170.42 162.184,166.753 166.5,162.5C 169.169,160.001 172.002,157.668 175,155.5C 177.501,150.494 180.501,145.827 184,141.5C 186.151,136.213 187.984,130.879 189.5,125.5C 190.222,125.918 190.722,126.584 191,127.5C 191.333,125.167 191.667,122.833 192,120.5C 192.168,137.672 192.668,154.672 193.5,171.5C 194.443,174.109 196.11,176.109 198.5,177.5C 202.665,181.957 207.665,183.124 213.5,181C 214.849,180.228 215.682,179.061 216,177.5C 216.497,174.854 216.664,172.187 216.5,169.5C 217.477,166.713 217.81,163.713 217.5,160.5C 222.99,159.304 228.156,157.304 233,154.5C 233.273,152.671 234.107,151.171 235.5,150C 238.226,149.818 240.893,149.318 243.5,148.5C 246.227,145.741 249.227,143.241 252.5,141C 254.848,140.654 256.681,139.487 258,137.5C 258.333,137.833 258.667,138.167 259,138.5C 266.348,131.135 271.681,122.469 275,112.5C 277.809,111.07 280.143,109.07 282,106.5C 282.377,107.942 283.21,108.942 284.5,109.5 Z"/></g>
<g><path style="opacity:1" fill="#76631b" d="M 135.5,75.5 C 135.401,89.3494 134.735,103.016 133.5,116.5C 133.5,114.833 133.5,113.167 133.5,111.5C 133.658,100.493 133.992,89.4935 134.5,78.5C 134.263,77.209 134.596,76.209 135.5,75.5 Z"/></g>
<g><path style="opacity:1" fill="#f6c70a" d="M 148.5,74.5 C 148.357,86.5065 148.023,98.5065 147.5,110.5C 146.66,125.49 145.993,140.49 145.5,155.5C 144.596,156.209 144.263,157.209 144.5,158.5C 146.819,157.833 149.153,157.666 151.5,158C 152.252,158.671 152.586,159.504 152.5,160.5C 150.41,162.39 148.077,164.057 145.5,165.5C 144.503,172.134 144.17,178.8 144.5,185.5C 144.87,201.853 142.703,217.853 138,233.5C 133.837,243.994 126.67,251.494 116.5,256C 102.179,259.09 93.0125,253.59 89,239.5C 85.7984,222.005 89.2984,206.005 99.5,191.5C 109.021,181.64 119.687,173.306 131.5,166.5C 132.821,157.991 132.821,149.325 131.5,140.5C 126.649,150.06 119.649,157.56 110.5,163C 106.973,163.808 103.64,163.641 100.5,162.5C 103.187,162.664 105.854,162.497 108.5,162C 107.692,161.692 107.025,161.192 106.5,160.5C 107.687,159.481 108.687,158.314 109.5,157C 108.833,156.667 108.167,156.333 107.5,156C 108.598,155.23 108.598,154.397 107.5,153.5C 109.989,153.702 112.323,153.202 114.5,152C 124.103,141.963 130.436,130.13 133.5,116.5C 134.735,103.016 135.401,89.3494 135.5,75.5C 136.203,73.2843 137.536,71.451 139.5,70C 143.923,68.8779 146.923,70.3779 148.5,74.5 Z"/></g>
<g><path style="opacity:1" fill="#2b270b" d="M 97.5,73.5 C 98.404,74.209 98.7373,75.209 98.5,76.5C 100.981,76.3234 102.814,77.3234 104,79.5C 104.5,89.828 104.666,100.161 104.5,110.5C 104.261,122.576 104.927,134.576 106.5,146.5C 105.807,147.518 105.141,148.518 104.5,149.5C 102.538,146.135 101.038,142.468 100,138.5C 97.8915,116.889 97.0582,95.222 97.5,73.5 Z"/></g>
<g><path style="opacity:1" fill="#232322" d="M 133.5,111.5 C 133.5,113.167 133.5,114.833 133.5,116.5C 130.436,130.13 124.103,141.963 114.5,152C 112.323,153.202 109.989,153.702 107.5,153.5C 105.738,152.738 104.738,151.404 104.5,149.5C 105.141,148.518 105.807,147.518 106.5,146.5C 104.927,134.576 104.261,122.576 104.5,110.5C 105.222,110.082 105.722,109.416 106,108.5C 106.782,111.188 108.282,112.188 110.5,111.5C 113.006,112.892 115.506,114.225 118,115.5C 118.333,114.833 118.667,114.167 119,113.5C 120.066,115.099 121.566,116.099 123.5,116.5C 124.711,115.61 126.045,115.61 127.5,116.5C 128.647,116.182 129.481,115.516 130,114.5C 130.333,115.167 130.667,115.833 131,116.5C 131.757,114.685 132.59,113.019 133.5,111.5 Z"/></g>
<g><path style="opacity:1" fill="#252423" d="M 154.5,111.5 C 154.176,115.555 154.509,119.555 155.5,123.5C 160.934,122.977 166.267,121.977 171.5,120.5C 172.041,118.465 172.708,116.465 173.5,114.5C 174.452,115.533 174.452,116.7 173.5,118C 173.836,119.03 174.503,119.53 175.5,119.5C 171.709,132.287 164.709,142.954 154.5,151.5C 153.186,149.085 152.519,146.252 152.5,143C 152.925,132.328 153.591,121.828 154.5,111.5 Z"/></g>
<g><path style="opacity:1" fill="#211e05" d="M 216.5,86.5 C 216.5,92.8333 216.5,99.1667 216.5,105.5C 216.5,121.167 216.5,136.833 216.5,152.5C 215.883,152.611 215.383,152.944 215,153.5C 213.921,145.847 212.921,146.181 212,154.5C 211.827,148.652 211.327,142.985 210.5,137.5C 210.333,118.83 210.5,100.164 211,81.5C 211.138,87.5813 211.804,93.5813 213,99.5C 214.73,95.1913 215.897,90.858 216.5,86.5 Z"/></g>
<g><path style="opacity:1" fill="#fffe8c" d="M 1.5,125.5 C 1.55031,131.389 0.88364,137.056 -0.5,142.5C -0.5,139.167 -0.5,135.833 -0.5,132.5C 0.166667,130.167 0.833333,127.833 1.5,125.5 Z"/></g>
<g><path style="opacity:1" fill="#27230d" d="M 149.5,76.5 C 151.766,76.1412 153.599,76.8078 155,78.5C 155.499,84.4908 155.666,90.4908 155.5,96.5C 155.779,101.595 155.445,106.595 154.5,111.5C 153.591,121.828 152.925,132.328 152.5,143C 152.519,146.252 153.186,149.085 154.5,151.5C 151.821,153.601 148.988,155.601 146,157.5C 145.536,156.906 145.369,156.239 145.5,155.5C 145.993,140.49 146.66,125.49 147.5,110.5C 149.083,112.863 150.916,112.863 153,110.5C 153.571,103.005 154.071,95.5047 154.5,88C 155.175,82.8714 153.509,79.038 149.5,76.5 Z"/></g>
<g><path style="opacity:1" fill="#efbc10" d="M 182.5,116.5 C 178.961,135.579 168.961,150.245 152.5,160.5C 152.586,159.504 152.252,158.671 151.5,158C 149.153,157.666 146.819,157.833 144.5,158.5C 144.263,157.209 144.596,156.209 145.5,155.5C 145.369,156.239 145.536,156.906 146,157.5C 148.988,155.601 151.821,153.601 154.5,151.5C 164.709,142.954 171.709,132.287 175.5,119.5C 176.234,118.122 176.901,116.622 177.5,115C 179.674,114.123 181.341,114.623 182.5,116.5 Z"/></g>
<g><path style="opacity:1" fill="#211e0a" d="M 182.5,116.5 C 183.302,117.952 183.802,119.618 184,121.5C 187.741,119.965 189.574,121.299 189.5,125.5C 187.984,130.879 186.151,136.213 184,141.5C 180.501,145.827 177.501,150.494 175,155.5C 172.002,157.668 169.169,160.001 166.5,162.5C 164.692,162.491 163.025,162.991 161.5,164C 157.729,167.563 153.729,170.73 149.5,173.5C 148.716,170.951 147.549,168.618 146,166.5C 145.828,173.013 145.328,179.347 144.5,185.5C 144.17,178.8 144.503,172.134 145.5,165.5C 148.077,164.057 150.41,162.39 152.5,160.5C 168.961,150.245 178.961,135.579 182.5,116.5 Z"/></g>
<g><path style="opacity:1" fill="#171505" d="M 210.5,137.5 C 211.327,142.985 211.827,148.652 212,154.5C 212.921,146.181 213.921,145.847 215,153.5C 215.383,152.944 215.883,152.611 216.5,152.5C 216.5,158.167 216.5,163.833 216.5,169.5C 216.664,172.187 216.497,174.854 216,177.5C 215.682,179.061 214.849,180.228 213.5,181C 207.665,183.124 202.665,181.957 198.5,177.5C 203.525,178.611 207.192,176.944 209.5,172.5C 210.495,161.012 210.828,149.345 210.5,137.5 Z"/></g>
<g><path style="opacity:1" fill="#0c0c0b" d="M 13.5,126.5 C 17.2726,130.787 20.9392,135.287 24.5,140C 25.7932,140.49 27.1266,140.657 28.5,140.5C 28.5,143.5 28.5,146.5 28.5,149.5C 31.1667,149.5 33.8333,149.5 36.5,149.5C 37.6016,153.037 39.2683,156.37 41.5,159.5C 45.5198,163.009 50.1865,165.176 55.5,166C 57.4121,168.788 60.0787,170.121 63.5,170C 64.5955,171.675 66.0955,172.842 68,173.5C 68.2649,175.651 69.2649,177.318 71,178.5C 74.3394,179.42 77.5061,180.753 80.5,182.5C 81.086,182.291 81.586,181.957 82,181.5C 87.2049,183.454 92.2049,185.787 97,188.5C 97.4226,187.044 98.2559,186.544 99.5,187C 98.5868,188.414 98.5868,189.914 99.5,191.5C 89.2984,206.005 85.7984,222.005 89,239.5C 93.0125,253.59 102.179,259.09 116.5,256C 126.67,251.494 133.837,243.994 138,233.5C 142.703,217.853 144.87,201.853 144.5,185.5C 145.328,179.347 145.828,173.013 146,166.5C 147.549,168.618 148.716,170.951 149.5,173.5C 153.729,170.73 157.729,167.563 161.5,164C 163.025,162.991 164.692,162.491 166.5,162.5C 162.184,166.753 157.351,170.42 152,173.5C 151.5,181.159 151.334,188.826 151.5,196.5C 175.369,196.029 199.036,193.196 222.5,188C 228.135,185.848 233.135,182.682 237.5,178.5C 241.453,177.638 245.453,177.305 249.5,177.5C 249.5,176.5 249.5,175.5 249.5,174.5C 252.714,173.56 255.714,172.06 258.5,170C 263.404,163.882 269.737,160.382 277.5,159.5C 277.5,156.167 277.5,152.833 277.5,149.5C 280.119,149.232 282.619,149.565 285,150.5C 286.308,147.27 287.308,143.936 288,140.5C 288.845,142.611 289.678,144.611 290.5,146.5C 289.872,197.598 268.872,237.764 227.5,267C 220.726,271.054 213.726,274.554 206.5,277.5C 193.519,277.909 180.519,277.242 167.5,275.5C 151.275,276.028 135.109,277.028 119,278.5C 118.667,278.167 118.333,277.833 118,277.5C 114.173,278.959 110.173,279.626 106,279.5C 101.351,279.56 96.8509,278.893 92.5,277.5C 40.0527,250.16 13.0527,206.66 11.5,147C 11.7653,140.114 12.432,133.28 13.5,126.5 Z"/></g>
<g><path style="opacity:1" fill="#1c1907" d="M 131.5,166.5 C 131.664,163.813 131.497,161.146 131,158.5C 127.132,163.032 122.632,166.865 117.5,170C 112.833,170.667 108.167,170.667 103.5,170C 100.614,167.614 98.2802,164.781 96.5,161.5C 97.8333,161.833 99.1667,162.167 100.5,162.5C 103.64,163.641 106.973,163.808 110.5,163C 119.649,157.56 126.649,150.06 131.5,140.5C 132.821,149.325 132.821,157.991 131.5,166.5 Z"/></g>
<g><path style="opacity:1" fill="#161407" d="M 130.5,192.5 C 130.664,189.813 130.497,187.146 130,184.5C 119.214,191.621 110.881,200.954 105,212.5C 104.667,211.5 104.333,210.5 104,209.5C 103.259,210.641 102.425,210.641 101.5,209.5C 100.201,210.09 99.3678,211.09 99,212.5C 98.6667,212.167 98.3333,211.833 98,211.5C 97.7679,212.737 97.2679,213.737 96.5,214.5C 97.8664,206.434 101.366,199.434 107,193.5C 114.11,186.219 121.943,179.885 130.5,174.5C 131.817,180.654 131.817,186.654 130.5,192.5 Z"/></g>
<g><path style="opacity:1" fill="#f2c20b" d="M 198.5,206.5 C 208.685,206.834 212.519,211.834 210,221.5C 203.799,228.493 198.132,228.159 193,220.5C 191.268,214.314 193.101,209.647 198.5,206.5 Z"/></g>
<g><path style="opacity:1" fill="#0e0d0a" d="M 130.5,192.5 C 130.948,203.605 130.114,214.605 128,225.5C 125.372,234.259 120.205,241.092 112.5,246C 106.006,249.043 100.839,247.543 97,241.5C 93.8647,232.576 93.698,223.576 96.5,214.5C 97.2679,213.737 97.7679,212.737 98,211.5C 98.3333,211.833 98.6667,212.167 99,212.5C 99.3678,211.09 100.201,210.09 101.5,209.5C 102.425,210.641 103.259,210.641 104,209.5C 104.333,210.5 104.667,211.5 105,212.5C 110.881,200.954 119.214,191.621 130,184.5C 130.497,187.146 130.664,189.813 130.5,192.5 Z"/></g>
<g><path style="opacity:1" fill="#222221" d="M 206.5,277.5 C 201.883,280.266 196.883,282.266 191.5,283.5C 186.712,283.296 182.046,283.296 177.5,283.5C 174.298,282.873 171.131,282.206 168,281.5C 148.476,282.472 129.31,283.472 110.5,284.5C 107.691,282.103 104.358,280.77 100.5,280.5C 97.4582,280.267 94.7916,279.267 92.5,277.5C 96.8509,278.893 101.351,279.56 106,279.5C 110.173,279.626 114.173,278.959 118,277.5C 118.333,277.833 118.667,278.167 119,278.5C 135.109,277.028 151.275,276.028 167.5,275.5C 180.519,277.242 193.519,277.909 206.5,277.5 Z"/></g>
<g><path style="opacity:1" fill="#828275" d="M 100.5,280.5 C 104.358,280.77 107.691,282.103 110.5,284.5C 109.127,284.657 107.793,284.49 106.5,284C 104.382,282.918 102.382,281.751 100.5,280.5 Z"/></g>
<g><path style="opacity:1" fill="#303030" d="M 191.5,283.5 C 184.449,286.095 177.116,287.761 169.5,288.5C 153.44,290.061 137.44,289.728 121.5,287.5C 119.485,286.076 117.152,285.41 114.5,285.5C 112.901,285.768 111.568,285.434 110.5,284.5C 129.31,283.472 148.476,282.472 168,281.5C 171.131,282.206 174.298,282.873 177.5,283.5C 182.046,283.296 186.712,283.296 191.5,283.5 Z"/></g>
<g><path style="opacity:1" fill="#bdbd9b" d="M 114.5,285.5 C 117.152,285.41 119.485,286.076 121.5,287.5C 118.848,287.59 116.515,286.924 114.5,285.5 Z"/></g>
<g><path style="opacity:1" fill="#aaa997" d="M 121.5,287.5 C 137.44,289.728 153.44,290.061 169.5,288.5C 168.048,289.302 166.382,289.802 164.5,290C 153.833,290.667 143.167,290.667 132.5,290C 128.535,289.892 124.868,289.059 121.5,287.5 Z"/></g>
</svg>
