<?xml version="1.0" encoding="UTF-8"?>
<!DOCTYPE svg PUBLIC "-//W3C//DTD SVG 1.1//EN" "http://www.w3.org/Graphics/SVG/1.1/DTD/svg11.dtd">
<svg xmlns="http://www.w3.org/2000/svg" version="1.1" width="207px" height="207px" style="shape-rendering:geometricPrecision; text-rendering:geometricPrecision; image-rendering:optimizeQuality; fill-rule:evenodd; clip-rule:evenodd" xmlns:xlink="http://www.w3.org/1999/xlink">
<g><path style="opacity:0.931" fill="#435570" d="M 130.5,6.5 C 124.828,6.24009 119.161,5.90676 113.5,5.5C 101.281,4.76155 89.2807,5.76155 77.5,8.5C 75.1016,8.25939 73.1016,8.92606 71.5,10.5C 46.3378,19.0007 27.6711,35.0007 15.5,58.5C 13.1824,60.1852 12.1824,62.5185 12.5,65.5C 11.8333,66.8333 11.1667,68.1667 10.5,69.5C 9.13592,73.6189 7.46925,77.6189 5.5,81.5C 5.5,79.8333 5.5,78.1667 5.5,76.5C 12.6411,51.1799 27.3078,31.3465 49.5,17C 75.2122,2.30096 102.212,-1.19904 130.5,6.5 Z"/></g>
<g><path style="opacity:0.569" fill="#697d8f" d="M 113.5,5.5 C 119.161,5.90676 124.828,6.24009 130.5,6.5C 131.167,6.5 131.833,6.5 132.5,6.5C 133.147,8.14054 134.147,9.47387 135.5,10.5C 128.138,8.45742 120.805,6.79075 113.5,5.5 Z"/></g>
<g><path style="opacity:0.753" fill="#3c4c61" d="M 132.5,6.5 C 139.74,8.45773 146.407,11.4577 152.5,15.5C 149.5,14.8333 146.5,14.1667 143.5,13.5C 141.316,11.4152 138.649,10.4152 135.5,10.5C 134.147,9.47387 133.147,8.14054 132.5,6.5 Z"/></g>
<g><path style="opacity:1" fill="#b0c0d8" d="M 77.5,8.5 C 75.8984,10.0739 73.8984,10.7406 71.5,10.5C 73.1016,8.92606 75.1016,8.25939 77.5,8.5 Z"/></g>
<g><path style="opacity:0.89" fill="#8798ab" d="M 135.5,10.5 C 138.649,10.4152 141.316,11.4152 143.5,13.5C 140.458,13.2671 137.792,12.2671 135.5,10.5 Z"/></g>
<g><path style="opacity:1" fill="#f5f6f6" d="M 113.5,5.5 C 120.805,6.79075 128.138,8.45742 135.5,10.5C 137.792,12.2671 140.458,13.2671 143.5,13.5C 149.602,17.3904 155.935,21.0571 162.5,24.5C 163.585,26.5869 165.251,27.9202 167.5,28.5C 167.5,28.8333 167.5,29.1667 167.5,29.5C 172.418,33.4122 177.084,37.7456 181.5,42.5C 185.229,47.5674 188.562,52.9007 191.5,58.5C 191.12,60.698 191.787,62.3646 193.5,63.5C 194.167,65.5 194.833,67.5 195.5,69.5C 190.821,69.3342 186.155,69.5008 181.5,70C 179.583,74.0273 177.583,77.8607 175.5,81.5C 175.5,81.8333 175.5,82.1667 175.5,82.5C 172.862,84.1223 170.196,85.7889 167.5,87.5C 166.127,85.7935 164.461,84.4602 162.5,83.5C 162.446,81.368 161.446,80.0347 159.5,79.5C 159.25,77.326 158.25,75.6594 156.5,74.5C 155.869,71.7455 154.202,69.9122 151.5,69C 145.984,68.1826 140.65,68.3493 135.5,69.5C 114.867,68.7841 94.2001,68.1175 73.5,67.5C 58.14,67.7273 43.14,68.7273 28.5,70.5C 27.5,70.5 26.5,70.5 25.5,70.5C 25.5,69.5 25.5,68.5 25.5,67.5C 25.5,67.1667 25.5,66.8333 25.5,66.5C 26.8009,65.1155 26.8009,63.6155 25.5,62C 22.1832,61.5017 18.8499,61.335 15.5,61.5C 15.5,60.5 15.5,59.5 15.5,58.5C 27.6711,35.0007 46.3378,19.0007 71.5,10.5C 73.8984,10.7406 75.8984,10.0739 77.5,8.5C 89.2807,5.76155 101.281,4.76155 113.5,5.5 Z"/></g>
<g><path style="opacity:0.816" fill="#738090" d="M 143.5,13.5 C 146.5,14.1667 149.5,14.8333 152.5,15.5C 152.833,15.5 153.167,15.5 153.5,15.5C 155.475,18.3462 158.141,20.5129 161.5,22C 162.252,22.6708 162.586,23.5041 162.5,24.5C 155.935,21.0571 149.602,17.3904 143.5,13.5 Z"/></g>
<g><path style="opacity:0.902" fill="#35475e" d="M 153.5,15.5 C 161.438,19.6318 168.438,24.9652 174.5,31.5C 172.254,30.5448 169.921,29.8782 167.5,29.5C 167.5,29.1667 167.5,28.8333 167.5,28.5C 166.415,26.4131 164.749,25.0798 162.5,24.5C 162.586,23.5041 162.252,22.6708 161.5,22C 158.141,20.5129 155.475,18.3462 153.5,15.5 Z"/></g>
<g><path style="opacity:0.98" fill="#829ab3" d="M 162.5,24.5 C 164.749,25.0798 166.415,26.4131 167.5,28.5C 165.251,27.9202 163.585,26.5869 162.5,24.5 Z"/></g>
<g><path style="opacity:0.2" fill="#2b3c50" d="M 174.5,31.5 C 176.587,32.5846 177.92,34.2512 178.5,36.5C 176.413,35.4154 175.08,33.7488 174.5,31.5 Z"/></g>
<g><path style="opacity:0.898" fill="#657b93" d="M 167.5,29.5 C 169.921,29.8782 172.254,30.5448 174.5,31.5C 175.08,33.7488 176.413,35.4154 178.5,36.5C 179.096,38.7454 180.096,40.7454 181.5,42.5C 177.084,37.7456 172.418,33.4122 167.5,29.5 Z"/></g>
<g><path style="opacity:0.227" fill="#3e5067" d="M 178.5,36.5 C 181.832,39 184.666,42 187,45.5C 190.956,51.0794 194.123,57.0794 196.5,63.5C 195.5,63.5 194.5,63.5 193.5,63.5C 193.88,61.302 193.213,59.6354 191.5,58.5C 188.562,52.9007 185.229,47.5674 181.5,42.5C 180.096,40.7454 179.096,38.7454 178.5,36.5 Z"/></g>
<g><path style="opacity:1" fill="#8d9dbe" d="M 191.5,58.5 C 193.213,59.6354 193.88,61.302 193.5,63.5C 191.787,62.3646 191.12,60.698 191.5,58.5 Z"/></g>
<g><path style="opacity:1" fill="#96bbd1" d="M 15.5,58.5 C 15.5,59.5 15.5,60.5 15.5,61.5C 16.7196,63.2821 17.3862,65.2821 17.5,67.5C 15.4458,67.6347 13.7791,66.968 12.5,65.5C 12.1824,62.5185 13.1824,60.1852 15.5,58.5 Z"/></g>
<g><path style="opacity:1" fill="#70a9c0" d="M 25.5,66.5 C 25.5,66.8333 25.5,67.1667 25.5,67.5C 24.1667,67.5 22.8333,67.5 21.5,67.5C 21.5,66.1667 21.5,64.8333 21.5,63.5C 22.8333,63.5 24.1667,63.5 25.5,63.5C 25.5,64.5 25.5,65.5 25.5,66.5 Z"/></g>
<g><path style="opacity:1" fill="#d2e6f3" d="M 135.5,69.5 C 135.833,69.5 136.167,69.5 136.5,69.5C 136.5,69.8333 136.5,70.1667 136.5,70.5C 136.167,70.5 135.833,70.5 135.5,70.5C 111.32,70.347 87.3198,70.347 63.5,70.5C 51.8333,70.5 40.1667,70.5 28.5,70.5C 43.14,68.7273 58.14,67.7273 73.5,67.5C 94.2001,68.1175 114.867,68.7841 135.5,69.5 Z"/></g>
<g><path style="opacity:1" fill="#caf8dc" d="M 135.5,69.5 C 140.65,68.3493 145.984,68.1826 151.5,69C 154.202,69.9122 155.869,71.7455 156.5,74.5C 155.167,73.5 153.833,72.5 152.5,71.5C 152.082,70.7784 151.416,70.2784 150.5,70C 145.845,69.5008 141.179,69.3342 136.5,69.5C 136.167,69.5 135.833,69.5 135.5,69.5 Z"/></g>
<g><path style="opacity:1" fill="#a5eac9" d="M 195.5,69.5 C 196.167,71.1667 196.833,72.8333 197.5,74.5C 196.833,74.5 196.167,74.5 195.5,74.5C 195.67,73.1779 195.337,72.0113 194.5,71C 190.5,70.3333 186.5,70.3333 182.5,71C 181.871,73.3748 180.871,75.5414 179.5,77.5C 177.806,78.5274 176.473,79.8608 175.5,81.5C 177.583,77.8607 179.583,74.0273 181.5,70C 186.155,69.5008 190.821,69.3342 195.5,69.5 Z"/></g>
<g><path style="opacity:1" fill="#6ddea5" d="M 136.5,70.5 C 136.5,70.1667 136.5,69.8333 136.5,69.5C 141.179,69.3342 145.845,69.5008 150.5,70C 151.416,70.2784 152.082,70.7784 152.5,71.5C 149.287,71.19 146.287,71.5233 143.5,72.5C 141.071,72.1156 138.737,71.449 136.5,70.5 Z"/></g>
<g><path style="opacity:1" fill="#509abc" d="M 135.5,70.5 C 135.5,70.8333 135.5,71.1667 135.5,71.5C 100.663,71.9755 65.9967,71.9755 31.5,71.5C 42.3464,71.8278 53.0131,71.4944 63.5,70.5C 87.3198,70.347 111.32,70.347 135.5,70.5 Z"/></g>
<g><path style="opacity:1" fill="#338ca9" d="M 31.5,71.5 C 65.9967,71.9755 100.663,71.9755 135.5,71.5C 137.434,72.1103 139.101,73.1103 140.5,74.5C 121.345,73.2538 102.345,73.2538 83.5,74.5C 82.1667,74.5 80.8333,74.5 79.5,74.5C 78.4324,73.5655 77.099,73.2322 75.5,73.5C 75.5,74.8333 75.5,76.1667 75.5,77.5C 76.8333,77.5 78.1667,77.5 79.5,77.5C 98.5,78.1667 117.5,78.8333 136.5,79.5C 118.155,79.1671 99.8212,79.5004 81.5,80.5C 82.7349,82.3163 82.7349,83.983 81.5,85.5C 80.8333,85.1667 80.1667,84.8333 79.5,84.5C 75.9225,78.2382 70.5891,74.9049 63.5,74.5C 52.3262,73.8333 40.9929,73.1667 29.5,72.5C 29.9569,71.7025 30.6236,71.3691 31.5,71.5 Z"/></g>
<g><path style="opacity:1" fill="#65abc2" d="M 28.5,70.5 C 40.1667,70.5 51.8333,70.5 63.5,70.5C 53.0131,71.4944 42.3464,71.8278 31.5,71.5C 30.6236,71.3691 29.9569,71.7025 29.5,72.5C 40.9929,73.1667 52.3262,73.8333 63.5,74.5C 51.8333,74.5 40.1667,74.5 28.5,74.5C 28.5,73.1667 28.5,71.8333 28.5,70.5 Z"/></g>
<g><path style="opacity:1" fill="#5ca7bb" d="M 83.5,74.5 C 102.345,73.2538 121.345,73.2538 140.5,74.5C 141.5,75.8333 142.5,77.1667 143.5,78.5C 141.804,78.3146 140.471,77.4813 139.5,76C 120.87,74.5959 102.204,74.0959 83.5,74.5 Z"/></g>
<g><path style="opacity:0.798" fill="#516f86" d="M 193.5,63.5 C 194.5,63.5 195.5,63.5 196.5,63.5C 199.271,68.4031 200.937,73.7364 201.5,79.5C 201.829,92.0113 201.495,104.345 200.5,116.5C 200.828,105.321 200.495,94.3206 199.5,83.5C 199.768,81.901 199.434,80.5676 198.5,79.5C 198.634,77.7085 198.301,76.0418 197.5,74.5C 196.833,72.8333 196.167,71.1667 195.5,69.5C 194.833,67.5 194.167,65.5 193.5,63.5 Z"/></g>
<g><path style="opacity:1" fill="#1f7cb2" d="M 79.5,74.5 C 79.5,75.5 79.5,76.5 79.5,77.5C 78.1667,77.5 76.8333,77.5 75.5,77.5C 75.5,76.1667 75.5,74.8333 75.5,73.5C 77.099,73.2322 78.4324,73.5655 79.5,74.5 Z"/></g>
<g><path style="opacity:1" fill="#95f2bd" d="M 146.5,75.5 C 146.5,75.1667 146.5,74.8333 146.5,74.5C 150.237,74.2407 152.57,75.9074 153.5,79.5C 152.078,78.075 150.411,77.075 148.5,76.5C 148.158,75.6618 147.492,75.3284 146.5,75.5 Z"/></g>
<g><path style="opacity:1" fill="#56d192" d="M 195.5,74.5 C 195.167,74.5 194.833,74.5 194.5,74.5C 192.167,74.5 189.833,74.5 187.5,74.5C 185.204,75.8191 183.204,77.4857 181.5,79.5C 181.5,78.1667 180.833,77.5 179.5,77.5C 180.871,75.5414 181.871,73.3748 182.5,71C 186.5,70.3333 190.5,70.3333 194.5,71C 195.337,72.0113 195.67,73.1779 195.5,74.5 Z"/></g>
<g><path style="opacity:1" fill="#2cc678" d="M 187.5,74.5 C 185.883,75.038 184.216,75.3713 182.5,75.5C 182.33,74.1779 182.663,73.0113 183.5,72C 186.882,71.1764 190.216,71.343 193.5,72.5C 191.369,73.1687 189.369,73.8354 187.5,74.5 Z"/></g>
<g><path style="opacity:1" fill="#39cb80" d="M 152.5,71.5 C 153.833,72.5 155.167,73.5 156.5,74.5C 155.916,77.285 156.916,78.9517 159.5,79.5C 159.088,81.9726 160.088,83.3059 162.5,83.5C 163.167,85.5 163.833,87.5 164.5,89.5C 164.631,90.3764 164.298,91.0431 163.5,91.5C 162.378,90.3698 161.044,89.7031 159.5,89.5C 158.521,85.5395 156.521,82.2061 153.5,79.5C 152.57,75.9074 150.237,74.2407 146.5,74.5C 144.821,74.7148 143.821,74.0481 143.5,72.5C 146.287,71.5233 149.287,71.19 152.5,71.5 Z"/></g>
<g><path style="opacity:1" fill="#91e7b8" d="M 156.5,74.5 C 158.25,75.6594 159.25,77.326 159.5,79.5C 156.916,78.9517 155.916,77.285 156.5,74.5 Z"/></g>
<g><path style="opacity:1" fill="#d2edf5" d="M 10.5,70.5 C 11.8322,80.9788 12.4988,91.8121 12.5,103C 12.4999,114.005 12.1665,124.839 11.5,135.5C 10.596,134.791 10.2627,133.791 10.5,132.5C 10.4126,111.764 10.4126,91.0975 10.5,70.5 Z"/></g>
<g><path style="opacity:1" fill="#a6d5e9" d="M 135.5,82.5 C 135.5,82.8333 135.5,83.1667 135.5,83.5C 120.163,83.3334 104.83,83.5001 89.5,84C 103.673,84.1689 117.673,84.6689 131.5,85.5C 116.833,85.5 102.167,85.5 87.5,85.5C 85.4677,84.9522 84.4677,83.6188 84.5,81.5C 101.547,81.1949 118.547,81.5282 135.5,82.5 Z"/></g>
<g><path style="opacity:1" fill="#b4edcd" d="M 159.5,79.5 C 161.446,80.0347 162.446,81.368 162.5,83.5C 160.088,83.3059 159.088,81.9726 159.5,79.5 Z"/></g>
<g><path style="opacity:1" fill="#30cc76" d="M 179.5,77.5 C 180.833,77.5 181.5,78.1667 181.5,79.5C 179.5,82.8333 177.5,86.1667 175.5,89.5C 175.5,89.8333 175.5,90.1667 175.5,90.5C 174.305,90.1344 173.639,89.301 173.5,88C 174.414,86.5936 175.08,85.0936 175.5,83.5C 175.5,83.1667 175.5,82.8333 175.5,82.5C 175.5,82.1667 175.5,81.8333 175.5,81.5C 176.473,79.8608 177.806,78.5274 179.5,77.5 Z"/></g>
<g><path style="opacity:1" fill="#bff3d6" d="M 187.5,74.5 C 189.833,74.5 192.167,74.5 194.5,74.5C 193.5,75.8333 192.5,77.1667 191.5,78.5C 189.883,79.038 188.216,79.3713 186.5,79.5C 185.378,82.4902 183.544,85.1569 181,87.5C 180.484,91.1655 178.651,93.8322 175.5,95.5C 176.048,93.6064 177.048,91.9397 178.5,90.5C 177.675,89.6143 176.675,89.281 175.5,89.5C 177.5,86.1667 179.5,82.8333 181.5,79.5C 183.204,77.4857 185.204,75.8191 187.5,74.5 Z"/></g>
<g><path style="opacity:1" fill="#d7f5fe" d="M 135.5,83.5 C 136.622,85.0518 137.122,86.7184 137,88.5C 135.871,86.8588 134.371,85.8588 132.5,85.5C 132.167,85.5 131.833,85.5 131.5,85.5C 117.673,84.6689 103.673,84.1689 89.5,84C 104.83,83.5001 120.163,83.3334 135.5,83.5 Z"/></g>
<g><path style="opacity:1" fill="#4dbba5" d="M 146.5,75.5 C 147.492,75.3284 148.158,75.6618 148.5,76.5C 149.913,79.6612 151.58,82.6612 153.5,85.5C 150.956,82.6935 149.956,83.3601 150.5,87.5C 149.799,83.3984 148.466,79.3984 146.5,75.5 Z"/></g>
<g><path style="opacity:1" fill="#d3f6dd" d="M 175.5,82.5 C 175.5,82.8333 175.5,83.1667 175.5,83.5C 173.21,86.292 170.71,88.9586 168,91.5C 166.697,91.0217 165.531,90.355 164.5,89.5C 163.833,87.5 163.167,85.5 162.5,83.5C 164.461,84.4602 166.127,85.7935 167.5,87.5C 170.196,85.7889 172.862,84.1223 175.5,82.5 Z"/></g>
<g><path style="opacity:1" fill="#4495af" d="M 87.5,85.5 C 102.167,85.5 116.833,85.5 131.5,85.5C 131.833,85.5 132.167,85.5 132.5,85.5C 132.5,85.8333 132.5,86.1667 132.5,86.5C 120.268,88.285 107.935,88.9516 95.5,88.5C 100.651,87.6733 105.984,87.1733 111.5,87C 103.323,86.8292 95.3228,86.3292 87.5,85.5 Z"/></g>
<g><path style="opacity:1" fill="#37c78b" d="M 153.5,85.5 C 154.338,85.8417 154.672,86.5084 154.5,87.5C 152.744,88.5521 152.077,90.2188 152.5,92.5C 151.833,92.1667 151.167,91.8333 150.5,91.5C 150.5,90.1667 150.5,88.8333 150.5,87.5C 149.956,83.3601 150.956,82.6935 153.5,85.5 Z"/></g>
<g><path style="opacity:1" fill="#ccf9dd" d="M 148.5,76.5 C 150.411,77.075 152.078,78.075 153.5,79.5C 156.521,82.2061 158.521,85.5395 159.5,89.5C 161.344,91.6719 163.011,94.0053 164.5,96.5C 164,96.8333 163.5,97.1667 163,97.5C 160.333,94.002 157.5,90.6686 154.5,87.5C 154.672,86.5084 154.338,85.8417 153.5,85.5C 151.58,82.6612 149.913,79.6612 148.5,76.5 Z"/></g>
<g><path style="opacity:1" fill="#82e0b4" d="M 198.5,79.5 C 199.434,80.5676 199.768,81.901 199.5,83.5C 199.5,84.1667 199.5,84.8333 199.5,85.5C 197.737,88.0196 195.737,90.3529 193.5,92.5C 194.825,89.8502 196.158,87.1835 197.5,84.5C 197.167,83.8333 196.833,83.1667 196.5,82.5C 195.055,84.3936 193.388,86.0603 191.5,87.5C 192.479,83.5281 194.812,80.8614 198.5,79.5 Z"/></g>
<g><path style="opacity:1" fill="#a9d9e6" d="M 135.5,83.5 C 137.017,83.5106 138.184,84.1772 139,85.5C 139.499,91.4908 139.666,97.4908 139.5,103.5C 139.167,105.833 137.833,107.167 135.5,107.5C 138.143,104.66 138.976,101.327 138,97.5C 137.768,98.7375 137.268,99.7375 136.5,100.5C 136.665,96.8183 136.499,93.1516 136,89.5C 134.961,88.2899 133.794,87.2899 132.5,86.5C 132.5,86.1667 132.5,85.8333 132.5,85.5C 134.371,85.8588 135.871,86.8588 137,88.5C 137.122,86.7184 136.622,85.0518 135.5,83.5 Z"/></g>
<g><path style="opacity:1" fill="#afd4e4" d="M 12.5,65.5 C 13.7791,66.968 15.4458,67.6347 17.5,67.5C 17.5,68.8333 17.5,70.1667 17.5,71.5C 18.6628,92.9961 18.8295,114.663 18,136.5C 16.6439,137.38 15.1439,137.714 13.5,137.5C 13.5,138.833 13.5,140.167 13.5,141.5C 11.8958,140.713 11.2291,139.38 11.5,137.5C 11.5,136.833 11.5,136.167 11.5,135.5C 12.1665,124.839 12.4999,114.005 12.5,103C 12.4988,91.8121 11.8322,80.9788 10.5,70.5C 10.5,70.1667 10.5,69.8333 10.5,69.5C 11.1667,68.1667 11.8333,66.8333 12.5,65.5 Z"/></g>
<g><path style="opacity:0.864" fill="#394a6c" d="M 5.5,76.5 C 5.5,78.1667 5.5,79.8333 5.5,81.5C 5.5,83.5 5.5,85.5 5.5,87.5C 5.5,88.1667 5.5,88.8333 5.5,89.5C 4.5054,100.321 4.17207,111.321 4.5,122.5C 1.11473,109.762 0.614731,96.7624 3,83.5C 3.39034,80.8958 4.22367,78.5625 5.5,76.5 Z"/></g>
<g><path style="opacity:1" fill="#c1e2ef" d="M 25.5,70.5 C 26.5,70.5 27.5,70.5 28.5,70.5C 28.5,71.8333 28.5,73.1667 28.5,74.5C 40.1667,74.5 51.8333,74.5 63.5,74.5C 70.5891,74.9049 75.9225,78.2382 79.5,84.5C 79.631,85.2389 79.4643,85.9056 79,86.5C 77.9609,85.2899 76.7942,84.2899 75.5,83.5C 72.6859,81.3189 69.6859,79.6523 66.5,78.5C 54.011,77.5046 41.3443,77.1713 28.5,77.5C 28.5,79.1667 28.5,80.8333 28.5,82.5C 41.1667,82.5 53.8333,82.5 66.5,82.5C 69.117,83.7859 71.4504,85.4525 73.5,87.5C 74.4486,97.1141 74.7819,106.781 74.5,116.5C 74.9819,119.831 73.9819,122.497 71.5,124.5C 70.8333,124.833 70.1667,125.167 69.5,125.5C 61.6924,126.098 53.8591,126.431 46,126.5C 39.1307,126.497 32.6307,125.83 26.5,124.5C 26.5,124.167 26.5,123.833 26.5,123.5C 39.8375,123.667 53.1708,123.5 66.5,123C 67.6364,121.855 68.6364,120.688 69.5,119.5C 70.6585,109.342 70.8252,99.0083 70,88.5C 69.6174,87.944 69.1174,87.6107 68.5,87.5C 67.609,86.8902 66.609,86.5569 65.5,86.5C 65.0825,85.7784 64.4158,85.2784 63.5,85C 51.8381,84.5001 40.1714,84.3335 28.5,84.5C 28.5,86.5 28.5,88.5 28.5,90.5C 40.8378,90.3335 53.1712,90.5001 65.5,91C 66.8281,99.9316 66.8281,108.765 65.5,117.5C 65.8166,108.915 65.4832,100.415 64.5,92C 51.8377,91.5001 39.1711,91.3334 26.5,91.5C 26.5,100.5 26.5,109.5 26.5,118.5C 38.8333,118.5 51.1667,118.5 63.5,118.5C 51.011,119.495 38.3443,119.829 25.5,119.5C 25.5,119.167 25.5,118.833 25.5,118.5C 25.5,102.5 25.5,86.5 25.5,70.5 Z"/></g>
<g><path style="opacity:1" fill="#82bad0" d="M 66.5,78.5 C 54.4954,78.3335 42.4954,78.5001 30.5,79C 30.0426,79.414 29.7093,79.914 29.5,80.5C 41.9934,81.1667 54.3268,81.8333 66.5,82.5C 53.8333,82.5 41.1667,82.5 28.5,82.5C 28.5,80.8333 28.5,79.1667 28.5,77.5C 41.3443,77.1713 54.011,77.5046 66.5,78.5 Z"/></g>
<g><path style="opacity:1" fill="#d3e7f8" d="M 88.5,89.5 C 102.504,89.3334 116.504,89.5001 130.5,90C 132.321,92.456 132.988,95.2893 132.5,98.5C 132.167,98.5 131.833,98.5 131.5,98.5C 131.756,96.2075 131.423,94.0408 130.5,92C 116.504,91.5001 102.504,91.3334 88.5,91.5C 88.5,94.1667 88.5,96.8333 88.5,99.5C 101.677,99.1712 114.677,99.5045 127.5,100.5C 114.167,100.5 100.833,100.5 87.5,100.5C 85.9935,96.7166 86.3268,93.0499 88.5,89.5 Z"/></g>
<g><path style="opacity:1" fill="#91bad1" d="M 10.5,69.5 C 10.5,69.8333 10.5,70.1667 10.5,70.5C 10.4126,91.0975 10.4126,111.764 10.5,132.5C 9.13161,128.244 7.63161,123.911 6,119.5C 5.50258,116.854 5.33591,114.187 5.5,111.5C 6.30912,113.292 6.80912,115.292 7,117.5C 7.66667,107.167 7.66667,96.8333 7,86.5C 6.61742,87.056 6.11742,87.3893 5.5,87.5C 5.5,85.5 5.5,83.5 5.5,81.5C 7.46925,77.6189 9.13592,73.6189 10.5,69.5 Z"/></g>
<g><path style="opacity:1" fill="#9ed7ee" d="M 143.5,79.5 C 145.408,80.4856 146.408,82.1523 146.5,84.5C 146.5,91.8333 146.5,99.1667 146.5,106.5C 146.167,106.5 145.833,106.5 145.5,106.5C 146.046,97.3343 145.379,88.3343 143.5,79.5 Z"/></g>
<g><path style="opacity:1" fill="#4998ba" d="M 138.5,81.5 C 140.624,82.0312 142.124,83.3645 143,85.5C 143.667,92.1667 143.667,98.8333 143,105.5C 142.617,106.056 142.117,106.389 141.5,106.5C 142.509,103.473 142.509,100.473 141.5,97.5C 140.831,99.6309 140.165,101.631 139.5,103.5C 139.666,97.4908 139.499,91.4908 139,85.5C 138.184,84.1772 137.017,83.5106 135.5,83.5C 135.5,83.1667 135.5,82.8333 135.5,82.5C 136.791,82.7373 137.791,82.404 138.5,81.5 Z"/></g>
<g><path style="opacity:1" fill="#f5f7f7" d="M 131.5,98.5 C 130.713,100.104 129.38,100.771 127.5,100.5C 114.677,99.5045 101.677,99.1712 88.5,99.5C 88.5,96.8333 88.5,94.1667 88.5,91.5C 102.504,91.3334 116.504,91.5001 130.5,92C 131.423,94.0408 131.756,96.2075 131.5,98.5 Z"/></g>
<g><path style="opacity:1" fill="#91e8b5" d="M 185.5,89.5 C 185.155,92.1979 183.822,94.1979 181.5,95.5C 182.34,93.1475 183.674,91.1475 185.5,89.5 Z"/></g>
<g><path style="opacity:1" fill="#d0eaf3" d="M 15.5,61.5 C 18.8499,61.335 22.1832,61.5017 25.5,62C 26.8009,63.6155 26.8009,65.1155 25.5,66.5C 25.5,65.5 25.5,64.5 25.5,63.5C 24.1667,63.5 22.8333,63.5 21.5,63.5C 21.5,64.8333 21.5,66.1667 21.5,67.5C 22.8333,67.5 24.1667,67.5 25.5,67.5C 25.5,68.5 25.5,69.5 25.5,70.5C 24.3121,69.3157 23.1455,69.3157 22,70.5C 21.1705,92.6705 21.3371,114.671 22.5,136.5C 39.6586,137.497 56.992,137.83 74.5,137.5C 55.0071,138.497 35.3404,138.83 15.5,138.5C 15.5,140.167 15.5,141.833 15.5,143.5C 14.8333,142.833 14.1667,142.167 13.5,141.5C 13.5,140.167 13.5,138.833 13.5,137.5C 15.1439,137.714 16.6439,137.38 18,136.5C 18.8295,114.663 18.6628,92.9961 17.5,71.5C 17.5,70.1667 17.5,68.8333 17.5,67.5C 17.3862,65.2821 16.7196,63.2821 15.5,61.5 Z"/></g>
<g><path style="opacity:1" fill="#5ba6c6" d="M 25.5,70.5 C 25.5,86.5 25.5,102.5 25.5,118.5C 24.8333,102.995 24.1667,87.3281 23.5,71.5C 22.5003,93.1564 22.167,114.823 22.5,136.5C 21.3371,114.671 21.1705,92.6705 22,70.5C 23.1455,69.3157 24.3121,69.3157 25.5,70.5 Z"/></g>
<g><path style="opacity:1" fill="#3d8fb3" d="M 66.5,78.5 C 69.6859,79.6523 72.6859,81.3189 75.5,83.5C 76.5114,85.3716 77.3448,87.3716 78,89.5C 78.4998,99.4944 78.6665,109.494 78.5,119.5C 77.2628,121.774 75.9295,124.107 74.5,126.5C 73.675,127.386 72.675,127.719 71.5,127.5C 70.8843,126.798 70.8843,125.798 71.5,124.5C 73.9819,122.497 74.9819,119.831 74.5,116.5C 75.6576,107.343 75.8243,98.0092 75,88.5C 74.6174,87.944 74.1174,87.6107 73.5,87.5C 71.4504,85.4525 69.117,83.7859 66.5,82.5C 54.3268,81.8333 41.9934,81.1667 29.5,80.5C 29.7093,79.914 30.0426,79.414 30.5,79C 42.4954,78.5001 54.4954,78.3335 66.5,78.5 Z"/></g>
<g><path style="opacity:1" fill="#3f92b6" d="M 146.5,84.5 C 149.4,91.4296 150.233,98.763 149,106.5C 148.023,107.774 147.189,107.774 146.5,106.5C 146.5,99.1667 146.5,91.8333 146.5,84.5 Z"/></g>
<g><path style="opacity:1" fill="#40cd7f" d="M 191.5,78.5 C 189.545,82.1397 187.545,85.8064 185.5,89.5C 183.674,91.1475 182.34,93.1475 181.5,95.5C 179.782,97.2228 178.449,99.2228 177.5,101.5C 177.337,103.857 177.503,106.19 178,108.5C 180.676,111.206 182.842,114.206 184.5,117.5C 183.185,116.524 181.852,115.524 180.5,114.5C 179.893,114.624 179.56,114.957 179.5,115.5C 178.333,113.959 177,112.625 175.5,111.5C 174.219,109.331 173.219,106.997 172.5,104.5C 173.057,101.954 174.057,99.6207 175.5,97.5C 175.5,96.8333 175.5,96.1667 175.5,95.5C 178.651,93.8322 180.484,91.1655 181,87.5C 183.544,85.1569 185.378,82.4902 186.5,79.5C 188.216,79.3713 189.883,79.038 191.5,78.5 Z"/></g>
<g><path style="opacity:1" fill="#c0f2da" d="M 150.5,91.5 C 151.167,91.8333 151.833,92.1667 152.5,92.5C 156.351,96.3717 158.684,101.038 159.5,106.5C 159.167,107.5 158.5,108.167 157.5,108.5C 158.855,106.32 158.689,104.32 157,102.5C 156.768,103.737 156.268,104.737 155.5,105.5C 156.109,102.122 154.776,100.122 151.5,99.5C 150.735,96.9039 150.401,94.2372 150.5,91.5 Z"/></g>
<g><path style="opacity:1" fill="#b3eec8" d="M 181.5,95.5 C 181.378,98.2921 180.044,100.292 177.5,101.5C 178.449,99.2228 179.782,97.2228 181.5,95.5 Z"/></g>
<g><path style="opacity:0.522" fill="#394b68" d="M 201.5,79.5 C 206.863,100.858 204.863,121.525 195.5,141.5C 195.5,140.833 195.5,140.167 195.5,139.5C 196.897,134.809 198.397,130.143 200,125.5C 200.498,122.518 200.665,119.518 200.5,116.5C 201.495,104.345 201.829,92.0113 201.5,79.5 Z"/></g>
<g><path style="opacity:1" fill="#54d58d" d="M 175.5,83.5 C 175.08,85.0936 174.414,86.5936 173.5,88C 173.639,89.301 174.305,90.1344 175.5,90.5C 172.99,94.8478 169.99,98.8478 166.5,102.5C 167.807,99.8864 169.14,97.2198 170.5,94.5C 168.955,93.5481 167.288,93.2148 165.5,93.5C 165.662,95.5273 165.495,97.5273 165,99.5C 163.644,100.38 162.144,100.714 160.5,100.5C 160.795,102.735 160.461,104.735 159.5,106.5C 158.684,101.038 156.351,96.3717 152.5,92.5C 152.077,90.2188 152.744,88.5521 154.5,87.5C 157.5,90.6686 160.333,94.002 163,97.5C 163.5,97.1667 164,96.8333 164.5,96.5C 163.011,94.0053 161.344,91.6719 159.5,89.5C 161.044,89.7031 162.378,90.3698 163.5,91.5C 164.298,91.0431 164.631,90.3764 164.5,89.5C 165.531,90.355 166.697,91.0217 168,91.5C 170.71,88.9586 173.21,86.292 175.5,83.5 Z"/></g>
<g><path style="opacity:1" fill="#a2edc6" d="M 191.5,95.5 C 189.878,99.0739 188.545,102.741 187.5,106.5C 186.387,105.054 186.22,103.387 187,101.5C 188.242,99.1407 189.742,97.1407 191.5,95.5 Z"/></g>
<g><path style="opacity:1" fill="#a0cae7" d="M 131.5,98.5 C 131.833,98.5 132.167,98.5 132.5,98.5C 132.586,99.4959 132.252,100.329 131.5,101C 116.837,101.5 102.17,101.667 87.5,101.5C 87.5,101.167 87.5,100.833 87.5,100.5C 100.833,100.5 114.167,100.5 127.5,100.5C 129.38,100.771 130.713,100.104 131.5,98.5 Z"/></g>
<g><path style="opacity:1" fill="#87e6b5" d="M 175.5,97.5 C 174.057,99.6207 173.057,101.954 172.5,104.5C 173.219,106.997 174.219,109.331 175.5,111.5C 168.967,106.836 168.967,102.169 175.5,97.5 Z"/></g>
<g><path style="opacity:1" fill="#bde1ee" d="M 79.5,74.5 C 80.8333,74.5 82.1667,74.5 83.5,74.5C 102.204,74.0959 120.87,74.5959 139.5,76C 140.471,77.4813 141.804,78.3146 143.5,78.5C 143.5,78.8333 143.5,79.1667 143.5,79.5C 145.379,88.3343 146.046,97.3343 145.5,106.5C 145.5,107.167 145.5,107.833 145.5,108.5C 142.487,112.671 138.487,115.338 133.5,116.5C 132.167,116.5 130.833,116.5 129.5,116.5C 119.167,116.5 108.833,116.5 98.5,116.5C 98.5,117.5 98.5,118.5 98.5,119.5C 98.5,125.167 98.5,130.833 98.5,136.5C 97.5098,130.355 97.1765,124.022 97.5,117.5C 97.5,116.167 97.5,114.833 97.5,113.5C 109.838,113.667 122.171,113.5 134.5,113C 135.056,112.617 135.389,112.117 135.5,111.5C 137.909,110.299 139.909,108.633 141.5,106.5C 142.117,106.389 142.617,106.056 143,105.5C 143.667,98.8333 143.667,92.1667 143,85.5C 142.124,83.3645 140.624,82.0312 138.5,81.5C 138.5,80.1667 137.833,79.5 136.5,79.5C 117.5,78.8333 98.5,78.1667 79.5,77.5C 79.5,76.5 79.5,75.5 79.5,74.5 Z"/></g>
<g><path style="opacity:1" fill="#dbf8ef" d="M 157.5,108.5 C 157.5,109.5 157.5,110.5 157.5,111.5C 155.801,111.527 154.467,112.194 153.5,113.5C 152.904,112.065 152.904,110.398 153.5,108.5C 153.328,107.508 153.662,106.842 154.5,106.5C 155.167,106.5 155.5,106.167 155.5,105.5C 156.268,104.737 156.768,103.737 157,102.5C 158.689,104.32 158.855,106.32 157.5,108.5 Z"/></g>
<g><path style="opacity:1" fill="#6cafcd" d="M 14.5,71.5 C 14.1783,93.242 14.5116,114.909 15.5,136.5C 14.1678,126.021 13.5012,115.188 13.5,104C 13.5001,92.9948 13.8335,82.1614 14.5,71.5 Z"/></g>
<g><path style="opacity:1" fill="#6fd8a5" d="M 184.5,97.5 C 183.08,100.261 182.413,103.261 182.5,106.5C 180.91,103.056 181.576,100.056 184.5,97.5 Z"/></g>
<g><path style="opacity:1" fill="#22cf6a" d="M 154.5,106.5 C 153.662,106.842 153.328,107.508 153.5,108.5C 153.167,108.5 152.833,108.5 152.5,108.5C 151.203,106.307 151.203,103.973 152.5,101.5C 154.217,102.668 154.884,104.335 154.5,106.5 Z"/></g>
<g><path style="opacity:1" fill="#f0f8f3" d="M 199.5,85.5 C 199.666,94.1731 199.5,102.84 199,111.5C 198.667,112.167 198.333,112.833 198,113.5C 197.886,106.421 197.219,99.4211 196,92.5C 194.977,93.6001 194.477,94.9334 194.5,96.5C 195.383,103.004 195.717,109.671 195.5,116.5C 194.363,115.211 193.03,114.211 191.5,113.5C 191.179,111.952 190.179,111.285 188.5,111.5C 188.371,109.784 188.038,108.117 187.5,106.5C 188.545,102.741 189.878,99.0739 191.5,95.5C 193.048,95.1788 193.715,94.1788 193.5,92.5C 195.737,90.3529 197.737,88.0196 199.5,85.5 Z"/></g>
<g><path style="opacity:1" fill="#27ce71" d="M 166.5,102.5 C 165.539,104.265 165.205,106.265 165.5,108.5C 163.517,108.157 162.183,108.824 161.5,110.5C 160.449,111.222 159.782,112.222 159.5,113.5C 158.167,113.5 157.5,112.833 157.5,111.5C 157.5,110.5 157.5,109.5 157.5,108.5C 158.5,108.167 159.167,107.5 159.5,106.5C 160.461,104.735 160.795,102.735 160.5,100.5C 162.144,100.714 163.644,100.38 165,99.5C 165.495,97.5273 165.662,95.5273 165.5,93.5C 167.288,93.2148 168.955,93.5481 170.5,94.5C 169.14,97.2198 167.807,99.8864 166.5,102.5 Z"/></g>
<g><path style="opacity:1" fill="#5ca2bb" d="M 132.5,108.5 C 119.01,109.496 105.344,109.829 91.5,109.5C 91.8205,114.695 91.4872,119.695 90.5,124.5C 90.5,119.5 90.5,114.5 90.5,109.5C 104.323,108.504 118.323,108.171 132.5,108.5 Z"/></g>
<g><path style="opacity:1" fill="#d8f2fb" d="M 5.5,111.5 C 5.5,104.167 5.5,96.8333 5.5,89.5C 5.5,88.8333 5.5,88.1667 5.5,87.5C 6.11742,87.3893 6.61742,87.056 7,86.5C 7.66667,96.8333 7.66667,107.167 7,117.5C 6.80912,115.292 6.30912,113.292 5.5,111.5 Z"/></g>
<g><path style="opacity:1" fill="#29969c" d="M 135.5,71.5 C 135.5,71.1667 135.5,70.8333 135.5,70.5C 135.833,70.5 136.167,70.5 136.5,70.5C 138.737,71.449 141.071,72.1156 143.5,72.5C 143.821,74.0481 144.821,74.7148 146.5,74.5C 146.5,74.8333 146.5,75.1667 146.5,75.5C 148.466,79.3984 149.799,83.3984 150.5,87.5C 150.5,88.8333 150.5,90.1667 150.5,91.5C 150.401,94.2372 150.735,96.9039 151.5,99.5C 150.683,101.969 150.183,104.635 150,107.5C 148.234,109.596 146.901,111.929 146,114.5C 145.329,115.252 144.496,115.586 143.5,115.5C 144.865,113.409 145.532,111.076 145.5,108.5C 145.5,107.833 145.5,107.167 145.5,106.5C 145.833,106.5 146.167,106.5 146.5,106.5C 147.189,107.774 148.023,107.774 149,106.5C 150.233,98.763 149.4,91.4296 146.5,84.5C 146.408,82.1523 145.408,80.4856 143.5,79.5C 143.5,79.1667 143.5,78.8333 143.5,78.5C 142.5,77.1667 141.5,75.8333 140.5,74.5C 139.101,73.1103 137.434,72.1103 135.5,71.5 Z"/></g>
<g><path style="opacity:1" fill="#358ab2" d="M 141.5,106.5 C 139.909,108.633 137.909,110.299 135.5,111.5C 134.833,111.5 134.167,111.5 133.5,111.5C 120.496,111.333 107.496,111.5 94.5,112C 93.5175,120.081 93.1842,128.248 93.5,136.5C 92.5,136.5 91.5,136.5 90.5,136.5C 90.5,132.5 90.5,128.5 90.5,124.5C 91.4872,119.695 91.8205,114.695 91.5,109.5C 105.344,109.829 119.01,109.496 132.5,108.5C 133.391,107.89 134.391,107.557 135.5,107.5C 137.833,107.167 139.167,105.833 139.5,103.5C 140.165,101.631 140.831,99.6309 141.5,97.5C 142.509,100.473 142.509,103.473 141.5,106.5 Z"/></g>
<g><path style="opacity:1" fill="#74afc3" d="M 133.5,111.5 C 120.833,112.167 108.167,112.833 95.5,113.5C 94.8333,121.167 94.1667,128.833 93.5,136.5C 93.1842,128.248 93.5175,120.081 94.5,112C 107.496,111.5 120.496,111.333 133.5,111.5 Z"/></g>
<g><path style="opacity:1" fill="#509bbb" d="M 132.5,86.5 C 133.794,87.2899 134.961,88.2899 136,89.5C 136.499,93.1516 136.665,96.8183 136.5,100.5C 134.661,101.508 133.328,103.008 132.5,105C 117.504,105.5 102.504,105.667 87.5,105.5C 86.5058,115.653 86.1724,125.986 86.5,136.5C 85.5,136.5 84.5,136.5 83.5,136.5C 83.5,135.167 83.5,133.833 83.5,132.5C 85.3112,123.554 86.1446,114.22 86,104.5C 87.0386,103.756 87.5386,102.756 87.5,101.5C 102.17,101.667 116.837,101.5 131.5,101C 132.252,100.329 132.586,99.4959 132.5,98.5C 132.988,95.2893 132.321,92.456 130.5,90C 116.504,89.5001 102.504,89.3334 88.5,89.5C 90.6074,88.5318 92.9407,88.1984 95.5,88.5C 107.935,88.9516 120.268,88.285 132.5,86.5 Z"/></g>
<g><path style="opacity:1" fill="#aadbed" d="M 133.5,111.5 C 134.167,111.5 134.833,111.5 135.5,111.5C 135.389,112.117 135.056,112.617 134.5,113C 122.171,113.5 109.838,113.667 97.5,113.5C 96.8333,113.5 96.1667,113.5 95.5,113.5C 108.167,112.833 120.833,112.167 133.5,111.5 Z"/></g>
<g><path style="opacity:1" fill="#b7f3cd" d="M 152.5,108.5 C 152.833,108.5 153.167,108.5 153.5,108.5C 152.904,110.398 152.904,112.065 153.5,113.5C 153.975,116.313 152.975,118.313 150.5,119.5C 150.539,118.417 150.873,117.417 151.5,116.5C 150.575,115.438 149.575,115.438 148.5,116.5C 149.82,113.86 151.153,111.193 152.5,108.5 Z"/></g>
<g><path style="opacity:1" fill="#41c68d" d="M 151.5,99.5 C 154.776,100.122 156.109,102.122 155.5,105.5C 155.5,106.167 155.167,106.5 154.5,106.5C 154.884,104.335 154.217,102.668 152.5,101.5C 151.203,103.973 151.203,106.307 152.5,108.5C 151.153,111.193 149.82,113.86 148.5,116.5C 146.087,118.906 144.087,121.572 142.5,124.5C 141.5,123.833 140.5,123.167 139.5,122.5C 140.475,120.205 141.808,118.205 143.5,116.5C 143.5,116.167 143.5,115.833 143.5,115.5C 144.496,115.586 145.329,115.252 146,114.5C 146.901,111.929 148.234,109.596 150,107.5C 150.183,104.635 150.683,101.969 151.5,99.5 Z"/></g>
<g><path style="opacity:1" fill="#cff5e3" d="M 194.5,74.5 C 194.833,74.5 195.167,74.5 195.5,74.5C 196.167,74.5 196.833,74.5 197.5,74.5C 198.301,76.0418 198.634,77.7085 198.5,79.5C 194.812,80.8614 192.479,83.5281 191.5,87.5C 189.176,90.8043 186.843,94.1376 184.5,97.5C 181.576,100.056 180.91,103.056 182.5,106.5C 185.762,112.588 189.596,118.255 194,123.5C 194.49,124.793 194.657,126.127 194.5,127.5C 195.5,127.5 196.5,127.5 197.5,127.5C 197.598,129.553 196.931,131.22 195.5,132.5C 194.136,130.809 192.803,129.142 191.5,127.5C 190.621,124.618 188.954,122.285 186.5,120.5C 185.094,120.027 184.427,119.027 184.5,117.5C 182.842,114.206 180.676,111.206 178,108.5C 177.503,106.19 177.337,103.857 177.5,101.5C 180.044,100.292 181.378,98.2921 181.5,95.5C 183.822,94.1979 185.155,92.1979 185.5,89.5C 187.545,85.8064 189.545,82.1397 191.5,78.5C 192.5,77.1667 193.5,75.8333 194.5,74.5 Z"/></g>
<g><path style="opacity:1" fill="#aff1ca" d="M 191.5,113.5 C 193.03,114.211 194.363,115.211 195.5,116.5C 196.11,117.391 196.443,118.391 196.5,119.5C 194.086,118.089 192.419,116.089 191.5,113.5 Z"/></g>
<g><path style="opacity:1" fill="#eff3f8" d="M 199.5,83.5 C 200.495,94.3206 200.828,105.321 200.5,116.5C 199.833,118.5 199.167,120.5 198.5,122.5C 197.094,122.027 196.427,121.027 196.5,119.5C 196.443,118.391 196.11,117.391 195.5,116.5C 195.717,109.671 195.383,103.004 194.5,96.5C 194.477,94.9334 194.977,93.6001 196,92.5C 197.219,99.4211 197.886,106.421 198,113.5C 198.333,112.833 198.667,112.167 199,111.5C 199.5,102.84 199.666,94.1731 199.5,85.5C 199.5,84.8333 199.5,84.1667 199.5,83.5 Z"/></g>
<g><path style="opacity:1" fill="#5099b6" d="M 129.5,116.5 C 129.31,118.959 130.31,120.626 132.5,121.5C 131.325,121.281 130.325,121.614 129.5,122.5C 131.703,124.295 132.869,126.629 133,129.5C 135.358,131.024 137.191,133.024 138.5,135.5C 136.833,136.666 135.166,136.666 133.5,135.5C 131.758,132.357 129.758,129.357 127.5,126.5C 128.376,126.631 129.043,126.298 129.5,125.5C 128.215,122.979 127.548,120.313 127.5,117.5C 117.572,116.9 107.905,117.567 98.5,119.5C 98.5,118.5 98.5,117.5 98.5,116.5C 108.833,116.5 119.167,116.5 129.5,116.5 Z"/></g>
<g><path style="opacity:1" fill="#489eba" d="M 145.5,108.5 C 145.532,111.076 144.865,113.409 143.5,115.5C 143.5,115.833 143.5,116.167 143.5,116.5C 140.065,117.192 138.065,119.192 137.5,122.5C 136.549,121.081 136.216,119.415 136.5,117.5C 135.209,117.737 134.209,117.404 133.5,116.5C 138.487,115.338 142.487,112.671 145.5,108.5 Z"/></g>
<g><path style="opacity:1" fill="#40cf82" d="M 166.5,102.5 C 166.343,103.873 166.51,105.207 167,106.5C 172.709,113.955 177.876,121.622 182.5,129.5C 182.843,131.483 182.176,132.817 180.5,133.5C 179.974,131.77 178.974,130.436 177.5,129.5C 175.878,126.545 173.878,123.878 171.5,121.5C 171.167,121.5 170.833,121.5 170.5,121.5C 170.5,120.833 170.5,120.167 170.5,119.5C 170.278,116.924 168.945,116.09 166.5,117C 164.585,119.4 162.919,121.9 161.5,124.5C 160.044,126.37 158.711,128.37 157.5,130.5C 156.215,132.062 154.715,133.396 153,134.5C 152.5,134.167 152,133.833 151.5,133.5C 152.63,132.378 153.297,131.044 153.5,129.5C 156.009,123.822 159.509,118.822 164,114.5C 164.798,112.741 164.631,111.074 163.5,109.5C 162.817,109.863 162.15,110.196 161.5,110.5C 162.183,108.824 163.517,108.157 165.5,108.5C 165.205,106.265 165.539,104.265 166.5,102.5 Z"/></g>
<g><path style="opacity:1" fill="#3a8db4" d="M 127.5,126.5 C 125.721,124.454 124.054,122.287 122.5,120C 121.207,119.51 119.873,119.343 118.5,119.5C 118.351,120.552 118.517,121.552 119,122.5C 122.952,125.599 125.786,129.432 127.5,134C 127.316,135.376 126.649,136.209 125.5,136.5C 124.833,136.167 124.167,135.833 123.5,135.5C 123.02,132.995 122.02,130.662 120.5,128.5C 120.043,127.702 119.376,127.369 118.5,127.5C 117.527,125.861 116.194,124.527 114.5,123.5C 114.573,121.973 113.906,120.973 112.5,120.5C 109.038,119.518 105.371,119.185 101.5,119.5C 101.5,125.167 101.5,130.833 101.5,136.5C 100.5,136.5 99.5,136.5 98.5,136.5C 98.5,130.833 98.5,125.167 98.5,119.5C 107.905,117.567 117.572,116.9 127.5,117.5C 127.548,120.313 128.215,122.979 129.5,125.5C 129.043,126.298 128.376,126.631 127.5,126.5 Z"/></g>
<g><path style="opacity:1" fill="#29cb6e" d="M 184.5,117.5 C 184.427,119.027 185.094,120.027 186.5,120.5C 186.649,121.552 186.483,122.552 186,123.5C 184.887,122.695 183.721,122.028 182.5,121.5C 181.5,119.5 180.5,117.5 179.5,115.5C 179.56,114.957 179.893,114.624 180.5,114.5C 181.852,115.524 183.185,116.524 184.5,117.5 Z"/></g>
<g><path style="opacity:1" fill="#92e4c2" d="M 157.5,116.5 C 157.378,119.292 156.044,121.292 153.5,122.5C 154.449,120.223 155.782,118.223 157.5,116.5 Z"/></g>
<g><path style="opacity:1" fill="#7ed8ce" d="M 143.5,116.5 C 141.808,118.205 140.475,120.205 139.5,122.5C 139.167,122.5 138.833,122.5 138.5,122.5C 138.167,122.5 137.833,122.5 137.5,122.5C 138.065,119.192 140.065,117.192 143.5,116.5 Z"/></g>
<g><path style="opacity:1" fill="#cdf8df" d="M 153.5,129.5 C 151.806,130.527 150.473,131.861 149.5,133.5C 149.5,132.167 148.833,131.5 147.5,131.5C 148.6,130.395 149.267,129.062 149.5,127.5C 151.587,126.415 152.92,124.749 153.5,122.5C 156.044,121.292 157.378,119.292 157.5,116.5C 158.906,116.027 159.573,115.027 159.5,113.5C 159.782,112.222 160.449,111.222 161.5,110.5C 162.15,110.196 162.817,109.863 163.5,109.5C 164.631,111.074 164.798,112.741 164,114.5C 159.509,118.822 156.009,123.822 153.5,129.5 Z"/></g>
<g><path style="opacity:1" fill="#49cf84" d="M 193.5,92.5 C 193.715,94.1788 193.048,95.1788 191.5,95.5C 189.742,97.1407 188.242,99.1407 187,101.5C 186.22,103.387 186.387,105.054 187.5,106.5C 188.038,108.117 188.371,109.784 188.5,111.5C 190.179,111.285 191.179,111.952 191.5,113.5C 192.419,116.089 194.086,118.089 196.5,119.5C 196.427,121.027 197.094,122.027 198.5,122.5C 198.784,124.415 198.451,126.081 197.5,127.5C 196.5,127.5 195.5,127.5 194.5,127.5C 194.657,126.127 194.49,124.793 194,123.5C 189.596,118.255 185.762,112.588 182.5,106.5C 182.413,103.261 183.08,100.261 184.5,97.5C 186.843,94.1376 189.176,90.8043 191.5,87.5C 193.388,86.0603 195.055,84.3936 196.5,82.5C 196.833,83.1667 197.167,83.8333 197.5,84.5C 196.158,87.1835 194.825,89.8502 193.5,92.5 Z"/></g>
<g><path style="opacity:1" fill="#4695ba" d="M 14.5,71.5 C 15.5,71.5 16.5,71.5 17.5,71.5C 17.6666,92.8359 17.5,114.169 17,135.5C 16.6174,136.056 16.1174,136.389 15.5,136.5C 14.5116,114.909 14.1783,93.242 14.5,71.5 Z"/></g>
<g><path style="opacity:1" fill="#3389b0" d="M 129.5,116.5 C 130.833,116.5 132.167,116.5 133.5,116.5C 134.209,117.404 135.209,117.737 136.5,117.5C 136.216,119.415 136.549,121.081 137.5,122.5C 137.833,122.5 138.167,122.5 138.5,122.5C 138.634,124.292 138.301,125.958 137.5,127.5C 135.833,125.5 134.167,123.5 132.5,121.5C 130.31,120.626 129.31,118.959 129.5,116.5 Z"/></g>
<g><path style="opacity:1" fill="#3689ae" d="M 25.5,118.5 C 25.5,118.833 25.5,119.167 25.5,119.5C 25.5,119.833 25.5,120.167 25.5,120.5C 25.2627,121.791 25.596,122.791 26.5,123.5C 26.5,123.833 26.5,124.167 26.5,124.5C 25.596,125.209 25.2627,126.209 25.5,127.5C 25.5,128.833 25.5,130.167 25.5,131.5C 25.5,132.5 25.5,133.5 25.5,134.5C 39.1667,134.5 52.8333,134.5 66.5,134.5C 70.9458,134.944 74.2791,133.277 76.5,129.5C 77.9213,126.991 79.5879,124.657 81.5,122.5C 82.2216,122.082 82.7216,121.416 83,120.5C 83.8252,109.992 83.6585,99.6584 82.5,89.5C 82.1667,89.5 81.8333,89.5 81.5,89.5C 81.5,88.1667 81.5,86.8333 81.5,85.5C 82.7349,83.983 82.7349,82.3163 81.5,80.5C 99.8212,79.5004 118.155,79.1671 136.5,79.5C 137.833,79.5 138.5,80.1667 138.5,81.5C 137.791,82.404 136.791,82.7373 135.5,82.5C 118.547,81.5282 101.547,81.1949 84.5,81.5C 84.4677,83.6188 85.4677,84.9522 87.5,85.5C 95.3228,86.3292 103.323,86.8292 111.5,87C 105.984,87.1733 100.651,87.6733 95.5,88.5C 92.9407,88.1984 90.6074,88.5318 88.5,89.5C 86.3268,93.0499 85.9935,96.7166 87.5,100.5C 87.5,100.833 87.5,101.167 87.5,101.5C 87.5386,102.756 87.0386,103.756 86,104.5C 86.1446,114.22 85.3112,123.554 83.5,132.5C 82.1667,128.5 80.8333,128.5 79.5,132.5C 77.368,132.554 76.0347,133.554 75.5,135.5C 57.8802,136.473 40.2136,136.806 22.5,136.5C 22.167,114.823 22.5003,93.1564 23.5,71.5C 24.1667,87.3281 24.8333,102.995 25.5,118.5 Z"/></g>
<g><path style="opacity:1" fill="#7ab8d1" d="M 65.5,86.5 C 53.5,86.5 41.5,86.5 29.5,86.5C 29.5,87.5 29.5,88.5 29.5,89.5C 41.8378,89.3335 54.1712,89.5001 66.5,90C 67.3366,91.0113 67.67,92.1779 67.5,93.5C 67.6664,101.84 67.4997,110.173 67,118.5C 66.5,119 66,119.5 65.5,120C 52.1708,120.5 38.8375,120.667 25.5,120.5C 25.5,120.167 25.5,119.833 25.5,119.5C 38.3443,119.829 51.011,119.495 63.5,118.5C 64.4916,118.672 65.1583,118.338 65.5,117.5C 66.8281,108.765 66.8281,99.9316 65.5,91C 53.1712,90.5001 40.8378,90.3335 28.5,90.5C 28.5,88.5 28.5,86.5 28.5,84.5C 40.1714,84.3335 51.8381,84.5001 63.5,85C 64.4158,85.2784 65.0825,85.7784 65.5,86.5 Z"/></g>
<g><path style="opacity:1" fill="#65adc9" d="M 82.5,89.5 C 83.6585,99.6584 83.8252,109.992 83,120.5C 82.7216,121.416 82.2216,122.082 81.5,122.5C 81.5,121.5 81.5,120.5 81.5,119.5C 82.494,109.681 82.8274,99.6806 82.5,89.5 Z"/></g>
<g><path style="opacity:1" fill="#d5edf4" d="M 81.5,89.5 C 81.8333,89.5 82.1667,89.5 82.5,89.5C 82.8274,99.6806 82.494,109.681 81.5,119.5C 80.6043,120.506 79.9377,120.506 79.5,119.5C 78.859,109.111 79.5257,99.1107 81.5,89.5 Z"/></g>
<g><path style="opacity:1" fill="#9bcce4" d="M 75.5,83.5 C 76.7942,84.2899 77.9609,85.2899 79,86.5C 79.4643,85.9056 79.631,85.2389 79.5,84.5C 80.1667,84.8333 80.8333,85.1667 81.5,85.5C 81.5,86.8333 81.5,88.1667 81.5,89.5C 79.5257,99.1107 78.859,109.111 79.5,119.5C 79.1667,119.5 78.8333,119.5 78.5,119.5C 78.6665,109.494 78.4998,99.4944 78,89.5C 77.3448,87.3716 76.5114,85.3716 75.5,83.5 Z"/></g>
<g><path style="opacity:1" fill="#73bad3" d="M 73.5,87.5 C 74.1174,87.6107 74.6174,87.944 75,88.5C 75.8243,98.0092 75.6576,107.343 74.5,116.5C 74.7819,106.781 74.4486,97.1141 73.5,87.5 Z"/></g>
<g><path style="opacity:1" fill="#64a9ca" d="M 68.5,87.5 C 69.1174,87.6107 69.6174,87.944 70,88.5C 70.8252,99.0083 70.6585,109.342 69.5,119.5C 69.5,110.833 69.5,102.167 69.5,93.5C 69.4828,91.4352 69.1495,89.4352 68.5,87.5 Z"/></g>
<g><path style="opacity:1" fill="#348cad" d="M 67.5,93.5 C 68.1667,93.5 68.8333,93.5 69.5,93.5C 69.5,102.167 69.5,110.833 69.5,119.5C 68.6364,120.688 67.6364,121.855 66.5,123C 53.1708,123.5 39.8375,123.667 26.5,123.5C 25.596,122.791 25.2627,121.791 25.5,120.5C 38.8375,120.667 52.1708,120.5 65.5,120C 66,119.5 66.5,119 67,118.5C 67.4997,110.173 67.6664,101.84 67.5,93.5 Z"/></g>
<g><path style="opacity:1" fill="#f5f7f6" d="M 65.5,117.5 C 65.1583,118.338 64.4916,118.672 63.5,118.5C 51.1667,118.5 38.8333,118.5 26.5,118.5C 26.5,109.5 26.5,100.5 26.5,91.5C 39.1711,91.3334 51.8377,91.5001 64.5,92C 65.4832,100.415 65.8166,108.915 65.5,117.5 Z"/></g>
<g><path style="opacity:1" fill="#388cb5" d="M 65.5,86.5 C 66.609,86.5569 67.609,86.8902 68.5,87.5C 69.1495,89.4352 69.4828,91.4352 69.5,93.5C 68.8333,93.5 68.1667,93.5 67.5,93.5C 67.67,92.1779 67.3366,91.0113 66.5,90C 54.1712,89.5001 41.8378,89.3335 29.5,89.5C 29.5,88.5 29.5,87.5 29.5,86.5C 41.5,86.5 53.5,86.5 65.5,86.5 Z"/></g>
<g><path style="opacity:1" fill="#c7e7f5" d="M 135.5,107.5 C 134.391,107.557 133.391,107.89 132.5,108.5C 118.323,108.171 104.323,108.504 90.5,109.5C 89.8334,115.346 89.1668,121.346 88.5,127.5C 87.5027,120.197 87.1694,112.863 87.5,105.5C 102.504,105.667 117.504,105.5 132.5,105C 133.328,103.008 134.661,101.508 136.5,100.5C 137.268,99.7375 137.768,98.7375 138,97.5C 138.976,101.327 138.143,104.66 135.5,107.5 Z"/></g>
<g><path style="opacity:1" fill="#d1f8e5" d="M 150.5,119.5 C 148.007,121.658 146.34,124.324 145.5,127.5C 144.833,127.5 144.167,127.5 143.5,127.5C 142.596,126.791 142.263,125.791 142.5,124.5C 144.087,121.572 146.087,118.906 148.5,116.5C 149.575,115.438 150.575,115.438 151.5,116.5C 150.873,117.417 150.539,118.417 150.5,119.5 Z"/></g>
<g><path style="opacity:1" fill="#97ebbb" d="M 170.5,119.5 C 169.262,118.588 167.928,118.421 166.5,119C 165.336,121.328 163.67,123.162 161.5,124.5C 162.919,121.9 164.585,119.4 166.5,117C 168.945,116.09 170.278,116.924 170.5,119.5 Z"/></g>
<g><path style="opacity:1" fill="#44d080" d="M 157.5,111.5 C 157.5,112.833 158.167,113.5 159.5,113.5C 159.573,115.027 158.906,116.027 157.5,116.5C 155.782,118.223 154.449,120.223 153.5,122.5C 152.92,124.749 151.587,126.415 149.5,127.5C 148.039,128.686 146.705,128.686 145.5,127.5C 146.34,124.324 148.007,121.658 150.5,119.5C 152.975,118.313 153.975,116.313 153.5,113.5C 154.467,112.194 155.801,111.527 157.5,111.5 Z"/></g>
<g><path style="opacity:1" fill="#d2f7e3" d="M 175.5,89.5 C 176.675,89.281 177.675,89.6143 178.5,90.5C 177.048,91.9397 176.048,93.6064 175.5,95.5C 175.5,96.1667 175.5,96.8333 175.5,97.5C 168.967,102.169 168.967,106.836 175.5,111.5C 177,112.625 178.333,113.959 179.5,115.5C 180.5,117.5 181.5,119.5 182.5,121.5C 184.037,124.602 186.037,127.268 188.5,129.5C 188.5,130.167 188.5,130.833 188.5,131.5C 188.53,132.497 188.03,133.164 187,133.5C 185.649,131.982 184.149,130.649 182.5,129.5C 177.876,121.622 172.709,113.955 167,106.5C 166.51,105.207 166.343,103.873 166.5,102.5C 169.99,98.8478 172.99,94.8478 175.5,90.5C 175.5,90.1667 175.5,89.8333 175.5,89.5 Z"/></g>
<g><path style="opacity:1" fill="#57d591" d="M 186.5,120.5 C 188.954,122.285 190.621,124.618 191.5,127.5C 189.983,127.489 188.816,126.823 188,125.5C 187.805,126.819 187.972,128.153 188.5,129.5C 186.037,127.268 184.037,124.602 182.5,121.5C 183.721,122.028 184.887,122.695 186,123.5C 186.483,122.552 186.649,121.552 186.5,120.5 Z"/></g>
<g><path style="opacity:0.875" fill="#5f8f96" d="M 200.5,116.5 C 200.665,119.518 200.498,122.518 200,125.5C 198.397,130.143 196.897,134.809 195.5,139.5C 194.833,139.833 194.167,140.167 193.5,140.5C 193.5,139.833 193.5,139.167 193.5,138.5C 194.338,138.158 194.672,137.492 194.5,136.5C 194.5,135.5 194.5,134.5 194.5,133.5C 195.167,133.5 195.5,133.167 195.5,132.5C 196.931,131.22 197.598,129.553 197.5,127.5C 198.451,126.081 198.784,124.415 198.5,122.5C 199.167,120.5 199.833,118.5 200.5,116.5 Z"/></g>
<g><path style="opacity:1" fill="#96c2d2" d="M 26.5,124.5 C 32.6307,125.83 39.1307,126.497 46,126.5C 53.8591,126.431 61.6924,126.098 69.5,125.5C 68.7375,126.268 67.7375,126.768 66.5,127C 52.8374,127.5 39.1707,127.667 25.5,127.5C 25.2627,126.209 25.596,125.209 26.5,124.5 Z"/></g>
<g><path style="opacity:1" fill="#b6dbeb" d="M 127.5,126.5 C 129.758,129.357 131.758,132.357 133.5,135.5C 131.402,134.086 130.402,134.752 130.5,137.5C 128.585,137.784 126.919,137.451 125.5,136.5C 126.649,136.209 127.316,135.376 127.5,134C 125.786,129.432 122.952,125.599 119,122.5C 118.517,121.552 118.351,120.552 118.5,119.5C 119.873,119.343 121.207,119.51 122.5,120C 124.054,122.287 125.721,124.454 127.5,126.5 Z"/></g>
<g><path style="opacity:1" fill="#4a9ab8" d="M 71.5,124.5 C 70.8843,125.798 70.8843,126.798 71.5,127.5C 71.5,128.167 71.5,128.833 71.5,129.5C 69.8333,129.5 68.1667,129.5 66.5,129.5C 54.4946,128.46 42.4946,128.46 30.5,129.5C 42.1477,130.499 53.8143,130.832 65.5,130.5C 52.3438,131.496 39.0105,131.829 25.5,131.5C 25.5,130.167 25.5,128.833 25.5,127.5C 39.1707,127.667 52.8374,127.5 66.5,127C 67.7375,126.768 68.7375,126.268 69.5,125.5C 70.1667,125.167 70.8333,124.833 71.5,124.5 Z"/></g>
<g><path style="opacity:1" fill="#85bfdb" d="M 112.5,120.5 C 109.223,120.216 106.057,120.549 103,121.5C 102.826,126.684 102.326,131.684 101.5,136.5C 101.5,130.833 101.5,125.167 101.5,119.5C 105.371,119.185 109.038,119.518 112.5,120.5 Z"/></g>
<g><path style="opacity:1" fill="#f5f6f6" d="M 95.5,113.5 C 96.1667,113.5 96.8333,113.5 97.5,113.5C 97.5,114.833 97.5,116.167 97.5,117.5C 96.1735,124.235 96.1735,131.068 97.5,138C 99.4406,138.743 101.274,138.576 103,137.5C 103.221,132.78 103.721,128.113 104.5,123.5C 107.027,122.786 109.527,122.12 112,121.5C 112.708,122.381 113.542,123.047 114.5,123.5C 116.194,124.527 117.527,125.861 118.5,127.5C 119.169,130.849 120.836,133.516 123.5,135.5C 124.167,135.833 124.833,136.167 125.5,136.5C 126.919,137.451 128.585,137.784 130.5,137.5C 130.402,134.752 131.402,134.086 133.5,135.5C 133.5,136.5 133.5,137.5 133.5,138.5C 136.079,138.083 138.246,138.75 140,140.5C 140.717,139.956 141.217,139.289 141.5,138.5C 146.448,139.559 151.448,139.726 156.5,139C 157.728,138.221 158.728,137.221 159.5,136C 158.67,134.535 158.504,133.035 159,131.5C 160.049,133.107 161.549,133.773 163.5,133.5C 161.807,127.916 163.474,123.583 168.5,120.5C 169.183,120.863 169.85,121.196 170.5,121.5C 170.833,121.5 171.167,121.5 171.5,121.5C 172.505,124.721 173.339,128.054 174,131.5C 174.986,132.171 176.153,132.171 177.5,131.5C 178.312,134.275 179.979,136.442 182.5,138C 186.152,138.499 189.818,138.665 193.5,138.5C 193.5,139.167 193.5,139.833 193.5,140.5C 191.36,143.966 189.694,147.633 188.5,151.5C 185.677,152.992 184.01,155.326 183.5,158.5C 183.158,159.338 182.492,159.672 181.5,159.5C 179.174,162.828 176.841,166.161 174.5,169.5C 172.833,170.5 171.5,171.833 170.5,173.5C 167.833,174.167 166.167,175.833 165.5,178.5C 160.746,180.539 156.746,183.539 153.5,187.5C 153.158,188.338 152.492,188.672 151.5,188.5C 149.447,188.402 147.78,189.069 146.5,190.5C 144.396,190.201 142.396,190.534 140.5,191.5C 138.133,192.831 135.8,194.164 133.5,195.5C 133.167,195.5 132.833,195.5 132.5,195.5C 127.855,196.157 123.188,196.824 118.5,197.5C 115.911,197.473 113.411,197.139 111,196.5C 107.551,198.135 103.885,199.135 100,199.5C 95.3171,197.803 90.4837,197.136 85.5,197.5C 84.1667,197.5 82.8333,197.5 81.5,197.5C 77.9416,196.137 74.4416,194.471 71,192.5C 68.863,191.923 66.6963,191.59 64.5,191.5C 63.1667,191.5 61.8333,191.5 60.5,191.5C 59.3933,189.031 57.3933,188.031 54.5,188.5C 54.1667,187.833 53.8333,187.167 53.5,186.5C 51.6908,185.519 50.3574,184.019 49.5,182C 47.8455,181.392 46.1789,180.892 44.5,180.5C 43.0892,178.086 41.0892,176.419 38.5,175.5C 36.7607,172.757 34.4274,170.757 31.5,169.5C 30.2497,167.846 28.9163,166.179 27.5,164.5C 25.1522,158.454 21.8189,153.121 17.5,148.5C 16.0582,147.18 15.3915,145.514 15.5,143.5C 15.5,141.833 15.5,140.167 15.5,138.5C 35.3404,138.83 55.0071,138.497 74.5,137.5C 74.8333,137.5 75.1667,137.5 75.5,137.5C 78.2436,136.49 80.5769,136.824 82.5,138.5C 82.7844,145.115 84.4511,145.115 87.5,138.5C 90.0865,137.52 92.7531,137.187 95.5,137.5C 95.5,129.5 95.5,121.5 95.5,113.5 Z"/></g>
<g><path style="opacity:1" fill="#c2e2f1" d="M 132.5,121.5 C 134.167,123.5 135.833,125.5 137.5,127.5C 139.091,130.431 141.091,133.098 143.5,135.5C 142.094,135.973 141.427,136.973 141.5,138.5C 141.217,139.289 140.717,139.956 140,140.5C 138.246,138.75 136.079,138.083 133.5,138.5C 133.5,137.5 133.5,136.5 133.5,135.5C 135.166,136.666 136.833,136.666 138.5,135.5C 137.191,133.024 135.358,131.024 133,129.5C 132.869,126.629 131.703,124.295 129.5,122.5C 130.325,121.614 131.325,121.281 132.5,121.5 Z"/></g>
<g><path style="opacity:1" fill="#39a2a6" d="M 138.5,122.5 C 138.833,122.5 139.167,122.5 139.5,122.5C 140.5,123.167 141.5,123.833 142.5,124.5C 142.263,125.791 142.596,126.791 143.5,127.5C 143.5,128.167 143.5,128.833 143.5,129.5C 141.858,127.919 139.858,127.253 137.5,127.5C 138.301,125.958 138.634,124.292 138.5,122.5 Z"/></g>
<g><path style="opacity:1" fill="#daf6e8" d="M 171.5,121.5 C 173.878,123.878 175.878,126.545 177.5,129.5C 177.5,130.167 177.5,130.833 177.5,131.5C 176.153,132.171 174.986,132.171 174,131.5C 173.339,128.054 172.505,124.721 171.5,121.5 Z"/></g>
<g><path style="opacity:1" fill="#46c392" d="M 143.5,127.5 C 144.167,127.5 144.833,127.5 145.5,127.5C 146.705,128.686 148.039,128.686 149.5,127.5C 149.267,129.062 148.6,130.395 147.5,131.5C 146.833,131.5 146.5,131.833 146.5,132.5C 145.5,132.5 144.5,132.5 143.5,132.5C 143.5,131.5 143.5,130.5 143.5,129.5C 143.5,128.833 143.5,128.167 143.5,127.5 Z"/></g>
<g><path style="opacity:1" fill="#3388ac" d="M 66.5,129.5 C 66.5,130.167 66.1667,130.5 65.5,130.5C 53.8143,130.832 42.1477,130.499 30.5,129.5C 42.4946,128.46 54.4946,128.46 66.5,129.5 Z"/></g>
<g><path style="opacity:1" fill="#cce8f1" d="M 97.5,117.5 C 97.1765,124.022 97.5098,130.355 98.5,136.5C 99.5,136.5 100.5,136.5 101.5,136.5C 102.326,131.684 102.826,126.684 103,121.5C 106.057,120.549 109.223,120.216 112.5,120.5C 113.906,120.973 114.573,121.973 114.5,123.5C 113.542,123.047 112.708,122.381 112,121.5C 109.527,122.12 107.027,122.786 104.5,123.5C 103.721,128.113 103.221,132.78 103,137.5C 101.274,138.576 99.4406,138.743 97.5,138C 96.1735,131.068 96.1735,124.235 97.5,117.5 Z"/></g>
<g><path style="opacity:1" fill="#e7f8f0" d="M 170.5,119.5 C 170.5,120.167 170.5,120.833 170.5,121.5C 169.85,121.196 169.183,120.863 168.5,120.5C 163.474,123.583 161.807,127.916 163.5,133.5C 161.549,133.773 160.049,133.107 159,131.5C 158.504,133.035 158.67,134.535 159.5,136C 158.728,137.221 157.728,138.221 156.5,139C 151.448,139.726 146.448,139.559 141.5,138.5C 141.427,136.973 142.094,135.973 143.5,135.5C 143.5,135.833 143.5,136.167 143.5,136.5C 144.919,137.451 146.585,137.784 148.5,137.5C 153.275,137.387 156.275,135.053 157.5,130.5C 158.711,128.37 160.044,126.37 161.5,124.5C 163.67,123.162 165.336,121.328 166.5,119C 167.928,118.421 169.262,118.588 170.5,119.5 Z"/></g>
<g><path style="opacity:0.784" fill="#556f8d" d="M 5.5,89.5 C 5.5,96.8333 5.5,104.167 5.5,111.5C 5.33591,114.187 5.50258,116.854 6,119.5C 7.63161,123.911 9.13161,128.244 10.5,132.5C 10.2627,133.791 10.596,134.791 11.5,135.5C 11.5,136.167 11.5,136.833 11.5,137.5C 10.5,136.833 9.5,136.167 8.5,135.5C 6.41327,131.51 5.07993,127.177 4.5,122.5C 4.17207,111.321 4.5054,100.321 5.5,89.5 Z"/></g>
<g><path style="opacity:1" fill="#7bbed7" d="M 83.5,132.5 C 83.5,133.833 83.5,135.167 83.5,136.5C 84.5,136.5 85.5,136.5 86.5,136.5C 85.4324,137.434 84.099,137.768 82.5,137.5C 82.7989,135.396 82.4656,133.396 81.5,131.5C 80.8165,131.863 80.1499,132.196 79.5,132.5C 80.8333,128.5 82.1667,128.5 83.5,132.5 Z"/></g>
<g><path style="opacity:1" fill="#afd8ed" d="M 87.5,105.5 C 87.1694,112.863 87.5027,120.197 88.5,127.5C 89.1668,121.346 89.8334,115.346 90.5,109.5C 90.5,114.5 90.5,119.5 90.5,124.5C 90.5,128.5 90.5,132.5 90.5,136.5C 89.5416,136.047 88.7083,135.381 88,134.5C 87.7216,135.416 87.2216,136.082 86.5,136.5C 86.1724,125.986 86.5058,115.653 87.5,105.5 Z"/></g>
<g><path style="opacity:1" fill="#89c2dc" d="M 118.5,127.5 C 119.376,127.369 120.043,127.702 120.5,128.5C 122.02,130.662 123.02,132.995 123.5,135.5C 120.836,133.516 119.169,130.849 118.5,127.5 Z"/></g>
<g><path style="opacity:1" fill="#2fcd77" d="M 191.5,127.5 C 191.455,130.077 192.455,132.077 194.5,133.5C 194.5,134.5 194.5,135.5 194.5,136.5C 194.167,136.5 193.833,136.5 193.5,136.5C 191.821,136.108 190.154,135.608 188.5,135C 189.791,133.708 189.791,132.542 188.5,131.5C 188.5,130.833 188.5,130.167 188.5,129.5C 187.972,128.153 187.805,126.819 188,125.5C 188.816,126.823 189.983,127.489 191.5,127.5 Z"/></g>
<g><path style="opacity:1" fill="#81e1b0" d="M 191.5,127.5 C 192.803,129.142 194.136,130.809 195.5,132.5C 195.5,133.167 195.167,133.5 194.5,133.5C 192.455,132.077 191.455,130.077 191.5,127.5 Z"/></g>
<g><path style="opacity:1" fill="#caeff9" d="M 78.5,119.5 C 78.8333,119.5 79.1667,119.5 79.5,119.5C 79.9377,120.506 80.6043,120.506 81.5,119.5C 81.5,120.5 81.5,121.5 81.5,122.5C 79.5879,124.657 77.9213,126.991 76.5,129.5C 73.4116,131.375 70.0783,132.708 66.5,133.5C 19.8381,133.333 19.8381,132.833 66.5,132C 68.1749,131.015 69.8415,130.181 71.5,129.5C 71.5,128.833 71.5,128.167 71.5,127.5C 72.675,127.719 73.675,127.386 74.5,126.5C 75.9295,124.107 77.2628,121.774 78.5,119.5 Z"/></g>
<g><path style="opacity:1" fill="#aedfe2" d="M 147.5,131.5 C 148.833,131.5 149.5,132.167 149.5,133.5C 148.566,134.568 148.232,135.901 148.5,137.5C 146.585,137.784 144.919,137.451 143.5,136.5C 147.186,136.87 148.186,135.537 146.5,132.5C 146.5,131.833 146.833,131.5 147.5,131.5 Z"/></g>
<g><path style="opacity:1" fill="#b1ddef" d="M 66.5,129.5 C 68.1667,129.5 69.8333,129.5 71.5,129.5C 69.8415,130.181 68.1749,131.015 66.5,132C 19.8381,132.833 19.8381,133.333 66.5,133.5C 66.5,133.833 66.5,134.167 66.5,134.5C 52.8333,134.5 39.1667,134.5 25.5,134.5C 25.5,133.5 25.5,132.5 25.5,131.5C 39.0105,131.829 52.3438,131.496 65.5,130.5C 66.1667,130.5 66.5,130.167 66.5,129.5 Z"/></g>
<g><path style="opacity:1" fill="#7db6d6" d="M 76.5,129.5 C 74.2791,133.277 70.9458,134.944 66.5,134.5C 66.5,134.167 66.5,133.833 66.5,133.5C 70.0783,132.708 73.4116,131.375 76.5,129.5 Z"/></g>
<g><path style="opacity:1" fill="#398faf" d="M 137.5,127.5 C 139.858,127.253 141.858,127.919 143.5,129.5C 143.5,130.5 143.5,131.5 143.5,132.5C 144.5,132.5 145.5,132.5 146.5,132.5C 148.186,135.537 147.186,136.87 143.5,136.5C 143.5,136.167 143.5,135.833 143.5,135.5C 141.091,133.098 139.091,130.431 137.5,127.5 Z"/></g>
<g><path style="opacity:1" fill="#bcf3d3" d="M 177.5,129.5 C 178.974,130.436 179.974,131.77 180.5,133.5C 181.29,134.794 182.29,135.961 183.5,137C 187.027,137.808 190.36,137.641 193.5,136.5C 193.833,136.5 194.167,136.5 194.5,136.5C 194.672,137.492 194.338,138.158 193.5,138.5C 189.818,138.665 186.152,138.499 182.5,138C 179.979,136.442 178.312,134.275 177.5,131.5C 177.5,130.833 177.5,130.167 177.5,129.5 Z"/></g>
<g><path style="opacity:1" fill="#6bd69d" d="M 153.5,129.5 C 153.297,131.044 152.63,132.378 151.5,133.5C 152,133.833 152.5,134.167 153,134.5C 154.715,133.396 156.215,132.062 157.5,130.5C 156.275,135.053 153.275,137.387 148.5,137.5C 148.232,135.901 148.566,134.568 149.5,133.5C 150.473,131.861 151.806,130.527 153.5,129.5 Z"/></g>
<g><path style="opacity:1" fill="#5fd19d" d="M 182.5,129.5 C 184.149,130.649 185.649,131.982 187,133.5C 188.03,133.164 188.53,132.497 188.5,131.5C 189.791,132.542 189.791,133.708 188.5,135C 190.154,135.608 191.821,136.108 193.5,136.5C 190.36,137.641 187.027,137.808 183.5,137C 182.29,135.961 181.29,134.794 180.5,133.5C 182.176,132.817 182.843,131.483 182.5,129.5 Z"/></g>
<g><path style="opacity:1" fill="#85bdcf" d="M 75.5,135.5 C 75.5,136.167 75.5,136.833 75.5,137.5C 75.1667,137.5 74.8333,137.5 74.5,137.5C 56.992,137.83 39.6586,137.497 22.5,136.5C 40.2136,136.806 57.8802,136.473 75.5,135.5 Z"/></g>
<g><path style="opacity:1" fill="#d9eef4" d="M 95.5,113.5 C 95.5,121.5 95.5,129.5 95.5,137.5C 92.7531,137.187 90.0865,137.52 87.5,138.5C 84.4511,145.115 82.7844,145.115 82.5,138.5C 80.5769,136.824 78.2436,136.49 75.5,137.5C 75.5,136.833 75.5,136.167 75.5,135.5C 76.0347,133.554 77.368,132.554 79.5,132.5C 80.1499,132.196 80.8165,131.863 81.5,131.5C 82.4656,133.396 82.7989,135.396 82.5,137.5C 84.099,137.768 85.4324,137.434 86.5,136.5C 87.2216,136.082 87.7216,135.416 88,134.5C 88.7083,135.381 89.5416,136.047 90.5,136.5C 91.5,136.5 92.5,136.5 93.5,136.5C 94.1667,128.833 94.8333,121.167 95.5,113.5 Z"/></g>
<g><path style="opacity:1" fill="#bdcad8" d="M 17.5,148.5 C 21.8189,153.121 25.1522,158.454 27.5,164.5C 24.7411,161.779 22.2411,158.779 20,155.5C 19.6207,152.97 18.7874,150.637 17.5,148.5 Z"/></g>
<g><path style="opacity:0.353" fill="#49586d" d="M 8.5,135.5 C 9.5,136.167 10.5,136.833 11.5,137.5C 11.2291,139.38 11.8958,140.713 13.5,141.5C 14.1667,142.167 14.8333,142.833 15.5,143.5C 15.3915,145.514 16.0582,147.18 17.5,148.5C 18.7874,150.637 19.6207,152.97 20,155.5C 22.2411,158.779 24.7411,161.779 27.5,164.5C 28.9163,166.179 30.2497,167.846 31.5,169.5C 33.1667,171.5 34.8333,173.5 36.5,175.5C 33.2689,173.78 30.4356,171.447 28,168.5C 19.1783,158.851 12.6783,147.851 8.5,135.5 Z"/></g>
<g><path style="opacity:0.894" fill="#a6afbf" d="M 188.5,151.5 C 187.214,154.117 185.547,156.45 183.5,158.5C 184.01,155.326 185.677,152.992 188.5,151.5 Z"/></g>
<g><path style="opacity:0.173" fill="#575f70" d="M 195.5,139.5 C 195.5,140.167 195.5,140.833 195.5,141.5C 191.399,151.253 185.732,159.919 178.5,167.5C 180.043,165.072 181.043,162.406 181.5,159.5C 182.492,159.672 183.158,159.338 183.5,158.5C 185.547,156.45 187.214,154.117 188.5,151.5C 189.694,147.633 191.36,143.966 193.5,140.5C 194.167,140.167 194.833,139.833 195.5,139.5 Z"/></g>
<g><path style="opacity:0.675" fill="#aeb4c1" d="M 181.5,159.5 C 181.043,162.406 180.043,165.072 178.5,167.5C 176.938,167.733 175.605,168.4 174.5,169.5C 176.841,166.161 179.174,162.828 181.5,159.5 Z"/></g>
<g><path style="opacity:0.949" fill="#a2a6b3" d="M 31.5,169.5 C 34.4274,170.757 36.7607,172.757 38.5,175.5C 37.8333,175.5 37.1667,175.5 36.5,175.5C 34.8333,173.5 33.1667,171.5 31.5,169.5 Z"/></g>
<g><path style="opacity:0.467" fill="#707681" d="M 178.5,167.5 C 176.167,170.5 173.5,173.167 170.5,175.5C 170.5,174.833 170.5,174.167 170.5,173.5C 171.5,171.833 172.833,170.5 174.5,169.5C 175.605,168.4 176.938,167.733 178.5,167.5 Z"/></g>
<g><path style="opacity:0.698" fill="#aaadb5" d="M 170.5,173.5 C 170.5,174.167 170.5,174.833 170.5,175.5C 168.5,175.5 167.5,176.5 167.5,178.5C 167.167,178.5 166.833,178.5 166.5,178.5C 166.167,178.5 165.833,178.5 165.5,178.5C 166.167,175.833 167.833,174.167 170.5,173.5 Z"/></g>
<g><path style="opacity:0.059" fill="#4a4c51" d="M 170.5,175.5 C 169.833,176.833 168.833,177.833 167.5,178.5C 167.5,176.5 168.5,175.5 170.5,175.5 Z"/></g>
<g><path style="opacity:0.969" fill="#b3b6c2" d="M 38.5,175.5 C 41.0892,176.419 43.0892,178.086 44.5,180.5C 43.8333,180.5 43.1667,180.5 42.5,180.5C 41.1667,178.833 39.8333,177.167 38.5,175.5 Z"/></g>
<g><path style="opacity:0.278" fill="#555867" d="M 36.5,175.5 C 37.1667,175.5 37.8333,175.5 38.5,175.5C 39.8333,177.167 41.1667,178.833 42.5,180.5C 39.9108,179.581 37.9108,177.914 36.5,175.5 Z"/></g>
<g><path style="opacity:0.271" fill="#4f5565" d="M 42.5,180.5 C 43.1667,180.5 43.8333,180.5 44.5,180.5C 45.1667,181.5 45.8333,182.5 46.5,183.5C 44.5956,183.262 43.2623,182.262 42.5,180.5 Z"/></g>
<g><path style="opacity:1" fill="#b6bac6" d="M 44.5,180.5 C 46.1789,180.892 47.8455,181.392 49.5,182C 50.3574,184.019 51.6908,185.519 53.5,186.5C 52.8333,186.5 52.1667,186.5 51.5,186.5C 50.5084,186.672 49.8417,186.338 49.5,185.5C 49.0269,184.094 48.0269,183.427 46.5,183.5C 45.8333,182.5 45.1667,181.5 44.5,180.5 Z"/></g>
<g><path style="opacity:0.643" fill="#797d82" d="M 165.5,178.5 C 165.833,178.5 166.167,178.5 166.5,178.5C 162.698,182.237 158.365,185.237 153.5,187.5C 156.746,183.539 160.746,180.539 165.5,178.5 Z"/></g>
<g><path style="opacity:0.161" fill="#535863" d="M 46.5,183.5 C 48.0269,183.427 49.0269,184.094 49.5,185.5C 47.9731,185.573 46.9731,184.906 46.5,183.5 Z"/></g>
<g><path style="opacity:0.165" fill="#585b62" d="M 51.5,186.5 C 52.1667,186.5 52.8333,186.5 53.5,186.5C 53.8333,187.167 54.1667,187.833 54.5,188.5C 52.9731,188.573 51.9731,187.906 51.5,186.5 Z"/></g>
<g><path style="opacity:0.741" fill="#787f87" d="M 54.5,188.5 C 57.3933,188.031 59.3933,189.031 60.5,191.5C 58.1815,191.008 56.1815,190.008 54.5,188.5 Z"/></g>
<g><path style="opacity:0.008" fill="#595f62" d="M 151.5,188.5 C 150.341,190.25 148.674,191.25 146.5,191.5C 146.5,191.167 146.5,190.833 146.5,190.5C 147.78,189.069 149.447,188.402 151.5,188.5 Z"/></g>
<g><path style="opacity:1" fill="#a3a5a8" d="M 146.5,190.5 C 146.5,190.833 146.5,191.167 146.5,191.5C 144.351,192.736 142.018,193.736 139.5,194.5C 137.435,194.517 135.435,194.85 133.5,195.5C 135.8,194.164 138.133,192.831 140.5,191.5C 142.396,190.534 144.396,190.201 146.5,190.5 Z"/></g>
<g><path style="opacity:0.663" fill="#777a7e" d="M 60.5,191.5 C 61.8333,191.5 63.1667,191.5 64.5,191.5C 65.6935,192.272 66.6935,193.272 67.5,194.5C 64.8427,194.065 62.5093,193.065 60.5,191.5 Z"/></g>
<g><path style="opacity:1" fill="#d7dae0" d="M 64.5,191.5 C 66.6963,191.59 68.863,191.923 71,192.5C 74.4416,194.471 77.9416,196.137 81.5,197.5C 80.1667,197.5 78.8333,197.5 77.5,197.5C 74.4954,195.723 71.1621,194.723 67.5,194.5C 66.6935,193.272 65.6935,192.272 64.5,191.5 Z"/></g>
<g><path style="opacity:0.518" fill="#6f707a" d="M 67.5,194.5 C 71.1621,194.723 74.4954,195.723 77.5,197.5C 73.8379,197.277 70.5046,196.277 67.5,194.5 Z"/></g>
<g><path style="opacity:0.267" fill="#5f6069" d="M 139.5,194.5 C 136.495,196.277 133.162,197.277 129.5,197.5C 130.5,196.833 131.5,196.167 132.5,195.5C 132.833,195.5 133.167,195.5 133.5,195.5C 135.435,194.85 137.435,194.517 139.5,194.5 Z"/></g>
<g><path style="opacity:0.753" fill="#989ba1" d="M 77.5,197.5 C 78.8333,197.5 80.1667,197.5 81.5,197.5C 82.8333,197.5 84.1667,197.5 85.5,197.5C 87.6287,198.203 89.6287,199.203 91.5,200.5C 86.578,200.13 81.9114,199.13 77.5,197.5 Z"/></g>
<g><path style="opacity:0.754" fill="#dcdee2" d="M 132.5,195.5 C 131.5,196.167 130.5,196.833 129.5,197.5C 128.432,198.434 127.099,198.768 125.5,198.5C 121.351,197.92 117.684,198.586 114.5,200.5C 106.833,200.5 99.1667,200.5 91.5,200.5C 89.6287,199.203 87.6287,198.203 85.5,197.5C 90.4837,197.136 95.3171,197.803 100,199.5C 103.885,199.135 107.551,198.135 111,196.5C 113.411,197.139 115.911,197.473 118.5,197.5C 123.188,196.824 127.855,196.157 132.5,195.5 Z"/></g>
<g><path style="opacity:0.533" fill="#92959a" d="M 125.5,198.5 C 122.054,199.687 118.387,200.354 114.5,200.5C 117.684,198.586 121.351,197.92 125.5,198.5 Z"/></g>
</svg>
