<?xml version="1.0" encoding="UTF-8"?>
<!DOCTYPE svg PUBLIC "-//W3C//DTD SVG 1.1//EN" "http://www.w3.org/Graphics/SVG/1.1/DTD/svg11.dtd">
<svg xmlns="http://www.w3.org/2000/svg" version="1.1" width="370px" height="370px" style="shape-rendering:geometricPrecision; text-rendering:geometricPrecision; image-rendering:optimizeQuality; fill-rule:evenodd; clip-rule:evenodd" xmlns:xlink="http://www.w3.org/1999/xlink">
<g><path style="opacity:0.788" fill="#eeeeee" d="M 165.5,-0.5 C 178.167,-0.5 190.833,-0.5 203.5,-0.5C 282.707,11.2037 335.541,54.8703 362,130.5C 365.228,142.15 367.728,153.816 369.5,165.5C 369.5,178.167 369.5,190.833 369.5,203.5C 357.796,282.707 314.13,335.541 238.5,362C 226.85,365.228 215.184,367.728 203.5,369.5C 190.833,369.5 178.167,369.5 165.5,369.5C 86.2926,357.796 33.4592,314.13 7,238.5C 3.77193,226.85 1.27193,215.184 -0.5,203.5C -0.5,190.833 -0.5,178.167 -0.5,165.5C 11.2037,86.2926 54.8703,33.4592 130.5,7C 142.15,3.77193 153.816,1.27193 165.5,-0.5 Z"/></g>
<g><path style="opacity:1" fill="#3e3e3e" d="M 199.5,5.5 C 201.167,5.5 202.833,5.5 204.5,5.5C 204.5,5.83333 204.5,6.16667 204.5,6.5C 189.484,6.3338 174.484,6.66714 159.5,7.5C 160.952,6.69808 162.618,6.19808 164.5,6C 176.162,5.50014 187.829,5.33347 199.5,5.5 Z"/></g>
<g><path style="opacity:1" fill="#8a8a8a" d="M 199.5,5.5 C 187.829,5.33347 176.162,5.50014 164.5,6C 162.618,6.19808 160.952,6.69808 159.5,7.5C 156.167,7.83333 152.833,8.16667 149.5,8.5C 148.5,8.5 147.5,8.5 146.5,8.5C 151.638,7.05283 156.971,5.88617 162.5,5C 175.007,4.17347 187.34,4.34014 199.5,5.5 Z"/></g>
<g><path style="opacity:1" fill="#b0b0b0" d="M 204.5,6.5 C 204.5,6.16667 204.5,5.83333 204.5,5.5C 210.511,5.80103 216.511,6.30103 222.5,7C 227.891,9.41634 233.558,11.083 239.5,12C 240.942,12.3768 241.942,13.2101 242.5,14.5C 234.289,12.9481 226.289,10.7814 218.5,8C 213.844,7.33453 209.177,6.83453 204.5,6.5 Z"/></g>
<g><path style="opacity:1" fill="#3b3b3b" d="M 146.5,8.5 C 147.5,8.5 148.5,8.5 149.5,8.5C 144.3,10.594 138.966,12.4274 133.5,14C 137.188,14.4501 140.854,14.2834 144.5,13.5C 142.485,14.9238 140.152,15.5905 137.5,15.5C 135.435,15.5172 133.435,15.8505 131.5,16.5C 131.611,15.8826 131.944,15.3826 132.5,15C 130.527,14.5045 128.527,14.3379 126.5,14.5C 132.714,11.2759 139.381,9.27586 146.5,8.5 Z"/></g>
<g><path style="opacity:1" fill="#f5f5f5" d="M 204.5,11.5 C 215.494,13.4969 226.494,15.4969 237.5,17.5C 238.568,18.4345 239.901,18.7678 241.5,18.5C 249.177,22.2311 256.844,26.0644 264.5,30C 265.793,30.49 267.127,30.6567 268.5,30.5C 269.514,31.6737 270.847,32.3404 272.5,32.5C 273.487,35.0858 275.487,36.4191 278.5,36.5C 284.66,41.0804 290.993,45.4138 297.5,49.5C 298.585,51.5869 300.251,52.9202 302.5,53.5C 304.5,56.1667 306.833,58.5 309.5,60.5C 312.436,65.1053 316.102,69.1053 320.5,72.5C 321.833,73.8333 323.167,75.1667 324.5,76.5C 324.562,80.5684 326.562,83.235 330.5,84.5C 330.343,85.8734 330.51,87.2068 331,88.5C 335.084,93.7355 338.917,99.0688 342.5,104.5C 344.008,106.181 345.008,108.181 345.5,110.5C 345.752,114.327 347.085,117.66 349.5,120.5C 350.537,121.93 351.204,123.597 351.5,125.5C 354.636,136.653 357.469,147.986 360,159.5C 361.767,175.484 361.934,191.484 360.5,207.5C 360.5,210.5 360.5,213.5 360.5,216.5C 357.084,226.212 354.084,236.212 351.5,246.5C 349.888,250.471 348.221,254.471 346.5,258.5C 345.542,258.953 344.708,259.619 344,260.5C 342.826,264.178 341.659,267.844 340.5,271.5C 338.408,274.681 336.075,277.681 333.5,280.5C 320.027,300.14 303.36,316.64 283.5,330C 277.434,333.024 271.768,336.524 266.5,340.5C 258.549,344.974 250.216,348.641 241.5,351.5C 237.786,351.59 234.452,352.59 231.5,354.5C 222.583,355.523 213.917,357.19 205.5,359.5C 191.496,359.667 177.496,359.5 163.5,359C 155.42,357.817 147.42,356.317 139.5,354.5C 133.085,353.153 126.752,351.486 120.5,349.5C 117.2,347.358 113.533,346.025 109.5,345.5C 101.6,341.544 93.9333,337.044 86.5,332C 85.1667,331.667 83.8333,331.333 82.5,331C 81.241,328.273 79.241,326.439 76.5,325.5C 74.596,320.918 71.2627,318.252 66.5,317.5C 63.4372,313.434 59.7706,310.101 55.5,307.5C 44.9801,296.377 35.9801,284.377 28.5,271.5C 26.3412,265.849 23.6745,260.516 20.5,255.5C 18.7389,247.757 16.0722,240.423 12.5,233.5C 12.5,233.167 12.5,232.833 12.5,232.5C 12.4462,226.986 11.1129,221.986 8.5,217.5C 8.5,215.5 8.5,213.5 8.5,211.5C 5.90194,191.495 5.90194,171.495 8.5,151.5C 8.32842,150.508 8.66175,149.842 9.5,149.5C 11.3699,146.191 12.3699,142.525 12.5,138.5C 14.0939,132.051 16.0939,125.718 18.5,119.5C 22.7814,111.936 26.7814,104.269 30.5,96.5C 30.5,96.1667 30.5,95.8333 30.5,95.5C 33.5177,94.145 34.851,91.8116 34.5,88.5C 38.4383,87.235 40.4383,84.5684 40.5,80.5C 54.0415,64.9032 69.0415,50.9032 85.5,38.5C 90.8605,37.4672 95.1938,34.8005 98.5,30.5C 100.5,29.8333 102.5,29.1667 104.5,28.5C 109.731,27.5273 114.398,25.3606 118.5,22C 123.759,20.2022 129.092,18.7022 134.5,17.5C 145.803,15.6694 157.136,13.836 168.5,12C 180.495,11.5001 192.495,11.3335 204.5,11.5 Z"/></g>
<g><path style="opacity:1" fill="#cfcfcf" d="M 204.5,10.5 C 204.5,10.8333 204.5,11.1667 204.5,11.5C 192.495,11.3335 180.495,11.5001 168.5,12C 157.136,13.836 145.803,15.6694 134.5,17.5C 135.5,16.8333 136.5,16.1667 137.5,15.5C 140.152,15.5905 142.485,14.9238 144.5,13.5C 150.923,13.3681 157.257,12.5348 163.5,11C 177.163,10.5001 190.829,10.3334 204.5,10.5 Z"/></g>
<g><path style="opacity:1" fill="#636363" d="M 204.5,11.5 C 204.5,11.1667 204.5,10.8333 204.5,10.5C 209.536,10.5878 214.536,11.0878 219.5,12C 225.757,13.3662 231.757,15.1996 237.5,17.5C 226.494,15.4969 215.494,13.4969 204.5,11.5 Z"/></g>
<g><path style="opacity:1" fill="#1c1c1c" d="M 204.5,6.5 C 209.177,6.83453 213.844,7.33453 218.5,8C 226.289,10.7814 234.289,12.9481 242.5,14.5C 246.669,16.2219 251.002,17.5552 255.5,18.5C 262.185,23.5125 269.518,27.5125 277.5,30.5C 281.323,33.9157 285.657,36.5824 290.5,38.5C 293.929,42.2624 297.929,45.2624 302.5,47.5C 304.569,50.5725 307.236,52.9059 310.5,54.5C 316.13,60.6314 321.964,66.6314 328,72.5C 330.635,76.6357 333.468,80.6357 336.5,84.5C 337.052,89.2633 339.385,92.9299 343.5,95.5C 351.347,109.329 357.347,123.996 361.5,139.5C 361.676,142.727 362.343,145.727 363.5,148.5C 363.116,152.489 363.783,156.155 365.5,159.5C 365.5,159.833 365.5,160.167 365.5,160.5C 366.267,170.815 366.601,181.148 366.5,191.5C 366.5,194.167 366.5,196.833 366.5,199.5C 366.5,202.833 366.5,206.167 366.5,209.5C 365.768,210.808 364.934,212.142 364,213.5C 363.43,219.962 362.263,226.296 360.5,232.5C 359.114,238.266 357.447,243.932 355.5,249.5C 353.787,250.635 353.12,252.302 353.5,254.5C 353.5,254.833 353.5,255.167 353.5,255.5C 350.295,257.909 348.628,261.242 348.5,265.5C 347.662,265.842 347.328,266.508 347.5,267.5C 345,270.494 343,273.827 341.5,277.5C 338.449,281.223 335.782,285.223 333.5,289.5C 329.408,293.258 326.074,297.591 323.5,302.5C 311.023,314.988 297.689,326.321 283.5,336.5C 281.326,336.75 279.659,337.75 278.5,339.5C 275.965,340.349 273.465,341.349 271,342.5C 270.5,342.333 270,342.167 269.5,342C 271.063,341.241 272.063,340.074 272.5,338.5C 295.23,324.944 314.73,307.611 331,286.5C 332.122,284.593 332.955,282.593 333.5,280.5C 336.075,277.681 338.408,274.681 340.5,271.5C 343.636,267.789 345.636,263.455 346.5,258.5C 348.221,254.471 349.888,250.471 351.5,246.5C 353.787,242.848 355.621,238.848 357,234.5C 358.587,228.486 359.754,222.486 360.5,216.5C 360.5,213.5 360.5,210.5 360.5,207.5C 360.833,207.5 361.167,207.5 361.5,207.5C 362.268,206.737 362.768,205.737 363,204.5C 363.827,190.994 363.66,177.66 362.5,164.5C 360.961,150.749 357.295,137.749 351.5,125.5C 351.204,123.597 350.537,121.93 349.5,120.5C 349.248,116.673 347.915,113.34 345.5,110.5C 345.008,108.181 344.008,106.181 342.5,104.5C 340.044,96.9245 336.044,90.2578 330.5,84.5C 328.984,81.4669 326.984,78.8003 324.5,76.5C 323.167,75.1667 321.833,73.8333 320.5,72.5C 317.564,67.8947 313.898,63.8947 309.5,60.5C 306.833,58.5 304.5,56.1667 302.5,53.5C 301.415,51.4131 299.749,50.0798 297.5,49.5C 290.993,45.4138 284.66,41.0804 278.5,36.5C 277.198,34.1782 275.198,32.8449 272.5,32.5C 270.847,32.3404 269.514,31.6737 268.5,30.5C 260.418,24.8322 251.418,20.8322 241.5,18.5C 239.901,18.7678 238.568,18.4345 237.5,17.5C 231.757,15.1996 225.757,13.3662 219.5,12C 214.536,11.0878 209.536,10.5878 204.5,10.5C 190.673,9.33932 176.673,9.17266 162.5,10C 156.309,10.8885 150.309,12.0551 144.5,13.5C 140.854,14.2834 137.188,14.4501 133.5,14C 138.966,12.4274 144.3,10.594 149.5,8.5C 152.833,8.16667 156.167,7.83333 159.5,7.5C 174.484,6.66714 189.484,6.3338 204.5,6.5 Z"/></g>
<g><path style="opacity:1" fill="#6a6a6a" d="M 204.5,10.5 C 190.829,10.3334 177.163,10.5001 163.5,11C 157.257,12.5348 150.923,13.3681 144.5,13.5C 150.309,12.0551 156.309,10.8885 162.5,10C 176.673,9.17266 190.673,9.33932 204.5,10.5 Z"/></g>
<g><path style="opacity:1" fill="#ababab" d="M 122.5,15.5 C 115.027,17.8948 107.694,20.8948 100.5,24.5C 106.469,18.5468 113.802,15.5468 122.5,15.5 Z"/></g>
<g><path style="opacity:1" fill="#737373" d="M 137.5,15.5 C 136.5,16.1667 135.5,16.8333 134.5,17.5C 129.092,18.7022 123.759,20.2022 118.5,22C 114.398,25.3606 109.731,27.5273 104.5,28.5C 104.369,27.6236 104.702,26.9569 105.5,26.5C 109.454,25.7727 112.954,24.1061 116,21.5C 121.154,19.7261 126.321,18.0595 131.5,16.5C 133.435,15.8505 135.435,15.5172 137.5,15.5 Z"/></g>
<g><path style="opacity:1" fill="#d0d0d0" d="M 228.5,26.5 C 227.167,26.5 225.833,26.5 224.5,26.5C 224.082,25.7784 223.416,25.2784 222.5,25C 213.594,23.1258 204.594,22.2925 195.5,22.5C 195.167,22.5 194.833,22.5 194.5,22.5C 194.5,22.1667 194.5,21.8333 194.5,21.5C 184.295,20.2038 173.961,20.2038 163.5,21.5C 163.611,20.8826 163.944,20.3826 164.5,20C 183.942,18.9175 203.276,19.9175 222.5,23C 224.618,24.0821 226.618,25.2488 228.5,26.5 Z"/></g>
<g><path style="opacity:1" fill="#767676" d="M 241.5,18.5 C 251.418,20.8322 260.418,24.8322 268.5,30.5C 267.127,30.6567 265.793,30.49 264.5,30C 256.844,26.0644 249.177,22.2311 241.5,18.5 Z"/></g>
<g><path style="opacity:1" fill="#777777" d="M 255.5,18.5 C 262.569,21.5329 269.569,24.8662 276.5,28.5C 277.298,28.9569 277.631,29.6236 277.5,30.5C 269.518,27.5125 262.185,23.5125 255.5,18.5 Z"/></g>
<g><path style="opacity:1" fill="#2e2e2e" d="M 194.5,21.5 C 194.5,21.8333 194.5,22.1667 194.5,22.5C 183.836,22.9116 173.17,23.2449 162.5,23.5C 172.943,21.7283 183.61,21.0616 194.5,21.5 Z"/></g>
<g><path style="opacity:1" fill="#010101" d="M 194.5,22.5 C 194.833,22.5 195.167,22.5 195.5,22.5C 204.833,24.5412 214.5,25.8746 224.5,26.5C 228.542,28.2367 232.876,29.2367 237.5,29.5C 237.842,30.3382 238.508,30.6716 239.5,30.5C 240.058,31.7899 241.058,32.6232 242.5,33C 245.802,34.0262 249.135,34.8596 252.5,35.5C 255.388,38.7803 259.055,40.7803 263.5,41.5C 265.5,42.1667 267.5,42.8333 269.5,43.5C 270.712,46.1068 272.712,47.7735 275.5,48.5C 277.16,51.6262 279.826,53.2928 283.5,53.5C 287.944,58.2185 292.944,62.2185 298.5,65.5C 301.167,68.8333 304.167,71.8333 307.5,74.5C 307.5,74.8333 307.5,75.1667 307.5,75.5C 309.43,79.1002 312.097,82.1002 315.5,84.5C 316.419,87.0892 318.086,89.0892 320.5,90.5C 323.012,96.6719 326.345,102.339 330.5,107.5C 332.25,108.659 333.25,110.326 333.5,112.5C 333.755,114.967 334.755,116.967 336.5,118.5C 337.831,121.126 339.165,123.793 340.5,126.5C 340.528,129.916 341.528,132.916 343.5,135.5C 344.987,142.088 346.154,148.755 347,155.5C 347.278,156.416 347.778,157.082 348.5,157.5C 349.537,166.968 350.204,176.468 350.5,186C 350.511,194.243 349.844,202.409 348.5,210.5C 347.884,216.245 346.884,221.911 345.5,227.5C 343.787,228.635 343.12,230.302 343.5,232.5C 342.25,235.006 341.584,237.673 341.5,240.5C 340.566,241.568 340.232,242.901 340.5,244.5C 338.755,246.033 337.755,248.033 337.5,250.5C 335.787,251.635 335.12,253.302 335.5,255.5C 333.213,259.392 330.879,263.392 328.5,267.5C 326.05,269.629 324.383,272.296 323.5,275.5C 318.864,280.979 314.364,286.646 310,292.5C 304.915,297.416 300.081,302.416 295.5,307.5C 285.435,314.899 275.102,321.899 264.5,328.5C 257.346,332.413 250.013,335.747 242.5,338.5C 236.967,339.79 231.634,341.457 226.5,343.5C 225.833,343.5 225.167,343.5 224.5,343.5C 217.701,344.016 211.035,345.182 204.5,347C 189.821,347.661 175.154,347.495 160.5,346.5C 153.877,345.316 147.211,344.316 140.5,343.5C 140.167,343.5 139.833,343.5 139.5,343.5C 137.485,342.076 135.152,341.41 132.5,341.5C 129.46,339.654 126.127,338.321 122.5,337.5C 120.083,335.063 117.083,333.73 113.5,333.5C 109.813,332.423 106.48,330.757 103.5,328.5C 100.35,325.421 96.6829,323.087 92.5,321.5C 90.5,320.5 88.5,319.5 86.5,318.5C 84.1997,316.016 81.5331,314.016 78.5,312.5C 71.4504,304.484 63.7837,297.15 55.5,290.5C 53.984,287.467 51.984,284.8 49.5,282.5C 47.0753,278.648 44.4086,274.981 41.5,271.5C 41.3404,269.847 40.6737,268.514 39.5,267.5C 35.1872,257.504 30.5205,247.837 25.5,238.5C 25.7406,236.102 25.0739,234.102 23.5,232.5C 23.5,232.167 23.5,231.833 23.5,231.5C 22.532,225.968 21.1986,220.634 19.5,215.5C 18.1144,206.066 17.4478,196.566 17.5,187C 17.6799,175.09 18.6799,163.257 20.5,151.5C 21.7496,148.994 22.4162,146.327 22.5,143.5C 23.9238,141.485 24.5905,139.152 24.5,136.5C 24.5172,134.435 24.8505,132.435 25.5,130.5C 26.9063,130.027 27.573,129.027 27.5,127.5C 29.5918,124.912 30.9251,121.912 31.5,118.5C 32.6871,115.388 34.0204,112.388 35.5,109.5C 46.6114,89.8671 60.9448,72.7004 78.5,58C 83.929,54.631 88.929,50.7977 93.5,46.5C 95.5,45.8333 97.5,45.1667 99.5,44.5C 100.873,44.6567 102.207,44.49 103.5,44C 108.319,41.4235 112.986,38.5902 117.5,35.5C 120.625,33.8737 123.958,32.5403 127.5,31.5C 136.521,28.8881 145.521,26.5548 154.5,24.5C 156.948,23.5269 159.615,23.1936 162.5,23.5C 173.17,23.2449 183.836,22.9116 194.5,22.5 Z"/></g>
<g><path style="opacity:1" fill="#8d8d8d" d="M 194.5,21.5 C 183.61,21.0616 172.943,21.7283 162.5,23.5C 159.615,23.1936 156.948,23.5269 154.5,24.5C 153.167,24.5 151.833,24.5 150.5,24.5C 154.587,22.9358 158.921,21.9358 163.5,21.5C 173.961,20.2038 184.295,20.2038 194.5,21.5 Z"/></g>
<g><path style="opacity:1" fill="#5a5a5a" d="M 195.5,22.5 C 204.594,22.2925 213.594,23.1258 222.5,25C 223.416,25.2784 224.082,25.7784 224.5,26.5C 214.5,25.8746 204.833,24.5412 195.5,22.5 Z"/></g>
<g><path style="opacity:1" fill="#434343" d="M 150.5,24.5 C 151.833,24.5 153.167,24.5 154.5,24.5C 145.521,26.5548 136.521,28.8881 127.5,31.5C 131.083,29.6396 134.749,27.9729 138.5,26.5C 142.5,25.8333 146.5,25.1667 150.5,24.5 Z"/></g>
<g><path style="opacity:1" fill="#797979" d="M 224.5,26.5 C 225.833,26.5 227.167,26.5 228.5,26.5C 231.916,26.5275 234.916,27.5275 237.5,29.5C 232.876,29.2367 228.542,28.2367 224.5,26.5 Z"/></g>
<g><path style="opacity:1" fill="#ababab" d="M 138.5,26.5 C 134.749,27.9729 131.083,29.6396 127.5,31.5C 123.958,32.5403 120.625,33.8737 117.5,35.5C 113.545,36.8026 109.545,38.1359 105.5,39.5C 108.516,36.5186 112.183,34.3519 116.5,33C 123.757,30.5362 131.09,28.3695 138.5,26.5 Z"/></g>
<g><path style="opacity:1" fill="#898989" d="M 277.5,30.5 C 282.955,31.3918 287.288,34.0585 290.5,38.5C 285.657,36.5824 281.323,33.9157 277.5,30.5 Z"/></g>
<g><path style="opacity:1" fill="#959595" d="M 90.5,29.5 C 88.3424,31.9929 85.6757,33.6595 82.5,34.5C 84.6291,32.0499 87.2957,30.3833 90.5,29.5 Z"/></g>
<g><path style="opacity:1" fill="#878787" d="M 98.5,30.5 C 95.1938,34.8005 90.8605,37.4672 85.5,38.5C 89.3233,35.0843 93.6566,32.4176 98.5,30.5 Z"/></g>
<g><path style="opacity:1" fill="#7e7e7e" d="M 239.5,30.5 C 244.461,30.8242 248.794,32.4909 252.5,35.5C 249.135,34.8596 245.802,34.0262 242.5,33C 241.058,32.6232 240.058,31.7899 239.5,30.5 Z"/></g>
<g><path style="opacity:1" fill="#757575" d="M 272.5,32.5 C 275.198,32.8449 277.198,34.1782 278.5,36.5C 275.487,36.4191 273.487,35.0858 272.5,32.5 Z"/></g>
<g><path style="opacity:1" fill="#848484" d="M 82.5,34.5 C 80.0515,37.5558 77.0515,39.8892 73.5,41.5C 75.9485,38.4442 78.9485,36.1108 82.5,34.5 Z"/></g>
<g><path style="opacity:1" fill="#1a1a1a" d="M 126.5,14.5 C 128.527,14.3379 130.527,14.5045 132.5,15C 131.944,15.3826 131.611,15.8826 131.5,16.5C 126.321,18.0595 121.154,19.7261 116,21.5C 112.954,24.1061 109.454,25.7727 105.5,26.5C 104.702,26.9569 104.369,27.6236 104.5,28.5C 102.5,29.1667 100.5,29.8333 98.5,30.5C 93.6566,32.4176 89.3233,35.0843 85.5,38.5C 76.1633,43.9894 67.4966,50.4894 59.5,58C 52.5574,65.099 46.224,72.599 40.5,80.5C 38.016,82.8003 36.016,85.4669 34.5,88.5C 32.412,90.3356 31.0787,92.6689 30.5,95.5C 30.5,95.8333 30.5,96.1667 30.5,96.5C 25.2532,102.645 21.2532,109.645 18.5,117.5C 17.3501,118.85 16.6834,118.684 16.5,117C 16.9891,115.862 17.3225,114.695 17.5,113.5C 20.6603,103.66 25.327,94.6604 31.5,86.5C 33.8218,85.1979 35.1551,83.1979 35.5,80.5C 37.8903,79.1092 39.5569,77.1092 40.5,74.5C 42.7094,69.6187 46.0427,65.6187 50.5,62.5C 54.1667,59.5 57.5,56.1667 60.5,52.5C 65.1323,49.2022 69.4656,45.5355 73.5,41.5C 77.0515,39.8892 80.0515,37.5558 82.5,34.5C 85.6757,33.6595 88.3424,31.9929 90.5,29.5C 93.8333,27.8333 97.1667,26.1667 100.5,24.5C 107.694,20.8948 115.027,17.8948 122.5,15.5C 123.568,14.5655 124.901,14.2322 126.5,14.5 Z"/></g>
<g><path style="opacity:1" fill="#5f5f5f" d="M 252.5,35.5 C 256.611,36.7532 260.277,38.7532 263.5,41.5C 259.055,40.7803 255.388,38.7803 252.5,35.5 Z"/></g>
<g><path style="opacity:1" fill="#a0a0a0" d="M 290.5,38.5 C 295.915,39.5477 299.915,42.5477 302.5,47.5C 297.929,45.2624 293.929,42.2624 290.5,38.5 Z"/></g>
<g><path style="opacity:1" fill="#393939" d="M 117.5,35.5 C 112.986,38.5902 108.319,41.4235 103.5,44C 102.207,44.49 100.873,44.6567 99.5,44.5C 101.36,43.0613 103.027,41.3947 104.5,39.5C 104.833,39.5 105.167,39.5 105.5,39.5C 109.545,38.1359 113.545,36.8026 117.5,35.5 Z"/></g>
<g><path style="opacity:1" fill="#7c7c7c" d="M 85.5,38.5 C 69.0415,50.9032 54.0415,64.9032 40.5,80.5C 46.224,72.599 52.5574,65.099 59.5,58C 67.4966,50.4894 76.1633,43.9894 85.5,38.5 Z"/></g>
<g><path style="opacity:1" fill="#b2b2b2" d="M 104.5,39.5 C 103.027,41.3947 101.36,43.0613 99.5,44.5C 97.5,45.1667 95.5,45.8333 93.5,46.5C 96.894,43.7795 100.561,41.4462 104.5,39.5 Z"/></g>
<g><path style="opacity:1" fill="#939393" d="M 269.5,43.5 C 272.511,44.6693 275.178,46.336 277.5,48.5C 276.833,48.5 276.167,48.5 275.5,48.5C 272.712,47.7735 270.712,46.1068 269.5,43.5 Z"/></g>
<g><path style="opacity:1" fill="#818181" d="M 302.5,47.5 C 305.764,49.0941 308.431,51.4275 310.5,54.5C 307.236,52.9059 304.569,50.5725 302.5,47.5 Z"/></g>
<g><path style="opacity:1" fill="#686868" d="M 73.5,41.5 C 69.4656,45.5355 65.1323,49.2022 60.5,52.5C 63.9481,47.7131 68.2814,44.0464 73.5,41.5 Z"/></g>
<g><path style="opacity:1" fill="#676767" d="M 297.5,49.5 C 299.749,50.0798 301.415,51.4131 302.5,53.5C 300.251,52.9202 298.585,51.5869 297.5,49.5 Z"/></g>
<g><path style="opacity:1" fill="#959595" d="M 93.5,46.5 C 88.929,50.7977 83.929,54.631 78.5,58C 60.9448,72.7004 46.6114,89.8671 35.5,109.5C 35.3433,108.127 35.51,106.793 36,105.5C 50.3045,81.0296 69.4712,61.3629 93.5,46.5 Z"/></g>
<g><path style="opacity:1" fill="#494949" d="M 275.5,48.5 C 276.167,48.5 276.833,48.5 277.5,48.5C 279.869,49.69 281.869,51.3567 283.5,53.5C 279.826,53.2928 277.16,51.6262 275.5,48.5 Z"/></g>
<g><path style="opacity:1" fill="#9e9e9e" d="M 283.5,53.5 C 290.125,55.3308 295.125,59.3308 298.5,65.5C 292.944,62.2185 287.944,58.2185 283.5,53.5 Z"/></g>
<g><path style="opacity:1" fill="#6f6f6f" d="M 60.5,52.5 C 57.5,56.1667 54.1667,59.5 50.5,62.5C 52.8333,58.1667 56.1667,54.8333 60.5,52.5 Z"/></g>
<g><path style="opacity:1" fill="#9b9b9b" d="M 309.5,60.5 C 313.898,63.8947 317.564,67.8947 320.5,72.5C 316.102,69.1053 312.436,65.1053 309.5,60.5 Z"/></g>
<g><path style="opacity:1" fill="#989898" d="M 298.5,65.5 C 302.5,67.5 305.5,70.5 307.5,74.5C 304.167,71.8333 301.167,68.8333 298.5,65.5 Z"/></g>
<g><path style="opacity:1" fill="#0e2632" d="M 231.5,78.5 C 192.832,78.3333 154.165,78.5 115.5,79C 114.177,79.8159 113.511,80.9826 113.5,82.5C 113.068,83.7095 112.401,84.7095 111.5,85.5C 111.377,82.4121 112.377,79.7454 114.5,77.5C 150.829,76.3334 187.162,76.1668 223.5,77C 226.365,77.1829 229.031,77.6829 231.5,78.5 Z"/></g>
<g><path style="opacity:1" fill="#404040" d="M 307.5,75.5 C 310.903,77.8998 313.57,80.8998 315.5,84.5C 312.097,82.1002 309.43,79.1002 307.5,75.5 Z"/></g>
<g><path style="opacity:1" fill="#6e6e6e" d="M 40.5,74.5 C 39.5569,77.1092 37.8903,79.1092 35.5,80.5C 36.4735,77.865 38.1402,75.865 40.5,74.5 Z"/></g>
<g><path style="opacity:1" fill="#205873" d="M 231.5,78.5 C 234.145,80.3104 237.145,81.3104 240.5,81.5C 240.833,82.1667 241.167,82.8333 241.5,83.5C 239.5,83.5 237.5,83.5 235.5,83.5C 232.619,81.32 229.286,80.32 225.5,80.5C 189.336,79.3356 153.002,79.169 116.5,80C 115.627,81.045 114.627,81.8783 113.5,82.5C 113.511,80.9826 114.177,79.8159 115.5,79C 154.165,78.5 192.832,78.3333 231.5,78.5 Z"/></g>
<g><path style="opacity:1" fill="#a2a2a2" d="M 324.5,76.5 C 326.984,78.8003 328.984,81.4669 330.5,84.5C 326.562,83.235 324.562,80.5684 324.5,76.5 Z"/></g>
<g><path style="opacity:1" fill="#348eb4" d="M 235.5,83.5 C 237.5,83.5 239.5,83.5 241.5,83.5C 251.27,88.2625 259.937,94.5958 267.5,102.5C 268.458,102.953 269.292,103.619 270,104.5C 272.45,110.295 274.283,116.295 275.5,122.5C 275.9,133.97 274.9,145.303 272.5,156.5C 271.325,156.281 270.325,156.614 269.5,157.5C 265.85,166.825 259.85,174.158 251.5,179.5C 242.902,181.697 234.236,183.697 225.5,185.5C 228.906,183.891 232.573,182.724 236.5,182C 241.632,178.767 246.966,176.1 252.5,174C 259.467,167.93 264.134,160.43 266.5,151.5C 272.951,134.687 271.451,118.687 262,103.5C 261.329,102.748 260.496,102.414 259.5,102.5C 257.577,99.3968 255.41,96.3968 253,93.5C 251.59,92.2125 250.09,91.0458 248.5,90C 242.528,88.8421 236.862,87.0088 231.5,84.5C 227.849,83.8345 224.015,83.5012 220,83.5C 215.083,83.4225 210.25,83.9225 205.5,85C 201.471,89.5384 198.471,94.7051 196.5,100.5C 205.41,102.049 214.41,102.882 223.5,103C 226.309,104.093 228.976,105.26 231.5,106.5C 192.002,102.101 152.335,100.101 112.5,100.5C 114.543,96.0428 116.21,91.3762 117.5,86.5C 118.376,85.7492 119.376,85.2492 120.5,85C 149.847,84.0993 179.18,82.9326 208.5,81.5C 217.614,81.2623 226.614,81.9289 235.5,83.5 Z"/></g>
<g><path style="opacity:1" fill="#696969" d="M 35.5,80.5 C 35.1551,83.1979 33.8218,85.1979 31.5,86.5C 32.3403,84.1475 33.6736,82.1475 35.5,80.5 Z"/></g>
<g><path style="opacity:1" fill="#153c4c" d="M 240.5,81.5 C 252.176,85.1888 261.176,92.1888 267.5,102.5C 259.937,94.5958 251.27,88.2625 241.5,83.5C 241.167,82.8333 240.833,82.1667 240.5,81.5 Z"/></g>
<g><path style="opacity:1" fill="#a4a4a4" d="M 40.5,80.5 C 40.4383,84.5684 38.4383,87.235 34.5,88.5C 36.016,85.4669 38.016,82.8003 40.5,80.5 Z"/></g>
<g><path style="opacity:1" fill="#5ab2d1" d="M 231.5,84.5 C 236.862,87.0088 242.528,88.8421 248.5,90C 250.09,91.0458 251.59,92.2125 253,93.5C 255.41,96.3968 257.577,99.3968 259.5,102.5C 263.369,108.273 265.535,114.607 266,121.5C 262.401,128.46 258.734,135.46 255,142.5C 254.667,137.833 254.333,133.167 254,128.5C 250.862,125.095 248.862,121.095 248,116.5C 245.628,114.297 243.461,111.963 241.5,109.5C 245.768,111.933 249.268,115.266 252,119.5C 254.129,115.116 256.629,110.949 259.5,107C 257,103.167 254.5,99.3333 252,95.5C 245.268,89.7473 237.435,87.2473 228.5,88C 226.082,92.0014 224.082,96.1681 222.5,100.5C 229.567,101.627 235.9,104.294 241.5,108.5C 236.131,106.656 230.798,104.49 225.5,102C 220.467,101.829 215.467,101.329 210.5,100.5C 210.167,99.8333 209.833,99.1667 209.5,98.5C 212.417,94.3339 215.084,90.0006 217.5,85.5C 222.12,84.5067 226.786,84.1734 231.5,84.5 Z"/></g>
<g><path style="opacity:1" fill="#5e5e5e" d="M 315.5,84.5 C 317.914,85.9108 319.581,87.9108 320.5,90.5C 318.086,89.0892 316.419,87.0892 315.5,84.5 Z"/></g>
<g><path style="opacity:1" fill="#6ec4df" d="M 241.5,109.5 C 241.5,109.167 241.5,108.833 241.5,108.5C 235.9,104.294 229.567,101.627 222.5,100.5C 224.082,96.1681 226.082,92.0014 228.5,88C 237.435,87.2473 245.268,89.7473 252,95.5C 254.5,99.3333 257,103.167 259.5,107C 256.629,110.949 254.129,115.116 252,119.5C 249.268,115.266 245.768,111.933 241.5,109.5 Z"/></g>
<g><path style="opacity:1" fill="#565656" d="M 336.5,84.5 C 339.381,87.7933 341.714,91.46 343.5,95.5C 339.385,92.9299 337.052,89.2633 336.5,84.5 Z"/></g>
<g><path style="opacity:1" fill="#2c719b" d="M 225.5,80.5 C 190.139,80.0547 154.805,80.5547 119.5,82C 118.584,82.3742 117.75,82.8742 117,83.5C 115.384,87.6751 113.384,91.6751 111,95.5C 110.186,97.9018 110.353,100.235 111.5,102.5C 125.315,103.168 138.982,104.168 152.5,105.5C 136.5,105.5 120.5,105.5 104.5,105.5C 104.5,104.5 104.5,103.5 104.5,102.5C 105.933,100.442 106.6,98.1085 106.5,95.5C 108.674,92.4846 110.341,89.1513 111.5,85.5C 112.401,84.7095 113.068,83.7095 113.5,82.5C 114.627,81.8783 115.627,81.045 116.5,80C 153.002,79.169 189.336,79.3356 225.5,80.5 Z"/></g>
<g><path style="opacity:1" fill="#939393" d="M 34.5,88.5 C 34.851,91.8116 33.5177,94.145 30.5,95.5C 31.0787,92.6689 32.412,90.3356 34.5,88.5 Z"/></g>
<g><path style="opacity:1" fill="#8f8f8f" d="M 330.5,84.5 C 336.044,90.2578 340.044,96.9245 342.5,104.5C 338.917,99.0688 335.084,93.7355 331,88.5C 330.51,87.2068 330.343,85.8734 330.5,84.5 Z"/></g>
<g><path style="opacity:1" fill="#474747" d="M 320.5,90.5 C 325.512,95.179 328.846,100.846 330.5,107.5C 326.345,102.339 323.012,96.6719 320.5,90.5 Z"/></g>
<g><path style="opacity:1" fill="#255f80" d="M 104.5,102.5 C 104.5,103.5 104.5,104.5 104.5,105.5C 120.5,105.5 136.5,105.5 152.5,105.5C 176.339,105.169 200.006,105.502 223.5,106.5C 183.5,106.5 143.5,106.5 103.5,106.5C 103.232,104.901 103.566,103.568 104.5,102.5 Z"/></g>
<g><path style="opacity:1" fill="#16394e" d="M 106.5,95.5 C 106.6,98.1085 105.933,100.442 104.5,102.5C 103.566,103.568 103.232,104.901 103.5,106.5C 143.5,106.5 183.5,106.5 223.5,106.5C 224.5,106.833 225.167,107.5 225.5,108.5C 184.167,108.5 142.833,108.5 101.5,108.5C 101.247,103.353 102.913,99.0201 106.5,95.5 Z"/></g>
<g><path style="opacity:1" fill="#afafaf" d="M 345.5,110.5 C 347.915,113.34 349.248,116.673 349.5,120.5C 347.085,117.66 345.752,114.327 345.5,110.5 Z"/></g>
<g><path style="opacity:1" fill="#443a07" d="M 188.5,120.5 C 188.67,119.178 188.337,118.011 187.5,117C 171.167,116.333 154.833,116.333 138.5,117C 137.177,117.816 136.511,118.983 136.5,120.5C 133.991,126.192 130.991,131.526 127.5,136.5C 129.864,129.271 133.197,122.438 137.5,116C 154.5,115.333 171.5,115.333 188.5,116C 189.801,117.616 189.801,119.116 188.5,120.5 Z"/></g>
<g><path style="opacity:1" fill="#929292" d="M 30.5,96.5 C 26.7814,104.269 22.7814,111.936 18.5,119.5C 18.5,118.833 18.5,118.167 18.5,117.5C 21.2532,109.645 25.2532,102.645 30.5,96.5 Z"/></g>
<g><path style="opacity:1" fill="#74670b" d="M 188.5,120.5 C 187.833,120.833 187.167,121.167 186.5,121.5C 186.5,120.167 186.5,118.833 186.5,117.5C 170.83,117.333 155.163,117.5 139.5,118C 138.944,118.383 138.611,118.883 138.5,119.5C 137.833,119.833 137.167,120.167 136.5,120.5C 136.511,118.983 137.177,117.816 138.5,117C 154.833,116.333 171.167,116.333 187.5,117C 188.337,118.011 188.67,119.178 188.5,120.5 Z"/></g>
<g><path style="opacity:1" fill="#585858" d="M 333.5,112.5 C 335.975,113.687 336.975,115.687 336.5,118.5C 334.755,116.967 333.755,114.967 333.5,112.5 Z"/></g>
<g><path style="opacity:1" fill="#bca812" d="M 186.5,121.5 C 180.514,127.49 174.847,133.823 169.5,140.5C 172.925,134.684 177.092,129.35 182,124.5C 183.009,122.975 183.509,121.308 183.5,119.5C 175.5,119.5 167.5,119.5 159.5,119.5C 152.5,119.5 145.5,119.5 138.5,119.5C 138.611,118.883 138.944,118.383 139.5,118C 155.163,117.5 170.83,117.333 186.5,117.5C 186.5,118.833 186.5,120.167 186.5,121.5 Z"/></g>
<g><path style="opacity:1" fill="#4ea7c8" d="M 231.5,84.5 C 226.786,84.1734 222.12,84.5067 217.5,85.5C 215.084,90.0006 212.417,94.3339 209.5,98.5C 209.833,99.1667 210.167,99.8333 210.5,100.5C 215.467,101.329 220.467,101.829 225.5,102C 230.798,104.49 236.131,106.656 241.5,108.5C 241.5,108.833 241.5,109.167 241.5,109.5C 243.461,111.963 245.628,114.297 248,116.5C 248.862,121.095 250.862,125.095 254,128.5C 254.333,133.167 254.667,137.833 255,142.5C 258.734,135.46 262.401,128.46 266,121.5C 265.535,114.607 263.369,108.273 259.5,102.5C 260.496,102.414 261.329,102.748 262,103.5C 271.451,118.687 272.951,134.687 266.5,151.5C 264.134,160.43 259.467,167.93 252.5,174C 246.966,176.1 241.632,178.767 236.5,182C 232.573,182.724 228.906,183.891 225.5,185.5C 216.833,185.5 208.167,185.5 199.5,185.5C 199.247,183.173 199.914,181.173 201.5,179.5C 206.07,175.318 210.403,170.984 214.5,166.5C 219.159,165.63 223.825,164.797 228.5,164C 232.705,160.711 237.372,158.378 242.5,157C 243.868,155.66 245.201,154.326 246.5,153C 249.695,145.116 250.861,136.949 250,128.5C 248.333,124.167 246.667,119.833 245,115.5C 240.597,112.248 236.097,109.248 231.5,106.5C 228.976,105.26 226.309,104.093 223.5,103C 214.41,102.882 205.41,102.049 196.5,100.5C 198.471,94.7051 201.471,89.5384 205.5,85C 210.25,83.9225 215.083,83.4225 220,83.5C 224.015,83.5012 227.849,83.8345 231.5,84.5 Z"/></g>
<g><path style="opacity:1" fill="#e9d116" d="M 159.5,119.5 C 167.5,119.5 175.5,119.5 183.5,119.5C 183.509,121.308 183.009,122.975 182,124.5C 177.092,129.35 172.925,134.684 169.5,140.5C 168.833,140.5 168.5,140.833 168.5,141.5C 166.983,141.511 165.816,142.177 165,143.5C 161.977,148.01 158.811,152.344 155.5,156.5C 154.504,156.414 153.671,156.748 153,157.5C 152.257,159.441 152.424,161.274 153.5,163C 167.829,163.5 182.163,163.667 196.5,163.5C 196.5,164.5 196.5,165.5 196.5,166.5C 196.5,166.833 196.5,167.167 196.5,167.5C 195.761,167.369 195.094,167.536 194.5,168C 187.967,175.364 181.3,182.53 174.5,189.5C 171.295,187.068 167.628,185.402 163.5,184.5C 163.377,181.412 164.377,178.745 166.5,176.5C 166.392,175.558 166.059,174.725 165.5,174C 156.71,173.91 148.043,172.91 139.5,171C 138.584,170.626 137.75,170.126 137,169.5C 136.366,166.445 136.532,163.445 137.5,160.5C 141.688,156.507 145.188,151.84 148,146.5C 152.962,137.917 156.796,128.917 159.5,119.5 Z"/></g>
<g><path style="opacity:1" fill="#ecc019" d="M 138.5,119.5 C 145.5,119.5 152.5,119.5 159.5,119.5C 156.796,128.917 152.962,137.917 148,146.5C 145.188,151.84 141.688,156.507 137.5,160.5C 137.5,159.833 137.5,159.167 137.5,158.5C 141.013,151.984 144.347,145.317 147.5,138.5C 147.392,137.558 147.059,136.725 146.5,136C 143.294,133.966 139.96,132.133 136.5,130.5C 135.614,129.675 135.281,128.675 135.5,127.5C 136.883,125.022 137.883,122.355 138.5,119.5 Z"/></g>
<g><path style="opacity:1" fill="#686868" d="M 31.5,118.5 C 30.9251,121.912 29.5918,124.912 27.5,127.5C 27.5018,123.835 28.8352,120.835 31.5,118.5 Z"/></g>
<g><path style="opacity:1" fill="#7f7f7f" d="M 340.5,126.5 C 342.554,129.008 343.554,132.008 343.5,135.5C 341.528,132.916 340.528,129.916 340.5,126.5 Z"/></g>
<g><path style="opacity:1" fill="#133645" d="M 234.5,111.5 C 235.922,111.709 237.255,112.209 238.5,113C 246.342,120.051 249.175,128.884 247,139.5C 246.741,143.034 245.241,145.7 242.5,147.5C 245.928,139.756 246.428,131.756 244,123.5C 240.565,119.582 237.398,115.582 234.5,111.5 Z"/></g>
<g><path style="opacity:1" fill="#edb31c" d="M 135.5,127.5 C 135.281,128.675 135.614,129.675 136.5,130.5C 139.96,132.133 143.294,133.966 146.5,136C 147.059,136.725 147.392,137.558 147.5,138.5C 144.347,145.317 141.013,151.984 137.5,158.5C 138.156,156.516 138.822,154.516 139.5,152.5C 136.977,147.645 132.977,145.311 127.5,145.5C 127.5,144.5 127.5,143.5 127.5,142.5C 129.916,137.333 132.582,132.333 135.5,127.5 Z"/></g>
<g><path style="opacity:1" fill="#333333" d="M 17.5,113.5 C 17.3225,114.695 16.9891,115.862 16.5,117C 16.6834,118.684 17.3501,118.85 18.5,117.5C 18.5,118.167 18.5,118.833 18.5,119.5C 16.0939,125.718 14.0939,132.051 12.5,138.5C 11.2101,139.058 10.3768,140.058 10,141.5C 9.50258,144.146 9.33591,146.813 9.5,149.5C 8.66175,149.842 8.32842,150.508 8.5,151.5C 6.75389,157.25 5.75389,163.25 5.5,169.5C 4.51511,165.366 4.18178,161.032 4.5,156.5C 6.96863,143.606 10.1353,130.94 14,118.5C 14.9022,116.569 16.0688,114.903 17.5,113.5 Z"/></g>
<g><path style="opacity:1" fill="#585858" d="M 24.5,136.5 C 24.5905,139.152 23.9238,141.485 22.5,143.5C 22.4095,140.848 23.0762,138.515 24.5,136.5 Z"/></g>
<g><path style="opacity:1" fill="#838383" d="M 361.5,139.5 C 362.117,139.611 362.617,139.944 363,140.5C 363.497,143.146 363.664,145.813 363.5,148.5C 362.343,145.727 361.676,142.727 361.5,139.5 Z"/></g>
<g><path style="opacity:1" fill="#ababab" d="M 12.5,138.5 C 12.3699,142.525 11.3699,146.191 9.5,149.5C 9.33591,146.813 9.50258,144.146 10,141.5C 10.3768,140.058 11.2101,139.058 12.5,138.5 Z"/></g>
<g><path style="opacity:1" fill="#595959" d="M 343.5,135.5 C 346.009,141.147 347.676,147.147 348.5,153.5C 348.5,154.833 348.5,156.167 348.5,157.5C 347.778,157.082 347.278,156.416 347,155.5C 346.154,148.755 344.987,142.088 343.5,135.5 Z"/></g>
<g><path style="opacity:1" fill="#ababab" d="M 25.5,130.5 C 24.8505,132.435 24.5172,134.435 24.5,136.5C 23.0762,138.515 22.4095,140.848 22.5,143.5C 22.4162,146.327 21.7496,148.994 20.5,151.5C 19.5,155.5 18.5,159.5 17.5,163.5C 18.6943,152.676 20.8609,142.009 24,131.5C 24.3826,130.944 24.8826,130.611 25.5,130.5 Z"/></g>
<g><path style="opacity:1" fill="#a89710" d="M 168.5,141.5 C 164.865,147.101 160.532,152.101 155.5,156.5C 158.811,152.344 161.977,148.01 165,143.5C 165.816,142.177 166.983,141.511 168.5,141.5 Z"/></g>
<g><path style="opacity:1" fill="#5f3d0e" d="M 126.5,138.5 C 122.617,147.267 118.451,155.933 114,164.5C 113.51,165.793 113.343,167.127 113.5,168.5C 111.412,170.336 110.079,172.669 109.5,175.5C 108.624,175.369 107.957,175.702 107.5,176.5C 106.059,179.724 104.392,182.724 102.5,185.5C 102.167,185.5 101.833,185.5 101.5,185.5C 109.028,170.246 116.694,154.913 124.5,139.5C 124.957,138.702 125.624,138.369 126.5,138.5 Z"/></g>
<g><path style="opacity:1" fill="#bc8617" d="M 138.5,119.5 C 137.883,122.355 136.883,125.022 135.5,127.5C 132.582,132.333 129.916,137.333 127.5,142.5C 123.992,148.182 120.992,154.182 118.5,160.5C 116.659,162.849 115.326,165.515 114.5,168.5C 114.167,168.5 113.833,168.5 113.5,168.5C 113.343,167.127 113.51,165.793 114,164.5C 118.451,155.933 122.617,147.267 126.5,138.5C 126.328,137.508 126.662,136.842 127.5,136.5C 130.991,131.526 133.991,126.192 136.5,120.5C 137.167,120.167 137.833,119.833 138.5,119.5 Z"/></g>
<g><path style="opacity:1" fill="#efa31f" d="M 127.5,142.5 C 127.5,143.5 127.5,144.5 127.5,145.5C 132.977,145.311 136.977,147.645 139.5,152.5C 138.822,154.516 138.156,156.516 137.5,158.5C 137.5,159.167 137.5,159.833 137.5,160.5C 135.108,163.598 132.942,166.931 131,170.5C 130.28,172.112 130.446,173.612 131.5,175C 141.617,175.058 151.617,176.058 161.5,178C 159.284,184.28 155.951,189.78 151.5,194.5C 152.49,191.849 153.49,189.183 154.5,186.5C 152.338,183.506 149.672,181.006 146.5,179C 140.813,178.065 135.146,177.065 129.5,176C 128.88,169.21 125.214,165.044 118.5,163.5C 118.5,162.5 118.5,161.5 118.5,160.5C 120.992,154.182 123.992,148.182 127.5,142.5 Z"/></g>
<g><path style="opacity:1" fill="#636363" d="M 363.5,148.5 C 365.217,151.845 365.884,155.511 365.5,159.5C 363.783,156.155 363.116,152.489 363.5,148.5 Z"/></g>
<g><path style="opacity:1" fill="#2d2904" d="M 157.5,157.5 C 171.799,159.32 186.466,160.154 201.5,160C 202.801,161.616 202.801,163.116 201.5,164.5C 201.67,163.178 201.337,162.011 200.5,161C 185.837,160.5 171.17,160.333 156.5,160.5C 156.263,159.209 156.596,158.209 157.5,157.5 Z"/></g>
<g><path style="opacity:1" fill="#5a5008" d="M 186.5,121.5 C 177.532,134.127 167.865,146.127 157.5,157.5C 156.596,158.209 156.263,159.209 156.5,160.5C 171.17,160.333 185.837,160.5 200.5,161C 201.337,162.011 201.67,163.178 201.5,164.5C 198.223,168.115 194.89,171.782 191.5,175.5C 191.167,175.5 190.833,175.5 190.5,175.5C 192.091,172.569 194.091,169.902 196.5,167.5C 196.5,167.167 196.5,166.833 196.5,166.5C 197.492,166.672 198.158,166.338 198.5,165.5C 199.434,164.432 199.768,163.099 199.5,161.5C 184.833,161.5 170.167,161.5 155.5,161.5C 155.5,160.167 155.5,158.833 155.5,157.5C 155.5,157.167 155.5,156.833 155.5,156.5C 160.532,152.101 164.865,147.101 168.5,141.5C 168.5,140.833 168.833,140.5 169.5,140.5C 174.847,133.823 180.514,127.49 186.5,121.5 Z"/></g>
<g><path style="opacity:1" fill="#92830d" d="M 155.5,157.5 C 155.5,158.833 155.5,160.167 155.5,161.5C 170.167,161.5 184.833,161.5 199.5,161.5C 199.768,163.099 199.434,164.432 198.5,165.5C 198.5,164.5 198.5,163.5 198.5,162.5C 183.833,162.5 169.167,162.5 154.5,162.5C 154.216,160.585 154.549,158.919 155.5,157.5 Z"/></g>
<g><path style="opacity:1" fill="#beab12" d="M 155.5,156.5 C 155.5,156.833 155.5,157.167 155.5,157.5C 154.549,158.919 154.216,160.585 154.5,162.5C 169.167,162.5 183.833,162.5 198.5,162.5C 198.5,163.5 198.5,164.5 198.5,165.5C 198.158,166.338 197.492,166.672 196.5,166.5C 196.5,165.5 196.5,164.5 196.5,163.5C 182.163,163.667 167.829,163.5 153.5,163C 152.424,161.274 152.257,159.441 153,157.5C 153.671,156.748 154.504,156.414 155.5,156.5 Z"/></g>
<g><path style="opacity:1" fill="#f09a21" d="M 118.5,160.5 C 118.5,161.5 118.5,162.5 118.5,163.5C 125.214,165.044 128.88,169.21 129.5,176C 135.146,177.065 140.813,178.065 146.5,179C 149.672,181.006 152.338,183.506 154.5,186.5C 153.49,189.183 152.49,191.849 151.5,194.5C 151.502,196.831 150.669,198.831 149,200.5C 147.463,206.134 149.629,209.134 155.5,209.5C 151.5,214.5 147.5,219.5 143.5,224.5C 143.167,224.5 142.833,224.5 142.5,224.5C 140.04,224.301 137.707,223.635 135.5,222.5C 136.043,218.638 137.043,214.972 138.5,211.5C 139.15,211.196 139.817,210.863 140.5,210.5C 142.316,207.046 144.316,203.713 146.5,200.5C 148.546,197.768 149.38,194.768 149,191.5C 138.456,184.673 127.456,177.673 116,170.5C 115.667,170.833 115.333,171.167 115,171.5C 114.517,170.552 114.351,169.552 114.5,168.5C 115.326,165.515 116.659,162.849 118.5,160.5 Z"/></g>
<g><path style="opacity:1" fill="#0f2c38" d="M 271.5,160.5 C 267.635,169.7 261.301,176.7 252.5,181.5C 255.452,177.718 258.952,174.385 263,171.5C 265.853,167.765 268.687,164.098 271.5,160.5 Z"/></g>
<g><path style="opacity:1" fill="#c7c7c7" d="M 348.5,153.5 C 349.875,156.993 351.041,160.66 352,164.5C 352.167,171.5 352.333,178.5 352.5,185.5C 352.497,192.867 351.83,199.867 350.5,206.5C 351.592,193.192 351.758,179.859 351,166.5C 350.027,163.421 349.194,160.421 348.5,157.5C 348.5,156.167 348.5,154.833 348.5,153.5 Z"/></g>
<g><path style="opacity:1" fill="#ef8d23" d="M 113.5,168.5 C 113.833,168.5 114.167,168.5 114.5,168.5C 114.351,169.552 114.517,170.552 115,171.5C 115.333,171.167 115.667,170.833 116,170.5C 127.456,177.673 138.456,184.673 149,191.5C 149.38,194.768 148.546,197.768 146.5,200.5C 144.316,203.713 142.316,207.046 140.5,210.5C 139.817,210.863 139.15,211.196 138.5,211.5C 137.043,209.372 136.043,207.038 135.5,204.5C 138.04,200.753 140.04,196.753 141.5,192.5C 141.36,190.97 140.693,189.97 139.5,189.5C 128.012,188.505 116.345,188.172 104.5,188.5C 105.883,184.066 107.549,179.733 109.5,175.5C 110.079,172.669 111.412,170.336 113.5,168.5 Z"/></g>
<g><path style="opacity:1" fill="#a3a3a3" d="M 351.5,125.5 C 357.295,137.749 360.961,150.749 362.5,164.5C 362.764,178.863 362.431,193.196 361.5,207.5C 361.167,207.5 360.833,207.5 360.5,207.5C 361.934,191.484 361.767,175.484 360,159.5C 357.469,147.986 354.636,136.653 351.5,125.5 Z"/></g>
<g><path style="opacity:1" fill="#646464" d="M 365.5,160.5 C 366.344,163.345 367.01,166.345 367.5,169.5C 367.825,177.019 367.492,184.352 366.5,191.5C 366.601,181.148 366.267,170.815 365.5,160.5 Z"/></g>
<g><path style="opacity:1" fill="#4d4d4d" d="M 362.5,164.5 C 363.66,177.66 363.827,190.994 363,204.5C 362.768,205.737 362.268,206.737 361.5,207.5C 362.431,193.196 362.764,178.863 362.5,164.5 Z"/></g>
<g><path style="opacity:1" fill="#181818" d="M 2.5,175.5 C 3.81818,178.258 4.48484,181.424 4.5,185C 4.48484,188.576 3.81818,191.742 2.5,194.5C 2.5,188.167 2.5,181.833 2.5,175.5 Z"/></g>
<g><path style="opacity:1" fill="#4a3a09" d="M 190.5,175.5 C 190.833,175.5 191.167,175.5 191.5,175.5C 172.167,196.5 152.833,217.5 133.5,238.5C 133.167,238.5 132.833,238.5 132.5,238.5C 136.103,233.558 140.103,228.892 144.5,224.5C 152.5,215.833 160.5,207.167 168.5,198.5C 175.861,190.807 183.194,183.14 190.5,175.5 Z"/></g>
<g><path style="opacity:1" fill="#636363" d="M 348.5,157.5 C 349.194,160.421 350.027,163.421 351,166.5C 351.758,179.859 351.592,193.192 350.5,206.5C 349.833,207.833 349.167,209.167 348.5,210.5C 349.844,202.409 350.511,194.243 350.5,186C 350.204,176.468 349.537,166.968 348.5,157.5 Z"/></g>
<g><path style="opacity:1" fill="#c2c2c2" d="M 17.5,163.5 C 16.5771,176.47 16.2438,189.47 16.5,202.5C 15.3401,190.34 15.1735,178.007 16,165.5C 16.2784,164.584 16.7784,163.918 17.5,163.5 Z"/></g>
<g><path style="opacity:1" fill="#a9a9a9" d="M 8.5,151.5 C 5.90194,171.495 5.90194,191.495 8.5,211.5C 7.03699,208.797 6.20366,205.797 6,202.5C 5.50015,191.505 5.33349,180.505 5.5,169.5C 5.75389,163.25 6.75389,157.25 8.5,151.5 Z"/></g>
<g><path style="opacity:1" fill="#6a6a6a" d="M 20.5,151.5 C 18.6799,163.257 17.6799,175.09 17.5,187C 17.4478,196.566 18.1144,206.066 19.5,215.5C 18.2284,211.316 17.2284,206.983 16.5,202.5C 16.2438,189.47 16.5771,176.47 17.5,163.5C 18.5,159.5 19.5,155.5 20.5,151.5 Z"/></g>
<g><path style="opacity:1" fill="#929292" d="M 367.5,169.5 C 368.166,173.486 368.499,177.653 368.5,182C 368.701,188.083 368.034,193.916 366.5,199.5C 366.5,196.833 366.5,194.167 366.5,191.5C 367.492,184.352 367.825,177.019 367.5,169.5 Z"/></g>
<g><path style="opacity:1" fill="#ebbf1a" d="M 137.5,160.5 C 136.532,163.445 136.366,166.445 137,169.5C 137.75,170.126 138.584,170.626 139.5,171C 148.043,172.91 156.71,173.91 165.5,174C 166.059,174.725 166.392,175.558 166.5,176.5C 164.377,178.745 163.377,181.412 163.5,184.5C 167.628,185.402 171.295,187.068 174.5,189.5C 171.761,192.233 169.427,195.233 167.5,198.5C 163.5,202.167 159.5,205.833 155.5,209.5C 149.629,209.134 147.463,206.134 149,200.5C 150.669,198.831 151.502,196.831 151.5,194.5C 155.951,189.78 159.284,184.28 161.5,178C 151.617,176.058 141.617,175.058 131.5,175C 130.446,173.612 130.28,172.112 131,170.5C 132.942,166.931 135.108,163.598 137.5,160.5 Z"/></g>
<g><path style="opacity:1" fill="#3281aa" d="M 225.5,80.5 C 229.286,80.32 232.619,81.32 235.5,83.5C 226.614,81.9289 217.614,81.2623 208.5,81.5C 179.18,82.9326 149.847,84.0993 120.5,85C 119.376,85.2492 118.376,85.7492 117.5,86.5C 116.21,91.3762 114.543,96.0428 112.5,100.5C 152.335,100.101 192.002,102.101 231.5,106.5C 236.097,109.248 240.597,112.248 245,115.5C 246.667,119.833 248.333,124.167 250,128.5C 250.861,136.949 249.695,145.116 246.5,153C 245.201,154.326 243.868,155.66 242.5,157C 237.372,158.378 232.705,160.711 228.5,164C 223.825,164.797 219.159,165.63 214.5,166.5C 210.403,170.984 206.07,175.318 201.5,179.5C 199.914,181.173 199.247,183.173 199.5,185.5C 208.167,185.5 216.833,185.5 225.5,185.5C 234.236,183.697 242.902,181.697 251.5,179.5C 246.171,184.271 239.837,187.104 232.5,188C 217.852,189.661 203.185,189.828 188.5,188.5C 196.68,179.821 205.013,171.321 213.5,163C 220.484,162.98 226.818,161.147 232.5,157.5C 237.5,155.833 240.833,152.5 242.5,147.5C 245.241,145.7 246.741,143.034 247,139.5C 249.175,128.884 246.342,120.051 238.5,113C 237.255,112.209 235.922,111.709 234.5,111.5C 231.743,109.914 228.743,108.914 225.5,108.5C 225.167,107.5 224.5,106.833 223.5,106.5C 200.006,105.502 176.339,105.169 152.5,105.5C 138.982,104.168 125.315,103.168 111.5,102.5C 110.353,100.235 110.186,97.9018 111,95.5C 113.384,91.6751 115.384,87.6751 117,83.5C 117.75,82.8742 118.584,82.3742 119.5,82C 154.805,80.5547 190.139,80.0547 225.5,80.5 Z"/></g>
<g><path style="opacity:1" fill="#c8721d" d="M 109.5,175.5 C 107.549,179.733 105.883,184.066 104.5,188.5C 116.345,188.172 128.012,188.505 139.5,189.5C 127.167,189.5 114.833,189.5 102.5,189.5C 102.5,188.167 102.5,186.833 102.5,185.5C 104.392,182.724 106.059,179.724 107.5,176.5C 107.957,175.702 108.624,175.369 109.5,175.5 Z"/></g>
<g><path style="opacity:1" fill="#1d4e68" d="M 275.5,122.5 C 276.268,123.263 276.768,124.263 277,125.5C 277.871,137.66 276.037,149.327 271.5,160.5C 268.687,164.098 265.853,167.765 263,171.5C 258.952,174.385 255.452,177.718 252.5,181.5C 250.535,183.488 248.202,184.988 245.5,186C 241.525,186.614 237.859,187.781 234.5,189.5C 218.517,190.366 202.517,190.7 186.5,190.5C 186.351,189.448 186.517,188.448 187,187.5C 192.37,182.298 197.536,176.965 202.5,171.5C 202.511,169.983 203.177,168.816 204.5,168C 206.376,166.137 208.543,164.637 211,163.5C 211.483,162.552 211.649,161.552 211.5,160.5C 218.593,159.918 225.593,158.918 232.5,157.5C 226.818,161.147 220.484,162.98 213.5,163C 205.013,171.321 196.68,179.821 188.5,188.5C 203.185,189.828 217.852,189.661 232.5,188C 239.837,187.104 246.171,184.271 251.5,179.5C 259.85,174.158 265.85,166.825 269.5,157.5C 270.325,156.614 271.325,156.281 272.5,156.5C 274.9,145.303 275.9,133.97 275.5,122.5 Z"/></g>
<g><path style="opacity:1" fill="#68bfdb" d="M 216.5,168.5 C 221.214,168.173 225.88,168.507 230.5,169.5C 228.04,173.586 225.707,177.753 223.5,182C 216.184,183.522 208.851,183.688 201.5,182.5C 205.919,177.139 210.919,172.472 216.5,168.5 Z"/></g>
<g><path style="opacity:1" fill="#653b0f" d="M 101.5,187.5 C 101.5,188.5 101.5,189.5 101.5,190.5C 114.5,190.5 127.5,190.5 140.5,190.5C 140.843,192.483 140.176,193.817 138.5,194.5C 138.5,193.5 138.5,192.5 138.5,191.5C 126.167,191.5 113.833,191.5 101.5,191.5C 100.167,190.167 100.167,188.833 101.5,187.5 Z"/></g>
<g><path style="opacity:1" fill="#331d07" d="M 101.5,191.5 C 113.833,191.5 126.167,191.5 138.5,191.5C 138.5,192.5 138.5,193.5 138.5,194.5C 137.66,196.853 136.326,198.853 134.5,200.5C 135.552,197.807 136.552,195.14 137.5,192.5C 125.322,192.828 113.322,192.495 101.5,191.5 Z"/></g>
<g><path style="opacity:1" fill="#0d2330" d="M 202.5,171.5 C 197.536,176.965 192.37,182.298 187,187.5C 186.517,188.448 186.351,189.448 186.5,190.5C 202.517,190.7 218.517,190.366 234.5,189.5C 231.678,190.507 228.678,191.34 225.5,192C 211.837,192.5 198.171,192.667 184.5,192.5C 184.34,190.801 184.506,189.134 185,187.5C 190.424,181.569 196.258,176.236 202.5,171.5 Z"/></g>
<g><path style="opacity:1" fill="#9d8a0f" d="M 196.5,167.5 C 194.091,169.902 192.091,172.569 190.5,175.5C 183.194,183.14 175.861,190.807 168.5,198.5C 168.167,198.5 167.833,198.5 167.5,198.5C 169.427,195.233 171.761,192.233 174.5,189.5C 181.3,182.53 187.967,175.364 194.5,168C 195.094,167.536 195.761,167.369 196.5,167.5 Z"/></g>
<g><path style="opacity:1" fill="#a65e18" d="M 101.5,185.5 C 101.833,185.5 102.167,185.5 102.5,185.5C 102.5,186.833 102.5,188.167 102.5,189.5C 114.833,189.5 127.167,189.5 139.5,189.5C 140.693,189.97 141.36,190.97 141.5,192.5C 140.04,196.753 138.04,200.753 135.5,204.5C 134.407,206.349 133.074,208.016 131.5,209.5C 131.5,208.167 131.5,206.833 131.5,205.5C 133.25,204.341 134.25,202.674 134.5,200.5C 136.326,198.853 137.66,196.853 138.5,194.5C 140.176,193.817 140.843,192.483 140.5,190.5C 127.5,190.5 114.5,190.5 101.5,190.5C 101.5,189.5 101.5,188.5 101.5,187.5C 101.5,186.833 101.5,186.167 101.5,185.5 Z"/></g>
<g><path style="opacity:1" fill="#5c300f" d="M 131.5,205.5 C 131.5,206.833 131.5,208.167 131.5,209.5C 129.75,210.659 128.75,212.326 128.5,214.5C 127.833,214.833 127.167,215.167 126.5,215.5C 127.102,211.628 128.769,208.295 131.5,205.5 Z"/></g>
<g><path style="opacity:1" fill="#8f8e7f" d="M 207.5,210.5 C 214.557,209.17 221.557,209.504 228.5,211.5C 221.515,210.911 214.515,210.578 207.5,210.5 Z"/></g>
<g><path style="opacity:1" fill="#4b4b4b" d="M 4.5,156.5 C 4.18178,161.032 4.51511,165.366 5.5,169.5C 5.33349,180.505 5.50015,191.505 6,202.5C 6.20366,205.797 7.03699,208.797 8.5,211.5C 8.5,213.5 8.5,215.5 8.5,217.5C 9.16667,220.5 9.83333,223.5 10.5,226.5C 9.03374,225.653 8.20041,224.32 8,222.5C 7.53566,223.094 7.36899,223.761 7.5,224.5C 4.56979,214.83 2.90312,204.83 2.5,194.5C 3.81818,191.742 4.48484,188.576 4.5,185C 4.48484,181.424 3.81818,178.258 2.5,175.5C 2.15611,168.918 2.82278,162.584 4.5,156.5 Z"/></g>
<g><path style="opacity:1" fill="#eee3ba" d="M 207.5,210.5 C 214.515,210.578 221.515,210.911 228.5,211.5C 232.091,211.945 235.424,212.945 238.5,214.5C 228.194,213.936 217.861,213.936 207.5,214.5C 198.749,215.418 190.415,217.752 182.5,221.5C 178.709,222.431 175.043,223.764 171.5,225.5C 181.56,216.145 193.56,211.145 207.5,210.5 Z"/></g>
<g><path style="opacity:1" fill="#1c170e" d="M 207.5,214.5 C 230.647,213.073 249.814,221.073 265,238.5C 267.546,241.86 269.379,245.526 270.5,249.5C 267.753,249.813 265.086,249.48 262.5,248.5C 253.236,233.756 239.902,225.256 222.5,223C 216.298,222.725 210.298,222.559 204.5,222.5C 205.5,222.5 206.5,222.5 207.5,222.5C 207.5,221.5 207.5,220.5 207.5,219.5C 205.143,219.337 202.81,219.503 200.5,220C 199.944,220.383 199.611,220.883 199.5,221.5C 196.627,221.802 193.961,222.469 191.5,223.5C 190.234,224.09 188.901,224.59 187.5,225C 183.066,227.731 179.066,230.898 175.5,234.5C 174.167,233.833 173.167,232.833 172.5,231.5C 173.5,230.167 174.5,228.833 175.5,227.5C 177.833,225.5 180.167,223.5 182.5,221.5C 190.415,217.752 198.749,215.418 207.5,214.5 Z"/></g>
<g><path style="opacity:1" fill="#808080" d="M 366.5,209.5 C 366.196,217.723 364.196,225.389 360.5,232.5C 362.263,226.296 363.43,219.962 364,213.5C 364.934,212.142 365.768,210.808 366.5,209.5 Z"/></g>
<g><path style="opacity:1" fill="#969696" d="M 350.5,206.5 C 350.523,214.068 348.856,221.068 345.5,227.5C 346.884,221.911 347.884,216.245 348.5,210.5C 349.167,209.167 349.833,207.833 350.5,206.5 Z"/></g>
<g><path style="opacity:1" fill="#b8964a" d="M 212.5,218.5 C 215.247,218.187 217.914,218.52 220.5,219.5C 219.167,219.833 217.833,220.167 216.5,220.5C 214.667,220.415 213.334,219.748 212.5,218.5 Z"/></g>
<g><path style="opacity:1" fill="#4e270e" d="M 126.5,215.5 C 125.602,218.396 123.935,220.729 121.5,222.5C 122.069,219.281 123.736,216.948 126.5,215.5 Z"/></g>
<g><path style="opacity:1" fill="#a77515" d="M 167.5,198.5 C 167.833,198.5 168.167,198.5 168.5,198.5C 160.5,207.167 152.5,215.833 144.5,224.5C 144.167,224.5 143.833,224.5 143.5,224.5C 147.5,219.5 151.5,214.5 155.5,209.5C 159.5,205.833 163.5,202.167 167.5,198.5 Z"/></g>
<g><path style="opacity:1" fill="#ba9b4f" d="M 204.5,222.5 C 202.585,222.784 200.919,222.451 199.5,221.5C 199.611,220.883 199.944,220.383 200.5,220C 202.81,219.503 205.143,219.337 207.5,219.5C 207.5,220.5 207.5,221.5 207.5,222.5C 206.5,222.5 205.5,222.5 204.5,222.5 Z"/></g>
<g><path style="opacity:1" fill="#b79040" d="M 226.5,219.5 C 236.891,221.538 236.891,222.538 226.5,222.5C 226.5,221.5 226.5,220.5 226.5,219.5 Z"/></g>
<g><path style="opacity:1" fill="#9a9a9a" d="M 19.5,215.5 C 21.1986,220.634 22.532,225.968 23.5,231.5C 20.3207,226.784 18.9874,221.451 19.5,215.5 Z"/></g>
<g><path style="opacity:1" fill="#a88238" d="M 239.5,223.5 C 241.833,224.167 244.167,224.833 246.5,225.5C 246.5,226.5 246.5,227.5 246.5,228.5C 242.794,228.501 240.461,226.835 239.5,223.5 Z"/></g>
<g><path style="opacity:1" fill="#d56624" d="M 128.5,214.5 C 125.818,226.376 121.818,237.876 116.5,249C 117.448,249.483 118.448,249.649 119.5,249.5C 114.14,256.181 108.306,262.514 102,268.5C 100.25,270.734 98.7502,273.068 97.5,275.5C 94.9984,277.17 92.9984,279.336 91.5,282C 90.5165,282.591 89.8499,282.257 89.5,281C 94.0275,272.113 98.6942,263.279 103.5,254.5C 106.891,250.072 110.058,245.406 113,240.5C 113.494,238.866 113.66,237.199 113.5,235.5C 114.728,234.694 115.728,233.694 116.5,232.5C 119.231,229.705 120.898,226.372 121.5,222.5C 123.935,220.729 125.602,218.396 126.5,215.5C 127.167,215.167 127.833,214.833 128.5,214.5 Z"/></g>
<g><path style="opacity:1" fill="#a99660" d="M 191.5,223.5 C 193.796,223.804 194.129,224.804 192.5,226.5C 190.394,227.783 188.06,228.616 185.5,229C 182.909,231.966 179.909,234.466 176.5,236.5C 175.702,236.043 175.369,235.376 175.5,234.5C 179.066,230.898 183.066,227.731 187.5,225C 188.901,224.59 190.234,224.09 191.5,223.5 Z"/></g>
<g><path style="opacity:1" fill="#dbc37e" d="M 207.5,214.5 C 217.861,213.936 228.194,213.936 238.5,214.5C 255.948,220.282 268.282,231.616 275.5,248.5C 273.544,246.825 272.211,247.158 271.5,249.5C 271.167,249.5 270.833,249.5 270.5,249.5C 269.379,245.526 267.546,241.86 265,238.5C 249.814,221.073 230.647,213.073 207.5,214.5 Z"/></g>
<g><path style="opacity:1" fill="#5c2e10" d="M 121.5,222.5 C 120.898,226.372 119.231,229.705 116.5,232.5C 117.102,228.628 118.769,225.295 121.5,222.5 Z"/></g>
<g><path style="opacity:1" fill="#515151" d="M 360.5,216.5 C 359.754,222.486 358.587,228.486 357,234.5C 355.621,238.848 353.787,242.848 351.5,246.5C 354.084,236.212 357.084,226.212 360.5,216.5 Z"/></g>
<g><path style="opacity:1" fill="#ef8025" d="M 135.5,204.5 C 136.043,207.038 137.043,209.372 138.5,211.5C 137.043,214.972 136.043,218.638 135.5,222.5C 137.707,223.635 140.04,224.301 142.5,224.5C 135.057,233.065 127.39,241.398 119.5,249.5C 118.448,249.649 117.448,249.483 116.5,249C 121.818,237.876 125.818,226.376 128.5,214.5C 128.75,212.326 129.75,210.659 131.5,209.5C 133.074,208.016 134.407,206.349 135.5,204.5 Z"/></g>
<g><path style="opacity:1" fill="#ecd99d" d="M 182.5,221.5 C 180.167,223.5 177.833,225.5 175.5,227.5C 168.447,232.219 162.781,238.219 158.5,245.5C 157.883,245.389 157.383,245.056 157,244.5C 155.744,246.754 154.577,249.088 153.5,251.5C 153.043,252.298 152.376,252.631 151.5,252.5C 152.975,248.217 154.975,244.217 157.5,240.5C 160.805,234.196 165.472,229.196 171.5,225.5C 175.043,223.764 178.709,222.431 182.5,221.5 Z"/></g>
<g><path style="opacity:1" fill="#a7a7a7" d="M 8.5,217.5 C 11.1129,221.986 12.4462,226.986 12.5,232.5C 10.9261,230.898 10.2594,228.898 10.5,226.5C 9.83333,223.5 9.16667,220.5 8.5,217.5 Z"/></g>
<g><path style="opacity:1" fill="#515151" d="M 345.5,227.5 C 345.5,228.833 345.5,230.167 345.5,231.5C 344.833,231.833 344.167,232.167 343.5,232.5C 343.12,230.302 343.787,228.635 345.5,227.5 Z"/></g>
<g><path style="opacity:1" fill="#a87f33" d="M 251.5,230.5 C 254.069,231.396 256.069,233.062 257.5,235.5C 253.853,236.21 251.853,234.543 251.5,230.5 Z"/></g>
<g><path style="opacity:1" fill="#8f8f8f" d="M 23.5,232.5 C 25.0739,234.102 25.7406,236.102 25.5,238.5C 23.9261,236.898 23.2594,234.898 23.5,232.5 Z"/></g>
<g><path style="opacity:1" fill="#878787" d="M 345.5,231.5 C 345.076,234.918 343.742,237.918 341.5,240.5C 341.584,237.673 342.25,235.006 343.5,232.5C 344.167,232.167 344.833,231.833 345.5,231.5 Z"/></g>
<g><path style="opacity:1" fill="#24221f" d="M 192.5,226.5 C 193.167,226.5 193.833,226.5 194.5,226.5C 191.5,228.5 188.5,230.5 185.5,232.5C 168.82,244.189 161.82,260.189 164.5,280.5C 167.867,294.912 175.867,305.912 188.5,313.5C 190.273,314.892 192.273,316.059 194.5,317C 191.593,317.718 188.926,317.218 186.5,315.5C 184.266,313.11 181.599,311.276 178.5,310C 175.348,305.021 171.681,300.521 167.5,296.5C 166.824,292.813 165.324,289.48 163,286.5C 158.363,269.734 161.529,254.568 172.5,241C 171.352,239.274 170.185,239.441 169,241.5C 162.454,250.706 159.288,261.039 159.5,272.5C 158.849,273.091 158.182,273.757 157.5,274.5C 156.914,274.291 156.414,273.957 156,273.5C 155.814,270.964 155.314,268.631 154.5,266.5C 156.031,252.436 162.031,240.769 172.5,231.5C 173.167,232.833 174.167,233.833 175.5,234.5C 175.369,235.376 175.702,236.043 176.5,236.5C 179.909,234.466 182.909,231.966 185.5,229C 188.06,228.616 190.394,227.783 192.5,226.5 Z"/></g>
<g><path style="opacity:1" fill="#696969" d="M 25.5,238.5 C 30.5205,247.837 35.1872,257.504 39.5,267.5C 36.6109,264.744 34.4442,261.411 33,257.5C 29.9945,251.307 27.4945,244.974 25.5,238.5 Z"/></g>
<g><path style="opacity:1" fill="#ac7f30" d="M 239.5,241.5 C 242.021,243.03 243.021,245.364 242.5,248.5C 242.5,249.167 242.5,249.833 242.5,250.5C 242.949,254.048 243.949,257.381 245.5,260.5C 244.03,258.849 242.697,257.015 241.5,255C 240.5,254.333 239.5,254.333 238.5,255C 239.823,255.816 240.489,256.983 240.5,258.5C 240.5,258.833 240.5,259.167 240.5,259.5C 238.413,258.415 237.08,256.749 236.5,254.5C 234.611,253.258 232.611,253.258 230.5,254.5C 228.167,254.5 225.833,254.5 223.5,254.5C 226.023,253.746 228.689,253.08 231.5,252.5C 232.167,250.167 232.833,247.833 233.5,245.5C 235.115,244.846 236.782,244.346 238.5,244C 236.618,243.802 234.952,243.302 233.5,242.5C 235.621,242.675 237.621,242.341 239.5,241.5 Z"/></g>
<g><path style="opacity:1" fill="#9f772f" d="M 261.5,240.5 C 262.496,240.414 263.329,240.748 264,241.5C 265.559,243.217 266.392,245.217 266.5,247.5C 263.165,246.539 261.499,244.206 261.5,240.5 Z"/></g>
<g><path style="opacity:1" fill="#a2a2a2" d="M 12.5,233.5 C 16.0722,240.423 18.7389,247.757 20.5,255.5C 17.5182,250.386 15.0182,245.052 13,239.5C 12.5045,237.527 12.3379,235.527 12.5,233.5 Z"/></g>
<g><path style="opacity:1" fill="#5e2d11" d="M 113.5,235.5 C 113.66,237.199 113.494,238.866 113,240.5C 110.058,245.406 106.891,250.072 103.5,254.5C 105.939,247.719 109.272,241.386 113.5,235.5 Z"/></g>
<g><path style="opacity:1" fill="#919191" d="M 340.5,244.5 C 340.975,247.313 339.975,249.313 337.5,250.5C 337.755,248.033 338.755,246.033 340.5,244.5 Z"/></g>
<g><path style="opacity:1" fill="#423213" d="M 157.5,240.5 C 154.975,244.217 152.975,248.217 151.5,252.5C 150.976,254.306 150.309,255.972 149.5,257.5C 149.706,251.499 151.372,245.999 154.5,241C 155.448,240.517 156.448,240.351 157.5,240.5 Z"/></g>
<g><path style="opacity:1" fill="#7f6f46" d="M 190.5,242.5 C 190.5,246.167 190.5,249.833 190.5,253.5C 193.833,253.5 197.167,253.5 200.5,253.5C 200.5,253.833 200.5,254.167 200.5,254.5C 200.167,254.5 199.833,254.5 199.5,254.5C 194.46,255.638 192.127,258.638 192.5,263.5C 193.183,263.137 193.85,262.804 194.5,262.5C 195.338,262.842 195.672,263.508 195.5,264.5C 193.777,266.78 193.111,269.447 193.5,272.5C 192.209,272.737 191.209,272.404 190.5,271.5C 192.308,270.082 192.975,268.082 192.5,265.5C 191.5,265.5 190.5,265.5 189.5,265.5C 189.5,267.167 189.5,268.833 189.5,270.5C 187.901,270.768 186.568,270.434 185.5,269.5C 184.833,268.833 184.167,268.167 183.5,267.5C 185.871,262.216 187.705,256.882 189,251.5C 184.512,256.574 182.345,262.241 182.5,268.5C 182.5,269.167 182.5,269.833 182.5,270.5C 181.251,280.708 184.584,289.375 192.5,296.5C 192.167,296.5 191.833,296.5 191.5,296.5C 181.066,287.023 177.566,275.356 181,261.5C 183.158,257.19 185.825,253.19 189,249.5C 189.749,248.365 189.583,247.365 188.5,246.5C 176.002,260.046 174.169,275.046 183,291.5C 188.915,297.938 195.749,302.938 203.5,306.5C 203.5,307.167 203.167,307.5 202.5,307.5C 183.646,300.487 174.812,286.82 176,266.5C 178.052,256.715 182.885,248.715 190.5,242.5 Z"/></g>
<g><path style="opacity:1" fill="#504124" d="M 199.5,221.5 C 200.919,222.451 202.585,222.784 204.5,222.5C 210.298,222.559 216.298,222.725 222.5,223C 239.902,225.256 253.236,233.756 262.5,248.5C 265.086,249.48 267.753,249.813 270.5,249.5C 270.833,249.5 271.167,249.5 271.5,249.5C 271.5,249.833 271.5,250.167 271.5,250.5C 267.818,250.335 264.152,250.501 260.5,251C 261.167,251.667 261.833,252.333 262.5,253C 265.817,253.498 269.15,253.665 272.5,253.5C 273.167,255.167 273.833,256.833 274.5,258.5C 269.462,257.448 265.462,258.948 262.5,263C 260.098,263.814 257.765,263.647 255.5,262.5C 258.971,262.101 261.971,260.767 264.5,258.5C 262.579,257.359 260.579,257.192 258.5,258C 256.043,259.544 253.709,261.044 251.5,262.5C 250.833,262.5 250.5,262.833 250.5,263.5C 248.555,258.736 245.889,254.403 242.5,250.5C 242.5,249.833 242.5,249.167 242.5,248.5C 245.538,250.888 247.871,253.888 249.5,257.5C 251.765,258.647 254.098,258.814 256.5,258C 258.026,256.113 260.026,255.113 262.5,255C 261.833,254.333 261.167,253.667 260.5,253C 257.118,252.824 253.785,252.324 250.5,251.5C 251.833,250.833 253.167,250.167 254.5,249.5C 253.667,249.167 252.833,248.833 252,248.5C 249.345,251.424 247.178,251.091 245.5,247.5C 248.202,247.05 251.202,246.55 254.5,246C 242.204,232.398 226.87,226.565 208.5,228.5C 207.432,227.566 206.099,227.232 204.5,227.5C 204.5,227.167 204.5,226.833 204.5,226.5C 198.018,227.659 192.018,229.993 186.5,233.5C 186.5,232.833 186.167,232.5 185.5,232.5C 188.5,230.5 191.5,228.5 194.5,226.5C 193.833,226.5 193.167,226.5 192.5,226.5C 194.129,224.804 193.796,223.804 191.5,223.5C 193.961,222.469 196.627,221.802 199.5,221.5 Z"/></g>
<g><path style="opacity:1" fill="#100c06" d="M 204.5,226.5 C 227.771,221.634 246.438,228.801 260.5,248C 259.365,248.749 258.365,248.583 257.5,247.5C 244.012,230.548 226.345,223.548 204.5,226.5 Z"/></g>
<g><path style="opacity:1" fill="#0c0905" d="M 194.5,226.5 C 194.577,225.25 195.244,224.417 196.5,224C 198.833,223.333 201.167,223.333 203.5,224C 200.568,225.145 197.568,225.978 194.5,226.5 Z"/></g>
<g><path style="opacity:1" fill="#0f0b05" d="M 271.5,250.5 C 272.404,251.209 272.737,252.209 272.5,253.5C 269.15,253.665 265.817,253.498 262.5,253C 261.833,252.333 261.167,251.667 260.5,251C 264.152,250.501 267.818,250.335 271.5,250.5 Z"/></g>
<g><path style="opacity:1" fill="#120d06" d="M 242.5,250.5 C 245.889,254.403 248.555,258.736 250.5,263.5C 250.189,264.478 249.522,265.145 248.5,265.5C 247.675,263.64 246.675,261.974 245.5,260.5C 243.949,257.381 242.949,254.048 242.5,250.5 Z"/></g>
<g><path style="opacity:1" fill="#7e7e7e" d="M 355.5,249.5 C 355.88,251.698 355.213,253.365 353.5,254.5C 353.12,252.302 353.787,250.635 355.5,249.5 Z"/></g>
<g><path style="opacity:1" fill="#cbb982" d="M 167.5,296.5 C 166.833,296.5 166.167,296.5 165.5,296.5C 161.671,289.002 159.671,281.002 159.5,272.5C 159.288,261.039 162.454,250.706 169,241.5C 170.185,239.441 171.352,239.274 172.5,241C 161.529,254.568 158.363,269.734 163,286.5C 165.324,289.48 166.824,292.813 167.5,296.5 Z"/></g>
<g><path style="opacity:1" fill="#878787" d="M 337.5,250.5 C 337.88,252.698 337.213,254.365 335.5,255.5C 335.12,253.302 335.787,251.635 337.5,250.5 Z"/></g>
<g><path style="opacity:1" fill="#171614" d="M 204.5,226.5 C 204.5,226.833 204.5,227.167 204.5,227.5C 175.576,236.934 164.076,256.6 170,286.5C 175.013,299.346 183.846,308.346 196.5,313.5C 199.614,314.956 202.948,316.122 206.5,317C 213.167,317.333 219.833,317.667 226.5,318C 213.979,320.3 201.979,318.8 190.5,313.5C 180.024,307.516 172.524,298.849 168,287.5C 167.056,283.391 166.222,279.391 165.5,275.5C 165.074,257.685 172.074,243.685 186.5,233.5C 192.018,229.993 198.018,227.659 204.5,226.5 Z"/></g>
<g><path style="opacity:1" fill="#726442" d="M 204.5,227.5 C 206.099,227.232 207.432,227.566 208.5,228.5C 188.73,232.478 175.896,244.145 170,263.5C 167.209,287.165 176.709,303.498 198.5,312.5C 198.158,313.338 197.492,313.672 196.5,313.5C 183.846,308.346 175.013,299.346 170,286.5C 164.076,256.6 175.576,236.934 204.5,227.5 Z"/></g>
<g><path style="opacity:1" fill="#16130d" d="M 199.5,254.5 C 197.833,257.167 196.167,259.833 194.5,262.5C 193.85,262.804 193.183,263.137 192.5,263.5C 192.127,258.638 194.46,255.638 199.5,254.5 Z"/></g>
<g><path style="opacity:1" fill="#120d05" d="M 245.5,260.5 C 245.33,261.822 245.663,262.989 246.5,264C 245.5,264.667 244.5,264.667 243.5,264C 242.771,261.942 241.771,260.109 240.5,258.5C 240.489,256.983 239.823,255.816 238.5,255C 239.5,254.333 240.5,254.333 241.5,255C 242.697,257.015 244.03,258.849 245.5,260.5 Z"/></g>
<g><path style="opacity:1" fill="#c39339" d="M 199.5,242.5 C 199.5,242.167 199.5,241.833 199.5,241.5C 199.833,241.5 200.167,241.5 200.5,241.5C 210.833,242.833 221.167,242.833 231.5,241.5C 231.833,241.5 232.167,241.5 232.5,241.5C 232.5,242.167 232.833,242.5 233.5,242.5C 234.952,243.302 236.618,243.802 238.5,244C 236.782,244.346 235.115,244.846 233.5,245.5C 232.833,247.833 232.167,250.167 231.5,252.5C 228.689,253.08 226.023,253.746 223.5,254.5C 222.511,259.975 222.178,265.642 222.5,271.5C 218.167,271.5 213.833,271.5 209.5,271.5C 209.5,265.5 209.5,259.5 209.5,253.5C 206.941,253.198 204.607,253.532 202.5,254.5C 201.833,254.5 201.167,254.5 200.5,254.5C 200.5,254.167 200.5,253.833 200.5,253.5C 201.117,253.389 201.617,253.056 202,252.5C 202.667,249.5 202.667,246.5 202,243.5C 201.329,242.748 200.496,242.414 199.5,242.5 Z"/></g>
<g><path style="opacity:1" fill="#757575" d="M 353.5,255.5 C 351.825,258.877 350.158,262.211 348.5,265.5C 348.628,261.242 350.295,257.909 353.5,255.5 Z"/></g>
<g><path style="opacity:1" fill="#171208" d="M 236.5,254.5 C 237.08,256.749 238.413,258.415 240.5,259.5C 240.539,260.583 240.873,261.583 241.5,262.5C 241,262.833 240.5,263.167 240,263.5C 237.625,260.606 235.125,257.772 232.5,255C 233.793,254.51 235.127,254.343 236.5,254.5 Z"/></g>
<g><path style="opacity:1" fill="#7e7e7e" d="M 20.5,255.5 C 23.6745,260.516 26.3412,265.849 28.5,271.5C 24.242,266.984 21.5753,261.651 20.5,255.5 Z"/></g>
<g><path style="opacity:1" fill="#0d0a04" d="M 274.5,258.5 C 274.5,259.5 274.5,260.5 274.5,261.5C 268.789,261.773 263.289,262.773 258,264.5C 255.39,264.467 253.223,263.8 251.5,262.5C 253.709,261.044 256.043,259.544 258.5,258C 260.579,257.192 262.579,257.359 264.5,258.5C 261.971,260.767 258.971,262.101 255.5,262.5C 257.765,263.647 260.098,263.814 262.5,263C 265.462,258.948 269.462,257.448 274.5,258.5 Z"/></g>
<g><path style="opacity:1" fill="#181714" d="M 183.5,267.5 C 182.833,267.5 182.5,267.833 182.5,268.5C 182.345,262.241 184.512,256.574 189,251.5C 187.705,256.882 185.871,262.216 183.5,267.5 Z"/></g>
<g><path style="opacity:1" fill="#161411" d="M 190.5,254.5 C 191.873,254.343 193.207,254.51 194.5,255C 191.722,257.603 190.056,260.77 189.5,264.5C 188.325,264.719 187.325,264.386 186.5,263.5C 188.658,260.852 189.992,257.852 190.5,254.5 Z"/></g>
<g><path style="opacity:1" fill="#69562d" d="M 209.5,271.5 C 208.834,268.972 208.168,266.306 207.5,263.5C 203.571,264.433 199.571,264.766 195.5,264.5C 195.672,263.508 195.338,262.842 194.5,262.5C 196.167,259.833 197.833,257.167 199.5,254.5C 199.833,254.5 200.167,254.5 200.5,254.5C 201.167,254.5 201.833,254.5 202.5,254.5C 204.607,253.532 206.941,253.198 209.5,253.5C 209.5,259.5 209.5,265.5 209.5,271.5 Z"/></g>
<g><path style="opacity:1" fill="#070402" d="M 202.5,254.5 C 204.5,254.5 206.5,254.5 208.5,254.5C 208.5,256.833 208.5,259.167 208.5,261.5C 204.401,261.858 200.401,261.858 196.5,261.5C 198.178,258.827 200.178,256.494 202.5,254.5 Z"/></g>
<g><path style="opacity:1" fill="#080603" d="M 209.5,271.5 C 213.97,272.486 218.637,272.819 223.5,272.5C 223.5,269.5 223.5,266.5 223.5,263.5C 228.136,264.149 232.802,264.649 237.5,265C 238.397,267.087 239.064,269.254 239.5,271.5C 237.586,272.185 235.586,272.685 233.5,273C 223.506,273.5 213.506,273.666 203.5,273.5C 202.167,273.5 200.833,273.5 199.5,273.5C 197.435,273.483 195.435,273.15 193.5,272.5C 193.111,269.447 193.777,266.78 195.5,264.5C 199.571,264.766 203.571,264.433 207.5,263.5C 208.168,266.306 208.834,268.972 209.5,271.5 Z"/></g>
<g><path style="opacity:1" fill="#a1a1a1" d="M 335.5,255.5 C 335.196,260.785 332.863,264.785 328.5,267.5C 330.879,263.392 333.213,259.392 335.5,255.5 Z"/></g>
<g><path style="opacity:1" fill="#572810" d="M 132.5,238.5 C 132.833,238.5 133.167,238.5 133.5,238.5C 117.627,256.536 101.293,274.036 84.5,291C 83.5165,291.591 82.8499,291.257 82.5,290C 83.1037,287.416 83.9371,284.916 85,282.5C 90.2516,274.332 95.2516,265.999 100,257.5C 100.759,255.937 101.926,254.937 103.5,254.5C 98.6942,263.279 94.0275,272.113 89.5,281C 89.8499,282.257 90.5165,282.591 91.5,282C 92.9984,279.336 94.9984,277.17 97.5,275.5C 108.801,262.864 120.468,250.531 132.5,238.5 Z"/></g>
<g><path style="opacity:1" fill="#322a1b" d="M 265.5,267.5 C 268.625,266.521 271.958,266.187 275.5,266.5C 275.5,267.833 275.5,269.167 275.5,270.5C 273.167,270.5 270.833,270.5 268.5,270.5C 268.737,269.209 268.404,268.209 267.5,267.5C 266.833,267.5 266.167,267.5 265.5,267.5 Z"/></g>
<g><path style="opacity:1" fill="#181611" d="M 190.5,271.5 C 189.833,271.5 189.5,271.167 189.5,270.5C 189.5,268.833 189.5,267.167 189.5,265.5C 190.5,265.5 191.5,265.5 192.5,265.5C 192.975,268.082 192.308,270.082 190.5,271.5 Z"/></g>
<g><path style="opacity:1" fill="#0a0602" d="M 275.5,263.5 C 275.5,264.5 275.5,265.5 275.5,266.5C 271.958,266.187 268.625,266.521 265.5,267.5C 261.369,269.183 257.036,269.85 252.5,269.5C 252.5,268.5 252.5,267.5 252.5,266.5C 256.514,266.666 260.514,266.499 264.5,266C 265.167,265.333 265.833,264.667 266.5,264C 269.482,263.502 272.482,263.335 275.5,263.5 Z"/></g>
<g><path style="opacity:1" fill="#5a5a5a" d="M 346.5,258.5 C 345.636,263.455 343.636,267.789 340.5,271.5C 341.659,267.844 342.826,264.178 344,260.5C 344.708,259.619 345.542,258.953 346.5,258.5 Z"/></g>
<g><path style="opacity:1" fill="#9b4c19" d="M 142.5,224.5 C 142.833,224.5 143.167,224.5 143.5,224.5C 143.833,224.5 144.167,224.5 144.5,224.5C 140.103,228.892 136.103,233.558 132.5,238.5C 120.468,250.531 108.801,262.864 97.5,275.5C 98.7502,273.068 100.25,270.734 102,268.5C 108.306,262.514 114.14,256.181 119.5,249.5C 127.39,241.398 135.057,233.065 142.5,224.5 Z"/></g>
<g><path style="opacity:1" fill="#231f17" d="M 185.5,269.5 C 186.754,265.69 187.754,265.69 188.5,269.5C 187.5,269.5 186.5,269.5 185.5,269.5 Z"/></g>
<g><path style="opacity:1" fill="#5b4824" d="M 236.5,254.5 C 235.127,254.343 233.793,254.51 232.5,255C 235.125,257.772 237.625,260.606 240,263.5C 240.5,263.167 241,262.833 241.5,262.5C 240.873,261.583 240.539,260.583 240.5,259.5C 240.5,259.167 240.5,258.833 240.5,258.5C 241.771,260.109 242.771,261.942 243.5,264C 244.5,264.667 245.5,264.667 246.5,264C 245.663,262.989 245.33,261.822 245.5,260.5C 246.675,261.974 247.675,263.64 248.5,265.5C 249.522,265.145 250.189,264.478 250.5,263.5C 250.5,262.833 250.833,262.5 251.5,262.5C 253.223,263.8 255.39,264.467 258,264.5C 263.289,262.773 268.789,261.773 274.5,261.5C 274.5,260.5 274.5,259.5 274.5,258.5C 275.451,259.919 275.784,261.585 275.5,263.5C 272.482,263.335 269.482,263.502 266.5,264C 265.833,264.667 265.167,265.333 264.5,266C 260.514,266.499 256.514,266.666 252.5,266.5C 252.5,267.5 252.5,268.5 252.5,269.5C 257.036,269.85 261.369,269.183 265.5,267.5C 265.5,268.833 265.5,270.167 265.5,271.5C 264.735,271.077 263.902,270.743 263,270.5C 259.346,271.062 255.846,271.729 252.5,272.5C 252.5,273.167 252.5,273.833 252.5,274.5C 252.714,276.144 252.38,277.644 251.5,279C 255.442,278.937 258.442,280.603 260.5,284C 265.155,284.499 269.821,284.666 274.5,284.5C 274.167,285.167 273.833,285.833 273.5,286.5C 269.154,286.666 264.821,286.499 260.5,286C 258.48,282.285 255.48,280.952 251.5,282C 241.849,301.658 226.182,309.325 204.5,305C 199.451,303.15 195.117,300.316 191.5,296.5C 191.833,296.5 192.167,296.5 192.5,296.5C 212.13,308.929 229.964,306.596 246,289.5C 247.167,287.167 248.333,284.833 249.5,282.5C 249,282.167 248.5,281.833 248,281.5C 242.954,292.051 234.788,298.717 223.5,301.5C 223.5,300.833 223.5,300.167 223.5,299.5C 236.124,296.541 244.124,288.874 247.5,276.5C 247.5,277.5 247.5,278.5 247.5,279.5C 248.5,279.5 249.5,279.5 250.5,279.5C 249.422,275.749 249.422,272.415 250.5,269.5C 249.176,266.919 247.676,266.919 246,269.5C 245.098,269.257 244.265,268.923 243.5,268.5C 242.596,267.791 242.263,266.791 242.5,265.5C 241.325,265.281 240.325,265.614 239.5,266.5C 240.309,268.071 240.643,269.738 240.5,271.5C 240.167,271.5 239.833,271.5 239.5,271.5C 239.064,269.254 238.397,267.087 237.5,265C 232.802,264.649 228.136,264.149 223.5,263.5C 223.5,266.5 223.5,269.5 223.5,272.5C 218.637,272.819 213.97,272.486 209.5,271.5C 213.833,271.5 218.167,271.5 222.5,271.5C 222.178,265.642 222.511,259.975 223.5,254.5C 223.5,256.833 223.5,259.167 223.5,261.5C 227.862,261.756 232.195,261.923 236.5,262C 234.666,259.337 232.666,256.837 230.5,254.5C 232.611,253.258 234.611,253.258 236.5,254.5 Z"/></g>
<g><path style="opacity:1" fill="#151008" d="M 243.5,268.5 C 243.5,269.5 243.5,270.5 243.5,271.5C 242.5,271.5 241.5,271.5 240.5,271.5C 240.643,269.738 240.309,268.071 239.5,266.5C 240.325,265.614 241.325,265.281 242.5,265.5C 242.263,266.791 242.596,267.791 243.5,268.5 Z"/></g>
<g><path style="opacity:1" fill="#060402" d="M 223.5,254.5 C 225.833,254.5 228.167,254.5 230.5,254.5C 232.666,256.837 234.666,259.337 236.5,262C 232.195,261.923 227.862,261.756 223.5,261.5C 223.5,259.167 223.5,256.833 223.5,254.5 Z"/></g>
<g><path style="opacity:1" fill="#af8130" d="M 265.5,267.5 C 266.167,267.5 266.833,267.5 267.5,267.5C 267.843,269.483 267.176,270.817 265.5,271.5C 265.5,270.167 265.5,268.833 265.5,267.5 Z"/></g>
<g><path style="opacity:1" fill="#5c5c5c" d="M 328.5,267.5 C 327.617,270.704 325.95,273.371 323.5,275.5C 324.383,272.296 326.05,269.629 328.5,267.5 Z"/></g>
<g><path style="opacity:1" fill="#7d7151" d="M 185.5,232.5 C 186.167,232.5 186.5,232.833 186.5,233.5C 172.074,243.685 165.074,257.685 165.5,275.5C 165.784,277.415 165.451,279.081 164.5,280.5C 161.82,260.189 168.82,244.189 185.5,232.5 Z"/></g>
<g><path style="opacity:1" fill="#d8bd6e" d="M 183.5,267.5 C 184.167,268.167 184.833,268.833 185.5,269.5C 186.568,270.434 187.901,270.768 189.5,270.5C 189.5,271.167 189.833,271.5 190.5,271.5C 191.209,272.404 192.209,272.737 193.5,272.5C 195.435,273.15 197.435,273.483 199.5,273.5C 199.158,274.338 198.492,274.672 197.5,274.5C 195.833,274.5 194.167,274.5 192.5,274.5C 192.167,274.5 191.833,274.5 191.5,274.5C 190.791,273.596 189.791,273.263 188.5,273.5C 188.167,273.5 187.833,273.5 187.5,273.5C 186.329,272.655 184.995,271.989 183.5,271.5C 182.833,271.5 182.5,271.167 182.5,270.5C 182.5,269.833 182.5,269.167 182.5,268.5C 182.5,267.833 182.833,267.5 183.5,267.5 Z"/></g>
<g><path style="opacity:1" fill="#604f2e" d="M 275.5,263.5 C 276.833,267.833 276.833,272.167 275.5,276.5C 275.5,275.167 275.5,273.833 275.5,272.5C 271.958,272.813 268.625,272.479 265.5,271.5C 267.176,270.817 267.843,269.483 267.5,267.5C 268.404,268.209 268.737,269.209 268.5,270.5C 270.833,270.5 273.167,270.5 275.5,270.5C 275.5,269.167 275.5,267.833 275.5,266.5C 275.5,265.5 275.5,264.5 275.5,263.5 Z"/></g>
<g><path style="opacity:1" fill="#8f6d2f" d="M 250.5,269.5 C 249.131,271.732 248.131,274.066 247.5,276.5C 247.5,275.167 247.5,273.833 247.5,272.5C 246.209,272.263 245.209,272.596 244.5,273.5C 242.901,273.232 241.568,273.566 240.5,274.5C 237.941,274.198 235.607,274.532 233.5,275.5C 231.833,275.5 230.167,275.5 228.5,275.5C 220.167,274.833 211.833,274.167 203.5,273.5C 213.506,273.666 223.506,273.5 233.5,273C 235.586,272.685 237.586,272.185 239.5,271.5C 239.833,271.5 240.167,271.5 240.5,271.5C 241.5,271.5 242.5,271.5 243.5,271.5C 243.5,270.5 243.5,269.5 243.5,268.5C 244.265,268.923 245.098,269.257 246,269.5C 247.676,266.919 249.176,266.919 250.5,269.5 Z"/></g>
<g><path style="opacity:1" fill="#0c0904" d="M 265.5,271.5 C 268.625,272.479 271.958,272.813 275.5,272.5C 275.5,273.833 275.5,275.167 275.5,276.5C 271.089,277.34 267.423,276.173 264.5,273C 260.514,272.501 256.514,272.334 252.5,272.5C 255.846,271.729 259.346,271.062 263,270.5C 263.902,270.743 264.735,271.077 265.5,271.5 Z"/></g>
<g><path style="opacity:1" fill="#543f11" d="M 148.5,266.5 C 148.353,271.214 148.686,275.881 149.5,280.5C 147.771,279.359 146.771,277.693 146.5,275.5C 146.86,272.298 147.526,269.298 148.5,266.5 Z"/></g>
<g><path style="opacity:1" fill="#8d6b31" d="M 175.5,227.5 C 174.5,228.833 173.5,230.167 172.5,231.5C 162.031,240.769 156.031,252.436 154.5,266.5C 154.334,271.844 154.501,277.177 155,282.5C 156.562,287.95 158.395,293.283 160.5,298.5C 160.167,298.5 159.833,298.5 159.5,298.5C 152.899,286.739 150.733,274.073 153,260.5C 154.542,255.372 156.375,250.372 158.5,245.5C 162.781,238.219 168.447,232.219 175.5,227.5 Z"/></g>
<g><path style="opacity:1" fill="#130e07" d="M 247.5,276.5 C 244.124,288.874 236.124,296.541 223.5,299.5C 223.5,298.833 223.5,298.167 223.5,297.5C 235.445,293.885 242.445,285.885 244.5,273.5C 245.209,272.596 246.209,272.263 247.5,272.5C 247.5,273.833 247.5,275.167 247.5,276.5 Z"/></g>
<g><path style="opacity:1" fill="#e8cb74" d="M 158.5,245.5 C 156.375,250.372 154.542,255.372 153,260.5C 150.733,274.073 152.899,286.739 159.5,298.5C 158.791,299.404 157.791,299.737 156.5,299.5C 152.804,293.752 150.47,287.419 149.5,280.5C 148.686,275.881 148.353,271.214 148.5,266.5C 148.704,263.482 149.037,260.482 149.5,257.5C 150.309,255.972 150.976,254.306 151.5,252.5C 152.376,252.631 153.043,252.298 153.5,251.5C 154.577,249.088 155.744,246.754 157,244.5C 157.383,245.056 157.883,245.389 158.5,245.5 Z"/></g>
<g><path style="opacity:1" fill="#0e0a04" d="M 240.5,274.5 C 241.586,274.62 242.253,275.287 242.5,276.5C 239.819,286.514 233.486,292.848 223.5,295.5C 223.5,294.833 223.5,294.167 223.5,293.5C 233.024,290.641 238.691,284.308 240.5,274.5 Z"/></g>
<g><path style="opacity:1" fill="#120d05" d="M 250.5,269.5 C 249.422,272.415 249.422,275.749 250.5,279.5C 249.5,279.5 248.5,279.5 247.5,279.5C 247.5,278.5 247.5,277.5 247.5,276.5C 248.131,274.066 249.131,271.732 250.5,269.5 Z"/></g>
<g><path style="opacity:1" fill="#0a0703" d="M 252.5,274.5 C 257.267,275.282 261.267,277.449 264.5,281C 268.311,280.917 271.645,281.75 274.5,283.5C 274.5,283.833 274.5,284.167 274.5,284.5C 269.821,284.666 265.155,284.499 260.5,284C 258.442,280.603 255.442,278.937 251.5,279C 252.38,277.644 252.714,276.144 252.5,274.5 Z"/></g>
<g><path style="opacity:1" fill="#9e9e9e" d="M 41.5,271.5 C 44.4086,274.981 47.0753,278.648 49.5,282.5C 45.1023,280.018 42.4357,276.352 41.5,271.5 Z"/></g>
<g><path style="opacity:1" fill="#b48531" d="M 199.5,273.5 C 200.833,273.5 202.167,273.5 203.5,273.5C 211.833,274.167 220.167,274.833 228.5,275.5C 226.833,275.5 225.167,275.5 223.5,275.5C 223.5,280.833 223.5,286.167 223.5,291.5C 223.5,292.167 223.5,292.833 223.5,293.5C 223.5,294.167 223.5,294.833 223.5,295.5C 223.5,296.167 223.5,296.833 223.5,297.5C 223.5,298.167 223.5,298.833 223.5,299.5C 223.5,300.167 223.5,300.833 223.5,301.5C 218.833,301.5 214.167,301.5 209.5,301.5C 209.5,292.833 209.5,284.167 209.5,275.5C 205.5,275.5 201.5,275.5 197.5,275.5C 197.5,275.167 197.5,274.833 197.5,274.5C 198.492,274.672 199.158,274.338 199.5,273.5 Z"/></g>
<g><path style="opacity:1" fill="#080502" d="M 228.5,275.5 C 230.167,275.5 231.833,275.5 233.5,275.5C 235.167,275.5 236.833,275.5 238.5,275.5C 236.948,284.052 231.948,289.385 223.5,291.5C 223.5,286.167 223.5,280.833 223.5,275.5C 225.167,275.5 226.833,275.5 228.5,275.5 Z"/></g>
<g><path style="opacity:1" fill="#3c301b" d="M 252.5,272.5 C 256.514,272.334 260.514,272.501 264.5,273C 267.423,276.173 271.089,277.34 275.5,276.5C 275.802,279.059 275.468,281.393 274.5,283.5C 271.645,281.75 268.311,280.917 264.5,281C 261.267,277.449 257.267,275.282 252.5,274.5C 252.5,273.833 252.5,273.167 252.5,272.5 Z"/></g>
<g><path style="opacity:1" fill="#7d7d7d" d="M 347.5,267.5 C 346.777,271.565 344.777,274.899 341.5,277.5C 343,273.827 345,270.494 347.5,267.5 Z"/></g>
<g><path style="opacity:1" fill="#151310" d="M 187.5,273.5 C 187.833,273.5 188.167,273.5 188.5,273.5C 188.891,281.503 192.224,288.003 198.5,293C 201.726,295.067 205.06,296.9 208.5,298.5C 206.997,299.052 205.331,299.052 203.5,298.5C 193.825,293.812 187.825,286.146 185.5,275.5C 185.747,274.287 186.414,273.62 187.5,273.5 Z"/></g>
<g><path style="opacity:1" fill="#7a673d" d="M 183.5,271.5 C 184.995,271.989 186.329,272.655 187.5,273.5C 186.414,273.62 185.747,274.287 185.5,275.5C 187.825,286.146 193.825,293.812 203.5,298.5C 203.5,298.833 203.5,299.167 203.5,299.5C 191.147,294.446 184.48,285.113 183.5,271.5 Z"/></g>
<g><path style="opacity:1" fill="#a3a3a3" d="M 49.5,282.5 C 51.984,284.8 53.984,287.467 55.5,290.5C 51.5617,289.235 49.5617,286.568 49.5,282.5 Z"/></g>
<g><path style="opacity:1" fill="#120f0a" d="M 154.5,266.5 C 155.314,268.631 155.814,270.964 156,273.5C 156.414,273.957 156.914,274.291 157.5,274.5C 158.182,273.757 158.849,273.091 159.5,272.5C 159.671,281.002 161.671,289.002 165.5,296.5C 167.255,299.009 168.755,301.676 170,304.5C 174.669,308.337 179.169,312.337 183.5,316.5C 185.812,317.341 188.145,318.341 190.5,319.5C 192.698,321.397 195.364,322.397 198.5,322.5C 200.5,323.167 202.5,323.833 204.5,324.5C 208.97,325.486 213.637,325.819 218.5,325.5C 221.385,325.806 224.052,325.473 226.5,324.5C 229.689,324.142 232.689,323.475 235.5,322.5C 245.748,319.093 254.582,313.427 262,305.5C 262.483,304.552 262.649,303.552 262.5,302.5C 258.647,303.345 255.981,305.679 254.5,309.5C 250.443,311.384 246.777,313.884 243.5,317C 240.216,318.125 236.883,319.125 233.5,320C 232.944,320.383 232.611,320.883 232.5,321.5C 230.435,321.517 228.435,321.85 226.5,322.5C 223.615,322.194 220.948,322.527 218.5,323.5C 216.5,323.5 214.5,323.5 212.5,323.5C 212.5,322.833 212.167,322.5 211.5,322.5C 235.901,322.259 253.901,311.426 265.5,290C 267.81,289.503 270.143,289.337 272.5,289.5C 265.916,307.916 253.25,320.082 234.5,326C 230.553,327.154 226.553,327.987 222.5,328.5C 215.825,328.666 209.158,328.5 202.5,328C 197.134,327.577 192.134,326.077 187.5,323.5C 184.243,322.538 181.243,321.038 178.5,319C 171.517,312.862 165.517,306.029 160.5,298.5C 158.395,293.283 156.562,287.95 155,282.5C 154.501,277.177 154.334,271.844 154.5,266.5 Z"/></g>
<g><path style="opacity:1" fill="#5e4924" d="M 240.5,274.5 C 241.568,273.566 242.901,273.232 244.5,273.5C 242.445,285.885 235.445,293.885 223.5,297.5C 223.5,296.833 223.5,296.167 223.5,295.5C 233.486,292.848 239.819,286.514 242.5,276.5C 242.253,275.287 241.586,274.62 240.5,274.5 Z"/></g>
<g><path style="opacity:1" fill="#7d7d7d" d="M 341.5,277.5 C 340.615,282.632 337.949,286.632 333.5,289.5C 335.782,285.223 338.449,281.223 341.5,277.5 Z"/></g>
<g><path style="opacity:1" fill="#1b1813" d="M 182.5,270.5 C 182.5,271.167 182.833,271.5 183.5,271.5C 184.48,285.113 191.147,294.446 203.5,299.5C 205.214,300.738 207.214,301.405 209.5,301.5C 214.167,301.5 218.833,301.5 223.5,301.5C 234.788,298.717 242.954,292.051 248,281.5C 248.5,281.833 249,282.167 249.5,282.5C 248.333,284.833 247.167,287.167 246,289.5C 229.964,306.596 212.13,308.929 192.5,296.5C 184.584,289.375 181.251,280.708 182.5,270.5 Z"/></g>
<g><path style="opacity:1" fill="#544222" d="M 233.5,275.5 C 235.607,274.532 237.941,274.198 240.5,274.5C 238.691,284.308 233.024,290.641 223.5,293.5C 223.5,292.833 223.5,292.167 223.5,291.5C 231.948,289.385 236.948,284.052 238.5,275.5C 236.833,275.5 235.167,275.5 233.5,275.5 Z"/></g>
<g><path style="opacity:1" fill="#5d4b27" d="M 188.5,273.5 C 189.791,273.263 190.791,273.596 191.5,274.5C 190.503,274.47 189.836,274.97 189.5,276C 192.005,285.526 197.839,292.026 207,295.5C 207.5,295.167 208,294.833 208.5,294.5C 199.77,290.448 194.436,283.781 192.5,274.5C 194.167,274.5 195.833,274.5 197.5,274.5C 197.5,274.833 197.5,275.167 197.5,275.5C 201.5,275.5 205.5,275.5 209.5,275.5C 209.5,284.167 209.5,292.833 209.5,301.5C 207.214,301.405 205.214,300.738 203.5,299.5C 203.5,299.167 203.5,298.833 203.5,298.5C 205.331,299.052 206.997,299.052 208.5,298.5C 205.06,296.9 201.726,295.067 198.5,293C 192.224,288.003 188.891,281.503 188.5,273.5 Z"/></g>
<g><path style="opacity:1" fill="#030201" d="M 197.5,275.5 C 200.962,276.482 204.629,276.815 208.5,276.5C 211.351,292.934 207.518,295.267 197,283.5C 195.688,281.045 194.522,278.545 193.5,276C 194.793,275.51 196.127,275.343 197.5,275.5 Z"/></g>
<g><path style="opacity:1" fill="#120e08" d="M 191.5,274.5 C 191.833,274.5 192.167,274.5 192.5,274.5C 194.436,283.781 199.77,290.448 208.5,294.5C 208,294.833 207.5,295.167 207,295.5C 197.839,292.026 192.005,285.526 189.5,276C 189.836,274.97 190.503,274.47 191.5,274.5 Z"/></g>
<g><path style="opacity:1" fill="#685630" d="M 165.5,275.5 C 166.222,279.391 167.056,283.391 168,287.5C 172.524,298.849 180.024,307.516 190.5,313.5C 189.833,313.5 189.167,313.5 188.5,313.5C 175.867,305.912 167.867,294.912 164.5,280.5C 165.451,279.081 165.784,277.415 165.5,275.5 Z"/></g>
<g><path style="opacity:1" fill="#616161" d="M 55.5,290.5 C 63.7837,297.15 71.4504,304.484 78.5,312.5C 73.7262,308.902 69.0596,305.069 64.5,301C 60.8926,297.902 57.8926,294.402 55.5,290.5 Z"/></g>
<g><path style="opacity:1" fill="#777777" d="M 323.5,275.5 C 316.502,288.129 307.169,298.796 295.5,307.5C 300.081,302.416 304.915,297.416 310,292.5C 314.364,286.646 318.864,280.979 323.5,275.5 Z"/></g>
<g><path style="opacity:1" fill="#6f6f6f" d="M 333.5,289.5 C 333.291,290.922 332.791,292.255 332,293.5C 329.151,296.574 326.317,299.574 323.5,302.5C 326.074,297.591 329.408,293.258 333.5,289.5 Z"/></g>
<g><path style="opacity:1" fill="#232323" d="M 10.5,226.5 C 10.2594,228.898 10.9261,230.898 12.5,232.5C 12.5,232.833 12.5,233.167 12.5,233.5C 12.3379,235.527 12.5045,237.527 13,239.5C 15.0182,245.052 17.5182,250.386 20.5,255.5C 21.5753,261.651 24.242,266.984 28.5,271.5C 35.9801,284.377 44.9801,296.377 55.5,307.5C 58.5628,311.566 62.2294,314.899 66.5,317.5C 69.0948,321.126 72.4281,323.792 76.5,325.5C 79.241,326.439 81.241,328.273 82.5,331C 83.8333,331.333 85.1667,331.667 86.5,332C 93.9333,337.044 101.6,341.544 109.5,345.5C 107.901,345.232 106.568,345.566 105.5,346.5C 103.784,346.371 102.117,346.038 100.5,345.5C 97.8333,344.167 95.1667,342.833 92.5,341.5C 91.3406,339.75 89.674,338.75 87.5,338.5C 45.0039,311.475 18.3372,273.475 7.5,224.5C 7.36899,223.761 7.53566,223.094 8,222.5C 8.20041,224.32 9.03374,225.653 10.5,226.5 Z"/></g>
<g><path style="opacity:1" fill="#9d7a36" d="M 165.5,296.5 C 166.167,296.5 166.833,296.5 167.5,296.5C 171.681,300.521 175.348,305.021 178.5,310C 181.599,311.276 184.266,313.11 186.5,315.5C 185.791,316.404 184.791,316.737 183.5,316.5C 179.169,312.337 174.669,308.337 170,304.5C 168.755,301.676 167.255,299.009 165.5,296.5 Z"/></g>
<g><path style="opacity:1" fill="#cca956" d="M 159.5,298.5 C 159.833,298.5 160.167,298.5 160.5,298.5C 165.517,306.029 171.517,312.862 178.5,319C 181.243,321.038 184.243,322.538 187.5,323.5C 188.343,325.173 189.676,326.34 191.5,327C 191,327.167 190.5,327.333 190,327.5C 185.334,325.615 180.834,323.615 176.5,321.5C 167.39,316.39 160.724,309.057 156.5,299.5C 157.791,299.737 158.791,299.404 159.5,298.5 Z"/></g>
<g><path style="opacity:1" fill="#846328" d="M 235.5,322.5 C 234.209,322.737 233.209,322.404 232.5,321.5C 232.611,320.883 232.944,320.383 233.5,320C 236.883,319.125 240.216,318.125 243.5,317C 246.777,313.884 250.443,311.384 254.5,309.5C 255.981,305.679 258.647,303.345 262.5,302.5C 262.649,303.552 262.483,304.552 262,305.5C 254.582,313.427 245.748,319.093 235.5,322.5 Z"/></g>
<g><path style="opacity:1" fill="#838383" d="M 55.5,307.5 C 59.7706,310.101 63.4372,313.434 66.5,317.5C 62.2294,314.899 58.5628,311.566 55.5,307.5 Z"/></g>
<g><path style="opacity:1" fill="#120f0b" d="M 208.5,228.5 C 226.87,226.565 242.204,232.398 254.5,246C 251.202,246.55 248.202,247.05 245.5,247.5C 247.178,251.091 249.345,251.424 252,248.5C 252.833,248.833 253.667,249.167 254.5,249.5C 253.167,250.167 251.833,250.833 250.5,251.5C 253.785,252.324 257.118,252.824 260.5,253C 261.167,253.667 261.833,254.333 262.5,255C 260.026,255.113 258.026,256.113 256.5,258C 254.098,258.814 251.765,258.647 249.5,257.5C 247.871,253.888 245.538,250.888 242.5,248.5C 243.021,245.364 242.021,243.03 239.5,241.5C 222.975,230.636 206.642,230.97 190.5,242.5C 182.885,248.715 178.052,256.715 176,266.5C 174.812,286.82 183.646,300.487 202.5,307.5C 221.268,313.225 236.935,308.558 249.5,293.5C 248.998,292.479 248.332,292.312 247.5,293C 239.432,303.311 228.765,308.144 215.5,307.5C 211.465,307.387 207.465,307.054 203.5,306.5C 195.749,302.938 188.915,297.938 183,291.5C 174.169,275.046 176.002,260.046 188.5,246.5C 189.583,247.365 189.749,248.365 189,249.5C 185.825,253.19 183.158,257.19 181,261.5C 177.566,275.356 181.066,287.023 191.5,296.5C 195.117,300.316 199.451,303.15 204.5,305C 226.182,309.325 241.849,301.658 251.5,282C 255.48,280.952 258.48,282.285 260.5,286C 264.821,286.499 269.154,286.666 273.5,286.5C 273.5,286.833 273.5,287.167 273.5,287.5C 265.529,286.87 257.863,287.87 250.5,290.5C 253.034,291.777 255.534,291.777 258,290.5C 253.335,301.153 245.335,308.487 234,312.5C 222.129,316.475 210.296,316.475 198.5,312.5C 176.709,303.498 167.209,287.165 170,263.5C 175.896,244.145 188.73,232.478 208.5,228.5 Z"/></g>
<g><path style="opacity:1" fill="#eac76a" d="M 190.5,242.5 C 193.5,242.5 196.5,242.5 199.5,242.5C 200.496,242.414 201.329,242.748 202,243.5C 202.667,246.5 202.667,249.5 202,252.5C 201.617,253.056 201.117,253.389 200.5,253.5C 197.167,253.5 193.833,253.5 190.5,253.5C 190.5,249.833 190.5,246.167 190.5,242.5 Z"/></g>
<g><path style="opacity:1" fill="#726442" d="M 201.5,232.5 C 202.791,232.263 203.791,232.596 204.5,233.5C 177.748,243.005 168.581,261.338 177,288.5C 179.9,294.231 183.733,299.231 188.5,303.5C 188.167,303.5 187.833,303.5 187.5,303.5C 172.636,291.68 168.136,276.68 174,258.5C 179.47,245.862 188.637,237.195 201.5,232.5 Z"/></g>
<g><path style="opacity:1" fill="#524529" d="M 239.5,241.5 C 237.621,242.341 235.621,242.675 233.5,242.5C 232.833,242.5 232.5,242.167 232.5,241.5C 237.592,241.503 237.592,240.67 232.5,239C 220.129,233.933 208.129,234.599 196.5,241C 197.448,241.483 198.448,241.649 199.5,241.5C 199.5,241.833 199.5,242.167 199.5,242.5C 196.5,242.5 193.5,242.5 190.5,242.5C 206.642,230.97 222.975,230.636 239.5,241.5 Z"/></g>
<g><path style="opacity:1" fill="#504124" d="M 231.5,241.5 C 221.167,242.833 210.833,242.833 200.5,241.5C 205.645,238.465 211.312,237.132 217.5,237.5C 222.868,236.772 227.535,238.106 231.5,241.5 Z"/></g>
<g><path style="opacity:1" fill="#0d0a06" d="M 232.5,241.5 C 232.167,241.5 231.833,241.5 231.5,241.5C 227.535,238.106 222.868,236.772 217.5,237.5C 211.312,237.132 205.645,238.465 200.5,241.5C 200.167,241.5 199.833,241.5 199.5,241.5C 198.448,241.649 197.448,241.483 196.5,241C 208.129,234.599 220.129,233.933 232.5,239C 237.592,240.67 237.592,241.503 232.5,241.5 Z"/></g>
<g><path style="opacity:1" fill="#0b0804" d="M 211.5,239.5 C 215.936,239.21 220.27,239.71 224.5,241C 218.5,241.667 212.5,241.667 206.5,241C 208.382,240.802 210.048,240.302 211.5,239.5 Z"/></g>
<g><path style="opacity:1" fill="#4f4024" d="M 204.5,233.5 C 203.791,232.596 202.791,232.263 201.5,232.5C 218.315,227.533 233.648,230.533 247.5,241.5C 248.833,242.167 248.833,242.833 247.5,243.5C 234.76,233.399 220.427,230.065 204.5,233.5 Z"/></g>
<g><path style="opacity:1" fill="#4b3b20" d="M 202.5,307.5 C 203.167,307.5 203.5,307.167 203.5,306.5C 207.465,307.054 211.465,307.387 215.5,307.5C 228.765,308.144 239.432,303.311 247.5,293C 248.332,292.312 248.998,292.479 249.5,293.5C 236.935,308.558 221.268,313.225 202.5,307.5 Z"/></g>
<g><path style="opacity:1" fill="#4e3d20" d="M 187.5,303.5 C 187.833,303.5 188.167,303.5 188.5,303.5C 206.351,313.95 224.351,314.116 242.5,304C 244.017,302.315 245.684,300.815 247.5,299.5C 248.594,300.868 248.26,302.035 246.5,303C 232.264,313.54 216.597,316.206 199.5,311C 194.93,309.226 190.93,306.726 187.5,303.5 Z"/></g>
<g><path style="opacity:1" fill="#6b6b6b" d="M 295.5,307.5 C 287.287,315.284 278.287,322.117 268.5,328C 267.207,328.49 265.873,328.657 264.5,328.5C 275.102,321.899 285.435,314.899 295.5,307.5 Z"/></g>
<g><path style="opacity:1" fill="#808080" d="M 323.5,302.5 C 317.061,310.774 309.728,318.274 301.5,325C 295.952,329.603 289.952,333.437 283.5,336.5C 297.689,326.321 311.023,314.988 323.5,302.5 Z"/></g>
<g><path style="opacity:1" fill="#9b9b9b" d="M 78.5,312.5 C 81.5331,314.016 84.1997,316.016 86.5,318.5C 82.2963,318.411 79.6296,316.411 78.5,312.5 Z"/></g>
<g><path style="opacity:1" fill="#adadad" d="M 66.5,317.5 C 71.2627,318.252 74.596,320.918 76.5,325.5C 72.4281,323.792 69.0948,321.126 66.5,317.5 Z"/></g>
<g><path style="opacity:1" fill="#4e3d1e" d="M 273.5,287.5 C 273.167,288.167 272.833,288.833 272.5,289.5C 270.143,289.337 267.81,289.503 265.5,290C 253.901,311.426 235.901,322.259 211.5,322.5C 208.612,321.99 206.279,322.656 204.5,324.5C 202.5,323.833 200.5,323.167 198.5,322.5C 198.5,321.833 198.5,321.167 198.5,320.5C 196.516,319.844 194.516,319.178 192.5,318.5C 191.584,318.543 190.917,318.876 190.5,319.5C 188.145,318.341 185.812,317.341 183.5,316.5C 184.791,316.737 185.791,316.404 186.5,315.5C 188.926,317.218 191.593,317.718 194.5,317C 192.273,316.059 190.273,314.892 188.5,313.5C 189.167,313.5 189.833,313.5 190.5,313.5C 201.979,318.8 213.979,320.3 226.5,318C 219.833,317.667 213.167,317.333 206.5,317C 202.948,316.122 199.614,314.956 196.5,313.5C 197.492,313.672 198.158,313.338 198.5,312.5C 210.296,316.475 222.129,316.475 234,312.5C 245.335,308.487 253.335,301.153 258,290.5C 255.534,291.777 253.034,291.777 250.5,290.5C 257.863,287.87 265.529,286.87 273.5,287.5 Z"/></g>
<g><path style="opacity:1" fill="#0f0c06" d="M 260.5,289.5 C 261.675,289.281 262.675,289.614 263.5,290.5C 256.23,305.285 244.563,314.119 228.5,317C 243.367,312.627 254.034,303.461 260.5,289.5 Z"/></g>
<g><path style="opacity:1" fill="#aa8032" d="M 198.5,320.5 C 198.5,321.167 198.5,321.833 198.5,322.5C 195.364,322.397 192.698,321.397 190.5,319.5C 190.917,318.876 191.584,318.543 192.5,318.5C 194.516,319.178 196.516,319.844 198.5,320.5 Z"/></g>
<g><path style="opacity:1" fill="#080502" d="M 198.5,320.5 C 197.15,319.35 197.316,318.683 199,318.5C 202.066,319.713 205.233,320.547 208.5,321C 205.076,321.747 201.743,321.58 198.5,320.5 Z"/></g>
<g><path style="opacity:1" fill="#aaaaaa" d="M 86.5,318.5 C 88.5,319.5 90.5,320.5 92.5,321.5C 92.8333,322.167 93.1667,322.833 93.5,323.5C 89.5433,324.027 87.2099,322.361 86.5,318.5 Z"/></g>
<g><path style="opacity:1" fill="#b28a3c" d="M 275.5,248.5 C 285.674,276.293 279.341,299.793 256.5,319C 241.654,329.453 225.32,333.953 207.5,332.5C 202.891,331.661 198.224,330.494 193.5,329C 203.322,329.596 212.989,329.429 222.5,328.5C 226.553,327.987 230.553,327.154 234.5,326C 253.25,320.082 265.916,307.916 272.5,289.5C 272.833,288.833 273.167,288.167 273.5,287.5C 273.5,287.167 273.5,286.833 273.5,286.5C 273.833,285.833 274.167,285.167 274.5,284.5C 274.5,284.167 274.5,283.833 274.5,283.5C 275.468,281.393 275.802,279.059 275.5,276.5C 276.833,272.167 276.833,267.833 275.5,263.5C 275.784,261.585 275.451,259.919 274.5,258.5C 273.833,256.833 273.167,255.167 272.5,253.5C 272.737,252.209 272.404,251.209 271.5,250.5C 271.5,250.167 271.5,249.833 271.5,249.5C 272.211,247.158 273.544,246.825 275.5,248.5 Z"/></g>
<g><path style="opacity:1" fill="#8e8e8e" d="M 333.5,280.5 C 332.955,282.593 332.122,284.593 331,286.5C 314.73,307.611 295.23,324.944 272.5,338.5C 270.5,339.167 268.5,339.833 266.5,340.5C 271.768,336.524 277.434,333.024 283.5,330C 303.36,316.64 320.027,300.14 333.5,280.5 Z"/></g>
<g><path style="opacity:1" fill="#525252" d="M 92.5,321.5 C 96.6829,323.087 100.35,325.421 103.5,328.5C 99.6284,327.898 96.2951,326.231 93.5,323.5C 93.1667,322.833 92.8333,322.167 92.5,321.5 Z"/></g>
<g><path style="opacity:1" fill="#4a3818" d="M 232.5,321.5 C 233.209,322.404 234.209,322.737 235.5,322.5C 232.689,323.475 229.689,324.142 226.5,324.5C 226.5,323.833 226.5,323.167 226.5,322.5C 228.435,321.85 230.435,321.517 232.5,321.5 Z"/></g>
<g><path style="opacity:1" fill="#a67c30" d="M 211.5,322.5 C 212.167,322.5 212.5,322.833 212.5,323.5C 210.052,324.473 207.385,324.806 204.5,324.5C 206.279,322.656 208.612,321.99 211.5,322.5 Z"/></g>
<g><path style="opacity:1" fill="#926b28" d="M 226.5,322.5 C 226.5,323.167 226.5,323.833 226.5,324.5C 224.052,325.473 221.385,325.806 218.5,325.5C 218.5,324.833 218.5,324.167 218.5,323.5C 220.948,322.527 223.615,322.194 226.5,322.5 Z"/></g>
<g><path style="opacity:1" fill="#54401c" d="M 212.5,323.5 C 214.5,323.5 216.5,323.5 218.5,323.5C 218.5,324.167 218.5,324.833 218.5,325.5C 213.637,325.819 208.97,325.486 204.5,324.5C 207.385,324.806 210.052,324.473 212.5,323.5 Z"/></g>
<g><path style="opacity:1" fill="#95783d" d="M 176.5,321.5 C 180.834,323.615 185.334,325.615 190,327.5C 190.5,327.333 191,327.167 191.5,327C 189.676,326.34 188.343,325.173 187.5,323.5C 192.134,326.077 197.134,327.577 202.5,328C 209.158,328.5 215.825,328.666 222.5,328.5C 212.989,329.429 203.322,329.596 193.5,329C 198.224,330.494 202.891,331.661 207.5,332.5C 195.86,332.178 185.526,328.511 176.5,321.5 Z"/></g>
<g><path style="opacity:1" fill="#828282" d="M 264.5,328.5 C 258.551,334.468 251.218,337.801 242.5,338.5C 250.013,335.747 257.346,332.413 264.5,328.5 Z"/></g>
<g><path style="opacity:1" fill="#4f4f4f" d="M 113.5,333.5 C 117.083,333.73 120.083,335.063 122.5,337.5C 118.835,337.498 115.835,336.165 113.5,333.5 Z"/></g>
<g><path style="opacity:1" fill="#777777" d="M 283.5,336.5 C 282.514,338.408 280.848,339.408 278.5,339.5C 279.659,337.75 281.326,336.75 283.5,336.5 Z"/></g>
<g><path style="opacity:1" fill="#848484" d="M 87.5,338.5 C 89.674,338.75 91.3406,339.75 92.5,341.5C 90.1523,341.408 88.4856,340.408 87.5,338.5 Z"/></g>
<g><path style="opacity:1" fill="#9f9f9f" d="M 122.5,337.5 C 126.127,338.321 129.46,339.654 132.5,341.5C 128.225,342.25 124.891,340.917 122.5,337.5 Z"/></g>
<g><path style="opacity:1" fill="#6e6e6e" d="M 132.5,341.5 C 135.152,341.41 137.485,342.076 139.5,343.5C 136.848,343.59 134.515,342.924 132.5,341.5 Z"/></g>
<g><path style="opacity:1" fill="#5f5f5f" d="M 242.5,338.5 C 240.928,339.687 239.261,340.687 237.5,341.5C 233.888,342.422 230.221,343.089 226.5,343.5C 231.634,341.457 236.967,339.79 242.5,338.5 Z"/></g>
<g><path style="opacity:1" fill="#666666" d="M 109.5,345.5 C 113.533,346.025 117.2,347.358 120.5,349.5C 116.327,349.333 112.66,348 109.5,345.5 Z"/></g>
<g><path style="opacity:1" fill="#c2c2c2" d="M 237.5,341.5 C 237.389,342.117 237.056,342.617 236.5,343C 227.083,346.272 217.417,348.105 207.5,348.5C 213.27,347.212 218.937,345.545 224.5,343.5C 225.167,343.5 225.833,343.5 226.5,343.5C 230.221,343.089 233.888,342.422 237.5,341.5 Z"/></g>
<g><path style="opacity:1" fill="#2d2d2d" d="M 272.5,338.5 C 272.063,340.074 271.063,341.241 269.5,342C 270,342.167 270.5,342.333 271,342.5C 273.465,341.349 275.965,340.349 278.5,339.5C 278.53,340.497 278.03,341.164 277,341.5C 272.279,344.279 267.446,346.612 262.5,348.5C 258.447,349.35 254.447,350.516 250.5,352C 249.944,352.383 249.611,352.883 249.5,353.5C 244.33,356.554 238.664,358.22 232.5,358.5C 235.308,357.886 237.975,356.719 240.5,355C 238.866,354.506 237.199,354.34 235.5,354.5C 237.629,353.797 239.629,352.797 241.5,351.5C 250.216,348.641 258.549,344.974 266.5,340.5C 268.5,339.833 270.5,339.167 272.5,338.5 Z"/></g>
<g><path style="opacity:1" fill="#717171" d="M 140.5,343.5 C 147.211,344.316 153.877,345.316 160.5,346.5C 162.631,347.314 164.964,347.814 167.5,348C 179.495,348.5 191.495,348.667 203.5,348.5C 184.522,350.381 165.522,349.548 146.5,346C 144.277,345.434 142.277,344.6 140.5,343.5 Z"/></g>
<g><path style="opacity:1" fill="#3c3c3c" d="M 224.5,343.5 C 218.937,345.545 213.27,347.212 207.5,348.5C 206.167,348.5 204.833,348.5 203.5,348.5C 191.495,348.667 179.495,348.5 167.5,348C 164.964,347.814 162.631,347.314 160.5,346.5C 175.154,347.495 189.821,347.661 204.5,347C 211.035,345.182 217.701,344.016 224.5,343.5 Z"/></g>
<g><path style="opacity:1" fill="#757575" d="M 100.5,345.5 C 102.117,346.038 103.784,346.371 105.5,346.5C 112.102,350.594 119.102,353.927 126.5,356.5C 121.304,355.713 116.304,354.213 111.5,352C 107.902,349.543 104.235,347.376 100.5,345.5 Z"/></g>
<g><path style="opacity:1" fill="#626262" d="M 262.5,348.5 C 258.478,350.734 254.144,352.401 249.5,353.5C 249.611,352.883 249.944,352.383 250.5,352C 254.447,350.516 258.447,349.35 262.5,348.5 Z"/></g>
<g><path style="opacity:1" fill="#7f7f7f" d="M 241.5,351.5 C 239.629,352.797 237.629,353.797 235.5,354.5C 234.167,354.5 232.833,354.5 231.5,354.5C 234.452,352.59 237.786,351.59 241.5,351.5 Z"/></g>
<g><path style="opacity:1" fill="#636363" d="M 120.5,349.5 C 126.752,351.486 133.085,353.153 139.5,354.5C 140.5,355.167 141.5,355.833 142.5,356.5C 138.204,355.57 133.87,354.737 129.5,354C 126.128,352.981 123.128,351.481 120.5,349.5 Z"/></g>
<g><path style="opacity:1" fill="#1b1b1b" d="M 109.5,345.5 C 112.66,348 116.327,349.333 120.5,349.5C 123.128,351.481 126.128,352.981 129.5,354C 133.87,354.737 138.204,355.57 142.5,356.5C 148.712,358.092 155.045,359.258 161.5,360C 176.339,360.828 191.006,360.661 205.5,359.5C 211.888,359.154 218.222,358.321 224.5,357C 227.104,356.61 229.438,355.776 231.5,354.5C 232.833,354.5 234.167,354.5 235.5,354.5C 237.199,354.34 238.866,354.506 240.5,355C 237.975,356.719 235.308,357.886 232.5,358.5C 230.485,359.924 228.152,360.59 225.5,360.5C 195.331,366.362 165.331,365.695 135.5,358.5C 132.402,358.244 129.402,357.578 126.5,356.5C 119.102,353.927 112.102,350.594 105.5,346.5C 106.568,345.566 107.901,345.232 109.5,345.5 Z"/></g>
<g><path style="opacity:1" fill="#8e8e8e" d="M 139.5,354.5 C 147.42,356.317 155.42,357.817 163.5,359C 177.496,359.5 191.496,359.667 205.5,359.5C 191.006,360.661 176.339,360.828 161.5,360C 155.045,359.258 148.712,358.092 142.5,356.5C 141.5,355.833 140.5,355.167 139.5,354.5 Z"/></g>
<g><path style="opacity:1" fill="#7c7c7c" d="M 231.5,354.5 C 229.438,355.776 227.104,356.61 224.5,357C 218.222,358.321 211.888,359.154 205.5,359.5C 213.917,357.19 222.583,355.523 231.5,354.5 Z"/></g>
<g><path style="opacity:1" fill="#727272" d="M 135.5,358.5 C 165.331,365.695 195.331,366.362 225.5,360.5C 219.574,363.19 213.241,364.69 206.5,365C 185.362,366.398 164.362,365.398 143.5,362C 140.691,360.907 138.024,359.74 135.5,358.5 Z"/></g>
</svg>
