<?xml version="1.0" encoding="UTF-8"?>
<!DOCTYPE svg PUBLIC "-//W3C//DTD SVG 1.1//EN" "http://www.w3.org/Graphics/SVG/1.1/DTD/svg11.dtd">
<svg xmlns="http://www.w3.org/2000/svg" version="1.1" width="221px" height="221px" style="shape-rendering:geometricPrecision; text-rendering:geometricPrecision; image-rendering:optimizeQuality; fill-rule:evenodd; clip-rule:evenodd" xmlns:xlink="http://www.w3.org/1999/xlink">
<g><path style="opacity:0.967" fill="#656666" d="M 95.5,-0.5 C 105.167,-0.5 114.833,-0.5 124.5,-0.5C 137.83,1.83227 150.496,6.1656 162.5,12.5C 162.585,13.9953 161.919,14.9953 160.5,15.5C 159.468,13.9604 158.135,13.4604 156.5,14C 155.54,15.4194 154.707,16.9194 154,18.5C 153.333,17.1667 152.667,15.8333 152,14.5C 149.898,18.6166 147.731,18.9499 145.5,15.5C 143.11,16.8235 140.777,17.3235 138.5,17C 140.589,20.123 139.922,20.2896 136.5,17.5C 135.808,18.0253 135.308,18.6919 135,19.5C 134.481,16.508 132.981,15.508 130.5,16.5C 129.803,14.6155 128.803,14.2822 127.5,15.5C 126.585,12.7261 124.918,12.8928 122.5,16C 124.26,16.9653 124.594,18.132 123.5,19.5C 122.833,18.8333 122.167,18.1667 121.5,17.5C 119.378,17.6225 117.211,17.6225 115,17.5C 113.386,20.8251 111.386,21.1585 109,18.5C 107.951,20.1066 106.451,20.7733 104.5,20.5C 104.662,18.4727 104.495,16.4727 104,14.5C 103.25,15.1258 102.416,15.6258 101.5,16C 103.868,17.7354 103.368,18.9021 100,19.5C 98.3152,17.1514 96.3152,15.8181 94,15.5C 93.6667,16.1667 93.3333,16.8333 93,17.5C 92.6667,15.8333 92.3333,14.1667 92,12.5C 90.0624,13.8602 88.3957,13.5268 87,11.5C 86.4926,12.9961 86.9926,14.1627 88.5,15C 88,15.1667 87.5,15.3333 87,15.5C 85.0362,14.536 83.3695,13.2026 82,11.5C 80.85,12.4239 79.85,12.4239 79,11.5C 78.0853,12.3279 77.4186,13.3279 77,14.5C 75.8989,12.6061 74.5655,11.9394 73,12.5C 72.7508,13.624 72.2508,14.624 71.5,15.5C 71.9402,14.0475 71.2735,12.8808 69.5,12C 72,11.1667 72.1667,10 70,8.5C 67.8003,9.52199 65.8003,10.8553 64,12.5C 61.9189,11.6669 59.7522,11.6669 57.5,12.5C 69.5037,6.1656 82.1704,1.83227 95.5,-0.5 Z"/></g>
<g><path style="opacity:0.993" fill="#5d5e5e" d="M 162.5,12.5 C 173.999,18.5884 183.999,26.5884 192.5,36.5C 188.261,35.7889 185.594,37.4556 184.5,41.5C 184.331,40.6034 183.998,39.6034 183.5,38.5C 182.813,40.2744 181.98,41.9411 181,43.5C 180.405,42.1011 180.572,40.7678 181.5,39.5C 180.998,38.479 180.332,38.3123 179.5,39C 178.809,40.0674 178.309,41.2341 178,42.5C 177.71,40.9559 177.044,39.6226 176,38.5C 175.316,39.7839 175.483,40.9505 176.5,42C 173.068,42.1161 170.068,43.2828 167.5,45.5C 166.757,44.0921 165.923,42.7588 165,41.5C 165.263,42.9506 165.096,44.2839 164.5,45.5C 162.902,45.3903 161.235,45.057 159.5,44.5C 158.5,45.1667 157.5,45.8333 156.5,46.5C 154.107,44.7234 152.44,42.3901 151.5,39.5C 150.526,41.7427 150.192,44.076 150.5,46.5C 149.127,46.3433 147.793,46.51 146.5,47C 148.059,47.9799 149.726,48.8133 151.5,49.5C 150.095,49.76 148.762,50.0934 147.5,50.5C 145.833,52.8333 143.833,54.8333 141.5,56.5C 143.331,53.8817 144.831,51.2151 146,48.5C 136.257,41.3761 126.091,34.8761 115.5,29C 107.943,27.0747 101.609,28.9081 96.5,34.5C 88.5953,38.7511 81.262,43.7511 74.5,49.5C 73.5,49.5 72.5,49.5 71.5,49.5C 71.5,47.8333 71.5,46.1667 71.5,44.5C 67.1018,44.4796 63.9352,43.1463 62,40.5C 60.0934,42.103 58.5934,41.7697 57.5,39.5C 56.1667,40.1667 54.8333,40.8333 53.5,41.5C 53.5,40.5 53.5,39.5 53.5,38.5C 51.9076,38.4173 50.2409,38.7506 48.5,39.5C 47.3279,39.0814 46.3279,38.4147 45.5,37.5C 44.1667,38.1667 42.8333,38.8333 41.5,39.5C 40.646,38.4783 39.646,37.6449 38.5,37C 38.8333,36.6667 39.1667,36.3333 39.5,36C 38.2068,35.51 36.8734,35.3433 35.5,35.5C 35.9118,33.0274 34.9118,31.6941 32.5,31.5C 39.5372,23.4792 47.8705,17.1459 57.5,12.5C 59.7522,11.6669 61.9189,11.6669 64,12.5C 65.8003,10.8553 67.8003,9.52199 70,8.5C 72.1667,10 72,11.1667 69.5,12C 71.2735,12.8808 71.9402,14.0475 71.5,15.5C 72.2508,14.624 72.7508,13.624 73,12.5C 74.5655,11.9394 75.8989,12.6061 77,14.5C 77.4186,13.3279 78.0853,12.3279 79,11.5C 79.85,12.4239 80.85,12.4239 82,11.5C 83.3695,13.2026 85.0362,14.536 87,15.5C 87.5,15.3333 88,15.1667 88.5,15C 86.9926,14.1627 86.4926,12.9961 87,11.5C 88.3957,13.5268 90.0624,13.8602 92,12.5C 92.3333,14.1667 92.6667,15.8333 93,17.5C 93.3333,16.8333 93.6667,16.1667 94,15.5C 96.3152,15.8181 98.3152,17.1514 100,19.5C 103.368,18.9021 103.868,17.7354 101.5,16C 102.416,15.6258 103.25,15.1258 104,14.5C 104.495,16.4727 104.662,18.4727 104.5,20.5C 106.451,20.7733 107.951,20.1066 109,18.5C 111.386,21.1585 113.386,20.8251 115,17.5C 117.211,17.6225 119.378,17.6225 121.5,17.5C 122.167,18.1667 122.833,18.8333 123.5,19.5C 124.594,18.132 124.26,16.9653 122.5,16C 124.918,12.8928 126.585,12.7261 127.5,15.5C 128.803,14.2822 129.803,14.6155 130.5,16.5C 132.981,15.508 134.481,16.508 135,19.5C 135.308,18.6919 135.808,18.0253 136.5,17.5C 139.922,20.2896 140.589,20.123 138.5,17C 140.777,17.3235 143.11,16.8235 145.5,15.5C 147.731,18.9499 149.898,18.6166 152,14.5C 152.667,15.8333 153.333,17.1667 154,18.5C 154.707,16.9194 155.54,15.4194 156.5,14C 158.135,13.4604 159.468,13.9604 160.5,15.5C 161.919,14.9953 162.585,13.9953 162.5,12.5 Z"/></g>
<g><path style="opacity:0.986" fill="#505151" d="M 32.5,31.5 C 34.9118,31.6941 35.9118,33.0274 35.5,35.5C 36.8734,35.3433 38.2068,35.51 39.5,36C 39.1667,36.3333 38.8333,36.6667 38.5,37C 39.646,37.6449 40.646,38.4783 41.5,39.5C 42.8333,38.8333 44.1667,38.1667 45.5,37.5C 46.3279,38.4147 47.3279,39.0814 48.5,39.5C 50.2409,38.7506 51.9076,38.4173 53.5,38.5C 53.5,39.5 53.5,40.5 53.5,41.5C 54.8333,40.8333 56.1667,40.1667 57.5,39.5C 58.5934,41.7697 60.0934,42.103 62,40.5C 63.9352,43.1463 67.1018,44.4796 71.5,44.5C 71.5,46.1667 71.5,47.8333 71.5,49.5C 72.5,49.5 73.5,49.5 74.5,49.5C 77.5466,52.5448 80.2133,55.8781 82.5,59.5C 79.1897,61.4821 76.1897,63.8154 73.5,66.5C 72.9232,67.7733 72.2565,67.7733 71.5,66.5C 66.8333,60.8333 62.1667,55.1667 57.5,49.5C 48.8525,48.3348 40.1858,48.1681 31.5,49C 30.5399,52.73 30.2065,56.5633 30.5,60.5C 26.0084,61.2623 25.6751,62.5957 29.5,64.5C 29.1543,65.6956 28.6543,65.6956 28,64.5C 26.3333,65.5 24.6667,66.5 23,67.5C 21.6667,66.1667 20.3333,66.1667 19,67.5C 17.406,66.2841 15.906,64.9507 14.5,63.5C 13.4763,64.8532 12.143,65.5198 10.5,65.5C 10.9258,63.8612 10.9258,62.5279 10.5,61.5C 15.8816,50.0706 23.215,40.0706 32.5,31.5 Z"/></g>
<g><path style="opacity:1" fill="#28e9fb" d="M 116.5,51.5 C 104.327,50.7489 92.9935,53.4155 82.5,59.5C 80.2133,55.8781 77.5466,52.5448 74.5,49.5C 81.262,43.7511 88.5953,38.7511 96.5,34.5C 99.9865,34.0946 103.32,33.0946 106.5,31.5C 109.384,32.8156 112.384,33.8156 115.5,34.5C 113.234,35.3142 110.9,35.8142 108.5,36C 109.833,36.6667 109.833,37.3333 108.5,38C 109.448,38.4828 110.448,38.6495 111.5,38.5C 112.928,41.502 112.595,44.3353 110.5,47C 111.662,47.8271 112.829,48.6604 114,49.5C 116.078,48.057 116.911,48.7237 116.5,51.5 Z"/></g>
<g><path style="opacity:0.976" fill="#525152" d="M 192.5,36.5 C 201.679,45.5088 208.345,56.1755 212.5,68.5C 211.21,70.9866 210.21,70.6533 209.5,67.5C 207.477,69.4161 205.143,70.2495 202.5,70C 202.167,69.6667 201.833,69.3333 201.5,69C 205.525,67.4281 205.358,66.2614 201,65.5C 200.405,64.1011 200.572,62.7678 201.5,61.5C 199.401,59.2588 197.401,56.9255 195.5,54.5C 194.596,53.791 194.263,52.791 194.5,51.5C 193.209,51.2627 192.209,51.596 191.5,52.5C 191.167,52.5 190.833,52.5 190.5,52.5C 190.67,51.1779 190.337,50.0113 189.5,49C 181.167,48.3333 172.833,48.3333 164.5,49C 159.24,54.4195 154.573,60.2528 150.5,66.5C 147.545,64.8777 144.878,62.8777 142.5,60.5C 144.39,60.7035 145.89,60.0368 147,58.5C 147.931,56.5405 148.764,54.5405 149.5,52.5C 149.145,51.4777 148.478,50.811 147.5,50.5C 148.762,50.0934 150.095,49.76 151.5,49.5C 149.726,48.8133 148.059,47.9799 146.5,47C 147.793,46.51 149.127,46.3433 150.5,46.5C 150.192,44.076 150.526,41.7427 151.5,39.5C 152.44,42.3901 154.107,44.7234 156.5,46.5C 157.5,45.8333 158.5,45.1667 159.5,44.5C 161.235,45.057 162.902,45.3903 164.5,45.5C 165.096,44.2839 165.263,42.9506 165,41.5C 165.923,42.7588 166.757,44.0921 167.5,45.5C 170.068,43.2828 173.068,42.1161 176.5,42C 175.483,40.9505 175.316,39.7839 176,38.5C 177.044,39.6226 177.71,40.9559 178,42.5C 178.309,41.2341 178.809,40.0674 179.5,39C 180.332,38.3123 180.998,38.479 181.5,39.5C 180.572,40.7678 180.405,42.1011 181,43.5C 181.98,41.9411 182.813,40.2744 183.5,38.5C 183.998,39.6034 184.331,40.6034 184.5,41.5C 185.594,37.4556 188.261,35.7889 192.5,36.5 Z"/></g>
<g><path style="opacity:1" fill="#2fdffa" d="M 141.5,56.5 C 140.5,56.8333 139.833,57.5 139.5,58.5C 132.04,55.1214 124.373,52.7881 116.5,51.5C 116.911,48.7237 116.078,48.057 114,49.5C 112.829,48.6604 111.662,47.8271 110.5,47C 112.595,44.3353 112.928,41.502 111.5,38.5C 110.448,38.6495 109.448,38.4828 108.5,38C 109.833,37.3333 109.833,36.6667 108.5,36C 110.9,35.8142 113.234,35.3142 115.5,34.5C 112.384,33.8156 109.384,32.8156 106.5,31.5C 103.32,33.0946 99.9865,34.0946 96.5,34.5C 101.609,28.9081 107.943,27.0747 115.5,29C 126.091,34.8761 136.257,41.3761 146,48.5C 144.831,51.2151 143.331,53.8817 141.5,56.5 Z"/></g>
<g><path style="opacity:1" fill="#f5f5f5" d="M 73.5,66.5 C 74.4972,66.4701 75.1639,66.9701 75.5,68C 74.2927,69.3002 73.6261,70.8002 73.5,72.5C 73.1667,73.5 72.5,74.1667 71.5,74.5C 70.7784,74.0825 70.2784,73.4158 70,72.5C 68.9603,75.8661 66.9603,78.5327 64,80.5C 63.6667,80.1667 63.3333,79.8333 63,79.5C 62.3023,82.4106 60.8023,83.0773 58.5,81.5C 57.8333,80.1667 56.8333,79.1667 55.5,78.5C 51.7118,73.5401 47.7118,68.7068 43.5,64C 39.5138,63.5012 35.5138,63.3345 31.5,63.5C 30.8902,62.609 30.5569,61.609 30.5,60.5C 30.2065,56.5633 30.5399,52.73 31.5,49C 40.1858,48.1681 48.8525,48.3348 57.5,49.5C 62.1667,55.1667 66.8333,60.8333 71.5,66.5C 72.2565,67.7733 72.9232,67.7733 73.5,66.5 Z"/></g>
<g><path style="opacity:1" fill="#f6f6f6" d="M 190.5,52.5 C 190.665,55.8499 190.498,59.1832 190,62.5C 185.92,63.3002 181.753,63.8002 177.5,64C 173.621,68.374 169.954,72.874 166.5,77.5C 163.139,79.0861 161.806,81.4194 162.5,84.5C 162.5,84.8333 162.5,85.1667 162.5,85.5C 162.5,86.8333 161.833,87.5 160.5,87.5C 158.833,84.1667 157.167,80.8333 155.5,77.5C 157.188,74.2993 156.188,72.1326 152.5,71C 152.833,70.6667 153.167,70.3333 153.5,70C 152.29,68.9609 151.29,67.7942 150.5,66.5C 154.573,60.2528 159.24,54.4195 164.5,49C 172.833,48.3333 181.167,48.3333 189.5,49C 190.337,50.0113 190.67,51.1779 190.5,52.5 Z"/></g>
<g><path style="opacity:0.979" fill="#424647" d="M 195.5,54.5 C 197.401,56.9255 199.401,59.2588 201.5,61.5C 200.572,62.7678 200.405,64.1011 201,65.5C 205.358,66.2614 205.525,67.4281 201.5,69C 201.833,69.3333 202.167,69.6667 202.5,70C 205.143,70.2495 207.477,69.4161 209.5,67.5C 210.21,70.6533 211.21,70.9866 212.5,68.5C 216.257,77.1982 218.924,86.1982 220.5,95.5C 220.5,98.1667 220.5,100.833 220.5,103.5C 218.926,103.937 217.759,104.937 217,106.5C 215.279,102.944 213.112,100.278 210.5,98.5C 210.27,93.341 208.27,88.6743 204.5,84.5C 203.313,83.3473 202.313,83.3473 201.5,84.5C 201.5,85.1667 201.5,85.8333 201.5,86.5C 201.829,101.343 201.496,116.01 200.5,130.5C 200.83,114.658 200.496,98.9911 199.5,83.5C 195.426,78.298 190.092,76.1313 183.5,77C 182.956,77.7172 182.289,78.2172 181.5,78.5C 179.019,77.3038 179.019,75.8038 181.5,74C 184.222,72.4303 186.722,71.2636 189,70.5C 189.333,70.8333 189.667,71.1667 190,71.5C 191.667,70.1667 193.333,68.8333 195,67.5C 195.499,63.1794 195.666,58.8461 195.5,54.5 Z"/></g>
<g><path style="opacity:1" fill="#111516" d="M 147.5,50.5 C 148.478,50.811 149.145,51.4777 149.5,52.5C 148.764,54.5405 147.931,56.5405 147,58.5C 145.89,60.0368 144.39,60.7035 142.5,60.5C 141.29,60.0679 140.29,59.4013 139.5,58.5C 139.833,57.5 140.5,56.8333 141.5,56.5C 143.833,54.8333 145.833,52.8333 147.5,50.5 Z"/></g>
<g><path style="opacity:1" fill="#edeee7" d="M 116.5,51.5 C 124.373,52.7881 132.04,55.1214 139.5,58.5C 140.29,59.4013 141.29,60.0679 142.5,60.5C 144.878,62.8777 147.545,64.8777 150.5,66.5C 151.29,67.7942 152.29,68.9609 153.5,70C 153.167,70.3333 152.833,70.6667 152.5,71C 156.188,72.1326 157.188,74.2993 155.5,77.5C 154.167,76.8333 153.167,75.8333 152.5,74.5C 146.897,67.5672 139.897,62.5672 131.5,59.5C 127.224,58.1917 122.89,57.1917 118.5,56.5C 113.015,55.3483 107.349,55.1816 101.5,56C 100.584,56.2784 99.9175,56.7784 99.5,57.5C 90.439,59.5262 82.7723,63.8595 76.5,70.5C 75.5,71.1667 74.5,71.8333 73.5,72.5C 73.6261,70.8002 74.2927,69.3002 75.5,68C 75.1639,66.9701 74.4972,66.4701 73.5,66.5C 76.1897,63.8154 79.1897,61.4821 82.5,59.5C 92.9935,53.4155 104.327,50.7489 116.5,51.5 Z"/></g>
<g><path style="opacity:1" fill="#727170" d="M 118.5,56.5 C 112.131,56.347 105.797,56.6803 99.5,57.5C 99.9175,56.7784 100.584,56.2784 101.5,56C 107.349,55.1816 113.015,55.3483 118.5,56.5 Z"/></g>
<g><path style="opacity:1" fill="#171717" d="M 190.5,52.5 C 190.833,52.5 191.167,52.5 191.5,52.5C 192.79,53.0577 193.623,54.0577 194,55.5C 194.854,59.6251 194.52,63.6251 193,67.5C 186.639,67.2749 181.139,69.2749 176.5,73.5C 173.138,77.0614 170.138,80.8947 167.5,85C 166.255,85.7914 164.922,86.2914 163.5,86.5C 163.5,85.8333 163.167,85.5 162.5,85.5C 162.5,85.1667 162.5,84.8333 162.5,84.5C 163.833,82.1667 165.167,79.8333 166.5,77.5C 169.954,72.874 173.621,68.374 177.5,64C 181.753,63.8002 185.92,63.3002 190,62.5C 190.498,59.1832 190.665,55.8499 190.5,52.5 Z"/></g>
<g><path style="opacity:1" fill="#656653" d="M 131.5,59.5 C 139.897,62.5672 146.897,67.5672 152.5,74.5C 151.849,75.0906 151.182,75.7573 150.5,76.5C 145.578,71.0792 139.911,66.5792 133.5,63C 132.695,61.8873 132.028,60.7206 131.5,59.5 Z"/></g>
<g><path style="opacity:1" fill="#242424" d="M 31.5,63.5 C 35.5138,63.3345 39.5138,63.5012 43.5,64C 47.7118,68.7068 51.7118,73.5401 55.5,78.5C 55.6495,79.552 55.4828,80.552 55,81.5C 52.1667,78 49.3333,74.5 46.5,71C 42.5314,70.1473 38.5314,69.4807 34.5,69C 33.3333,67.8333 32.1667,66.6667 31,65.5C 30.3083,64.5632 30.475,63.8966 31.5,63.5 Z"/></g>
<g><path style="opacity:0.978" fill="#414343" d="M 30.5,60.5 C 30.5569,61.609 30.8902,62.609 31.5,63.5C 30.475,63.8966 30.3083,64.5632 31,65.5C 32.1667,66.6667 33.3333,67.8333 34.5,69C 38.5314,69.4807 42.5314,70.1473 46.5,71C 49.3333,74.5 52.1667,78 55,81.5C 55.4828,80.552 55.6495,79.552 55.5,78.5C 56.8333,79.1667 57.8333,80.1667 58.5,81.5C 59.1408,82.4822 59.8075,83.4822 60.5,84.5C 58.4732,89.5134 56.8066,94.5134 55.5,99.5C 55.5,97.8333 55.5,96.1667 55.5,94.5C 54.0413,94.5674 52.7079,94.2341 51.5,93.5C 51.631,92.7611 51.4643,92.0944 51,91.5C 49.5881,93.452 47.7547,94.7853 45.5,95.5C 46.4787,93.8546 47.812,92.5213 49.5,91.5C 45.8223,86.4942 41.8223,81.8275 37.5,77.5C 31.0526,76.0397 25.7193,78.0397 21.5,83.5C 20.5038,98.6576 20.1705,113.991 20.5,129.5C 20.1667,129.5 19.8333,129.5 19.5,129.5C 19.6665,118.495 19.4998,107.495 19,96.5C 18.6667,99.5 18.3333,102.5 18,105.5C 17.3333,106.833 16.6667,106.833 16,105.5C 14.8658,100.203 14.0325,100.203 13.5,105.5C 12.0222,105.762 10.6888,105.429 9.5,104.5C 10.6872,103.481 11.6872,102.314 12.5,101C 10.2524,101.645 8.08573,102.812 6,104.5C 3.72106,103.609 1.55439,102.609 -0.5,101.5C -0.5,99.5 -0.5,97.5 -0.5,95.5C 1.55557,83.6661 5.22224,72.3327 10.5,61.5C 10.9258,62.5279 10.9258,63.8612 10.5,65.5C 12.143,65.5198 13.4763,64.8532 14.5,63.5C 15.906,64.9507 17.406,66.2841 19,67.5C 20.3333,66.1667 21.6667,66.1667 23,67.5C 24.6667,66.5 26.3333,65.5 28,64.5C 28.6543,65.6956 29.1543,65.6956 29.5,64.5C 25.6751,62.5957 26.0084,61.2623 30.5,60.5 Z"/></g>
<g><path style="opacity:1" fill="#3a3a34" d="M 76.5,70.5 C 77.3029,71.4232 77.4696,72.4232 77,73.5C 73.0267,76.7845 70.0267,80.7845 68,85.5C 66.8873,86.305 65.7206,86.9717 64.5,87.5C 66.4027,82.9317 68.736,78.5984 71.5,74.5C 72.5,74.1667 73.1667,73.5 73.5,72.5C 74.5,71.8333 75.5,71.1667 76.5,70.5 Z"/></g>
<g><path style="opacity:1" fill="#6e6e6d" d="M 166.5,77.5 C 165.167,79.8333 163.833,82.1667 162.5,84.5C 161.806,81.4194 163.139,79.0861 166.5,77.5 Z"/></g>
<g><path style="opacity:1" fill="#e7e8e5" d="M 71.5,74.5 C 68.736,78.5984 66.4027,82.9317 64.5,87.5C 59.2471,101.101 59.2471,114.768 64.5,128.5C 65.4408,130.05 66.1075,131.716 66.5,133.5C 65.3115,132.952 64.1448,132.619 63,132.5C 63,131.167 63,129.833 63,128.5C 62.0494,128.884 61.2161,129.217 60.5,129.5C 56.4311,120.041 54.7644,110.041 55.5,99.5C 56.8066,94.5134 58.4732,89.5134 60.5,84.5C 59.8075,83.4822 59.1408,82.4822 58.5,81.5C 60.8023,83.0773 62.3023,82.4106 63,79.5C 63.3333,79.8333 63.6667,80.1667 64,80.5C 66.9603,78.5327 68.9603,75.8661 70,72.5C 70.2784,73.4158 70.7784,74.0825 71.5,74.5 Z"/></g>
<g><path style="opacity:1" fill="#2ce8f9" d="M 199.5,83.5 C 199.5,83.8333 199.5,84.1667 199.5,84.5C 198.064,82.6815 196.397,82.3482 194.5,83.5C 196.165,87.0224 194.999,89.0224 191,89.5C 188.101,89.0233 185.434,88.0233 183,86.5C 181.391,87.1466 179.891,87.98 178.5,89C 179.731,90.1827 179.731,91.3493 178.5,92.5C 177.305,90.8794 176.305,89.2128 175.5,87.5C 177.526,84.4822 179.526,81.4822 181.5,78.5C 182.289,78.2172 182.956,77.7172 183.5,77C 190.092,76.1313 195.426,78.298 199.5,83.5 Z"/></g>
<g><path style="opacity:1" fill="#a6a6a6" d="M 162.5,85.5 C 163.167,85.5 163.5,85.8333 163.5,86.5C 164.167,88.5 164.833,90.5 165.5,92.5C 164.167,92.5 163.5,93.1667 163.5,94.5C 162.833,93.1667 162.167,91.8333 161.5,90.5C 161.443,89.391 161.11,88.391 160.5,87.5C 161.833,87.5 162.5,86.8333 162.5,85.5 Z"/></g>
<g><path style="opacity:1" fill="#24dbfa" d="M 199.5,84.5 C 199.667,98.504 199.5,112.504 199,126.5C 198.92,121.864 198.087,117.864 196.5,114.5C 195.238,117.115 194.072,119.782 193,122.5C 191.362,120.157 190.028,118.157 189,116.5C 188.5,116.667 188,116.833 187.5,117C 188.051,118.398 188.384,119.732 188.5,121C 187.056,121.781 185.723,121.614 184.5,120.5C 187.227,116.431 186.893,115.931 183.5,119C 181.5,119.333 179.5,119.667 177.5,120C 176.511,122.158 174.844,123.325 172.5,123.5C 171.957,123.44 171.624,123.107 171.5,122.5C 173.833,121 176.167,119.5 178.5,118C 179.252,117.329 179.586,116.496 179.5,115.5C 180.653,109.681 180.819,103.681 180,97.5C 179.184,96.1772 178.017,95.5106 176.5,95.5C 170.418,93.3759 170.084,90.7092 175.5,87.5C 176.305,89.2128 177.305,90.8794 178.5,92.5C 179.731,91.3493 179.731,90.1827 178.5,89C 179.891,87.98 181.391,87.1466 183,86.5C 185.434,88.0233 188.101,89.0233 191,89.5C 194.999,89.0224 196.165,87.0224 194.5,83.5C 196.397,82.3482 198.064,82.6815 199.5,84.5 Z"/></g>
<g><path style="opacity:1" fill="#23ebfc" d="M 37.5,77.5 C 36.9423,78.7899 35.9423,79.6232 34.5,80C 38.8888,81.5926 39.5554,84.0926 36.5,87.5C 37.0136,89.6052 37.3469,91.4386 37.5,93C 35.2262,93.4702 33.2262,94.4702 31.5,96C 32.3567,96.6891 33.0233,97.5224 33.5,98.5C 32.2889,99.7202 32.2889,100.887 33.5,102C 31.9544,103.44 31.121,105.273 31,107.5C 29.5402,110.21 27.5402,110.876 25,109.5C 24.6667,110.167 24.3333,110.833 24,111.5C 23.9977,108.949 23.1644,106.949 21.5,105.5C 21.5,98.1667 21.5,90.8333 21.5,83.5C 25.7193,78.0397 31.0526,76.0397 37.5,77.5 Z"/></g>
<g><path style="opacity:1" fill="#3b3d3d" d="M 191.5,52.5 C 192.209,51.596 193.209,51.2627 194.5,51.5C 194.263,52.791 194.596,53.791 195.5,54.5C 195.666,58.8461 195.499,63.1794 195,67.5C 193.333,68.8333 191.667,70.1667 190,71.5C 189.667,71.1667 189.333,70.8333 189,70.5C 186.722,71.2636 184.222,72.4303 181.5,74C 179.019,75.8038 179.019,77.3038 181.5,78.5C 179.526,81.4822 177.526,84.4822 175.5,87.5C 170.084,90.7092 170.418,93.3759 176.5,95.5C 177.122,96.6266 177.955,97.6266 179,98.5C 179.499,104.157 179.666,109.824 179.5,115.5C 179.586,116.496 179.252,117.329 178.5,118C 176.167,119.5 173.833,121 171.5,122.5C 171.624,123.107 171.957,123.44 172.5,123.5C 173.925,124.922 174.925,126.589 175.5,128.5C 174.518,127.859 173.518,127.193 172.5,126.5C 171.576,128.39 170.243,129.89 168.5,131C 166.314,131.061 164.314,131.228 162.5,131.5C 167.623,118.777 168.623,105.777 165.5,92.5C 164.833,90.5 164.167,88.5 163.5,86.5C 164.922,86.2914 166.255,85.7914 167.5,85C 170.138,80.8947 173.138,77.0614 176.5,73.5C 181.139,69.2749 186.639,67.2749 193,67.5C 194.52,63.6251 194.854,59.6251 194,55.5C 193.623,54.0577 192.79,53.0577 191.5,52.5 Z"/></g>
<g><path style="opacity:1" fill="#080e0f" d="M 51.5,93.5 C 51.1494,97.7014 48.9828,100.701 45,102.5C 44.9095,107.382 44.0762,112.049 42.5,116.5C 41.8333,116.5 41.5,116.167 41.5,115.5C 41.334,110.156 41.5006,104.823 42,99.5C 43.3756,98.2949 44.5423,96.9616 45.5,95.5C 47.7547,94.7853 49.5881,93.452 51,91.5C 51.4643,92.0944 51.631,92.7611 51.5,93.5 Z"/></g>
<g><path style="opacity:1" fill="#353738" d="M 51.5,93.5 C 52.7079,94.2341 54.0413,94.5674 55.5,94.5C 55.5,96.1667 55.5,97.8333 55.5,99.5C 54.7644,110.041 56.4311,120.041 60.5,129.5C 60.573,131.027 59.9063,132.027 58.5,132.5C 57.4341,131.308 56.6008,131.641 56,133.5C 54.8333,130.5 53.6667,127.5 52.5,124.5C 51.7435,123.227 51.0768,123.227 50.5,124.5C 46.1667,129.167 41.8333,133.833 37.5,138.5C 37.5,138.167 37.5,137.833 37.5,137.5C 40.5244,133.482 43.5244,129.482 46.5,125.5C 47.6266,124.878 48.6266,124.045 49.5,123C 46.6377,121.265 44.3044,119.098 42.5,116.5C 44.0762,112.049 44.9095,107.382 45,102.5C 48.9828,100.701 51.1494,97.7014 51.5,93.5 Z"/></g>
<g><path style="opacity:0.96" fill="#363636" d="M 201.5,84.5 C 202.313,83.3473 203.313,83.3473 204.5,84.5C 208.27,88.6743 210.27,93.341 210.5,98.5C 213.112,100.278 215.279,102.944 217,106.5C 217.759,104.937 218.926,103.937 220.5,103.5C 220.5,110.5 220.5,117.5 220.5,124.5C 218.924,133.802 216.257,142.802 212.5,151.5C 210.577,151.205 208.91,150.372 207.5,149C 210.202,147.187 210.536,145.354 208.5,143.5C 209.04,142.252 209.707,141.085 210.5,140C 209.096,136.096 208.096,132.096 207.5,128C 209.899,126.04 210.065,123.874 208,121.5C 206.401,110.265 205.401,98.9315 205,87.5C 203.961,86.2899 202.794,85.2899 201.5,84.5 Z"/></g>
<g><path style="opacity:1" fill="#464744" d="M 161.5,90.5 C 162.167,91.8333 162.833,93.1667 163.5,94.5C 164.782,102.295 164.782,109.962 163.5,117.5C 163.881,108.39 163.214,99.3898 161.5,90.5 Z"/></g>
<g><path style="opacity:1" fill="#24e0fb" d="M 37.5,77.5 C 41.8223,81.8275 45.8223,86.4942 49.5,91.5C 47.812,92.5213 46.4787,93.8546 45.5,95.5C 44.5423,96.9616 43.3756,98.2949 42,99.5C 41.5006,104.823 41.334,110.156 41.5,115.5C 41.5,116.167 41.8333,116.5 42.5,116.5C 44.3044,119.098 46.6377,121.265 49.5,123C 48.6266,124.045 47.6266,124.878 46.5,125.5C 46.6495,124.448 46.4828,123.448 46,122.5C 42.8997,121.702 40.3997,120.035 38.5,117.5C 38.1667,117.833 37.8333,118.167 37.5,118.5C 38.9501,119.85 39.6168,121.516 39.5,123.5C 34.6694,123.038 30.3361,122.704 26.5,122.5C 25.8333,123.167 25.1667,123.833 24.5,124.5C 23.9186,119.276 22.9186,114.276 21.5,109.5C 21.5,108.167 21.5,106.833 21.5,105.5C 23.1644,106.949 23.9977,108.949 24,111.5C 24.3333,110.833 24.6667,110.167 25,109.5C 27.5402,110.876 29.5402,110.21 31,107.5C 31.121,105.273 31.9544,103.44 33.5,102C 32.2889,100.887 32.2889,99.7202 33.5,98.5C 33.0233,97.5224 32.3567,96.6891 31.5,96C 33.2262,94.4702 35.2262,93.4702 37.5,93C 37.3469,91.4386 37.0136,89.6052 36.5,87.5C 39.5554,84.0926 38.8888,81.5926 34.5,80C 35.9423,79.6232 36.9423,78.7899 37.5,77.5 Z"/></g>
<g><path style="opacity:1" fill="#157185" d="M 45.5,95.5 C 44.5423,96.9616 43.3756,98.2949 42,99.5C 41.5006,104.823 41.334,110.156 41.5,115.5C 40.3483,110.015 40.1816,104.349 41,98.5C 42.129,96.8588 43.629,95.8588 45.5,95.5 Z"/></g>
<g><path style="opacity:1" fill="#1b6877" d="M 176.5,95.5 C 178.017,95.5106 179.184,96.1772 180,97.5C 180.819,103.681 180.653,109.681 179.5,115.5C 179.666,109.824 179.499,104.157 179,98.5C 177.955,97.6266 177.122,96.6266 176.5,95.5 Z"/></g>
<g><path style="opacity:0.967" fill="#363736" d="M 19.5,129.5 C 17.5714,133.664 18.238,137.331 21.5,140.5C 21.0233,141.478 20.3567,142.311 19.5,143C 20.8333,144 22.1667,145 23.5,146C 21.3342,148.262 19.1676,150.428 17,152.5C 14.2122,152.713 11.0456,152.713 7.5,152.5C 3.8789,143.335 1.21223,134.002 -0.5,124.5C -0.5,116.833 -0.5,109.167 -0.5,101.5C 1.55439,102.609 3.72106,103.609 6,104.5C 8.08573,102.812 10.2524,101.645 12.5,101C 11.6872,102.314 10.6872,103.481 9.5,104.5C 10.6888,105.429 12.0222,105.762 13.5,105.5C 14.0325,100.203 14.8658,100.203 16,105.5C 16.6667,106.833 17.3333,106.833 18,105.5C 18.3333,102.5 18.6667,99.5 19,96.5C 19.4998,107.495 19.6665,118.495 19.5,129.5 Z"/></g>
<g><path style="opacity:1" fill="#22d6fc" d="M 21.5,109.5 C 22.9186,114.276 23.9186,119.276 24.5,124.5C 25.1667,123.833 25.8333,123.167 26.5,122.5C 30.3361,122.704 34.6694,123.038 39.5,123.5C 39.6168,121.516 38.9501,119.85 37.5,118.5C 37.8333,118.167 38.1667,117.833 38.5,117.5C 40.3997,120.035 42.8997,121.702 46,122.5C 46.4828,123.448 46.6495,124.448 46.5,125.5C 43.5244,129.482 40.5244,133.482 37.5,137.5C 33.5413,137.929 30.0413,136.929 27,134.5C 26.9944,132.191 26.8277,130.025 26.5,128C 25.5765,126.189 24.7431,126.355 24,128.5C 23.0853,127.672 22.4186,126.672 22,125.5C 21.5006,120.177 21.334,114.844 21.5,109.5 Z"/></g>
<g><path style="opacity:1" fill="#25c7f4" d="M 199.5,83.5 C 200.496,98.9911 200.83,114.658 200.5,130.5C 197.206,133.156 193.873,135.822 190.5,138.5C 188.076,138.808 185.743,138.474 183.5,137.5C 181.051,134.239 178.384,131.239 175.5,128.5C 174.925,126.589 173.925,124.922 172.5,123.5C 174.844,123.325 176.511,122.158 177.5,120C 179.5,119.667 181.5,119.333 183.5,119C 186.893,115.931 187.227,116.431 184.5,120.5C 185.723,121.614 187.056,121.781 188.5,121C 188.384,119.732 188.051,118.398 187.5,117C 188,116.833 188.5,116.667 189,116.5C 190.028,118.157 191.362,120.157 193,122.5C 194.072,119.782 195.238,117.115 196.5,114.5C 198.087,117.864 198.92,121.864 199,126.5C 199.5,112.504 199.667,98.504 199.5,84.5C 199.5,84.1667 199.5,83.8333 199.5,83.5 Z"/></g>
<g><path style="opacity:1" fill="#070808" d="M 50.5,124.5 C 51.6129,125.946 51.7796,127.613 51,129.5C 47.4144,132.899 44.9144,136.899 43.5,141.5C 37.8493,144.471 32.5159,143.971 27.5,140C 30.8385,140.118 34.1718,139.618 37.5,138.5C 41.8333,133.833 46.1667,129.167 50.5,124.5 Z"/></g>
<g><path style="opacity:1" fill="#26b9d5" d="M 21.5,83.5 C 21.5,90.8333 21.5,98.1667 21.5,105.5C 21.5,106.833 21.5,108.167 21.5,109.5C 21.334,114.844 21.5006,120.177 22,125.5C 22.4186,126.672 23.0853,127.672 24,128.5C 24.7431,126.355 25.5765,126.189 26.5,128C 26.8277,130.025 26.9944,132.191 27,134.5C 30.0413,136.929 33.5413,137.929 37.5,137.5C 37.5,137.833 37.5,138.167 37.5,138.5C 29.7128,139.356 24.0461,136.356 20.5,129.5C 20.1705,113.991 20.5038,98.6576 21.5,83.5 Z"/></g>
<g><path style="opacity:1" fill="#080e11" d="M 201.5,86.5 C 202.117,86.6107 202.617,86.944 203,87.5C 203.667,103.5 203.667,119.5 203,135.5C 202.626,136.416 202.126,137.25 201.5,138C 198.539,139.314 195.872,140.981 193.5,143C 190.007,144.004 186.841,143.504 184,141.5C 183.833,141.167 183.667,140.833 183.5,140.5C 185.969,139.832 188.302,139.165 190.5,138.5C 193.873,135.822 197.206,133.156 200.5,130.5C 201.496,116.01 201.829,101.343 201.5,86.5 Z"/></g>
<g><path style="opacity:0.983" fill="#292929" d="M 201.5,84.5 C 202.794,85.2899 203.961,86.2899 205,87.5C 205.401,98.9315 206.401,110.265 208,121.5C 210.065,123.874 209.899,126.04 207.5,128C 208.096,132.096 209.096,136.096 210.5,140C 209.707,141.085 209.04,142.252 208.5,143.5C 210.536,145.354 210.202,147.187 207.5,149C 208.91,150.372 210.577,151.205 212.5,151.5C 195.472,190.194 166.139,213.194 124.5,220.5C 114.833,220.5 105.167,220.5 95.5,220.5C 54.2704,213.275 24.9371,190.608 7.5,152.5C 11.0456,152.713 14.2122,152.713 17,152.5C 19.1676,150.428 21.3342,148.262 23.5,146C 22.1667,145 20.8333,144 19.5,143C 20.3567,142.311 21.0233,141.478 21.5,140.5C 18.238,137.331 17.5714,133.664 19.5,129.5C 19.8333,129.5 20.1667,129.5 20.5,129.5C 24.0461,136.356 29.7128,139.356 37.5,138.5C 34.1718,139.618 30.8385,140.118 27.5,140C 32.5159,143.971 37.8493,144.471 43.5,141.5C 44.9144,136.899 47.4144,132.899 51,129.5C 51.7796,127.613 51.6129,125.946 50.5,124.5C 51.0768,123.227 51.7435,123.227 52.5,124.5C 53.6667,127.5 54.8333,130.5 56,133.5C 56.6008,131.641 57.4341,131.308 58.5,132.5C 53.8678,138.911 48.8678,145.078 43.5,151C 39.2467,151.2 35.08,151.7 31,152.5C 30.501,156.821 30.3343,161.154 30.5,165.5C 39.5,165.5 48.5,165.5 57.5,165.5C 48.6577,166.167 39.6577,166.833 30.5,167.5C 32.1796,170.575 34.8463,172.075 38.5,172C 45.5,172.667 52.5,172.667 59.5,172C 64.1052,168.973 67.9386,165.14 71,160.5C 72.8021,157.27 74.3021,153.937 75.5,150.5C 77.5398,152.177 79.5398,153.844 81.5,155.5C 79.1919,158.815 76.8586,162.149 74.5,165.5C 76.1877,167.188 77.8543,168.854 79.5,170.5C 78.448,170.351 77.448,170.517 76.5,171C 77.3805,171.708 78.0472,172.542 78.5,173.5C 80.0138,176.692 81.6804,179.859 83.5,183C 82.8333,183.333 82.1667,183.667 81.5,184C 86.623,186.131 88.7896,189.964 88,195.5C 88.3076,194.692 88.8076,194.025 89.5,193.5C 90.0189,198.355 92.6856,201.355 97.5,202.5C 98.2978,204.078 98.7978,205.744 99,207.5C 99.3333,206.5 99.6667,205.5 100,204.5C 102.305,206.93 105.138,207.93 108.5,207.5C 108.238,208.978 108.571,210.311 109.5,211.5C 110.731,210.349 110.731,209.183 109.5,208C 110.635,207.251 111.635,207.417 112.5,208.5C 112.88,210.021 113.046,211.687 113,213.5C 116.364,212.261 119.864,211.594 123.5,211.5C 123.682,206.206 124.182,206.206 125,211.5C 125.794,208.529 126.461,205.529 127,202.5C 127.667,203.167 128.333,203.833 129,204.5C 129.895,202.196 130.729,199.862 131.5,197.5C 132.298,199.078 132.798,200.744 133,202.5C 134.247,197.906 136.747,194.073 140.5,191C 141.766,190.691 142.933,190.191 144,189.5C 144.554,184.957 146.721,181.457 150.5,179C 150.384,177.732 150.051,176.398 149.5,175C 152.741,173.527 153.074,171.693 150.5,169.5C 151.429,167.678 150.762,166.345 148.5,165.5C 147.702,165.957 147.369,166.624 147.5,167.5C 146.833,167.5 146.167,167.5 145.5,167.5C 146.412,166.262 146.579,164.928 146,163.5C 143.6,161.271 141.433,158.937 139.5,156.5C 143.122,154.213 146.455,151.547 149.5,148.5C 155.01,153.847 160.01,159.68 164.5,166C 172.493,166.5 180.493,166.666 188.5,166.5C 180.343,167.329 172.01,167.829 163.5,168C 164.328,168.915 165.328,169.581 166.5,170C 175.518,170.832 184.518,170.665 193.5,169.5C 195.176,164.237 194.676,159.237 192,154.5C 191.821,158.025 191.321,161.359 190.5,164.5C 190.666,160.486 190.499,156.486 190,152.5C 185.92,151.7 181.753,151.2 177.5,151C 172.666,144.669 167.666,138.503 162.5,132.5C 162.5,132.167 162.5,131.833 162.5,131.5C 164.314,131.228 166.314,131.061 168.5,131C 170.243,129.89 171.576,128.39 172.5,126.5C 173.518,127.193 174.518,127.859 175.5,128.5C 178.384,131.239 181.051,134.239 183.5,137.5C 185.743,138.474 188.076,138.808 190.5,138.5C 188.302,139.165 185.969,139.832 183.5,140.5C 183.667,140.833 183.833,141.167 184,141.5C 186.841,143.504 190.007,144.004 193.5,143C 195.872,140.981 198.539,139.314 201.5,138C 202.126,137.25 202.626,136.416 203,135.5C 203.667,119.5 203.667,103.5 203,87.5C 202.617,86.944 202.117,86.6107 201.5,86.5C 201.5,85.8333 201.5,85.1667 201.5,84.5 Z"/></g>
<g><path style="opacity:1" fill="#f4f4f4" d="M 162.5,132.5 C 167.666,138.503 172.666,144.669 177.5,151C 181.753,151.2 185.92,151.7 190,152.5C 190.499,156.486 190.666,160.486 190.5,164.5C 190.167,165.5 189.5,166.167 188.5,166.5C 180.493,166.666 172.493,166.5 164.5,166C 160.01,159.68 155.01,153.847 149.5,148.5C 154.561,143.771 158.894,138.438 162.5,132.5 Z"/></g>
<g><path style="opacity:1" fill="#44423b" d="M 72.5,141.5 C 70.1153,139.116 68.1153,136.45 66.5,133.5C 66.1075,131.716 65.4408,130.05 64.5,128.5C 65.397,127.402 66.2303,127.402 67,128.5C 69.0414,132.084 71.208,135.584 73.5,139C 72.7476,139.671 72.4142,140.504 72.5,141.5 Z"/></g>
<g><path style="opacity:1" fill="#f8f8f8" d="M 66.5,133.5 C 65.3398,134.265 64.3398,135.265 63.5,136.5C 66.6107,140.264 69.2774,144.264 71.5,148.5C 69.4131,149.585 68.0798,151.251 67.5,153.5C 64.7997,155.234 62.7997,157.568 61.5,160.5C 59.4131,161.585 58.0798,163.251 57.5,165.5C 48.5,165.5 39.5,165.5 30.5,165.5C 30.3343,161.154 30.501,156.821 31,152.5C 35.08,151.7 39.2467,151.2 43.5,151C 48.8678,145.078 53.8678,138.911 58.5,132.5C 59.9063,132.027 60.573,131.027 60.5,129.5C 61.2161,129.217 62.0494,128.884 63,128.5C 63,129.833 63,131.167 63,132.5C 64.1448,132.619 65.3115,132.952 66.5,133.5 Z"/></g>
<g><path style="opacity:1" fill="#111111" d="M 71.5,148.5 C 73.0618,148.733 74.3951,149.4 75.5,150.5C 74.3021,153.937 72.8021,157.27 71,160.5C 67.9386,165.14 64.1052,168.973 59.5,172C 52.5,172.667 45.5,172.667 38.5,172C 34.8463,172.075 32.1796,170.575 30.5,167.5C 39.6577,166.833 48.6577,166.167 57.5,165.5C 59.5869,164.415 60.9202,162.749 61.5,160.5C 62.7997,157.568 64.7997,155.234 67.5,153.5C 69.5869,152.415 70.9202,150.749 71.5,148.5 Z"/></g>
<g><path style="opacity:1" fill="#545454" d="M 71.5,148.5 C 70.9202,150.749 69.5869,152.415 67.5,153.5C 68.0798,151.251 69.4131,149.585 71.5,148.5 Z"/></g>
<g><path style="opacity:1" fill="#141310" d="M 118.5,56.5 C 122.89,57.1917 127.224,58.1917 131.5,59.5C 132.028,60.7206 132.695,61.8873 133.5,63C 139.911,66.5792 145.578,71.0792 150.5,76.5C 151.182,75.7573 151.849,75.0906 152.5,74.5C 153.167,75.8333 154.167,76.8333 155.5,77.5C 157.167,80.8333 158.833,84.1667 160.5,87.5C 161.11,88.391 161.443,89.391 161.5,90.5C 163.214,99.3898 163.881,108.39 163.5,117.5C 158.12,139.046 144.786,152.879 123.5,159C 115.655,159.822 107.989,159.656 100.5,158.5C 98.4855,157.076 96.1522,156.41 93.5,156.5C 85.2588,153.215 78.2588,148.215 72.5,141.5C 72.4142,140.504 72.7476,139.671 73.5,139C 71.208,135.584 69.0414,132.084 67,128.5C 66.2303,127.402 65.397,127.402 64.5,128.5C 59.2471,114.768 59.2471,101.101 64.5,87.5C 65.7206,86.9717 66.8873,86.305 68,85.5C 70.0267,80.7845 73.0267,76.7845 77,73.5C 77.4696,72.4232 77.3029,71.4232 76.5,70.5C 82.7723,63.8595 90.439,59.5262 99.5,57.5C 105.797,56.6803 112.131,56.347 118.5,56.5 Z"/></g>
<g><path style="opacity:1" fill="#eedb10" d="M 147.5,98.5 C 139.833,98.5 132.167,98.5 124.5,98.5C 122.801,98.6602 121.134,98.4935 119.5,98C 120.818,94.7312 120.818,91.5645 119.5,88.5C 118.421,86.457 116.754,85.1237 114.5,84.5C 113.551,83.8476 112.385,83.5143 111,83.5C 108.992,83.3068 107.492,83.9735 106.5,85.5C 105.167,86.1667 104.167,87.1667 103.5,88.5C 102.521,91.6248 102.187,94.9581 102.5,98.5C 99.8333,98.5 97.1667,98.5 94.5,98.5C 88.013,97.346 81.3464,97.1794 74.5,98C 73.2625,98.2321 72.2625,98.7321 71.5,99.5C 69.5956,99.7376 68.2623,100.738 67.5,102.5C 66.1574,110.443 69.4908,115.776 77.5,118.5C 77.9175,119.222 78.5842,119.722 79.5,120C 76.972,121.017 76.972,122.184 79.5,123.5C 75.6653,125.163 75.9986,125.663 80.5,125C 81.2236,123.662 81.8902,123.495 82.5,124.5C 81.5089,125.665 80.5089,126.832 79.5,128C 79.6448,128.772 79.9781,129.439 80.5,130C 81.9148,129.745 83.4148,129.245 85,128.5C 86.8895,128.785 88.2229,129.785 89,131.5C 90.6995,130.594 92.5328,130.261 94.5,130.5C 94.3505,131.552 94.5172,132.552 95,133.5C 96.2515,131.999 97.2515,130.332 98,128.5C 99.0793,131.063 99.5793,133.729 99.5,136.5C 100.791,136.737 101.791,136.404 102.5,135.5C 109.167,135.5 115.833,135.5 122.5,135.5C 127.984,136.518 133.651,137.184 139.5,137.5C 139.167,139.5 138.833,141.5 138.5,143.5C 137.178,143.67 136.011,143.337 135,142.5C 134.383,143.449 134.549,144.282 135.5,145C 133.699,145.317 133.366,145.984 134.5,147C 130.594,146.941 128.261,148.775 127.5,152.5C 125.412,153.939 123.079,154.606 120.5,154.5C 113.151,154.451 105.817,154.118 98.5,153.5C 76.9879,145.85 65.6546,130.516 64.5,107.5C 64.4866,96.867 67.82,87.5336 74.5,79.5C 77.886,81.3205 80.5527,80.6539 82.5,77.5C 86.4158,75.5865 89.7492,72.9199 92.5,69.5C 93.1667,68.8333 93.8333,68.1667 94.5,67.5C 95.4734,67.0133 96.4734,66.5133 97.5,66C 104.833,65.3333 112.167,65.3333 119.5,66C 124.804,69.1501 130.471,71.4834 136.5,73C 139.434,75.4607 142.434,77.6274 145.5,79.5C 145.523,81.9267 146.023,84.26 147,86.5C 149.789,89.8626 151.622,93.6959 152.5,98C 150.866,98.4935 149.199,98.6602 147.5,98.5 Z"/></g>
<g><path style="opacity:1" fill="#e4e1ab" d="M 151.5,129.5 C 152.167,129.5 152.833,129.5 153.5,129.5C 149.986,138.198 143.986,144.531 135.5,148.5C 139.387,144.109 143.553,139.776 148,135.5C 149.394,133.612 150.56,131.612 151.5,129.5 Z"/></g>
<g><path style="opacity:1" fill="#efe133" d="M 94.5,111.5 C 89.4359,114.23 85.7692,118.23 83.5,123.5C 84.1282,126.784 86.1282,128.117 89.5,127.5C 90.8333,127.333 92.1667,127.167 93.5,127C 94.3734,125.955 95.3734,125.122 96.5,124.5C 106.167,123.833 115.833,123.167 125.5,122.5C 126.833,124.5 128.5,126.167 130.5,127.5C 133.355,128.803 136.355,128.803 139.5,127.5C 140.041,125.465 140.708,123.465 141.5,121.5C 145.276,125.953 148.609,125.953 151.5,121.5C 152.729,124.199 152.729,126.865 151.5,129.5C 150.56,131.612 149.394,133.612 148,135.5C 143.553,139.776 139.387,144.109 135.5,148.5C 132.926,150.024 130.259,151.358 127.5,152.5C 128.261,148.775 130.594,146.941 134.5,147C 133.366,145.984 133.699,145.317 135.5,145C 134.549,144.282 134.383,143.449 135,142.5C 136.011,143.337 137.178,143.67 138.5,143.5C 138.833,141.5 139.167,139.5 139.5,137.5C 133.651,137.184 127.984,136.518 122.5,135.5C 122.5,134.833 122.5,134.167 122.5,133.5C 122.5,133.167 122.5,132.833 122.5,132.5C 123.461,130.735 123.795,128.735 123.5,126.5C 115.648,126.175 107.982,126.508 100.5,127.5C 101.219,129.764 101.552,132.097 101.5,134.5C 101.5,135.167 101.833,135.5 102.5,135.5C 101.791,136.404 100.791,136.737 99.5,136.5C 99.5793,133.729 99.0793,131.063 98,128.5C 97.2515,130.332 96.2515,131.999 95,133.5C 94.5172,132.552 94.3505,131.552 94.5,130.5C 92.5328,130.261 90.6995,130.594 89,131.5C 88.2229,129.785 86.8895,128.785 85,128.5C 83.4148,129.245 81.9148,129.745 80.5,130C 79.9781,129.439 79.6448,128.772 79.5,128C 80.5089,126.832 81.5089,125.665 82.5,124.5C 81.8902,123.495 81.2236,123.662 80.5,125C 75.9986,125.663 75.6653,125.163 79.5,123.5C 76.972,122.184 76.972,121.017 79.5,120C 78.5842,119.722 77.9175,119.222 77.5,118.5C 80.787,117.736 83.4537,115.903 85.5,113C 86.745,112.209 88.0783,111.709 89.5,111.5C 91.3344,110.506 93.0011,110.506 94.5,111.5 Z"/></g>
<g><path style="opacity:1" fill="#33332e" d="M 100.5,127.5 C 107.833,127.5 115.167,127.5 122.5,127.5C 122.5,129.167 122.5,130.833 122.5,132.5C 122.5,132.833 122.5,133.167 122.5,133.5C 115.588,134.462 108.588,134.795 101.5,134.5C 101.552,132.097 101.219,129.764 100.5,127.5 Z"/></g>
<g><path style="opacity:1" fill="#948d37" d="M 100.5,127.5 C 107.982,126.508 115.648,126.175 123.5,126.5C 123.795,128.735 123.461,130.735 122.5,132.5C 122.5,130.833 122.5,129.167 122.5,127.5C 115.167,127.5 107.833,127.5 100.5,127.5 Z"/></g>
<g><path style="opacity:1" fill="#e8dc4a" d="M 131.5,110.5 C 136.212,112.275 140.378,114.942 144,118.5C 146.677,117.778 149.177,116.778 151.5,115.5C 153.716,114.797 155.549,113.464 157,111.5C 157.477,116.262 156.977,120.929 155.5,125.5C 155.34,127.153 154.674,128.486 153.5,129.5C 152.833,129.5 152.167,129.5 151.5,129.5C 152.729,126.865 152.729,124.199 151.5,121.5C 148.609,125.953 145.276,125.953 141.5,121.5C 140.708,123.465 140.041,125.465 139.5,127.5C 136.355,128.803 133.355,128.803 130.5,127.5C 136.986,129.165 139.819,126.832 139,120.5C 135.938,117.268 132.771,114.268 129.5,111.5C 129.842,110.662 130.508,110.328 131.5,110.5 Z"/></g>
<g><path style="opacity:1" fill="#464441" d="M 151.5,99.5 C 154.845,100.348 156.512,102.515 156.5,106C 156.274,109.954 154.607,113.121 151.5,115.5C 149.177,116.778 146.677,117.778 144,118.5C 140.378,114.942 136.212,112.275 131.5,110.5C 130.292,109.218 128.958,109.218 127.5,110.5C 127.957,111.298 128.624,111.631 129.5,111.5C 132.771,114.268 135.938,117.268 139,120.5C 139.819,126.832 136.986,129.165 130.5,127.5C 128.5,126.167 126.833,124.5 125.5,122.5C 117.003,122.749 108.336,122.416 99.5,121.5C 98.1451,122.188 97.1451,123.188 96.5,124.5C 95.3734,125.122 94.3734,125.955 93.5,127C 92.1667,127.167 90.8333,127.333 89.5,127.5C 86.1282,128.117 84.1282,126.784 83.5,123.5C 85.7692,118.23 89.4359,114.23 94.5,111.5C 95.0431,111.44 95.3764,111.107 95.5,110.5C 93.0881,109.051 91.0881,109.384 89.5,111.5C 88.0783,111.709 86.745,112.209 85.5,113C 83.4537,115.903 80.787,117.736 77.5,118.5C 69.4908,115.776 66.1574,110.443 67.5,102.5C 67.4924,108.208 67.9924,108.541 69,103.5C 69.7504,102.874 70.5838,102.374 71.5,102C 98.5788,101.206 125.579,100.873 152.5,101C 151.944,100.617 151.611,100.117 151.5,99.5 Z"/></g>
<g><path style="opacity:1" fill="#c9c244" d="M 125.5,122.5 C 115.833,123.167 106.167,123.833 96.5,124.5C 97.1451,123.188 98.1451,122.188 99.5,121.5C 108.336,122.416 117.003,122.749 125.5,122.5 Z"/></g>
<g><path style="opacity:1" fill="#736c41" d="M 105.5,109.5 C 105.5,110.833 105.5,112.167 105.5,113.5C 109.833,113.5 114.167,113.5 118.5,113.5C 114.03,114.486 109.363,114.819 104.5,114.5C 104.216,112.585 104.549,110.919 105.5,109.5 Z"/></g>
<g><path style="opacity:1" fill="#cec14a" d="M 105.5,109.5 C 109.514,109.334 113.514,109.501 117.5,110C 118.337,111.011 118.67,112.178 118.5,113.5C 114.167,113.5 109.833,113.5 105.5,113.5C 105.5,112.167 105.5,110.833 105.5,109.5 Z"/></g>
<g><path style="opacity:1" fill="#a2a34d" d="M 131.5,110.5 C 130.508,110.328 129.842,110.662 129.5,111.5C 128.624,111.631 127.957,111.298 127.5,110.5C 128.958,109.218 130.292,109.218 131.5,110.5 Z"/></g>
<g><path style="opacity:1" fill="#999347" d="M 94.5,111.5 C 93.0011,110.506 91.3344,110.506 89.5,111.5C 91.0881,109.384 93.0881,109.051 95.5,110.5C 95.3764,111.107 95.0431,111.44 94.5,111.5 Z"/></g>
<g><path style="opacity:1" fill="#1f1e1e" d="M 103.5,97.5 C 104.404,98.209 104.737,99.209 104.5,100.5C 109.363,100.819 114.03,100.486 118.5,99.5C 120.735,99.7947 122.735,99.4614 124.5,98.5C 132.167,98.5 139.833,98.5 147.5,98.5C 148.568,99.4345 149.901,99.7678 151.5,99.5C 151.611,100.117 151.944,100.617 152.5,101C 125.579,100.873 98.5788,101.206 71.5,102C 70.5838,102.374 69.7504,102.874 69,103.5C 67.9924,108.541 67.4924,108.208 67.5,102.5C 68.2623,100.738 69.5956,99.7376 71.5,99.5C 79.1322,98.6423 86.7989,98.3089 94.5,98.5C 95.7933,99.1582 97.2933,99.4915 99,99.5C 100.986,99.4313 102.486,98.7647 103.5,97.5 Z"/></g>
<g><path style="opacity:1" fill="#433e14" d="M 103.5,88.5 C 103.5,91.5 103.5,94.5 103.5,97.5C 102.486,98.7647 100.986,99.4313 99,99.5C 97.2933,99.4915 95.7933,99.1582 94.5,98.5C 97.1667,98.5 99.8333,98.5 102.5,98.5C 102.187,94.9581 102.521,91.6248 103.5,88.5 Z"/></g>
<g><path style="opacity:1" fill="#8e8010" d="M 94.5,98.5 C 86.7989,98.3089 79.1322,98.6423 71.5,99.5C 72.2625,98.7321 73.2625,98.2321 74.5,98C 81.3464,97.1794 88.013,97.346 94.5,98.5 Z"/></g>
<g><path style="opacity:1" fill="#8d8316" d="M 119.5,88.5 C 120.818,91.5645 120.818,94.7312 119.5,98C 121.134,98.4935 122.801,98.6602 124.5,98.5C 122.735,99.4614 120.735,99.7947 118.5,99.5C 119.244,95.8815 119.577,92.2148 119.5,88.5 Z"/></g>
<g><path style="opacity:1" fill="#060403" d="M 114.5,84.5 C 116.754,85.1237 118.421,86.457 119.5,88.5C 119.577,92.2148 119.244,95.8815 118.5,99.5C 114.03,100.486 109.363,100.819 104.5,100.5C 104.737,99.209 104.404,98.209 103.5,97.5C 103.5,94.5 103.5,91.5 103.5,88.5C 104.167,87.1667 105.167,86.1667 106.5,85.5C 109.096,84.7347 111.763,84.4013 114.5,84.5 Z"/></g>
<g><path style="opacity:1" fill="#534b11" d="M 114.5,84.5 C 111.763,84.4013 109.096,84.7347 106.5,85.5C 107.492,83.9735 108.992,83.3068 111,83.5C 112.385,83.5143 113.551,83.8476 114.5,84.5 Z"/></g>
<g><path style="opacity:1" fill="#baa415" d="M 120.5,61.5 C 122.214,62.7384 124.214,63.405 126.5,63.5C 147.328,70.9691 158.328,85.8024 159.5,108C 160.208,114.422 158.874,120.256 155.5,125.5C 156.977,120.929 157.477,116.262 157,111.5C 155.549,113.464 153.716,114.797 151.5,115.5C 154.607,113.121 156.274,109.954 156.5,106C 156.512,102.515 154.845,100.348 151.5,99.5C 149.901,99.7678 148.568,99.4345 147.5,98.5C 149.199,98.6602 150.866,98.4935 152.5,98C 151.622,93.6959 149.789,89.8626 147,86.5C 146.023,84.26 145.523,81.9267 145.5,79.5C 142.434,77.6274 139.434,75.4607 136.5,73C 130.471,71.4834 124.804,69.1501 119.5,66C 112.167,65.3333 104.833,65.3333 97.5,66C 96.4734,66.5133 95.4734,67.0133 94.5,67.5C 94.7329,65.9382 95.3995,64.6049 96.5,63.5C 99.1522,63.5905 101.485,62.9238 103.5,61.5C 109.067,60.196 114.734,60.196 120.5,61.5 Z"/></g>
<g><path style="opacity:1" fill="#e5dc55" d="M 78.5,75.5 C 78.5,75.8333 78.5,76.1667 78.5,76.5C 78.3691,77.3764 78.7025,78.0431 79.5,78.5C 80.4168,77.8728 81.4168,77.5394 82.5,77.5C 80.5527,80.6539 77.886,81.3205 74.5,79.5C 75.5,77.8333 76.8333,76.5 78.5,75.5 Z"/></g>
<g><path style="opacity:1" fill="#bebe70" d="M 88.5,67.5 C 85.1924,70.4715 81.859,73.4715 78.5,76.5C 78.5,76.1667 78.5,75.8333 78.5,75.5C 80.9626,71.6998 84.296,69.0332 88.5,67.5 Z"/></g>
<g><path style="opacity:1" fill="#f4f2e6" d="M 92.5,69.5 C 89.7492,72.9199 86.4158,75.5865 82.5,77.5C 81.4168,77.5394 80.4168,77.8728 79.5,78.5C 78.7025,78.0431 78.3691,77.3764 78.5,76.5C 81.859,73.4715 85.1924,70.4715 88.5,67.5C 89.5832,67.4606 90.5832,67.1272 91.5,66.5C 92.3857,67.325 92.719,68.325 92.5,69.5 Z"/></g>
<g><path style="opacity:1" fill="#c2b77e" d="M 96.5,63.5 C 95.3995,64.6049 94.7329,65.9382 94.5,67.5C 93.8333,68.1667 93.1667,68.8333 92.5,69.5C 92.719,68.325 92.3857,67.325 91.5,66.5C 90.5832,67.1272 89.5832,67.4606 88.5,67.5C 90.6123,65.2295 93.279,63.8961 96.5,63.5 Z"/></g>
<g><path style="opacity:1" fill="#786d0f" d="M 103.5,61.5 C 101.485,62.9238 99.1522,63.5905 96.5,63.5C 98.5145,62.0762 100.848,61.4095 103.5,61.5 Z"/></g>
<g><path style="opacity:1" fill="#605911" d="M 120.5,61.5 C 122.898,61.2594 124.898,61.9261 126.5,63.5C 124.214,63.405 122.214,62.7384 120.5,61.5 Z"/></g>
<g><path style="opacity:1" fill="#070707" d="M 188.5,166.5 C 189.5,166.167 190.167,165.5 190.5,164.5C 191.321,161.359 191.821,158.025 192,154.5C 194.676,159.237 195.176,164.237 193.5,169.5C 184.518,170.665 175.518,170.832 166.5,170C 165.328,169.581 164.328,168.915 163.5,168C 172.01,167.829 180.343,167.329 188.5,166.5 Z"/></g>
<g><path style="opacity:1" fill="#e8eadf" d="M 165.5,92.5 C 168.623,105.777 167.623,118.777 162.5,131.5C 162.5,131.833 162.5,132.167 162.5,132.5C 158.894,138.438 154.561,143.771 149.5,148.5C 146.455,151.547 143.122,154.213 139.5,156.5C 128.446,161.732 116.779,164.066 104.5,163.5C 96.4327,162.033 88.7661,159.366 81.5,155.5C 79.5398,153.844 77.5398,152.177 75.5,150.5C 74.3951,149.4 73.0618,148.733 71.5,148.5C 69.2774,144.264 66.6107,140.264 63.5,136.5C 64.3398,135.265 65.3398,134.265 66.5,133.5C 68.1153,136.45 70.1153,139.116 72.5,141.5C 78.2588,148.215 85.2588,153.215 93.5,156.5C 95.5145,157.924 97.8478,158.59 100.5,158.5C 107.989,159.656 115.655,159.822 123.5,159C 144.786,152.879 158.12,139.046 163.5,117.5C 164.782,109.962 164.782,102.295 163.5,94.5C 163.5,93.1667 164.167,92.5 165.5,92.5 Z"/></g>
<g><path style="opacity:1" fill="#5b5b57" d="M 93.5,156.5 C 96.1522,156.41 98.4855,157.076 100.5,158.5C 97.8478,158.59 95.5145,157.924 93.5,156.5 Z"/></g>
<g><path style="opacity:1" fill="#8f8510" d="M 98.5,153.5 C 105.817,154.118 113.151,154.451 120.5,154.5C 117.686,155.165 114.686,155.498 111.5,155.5C 106.893,155.684 102.56,155.017 98.5,153.5 Z"/></g>
<g><path style="opacity:1" fill="#1b1817" d="M 118.5,140.5 C 116.438,142.564 114.105,144.231 111.5,145.5C 109.235,144.568 107.235,143.235 105.5,141.5C 107.223,140.2 109.39,139.533 112,139.5C 114.361,139.504 116.527,139.837 118.5,140.5 Z"/></g>
<g><path style="opacity:1" fill="#978b21" d="M 118.5,140.5 C 116.527,139.837 114.361,139.504 112,139.5C 109.39,139.533 107.223,140.2 105.5,141.5C 104.596,140.791 104.263,139.791 104.5,138.5C 109.544,138.173 114.544,138.506 119.5,139.5C 119.376,140.107 119.043,140.44 118.5,140.5 Z"/></g>
<g><path style="opacity:1" fill="#b4ac2c" d="M 122.5,133.5 C 122.5,134.167 122.5,134.833 122.5,135.5C 115.833,135.5 109.167,135.5 102.5,135.5C 101.833,135.5 101.5,135.167 101.5,134.5C 108.588,134.795 115.588,134.462 122.5,133.5 Z"/></g>
<g><path style="opacity:1" fill="#545454" d="M 61.5,160.5 C 60.9202,162.749 59.5869,164.415 57.5,165.5C 58.0798,163.251 59.4131,161.585 61.5,160.5 Z"/></g>
<g><path style="opacity:1" fill="#25c7fa" d="M 139.5,156.5 C 141.433,158.937 143.6,161.271 146,163.5C 146.579,164.928 146.412,166.262 145.5,167.5C 136.586,172.41 127.92,177.743 119.5,183.5C 117.902,177.642 114.402,173.309 109,170.5C 107.887,169.24 107.72,168.073 108.5,167C 107.269,165.595 105.936,164.429 104.5,163.5C 116.779,164.066 128.446,161.732 139.5,156.5 Z"/></g>
<g><path style="opacity:1" fill="#22bff7" d="M 81.5,155.5 C 88.7661,159.366 96.4327,162.033 104.5,163.5C 105.936,164.429 107.269,165.595 108.5,167C 107.72,168.073 107.887,169.24 109,170.5C 114.402,173.309 117.902,177.642 119.5,183.5C 119.5,183.833 119.5,184.167 119.5,184.5C 113.077,185.906 106.744,185.572 100.5,183.5C 93.3324,179.417 86.3324,175.084 79.5,170.5C 77.8543,168.854 76.1877,167.188 74.5,165.5C 76.8586,162.149 79.1919,158.815 81.5,155.5 Z"/></g>
<g><path style="opacity:1" fill="#212121" d="M 78.5,173.5 C 84.9455,177.112 90.9455,181.445 96.5,186.5C 97.1667,186.167 97.8333,185.833 98.5,185.5C 100.577,186.988 101.577,188.988 101.5,191.5C 105.374,191.422 109.04,192.089 112.5,193.5C 114.529,193.33 116.529,192.996 118.5,192.5C 123.94,190.614 128.94,187.947 133.5,184.5C 134.386,183.675 134.719,182.675 134.5,181.5C 136.308,181.509 137.975,181.009 139.5,180C 141.087,176.744 143.587,174.577 147,173.5C 148.031,172.3 148.865,170.966 149.5,169.5C 149.253,168.287 148.586,167.62 147.5,167.5C 147.369,166.624 147.702,165.957 148.5,165.5C 150.762,166.345 151.429,167.678 150.5,169.5C 153.074,171.693 152.741,173.527 149.5,175C 150.051,176.398 150.384,177.732 150.5,179C 146.721,181.457 144.554,184.957 144,189.5C 142.933,190.191 141.766,190.691 140.5,191C 136.747,194.073 134.247,197.906 133,202.5C 132.798,200.744 132.298,199.078 131.5,197.5C 130.729,199.862 129.895,202.196 129,204.5C 128.333,203.833 127.667,203.167 127,202.5C 126.461,205.529 125.794,208.529 125,211.5C 124.182,206.206 123.682,206.206 123.5,211.5C 119.864,211.594 116.364,212.261 113,213.5C 113.046,211.687 112.88,210.021 112.5,208.5C 111.635,207.417 110.635,207.251 109.5,208C 110.731,209.183 110.731,210.349 109.5,211.5C 108.571,210.311 108.238,208.978 108.5,207.5C 105.138,207.93 102.305,206.93 100,204.5C 99.6667,205.5 99.3333,206.5 99,207.5C 98.7978,205.744 98.2978,204.078 97.5,202.5C 92.6856,201.355 90.0189,198.355 89.5,193.5C 88.8076,194.025 88.3076,194.692 88,195.5C 88.7896,189.964 86.623,186.131 81.5,184C 82.1667,183.667 82.8333,183.333 83.5,183C 81.6804,179.859 80.0138,176.692 78.5,173.5 Z"/></g>
<g><path style="opacity:1" fill="#0c1014" d="M 145.5,167.5 C 146.167,167.5 146.833,167.5 147.5,167.5C 148.586,167.62 149.253,168.287 149.5,169.5C 148.865,170.966 148.031,172.3 147,173.5C 143.587,174.577 141.087,176.744 139.5,180C 137.975,181.009 136.308,181.509 134.5,181.5C 134.719,182.675 134.386,183.675 133.5,184.5C 128.94,187.947 123.94,190.614 118.5,192.5C 116.529,192.996 114.529,193.33 112.5,193.5C 109.04,192.089 105.374,191.422 101.5,191.5C 101.577,188.988 100.577,186.988 98.5,185.5C 97.8333,185.833 97.1667,186.167 96.5,186.5C 90.9455,181.445 84.9455,177.112 78.5,173.5C 78.0472,172.542 77.3805,171.708 76.5,171C 77.448,170.517 78.448,170.351 79.5,170.5C 86.3324,175.084 93.3324,179.417 100.5,183.5C 101.058,184.79 102.058,185.623 103.5,186C 105.667,186.167 107.833,186.333 110,186.5C 113.477,186.672 116.644,186.006 119.5,184.5C 119.5,184.167 119.5,183.833 119.5,183.5C 127.92,177.743 136.586,172.41 145.5,167.5 Z"/></g>
<g><path style="opacity:1" fill="#1a7ba5" d="M 100.5,183.5 C 106.744,185.572 113.077,185.906 119.5,184.5C 116.644,186.006 113.477,186.672 110,186.5C 107.833,186.333 105.667,186.167 103.5,186C 102.058,185.623 101.058,184.79 100.5,183.5 Z"/></g>
</svg>
