<?xml version="1.0" encoding="UTF-8"?>
<!DOCTYPE svg PUBLIC "-//W3C//DTD SVG 1.1//EN" "http://www.w3.org/Graphics/SVG/1.1/DTD/svg11.dtd">
<svg xmlns="http://www.w3.org/2000/svg" version="1.1" width="500px" height="500px" style="shape-rendering:geometricPrecision; text-rendering:geometricPrecision; image-rendering:optimizeQuality; fill-rule:evenodd; clip-rule:evenodd" xmlns:xlink="http://www.w3.org/1999/xlink">
<g><path style="opacity:0.998" fill="#010101" d="M 328.5,456.5 C 326.447,456.402 324.78,457.069 323.5,458.5C 243.687,484.457 171.02,471.29 105.5,419C 47.598,366.326 22.098,300.826 29,222.5C 30.1091,211.813 32.2757,201.48 35.5,191.5C 37.2766,188.495 38.2766,185.162 38.5,181.5C 53.5309,134.481 81.1975,96.8141 121.5,68.5C 123.027,68.573 124.027,67.9063 124.5,66.5C 141.687,53.7407 160.687,44.4073 181.5,38.5C 184.152,38.5905 186.485,37.9238 188.5,36.5C 266.489,15.9146 336.155,31.748 397.5,84C 461.412,145.423 483.578,219.59 464,306.5C 446.846,366.641 411.346,412.475 357.5,444C 348.085,448.857 338.418,453.023 328.5,456.5 Z"/></g>
<g><path style="opacity:0.506" fill="#4a4a4a" d="M 188.5,36.5 C 186.485,37.9238 184.152,38.5905 181.5,38.5C 183.515,37.0762 185.848,36.4095 188.5,36.5 Z"/></g>
<g><path style="opacity:0.404" fill="#686868" d="M 124.5,66.5 C 124.027,67.9063 123.027,68.573 121.5,68.5C 121.973,67.0937 122.973,66.427 124.5,66.5 Z"/></g>
<g><path style="opacity:0.557" fill="#515151" d="M 38.5,181.5 C 38.2766,185.162 37.2766,188.495 35.5,191.5C 35.7234,187.838 36.7234,184.505 38.5,181.5 Z"/></g>
<g><path style="opacity:1" fill="#541319" d="M 199.5,210.5 C 204.65,209.349 209.984,209.183 215.5,210C 216.416,210.278 217.082,210.778 217.5,211.5C 211.536,210.693 205.536,210.36 199.5,210.5 Z"/></g>
<g><path style="opacity:1" fill="#9d242f" d="M 199.5,210.5 C 205.536,210.36 211.536,210.693 217.5,211.5C 219.811,213.068 222.478,213.902 225.5,214C 226.085,215.302 226.751,216.469 227.5,217.5C 228.299,220.43 228.632,223.43 228.5,226.5C 227.229,228.109 226.229,229.942 225.5,232C 221.654,232.013 218.321,233.18 215.5,235.5C 214.833,235.5 214.167,235.5 213.5,235.5C 209.298,235.817 205.298,235.483 201.5,234.5C 205.846,234.666 210.179,234.499 214.5,234C 215.056,233.617 215.389,233.117 215.5,232.5C 218.451,231.178 221.451,229.845 224.5,228.5C 227.19,224.309 226.856,220.309 223.5,216.5C 220.592,215.811 217.925,214.645 215.5,213C 209.5,212.333 203.5,212.333 197.5,213C 196.485,216.862 194.818,220.362 192.5,223.5C 192.167,223.5 191.833,223.5 191.5,223.5C 192.028,219.788 192.862,216.121 194,212.5C 195.444,210.845 197.278,210.178 199.5,210.5 Z"/></g>
<g><path style="opacity:1" fill="#4c0d14" d="M 217.5,211.5 C 220.522,211.804 223.522,212.304 226.5,213C 227.38,214.356 227.714,215.856 227.5,217.5C 226.751,216.469 226.085,215.302 225.5,214C 222.478,213.902 219.811,213.068 217.5,211.5 Z"/></g>
<g><path style="opacity:1" fill="#cb1c28" d="M 215.5,232.5 C 210.615,232.752 205.781,232.419 201,231.5C 198.94,228.621 196.773,225.954 194.5,223.5C 193.833,223.5 193.167,223.5 192.5,223.5C 194.818,220.362 196.485,216.862 197.5,213C 203.5,212.333 209.5,212.333 215.5,213C 217.925,214.645 220.592,215.811 223.5,216.5C 226.856,220.309 227.19,224.309 224.5,228.5C 221.451,229.845 218.451,231.178 215.5,232.5 Z"/></g>
<g><path style="opacity:1" fill="#2c5f8d" d="M 295.5,218.5 C 296.5,218.5 297.5,218.5 298.5,218.5C 298.5,218.833 298.5,219.167 298.5,219.5C 292.158,219.334 285.825,219.5 279.5,220C 286.378,220.746 293.045,221.912 299.5,223.5C 290.183,222.613 280.85,221.946 271.5,221.5C 263.677,220.671 255.677,220.171 247.5,220C 263.464,218.634 279.464,218.134 295.5,218.5 Z"/></g>
<g><path style="opacity:1" fill="#123354" d="M 298.5,219.5 C 298.5,219.167 298.5,218.833 298.5,218.5C 303.844,218.334 309.177,218.501 314.5,219C 315.416,219.278 316.082,219.778 316.5,220.5C 310.529,219.759 304.529,219.425 298.5,219.5 Z"/></g>
<g><path style="opacity:1" fill="#0f2238" d="M 295.5,218.5 C 279.464,218.134 263.464,218.634 247.5,220C 255.677,220.171 263.677,220.671 271.5,221.5C 260.828,221.667 250.161,221.5 239.5,221C 242.56,220.152 245.56,219.152 248.5,218C 264.339,217.172 280.005,217.339 295.5,218.5 Z"/></g>
<g><path style="opacity:1" fill="#db1a26" d="M 194.5,223.5 C 195.791,221.381 197.625,219.715 200,218.5C 203.817,218.969 207.984,219.136 212.5,219C 214.044,219.29 215.377,219.956 216.5,221C 215.565,223.381 215.232,225.881 215.5,228.5C 210.159,228.879 205.159,227.879 200.5,225.5C 199.914,225.709 199.414,226.043 199,226.5C 197.6,225.252 196.1,224.252 194.5,223.5 Z"/></g>
<g><path style="opacity:1" fill="#266ea9" d="M 298.5,219.5 C 304.529,219.425 310.529,219.759 316.5,220.5C 323.526,221.42 330.526,222.42 337.5,223.5C 340.087,224.749 342.754,225.749 345.5,226.5C 341.293,226.663 337.126,226.329 333,225.5C 332.167,225.667 331.333,225.833 330.5,226C 332.025,227.009 333.692,227.509 335.5,227.5C 335.5,228.5 335.5,229.5 335.5,230.5C 338.631,229.908 340.964,230.908 342.5,233.5C 333.447,230.08 324.113,227.746 314.5,226.5C 309.819,224.12 304.819,223.12 299.5,223.5C 293.045,221.912 286.378,220.746 279.5,220C 285.825,219.5 292.158,219.334 298.5,219.5 Z"/></g>
<g><path style="opacity:1" fill="#5d1218" d="M 191.5,223.5 C 191.833,223.5 192.167,223.5 192.5,223.5C 194.715,226.005 195.881,229.005 196,232.5C 197.725,233.464 199.559,234.131 201.5,234.5C 205.298,235.483 209.298,235.817 213.5,235.5C 206.841,236.975 200.174,236.475 193.5,234C 191.244,232.501 191.244,230.834 193.5,229C 192.144,227.433 191.477,225.6 191.5,223.5 Z"/></g>
<g><path style="opacity:1" fill="#091828" d="M 337.5,223.5 C 342.215,223.506 346.882,224.006 351.5,225C 356.792,228.045 362.126,230.545 367.5,232.5C 364.779,232.037 362.112,231.371 359.5,230.5C 354.903,228.968 350.237,227.635 345.5,226.5C 342.754,225.749 340.087,224.749 337.5,223.5 Z"/></g>
<g><path style="opacity:1" fill="#2070b3" d="M 345.5,226.5 C 350.237,227.635 354.903,228.968 359.5,230.5C 359.937,232.074 360.937,233.241 362.5,234C 365.461,235.265 368.461,236.431 371.5,237.5C 372.298,237.957 372.631,238.624 372.5,239.5C 371.193,240.153 369.86,240.82 368.5,241.5C 365.615,240.244 363.781,238.577 363,236.5C 361.698,237.085 360.531,237.751 359.5,238.5C 356.946,237.612 354.279,237.279 351.5,237.5C 348.572,236.183 345.572,234.85 342.5,233.5C 340.964,230.908 338.631,229.908 335.5,230.5C 335.5,229.5 335.5,228.5 335.5,227.5C 333.692,227.509 332.025,227.009 330.5,226C 331.333,225.833 332.167,225.667 333,225.5C 337.126,226.329 341.293,226.663 345.5,226.5 Z"/></g>
<g><path style="opacity:1" fill="#43080e" d="M 228.5,226.5 C 228.683,228.936 228.016,231.103 226.5,233C 222.793,233.737 219.127,234.571 215.5,235.5C 218.321,233.18 221.654,232.013 225.5,232C 226.229,229.942 227.229,228.109 228.5,226.5 Z"/></g>
<g><path style="opacity:1" fill="#bb2131" d="M 192.5,223.5 C 193.167,223.5 193.833,223.5 194.5,223.5C 196.773,225.954 198.94,228.621 201,231.5C 205.781,232.419 210.615,232.752 215.5,232.5C 215.389,233.117 215.056,233.617 214.5,234C 210.179,234.499 205.846,234.666 201.5,234.5C 199.559,234.131 197.725,233.464 196,232.5C 195.881,229.005 194.715,226.005 192.5,223.5 Z"/></g>
<g><path style="opacity:1" fill="#52191d" d="M 331.5,235.5 C 333.292,236.309 335.292,236.809 337.5,237C 338.756,237.417 339.423,238.25 339.5,239.5C 336.693,238.343 334.026,238.343 331.5,239.5C 325.368,237.29 319.368,234.79 313.5,232C 319.651,232.203 325.651,233.369 331.5,235.5 Z"/></g>
<g><path style="opacity:1" fill="#285a8f" d="M 359.5,230.5 C 362.112,231.371 364.779,232.037 367.5,232.5C 371.87,233.352 375.203,235.685 377.5,239.5C 375.833,239.5 374.167,239.5 372.5,239.5C 372.631,238.624 372.298,237.957 371.5,237.5C 368.461,236.431 365.461,235.265 362.5,234C 360.937,233.241 359.937,232.074 359.5,230.5 Z"/></g>
<g><path style="opacity:1" fill="#294f80" d="M 351.5,237.5 C 354.279,237.279 356.946,237.612 359.5,238.5C 361.863,240.501 364.196,242.501 366.5,244.5C 363.401,244.908 361.067,243.741 359.5,241C 356.691,239.907 354.024,238.74 351.5,237.5 Z"/></g>
<g><path style="opacity:1" fill="#205fab" d="M 372.5,239.5 C 374.167,239.5 375.833,239.5 377.5,239.5C 378.167,239.5 378.833,239.5 379.5,239.5C 380.442,242.42 381.776,245.086 383.5,247.5C 381.723,247.786 380.056,248.453 378.5,249.5C 374.671,247.34 370.671,245.674 366.5,244.5C 364.196,242.501 361.863,240.501 359.5,238.5C 360.531,237.751 361.698,237.085 363,236.5C 363.781,238.577 365.615,240.244 368.5,241.5C 369.86,240.82 371.193,240.153 372.5,239.5 Z"/></g>
<g><path style="opacity:1" fill="#941e28" d="M 331.5,239.5 C 334.026,238.343 336.693,238.343 339.5,239.5C 345.081,241.291 350.415,243.625 355.5,246.5C 356.193,247.518 356.859,248.518 357.5,249.5C 355.565,248.85 353.565,248.517 351.5,248.5C 351.5,249.5 351.5,250.5 351.5,251.5C 345.074,246.96 338.407,242.96 331.5,239.5 Z"/></g>
<g><path style="opacity:1" fill="#265193" d="M 379.5,239.5 C 384.789,242.465 389.456,246.132 393.5,250.5C 391.545,249.677 389.545,249.51 387.5,250C 384.537,251.628 381.87,253.462 379.5,255.5C 374.836,252.165 370.503,248.498 366.5,244.5C 370.671,245.674 374.671,247.34 378.5,249.5C 380.056,248.453 381.723,247.786 383.5,247.5C 381.776,245.086 380.442,242.42 379.5,239.5 Z"/></g>
<g><path style="opacity:1" fill="#9a1d27" d="M 351.5,251.5 C 353.722,251.178 355.556,251.845 357,253.5C 358.323,256.965 359.823,260.299 361.5,263.5C 358.341,259.383 355.008,255.383 351.5,251.5 Z"/></g>
<g><path style="opacity:1" fill="#09030a" d="M 314.5,226.5 C 324.113,227.746 333.447,230.08 342.5,233.5C 345.572,234.85 348.572,236.183 351.5,237.5C 354.024,238.74 356.691,239.907 359.5,241C 361.067,243.741 363.401,244.908 366.5,244.5C 370.503,248.498 374.836,252.165 379.5,255.5C 379.675,257.844 380.842,259.511 383,260.5C 383.494,262.134 383.66,263.801 383.5,265.5C 384.989,268.232 385.655,271.232 385.5,274.5C 385.126,278.9 384.459,283.233 383.5,287.5C 379.153,292.451 374.153,296.785 368.5,300.5C 367.614,301.325 367.281,302.325 367.5,303.5C 364.246,303.794 361.579,305.127 359.5,307.5C 346.358,313.212 333.024,317.878 319.5,321.5C 311.425,322.675 303.425,324.175 295.5,326C 305.085,326.56 314.418,325.726 323.5,323.5C 330.392,323.141 337.059,321.807 343.5,319.5C 342.251,321.136 340.584,322.303 338.5,323C 323.707,326.676 308.707,328.01 293.5,327C 293.167,326.667 292.833,326.333 292.5,326C 293.591,324.45 294.924,323.283 296.5,322.5C 301.519,322.248 306.519,321.748 311.5,321C 313.82,318.679 316.486,317.179 319.5,316.5C 323.127,315.571 326.793,314.737 330.5,314C 331.056,313.617 331.389,313.117 331.5,312.5C 332.833,312.167 334.167,311.833 335.5,311.5C 339.229,310.987 342.896,310.154 346.5,309C 348.747,307.658 350.413,305.824 351.5,303.5C 355.114,301.693 358.78,299.86 362.5,298C 365.733,294.608 368.733,291.108 371.5,287.5C 372.448,284.86 373.448,282.193 374.5,279.5C 376.51,272.426 375.343,265.76 371,259.5C 370.184,258.177 369.017,257.511 367.5,257.5C 367.179,255.952 366.179,255.285 364.5,255.5C 362.807,252.81 360.473,250.81 357.5,249.5C 356.859,248.518 356.193,247.518 355.5,246.5C 350.415,243.625 345.081,241.291 339.5,239.5C 339.423,238.25 338.756,237.417 337.5,237C 335.292,236.809 333.292,236.309 331.5,235.5C 331.38,234.414 330.713,233.747 329.5,233.5C 323.62,232.82 318.62,230.487 314.5,226.5 Z"/></g>
<g><path style="opacity:1" fill="#2a4494" d="M 393.5,250.5 C 395.54,252.177 397.54,253.844 399.5,255.5C 401.306,259.996 402.639,264.663 403.5,269.5C 402.4,267.723 401.566,265.723 401,263.5C 399.745,262.789 398.579,261.956 397.5,261C 395.101,261.287 392.768,262.12 390.5,263.5C 389.476,262.147 388.143,261.48 386.5,261.5C 383.925,259.723 381.591,257.723 379.5,255.5C 381.87,253.462 384.537,251.628 387.5,250C 389.545,249.51 391.545,249.677 393.5,250.5 Z"/></g>
<g><path style="opacity:1" fill="#73161f" d="M 367.5,257.5 C 369.017,257.511 370.184,258.177 371,259.5C 375.343,265.76 376.51,272.426 374.5,279.5C 374.813,275.958 374.479,272.625 373.5,269.5C 371.895,265.249 369.895,261.249 367.5,257.5 Z"/></g>
<g><path style="opacity:1" fill="#dadada" d="M 132.5,263.5 C 128.297,263.076 124.297,263.576 120.5,265C 123.869,266.672 127.202,268.172 130.5,269.5C 130.167,269.5 129.833,269.5 129.5,269.5C 126.375,268.521 123.042,268.187 119.5,268.5C 119.5,269.833 119.5,271.167 119.5,272.5C 122.833,272.5 126.167,272.5 129.5,272.5C 126.64,273.244 123.64,273.911 120.5,274.5C 119.218,275.958 119.218,277.292 120.5,278.5C 120.5,280.167 120.5,281.833 120.5,283.5C 118.167,283.5 115.833,283.5 113.5,283.5C 113.5,276.5 113.5,269.5 113.5,262.5C 120.022,262.177 126.355,262.51 132.5,263.5 Z"/></g>
<g><path style="opacity:1" fill="#f8f8f8" d="M 114.5,263.5 C 115.833,263.5 117.167,263.5 118.5,263.5C 118.295,269.878 118.628,276.211 119.5,282.5C 117.833,282.5 116.167,282.5 114.5,282.5C 114.5,276.167 114.5,269.833 114.5,263.5 Z"/></g>
<g><path style="opacity:1" fill="#b3b3b4" d="M 147.5,262.5 C 147.5,267.5 147.5,272.5 147.5,277.5C 146.514,273.03 146.181,268.363 146.5,263.5C 144.833,263.5 143.167,263.5 141.5,263.5C 141.5,269.833 141.5,276.167 141.5,282.5C 147.833,282.5 154.167,282.5 160.5,282.5C 154.021,283.491 147.354,283.824 140.5,283.5C 140.5,276.5 140.5,269.5 140.5,262.5C 142.833,262.5 145.167,262.5 147.5,262.5 Z"/></g>
<g><path style="opacity:1" fill="#1a1a1b" d="M 244.5,262.5 C 238.31,262.177 232.31,262.51 226.5,263.5C 225.883,263.611 225.383,263.944 225,264.5C 224.199,267.367 224.366,270.034 225.5,272.5C 225.953,273.458 226.619,274.292 227.5,275C 226.552,275.483 225.552,275.649 224.5,275.5C 224.517,277.565 224.85,279.565 225.5,281.5C 224.833,281.5 224.167,281.5 223.5,281.5C 222.5,280.833 221.5,280.167 220.5,279.5C 217.804,277.801 215.804,275.467 214.5,272.5C 216.603,268.894 219.269,265.727 222.5,263C 219.518,262.502 216.518,262.335 213.5,262.5C 216.566,261.977 219.566,260.977 222.5,259.5C 229.892,260.965 237.225,261.965 244.5,262.5 Z"/></g>
<g><path style="opacity:1" fill="#f1f1f2" d="M 244.5,262.5 C 245.9,263.1 246.9,264.1 247.5,265.5C 247.5,266.833 247.5,268.167 247.5,269.5C 242.377,267.919 237.044,267.252 231.5,267.5C 231.5,268.5 231.5,269.5 231.5,270.5C 236.562,270.274 241.562,270.608 246.5,271.5C 248.026,272.492 248.693,273.992 248.5,276C 248.715,278.909 247.715,281.076 245.5,282.5C 238.776,282.756 232.109,282.423 225.5,281.5C 224.85,279.565 224.517,277.565 224.5,275.5C 225.552,275.649 226.552,275.483 227.5,275C 226.619,274.292 225.953,273.458 225.5,272.5C 225.368,269.43 225.701,266.43 226.5,263.5C 232.31,262.51 238.31,262.177 244.5,262.5 Z"/></g>
<g><path style="opacity:1" fill="#bebebe" d="M 290.5,268.5 C 291.038,266.883 291.371,265.216 291.5,263.5C 289.833,263.5 288.167,263.5 286.5,263.5C 286.693,267.037 285.36,269.703 282.5,271.5C 283.167,268.5 283.833,265.5 284.5,262.5C 287.167,262.5 289.833,262.5 292.5,262.5C 292.946,265.01 292.28,267.01 290.5,268.5 Z"/></g>
<g><path style="opacity:1" fill="#f9f9f9" d="M 132.5,263.5 C 133.5,263.5 134.5,263.5 135.5,263.5C 136.221,266.817 136.388,270.151 136,273.5C 135.439,272.978 134.772,272.645 134,272.5C 131.79,274.111 129.29,274.778 126.5,274.5C 126.5,275.5 126.5,276.5 126.5,277.5C 124.265,277.205 122.265,277.539 120.5,278.5C 119.218,277.292 119.218,275.958 120.5,274.5C 123.64,273.911 126.64,273.244 129.5,272.5C 130.404,271.791 130.737,270.791 130.5,269.5C 127.202,268.172 123.869,266.672 120.5,265C 124.297,263.576 128.297,263.076 132.5,263.5 Z"/></g>
<g><path style="opacity:1" fill="#4c4c4d" d="M 147.5,262.5 C 148.486,266.97 148.819,271.637 148.5,276.5C 152.702,276.183 156.702,276.517 160.5,277.5C 156.167,277.5 151.833,277.5 147.5,277.5C 147.5,272.5 147.5,267.5 147.5,262.5 Z"/></g>
<g><path style="opacity:1" fill="#f9f9fa" d="M 327.5,263.5 C 333.833,263.5 340.167,263.5 346.5,263.5C 345.959,266.652 346.959,269.152 349.5,271C 346.828,271.485 345.495,270.318 345.5,267.5C 341.298,267.183 337.298,267.517 333.5,268.5C 333.232,270.099 333.566,271.432 334.5,272.5C 335.952,273.302 337.618,273.802 339.5,274C 334.167,274.667 334.167,275.333 339.5,276C 337.825,276.985 336.158,277.819 334.5,278.5C 333.566,279.568 333.232,280.901 333.5,282.5C 331.5,282.5 329.5,282.5 327.5,282.5C 327.5,276.167 327.5,269.833 327.5,263.5 Z"/></g>
<g><path style="opacity:1" fill="#99999b" d="M 226.5,263.5 C 225.701,266.43 225.368,269.43 225.5,272.5C 224.366,270.034 224.199,267.367 225,264.5C 225.383,263.944 225.883,263.611 226.5,263.5 Z"/></g>
<g><path style="opacity:1" fill="#717172" d="M 247.5,265.5 C 248.843,267.683 248.51,269.683 246.5,271.5C 241.562,270.608 236.562,270.274 231.5,270.5C 231.5,269.5 231.5,268.5 231.5,267.5C 237.044,267.252 242.377,267.919 247.5,269.5C 247.5,268.167 247.5,266.833 247.5,265.5 Z"/></g>
<g><path style="opacity:1" fill="#eaeaeb" d="M 323.5,281.5 C 321.052,282.473 318.385,282.806 315.5,282.5C 315.586,281.504 315.252,280.671 314.5,280C 310.5,279.333 306.5,279.333 302.5,280C 301.748,280.671 301.414,281.504 301.5,282.5C 299.167,282.5 296.833,282.5 294.5,282.5C 294.5,281.5 294.5,280.5 294.5,279.5C 296.694,274.147 299.194,268.813 302,263.5C 306.333,262.167 310.667,262.167 315,263.5C 318.118,269.401 320.951,275.401 323.5,281.5 Z"/></g>
<g><path style="opacity:1" fill="#8f8f8f" d="M 310.5,271.5 C 309.849,270.909 309.182,270.243 308.5,269.5C 307.818,270.243 307.151,270.909 306.5,271.5C 306.5,270.5 306.5,269.5 306.5,268.5C 307.833,268.5 309.167,268.5 310.5,268.5C 310.5,269.5 310.5,270.5 310.5,271.5 Z"/></g>
<g><path style="opacity:1" fill="#050507" d="M 343.5,269.5 C 343.5,270.167 343.5,270.833 343.5,271.5C 331.5,270.833 331.5,270.167 343.5,269.5 Z"/></g>
<g><path style="opacity:1" fill="#53080e" d="M 361.5,267.5 C 362.638,270.304 362.805,273.304 362,276.5C 361.623,277.942 360.79,278.942 359.5,279.5C 361.002,275.658 361.668,271.658 361.5,267.5 Z"/></g>
<g><path style="opacity:1" fill="#4f4f4f" d="M 129.5,269.5 C 129.833,269.5 130.167,269.5 130.5,269.5C 130.737,270.791 130.404,271.791 129.5,272.5C 126.167,272.5 122.833,272.5 119.5,272.5C 119.5,271.167 119.5,269.833 119.5,268.5C 123.042,268.187 126.375,268.521 129.5,269.5 Z"/></g>
<g><path style="opacity:1" fill="#050506" d="M 129.5,269.5 C 128.486,270.765 126.986,271.431 125,271.5C 123.5,271.167 122,270.833 120.5,270.5C 123.428,269.516 126.428,269.183 129.5,269.5 Z"/></g>
<g><path style="opacity:1" fill="#ededed" d="M 188.5,272.5 C 188.755,274.967 189.755,276.967 191.5,278.5C 192.11,279.391 192.443,280.391 192.5,281.5C 190.393,282.468 188.059,282.802 185.5,282.5C 184.833,281.833 184.167,281.167 183.5,280.5C 179.689,279.355 175.689,279.188 171.5,280C 170.748,280.671 170.414,281.504 170.5,282.5C 167.941,282.802 165.607,282.468 163.5,281.5C 165.698,275.299 168.365,269.299 171.5,263.5C 175.459,262.34 179.459,262.173 183.5,263C 185.64,265.92 187.306,269.087 188.5,272.5 Z"/></g>
<g><path style="opacity:1" fill="#474748" d="M 333.5,268.5 C 337.042,268.187 340.375,268.521 343.5,269.5C 331.5,270.167 331.5,270.833 343.5,271.5C 340.713,272.477 337.713,272.81 334.5,272.5C 333.566,271.432 333.232,270.099 333.5,268.5 Z"/></g>
<g><path style="opacity:1" fill="#212121" d="M 176.5,269.5 C 178.384,269.712 179.717,270.712 180.5,272.5C 178.833,273.833 177.167,273.833 175.5,272.5C 176.127,271.583 176.461,270.583 176.5,269.5 Z"/></g>
<g><path style="opacity:1" fill="#171718" d="M 310.5,271.5 C 310.38,272.586 309.713,273.253 308.5,273.5C 307.287,273.253 306.62,272.586 306.5,271.5C 307.151,270.909 307.818,270.243 308.5,269.5C 309.182,270.243 309.849,270.909 310.5,271.5 Z"/></g>
<g><path style="opacity:1" fill="#e3e3e4" d="M 279.5,274.5 C 279.517,276.028 280.184,276.528 281.5,276C 282.38,274.644 282.714,273.144 282.5,271.5C 285.36,269.703 286.693,267.037 286.5,263.5C 288.167,263.5 289.833,263.5 291.5,263.5C 291.371,265.216 291.038,266.883 290.5,268.5C 289.263,273.475 287.596,278.309 285.5,283C 282.167,283.667 278.833,283.667 275.5,283C 274.175,279.228 273.009,275.395 272,271.5C 270.596,275.286 269.43,279.12 268.5,283C 265.183,283.498 261.85,283.665 258.5,283.5C 256.359,276.41 254.026,269.41 251.5,262.5C 253.857,262.337 256.19,262.503 258.5,263C 262.073,278.442 265.073,278.276 267.5,262.5C 270.5,262.5 273.5,262.5 276.5,262.5C 277.5,266.5 278.5,270.5 279.5,274.5 Z"/></g>
<g><path style="opacity:1" fill="#e1e1e2" d="M 327.5,263.5 C 327.5,263.167 327.5,262.833 327.5,262.5C 334.175,262.334 340.842,262.5 347.5,263C 348.416,263.374 349.25,263.874 350,264.5C 350.796,268.755 350.629,272.921 349.5,277C 344.599,278.325 339.599,278.825 334.5,278.5C 336.158,277.819 337.825,276.985 339.5,276C 334.167,275.333 334.167,274.667 339.5,274C 337.618,273.802 335.952,273.302 334.5,272.5C 337.713,272.81 340.713,272.477 343.5,271.5C 343.5,270.833 343.5,270.167 343.5,269.5C 340.375,268.521 337.042,268.187 333.5,268.5C 337.298,267.517 341.298,267.183 345.5,267.5C 345.495,270.318 346.828,271.485 349.5,271C 346.959,269.152 345.959,266.652 346.5,263.5C 340.167,263.5 333.833,263.5 327.5,263.5 Z"/></g>
<g><path style="opacity:1" fill="#d8d8d8" d="M 135.5,263.5 C 138.354,268.242 138.021,272.909 134.5,277.5C 129.9,278.443 125.233,278.777 120.5,278.5C 122.265,277.539 124.265,277.205 126.5,277.5C 126.5,276.5 126.5,275.5 126.5,274.5C 129.29,274.778 131.79,274.111 134,272.5C 134.772,272.645 135.439,272.978 136,273.5C 136.388,270.151 136.221,266.817 135.5,263.5 Z"/></g>
<g><path style="opacity:1" fill="#ececec" d="M 213.5,262.5 C 216.518,262.335 219.518,262.502 222.5,263C 219.269,265.727 216.603,268.894 214.5,272.5C 215.804,275.467 217.804,277.801 220.5,279.5C 220.414,280.496 220.748,281.329 221.5,282C 218.854,282.497 216.187,282.664 213.5,282.5C 210.115,275.868 206.782,275.868 203.5,282.5C 200.615,282.806 197.948,282.473 195.5,281.5C 197.27,278.554 199.27,275.72 201.5,273C 199.607,269.101 196.941,265.768 193.5,263C 199.58,261.258 204.58,262.758 208.5,267.5C 210.521,266.145 212.188,264.479 213.5,262.5 Z"/></g>
<g><path style="opacity:1" fill="#8a8a8c" d="M 282.5,271.5 C 282.714,273.144 282.38,274.644 281.5,276C 280.184,276.528 279.517,276.028 279.5,274.5C 280.728,273.694 281.728,272.694 282.5,271.5 Z"/></g>
<g><path style="opacity:1" fill="#2c2c2d" d="M 231.5,275.5 C 234.898,275.18 238.232,275.513 241.5,276.5C 239.833,276.833 238.167,277.167 236.5,277.5C 234.36,277.444 232.694,276.777 231.5,275.5 Z"/></g>
<g><path style="opacity:1" fill="#293083" d="M 403.5,269.5 C 403.876,274.273 402.876,278.607 400.5,282.5C 399.504,282.414 398.671,282.748 398,283.5C 396.659,292.394 393.159,293.56 387.5,287C 389.049,285.786 390.215,284.286 391,282.5C 391.42,287.464 392.253,287.631 393.5,283C 393.138,281.775 392.638,280.609 392,279.5C 391.667,279.833 391.333,280.167 391,280.5C 390.667,278.167 390.333,275.833 390,273.5C 389.667,273.833 389.333,274.167 389,274.5C 389.031,269.877 388.198,265.543 386.5,261.5C 388.143,261.48 389.476,262.147 390.5,263.5C 392.768,262.12 395.101,261.287 397.5,261C 398.579,261.956 399.745,262.789 401,263.5C 401.566,265.723 402.4,267.723 403.5,269.5 Z"/></g>
<g><path style="opacity:1" fill="#f6f6f7" d="M 147.5,277.5 C 151.833,277.5 156.167,277.5 160.5,277.5C 161.833,279.167 161.833,280.833 160.5,282.5C 154.167,282.5 147.833,282.5 141.5,282.5C 141.5,276.167 141.5,269.833 141.5,263.5C 143.167,263.5 144.833,263.5 146.5,263.5C 146.181,268.363 146.514,273.03 147.5,277.5 Z"/></g>
<g><path style="opacity:1" fill="#7d7d7d" d="M 188.5,272.5 C 190.245,274.033 191.245,276.033 191.5,278.5C 189.755,276.967 188.755,274.967 188.5,272.5 Z"/></g>
<g><path style="opacity:1" fill="#23275b" d="M 399.5,255.5 C 405.306,262.406 406.973,270.406 404.5,279.5C 403.163,282.239 401.83,284.906 400.5,287.5C 400.5,285.833 400.5,284.167 400.5,282.5C 402.876,278.607 403.876,274.273 403.5,269.5C 402.639,264.663 401.306,259.996 399.5,255.5 Z"/></g>
<g><path style="opacity:1" fill="#626262" d="M 183.5,280.5 C 178.86,279.975 174.527,280.642 170.5,282.5C 170.414,281.504 170.748,280.671 171.5,280C 175.689,279.188 179.689,279.355 183.5,280.5 Z"/></g>
<g><path style="opacity:1" fill="#d21c28" d="M 364.5,255.5 C 366.179,255.285 367.179,255.952 367.5,257.5C 369.895,261.249 371.895,265.249 373.5,269.5C 373.82,272.898 373.487,276.232 372.5,279.5C 370.893,281.917 369.893,284.584 369.5,287.5C 367.999,288.752 366.332,289.752 364.5,290.5C 363.127,290.657 361.793,290.49 360.5,290C 361.668,288.594 361.335,287.428 359.5,286.5C 361.831,284.383 362.997,281.716 363,278.5C 363.868,270.719 363.368,263.052 361.5,255.5C 362.5,255.5 363.5,255.5 364.5,255.5 Z"/></g>
<g><path style="opacity:1" fill="#838383" d="M 163.5,281.5 C 165.607,282.468 167.941,282.802 170.5,282.5C 167.976,283.8 165.309,283.8 162.5,282.5C 162.624,281.893 162.957,281.56 163.5,281.5 Z"/></g>
<g><path style="opacity:1" fill="#868686" d="M 192.5,281.5 C 193.5,281.5 194.5,281.5 195.5,281.5C 197.948,282.473 200.615,282.806 203.5,282.5C 197.5,283.833 191.5,283.833 185.5,282.5C 188.059,282.802 190.393,282.468 192.5,281.5 Z"/></g>
<g><path style="opacity:1" fill="#808082" d="M 220.5,279.5 C 221.5,280.167 222.5,280.833 223.5,281.5C 222.306,282.777 220.64,283.444 218.5,283.5C 216.631,283.493 214.964,283.16 213.5,282.5C 216.187,282.664 218.854,282.497 221.5,282C 220.748,281.329 220.414,280.496 220.5,279.5 Z"/></g>
<g><path style="opacity:1" fill="#9c9c9d" d="M 225.5,281.5 C 232.109,282.423 238.776,282.756 245.5,282.5C 239.347,283.653 233.014,283.82 226.5,283C 225.944,282.617 225.611,282.117 225.5,281.5 Z"/></g>
<g><path style="opacity:1" fill="#808080" d="M 294.5,279.5 C 294.5,280.5 294.5,281.5 294.5,282.5C 296.833,282.5 299.167,282.5 301.5,282.5C 299.052,283.473 296.385,283.806 293.5,283.5C 293.232,281.901 293.566,280.568 294.5,279.5 Z"/></g>
<g><path style="opacity:1" fill="#7c7c7e" d="M 323.5,281.5 C 324.043,281.56 324.376,281.893 324.5,282.5C 321.355,283.803 318.355,283.803 315.5,282.5C 318.385,282.806 321.052,282.473 323.5,281.5 Z"/></g>
<g><path style="opacity:1" fill="#838385" d="M 327.5,262.5 C 327.5,262.833 327.5,263.167 327.5,263.5C 327.5,269.833 327.5,276.167 327.5,282.5C 329.5,282.5 331.5,282.5 333.5,282.5C 333.232,280.901 333.566,279.568 334.5,278.5C 334.5,280.167 334.5,281.833 334.5,283.5C 331.833,283.5 329.167,283.5 326.5,283.5C 326.175,276.313 326.509,269.313 327.5,262.5 Z"/></g>
<g><path style="opacity:1" fill="#af2934" d="M 373.5,269.5 C 374.479,272.625 374.813,275.958 374.5,279.5C 373.448,282.193 372.448,284.86 371.5,287.5C 370.833,287.5 370.167,287.5 369.5,287.5C 369.893,284.584 370.893,281.917 372.5,279.5C 373.487,276.232 373.82,272.898 373.5,269.5 Z"/></g>
<g><path style="opacity:1" fill="#1d214d" d="M 383.5,265.5 C 384.458,265.953 385.292,266.619 386,267.5C 387.947,273.848 387.947,280.181 386,286.5C 385.329,287.252 384.496,287.586 383.5,287.5C 384.459,283.233 385.126,278.9 385.5,274.5C 385.655,271.232 384.989,268.232 383.5,265.5 Z"/></g>
<g><path style="opacity:1" fill="#c41e2c" d="M 357.5,249.5 C 360.473,250.81 362.807,252.81 364.5,255.5C 363.5,255.5 362.5,255.5 361.5,255.5C 363.368,263.052 363.868,270.719 363,278.5C 362.997,281.716 361.831,284.383 359.5,286.5C 361.335,287.428 361.668,288.594 360.5,290C 361.793,290.49 363.127,290.657 364.5,290.5C 363.833,291.833 363.167,293.167 362.5,294.5C 358.025,297.734 353.025,299.901 347.5,301C 345.537,305.797 344.204,305.63 343.5,300.5C 345.856,297.814 348.189,295.147 350.5,292.5C 352.583,291.971 354.417,290.971 356,289.5C 356.533,286.495 357.7,283.828 359.5,281.5C 359.5,280.833 359.5,280.167 359.5,279.5C 360.79,278.942 361.623,277.942 362,276.5C 362.805,273.304 362.638,270.304 361.5,267.5C 361.5,266.167 361.5,264.833 361.5,263.5C 359.823,260.299 358.323,256.965 357,253.5C 355.556,251.845 353.722,251.178 351.5,251.5C 351.5,250.5 351.5,249.5 351.5,248.5C 353.565,248.517 355.565,248.85 357.5,249.5 Z"/></g>
<g><path style="opacity:1" fill="#831c25" d="M 369.5,287.5 C 370.167,287.5 370.833,287.5 371.5,287.5C 368.733,291.108 365.733,294.608 362.5,298C 358.78,299.86 355.114,301.693 351.5,303.5C 355.34,300.742 359.007,297.742 362.5,294.5C 363.167,293.167 363.833,291.833 364.5,290.5C 366.332,289.752 367.999,288.752 369.5,287.5 Z"/></g>
<g><path style="opacity:1" fill="#282a6f" d="M 379.5,255.5 C 381.591,257.723 383.925,259.723 386.5,261.5C 388.198,265.543 389.031,269.877 389,274.5C 389.333,274.167 389.667,273.833 390,273.5C 390.333,275.833 390.667,278.167 391,280.5C 391.333,280.167 391.667,279.833 392,279.5C 392.638,280.609 393.138,281.775 393.5,283C 392.253,287.631 391.42,287.464 391,282.5C 390.215,284.286 389.049,285.786 387.5,287C 393.159,293.56 396.659,292.394 398,283.5C 398.671,282.748 399.504,282.414 400.5,282.5C 400.5,284.167 400.5,285.833 400.5,287.5C 399.833,288.5 399.167,289.5 398.5,290.5C 393.749,291.713 389.749,294.213 386.5,298C 384.19,298.497 381.857,298.663 379.5,298.5C 378.923,295.45 380.09,293.45 383,292.5C 383.494,290.866 383.66,289.199 383.5,287.5C 384.496,287.586 385.329,287.252 386,286.5C 387.947,280.181 387.947,273.848 386,267.5C 385.292,266.619 384.458,265.953 383.5,265.5C 383.66,263.801 383.494,262.134 383,260.5C 380.842,259.511 379.675,257.844 379.5,255.5 Z"/></g>
<g><path style="opacity:1" fill="#841d2a" d="M 359.5,281.5 C 357.7,283.828 356.533,286.495 356,289.5C 354.417,290.971 352.583,291.971 350.5,292.5C 346.92,294.408 343.92,297.074 341.5,300.5C 337.474,301.521 333.474,302.521 329.5,303.5C 336.705,299.656 343.705,295.322 350.5,290.5C 353.279,287.273 356.279,284.273 359.5,281.5 Z"/></g>
<g><path style="opacity:1" fill="#6a1b21" d="M 329.5,303.5 C 327.187,306.917 323.854,308.251 319.5,307.5C 320.737,305.903 322.404,304.737 324.5,304C 326.134,303.506 327.801,303.34 329.5,303.5 Z"/></g>
<g><path style="opacity:1" fill="#242157" d="M 383.5,287.5 C 383.66,289.199 383.494,290.866 383,292.5C 380.09,293.45 378.923,295.45 379.5,298.5C 381.857,298.663 384.19,298.497 386.5,298C 389.749,294.213 393.749,291.713 398.5,290.5C 392.952,298.068 385.952,303.401 377.5,306.5C 371.173,307.007 365.506,309.174 360.5,313C 356.109,314.077 351.776,315.243 347.5,316.5C 347.281,315.325 347.614,314.325 348.5,313.5C 351.564,312.879 354.564,312.045 357.5,311C 358.305,309.887 358.972,308.721 359.5,307.5C 361.579,305.127 364.246,303.794 367.5,303.5C 367.281,302.325 367.614,301.325 368.5,300.5C 374.153,296.785 379.153,292.451 383.5,287.5 Z"/></g>
<g><path style="opacity:1" fill="#2a0806" d="M 351.5,303.5 C 350.413,305.824 348.747,307.658 346.5,309C 342.896,310.154 339.229,310.987 335.5,311.5C 340.787,308.835 346.12,306.169 351.5,303.5 Z"/></g>
<g><path style="opacity:1" fill="#751d26" d="M 319.5,307.5 C 315.872,308.589 312.539,310.422 309.5,313C 303.82,313.445 298.154,313.945 292.5,314.5C 299.705,313.381 306.705,311.215 313.5,308C 315.473,307.505 317.473,307.338 319.5,307.5 Z"/></g>
<g><path style="opacity:1" fill="#221c46" d="M 377.5,306.5 C 371.288,310.437 364.622,313.604 357.5,316C 352.977,317.797 348.31,318.964 343.5,319.5C 337.059,321.807 330.392,323.141 323.5,323.5C 321.517,323.843 320.183,323.176 319.5,321.5C 333.024,317.878 346.358,313.212 359.5,307.5C 358.972,308.721 358.305,309.887 357.5,311C 354.564,312.045 351.564,312.879 348.5,313.5C 347.614,314.325 347.281,315.325 347.5,316.5C 351.776,315.243 356.109,314.077 360.5,313C 365.506,309.174 371.173,307.007 377.5,306.5 Z"/></g>
<g><path style="opacity:1" fill="#58131b" d="M 292.5,314.5 C 292.389,315.117 292.056,315.617 291.5,316C 283.424,316.716 275.424,317.882 267.5,319.5C 264.5,319.5 261.5,319.5 258.5,319.5C 269.628,317.356 280.962,315.689 292.5,314.5 Z"/></g>
<g><path style="opacity:1" fill="#761d26" d="M 331.5,312.5 C 331.389,313.117 331.056,313.617 330.5,314C 326.793,314.737 323.127,315.571 319.5,316.5C 314.306,318.058 308.972,319.058 303.5,319.5C 304.152,318.275 305.319,317.608 307,317.5C 315.255,316.198 323.422,314.532 331.5,312.5 Z"/></g>
<g><path style="opacity:1" fill="#3a191f" d="M 199.5,319.5 C 196.615,319.194 193.948,319.527 191.5,320.5C 187.149,319.83 182.816,318.996 178.5,318C 185.75,317.056 192.75,317.556 199.5,319.5 Z"/></g>
<g><path style="opacity:1" fill="#2c0e0f" d="M 319.5,316.5 C 316.486,317.179 313.82,318.679 311.5,321C 306.519,321.748 301.519,322.248 296.5,322.5C 293.5,322.5 290.5,322.5 287.5,322.5C 287.5,322.167 287.5,321.833 287.5,321.5C 292.93,321.464 298.263,320.797 303.5,319.5C 308.972,319.058 314.306,318.058 319.5,316.5 Z"/></g>
<g><path style="opacity:1" fill="#7e232e" d="M 199.5,319.5 C 219.164,320.783 238.83,320.783 258.5,319.5C 261.5,319.5 264.5,319.5 267.5,319.5C 266.048,320.302 264.382,320.802 262.5,321C 252.172,321.5 241.839,321.666 231.5,321.5C 225.491,321.334 219.491,321.501 213.5,322C 216.952,322.885 220.286,323.718 223.5,324.5C 213.847,323.585 204.181,322.752 194.5,322C 193.263,321.768 192.263,321.268 191.5,320.5C 193.948,319.527 196.615,319.194 199.5,319.5 Z"/></g>
<g><path style="opacity:1" fill="#b72031" d="M 350.5,292.5 C 348.189,295.147 345.856,297.814 343.5,300.5C 344.204,305.63 345.537,305.797 347.5,301C 353.025,299.901 358.025,297.734 362.5,294.5C 359.007,297.742 355.34,300.742 351.5,303.5C 346.12,306.169 340.787,308.835 335.5,311.5C 334.167,311.833 332.833,312.167 331.5,312.5C 323.422,314.532 315.255,316.198 307,317.5C 305.319,317.608 304.152,318.275 303.5,319.5C 298.263,320.797 292.93,321.464 287.5,321.5C 273.832,322.1 260.166,322.767 246.5,323.5C 241.119,323.494 236.119,322.828 231.5,321.5C 241.839,321.666 252.172,321.5 262.5,321C 264.382,320.802 266.048,320.302 267.5,319.5C 275.424,317.882 283.424,316.716 291.5,316C 292.056,315.617 292.389,315.117 292.5,314.5C 298.154,313.945 303.82,313.445 309.5,313C 312.539,310.422 315.872,308.589 319.5,307.5C 323.854,308.251 327.187,306.917 329.5,303.5C 333.474,302.521 337.474,301.521 341.5,300.5C 343.92,297.074 346.92,294.408 350.5,292.5 Z"/></g>
<g><path style="opacity:1" fill="#952533" d="M 231.5,321.5 C 236.119,322.828 241.119,323.494 246.5,323.5C 260.166,322.767 273.832,322.1 287.5,321.5C 287.5,321.833 287.5,322.167 287.5,322.5C 266.249,325.042 244.916,326.042 223.5,325.5C 223.5,325.167 223.5,324.833 223.5,324.5C 220.286,323.718 216.952,322.885 213.5,322C 219.491,321.501 225.491,321.334 231.5,321.5 Z"/></g>
<g><path style="opacity:1" fill="#1e1d34" d="M 319.5,321.5 C 320.183,323.176 321.517,323.843 323.5,323.5C 314.418,325.726 305.085,326.56 295.5,326C 303.425,324.175 311.425,322.675 319.5,321.5 Z"/></g>
<g><path style="opacity:1" fill="#180201" d="M 287.5,322.5 C 285.611,323.322 283.611,324.155 281.5,325C 265.146,327.25 248.479,327.917 231.5,327C 228.635,326.817 225.969,326.317 223.5,325.5C 244.916,326.042 266.249,325.042 287.5,322.5 Z"/></g>
<g><path style="opacity:0.09" fill="#737373" d="M 328.5,456.5 C 327.22,457.931 325.553,458.598 323.5,458.5C 324.78,457.069 326.447,456.402 328.5,456.5 Z"/></g>
</svg>
