<?xml version="1.0" encoding="UTF-8"?>
<!DOCTYPE svg PUBLIC "-//W3C//DTD SVG 1.1//EN" "http://www.w3.org/Graphics/SVG/1.1/DTD/svg11.dtd">
<svg xmlns="http://www.w3.org/2000/svg" version="1.1" width="500px" height="500px" style="shape-rendering:geometricPrecision; text-rendering:geometricPrecision; image-rendering:optimizeQuality; fill-rule:evenodd; clip-rule:evenodd" xmlns:xlink="http://www.w3.org/1999/xlink">
<g><path style="opacity:0.974" fill="#f2f2f2" d="M 491.5,183.5 C 494.084,190.513 495.751,197.846 496.5,205.5C 497.095,215.682 498.095,225.682 499.5,235.5C 499.5,243.833 499.5,252.167 499.5,260.5C 498.565,268.33 497.899,276.33 497.5,284.5C 497.5,284.833 497.5,285.167 497.5,285.5C 495.31,293.618 493.643,301.952 492.5,310.5C 490.682,313.844 489.682,317.511 489.5,321.5C 479.129,351.91 464.296,379.91 445,405.5C 437.214,413.775 429.714,422.109 422.5,430.5C 408.851,441.654 394.851,452.321 380.5,462.5C 375.109,464.693 369.776,467.193 364.5,470C 363.619,470.708 362.953,471.542 362.5,472.5C 356.439,474.358 350.439,476.524 344.5,479C 343.058,479.377 342.058,480.21 341.5,481.5C 334.477,483.683 327.477,485.85 320.5,488C 307.679,490.794 295.013,493.628 282.5,496.5C 264.164,496.667 245.83,496.5 227.5,496C 220.838,495.056 214.171,494.223 207.5,493.5C 204.833,493.167 202.167,492.833 199.5,492.5C 196.495,490.723 193.162,489.723 189.5,489.5C 188.167,489.5 186.833,489.5 185.5,489.5C 185.167,489.5 184.833,489.5 184.5,489.5C 181.785,487.928 178.785,486.928 175.5,486.5C 173.901,486.768 172.568,486.434 171.5,485.5C 168.4,482.79 164.733,481.457 160.5,481.5C 159.942,480.21 158.942,479.377 157.5,479C 151.145,476.487 144.812,473.987 138.5,471.5C 128.22,466.356 118.554,460.19 109.5,453C 108.552,452.517 107.552,452.351 106.5,452.5C 99.1302,445.796 91.4636,439.463 83.5,433.5C 59.0632,409.242 39.0632,381.909 23.5,351.5C 23.6602,349.801 23.4935,348.134 23,346.5C 15.2066,328.945 9.70661,310.612 6.5,291.5C 3.79801,269.935 2.79801,248.268 3.5,226.5C 4.65379,221.27 5.32046,215.936 5.5,210.5C 6.47944,207.375 6.81277,204.042 6.5,200.5C 9.59517,191.462 12.0952,182.128 14,172.5C 17.486,163.869 20.6526,155.202 23.5,146.5C 49.6168,93.0499 88.9502,52.3832 141.5,24.5C 156.626,18.0164 171.96,12.3498 187.5,7.5C 190.829,7.78472 193.829,7.11805 196.5,5.5C 289.8,-11.6478 369.3,13.6856 435,81.5C 461.372,111.237 480.205,145.237 491.5,183.5 Z"/></g>
<g><path style="opacity:0.067" fill="#1f1f1f" d="M 196.5,5.5 C 193.829,7.11805 190.829,7.78472 187.5,7.5C 190.219,6.08699 193.219,5.42032 196.5,5.5 Z"/></g>
<g><path style="opacity:0.993" fill="#0b0b0b" d="M 271.5,10.5 C 277.979,11.8552 284.646,12.8552 291.5,13.5C 321.509,18.9088 349.509,29.2421 375.5,44.5C 375.973,45.9063 376.973,46.573 378.5,46.5C 444.132,89.3851 481.298,150.052 490,228.5C 494.224,309.513 466.391,377.013 406.5,431C 396.765,438.308 386.931,445.474 377,452.5C 367.134,457.682 357.301,462.682 347.5,467.5C 346.791,468.404 345.791,468.737 344.5,468.5C 344.565,468.062 344.399,467.728 344,467.5C 343.722,468.416 343.222,469.082 342.5,469.5C 341.151,468.356 340.817,468.356 341.5,469.5C 339.572,471.294 337.238,472.294 334.5,472.5C 332.208,474.267 329.542,475.267 326.5,475.5C 313.902,479.9 300.902,483.234 287.5,485.5C 282.269,485.444 277.269,486.111 272.5,487.5C 177.31,491.946 102.977,455.279 49.5,377.5C 1.43091,294.163 0.264242,210.163 46,125.5C 47.0319,123.973 48.1986,122.64 49.5,121.5C 50.9063,121.027 51.573,120.027 51.5,118.5C 94.0379,54.3615 154.038,18.5281 231.5,11C 244.829,10.5001 258.163,10.3334 271.5,10.5 Z"/></g>
<g><path style="opacity:1" fill="#878787" d="M 271.5,10.5 C 278.465,10.3987 285.132,11.3987 291.5,13.5C 284.646,12.8552 277.979,11.8552 271.5,10.5 Z"/></g>
<g><path style="opacity:0.037" fill="#131313" d="M 187.5,7.5 C 171.96,12.3498 156.626,18.0164 141.5,24.5C 155.553,15.7005 170.887,10.0339 187.5,7.5 Z"/></g>
<g><path style="opacity:1" fill="#8c8c8c" d="M 226.5,25.5 C 241.995,24.3387 257.661,24.172 273.5,25C 275.058,25.21 276.391,25.71 277.5,26.5C 260.524,25.573 243.524,25.2397 226.5,25.5 Z"/></g>
<g><path style="opacity:1" fill="#efefef" d="M 226.5,25.5 C 243.524,25.2397 260.524,25.573 277.5,26.5C 298.093,28.3232 317.759,33.3232 336.5,41.5C 338.509,43.0652 340.843,44.0652 343.5,44.5C 351.119,48.4177 358.785,52.4177 366.5,56.5C 366.973,57.9063 367.973,58.573 369.5,58.5C 410.253,83.5934 439.92,118.26 458.5,162.5C 458.166,165.491 459.166,167.824 461.5,169.5C 461.677,173.708 463.01,177.374 465.5,180.5C 468.452,187.837 470.452,195.503 471.5,203.5C 471.717,207.705 472.383,211.705 473.5,215.5C 476.589,234.839 477.256,254.339 475.5,274C 474.075,283.204 472.742,292.371 471.5,301.5C 469.411,305.501 468.078,309.835 467.5,314.5C 447.462,377.616 407.795,424.449 348.5,455C 338.808,458.849 329.141,462.682 319.5,466.5C 316.084,466.528 313.084,467.528 310.5,469.5C 305.343,470.131 300.343,471.131 295.5,472.5C 291.96,472.753 288.627,473.419 285.5,474.5C 279,474.936 272.666,475.602 266.5,476.5C 255.5,476.5 244.5,476.5 233.5,476.5C 224.918,475.597 216.251,474.597 207.5,473.5C 132.028,457.518 77.5276,414.851 44,345.5C 34.3579,323.795 28.1912,301.128 25.5,277.5C 24.5586,260.861 24.2253,244.195 24.5,227.5C 33.3224,155.35 67.989,99.1838 128.5,59C 136.18,54.1367 144.18,49.97 152.5,46.5C 154.967,46.2451 156.967,45.2451 158.5,43.5C 165.42,41.6974 172.087,39.3641 178.5,36.5C 179.5,35.8333 180.5,35.1667 181.5,34.5C 186.911,34.3575 191.911,33.0242 196.5,30.5C 206.293,28.4233 216.293,26.7566 226.5,25.5 Z"/></g>
<g><path style="opacity:1" fill="#969696" d="M 196.5,30.5 C 191.911,33.0242 186.911,34.3575 181.5,34.5C 186.294,32.7974 191.294,31.4641 196.5,30.5 Z"/></g>
<g><path style="opacity:1" fill="#010101" d="M 284.5,36.5 C 288.295,37.6167 292.295,38.2833 296.5,38.5C 296.833,38.5 297.167,38.5 297.5,38.5C 299.838,40.0395 302.505,40.7062 305.5,40.5C 307.515,41.9238 309.848,42.5905 312.5,42.5C 360.251,57.7314 398.918,85.7314 428.5,126.5C 428.427,128.027 429.094,129.027 430.5,129.5C 435.859,136.217 440.193,143.55 443.5,151.5C 443.343,152.873 443.51,154.207 444,155.5C 445.594,157.526 447.094,159.526 448.5,161.5C 465.395,199.377 471.062,239.043 465.5,280.5C 464.313,283.946 463.646,287.613 463.5,291.5C 462.25,296.754 461.25,302.087 460.5,307.5C 458.926,309.102 458.259,311.102 458.5,313.5C 455.958,322.792 452.625,331.792 448.5,340.5C 446.874,342.942 445.541,345.609 444.5,348.5C 441.218,354.067 438.218,359.733 435.5,365.5C 433.674,367.147 432.34,369.147 431.5,371.5C 411.915,400.09 387.248,423.09 357.5,440.5C 355.033,440.755 353.033,441.755 351.5,443.5C 351.158,444.338 350.492,444.672 349.5,444.5C 345.267,446.223 341.267,448.223 337.5,450.5C 332.311,453.058 326.977,455.058 321.5,456.5C 318.422,456.62 315.755,457.62 313.5,459.5C 307.726,460.88 302.059,462.213 296.5,463.5C 292.922,463.549 289.589,464.215 286.5,465.5C 265.963,468.576 245.297,469.243 224.5,467.5C 221.124,465.918 217.458,465.251 213.5,465.5C 211.585,465.784 209.919,465.451 208.5,464.5C 205.155,462.783 201.489,462.116 197.5,462.5C 177.574,457.525 158.907,449.859 141.5,439.5C 139.879,437.058 137.546,435.725 134.5,435.5C 131.158,433.164 127.825,430.831 124.5,428.5C 124.027,427.094 123.027,426.427 121.5,426.5C 94.3025,406.318 72.9692,381.318 57.5,351.5C 56.4918,349.456 55.4918,347.456 54.5,345.5C 50.2735,337.05 46.6069,328.383 43.5,319.5C 43.7406,317.102 43.0739,315.102 41.5,313.5C 41.5905,310.848 40.9238,308.515 39.5,306.5C 30.633,270.938 30.2997,235.271 38.5,199.5C 40.6098,195.498 41.9431,191.165 42.5,186.5C 43.2392,182.083 44.4058,177.75 46,173.5C 49.581,167.042 52.7476,160.376 55.5,153.5C 56.9063,153.027 57.573,152.027 57.5,150.5C 59.2928,145.581 61.6261,140.914 64.5,136.5C 67.0442,135.292 68.3775,133.292 68.5,130.5C 87.3201,103.013 110.987,80.6794 139.5,63.5C 140.995,63.0113 142.329,62.3446 143.5,61.5C 148.557,58.4832 153.89,55.8165 159.5,53.5C 162.105,53.3794 164.105,52.3794 165.5,50.5C 170.267,50.3642 174.267,48.6975 177.5,45.5C 178.167,45.5 178.833,45.5 179.5,45.5C 183.915,45.1394 187.915,43.8061 191.5,41.5C 192.568,40.5655 193.901,40.2322 195.5,40.5C 199.761,40.1016 203.761,39.1016 207.5,37.5C 228.645,33.823 249.978,32.6563 271.5,34C 275.825,34.9741 280.158,35.8075 284.5,36.5 Z"/></g>
<g><path style="opacity:1" fill="#8c8c8c" d="M 284.5,36.5 C 288.79,36.1977 292.79,36.8643 296.5,38.5C 292.295,38.2833 288.295,37.6167 284.5,36.5 Z"/></g>
<g><path style="opacity:0.036" fill="#1a1a1a" d="M 141.5,24.5 C 88.9502,52.3832 49.6168,93.0499 23.5,146.5C 32.9293,124.246 45.4293,103.913 61,85.5C 73.9311,71.5643 87.7644,58.7309 102.5,47C 114.618,37.9419 127.618,30.4419 141.5,24.5 Z"/></g>
<g><path style="opacity:1" fill="#707070" d="M 207.5,37.5 C 203.761,39.1016 199.761,40.1016 195.5,40.5C 199.163,38.5841 203.163,37.5841 207.5,37.5 Z"/></g>
<g><path style="opacity:1" fill="#787878" d="M 297.5,38.5 C 300.428,38.5651 303.095,39.2318 305.5,40.5C 302.505,40.7062 299.838,40.0395 297.5,38.5 Z"/></g>
<g><path style="opacity:1" fill="#a8a8a8" d="M 178.5,36.5 C 172.087,39.3641 165.42,41.6974 158.5,43.5C 164.669,39.998 171.335,37.6646 178.5,36.5 Z"/></g>
<g><path style="opacity:1" fill="#818181" d="M 305.5,40.5 C 308.152,40.4095 310.485,41.0762 312.5,42.5C 309.848,42.5905 307.515,41.9238 305.5,40.5 Z"/></g>
<g><path style="opacity:1" fill="#4e4e4e" d="M 336.5,41.5 C 339.491,41.1663 341.824,42.1663 343.5,44.5C 340.843,44.0652 338.509,43.0652 336.5,41.5 Z"/></g>
<g><path style="opacity:1" fill="#939393" d="M 158.5,43.5 C 156.967,45.2451 154.967,46.2451 152.5,46.5C 154.033,44.7549 156.033,43.7549 158.5,43.5 Z"/></g>
<g><path style="opacity:1" fill="#373737" d="M 191.5,41.5 C 187.915,43.8061 183.915,45.1394 179.5,45.5C 183.085,43.1939 187.085,41.8606 191.5,41.5 Z"/></g>
<g><path style="opacity:1" fill="#7d7d7d" d="M 375.5,44.5 C 377.027,44.427 378.027,45.0937 378.5,46.5C 376.973,46.573 375.973,45.9063 375.5,44.5 Z"/></g>
<g><path style="opacity:1" fill="#353535" d="M 177.5,45.5 C 174.267,48.6975 170.267,50.3642 165.5,50.5C 169.444,48.8391 173.444,47.1724 177.5,45.5 Z"/></g>
<g><path style="opacity:1" fill="#555555" d="M 165.5,50.5 C 164.105,52.3794 162.105,53.3794 159.5,53.5C 161.033,51.7549 163.033,50.7549 165.5,50.5 Z"/></g>
<g><path style="opacity:1" fill="#6e6e6e" d="M 366.5,56.5 C 368.027,56.427 369.027,57.0937 369.5,58.5C 367.973,58.573 366.973,57.9063 366.5,56.5 Z"/></g>
<g><path style="opacity:1" fill="#777777" d="M 143.5,61.5 C 142.329,62.3446 140.995,63.0113 139.5,63.5C 140.183,61.8235 141.517,61.1568 143.5,61.5 Z"/></g>
<g><path style="opacity:1" fill="#6c6c6c" d="M 51.5,118.5 C 51.573,120.027 50.9063,121.027 49.5,121.5C 49.427,119.973 50.0937,118.973 51.5,118.5 Z"/></g>
<g><path style="opacity:1" fill="#6b6b6b" d="M 428.5,126.5 C 429.906,126.973 430.573,127.973 430.5,129.5C 429.094,129.027 428.427,128.027 428.5,126.5 Z"/></g>
<g><path style="opacity:1" fill="#676767" d="M 68.5,130.5 C 68.3775,133.292 67.0442,135.292 64.5,136.5C 65.4486,134.223 66.7819,132.223 68.5,130.5 Z"/></g>
<g><path style="opacity:1" fill="#020111" d="M 248.5,130.5 C 246.927,124.307 245.594,117.973 244.5,111.5C 243.5,111.5 242.5,111.5 241.5,111.5C 241.333,123.838 241.5,136.171 242,148.5C 243.725,154.013 244.725,159.68 245,165.5C 246.184,168.942 247.35,172.275 248.5,175.5C 249.295,179.476 249.962,183.476 250.5,187.5C 249.25,187.423 248.417,186.756 248,185.5C 247.402,180.818 245.902,176.485 243.5,172.5C 244.011,169.52 243.511,166.52 242,163.5C 241.372,154.979 240.539,146.479 239.5,138C 240.403,128.005 240.737,118.172 240.5,108.5C 241.82,106.73 243.32,106.397 245,107.5C 245.085,111.471 246.085,115.138 248,118.5C 248.499,122.486 248.666,126.486 248.5,130.5 Z"/></g>
<g><path style="opacity:1" fill="#171536" d="M 248.5,130.5 C 250.911,142.817 254.244,154.817 258.5,166.5C 257.13,166.144 256.13,165.31 255.5,164C 254.815,161.205 254.315,158.372 254,155.5C 253.623,154.058 252.79,153.058 251.5,152.5C 248.65,142.421 246.483,132.088 245,121.5C 244.692,120.692 244.192,120.025 243.5,119.5C 242.108,135.465 243.608,151.132 248,166.5C 248.498,169.482 248.665,172.482 248.5,175.5C 247.35,172.275 246.184,168.942 245,165.5C 244.725,159.68 243.725,154.013 242,148.5C 241.5,136.171 241.333,123.838 241.5,111.5C 242.5,111.5 243.5,111.5 244.5,111.5C 245.594,117.973 246.927,124.307 248.5,130.5 Z"/></g>
<g><path style="opacity:1" fill="#6d6d6d" d="M 57.5,150.5 C 57.573,152.027 56.9063,153.027 55.5,153.5C 55.427,151.973 56.0937,150.973 57.5,150.5 Z"/></g>
<g><path style="opacity:1" fill="#525252" d="M 443.5,151.5 C 445.967,154.337 447.633,157.671 448.5,161.5C 447.094,159.526 445.594,157.526 444,155.5C 443.51,154.207 443.343,152.873 443.5,151.5 Z"/></g>
<g><path style="opacity:0.014" fill="#191919" d="M 226.5,-0.5 C 242.833,-0.5 259.167,-0.5 275.5,-0.5C 370.492,12.322 438.658,61.9886 480,148.5C 484.991,159.808 488.824,171.475 491.5,183.5C 480.205,145.237 461.372,111.237 435,81.5C 369.3,13.6856 289.8,-11.6478 196.5,5.5C 206.379,2.85375 216.379,0.853746 226.5,-0.5 Z"/></g>
<g><path style="opacity:1" fill="#9f9f9f" d="M 458.5,162.5 C 460.065,164.509 461.065,166.843 461.5,169.5C 459.166,167.824 458.166,165.491 458.5,162.5 Z"/></g>
<g><path style="opacity:1" fill="#6e1621" d="M 303.5,175.5 C 302.5,175.5 301.5,175.5 300.5,175.5C 300.528,173.418 299.861,171.584 298.5,170C 294.514,169.501 290.514,169.334 286.5,169.5C 286.5,171.5 286.5,173.5 286.5,175.5C 284.023,173.584 283.023,170.917 283.5,167.5C 288.844,167.334 294.177,167.501 299.5,168C 301.495,170.157 302.828,172.657 303.5,175.5 Z"/></g>
<g><path style="opacity:1" fill="#8e8e8e" d="M 461.5,169.5 C 463.204,172.939 464.538,176.605 465.5,180.5C 463.01,177.374 461.677,173.708 461.5,169.5 Z"/></g>
<g><path style="opacity:1" fill="#25215f" d="M 251.5,152.5 C 253.113,162.305 255.946,171.638 260,180.5C 263.869,187.157 267.535,193.824 271,200.5C 274.124,203.828 276.124,207.828 277,212.5C 281.75,216.285 284.417,221.285 285,227.5C 286.32,227.799 287.82,227.966 289.5,228C 294.06,232.069 298.726,235.902 303.5,239.5C 306.912,243.238 310.245,246.905 313.5,250.5C 309.442,247.954 305.776,244.787 302.5,241C 301.552,240.517 300.552,240.351 299.5,240.5C 299.396,243.919 298.229,246.919 296,249.5C 292.825,251.986 289.658,254.319 286.5,256.5C 284.428,251.986 282.095,247.653 279.5,243.5C 273.685,233.203 268.351,222.536 263.5,211.5C 262.675,210.614 261.675,210.281 260.5,210.5C 260.814,206.606 259.647,203.273 257,200.5C 256.667,197.5 256.333,194.5 256,191.5C 254.667,190.833 253.667,189.833 253,188.5C 251.687,184.58 250.687,180.58 250,176.5C 249.617,175.944 249.117,175.611 248.5,175.5C 248.665,172.482 248.498,169.482 248,166.5C 243.608,151.132 242.108,135.465 243.5,119.5C 244.192,120.025 244.692,120.692 245,121.5C 246.483,132.088 248.65,142.421 251.5,152.5 Z"/></g>
<g><path style="opacity:1" fill="#731921" d="M 286.5,175.5 C 291.024,182.548 295.024,189.881 298.5,197.5C 293.836,193.991 291.003,189.324 290,183.5C 287.058,181.672 285.891,179.005 286.5,175.5 Z"/></g>
<g><path style="opacity:1" fill="#1f1c47" d="M 251.5,152.5 C 252.79,153.058 253.623,154.058 254,155.5C 254.315,158.372 254.815,161.205 255.5,164C 256.13,165.31 257.13,166.144 258.5,166.5C 261.85,174.369 265.017,182.369 268,190.5C 270.483,194.224 273.15,197.891 276,201.5C 276.973,203.392 277.64,205.392 278,207.5C 282.125,212.452 285.625,217.785 288.5,223.5C 293.494,228.827 298.494,234.161 303.5,239.5C 298.726,235.902 294.06,232.069 289.5,228C 287.82,227.966 286.32,227.799 285,227.5C 284.417,221.285 281.75,216.285 277,212.5C 276.124,207.828 274.124,203.828 271,200.5C 267.535,193.824 263.869,187.157 260,180.5C 255.946,171.638 253.113,162.305 251.5,152.5 Z"/></g>
<g><path style="opacity:0.025" fill="#1d1d1d" d="M 23.5,146.5 C 20.6526,155.202 17.486,163.869 14,172.5C 12.0952,182.128 9.59517,191.462 6.5,200.5C 9.09574,181.425 14.7624,163.425 23.5,146.5 Z"/></g>
<g><path style="opacity:1" fill="#5d5d5d" d="M 42.5,186.5 C 41.9431,191.165 40.6098,195.498 38.5,199.5C 39.0569,194.835 40.3902,190.502 42.5,186.5 Z"/></g>
<g><path style="opacity:1" fill="#1f1b48" d="M 248.5,175.5 C 249.117,175.611 249.617,175.944 250,176.5C 250.687,180.58 251.687,184.58 253,188.5C 253.667,189.833 254.667,190.833 256,191.5C 256.333,194.5 256.667,197.5 257,200.5C 259.647,203.273 260.814,206.606 260.5,210.5C 261.675,210.281 262.675,210.614 263.5,211.5C 268.351,222.536 273.685,233.203 279.5,243.5C 274.28,237.418 269.78,230.751 266,223.5C 260.035,211.694 254.868,199.694 250.5,187.5C 249.962,183.476 249.295,179.476 248.5,175.5 Z"/></g>
<g><path style="opacity:1" fill="#741621" d="M 303.5,175.5 C 311.075,186.419 319.075,197.086 327.5,207.5C 318.415,199.918 310.582,191.251 304,181.5C 303.505,179.527 303.338,177.527 303.5,175.5 Z"/></g>
<g><path style="opacity:1" fill="#b91e2d" d="M 303.5,175.5 C 303.338,177.527 303.505,179.527 304,181.5C 310.582,191.251 318.415,199.918 327.5,207.5C 329.833,211.833 333.167,215.167 337.5,217.5C 339.53,219.537 341.196,221.87 342.5,224.5C 344.73,225.783 347.063,226.783 349.5,227.5C 351.925,231.045 355.258,233.045 359.5,233.5C 362.738,234.738 365.404,236.738 367.5,239.5C 364.381,237.949 361.048,236.949 357.5,236.5C 357.666,240.514 357.499,244.514 357,248.5C 353.247,251.919 349.747,255.586 346.5,259.5C 340.1,263.89 333.434,267.89 326.5,271.5C 328.5,269.5 330.5,267.5 332.5,265.5C 333.552,265.649 334.552,265.483 335.5,265C 339.08,262.723 342.414,260.223 345.5,257.5C 346.278,256.844 346.944,256.011 347.5,255C 347.43,254.235 347.097,253.735 346.5,253.5C 344.431,250.427 341.764,248.094 338.5,246.5C 336.5,244.167 334.5,241.833 332.5,239.5C 331.122,236.122 328.789,233.789 325.5,232.5C 325.512,228.554 323.512,226.887 319.5,227.5C 318.647,223.98 316.647,221.313 313.5,219.5C 308.96,212.389 303.96,205.722 298.5,199.5C 298.5,198.833 298.5,198.167 298.5,197.5C 295.024,189.881 291.024,182.548 286.5,175.5C 286.5,173.5 286.5,171.5 286.5,169.5C 290.514,169.334 294.514,169.501 298.5,170C 299.861,171.584 300.528,173.418 300.5,175.5C 301.5,175.5 302.5,175.5 303.5,175.5 Z"/></g>
<g><path style="opacity:0.329" fill="#3f3f3f" d="M 6.5,200.5 C 6.81277,204.042 6.47944,207.375 5.5,210.5C 5.16667,210.5 4.83333,210.5 4.5,210.5C 4.54877,206.922 5.21543,203.589 6.5,200.5 Z"/></g>
<g><path style="opacity:1" fill="#5a1217" d="M 327.5,207.5 C 331.167,210.5 334.5,213.833 337.5,217.5C 333.167,215.167 329.833,211.833 327.5,207.5 Z"/></g>
<g><path style="opacity:1" fill="#611218" d="M 298.5,199.5 C 303.96,205.722 308.96,212.389 313.5,219.5C 307.345,213.681 302.345,207.014 298.5,199.5 Z"/></g>
<g><path style="opacity:1" fill="#767676" d="M 471.5,203.5 C 473.136,207.21 473.802,211.21 473.5,215.5C 472.383,211.705 471.717,207.705 471.5,203.5 Z"/></g>
<g><path style="opacity:0.272" fill="#424242" d="M 4.5,210.5 C 4.83333,210.5 5.16667,210.5 5.5,210.5C 5.32046,215.936 4.65379,221.27 3.5,226.5C 3.16667,226.5 2.83333,226.5 2.5,226.5C 2.51822,221.044 3.18488,215.711 4.5,210.5 Z"/></g>
<g><path style="opacity:0.302" fill="#3a3a3a" d="M 496.5,205.5 C 497.663,210.137 498.663,214.804 499.5,219.5C 499.5,224.833 499.5,230.167 499.5,235.5C 498.095,225.682 497.095,215.682 496.5,205.5 Z"/></g>
<g><path style="opacity:1" fill="#3b0a0e" d="M 313.5,219.5 C 316.647,221.313 318.647,223.98 319.5,227.5C 317.983,227.489 316.816,226.823 316,225.5C 315.345,223.372 314.511,221.372 313.5,219.5 Z"/></g>
<g><path style="opacity:1" fill="#721721" d="M 337.5,217.5 C 341.543,220.856 345.543,224.189 349.5,227.5C 347.063,226.783 344.73,225.783 342.5,224.5C 341.196,221.87 339.53,219.537 337.5,217.5 Z"/></g>
<g><path style="opacity:1" fill="#631219" d="M 349.5,227.5 C 352.874,229.517 356.207,231.517 359.5,233.5C 355.258,233.045 351.925,231.045 349.5,227.5 Z"/></g>
<g><path style="opacity:1" fill="#8e8d90" d="M 114.5,233.5 C 109.167,233.5 103.833,233.5 98.5,233.5C 98.7373,234.791 98.404,235.791 97.5,236.5C 97.5,235.167 97.5,233.833 97.5,232.5C 103.358,232.178 109.025,232.511 114.5,233.5 Z"/></g>
<g><path style="opacity:1" fill="#757575" d="M 171.5,235.5 C 168.943,233.024 166.609,233.024 164.5,235.5C 163.596,234.791 163.263,233.791 163.5,232.5C 165.857,232.337 168.19,232.503 170.5,233C 171.252,233.671 171.586,234.504 171.5,235.5 Z"/></g>
<g><path style="opacity:1" fill="#868688" d="M 183.5,235.5 C 182.393,233.153 180.726,232.82 178.5,234.5C 179.918,232.692 181.918,232.025 184.5,232.5C 184.737,233.791 184.404,234.791 183.5,235.5 Z"/></g>
<g><path style="opacity:1" fill="#a1a1a3" d="M 224.5,253.5 C 224.5,252.833 224.5,252.167 224.5,251.5C 225.451,252.919 225.784,254.585 225.5,256.5C 226.833,256.5 228.167,256.5 229.5,256.5C 228.34,250.212 227.173,243.879 226,237.5C 224.713,234.855 222.547,233.855 219.5,234.5C 221.793,231.941 224.293,231.941 227,234.5C 228.074,242.282 229.574,249.949 231.5,257.5C 229.167,257.5 226.833,257.5 224.5,257.5C 224.5,256.167 224.5,254.833 224.5,253.5 Z"/></g>
<g><path style="opacity:1" fill="#7e7e80" d="M 255.5,235.5 C 255.38,234.414 254.713,233.747 253.5,233.5C 251.927,233.752 250.594,234.418 249.5,235.5C 250.594,234.418 251.927,233.752 253.5,233.5C 254.713,233.747 255.38,234.414 255.5,235.5 Z"/></g>
<g><path style="opacity:1" fill="#831e29" d="M 319.5,227.5 C 323.512,226.887 325.512,228.554 325.5,232.5C 328.789,233.789 331.122,236.122 332.5,239.5C 327.933,235.841 323.6,231.841 319.5,227.5 Z"/></g>
<g><path style="opacity:1" fill="#a5a5a8" d="M 245.5,240.5 C 244.749,241.573 243.749,241.74 242.5,241C 237.051,232.026 235.718,232.526 238.5,242.5C 236.215,239.665 234.882,236.332 234.5,232.5C 239.539,232.032 242.372,234.365 243,239.5C 243.671,240.252 244.504,240.586 245.5,240.5 Z"/></g>
<g><path style="opacity:1" fill="#8b8c8e" d="M 188.5,233.5 C 188.59,236.152 187.924,238.485 186.5,240.5C 186.41,237.848 187.076,235.515 188.5,233.5 Z"/></g>
<g><path style="opacity:1" fill="#626262" d="M 24.5,227.5 C 24.2253,244.195 24.5586,260.861 25.5,277.5C 24.7321,276.737 24.2321,275.737 24,274.5C 23.172,258.661 23.3387,242.995 24.5,227.5 Z"/></g>
<g><path style="opacity:1" fill="#7b7b7e" d="M 115.5,233.5 C 117.027,233.427 118.027,234.094 118.5,235.5C 118.806,238.385 118.473,241.052 117.5,243.5C 117.966,239.838 117.299,236.505 115.5,233.5 Z"/></g>
<g><path style="opacity:1" fill="#69696a" d="M 182.5,236.5 C 181.92,238.749 180.587,240.415 178.5,241.5C 179.08,239.251 180.413,237.585 182.5,236.5 Z"/></g>
<g><path style="opacity:1" fill="#e81d24" d="M 375.5,244.5 C 376.391,245.11 377.391,245.443 378.5,245.5C 378.414,246.496 378.748,247.329 379.5,248C 383.826,249.331 388.16,250.498 392.5,251.5C 394.663,252.469 396.996,253.302 399.5,254C 400.451,254.718 400.617,255.551 400,256.5C 395.35,258.44 390.517,260.107 385.5,261.5C 384.287,261.747 383.62,262.414 383.5,263.5C 378.852,264.662 374.186,265.829 369.5,267C 367.591,268.699 365.591,270.199 363.5,271.5C 358.536,273.646 353.536,275.813 348.5,278C 345.31,280.364 342.31,282.864 339.5,285.5C 338.167,285.833 336.833,286.167 335.5,286.5C 334.127,286.343 332.793,286.51 331.5,287C 316.837,295.332 302.837,304.666 289.5,315C 288,315.5 286.5,316 285,316.5C 280.251,320.124 275.418,323.624 270.5,327C 269.257,328.154 268.257,329.488 267.5,331C 263.945,332.025 260.945,334.025 258.5,337C 256.09,337.057 254.756,338.224 254.5,340.5C 249.167,344.833 243.833,349.167 238.5,353.5C 237.167,353.5 236.5,352.833 236.5,351.5C 246.806,340.86 257.139,330.193 267.5,319.5C 267.833,318.5 268.5,317.833 269.5,317.5C 272.354,315.491 275.354,313.657 278.5,312C 279.337,310.989 279.67,309.822 279.5,308.5C 283.107,308.621 285.273,306.955 286,303.5C 288.664,302.002 290.83,300.002 292.5,297.5C 299.054,295.79 304.054,291.956 307.5,286C 314.492,281.961 320.825,277.128 326.5,271.5C 333.434,267.89 340.1,263.89 346.5,259.5C 347.873,259.657 349.207,259.49 350.5,259C 353.296,256.039 356.296,253.206 359.5,250.5C 360.795,246.62 360.795,242.786 359.5,239C 363.646,239.308 367.313,240.975 370.5,244C 372.134,244.494 373.801,244.66 375.5,244.5 Z"/></g>
<g><path style="opacity:1" fill="#aeafb4" d="M 148.5,233.5 C 148.046,235.741 148.046,237.741 148.5,239.5C 148.064,241.746 147.397,243.913 146.5,246C 147.333,246.167 148.167,246.333 149,246.5C 150.376,246.316 151.209,245.649 151.5,244.5C 152.404,245.209 152.737,246.209 152.5,247.5C 150.167,247.5 147.833,247.5 145.5,247.5C 146.231,245.401 146.231,243.401 145.5,241.5C 144.482,242.193 143.482,242.859 142.5,243.5C 144.11,239.9 146.11,236.566 148.5,233.5 Z"/></g>
<g><path style="opacity:1" fill="#6a6b6d" d="M 97.5,236.5 C 97.3541,240.387 96.6874,244.054 95.5,247.5C 95.1164,243.511 95.783,239.845 97.5,236.5 Z"/></g>
<g><path style="opacity:1" fill="#dbdbde" d="M 189.5,253.5 C 188.596,254.209 188.263,255.209 188.5,256.5C 187.167,256.5 185.833,256.5 184.5,256.5C 184.993,254.194 185.326,251.861 185.5,249.5C 185.264,246.391 185.597,243.391 186.5,240.5C 187.924,238.485 188.59,236.152 188.5,233.5C 193.316,232.35 198.316,232.184 203.5,233C 206.761,233.426 208.428,235.259 208.5,238.5C 208.437,242.528 206.771,245.695 203.5,248C 198.964,249.379 194.297,249.879 189.5,249.5C 189.5,250.833 189.5,252.167 189.5,253.5 Z"/></g>
<g><path style="opacity:1" fill="#101013" d="M 192.5,237.5 C 195.833,237.5 199.167,237.5 202.5,237.5C 202.946,240.01 202.28,242.01 200.5,243.5C 197.833,243.5 195.167,243.5 192.5,243.5C 192.5,241.5 192.5,239.5 192.5,237.5 Z"/></g>
<g><path style="opacity:0.306" fill="#4e4e4e" d="M 2.5,226.5 C 2.83333,226.5 3.16667,226.5 3.5,226.5C 2.79801,248.268 3.79801,269.935 6.5,291.5C 6.16667,291.5 5.83333,291.5 5.5,291.5C 3.74437,285.074 2.57771,278.408 2,271.5C 1.18424,256.426 1.35091,241.426 2.5,226.5 Z"/></g>
<g><path style="opacity:1" fill="#26272a" d="M 118.5,235.5 C 119.167,237.5 119.833,239.5 120.5,241.5C 119.728,245.452 119.395,249.452 119.5,253.5C 118.532,251.393 118.198,249.059 118.5,246.5C 117.5,246.5 116.5,246.5 115.5,246.5C 115.427,244.973 116.094,243.973 117.5,243.5C 118.473,241.052 118.806,238.385 118.5,235.5 Z"/></g>
<g><path style="opacity:1" fill="#1f2023" d="M 148.5,239.5 C 151.084,240.048 152.084,241.715 151.5,244.5C 151.209,245.649 150.376,246.316 149,246.5C 148.167,246.333 147.333,246.167 146.5,246C 147.397,243.913 148.064,241.746 148.5,239.5 Z"/></g>
<g><path style="opacity:1" fill="#58595c" d="M 192.5,237.5 C 192.5,239.5 192.5,241.5 192.5,243.5C 195.167,243.5 197.833,243.5 200.5,243.5C 197.713,244.477 194.713,244.81 191.5,244.5C 191.198,241.941 191.532,239.607 192.5,237.5 Z"/></g>
<g><path style="opacity:1" fill="#ebecef" d="M 255.5,235.5 C 249.78,239.878 246.113,245.544 244.5,252.5C 243.609,253.261 242.942,254.261 242.5,255.5C 241.675,256.386 240.675,256.719 239.5,256.5C 239.5,254.5 239.5,252.5 239.5,250.5C 240.152,249.551 240.486,248.385 240.5,247C 240.693,244.992 240.026,243.492 238.5,242.5C 235.718,232.526 237.051,232.026 242.5,241C 243.749,241.74 244.749,241.573 245.5,240.5C 247.587,239.415 248.92,237.749 249.5,235.5C 250.594,234.418 251.927,233.752 253.5,233.5C 254.713,233.747 255.38,234.414 255.5,235.5 Z"/></g>
<g><path style="opacity:1" fill="#89898b" d="M 249.5,235.5 C 248.92,237.749 247.587,239.415 245.5,240.5C 246.08,238.251 247.413,236.585 249.5,235.5 Z"/></g>
<g><path style="opacity:1" fill="#939499" d="M 215.5,240.5 C 215.408,242.848 214.408,244.514 212.5,245.5C 212.75,243.326 213.75,241.659 215.5,240.5 Z"/></g>
<g><path style="opacity:1" fill="#d5d5d9" d="M 219.5,234.5 C 219.5,235.5 219.5,236.5 219.5,237.5C 220.833,237.5 222.167,237.5 223.5,237.5C 223.5,238.5 223.5,239.5 223.5,240.5C 222.292,239.766 220.959,239.433 219.5,239.5C 218.361,242.004 217.694,244.67 217.5,247.5C 219.5,247.5 221.5,247.5 223.5,247.5C 220.695,248.319 217.695,248.819 214.5,249C 217.952,249.885 221.286,250.718 224.5,251.5C 220.629,251.185 216.962,251.518 213.5,252.5C 212.412,256.868 209.745,258.201 205.5,256.5C 207.499,252.525 209.832,248.859 212.5,245.5C 214.408,244.514 215.408,242.848 215.5,240.5C 216.34,238.147 217.674,236.147 219.5,234.5 Z"/></g>
<g><path style="opacity:1" fill="#5a070d" d="M 374.5,242.5 C 376.967,242.755 378.967,243.755 380.5,245.5C 379.833,245.5 379.167,245.5 378.5,245.5C 377.391,245.443 376.391,245.11 375.5,244.5C 375.167,243.833 374.833,243.167 374.5,242.5 Z"/></g>
<g><path style="opacity:1" fill="#5e5f63" d="M 223.5,240.5 C 223.5,242.833 223.5,245.167 223.5,247.5C 221.5,247.5 219.5,247.5 217.5,247.5C 217.694,244.67 218.361,242.004 219.5,239.5C 220.959,239.433 222.292,239.766 223.5,240.5 Z"/></g>
<g><path style="opacity:1" fill="#0d0e12" d="M 220.5,240.5 C 222.28,241.99 222.946,243.99 222.5,246.5C 221.022,246.762 219.689,246.429 218.5,245.5C 219.95,244.15 220.617,242.484 220.5,240.5 Z"/></g>
<g><path style="opacity:1" fill="#e4e5e8" d="M 114.5,233.5 C 114.833,233.5 115.167,233.5 115.5,233.5C 117.299,236.505 117.966,239.838 117.5,243.5C 116.094,243.973 115.427,244.973 115.5,246.5C 110.623,249.252 105.29,250.252 99.5,249.5C 99.634,251.292 99.3007,252.958 98.5,254.5C 97.5267,255.984 96.1933,256.484 94.5,256C 95.4438,253.281 95.7771,250.448 95.5,247.5C 96.6874,244.054 97.3541,240.387 97.5,236.5C 98.404,235.791 98.7373,234.791 98.5,233.5C 103.833,233.5 109.167,233.5 114.5,233.5 Z"/></g>
<g><path style="opacity:1" fill="#1b1b1e" d="M 111.5,237.5 C 112.807,239.223 112.807,241.057 111.5,243C 108.312,244.316 104.978,244.816 101.5,244.5C 101.5,242.833 101.5,241.167 101.5,239.5C 104.488,237.727 107.821,237.06 111.5,237.5 Z"/></g>
<g><path style="opacity:1" fill="#959499" d="M 111.5,237.5 C 107.821,237.06 104.488,237.727 101.5,239.5C 101.5,238.5 101.5,237.5 101.5,236.5C 105.042,236.187 108.375,236.521 111.5,237.5 Z"/></g>
<g><path style="opacity:1" fill="#4d0b12" d="M 338.5,246.5 C 341.764,248.094 344.431,250.427 346.5,253.5C 343.236,251.906 340.569,249.573 338.5,246.5 Z"/></g>
<g><path style="opacity:1" fill="#2a3485" d="M 313.5,250.5 C 314.473,252.149 315.473,253.816 316.5,255.5C 316.333,256.167 316.167,256.833 316,257.5C 311.623,259.2 308.123,261.867 305.5,265.5C 299.848,270.325 293.848,274.658 287.5,278.5C 284.429,280.898 281.095,282.898 277.5,284.5C 279.707,282.554 281.707,280.388 283.5,278C 284.833,277.667 286.167,277.333 287.5,277C 289.395,274.194 291.728,271.86 294.5,270C 293.833,269.667 293.167,269.333 292.5,269C 295.285,268.342 297.951,267.509 300.5,266.5C 300.617,264.516 299.95,262.85 298.5,261.5C 300.781,257.431 302.115,257.764 302.5,262.5C 303.5,262.5 304.5,262.5 305.5,262.5C 305.214,260.723 304.547,259.056 303.5,257.5C 303.919,256.328 304.585,255.328 305.5,254.5C 304.609,253.41 303.609,253.41 302.5,254.5C 300.953,251.386 298.62,250.886 295.5,253C 292.603,254.715 291.269,257.215 291.5,260.5C 288.545,261.159 285.545,261.492 282.5,261.5C 283.833,259.833 285.167,258.167 286.5,256.5C 289.658,254.319 292.825,251.986 296,249.5C 298.229,246.919 299.396,243.919 299.5,240.5C 300.552,240.351 301.552,240.517 302.5,241C 305.776,244.787 309.442,247.954 313.5,250.5 Z"/></g>
<g><path style="opacity:1" fill="#9e1c23" d="M 378.5,245.5 C 379.167,245.5 379.833,245.5 380.5,245.5C 384.789,246.978 388.789,248.978 392.5,251.5C 388.16,250.498 383.826,249.331 379.5,248C 378.748,247.329 378.414,246.496 378.5,245.5 Z"/></g>
<g><path style="opacity:1" fill="#cacacd" d="M 126.5,252.5 C 129.625,253.479 132.958,253.813 136.5,253.5C 136.631,254.376 136.298,255.043 135.5,255.5C 130.869,254.97 126.369,253.97 122,252.5C 121.517,253.448 121.351,254.448 121.5,255.5C 120.5,255.167 119.833,254.5 119.5,253.5C 119.395,249.452 119.728,245.452 120.5,241.5C 120.5,240.833 120.833,240.5 121.5,240.5C 121.833,237.833 122.167,235.167 122.5,232.5C 124.167,232.5 125.833,232.5 127.5,232.5C 127.225,237.876 126.559,243.209 125.5,248.5C 125.511,250.045 125.844,251.378 126.5,252.5 Z"/></g>
<g><path style="opacity:1" fill="#f5f6f9" d="M 121.5,240.5 C 122.482,238.594 123.482,236.594 124.5,234.5C 126.024,239.787 125.357,244.787 122.5,249.5C 121.516,246.572 121.183,243.572 121.5,240.5 Z"/></g>
<g><path style="opacity:1" fill="#a8a7ab" d="M 142.5,243.5 C 142.08,245.094 141.414,246.594 140.5,248C 140.645,248.772 140.978,249.439 141.5,250C 145.356,250.177 149.023,250.677 152.5,251.5C 148.351,250.92 144.684,251.586 141.5,253.5C 141.461,254.583 141.127,255.583 140.5,256.5C 134.528,257.664 128.528,257.83 122.5,257C 121.944,256.617 121.611,256.117 121.5,255.5C 127.477,256.747 133.477,256.747 139.5,255.5C 140.485,253.902 140.651,252.235 140,250.5C 139.28,252.056 138.113,253.056 136.5,253.5C 132.958,253.813 129.625,253.479 126.5,252.5C 129.85,252.665 133.183,252.498 136.5,252C 138.237,248.883 140.237,246.049 142.5,243.5 Z"/></g>
<g><path style="opacity:1" fill="#98999d" d="M 238.5,242.5 C 240.026,243.492 240.693,244.992 240.5,247C 240.486,248.385 240.152,249.551 239.5,250.5C 239.599,247.763 239.265,245.096 238.5,242.5 Z"/></g>
<g><path style="opacity:1" fill="#f2f3f6" d="M 219.5,234.5 C 222.547,233.855 224.713,234.855 226,237.5C 227.173,243.879 228.34,250.212 229.5,256.5C 228.167,256.5 226.833,256.5 225.5,256.5C 225.784,254.585 225.451,252.919 224.5,251.5C 221.286,250.718 217.952,249.885 214.5,249C 217.695,248.819 220.695,248.319 223.5,247.5C 223.5,245.167 223.5,242.833 223.5,240.5C 223.5,239.5 223.5,238.5 223.5,237.5C 222.167,237.5 220.833,237.5 219.5,237.5C 219.5,236.5 219.5,235.5 219.5,234.5 Z"/></g>
<g><path style="opacity:1" fill="#535457" d="M 152.5,251.5 C 153.338,251.842 153.672,252.508 153.5,253.5C 149.5,252.167 145.5,252.167 141.5,253.5C 144.684,251.586 148.351,250.92 152.5,251.5 Z"/></g>
<g><path style="opacity:1" fill="#e8e8eb" d="M 157.5,248.5 C 157.674,250.861 158.007,253.194 158.5,255.5C 162.395,254.607 165.062,252.274 166.5,248.5C 166.833,247.833 167.167,247.167 167.5,246.5C 168.147,245.726 168.48,244.726 168.5,243.5C 168.66,241.645 167.993,240.312 166.5,239.5C 166.34,237.847 165.674,236.514 164.5,235.5C 166.609,233.024 168.943,233.024 171.5,235.5C 171.222,237.346 171.889,238.68 173.5,239.5C 174.855,237.479 176.521,235.812 178.5,234.5C 180.726,232.82 182.393,233.153 183.5,235.5C 182.833,235.5 182.5,235.833 182.5,236.5C 180.413,237.585 179.08,239.251 178.5,241.5C 176.978,242.191 175.978,243.358 175.5,245C 176.391,247.279 177.391,249.446 178.5,251.5C 178.286,253.144 178.62,254.644 179.5,256C 178.833,256.167 178.167,256.333 177.5,256.5C 175.959,255.714 174.626,254.714 173.5,253.5C 173.5,253.167 173.5,252.833 173.5,252.5C 173.585,251.005 172.919,250.005 171.5,249.5C 169.062,250.931 167.396,252.931 166.5,255.5C 165.833,255.5 165.5,255.833 165.5,256.5C 161.173,256.984 157.173,256.318 153.5,254.5C 153.5,254.167 153.5,253.833 153.5,253.5C 153.672,252.508 153.338,251.842 152.5,251.5C 149.023,250.677 145.356,250.177 141.5,250C 140.978,249.439 140.645,248.772 140.5,248C 141.414,246.594 142.08,245.094 142.5,243.5C 143.482,242.859 144.482,242.193 145.5,241.5C 146.231,243.401 146.231,245.401 145.5,247.5C 147.833,247.5 150.167,247.5 152.5,247.5C 152.737,246.209 152.404,245.209 151.5,244.5C 152.084,241.715 151.084,240.048 148.5,239.5C 148.046,237.741 148.046,235.741 148.5,233.5C 150.265,232.539 152.265,232.205 154.5,232.5C 155.711,237.764 156.711,243.097 157.5,248.5 Z"/></g>
<g><path style="opacity:1" fill="#535355" d="M 166.5,239.5 C 167.993,240.312 168.66,241.645 168.5,243.5C 168.48,244.726 168.147,245.726 167.5,246.5C 167.552,244.097 167.219,241.764 166.5,239.5 Z"/></g>
<g><path style="opacity:1" fill="#4f4e53" d="M 213.5,252.5 C 216.962,251.518 220.629,251.185 224.5,251.5C 224.5,252.167 224.5,252.833 224.5,253.5C 220.936,252.577 217.269,252.244 213.5,252.5 Z"/></g>
<g><path style="opacity:1" fill="#929396" d="M 157.5,248.5 C 158.304,250.189 159.304,251.855 160.5,253.5C 162.519,251.81 164.519,250.144 166.5,248.5C 165.062,252.274 162.395,254.607 158.5,255.5C 158.007,253.194 157.674,250.861 157.5,248.5 Z"/></g>
<g><path style="opacity:1" fill="#d21c26" d="M 367.5,239.5 C 369.98,240.242 372.313,241.242 374.5,242.5C 374.833,243.167 375.167,243.833 375.5,244.5C 373.801,244.66 372.134,244.494 370.5,244C 367.313,240.975 363.646,239.308 359.5,239C 360.795,242.786 360.795,246.62 359.5,250.5C 356.296,253.206 353.296,256.039 350.5,259C 349.207,259.49 347.873,259.657 346.5,259.5C 349.747,255.586 353.247,251.919 357,248.5C 357.499,244.514 357.666,240.514 357.5,236.5C 361.048,236.949 364.381,237.949 367.5,239.5 Z"/></g>
<g><path style="opacity:1" fill="#5f6064" d="M 173.5,252.5 C 172.85,252.196 172.183,251.863 171.5,251.5C 169.814,252.857 168.148,254.19 166.5,255.5C 167.396,252.931 169.062,250.931 171.5,249.5C 172.919,250.005 173.585,251.005 173.5,252.5 Z"/></g>
<g><path style="opacity:1" fill="#f4f4f7" d="M 121.5,255.5 C 121.351,254.448 121.517,253.448 122,252.5C 126.369,253.97 130.869,254.97 135.5,255.5C 136.298,255.043 136.631,254.376 136.5,253.5C 138.113,253.056 139.28,252.056 140,250.5C 140.651,252.235 140.485,253.902 139.5,255.5C 133.477,256.747 127.477,256.747 121.5,255.5 Z"/></g>
<g><path style="opacity:1" fill="#868788" d="M 185.5,249.5 C 185.326,251.861 184.993,254.194 184.5,256.5C 185.833,256.5 187.167,256.5 188.5,256.5C 188.263,255.209 188.596,254.209 189.5,253.5C 189.5,254.833 189.5,256.167 189.5,257.5C 187.5,257.5 185.5,257.5 183.5,257.5C 183.294,254.505 183.96,251.838 185.5,249.5 Z"/></g>
<g><path style="opacity:1" fill="#9fa0a2" d="M 95.5,247.5 C 95.7771,250.448 95.4438,253.281 94.5,256C 96.1933,256.484 97.5267,255.984 98.5,254.5C 98.5,255.5 98.5,256.5 98.5,257.5C 96.8333,257.5 95.1667,257.5 93.5,257.5C 93.7526,253.96 94.4192,250.627 95.5,247.5 Z"/></g>
<g><path style="opacity:1" fill="#a8a8ac" d="M 153.5,254.5 C 157.173,256.318 161.173,256.984 165.5,256.5C 161.702,257.483 157.702,257.817 153.5,257.5C 153.5,256.5 153.5,255.5 153.5,254.5 Z"/></g>
<g><path style="opacity:1" fill="#a1a1a4" d="M 178.5,251.5 C 180.074,253.102 180.741,255.102 180.5,257.5C 178.396,257.799 176.396,257.466 174.5,256.5C 173.873,255.583 173.539,254.583 173.5,253.5C 174.626,254.714 175.959,255.714 177.5,256.5C 178.167,256.333 178.833,256.167 179.5,256C 178.62,254.644 178.286,253.144 178.5,251.5 Z"/></g>
<g><path style="opacity:1" fill="#908f92" d="M 239.5,250.5 C 239.5,252.5 239.5,254.5 239.5,256.5C 240.675,256.719 241.675,256.386 242.5,255.5C 242.942,254.261 243.609,253.261 244.5,252.5C 244.5,254.167 244.5,255.833 244.5,257.5C 242.5,257.5 240.5,257.5 238.5,257.5C 238.198,254.941 238.532,252.607 239.5,250.5 Z"/></g>
<g><path style="opacity:1" fill="#55050b" d="M 345.5,257.5 C 342.414,260.223 339.08,262.723 335.5,265C 334.552,265.483 333.552,265.649 332.5,265.5C 336.323,262.084 340.657,259.418 345.5,257.5 Z"/></g>
<g><path style="opacity:1" fill="#80191d" d="M 392.5,251.5 C 397.034,251.267 401.368,252.1 405.5,254C 406.337,255.011 406.67,256.178 406.5,257.5C 398.647,258.754 390.98,260.754 383.5,263.5C 383.62,262.414 384.287,261.747 385.5,261.5C 390.517,260.107 395.35,258.44 400,256.5C 400.617,255.551 400.451,254.718 399.5,254C 396.996,253.302 394.663,252.469 392.5,251.5 Z"/></g>
<g><path style="opacity:1" fill="#191e4c" d="M 313.5,250.5 C 317.443,251.536 319.11,253.87 318.5,257.5C 314.278,260.44 309.945,263.106 305.5,265.5C 308.123,261.867 311.623,259.2 316,257.5C 316.167,256.833 316.333,256.167 316.5,255.5C 315.473,253.816 314.473,252.149 313.5,250.5 Z"/></g>
<g><path style="opacity:1" fill="#111840" d="M 286.5,256.5 C 285.167,258.167 283.833,259.833 282.5,261.5C 279.868,263.113 277.202,264.78 274.5,266.5C 267.173,273.494 259.839,280.494 252.5,287.5C 261.985,275.009 273.319,264.675 286.5,256.5 Z"/></g>
<g><path style="opacity:1" fill="#a41c24" d="M 383.5,263.5 C 381.819,265.008 379.819,266.008 377.5,266.5C 373.497,267.168 370.164,268.834 367.5,271.5C 367.167,271.5 366.833,271.5 366.5,271.5C 365.5,271.5 364.5,271.5 363.5,271.5C 365.591,270.199 367.591,268.699 369.5,267C 374.186,265.829 378.852,264.662 383.5,263.5 Z"/></g>
<g><path style="opacity:1" fill="#4e0509" d="M 332.5,265.5 C 330.5,267.5 328.5,269.5 326.5,271.5C 322.993,273.754 319.327,275.754 315.5,277.5C 320.632,272.765 326.299,268.765 332.5,265.5 Z"/></g>
<g><path style="opacity:1" fill="#4f070a" d="M 377.5,266.5 C 374.511,268.661 371.178,270.328 367.5,271.5C 370.164,268.834 373.497,267.168 377.5,266.5 Z"/></g>
<g><path style="opacity:1" fill="#2a368d" d="M 277.5,284.5 C 273.02,287.129 269.687,290.796 267.5,295.5C 266.833,295.5 266.167,295.5 265.5,295.5C 262.975,297.177 260.309,298.677 257.5,300C 256.833,301 256.167,302 255.5,303C 251.848,303.499 248.182,303.665 244.5,303.5C 244.914,300.257 245.914,297.257 247.5,294.5C 250.483,293.349 252.65,291.349 254,288.5C 263.153,278.839 272.653,269.839 282.5,261.5C 285.545,261.492 288.545,261.159 291.5,260.5C 291.269,257.215 292.603,254.715 295.5,253C 298.62,250.886 300.953,251.386 302.5,254.5C 303.609,253.41 304.609,253.41 305.5,254.5C 304.585,255.328 303.919,256.328 303.5,257.5C 304.547,259.056 305.214,260.723 305.5,262.5C 304.5,262.5 303.5,262.5 302.5,262.5C 302.115,257.764 300.781,257.431 298.5,261.5C 299.95,262.85 300.617,264.516 300.5,266.5C 297.951,267.509 295.285,268.342 292.5,269C 293.167,269.333 293.833,269.667 294.5,270C 291.728,271.86 289.395,274.194 287.5,277C 286.167,277.333 284.833,277.667 283.5,278C 281.707,280.388 279.707,282.554 277.5,284.5 Z"/></g>
<g><path style="opacity:0.024" fill="#292929" d="M 499.5,260.5 C 499.5,266.5 499.5,272.5 499.5,278.5C 498.833,280.5 498.167,282.5 497.5,284.5C 497.899,276.33 498.565,268.33 499.5,260.5 Z"/></g>
<g><path style="opacity:1" fill="#2b0300" d="M 365.5,272.5 C 362.844,275.289 359.511,276.956 355.5,277.5C 358.579,275.464 361.912,273.798 365.5,272.5 Z"/></g>
<g><path style="opacity:1" fill="#7d141a" d="M 363.5,271.5 C 364.5,271.5 365.5,271.5 366.5,271.5C 366.5,272.167 366.167,272.5 365.5,272.5C 361.912,273.798 358.579,275.464 355.5,277.5C 349.996,279.99 344.663,282.657 339.5,285.5C 342.31,282.864 345.31,280.364 348.5,278C 353.536,275.813 358.536,273.646 363.5,271.5 Z"/></g>
<g><path style="opacity:1" fill="#474747" d="M 465.5,280.5 C 465.749,284.458 465.082,288.124 463.5,291.5C 463.646,287.613 464.313,283.946 465.5,280.5 Z"/></g>
<g><path style="opacity:1" fill="#0f173e" d="M 287.5,278.5 C 285.177,282.324 281.844,284.657 277.5,285.5C 277.649,286.552 277.483,287.552 277,288.5C 273.537,290.476 270.37,292.81 267.5,295.5C 269.687,290.796 273.02,287.129 277.5,284.5C 281.095,282.898 284.429,280.898 287.5,278.5 Z"/></g>
<g><path style="opacity:1" fill="#11183e" d="M 252.5,287.5 C 251.189,290.135 249.522,292.469 247.5,294.5C 246.833,294.833 246.167,295.167 245.5,295.5C 247.02,292.212 249.353,289.546 252.5,287.5 Z"/></g>
<g><path style="opacity:1" fill="#2a3275" d="M 282.5,261.5 C 272.653,269.839 263.153,278.839 254,288.5C 252.65,291.349 250.483,293.349 247.5,294.5C 249.522,292.469 251.189,290.135 252.5,287.5C 259.839,280.494 267.173,273.494 274.5,266.5C 277.202,264.78 279.868,263.113 282.5,261.5 Z"/></g>
<g><path style="opacity:1" fill="#bf2129" d="M 326.5,271.5 C 320.825,277.128 314.492,281.961 307.5,286C 304.054,291.956 299.054,295.79 292.5,297.5C 300.167,290.833 307.833,284.167 315.5,277.5C 319.327,275.754 322.993,273.754 326.5,271.5 Z"/></g>
<g><path style="opacity:1" fill="#5d0910" d="M 339.5,285.5 C 331.706,290.744 323.706,295.91 315.5,301C 314.207,301.49 312.873,301.657 311.5,301.5C 319.5,296.5 327.5,291.5 335.5,286.5C 336.833,286.167 338.167,285.833 339.5,285.5 Z"/></g>
<g><path style="opacity:0.098" fill="#2f2f2f" d="M 497.5,285.5 C 496.964,294.178 495.298,302.512 492.5,310.5C 493.643,301.952 495.31,293.618 497.5,285.5 Z"/></g>
<g><path style="opacity:1" fill="#262e6e" d="M 247.5,294.5 C 245.914,297.257 244.914,300.257 244.5,303.5C 248.182,303.665 251.848,303.499 255.5,303C 256.167,302 256.833,301 257.5,300C 260.309,298.677 262.975,297.177 265.5,295.5C 262.694,298.728 259.694,301.728 256.5,304.5C 250.925,305.452 245.259,305.786 239.5,305.5C 239.5,304.5 239.5,303.5 239.5,302.5C 241.727,300.393 243.727,298.06 245.5,295.5C 246.167,295.167 246.833,294.833 247.5,294.5 Z"/></g>
<g><path style="opacity:1" fill="#58090d" d="M 315.5,277.5 C 307.833,284.167 300.167,290.833 292.5,297.5C 283.808,303.009 276.142,309.675 269.5,317.5C 268.5,317.833 267.833,318.5 267.5,319.5C 261.222,324.44 255.222,329.773 249.5,335.5C 249.369,334.761 249.536,334.094 250,333.5C 270.204,312.786 292.037,294.119 315.5,277.5 Z"/></g>
<g><path style="opacity:1" fill="#660b11" d="M 311.5,301.5 C 309.557,304.471 306.891,306.471 303.5,307.5C 305.8,305.016 308.467,303.016 311.5,301.5 Z"/></g>
<g><path style="opacity:1" fill="#3f3f3f" d="M 471.5,301.5 C 470.939,306.176 469.606,310.509 467.5,314.5C 468.078,309.835 469.411,305.501 471.5,301.5 Z"/></g>
<g><path style="opacity:1" fill="#0b0f29" d="M 239.5,302.5 C 239.5,303.5 239.5,304.5 239.5,305.5C 245.259,305.786 250.925,305.452 256.5,304.5C 256.586,305.496 256.252,306.329 255.5,307C 250.167,307.667 244.833,307.667 239.5,307C 238.199,305.384 238.199,303.884 239.5,302.5 Z"/></g>
<g><path style="opacity:1" fill="#bb2229" d="M 335.5,286.5 C 327.5,291.5 319.5,296.5 311.5,301.5C 308.467,303.016 305.8,305.016 303.5,307.5C 291.816,313.343 281.149,320.676 271.5,329.5C 269.122,331.878 266.455,333.878 263.5,335.5C 260.688,337.408 257.688,339.075 254.5,340.5C 254.756,338.224 256.09,337.057 258.5,337C 260.945,334.025 263.945,332.025 267.5,331C 268.257,329.488 269.257,328.154 270.5,327C 275.418,323.624 280.251,320.124 285,316.5C 286.5,316 288,315.5 289.5,315C 302.837,304.666 316.837,295.332 331.5,287C 332.793,286.51 334.127,286.343 335.5,286.5 Z"/></g>
<g><path style="opacity:1" fill="#c12226" d="M 292.5,297.5 C 290.83,300.002 288.664,302.002 286,303.5C 285.273,306.955 283.107,308.621 279.5,308.5C 279.67,309.822 279.337,310.989 278.5,312C 275.354,313.657 272.354,315.491 269.5,317.5C 276.142,309.675 283.808,303.009 292.5,297.5 Z"/></g>
<g><path style="opacity:0.059" fill="#242424" d="M 5.5,291.5 C 5.83333,291.5 6.16667,291.5 6.5,291.5C 9.70661,310.612 15.2066,328.945 23,346.5C 23.4935,348.134 23.6602,349.801 23.5,351.5C 14.5036,332.502 8.50361,312.502 5.5,291.5 Z"/></g>
<g><path style="opacity:1" fill="#999999" d="M 39.5,306.5 C 40.9238,308.515 41.5905,310.848 41.5,313.5C 40.0762,311.485 39.4095,309.152 39.5,306.5 Z"/></g>
<g><path style="opacity:1" fill="#9c9c9c" d="M 460.5,307.5 C 460.741,309.898 460.074,311.898 458.5,313.5C 458.259,311.102 458.926,309.102 460.5,307.5 Z"/></g>
<g><path style="opacity:0.021" fill="#1e1e1e" d="M 492.5,310.5 C 492.483,314.534 491.483,318.201 489.5,321.5C 489.682,317.511 490.682,313.844 492.5,310.5 Z"/></g>
<g><path style="opacity:1" fill="#9e9e9e" d="M 41.5,313.5 C 43.0739,315.102 43.7406,317.102 43.5,319.5C 41.9261,317.898 41.2594,315.898 41.5,313.5 Z"/></g>
<g><path style="opacity:1" fill="#670d12" d="M 303.5,307.5 C 294.193,314.238 284.859,321.072 275.5,328C 274.255,328.791 272.922,329.291 271.5,329.5C 281.149,320.676 291.816,313.343 303.5,307.5 Z"/></g>
<g><path style="opacity:1" fill="#730f15" d="M 263.5,335.5 C 259.966,338.438 256.633,341.604 253.5,345C 249.044,346.263 245.711,348.93 243.5,353C 239.325,355.689 235.325,358.523 231.5,361.5C 233.782,358.878 236.115,356.212 238.5,353.5C 243.833,349.167 249.167,344.833 254.5,340.5C 257.688,339.075 260.688,337.408 263.5,335.5 Z"/></g>
<g><path style="opacity:1" fill="#9f1a20" d="M 267.5,319.5 C 257.139,330.193 246.806,340.86 236.5,351.5C 238.14,348.851 239.807,346.184 241.5,343.5C 241.369,342.761 241.536,342.094 242,341.5C 244.312,339.132 246.812,337.132 249.5,335.5C 255.222,329.773 261.222,324.44 267.5,319.5 Z"/></g>
<g><path style="opacity:1" fill="#909090" d="M 448.5,340.5 C 448.345,343.868 447.012,346.535 444.5,348.5C 445.541,345.609 446.874,342.942 448.5,340.5 Z"/></g>
<g><path style="opacity:1" fill="#5a0a0d" d="M 241.5,343.5 C 239.807,346.184 238.14,348.851 236.5,351.5C 234.833,352.833 233.167,354.167 231.5,355.5C 233.912,350.641 237.245,346.641 241.5,343.5 Z"/></g>
<g><path style="opacity:1" fill="#898989" d="M 54.5,345.5 C 55.4918,347.456 56.4918,349.456 57.5,351.5C 55.0246,350.313 54.0246,348.313 54.5,345.5 Z"/></g>
<g><path style="opacity:1" fill="#ab232a" d="M 236.5,351.5 C 236.5,352.833 237.167,353.5 238.5,353.5C 236.115,356.212 233.782,358.878 231.5,361.5C 229.956,361.703 228.622,362.37 227.5,363.5C 227.167,363.167 226.833,362.833 226.5,362.5C 227.931,359.961 229.597,357.628 231.5,355.5C 233.167,354.167 234.833,352.833 236.5,351.5 Z"/></g>
<g><path style="opacity:1" fill="#511015" d="M 231.5,355.5 C 229.597,357.628 227.931,359.961 226.5,362.5C 226.833,362.833 227.167,363.167 227.5,363.5C 228.622,362.37 229.956,361.703 231.5,361.5C 228.899,364.777 225.565,366.777 221.5,367.5C 221.351,366.448 221.517,365.448 222,364.5C 225.109,361.218 228.276,358.218 231.5,355.5 Z"/></g>
<g><path style="opacity:0.041" fill="#1e1e1e" d="M 489.5,321.5 C 482.28,347.936 470.78,372.27 455,394.5C 448.333,403.167 441.667,411.833 435,420.5C 430.959,424.047 426.792,427.38 422.5,430.5C 429.714,422.109 437.214,413.775 445,405.5C 464.296,379.91 479.129,351.91 489.5,321.5 Z"/></g>
<g><path style="opacity:1" fill="#969696" d="M 435.5,365.5 C 435.155,368.198 433.822,370.198 431.5,371.5C 432.34,369.147 433.674,367.147 435.5,365.5 Z"/></g>
<g><path style="opacity:0.075" fill="#242424" d="M 23.5,351.5 C 39.0632,381.909 59.0632,409.242 83.5,433.5C 57.1712,410.861 37.1712,383.528 23.5,351.5 Z"/></g>
<g><path style="opacity:1" fill="#676767" d="M 121.5,426.5 C 123.027,426.427 124.027,427.094 124.5,428.5C 122.973,428.573 121.973,427.906 121.5,426.5 Z"/></g>
<g><path style="opacity:1" fill="#474747" d="M 134.5,435.5 C 137.546,435.725 139.879,437.058 141.5,439.5C 138.9,438.532 136.566,437.199 134.5,435.5 Z"/></g>
<g><path style="opacity:0.051" fill="#222222" d="M 83.5,433.5 C 91.4636,439.463 99.1302,445.796 106.5,452.5C 97.9538,447.292 90.2872,440.959 83.5,433.5 Z"/></g>
<g><path style="opacity:1" fill="#8a8a8a" d="M 357.5,440.5 C 355.967,442.245 353.967,443.245 351.5,443.5C 353.033,441.755 355.033,440.755 357.5,440.5 Z"/></g>
<g><path style="opacity:1" fill="#ababab" d="M 349.5,444.5 C 346.178,447.823 342.178,449.823 337.5,450.5C 341.267,448.223 345.267,446.223 349.5,444.5 Z"/></g>
<g><path style="opacity:0.035" fill="#292929" d="M 422.5,430.5 C 409.947,443.105 395.947,453.772 380.5,462.5C 394.851,452.321 408.851,441.654 422.5,430.5 Z"/></g>
<g><path style="opacity:1" fill="#9c9c9c" d="M 321.5,456.5 C 319.245,458.38 316.578,459.38 313.5,459.5C 315.755,457.62 318.422,456.62 321.5,456.5 Z"/></g>
<g><path style="opacity:0.027" fill="#151515" d="M 106.5,452.5 C 107.552,452.351 108.552,452.517 109.5,453C 118.554,460.19 128.22,466.356 138.5,471.5C 126.784,466.751 116.117,460.418 106.5,452.5 Z"/></g>
<g><path style="opacity:1" fill="#4c4c4c" d="M 197.5,462.5 C 201.489,462.116 205.155,462.783 208.5,464.5C 204.64,464.192 200.974,463.525 197.5,462.5 Z"/></g>
<g><path style="opacity:1" fill="#545454" d="M 296.5,463.5 C 293.456,465.011 290.122,465.678 286.5,465.5C 289.589,464.215 292.922,463.549 296.5,463.5 Z"/></g>
<g><path style="opacity:1" fill="#656565" d="M 213.5,465.5 C 217.458,465.251 221.124,465.918 224.5,467.5C 220.613,467.354 216.946,466.687 213.5,465.5 Z"/></g>
<g><path style="opacity:1" fill="#787878" d="M 319.5,466.5 C 316.785,468.072 313.785,469.072 310.5,469.5C 313.084,467.528 316.084,466.528 319.5,466.5 Z"/></g>
<g><path style="opacity:0.063" fill="#2e2e2e" d="M 380.5,462.5 C 374.83,466.337 368.83,469.67 362.5,472.5C 362.953,471.542 363.619,470.708 364.5,470C 369.776,467.193 375.109,464.693 380.5,462.5 Z"/></g>
<g><path style="opacity:0.063" fill="#262626" d="M 138.5,471.5 C 144.812,473.987 151.145,476.487 157.5,479C 158.942,479.377 159.942,480.21 160.5,481.5C 152.591,479.208 145.258,475.875 138.5,471.5 Z"/></g>
<g><path style="opacity:1" fill="#797979" d="M 295.5,472.5 C 292.493,474.175 289.16,474.841 285.5,474.5C 288.627,473.419 291.96,472.753 295.5,472.5 Z"/></g>
<g><path style="opacity:1" fill="#9c9c9c" d="M 207.5,473.5 C 216.251,474.597 224.918,475.597 233.5,476.5C 224.506,476.997 215.84,475.997 207.5,473.5 Z"/></g>
<g><path style="opacity:1" fill="#777777" d="M 285.5,474.5 C 284.391,475.29 283.058,475.79 281.5,476C 276.511,476.499 271.511,476.666 266.5,476.5C 272.666,475.602 279,474.936 285.5,474.5 Z"/></g>
<g><path style="opacity:0.024" fill="#3c3c3c" d="M 362.5,472.5 C 355.916,476.287 348.916,479.287 341.5,481.5C 342.058,480.21 343.058,479.377 344.5,479C 350.439,476.524 356.439,474.358 362.5,472.5 Z"/></g>
<g><path style="opacity:0.227" fill="#454545" d="M 160.5,481.5 C 164.733,481.457 168.4,482.79 171.5,485.5C 167.617,484.541 163.95,483.208 160.5,481.5 Z"/></g>
<g><path style="opacity:1" fill="#858585" d="M 287.5,485.5 C 282.731,486.889 277.731,487.556 272.5,487.5C 277.269,486.111 282.269,485.444 287.5,485.5 Z"/></g>
<g><path style="opacity:0.026" fill="#0e0e0e" d="M 175.5,486.5 C 178.785,486.928 181.785,487.928 184.5,489.5C 180.897,490.542 177.897,489.542 175.5,486.5 Z"/></g>
<g><path style="opacity:0.569" fill="#989898" d="M 189.5,489.5 C 193.162,489.723 196.495,490.723 199.5,492.5C 198.833,492.5 198.167,492.5 197.5,492.5C 196.833,492.5 196.167,492.5 195.5,492.5C 193.5,491.5 191.5,490.5 189.5,489.5 Z"/></g>
<g><path style="opacity:0.078" fill="#272727" d="M 341.5,481.5 C 322.719,489.53 303.053,494.53 282.5,496.5C 295.013,493.628 307.679,490.794 320.5,488C 327.477,485.85 334.477,483.683 341.5,481.5 Z"/></g>
<g><path style="opacity:0.034" fill="#0d0d0d" d="M 185.5,489.5 C 186.833,489.5 188.167,489.5 189.5,489.5C 191.5,490.5 193.5,491.5 195.5,492.5C 191.714,492.68 188.381,491.68 185.5,489.5 Z"/></g>
<g><path style="opacity:0.18" fill="#262626" d="M 197.5,492.5 C 198.167,492.5 198.833,492.5 199.5,492.5C 202.167,492.833 204.833,493.167 207.5,493.5C 207.5,493.833 207.5,494.167 207.5,494.5C 203.922,494.451 200.589,493.785 197.5,492.5 Z"/></g>
<g><path style="opacity:0.314" fill="#474747" d="M 207.5,493.5 C 214.171,494.223 220.838,495.056 227.5,496C 245.83,496.5 264.164,496.667 282.5,496.5C 279.359,497.321 276.025,497.821 272.5,498C 258.167,498.667 243.833,498.667 229.5,498C 221.934,497.421 214.601,496.255 207.5,494.5C 207.5,494.167 207.5,493.833 207.5,493.5 Z"/></g>
</svg>
