<?xml version="1.0" encoding="UTF-8"?>
<!DOCTYPE svg PUBLIC "-//W3C//DTD SVG 1.1//EN" "http://www.w3.org/Graphics/SVG/1.1/DTD/svg11.dtd">
<svg xmlns="http://www.w3.org/2000/svg" version="1.1" width="64px" height="64px" style="shape-rendering:geometricPrecision; text-rendering:geometricPrecision; image-rendering:optimizeQuality; fill-rule:evenodd; clip-rule:evenodd" xmlns:xlink="http://www.w3.org/1999/xlink">
<g><path style="opacity:0.008" fill="#0c0809" d="M 13.5,2.5 C 12.1667,2.5 10.8333,2.5 9.5,2.5C 10.8333,-0.166667 12.1667,-0.166667 13.5,2.5 Z"/></g>
<g><path style="opacity:0.024" fill="#090607" d="M 45.5,2.5 C 44.5,2.5 43.5,2.5 42.5,2.5C 43.5,-0.166667 44.5,-0.166667 45.5,2.5 Z"/></g>
<g><path style="opacity:0.024" fill="#0a0607" d="M 45.5,2.5 C 47.1788,2.28519 48.1788,2.95186 48.5,4.5C 47.5,4.5 46.5,4.5 45.5,4.5C 45.5,3.83333 45.5,3.16667 45.5,2.5 Z"/></g>
<g><path style="opacity:0.008" fill="#0c0909" d="M 48.5,4.5 C 50.153,4.6596 51.4863,5.32627 52.5,6.5C 51.1667,6.5 49.8333,6.5 48.5,6.5C 48.5,5.83333 48.5,5.16667 48.5,4.5 Z"/></g>
<g><path style="opacity:0.024" fill="#090606" d="M 52.5,6.5 C 53.5,6.83333 54.1667,7.5 54.5,8.5C 53.5,8.5 52.5,8.5 51.5,8.5C 51.8333,7.83333 52.1667,7.16667 52.5,6.5 Z"/></g>
<g><path style="opacity:0.71" fill="#161415" d="M 48.5,8.5 C 49.5,8.5 50.5,8.5 51.5,8.5C 51.5,9.83333 52.1667,10.5 53.5,10.5C 53.8333,11.5 54.5,12.1667 55.5,12.5C 55.5,13.1667 55.8333,13.5 56.5,13.5C 56.8333,14.8333 57.1667,14.8333 57.5,13.5C 58.1667,13.5 58.5,13.1667 58.5,12.5C 61.822,13.9357 62.9887,16.2691 62,19.5C 62.3826,18.944 62.8826,18.6107 63.5,18.5C 63.5,20.5 63.5,22.5 63.5,24.5C 62.8333,24.5 62.5,24.8333 62.5,25.5C 61.0207,31.2864 59.6874,37.2864 58.5,43.5C 58.4387,45.721 59.1054,46.0544 60.5,44.5C 60.5,45.1667 60.5,45.8333 60.5,46.5C 60.1667,47.1667 59.8333,47.8333 59.5,48.5C 58.6618,48.8417 58.3284,49.5084 58.5,50.5C 58.1667,50.5 57.8333,50.5 57.5,50.5C 56.4324,49.5655 55.099,49.2322 53.5,49.5C 56.1456,46.5587 57.8123,43.2254 58.5,39.5C 59.647,35.3537 59.8136,31.0204 59,26.5C 58.6174,25.944 58.1174,25.6107 57.5,25.5C 57.5,24.8333 57.5,24.1667 57.5,23.5C 57.573,21.9731 56.9063,20.9731 55.5,20.5C 54.9202,18.2512 53.5869,16.5846 51.5,15.5C 50.7886,13.7986 49.4553,12.7986 47.5,12.5C 46.8333,11.8333 46.1667,11.1667 45.5,10.5C 45.8212,8.95186 46.8212,8.28519 48.5,8.5 Z M 58.5,16.5 C 60.337,16.6395 60.6704,17.3061 59.5,18.5C 58.7025,18.0431 58.3691,17.3764 58.5,16.5 Z M 60.5,20.5 C 62.337,20.6395 62.6704,21.3061 61.5,22.5C 60.7025,22.0431 60.3691,21.3764 60.5,20.5 Z"/></g>
<g><path style="opacity:1" fill="#d1d2d2" d="M 27.5,9.5 C 31.5,9.5 35.5,9.5 39.5,9.5C 41.6208,9.32526 43.6208,9.65859 45.5,10.5C 46.1667,11.1667 46.8333,11.8333 47.5,12.5C 38.9075,9.84134 30.2408,9.84134 21.5,12.5C 23.0301,10.6535 25.0301,9.65353 27.5,9.5 Z"/></g>
<g><path style="opacity:0.024" fill="#0b0809" d="M 54.5,8.5 C 55.5,8.83333 56.1667,9.5 56.5,10.5C 55.5,10.5 54.5,10.5 53.5,10.5C 53.8333,9.83333 54.1667,9.16667 54.5,8.5 Z"/></g>
<g><path style="opacity:1" fill="#211d1d" d="M 24.5,7.5 C 26.1667,7.5 27.8333,7.5 29.5,7.5C 28.8333,8.16667 28.1667,8.83333 27.5,9.5C 25.0301,9.65353 23.0301,10.6535 21.5,12.5C 17.8333,14.1667 15.1667,16.8333 13.5,20.5C 12.0652,21.9133 11.0652,23.58 10.5,25.5C 10.448,23.0971 10.7814,20.7638 11.5,18.5C 13.2624,17.7377 14.2624,16.4044 14.5,14.5C 16.0905,12.3674 18.0905,10.7007 20.5,9.5C 22.3797,9.77089 23.713,9.10422 24.5,7.5 Z"/></g>
<g><path style="opacity:1" fill="#f8f8f8" d="M 47.5,12.5 C 49.4553,12.7986 50.7886,13.7986 51.5,15.5C 52.0798,17.7488 53.4131,19.4154 55.5,20.5C 55.5569,21.609 55.8902,22.609 56.5,23.5C 56.8693,25.9935 56.2027,26.6602 54.5,25.5C 53.5,25.5 52.5,25.5 51.5,25.5C 50.5,25.5 49.5,25.5 48.5,25.5C 41.5,25.5 34.5,25.5 27.5,25.5C 26.5,25.5 25.5,25.5 24.5,25.5C 20.3196,25.8115 16.3196,25.1448 12.5,23.5C 13.1272,22.5832 13.4606,21.5832 13.5,20.5C 15.1667,16.8333 17.8333,14.1667 21.5,12.5C 30.2408,9.84134 38.9075,9.84134 47.5,12.5 Z"/></g>
<g><path style="opacity:0.035" fill="#100c0d" d="M 56.5,10.5 C 57.5,10.8333 58.1667,11.5 58.5,12.5C 57.8333,12.5 57.5,12.8333 57.5,13.5C 57.1667,13.5 56.8333,13.5 56.5,13.5C 55.8333,13.5 55.5,13.1667 55.5,12.5C 55.8333,11.8333 56.1667,11.1667 56.5,10.5 Z"/></g>
<g><path style="opacity:0.984" fill="#831142" d="M 17.5,5.5 C 17.5,5.83333 17.5,6.16667 17.5,6.5C 13.5428,9.1218 9.87615,12.1218 6.5,15.5C 8.89217,10.7749 12.5588,7.4416 17.5,5.5 Z"/></g>
<g><path style="opacity:0.004" fill="#0d0909" d="M -0.5,11.5 C -0.166667,11.5 0.166667,11.5 0.5,11.5C 1.83333,13.1667 1.83333,14.8333 0.5,16.5C 0.166667,16.5 -0.166667,16.5 -0.5,16.5C -0.5,14.8333 -0.5,13.1667 -0.5,11.5 Z"/></g>
<g><path style="opacity:0.578" fill="#11090b" d="M 23.5,-0.5 C 26.1667,-0.5 28.8333,-0.5 31.5,-0.5C 35.0525,0.561458 38.7192,1.56146 42.5,2.5C 42.8212,4.04814 43.8212,4.71481 45.5,4.5C 45.8212,6.04814 46.8212,6.71481 48.5,6.5C 48.5,7.16667 48.5,7.83333 48.5,8.5C 46.8212,8.28519 45.8212,8.95186 45.5,10.5C 43.6208,9.65859 41.6208,9.32526 39.5,9.5C 39.5,8.83333 39.5,8.16667 39.5,7.5C 37.31,6.62554 36.31,4.95888 36.5,2.5C 31.1563,2.33398 25.8229,2.50065 20.5,3C 19.944,3.38258 19.6107,3.88258 19.5,4.5C 18.5084,4.32842 17.8417,4.66175 17.5,5.5C 12.5588,7.4416 8.89217,10.7749 6.5,15.5C 2.93,18.1641 1.93,21.4975 3.5,25.5C 4.16667,25.5 4.5,25.8333 4.5,26.5C 4.61063,28.6477 3.94396,28.981 2.5,27.5C 1.56134,29.6921 1.89468,31.6921 3.5,33.5C 4.14507,34.8118 5.14507,35.8118 6.5,36.5C 7.78786,34.7015 7.78786,33.0348 6.5,31.5C 6.5,31.1667 6.5,30.8333 6.5,30.5C 6.55688,29.391 6.89022,28.391 7.5,27.5C 8.16667,26.8333 8.83333,26.1667 9.5,25.5C 9.22128,30.5947 9.55462,35.5947 10.5,40.5C 10.0773,42.7812 10.744,44.4479 12.5,45.5C 13.4884,46.795 14.4884,48.1283 15.5,49.5C 14.1266,49.6567 12.7932,49.49 11.5,49C 12.8627,46.8707 12.5294,46.3707 10.5,47.5C 9.45196,46.452 8.45196,45.452 7.5,44.5C 5.6943,43.9759 4.02763,43.3092 2.5,42.5C 2.16667,41.5 1.5,40.8333 0.5,40.5C 0.5,39.8333 0.166667,39.5 -0.5,39.5C -0.5,39.1667 -0.5,38.8333 -0.5,38.5C 0.833333,37.8333 0.833333,37.1667 -0.5,36.5C -0.5,31.1667 -0.5,25.8333 -0.5,20.5C 0.833333,19.8333 0.833333,19.1667 -0.5,18.5C -0.5,18.1667 -0.5,17.8333 -0.5,17.5C 0.166667,17.5 0.5,17.1667 0.5,16.5C 2.10422,15.713 2.77089,14.3797 2.5,12.5C 1.83333,12.1667 1.16667,11.8333 0.5,11.5C 1.71304,8.77455 3.54638,6.44122 6,4.5C 6.71719,5.0442 7.21719,5.71087 7.5,6.5C 10.1125,5.90451 10.1125,5.07117 7.5,4C 8.0442,3.28281 8.71087,2.78281 9.5,2.5C 10.8333,5.16667 12.1667,5.16667 13.5,2.5C 16.8232,1.28606 20.1565,0.286056 23.5,-0.5 Z M 2.5,12.5 C 2.51731,10.9719 3.18398,10.4719 4.5,11C 3.9558,11.7172 3.28913,12.2172 2.5,12.5 Z M 7.5,6.5 C 7.5,7.83333 6.83333,8.5 5.5,8.5C 5.5,7.16667 6.16667,6.5 7.5,6.5 Z M 9.5,2.5 C 10.8333,2.5 12.1667,2.5 13.5,2.5C 12.1667,5.16667 10.8333,5.16667 9.5,2.5 Z"/></g>
<g><path style="opacity:1" fill="#858585" d="M 29.5,7.5 C 32.8333,7.5 36.1667,7.5 39.5,7.5C 39.5,8.16667 39.5,8.83333 39.5,9.5C 35.5,9.5 31.5,9.5 27.5,9.5C 28.1667,8.83333 28.8333,8.16667 29.5,7.5 Z"/></g>
<g><path style="opacity:1" fill="#620b30" d="M 24.5,7.5 C 23.713,9.10422 22.3797,9.77089 20.5,9.5C 20.5,8.83333 20.8333,8.5 21.5,8.5C 22.391,7.89022 23.391,7.55688 24.5,7.5 Z"/></g>
<g><path style="opacity:0.996" fill="#ca1a67" d="M 24.5,7.5 C 23.391,7.55688 22.391,7.89022 21.5,8.5C 20.8166,6.82351 19.4832,6.15684 17.5,6.5C 17.5,6.16667 17.5,5.83333 17.5,5.5C 17.8417,4.66175 18.5084,4.32842 19.5,4.5C 24.4815,3.27203 29.4815,3.27203 34.5,4.5C 31.0468,5.51262 27.7135,6.51262 24.5,7.5 Z"/></g>
<g><path style="opacity:1" fill="#3b0e20" d="M 39.5,7.5 C 36.1667,7.5 32.8333,7.5 29.5,7.5C 27.8333,7.5 26.1667,7.5 24.5,7.5C 27.7135,6.51262 31.0468,5.51262 34.5,4.5C 29.4815,3.27203 24.4815,3.27203 19.5,4.5C 19.6107,3.88258 19.944,3.38258 20.5,3C 25.8229,2.50065 31.1563,2.33398 36.5,2.5C 36.31,4.95888 37.31,6.62554 39.5,7.5 Z"/></g>
<g><path style="opacity:0.996" fill="#e31d74" d="M 17.5,6.5 C 19.4832,6.15684 20.8166,6.82351 21.5,8.5C 20.8333,8.5 20.5,8.83333 20.5,9.5C 18.0905,10.7007 16.0905,12.3674 14.5,14.5C 12.7376,15.2623 11.7376,16.5956 11.5,18.5C 10.0688,19.9025 8.90216,21.5692 8,23.5C 7.50999,24.7932 7.34332,26.1266 7.5,27.5C 6.39105,27.4431 5.39105,27.1098 4.5,26.5C 4.5,25.8333 4.16667,25.5 3.5,25.5C 3.50359,21.8261 4.50359,18.4928 6.5,15.5C 9.87615,12.1218 13.5428,9.1218 17.5,6.5 Z"/></g>
<g><path style="opacity:1" fill="#470b24" d="M 14.5,14.5 C 14.2624,16.4044 13.2624,17.7377 11.5,18.5C 11.7376,16.5956 12.7376,15.2623 14.5,14.5 Z"/></g>
<g><path style="opacity:1" fill="#b6b6b6" d="M 51.5,15.5 C 53.5869,16.5846 54.9202,18.2512 55.5,20.5C 53.4131,19.4154 52.0798,17.7488 51.5,15.5 Z"/></g>
<g><path style="opacity:1" fill="#3a0a1e" d="M 6.5,15.5 C 4.50359,18.4928 3.50359,21.8261 3.5,25.5C 1.93,21.4975 2.93,18.1641 6.5,15.5 Z"/></g>
<g><path style="opacity:1" fill="#909090" d="M 55.5,20.5 C 56.9063,20.9731 57.573,21.9731 57.5,23.5C 57.1667,23.5 56.8333,23.5 56.5,23.5C 55.8902,22.609 55.5569,21.609 55.5,20.5 Z"/></g>
<g><path style="opacity:1" fill="#3d1222" d="M 11.5,18.5 C 10.7814,20.7638 10.448,23.0971 10.5,25.5C 10.1667,25.5 9.83333,25.5 9.5,25.5C 8.83333,26.1667 8.16667,26.8333 7.5,27.5C 7.34332,26.1266 7.50999,24.7932 8,23.5C 8.90216,21.5692 10.0688,19.9025 11.5,18.5 Z"/></g>
<g><path style="opacity:1" fill="#9a9b9a" d="M 13.5,20.5 C 13.4606,21.5832 13.1272,22.5832 12.5,23.5C 16.3196,25.1448 20.3196,25.8115 24.5,25.5C 24.5,25.8333 24.5,26.1667 24.5,26.5C 23.5,27.8333 22.5,27.8333 21.5,26.5C 20.8333,26.5 20.1667,26.5 19.5,26.5C 18.8333,26.5 18.5,26.8333 18.5,27.5C 17.8826,27.6107 17.3826,27.944 17,28.5C 16.7216,27.5842 16.2216,26.9175 15.5,26.5C 13.9519,26.8212 13.2852,27.8212 13.5,29.5C 12.8485,28.9094 12.1818,28.2427 11.5,27.5C 10.2904,31.8476 10.2904,36.181 11.5,40.5C 11.1667,40.5 10.8333,40.5 10.5,40.5C 9.55462,35.5947 9.22128,30.5947 9.5,25.5C 9.83333,25.5 10.1667,25.5 10.5,25.5C 11.0652,23.58 12.0652,21.9133 13.5,20.5 Z"/></g>
<g><path style="opacity:1" fill="#4b4c4c" d="M 24.5,26.5 C 24.5,26.1667 24.5,25.8333 24.5,25.5C 25.5,25.5 26.5,25.5 27.5,25.5C 27.5,26.5 27.5,27.5 27.5,28.5C 27.7373,29.791 27.404,30.791 26.5,31.5C 26.9227,29.2188 26.256,27.5521 24.5,26.5 Z"/></g>
<g><path style="opacity:1" fill="#717171" d="M 27.5,25.5 C 34.5,25.5 41.5,25.5 48.5,25.5C 48.5,25.8333 48.5,26.1667 48.5,26.5C 47.8333,26.5 47.1667,26.5 46.5,26.5C 45.596,27.209 45.2627,28.209 45.5,29.5C 44.5,29.5 43.5,29.5 42.5,29.5C 42.5,28.5 42.5,27.5 42.5,26.5C 41.1667,26.5 39.8333,26.5 38.5,26.5C 38.5,27.5 38.5,28.5 38.5,29.5C 38.1667,29.5 37.8333,29.5 37.5,29.5C 35.8212,29.2852 34.8212,29.9519 34.5,31.5C 32.9519,31.1788 32.2852,30.1788 32.5,28.5C 33.675,28.719 34.675,28.3857 35.5,27.5C 33.604,26.5344 31.604,26.2011 29.5,26.5C 29.5,30.8333 29.5,35.1667 29.5,39.5C 28.5655,38.4324 28.2322,37.099 28.5,35.5C 28.8016,32.9407 28.4682,30.6074 27.5,28.5C 27.5,27.5 27.5,26.5 27.5,25.5 Z"/></g>
<g><path style="opacity:1" fill="#0b0b0b" d="M 42.5,29.5 C 41.834,32.3583 41.1674,35.3583 40.5,38.5C 39.8326,35.3583 39.166,32.3583 38.5,29.5C 38.5,28.5 38.5,27.5 38.5,26.5C 39.8333,26.5 41.1667,26.5 42.5,26.5C 42.5,27.5 42.5,28.5 42.5,29.5 Z"/></g>
<g><path style="opacity:1" fill="#949494" d="M 48.5,25.5 C 49.5,25.5 50.5,25.5 51.5,25.5C 51.5,25.8333 51.5,26.1667 51.5,26.5C 51.5,27.8333 51.5,29.1667 51.5,30.5C 50.5,30.5 49.5,30.5 48.5,30.5C 48.5,29.1667 48.5,27.8333 48.5,26.5C 48.5,26.1667 48.5,25.8333 48.5,25.5 Z"/></g>
<g><path style="opacity:0.996" fill="#380c1e" d="M 4.5,26.5 C 5.39105,27.1098 6.39105,27.4431 7.5,27.5C 6.89022,28.391 6.55688,29.391 6.5,30.5C 5.5,30.5 4.5,30.5 3.5,30.5C 3.5,31.5 3.5,32.5 3.5,33.5C 1.89468,31.6921 1.56134,29.6921 2.5,27.5C 3.94396,28.981 4.61063,28.6477 4.5,26.5 Z"/></g>
<g><path style="opacity:0.996" fill="#727273" d="M 21.5,26.5 C 22.5,27.8333 23.5,27.8333 24.5,26.5C 24.5674,27.9587 24.2341,29.2921 23.5,30.5C 22.8333,30.5 22.1667,30.5 21.5,30.5C 21.5,29.1667 21.5,27.8333 21.5,26.5 Z"/></g>
<g><path style="opacity:1" fill="#f4f4f4" d="M 56.5,23.5 C 56.8333,23.5 57.1667,23.5 57.5,23.5C 57.5,24.1667 57.5,24.8333 57.5,25.5C 58.3833,30.1031 58.7166,34.7697 58.5,39.5C 57.8123,43.2254 56.1456,46.5587 53.5,49.5C 51.8333,50.5 50.5,51.8333 49.5,53.5C 47.8333,54.1667 46.1667,54.8333 44.5,55.5C 38.2252,56.418 31.8918,56.7513 25.5,56.5C 23.5439,55.522 21.5439,54.522 19.5,53.5C 18.5,51.8333 17.1667,50.5 15.5,49.5C 14.4884,48.1283 13.4884,46.795 12.5,45.5C 11.962,43.8828 11.6287,42.2161 11.5,40.5C 10.2904,36.181 10.2904,31.8476 11.5,27.5C 12.1818,28.2427 12.8485,28.9094 13.5,29.5C 13.5,30.5 13.5,31.5 13.5,32.5C 13.2594,34.8984 13.9261,36.8984 15.5,38.5C 16.5676,39.4345 17.901,39.7678 19.5,39.5C 20.1667,39.5 20.8333,39.5 21.5,39.5C 22.8333,39.5 24.1667,39.5 25.5,39.5C 25.5,38.1667 25.5,36.8333 25.5,35.5C 26.5,35.5 27.5,35.5 28.5,35.5C 28.2322,37.099 28.5655,38.4324 29.5,39.5C 31.5,39.5 33.5,39.5 35.5,39.5C 36.5,39.5 37.5,39.5 38.5,39.5C 39.8333,39.5 41.1667,39.5 42.5,39.5C 42.5,36.1667 42.5,32.8333 42.5,29.5C 43.5,29.5 44.5,29.5 45.5,29.5C 45.5,32.8333 45.5,36.1667 45.5,39.5C 46.5,39.5 47.5,39.5 48.5,39.5C 49.5,39.5 50.5,39.5 51.5,39.5C 52.5,39.5 53.5,39.5 54.5,39.5C 54.5,34.8333 54.5,30.1667 54.5,25.5C 56.2027,26.6602 56.8693,25.9935 56.5,23.5 Z"/></g>
<g><path style="opacity:1" fill="#2f3030" d="M 46.5,26.5 C 45.9106,30.9707 46.5772,34.9707 48.5,38.5C 48.5,38.8333 48.5,39.1667 48.5,39.5C 47.5,39.5 46.5,39.5 45.5,39.5C 45.5,36.1667 45.5,32.8333 45.5,29.5C 45.2627,28.209 45.596,27.209 46.5,26.5 Z"/></g>
<g><path style="opacity:1" fill="#494949" d="M 51.5,26.5 C 51.5,26.1667 51.5,25.8333 51.5,25.5C 52.5,25.5 53.5,25.5 54.5,25.5C 54.5,30.1667 54.5,34.8333 54.5,39.5C 53.5,39.5 52.5,39.5 51.5,39.5C 51.5,39.1667 51.5,38.8333 51.5,38.5C 52.7943,36.9522 53.4609,34.9522 53.5,32.5C 53.4609,30.0478 52.7943,28.0478 51.5,26.5 Z"/></g>
<g><path style="opacity:1" fill="#0d0d0d" d="M 24.5,26.5 C 26.256,27.5521 26.9227,29.2188 26.5,31.5C 25.5655,32.5676 25.2322,33.901 25.5,35.5C 24.8423,36.3984 24.1757,37.3984 23.5,38.5C 22.2706,35.8013 22.2706,33.1346 23.5,30.5C 24.2341,29.2921 24.5674,27.9587 24.5,26.5 Z"/></g>
<g><path style="opacity:1" fill="#0d0d0d" d="M 46.5,26.5 C 47.1667,26.5 47.8333,26.5 48.5,26.5C 48.5,27.8333 48.5,29.1667 48.5,30.5C 49.5,30.5 50.5,30.5 51.5,30.5C 51.5,29.1667 51.5,27.8333 51.5,26.5C 52.7943,28.0478 53.4609,30.0478 53.5,32.5C 53.4609,34.9522 52.7943,36.9522 51.5,38.5C 51.5,36.8333 51.5,35.1667 51.5,33.5C 50.5,33.5 49.5,33.5 48.5,33.5C 48.5,35.1667 48.5,36.8333 48.5,38.5C 46.5772,34.9707 45.9106,30.9707 46.5,26.5 Z"/></g>
<g><path style="opacity:0.996" fill="#df1d73" d="M 6.5,30.5 C 6.5,30.8333 6.5,31.1667 6.5,31.5C 6.64945,32.552 6.48278,33.552 6,34.5C 5.32924,33.7476 4.4959,33.4142 3.5,33.5C 3.5,32.5 3.5,31.5 3.5,30.5C 4.5,30.5 5.5,30.5 6.5,30.5 Z"/></g>
<g><path style="opacity:1" fill="#272727" d="M 15.5,26.5 C 15.2222,28.3464 15.8888,29.6798 17.5,30.5C 18.3857,29.675 18.719,28.675 18.5,27.5C 18.5,26.8333 18.8333,26.5 19.5,26.5C 19.7852,28.288 19.4519,29.9547 18.5,31.5C 17.0656,32.5884 16.0656,33.9217 15.5,35.5C 14.8333,34.5 14.1667,33.5 13.5,32.5C 13.5,31.5 13.5,30.5 13.5,29.5C 13.2852,27.8212 13.9519,26.8212 15.5,26.5 Z"/></g>
<g><path style="opacity:1" fill="#5e5e5e" d="M 15.5,26.5 C 16.2216,26.9175 16.7216,27.5842 17,28.5C 17.3826,27.944 17.8826,27.6107 18.5,27.5C 18.719,28.675 18.3857,29.675 17.5,30.5C 15.8888,29.6798 15.2222,28.3464 15.5,26.5 Z"/></g>
<g><path style="opacity:1" fill="#0a0a0a" d="M 19.5,26.5 C 20.1667,26.5 20.8333,26.5 21.5,26.5C 21.5,27.8333 21.5,29.1667 21.5,30.5C 19.4152,32.6845 18.4152,35.3511 18.5,38.5C 17.5,38.5 16.5,38.5 15.5,38.5C 15.5,37.5 15.5,36.5 15.5,35.5C 16.0656,33.9217 17.0656,32.5884 18.5,31.5C 19.4519,29.9547 19.7852,28.288 19.5,26.5 Z"/></g>
<g><path style="opacity:1" fill="#3d3d3d" d="M 21.5,30.5 C 22.1667,30.5 22.8333,30.5 23.5,30.5C 22.2706,33.1346 22.2706,35.8013 23.5,38.5C 24.1757,37.3984 24.8423,36.3984 25.5,35.5C 25.5,36.8333 25.5,38.1667 25.5,39.5C 24.1667,39.5 22.8333,39.5 21.5,39.5C 20.8333,34.1667 20.1667,34.1667 19.5,39.5C 17.901,39.7678 16.5676,39.4345 15.5,38.5C 16.5,38.5 17.5,38.5 18.5,38.5C 18.4152,35.3511 19.4152,32.6845 21.5,30.5 Z"/></g>
<g><path style="opacity:0.999" fill="#ebebeb" d="M 37.5,29.5 C 37.7989,31.604 37.4656,33.604 36.5,35.5C 35.7025,35.0431 35.3691,34.3764 35.5,33.5C 35.6716,32.5084 35.3382,31.8417 34.5,31.5C 34.8212,29.9519 35.8212,29.2852 37.5,29.5 Z"/></g>
<g><path style="opacity:1" fill="#a9a9a9" d="M 57.5,25.5 C 58.1174,25.6107 58.6174,25.944 59,26.5C 59.8136,31.0204 59.647,35.3537 58.5,39.5C 58.7166,34.7697 58.3833,30.1031 57.5,25.5 Z"/></g>
<g><path style="opacity:1" fill="#525252" d="M 38.5,29.5 C 39.166,32.3583 39.8326,35.3583 40.5,38.5C 41.1674,35.3583 41.834,32.3583 42.5,29.5C 42.5,32.8333 42.5,36.1667 42.5,39.5C 41.1667,39.5 39.8333,39.5 38.5,39.5C 38.5,36.1667 38.5,32.8333 38.5,29.5 Z"/></g>
<g><path style="opacity:1" fill="#780b3b" d="M 6.5,31.5 C 7.78786,33.0348 7.78786,34.7015 6.5,36.5C 5.14507,35.8118 4.14507,34.8118 3.5,33.5C 4.4959,33.4142 5.32924,33.7476 6,34.5C 6.48278,33.552 6.64945,32.552 6.5,31.5 Z"/></g>
<g><path style="opacity:1" fill="#a8a8a8" d="M 27.5,28.5 C 28.4682,30.6074 28.8016,32.9407 28.5,35.5C 27.5,35.5 26.5,35.5 25.5,35.5C 25.2322,33.901 25.5655,32.5676 26.5,31.5C 27.404,30.791 27.7373,29.791 27.5,28.5 Z"/></g>
<g><path style="opacity:1" fill="#8e8e8e" d="M 13.5,32.5 C 14.1667,33.5 14.8333,34.5 15.5,35.5C 15.5,36.5 15.5,37.5 15.5,38.5C 13.9261,36.8984 13.2594,34.8984 13.5,32.5 Z"/></g>
<g><path style="opacity:1" fill="#191a1a" d="M 34.5,31.5 C 35.3382,31.8417 35.6716,32.5084 35.5,33.5C 34.7109,33.7828 34.0442,34.2828 33.5,35C 35.0368,36.1096 35.7035,37.6096 35.5,39.5C 33.5,39.5 31.5,39.5 29.5,39.5C 29.5,35.1667 29.5,30.8333 29.5,26.5C 31.604,26.2011 33.604,26.5344 35.5,27.5C 34.675,28.3857 33.675,28.719 32.5,28.5C 32.2852,30.1788 32.9519,31.1788 34.5,31.5 Z"/></g>
<g><path style="opacity:1" fill="#ababab" d="M 37.5,29.5 C 37.8333,29.5 38.1667,29.5 38.5,29.5C 38.5,32.8333 38.5,36.1667 38.5,39.5C 37.5,39.5 36.5,39.5 35.5,39.5C 35.7035,37.6096 35.0368,36.1096 33.5,35C 34.0442,34.2828 34.7109,33.7828 35.5,33.5C 35.3691,34.3764 35.7025,35.0431 36.5,35.5C 37.4656,33.604 37.7989,31.604 37.5,29.5 Z"/></g>
<g><path style="opacity:1" fill="#828282" d="M 51.5,38.5 C 51.5,38.8333 51.5,39.1667 51.5,39.5C 50.5,39.5 49.5,39.5 48.5,39.5C 48.5,39.1667 48.5,38.8333 48.5,38.5C 48.5,36.8333 48.5,35.1667 48.5,33.5C 49.5,33.5 50.5,33.5 51.5,33.5C 51.5,35.1667 51.5,36.8333 51.5,38.5 Z"/></g>
<g><path style="opacity:1" fill="#b6b6b6" d="M 21.5,39.5 C 20.8333,39.5 20.1667,39.5 19.5,39.5C 20.1667,34.1667 20.8333,34.1667 21.5,39.5 Z"/></g>
<g><path style="opacity:1" fill="#600a30" d="M 7.5,44.5 C 7.09616,43.2436 6.42949,42.0769 5.5,41C 7.40441,39.4558 8.73774,40.1225 9.5,43C 9.16389,44.0299 8.49722,44.5299 7.5,44.5 Z"/></g>
<g><path style="opacity:0.799" fill="#0a0708" d="M 62.5,25.5 C 62.2322,27.099 62.5655,28.4324 63.5,29.5C 63.5,31.8333 63.5,34.1667 63.5,36.5C 62.1667,38.8333 62.1667,41.1667 63.5,43.5C 63.5,45.1667 63.5,46.8333 63.5,48.5C 61.5919,51.2799 59.4252,53.9466 57,56.5C 56.0347,54.7397 54.868,54.4063 53.5,55.5C 54.8114,56.2575 55.3114,57.2575 55,58.5C 53.0357,56.3123 51.5357,56.3123 50.5,58.5C 48.6203,58.2291 47.287,58.8958 46.5,60.5C 44.2495,60.1814 42.2495,60.6814 40.5,62C 28.8381,62.4999 17.1714,62.6665 5.5,62.5C 5.18897,61.5222 4.5223,60.8555 3.5,60.5C 2.26381,61.2458 0.930472,61.5792 -0.5,61.5C -0.5,60.8333 -0.5,60.1667 -0.5,59.5C 0.473067,57.0521 0.8064,54.3854 0.5,51.5C 1.22158,51.0825 1.72158,50.4158 2,49.5C 3.29749,50.7836 4.46415,50.6169 5.5,49C 1.24538,49.0994 -0.254621,47.266 1,43.5C 0.617425,44.056 0.117425,44.3893 -0.5,44.5C -0.5,43.1667 -0.5,41.8333 -0.5,40.5C -0.166667,40.5 0.166667,40.5 0.5,40.5C 0.5,41.8333 1.16667,42.5 2.5,42.5C 4.02763,43.3092 5.6943,43.9759 7.5,44.5C 8.45196,45.452 9.45196,46.452 10.5,47.5C 12.5294,46.3707 12.8627,46.8707 11.5,49C 12.7932,49.49 14.1266,49.6567 15.5,49.5C 17.1667,50.5 18.5,51.8333 19.5,53.5C 20.507,55.522 22.1737,56.8553 24.5,57.5C 29.6523,58.8137 34.6523,58.8137 39.5,57.5C 41.698,57.8799 43.3646,57.2132 44.5,55.5C 46.1667,54.8333 47.8333,54.1667 49.5,53.5C 51.8333,53.1667 53.1667,51.8333 53.5,49.5C 55.099,49.2322 56.4324,49.5655 57.5,50.5C 56.537,51.3635 56.537,52.0302 57.5,52.5C 58.2975,52.0431 58.6309,51.3764 58.5,50.5C 60.4241,50.2893 60.7574,49.6226 59.5,48.5C 59.8333,47.8333 60.1667,47.1667 60.5,46.5C 63.1667,45.8333 63.1667,45.1667 60.5,44.5C 59.1054,46.0544 58.4387,45.721 58.5,43.5C 59.6874,37.2864 61.0207,31.2864 62.5,25.5 Z M 0.5,40.5 C 1.5,40.8333 2.16667,41.5 2.5,42.5C 1.16667,42.5 0.5,41.8333 0.5,40.5 Z M 2.5,44.5 C 4.33702,44.6395 4.67036,45.3061 3.5,46.5C 2.70245,46.0431 2.36912,45.3764 2.5,44.5 Z M 60.5,44.5 C 63.1667,45.1667 63.1667,45.8333 60.5,46.5C 60.5,45.8333 60.5,45.1667 60.5,44.5 Z M 59.5,48.5 C 60.7574,49.6226 60.4241,50.2893 58.5,50.5C 58.3284,49.5084 58.6618,48.8417 59.5,48.5 Z M 57.5,50.5 C 57.8333,50.5 58.1667,50.5 58.5,50.5C 58.6309,51.3764 58.2975,52.0431 57.5,52.5C 56.537,52.0302 56.537,51.3635 57.5,50.5 Z"/></g>
<g><path style="opacity:1" fill="#353837" d="M 10.5,40.5 C 10.8333,40.5 11.1667,40.5 11.5,40.5C 11.6287,42.2161 11.962,43.8828 12.5,45.5C 10.744,44.4479 10.0773,42.7812 10.5,40.5 Z"/></g>
<g><path style="opacity:0.004" fill="#0a0605" d="M -0.5,49.5 C 0.338246,49.8417 0.67158,50.5084 0.5,51.5C 0.166667,51.5 -0.166667,51.5 -0.5,51.5C -0.5,50.8333 -0.5,50.1667 -0.5,49.5 Z"/></g>
<g><path style="opacity:1" fill="#373838" d="M 53.5,49.5 C 53.1667,51.8333 51.8333,53.1667 49.5,53.5C 50.5,51.8333 51.8333,50.5 53.5,49.5 Z"/></g>
<g><path style="opacity:1" fill="#444444" d="M 19.5,53.5 C 21.5439,54.522 23.5439,55.522 25.5,56.5C 29.97,57.4861 34.6367,57.8195 39.5,57.5C 34.6523,58.8137 29.6523,58.8137 24.5,57.5C 22.1737,56.8553 20.507,55.522 19.5,53.5 Z"/></g>
<g><path style="opacity:1" fill="#c4c4c4" d="M 44.5,55.5 C 43.3646,57.2132 41.698,57.8799 39.5,57.5C 34.6367,57.8195 29.97,57.4861 25.5,56.5C 31.8918,56.7513 38.2252,56.418 44.5,55.5 Z"/></g>
<g><path style="opacity:0.024" fill="#0a0708" d="M 50.5,58.5 C 54.2887,58.7373 54.2887,59.4039 50.5,60.5C 50.5,59.8333 50.5,59.1667 50.5,58.5 Z"/></g>
<g><path style="opacity:0.024" fill="#0a0707" d="M 46.5,60.5 C 47.8333,60.5 49.1667,60.5 50.5,60.5C 50.0269,61.9063 49.0269,62.573 47.5,62.5C 47.1667,61.8333 46.8333,61.1667 46.5,60.5 Z"/></g>
<g><path style="opacity:0.024" fill="#090607" d="M 1.5,63.5 C 2.56764,62.5655 3.90097,62.2322 5.5,62.5C 5.5,62.8333 5.5,63.1667 5.5,63.5C 4.16667,63.5 2.83333,63.5 1.5,63.5 Z"/></g>
<g><path style="opacity:0.024" fill="#0c0a0a" d="M 41.5,63.5 C 43.2646,62.5386 45.2646,62.2053 47.5,62.5C 47.5,62.8333 47.5,63.1667 47.5,63.5C 45.5,63.5 43.5,63.5 41.5,63.5 Z"/></g>
</svg>
