<?xml version="1.0" encoding="UTF-8"?>
<!DOCTYPE svg PUBLIC "-//W3C//DTD SVG 1.1//EN" "http://www.w3.org/Graphics/SVG/1.1/DTD/svg11.dtd">
<svg xmlns="http://www.w3.org/2000/svg" version="1.1" width="368px" height="368px" style="shape-rendering:geometricPrecision; text-rendering:geometricPrecision; image-rendering:optimizeQuality; fill-rule:evenodd; clip-rule:evenodd" xmlns:xlink="http://www.w3.org/1999/xlink">
<g><path style="opacity:0.956" fill="#fbfdfc" d="M 164.5,-0.5 C 177.167,-0.5 189.833,-0.5 202.5,-0.5C 267.719,8.55964 316.219,41.893 348,99.5C 358.09,120.216 364.59,141.883 367.5,164.5C 367.5,177.167 367.5,189.833 367.5,202.5C 358.44,267.719 325.107,316.219 267.5,348C 246.784,358.09 225.117,364.59 202.5,367.5C 189.833,367.5 177.167,367.5 164.5,367.5C 99.2806,358.44 50.7806,325.107 19,267.5C 8.90998,246.784 2.40998,225.117 -0.5,202.5C -0.5,189.833 -0.5,177.167 -0.5,164.5C 8.55964,99.2806 41.893,50.7806 99.5,19C 120.216,8.90998 141.883,2.40998 164.5,-0.5 Z"/></g>
<g><path style="opacity:1" fill="#45ab8d" d="M 193.5,9.5 C 195.833,10.1667 198.167,10.8333 200.5,11.5C 186.833,11.5 173.167,11.5 159.5,11.5C 159.5,11.1667 159.5,10.8333 159.5,10.5C 170.817,9.7407 182.15,9.40736 193.5,9.5 Z"/></g>
<g><path style="opacity:1" fill="#8dc4b4" d="M 193.5,9.5 C 198.731,9.44435 203.731,10.111 208.5,11.5C 205.833,11.5 203.167,11.5 200.5,11.5C 198.167,10.8333 195.833,10.1667 193.5,9.5 Z"/></g>
<g><path style="opacity:1" fill="#25a07b" d="M 159.5,11.5 C 173.167,11.5 186.833,11.5 200.5,11.5C 203.167,11.5 205.833,11.5 208.5,11.5C 212.799,13.6768 217.465,14.6768 222.5,14.5C 224.042,15.3007 225.708,15.634 227.5,15.5C 227.833,15.5 228.167,15.5 228.5,15.5C 231.505,17.2766 234.838,18.2766 238.5,18.5C 241.839,20.614 245.505,21.9474 249.5,22.5C 249.973,23.9063 250.973,24.573 252.5,24.5C 275.255,34.5869 294.921,48.9202 311.5,67.5C 311.357,69.2624 311.691,70.9291 312.5,72.5C 314.784,73.4584 316.784,74.7917 318.5,76.5C 323.998,82.0047 328.331,88.3381 331.5,95.5C 331.67,96.8221 331.337,97.9887 330.5,99C 331.448,99.4828 332.448,99.6495 333.5,99.5C 333.468,101.619 334.468,102.952 336.5,103.5C 337.892,106.007 338.892,108.673 339.5,111.5C 340.06,113.801 340.56,116.134 341,118.5C 341.708,119.381 342.542,120.047 343.5,120.5C 346.578,128.178 348.911,136.178 350.5,144.5C 351.508,148.596 352.508,152.596 353.5,156.5C 354.62,172.661 354.62,188.661 353.5,204.5C 351.779,209.562 350.779,214.895 350.5,220.5C 347.775,231.303 344.441,241.969 340.5,252.5C 339.094,252.973 338.427,253.973 338.5,255.5C 338.5,255.833 338.5,256.167 338.5,256.5C 336.166,258.176 335.166,260.509 335.5,263.5C 333.865,265.81 332.199,268.143 330.5,270.5C 329.532,268.393 329.198,266.059 329.5,263.5C 329.5,263.167 329.5,262.833 329.5,262.5C 330.656,254.677 330.823,246.677 330,238.5C 329.168,233.508 327.668,228.841 325.5,224.5C 317.657,202.486 302.991,186.652 281.5,177C 280.736,174.931 280.236,172.764 280,170.5C 279.292,169.619 278.458,168.953 277.5,168.5C 274.553,166.019 271.219,164.019 267.5,162.5C 263.197,161.732 259.197,160.399 255.5,158.5C 248.143,155.858 240.476,154.024 232.5,153C 234.167,152.667 235.833,152.333 237.5,152C 238.731,150.817 238.731,149.651 237.5,148.5C 234.772,149.145 232.105,149.979 229.5,151C 221.173,151.5 212.84,151.666 204.5,151.5C 204.5,144.167 204.5,136.833 204.5,129.5C 222.008,129.83 239.341,129.497 256.5,128.5C 257.495,116.345 257.829,104.011 257.5,91.5C 207.5,91.5 157.5,91.5 107.5,91.5C 107.171,104.011 107.505,116.345 108.5,128.5C 109.952,129.302 111.618,129.802 113.5,130C 129.163,130.5 144.83,130.667 160.5,130.5C 160.5,137.167 160.5,143.833 160.5,150.5C 152.837,150.978 145.17,151.478 137.5,152C 136.584,152.278 135.918,152.778 135.5,153.5C 134.29,153.932 133.29,154.599 132.5,155.5C 130.833,155.5 129.167,155.5 127.5,155.5C 118.814,155.407 110.814,157.407 103.5,161.5C 101.901,161.232 100.568,161.566 99.5,162.5C 96.284,162.345 93.6174,163.345 91.5,165.5C 89.0905,166.701 87.0905,168.367 85.5,170.5C 84.3659,172.966 84.1993,175.633 85,178.5C 85.8159,179.823 86.9826,180.489 88.5,180.5C 89.9869,181.804 91.6536,182.97 93.5,184C 115.363,191.935 138.029,195.769 161.5,195.5C 162.158,220.931 162.824,246.264 163.5,271.5C 164.209,272.404 165.209,272.737 166.5,272.5C 166.833,272.5 167.167,272.5 167.5,272.5C 167.5,273.167 167.5,273.833 167.5,274.5C 167.096,282.33 169.763,288.663 175.5,293.5C 176.577,299.725 179.911,304.392 185.5,307.5C 185.833,307.5 186.167,307.5 186.5,307.5C 193.717,316.05 202.384,322.717 212.5,327.5C 212.5,329.167 212.5,330.833 212.5,332.5C 216.103,332.702 219.436,333.702 222.5,335.5C 224.569,335.176 224.902,334.342 223.5,333C 224.793,332.51 226.127,332.343 227.5,332.5C 228.833,332.5 230.167,332.5 231.5,332.5C 231.833,332.5 232.167,332.5 232.5,332.5C 232.611,333.117 232.944,333.617 233.5,334C 242.827,334.5 252.161,334.666 261.5,334.5C 260.167,335.5 258.833,336.5 257.5,337.5C 255.491,339.065 253.157,340.065 250.5,340.5C 247.504,341.27 244.837,342.604 242.5,344.5C 235.671,346.128 229.004,348.128 222.5,350.5C 216.497,350.333 210.83,351.333 205.5,353.5C 190.163,353.667 174.83,353.5 159.5,353C 153.011,352.407 146.678,351.241 140.5,349.5C 137.916,347.528 134.916,346.528 131.5,346.5C 128.833,345.833 126.167,345.167 123.5,344.5C 120.481,341.621 116.814,339.955 112.5,339.5C 111.391,339.443 110.391,339.11 109.5,338.5C 107.967,336.755 105.967,335.755 103.5,335.5C 89.9323,328.553 77.599,319.886 66.5,309.5C 61.8333,304.167 56.8333,299.167 51.5,294.5C 39.1113,278.389 28.778,261.056 20.5,242.5C 19.9431,237.835 18.6098,233.502 16.5,229.5C 16.1667,228.167 15.8333,226.833 15.5,225.5C 15.1916,221.64 14.5249,217.974 13.5,214.5C 11.7451,195.895 11.0785,177.228 11.5,158.5C 11.3284,157.508 11.6618,156.842 12.5,156.5C 13.793,155.158 14.6264,153.491 15,151.5C 15.8303,146.192 16.3303,140.859 16.5,135.5C 16.5,135.167 16.5,134.833 16.5,134.5C 17.9459,131.746 18.9459,128.746 19.5,125.5C 20.1098,124.609 20.4431,123.609 20.5,122.5C 23.9094,117.677 26.2428,112.344 27.5,106.5C 28.3764,106.631 29.0431,106.298 29.5,105.5C 31.2228,102.268 32.5561,98.9346 33.5,95.5C 36.6686,88.3381 41.002,82.0047 46.5,76.5C 48.5869,75.4154 49.9202,73.7488 50.5,71.5C 54.5658,68.4372 57.8991,64.7706 60.5,60.5C 64.7706,57.8991 68.4372,54.5658 71.5,50.5C 77.9878,44.0133 85.3212,38.68 93.5,34.5C 95.8477,34.4077 97.5144,33.4077 98.5,31.5C 102.88,30.7827 106.546,28.7827 109.5,25.5C 109.833,25.5 110.167,25.5 110.5,25.5C 112.967,25.2451 114.967,24.2451 116.5,22.5C 119.121,20.5152 122.121,19.5152 125.5,19.5C 129.104,19.9515 132.104,18.9515 134.5,16.5C 136.833,15.8333 139.167,15.1667 141.5,14.5C 147.467,13.3142 153.467,12.3142 159.5,11.5 Z"/></g>
<g><path style="opacity:1" fill="#92c9b8" d="M 159.5,10.5 C 159.5,10.8333 159.5,11.1667 159.5,11.5C 153.467,12.3142 147.467,13.3142 141.5,14.5C 147.156,12.1592 153.156,10.8258 159.5,10.5 Z"/></g>
<g><path style="opacity:1" fill="#c3e1d8" d="M 215.5,12.5 C 218.187,12.3359 220.854,12.5026 223.5,13C 225.32,13.2004 226.653,14.0337 227.5,15.5C 225.708,15.634 224.042,15.3007 222.5,14.5C 220.167,13.8333 217.833,13.1667 215.5,12.5 Z"/></g>
<g><path style="opacity:1" fill="#63b199" d="M 208.5,11.5 C 211.059,11.1984 213.393,11.5318 215.5,12.5C 217.833,13.1667 220.167,13.8333 222.5,14.5C 217.465,14.6768 212.799,13.6768 208.5,11.5 Z"/></g>
<g><path style="opacity:1" fill="#add6ca" d="M 228.5,15.5 C 232.162,15.7234 235.495,16.7234 238.5,18.5C 234.838,18.2766 231.505,17.2766 228.5,15.5 Z"/></g>
<g><path style="opacity:1" fill="#62b399" d="M 134.5,16.5 C 132.104,18.9515 129.104,19.9515 125.5,19.5C 128.008,17.446 131.008,16.446 134.5,16.5 Z"/></g>
<g><path style="opacity:1" fill="#a2d2c3" d="M 249.5,22.5 C 251.027,22.427 252.027,23.0937 252.5,24.5C 250.973,24.573 249.973,23.9063 249.5,22.5 Z"/></g>
<g><path style="opacity:1" fill="#87c5b2" d="M 116.5,22.5 C 114.967,24.2451 112.967,25.2451 110.5,25.5C 112.033,23.7549 114.033,22.7549 116.5,22.5 Z"/></g>
<g><path style="opacity:1" fill="#73baa5" d="M 109.5,25.5 C 106.546,28.7827 102.88,30.7827 98.5,31.5C 101.675,28.6718 105.342,26.6718 109.5,25.5 Z"/></g>
<g><path style="opacity:1" fill="#73baa4" d="M 98.5,31.5 C 97.5144,33.4077 95.8477,34.4077 93.5,34.5C 94.6594,32.7497 96.326,31.7497 98.5,31.5 Z"/></g>
<g><path style="opacity:1" fill="#69b49d" d="M 71.5,50.5 C 68.4372,54.5658 64.7706,57.8991 60.5,60.5C 63.5628,56.4342 67.2294,53.1009 71.5,50.5 Z"/></g>
<g><path style="opacity:1" fill="#71b7a2" d="M 60.5,60.5 C 57.8991,64.7706 54.5658,68.4372 50.5,71.5C 53.1009,67.2294 56.4342,63.5628 60.5,60.5 Z"/></g>
<g><path style="opacity:1" fill="#5faf96" d="M 311.5,67.5 C 314.209,70.2085 316.542,73.2085 318.5,76.5C 316.784,74.7917 314.784,73.4584 312.5,72.5C 311.691,70.9291 311.357,69.2624 311.5,67.5 Z"/></g>
<g><path style="opacity:1" fill="#7ac0aa" d="M 50.5,71.5 C 49.9202,73.7488 48.5869,75.4154 46.5,76.5C 47.0798,74.2512 48.4131,72.5846 50.5,71.5 Z"/></g>
<g><path style="opacity:1" fill="#acd3c7" d="M 256.5,128.5 C 256.5,116.5 256.5,104.5 256.5,92.5C 207.5,92.5 158.5,92.5 109.5,92.5C 108.505,104.322 108.172,116.322 108.5,128.5C 107.505,116.345 107.171,104.011 107.5,91.5C 157.5,91.5 207.5,91.5 257.5,91.5C 257.829,104.011 257.495,116.345 256.5,128.5 Z"/></g>
<g><path style="opacity:1" fill="#fefefe" d="M 109.5,92.5 C 158.5,92.5 207.5,92.5 256.5,92.5C 256.5,104.5 256.5,116.5 256.5,128.5C 238.83,128.333 221.164,128.5 203.5,129C 202.353,136.42 202.187,143.92 203,151.5C 207.796,152.248 212.629,152.915 217.5,153.5C 218.263,154.268 219.263,154.768 220.5,155C 214.659,154.865 208.992,155.031 203.5,155.5C 202.833,155.5 202.5,155.833 202.5,156.5C 201.507,164.65 201.174,172.983 201.5,181.5C 188.833,181.5 176.167,181.5 163.5,181.5C 163.826,172.651 163.493,163.984 162.5,155.5C 158.958,155.187 155.625,155.521 152.5,156.5C 151.833,156.5 151.167,156.5 150.5,156.5C 145.463,156.413 140.463,156.746 135.5,157.5C 132.482,157.665 129.482,157.498 126.5,157C 127.056,156.617 127.389,156.117 127.5,155.5C 129.167,155.5 130.833,155.5 132.5,155.5C 137.338,155.089 142.005,154.422 146.5,153.5C 151.438,152.608 156.438,152.274 161.5,152.5C 162.824,148.893 163.491,144.893 163.5,140.5C 163.485,136.252 163.152,132.085 162.5,128C 144.836,127.5 127.17,127.333 109.5,127.5C 109.5,115.833 109.5,104.167 109.5,92.5 Z"/></g>
<g><path style="opacity:1" fill="#63b59b" d="M 33.5,95.5 C 32.5561,98.9346 31.2228,102.268 29.5,105.5C 29.0431,106.298 28.3764,106.631 27.5,106.5C 28.7417,102.345 30.7417,98.678 33.5,95.5 Z"/></g>
<g><path style="opacity:1" fill="#63b59b" d="M 331.5,95.5 C 333.664,97.822 335.331,100.489 336.5,103.5C 334.468,102.952 333.468,101.619 333.5,99.5C 332.448,99.6495 331.448,99.4828 330.5,99C 331.337,97.9887 331.67,96.8221 331.5,95.5 Z"/></g>
<g><path style="opacity:1" fill="#7dc0ac" d="M 27.5,106.5 C 26.2428,112.344 23.9094,117.677 20.5,122.5C 21.7896,116.599 24.1229,111.265 27.5,106.5 Z"/></g>
<g><path style="opacity:1" fill="#6db7a0" d="M 339.5,111.5 C 340.931,112.903 342.098,114.569 343,116.5C 343.49,117.793 343.657,119.127 343.5,120.5C 342.542,120.047 341.708,119.381 341,118.5C 340.56,116.134 340.06,113.801 339.5,111.5 Z"/></g>
<g><path style="opacity:1" fill="#deece8" d="M 109.5,92.5 C 109.5,104.167 109.5,115.833 109.5,127.5C 127.17,127.333 144.836,127.5 162.5,128C 163.152,132.085 163.485,136.252 163.5,140.5C 163.491,144.893 162.824,148.893 161.5,152.5C 162.818,144.666 162.818,136.833 161.5,129C 143.836,128.5 126.17,128.333 108.5,128.5C 108.172,116.322 108.505,104.322 109.5,92.5 Z"/></g>
<g><path style="opacity:1" fill="#53ae91" d="M 108.5,128.5 C 126.17,128.333 143.836,128.5 161.5,129C 162.818,136.833 162.818,144.666 161.5,152.5C 156.438,152.274 151.438,152.608 146.5,153.5C 142.833,153.5 139.167,153.5 135.5,153.5C 135.918,152.778 136.584,152.278 137.5,152C 145.17,151.478 152.837,150.978 160.5,150.5C 160.5,143.833 160.5,137.167 160.5,130.5C 144.83,130.667 129.163,130.5 113.5,130C 111.618,129.802 109.952,129.302 108.5,128.5 Z"/></g>
<g><path style="opacity:1" fill="#b9dbd1" d="M 19.5,125.5 C 18.9459,128.746 17.9459,131.746 16.5,134.5C 16.446,131.008 17.446,128.008 19.5,125.5 Z"/></g>
<g><path style="opacity:1" fill="#60b399" d="M 256.5,128.5 C 239.341,129.497 222.008,129.83 204.5,129.5C 204.5,136.833 204.5,144.167 204.5,151.5C 212.84,151.666 221.173,151.5 229.5,151C 232.105,149.979 234.772,149.145 237.5,148.5C 238.731,149.651 238.731,150.817 237.5,152C 235.833,152.333 234.167,152.667 232.5,153C 240.476,154.024 248.143,155.858 255.5,158.5C 242.905,156.355 230.238,154.688 217.5,153.5C 212.629,152.915 207.796,152.248 203,151.5C 202.187,143.92 202.353,136.42 203.5,129C 221.164,128.5 238.83,128.333 256.5,128.5 Z"/></g>
<g><path style="opacity:1" fill="#a8d2c5" d="M 350.5,144.5 C 352.966,148.018 353.966,152.018 353.5,156.5C 352.508,152.596 351.508,148.596 350.5,144.5 Z"/></g>
<g><path style="opacity:1" fill="#50ad91" d="M 16.5,135.5 C 16.3303,140.859 15.8303,146.192 15,151.5C 14.6264,153.491 13.793,155.158 12.5,156.5C 12.3359,153.813 12.5026,151.146 13,148.5C 14.1742,144.058 15.3408,139.725 16.5,135.5 Z"/></g>
<g><path style="opacity:1" fill="#b9d8cf" d="M 135.5,153.5 C 139.167,153.5 142.833,153.5 146.5,153.5C 142.005,154.422 137.338,155.089 132.5,155.5C 133.29,154.599 134.29,153.932 135.5,153.5 Z"/></g>
<g><path style="opacity:1" fill="#81bbaa" d="M 212.5,156.5 C 218.739,156.276 224.739,156.943 230.5,158.5C 224.301,158.348 218.301,157.682 212.5,156.5 Z"/></g>
<g><path style="opacity:1" fill="#6bb29d" d="M 150.5,156.5 C 145.731,157.889 140.731,158.556 135.5,158.5C 135.5,158.167 135.5,157.833 135.5,157.5C 140.463,156.746 145.463,156.413 150.5,156.5 Z"/></g>
<g><path style="opacity:1" fill="#74b7a3" d="M 152.5,156.5 C 155.625,155.521 158.958,155.187 162.5,155.5C 162.5,164.167 162.5,172.833 162.5,181.5C 161.507,173.35 161.174,165.017 161.5,156.5C 158.5,156.5 155.5,156.5 152.5,156.5 Z"/></g>
<g><path style="opacity:1" fill="#27a17c" d="M 150.5,156.5 C 151.167,156.5 151.833,156.5 152.5,156.5C 155.5,156.5 158.5,156.5 161.5,156.5C 161.174,165.017 161.507,173.35 162.5,181.5C 162.5,182.167 162.833,182.5 163.5,182.5C 175.701,182.84 187.701,183.84 199.5,185.5C 199.027,186.906 198.027,187.573 196.5,187.5C 195.833,187.5 195.167,187.5 194.5,187.5C 176.826,187.461 159.16,187.127 141.5,186.5C 140.833,186.5 140.167,186.5 139.5,186.5C 133.08,184.716 126.413,183.716 119.5,183.5C 115.694,180.966 111.36,179.966 106.5,180.5C 102.569,179.446 99.0688,177.446 96,174.5C 95.1939,169.94 97.0273,166.774 101.5,165C 109.034,162.524 116.701,160.69 124.5,159.5C 128.119,158.756 131.785,158.423 135.5,158.5C 140.731,158.556 145.731,157.889 150.5,156.5 Z"/></g>
<g><path style="opacity:1" fill="#2aa07c" d="M 209.5,156.5 C 210.5,156.5 211.5,156.5 212.5,156.5C 218.301,157.682 224.301,158.348 230.5,158.5C 238.172,158.702 245.505,160.035 252.5,162.5C 254.189,163.304 255.855,164.304 257.5,165.5C 252.264,167.697 246.93,169.03 241.5,169.5C 239.708,169.366 238.042,169.699 236.5,170.5C 225.263,171.767 214.929,175.433 205.5,181.5C 204.833,181.5 204.167,181.5 203.5,181.5C 203.5,173.167 203.5,164.833 203.5,156.5C 205.5,156.5 207.5,156.5 209.5,156.5 Z"/></g>
<g><path style="opacity:1" fill="#bcddd3" d="M 127.5,155.5 C 127.389,156.117 127.056,156.617 126.5,157C 129.482,157.498 132.482,157.665 135.5,157.5C 135.5,157.833 135.5,158.167 135.5,158.5C 131.785,158.423 128.119,158.756 124.5,159.5C 124.611,158.883 124.944,158.383 125.5,158C 123.833,157.833 122.167,157.667 120.5,157.5C 114.734,158.422 109.067,159.756 103.5,161.5C 110.814,157.407 118.814,155.407 127.5,155.5 Z"/></g>
<g><path style="opacity:1" fill="#f3f8f7" d="M 124.5,159.5 C 116.701,160.69 109.034,162.524 101.5,165C 97.0273,166.774 95.1939,169.94 96,174.5C 99.0688,177.446 102.569,179.446 106.5,180.5C 110.59,182.075 114.923,183.075 119.5,183.5C 125.92,185.284 132.587,186.284 139.5,186.5C 140.167,186.5 140.833,186.5 141.5,186.5C 158.632,188.275 175.965,188.941 193.5,188.5C 169.475,211.576 160.475,239.576 166.5,272.5C 165.209,272.737 164.209,272.404 163.5,271.5C 164.157,245.811 163.491,220.478 161.5,195.5C 138.029,195.769 115.363,191.935 93.5,184C 91.6536,182.97 89.9869,181.804 88.5,180.5C 85.8574,177.766 84.8574,174.433 85.5,170.5C 87.0905,168.367 89.0905,166.701 91.5,165.5C 94.3973,164.871 97.064,163.871 99.5,162.5C 100.568,161.566 101.901,161.232 103.5,161.5C 109.067,159.756 114.734,158.422 120.5,157.5C 122.167,157.667 123.833,157.833 125.5,158C 124.944,158.383 124.611,158.883 124.5,159.5 Z"/></g>
<g><path style="opacity:1" fill="#e4ebe9" d="M 217.5,153.5 C 230.238,154.688 242.905,156.355 255.5,158.5C 259.197,160.399 263.197,161.732 267.5,162.5C 271.219,164.019 274.553,166.019 277.5,168.5C 278.615,170.307 279.281,172.307 279.5,174.5C 279.48,175.726 279.147,176.726 278.5,177.5C 275.598,176.422 272.598,175.756 269.5,175.5C 258.609,173.683 247.609,173.016 236.5,173.5C 235.167,173.5 233.833,173.5 232.5,173.5C 231.761,173.631 231.094,173.464 230.5,173C 232.723,172.434 234.723,171.6 236.5,170.5C 238.042,169.699 239.708,169.366 241.5,169.5C 251.292,169.366 260.959,170.366 270.5,172.5C 270.715,170.821 270.048,169.821 268.5,169.5C 267.341,167.75 265.674,166.75 263.5,166.5C 260.207,164.224 256.54,162.891 252.5,162.5C 245.505,160.035 238.172,158.702 230.5,158.5C 224.739,156.943 218.739,156.276 212.5,156.5C 211.5,156.5 210.5,156.5 209.5,156.5C 207.735,155.539 205.735,155.205 203.5,155.5C 208.992,155.031 214.659,154.865 220.5,155C 219.263,154.768 218.263,154.268 217.5,153.5 Z"/></g>
<g><path style="opacity:1" fill="#a0cdbf" d="M 99.5,162.5 C 97.064,163.871 94.3973,164.871 91.5,165.5C 93.6174,163.345 96.284,162.345 99.5,162.5 Z"/></g>
<g><path style="opacity:1" fill="#9ecec1" d="M 203.5,155.5 C 205.735,155.205 207.735,155.539 209.5,156.5C 207.5,156.5 205.5,156.5 203.5,156.5C 203.5,164.833 203.5,173.167 203.5,181.5C 203.167,181.5 202.833,181.5 202.5,181.5C 202.5,173.167 202.5,164.833 202.5,156.5C 202.5,155.833 202.833,155.5 203.5,155.5 Z"/></g>
<g><path style="opacity:1" fill="#50a88e" d="M 252.5,162.5 C 256.54,162.891 260.207,164.224 263.5,166.5C 260.774,166.264 258.441,167.097 256.5,169C 259.682,169.407 262.849,169.907 266,170.5C 267.07,170.472 267.903,170.139 268.5,169.5C 270.048,169.821 270.715,170.821 270.5,172.5C 260.959,170.366 251.292,169.366 241.5,169.5C 246.93,169.03 252.264,167.697 257.5,165.5C 255.855,164.304 254.189,163.304 252.5,162.5 Z"/></g>
<g><path style="opacity:1" fill="#2aa17f" d="M 263.5,166.5 C 265.674,166.75 267.341,167.75 268.5,169.5C 267.903,170.139 267.07,170.472 266,170.5C 262.849,169.907 259.682,169.407 256.5,169C 258.441,167.097 260.774,166.264 263.5,166.5 Z"/></g>
<g><path style="opacity:1" fill="#6b6b6b" d="M 232.5,173.5 C 233.833,173.5 235.167,173.5 236.5,173.5C 234.485,174.924 232.152,175.59 229.5,175.5C 230.5,174.833 231.5,174.167 232.5,173.5 Z"/></g>
<g><path style="opacity:1" fill="#1b1b1b" d="M 236.5,173.5 C 247.609,173.016 258.609,173.683 269.5,175.5C 272.145,177.31 275.145,178.31 278.5,178.5C 285.987,181.975 292.987,186.308 299.5,191.5C 301.5,194.167 303.833,196.5 306.5,198.5C 309.209,201.208 311.542,204.208 313.5,207.5C 313.427,209.027 314.094,210.027 315.5,210.5C 315.427,212.027 316.094,213.027 317.5,213.5C 320.236,216.982 321.903,220.982 322.5,225.5C 323.149,229.951 324.316,234.284 326,238.5C 326.5,246.159 326.666,253.826 326.5,261.5C 325.5,266.835 324.5,272.168 323.5,277.5C 321.926,279.102 321.259,281.102 321.5,283.5C 320.094,283.973 319.427,284.973 319.5,286.5C 318.094,286.973 317.427,287.973 317.5,289.5C 316.89,290.391 316.557,291.391 316.5,292.5C 315.094,292.973 314.427,293.973 314.5,295.5C 313.094,295.973 312.427,296.973 312.5,298.5C 310.367,300.091 308.701,302.091 307.5,304.5C 304.167,307.167 301.167,310.167 298.5,313.5C 296.973,313.427 295.973,314.094 295.5,315.5C 293.973,315.427 292.973,316.094 292.5,317.5C 290.973,317.427 289.973,318.094 289.5,319.5C 286.515,320.326 283.849,321.659 281.5,323.5C 277.851,324.267 274.518,325.6 271.5,327.5C 270.833,327.5 270.167,327.5 269.5,327.5C 266.273,327.676 263.273,328.343 260.5,329.5C 252.876,330.398 245.209,330.731 237.5,330.5C 236.833,330.5 236.167,330.5 235.5,330.5C 234.167,329.833 232.833,329.167 231.5,328.5C 229.981,327.59 228.315,326.757 226.5,326C 227.094,325.536 227.761,325.369 228.5,325.5C 229.833,325.5 231.167,325.5 232.5,325.5C 241.443,327.704 250.443,328.037 259.5,326.5C 261.565,326.483 263.565,326.15 265.5,325.5C 268.152,325.59 270.485,324.924 272.5,323.5C 275.313,323.975 277.313,322.975 278.5,320.5C 287.67,316.08 296.004,310.413 303.5,303.5C 304.906,303.027 305.573,302.027 305.5,300.5C 310.855,293.794 315.188,286.46 318.5,278.5C 320.277,275.495 321.277,272.162 321.5,268.5C 323.099,256.76 322.766,245.093 320.5,233.5C 319.438,228.564 317.771,223.898 315.5,219.5C 315.573,217.973 314.906,216.973 313.5,216.5C 307.971,205.969 300.304,197.302 290.5,190.5C 290.027,189.094 289.027,188.427 287.5,188.5C 283.577,187.205 279.91,185.372 276.5,183C 272.268,181.388 267.934,180.221 263.5,179.5C 262.737,178.732 261.737,178.232 260.5,178C 251.99,177.177 243.656,177.343 235.5,178.5C 231.884,178.899 228.55,179.899 225.5,181.5C 222.084,181.528 219.084,182.528 216.5,184.5C 214.847,184.66 213.514,185.326 212.5,186.5C 210.973,186.427 209.973,187.094 209.5,188.5C 206.63,189.433 204.296,191.1 202.5,193.5C 197.167,196.833 192.833,201.167 189.5,206.5C 187.1,208.296 185.433,210.63 184.5,213.5C 180.227,218.719 177.56,224.719 176.5,231.5C 173.81,241.943 172.81,252.61 173.5,263.5C 173.41,266.152 174.076,268.485 175.5,270.5C 176.301,272.042 176.634,273.708 176.5,275.5C 176.357,277.262 176.691,278.929 177.5,280.5C 177.03,281.463 176.363,281.463 175.5,280.5C 175.34,278.847 174.674,277.514 173.5,276.5C 173.5,276.167 173.5,275.833 173.5,275.5C 173.59,272.848 172.924,270.515 171.5,268.5C 169.464,258.535 169.131,248.535 170.5,238.5C 172.074,236.898 172.741,234.898 172.5,232.5C 174.397,222.784 178.397,214.117 184.5,206.5C 185.906,206.027 186.573,205.027 186.5,203.5C 186.833,202.5 187.5,201.833 188.5,201.5C 190.587,200.415 191.92,198.749 192.5,196.5C 196.587,192.078 201.254,188.411 206.5,185.5C 208.027,185.573 209.027,184.906 209.5,183.5C 215.556,179.479 222.223,176.812 229.5,175.5C 232.152,175.59 234.485,174.924 236.5,173.5 Z"/></g>
<g><path style="opacity:1" fill="#a6a6a6" d="M 269.5,175.5 C 272.598,175.756 275.598,176.422 278.5,177.5C 278.5,177.833 278.5,178.167 278.5,178.5C 275.145,178.31 272.145,177.31 269.5,175.5 Z"/></g>
<g><path style="opacity:1" fill="#7dbeaa" d="M 85.5,170.5 C 84.8574,174.433 85.8574,177.766 88.5,180.5C 86.9826,180.489 85.8159,179.823 85,178.5C 84.1993,175.633 84.3659,172.966 85.5,170.5 Z"/></g>
<g><path style="opacity:1" fill="#7a7a7a" d="M 235.5,178.5 C 243.656,177.343 251.99,177.177 260.5,178C 261.737,178.232 262.737,178.732 263.5,179.5C 254.199,178.613 244.866,178.279 235.5,178.5 Z"/></g>
<g><path style="opacity:1" fill="#81beac" d="M 11.5,158.5 C 11.0785,177.228 11.7451,195.895 13.5,214.5C 9.17879,196.052 8.51213,177.385 11.5,158.5 Z"/></g>
<g><path style="opacity:1" fill="#6ab9a0" d="M 106.5,180.5 C 111.36,179.966 115.694,180.966 119.5,183.5C 114.923,183.075 110.59,182.075 106.5,180.5 Z"/></g>
<g><path style="opacity:1" fill="#e1eeea" d="M 162.5,155.5 C 163.493,163.984 163.826,172.651 163.5,181.5C 176.167,181.5 188.833,181.5 201.5,181.5C 201.174,172.983 201.507,164.65 202.5,156.5C 202.5,164.833 202.5,173.167 202.5,181.5C 189.677,182.495 176.677,182.829 163.5,182.5C 162.833,182.5 162.5,182.167 162.5,181.5C 162.5,172.833 162.5,164.167 162.5,155.5 Z"/></g>
<g><path style="opacity:1" fill="#77ac9e" d="M 202.5,181.5 C 202.833,181.5 203.167,181.5 203.5,181.5C 204.167,181.5 204.833,181.5 205.5,181.5C 203.882,183.316 201.882,184.649 199.5,185.5C 187.701,183.84 175.701,182.84 163.5,182.5C 176.677,182.829 189.677,182.495 202.5,181.5 Z"/></g>
<g><path style="opacity:1" fill="#9a9a9a" d="M 225.5,181.5 C 222.855,183.31 219.855,184.31 216.5,184.5C 219.084,182.528 222.084,181.528 225.5,181.5 Z"/></g>
<g><path style="opacity:1" fill="#020202" d="M 255.5,181.5 C 273.558,183.862 288.891,191.529 301.5,204.5C 301.427,206.027 302.094,207.027 303.5,207.5C 305.262,208.262 306.262,209.596 306.5,211.5C 306.738,213.404 307.738,214.738 309.5,215.5C 310.338,215.842 310.672,216.508 310.5,217.5C 310.427,219.027 311.094,220.027 312.5,220.5C 313.787,223.406 314.787,226.406 315.5,229.5C 315.723,233.162 316.723,236.495 318.5,239.5C 319.739,249.019 319.739,258.686 318.5,268.5C 317.076,270.515 316.41,272.848 316.5,275.5C 314.39,278.893 312.723,282.56 311.5,286.5C 310.094,286.973 309.427,287.973 309.5,289.5C 301.685,301.65 291.351,310.983 278.5,317.5C 274.851,318.267 271.518,319.6 268.5,321.5C 258.933,323.242 249.266,323.908 239.5,323.5C 237.05,323.702 234.717,323.369 232.5,322.5C 229.495,320.723 226.162,319.723 222.5,319.5C 220.95,318.559 219.284,317.893 217.5,317.5C 217.027,316.094 216.027,315.427 214.5,315.5C 213.508,315.672 212.842,315.338 212.5,314.5C 212.027,313.094 211.027,312.427 209.5,312.5C 196.914,304.91 187.914,294.243 182.5,280.5C 181.871,277.603 180.871,274.936 179.5,272.5C 175.286,257.41 175.62,242.41 180.5,227.5C 182.674,224.485 184.341,221.151 185.5,217.5C 186.906,217.027 187.573,216.027 187.5,214.5C 189.262,213.738 190.262,212.404 190.5,210.5C 191.415,208.246 192.748,206.246 194.5,204.5C 196.833,202.833 198.833,200.833 200.5,198.5C 200.833,198.5 201.167,198.5 201.5,198.5C 203.749,197.92 205.415,196.587 206.5,194.5C 209.161,191.498 212.495,189.498 216.5,188.5C 218.027,188.573 219.027,187.906 219.5,186.5C 220.833,186.167 222.167,185.833 223.5,185.5C 227.162,185.277 230.495,184.277 233.5,182.5C 240.809,181.752 248.142,181.418 255.5,181.5 Z"/></g>
<g><path style="opacity:1" fill="#4c4c4c" d="M 209.5,183.5 C 209.027,184.906 208.027,185.573 206.5,185.5C 206.973,184.094 207.973,183.427 209.5,183.5 Z"/></g>
<g><path style="opacity:1" fill="#73bda7" d="M 119.5,183.5 C 126.413,183.716 133.08,184.716 139.5,186.5C 132.587,186.284 125.92,185.284 119.5,183.5 Z"/></g>
<g><path style="opacity:1" fill="#4cad90" d="M 141.5,186.5 C 159.16,187.127 176.826,187.461 194.5,187.5C 194.5,188.167 194.167,188.5 193.5,188.5C 175.965,188.941 158.632,188.275 141.5,186.5 Z"/></g>
<g><path style="opacity:1" fill="#878787" d="M 212.5,186.5 C 212.027,187.906 211.027,188.573 209.5,188.5C 209.973,187.094 210.973,186.427 212.5,186.5 Z"/></g>
<g><path style="opacity:1" fill="#d7dfdd" d="M 277.5,168.5 C 278.458,168.953 279.292,169.619 280,170.5C 280.236,172.764 280.736,174.931 281.5,177C 302.991,186.652 317.657,202.486 325.5,224.5C 328.95,236.905 330.283,249.572 329.5,262.5C 329.5,262.833 329.5,263.167 329.5,263.5C 328.313,266.98 327.813,270.647 328,274.5C 328.383,273.944 328.883,273.611 329.5,273.5C 328.609,275.609 327.442,277.609 326,279.5C 325.667,278.167 325.333,276.833 325,275.5C 324.722,276.416 324.222,277.082 323.5,277.5C 324.5,272.168 325.5,266.835 326.5,261.5C 327.656,253.677 327.823,245.677 327,237.5C 325.766,233.285 324.266,229.285 322.5,225.5C 321.903,220.982 320.236,216.982 317.5,213.5C 317.573,211.973 316.906,210.973 315.5,210.5C 315.573,208.973 314.906,207.973 313.5,207.5C 311.542,204.208 309.209,201.208 306.5,198.5C 305.167,195.167 302.833,192.833 299.5,191.5C 292.987,186.308 285.987,181.975 278.5,178.5C 278.5,178.167 278.5,177.833 278.5,177.5C 279.147,176.726 279.48,175.726 279.5,174.5C 279.281,172.307 278.615,170.307 277.5,168.5 Z"/></g>
<g><path style="opacity:1" fill="#535353" d="M 287.5,188.5 C 289.027,188.427 290.027,189.094 290.5,190.5C 288.973,190.573 287.973,189.906 287.5,188.5 Z"/></g>
<g><path style="opacity:1" fill="#929292" d="M 299.5,191.5 C 302.833,192.833 305.167,195.167 306.5,198.5C 303.833,196.5 301.5,194.167 299.5,191.5 Z"/></g>
<g><path style="opacity:1" fill="#cbcbcb" d="M 235.5,178.5 C 244.866,178.279 254.199,178.613 263.5,179.5C 267.934,180.221 272.268,181.388 276.5,183C 279.91,185.372 283.577,187.205 287.5,188.5C 287.973,189.906 288.973,190.573 290.5,190.5C 300.304,197.302 307.971,205.969 313.5,216.5C 313.427,218.027 314.094,219.027 315.5,219.5C 317.771,223.898 319.438,228.564 320.5,233.5C 318.797,232.34 318.131,233.007 318.5,235.5C 317.5,233.5 316.5,231.5 315.5,229.5C 314.787,226.406 313.787,223.406 312.5,220.5C 312.573,218.973 311.906,217.973 310.5,217.5C 310.672,216.508 310.338,215.842 309.5,215.5C 309.262,213.596 308.262,212.262 306.5,211.5C 306.262,209.596 305.262,208.262 303.5,207.5C 303.573,205.973 302.906,204.973 301.5,204.5C 288.891,191.529 273.558,183.862 255.5,181.5C 247.445,180.111 239.445,180.444 231.5,182.5C 228.603,183.129 225.936,184.129 223.5,185.5C 222.167,185.833 220.833,186.167 219.5,186.5C 217.973,186.427 216.973,187.094 216.5,188.5C 212.495,189.498 209.161,191.498 206.5,194.5C 204.251,195.08 202.585,196.413 201.5,198.5C 201.167,198.5 200.833,198.5 200.5,198.5C 199.761,198.631 199.094,198.464 198.5,198C 200.041,196.629 201.375,195.129 202.5,193.5C 204.296,191.1 206.63,189.433 209.5,188.5C 211.027,188.573 212.027,187.906 212.5,186.5C 213.514,185.326 214.847,184.66 216.5,184.5C 219.855,184.31 222.855,183.31 225.5,181.5C 228.55,179.899 231.884,178.899 235.5,178.5 Z"/></g>
<g><path style="opacity:1" fill="#585858" d="M 219.5,186.5 C 219.027,187.906 218.027,188.573 216.5,188.5C 216.973,187.094 217.973,186.427 219.5,186.5 Z"/></g>
<g><path style="opacity:1" fill="#323232" d="M 231.5,182.5 C 232.167,182.5 232.833,182.5 233.5,182.5C 230.495,184.277 227.162,185.277 223.5,185.5C 225.936,184.129 228.603,183.129 231.5,182.5 Z"/></g>
<g><path style="opacity:1" fill="#686868" d="M 255.5,181.5 C 248.142,181.418 240.809,181.752 233.5,182.5C 232.833,182.5 232.167,182.5 231.5,182.5C 239.445,180.444 247.445,180.111 255.5,181.5 Z"/></g>
<g><path style="opacity:1" fill="#2d2d2d" d="M 206.5,194.5 C 205.415,196.587 203.749,197.92 201.5,198.5C 202.585,196.413 204.251,195.08 206.5,194.5 Z"/></g>
<g><path style="opacity:1" fill="#535353" d="M 192.5,196.5 C 191.92,198.749 190.587,200.415 188.5,201.5C 189.08,199.251 190.413,197.585 192.5,196.5 Z"/></g>
<g><path style="opacity:1" fill="#bbbbbb" d="M 202.5,193.5 C 201.375,195.129 200.041,196.629 198.5,198C 199.094,198.464 199.761,198.631 200.5,198.5C 198.833,200.833 196.833,202.833 194.5,204.5C 194.631,203.761 194.464,203.094 194,202.5C 192.629,204.041 191.129,205.375 189.5,206.5C 192.833,201.167 197.167,196.833 202.5,193.5 Z"/></g>
<g><path style="opacity:1" fill="#565656" d="M 186.5,203.5 C 186.573,205.027 185.906,206.027 184.5,206.5C 184.427,204.973 185.094,203.973 186.5,203.5 Z"/></g>
<g><path style="opacity:1" fill="#d6d6d6" d="M 194.5,204.5 C 192.748,206.246 191.415,208.246 190.5,210.5C 188.738,211.262 187.738,212.596 187.5,214.5C 186.094,214.973 185.427,215.973 185.5,217.5C 184.624,217.631 183.957,217.298 183.5,216.5C 184.127,215.583 184.461,214.583 184.5,213.5C 185.433,210.63 187.1,208.296 189.5,206.5C 191.129,205.375 192.629,204.041 194,202.5C 194.464,203.094 194.631,203.761 194.5,204.5 Z"/></g>
<g><path style="opacity:1" fill="#4a4a4a" d="M 301.5,204.5 C 302.906,204.973 303.573,205.973 303.5,207.5C 302.094,207.027 301.427,206.027 301.5,204.5 Z"/></g>
<g><path style="opacity:1" fill="#525252" d="M 313.5,207.5 C 314.906,207.973 315.573,208.973 315.5,210.5C 314.094,210.027 313.427,209.027 313.5,207.5 Z"/></g>
<g><path style="opacity:1" fill="#3d3d3d" d="M 190.5,210.5 C 190.262,212.404 189.262,213.738 187.5,214.5C 187.738,212.596 188.738,211.262 190.5,210.5 Z"/></g>
<g><path style="opacity:1" fill="#606060" d="M 315.5,210.5 C 316.906,210.973 317.573,211.973 317.5,213.5C 316.094,213.027 315.427,212.027 315.5,210.5 Z"/></g>
<g><path style="opacity:1" fill="#404040" d="M 306.5,211.5 C 308.262,212.262 309.262,213.596 309.5,215.5C 307.738,214.738 306.738,213.404 306.5,211.5 Z"/></g>
<g><path style="opacity:1" fill="#616161" d="M 187.5,214.5 C 187.573,216.027 186.906,217.027 185.5,217.5C 185.427,215.973 186.094,214.973 187.5,214.5 Z"/></g>
<g><path style="opacity:1" fill="#777777" d="M 313.5,216.5 C 314.906,216.973 315.573,217.973 315.5,219.5C 314.094,219.027 313.427,218.027 313.5,216.5 Z"/></g>
<g><path style="opacity:1" fill="#686868" d="M 310.5,217.5 C 311.906,217.973 312.573,218.973 312.5,220.5C 311.094,220.027 310.427,219.027 310.5,217.5 Z"/></g>
<g><path style="opacity:1" fill="#94c9b9" d="M 353.5,204.5 C 353.221,210.105 352.221,215.438 350.5,220.5C 350.779,214.895 351.779,209.562 353.5,204.5 Z"/></g>
<g><path style="opacity:1" fill="#b7dbd0" d="M 13.5,214.5 C 14.5249,217.974 15.1916,221.64 15.5,225.5C 13.783,222.155 13.1164,218.489 13.5,214.5 Z"/></g>
<g><path style="opacity:1" fill="#acacac" d="M 184.5,213.5 C 184.461,214.583 184.127,215.583 183.5,216.5C 183.957,217.298 184.624,217.631 185.5,217.5C 184.341,221.151 182.674,224.485 180.5,227.5C 180.649,226.448 180.483,225.448 180,224.5C 178.787,226.925 177.621,229.259 176.5,231.5C 177.56,224.719 180.227,218.719 184.5,213.5 Z"/></g>
<g><path style="opacity:1" fill="#570f16" d="M 264.5,225.5 C 263.167,225.5 261.833,225.5 260.5,225.5C 260.5,226.5 260.5,227.5 260.5,228.5C 259.566,227.432 259.232,226.099 259.5,224.5C 261.415,224.216 263.081,224.549 264.5,225.5 Z"/></g>
<g><path style="opacity:1" fill="#9c1926" d="M 264.5,225.5 C 265.89,226.899 266.89,228.566 267.5,230.5C 266.292,229.766 264.959,229.433 263.5,229.5C 263.5,231.167 263.5,232.833 263.5,234.5C 261.992,232.819 260.992,230.819 260.5,228.5C 260.5,227.5 260.5,226.5 260.5,225.5C 261.833,225.5 263.167,225.5 264.5,225.5 Z"/></g>
<g><path style="opacity:1" fill="#4b4b4b" d="M 322.5,225.5 C 324.266,229.285 325.766,233.285 327,237.5C 327.823,245.677 327.656,253.677 326.5,261.5C 326.666,253.826 326.5,246.159 326,238.5C 324.316,234.284 323.149,229.951 322.5,225.5 Z"/></g>
<g><path style="opacity:1" fill="#dedede" d="M 236.5,170.5 C 234.723,171.6 232.723,172.434 230.5,173C 231.094,173.464 231.761,173.631 232.5,173.5C 231.5,174.167 230.5,174.833 229.5,175.5C 222.223,176.812 215.556,179.479 209.5,183.5C 207.973,183.427 206.973,184.094 206.5,185.5C 201.254,188.411 196.587,192.078 192.5,196.5C 190.413,197.585 189.08,199.251 188.5,201.5C 187.5,201.833 186.833,202.5 186.5,203.5C 185.094,203.973 184.427,204.973 184.5,206.5C 178.397,214.117 174.397,222.784 172.5,232.5C 170.926,234.102 170.259,236.102 170.5,238.5C 169.131,248.535 169.464,258.535 171.5,268.5C 171.41,271.152 172.076,273.485 173.5,275.5C 173.5,275.833 173.5,276.167 173.5,276.5C 173.259,278.898 173.926,280.898 175.5,282.5C 176.167,283.5 176.833,284.5 177.5,285.5C 178.833,287.5 180.167,289.5 181.5,291.5C 192.444,311.428 209.111,323.762 231.5,328.5C 232.833,329.167 234.167,329.833 235.5,330.5C 234.448,330.351 233.448,330.517 232.5,331C 233.737,331.232 234.737,331.732 235.5,332.5C 234.5,332.5 233.5,332.5 232.5,332.5C 232.167,332.5 231.833,332.5 231.5,332.5C 228.746,331.054 225.746,330.054 222.5,329.5C 220.883,328.962 219.216,328.629 217.5,328.5C 206.457,323.465 196.79,316.465 188.5,307.5C 179.296,297.427 172.962,285.76 169.5,272.5C 162.991,245.881 168.158,221.881 185,200.5C 189.246,196.477 193.079,192.144 196.5,187.5C 198.027,187.573 199.027,186.906 199.5,185.5C 201.882,184.649 203.882,183.316 205.5,181.5C 214.929,175.433 225.263,171.767 236.5,170.5 Z"/></g>
<g><path style="opacity:1" fill="#6d131c" d="M 267.5,230.5 C 268.906,230.973 269.573,231.973 269.5,233.5C 268.094,233.027 267.427,232.027 267.5,230.5 Z"/></g>
<g><path style="opacity:1" fill="#c1dfd6" d="M 16.5,229.5 C 18.6098,233.502 19.9431,237.835 20.5,242.5C 18.3902,238.498 17.0569,234.165 16.5,229.5 Z"/></g>
<g><path style="opacity:1" fill="#2d2d2d" d="M 315.5,229.5 C 316.5,231.5 317.5,233.5 318.5,235.5C 318.5,236.833 318.5,238.167 318.5,239.5C 316.723,236.495 315.723,233.162 315.5,229.5 Z"/></g>
<g><path style="opacity:1" fill="#b61c2b" d="M 267.5,230.5 C 267.427,232.027 268.094,233.027 269.5,233.5C 270.08,235.749 271.413,237.415 273.5,238.5C 276.625,241.965 280.292,244.632 284.5,246.5C 284.5,246.833 284.5,247.167 284.5,247.5C 283.837,249.042 283.17,250.709 282.5,252.5C 281.717,254.288 280.384,255.288 278.5,255.5C 279.303,254.577 279.47,253.577 279,252.5C 276.63,249.961 274.13,247.628 271.5,245.5C 271.262,243.596 270.262,242.262 268.5,241.5C 268.167,240.5 267.5,239.833 266.5,239.5C 266.573,237.973 265.906,236.973 264.5,236.5C 264.672,235.508 264.338,234.842 263.5,234.5C 263.5,232.833 263.5,231.167 263.5,229.5C 264.959,229.433 266.292,229.766 267.5,230.5 Z"/></g>
<g><path style="opacity:1" fill="#76131d" d="M 269.5,233.5 C 271.587,234.585 272.92,236.251 273.5,238.5C 271.413,237.415 270.08,235.749 269.5,233.5 Z"/></g>
<g><path style="opacity:1" fill="#221e57" d="M 265.5,249.5 C 263.473,250.861 261.806,252.527 260.5,254.5C 257.946,250.048 255.113,245.714 252,241.5C 250,234.833 248,228.167 246,221.5C 245.333,216.833 245.333,212.167 246,207.5C 249.025,223.211 255.525,237.211 265.5,249.5 Z"/></g>
<g><path style="opacity:1" fill="#797979" d="M 172.5,232.5 C 172.741,234.898 172.074,236.898 170.5,238.5C 170.259,236.102 170.926,234.102 172.5,232.5 Z"/></g>
<g><path style="opacity:1" fill="#3a0b0f" d="M 264.5,236.5 C 265.906,236.973 266.573,237.973 266.5,239.5C 265.094,239.027 264.427,238.027 264.5,236.5 Z"/></g>
<g><path style="opacity:1" fill="#c2dad4" d="M 161.5,195.5 C 163.491,220.478 164.157,245.811 163.5,271.5C 162.824,246.264 162.158,220.931 161.5,195.5 Z"/></g>
<g><path style="opacity:1" fill="#979798" d="M 194.5,187.5 C 195.167,187.5 195.833,187.5 196.5,187.5C 193.079,192.144 189.246,196.477 185,200.5C 168.158,221.881 162.991,245.881 169.5,272.5C 168.833,272.5 168.167,272.5 167.5,272.5C 167.167,272.5 166.833,272.5 166.5,272.5C 160.475,239.576 169.475,211.576 193.5,188.5C 194.167,188.5 194.5,188.167 194.5,187.5 Z"/></g>
<g><path style="opacity:1" fill="#420d13" d="M 268.5,241.5 C 270.262,242.262 271.262,243.596 271.5,245.5C 269.738,244.738 268.738,243.404 268.5,241.5 Z"/></g>
<g><path style="opacity:1" fill="#232324" d="M 238.5,246.5 C 240.833,245.167 243.167,245.167 245.5,246.5C 244.503,246.47 243.836,246.97 243.5,248C 243.706,250.73 244.706,252.897 246.5,254.5C 244.167,255.833 241.833,255.833 239.5,254.5C 240.725,253.848 241.392,252.681 241.5,251C 241.95,248.374 240.95,246.874 238.5,246.5 Z"/></g>
<g><path style="opacity:1" fill="#8f8f91" d="M 221.5,246.5 C 222.167,246.833 222.833,247.167 223.5,247.5C 224.492,247.328 225.158,247.662 225.5,248.5C 224.766,249.708 224.433,251.041 224.5,252.5C 223.522,250.544 222.522,248.544 221.5,246.5 Z"/></g>
<g><path style="opacity:1" fill="#555456" d="M 233.5,246.5 C 230.325,245.909 227.991,246.909 226.5,249.5C 226.5,248.833 226.167,248.5 225.5,248.5C 225.158,247.662 224.492,247.328 223.5,247.5C 223.611,246.883 223.944,246.383 224.5,246C 227.696,245.195 230.696,245.362 233.5,246.5 Z"/></g>
<g><path style="opacity:1" fill="#444446" d="M 248.5,246.5 C 249.302,245.115 249.969,245.282 250.5,247C 250.43,247.765 250.097,248.265 249.5,248.5C 249.672,247.508 249.338,246.842 248.5,246.5 Z"/></g>
<g><path style="opacity:1" fill="#440c0c" d="M 284.5,247.5 C 284.5,247.167 284.5,246.833 284.5,246.5C 286.027,246.427 287.027,247.094 287.5,248.5C 286.391,248.443 285.391,248.11 284.5,247.5 Z"/></g>
<g><path style="opacity:1" fill="#d6d6d6" d="M 320.5,233.5 C 322.766,245.093 323.099,256.76 321.5,268.5C 319.928,271.215 318.928,274.215 318.5,277.5C 316.797,278.66 316.131,277.993 316.5,275.5C 317.924,273.485 318.59,271.152 318.5,268.5C 319.739,258.686 319.739,249.019 318.5,239.5C 318.5,238.167 318.5,236.833 318.5,235.5C 318.131,233.007 318.797,232.34 320.5,233.5 Z"/></g>
<g><path style="opacity:1" fill="#98d2c0" d="M 325.5,224.5 C 327.668,228.841 329.168,233.508 330,238.5C 330.823,246.677 330.656,254.677 329.5,262.5C 330.283,249.572 328.95,236.905 325.5,224.5 Z"/></g>
<g><path style="opacity:1" fill="#444445" d="M 234.5,247.5 C 235.167,247.833 235.833,248.167 236.5,248.5C 236.262,250.404 235.262,251.738 233.5,252.5C 231.833,252.5 230.167,252.5 228.5,252.5C 229.952,251.698 231.618,251.198 233.5,251C 234.337,249.989 234.67,248.822 234.5,247.5 Z"/></g>
<g><path style="opacity:1" fill="#99999c" d="M 238.5,246.5 C 240.95,246.874 241.95,248.374 241.5,251C 241.392,252.681 240.725,253.848 239.5,254.5C 237.983,253.265 236.316,253.265 234.5,254.5C 233.702,254.043 233.369,253.376 233.5,252.5C 235.262,251.738 236.262,250.404 236.5,248.5C 236.833,247.5 237.5,246.833 238.5,246.5 Z"/></g>
<g><path style="opacity:1" fill="#9e9ea0" d="M 245.5,246.5 C 246.348,247.625 247.348,247.625 248.5,246.5C 249.338,246.842 249.672,247.508 249.5,248.5C 247.025,249.687 246.025,251.687 246.5,254.5C 244.706,252.897 243.706,250.73 243.5,248C 243.836,246.97 244.503,246.47 245.5,246.5 Z"/></g>
<g><path style="opacity:1" fill="#828285" d="M 217.5,248.5 C 216.85,248.196 216.183,247.863 215.5,247.5C 214.904,248.716 214.737,250.049 215,251.5C 213.855,250.316 212.688,250.316 211.5,251.5C 212.087,249.245 213.42,247.579 215.5,246.5C 216.713,246.747 217.38,247.414 217.5,248.5 Z"/></g>
<g><path style="opacity:1" fill="#1c1c1d" d="M 225.5,248.5 C 226.167,248.5 226.5,248.833 226.5,249.5C 226.5,250.5 226.5,251.5 226.5,252.5C 225.833,252.5 225.167,252.5 224.5,252.5C 224.433,251.041 224.766,249.708 225.5,248.5 Z"/></g>
<g><path style="opacity:1" fill="#620d10" d="M 287.5,248.5 C 289.027,248.427 290.027,249.094 290.5,250.5C 288.973,250.573 287.973,249.906 287.5,248.5 Z"/></g>
<g><path style="opacity:1" fill="#a6a7a9" d="M 203.5,246.5 C 204.833,248.167 204.833,249.833 203.5,251.5C 201.958,252.301 200.292,252.634 198.5,252.5C 197.549,251.081 197.216,249.415 197.5,247.5C 199.265,246.539 201.265,246.205 203.5,246.5 Z"/></g>
<g><path style="opacity:1" fill="#545556" d="M 199.5,248.5 C 202.797,248.329 203.131,248.995 200.5,250.5C 199.702,250.043 199.369,249.376 199.5,248.5 Z"/></g>
<g><path style="opacity:1" fill="#6a6a6c" d="M 203.5,246.5 C 204.5,246.5 205.5,246.5 206.5,246.5C 205.631,248.717 205.298,251.05 205.5,253.5C 204.833,252.833 204.167,252.167 203.5,251.5C 204.833,249.833 204.833,248.167 203.5,246.5 Z"/></g>
<g><path style="opacity:1" fill="#cbccce" d="M 221.5,246.5 C 222.522,248.544 223.522,250.544 224.5,252.5C 224.672,253.492 224.338,254.158 223.5,254.5C 223.5,253.833 223.167,253.5 222.5,253.5C 222.34,251.847 221.674,250.514 220.5,249.5C 220.263,248.209 220.596,247.209 221.5,246.5 Z"/></g>
<g><path style="opacity:1" fill="#a8a9ac" d="M 233.5,246.5 C 234.167,246.5 234.5,246.833 234.5,247.5C 234.67,248.822 234.337,249.989 233.5,251C 231.618,251.198 229.952,251.698 228.5,252.5C 228.5,253.167 228.5,253.833 228.5,254.5C 227.167,254.5 226.5,253.833 226.5,252.5C 226.5,251.5 226.5,250.5 226.5,249.5C 227.991,246.909 230.325,245.909 233.5,246.5 Z"/></g>
<g><path style="opacity:1" fill="#535456" d="M 229.5,248.5 C 231.337,248.639 231.67,249.306 230.5,250.5C 229.702,250.043 229.369,249.376 229.5,248.5 Z"/></g>
<g><path style="opacity:1" fill="#e21b23" d="M 284.5,247.5 C 285.391,248.11 286.391,248.443 287.5,248.5C 287.973,249.906 288.973,250.573 290.5,250.5C 292.282,251.72 294.282,252.386 296.5,252.5C 296.5,253.5 296.5,254.5 296.5,255.5C 295.833,255.5 295.167,255.5 294.5,255.5C 292.597,255.796 290.93,256.463 289.5,257.5C 287.151,259.341 284.485,260.674 281.5,261.5C 279.973,261.427 278.973,262.094 278.5,263.5C 277.508,263.328 276.842,263.662 276.5,264.5C 274.973,264.427 273.973,265.094 273.5,266.5C 272.508,266.328 271.842,266.662 271.5,267.5C 269.973,267.427 268.973,268.094 268.5,269.5C 266.973,269.427 265.973,270.094 265.5,271.5C 263.973,271.427 262.973,272.094 262.5,273.5C 260.973,273.427 259.973,274.094 259.5,275.5C 257.596,275.738 256.262,276.738 255.5,278.5C 253.246,279.415 251.246,280.748 249.5,282.5C 248.662,282.158 248.328,281.492 248.5,280.5C 250.5,279.167 252.167,277.5 253.5,275.5C 257.1,273.57 260.1,270.903 262.5,267.5C 264.749,266.92 266.415,265.587 267.5,263.5C 269.404,263.262 270.738,262.262 271.5,260.5C 273.404,260.262 274.738,259.262 275.5,257.5C 277.027,257.573 278.027,256.906 278.5,255.5C 280.384,255.288 281.717,254.288 282.5,252.5C 283.17,250.709 283.837,249.042 284.5,247.5 Z"/></g>
<g><path style="opacity:1" fill="#757679" d="M 197.5,247.5 C 197.216,249.415 197.549,251.081 198.5,252.5C 198.631,253.376 198.298,254.043 197.5,254.5C 196.203,252.027 196.203,249.693 197.5,247.5 Z"/></g>
<g><path style="opacity:1" fill="#a4a4a7" d="M 206.5,246.5 C 207.461,248.265 207.795,250.265 207.5,252.5C 208.959,252.567 210.292,252.234 211.5,251.5C 212.688,250.316 213.855,250.316 215,251.5C 214.737,250.049 214.904,248.716 215.5,247.5C 216.183,247.863 216.85,248.196 217.5,248.5C 218.148,252.986 219.148,253.32 220.5,249.5C 221.674,250.514 222.34,251.847 222.5,253.5C 216.765,252.256 211.099,252.256 205.5,253.5C 205.298,251.05 205.631,248.717 206.5,246.5 Z"/></g>
<g><path style="opacity:1" fill="#861418" d="M 296.5,252.5 C 298.985,253.26 298.985,254.26 296.5,255.5C 296.5,254.5 296.5,253.5 296.5,252.5 Z"/></g>
<g><path style="opacity:1" fill="#3f4041" d="M 224.5,252.5 C 225.167,252.5 225.833,252.5 226.5,252.5C 226.5,253.833 227.167,254.5 228.5,254.5C 226.833,255.833 225.167,255.833 223.5,254.5C 224.338,254.158 224.672,253.492 224.5,252.5 Z"/></g>
<g><path style="opacity:1" fill="#a3d0c2" d="M 340.5,252.5 C 340.573,254.027 339.906,255.027 338.5,255.5C 338.427,253.973 339.094,252.973 340.5,252.5 Z"/></g>
<g><path style="opacity:1" fill="#831116" d="M 278.5,255.5 C 278.027,256.906 277.027,257.573 275.5,257.5C 275.973,256.094 276.973,255.427 278.5,255.5 Z"/></g>
<g><path style="opacity:1" fill="#660f12" d="M 294.5,255.5 C 293.365,257.213 291.698,257.88 289.5,257.5C 290.93,256.463 292.597,255.796 294.5,255.5 Z"/></g>
<g><path style="opacity:1" fill="#8c1318" d="M 275.5,257.5 C 274.738,259.262 273.404,260.262 271.5,260.5C 272.262,258.738 273.596,257.738 275.5,257.5 Z"/></g>
<g><path style="opacity:1" fill="#badbd1" d="M 338.5,256.5 C 338.065,259.157 337.065,261.491 335.5,263.5C 335.166,260.509 336.166,258.176 338.5,256.5 Z"/></g>
<g><path style="opacity:1" fill="#9a151a" d="M 271.5,260.5 C 270.738,262.262 269.404,263.262 267.5,263.5C 268.262,261.738 269.596,260.738 271.5,260.5 Z"/></g>
<g><path style="opacity:1" fill="#5a0e11" d="M 281.5,261.5 C 281.027,262.906 280.027,263.573 278.5,263.5C 278.973,262.094 279.973,261.427 281.5,261.5 Z"/></g>
<g><path style="opacity:1" fill="#273384" d="M 265.5,249.5 C 268.621,250.288 270.288,252.288 270.5,255.5C 263.046,258.94 256.379,263.607 250.5,269.5C 248.955,270.452 247.288,270.785 245.5,270.5C 248.383,263.281 253.383,257.947 260.5,254.5C 261.806,252.527 263.473,250.861 265.5,249.5 Z"/></g>
<g><path style="opacity:1" fill="#4a0a0e" d="M 276.5,264.5 C 276.027,265.906 275.027,266.573 273.5,266.5C 273.973,265.094 274.973,264.427 276.5,264.5 Z"/></g>
<g><path style="opacity:1" fill="#a9161b" d="M 267.5,263.5 C 266.415,265.587 264.749,266.92 262.5,267.5C 263.585,265.413 265.251,264.08 267.5,263.5 Z"/></g>
<g><path style="opacity:1" fill="#4d0a0e" d="M 271.5,267.5 C 271.027,268.906 270.027,269.573 268.5,269.5C 268.973,268.094 269.973,267.427 271.5,267.5 Z"/></g>
<g><path style="opacity:1" fill="#515151" d="M 173.5,263.5 C 174.924,265.515 175.59,267.848 175.5,270.5C 174.076,268.485 173.41,266.152 173.5,263.5 Z"/></g>
<g><path style="opacity:1" fill="#430c0d" d="M 268.5,269.5 C 268.027,270.906 267.027,271.573 265.5,271.5C 265.973,270.094 266.973,269.427 268.5,269.5 Z"/></g>
<g><path style="opacity:1" fill="#7dc3b0" d="M 329.5,263.5 C 329.198,266.059 329.532,268.393 330.5,270.5C 329.89,271.391 329.557,272.391 329.5,273.5C 328.883,273.611 328.383,273.944 328,274.5C 327.813,270.647 328.313,266.98 329.5,263.5 Z"/></g>
<g><path style="opacity:1" fill="#838383" d="M 171.5,268.5 C 172.924,270.515 173.59,272.848 173.5,275.5C 172.076,273.485 171.41,271.152 171.5,268.5 Z"/></g>
<g><path style="opacity:1" fill="#a6a6a6" d="M 318.5,268.5 C 318.59,271.152 317.924,273.485 316.5,275.5C 316.41,272.848 317.076,270.515 318.5,268.5 Z"/></g>
<g><path style="opacity:1" fill="#5a5a5a" d="M 321.5,268.5 C 321.277,272.162 320.277,275.495 318.5,278.5C 318.5,278.167 318.5,277.833 318.5,277.5C 318.928,274.215 319.928,271.215 321.5,268.5 Z"/></g>
<g><path style="opacity:1" fill="#490a0d" d="M 265.5,271.5 C 265.027,272.906 264.027,273.573 262.5,273.5C 262.973,272.094 263.973,271.427 265.5,271.5 Z"/></g>
<g><path style="opacity:1" fill="#ba181d" d="M 262.5,267.5 C 260.1,270.903 257.1,273.57 253.5,275.5C 255.9,272.097 258.9,269.43 262.5,267.5 Z"/></g>
<g><path style="opacity:1" fill="#4e0b0e" d="M 262.5,273.5 C 262.027,274.906 261.027,275.573 259.5,275.5C 259.973,274.094 260.973,273.427 262.5,273.5 Z"/></g>
<g><path style="opacity:1" fill="#cacaca" d="M 180.5,227.5 C 175.62,242.41 175.286,257.41 179.5,272.5C 179.345,275.716 180.345,278.383 182.5,280.5C 187.914,294.243 196.914,304.91 209.5,312.5C 209.973,313.906 210.973,314.573 212.5,314.5C 212.842,315.338 213.508,315.672 214.5,315.5C 214.973,316.906 215.973,317.573 217.5,317.5C 219.284,317.893 220.95,318.559 222.5,319.5C 225.505,321.277 228.838,322.277 232.5,322.5C 234.717,323.369 237.05,323.702 239.5,323.5C 246.655,324.329 253.989,324.829 261.5,325C 260.584,325.278 259.918,325.778 259.5,326.5C 250.443,328.037 241.443,327.704 232.5,325.5C 230.485,324.076 228.152,323.41 225.5,323.5C 221.542,322.929 217.876,321.595 214.5,319.5C 214.027,318.094 213.027,317.427 211.5,317.5C 198.827,310.827 189.16,301.16 182.5,288.5C 181.833,287.167 181.167,285.833 180.5,284.5C 179.157,281.457 177.823,278.457 176.5,275.5C 176.634,273.708 176.301,272.042 175.5,270.5C 175.59,267.848 174.924,265.515 173.5,263.5C 172.81,252.61 173.81,241.943 176.5,231.5C 177.621,229.259 178.787,226.925 180,224.5C 180.483,225.448 180.649,226.448 180.5,227.5 Z"/></g>
<g><path style="opacity:1" fill="#707070" d="M 179.5,272.5 C 180.871,274.936 181.871,277.603 182.5,280.5C 180.345,278.383 179.345,275.716 179.5,272.5 Z"/></g>
<g><path style="opacity:1" fill="#4f0d0f" d="M 259.5,275.5 C 258.738,277.262 257.404,278.262 255.5,278.5C 256.262,276.738 257.596,275.738 259.5,275.5 Z"/></g>
<g><path style="opacity:1" fill="#891318" d="M 253.5,275.5 C 252.167,277.5 250.5,279.167 248.5,280.5C 249.167,277.833 250.833,276.167 253.5,275.5 Z"/></g>
<g><path style="opacity:1" fill="#b0b0b0" d="M 173.5,276.5 C 174.674,277.514 175.34,278.847 175.5,280.5C 175.5,281.167 175.5,281.833 175.5,282.5C 173.926,280.898 173.259,278.898 173.5,276.5 Z"/></g>
<g><path style="opacity:1" fill="#b9b9b9" d="M 323.5,277.5 C 323.741,279.898 323.074,281.898 321.5,283.5C 321.259,281.102 321.926,279.102 323.5,277.5 Z"/></g>
<g><path style="opacity:1" fill="#363636" d="M 176.5,275.5 C 177.823,278.457 179.157,281.457 180.5,284.5C 179.542,284.047 178.708,283.381 178,282.5C 177.517,283.448 177.351,284.448 177.5,285.5C 176.833,284.5 176.167,283.5 175.5,282.5C 175.5,281.833 175.5,281.167 175.5,280.5C 176.363,281.463 177.03,281.463 177.5,280.5C 176.691,278.929 176.357,277.262 176.5,275.5 Z"/></g>
<g><path style="opacity:1" fill="#300b09" d="M 255.5,278.5 C 254.089,280.914 252.089,282.581 249.5,283.5C 249.5,283.167 249.5,282.833 249.5,282.5C 251.246,280.748 253.246,279.415 255.5,278.5 Z"/></g>
<g><path style="opacity:1" fill="#ae171d" d="M 248.5,280.5 C 248.328,281.492 248.662,282.158 249.5,282.5C 249.5,282.833 249.5,283.167 249.5,283.5C 246.888,284.779 244.555,286.445 242.5,288.5C 241.833,288.5 241.5,288.167 241.5,287.5C 243.5,284.833 245.833,282.5 248.5,280.5 Z"/></g>
<g><path style="opacity:1" fill="#53686f" d="M 167.5,272.5 C 168.167,272.5 168.833,272.5 169.5,272.5C 172.962,285.76 179.296,297.427 188.5,307.5C 187.833,307.5 187.167,307.5 186.5,307.5C 186.167,307.5 185.833,307.5 185.5,307.5C 182.164,302.825 178.831,298.158 175.5,293.5C 172.814,287.09 170.147,280.757 167.5,274.5C 167.5,273.833 167.5,273.167 167.5,272.5 Z"/></g>
<g><path style="opacity:1" fill="#2b9381" d="M 167.5,274.5 C 170.147,280.757 172.814,287.09 175.5,293.5C 169.763,288.663 167.096,282.33 167.5,274.5 Z"/></g>
<g><path style="opacity:1" fill="#191919" d="M 180.5,284.5 C 181.167,285.833 181.833,287.167 182.5,288.5C 182.737,289.791 182.404,290.791 181.5,291.5C 180.167,289.5 178.833,287.5 177.5,285.5C 177.351,284.448 177.517,283.448 178,282.5C 178.708,283.381 179.542,284.047 180.5,284.5 Z"/></g>
<g><path style="opacity:1" fill="#727272" d="M 311.5,286.5 C 311.573,288.027 310.906,289.027 309.5,289.5C 309.427,287.973 310.094,286.973 311.5,286.5 Z"/></g>
<g><path style="opacity:1" fill="#6c6c6c" d="M 319.5,286.5 C 319.573,288.027 318.906,289.027 317.5,289.5C 317.427,287.973 318.094,286.973 319.5,286.5 Z"/></g>
<g><path style="opacity:1" fill="#4e0d10" d="M 241.5,287.5 C 241.5,288.167 241.833,288.5 242.5,288.5C 241.86,290.332 240.86,290.665 239.5,289.5C 239.855,288.478 240.522,287.811 241.5,287.5 Z"/></g>
<g><path style="opacity:1" fill="#999999" d="M 316.5,292.5 C 316.573,294.027 315.906,295.027 314.5,295.5C 314.427,293.973 315.094,292.973 316.5,292.5 Z"/></g>
<g><path style="opacity:1" fill="#b2d5cb" d="M 51.5,294.5 C 56.8333,299.167 61.8333,304.167 66.5,309.5C 60.5,305.5 55.5,300.5 51.5,294.5 Z"/></g>
<g><path style="opacity:1" fill="#9d9d9d" d="M 314.5,295.5 C 314.573,297.027 313.906,298.027 312.5,298.5C 312.427,296.973 313.094,295.973 314.5,295.5 Z"/></g>
<g><path style="opacity:1" fill="#2b9380" d="M 175.5,293.5 C 178.831,298.158 182.164,302.825 185.5,307.5C 179.911,304.392 176.577,299.725 175.5,293.5 Z"/></g>
<g><path style="opacity:1" fill="#4d4d4d" d="M 305.5,300.5 C 305.573,302.027 304.906,303.027 303.5,303.5C 303.427,301.973 304.094,300.973 305.5,300.5 Z"/></g>
<g><path style="opacity:1" fill="#212121" d="M 182.5,288.5 C 189.16,301.16 198.827,310.827 211.5,317.5C 211.973,318.906 212.973,319.573 214.5,319.5C 217.876,321.595 221.542,322.929 225.5,323.5C 226.5,324.167 227.5,324.833 228.5,325.5C 227.761,325.369 227.094,325.536 226.5,326C 228.315,326.757 229.981,327.59 231.5,328.5C 209.111,323.762 192.444,311.428 181.5,291.5C 182.404,290.791 182.737,289.791 182.5,288.5 Z"/></g>
<g><path style="opacity:1" fill="#466e6a" d="M 186.5,307.5 C 187.167,307.5 187.833,307.5 188.5,307.5C 196.79,316.465 206.457,323.465 217.5,328.5C 215.708,328.634 214.042,328.301 212.5,327.5C 202.384,322.717 193.717,316.05 186.5,307.5 Z"/></g>
<g><path style="opacity:1" fill="#c0c0c0" d="M 316.5,275.5 C 316.131,277.993 316.797,278.66 318.5,277.5C 318.5,277.833 318.5,278.167 318.5,278.5C 315.188,286.46 310.855,293.794 305.5,300.5C 304.094,300.973 303.427,301.973 303.5,303.5C 296.004,310.413 287.67,316.08 278.5,320.5C 276.456,321.508 274.456,322.508 272.5,323.5C 269.848,323.41 267.515,324.076 265.5,325.5C 263.565,326.15 261.565,326.483 259.5,326.5C 259.918,325.778 260.584,325.278 261.5,325C 253.989,324.829 246.655,324.329 239.5,323.5C 249.266,323.908 258.933,323.242 268.5,321.5C 272.358,321.23 275.691,319.897 278.5,317.5C 291.351,310.983 301.685,301.65 309.5,289.5C 310.906,289.027 311.573,288.027 311.5,286.5C 312.723,282.56 314.39,278.893 316.5,275.5 Z"/></g>
<g><path style="opacity:1" fill="#c3c3c3" d="M 307.5,304.5 C 305.5,308.5 302.5,311.5 298.5,313.5C 301.167,310.167 304.167,307.167 307.5,304.5 Z"/></g>
<g><path style="opacity:1" fill="#494949" d="M 209.5,312.5 C 211.027,312.427 212.027,313.094 212.5,314.5C 210.973,314.573 209.973,313.906 209.5,312.5 Z"/></g>
<g><path style="opacity:1" fill="#eaeaea" d="M 312.5,298.5 C 312.08,300.094 311.414,301.594 310.5,303C 311.187,304.162 311.353,305.328 311,306.5C 304.779,314.234 297.279,320.234 288.5,324.5C 289.038,322.883 289.371,321.216 289.5,319.5C 291.027,319.573 292.027,318.906 292.5,317.5C 294.027,317.573 295.027,316.906 295.5,315.5C 295.973,314.094 296.973,313.427 298.5,313.5C 302.5,311.5 305.5,308.5 307.5,304.5C 308.701,302.091 310.367,300.091 312.5,298.5 Z"/></g>
<g><path style="opacity:1" fill="#6c6c6c" d="M 214.5,315.5 C 216.027,315.427 217.027,316.094 217.5,317.5C 215.973,317.573 214.973,316.906 214.5,315.5 Z"/></g>
<g><path style="opacity:1" fill="#a2a2a2" d="M 295.5,315.5 C 295.027,316.906 294.027,317.573 292.5,317.5C 292.973,316.094 293.973,315.427 295.5,315.5 Z"/></g>
<g><path style="opacity:1" fill="#757575" d="M 211.5,317.5 C 213.027,317.427 214.027,318.094 214.5,319.5C 212.973,319.573 211.973,318.906 211.5,317.5 Z"/></g>
<g><path style="opacity:1" fill="#a1a1a1" d="M 292.5,317.5 C 292.027,318.906 291.027,319.573 289.5,319.5C 289.973,318.094 290.973,317.427 292.5,317.5 Z"/></g>
<g><path style="opacity:1" fill="#595959" d="M 222.5,319.5 C 226.162,319.723 229.495,320.723 232.5,322.5C 228.838,322.277 225.505,321.277 222.5,319.5 Z"/></g>
<g><path style="opacity:1" fill="#919191" d="M 278.5,317.5 C 275.691,319.897 272.358,321.23 268.5,321.5C 271.518,319.6 274.851,318.267 278.5,317.5 Z"/></g>
<g><path style="opacity:1" fill="#d3d7d6" d="M 289.5,319.5 C 289.371,321.216 289.038,322.883 288.5,324.5C 284.757,326.588 280.923,328.588 277,330.5C 270.188,332.191 263.688,334.524 257.5,337.5C 258.833,336.5 260.167,335.5 261.5,334.5C 265.806,333.934 266.139,333.268 262.5,332.5C 262.918,331.778 263.584,331.278 264.5,331C 263.833,330.833 263.167,330.667 262.5,330.5C 254.019,331.788 245.686,331.788 237.5,330.5C 245.209,330.731 252.876,330.398 260.5,329.5C 263.829,329.785 266.829,329.118 269.5,327.5C 270.167,327.5 270.833,327.5 271.5,327.5C 275.358,327.23 278.691,325.897 281.5,323.5C 283.849,321.659 286.515,320.326 289.5,319.5 Z"/></g>
<g><path style="opacity:1" fill="#3b3b3b" d="M 278.5,320.5 C 277.313,322.975 275.313,323.975 272.5,323.5C 274.456,322.508 276.456,321.508 278.5,320.5 Z"/></g>
<g><path style="opacity:1" fill="#9b9b9b" d="M 225.5,323.5 C 228.152,323.41 230.485,324.076 232.5,325.5C 231.167,325.5 229.833,325.5 228.5,325.5C 227.5,324.833 226.5,324.167 225.5,323.5 Z"/></g>
<g><path style="opacity:1" fill="#494949" d="M 272.5,323.5 C 270.485,324.924 268.152,325.59 265.5,325.5C 267.515,324.076 269.848,323.41 272.5,323.5 Z"/></g>
<g><path style="opacity:1" fill="#9f9f9f" d="M 281.5,323.5 C 278.691,325.897 275.358,327.23 271.5,327.5C 274.518,325.6 277.851,324.267 281.5,323.5 Z"/></g>
<g><path style="opacity:1" fill="#595959" d="M 269.5,327.5 C 266.829,329.118 263.829,329.785 260.5,329.5C 263.273,328.343 266.273,327.676 269.5,327.5 Z"/></g>
<g><path style="opacity:1" fill="#2a9679" d="M 212.5,327.5 C 214.042,328.301 215.708,328.634 217.5,328.5C 219.216,328.629 220.883,328.962 222.5,329.5C 223.913,330.935 225.58,331.935 227.5,332.5C 226.127,332.343 224.793,332.51 223.5,333C 224.902,334.342 224.569,335.176 222.5,335.5C 219.436,333.702 216.103,332.702 212.5,332.5C 212.5,330.833 212.5,329.167 212.5,327.5 Z"/></g>
<g><path style="opacity:1" fill="#66897e" d="M 222.5,329.5 C 225.746,330.054 228.746,331.054 231.5,332.5C 230.167,332.5 228.833,332.5 227.5,332.5C 225.58,331.935 223.913,330.935 222.5,329.5 Z"/></g>
<g><path style="opacity:1" fill="#e1e4e4" d="M 235.5,330.5 C 236.167,330.5 236.833,330.5 237.5,330.5C 245.686,331.788 254.019,331.788 262.5,330.5C 263.167,330.667 263.833,330.833 264.5,331C 263.584,331.278 262.918,331.778 262.5,332.5C 253.5,333.833 244.5,333.833 235.5,332.5C 234.737,331.732 233.737,331.232 232.5,331C 233.448,330.517 234.448,330.351 235.5,330.5 Z"/></g>
<g><path style="opacity:1" fill="#569785" d="M 232.5,332.5 C 233.5,332.5 234.5,332.5 235.5,332.5C 244.5,333.833 253.5,333.833 262.5,332.5C 266.139,333.268 265.806,333.934 261.5,334.5C 252.161,334.666 242.827,334.5 233.5,334C 232.944,333.617 232.611,333.117 232.5,332.5 Z"/></g>
<g><path style="opacity:1" fill="#90c5b5" d="M 103.5,335.5 C 105.967,335.755 107.967,336.755 109.5,338.5C 107.033,338.245 105.033,337.245 103.5,335.5 Z"/></g>
<g><path style="opacity:1" fill="#70b9a2" d="M 112.5,339.5 C 116.814,339.955 120.481,341.621 123.5,344.5C 119.566,343.184 115.899,341.517 112.5,339.5 Z"/></g>
<g><path style="opacity:1" fill="#abd4c7" d="M 250.5,340.5 C 248.388,342.771 245.721,344.104 242.5,344.5C 244.837,342.604 247.504,341.27 250.5,340.5 Z"/></g>
<g><path style="opacity:1" fill="#78bea8" d="M 131.5,346.5 C 134.916,346.528 137.916,347.528 140.5,349.5C 137.145,349.31 134.145,348.31 131.5,346.5 Z"/></g>
<g><path style="opacity:1" fill="#bfe0d6" d="M 222.5,350.5 C 217.06,352.061 211.394,353.061 205.5,353.5C 210.83,351.333 216.497,350.333 222.5,350.5 Z"/></g>
</svg>
