<?xml version="1.0" encoding="UTF-8"?>
<!DOCTYPE svg PUBLIC "-//W3C//DTD SVG 1.1//EN" "http://www.w3.org/Graphics/SVG/1.1/DTD/svg11.dtd">
<svg xmlns="http://www.w3.org/2000/svg" version="1.1" width="296px" height="296px" style="shape-rendering:geometricPrecision; text-rendering:geometricPrecision; image-rendering:optimizeQuality; fill-rule:evenodd; clip-rule:evenodd" xmlns:xlink="http://www.w3.org/1999/xlink">
<g><path style="opacity:1" fill="#fffea0" d="M 130.5,-0.5 C 141.833,-0.5 153.167,-0.5 164.5,-0.5C 164.5,-0.166667 164.5,0.166667 164.5,0.5C 150.816,0.328856 137.149,0.662189 123.5,1.5C 125.833,0.833333 128.167,0.166667 130.5,-0.5 Z"/></g>
<g><path style="opacity:0.92" fill="#fffe26" d="M 164.5,0.5 C 227.752,9.9197 269.585,44.9197 290,105.5C 292.278,113.877 294.111,122.21 295.5,130.5C 295.5,141.833 295.5,153.167 295.5,164.5C 285.309,227.528 249.975,269.361 189.5,290C 181.123,292.278 172.79,294.111 164.5,295.5C 153.167,295.5 141.833,295.5 130.5,295.5C 67.4722,285.309 25.6389,249.975 5,189.5C 2.72213,181.123 0.888795,172.79 -0.5,164.5C -0.5,153.167 -0.5,141.833 -0.5,130.5C 7.97125,75.8708 36.9712,36.3708 86.5,12C 91.607,9.46449 96.9403,7.63115 102.5,6.5C 106.214,6.40975 109.548,5.40975 112.5,3.5C 112.833,3.5 113.167,3.5 113.5,3.5C 116.495,3.70621 119.162,3.03954 121.5,1.5C 122.167,1.5 122.833,1.5 123.5,1.5C 137.149,0.662189 150.816,0.328856 164.5,0.5 Z"/></g>
<g><path style="opacity:1" fill="#fffeb7" d="M 121.5,1.5 C 119.162,3.03954 116.495,3.70621 113.5,3.5C 115.905,2.2318 118.572,1.56513 121.5,1.5 Z"/></g>
<g><path style="opacity:1" fill="#fffeab" d="M 112.5,3.5 C 109.548,5.40975 106.214,6.40975 102.5,6.5C 105.55,4.89934 108.884,3.89934 112.5,3.5 Z"/></g>
<g><path style="opacity:1" fill="#edece4" d="M 138.5,5.5 C 198.282,3.79928 243.782,28.1326 275,78.5C 293.465,112.233 297.798,147.9 288,185.5C 268.56,245.935 227.394,280.768 164.5,290C 103.882,294.107 57.0488,270.94 24,220.5C 3.60083,184.148 -1.06583,145.814 10,105.5C 26.5577,59.2758 58.0577,28.1091 104.5,12C 115.792,8.84603 127.126,6.67936 138.5,5.5 Z"/></g>
<g><path style="opacity:1" fill="#696969" d="M 288.5,126.5 C 289.268,127.263 289.768,128.263 290,129.5C 290.826,140.674 290.659,151.674 289.5,162.5C 289.749,150.469 289.416,138.469 288.5,126.5 Z"/></g>
<g><path style="opacity:1" fill="#1d1c15" d="M 288.5,126.5 C 289.416,138.469 289.749,150.469 289.5,162.5C 280.741,222.77 247.407,262.603 189.5,282C 131.494,296.962 81.9941,282.795 41,239.5C 10.3792,201.74 0.379176,159.073 11,111.5C 26.7139,62.7858 58.8805,30.2858 107.5,14C 166.49,-0.443076 216.656,14.3903 258,58.5C 274.407,78.3949 284.574,101.062 288.5,126.5 Z"/></g>
<g><path style="opacity:1" fill="#757501" d="M 279.5,194.5 C 279.267,197.542 278.267,200.208 276.5,202.5C 276.733,199.458 277.733,196.792 279.5,194.5 Z"/></g>
<g><path style="opacity:1" fill="#767601" d="M 15.5,189.5 C 17.5837,192.053 18.917,195.053 19.5,198.5C 17.4163,195.947 16.083,192.947 15.5,189.5 Z"/></g>
<g><path style="opacity:1" fill="#7d7d01" d="M 282.5,186.5 C 282.448,189.346 281.448,191.68 279.5,193.5C 279.935,190.843 280.935,188.509 282.5,186.5 Z"/></g>
<g><path style="opacity:1" fill="#616201" d="M 285.5,173.5 C 285.58,176.781 284.913,179.781 283.5,182.5C 283.42,179.219 284.087,176.219 285.5,173.5 Z"/></g>
<g><path style="opacity:1" fill="#828200" d="M 10.5,131.5 C 9.84646,148.288 10.8465,164.955 13.5,181.5C 11.6532,176.444 10.4865,171.111 10,165.5C 9.17408,153.992 9.34075,142.659 10.5,131.5 Z"/></g>
<g><path style="opacity:1" fill="#a4a400" d="M 285.5,122.5 C 287.055,130.101 287.721,137.934 287.5,146C 287.499,152.01 287.166,157.843 286.5,163.5C 286.671,149.816 286.338,136.149 285.5,122.5 Z"/></g>
<g><path style="opacity:1" fill="#878701" d="M 12.5,118.5 C 12.7204,123.1 12.0538,127.433 10.5,131.5C 10.2796,126.9 10.9462,122.567 12.5,118.5 Z"/></g>
<g><path style="opacity:1" fill="#6f6f01" d="M 283.5,114.5 C 284.924,116.515 285.59,118.848 285.5,121.5C 284.076,119.485 283.41,117.152 283.5,114.5 Z"/></g>
<g><path style="opacity:1" fill="#8a8a00" d="M 17.5,102.5 C 16.7444,106.767 15.411,110.767 13.5,114.5C 13.8606,110.085 15.1939,106.085 17.5,102.5 Z"/></g>
<g><path style="opacity:1" fill="#ecec00" d="M 283.5,114.5 C 283.41,117.152 284.076,119.485 285.5,121.5C 285.5,121.833 285.5,122.167 285.5,122.5C 286.338,136.149 286.671,149.816 286.5,163.5C 286.813,167.042 286.479,170.375 285.5,173.5C 284.087,176.219 283.42,179.219 283.5,182.5C 282.566,183.568 282.232,184.901 282.5,186.5C 280.935,188.509 279.935,190.843 279.5,193.5C 279.5,193.833 279.5,194.167 279.5,194.5C 277.733,196.792 276.733,199.458 276.5,202.5C 250.037,255.862 206.704,283.529 146.5,285.5C 93.817,282.928 53.9837,259.261 27,214.5C 24.2128,209.261 21.7128,203.928 19.5,198.5C 18.917,195.053 17.5837,192.053 15.5,189.5C 15.4349,186.572 14.7682,183.905 13.5,181.5C 10.8465,164.955 9.84646,148.288 10.5,131.5C 12.0538,127.433 12.7204,123.1 12.5,118.5C 13.4345,117.432 13.7678,116.099 13.5,114.5C 15.411,110.767 16.7444,106.767 17.5,102.5C 35.6615,55.5165 69.3282,26.0165 118.5,14C 184.131,3.74378 234.964,26.2438 271,81.5C 273.816,87.1039 276.483,92.7706 279,98.5C 281.385,103.597 282.885,108.931 283.5,114.5 Z"/></g>
<g><path style="opacity:1" fill="#7b7b00" d="M 20.5,184.5 C 21.871,186.936 22.871,189.603 23.5,192.5C 21.3455,190.383 20.3455,187.716 20.5,184.5 Z"/></g>
<g><path style="opacity:1" fill="#747401" d="M 277.5,181.5 C 277.59,184.152 276.924,186.485 275.5,188.5C 275.41,185.848 276.076,183.515 277.5,181.5 Z"/></g>
<g><path style="opacity:1" fill="#747401" d="M 16.5,164.5 C 17.5249,167.974 18.1916,171.64 18.5,175.5C 16.783,172.155 16.1164,168.489 16.5,164.5 Z"/></g>
<g><path style="opacity:1" fill="#7a7a01" d="M 278.5,119.5 C 280.258,123.867 281.425,128.534 282,133.5C 283.215,148.504 282.049,163.171 278.5,177.5C 282.306,158.15 282.306,138.817 278.5,119.5 Z"/></g>
<g><path style="opacity:1" fill="#8c8c00" d="M 15.5,138.5 C 15.6436,146.51 15.9769,154.51 16.5,162.5C 15.0103,157.923 14.3437,153.09 14.5,148C 14.5018,144.648 14.8351,141.482 15.5,138.5 Z"/></g>
<g><path style="opacity:1" fill="#626202" d="M 17.5,123.5 C 17.5557,128.731 16.889,133.731 15.5,138.5C 15.3025,133.25 15.9692,128.25 17.5,123.5 Z"/></g>
<g><path style="opacity:1" fill="#595905" d="M 22.5,105.5 C 22.7406,107.898 22.0739,109.898 20.5,111.5C 20.2594,109.102 20.9261,107.102 22.5,105.5 Z"/></g>
<g><path style="opacity:1" fill="#727201" d="M 25.5,97.5 C 25.2671,100.542 24.2671,103.208 22.5,105.5C 22.7329,102.458 23.7329,99.7916 25.5,97.5 Z"/></g>
<g><path style="opacity:1" fill="#828201" d="M 272.5,99.5 C 274.065,101.509 275.065,103.843 275.5,106.5C 273.552,104.68 272.552,102.346 272.5,99.5 Z"/></g>
<g><path style="opacity:1" fill="#020200" d="M 272.5,99.5 C 272.552,102.346 273.552,104.68 275.5,106.5C 276.967,110.702 277.967,115.035 278.5,119.5C 282.306,138.817 282.306,158.15 278.5,177.5C 277.566,178.568 277.232,179.901 277.5,181.5C 276.076,183.515 275.41,185.848 275.5,188.5C 249.626,252.456 201.959,282.623 132.5,279C 79.7165,270.7 43.3831,241.866 23.5,192.5C 22.871,189.603 21.871,186.936 20.5,184.5C 20.3003,181.37 19.6336,178.37 18.5,175.5C 18.1916,171.64 17.5249,167.974 16.5,164.5C 16.5,163.833 16.5,163.167 16.5,162.5C 15.9769,154.51 15.6436,146.51 15.5,138.5C 16.889,133.731 17.5557,128.731 17.5,123.5C 18.8679,119.589 19.8679,115.589 20.5,111.5C 22.0739,109.898 22.7406,107.898 22.5,105.5C 24.2671,103.208 25.2671,100.542 25.5,97.5C 50.2603,45.9711 91.427,18.9711 149,16.5C 207.201,19.4729 248.368,47.1395 272.5,99.5 Z"/></g>
<g><path style="opacity:1" fill="#b1afb0" d="M 164.5,207.5 C 163.731,209.655 162.565,211.655 161,213.5C 160.535,217.848 160.035,222.181 159.5,226.5C 162.197,225.37 164.863,225.37 167.5,226.5C 163.864,229.323 159.864,231.656 155.5,233.5C 152.278,233.892 149.278,233.392 146.5,232C 147.27,229.393 147.937,226.727 148.5,224C 148.355,223.228 148.022,222.561 147.5,222C 150.328,219.752 153.328,217.752 156.5,216C 156.619,214.855 156.952,213.688 157.5,212.5C 159.55,210.453 161.883,208.786 164.5,207.5 Z"/></g>
<g><path style="opacity:1" fill="#959393" d="M 157.5,212.5 C 156.952,213.688 156.619,214.855 156.5,216C 153.328,217.752 150.328,219.752 147.5,222C 148.022,222.561 148.355,223.228 148.5,224C 147.937,226.727 147.27,229.393 146.5,232C 149.278,233.392 152.278,233.892 155.5,233.5C 152.794,236.051 149.794,237.051 146.5,236.5C 145.402,235.603 145.402,234.77 146.5,234C 143.251,231.457 139.751,229.291 136,227.5C 134.026,223.049 133.193,218.382 133.5,213.5C 137.363,214.686 141.029,216.353 144.5,218.5C 145.183,218.137 145.85,217.804 146.5,217.5C 150.275,216.113 153.941,214.447 157.5,212.5 Z"/></g>
<g><path style="opacity:1" fill="#767474" d="M 132.5,207.5 C 137.469,210.478 142.135,213.811 146.5,217.5C 145.85,217.804 145.183,218.137 144.5,218.5C 141.029,216.353 137.363,214.686 133.5,213.5C 133.193,218.382 134.026,223.049 136,227.5C 139.751,229.291 143.251,231.457 146.5,234C 145.402,234.77 145.402,235.603 146.5,236.5C 141.532,234.35 136.865,231.683 132.5,228.5C 131.402,227.603 131.402,226.77 132.5,226C 128.817,223.313 125.483,220.313 122.5,217C 123.136,213.21 123.803,209.377 124.5,205.5C 126.332,206.248 127.999,207.248 129.5,208.5C 130.417,207.873 131.417,207.539 132.5,207.5 Z"/></g>
<g><path style="opacity:1" fill="#d0d0d0" d="M 167.5,226.5 C 164.863,225.37 162.197,225.37 159.5,226.5C 160.035,222.181 160.535,217.848 161,213.5C 162.565,211.655 163.731,209.655 164.5,207.5C 167.095,205.184 169.761,202.851 172.5,200.5C 177.167,204.167 181.833,207.833 186.5,211.5C 181.034,217.636 174.701,222.636 167.5,226.5 Z"/></g>
<g><path style="opacity:1" fill="#565455" d="M 132.5,207.5 C 131.417,207.539 130.417,207.873 129.5,208.5C 127.999,207.248 126.332,206.248 124.5,205.5C 123.803,209.377 123.136,213.21 122.5,217C 125.483,220.313 128.817,223.313 132.5,226C 131.402,226.77 131.402,227.603 132.5,228.5C 124.332,224.235 116.999,218.735 110.5,212C 114.701,208.135 119.201,204.635 124,201.5C 127.281,202.96 130.114,204.96 132.5,207.5 Z"/></g>
<g><path style="opacity:1" fill="#cee606" d="M 155.5,148.5 C 158.167,148.5 160.833,148.5 163.5,148.5C 163.082,149.222 162.416,149.722 161.5,150C 162.74,152.912 164.406,155.579 166.5,158C 175.494,158.5 184.494,158.666 193.5,158.5C 189.034,161.372 184.034,162.872 178.5,163C 183.748,167.536 189.248,171.703 195,175.5C 200.89,167.712 205.723,159.379 209.5,150.5C 209.095,154.645 208.095,158.645 206.5,162.5C 206.601,170.33 209.934,172.664 216.5,169.5C 218.928,166.304 221.095,162.971 223,159.5C 223.383,160.056 223.883,160.389 224.5,160.5C 219.451,173.597 212.118,185.263 202.5,195.5C 202.53,194.503 202.03,193.836 201,193.5C 199.374,194.289 197.874,195.289 196.5,196.5C 188.626,191.1 180.959,185.6 173.5,180C 168.412,171.673 163.412,163.173 158.5,154.5C 156.947,153.561 155.613,152.394 154.5,151C 154.743,150.098 155.077,149.265 155.5,148.5 Z"/></g>
<g><path style="opacity:1" fill="#999a1a" d="M 127.5,162.5 C 127.5,168.167 127.5,173.833 127.5,179.5C 125.62,179.771 124.287,179.104 123.5,177.5C 124.496,177.414 125.329,177.748 126,178.5C 126.173,172.984 126.673,167.651 127.5,162.5 Z"/></g>
<g><path style="opacity:1" fill="#96d111" d="M 64.5,140.5 C 65.2176,142.246 66.2176,142.912 67.5,142.5C 67.0247,145.937 68.1914,148.937 71,151.5C 72.5148,155.61 74.0148,159.61 75.5,163.5C 82.9124,176.637 91.5791,188.971 101.5,200.5C 100.749,201.573 99.7494,201.74 98.5,201C 82.0919,183.684 70.7586,163.517 64.5,140.5 Z"/></g>
<g><path style="opacity:1" fill="#50c501" d="M 111.5,192.5 C 108.48,195.516 105.146,198.183 101.5,200.5C 91.5791,188.971 82.9124,176.637 75.5,163.5C 74.8195,159.803 74.3195,156.136 74,152.5C 75.9913,154.592 77.9913,154.258 80,151.5C 86.1354,155.095 89.8021,160.428 91,167.5C 95.7463,173.331 100.246,179.331 104.5,185.5C 108.399,186.318 110.732,188.651 111.5,192.5 Z"/></g>
<g><path style="opacity:1" fill="#b8df05" d="M 230.5,143.5 C 230.5,144.5 230.5,145.5 230.5,146.5C 229.14,149.62 228.307,152.953 228,156.5C 227.051,158.093 225.885,159.426 224.5,160.5C 223.883,160.389 223.383,160.056 223,159.5C 221.095,162.971 218.928,166.304 216.5,169.5C 209.934,172.664 206.601,170.33 206.5,162.5C 208.095,158.645 209.095,154.645 209.5,150.5C 209.5,149.833 209.833,149.5 210.5,149.5C 211.751,147.618 212.918,145.618 214,143.5C 214.038,147.563 214.872,151.397 216.5,155C 224.303,155.361 227.97,151.527 227.5,143.5C 228.5,143.5 229.5,143.5 230.5,143.5 Z"/></g>
<g><path style="opacity:1" fill="#bae106" d="M 159.5,111.5 C 168.839,111.334 178.173,111.5 187.5,112C 194.362,113.526 199.528,117.359 203,123.5C 203.5,131.493 203.666,139.493 203.5,147.5C 201.755,149.033 200.755,151.033 200.5,153.5C 198.427,155.58 196.093,157.246 193.5,158.5C 184.494,158.666 175.494,158.5 166.5,158C 164.406,155.579 162.74,152.912 161.5,150C 162.416,149.722 163.082,149.222 163.5,148.5C 170.478,147.903 177.478,147.237 184.5,146.5C 184.043,145.702 183.376,145.369 182.5,145.5C 182.5,145.167 182.5,144.833 182.5,144.5C 185.876,142.932 187.209,140.265 186.5,136.5C 186.922,133.218 185.922,130.552 183.5,128.5C 184.492,128.672 185.158,128.338 185.5,127.5C 187.193,128.475 188.693,129.808 190,131.5C 190.819,137.155 190.319,142.655 188.5,148C 192.378,149.766 192.378,151.599 188.5,153.5C 193.212,154.699 196.712,153.032 199,148.5C 200.523,140.898 200.856,133.232 200,125.5C 197.031,120.527 192.864,117.027 187.5,115C 178.105,114.114 168.772,114.447 159.5,116C 160.833,116.667 160.833,117.333 159.5,118C 161.167,119.833 162.833,121.667 164.5,123.5C 170.654,124.167 176.654,124.833 182.5,125.5C 171.473,125.618 160.473,125.118 149.5,124C 147.539,121.037 145.206,118.371 142.5,116C 149.546,115.326 156.546,114.326 163.5,113C 161.942,112.79 160.609,112.29 159.5,111.5 Z"/></g>
<g><path style="opacity:1" fill="#556012" d="M 203.5,147.5 C 203.245,149.967 202.245,151.967 200.5,153.5C 200.755,151.033 201.755,149.033 203.5,147.5 Z"/></g>
<g><path style="opacity:1" fill="#dfe60e" d="M 155.5,148.5 C 155.077,149.265 154.743,150.098 154.5,151C 155.613,152.394 156.947,153.561 158.5,154.5C 163.412,163.173 168.412,171.673 173.5,180C 180.959,185.6 188.626,191.1 196.5,196.5C 197.874,195.289 199.374,194.289 201,193.5C 202.03,193.836 202.53,194.503 202.5,195.5C 201.298,197.392 199.965,199.226 198.5,201C 197.5,201.667 196.5,201.667 195.5,201C 178.833,188.333 162.167,175.667 145.5,163C 139.509,162.501 133.509,162.334 127.5,162.5C 133.653,161.347 139.986,161.18 146.5,162C 150.919,164.627 155.419,167.127 160,169.5C 160.492,168.451 160.326,167.451 159.5,166.5C 155.314,160.546 151.647,154.712 148.5,149C 150.81,148.503 153.143,148.337 155.5,148.5 Z"/></g>
<g><path style="opacity:1" fill="#f1f107" d="M 182.5,145.5 C 183.376,145.369 184.043,145.702 184.5,146.5C 177.478,147.237 170.478,147.903 163.5,148.5C 160.833,148.5 158.167,148.5 155.5,148.5C 153.143,148.337 150.81,148.503 148.5,149C 151.647,154.712 155.314,160.546 159.5,166.5C 160.326,167.451 160.492,168.451 160,169.5C 155.419,167.127 150.919,164.627 146.5,162C 139.986,161.18 133.653,161.347 127.5,162.5C 126.673,167.651 126.173,172.984 126,178.5C 125.329,177.748 124.496,177.414 123.5,177.5C 114.991,169.825 108.991,160.492 105.5,149.5C 105.5,148.167 105.5,146.833 105.5,145.5C 131.167,145.5 156.833,145.5 182.5,145.5 Z"/></g>
<g><path style="opacity:1" fill="#a5a41c" d="M 182.5,144.5 C 182.5,144.833 182.5,145.167 182.5,145.5C 156.833,145.5 131.167,145.5 105.5,145.5C 105.5,146.833 105.5,148.167 105.5,149.5C 104.549,148.081 104.216,146.415 104.5,144.5C 130.5,144.5 156.5,144.5 182.5,144.5 Z"/></g>
<g><path style="opacity:1" fill="#92d702" d="M 236.5,105.5 C 236.666,110.844 236.499,116.177 236,121.5C 233.682,128.742 231.848,136.076 230.5,143.5C 229.5,143.5 228.5,143.5 227.5,143.5C 227.97,151.527 224.303,155.361 216.5,155C 214.872,151.397 214.038,147.563 214,143.5C 212.918,145.618 211.751,147.618 210.5,149.5C 211.963,143.776 213.63,138.109 215.5,132.5C 217.956,128.262 218.956,123.596 218.5,118.5C 219.429,115.325 220.262,111.991 221,108.5C 221.333,113.5 221.667,118.5 222,123.5C 225.195,124.977 228.362,125.644 231.5,125.5C 233.384,118.842 235.051,112.176 236.5,105.5 Z"/></g>
<g><path style="opacity:1" fill="#84d300" d="M 185.5,127.5 C 184.71,126.599 183.71,125.932 182.5,125.5C 176.654,124.833 170.654,124.167 164.5,123.5C 162.833,121.667 161.167,119.833 159.5,118C 160.833,117.333 160.833,116.667 159.5,116C 168.772,114.447 178.105,114.114 187.5,115C 192.864,117.027 197.031,120.527 200,125.5C 200.856,133.232 200.523,140.898 199,148.5C 196.712,153.032 193.212,154.699 188.5,153.5C 192.378,151.599 192.378,149.766 188.5,148C 190.319,142.655 190.819,137.155 190,131.5C 188.693,129.808 187.193,128.475 185.5,127.5 Z"/></g>
<g><path style="opacity:1" fill="#75cb06" d="M 61.5,96.5 C 60.375,97.6522 60.375,98.6522 61.5,99.5C 61.6576,110.695 63.1576,121.695 66,132.5C 66.4652,131.069 67.2986,129.903 68.5,129C 70.676,128.837 72.5093,128.004 74,126.5C 74.7365,128.596 75.9032,130.263 77.5,131.5C 78.5055,136.509 80.8388,140.842 84.5,144.5C 91.3434,161.178 100.843,176.178 113,189.5C 113.585,190.998 113.085,191.998 111.5,192.5C 110.732,188.651 108.399,186.318 104.5,185.5C 100.246,179.331 95.7463,173.331 91,167.5C 89.8021,160.428 86.1354,155.095 80,151.5C 77.9913,154.258 75.9913,154.592 74,152.5C 74.3195,156.136 74.8195,159.803 75.5,163.5C 74.0148,159.61 72.5148,155.61 71,151.5C 68.1914,148.937 67.0247,145.937 67.5,142.5C 66.2176,142.912 65.2176,142.246 64.5,140.5C 62.9045,138.168 61.7378,135.501 61,132.5C 60.8989,127.054 60.2323,121.721 59,116.5C 58.3333,110.167 58.3333,103.833 59,97.5C 59.6708,96.7476 60.5041,96.4142 61.5,96.5 Z"/></g>
<g><path style="opacity:1" fill="#8bb816" d="M 236.5,97.5 C 237.117,97.6107 237.617,97.944 238,98.5C 238.191,106.838 237.857,115.171 237,123.5C 234.724,129.273 233.391,135.273 233,141.5C 232.243,143.315 231.41,144.981 230.5,146.5C 230.5,145.5 230.5,144.5 230.5,143.5C 231.848,136.076 233.682,128.742 236,121.5C 236.499,116.177 236.666,110.844 236.5,105.5C 236.5,102.833 236.5,100.167 236.5,97.5 Z"/></g>
<g><path style="opacity:1" fill="#5a7c14" d="M 218.5,118.5 C 218.956,123.596 217.956,128.262 215.5,132.5C 215.77,127.55 216.77,122.883 218.5,118.5 Z"/></g>
<g><path style="opacity:1" fill="#9ad900" d="M 61.5,99.5 C 62.1667,99.5 62.5,99.8333 62.5,100.5C 63.3726,103.377 65.0392,105.71 67.5,107.5C 69.6145,108.034 71.4478,109.034 73,110.5C 74.0905,117.675 75.5905,124.675 77.5,131.5C 75.9032,130.263 74.7365,128.596 74,126.5C 72.5093,128.004 70.676,128.837 68.5,129C 67.2986,129.903 66.4652,131.069 66,132.5C 63.1576,121.695 61.6576,110.695 61.5,99.5 Z"/></g>
<g><path style="opacity:1" fill="#b4d60e" d="M 62.5,100.5 C 67.596,104.945 72.9293,108.945 78.5,112.5C 77.8614,113.097 77.528,113.93 77.5,115C 79.8996,124.834 82.233,134.668 84.5,144.5C 80.8388,140.842 78.5055,136.509 77.5,131.5C 75.5905,124.675 74.0905,117.675 73,110.5C 71.4478,109.034 69.6145,108.034 67.5,107.5C 65.0392,105.71 63.3726,103.377 62.5,100.5 Z"/></g>
<g><path style="opacity:1" fill="#5fc605" d="M 236.5,97.5 C 236.5,100.167 236.5,102.833 236.5,105.5C 235.051,112.176 233.384,118.842 231.5,125.5C 228.362,125.644 225.195,124.977 222,123.5C 221.667,118.5 221.333,113.5 221,108.5C 220.262,111.991 219.429,115.325 218.5,118.5C 218.823,114.774 218.489,111.107 217.5,107.5C 212.127,105.157 206.793,102.824 201.5,100.5C 206.613,95.7205 212.28,91.7205 218.5,88.5C 224.803,90.985 230.803,93.985 236.5,97.5 Z"/></g>
<g><path style="opacity:1" fill="#585858" d="M 126.5,89.5 C 130.833,89.5 135.167,89.5 139.5,89.5C 130.126,91.4097 120.626,93.4097 111,95.5C 109.124,95.4753 107.624,94.8086 106.5,93.5C 112.966,91.3103 119.632,89.977 126.5,89.5 Z"/></g>
<g><path style="opacity:1" fill="#edef0b" d="M 159.5,111.5 C 160.609,112.29 161.942,112.79 163.5,113C 156.546,114.326 149.546,115.326 142.5,116C 145.206,118.371 147.539,121.037 149.5,124C 160.473,125.118 171.473,125.618 182.5,125.5C 183.71,125.932 184.71,126.599 185.5,127.5C 185.158,128.338 184.492,128.672 183.5,128.5C 155.165,128.667 126.831,128.5 98.5,128C 91.9575,122.618 85.2909,117.452 78.5,112.5C 72.9293,108.945 67.596,104.945 62.5,100.5C 62.5,99.8333 62.1667,99.5 61.5,99.5C 60.375,98.6522 60.375,97.6522 61.5,96.5C 66.2611,92.7861 71.5944,90.1194 77.5,88.5C 88.1472,95.4977 98.4805,102.998 108.5,111C 125.497,111.5 142.497,111.667 159.5,111.5 Z"/></g>
<g><path style="opacity:1" fill="#515050" d="M 185.5,81.5 C 190.861,82.5233 196.194,83.5233 201.5,84.5C 197.191,87.8024 192.857,91.1357 188.5,94.5C 187.71,93.5987 186.71,92.9321 185.5,92.5C 184.737,91.7321 183.737,91.2321 182.5,91C 183.167,90.6667 183.833,90.3333 184.5,90C 183.884,88.5998 183.551,87.0998 183.5,85.5C 183.585,83.6672 184.252,82.3339 185.5,81.5 Z"/></g>
<g><path style="opacity:1" fill="#d7d7d7" d="M 126.5,89.5 C 119.632,89.977 112.966,91.3103 106.5,93.5C 103.167,91.1667 99.8333,88.8333 96.5,86.5C 98.5757,84.2862 101.242,82.7862 104.5,82C 112.066,79.9202 119.732,78.4202 127.5,77.5C 131.446,76.4731 135.446,76.3064 139.5,77C 139.322,79.9546 139.322,83.1212 139.5,86.5C 134.948,87.0566 130.615,88.0566 126.5,89.5 Z"/></g>
<g><path style="opacity:1" fill="#706e6e" d="M 167.5,77.5 C 173.804,77.989 179.804,79.3223 185.5,81.5C 184.252,82.3339 183.585,83.6672 183.5,85.5C 183.551,87.0998 183.884,88.5998 184.5,90C 183.833,90.3333 183.167,90.6667 182.5,91C 183.737,91.2321 184.737,91.7321 185.5,92.5C 178.744,91.4485 172.077,89.9485 165.5,88C 164.544,84.6064 164.211,81.1064 164.5,77.5C 165.5,77.5 166.5,77.5 167.5,77.5 Z"/></g>
<g><path style="opacity:1" fill="#c6c6c6" d="M 169.5,74.5 C 181.055,76.3888 192.388,79.2221 203.5,83C 202.956,83.7172 202.289,84.2172 201.5,84.5C 196.194,83.5233 190.861,82.5233 185.5,81.5C 179.804,79.3223 173.804,77.989 167.5,77.5C 166.4,76.4415 165.066,75.6082 163.5,75C 165.473,74.5045 167.473,74.3379 169.5,74.5 Z"/></g>
<g><path style="opacity:1" fill="#484848" d="M 137.5,72.5 C 134.466,74.0177 131.133,74.8511 127.5,75C 128.598,75.7697 128.598,76.603 127.5,77.5C 119.732,78.4202 112.066,79.9202 104.5,82C 101.242,82.7862 98.5757,84.2862 96.5,86.5C 95.6364,85.3117 94.6364,84.1451 93.5,83C 107.827,78.1707 122.494,74.6707 137.5,72.5 Z"/></g>
<g><path style="opacity:1" fill="#999798" d="M 169.5,74.5 C 167.473,74.3379 165.473,74.5045 163.5,75C 165.066,75.6082 166.4,76.4415 167.5,77.5C 166.5,77.5 165.5,77.5 164.5,77.5C 164.211,81.1064 164.544,84.6064 165.5,88C 172.077,89.9485 178.744,91.4485 185.5,92.5C 186.71,92.9321 187.71,93.5987 188.5,94.5C 186.034,95.6341 183.367,95.8007 180.5,95C 169.567,92.6215 158.567,90.4549 147.5,88.5C 144.824,88.837 142.157,89.1703 139.5,89.5C 135.167,89.5 130.833,89.5 126.5,89.5C 130.615,88.0566 134.948,87.0566 139.5,86.5C 139.322,83.1212 139.322,79.9546 139.5,77C 135.446,76.3064 131.446,76.4731 127.5,77.5C 128.598,76.603 128.598,75.7697 127.5,75C 131.133,74.8511 134.466,74.0177 137.5,72.5C 148.388,70.9561 159.054,71.6228 169.5,74.5 Z"/></g>
</svg>
