<?xml version="1.0" encoding="UTF-8"?>
<!DOCTYPE svg PUBLIC "-//W3C//DTD SVG 1.1//EN" "http://www.w3.org/Graphics/SVG/1.1/DTD/svg11.dtd">
<svg xmlns="http://www.w3.org/2000/svg" version="1.1" width="252px" height="252px" style="shape-rendering:geometricPrecision; text-rendering:geometricPrecision; image-rendering:optimizeQuality; fill-rule:evenodd; clip-rule:evenodd" xmlns:xlink="http://www.w3.org/1999/xlink">
<g><path style="opacity:0.996" fill="#040404" d="M 113.5,-0.5 C 121.5,-0.5 129.5,-0.5 137.5,-0.5C 189.998,6.66654 225.665,34.9999 244.5,84.5C 244.357,86.2624 244.691,87.9291 245.5,89.5C 245.043,90.2975 244.376,90.6309 243.5,90.5C 242.145,88.4788 240.479,86.8121 238.5,85.5C 238.573,83.9731 237.906,82.9731 236.5,82.5C 233.833,77.8333 230.167,74.1667 225.5,71.5C 214.754,63.3659 202.754,58.3659 189.5,56.5C 182.345,55.6712 175.011,55.1712 167.5,55C 167,54.5 166.5,54 166,53.5C 163.931,54.2638 161.764,54.7638 159.5,55C 158.888,56.3033 158.554,57.4699 158.5,58.5C 155.692,57.5962 153.192,58.2629 151,60.5C 147.873,59.4636 147.039,60.4636 148.5,63.5C 139.989,68.0095 132.322,73.6761 125.5,80.5C 122.671,80.3249 121.004,81.6582 120.5,84.5C 120.212,83.1395 119.879,81.8062 119.5,80.5C 118.829,79.1529 118.829,77.9862 119.5,77C 99.2784,59.5011 75.945,54.1677 49.5,61C 28.8063,67.6869 13.6396,80.8536 4,100.5C 2.89318,101.712 2.39318,101.379 2.5,99.5C 13.3994,52.4286 41.7327,20.9286 87.5,5C 96.1865,2.56428 104.853,0.730951 113.5,-0.5 Z"/></g>
<g><path style="opacity:0.981" fill="#313539" d="M 189.5,56.5 C 175.213,55.492 161.547,57.8253 148.5,63.5C 147.039,60.4636 147.873,59.4636 151,60.5C 153.192,58.2629 155.692,57.5962 158.5,58.5C 158.554,57.4699 158.888,56.3033 159.5,55C 161.764,54.7638 163.931,54.2638 166,53.5C 166.5,54 167,54.5 167.5,55C 175.011,55.1712 182.345,55.6712 189.5,56.5 Z"/></g>
<g><path style="opacity:1" fill="#282829" d="M 119.5,80.5 C 118.833,80.1667 118.167,79.8333 117.5,79.5C 111.702,73.5222 104.869,68.8555 97,65.5C 94.8616,66.4304 93.695,68.097 93.5,70.5C 93.1583,71.3382 92.4916,71.6716 91.5,71.5C 89.0948,70.2318 86.4282,69.5651 83.5,69.5C 82.791,68.596 81.791,68.2627 80.5,68.5C 80.5,66.8333 80.5,65.1667 80.5,63.5C 78.8971,61.7056 76.7304,60.7056 74,60.5C 70.8948,61.3672 67.7281,61.7006 64.5,61.5C 64.4427,66.6817 63.776,66.6817 62.5,61.5C 61.2941,63.4841 61.2941,65.4841 62.5,67.5C 58.4039,68.8349 54.4039,70.1682 50.5,71.5C 49.2921,72.2341 47.9587,72.5674 46.5,72.5C 47.0671,70.302 47.0671,67.9686 46.5,65.5C 39.9072,66.7615 34.2405,69.7615 29.5,74.5C 28.2905,74.9321 27.2905,75.5987 26.5,76.5C 25.596,77.209 25.2627,78.209 25.5,79.5C 24.5,79.5 23.5,79.5 22.5,79.5C 22.3915,81.5138 23.0582,83.1805 24.5,84.5C 25.1667,85.1667 25.8333,85.8333 26.5,86.5C 24.086,87.9108 22.4194,89.9108 21.5,92.5C 20.5,92.8333 19.8333,93.5 19.5,94.5C 16.7851,95.5062 14.1185,95.1729 11.5,93.5C 10.7952,95.6721 9.79516,97.6721 8.5,99.5C 12.1097,101.712 11.443,102.712 6.5,102.5C 5.6093,107.717 3.94263,112.717 1.5,117.5C 0.534431,115.604 0.201097,113.604 0.5,111.5C 0.197669,107.21 0.864335,103.21 2.5,99.5C 2.39318,101.379 2.89318,101.712 4,100.5C 13.6396,80.8536 28.8063,67.6869 49.5,61C 75.945,54.1677 99.2784,59.5011 119.5,77C 118.829,77.9862 118.829,79.1529 119.5,80.5 Z"/></g>
<g><path style="opacity:0.125" fill="#828180" d="M 198.5,64.5 C 187.886,62.3932 177.219,62.0598 166.5,63.5C 177.253,60.6962 187.92,61.0295 198.5,64.5 Z"/></g>
<g><path style="opacity:0.999" fill="#060506" d="M 198.5,64.5 C 213.472,67.6452 225.472,75.3118 234.5,87.5C 235.08,89.7488 236.413,91.4154 238.5,92.5C 242.234,97.9735 244.901,103.974 246.5,110.5C 246.41,113.152 247.076,115.485 248.5,117.5C 251.021,139.457 244.687,158.457 229.5,174.5C 212.283,190.402 191.95,196.568 168.5,193C 146.37,188.955 130.036,177.122 119.5,157.5C 119.715,155.821 119.048,154.821 117.5,154.5C 111.869,141.774 110.536,128.774 113.5,115.5C 114.924,113.485 115.59,111.152 115.5,108.5C 121.938,89.0617 134.605,75.395 153.5,67.5C 158.165,66.9431 162.498,65.6098 166.5,63.5C 177.219,62.0598 187.886,62.3932 198.5,64.5 Z M 192.5,123.5 C 193.492,123.328 194.158,123.662 194.5,124.5C 193.833,125.5 193.167,126.5 192.5,127.5C 192.5,126.167 192.5,124.833 192.5,123.5 Z M 205.5,124.5 C 205.66,126.153 206.326,127.486 207.5,128.5C 207.5,129.833 206.833,130.5 205.5,130.5C 205.5,130.167 205.5,129.833 205.5,129.5C 202.857,128.021 200.357,128.354 198,130.5C 197.805,129.181 197.972,127.847 198.5,126.5C 200.098,123.515 202.432,122.849 205.5,124.5 Z M 192.5,127.5 C 192.5,128.167 192.5,128.833 192.5,129.5C 187.163,130.13 187.163,129.464 192.5,127.5 Z M 181.5,128.5 C 182.5,128.5 183.5,128.5 184.5,128.5C 183.5,131.167 182.5,131.167 181.5,128.5 Z M 188.5,123.5 C 188.738,127.099 187.738,127.433 185.5,124.5C 186.325,123.614 187.325,123.281 188.5,123.5 Z M 219.5,123.5 C 219.768,125.099 219.434,126.432 218.5,127.5C 216.093,128.088 213.76,129.088 211.5,130.5C 211.106,128.47 210.773,126.137 210.5,123.5C 213.5,123.5 216.5,123.5 219.5,123.5 Z"/></g>
<g><path style="opacity:1" fill="#8c8c8c" d="M 80.5,63.5 C 79.596,64.209 79.2627,65.209 79.5,66.5C 74.3814,65.8969 69.7147,66.5636 65.5,68.5C 60.6213,70.0358 55.6213,71.0358 50.5,71.5C 54.4039,70.1682 58.4039,68.8349 62.5,67.5C 61.2941,65.4841 61.2941,63.4841 62.5,61.5C 63.776,66.6817 64.4427,66.6817 64.5,61.5C 67.7281,61.7006 70.8948,61.3672 74,60.5C 76.7304,60.7056 78.8971,61.7056 80.5,63.5 Z"/></g>
<g><path style="opacity:0.788" fill="#484748" d="M 166.5,63.5 C 162.498,65.6098 158.165,66.9431 153.5,67.5C 157.502,65.3902 161.835,64.0569 166.5,63.5 Z"/></g>
<g><path style="opacity:1" fill="#575757" d="M 80.5,63.5 C 80.5,65.1667 80.5,66.8333 80.5,68.5C 81.791,68.2627 82.791,68.596 83.5,69.5C 77.5362,68.6932 71.5362,68.3599 65.5,68.5C 69.7147,66.5636 74.3814,65.8969 79.5,66.5C 79.2627,65.209 79.596,64.209 80.5,63.5 Z"/></g>
<g><path style="opacity:0.537" fill="#86888c" d="M 225.5,71.5 C 230.167,74.1667 233.833,77.8333 236.5,82.5C 232.5,79.1667 228.833,75.5 225.5,71.5 Z"/></g>
<g><path style="opacity:1" fill="#848484" d="M 46.5,72.5 C 43.3069,74.6816 39.9735,76.6816 36.5,78.5C 37.463,77.6365 37.463,76.9698 36.5,76.5C 35.1311,78.124 33.4645,78.624 31.5,78C 34.2674,77.3308 34.7674,76.1641 33,74.5C 31.3468,74.8198 30.3468,75.8198 30,77.5C 29.5172,76.552 29.3505,75.552 29.5,74.5C 34.2405,69.7615 39.9072,66.7615 46.5,65.5C 47.0671,67.9686 47.0671,70.302 46.5,72.5 Z"/></g>
<g><path style="opacity:1" fill="#afafae" d="M 65.5,68.5 C 71.5362,68.3599 77.5362,68.6932 83.5,69.5C 86.4282,69.5651 89.0948,70.2318 91.5,71.5C 97.325,74.183 102.992,77.3497 108.5,81C 110.667,83.1667 112.833,85.3333 115,87.5C 112.775,94.0111 110.608,100.678 108.5,107.5C 108.5,108.167 108.167,108.5 107.5,108.5C 106.418,103.614 104.418,99.1136 101.5,95C 102.363,92.6381 104.03,91.1381 106.5,90.5C 104.858,87.8156 102.858,87.3156 100.5,89C 81.8333,89.3333 63.1667,89.6667 44.5,90C 42.26,90.977 39.9267,91.477 37.5,91.5C 37.6168,89.5165 36.9501,87.8498 35.5,86.5C 34.5745,87.6405 33.7412,87.6405 33,86.5C 32.4867,87.5266 31.9867,88.5266 31.5,89.5C 29.326,89.9202 27.326,89.9202 25.5,89.5C 24.6143,90.325 24.281,91.325 24.5,92.5C 23.5,92.5 22.5,92.5 21.5,92.5C 22.4194,89.9108 24.086,87.9108 26.5,86.5C 29.8726,83.8225 33.2059,81.1558 36.5,78.5C 39.9735,76.6816 43.3069,74.6816 46.5,72.5C 47.9587,72.5674 49.2921,72.2341 50.5,71.5C 55.6213,71.0358 60.6213,70.0358 65.5,68.5 Z"/></g>
<g><path style="opacity:1" fill="#8f8f90" d="M 117.5,79.5 C 115.337,86.0729 113.337,86.0729 111.5,79.5C 105.293,76.9707 99.2928,73.9707 93.5,70.5C 93.695,68.097 94.8616,66.4304 97,65.5C 104.869,68.8555 111.702,73.5222 117.5,79.5 Z"/></g>
<g><path style="opacity:1" fill="#9c9c9c" d="M 26.5,76.5 C 27.926,77.8015 29.2593,79.3015 30.5,81C 28.5952,82.4213 26.5952,83.588 24.5,84.5C 23.0582,83.1805 22.3915,81.5138 22.5,79.5C 23.5,79.5 24.5,79.5 25.5,79.5C 25.2627,78.209 25.596,77.209 26.5,76.5 Z"/></g>
<g><path style="opacity:1" fill="#656565" d="M 29.5,74.5 C 29.3505,75.552 29.5172,76.552 30,77.5C 30.3468,75.8198 31.3468,74.8198 33,74.5C 34.7674,76.1641 34.2674,77.3308 31.5,78C 33.4645,78.624 35.1311,78.124 36.5,76.5C 37.463,76.9698 37.463,77.6365 36.5,78.5C 33.2059,81.1558 29.8726,83.8225 26.5,86.5C 25.8333,85.8333 25.1667,85.1667 24.5,84.5C 26.5952,83.588 28.5952,82.4213 30.5,81C 29.2593,79.3015 27.926,77.8015 26.5,76.5C 27.2905,75.5987 28.2905,74.9321 29.5,74.5 Z"/></g>
<g><path style="opacity:0.067" fill="#cdced6" d="M 236.5,82.5 C 237.906,82.9731 238.573,83.9731 238.5,85.5C 237.094,85.0269 236.427,84.0269 236.5,82.5 Z"/></g>
<g><path style="opacity:1" fill="#adc1ba" d="M 107.5,108.5 C 107.5,109.5 107.5,110.5 107.5,111.5C 103.289,106.023 99.9559,100.023 97.5,93.5C 80.1983,91.5137 62.5316,90.847 44.5,91.5C 42.0936,93.1042 39.5936,94.7709 37,96.5C 35.5603,95.8524 34.0603,95.5191 32.5,95.5C 32.4828,93.4352 32.1495,91.4352 31.5,89.5C 31.9867,88.5266 32.4867,87.5266 33,86.5C 33.7412,87.6405 34.5745,87.6405 35.5,86.5C 36.9501,87.8498 37.6168,89.5165 37.5,91.5C 39.9267,91.477 42.26,90.977 44.5,90C 63.1667,89.6667 81.8333,89.3333 100.5,89C 102.858,87.3156 104.858,87.8156 106.5,90.5C 104.03,91.1381 102.363,92.6381 101.5,95C 104.418,99.1136 106.418,103.614 107.5,108.5 Z"/></g>
<g><path style="opacity:0.847" fill="#2f3236" d="M 244.5,84.5 C 247.238,90.4476 248.905,96.7809 249.5,103.5C 247.122,99.3792 245.122,95.0459 243.5,90.5C 244.376,90.6309 245.043,90.2975 245.5,89.5C 244.691,87.9291 244.357,86.2624 244.5,84.5 Z"/></g>
<g><path style="opacity:1" fill="#74af9b" d="M 44.5,92.5 C 44.5,92.1667 44.5,91.8333 44.5,91.5C 62.5316,90.847 80.1983,91.5137 97.5,93.5C 97.1667,93.5 96.8333,93.5 96.5,93.5C 79.3414,92.5033 62.008,92.17 44.5,92.5 Z"/></g>
<g><path style="opacity:0.282" fill="#7d7e80" d="M 234.5,87.5 C 236.167,88.5 237.5,89.8333 238.5,91.5C 238.5,91.8333 238.5,92.1667 238.5,92.5C 236.413,91.4154 235.08,89.7488 234.5,87.5 Z"/></g>
<g><path style="opacity:1" fill="#39896e" d="M 44.5,92.5 C 62.008,92.17 79.3414,92.5033 96.5,93.5C 87.5,93.5 78.5,93.5 69.5,93.5C 61.4931,93.3336 53.4931,93.5003 45.5,94C 43.7215,96.1354 43.0548,98.6354 43.5,101.5C 48.8333,101.5 54.1667,101.5 59.5,101.5C 72.0113,101.171 84.3446,101.505 96.5,102.5C 78.8333,102.5 61.1667,102.5 43.5,102.5C 41.9826,102.511 40.8159,103.177 40,104.5C 39.6174,103.944 39.1174,103.611 38.5,103.5C 39.8333,100.833 41.1667,98.1667 42.5,95.5C 43.1667,94.5 43.8333,93.5 44.5,92.5 Z"/></g>
<g><path style="opacity:1" fill="#0d8b60" d="M 69.5,93.5 C 77.9903,94.3296 86.657,94.8296 95.5,95C 96.4061,96.6995 96.7394,98.5328 96.5,100.5C 83.9887,100.171 71.6554,100.505 59.5,101.5C 54.1667,101.5 48.8333,101.5 43.5,101.5C 43.0548,98.6354 43.7215,96.1354 45.5,94C 53.4931,93.5003 61.4931,93.3336 69.5,93.5 Z"/></g>
<g><path style="opacity:1" fill="#237453" d="M 69.5,93.5 C 78.5,93.5 87.5,93.5 96.5,93.5C 96.8333,93.5 97.1667,93.5 97.5,93.5C 99.9559,100.023 103.289,106.023 107.5,111.5C 106.957,114.218 106.291,116.885 105.5,119.5C 104.629,115.979 103.795,112.312 103,108.5C 102.311,107.643 101.478,106.977 100.5,106.5C 99.3037,108.145 98.3037,109.811 97.5,111.5C 97.81,108.287 97.4767,105.287 96.5,102.5C 84.3446,101.505 72.0113,101.171 59.5,101.5C 71.6554,100.505 83.9887,100.171 96.5,100.5C 96.7394,98.5328 96.4061,96.6995 95.5,95C 86.657,94.8296 77.9903,94.3296 69.5,93.5 Z"/></g>
<g><path style="opacity:0.647" fill="#464747" d="M 93.5,70.5 C 99.2928,73.9707 105.293,76.9707 111.5,79.5C 113.337,86.0729 115.337,86.0729 117.5,79.5C 118.167,79.8333 118.833,80.1667 119.5,80.5C 119.879,81.8062 120.212,83.1395 120.5,84.5C 121.004,81.6582 122.671,80.3249 125.5,80.5C 118.282,89.9375 112.949,100.271 109.5,111.5C 109.768,109.901 109.434,108.568 108.5,107.5C 110.608,100.678 112.775,94.0111 115,87.5C 112.833,85.3333 110.667,83.1667 108.5,81C 102.992,77.3497 97.325,74.183 91.5,71.5C 92.4916,71.6716 93.1583,71.3382 93.5,70.5 Z"/></g>
<g><path style="opacity:0.929" fill="#e8e9eb" d="M 238.5,85.5 C 240.479,86.8121 242.145,88.4788 243.5,90.5C 245.122,95.0459 247.122,99.3792 249.5,103.5C 250.167,105.5 250.833,107.5 251.5,109.5C 251.5,120.167 251.5,130.833 251.5,141.5C 250.421,146.56 249.088,151.56 247.5,156.5C 241.748,166.783 234.415,175.95 225.5,184C 223.473,185.879 221.14,187.046 218.5,187.5C 223.066,184.443 227.233,180.776 231,176.5C 231.528,175.184 231.028,174.517 229.5,174.5C 244.687,158.457 251.021,139.457 248.5,117.5C 248.59,114.848 247.924,112.515 246.5,110.5C 244.901,103.974 242.234,97.9735 238.5,92.5C 238.5,92.1667 238.5,91.8333 238.5,91.5C 239.423,92.3029 240.423,92.4696 241.5,92C 240.594,89.7787 239.594,87.6121 238.5,85.5 Z"/></g>
<g><path style="opacity:1" fill="#8dc7b4" d="M 43.5,102.5 C 61.1667,102.5 78.8333,102.5 96.5,102.5C 97.4767,105.287 97.81,108.287 97.5,111.5C 97.7678,113.099 97.4345,114.432 96.5,115.5C 96.7935,111.563 96.4601,107.73 95.5,104C 78.8367,103.5 62.17,103.333 45.5,103.5C 45.2601,106.579 45.5934,109.579 46.5,112.5C 51.5713,112.872 56.2379,113.872 60.5,115.5C 55.1667,115.5 49.8333,115.5 44.5,115.5C 43.7051,111.215 43.3718,106.881 43.5,102.5 Z"/></g>
<g><path style="opacity:1" fill="#c5c7c7" d="M 77.5,115.5 C 76.609,116.11 75.609,116.443 74.5,116.5C 70.6924,116.837 67.0257,116.337 63.5,115C 62.6433,114.311 61.9767,113.478 61.5,112.5C 62.5896,111.391 62.5896,110.391 61.5,109.5C 57.2038,111.958 52.5371,112.958 47.5,112.5C 47.317,110.064 47.9837,107.897 49.5,106C 54.372,105.754 59.2054,105.254 64,104.5C 66.1956,105.09 68.3622,105.757 70.5,106.5C 78.7961,104.891 87.1294,104.558 95.5,105.5C 95.7564,107.792 95.4231,109.959 94.5,112C 89.5435,113.664 84.5435,113.997 79.5,113C 78.6195,113.708 77.9528,114.542 77.5,115.5 Z"/></g>
<g><path style="opacity:1" fill="#b5cec7" d="M 96.5,115.5 C 90.1667,115.5 83.8333,115.5 77.5,115.5C 77.9528,114.542 78.6195,113.708 79.5,113C 84.5435,113.997 89.5435,113.664 94.5,112C 95.4231,109.959 95.7564,107.792 95.5,105.5C 87.1294,104.558 78.7961,104.891 70.5,106.5C 68.3622,105.757 66.1956,105.09 64,104.5C 59.2054,105.254 54.372,105.754 49.5,106C 47.9837,107.897 47.317,110.064 47.5,112.5C 52.5371,112.958 57.2038,111.958 61.5,109.5C 62.5896,110.391 62.5896,111.391 61.5,112.5C 61.9767,113.478 62.6433,114.311 63.5,115C 67.0257,116.337 70.6924,116.837 74.5,116.5C 74.5,117.833 74.5,119.167 74.5,120.5C 70.944,118.877 67.944,119.544 65.5,122.5C 64.8333,120.5 64.1667,118.5 63.5,116.5C 62.609,115.89 61.609,115.557 60.5,115.5C 56.2379,113.872 51.5713,112.872 46.5,112.5C 45.5934,109.579 45.2601,106.579 45.5,103.5C 62.17,103.333 78.8367,103.5 95.5,104C 96.4601,107.73 96.7935,111.563 96.5,115.5 Z"/></g>
<g><path style="opacity:1" fill="#5b121a" d="M 162.5,101.5 C 155.309,100.183 152.309,103.183 153.5,110.5C 150.521,101.492 153.521,98.492 162.5,101.5 Z"/></g>
<g><path style="opacity:1" fill="#23557e" d="M 217.5,107.5 C 215.473,107.338 213.473,107.505 211.5,108C 212.056,108.383 212.389,108.883 212.5,109.5C 204.009,107.532 195.343,106.032 186.5,105C 193.5,104.333 200.5,104.333 207.5,105C 211.09,105.311 214.423,106.144 217.5,107.5 Z"/></g>
<g><path style="opacity:1" fill="#ad212f" d="M 162.5,101.5 C 167.984,101.438 169.817,104.105 168,109.5C 163.158,111.538 158.324,111.871 153.5,110.5C 152.309,103.183 155.309,100.183 162.5,101.5 Z"/></g>
<g><path style="opacity:1" fill="#d41d24" d="M 156.5,102.5 C 159.249,102.274 161.916,102.607 164.5,103.5C 165.452,105.045 165.785,106.712 165.5,108.5C 162.372,109.618 159.372,109.451 156.5,108C 155.248,106.172 155.248,104.339 156.5,102.5 Z"/></g>
<g><path style="opacity:1" fill="#d3d4d4" d="M 31.5,89.5 C 32.1495,91.4352 32.4828,93.4352 32.5,95.5C 34.0603,95.5191 35.5603,95.8524 37,96.5C 39.5936,94.7709 42.0936,93.1042 44.5,91.5C 44.5,91.8333 44.5,92.1667 44.5,92.5C 43.8333,93.5 43.1667,94.5 42.5,95.5C 40.9826,95.5106 39.8159,96.1772 39,97.5C 37.2398,103.098 34.0732,107.765 29.5,111.5C 27.3203,114.936 25.6537,118.602 24.5,122.5C 22.7408,123.754 21.2408,123.421 20,121.5C 18.7754,127.268 19.7754,132.601 23,137.5C 23.4955,139.473 23.6621,141.473 23.5,143.5C 25.9124,143.756 27.5791,142.756 28.5,140.5C 29.735,141.34 30.735,142.34 31.5,143.5C 30.6448,145.787 30.4782,148.12 31,150.5C 28.8927,148.667 26.3927,147.501 23.5,147C 24.6956,146.346 24.6956,145.846 23.5,145.5C 22.4763,146.853 21.143,147.52 19.5,147.5C 18.8247,152.611 16.4914,153.611 12.5,150.5C 11.4009,146.07 10.4009,141.737 9.5,137.5C 9.5,131.833 9.5,126.167 9.5,120.5C 11.31,115.399 12.81,110.066 14,104.5C 16.1118,101.273 17.9451,97.9396 19.5,94.5C 19.8333,93.5 20.5,92.8333 21.5,92.5C 22.5,92.5 23.5,92.5 24.5,92.5C 24.281,91.325 24.6143,90.325 25.5,89.5C 27.326,89.9202 29.326,89.9202 31.5,89.5 Z"/></g>
<g><path style="opacity:1" fill="#27609d" d="M 217.5,107.5 C 226.443,109.245 234.11,113.245 240.5,119.5C 240.5,120.167 240.5,120.833 240.5,121.5C 238.831,119.86 236.831,118.526 234.5,117.5C 233.702,117.957 233.369,118.624 233.5,119.5C 229.738,117.587 226.071,115.421 222.5,113C 219.106,111.925 215.772,110.758 212.5,109.5C 212.389,108.883 212.056,108.383 211.5,108C 213.473,107.505 215.473,107.338 217.5,107.5 Z"/></g>
<g><path style="opacity:1" fill="#868585" d="M 19.5,94.5 C 17.9451,97.9396 16.1118,101.273 14,104.5C 12.81,110.066 11.31,115.399 9.5,120.5C 9.85112,118.131 10.0178,115.797 10,113.5C 8.84185,113.998 8.00852,114.831 7.5,116C 6.87984,117.989 6.54651,119.822 6.5,121.5C 3.8915,121.6 1.55817,120.933 -0.5,119.5C -0.5,116.833 -0.5,114.167 -0.5,111.5C -0.166667,111.5 0.166667,111.5 0.5,111.5C 0.201097,113.604 0.534431,115.604 1.5,117.5C 3.94263,112.717 5.6093,107.717 6.5,102.5C 11.443,102.712 12.1097,101.712 8.5,99.5C 9.79516,97.6721 10.7952,95.6721 11.5,93.5C 14.1185,95.1729 16.7851,95.5062 19.5,94.5 Z"/></g>
<g><path style="opacity:0.467" fill="#60605f" d="M 115.5,108.5 C 115.59,111.152 114.924,113.485 113.5,115.5C 113.41,112.848 114.076,110.515 115.5,108.5 Z"/></g>
<g><path style="opacity:1" fill="#631a22" d="M 222.5,116.5 C 221.508,116.328 220.842,116.662 220.5,117.5C 215.986,115.191 211.319,113.024 206.5,111C 212.434,111.105 217.768,112.938 222.5,116.5 Z"/></g>
<g><path style="opacity:1" fill="#7a7a79" d="M 246.5,110.5 C 247.924,112.515 248.59,114.848 248.5,117.5C 247.076,115.485 246.41,113.152 246.5,110.5 Z"/></g>
<g><path style="opacity:1" fill="#1b9a6e" d="M 105.5,119.5 C 105.418,126.858 105.752,134.191 106.5,141.5C 103.167,144.167 100.167,147.167 97.5,150.5C 96.8333,150.833 96.1667,151.167 95.5,151.5C 95.3505,150.448 95.5172,149.448 96,148.5C 99.2094,146.291 101.709,143.457 103.5,140C 103.355,139.228 103.022,138.561 102.5,138C 94.7867,138.756 87.12,139.923 79.5,141.5C 79.5572,147.851 79.8905,154.185 80.5,160.5C 81.7951,159.311 83.7951,158.478 86.5,158C 88.2807,155.763 90.2807,153.763 92.5,152C 93.4368,151.308 94.1034,151.475 94.5,152.5C 89.5,158.167 84.1667,163.5 78.5,168.5C 78.2089,167.351 77.3756,166.684 76,166.5C 75.1667,166.667 74.3333,166.833 73.5,167C 74.5171,168.049 74.6838,169.216 74,170.5C 72.6861,171.313 71.5195,172.313 70.5,173.5C 67.5114,172.249 66.5114,170.249 67.5,167.5C 66.0508,166.828 64.7175,166.161 63.5,165.5C 68.1667,165.5 72.8333,165.5 77.5,165.5C 77.9662,156.506 78.2996,147.506 78.5,138.5C 85.5394,137.829 92.5394,136.829 99.5,135.5C 100.914,134.376 102.414,133.376 104,132.5C 104.579,131.072 104.412,129.738 103.5,128.5C 99.2887,125.641 94.622,123.641 89.5,122.5C 89.33,121.178 89.6634,120.011 90.5,119C 87.7728,118.182 85.1062,118.348 82.5,119.5C 82.1667,120.167 81.8333,120.833 81.5,121.5C 83.805,121.692 86.1384,122.026 88.5,122.5C 85.5719,123.484 82.5719,123.817 79.5,123.5C 78.5318,121.393 78.1984,119.059 78.5,116.5C 84.69,116.823 90.69,116.49 96.5,115.5C 97.4345,114.432 97.7678,113.099 97.5,111.5C 98.3037,109.811 99.3037,108.145 100.5,106.5C 101.478,106.977 102.311,107.643 103,108.5C 103.795,112.312 104.629,115.979 105.5,119.5 Z"/></g>
<g><path style="opacity:0.161" fill="#b9b9b9" d="M 184.5,126.5 C 184.5,127.167 184.5,127.833 184.5,128.5C 183.5,128.5 182.5,128.5 181.5,128.5C 181.737,127.209 181.404,126.209 180.5,125.5C 180.167,122.833 179.833,122.833 179.5,125.5C 178.596,124.791 178.263,123.791 178.5,122.5C 180.885,123.292 182.885,124.626 184.5,126.5 Z"/></g>
<g><path style="opacity:0.106" fill="#c3c3c3" d="M 192.5,123.5 C 193.386,122.224 194.386,122.224 195.5,123.5C 195.376,124.107 195.043,124.44 194.5,124.5C 194.158,123.662 193.492,123.328 192.5,123.5 Z"/></g>
<g><path style="opacity:0.071" fill="#b6b6b6" d="M 205.5,124.5 C 202.432,122.849 200.098,123.515 198.5,126.5C 198.155,123.512 199.488,122.179 202.5,122.5C 204.03,122.64 205.03,123.307 205.5,124.5 Z"/></g>
<g><path style="opacity:1" fill="#fafafa" d="M 133.5,123.5 C 133.5,125.167 133.5,126.833 133.5,128.5C 134.952,129.302 136.618,129.802 138.5,130C 136.19,130.497 133.857,130.663 131.5,130.5C 130.99,127.612 131.656,125.279 133.5,123.5 Z"/></g>
<g><path style="opacity:1" fill="#d3d3d3" d="M 119.5,122.5 C 122.777,122.216 125.943,122.549 129,123.5C 129.839,128.435 127.672,130.435 122.5,129.5C 121.85,129.804 121.183,130.137 120.5,130.5C 119.52,127.914 119.187,125.247 119.5,122.5 Z"/></g>
<g><path style="opacity:1" fill="#4b4b4b" d="M 122.5,124.5 C 123.978,124.238 125.311,124.571 126.5,125.5C 125.833,125.833 125.167,126.167 124.5,126.5C 123.287,126.253 122.62,125.586 122.5,124.5 Z"/></g>
<g><path style="opacity:1" fill="#c7e2da" d="M 42.5,95.5 C 41.1667,98.1667 39.8333,100.833 38.5,103.5C 35.0476,111.809 30.8809,119.809 26,127.5C 25.5065,129.134 25.3398,130.801 25.5,132.5C 25.1857,136.193 26.8523,138.527 30.5,139.5C 31.4287,140.689 31.762,142.022 31.5,143.5C 30.735,142.34 29.735,141.34 28.5,140.5C 27.5791,142.756 25.9124,143.756 23.5,143.5C 23.6621,141.473 23.4955,139.473 23,137.5C 19.7754,132.601 18.7754,127.268 20,121.5C 21.2408,123.421 22.7408,123.754 24.5,122.5C 25.6537,118.602 27.3203,114.936 29.5,111.5C 34.0732,107.765 37.2398,103.098 39,97.5C 39.8159,96.1772 40.9826,95.5106 42.5,95.5 Z"/></g>
<g><path style="opacity:0.141" fill="#9aa6a9" d="M 109.5,111.5 C 108.724,119.475 108.39,127.475 108.5,135.5C 107.835,132.351 107.502,129.018 107.5,125.5C 107.3,120.563 107.967,115.896 109.5,111.5 Z"/></g>
<g><path style="opacity:1" fill="#7b1720" d="M 226.5,119.5 C 232.768,124.153 233.101,129.153 227.5,134.5C 228.892,132.443 229.559,130.109 229.5,127.5C 229.417,124.442 228.417,121.775 226.5,119.5 Z"/></g>
<g><path style="opacity:1" fill="#656565" d="M 119.5,122.5 C 119.187,125.247 119.52,127.914 120.5,130.5C 121.183,130.137 121.85,129.804 122.5,129.5C 121.817,131.176 120.483,131.843 118.5,131.5C 118.19,128.287 118.523,125.287 119.5,122.5 Z"/></g>
<g><path style="opacity:1" fill="#dbdbdb" d="M 143.5,130.5 C 142.167,130.5 141.5,129.833 141.5,128.5C 142.022,123.331 144.689,121.664 149.5,123.5C 150.3,126.133 151.8,128.133 154,129.5C 157.312,127.229 157.146,125.062 153.5,123C 155.809,122.244 157.809,122.744 159.5,124.5C 165.108,121.424 166.108,122.09 162.5,126.5C 166.596,131.214 165.763,132.214 160,129.5C 155.589,132.125 151.089,132.125 146.5,129.5C 145.274,129.52 144.274,129.853 143.5,130.5 Z"/></g>
<g><path style="opacity:0.341" fill="#979696" d="M 201.5,124.5 C 202.995,124.415 203.995,125.081 204.5,126.5C 203.167,127.833 201.833,127.833 200.5,126.5C 200.863,125.817 201.196,125.15 201.5,124.5 Z"/></g>
<g><path style="opacity:0.584" fill="#909493" d="M 194.5,124.5 C 194.88,126.698 194.213,128.365 192.5,129.5C 192.5,128.833 192.5,128.167 192.5,127.5C 193.167,126.5 193.833,125.5 194.5,124.5 Z"/></g>
<g><path style="opacity:0.158" fill="#dcdcdc" d="M 176.5,127.5 C 175.167,127.833 175.167,128.167 176.5,128.5C 176.586,129.496 176.252,130.329 175.5,131C 167.35,133.518 164.683,130.851 167.5,123C 170.167,122.333 172.833,122.333 175.5,123C 176.38,124.356 176.714,125.856 176.5,127.5 Z"/></g>
<g><path style="opacity:0.749" fill="#7e7e7e" d="M 169.5,127.5 C 170.978,127.238 172.311,127.571 173.5,128.5C 172.833,128.833 172.167,129.167 171.5,129.5C 170.287,129.253 169.62,128.586 169.5,127.5 Z"/></g>
<g><path style="opacity:1" fill="#969696" d="M 133.5,123.5 C 131.656,125.279 130.99,127.612 131.5,130.5C 133.857,130.663 136.19,130.497 138.5,130C 136.618,129.802 134.952,129.302 133.5,128.5C 136.376,128.792 139.043,128.792 141.5,128.5C 141.5,129.833 142.167,130.5 143.5,130.5C 139.366,131.485 135.032,131.818 130.5,131.5C 130.5,128.5 130.5,125.5 130.5,122.5C 131.791,122.263 132.791,122.596 133.5,123.5 Z"/></g>
<g><path style="opacity:0.316" fill="#abacab" d="M 188.5,123.5 C 189.158,124.398 189.824,125.398 190.5,126.5C 191.176,125.398 191.842,124.398 192.5,123.5C 192.5,124.833 192.5,126.167 192.5,127.5C 187.163,129.464 187.163,130.13 192.5,129.5C 191.448,131.256 189.781,131.923 187.5,131.5C 187.649,130.448 187.483,129.448 187,128.5C 182.494,132.831 179.994,131.831 179.5,125.5C 179.833,125.5 180.167,125.5 180.5,125.5C 180.263,126.791 180.596,127.791 181.5,128.5C 182.5,131.167 183.5,131.167 184.5,128.5C 185.833,127.833 185.833,127.167 184.5,126.5C 184.5,125.167 184.5,123.833 184.5,122.5C 186.099,122.232 187.432,122.566 188.5,123.5 Z M 181.5,128.5 C 182.5,128.5 183.5,128.5 184.5,128.5C 183.5,131.167 182.5,131.167 181.5,128.5 Z M 188.5,123.5 C 187.325,123.281 186.325,123.614 185.5,124.5C 187.738,127.433 188.738,127.099 188.5,123.5 Z"/></g>
<g><path style="opacity:0.31" fill="#a5a6a6" d="M 198.5,126.5 C 197.972,127.847 197.805,129.181 198,130.5C 200.357,128.354 202.857,128.021 205.5,129.5C 202.568,129.284 199.902,129.951 197.5,131.5C 195.438,129.805 195.771,128.139 198.5,126.5 Z"/></g>
<g><path style="opacity:0.718" fill="#7d7c7d" d="M 219.5,123.5 C 220.807,125.223 220.807,127.057 219.5,129C 216.145,129.729 212.812,130.562 209.5,131.5C 207.955,131.489 206.622,131.156 205.5,130.5C 206.833,130.5 207.5,129.833 207.5,128.5C 208.117,128.611 208.617,128.944 209,129.5C 209.497,127.19 209.663,124.857 209.5,122.5C 213.042,122.187 216.375,122.521 219.5,123.5 Z M 219.5,123.5 C 219.768,125.099 219.434,126.432 218.5,127.5C 216.093,128.088 213.76,129.088 211.5,130.5C 211.106,128.47 210.773,126.137 210.5,123.5C 213.5,123.5 216.5,123.5 219.5,123.5 Z"/></g>
<g><path style="opacity:0.208" fill="#c0c0c1" d="M 213.5,124.5 C 213.62,125.586 214.287,126.253 215.5,126.5C 216.713,126.253 217.38,125.586 217.5,124.5C 218.404,125.209 218.737,126.209 218.5,127.5C 216.5,127.5 214.5,127.5 212.5,127.5C 212.263,126.209 212.596,125.209 213.5,124.5 Z"/></g>
<g><path style="opacity:0.459" fill="#4a4c4c" d="M 213.5,124.5 C 214.833,124.5 216.167,124.5 217.5,124.5C 217.38,125.586 216.713,126.253 215.5,126.5C 214.287,126.253 213.62,125.586 213.5,124.5 Z"/></g>
<g><path style="opacity:1" fill="#c5232c" d="M 222.5,116.5 C 223.833,117.5 225.167,118.5 226.5,119.5C 228.417,121.775 229.417,124.442 229.5,127.5C 229.559,130.109 228.892,132.443 227.5,134.5C 226.167,134.5 224.833,134.5 223.5,134.5C 224.627,132.002 225.294,129.336 225.5,126.5C 225.489,124.955 225.156,123.622 224.5,122.5C 223.197,120.858 221.864,119.191 220.5,117.5C 220.842,116.662 221.508,116.328 222.5,116.5 Z"/></g>
<g><path style="opacity:1" fill="#292929" d="M -0.5,119.5 C 1.55817,120.933 3.8915,121.6 6.5,121.5C 7.1392,126.003 7.80587,130.503 8.5,135C 6.29221,135.191 4.29221,135.691 2.5,136.5C 1.02211,135.552 0.0221067,134.219 -0.5,132.5C -0.5,128.167 -0.5,123.833 -0.5,119.5 Z"/></g>
<g><path style="opacity:1" fill="#30a47f" d="M 43.5,102.5 C 43.3718,106.881 43.7051,111.215 44.5,115.5C 49.8333,115.5 55.1667,115.5 60.5,115.5C 61.609,115.557 62.609,115.89 63.5,116.5C 63.5,122.5 63.5,128.5 63.5,134.5C 63.1583,135.338 62.4916,135.672 61.5,135.5C 54.7031,135.648 48.0365,134.815 41.5,133C 38.9544,131.479 38.9544,129.979 41.5,128.5C 43.0481,128.821 43.7148,129.821 43.5,131.5C 49.1869,132.065 54.8536,132.732 60.5,133.5C 62.497,127.881 62.8304,122.215 61.5,116.5C 55.5,116.5 49.5,116.5 43.5,116.5C 43.7251,112.944 42.8918,112.61 41,115.5C 36.7678,112.827 34.2678,114.16 33.5,119.5C 29.1477,123.563 27.6477,128.563 29,134.5C 36.7891,139.453 42.9558,145.786 47.5,153.5C 40.1667,146.5 32.8333,139.5 25.5,132.5C 25.3398,130.801 25.5065,129.134 26,127.5C 30.8809,119.809 35.0476,111.809 38.5,103.5C 39.1174,103.611 39.6174,103.944 40,104.5C 40.8159,103.177 41.9826,102.511 43.5,102.5 Z"/></g>
<g><path style="opacity:1" fill="#10b07e" d="M 41.5,128.5 C 41.1583,127.662 40.4916,127.328 39.5,127.5C 39.2648,126.903 38.7648,126.57 38,126.5C 36.3333,127.5 34.6667,128.5 33,129.5C 32.228,129.355 31.5613,129.022 31,128.5C 32.2735,125.84 33.1068,122.84 33.5,119.5C 34.2678,114.16 36.7678,112.827 41,115.5C 42.8918,112.61 43.7251,112.944 43.5,116.5C 49.5,116.5 55.5,116.5 61.5,116.5C 62.8304,122.215 62.497,127.881 60.5,133.5C 54.8536,132.732 49.1869,132.065 43.5,131.5C 43.7148,129.821 43.0481,128.821 41.5,128.5 Z"/></g>
<g><path style="opacity:1" fill="#c1f1e5" d="M 77.5,115.5 C 77.8235,122.022 77.4902,128.355 76.5,134.5C 72.1667,134.5 67.8333,134.5 63.5,134.5C 63.5,128.5 63.5,122.5 63.5,116.5C 64.1667,118.5 64.8333,120.5 65.5,122.5C 65.9629,125.482 66.2962,128.482 66.5,131.5C 69.5,131.5 72.5,131.5 75.5,131.5C 75.815,127.629 75.4816,123.962 74.5,120.5C 74.5,119.167 74.5,117.833 74.5,116.5C 75.609,116.443 76.609,116.11 77.5,115.5 Z"/></g>
<g><path style="opacity:1" fill="#dfe2e5" d="M 74.5,120.5 C 75.4816,123.962 75.815,127.629 75.5,131.5C 72.5,131.5 69.5,131.5 66.5,131.5C 66.2962,128.482 65.9629,125.482 65.5,122.5C 67.944,119.544 70.944,118.877 74.5,120.5 Z"/></g>
<g><path style="opacity:1" fill="#1db484" d="M 103.5,128.5 C 102.508,128.328 101.842,128.662 101.5,129.5C 97.5341,128.138 94.2008,129.138 91.5,132.5C 87.5997,133.809 83.5997,134.476 79.5,134.5C 79.5,130.833 79.5,127.167 79.5,123.5C 82.5719,123.817 85.5719,123.484 88.5,122.5C 86.1384,122.026 83.805,121.692 81.5,121.5C 81.8333,120.833 82.1667,120.167 82.5,119.5C 85.1062,118.348 87.7728,118.182 90.5,119C 89.6634,120.011 89.33,121.178 89.5,122.5C 94.622,123.641 99.2887,125.641 103.5,128.5 Z"/></g>
<g><path style="opacity:1" fill="#33a480" d="M 77.5,115.5 C 83.8333,115.5 90.1667,115.5 96.5,115.5C 90.69,116.49 84.69,116.823 78.5,116.5C 78.1984,119.059 78.5318,121.393 79.5,123.5C 79.5,127.167 79.5,130.833 79.5,134.5C 83.5997,134.476 87.5997,133.809 91.5,132.5C 94.2008,129.138 97.5341,128.138 101.5,129.5C 100.84,132.649 98.8397,134.149 95.5,134C 89.2041,135.012 82.8708,135.512 76.5,135.5C 76.5,135.167 76.5,134.833 76.5,134.5C 77.4902,128.355 77.8235,122.022 77.5,115.5 Z"/></g>
<g><path style="opacity:1" fill="#2a337d" d="M 240.5,121.5 C 241.117,121.611 241.617,121.944 242,122.5C 243.496,130.13 240.662,135.13 233.5,137.5C 235.086,134.063 236.086,130.396 236.5,126.5C 236.931,123.607 235.931,121.607 233.5,120.5C 233.5,120.167 233.5,119.833 233.5,119.5C 233.369,118.624 233.702,117.957 234.5,117.5C 236.831,118.526 238.831,119.86 240.5,121.5 Z"/></g>
<g><path style="opacity:1" fill="#589786" d="M 63.5,134.5 C 67.8333,134.5 72.1667,134.5 76.5,134.5C 76.5,134.833 76.5,135.167 76.5,135.5C 76.5,135.833 76.5,136.167 76.5,136.5C 71.5,136.5 66.5,136.5 61.5,136.5C 61.5,136.167 61.5,135.833 61.5,135.5C 62.4916,135.672 63.1583,135.338 63.5,134.5 Z"/></g>
<g><path style="opacity:1" fill="#7be9cb" d="M 39.5,127.5 C 40.4916,127.328 41.1583,127.662 41.5,128.5C 38.9544,129.979 38.9544,131.479 41.5,133C 48.0365,134.815 54.7031,135.648 61.5,135.5C 61.5,135.833 61.5,136.167 61.5,136.5C 61.5,137.167 61.5,137.833 61.5,138.5C 52.6875,138.722 44.5208,136.722 37,132.5C 36.2404,130.019 37.0737,128.353 39.5,127.5 Z"/></g>
<g><path style="opacity:1" fill="#5a5d5c" d="M 9.5,120.5 C 9.5,126.167 9.5,131.833 9.5,137.5C 9.66331,139.857 9.49665,142.19 9,144.5C 7.92074,141.937 7.42074,139.271 7.5,136.5C 5.83333,136.5 4.16667,136.5 2.5,136.5C 4.29221,135.691 6.29221,135.191 8.5,135C 7.80587,130.503 7.1392,126.003 6.5,121.5C 6.54651,119.822 6.87984,117.989 7.5,116C 8.00852,114.831 8.84185,113.998 10,113.5C 10.0178,115.797 9.85112,118.131 9.5,120.5 Z"/></g>
<g><path style="opacity:1" fill="#7be9ca" d="M 103.5,128.5 C 104.412,129.738 104.579,131.072 104,132.5C 102.414,133.376 100.914,134.376 99.5,135.5C 92.5394,136.829 85.5394,137.829 78.5,138.5C 77.8333,137.833 77.1667,137.167 76.5,136.5C 76.5,136.167 76.5,135.833 76.5,135.5C 82.8708,135.512 89.2041,135.012 95.5,134C 98.8397,134.149 100.84,132.649 101.5,129.5C 101.842,128.662 102.508,128.328 103.5,128.5 Z"/></g>
<g><path style="opacity:1" fill="#a2dec9" d="M 25.5,132.5 C 32.8333,139.5 40.1667,146.5 47.5,153.5C 47.8333,154.5 48.5,155.167 49.5,155.5C 50.5,156.833 51.5,158.167 52.5,159.5C 51.1266,159.657 49.7932,159.49 48.5,159C 43.9242,154.264 39.5909,149.431 35.5,144.5C 34.3112,143.571 32.9778,143.238 31.5,143.5C 31.762,142.022 31.4287,140.689 30.5,139.5C 26.8523,138.527 25.1857,136.193 25.5,132.5 Z"/></g>
<g><path style="opacity:1" fill="#961f2b" d="M 224.5,122.5 C 225.156,123.622 225.489,124.955 225.5,126.5C 225.294,129.336 224.627,132.002 223.5,134.5C 224.833,134.5 226.167,134.5 227.5,134.5C 225.167,136.5 222.833,138.5 220.5,140.5C 214.309,142.699 207.976,144.365 201.5,145.5C 198.918,145.975 196.918,145.308 195.5,143.5C 206.59,141.871 216.09,137.205 224,129.5C 224.497,127.19 224.663,124.857 224.5,122.5 Z"/></g>
<g><path style="opacity:1" fill="#07ad79" d="M 95.5,151.5 C 95.5,152.167 95.1667,152.5 94.5,152.5C 94.1034,151.475 93.4368,151.308 92.5,152C 90.2807,153.763 88.2807,155.763 86.5,158C 83.7951,158.478 81.7951,159.311 80.5,160.5C 79.8905,154.185 79.5572,147.851 79.5,141.5C 87.12,139.923 94.7867,138.756 102.5,138C 103.022,138.561 103.355,139.228 103.5,140C 101.709,143.457 99.2094,146.291 96,148.5C 95.5172,149.448 95.3505,150.448 95.5,151.5 Z"/></g>
<g><path style="opacity:1" fill="#1e1e46" d="M 240.5,119.5 C 243.012,121.237 244.012,123.737 243.5,127C 243.379,129.786 242.545,132.286 241,134.5C 229.822,143.255 216.989,147.755 202.5,148C 207.828,146.559 213.161,144.892 218.5,143C 219.381,142.292 220.047,141.458 220.5,140.5C 229.34,139.994 234.34,135.327 235.5,126.5C 234.796,124.465 234.129,122.465 233.5,120.5C 235.931,121.607 236.931,123.607 236.5,126.5C 236.086,130.396 235.086,134.063 233.5,137.5C 240.662,135.13 243.496,130.13 242,122.5C 241.617,121.944 241.117,121.611 240.5,121.5C 240.5,120.833 240.5,120.167 240.5,119.5 Z"/></g>
<g><path style="opacity:1" fill="#16a172" d="M 33.5,119.5 C 33.1068,122.84 32.2735,125.84 31,128.5C 31.5613,129.022 32.228,129.355 33,129.5C 34.6667,128.5 36.3333,127.5 38,126.5C 38.7648,126.57 39.2648,126.903 39.5,127.5C 37.0737,128.353 36.2404,130.019 37,132.5C 44.5208,136.722 52.6875,138.722 61.5,138.5C 63.4698,146.769 64.1364,155.435 63.5,164.5C 62.6981,163.048 62.1981,161.382 62,159.5C 60.9335,161.283 59.4335,161.783 57.5,161C 55.6341,157.908 52.9675,156.074 49.5,155.5C 48.5,155.167 47.8333,154.5 47.5,153.5C 42.9558,145.786 36.7891,139.453 29,134.5C 27.6477,128.563 29.1477,123.563 33.5,119.5 Z"/></g>
<g><path style="opacity:1" fill="#44060f" d="M 175.5,145.5 C 170.167,146.167 164.833,146.833 159.5,147.5C 156.022,147.816 152.688,147.316 149.5,146C 158.16,145.5 166.827,145.334 175.5,145.5 Z"/></g>
<g><path style="opacity:1" fill="#838383" d="M -0.5,132.5 C 0.0221067,134.219 1.02211,135.552 2.5,136.5C 4.16667,136.5 5.83333,136.5 7.5,136.5C 7.42074,139.271 7.92074,141.937 9,144.5C 9.49665,142.19 9.66331,139.857 9.5,137.5C 10.4009,141.737 11.4009,146.07 12.5,150.5C 13.3035,153.44 14.6369,156.107 16.5,158.5C 16.5,159.167 16.5,159.833 16.5,160.5C 15.2618,159.588 13.9285,159.421 12.5,160C 12.0257,161.729 11.0257,162.895 9.5,163.5C 9.53268,159.594 8.19935,156.26 5.5,153.5C 6.5,152.833 7.5,152.167 8.5,151.5C 7.16667,150.833 5.83333,150.167 4.5,149.5C 3.92582,146.823 3.25915,144.157 2.5,141.5C 1.53443,143.396 1.2011,145.396 1.5,147.5C 0.833333,145.167 0.166667,142.833 -0.5,140.5C -0.5,137.833 -0.5,135.167 -0.5,132.5 Z"/></g>
<g><path style="opacity:1" fill="#7d212a" d="M 195.5,143.5 C 196.918,145.308 198.918,145.975 201.5,145.5C 198.423,146.856 195.09,147.689 191.5,148C 180.659,148.825 169.992,148.659 159.5,147.5C 164.833,146.833 170.167,146.167 175.5,145.5C 182.239,145.488 188.905,144.821 195.5,143.5 Z"/></g>
<g><path style="opacity:1" fill="#c6c9c8" d="M 31.5,143.5 C 32.9778,143.238 34.3112,143.571 35.5,144.5C 39.5909,149.431 43.9242,154.264 48.5,159C 49.7932,159.49 51.1266,159.657 52.5,159.5C 53.8333,160.167 54.8333,161.167 55.5,162.5C 55.9717,165.815 57.805,168.149 61,169.5C 61.6917,170.437 61.525,171.103 60.5,171.5C 57.6945,169.525 55.3612,167.025 53.5,164C 50.3873,164.053 47.8873,162.886 46,160.5C 43.0469,161.578 39.7135,162.578 36,163.5C 34.5,163 33,162.5 31.5,162C 30.1667,161.333 30.1667,160.667 31.5,160C 29.8659,159.506 28.1992,159.34 26.5,159.5C 26.5,160.833 26.5,162.167 26.5,163.5C 22.0688,165.093 19.7355,163.427 19.5,158.5C 18.5,158.5 17.5,158.5 16.5,158.5C 14.6369,156.107 13.3035,153.44 12.5,150.5C 16.4914,153.611 18.8247,152.611 19.5,147.5C 21.143,147.52 22.4763,146.853 23.5,145.5C 24.6956,145.846 24.6956,146.346 23.5,147C 26.3927,147.501 28.8927,148.667 31,150.5C 30.4782,148.12 30.6448,145.787 31.5,143.5 Z"/></g>
<g><path style="opacity:0.925" fill="#282b2a" d="M 108.5,107.5 C 109.434,108.568 109.768,109.901 109.5,111.5C 107.967,115.896 107.3,120.563 107.5,125.5C 107.502,129.018 107.835,132.351 108.5,135.5C 114.824,170.49 135.49,191.157 170.5,197.5C 170.5,197.833 170.5,198.167 170.5,198.5C 165.527,197.836 160.527,197.503 155.5,197.5C 151.556,196.214 147.722,194.547 144,192.5C 143.601,192.728 143.435,193.062 143.5,193.5C 141.628,192.489 139.628,191.655 137.5,191C 132.684,187.019 128.018,182.852 123.5,178.5C 120.105,181.902 116.438,184.902 112.5,187.5C 112.5,186.167 112.5,184.833 112.5,183.5C 114.753,182.257 116.753,180.59 118.5,178.5C 117.833,177.833 117.167,177.167 116.5,176.5C 117.833,176.167 119.167,175.833 120.5,175.5C 119.237,173.971 118.237,172.305 117.5,170.5C 113.224,160.999 109.558,151.332 106.5,141.5C 105.752,134.191 105.418,126.858 105.5,119.5C 106.291,116.885 106.957,114.218 107.5,111.5C 107.5,110.5 107.5,109.5 107.5,108.5C 108.167,108.5 108.5,108.167 108.5,107.5 Z"/></g>
<g><path style="opacity:0.675" fill="#777777" d="M 117.5,154.5 C 119.048,154.821 119.715,155.821 119.5,157.5C 118.599,156.71 117.932,155.71 117.5,154.5 Z"/></g>
<g><path style="opacity:1" fill="#b6d3c5" d="M 106.5,141.5 C 106.634,143.292 106.301,144.958 105.5,146.5C 100.585,149.488 98.5853,153.655 99.5,159C 96.8333,159.333 94.1667,159.667 91.5,160C 89.8863,162.127 87.8863,163.627 85.5,164.5C 89.8972,160.108 93.8972,155.442 97.5,150.5C 100.167,147.167 103.167,144.167 106.5,141.5 Z"/></g>
<g><path style="opacity:1" fill="#474747" d="M 9.5,163.5 C 8.27935,162.972 7.11268,162.305 6,161.5C 5.53566,162.094 5.36899,162.761 5.5,163.5C 3.25071,158.503 1.91737,153.17 1.5,147.5C 1.2011,145.396 1.53443,143.396 2.5,141.5C 3.25915,144.157 3.92582,146.823 4.5,149.5C 5.83333,150.167 7.16667,150.833 8.5,151.5C 7.5,152.167 6.5,152.833 5.5,153.5C 8.19935,156.26 9.53268,159.594 9.5,163.5 Z"/></g>
<g><path style="opacity:1" fill="#b7b7b7" d="M 16.5,158.5 C 17.5,158.5 18.5,158.5 19.5,158.5C 19.7355,163.427 22.0688,165.093 26.5,163.5C 26.5,162.167 26.5,160.833 26.5,159.5C 28.1992,159.34 29.8659,159.506 31.5,160C 30.1667,160.667 30.1667,161.333 31.5,162C 33,162.5 34.5,163 36,163.5C 39.7135,162.578 43.0469,161.578 46,160.5C 47.8873,162.886 50.3873,164.053 53.5,164C 55.3612,167.025 57.6945,169.525 60.5,171.5C 61.5233,173.846 62.5233,176.179 63.5,178.5C 62.9694,177.205 61.6361,176.538 59.5,176.5C 59.9746,173.677 58.9746,171.677 56.5,170.5C 54.7638,171.425 52.9305,172.092 51,172.5C 46.8298,171.798 42.6632,170.798 38.5,169.5C 39.7855,172.849 42.1188,175.349 45.5,177C 42.4168,180.11 39.7501,179.944 37.5,176.5C 36.3777,177.63 35.0443,178.297 33.5,178.5C 30.8212,176.415 28.1545,174.415 25.5,172.5C 22.4686,168.476 19.4686,164.476 16.5,160.5C 16.5,159.833 16.5,159.167 16.5,158.5 Z"/></g>
<g><path style="opacity:1" fill="#9acdbc" d="M 61.5,136.5 C 66.5,136.5 71.5,136.5 76.5,136.5C 77.1667,137.167 77.8333,137.833 78.5,138.5C 78.2996,147.506 77.9662,156.506 77.5,165.5C 72.8333,165.5 68.1667,165.5 63.5,165.5C 63.5,165.167 63.5,164.833 63.5,164.5C 64.1364,155.435 63.4698,146.769 61.5,138.5C 61.5,137.833 61.5,137.167 61.5,136.5 Z"/></g>
<g><path style="opacity:1" fill="#cbd4d3" d="M 65.5,137.5 C 69.1667,137.5 72.8333,137.5 76.5,137.5C 75.8148,145.816 75.4815,154.149 75.5,162.5C 72.5,162.5 69.5,162.5 66.5,162.5C 66.4003,156.269 65.7337,150.103 64.5,144C 64.5657,141.745 64.8991,139.578 65.5,137.5 Z"/></g>
<g><path style="opacity:1" fill="#b8babb" d="M 105.5,146.5 C 106.637,150.382 106.637,154.216 105.5,158C 108.204,161.939 107.204,164.605 102.5,166C 105.063,167.079 107.729,167.579 110.5,167.5C 110.5,169.167 110.5,170.833 110.5,172.5C 108.214,173.797 105.881,175.13 103.5,176.5C 102.263,176.444 101.263,175.944 100.5,175C 101.255,172.867 102.588,171.2 104.5,170C 103.833,169.833 103.167,169.667 102.5,169.5C 95.213,170.736 87.8797,172.07 80.5,173.5C 82.5215,170.615 84.1882,167.615 85.5,164.5C 87.8863,163.627 89.8863,162.127 91.5,160C 94.1667,159.667 96.8333,159.333 99.5,159C 98.5853,153.655 100.585,149.488 105.5,146.5 Z"/></g>
<g><path style="opacity:0.995" fill="#040404" d="M 19.5,177.5 C 19.2965,179.39 19.9632,180.89 21.5,182C 25.4917,184.992 29.1584,188.326 32.5,192C 33.745,192.791 35.0783,193.291 36.5,193.5C 44.001,197.556 52.001,200.223 60.5,201.5C 68.4905,202.717 76.4905,202.55 84.5,201C 92.6653,198.59 100.665,195.59 108.5,192C 110.07,190.603 111.404,189.103 112.5,187.5C 116.438,184.902 120.105,181.902 123.5,178.5C 128.018,182.852 132.684,187.019 137.5,191C 139.628,191.655 141.628,192.489 143.5,193.5C 158.201,202.551 174.201,205.717 191.5,203C 196.243,202.471 200.909,201.638 205.5,200.5C 218.394,195.553 229.394,187.886 238.5,177.5C 239.107,177.624 239.44,177.957 239.5,178.5C 225.077,209.753 201.744,231.586 169.5,244C 158.951,247.605 148.284,250.105 137.5,251.5C 129.833,251.5 122.167,251.5 114.5,251.5C 61.4664,244.799 25.4664,216.465 6.5,166.5C 7.3864,165.224 8.3864,165.224 9.5,166.5C 11.8635,169.699 14.0302,173.032 16,176.5C 17.0113,177.337 18.1779,177.67 19.5,177.5 Z"/></g>
<g><path style="opacity:1" fill="#bebaac" d="M 106.5,141.5 C 109.558,151.332 113.224,160.999 117.5,170.5C 115.81,170.856 114.81,171.856 114.5,173.5C 113.833,173.833 113.167,174.167 112.5,174.5C 111.5,174.167 110.833,173.5 110.5,172.5C 110.5,170.833 110.5,169.167 110.5,167.5C 107.729,167.579 105.063,167.079 102.5,166C 107.204,164.605 108.204,161.939 105.5,158C 106.637,154.216 106.637,150.382 105.5,146.5C 106.301,144.958 106.634,143.292 106.5,141.5 Z"/></g>
<g><path style="opacity:1" fill="#1d7959" d="M 49.5,155.5 C 52.9675,156.074 55.6341,157.908 57.5,161C 59.4335,161.783 60.9335,161.283 62,159.5C 62.1981,161.382 62.6981,163.048 63.5,164.5C 63.5,164.833 63.5,165.167 63.5,165.5C 64.7175,166.161 66.0508,166.828 67.5,167.5C 66.5114,170.249 67.5114,172.249 70.5,173.5C 71.5195,172.313 72.6861,171.313 74,170.5C 74.6838,169.216 74.5171,168.049 73.5,167C 74.3333,166.833 75.1667,166.667 76,166.5C 77.3756,166.684 78.2089,167.351 78.5,168.5C 76.1877,171.479 73.5211,174.146 70.5,176.5C 65.0626,172.28 60.0626,167.614 55.5,162.5C 54.8333,161.167 53.8333,160.167 52.5,159.5C 51.5,158.167 50.5,156.833 49.5,155.5 Z"/></g>
<g><path style="opacity:1" fill="#262729" d="M 16.5,160.5 C 19.4686,164.476 22.4686,168.476 25.5,172.5C 21.9601,172.377 19.9601,174.043 19.5,177.5C 18.1779,177.67 17.0113,177.337 16,176.5C 14.0302,173.032 11.8635,169.699 9.5,166.5C 8.3864,165.224 7.3864,165.224 6.5,166.5C 5.59603,165.791 5.26269,164.791 5.5,163.5C 5.36899,162.761 5.53566,162.094 6,161.5C 7.11268,162.305 8.27935,162.972 9.5,163.5C 11.0257,162.895 12.0257,161.729 12.5,160C 13.9285,159.421 15.2618,159.588 16.5,160.5 Z"/></g>
<g><path style="opacity:1" fill="#8db6a7" d="M 97.5,150.5 C 93.8972,155.442 89.8972,160.108 85.5,164.5C 84.1882,167.615 82.5215,170.615 80.5,173.5C 76.2258,179.274 70.5591,180.941 63.5,178.5C 62.5233,176.179 61.5233,173.846 60.5,171.5C 61.525,171.103 61.6917,170.437 61,169.5C 57.805,168.149 55.9717,165.815 55.5,162.5C 60.0626,167.614 65.0626,172.28 70.5,176.5C 73.5211,174.146 76.1877,171.479 78.5,168.5C 84.1667,163.5 89.5,158.167 94.5,152.5C 95.1667,152.5 95.5,152.167 95.5,151.5C 96.1667,151.167 96.8333,150.833 97.5,150.5 Z"/></g>
<g><path style="opacity:1" fill="#acadae" d="M 32.5,186.5 C 28.1933,183.853 24.1933,180.853 20.5,177.5C 20.3932,175.621 20.8932,175.288 22,176.5C 23.487,175.747 23.6537,174.914 22.5,174C 23.635,173.251 24.635,173.417 25.5,174.5C 26.8333,176.167 28.1667,177.833 29.5,179.5C 28.4958,181.677 29.1625,182.011 31.5,180.5C 32.2811,181.729 32.7811,183.062 33,184.5C 33.8373,182.993 35.0039,182.493 36.5,183C 35.6159,184.72 34.2825,185.886 32.5,186.5 Z"/></g>
<g><path style="opacity:1" fill="#a7a6a6" d="M 63.5,178.5 C 70.5591,180.941 76.2258,179.274 80.5,173.5C 87.8797,172.07 95.213,170.736 102.5,169.5C 103.167,169.667 103.833,169.833 104.5,170C 102.588,171.2 101.255,172.867 100.5,175C 101.263,175.944 102.263,176.444 103.5,176.5C 105.881,175.13 108.214,173.797 110.5,172.5C 110.833,173.5 111.5,174.167 112.5,174.5C 108.196,178.649 103.53,182.316 98.5,185.5C 94.7474,186.859 91.0808,188.193 87.5,189.5C 80.2214,190.65 72.8881,191.484 65.5,192C 64.6634,193.011 64.33,194.178 64.5,195.5C 63.2502,195.577 62.4169,196.244 62,197.5C 61.7811,196.062 61.2811,194.729 60.5,193.5C 59.8933,193.624 59.56,193.957 59.5,194.5C 58.7063,197.152 58.0396,196.985 57.5,194C 57.7549,192.674 58.4216,191.674 59.5,191C 53.8223,190.083 48.4889,188.25 43.5,185.5C 41.5,186.833 39.8333,188.5 38.5,190.5C 37.4376,189.575 37.4376,188.575 38.5,187.5C 39.1859,186.152 40.1859,184.985 41.5,184C 38.5932,182.391 35.9266,180.558 33.5,178.5C 35.0443,178.297 36.3777,177.63 37.5,176.5C 39.7501,179.944 42.4168,180.11 45.5,177C 42.1188,175.349 39.7855,172.849 38.5,169.5C 42.6632,170.798 46.8298,171.798 51,172.5C 52.9305,172.092 54.7638,171.425 56.5,170.5C 58.9746,171.677 59.9746,173.677 59.5,176.5C 61.6361,176.538 62.9694,177.205 63.5,178.5 Z"/></g>
<g><path style="opacity:1" fill="#626160" d="M 114.5,173.5 C 114.938,173.435 115.272,173.601 115.5,174C 112.79,175.46 112.124,177.46 113.5,180C 112.451,180.492 111.451,180.326 110.5,179.5C 109.749,180.376 109.249,181.376 109,182.5C 108.586,182.043 108.086,181.709 107.5,181.5C 105.377,183.31 103.043,184.643 100.5,185.5C 100.5,186.5 100.5,187.5 100.5,188.5C 99.8333,187.5 99.1667,186.5 98.5,185.5C 103.53,182.316 108.196,178.649 112.5,174.5C 113.167,174.167 113.833,173.833 114.5,173.5 Z"/></g>
<g><path style="opacity:1" fill="#a3a2a0" d="M 117.5,170.5 C 118.237,172.305 119.237,173.971 120.5,175.5C 119.167,175.833 117.833,176.167 116.5,176.5C 117.167,177.167 117.833,177.833 118.5,178.5C 116.753,180.59 114.753,182.257 112.5,183.5C 109.396,186.752 105.73,189.086 101.5,190.5C 101.167,189.833 100.833,189.167 100.5,188.5C 100.5,187.5 100.5,186.5 100.5,185.5C 103.043,184.643 105.377,183.31 107.5,181.5C 108.086,181.709 108.586,182.043 109,182.5C 109.249,181.376 109.749,180.376 110.5,179.5C 111.451,180.326 112.451,180.492 113.5,180C 112.124,177.46 112.79,175.46 115.5,174C 115.272,173.601 114.938,173.435 114.5,173.5C 114.81,171.856 115.81,170.856 117.5,170.5 Z"/></g>
<g><path style="opacity:1" fill="#7f7f7f" d="M 25.5,172.5 C 28.1545,174.415 30.8212,176.415 33.5,178.5C 35.9266,180.558 38.5932,182.391 41.5,184C 40.1859,184.985 39.1859,186.152 38.5,187.5C 38.631,186.761 38.4643,186.094 38,185.5C 36.6036,189.113 34.7702,189.446 32.5,186.5C 34.2825,185.886 35.6159,184.72 36.5,183C 35.0039,182.493 33.8373,182.993 33,184.5C 32.7811,183.062 32.2811,181.729 31.5,180.5C 29.1625,182.011 28.4958,181.677 29.5,179.5C 28.1667,177.833 26.8333,176.167 25.5,174.5C 24.635,173.417 23.635,173.251 22.5,174C 23.6537,174.914 23.487,175.747 22,176.5C 20.8932,175.288 20.3932,175.621 20.5,177.5C 20.1667,177.5 19.8333,177.5 19.5,177.5C 19.9601,174.043 21.9601,172.377 25.5,172.5 Z"/></g>
<g><path style="opacity:1" fill="#111112" d="M 247.5,156.5 C 246.197,164.415 243.531,171.749 239.5,178.5C 239.44,177.957 239.107,177.624 238.5,177.5C 229.394,187.886 218.394,195.553 205.5,200.5C 206.859,198.991 206.359,198.324 204,198.5C 187.605,204.036 171.438,203.703 155.5,197.5C 160.527,197.503 165.527,197.836 170.5,198.5C 176.5,199.833 182.5,199.833 188.5,198.5C 192.924,198.728 196.924,197.728 200.5,195.5C 207.281,194.44 213.281,191.773 218.5,187.5C 221.14,187.046 223.473,185.879 225.5,184C 234.415,175.95 241.748,166.783 247.5,156.5 Z"/></g>
<g><path style="opacity:1" fill="#2f3030" d="M 19.5,177.5 C 19.8333,177.5 20.1667,177.5 20.5,177.5C 24.1933,180.853 28.1933,183.853 32.5,186.5C 34.7702,189.446 36.6036,189.113 38,185.5C 38.4643,186.094 38.631,186.761 38.5,187.5C 37.4376,188.575 37.4376,189.575 38.5,190.5C 39.8333,188.5 41.5,186.833 43.5,185.5C 48.4889,188.25 53.8223,190.083 59.5,191C 58.4216,191.674 57.7549,192.674 57.5,194C 58.0396,196.985 58.7063,197.152 59.5,194.5C 60.4345,195.568 60.7678,196.901 60.5,198.5C 51.7477,197.227 43.4143,194.56 35.5,190.5C 35.1667,190.667 34.8333,190.833 34.5,191C 35.3805,191.708 36.0472,192.542 36.5,193.5C 35.0783,193.291 33.745,192.791 32.5,192C 29.1584,188.326 25.4917,184.992 21.5,182C 19.9632,180.89 19.2965,179.39 19.5,177.5 Z"/></g>
<g><path style="opacity:0.286" fill="#adb4c0" d="M 218.5,187.5 C 213.281,191.773 207.281,194.44 200.5,195.5C 206.432,192.872 212.432,190.205 218.5,187.5 Z"/></g>
<g><path style="opacity:1" fill="#2d2d2d" d="M 98.5,185.5 C 99.1667,186.5 99.8333,187.5 100.5,188.5C 100.833,189.167 101.167,189.833 101.5,190.5C 101.631,191.376 101.298,192.043 100.5,192.5C 95.1037,194.799 89.6037,196.799 84,198.5C 83.5,198.167 83,197.833 82.5,197.5C 83.325,196.614 84.325,196.281 85.5,196.5C 85.822,194.278 85.1554,192.444 83.5,191C 85.0581,190.79 86.3915,190.29 87.5,189.5C 91.0808,188.193 94.7474,186.859 98.5,185.5 Z"/></g>
<g><path style="opacity:1" fill="#848484" d="M 112.5,183.5 C 112.5,184.833 112.5,186.167 112.5,187.5C 111.404,189.103 110.07,190.603 108.5,192C 100.665,195.59 92.6653,198.59 84.5,201C 76.4905,202.55 68.4905,202.717 60.5,201.5C 60.3893,200.883 60.056,200.383 59.5,200C 61.4727,199.505 63.4727,199.338 65.5,199.5C 69.5138,199.666 73.5138,199.499 77.5,199C 75.7818,198.654 74.1151,198.154 72.5,197.5C 71.914,197.709 71.414,198.043 71,198.5C 70.0914,193.27 68.9247,193.27 67.5,198.5C 66.7189,197.271 66.2189,195.938 66,194.5C 65.6174,195.056 65.1174,195.389 64.5,195.5C 64.33,194.178 64.6634,193.011 65.5,192C 72.8881,191.484 80.2214,190.65 87.5,189.5C 86.3915,190.29 85.0581,190.79 83.5,191C 85.1554,192.444 85.822,194.278 85.5,196.5C 84.325,196.281 83.325,196.614 82.5,197.5C 83,197.833 83.5,198.167 84,198.5C 89.6037,196.799 95.1037,194.799 100.5,192.5C 101.298,192.043 101.631,191.376 101.5,190.5C 105.73,189.086 109.396,186.752 112.5,183.5 Z"/></g>
<g><path style="opacity:1" fill="#454545" d="M 65.5,199.5 C 65.1667,198.167 64.8333,196.833 64.5,195.5C 65.1174,195.389 65.6174,195.056 66,194.5C 66.2189,195.938 66.7189,197.271 67.5,198.5C 68.9247,193.27 70.0914,193.27 71,198.5C 71.414,198.043 71.914,197.709 72.5,197.5C 74.1151,198.154 75.7818,198.654 77.5,199C 73.5138,199.499 69.5138,199.666 65.5,199.5 Z"/></g>
<g><path style="opacity:0.094" fill="#9fa7b4" d="M 200.5,195.5 C 196.924,197.728 192.924,198.728 188.5,198.5C 186.167,198.5 183.833,198.5 181.5,198.5C 187.729,197.683 194.062,196.683 200.5,195.5 Z"/></g>
<g><path style="opacity:1" fill="#6f6f70" d="M 59.5,194.5 C 59.56,193.957 59.8933,193.624 60.5,193.5C 61.2811,194.729 61.7811,196.062 62,197.5C 62.4169,196.244 63.2502,195.577 64.5,195.5C 64.8333,196.833 65.1667,198.167 65.5,199.5C 63.4727,199.338 61.4727,199.505 59.5,200C 60.056,200.383 60.3893,200.883 60.5,201.5C 52.001,200.223 44.001,197.556 36.5,193.5C 36.0472,192.542 35.3805,191.708 34.5,191C 34.8333,190.833 35.1667,190.667 35.5,190.5C 43.4143,194.56 51.7477,197.227 60.5,198.5C 60.7678,196.901 60.4345,195.568 59.5,194.5 Z"/></g>
<g><path style="opacity:0.639" fill="#535d6a" d="M 170.5,197.5 C 174.234,197.323 177.901,197.656 181.5,198.5C 183.833,198.5 186.167,198.5 188.5,198.5C 182.5,199.833 176.5,199.833 170.5,198.5C 170.5,198.167 170.5,197.833 170.5,197.5 Z"/></g>
<g><path style="opacity:1" fill="#3b3024" d="M 155.5,197.5 C 171.438,203.703 187.605,204.036 204,198.5C 206.359,198.324 206.859,198.991 205.5,200.5C 200.909,201.638 196.243,202.471 191.5,203C 174.201,205.717 158.201,202.551 143.5,193.5C 143.435,193.062 143.601,192.728 144,192.5C 147.722,194.547 151.556,196.214 155.5,197.5 Z"/></g>
</svg>
