<?xml version="1.0" encoding="UTF-8"?>
<!DOCTYPE svg PUBLIC "-//W3C//DTD SVG 1.1//EN" "http://www.w3.org/Graphics/SVG/1.1/DTD/svg11.dtd">
<svg xmlns="http://www.w3.org/2000/svg" version="1.1" width="220px" height="221px" style="shape-rendering:geometricPrecision; text-rendering:geometricPrecision; image-rendering:optimizeQuality; fill-rule:evenodd; clip-rule:evenodd" xmlns:xlink="http://www.w3.org/1999/xlink">
<g><path style="opacity:1" fill="#010101" d="M -0.5,-0.5 C 72.8333,-0.5 146.167,-0.5 219.5,-0.5C 219.5,73.1667 219.5,146.833 219.5,220.5C 146.167,220.5 72.8333,220.5 -0.5,220.5C -0.5,146.833 -0.5,73.1667 -0.5,-0.5 Z"/></g>
<g><path style="opacity:1" fill="#9f9760" d="M 73.5,0.5 C 80.555,0.0350819 86.8883,1.70175 92.5,5.5C 86.1764,3.33721 79.8431,1.67054 73.5,0.5 Z"/></g>
<g><path style="opacity:1" fill="#968d54" d="M 92.5,5.5 C 96.4135,6.44994 99.0802,8.78327 100.5,12.5C 97.7928,10.1568 95.1261,7.82349 92.5,5.5 Z"/></g>
<g><path style="opacity:1" fill="#957f46" d="M 69.5,1.5 C 70.2389,1.36899 70.9056,1.53566 71.5,2C 62.0641,4.28208 54.7307,9.44874 49.5,17.5C 53.4756,8.86288 60.1423,3.52954 69.5,1.5 Z"/></g>
<g><path style="opacity:1" fill="#90824f" d="M 100.5,12.5 C 101.906,12.9731 102.573,13.9731 102.5,15.5C 101.094,15.0269 100.427,14.0269 100.5,12.5 Z"/></g>
<g><path style="opacity:1" fill="#276ba2" d="M 167.5,29.5 C 164.034,27.9084 160.367,27.2417 156.5,27.5C 156.5,26.5 156.5,25.5 156.5,24.5C 155.5,24.5 154.5,24.5 153.5,24.5C 153.649,23.448 153.483,22.448 153,21.5C 151.414,22.376 149.914,23.376 148.5,24.5C 148.446,23.4699 148.112,22.3033 147.5,21C 144.277,19.8736 141.111,19.7069 138,20.5C 137.517,21.448 137.351,22.448 137.5,23.5C 142.804,24.3791 147.804,26.0457 152.5,28.5C 153.127,29.4168 153.461,30.4168 153.5,31.5C 139.816,24.0762 125.15,19.7429 109.5,18.5C 110.714,16.9309 112.381,16.0976 114.5,16C 123.213,15.2024 131.88,15.5357 140.5,17C 145.054,18.7405 149.721,20.0739 154.5,21C 158.898,23.8572 163.232,26.6905 167.5,29.5 Z"/></g>
<g><path style="opacity:1" fill="#1f72b4" d="M 167.5,29.5 C 175.122,34.1212 181.455,40.1212 186.5,47.5C 184.203,45.8833 181.87,44.2166 179.5,42.5C 178.289,43.2739 178.289,44.1072 179.5,45C 176.293,45.5717 174.626,47.405 174.5,50.5C 168.108,43.4747 161.108,37.1414 153.5,31.5C 153.461,30.4168 153.127,29.4168 152.5,28.5C 147.804,26.0457 142.804,24.3791 137.5,23.5C 137.351,22.448 137.517,21.448 138,20.5C 141.111,19.7069 144.277,19.8736 147.5,21C 148.112,22.3033 148.446,23.4699 148.5,24.5C 149.914,23.376 151.414,22.376 153,21.5C 153.483,22.448 153.649,23.448 153.5,24.5C 154.5,24.5 155.5,24.5 156.5,24.5C 156.5,25.5 156.5,26.5 156.5,27.5C 160.367,27.2417 164.034,27.9084 167.5,29.5 Z"/></g>
<g><path style="opacity:1" fill="#766b43" d="M 102.5,15.5 C 104.837,17.9647 106.337,20.9647 107,24.5C 107.499,28.1516 107.665,31.8183 107.5,35.5C 106.802,28.7089 105.136,22.0423 102.5,15.5 Z"/></g>
<g><path style="opacity:1" fill="#6a562c" d="M 49.5,17.5 C 45.1418,28.9911 46.1418,39.9911 52.5,50.5C 49.0577,47.2882 46.891,43.2882 46,38.5C 45.3333,33.8333 45.3333,29.1667 46,24.5C 46.5218,21.7187 47.6885,19.3854 49.5,17.5 Z"/></g>
<g><path style="opacity:1" fill="#9a2730" d="M 165.5,55.5 C 164.167,55.5 163.5,56.1667 163.5,57.5C 159.773,52.2653 155.44,47.4319 150.5,43C 156.436,45.7454 161.436,49.912 165.5,55.5 Z"/></g>
<g><path style="opacity:1" fill="#4a3e22" d="M 57.5,55.5 C 64.6293,59.8619 72.296,62.1952 80.5,62.5C 71.5378,63.9539 63.8711,61.6206 57.5,55.5 Z"/></g>
<g><path style="opacity:1" fill="#1b1714" d="M 69.5,1.5 C 70.5676,0.565525 71.901,0.232191 73.5,0.5C 79.8431,1.67054 86.1764,3.33721 92.5,5.5C 95.1261,7.82349 97.7928,10.1568 100.5,12.5C 100.427,14.0269 101.094,15.0269 102.5,15.5C 105.136,22.0423 106.802,28.7089 107.5,35.5C 104.828,50.8385 95.8282,59.8385 80.5,62.5C 72.296,62.1952 64.6293,59.8619 57.5,55.5C 54.8333,54.8333 53.1667,53.1667 52.5,50.5C 46.1418,39.9911 45.1418,28.9911 49.5,17.5C 54.7307,9.44874 62.0641,4.28208 71.5,2C 70.9056,1.53566 70.2389,1.36899 69.5,1.5 Z"/></g>
<g><path style="opacity:1" fill="#bba352" d="M 101.5,42.5 C 98.1808,51.3102 91.8475,56.8102 82.5,59C 74.4295,60.6587 67.0962,59.1587 60.5,54.5C 60.8333,53.8333 61.1667,53.1667 61.5,52.5C 64.9007,55.529 68.9007,56.8624 73.5,56.5C 73.8499,53.9592 73.8499,51.6258 73.5,49.5C 74.5,49.5 75.5,49.5 76.5,49.5C 76.5,52.1667 76.5,54.8333 76.5,57.5C 79.3854,57.8064 82.0521,57.4731 84.5,56.5C 87.0163,56.2447 89.3496,55.4114 91.5,54C 95.4451,50.5649 98.7784,46.7315 101.5,42.5 Z"/></g>
<g><path style="opacity:1" fill="#ab7e2e" d="M 79.5,33.5 C 79.8333,33.5 80.1667,33.5 80.5,33.5C 80.3893,34.1174 80.056,34.6174 79.5,35C 80.9771,36.8121 82.3104,38.6455 83.5,40.5C 83.1826,43.5719 83.5159,46.5719 84.5,49.5C 85.48,46.9135 85.8134,44.2469 85.5,41.5C 86.8073,45.3236 89.1406,48.4902 92.5,51C 89.941,53.103 87.2743,54.9363 84.5,56.5C 82.0521,57.4731 79.3854,57.8064 76.5,57.5C 76.5,54.8333 76.5,52.1667 76.5,49.5C 76.6283,46.487 75.6283,43.987 73.5,42C 73.6667,41.5 73.8333,41 74,40.5C 74.5354,42.2705 75.3687,42.6039 76.5,41.5C 76.1373,40.8165 75.8039,40.1499 75.5,39.5C 76.4345,38.4324 76.7678,37.099 76.5,35.5C 77.5,34.8333 78.5,34.1667 79.5,33.5 Z"/></g>
<g><path style="opacity:1" fill="#f5f18f" d="M 66.5,44.5 C 66.3398,46.1992 66.5065,47.8659 67,49.5C 68.2917,50.7911 69.4583,50.7911 70.5,49.5C 71.1667,49.5 71.8333,49.5 72.5,49.5C 72.8333,49.5 73.1667,49.5 73.5,49.5C 73.8499,51.6258 73.8499,53.9592 73.5,56.5C 68.9007,56.8624 64.9007,55.529 61.5,52.5C 63.1807,49.7972 64.8474,47.1305 66.5,44.5 Z"/></g>
<g><path style="opacity:1" fill="#332b1d" d="M 75.5,39.5 C 75.8039,40.1499 76.1373,40.8165 76.5,41.5C 75.3687,42.6039 74.5354,42.2705 74,40.5C 73.8333,41 73.6667,41.5 73.5,42C 75.6283,43.987 76.6283,46.487 76.5,49.5C 75.5,49.5 74.5,49.5 73.5,49.5C 73.1667,49.5 72.8333,49.5 72.5,49.5C 72.4125,46.4017 72.9125,46.0684 74,48.5C 74.1667,48 74.3333,47.5 74.5,47C 72.8891,44.7903 72.2224,42.2903 72.5,39.5C 73.5,39.5 74.5,39.5 75.5,39.5 Z"/></g>
<g><path style="opacity:1" fill="#221b12" d="M 77.5,39.5 C 78.8333,39.5 80.1667,39.5 81.5,39.5C 81.5,42.8333 81.5,46.1667 81.5,49.5C 80.1667,49.5 78.8333,49.5 77.5,49.5C 77.5,46.1667 77.5,42.8333 77.5,39.5 Z"/></g>
<g><path style="opacity:1" fill="#71613b" d="M 78.5,40.5 C 79.7479,41.3339 80.4146,42.6672 80.5,44.5C 80.1667,45.8333 79.8333,47.1667 79.5,48.5C 78.52,45.9135 78.1866,43.2469 78.5,40.5 Z"/></g>
<g><path style="opacity:1" fill="#c6b669" d="M 73.5,33.5 C 74.5,34.1667 75.5,34.8333 76.5,35.5C 76.7678,37.099 76.4345,38.4324 75.5,39.5C 74.5,39.5 73.5,39.5 72.5,39.5C 72.2224,42.2903 72.8891,44.7903 74.5,47C 74.3333,47.5 74.1667,48 74,48.5C 72.9125,46.0684 72.4125,46.4017 72.5,49.5C 71.8333,49.5 71.1667,49.5 70.5,49.5C 70.665,46.1501 70.4983,42.8168 70,39.5C 69.4908,51.4457 68.6575,51.4457 67.5,39.5C 66.5481,41.0453 66.2148,42.712 66.5,44.5C 64.8474,47.1305 63.1807,49.7972 61.5,52.5C 59.1334,51.1292 57.4667,49.1292 56.5,46.5C 62.3893,42.2854 68.056,37.952 73.5,33.5 Z"/></g>
<g><path style="opacity:1" fill="#31271b" d="M 85.5,41.5 C 85.8134,44.2469 85.48,46.9135 84.5,49.5C 83.5159,46.5719 83.1826,43.5719 83.5,40.5C 84.6226,39.2426 85.2893,39.5759 85.5,41.5 Z"/></g>
<g><path style="opacity:1" fill="#383425" d="M 70.5,49.5 C 69.4583,50.7911 68.2917,50.7911 67,49.5C 66.5065,47.8659 66.3398,46.1992 66.5,44.5C 66.2148,42.712 66.5481,41.0453 67.5,39.5C 68.6575,51.4457 69.4908,51.4457 70,39.5C 70.4983,42.8168 70.665,46.1501 70.5,49.5 Z"/></g>
<g><path style="opacity:1" fill="#8e6424" d="M 80.5,33.5 C 86.6637,35.4942 92.997,36.9942 99.5,38C 101.107,39.049 101.773,40.549 101.5,42.5C 98.7784,46.7315 95.4451,50.5649 91.5,54C 89.3496,55.4114 87.0163,56.2447 84.5,56.5C 87.2743,54.9363 89.941,53.103 92.5,51C 89.1406,48.4902 86.8073,45.3236 85.5,41.5C 85.2893,39.5759 84.6226,39.2426 83.5,40.5C 82.3104,38.6455 80.9771,36.8121 79.5,35C 80.056,34.6174 80.3893,34.1174 80.5,33.5 Z"/></g>
<g><path style="opacity:1" fill="#94702e" d="M 58.5,11.5 C 58.5,12.1667 58.5,12.8333 58.5,13.5C 56.7745,15.2279 55.4411,17.2279 54.5,19.5C 52.1257,22.6859 51.1257,26.3526 51.5,30.5C 51.5,31.8333 51.5,33.1667 51.5,34.5C 58.6196,34.8254 65.6196,34.1587 72.5,32.5C 73.1667,32.5 73.5,32.8333 73.5,33.5C 68.056,37.952 62.3893,42.2854 56.5,46.5C 57.4667,49.1292 59.1334,51.1292 61.5,52.5C 61.1667,53.1667 60.8333,53.8333 60.5,54.5C 50.556,46.5039 47.056,36.1706 50,23.5C 51.9198,18.7636 54.7532,14.7636 58.5,11.5 Z"/></g>
<g><path style="opacity:1" fill="#cba74a" d="M 51.5,30.5 C 58.0779,31.4601 64.7446,31.7934 71.5,31.5C 72.1667,31.5 72.5,31.8333 72.5,32.5C 65.6196,34.1587 58.6196,34.8254 51.5,34.5C 51.5,33.1667 51.5,31.8333 51.5,30.5 Z"/></g>
<g><path style="opacity:1" fill="#efd059" d="M 81.5,31.5 C 84.558,29.4436 86.8914,26.7769 88.5,23.5C 87.6917,20.4083 86.6917,17.4083 85.5,14.5C 86.3879,12.727 87.7212,11.3936 89.5,10.5C 99.0861,16.0089 103.086,24.3422 101.5,35.5C 95.4944,34.7771 89.4944,33.9438 83.5,33C 82.5842,32.7216 81.9175,32.2216 81.5,31.5 Z"/></g>
<g><path style="opacity:1" fill="#58ae92" d="M 73.5,14.5 C 77.5,14.5 81.5,14.5 85.5,14.5C 86.6917,17.4083 87.6917,20.4083 88.5,23.5C 86.8914,26.7769 84.558,29.4436 81.5,31.5C 80.5,31.8333 79.8333,32.5 79.5,33.5C 78.5,34.1667 77.5,34.8333 76.5,35.5C 75.5,34.8333 74.5,34.1667 73.5,33.5C 73.5,32.8333 73.1667,32.5 72.5,32.5C 72.5,31.8333 72.1667,31.5 71.5,31.5C 70.8333,30.1667 69.8333,29.1667 68.5,28.5C 67.5423,27.0384 66.3756,25.7051 65,24.5C 65.1312,21.0491 66.2979,17.8824 68.5,15C 70.1341,14.5065 71.8008,14.3398 73.5,14.5 Z"/></g>
<g><path style="opacity:1" fill="#9bcbc0" d="M 82.5,17.5 C 78.774,17.1774 75.1073,17.5108 71.5,18.5C 72.6888,19.4287 74.0222,19.762 75.5,19.5C 75.5,23.5 75.5,27.5 75.5,31.5C 74.5386,29.7354 74.2053,27.7354 74.5,25.5C 72.1727,25.7529 70.1727,25.0863 68.5,23.5C 68.8333,23.1667 69.1667,22.8333 69.5,22.5C 70.8498,23.9501 72.5165,24.6168 74.5,24.5C 74.5,23.1667 74.5,21.8333 74.5,20.5C 73.1667,20.5 71.8333,20.5 70.5,20.5C 70.5,19.1667 70.5,17.8333 70.5,16.5C 74.7016,16.1832 78.7016,16.5166 82.5,17.5 Z"/></g>
<g><path style="opacity:1" fill="#d9ebe7" d="M 82.5,17.5 C 82.5,18.5 82.5,19.5 82.5,20.5C 81.1667,20.5 79.8333,20.5 78.5,20.5C 78.5,21.8333 78.5,23.1667 78.5,24.5C 80.4918,24.6715 82.1585,24.0049 83.5,22.5C 84.7112,23.2739 84.7112,24.1072 83.5,25C 81.8659,25.4935 80.1992,25.6602 78.5,25.5C 78.5,27.5 78.5,29.5 78.5,31.5C 77.5,31.5 76.5,31.5 75.5,31.5C 75.5,27.5 75.5,23.5 75.5,19.5C 74.0222,19.762 72.6888,19.4287 71.5,18.5C 75.1073,17.5108 78.774,17.1774 82.5,17.5 Z"/></g>
<g><path style="opacity:1" fill="#f5dc6b" d="M 54.5,19.5 C 58.4066,22.3246 62.5732,25.6579 67,29.5C 67.3826,28.944 67.8826,28.6107 68.5,28.5C 69.8333,29.1667 70.8333,30.1667 71.5,31.5C 64.7446,31.7934 58.0779,31.4601 51.5,30.5C 51.1257,26.3526 52.1257,22.6859 54.5,19.5 Z"/></g>
<g><path style="opacity:1" fill="#baa04c" d="M 80.5,4.5 C 78.7354,5.46138 76.7354,5.79472 74.5,5.5C 74.5,8.16667 74.5,10.8333 74.5,13.5C 76.8333,13.5 79.1667,13.5 81.5,13.5C 81.317,11.0637 81.9837,8.89699 83.5,7C 82.8333,6.66667 82.1667,6.33333 81.5,6C 81.7284,5.60123 82.0618,5.43456 82.5,5.5C 96.1527,8.99343 103.486,17.8268 104.5,32C 104.782,35.976 103.782,39.476 101.5,42.5C 101.773,40.549 101.107,39.049 99.5,38C 92.997,36.9942 86.6637,35.4942 80.5,33.5C 80.1667,33.5 79.8333,33.5 79.5,33.5C 79.8333,32.5 80.5,31.8333 81.5,31.5C 81.9175,32.2216 82.5842,32.7216 83.5,33C 89.4944,33.9438 95.4944,34.7771 101.5,35.5C 103.086,24.3422 99.0861,16.0089 89.5,10.5C 87.7212,11.3936 86.3879,12.727 85.5,14.5C 81.5,14.5 77.5,14.5 73.5,14.5C 72.6314,12.283 72.298,9.94965 72.5,7.5C 67.116,7.85949 62.4493,9.85949 58.5,13.5C 58.5,12.8333 58.5,12.1667 58.5,11.5C 64.5638,5.59127 71.8971,3.25793 80.5,4.5 Z"/></g>
<g><path style="opacity:1" fill="#f9ef86" d="M 73.5,14.5 C 71.8008,14.3398 70.1341,14.5065 68.5,15C 66.2979,17.8824 65.1312,21.0491 65,24.5C 66.3756,25.7051 67.5423,27.0384 68.5,28.5C 67.8826,28.6107 67.3826,28.944 67,29.5C 62.5732,25.6579 58.4066,22.3246 54.5,19.5C 55.4411,17.2279 56.7745,15.2279 58.5,13.5C 62.4493,9.85949 67.116,7.85949 72.5,7.5C 72.298,9.94965 72.6314,12.283 73.5,14.5 Z"/></g>
<g><path style="opacity:1" fill="#956f2f" d="M 80.5,4.5 C 81.4916,4.32842 82.1583,4.66175 82.5,5.5C 82.0618,5.43456 81.7284,5.60123 81.5,6C 82.1667,6.33333 82.8333,6.66667 83.5,7C 81.9837,8.89699 81.317,11.0637 81.5,13.5C 79.1667,13.5 76.8333,13.5 74.5,13.5C 74.5,10.8333 74.5,8.16667 74.5,5.5C 76.7354,5.79472 78.7354,5.46138 80.5,4.5 Z"/></g>
<g><path style="opacity:1" fill="#2361a9" d="M 186.5,47.5 C 192.342,53.8356 196.675,61.1689 199.5,69.5C 197.241,68.656 196.241,66.9893 196.5,64.5C 194.25,64.1814 192.25,64.6814 190.5,66C 191.61,68.7372 191.777,71.5706 191,74.5C 190.882,71.6287 190.216,68.962 189,66.5C 187.731,67.9047 187.231,69.5714 187.5,71.5C 183.431,64.3684 179.098,57.3684 174.5,50.5C 174.626,47.405 176.293,45.5717 179.5,45C 178.289,44.1072 178.289,43.2739 179.5,42.5C 181.87,44.2166 184.203,45.8833 186.5,47.5 Z"/></g>
<g><path style="opacity:1" fill="#274e9b" d="M 199.5,69.5 C 201.744,74.2331 203.411,79.2331 204.5,84.5C 202.61,84.7035 201.11,84.0368 200,82.5C 198.301,83.4061 196.467,83.7394 194.5,83.5C 194.739,87.8422 195.073,92.1756 195.5,96.5C 193.268,88.1329 190.601,79.7996 187.5,71.5C 187.231,69.5714 187.731,67.9047 189,66.5C 190.216,68.962 190.882,71.6287 191,74.5C 191.777,71.5706 191.61,68.7372 190.5,66C 192.25,64.6814 194.25,64.1814 196.5,64.5C 196.241,66.9893 197.241,68.656 199.5,69.5 Z"/></g>
<g><path style="opacity:1" fill="#cf1f29" d="M 165.5,55.5 C 186.95,81.3137 193.617,110.647 185.5,143.5C 184.883,143.611 184.383,143.944 184,144.5C 183.849,141.881 183.015,139.547 181.5,137.5C 181.167,138.5 180.833,139.5 180.5,140.5C 181.649,143.436 182.149,146.436 182,149.5C 181,147.833 180,146.167 179,144.5C 180.139,137.011 180.639,128.677 180.5,119.5C 182.286,96.6315 176.62,75.9648 163.5,57.5C 163.5,56.1667 164.167,55.5 165.5,55.5 Z"/></g>
<g><path style="opacity:1" fill="#f4f3f4" d="M 26.5,97.5 C 27.4584,97.9528 28.2917,98.6195 29,99.5C 29.6667,106.833 29.6667,114.167 29,121.5C 28.6258,122.416 28.1258,123.25 27.5,124C 24.5184,124.498 21.5184,124.665 18.5,124.5C 18.5,127.5 18.5,130.5 18.5,133.5C 17.1667,133.5 15.8333,133.5 14.5,133.5C 14.5,121.5 14.5,109.5 14.5,97.5C 18.5,97.5 22.5,97.5 26.5,97.5 Z"/></g>
<g><path style="opacity:1" fill="#f8f8f9" d="M 36.5,97.5 C 36.5,106.167 36.5,114.833 36.5,123.5C 39.5,123.5 42.5,123.5 45.5,123.5C 45.5,126.833 45.5,130.167 45.5,133.5C 41.1667,133.5 36.8333,133.5 32.5,133.5C 32.5,121.167 32.5,108.833 32.5,96.5C 34.099,96.2322 35.4324,96.5655 36.5,97.5 Z"/></g>
<g><path style="opacity:1" fill="#ecebec" d="M 66.5,129.5 C 66.5,130.833 66.5,132.167 66.5,133.5C 65.1667,133.5 63.8333,133.5 62.5,133.5C 61.6586,131.621 61.3253,129.621 61.5,127.5C 58.8127,127.336 56.146,127.503 53.5,128C 53.5291,132.109 51.5291,133.943 47.5,133.5C 48.7434,121.04 50.7434,108.706 53.5,96.5C 56.1194,96.2317 58.6194,96.565 61,97.5C 63.1538,108.114 64.9871,118.781 66.5,129.5 Z"/></g>
<g><path style="opacity:1" fill="#ebeaeb" d="M 73.5,133.5 C 71.2188,133.923 69.5521,133.256 68.5,131.5C 69.8566,125.928 71.5233,120.428 73.5,115C 71.7284,109.076 69.7284,103.243 67.5,97.5C 69.4213,96.359 71.4213,96.1923 73.5,97C 74.734,100.2 76.0673,103.367 77.5,106.5C 78.5671,103.466 79.7337,100.466 81,97.5C 82.6995,96.5939 84.5328,96.2606 86.5,96.5C 84.8382,102.488 83.1715,108.488 81.5,114.5C 83.3774,120.795 85.0441,127.129 86.5,133.5C 84.5328,133.739 82.6995,133.406 81,132.5C 79.8333,129.167 78.6667,125.833 77.5,122.5C 75.7687,126.028 74.4354,129.694 73.5,133.5 Z"/></g>
<g><path style="opacity:1" fill="#eeedee" d="M 103.5,102.5 C 103.5,104.833 103.5,107.167 103.5,109.5C 102.167,109.5 100.833,109.5 99.5,109.5C 99.5,108.5 99.5,107.5 99.5,106.5C 97.1667,106.5 94.8333,106.5 92.5,106.5C 92.2627,107.791 92.596,108.791 93.5,109.5C 96.0529,110.255 98.7196,110.922 101.5,111.5C 102.79,112.058 103.623,113.058 104,114.5C 104.851,120.253 104.517,125.92 103,131.5C 102.5,132.667 101.667,133.5 100.5,134C 92.4012,136.719 88.4012,133.885 88.5,125.5C 88.6705,123.285 89.3372,121.285 90.5,119.5C 90,118.5 89.5,117.5 89,116.5C 88.3333,110.833 88.3333,105.167 89,99.5C 89.8333,98.6667 90.6667,97.8333 91.5,97C 94.8333,96.3333 98.1667,96.3333 101.5,97C 103.155,98.4443 103.822,100.278 103.5,102.5 Z"/></g>
<g><path style="opacity:1" fill="#e9e8e8" d="M 106.5,96.5 C 108.144,96.2865 109.644,96.6198 111,97.5C 112.281,105.465 113.281,113.465 114,121.5C 115.436,113.554 116.436,105.554 117,97.5C 118.699,96.5939 120.533,96.2606 122.5,96.5C 123.395,104.962 124.561,113.296 126,121.5C 127,113.5 128,105.5 129,97.5C 130.356,96.6198 131.856,96.2865 133.5,96.5C 131.793,108.782 130.46,121.115 129.5,133.5C 127.167,133.5 124.833,133.5 122.5,133.5C 121.451,126.535 120.617,119.535 120,112.5C 119.212,119.514 118.379,126.514 117.5,133.5C 115.167,133.5 112.833,133.5 110.5,133.5C 109.167,121.169 107.834,108.836 106.5,96.5 Z"/></g>
<g><path style="opacity:1" fill="#ecebeb" d="M 140.5,96.5 C 143.167,96.5 145.833,96.5 148.5,96.5C 150.66,108.808 152.66,121.141 154.5,133.5C 152.833,133.5 151.167,133.5 149.5,133.5C 149.167,131.5 148.833,129.5 148.5,127.5C 145.833,127.5 143.167,127.5 140.5,127.5C 140.167,129.5 139.833,131.5 139.5,133.5C 137.833,133.5 136.167,133.5 134.5,133.5C 136.175,121.118 138.175,108.784 140.5,96.5 Z"/></g>
<g><path style="opacity:1" fill="#efeeef" d="M 169.5,97.5 C 170.79,98.0577 171.623,99.0577 172,100.5C 172.667,107.5 172.667,114.5 172,121.5C 171.535,122.931 170.701,124.097 169.5,125C 166.854,125.497 164.187,125.664 161.5,125.5C 161.5,128.5 161.5,131.5 161.5,134.5C 159.901,134.768 158.568,134.434 157.5,133.5C 157.5,121.5 157.5,109.5 157.5,97.5C 161.5,97.5 165.5,97.5 169.5,97.5 Z"/></g>
<g><path style="opacity:1" fill="#a7a5a6" d="M 169.5,97.5 C 165.5,97.5 161.5,97.5 157.5,97.5C 157.5,109.5 157.5,121.5 157.5,133.5C 156.505,121.345 156.171,109.011 156.5,96.5C 161.032,96.1818 165.366,96.5151 169.5,97.5 Z"/></g>
<g><path style="opacity:1" fill="#2e2d2d" d="M 36.5,97.5 C 37.4927,105.65 37.8261,113.983 37.5,122.5C 40.3854,122.194 43.0521,122.527 45.5,123.5C 42.5,123.5 39.5,123.5 36.5,123.5C 36.5,114.833 36.5,106.167 36.5,97.5 Z"/></g>
<g><path style="opacity:1" fill="#121111" d="M 99.5,109.5 C 97.5,109.5 95.5,109.5 93.5,109.5C 92.596,108.791 92.2627,107.791 92.5,106.5C 94.8333,106.5 97.1667,106.5 99.5,106.5C 99.5,107.5 99.5,108.5 99.5,109.5 Z"/></g>
<g><path style="opacity:1" fill="#0f0e0e" d="M 18.5,107.5 C 20.8333,107.5 23.1667,107.5 25.5,107.5C 25.5,109.833 25.5,112.167 25.5,114.5C 23.1667,114.5 20.8333,114.5 18.5,114.5C 18.5,112.167 18.5,109.833 18.5,107.5 Z"/></g>
<g><path style="opacity:1" fill="#131212" d="M 161.5,107.5 C 163.833,107.5 166.167,107.5 168.5,107.5C 169.833,113.5 167.5,115.833 161.5,114.5C 161.5,112.167 161.5,109.833 161.5,107.5 Z"/></g>
<g><path style="opacity:1" fill="#1e1d1e" d="M 56.5,106.5 C 57.1174,106.611 57.6174,106.944 58,107.5C 58.4983,110.817 58.665,114.15 58.5,117.5C 57.5,117.5 56.5,117.5 55.5,117.5C 55.5524,113.802 55.8857,110.135 56.5,106.5 Z"/></g>
<g><path style="opacity:1" fill="#888687" d="M 26.5,97.5 C 22.5,97.5 18.5,97.5 14.5,97.5C 14.5,109.5 14.5,121.5 14.5,133.5C 13.5048,121.345 13.1714,109.011 13.5,96.5C 18.0323,96.1818 22.3656,96.5151 26.5,97.5 Z"/></g>
<g><path style="opacity:1" fill="#565454" d="M 103.5,102.5 C 104.473,104.948 104.806,107.615 104.5,110.5C 103.209,110.263 102.209,110.596 101.5,111.5C 98.7196,110.922 96.0529,110.255 93.5,109.5C 95.5,109.5 97.5,109.5 99.5,109.5C 100.833,109.5 102.167,109.5 103.5,109.5C 103.5,107.167 103.5,104.833 103.5,102.5 Z"/></g>
<g><path style="opacity:1" fill="#201f1f" d="M 143.5,106.5 C 144.693,106.97 145.36,107.97 145.5,109.5C 146.095,112.14 146.428,114.807 146.5,117.5C 145.167,117.5 143.833,117.5 142.5,117.5C 142.942,113.846 143.276,110.179 143.5,106.5 Z"/></g>
<g><path style="opacity:1" fill="#29378c" d="M 204.5,84.5 C 205.774,86.9925 206.44,89.6592 206.5,92.5C 207.453,103.486 207.619,114.486 207,125.5C 205.604,123.473 203.938,123.14 202,124.5C 201.692,123.692 201.192,123.025 200.5,122.5C 199.833,126.5 199.167,130.5 198.5,134.5C 197.833,126.343 197.167,118.343 196.5,110.5C 196.167,105.833 195.833,101.167 195.5,96.5C 195.073,92.1756 194.739,87.8422 194.5,83.5C 196.467,83.7394 198.301,83.4061 200,82.5C 201.11,84.0368 202.61,84.7035 204.5,84.5 Z"/></g>
<g><path style="opacity:1" fill="#0f0e0e" d="M 92.5,120.5 C 94.8333,120.5 97.1667,120.5 99.5,120.5C 99.5,121.833 99.5,123.167 99.5,124.5C 97.1667,124.5 94.8333,124.5 92.5,124.5C 92.5,123.167 92.5,121.833 92.5,120.5 Z"/></g>
<g><path style="opacity:1" fill="#282b70" d="M 206.5,92.5 C 209.948,112.297 208.781,131.963 203,151.5C 201.315,156.204 199.148,160.538 196.5,164.5C 195.244,164.539 194.244,164.039 193.5,163C 193.94,158.196 193.94,153.029 193.5,147.5C 196.088,135.32 197.088,122.986 196.5,110.5C 197.167,118.343 197.833,126.343 198.5,134.5C 199.167,130.5 199.833,126.5 200.5,122.5C 201.192,123.025 201.692,123.692 202,124.5C 203.938,123.14 205.604,123.473 207,125.5C 207.619,114.486 207.453,103.486 206.5,92.5 Z"/></g>
<g><path style="opacity:1" fill="#524e4f" d="M 66.5,129.5 C 67.1667,130.167 67.8333,130.833 68.5,131.5C 69.5521,133.256 71.2188,133.923 73.5,133.5C 69.8333,134.833 66.1667,134.833 62.5,133.5C 63.8333,133.5 65.1667,133.5 66.5,133.5C 66.5,132.167 66.5,130.833 66.5,129.5 Z"/></g>
<g><path style="opacity:1" fill="#b8202e" d="M 180.5,119.5 C 180.639,128.677 180.139,137.011 179,144.5C 180,146.167 181,147.833 182,149.5C 182.149,146.436 181.649,143.436 180.5,140.5C 180.833,139.5 181.167,138.5 181.5,137.5C 183.015,139.547 183.849,141.881 184,144.5C 184.383,143.944 184.883,143.611 185.5,143.5C 175.002,179.877 151.336,201.877 114.5,209.5C 104.482,209.59 94.4815,209.257 84.5,208.5C 82.5201,206.895 80.1868,205.728 77.5,205C 86.8333,204.667 96.1667,204.333 105.5,204C 108.79,203.275 111.79,202.108 114.5,200.5C 118.708,200.323 122.374,198.99 125.5,196.5C 158.086,181.215 176.419,155.548 180.5,119.5 Z"/></g>
<g><path style="opacity:1" fill="#25205b" d="M 193.5,147.5 C 193.94,153.029 193.94,158.196 193.5,163C 194.244,164.039 195.244,164.539 196.5,164.5C 187.948,184.053 173.948,198.386 154.5,207.5C 152.821,207.715 151.821,207.048 151.5,205.5C 172.83,191.518 186.83,172.184 193.5,147.5 Z"/></g>
<g><path style="opacity:1" fill="#671c24" d="M 125.5,196.5 C 122.374,198.99 118.708,200.323 114.5,200.5C 117.939,198.796 121.605,197.462 125.5,196.5 Z"/></g>
<g><path style="opacity:1" fill="#8b242e" d="M 114.5,200.5 C 111.79,202.108 108.79,203.275 105.5,204C 96.1667,204.333 86.8333,204.667 77.5,205C 80.1868,205.728 82.5201,206.895 84.5,208.5C 79.9172,208.105 75.5838,206.938 71.5,205C 69.3359,204.086 67.3359,202.919 65.5,201.5C 66,201.167 66.5,200.833 67,200.5C 82.7282,204.373 98.5616,204.373 114.5,200.5 Z"/></g>
<g><path style="opacity:1" fill="#7b1c28" d="M 84.5,208.5 C 94.4815,209.257 104.482,209.59 114.5,209.5C 110.514,210.166 106.347,210.499 102,210.5C 95.9171,210.701 90.0837,210.034 84.5,208.5 Z"/></g>
<g><path style="opacity:1" fill="#221a37" d="M 151.5,205.5 C 151.821,207.048 152.821,207.715 154.5,207.5C 150.451,209.021 146.451,210.855 142.5,213C 140.5,213.667 138.5,213.667 136.5,213C 141.212,209.977 146.212,207.477 151.5,205.5 Z"/></g>
</svg>
