<?xml version="1.0" encoding="UTF-8"?>
<!DOCTYPE svg PUBLIC "-//W3C//DTD SVG 1.1//EN" "http://www.w3.org/Graphics/SVG/1.1/DTD/svg11.dtd">
<svg xmlns="http://www.w3.org/2000/svg" version="1.1" width="354px" height="354px" style="shape-rendering:geometricPrecision; text-rendering:geometricPrecision; image-rendering:optimizeQuality; fill-rule:evenodd; clip-rule:evenodd" xmlns:xlink="http://www.w3.org/1999/xlink">
<g><path style="opacity:0.883" fill="#f7faf9" d="M 157.5,-0.5 C 170.167,-0.5 182.833,-0.5 195.5,-0.5C 273.269,11.7662 324.102,55.4329 348,130.5C 350.052,139.598 351.886,148.598 353.5,157.5C 353.5,170.167 353.5,182.833 353.5,195.5C 341.234,273.269 297.567,324.102 222.5,348C 213.402,350.052 204.402,351.886 195.5,353.5C 182.833,353.5 170.167,353.5 157.5,353.5C 79.7312,341.234 28.8978,297.567 5,222.5C 2.94753,213.402 1.11419,204.402 -0.5,195.5C -0.5,182.833 -0.5,170.167 -0.5,157.5C 11.7662,79.7312 55.4329,28.8978 130.5,5C 139.598,2.94753 148.598,1.11419 157.5,-0.5 Z"/></g>
<g><path style="opacity:1" fill="#25a07b" d="M 202.5,5.5 C 274.108,19.2625 321.274,60.9292 344,130.5C 344.494,132.134 344.66,133.801 344.5,135.5C 345.526,142.092 345.526,148.425 344.5,154.5C 345.355,155.293 346.189,154.96 347,153.5C 347.832,162.186 347.665,170.853 346.5,179.5C 345.914,179.291 345.414,178.957 345,178.5C 344.333,181.167 344.333,183.833 345,186.5C 345.667,185.167 346.333,183.833 347,182.5C 347.499,188.157 347.666,193.824 347.5,199.5C 344.16,225.764 335.16,249.764 320.5,271.5C 318.974,270.508 318.307,269.008 318.5,267C 320.109,264.035 321.776,261.035 323.5,258C 321.704,249.25 320.371,240.417 319.5,231.5C 313.629,204.632 298.629,184.632 274.5,171.5C 276.147,168.248 275.48,165.414 272.5,163C 265.246,158.61 257.579,155.277 249.5,153C 240.337,151.739 231.337,150.072 222.5,148C 214.517,147.168 206.517,146.668 198.5,146.5C 198.5,139.167 198.5,131.833 198.5,124.5C 216.341,124.83 234.008,124.497 251.5,123.5C 251.5,111.167 251.5,98.8333 251.5,86.5C 202.167,86.5 152.833,86.5 103.5,86.5C 102.505,98.6554 102.171,110.989 102.5,123.5C 120.5,123.5 138.5,123.5 156.5,123.5C 156.5,131.167 156.5,138.833 156.5,146.5C 151.737,146.226 147.07,146.559 142.5,147.5C 136.902,147.156 131.568,147.822 126.5,149.5C 120.18,149.4 114.18,150.4 108.5,152.5C 100.445,153.928 92.7783,156.428 85.5,160C 83.3911,161.141 81.5578,162.641 80,164.5C 79.3333,166.833 79.3333,169.167 80,171.5C 82.5366,174.372 85.3699,176.872 88.5,179C 100.363,182.803 112.363,185.636 124.5,187.5C 128.995,188.422 133.662,189.089 138.5,189.5C 143.975,190.489 149.642,190.822 155.5,190.5C 155.333,216.502 155.5,242.502 156,268.5C 156.875,270.513 158.209,270.513 160,268.5C 160.424,271.025 161.59,273.025 163.5,274.5C 163.989,275.995 164.655,277.329 165.5,278.5C 171.838,292.845 181.504,304.512 194.5,313.5C 195.031,315.624 196.365,317.124 198.5,318C 201.833,319.333 205.167,320.667 208.5,322C 209.842,324.892 212.175,326.225 215.5,326C 215.833,326.333 216.167,326.667 216.5,327C 213.924,328.383 214.258,329.217 217.5,329.5C 221.018,329.715 221.351,328.881 218.5,327C 221.146,326.503 223.813,326.336 226.5,326.5C 237.161,327.705 247.828,327.538 258.5,326C 259.056,325.617 259.389,325.117 259.5,324.5C 259.5,324.167 259.5,323.833 259.5,323.5C 260.167,323.5 260.833,323.5 261.5,323.5C 263.099,323.232 264.432,323.566 265.5,324.5C 227.319,346.501 186.319,353.501 142.5,345.5C 135.49,342.887 128.156,340.887 120.5,339.5C 88.0008,328.187 61.1675,308.854 40,281.5C 21.6714,256.826 10.5047,229.16 6.5,198.5C 6.37674,187.825 6.0434,177.159 5.5,166.5C 11.7915,95.407 47.4582,45.2404 112.5,16C 120.607,12.8605 128.94,10.3605 137.5,8.5C 140.066,8.34438 142.566,8.67771 145,9.5C 146.722,9.38934 146.888,8.88934 145.5,8C 164.412,5.72119 183.412,4.88786 202.5,5.5 Z"/></g>
<g><path style="opacity:1" fill="#5cb499" d="M 202.5,5.5 C 183.412,4.88786 164.412,5.72119 145.5,8C 146.888,8.88934 146.722,9.38934 145,9.5C 142.566,8.67771 140.066,8.34438 137.5,8.5C 158.883,3.30916 180.55,2.30916 202.5,5.5 Z"/></g>
<g><path style="opacity:1" fill="#fafcfc" d="M 103.5,86.5 C 152.833,86.5 202.167,86.5 251.5,86.5C 251.5,98.8333 251.5,111.167 251.5,123.5C 233.5,123.5 215.5,123.5 197.5,123.5C 197.175,131.352 197.508,139.018 198.5,146.5C 206.517,146.668 214.517,147.168 222.5,148C 231.337,150.072 240.337,151.739 249.5,153C 257.579,155.277 265.246,158.61 272.5,163C 275.48,165.414 276.147,168.248 274.5,171.5C 271.557,171.02 268.89,170.02 266.5,168.5C 265.094,165.586 263.094,163.086 260.5,161C 250.612,156.773 240.279,154.107 229.5,153C 222.201,151.964 214.868,151.464 207.5,151.5C 204.375,150.521 201.042,150.187 197.5,150.5C 197.5,158.5 197.5,166.5 197.5,174.5C 196.035,175.737 194.368,176.737 192.5,177.5C 180.829,177.667 169.162,177.5 157.5,177C 156.516,168.251 156.183,159.418 156.5,150.5C 152.833,150.5 149.167,150.5 145.5,150.5C 141.486,150.334 137.486,150.501 133.5,151C 132.584,151.278 131.918,151.778 131.5,152.5C 119.961,153.542 108.628,155.709 97.5,159C 86.8333,164 86.8333,169 97.5,174C 115.44,179.157 133.773,181.991 152.5,182.5C 163.167,183.167 173.833,183.833 184.5,184.5C 179.563,188.382 175.563,193.048 172.5,198.5C 168.142,203.879 164.808,209.879 162.5,216.5C 161.076,218.515 160.41,220.848 160.5,223.5C 159.097,226.909 158.43,230.575 158.5,234.5C 157.833,219.833 157.167,205.167 156.5,190.5C 150.69,189.51 144.69,189.177 138.5,189.5C 137.737,188.732 136.737,188.232 135.5,188C 131.848,187.501 128.182,187.335 124.5,187.5C 112.363,185.636 100.363,182.803 88.5,179C 85.3699,176.872 82.5366,174.372 80,171.5C 79.3333,169.167 79.3333,166.833 80,164.5C 81.5578,162.641 83.3911,161.141 85.5,160C 92.7783,156.428 100.445,153.928 108.5,152.5C 114.69,151.857 120.69,150.857 126.5,149.5C 132.051,149.473 137.384,148.806 142.5,147.5C 147.07,146.559 151.737,146.226 156.5,146.5C 156.5,138.833 156.5,131.167 156.5,123.5C 139.008,122.503 121.341,122.17 103.5,122.5C 103.5,110.5 103.5,98.5 103.5,86.5 Z"/></g>
<g><path style="opacity:1" fill="#c7e2da" d="M 103.5,86.5 C 103.5,98.5 103.5,110.5 103.5,122.5C 121.341,122.17 139.008,122.503 156.5,123.5C 138.5,123.5 120.5,123.5 102.5,123.5C 102.171,110.989 102.505,98.6554 103.5,86.5 Z"/></g>
<g><path style="opacity:1" fill="#52ae93" d="M 251.5,123.5 C 234.008,124.497 216.341,124.83 198.5,124.5C 198.5,131.833 198.5,139.167 198.5,146.5C 197.508,139.018 197.175,131.352 197.5,123.5C 215.5,123.5 233.5,123.5 251.5,123.5 Z"/></g>
<g><path style="opacity:1" fill="#b6d6cd" d="M 142.5,147.5 C 137.384,148.806 132.051,149.473 126.5,149.5C 131.568,147.822 136.902,147.156 142.5,147.5 Z"/></g>
<g><path style="opacity:1" fill="#b5d4cb" d="M 145.5,150.5 C 141.005,151.422 136.338,152.089 131.5,152.5C 131.918,151.778 132.584,151.278 133.5,151C 137.486,150.501 141.486,150.334 145.5,150.5 Z"/></g>
<g><path style="opacity:1" fill="#a5d1c4" d="M 126.5,149.5 C 120.69,150.857 114.69,151.857 108.5,152.5C 114.18,150.4 120.18,149.4 126.5,149.5 Z"/></g>
<g><path style="opacity:1" fill="#28a17c" d="M 145.5,150.5 C 149.167,150.5 152.833,150.5 156.5,150.5C 156.183,159.418 156.516,168.251 157.5,177C 169.162,177.5 180.829,177.667 192.5,177.5C 190.393,179.727 188.06,181.727 185.5,183.5C 174.679,182.505 163.679,182.172 152.5,182.5C 133.773,181.991 115.44,179.157 97.5,174C 86.8333,169 86.8333,164 97.5,159C 108.628,155.709 119.961,153.542 131.5,152.5C 136.338,152.089 141.005,151.422 145.5,150.5 Z"/></g>
<g><path style="opacity:1" fill="#63b39e" d="M 207.5,151.5 C 204.5,151.5 201.5,151.5 198.5,151.5C 198.5,158.833 198.5,166.167 198.5,173.5C 198.5,174.167 198.167,174.5 197.5,174.5C 197.5,166.5 197.5,158.5 197.5,150.5C 201.042,150.187 204.375,150.521 207.5,151.5 Z"/></g>
<g><path style="opacity:1" fill="#27a07c" d="M 207.5,151.5 C 214.868,151.464 222.201,151.964 229.5,153C 240.279,154.107 250.612,156.773 260.5,161C 263.094,163.086 265.094,165.586 266.5,168.5C 264.167,167.833 261.833,167.167 259.5,166.5C 257.095,165.232 254.428,164.565 251.5,164.5C 241.156,163.14 230.823,163.307 220.5,165C 213.182,167.938 205.849,170.771 198.5,173.5C 198.5,166.167 198.5,158.833 198.5,151.5C 201.5,151.5 204.5,151.5 207.5,151.5 Z"/></g>
<g><path style="opacity:1" fill="#131b1e" d="M 251.5,164.5 C 253.838,166.04 256.505,166.706 259.5,166.5C 261.833,167.167 264.167,167.833 266.5,168.5C 268.89,170.02 271.557,171.02 274.5,171.5C 298.629,184.632 313.629,204.632 319.5,231.5C 320.746,245.92 319.079,259.92 314.5,273.5C 313.833,273.5 313.5,273.833 313.5,274.5C 312.903,274.265 312.57,273.765 312.5,273C 313.871,270.681 314.538,268.181 314.5,265.5C 316.302,255.279 316.968,244.946 316.5,234.5C 316.706,231.505 316.04,228.838 314.5,226.5C 311.85,212.687 305.517,200.853 295.5,191C 283.912,180.376 270.579,173.209 255.5,169.5C 254.737,168.732 253.737,168.232 252.5,168C 243.167,167.333 233.833,167.333 224.5,168C 222.942,168.21 221.609,168.71 220.5,169.5C 200.85,173.82 185.183,184.154 173.5,200.5C 172.662,200.158 172.328,199.492 172.5,198.5C 175.563,193.048 179.563,188.382 184.5,184.5C 185.167,184.5 185.5,184.167 185.5,183.5C 188.06,181.727 190.393,179.727 192.5,177.5C 194.368,176.737 196.035,175.737 197.5,174.5C 198.167,174.5 198.5,174.167 198.5,173.5C 205.849,170.771 213.182,167.938 220.5,165C 230.823,163.307 241.156,163.14 251.5,164.5 Z"/></g>
<g><path style="opacity:1" fill="#104432" d="M 251.5,164.5 C 254.428,164.565 257.095,165.232 259.5,166.5C 256.505,166.706 253.838,166.04 251.5,164.5 Z"/></g>
<g><path style="opacity:1" fill="#9dacbd" d="M 255.5,169.5 C 243.841,168.257 232.174,168.257 220.5,169.5C 221.609,168.71 222.942,168.21 224.5,168C 233.833,167.333 243.167,167.333 252.5,168C 253.737,168.232 254.737,168.732 255.5,169.5 Z"/></g>
<g><path style="opacity:1" fill="#e7e9ec" d="M 255.5,169.5 C 270.579,173.209 283.912,180.376 295.5,191C 305.517,200.853 311.85,212.687 314.5,226.5C 314.565,229.428 315.232,232.095 316.5,234.5C 316.968,244.946 316.302,255.279 314.5,265.5C 309.316,280.017 300.982,292.517 289.5,303C 285.284,306.056 280.951,308.889 276.5,311.5C 274.973,311.427 273.973,312.094 273.5,313.5C 266.939,316.942 259.939,318.942 252.5,319.5C 244.195,320.332 235.862,320.665 227.5,320.5C 224.054,319.313 220.387,318.646 216.5,318.5C 194.382,311.713 178.049,298.046 167.5,277.5C 166.342,274.011 165.009,270.678 163.5,267.5C 163.13,262.578 162.13,257.911 160.5,253.5C 157.886,234.22 162.22,216.553 173.5,200.5C 185.183,184.154 200.85,173.82 220.5,169.5C 232.174,168.257 243.841,168.257 255.5,169.5 Z"/></g>
<g><path style="opacity:1" fill="#515151" d="M 243.5,174.5 C 234.699,174.461 226.032,175.461 217.5,177.5C 217.611,176.883 217.944,176.383 218.5,176C 226.905,173.773 235.238,173.273 243.5,174.5 Z"/></g>
<g><path style="opacity:1" fill="#030303" d="M 243.5,174.5 C 245.5,174.5 247.5,174.5 249.5,174.5C 251.838,176.04 254.505,176.706 257.5,176.5C 257.833,176.5 258.167,176.5 258.5,176.5C 260.936,177.871 263.603,178.871 266.5,179.5C 294.92,191.17 310.254,212.336 312.5,243C 311.139,275.829 295.472,298.662 265.5,311.5C 260.562,312.231 255.895,313.565 251.5,315.5C 248.833,315.5 246.167,315.5 243.5,315.5C 236.82,315.388 230.153,315.054 223.5,314.5C 223.167,314.5 222.833,314.5 222.5,314.5C 220.485,313.076 218.152,312.41 215.5,312.5C 178.645,298.149 162.145,271.149 166,231.5C 172.136,206.692 186.969,189.192 210.5,179C 212.813,178.338 215.146,177.838 217.5,177.5C 226.032,175.461 234.699,174.461 243.5,174.5 Z"/></g>
<g><path style="opacity:1" fill="#707070" d="M 249.5,174.5 C 252.428,174.565 255.095,175.232 257.5,176.5C 254.505,176.706 251.838,176.04 249.5,174.5 Z"/></g>
<g><path style="opacity:1" fill="#969696" d="M 258.5,176.5 C 261.716,176.345 264.383,177.345 266.5,179.5C 263.603,178.871 260.936,177.871 258.5,176.5 Z"/></g>
<g><path style="opacity:1" fill="#40a486" d="M 344.5,135.5 C 349.8,156.64 350.8,177.973 347.5,199.5C 347.666,193.824 347.499,188.157 347,182.5C 346.333,183.833 345.667,185.167 345,186.5C 344.333,183.833 344.333,181.167 345,178.5C 345.414,178.957 345.914,179.291 346.5,179.5C 347.665,170.853 347.832,162.186 347,153.5C 346.189,154.96 345.355,155.293 344.5,154.5C 345.526,148.425 345.526,142.092 344.5,135.5 Z"/></g>
<g><path style="opacity:1" fill="#62b098" d="M 5.5,166.5 C 6.0434,177.159 6.37674,187.825 6.5,198.5C 4.56805,187.867 4.23472,177.2 5.5,166.5 Z"/></g>
<g><path style="opacity:1" fill="#75baa5" d="M 152.5,182.5 C 163.679,182.172 174.679,182.505 185.5,183.5C 185.5,184.167 185.167,184.5 184.5,184.5C 173.833,183.833 163.167,183.167 152.5,182.5 Z"/></g>
<g><path style="opacity:1" fill="#a6cfc2" d="M 124.5,187.5 C 128.182,187.335 131.848,187.501 135.5,188C 136.737,188.232 137.737,188.732 138.5,189.5C 133.662,189.089 128.995,188.422 124.5,187.5 Z"/></g>
<g><path style="opacity:1" fill="#ae1a25" d="M 209.5,223.5 C 210.151,224.091 210.818,224.757 211.5,225.5C 214.109,224.77 216.776,224.27 219.5,224C 220.991,221.978 220.658,220.312 218.5,219C 218.833,218.667 219.167,218.333 219.5,218C 215.833,217.063 212.499,217.563 209.5,219.5C 209.36,217.876 210.027,216.71 211.5,216C 215.518,215.148 219.351,215.648 223,217.5C 224.587,218.337 225.42,219.67 225.5,221.5C 224.954,223.135 224.62,224.801 224.5,226.5C 219.86,227.397 215.194,227.564 210.5,227C 209.663,225.989 209.33,224.822 209.5,223.5 Z"/></g>
<g><path style="opacity:1" fill="#767676" d="M 162.5,216.5 C 162.59,219.152 161.924,221.485 160.5,223.5C 160.41,220.848 161.076,218.515 162.5,216.5 Z"/></g>
<g><path style="opacity:1" fill="#d21c26" d="M 209.5,223.5 C 208.314,222.295 208.314,220.961 209.5,219.5C 212.499,217.563 215.833,217.063 219.5,218C 219.167,218.333 218.833,218.667 218.5,219C 220.658,220.312 220.991,221.978 219.5,224C 216.776,224.27 214.109,224.77 211.5,225.5C 210.818,224.757 210.151,224.091 209.5,223.5 Z"/></g>
<g><path style="opacity:1" fill="#081e31" d="M 256.5,219.5 C 251.156,219.334 245.823,219.501 240.5,220C 242.708,220.191 244.708,220.691 246.5,221.5C 241.489,221.666 236.489,221.499 231.5,221C 231.833,220.667 232.167,220.333 232.5,220C 240.621,218.331 248.621,218.164 256.5,219.5 Z"/></g>
<g><path style="opacity:1" fill="#15598d" d="M 256.5,219.5 C 259.85,219.335 263.183,219.502 266.5,220C 269.166,221.061 271.833,221.894 274.5,222.5C 273.448,222.351 272.448,222.517 271.5,223C 273.618,224.082 275.618,225.249 277.5,226.5C 267.411,223.439 257.078,221.773 246.5,221.5C 244.708,220.691 242.708,220.191 240.5,220C 245.823,219.501 251.156,219.334 256.5,219.5 Z"/></g>
<g><path style="opacity:1" fill="#4b0a0d" d="M 275.5,228.5 C 274.508,228.328 273.842,228.662 273.5,229.5C 270.704,228.624 268.037,227.457 265.5,226C 269.162,225.725 272.496,226.558 275.5,228.5 Z"/></g>
<g><path style="opacity:1" fill="#1d61a5" d="M 274.5,222.5 C 285.156,222.999 294.156,226.999 301.5,234.5C 298.833,234.5 296.167,234.5 293.5,234.5C 290.477,232.322 287.144,230.655 283.5,229.5C 281.574,228.514 279.574,227.514 277.5,226.5C 275.618,225.249 273.618,224.082 271.5,223C 272.448,222.517 273.448,222.351 274.5,222.5 Z"/></g>
<g><path style="opacity:1" fill="#18070b" d="M 278.5,229.5 C 280.167,229.5 281.833,229.5 283.5,229.5C 287.144,230.655 290.477,232.322 293.5,234.5C 294.833,236.5 296.167,238.5 297.5,240.5C 298.571,247.191 296.238,252.358 290.5,256C 282.291,260.514 273.625,263.847 264.5,266C 265.448,266.483 266.448,266.649 267.5,266.5C 262.434,269.059 257.267,269.059 252,266.5C 240.693,267.811 229.526,267.811 218.5,266.5C 232.571,266.928 246.571,266.261 260.5,264.5C 265.466,263.783 270.133,262.45 274.5,260.5C 281.776,258.611 287.61,254.611 292,248.5C 293.672,242.342 291.838,237.509 286.5,234C 283.646,232.603 280.98,231.103 278.5,229.5 Z"/></g>
<g><path style="opacity:1" fill="#808d9d" d="M 314.5,226.5 C 316.04,228.838 316.706,231.505 316.5,234.5C 315.232,232.095 314.565,229.428 314.5,226.5 Z"/></g>
<g><path style="opacity:1" fill="#43a086" d="M 138.5,189.5 C 144.69,189.177 150.69,189.51 156.5,190.5C 156.169,216.005 156.502,241.339 157.5,266.5C 158.5,266.5 159.5,266.5 160.5,266.5C 161.892,269.007 162.892,271.673 163.5,274.5C 161.59,273.025 160.424,271.025 160,268.5C 158.209,270.513 156.875,270.513 156,268.5C 155.5,242.502 155.333,216.502 155.5,190.5C 149.642,190.822 143.975,190.489 138.5,189.5 Z"/></g>
<g><path style="opacity:1" fill="#dbdbdc" d="M 172.5,239.5 C 175.85,239.335 179.183,239.502 182.5,240C 183.833,242 183.833,244 182.5,246C 179.025,246.447 175.691,247.28 172.5,248.5C 172.5,245.5 172.5,242.5 172.5,239.5 Z"/></g>
<g><path style="opacity:1" fill="#efeff0" d="M 188.5,245.5 C 190.531,245.972 192.198,246.972 193.5,248.5C 190.833,248.5 188.167,248.5 185.5,248.5C 185.183,245.428 185.516,242.428 186.5,239.5C 187.169,241.631 187.835,243.631 188.5,245.5 Z"/></g>
<g><path style="opacity:1" fill="#d7d7d8" d="M 258.5,239.5 C 260.857,239.337 263.19,239.503 265.5,240C 266.929,242.69 267.929,245.523 268.5,248.5C 264.167,247.167 259.833,247.167 255.5,248.5C 256.213,245.406 257.213,242.406 258.5,239.5 Z"/></g>
<g><path style="opacity:1" fill="#d7d7d8" d="M 270.5,239.5 C 274.167,239.5 277.833,239.5 281.5,239.5C 281.756,241.792 281.423,243.959 280.5,246C 277.11,246.744 273.777,247.577 270.5,248.5C 270.5,245.5 270.5,242.5 270.5,239.5 Z"/></g>
<g><path style="opacity:1" fill="#28388b" d="M 293.5,234.5 C 296.167,234.5 298.833,234.5 301.5,234.5C 306.307,237.897 307.807,242.564 306,248.5C 305.292,249.381 304.458,250.047 303.5,250.5C 301.958,249.699 300.292,249.366 298.5,249.5C 298.81,246.287 298.477,243.287 297.5,240.5C 296.167,238.5 294.833,236.5 293.5,234.5 Z"/></g>
<g><path style="opacity:1" fill="#7d7d7d" d="M 188.5,245.5 C 187.835,243.631 187.169,241.631 186.5,239.5C 185.516,242.428 185.183,245.428 185.5,248.5C 184.521,245.375 184.187,242.042 184.5,238.5C 185.833,238.5 187.167,238.5 188.5,238.5C 188.5,240.833 188.5,243.167 188.5,245.5 Z"/></g>
<g><path style="opacity:1" fill="#262627" d="M 218.5,239.5 C 220.347,238.427 222.347,238.427 224.5,239.5C 223.167,242.5 223.167,245.5 224.5,248.5C 223.833,248.5 223.167,248.5 222.5,248.5C 219.154,246.152 218.821,243.486 221.5,240.5C 220.675,239.614 219.675,239.281 218.5,239.5 Z"/></g>
<g><path style="opacity:1" fill="#444446" d="M 175.5,241.5 C 177.288,241.215 178.955,241.548 180.5,242.5C 179.667,242.833 178.833,243.167 178,243.5C 176.624,243.316 175.791,242.649 175.5,241.5 Z"/></g>
<g><path style="opacity:1" fill="#ddddde" d="M 218.5,239.5 C 219.675,239.281 220.675,239.614 221.5,240.5C 218.821,243.486 219.154,246.152 222.5,248.5C 220.708,248.634 219.042,248.301 217.5,247.5C 216.947,245.448 215.947,245.115 214.5,246.5C 214.389,247.117 214.056,247.617 213.5,248C 209.432,248.846 205.599,248.346 202,246.5C 200.744,246.648 199.577,246.982 198.5,247.5C 196.952,247.179 196.285,246.179 196.5,244.5C 197.969,239.975 200.969,238.642 205.5,240.5C 206.3,243.133 207.8,245.133 210,246.5C 213.23,244.398 213.063,242.232 209.5,240C 212.025,239.104 214.192,239.604 216,241.5C 216.708,240.619 217.542,239.953 218.5,239.5 Z"/></g>
<g><path style="opacity:1" fill="#757578" d="M 261.5,241.5 C 263.465,241.948 263.798,242.948 262.5,244.5C 261.614,243.675 261.281,242.675 261.5,241.5 Z"/></g>
<g><path style="opacity:1" fill="#323234" d="M 274.5,241.5 C 275.978,241.238 277.311,241.571 278.5,242.5C 277.833,242.833 277.167,243.167 276.5,243.5C 275.287,243.253 274.62,242.586 274.5,241.5 Z"/></g>
<g><path style="opacity:1" fill="#e0e0e1" d="M 247.5,240.5 C 247.5,241.833 247.5,243.167 247.5,244.5C 250.91,244.616 252.244,242.95 251.5,239.5C 252.675,239.281 253.675,239.614 254.5,240.5C 253.305,242.751 252.305,245.085 251.5,247.5C 249.955,248.452 248.288,248.785 246.5,248.5C 245.5,243.167 244.5,243.167 243.5,248.5C 241.712,248.785 240.045,248.452 238.5,247.5C 237.27,245.067 236.27,242.567 235.5,240C 238.838,238.794 240.671,239.96 241,243.5C 242.188,242.437 242.688,241.103 242.5,239.5C 244.415,239.216 246.081,239.549 247.5,240.5 Z"/></g>
<g><path style="opacity:1" fill="#979798" d="M 251.5,239.5 C 252.244,242.95 250.91,244.616 247.5,244.5C 247.5,243.167 247.5,241.833 247.5,240.5C 248.268,241.263 248.768,242.263 249,243.5C 249.934,242.142 250.768,240.808 251.5,239.5 Z"/></g>
<g><path style="opacity:1" fill="#838285" d="M 214.5,246.5 C 215.947,245.115 216.947,245.448 217.5,247.5C 216.609,246.89 215.609,246.557 214.5,246.5 Z"/></g>
<g><path style="opacity:1" fill="#e1e1e2" d="M 224.5,239.5 C 227.518,239.335 230.518,239.502 233.5,240C 234.833,242.667 234.833,245.333 233.5,248C 230.518,248.498 227.518,248.665 224.5,248.5C 223.167,245.5 223.167,242.5 224.5,239.5 Z"/></g>
<g><path style="opacity:1" fill="#888789" d="M 226.5,244.5 C 228.288,244.215 229.955,244.548 231.5,245.5C 230.667,245.833 229.833,246.167 229,246.5C 227.624,246.316 226.791,245.649 226.5,244.5 Z"/></g>
<g><path style="opacity:1" fill="#8b8a8c" d="M 196.5,244.5 C 196.285,246.179 196.952,247.179 198.5,247.5C 197.081,248.451 195.415,248.784 193.5,248.5C 192.198,246.972 190.531,245.972 188.5,245.5C 190.792,245.244 192.959,245.577 195,246.5C 195.278,245.584 195.778,244.918 196.5,244.5 Z"/></g>
<g><path style="opacity:1" fill="#be1c28" d="M 273.5,229.5 C 273.842,228.662 274.508,228.328 275.5,228.5C 276.609,228.557 277.609,228.89 278.5,229.5C 280.98,231.103 283.646,232.603 286.5,234C 291.838,237.509 293.672,242.342 292,248.5C 287.61,254.611 281.776,258.611 274.5,260.5C 271.531,261.329 268.531,261.495 265.5,261C 267.32,260.8 268.653,259.966 269.5,258.5C 273.566,256.631 277.566,254.464 281.5,252C 288.451,245.278 288.118,238.945 280.5,233C 278.14,231.82 275.807,230.653 273.5,229.5 Z"/></g>
<g><path style="opacity:1" fill="#96beb4" d="M 156.5,190.5 C 157.167,205.167 157.833,219.833 158.5,234.5C 157.253,241.48 157.253,248.48 158.5,255.5C 157.518,258.962 157.185,262.629 157.5,266.5C 156.502,241.339 156.169,216.005 156.5,190.5 Z"/></g>
<g><path style="opacity:1" fill="#22205a" d="M 297.5,240.5 C 298.477,243.287 298.81,246.287 298.5,249.5C 300.292,249.366 301.958,249.699 303.5,250.5C 302.972,251.721 302.305,252.887 301.5,254C 291.355,261.232 280.022,265.399 267.5,266.5C 266.448,266.649 265.448,266.483 264.5,266C 273.625,263.847 282.291,260.514 290.5,256C 296.238,252.358 298.571,247.191 297.5,240.5 Z"/></g>
<g><path style="opacity:1" fill="#2a3138" d="M 172.5,198.5 C 172.328,199.492 172.662,200.158 173.5,200.5C 162.22,216.553 157.886,234.22 160.5,253.5C 160.656,258.471 161.656,263.138 163.5,267.5C 165.009,270.678 166.342,274.011 167.5,277.5C 166.075,275.969 165.409,276.302 165.5,278.5C 164.655,277.329 163.989,275.995 163.5,274.5C 162.892,271.673 161.892,269.007 160.5,266.5C 159.083,263.002 158.417,259.335 158.5,255.5C 157.253,248.48 157.253,241.48 158.5,234.5C 158.43,230.575 159.097,226.909 160.5,223.5C 161.924,221.485 162.59,219.152 162.5,216.5C 164.808,209.879 168.142,203.879 172.5,198.5 Z"/></g>
<g><path style="opacity:1" fill="#eaefee" d="M 158.5,255.5 C 158.417,259.335 159.083,263.002 160.5,266.5C 159.5,266.5 158.5,266.5 157.5,266.5C 157.185,262.629 157.518,258.962 158.5,255.5 Z"/></g>
<g><path style="opacity:1" fill="#2e997f" d="M 319.5,231.5 C 320.371,240.417 321.704,249.25 323.5,258C 321.776,261.035 320.109,264.035 318.5,267C 318.307,269.008 318.974,270.508 320.5,271.5C 319.241,275.025 317.241,278.025 314.5,280.5C 313.897,278.374 313.897,276.041 314.5,273.5C 319.079,259.92 320.746,245.92 319.5,231.5 Z"/></g>
<g><path style="opacity:1" fill="#a4b1c2" d="M 160.5,253.5 C 162.13,257.911 163.13,262.578 163.5,267.5C 161.656,263.138 160.656,258.471 160.5,253.5 Z"/></g>
<g><path style="opacity:1" fill="#8d1723" d="M 269.5,258.5 C 268.653,259.966 267.32,260.8 265.5,261C 268.531,261.495 271.531,261.329 274.5,260.5C 270.133,262.45 265.466,263.783 260.5,264.5C 261.6,263.442 262.934,262.608 264.5,262C 263.833,261.833 263.167,261.667 262.5,261.5C 257.595,262.905 252.595,263.571 247.5,263.5C 254.72,261.846 262.053,260.179 269.5,258.5 Z"/></g>
<g><path style="opacity:1" fill="#69111a" d="M 234.5,264.5 C 228.833,265.167 223.167,265.833 217.5,266.5C 214.478,266.196 211.478,265.696 208.5,265C 217.16,264.5 225.827,264.334 234.5,264.5 Z"/></g>
<g><path style="opacity:1" fill="#b61d2c" d="M 260.5,264.5 C 246.571,266.261 232.571,266.928 218.5,266.5C 218.167,266.5 217.833,266.5 217.5,266.5C 223.167,265.833 228.833,265.167 234.5,264.5C 238.931,264.769 243.265,264.436 247.5,263.5C 252.595,263.571 257.595,262.905 262.5,261.5C 263.167,261.667 263.833,261.833 264.5,262C 262.934,262.608 261.6,263.442 260.5,264.5 Z"/></g>
<g><path style="opacity:1" fill="#438086" d="M 314.5,273.5 C 313.897,276.041 313.897,278.374 314.5,280.5C 312.138,283.192 309.804,285.859 307.5,288.5C 309.686,283.95 311.686,279.283 313.5,274.5C 313.5,273.833 313.833,273.5 314.5,273.5 Z"/></g>
<g><path style="opacity:1" fill="#151920" d="M 314.5,265.5 C 314.538,268.181 313.871,270.681 312.5,273C 312.57,273.765 312.903,274.265 313.5,274.5C 311.686,279.283 309.686,283.95 307.5,288.5C 299.062,299.938 288.729,309.272 276.5,316.5C 273.256,317.463 270.256,318.796 267.5,320.5C 267.167,320.5 266.833,320.5 266.5,320.5C 263.728,320.759 261.395,321.759 259.5,323.5C 255.64,323.808 251.974,324.475 248.5,325.5C 241.167,325.5 233.833,325.5 226.5,325.5C 214.939,323.65 204.273,319.65 194.5,313.5C 181.504,304.512 171.838,292.845 165.5,278.5C 165.409,276.302 166.075,275.969 167.5,277.5C 178.049,298.046 194.382,311.713 216.5,318.5C 219.845,320.217 223.511,320.884 227.5,320.5C 230.817,321.165 234.317,321.499 238,321.5C 243.102,321.707 247.935,321.04 252.5,319.5C 259.939,318.942 266.939,316.942 273.5,313.5C 275.027,313.573 276.027,312.906 276.5,311.5C 280.951,308.889 285.284,306.056 289.5,303C 300.982,292.517 309.316,280.017 314.5,265.5 Z"/></g>
<g><path style="opacity:1" fill="#9a9a9a" d="M 265.5,311.5 C 261.195,313.746 256.529,315.08 251.5,315.5C 255.895,313.565 260.562,312.231 265.5,311.5 Z"/></g>
<g><path style="opacity:1" fill="#596a7d" d="M 276.5,311.5 C 276.027,312.906 275.027,313.573 273.5,313.5C 273.973,312.094 274.973,311.427 276.5,311.5 Z"/></g>
<g><path style="opacity:1" fill="#5e5e5e" d="M 215.5,312.5 C 218.152,312.41 220.485,313.076 222.5,314.5C 219.848,314.59 217.515,313.924 215.5,312.5 Z"/></g>
<g><path style="opacity:1" fill="#4b4b4b" d="M 223.5,314.5 C 230.153,315.054 236.82,315.388 243.5,315.5C 236.776,316.804 230.109,316.471 223.5,314.5 Z"/></g>
<g><path style="opacity:1" fill="#525b8c" d="M 276.5,316.5 C 275.127,318.207 273.461,319.54 271.5,320.5C 270.167,320.5 268.833,320.5 267.5,320.5C 270.256,318.796 273.256,317.463 276.5,316.5 Z"/></g>
<g><path style="opacity:1" fill="#6f7d90" d="M 216.5,318.5 C 220.387,318.646 224.054,319.313 227.5,320.5C 223.511,320.884 219.845,320.217 216.5,318.5 Z"/></g>
<g><path style="opacity:1" fill="#8f9fb3" d="M 252.5,319.5 C 247.935,321.04 243.102,321.707 238,321.5C 234.317,321.499 230.817,321.165 227.5,320.5C 235.862,320.665 244.195,320.332 252.5,319.5 Z"/></g>
<g><path style="opacity:1" fill="#32476d" d="M 266.5,320.5 C 265.087,321.935 263.42,322.935 261.5,323.5C 260.833,323.5 260.167,323.5 259.5,323.5C 261.395,321.759 263.728,320.759 266.5,320.5 Z"/></g>
<g><path style="opacity:1" fill="#50949e" d="M 266.5,320.5 C 266.833,320.5 267.167,320.5 267.5,320.5C 268.833,320.5 270.167,320.5 271.5,320.5C 269.777,322.218 267.777,323.551 265.5,324.5C 264.432,323.566 263.099,323.232 261.5,323.5C 263.42,322.935 265.087,321.935 266.5,320.5 Z"/></g>
<g><path style="opacity:1" fill="#407192" d="M 259.5,323.5 C 259.5,323.833 259.5,324.167 259.5,324.5C 255.901,325.344 252.234,325.677 248.5,325.5C 251.974,324.475 255.64,323.808 259.5,323.5 Z"/></g>
<g><path style="opacity:1" fill="#2d9983" d="M 194.5,313.5 C 204.273,319.65 214.939,323.65 226.5,325.5C 226.5,325.833 226.5,326.167 226.5,326.5C 223.813,326.336 221.146,326.503 218.5,327C 221.351,328.881 221.018,329.715 217.5,329.5C 214.258,329.217 213.924,328.383 216.5,327C 216.167,326.667 215.833,326.333 215.5,326C 212.175,326.225 209.842,324.892 208.5,322C 205.167,320.667 201.833,319.333 198.5,318C 196.365,317.124 195.031,315.624 194.5,313.5 Z"/></g>
<g><path style="opacity:1" fill="#408b97" d="M 259.5,324.5 C 259.389,325.117 259.056,325.617 258.5,326C 247.828,327.538 237.161,327.705 226.5,326.5C 226.5,326.167 226.5,325.833 226.5,325.5C 233.833,325.5 241.167,325.5 248.5,325.5C 252.234,325.677 255.901,325.344 259.5,324.5 Z"/></g>
<g><path style="opacity:1" fill="#69b59d" d="M 120.5,339.5 C 128.156,340.887 135.49,342.887 142.5,345.5C 134.904,344.382 127.571,342.382 120.5,339.5 Z"/></g>
</svg>
