<?xml version="1.0" encoding="UTF-8"?>
<!DOCTYPE svg PUBLIC "-//W3C//DTD SVG 1.1//EN" "http://www.w3.org/Graphics/SVG/1.1/DTD/svg11.dtd">
<svg xmlns="http://www.w3.org/2000/svg" version="1.1" width="151px" height="151px" style="shape-rendering:geometricPrecision; text-rendering:geometricPrecision; image-rendering:optimizeQuality; fill-rule:evenodd; clip-rule:evenodd" xmlns:xlink="http://www.w3.org/1999/xlink">
<g><path style="opacity:1" fill="#dcdee3" d="M 62.5,-0.5 C 70.8333,-0.5 79.1667,-0.5 87.5,-0.5C 91.5914,0.523724 95.5914,1.85706 99.5,3.5C 99.1667,3.5 98.8333,3.5 98.5,3.5C 95.4486,3.63554 92.4486,3.30221 89.5,2.5C 87.6274,2.4823 87.2941,2.9823 88.5,4C 85.5184,4.49796 82.5184,4.66463 79.5,4.5C 75.9249,2.53855 71.9249,1.20521 67.5,0.5C 61.9553,2.23437 56.2887,3.23437 50.5,3.5C 54.4086,1.85706 58.4086,0.523724 62.5,-0.5 Z"/></g>
<g><path style="opacity:1" fill="#e8fafb" d="M 98.5,3.5 C 98.4142,4.4959 98.7476,5.32924 99.5,6C 98.8333,6.66667 98.1667,7.33333 97.5,8C 100.244,8.44062 102.244,7.94062 103.5,6.5C 103.286,8.14387 103.62,9.64387 104.5,11C 106.752,10.3884 109.085,10.0551 111.5,10C 110.269,11.4048 108.936,12.5714 107.5,13.5C 99.8899,9.9648 91.8899,7.63147 83.5,6.5C 72.3459,4.6119 61.3459,5.6119 50.5,9.5C 51.1603,6.35144 53.1603,4.85144 56.5,5C 64.1594,4.50031 71.8261,4.33365 79.5,4.5C 82.5184,4.66463 85.5184,4.49796 88.5,4C 87.2941,2.9823 87.6274,2.4823 89.5,2.5C 92.4486,3.30221 95.4486,3.63554 98.5,3.5 Z"/></g>
<g><path style="opacity:1" fill="#eef6f5" d="M 79.5,4.5 C 71.8261,4.33365 64.1594,4.50031 56.5,5C 53.1603,4.85144 51.1603,6.35144 50.5,9.5C 46.6012,11.4172 42.6012,13.2505 38.5,15C 34.7757,17.52 31.1091,20.02 27.5,22.5C 27.87,18.8141 26.5367,17.8141 23.5,19.5C 31.0498,11.8852 40.0498,6.55188 50.5,3.5C 56.2887,3.23437 61.9553,2.23437 67.5,0.5C 71.9249,1.20521 75.9249,2.53855 79.5,4.5 Z"/></g>
<g><path style="opacity:1" fill="#7d5c72" d="M 83.5,10.5 C 82.1667,10.5 80.8333,10.5 79.5,10.5C 72.9384,10.3369 66.605,11.0035 60.5,12.5C 59.1667,12.5 57.8333,12.5 56.5,12.5C 58.5145,11.0762 60.8478,10.4095 63.5,10.5C 70.296,9.22639 76.9626,9.22639 83.5,10.5 Z"/></g>
<g><path style="opacity:1" fill="#32b7e7" d="M 83.5,6.5 C 91.8899,7.63147 99.8899,9.9648 107.5,13.5C 115.677,18.0019 122.677,24.0019 128.5,31.5C 128.92,33.0936 129.586,34.5936 130.5,36C 130.333,36.5 130.167,37 130,37.5C 129.329,36.7476 128.496,36.4142 127.5,36.5C 126.833,35.8333 126.167,35.1667 125.5,34.5C 123.833,32.1667 121.833,30.1667 119.5,28.5C 112.364,20.7762 103.697,15.4429 93.5,12.5C 91.5615,10.8372 89.2282,10.1706 86.5,10.5C 85.5,10.5 84.5,10.5 83.5,10.5C 76.9626,9.22639 70.296,9.22639 63.5,10.5C 63.5743,8.5891 64.5743,7.42244 66.5,7C 72.1569,6.50058 77.8236,6.33391 83.5,6.5 Z"/></g>
<g><path style="opacity:1" fill="#370a12" d="M 79.5,10.5 C 81.5,11.1667 83.5,11.8333 85.5,12.5C 77.1667,12.5 68.8333,12.5 60.5,12.5C 66.605,11.0035 72.9384,10.3369 79.5,10.5 Z"/></g>
<g><path style="opacity:1" fill="#5c8299" d="M 86.5,10.5 C 89.2282,10.1706 91.5615,10.8372 93.5,12.5C 90.8478,12.5905 88.5145,11.9238 86.5,10.5 Z"/></g>
<g><path style="opacity:1" fill="#702e41" d="M 79.5,10.5 C 80.8333,10.5 82.1667,10.5 83.5,10.5C 84.5,10.5 85.5,10.5 86.5,10.5C 88.5145,11.9238 90.8478,12.5905 93.5,12.5C 103.697,15.4429 112.364,20.7762 119.5,28.5C 119.5,28.8333 119.5,29.1667 119.5,29.5C 114.985,27.0645 110.985,23.8978 107.5,20C 103.352,17.7139 99.0182,15.8805 94.5,14.5C 91.546,13.7287 88.546,13.062 85.5,12.5C 83.5,11.8333 81.5,11.1667 79.5,10.5 Z"/></g>
<g><path style="opacity:1" fill="#0a0708" d="M 60.5,12.5 C 68.8333,12.5 77.1667,12.5 85.5,12.5C 88.546,13.062 91.546,13.7287 94.5,14.5C 95.3602,16.6138 97.0268,17.7805 99.5,18C 97.9371,18.7589 96.9371,19.9256 96.5,21.5C 93.1667,20.5 89.8333,19.5 86.5,18.5C 80.2026,17.6803 73.8692,17.347 67.5,17.5C 64.6946,16.6805 61.6946,16.1805 58.5,16C 57.8333,15.6667 57.1667,15.3333 56.5,15C 57.4158,14.7216 58.0825,14.2216 58.5,13.5C 59.4916,13.6716 60.1583,13.3382 60.5,12.5 Z"/></g>
<g><path style="opacity:1" fill="#3cb7e1" d="M 83.5,6.5 C 77.8236,6.33391 72.1569,6.50058 66.5,7C 64.5743,7.42244 63.5743,8.5891 63.5,10.5C 60.8478,10.4095 58.5145,11.0762 56.5,12.5C 45.6506,15.077 36.6506,20.4103 29.5,28.5C 26.8826,29.7839 24.8826,31.7839 23.5,34.5C 21.5441,36.1484 19.2108,36.8151 16.5,36.5C 19.6757,31.5006 23.3423,26.8339 27.5,22.5C 31.1091,20.02 34.7757,17.52 38.5,15C 42.6012,13.2505 46.6012,11.4172 50.5,9.5C 61.3459,5.6119 72.3459,4.6119 83.5,6.5 Z"/></g>
<g><path style="opacity:0.835" fill="#6d848f" d="M 121.5,15.5 C 124.109,16.4431 126.109,18.1097 127.5,20.5C 126.391,20.4431 125.391,20.1098 124.5,19.5C 123.211,18.3634 122.211,17.0301 121.5,15.5 Z"/></g>
<g><path style="opacity:1" fill="#10080b" d="M 58.5,13.5 C 58.0825,14.2216 57.4158,14.7216 56.5,15C 57.1667,15.3333 57.8333,15.6667 58.5,16C 61.6946,16.1805 64.6946,16.6805 67.5,17.5C 64.3112,17.8583 61.3112,18.525 58.5,19.5C 50.2614,21.9505 42.9281,25.9505 36.5,31.5C 35.1667,32.1667 34.1667,33.1667 33.5,34.5C 32.8333,34.5 32.5,34.8333 32.5,35.5C 29.3962,36.7752 26.3962,36.7752 23.5,35.5C 26.912,34.4185 28.912,32.0852 29.5,28.5C 38.2584,21.6216 47.925,16.6216 58.5,13.5 Z"/></g>
<g><path style="opacity:1" fill="#692f3a" d="M 56.5,12.5 C 57.8333,12.5 59.1667,12.5 60.5,12.5C 60.1583,13.3382 59.4916,13.6716 58.5,13.5C 47.925,16.6216 38.2584,21.6216 29.5,28.5C 36.6506,20.4103 45.6506,15.077 56.5,12.5 Z"/></g>
<g><path style="opacity:1" fill="#0d070b" d="M 94.5,14.5 C 99.0182,15.8805 103.352,17.7139 107.5,20C 110.985,23.8978 114.985,27.0645 119.5,29.5C 119.5,29.8333 119.5,30.1667 119.5,30.5C 117.93,31.5593 116.597,31.0593 115.5,29C 113.527,28.5045 111.527,28.3379 109.5,28.5C 105.287,25.8941 100.953,23.5607 96.5,21.5C 96.9371,19.9256 97.9371,18.7589 99.5,18C 97.0268,17.7805 95.3602,16.6138 94.5,14.5 Z"/></g>
<g><path style="opacity:1" fill="#e3edee" d="M 98.5,3.5 C 98.8333,3.5 99.1667,3.5 99.5,3.5C 107.759,5.96001 115.093,9.96001 121.5,15.5C 122.211,17.0301 123.211,18.3634 124.5,19.5C 124.714,21.1439 124.38,22.6439 123.5,24C 126.092,25.9646 128.592,28.1313 131,30.5C 131.483,31.448 131.649,32.448 131.5,33.5C 130.5,32.8333 129.5,32.1667 128.5,31.5C 122.677,24.0019 115.677,18.0019 107.5,13.5C 108.936,12.5714 110.269,11.4048 111.5,10C 109.085,10.0551 106.752,10.3884 104.5,11C 103.62,9.64387 103.286,8.14387 103.5,6.5C 102.244,7.94062 100.244,8.44062 97.5,8C 98.1667,7.33333 98.8333,6.66667 99.5,6C 98.7476,5.32924 98.4142,4.4959 98.5,3.5 Z"/></g>
<g><path style="opacity:1" fill="#898786" d="M 67.5,17.5 C 73.8692,17.347 80.2026,17.6803 86.5,18.5C 85.3915,19.29 84.0581,19.79 82.5,20C 83.8333,20.3333 85.1667,20.6667 86.5,21C 85.8333,21.3333 85.1667,21.6667 84.5,22C 86.7885,22.8221 89.1218,23.4888 91.5,24C 91.1667,24.3333 90.8333,24.6667 90.5,25C 92.3197,25.2004 93.653,26.0337 94.5,27.5C 93.391,27.4431 92.391,27.1098 91.5,26.5C 83.7379,23.9906 75.7379,22.9906 67.5,23.5C 66.5,23.5 65.5,23.5 64.5,23.5C 64.5,22.1667 64.5,20.8333 64.5,19.5C 62.5,19.5 60.5,19.5 58.5,19.5C 61.3112,18.525 64.3112,17.8583 67.5,17.5 Z"/></g>
<g><path style="opacity:0.992" fill="#5c7983" d="M 129.5,22.5 C 131.587,23.5846 132.92,25.2512 133.5,27.5C 131.413,26.4154 130.08,24.7488 129.5,22.5 Z"/></g>
<g><path style="opacity:1" fill="#eef7f7" d="M 27.5,22.5 C 23.3423,26.8339 19.6757,31.5006 16.5,36.5C 16.5,36.8333 16.5,37.1667 16.5,37.5C 13.4599,41.6468 10.7932,45.9802 8.5,50.5C 8.38742,47.9512 9.05408,45.6179 10.5,43.5C 9.30024,42.7084 7.9669,42.7084 6.5,43.5C 10.2036,34.0866 15.8703,26.0866 23.5,19.5C 26.5367,17.8141 27.87,18.8141 27.5,22.5 Z"/></g>
<g><path style="opacity:1" fill="#e0e0e0" d="M 67.5,23.5 C 75.7379,22.9906 83.7379,23.9906 91.5,26.5C 87.6273,28.4302 83.294,29.0969 78.5,28.5C 69.9634,28.8791 61.6301,28.8791 53.5,28.5C 57.7766,25.6308 62.4432,23.9642 67.5,23.5 Z"/></g>
<g><path style="opacity:1" fill="#babbba" d="M 58.5,19.5 C 60.5,19.5 62.5,19.5 64.5,19.5C 64.5,20.8333 64.5,22.1667 64.5,23.5C 65.5,23.5 66.5,23.5 67.5,23.5C 62.4432,23.9642 57.7766,25.6308 53.5,28.5C 49.5808,29.9062 45.7475,31.5728 42,33.5C 40.4329,32.1439 38.5996,31.4772 36.5,31.5C 42.9281,25.9505 50.2614,21.9505 58.5,19.5 Z"/></g>
<g><path style="opacity:1" fill="#636268" d="M 86.5,18.5 C 89.8333,19.5 93.1667,20.5 96.5,21.5C 100.953,23.5607 105.287,25.8941 109.5,28.5C 110.167,29.5 110.833,30.5 111.5,31.5C 108.5,31.5 105.5,31.5 102.5,31.5C 99.8333,30.1667 97.1667,28.8333 94.5,27.5C 93.653,26.0337 92.3197,25.2004 90.5,25C 90.8333,24.6667 91.1667,24.3333 91.5,24C 89.1218,23.4888 86.7885,22.8221 84.5,22C 85.1667,21.6667 85.8333,21.3333 86.5,21C 85.1667,20.6667 83.8333,20.3333 82.5,20C 84.0581,19.79 85.3915,19.29 86.5,18.5 Z"/></g>
<g><path style="opacity:1" fill="#d9d9db" d="M 53.5,28.5 C 61.6301,28.8791 69.9634,28.8791 78.5,28.5C 79.2341,29.7079 79.5674,31.0413 79.5,32.5C 77.396,32.2011 75.396,32.5344 73.5,33.5C 75.6309,34.1687 77.6309,34.8354 79.5,35.5C 75.1667,35.5 70.8333,35.5 66.5,35.5C 55.3206,35.8279 44.3206,35.4946 33.5,34.5C 34.1667,33.1667 35.1667,32.1667 36.5,31.5C 38.5996,31.4772 40.4329,32.1439 42,33.5C 45.7475,31.5728 49.5808,29.9062 53.5,28.5 Z"/></g>
<g><path style="opacity:1" fill="#dee1e7" d="M 91.5,26.5 C 92.391,27.1098 93.391,27.4431 94.5,27.5C 97.1667,28.8333 99.8333,30.1667 102.5,31.5C 102.5,31.8333 102.5,32.1667 102.5,32.5C 102.414,33.4959 102.748,34.3292 103.5,35C 96.1742,35.4997 88.8409,35.6663 81.5,35.5C 80.8333,35.5 80.1667,35.5 79.5,35.5C 77.6309,34.8354 75.6309,34.1687 73.5,33.5C 75.396,32.5344 77.396,32.2011 79.5,32.5C 79.5674,31.0413 79.2341,29.7079 78.5,28.5C 83.294,29.0969 87.6273,28.4302 91.5,26.5 Z"/></g>
<g><path style="opacity:1" fill="#758e9c" d="M 133.5,27.5 C 135.262,28.2623 136.262,29.5956 136.5,31.5C 134.738,30.7377 133.738,29.4044 133.5,27.5 Z"/></g>
<g><path style="opacity:1" fill="#7a5385" d="M 119.5,28.5 C 121.833,30.1667 123.833,32.1667 125.5,34.5C 125.672,35.4916 125.338,36.1583 124.5,36.5C 123.833,35.5 123.167,34.5 122.5,33.5C 121.833,32.1667 120.833,31.1667 119.5,30.5C 119.5,30.1667 119.5,29.8333 119.5,29.5C 119.5,29.1667 119.5,28.8333 119.5,28.5 Z"/></g>
<g><path style="opacity:1" fill="#1d2646" d="M 109.5,28.5 C 111.527,28.3379 113.527,28.5045 115.5,29C 116.597,31.0593 117.93,31.5593 119.5,30.5C 120.833,31.1667 121.833,32.1667 122.5,33.5C 118.833,32.8333 115.167,32.1667 111.5,31.5C 110.833,30.5 110.167,29.5 109.5,28.5 Z"/></g>
<g><path style="opacity:1" fill="#5c2c3b" d="M 29.5,28.5 C 28.912,32.0852 26.912,34.4185 23.5,35.5C 23.5,35.1667 23.5,34.8333 23.5,34.5C 24.8826,31.7839 26.8826,29.7839 29.5,28.5 Z"/></g>
<g><path style="opacity:0.835" fill="#728e9b" d="M 136.5,31.5 C 137.906,31.9731 138.573,32.9731 138.5,34.5C 137.094,34.0269 136.427,33.0269 136.5,31.5 Z"/></g>
<g><path style="opacity:1" fill="#91a1ae" d="M 33.5,34.5 C 44.3206,35.4946 55.3206,35.8279 66.5,35.5C 55.1667,36.8333 43.8333,36.8333 32.5,35.5C 32.5,34.8333 32.8333,34.5 33.5,34.5 Z"/></g>
<g><path style="opacity:1" fill="#b4daed" d="M 102.5,32.5 C 109.789,34.2267 117.122,35.5601 124.5,36.5C 125.338,36.1583 125.672,35.4916 125.5,34.5C 126.167,35.1667 126.833,35.8333 127.5,36.5C 128.6,37.6049 129.267,38.9382 129.5,40.5C 125.833,40.5 122.167,40.5 118.5,40.5C 119.263,39.7321 120.263,39.2321 121.5,39C 121.167,38.6667 120.833,38.3333 120.5,38C 115.667,37.8333 110.833,37.6667 106,37.5C 100.393,37.3802 94.8932,37.8802 89.5,39C 96.1196,40.1374 102.786,40.6374 109.5,40.5C 111.833,41.1667 114.167,41.8333 116.5,42.5C 104.155,42.5128 91.8216,42.1795 79.5,41.5C 78.791,40.596 77.791,40.2627 76.5,40.5C 75.3915,39.71 74.0581,39.21 72.5,39C 76.6491,37.7313 80.9824,37.0646 85.5,37C 83.9419,36.79 82.6085,36.29 81.5,35.5C 88.8409,35.6663 96.1742,35.4997 103.5,35C 102.748,34.3292 102.414,33.4959 102.5,32.5 Z"/></g>
<g><path style="opacity:1" fill="#5c81a2" d="M 102.5,32.5 C 102.5,32.1667 102.5,31.8333 102.5,31.5C 105.5,31.5 108.5,31.5 111.5,31.5C 115.167,32.1667 118.833,32.8333 122.5,33.5C 123.167,34.5 123.833,35.5 124.5,36.5C 117.122,35.5601 109.789,34.2267 102.5,32.5 Z"/></g>
<g><path style="opacity:1" fill="#104160" d="M 23.5,34.5 C 23.5,34.8333 23.5,35.1667 23.5,35.5C 26.3962,36.7752 29.3962,36.7752 32.5,35.5C 43.8333,36.8333 55.1667,36.8333 66.5,35.5C 70.8333,35.5 75.1667,35.5 79.5,35.5C 76.023,36.3227 72.3563,36.8227 68.5,37C 52.1701,37.4999 35.8367,37.6666 19.5,37.5C 18.8333,37.5 18.1667,37.5 17.5,37.5C 17.1667,37.5 16.8333,37.5 16.5,37.5C 16.5,37.1667 16.5,36.8333 16.5,36.5C 19.2108,36.8151 21.5441,36.1484 23.5,34.5 Z"/></g>
<g><path style="opacity:0.706" fill="#7293a5" d="M 138.5,34.5 C 139.906,34.9731 140.573,35.9731 140.5,37.5C 139.094,37.0269 138.427,36.0269 138.5,34.5 Z"/></g>
<g><path style="opacity:1" fill="#58afdd" d="M 79.5,35.5 C 80.1667,35.5 80.8333,35.5 81.5,35.5C 82.6085,36.29 83.9419,36.79 85.5,37C 80.9824,37.0646 76.6491,37.7313 72.5,39C 74.0581,39.21 75.3915,39.71 76.5,40.5C 73.5,40.5 70.5,40.5 67.5,40.5C 53.0414,38.7261 38.3748,38.0595 23.5,38.5C 21.7367,39.9538 20.4033,39.6204 19.5,37.5C 35.8367,37.6666 52.1701,37.4999 68.5,37C 72.3563,36.8227 76.023,36.3227 79.5,35.5 Z"/></g>
<g><path style="opacity:1" fill="#3865a7" d="M 23.5,38.5 C 38.3748,38.0595 53.0414,38.7261 67.5,40.5C 52.9892,40.1302 38.6559,40.1302 24.5,40.5C 23.6618,40.1583 23.3284,39.4916 23.5,38.5 Z"/></g>
<g><path style="opacity:1" fill="#ddf9fc" d="M 118.5,40.5 C 115.5,40.5 112.5,40.5 109.5,40.5C 102.786,40.6374 96.1196,40.1374 89.5,39C 94.8932,37.8802 100.393,37.3802 106,37.5C 110.833,37.6667 115.667,37.8333 120.5,38C 120.833,38.3333 121.167,38.6667 121.5,39C 120.263,39.2321 119.263,39.7321 118.5,40.5 Z"/></g>
<g><path style="opacity:1" fill="#2f3d85" d="M 67.5,40.5 C 70.5,40.5 73.5,40.5 76.5,40.5C 77.791,40.2627 78.791,40.596 79.5,41.5C 63.1317,40.8486 47.1317,41.5152 31.5,43.5C 30.8333,43.5 30.5,43.8333 30.5,44.5C 28.2228,43.5514 26.2228,42.2181 24.5,40.5C 38.6559,40.1302 52.9892,40.1302 67.5,40.5 Z"/></g>
<g><path style="opacity:1" fill="#61d0ea" d="M 128.5,31.5 C 129.5,32.1667 130.5,32.8333 131.5,33.5C 131.804,37.4434 133.638,40.4434 137,42.5C 138.63,45.6877 139.796,49.0211 140.5,52.5C 139.442,51.3998 138.608,50.0664 138,48.5C 137.292,49.3805 136.458,50.0472 135.5,50.5C 135.808,48.076 135.474,45.7427 134.5,43.5C 133.473,44.7914 132.473,44.7914 131.5,43.5C 131.573,41.9731 130.906,40.9731 129.5,40.5C 129.267,38.9382 128.6,37.6049 127.5,36.5C 128.496,36.4142 129.329,36.7476 130,37.5C 130.167,37 130.333,36.5 130.5,36C 129.586,34.5936 128.92,33.0936 128.5,31.5 Z"/></g>
<g><path style="opacity:1" fill="#a0b8c6" d="M 140.5,37.5 C 142.341,39.8485 143.674,42.5152 144.5,45.5C 144.5,46.1667 144.5,46.8333 144.5,47.5C 142.085,44.6601 140.752,41.3267 140.5,37.5 Z"/></g>
<g><path style="opacity:1" fill="#90e7fe" d="M 79.5,41.5 C 91.8216,42.1795 104.155,42.5128 116.5,42.5C 116.158,43.3382 115.492,43.6716 114.5,43.5C 101.656,43.8287 88.989,43.4954 76.5,42.5C 77.791,42.7373 78.791,42.404 79.5,41.5 Z"/></g>
<g><path style="opacity:1" fill="#4bd3f6" d="M 36.5,43.5 C 49.6562,42.5044 62.9895,42.1711 76.5,42.5C 88.989,43.4954 101.656,43.8287 114.5,43.5C 114.167,44.5 113.5,45.1667 112.5,45.5C 97.4158,45.4094 82.4158,44.7428 67.5,43.5C 57.1667,43.5 46.8333,43.5 36.5,43.5 Z"/></g>
<g><path style="opacity:1" fill="#233f69" d="M 129.5,42.5 C 129.5,42.8333 129.5,43.1667 129.5,43.5C 127.621,44.3414 125.621,44.6747 123.5,44.5C 123.167,44.5 122.833,44.5 122.5,44.5C 122.5,44.1667 122.5,43.8333 122.5,43.5C 123.312,42.0069 124.645,41.3402 126.5,41.5C 127.726,41.5195 128.726,41.8529 129.5,42.5 Z"/></g>
<g><path style="opacity:1" fill="#82b0d7" d="M 79.5,41.5 C 78.791,42.404 77.791,42.7373 76.5,42.5C 62.9895,42.1711 49.6562,42.5044 36.5,43.5C 35.1667,43.8333 35.1667,44.1667 36.5,44.5C 39.4729,46.8062 42.1395,49.4728 44.5,52.5C 40.3409,49.2533 36.0076,46.2533 31.5,43.5C 47.1317,41.5152 63.1317,40.8486 79.5,41.5 Z"/></g>
<g><path style="opacity:1" fill="#0abef8" d="M 36.5,43.5 C 46.8333,43.5 57.1667,43.5 67.5,43.5C 66.7375,44.2679 65.7375,44.7679 64.5,45C 64.8333,45.3333 65.1667,45.6667 65.5,46C 79.8389,47.4185 94.1723,48.5852 108.5,49.5C 108.167,50.1667 107.833,50.8333 107.5,51.5C 90.1635,51.6666 72.8301,51.4999 55.5,51C 49.2395,48.5608 42.9062,46.3941 36.5,44.5C 35.1667,44.1667 35.1667,43.8333 36.5,43.5 Z"/></g>
<g><path style="opacity:1" fill="#519dca" d="M 131.5,43.5 C 132.473,44.7914 133.473,44.7914 134.5,43.5C 135.474,45.7427 135.808,48.076 135.5,50.5C 133.801,48.4336 132.468,46.1003 131.5,43.5 Z"/></g>
<g><path style="opacity:1" fill="#121022" d="M 129.5,43.5 C 131.461,45.7982 132.461,48.4649 132.5,51.5C 131.15,50.5169 130.15,49.1836 129.5,47.5C 128.482,48.1925 127.482,48.8592 126.5,49.5C 125.263,48.0351 124.263,46.3684 123.5,44.5C 125.621,44.6747 127.621,44.3414 129.5,43.5 Z"/></g>
<g><path style="opacity:1" fill="#0cc5fb" d="M 67.5,43.5 C 82.4158,44.7428 97.4158,45.4094 112.5,45.5C 111.833,46.5 111.167,47.5 110.5,48.5C 109.833,48.8333 109.167,49.1667 108.5,49.5C 94.1723,48.5852 79.8389,47.4185 65.5,46C 65.1667,45.6667 64.8333,45.3333 64.5,45C 65.7375,44.7679 66.7375,44.2679 67.5,43.5 Z"/></g>
<g><path style="opacity:1" fill="#2e7aa0" d="M 17.5,37.5 C 18.1667,37.5 18.8333,37.5 19.5,37.5C 20.4033,39.6204 21.7367,39.9538 23.5,38.5C 23.3284,39.4916 23.6618,40.1583 24.5,40.5C 26.2228,42.2181 28.2228,43.5514 30.5,44.5C 35.5,49.1667 40.5,53.8333 45.5,58.5C 45.5,58.8333 45.5,59.1667 45.5,59.5C 43.6064,58.9524 41.9397,57.9524 40.5,56.5C 39.8165,56.8627 39.1499,57.1961 38.5,57.5C 36.5216,53.5216 33.5216,50.5216 29.5,48.5C 28.3406,46.7497 26.674,45.7497 24.5,45.5C 24.9232,42.876 23.5899,41.2093 20.5,40.5C 19.8333,40.5 19.1667,40.5 18.5,40.5C 18.4431,39.391 18.1098,38.391 17.5,37.5 Z"/></g>
<g><path style="opacity:1" fill="#e8f1f3" d="M 124.5,19.5 C 125.391,20.1098 126.391,20.4431 127.5,20.5C 128.5,20.8333 129.167,21.5 129.5,22.5C 130.08,24.7488 131.413,26.4154 133.5,27.5C 133.738,29.4044 134.738,30.7377 136.5,31.5C 136.427,33.0269 137.094,34.0269 138.5,34.5C 138.427,36.0269 139.094,37.0269 140.5,37.5C 140.752,41.3267 142.085,44.6601 144.5,47.5C 146.18,52.2566 147.847,56.9233 149.5,61.5C 149.5,62.1667 149.833,62.5 150.5,62.5C 150.5,70.8333 150.5,79.1667 150.5,87.5C 150.167,87.5 149.833,87.5 149.5,87.5C 149.167,87.5 148.833,87.5 148.5,87.5C 148.666,81.1579 148.5,74.8246 148,68.5C 147.459,65.3854 145.959,63.052 143.5,61.5C 143.204,59.597 142.537,57.9303 141.5,56.5C 141.768,54.901 141.434,53.5676 140.5,52.5C 139.796,49.0211 138.63,45.6877 137,42.5C 133.638,40.4434 131.804,37.4434 131.5,33.5C 131.649,32.448 131.483,31.448 131,30.5C 128.592,28.1313 126.092,25.9646 123.5,24C 124.38,22.6439 124.714,21.1439 124.5,19.5 Z"/></g>
<g><path style="opacity:1" fill="#64717f" d="M 144.5,45.5 C 147.343,50.367 149.009,55.7004 149.5,61.5C 147.847,56.9233 146.18,52.2566 144.5,47.5C 144.5,46.8333 144.5,46.1667 144.5,45.5 Z"/></g>
<g><path style="opacity:1" fill="#49b6dd" d="M 16.5,37.5 C 16.8333,37.5 17.1667,37.5 17.5,37.5C 18.1098,38.391 18.4431,39.391 18.5,40.5C 17.7392,44.2679 16.0726,47.6012 13.5,50.5C 11.8958,51.287 11.2291,52.6203 11.5,54.5C 10.5,54.5 9.5,54.5 8.5,54.5C 6.80692,65.0682 6.14026,75.7349 6.5,86.5C 5.50797,79.0182 5.17464,71.3516 5.5,63.5C 6.29343,59.1195 7.29343,54.7862 8.5,50.5C 10.7932,45.9802 13.4599,41.6468 16.5,37.5 Z"/></g>
<g><path style="opacity:1" fill="#0b88b4" d="M 36.5,44.5 C 42.9062,46.3941 49.2395,48.5608 55.5,51C 72.8301,51.4999 90.1635,51.6666 107.5,51.5C 107.824,58.3543 107.491,65.021 106.5,71.5C 106.829,65.4632 106.496,59.4632 105.5,53.5C 104.16,54.8665 102.827,56.1999 101.5,57.5C 90.8333,57.5 80.1667,57.5 69.5,57.5C 66.2478,56.5406 63.2478,55.0406 60.5,53C 59.5,52.3333 58.5,52.3333 57.5,53C 61.1446,59.1786 64.4779,65.0119 67.5,70.5C 59.9844,64.25 52.3178,58.25 44.5,52.5C 42.1395,49.4728 39.4729,46.8062 36.5,44.5 Z"/></g>
<g><path style="opacity:1" fill="#2476ad" d="M 122.5,43.5 C 122.5,43.8333 122.5,44.1667 122.5,44.5C 122.5,49.1667 122.5,53.8333 122.5,58.5C 122.5,66.1667 122.5,73.8333 122.5,81.5C 118.227,84.4335 114.227,87.7668 110.5,91.5C 110.167,91.5 109.833,91.5 109.5,91.5C 112.796,87.7024 116.296,84.0357 120,80.5C 120.915,68.4422 120.581,56.4422 119,44.5C 118.617,45.056 118.117,45.3893 117.5,45.5C 118.098,42.2693 119.264,41.936 121,44.5C 121.383,43.944 121.883,43.6107 122.5,43.5 Z"/></g>
<g><path style="opacity:1" fill="#2da7d4" d="M 140.5,52.5 C 141.434,53.5676 141.768,54.901 141.5,56.5C 142.833,68.5 142.833,80.5 141.5,92.5C 141.567,94.4008 141.233,96.2341 140.5,98C 138.634,101.997 136.634,105.831 134.5,109.5C 134.5,106.833 134.5,104.167 134.5,101.5C 134.5,100.833 134.5,100.167 134.5,99.5C 137.658,96.236 138.992,92.236 138.5,87.5C 138.5,87.1667 138.5,86.8333 138.5,86.5C 140.039,83.1354 140.706,79.4687 140.5,75.5C 140.759,69.8009 139.759,64.4676 137.5,59.5C 137.79,56.2153 137.123,53.2153 135.5,50.5C 136.458,50.0472 137.292,49.3805 138,48.5C 138.608,50.0664 139.442,51.3998 140.5,52.5 Z"/></g>
<g><path style="opacity:1" fill="#0585b3" d="M 115.5,53.5 C 113.5,53.8333 111.5,54.1667 109.5,54.5C 109.334,61.175 109.5,67.8417 110,74.5C 111.919,75.074 113.753,75.4074 115.5,75.5C 115.975,78.3126 114.975,80.3126 112.5,81.5C 109.812,80.9759 108.312,79.3092 108,76.5C 105.846,77.2301 103.679,77.8968 101.5,78.5C 102.912,76.0199 104.578,73.6866 106.5,71.5C 107.491,65.021 107.824,58.3543 107.5,51.5C 107.833,50.8333 108.167,50.1667 108.5,49.5C 109.167,49.1667 109.833,48.8333 110.5,48.5C 112.371,48.1412 113.871,47.1412 115,45.5C 115.497,48.146 115.664,50.8127 115.5,53.5 Z"/></g>
<g><path style="opacity:1" fill="#0184ac" d="M 115.5,53.5 C 115.5,60.8333 115.5,68.1667 115.5,75.5C 113.753,75.4074 111.919,75.074 110,74.5C 109.5,67.8417 109.334,61.175 109.5,54.5C 111.5,54.1667 113.5,53.8333 115.5,53.5 Z"/></g>
<g><path style="opacity:1" fill="#679cbd" d="M 109.5,40.5 C 112.5,40.5 115.5,40.5 118.5,40.5C 122.167,40.5 125.833,40.5 129.5,40.5C 130.906,40.9731 131.573,41.9731 131.5,43.5C 130.833,43.1667 130.167,42.8333 129.5,42.5C 128.726,41.8529 127.726,41.5195 126.5,41.5C 124.645,41.3402 123.312,42.0069 122.5,43.5C 121.883,43.6107 121.383,43.944 121,44.5C 119.264,41.936 118.098,42.2693 117.5,45.5C 117.667,56.8382 117.5,68.1716 117,79.5C 112.631,84.0367 108.131,88.3701 103.5,92.5C 103.5,92.1667 103.5,91.8333 103.5,91.5C 106.5,88.1667 109.5,84.8333 112.5,81.5C 114.975,80.3126 115.975,78.3126 115.5,75.5C 115.5,68.1667 115.5,60.8333 115.5,53.5C 115.664,50.8127 115.497,48.146 115,45.5C 113.871,47.1412 112.371,48.1412 110.5,48.5C 111.167,47.5 111.833,46.5 112.5,45.5C 113.5,45.1667 114.167,44.5 114.5,43.5C 115.492,43.6716 116.158,43.3382 116.5,42.5C 114.167,41.8333 111.833,41.1667 109.5,40.5 Z"/></g>
<g><path style="opacity:1" fill="#7298bf" d="M 44.5,52.5 C 52.3178,58.25 59.9844,64.25 67.5,70.5C 67.56,71.0431 67.8933,71.3764 68.5,71.5C 69.4922,67.2172 69.8256,62.8839 69.5,58.5C 69.8333,58.5 70.1667,58.5 70.5,58.5C 70.5,59.1667 70.5,59.8333 70.5,60.5C 70.5,64.8333 70.5,69.1667 70.5,73.5C 69.0783,73.2914 67.745,72.7914 66.5,72C 58.6755,66.0061 51.3422,59.5061 44.5,52.5 Z"/></g>
<g><path style="opacity:1" fill="#262f66" d="M 70.5,58.5 C 80.5,58.5 90.5,58.5 100.5,58.5C 100.666,62.8461 100.499,67.1794 100,71.5C 98.5,73 97,74.5 95.5,76C 88.5079,76.4996 81.5079,76.6663 74.5,76.5C 73.5062,85.9856 73.1729,95.6522 73.5,105.5C 72.5139,101.03 72.1805,96.3633 72.5,91.5C 72.5,86.1667 72.5,80.8333 72.5,75.5C 79.5079,75.6663 86.5079,75.4996 93.5,75C 86.3213,74.8285 79.3213,74.3285 72.5,73.5C 71.8333,69.1667 71.1667,64.8333 70.5,60.5C 70.5,59.8333 70.5,59.1667 70.5,58.5 Z"/></g>
<g><path style="opacity:1" fill="#693145" d="M 18.5,40.5 C 19.1667,40.5 19.8333,40.5 20.5,40.5C 16.7195,47.4008 14.0529,54.7341 12.5,62.5C 11.8333,62.8333 11.1667,63.1667 10.5,63.5C 10.5,62.8333 10.5,62.1667 10.5,61.5C 11.6557,57.8772 12.6557,54.2106 13.5,50.5C 16.0726,47.6012 17.7392,44.2679 18.5,40.5 Z"/></g>
<g><path style="opacity:1" fill="#7d7b80" d="M 20.5,54.5 C 20.3104,57.855 19.3104,60.855 17.5,63.5C 17.5275,60.0836 18.5275,57.0836 20.5,54.5 Z"/></g>
<g><path style="opacity:1" fill="#aeadae" d="M 29.5,48.5 C 33.5216,50.5216 36.5216,53.5216 38.5,57.5C 37.8333,59.5 37.1667,61.5 36.5,63.5C 35.8333,64.5 35.1667,65.5 34.5,66.5C 34.5,65.1667 34.5,63.8333 34.5,62.5C 31.5525,62.7771 28.7191,62.4438 26,61.5C 25.1588,64.6282 24.3254,67.6282 23.5,70.5C 23.5,69.1667 23.5,67.8333 23.5,66.5C 25.198,60.364 27.198,54.364 29.5,48.5 Z"/></g>
<g><path style="opacity:1" fill="#2ca3d4" d="M 13.5,50.5 C 12.6557,54.2106 11.6557,57.8772 10.5,61.5C 9.73209,62.2625 9.23209,63.2625 9,64.5C 8.23655,71.8825 8.40321,79.2158 9.5,86.5C 9.55669,88.8845 9.22336,91.2178 8.5,93.5C 10.7127,96.4711 11.7127,99.8045 11.5,103.5C 9.59682,100.47 8.26349,97.1368 7.5,93.5C 7.32588,91.139 6.99255,88.8056 6.5,86.5C 6.14026,75.7349 6.80692,65.0682 8.5,54.5C 9.5,54.5 10.5,54.5 11.5,54.5C 11.2291,52.6203 11.8958,51.287 13.5,50.5 Z"/></g>
<g><path style="opacity:1" fill="#2fbaed" d="M 69.5,57.5 C 69.5,57.8333 69.5,58.1667 69.5,58.5C 69.8256,62.8839 69.4922,67.2172 68.5,71.5C 67.8933,71.3764 67.56,71.0431 67.5,70.5C 64.4779,65.0119 61.1446,59.1786 57.5,53C 58.5,52.3333 59.5,52.3333 60.5,53C 63.2478,55.0406 66.2478,56.5406 69.5,57.5 Z"/></g>
<g><path style="opacity:1" fill="#0fb9ef" d="M 106.5,71.5 C 104.578,73.6866 102.912,76.0199 101.5,78.5C 100.026,79.4363 99.0256,80.7697 98.5,82.5C 92.8333,82.5 87.1667,82.5 81.5,82.5C 81.5,84.1667 81.5,85.8333 81.5,87.5C 80.4168,87.5394 79.4168,87.8728 78.5,88.5C 77.92,91.447 76.92,94.1137 75.5,96.5C 75.2143,90.7414 75.5476,85.0748 76.5,79.5C 77.2891,79.7828 77.9558,80.2828 78.5,81C 84.8246,81.4995 91.1579,81.6662 97.5,81.5C 97.5674,80.0413 97.2341,78.7079 96.5,77.5C 98.1271,75.3702 99.9604,73.3702 102,71.5C 102.717,66.7804 102.55,62.1138 101.5,57.5C 102.827,56.1999 104.16,54.8665 105.5,53.5C 106.496,59.4632 106.829,65.4632 106.5,71.5 Z"/></g>
<g><path style="opacity:1" fill="#287cb5" d="M 72.5,73.5 C 72.5,69.5 72.5,65.5 72.5,61.5C 80.8333,61.5 89.1667,61.5 97.5,61.5C 97.6646,64.5184 97.498,67.5184 97,70.5C 96.0975,71.7014 94.9308,72.5348 93.5,73C 86.5079,73.4996 79.5079,73.6663 72.5,73.5 Z"/></g>
<g><path style="opacity:1" fill="#f1f0f1" d="M 24.5,45.5 C 26.674,45.7497 28.3406,46.7497 29.5,48.5C 27.198,54.364 25.198,60.364 23.5,66.5C 22.6717,72.9874 22.1717,79.654 22,86.5C 20.9887,87.3366 19.8221,87.67 18.5,87.5C 17.6979,80.1958 17.3646,72.8625 17.5,65.5C 17.5,64.8333 17.5,64.1667 17.5,63.5C 19.3104,60.855 20.3104,57.855 20.5,54.5C 21.5608,51.3785 22.8941,48.3785 24.5,45.5 Z"/></g>
<g><path style="opacity:1" fill="#070b10" d="M 45.5,59.5 C 45.5,67.1667 45.5,74.8333 45.5,82.5C 42.1667,82.5 38.8333,82.5 35.5,82.5C 35.347,76.1308 35.6803,69.7974 36.5,63.5C 37.1667,61.5 37.8333,59.5 38.5,57.5C 39.1499,57.1961 39.8165,56.8627 40.5,56.5C 41.9397,57.9524 43.6064,58.9524 45.5,59.5 Z"/></g>
<g><path style="opacity:1" fill="#040509" d="M 95.5,64.5 C 95.9465,67.0101 95.2798,69.0101 93.5,70.5C 87.5,70.5 81.5,70.5 75.5,70.5C 75.5,68.5 75.5,66.5 75.5,64.5C 82.1667,64.5 88.8333,64.5 95.5,64.5 Z"/></g>
<g><path style="opacity:1" fill="#050604" d="M 132.5,51.5 C 133.401,52.2905 134.068,53.2905 134.5,54.5C 134.589,57.7086 134.256,60.8752 133.5,64C 134.576,67.135 135.576,70.3017 136.5,73.5C 134.616,79.6566 132.616,85.6566 130.5,91.5C 130.833,87.5 131.167,83.5 131.5,79.5C 131.666,73.8236 131.499,68.1569 131,62.5C 130.434,60.2774 129.6,58.2774 128.5,56.5C 128.233,54.0347 127.566,51.7014 126.5,49.5C 127.482,48.8592 128.482,48.1925 129.5,47.5C 130.15,49.1836 131.15,50.5169 132.5,51.5 Z"/></g>
<g><path style="opacity:1" fill="#effafa" d="M 143.5,61.5 C 145.959,63.052 147.459,65.3854 148,68.5C 148.5,74.8246 148.666,81.1579 148.5,87.5C 147.448,91.426 146.782,95.426 146.5,99.5C 144.428,101.35 143.095,103.683 142.5,106.5C 140.824,107.183 140.157,108.517 140.5,110.5C 136.299,110.426 134.965,112.259 136.5,116C 135.552,116.483 134.552,116.649 133.5,116.5C 133.5,117.5 133.5,118.5 133.5,119.5C 131.167,120.167 128.833,120.833 126.5,121.5C 129.589,117.751 132.256,113.751 134.5,109.5C 136.634,105.831 138.634,101.997 140.5,98C 141.233,96.2341 141.567,94.4008 141.5,92.5C 143.059,89.1317 143.892,85.4651 144,81.5C 144.756,74.7834 144.589,68.1167 143.5,61.5 Z"/></g>
<g><path style="opacity:1" fill="#252c66" d="M 31.5,43.5 C 36.0076,46.2533 40.3409,49.2533 44.5,52.5C 51.3422,59.5061 58.6755,66.0061 66.5,72C 67.745,72.7914 69.0783,73.2914 70.5,73.5C 70.2648,74.0967 69.7648,74.4301 69,74.5C 66.7377,73.6175 64.571,72.6175 62.5,71.5C 61.2867,71.7472 60.62,72.4138 60.5,73.5C 58.3428,71.5879 56.0094,69.9213 53.5,68.5C 53.1667,67.5 52.5,66.8333 51.5,66.5C 51.44,65.9569 51.1067,65.6236 50.5,65.5C 49.5027,72.8032 49.1694,80.1365 49.5,87.5C 47.396,87.2011 45.396,87.5344 43.5,88.5C 45.3157,90.2903 46.6491,92.2903 47.5,94.5C 50.5677,100.299 53.901,105.966 57.5,111.5C 60.8212,117.473 64.1545,123.473 67.5,129.5C 66.5084,129.328 65.8417,129.662 65.5,130.5C 56.7907,115.43 47.7907,100.43 38.5,85.5C 41.4281,84.5159 44.4281,84.1826 47.5,84.5C 48.1364,75.4355 47.4698,66.7688 45.5,58.5C 40.5,53.8333 35.5,49.1667 30.5,44.5C 30.5,43.8333 30.8333,43.5 31.5,43.5 Z"/></g>
<g><path style="opacity:1" fill="#001b35" d="M 95.5,64.5 C 88.8333,64.5 82.1667,64.5 75.5,64.5C 75.5,66.5 75.5,68.5 75.5,70.5C 81.5,70.5 87.5,70.5 93.5,70.5C 87.3554,71.4902 81.0221,71.8235 74.5,71.5C 74.5,68.8333 74.5,66.1667 74.5,63.5C 81.6866,63.1755 88.6866,63.5088 95.5,64.5 Z"/></g>
<g><path style="opacity:1" fill="#6dc8de" d="M 141.5,56.5 C 142.537,57.9303 143.204,59.597 143.5,61.5C 144.589,68.1167 144.756,74.7834 144,81.5C 143.892,85.4651 143.059,89.1317 141.5,92.5C 142.833,80.5 142.833,68.5 141.5,56.5 Z"/></g>
<g><path style="opacity:1" fill="#7da5cc" d="M 53.5,68.5 C 56.0094,69.9213 58.3428,71.5879 60.5,73.5C 61.1667,74.5 61.8333,75.5 62.5,76.5C 59.2085,74.5419 56.2085,72.2085 53.5,69.5C 53.5,69.1667 53.5,68.8333 53.5,68.5 Z"/></g>
<g><path style="opacity:1" fill="#282224" d="M 128.5,56.5 C 129.6,58.2774 130.434,60.2774 131,62.5C 131.499,68.1569 131.666,73.8236 131.5,79.5C 130.001,80.6782 129.001,82.3449 128.5,84.5C 127.808,83.9747 127.308,83.3081 127,82.5C 125.963,73.6243 126.463,64.9576 128.5,56.5 Z"/></g>
<g><path style="opacity:1" fill="#542430" d="M 129.5,42.5 C 130.167,42.8333 130.833,43.1667 131.5,43.5C 132.468,46.1003 133.801,48.4336 135.5,50.5C 137.123,53.2153 137.79,56.2153 137.5,59.5C 139.591,68.4388 139.924,77.4388 138.5,86.5C 138.5,86.8333 138.5,87.1667 138.5,87.5C 136.997,91.3411 135.664,95.3411 134.5,99.5C 134.5,100.167 134.5,100.833 134.5,101.5C 133.5,102.833 132.5,104.167 131.5,105.5C 133.638,98.2828 135.471,90.9495 137,83.5C 137.667,77.5 137.667,71.5 137,65.5C 137.094,61.3673 136.26,57.7006 134.5,54.5C 134.068,53.2905 133.401,52.2905 132.5,51.5C 132.461,48.4649 131.461,45.7982 129.5,43.5C 129.5,43.1667 129.5,42.8333 129.5,42.5 Z"/></g>
<g><path style="opacity:1" fill="#5979a0" d="M 10.5,61.5 C 10.5,62.1667 10.5,62.8333 10.5,63.5C 9.21359,71.1716 9.21359,78.8382 10.5,86.5C 10.1667,86.5 9.83333,86.5 9.5,86.5C 8.40321,79.2158 8.23655,71.8825 9,64.5C 9.23209,63.2625 9.73209,62.2625 10.5,61.5 Z"/></g>
<g><path style="opacity:1" fill="#787578" d="M 17.5,65.5 C 17.3646,72.8625 17.6979,80.1958 18.5,87.5C 19.1667,89.8333 19.8333,92.1667 20.5,94.5C 19.8826,94.3893 19.3826,94.056 19,93.5C 16.4805,84.1299 15.9805,74.7966 17.5,65.5 Z"/></g>
<g><path style="opacity:1" fill="#79c7ea" d="M 69.5,58.5 C 69.5,58.1667 69.5,57.8333 69.5,57.5C 80.1667,57.5 90.8333,57.5 101.5,57.5C 102.55,62.1138 102.717,66.7804 102,71.5C 99.9604,73.3702 98.1271,75.3702 96.5,77.5C 89.4921,77.3337 82.4921,77.5004 75.5,78C 76.056,78.3826 76.3893,78.8826 76.5,79.5C 75.5476,85.0748 75.2143,90.7414 75.5,96.5C 75.5,97.5 75.5,98.5 75.5,99.5C 74.508,92.0182 74.1746,84.3516 74.5,76.5C 81.5079,76.6663 88.5079,76.4996 95.5,76C 97,74.5 98.5,73 100,71.5C 100.499,67.1794 100.666,62.8461 100.5,58.5C 90.5,58.5 80.5,58.5 70.5,58.5C 70.1667,58.5 69.8333,58.5 69.5,58.5 Z"/></g>
<g><path style="opacity:1" fill="#969494" d="M 34.5,66.5 C 34.7402,72.227 34.4069,77.8936 33.5,83.5C 30.9976,84.7785 28.4976,84.7785 26,83.5C 25.5065,85.1341 25.3398,86.8008 25.5,88.5C 23.7716,82.7616 23.1049,76.7616 23.5,70.5C 24.3254,67.6282 25.1588,64.6282 26,61.5C 28.7191,62.4438 31.5525,62.7771 34.5,62.5C 34.5,63.8333 34.5,65.1667 34.5,66.5 Z"/></g>
<g><path style="opacity:1" fill="#687193" d="M 137.5,59.5 C 139.759,64.4676 140.759,69.8009 140.5,75.5C 140.706,79.4687 140.039,83.1354 138.5,86.5C 139.924,77.4388 139.591,68.4388 137.5,59.5 Z"/></g>
<g><path style="opacity:1" fill="#27225c" d="M 70.5,60.5 C 71.1667,64.8333 71.8333,69.1667 72.5,73.5C 79.3213,74.3285 86.3213,74.8285 93.5,75C 86.5079,75.4996 79.5079,75.6663 72.5,75.5C 72.5,80.8333 72.5,86.1667 72.5,91.5C 71.8333,91.5 71.1667,91.5 70.5,91.5C 70.81,88.2869 70.4767,85.2869 69.5,82.5C 67.7807,79.7805 65.4474,77.7805 62.5,76.5C 61.8333,75.5 61.1667,74.5 60.5,73.5C 60.62,72.4138 61.2867,71.7472 62.5,71.5C 64.571,72.6175 66.7377,73.6175 69,74.5C 69.7648,74.4301 70.2648,74.0967 70.5,73.5C 70.5,69.1667 70.5,64.8333 70.5,60.5 Z"/></g>
<g><path style="opacity:1" fill="#4e5055" d="M 36.5,63.5 C 35.6803,69.7974 35.347,76.1308 35.5,82.5C 35.5,83.1667 35.5,83.8333 35.5,84.5C 34.8333,84.1667 34.1667,83.8333 33.5,83.5C 34.4069,77.8936 34.7402,72.227 34.5,66.5C 35.1667,65.5 35.8333,64.5 36.5,63.5 Z"/></g>
<g><path style="opacity:1" fill="#6b84ab" d="M 51.5,66.5 C 50.8333,73.5 50.1667,80.5 49.5,87.5C 49.1694,80.1365 49.5027,72.8032 50.5,65.5C 51.1067,65.6236 51.44,65.9569 51.5,66.5 Z"/></g>
<g><path style="opacity:1" fill="#0d87b5" d="M 96.5,77.5 C 97.2341,78.7079 97.5674,80.0413 97.5,81.5C 91.1579,81.6662 84.8246,81.4995 78.5,81C 77.9558,80.2828 77.2891,79.7828 76.5,79.5C 76.3893,78.8826 76.056,78.3826 75.5,78C 82.4921,77.5004 89.4921,77.3337 96.5,77.5 Z"/></g>
<g><path style="opacity:1" fill="#0db5ea" d="M 53.5,68.5 C 53.5,68.8333 53.5,69.1667 53.5,69.5C 52.9569,69.56 52.6236,69.8933 52.5,70.5C 53.7629,72.0287 54.7629,73.6954 55.5,75.5C 56.4404,78.7143 57.9404,81.7143 60,84.5C 60.2474,90.8815 60.7474,97.2149 61.5,103.5C 60.5041,103.414 59.6708,103.748 59,104.5C 58.1411,97.4774 54.3078,93.1441 47.5,91.5C 47.0472,90.5416 46.3805,89.7083 45.5,89C 47.4727,88.5045 49.4727,88.3379 51.5,88.5C 50.8745,81.4163 51.5411,74.7496 53.5,68.5 Z"/></g>
<g><path style="opacity:1" fill="#81cbed" d="M 51.5,66.5 C 52.5,66.8333 53.1667,67.5 53.5,68.5C 51.5411,74.7496 50.8745,81.4163 51.5,88.5C 49.4727,88.3379 47.4727,88.5045 45.5,89C 46.3805,89.7083 47.0472,90.5416 47.5,91.5C 47.5,92.5 47.5,93.5 47.5,94.5C 46.6491,92.2903 45.3157,90.2903 43.5,88.5C 45.396,87.5344 47.396,87.2011 49.5,87.5C 50.1667,80.5 50.8333,73.5 51.5,66.5 Z"/></g>
<g><path style="opacity:1" fill="#2374a4" d="M 45.5,58.5 C 47.4698,66.7688 48.1364,75.4355 47.5,84.5C 44.4281,84.1826 41.4281,84.5159 38.5,85.5C 47.7907,100.43 56.7907,115.43 65.5,130.5C 66.8466,133.193 68.1799,135.86 69.5,138.5C 68.0236,140.432 66.3569,140.765 64.5,139.5C 65.4916,139.672 66.1583,139.338 66.5,138.5C 65.5241,134.489 63.1907,131.823 59.5,130.5C 60.404,129.791 60.7373,128.791 60.5,127.5C 59.9213,124.669 58.588,122.336 56.5,120.5C 53.9196,114.332 50.5863,108.665 46.5,103.5C 46.2503,101.326 45.2503,99.6594 43.5,98.5C 41.9998,94.827 39.9998,91.4937 37.5,88.5C 36.3473,87.6868 36.3473,86.6868 37.5,85.5C 37.0431,84.7025 36.3764,84.3691 35.5,84.5C 35.5,83.8333 35.5,83.1667 35.5,82.5C 38.8333,82.5 42.1667,82.5 45.5,82.5C 45.5,74.8333 45.5,67.1667 45.5,59.5C 45.5,59.1667 45.5,58.8333 45.5,58.5 Z"/></g>
<g><path style="opacity:1" fill="#0c0405" d="M 134.5,54.5 C 136.26,57.7006 137.094,61.3673 137,65.5C 137.667,71.5 137.667,77.5 137,83.5C 135.471,90.9495 133.638,98.2828 131.5,105.5C 130.222,105.782 129.222,106.449 128.5,107.5C 127.448,105.744 125.781,105.077 123.5,105.5C 124.441,103.95 125.107,102.284 125.5,100.5C 126.899,97.3707 128.565,94.3707 130.5,91.5C 132.616,85.6566 134.616,79.6566 136.5,73.5C 135.576,70.3017 134.576,67.135 133.5,64C 134.256,60.8752 134.589,57.7086 134.5,54.5 Z"/></g>
<g><path style="opacity:1" fill="#f3f8f8" d="M 8.5,50.5 C 7.29343,54.7862 6.29343,59.1195 5.5,63.5C 4.20972,72.3716 4.20972,81.3716 5.5,90.5C 7.59024,101.623 6.2569,102.289 1.5,92.5C 0.833333,90.8333 0.166667,89.1667 -0.5,87.5C -0.5,79.1667 -0.5,70.8333 -0.5,62.5C 0.838355,55.8201 3.17169,49.4868 6.5,43.5C 7.9669,42.7084 9.30024,42.7084 10.5,43.5C 9.05408,45.6179 8.38742,47.9512 8.5,50.5 Z"/></g>
<g><path style="opacity:1" fill="#0985b0" d="M 112.5,81.5 C 109.5,84.8333 106.5,88.1667 103.5,91.5C 101.565,88.6293 99.8988,85.6293 98.5,82.5C 99.0256,80.7697 100.026,79.4363 101.5,78.5C 103.679,77.8968 105.846,77.2301 108,76.5C 108.312,79.3092 109.812,80.9759 112.5,81.5 Z"/></g>
<g><path style="opacity:1" fill="#0484b4" d="M 55.5,75.5 C 57.3284,76.7945 59.3284,77.7945 61.5,78.5C 61.67,79.8221 61.3366,80.9887 60.5,82C 62.1341,82.4935 63.8008,82.6602 65.5,82.5C 66.1611,85.4877 66.8278,88.4877 67.5,91.5C 67.3333,92.5 67.1667,93.5 67,94.5C 64.7042,91.6119 63.5376,92.1119 63.5,96C 61.5437,99.5684 62.2103,102.402 65.5,104.5C 65.1445,105.522 64.4778,106.189 63.5,106.5C 62.8333,105.5 62.1667,104.5 61.5,103.5C 60.7474,97.2149 60.2474,90.8815 60,84.5C 57.9404,81.7143 56.4404,78.7143 55.5,75.5 Z"/></g>
<g><path style="opacity:1" fill="#22336a" d="M 109.5,91.5 C 107.704,92.7927 106.037,94.2927 104.5,96C 98.5092,96.4995 92.5092,96.6662 86.5,96.5C 82.8333,101.167 79.1667,105.833 75.5,110.5C 75.4729,108.801 74.8062,107.467 73.5,106.5C 75.0174,106.489 76.1841,105.823 77,104.5C 79.3773,100.912 81.8773,97.412 84.5,94C 91.0133,93.8279 97.3466,93.3279 103.5,92.5C 108.131,88.3701 112.631,84.0367 117,79.5C 117.5,68.1716 117.667,56.8382 117.5,45.5C 118.117,45.3893 118.617,45.056 119,44.5C 120.581,56.4422 120.915,68.4422 120,80.5C 116.296,84.0357 112.796,87.7024 109.5,91.5 Z"/></g>
<g><path style="opacity:1" fill="#b1e5ee" d="M 5.5,63.5 C 5.17464,71.3516 5.50797,79.0182 6.5,86.5C 6.99255,88.8056 7.32588,91.139 7.5,93.5C 6.83333,92.5 6.16667,91.5 5.5,90.5C 4.20972,81.3716 4.20972,72.3716 5.5,63.5 Z"/></g>
<g><path style="opacity:1" fill="#25bff9" d="M 98.5,82.5 C 99.8988,85.6293 101.565,88.6293 103.5,91.5C 103.5,91.8333 103.5,92.1667 103.5,92.5C 96.8333,92.5 90.1667,92.5 83.5,92.5C 83.2041,90.597 82.5375,88.9303 81.5,87.5C 81.5,85.8333 81.5,84.1667 81.5,82.5C 87.1667,82.5 92.8333,82.5 98.5,82.5 Z"/></g>
<g><path style="opacity:1" fill="#1f4860" d="M 122.5,81.5 C 118.167,86.1667 113.833,90.8333 109.5,95.5C 108.167,96.8333 106.833,98.1667 105.5,99.5C 99.2657,98.1927 92.9324,98.1927 86.5,99.5C 86.5,98.8333 86.5,98.1667 86.5,97.5C 92.8421,97.6662 99.1754,97.4995 105.5,97C 107.373,95.2962 109.04,93.4628 110.5,91.5C 114.227,87.7668 118.227,84.4335 122.5,81.5 Z"/></g>
<g><path style="opacity:1" fill="#68a9ce" d="M 62.5,76.5 C 65.4474,77.7805 67.7807,79.7805 69.5,82.5C 69.6666,98.5035 69.4999,114.503 69,130.5C 68.6174,129.944 68.1174,129.611 67.5,129.5C 64.1545,123.473 60.8212,117.473 57.5,111.5C 59.906,114.256 62.2393,117.256 64.5,120.5C 65.2975,120.043 65.6309,119.376 65.5,118.5C 66.4098,120.019 67.2432,121.685 68,123.5C 68.6667,109.833 68.6667,96.1667 68,82.5C 65.91,80.5837 64.0767,78.5837 62.5,76.5 Z"/></g>
<g><path style="opacity:1" fill="#0d0708" d="M 20.5,40.5 C 23.5899,41.2093 24.9232,42.876 24.5,45.5C 22.8941,48.3785 21.5608,51.3785 20.5,54.5C 18.5275,57.0836 17.5275,60.0836 17.5,63.5C 17.5,64.1667 17.5,64.8333 17.5,65.5C 15.9805,74.7966 16.4805,84.1299 19,93.5C 19.3826,94.056 19.8826,94.3893 20.5,94.5C 21.1667,96.5 21.8333,98.5 22.5,100.5C 22.6323,103.57 22.299,106.57 21.5,109.5C 12.6097,95.1903 9.60967,79.5237 12.5,62.5C 14.0529,54.7341 16.7195,47.4008 20.5,40.5 Z"/></g>
<g><path style="opacity:1" fill="#1d3648" d="M 37.5,88.5 C 39.9998,91.4937 41.9998,94.827 43.5,98.5C 40.2833,95.9385 38.2833,92.6052 37.5,88.5 Z"/></g>
<g><path style="opacity:1" fill="#757878" d="M 122.5,58.5 C 123.966,59.347 124.8,60.6803 125,62.5C 125.5,70.1594 125.666,77.8261 125.5,85.5C 123.817,88.5765 122.483,91.9098 121.5,95.5C 117.308,97.5734 113.308,97.5734 109.5,95.5C 113.833,90.8333 118.167,86.1667 122.5,81.5C 122.5,73.8333 122.5,66.1667 122.5,58.5 Z"/></g>
<g><path style="opacity:0.812" fill="#718da3" d="M 148.5,87.5 C 148.833,87.5 149.167,87.5 149.5,87.5C 149.416,91.8371 148.416,95.8371 146.5,99.5C 146.782,95.426 147.448,91.426 148.5,87.5 Z"/></g>
<g><path style="opacity:1" fill="#dcdbdb" d="M 23.5,66.5 C 23.5,67.8333 23.5,69.1667 23.5,70.5C 23.1049,76.7616 23.7716,82.7616 25.5,88.5C 26.954,95.4083 29.954,101.408 34.5,106.5C 36.4528,110.12 39.1195,113.12 42.5,115.5C 42.4802,117.143 43.1468,118.476 44.5,119.5C 44,119.833 43.5,120.167 43,120.5C 41.4329,119.144 39.5996,118.477 37.5,118.5C 35.629,118.141 34.129,117.141 33,115.5C 28.9852,110.783 25.4852,105.783 22.5,100.5C 21.8333,98.5 21.1667,96.5 20.5,94.5C 19.8333,92.1667 19.1667,89.8333 18.5,87.5C 19.8221,87.67 20.9887,87.3366 22,86.5C 22.1717,79.654 22.6717,72.9874 23.5,66.5 Z"/></g>
<g><path style="opacity:1" fill="#1588b3" d="M 81.5,87.5 C 82.5375,88.9303 83.2041,90.597 83.5,92.5C 81.2167,95.9563 78.7167,99.2896 76,102.5C 75.5172,101.552 75.3505,100.552 75.5,99.5C 75.5,98.5 75.5,97.5 75.5,96.5C 76.92,94.1137 77.92,91.447 78.5,88.5C 79.4168,87.8728 80.4168,87.5394 81.5,87.5 Z"/></g>
<g><path style="opacity:1" fill="#5e7591" d="M 138.5,87.5 C 138.992,92.236 137.658,96.236 134.5,99.5C 135.664,95.3411 136.997,91.3411 138.5,87.5 Z"/></g>
<g><path style="opacity:1" fill="#727072" d="M 33.5,83.5 C 34.1667,83.8333 34.8333,84.1667 35.5,84.5C 36.3764,84.3691 37.0431,84.7025 37.5,85.5C 36.3473,86.6868 36.3473,87.6868 37.5,88.5C 38.2833,92.6052 40.2833,95.9385 43.5,98.5C 43.2343,102.079 41.901,102.413 39.5,99.5C 38.5481,101.045 38.2148,102.712 38.5,104.5C 37.1779,104.67 36.0113,104.337 35,103.5C 34.5172,104.448 34.3505,105.448 34.5,106.5C 29.954,101.408 26.954,95.4083 25.5,88.5C 25.3398,86.8008 25.5065,85.1341 26,83.5C 28.4976,84.7785 30.9976,84.7785 33.5,83.5 Z"/></g>
<g><path style="opacity:1" fill="#2bbcf0" d="M 47.5,91.5 C 54.3078,93.1441 58.1411,97.4774 59,104.5C 59.6708,103.748 60.5041,103.414 61.5,103.5C 62.1667,104.5 62.8333,105.5 63.5,106.5C 63.5291,110.64 64.1958,114.64 65.5,118.5C 65.6309,119.376 65.2975,120.043 64.5,120.5C 62.2393,117.256 59.906,114.256 57.5,111.5C 53.901,105.966 50.5677,100.299 47.5,94.5C 47.5,93.5 47.5,92.5 47.5,91.5 Z"/></g>
<g><path style="opacity:1" fill="#292b2a" d="M 122.5,44.5 C 122.833,44.5 123.167,44.5 123.5,44.5C 124.263,46.3684 125.263,48.0351 126.5,49.5C 127.566,51.7014 128.233,54.0347 128.5,56.5C 126.463,64.9576 125.963,73.6243 127,82.5C 127.308,83.3081 127.808,83.9747 128.5,84.5C 129.001,82.3449 130.001,80.6782 131.5,79.5C 131.167,83.5 130.833,87.5 130.5,91.5C 128.565,94.3707 126.899,97.3707 125.5,100.5C 125.232,97.8806 125.565,95.3806 126.5,93C 125.692,92.6924 125.025,92.1924 124.5,91.5C 129.541,91.2382 129.875,89.2382 125.5,85.5C 125.666,77.8261 125.5,70.1594 125,62.5C 124.8,60.6803 123.966,59.347 122.5,58.5C 122.5,53.8333 122.5,49.1667 122.5,44.5 Z"/></g>
<g><path style="opacity:1" fill="#2998c7" d="M 109.5,91.5 C 109.833,91.5 110.167,91.5 110.5,91.5C 109.04,93.4628 107.373,95.2962 105.5,97C 99.1754,97.4995 92.8421,97.6662 86.5,97.5C 86.5,97.1667 86.5,96.8333 86.5,96.5C 92.5092,96.6662 98.5092,96.4995 104.5,96C 106.037,94.2927 107.704,92.7927 109.5,91.5 Z"/></g>
<g><path style="opacity:1" fill="#383537" d="M 125.5,85.5 C 129.875,89.2382 129.541,91.2382 124.5,91.5C 125.025,92.1924 125.692,92.6924 126.5,93C 125.565,95.3806 125.232,97.8806 125.5,100.5C 125.107,102.284 124.441,103.95 123.5,105.5C 121.737,108.02 119.737,110.353 117.5,112.5C 116.637,110.579 115.971,108.579 115.5,106.5C 117.5,102.833 119.5,99.1667 121.5,95.5C 122.483,91.9098 123.817,88.5765 125.5,85.5 Z"/></g>
<g><path style="opacity:1" fill="#06060c" d="M 105.5,99.5 C 104.167,101.167 102.833,102.833 101.5,104.5C 94.1352,110.179 85.8019,113.512 76.5,114.5C 76.5,114.167 76.5,113.833 76.5,113.5C 79.4775,108.531 82.8108,103.865 86.5,99.5C 92.9324,98.1927 99.2657,98.1927 105.5,99.5 Z"/></g>
<g><path style="opacity:1" fill="#e9f2f4" d="M 5.5,90.5 C 6.16667,91.5 6.83333,92.5 7.5,93.5C 8.26349,97.1368 9.59682,100.47 11.5,103.5C 12.8333,106.167 14.1667,108.833 15.5,111.5C 17.5,114.5 19.5,117.5 21.5,120.5C 18.2033,120.368 16.5367,118.702 16.5,115.5C 14.8333,115.5 13.1667,115.5 11.5,115.5C 6.28227,108.724 2.94894,101.057 1.5,92.5C 6.2569,102.289 7.59024,101.623 5.5,90.5 Z"/></g>
<g><path style="opacity:1" fill="#368cbd" d="M 9.5,86.5 C 9.83333,86.5 10.1667,86.5 10.5,86.5C 11.7512,94.9324 14.7512,102.599 19.5,109.5C 18.1667,110.167 16.8333,110.833 15.5,111.5C 14.1667,108.833 12.8333,106.167 11.5,103.5C 11.7127,99.8045 10.7127,96.4711 8.5,93.5C 9.22336,91.2178 9.55669,88.8845 9.5,86.5 Z"/></g>
<g><path style="opacity:1" fill="#6f9fc0" d="M 74.5,76.5 C 74.1746,84.3516 74.508,92.0182 75.5,99.5C 75.3505,100.552 75.5172,101.552 76,102.5C 78.7167,99.2896 81.2167,95.9563 83.5,92.5C 90.1667,92.5 96.8333,92.5 103.5,92.5C 97.3466,93.3279 91.0133,93.8279 84.5,94C 81.8773,97.412 79.3773,100.912 77,104.5C 76.1841,105.823 75.0174,106.489 73.5,106.5C 73.5,106.167 73.5,105.833 73.5,105.5C 73.1729,95.6522 73.5062,85.9856 74.5,76.5 Z"/></g>
<g><path style="opacity:1" fill="#5a5a5b" d="M 43.5,98.5 C 45.2503,99.6594 46.2503,101.326 46.5,103.5C 48.3277,107.996 50.3277,112.496 52.5,117C 53.6449,118.402 54.9783,119.569 56.5,120.5C 58.588,122.336 59.9213,124.669 60.5,127.5C 59.1634,126.685 58.1634,125.518 57.5,124C 52.1479,121.661 47.1479,118.828 42.5,115.5C 39.1195,113.12 36.4528,110.12 34.5,106.5C 34.3505,105.448 34.5172,104.448 35,103.5C 36.0113,104.337 37.1779,104.67 38.5,104.5C 38.2148,102.712 38.5481,101.045 39.5,99.5C 41.901,102.413 43.2343,102.079 43.5,98.5 Z"/></g>
<g><path style="opacity:1" fill="#646262" d="M 109.5,95.5 C 113.308,97.5734 117.308,97.5734 121.5,95.5C 119.5,99.1667 117.5,102.833 115.5,106.5C 110.812,105.48 106.145,105.813 101.5,107.5C 100.913,106.767 100.913,105.767 101.5,104.5C 102.833,102.833 104.167,101.167 105.5,99.5C 106.833,98.1667 108.167,96.8333 109.5,95.5 Z"/></g>
<g><path style="opacity:0.847" fill="#7c8293" d="M 146.5,99.5 C 145.958,102.912 144.625,105.912 142.5,108.5C 142.5,107.833 142.5,107.167 142.5,106.5C 143.095,103.683 144.428,101.35 146.5,99.5 Z"/></g>
<g><path style="opacity:1" fill="#1287af" d="M 53.5,69.5 C 56.2085,72.2085 59.2085,74.5419 62.5,76.5C 64.0767,78.5837 65.91,80.5837 68,82.5C 68.6667,96.1667 68.6667,109.833 68,123.5C 67.2432,121.685 66.4098,120.019 65.5,118.5C 64.1958,114.64 63.5291,110.64 63.5,106.5C 64.4778,106.189 65.1445,105.522 65.5,104.5C 62.2103,102.402 61.5437,99.5684 63.5,96C 63.5376,92.1119 64.7042,91.6119 67,94.5C 67.1667,93.5 67.3333,92.5 67.5,91.5C 66.8278,88.4877 66.1611,85.4877 65.5,82.5C 63.8008,82.6602 62.1341,82.4935 60.5,82C 61.3366,80.9887 61.67,79.8221 61.5,78.5C 59.3284,77.7945 57.3284,76.7945 55.5,75.5C 54.7629,73.6954 53.7629,72.0287 52.5,70.5C 52.6236,69.8933 52.9569,69.56 53.5,69.5 Z"/></g>
<g><path style="opacity:1" fill="#27485e" d="M 46.5,103.5 C 50.5863,108.665 53.9196,114.332 56.5,120.5C 54.9783,119.569 53.6449,118.402 52.5,117C 50.3277,112.496 48.3277,107.996 46.5,103.5 Z"/></g>
<g><path style="opacity:1" fill="#246d9d" d="M 86.5,96.5 C 86.5,96.8333 86.5,97.1667 86.5,97.5C 86.5,98.1667 86.5,98.8333 86.5,99.5C 82.8108,103.865 79.4775,108.531 76.5,113.5C 75.5151,117.634 75.1818,121.968 75.5,126.5C 75.5,128.5 75.5,130.5 75.5,132.5C 75.5,134.5 75.5,136.5 75.5,138.5C 75.5,138.833 75.5,139.167 75.5,139.5C 74.5,139.5 73.5,139.5 72.5,139.5C 72.3336,131.16 72.5003,122.827 73,114.5C 73.6622,113.016 74.4955,111.683 75.5,110.5C 79.1667,105.833 82.8333,101.167 86.5,96.5 Z"/></g>
<g><path style="opacity:1" fill="#535151" d="M 101.5,104.5 C 100.913,105.767 100.913,106.767 101.5,107.5C 106.145,105.813 110.812,105.48 115.5,106.5C 115.971,108.579 116.637,110.579 117.5,112.5C 111.216,120.429 103.216,126.096 93.5,129.5C 93.2606,127.533 93.5939,125.699 94.5,124C 93.9056,123.536 93.2389,123.369 92.5,123.5C 95.0745,122.536 97.4078,121.036 99.5,119C 92.7833,118.796 86.1166,118.296 79.5,117.5C 77.1052,118.523 76.1052,117.523 76.5,114.5C 85.8019,113.512 94.1352,110.179 101.5,104.5 Z"/></g>
<g><path style="opacity:0.529" fill="#586675" d="M 140.5,112.5 C 140.573,114.027 139.906,115.027 138.5,115.5C 138.427,113.973 139.094,112.973 140.5,112.5 Z"/></g>
<g><path style="opacity:1" fill="#536095" d="M 69.5,82.5 C 70.4767,85.2869 70.81,88.2869 70.5,91.5C 70.8325,105.183 70.4992,118.85 69.5,132.5C 68.0815,131.995 67.4148,130.995 67.5,129.5C 68.1174,129.611 68.6174,129.944 69,130.5C 69.4999,114.503 69.6666,98.5035 69.5,82.5 Z"/></g>
<g><path style="opacity:1" fill="#222562" d="M 70.5,91.5 C 71.1667,91.5 71.8333,91.5 72.5,91.5C 72.1805,96.3633 72.5139,101.03 73.5,105.5C 73.5,105.833 73.5,106.167 73.5,106.5C 74.8062,107.467 75.4729,108.801 75.5,110.5C 74.4955,111.683 73.6622,113.016 73,114.5C 72.5003,122.827 72.3336,131.16 72.5,139.5C 72.5,140.833 71.8333,141.5 70.5,141.5C 70.4431,140.391 70.1098,139.391 69.5,138.5C 68.1799,135.86 66.8466,133.193 65.5,130.5C 65.8417,129.662 66.5084,129.328 67.5,129.5C 67.4148,130.995 68.0815,131.995 69.5,132.5C 70.4992,118.85 70.8325,105.183 70.5,91.5 Z"/></g>
<g><path style="opacity:1" fill="#6b2c3d" d="M 12.5,62.5 C 9.60967,79.5237 12.6097,95.1903 21.5,109.5C 31.0185,122.702 43.3518,132.035 58.5,137.5C 51.6319,136.564 45.2985,134.23 39.5,130.5C 31.4283,124.764 24.7617,117.764 19.5,109.5C 14.7512,102.599 11.7512,94.9324 10.5,86.5C 9.21359,78.8382 9.21359,71.1716 10.5,63.5C 11.1667,63.1667 11.8333,62.8333 12.5,62.5 Z"/></g>
<g><path style="opacity:1" fill="#3886a8" d="M 19.5,109.5 C 24.7617,117.764 31.4283,124.764 39.5,130.5C 39.573,132.027 38.9063,133.027 37.5,133.5C 31.606,129.948 26.2727,125.614 21.5,120.5C 19.5,117.5 17.5,114.5 15.5,111.5C 16.8333,110.833 18.1667,110.167 19.5,109.5 Z"/></g>
<g><path style="opacity:1" fill="#642431" d="M 131.5,105.5 C 127.286,114.237 121.286,121.737 113.5,128C 110.438,129.205 107.438,130.372 104.5,131.5C 114.473,125.527 122.473,117.527 128.5,107.5C 129.222,106.449 130.222,105.782 131.5,105.5 Z"/></g>
<g><path style="opacity:1" fill="#100b0d" d="M 22.5,100.5 C 25.4852,105.783 28.9852,110.783 33,115.5C 34.129,117.141 35.629,118.141 37.5,118.5C 43.6183,124.562 50.9517,128.562 59.5,130.5C 63.1907,131.823 65.5241,134.489 66.5,138.5C 63.9455,137.612 61.2788,137.279 58.5,137.5C 43.3518,132.035 31.0185,122.702 21.5,109.5C 22.299,106.57 22.6323,103.57 22.5,100.5 Z"/></g>
<g><path style="opacity:1" fill="#0b070a" d="M 123.5,105.5 C 125.781,105.077 127.448,105.744 128.5,107.5C 122.473,117.527 114.473,125.527 104.5,131.5C 98.7595,133.523 93.0928,135.523 87.5,137.5C 83.5341,138.162 79.5341,138.495 75.5,138.5C 75.5,136.5 75.5,134.5 75.5,132.5C 81.6198,132.147 87.6198,131.147 93.5,129.5C 103.216,126.096 111.216,120.429 117.5,112.5C 119.737,110.353 121.737,108.02 123.5,105.5 Z"/></g>
<g><path style="opacity:1" fill="#454446" d="M 76.5,113.5 C 76.5,113.833 76.5,114.167 76.5,114.5C 76.1052,117.523 77.1052,118.523 79.5,117.5C 86.1166,118.296 92.7833,118.796 99.5,119C 97.4078,121.036 95.0745,122.536 92.5,123.5C 86.9809,125.296 81.3142,126.296 75.5,126.5C 75.1818,121.968 75.5151,117.634 76.5,113.5 Z"/></g>
<g><path style="opacity:1" fill="#e2edef" d="M 142.5,106.5 C 142.5,107.167 142.5,107.833 142.5,108.5C 142.34,110.153 141.674,111.486 140.5,112.5C 139.094,112.973 138.427,113.973 138.5,115.5C 137.567,118.37 135.9,120.704 133.5,122.5C 131.413,123.585 130.08,125.251 129.5,127.5C 127.856,127.714 126.356,127.38 125,126.5C 124.626,127.416 124.126,128.25 123.5,129C 120.929,129.901 118.596,131.234 116.5,133C 119.051,134.516 118.718,135.349 115.5,135.5C 115.5,136.5 115.5,137.5 115.5,138.5C 110.097,142.535 104.097,145.535 97.5,147.5C 96.7496,144.046 95.2496,143.713 93,146.5C 91.1886,145.576 91.3553,144.743 93.5,144C 91.8659,143.506 90.1992,143.34 88.5,143.5C 88.5,143.167 88.5,142.833 88.5,142.5C 103.523,139.658 116.189,132.658 126.5,121.5C 128.833,120.833 131.167,120.167 133.5,119.5C 133.5,118.5 133.5,117.5 133.5,116.5C 134.552,116.649 135.552,116.483 136.5,116C 134.965,112.259 136.299,110.426 140.5,110.5C 140.157,108.517 140.824,107.183 142.5,106.5 Z"/></g>
<g><path style="opacity:1" fill="#b9b7b8" d="M 42.5,115.5 C 47.1479,118.828 52.1479,121.661 57.5,124C 58.1634,125.518 59.1634,126.685 60.5,127.5C 60.7373,128.791 60.404,129.791 59.5,130.5C 50.9517,128.562 43.6183,124.562 37.5,118.5C 39.5996,118.477 41.4329,119.144 43,120.5C 43.5,120.167 44,119.833 44.5,119.5C 43.1468,118.476 42.4802,117.143 42.5,115.5 Z"/></g>
<g><path style="opacity:1" fill="#358ab2" d="M 134.5,101.5 C 134.5,104.167 134.5,106.833 134.5,109.5C 132.256,113.751 129.589,117.751 126.5,121.5C 116.189,132.658 103.523,139.658 88.5,142.5C 85.8127,142.664 83.146,142.497 80.5,142C 79.944,141.617 79.6107,141.117 79.5,140.5C 83.7485,140.047 87.7485,139.047 91.5,137.5C 95.3641,136.898 99.0308,135.732 102.5,134C 103.381,133.292 104.047,132.458 104.5,131.5C 107.438,130.372 110.438,129.205 113.5,128C 121.286,121.737 127.286,114.237 131.5,105.5C 132.5,104.167 133.5,102.833 134.5,101.5 Z"/></g>
<g><path style="opacity:0.259" fill="#50646f" d="M 133.5,122.5 C 132.92,124.749 131.587,126.415 129.5,127.5C 130.08,125.251 131.413,123.585 133.5,122.5 Z"/></g>
<g><path style="opacity:1" fill="#787777" d="M 92.5,123.5 C 93.2389,123.369 93.9056,123.536 94.5,124C 93.5939,125.699 93.2606,127.533 93.5,129.5C 87.6198,131.147 81.6198,132.147 75.5,132.5C 75.5,130.5 75.5,128.5 75.5,126.5C 81.3142,126.296 86.9809,125.296 92.5,123.5 Z"/></g>
<g><path style="opacity:1" fill="#c5cdd2" d="M 129.5,127.5 C 125.568,132.129 120.901,135.796 115.5,138.5C 115.5,137.5 115.5,136.5 115.5,135.5C 118.718,135.349 119.051,134.516 116.5,133C 118.596,131.234 120.929,129.901 123.5,129C 124.126,128.25 124.626,127.416 125,126.5C 126.356,127.38 127.856,127.714 129.5,127.5 Z"/></g>
<g><path style="opacity:1" fill="#3689b3" d="M 39.5,130.5 C 45.2985,134.23 51.6319,136.564 58.5,137.5C 60.2143,138.738 62.2143,139.405 64.5,139.5C 66.3569,140.765 68.0236,140.432 69.5,138.5C 70.1098,139.391 70.4431,140.391 70.5,141.5C 64.1308,141.653 57.7974,141.32 51.5,140.5C 46.2361,139.201 41.5694,136.868 37.5,133.5C 38.9063,133.027 39.573,132.027 39.5,130.5 Z"/></g>
<g><path style="opacity:1" fill="#edf2f3" d="M 11.5,115.5 C 13.1667,115.5 14.8333,115.5 16.5,115.5C 16.5367,118.702 18.2033,120.368 21.5,120.5C 26.2727,125.614 31.606,129.948 37.5,133.5C 41.5694,136.868 46.2361,139.201 51.5,140.5C 52.5,141.167 53.5,141.833 54.5,142.5C 51.103,141.808 47.7697,141.808 44.5,142.5C 45.9935,143.141 46.9935,144.141 47.5,145.5C 31.8942,139.714 19.8942,129.714 11.5,115.5 Z"/></g>
<g><path style="opacity:1" fill="#70243b" d="M 104.5,131.5 C 104.047,132.458 103.381,133.292 102.5,134C 99.0308,135.732 95.3641,136.898 91.5,137.5C 90.1667,137.5 88.8333,137.5 87.5,137.5C 93.0928,135.523 98.7595,133.523 104.5,131.5 Z"/></g>
<g><path style="opacity:1" fill="#76506f" d="M 58.5,137.5 C 61.2788,137.279 63.9455,137.612 66.5,138.5C 66.1583,139.338 65.4916,139.672 64.5,139.5C 62.2143,139.405 60.2143,138.738 58.5,137.5 Z"/></g>
<g><path style="opacity:1" fill="#7e597f" d="M 87.5,137.5 C 88.8333,137.5 90.1667,137.5 91.5,137.5C 87.7485,139.047 83.7485,140.047 79.5,140.5C 77.901,140.768 76.5676,140.434 75.5,139.5C 75.5,139.167 75.5,138.833 75.5,138.5C 79.5341,138.495 83.5341,138.162 87.5,137.5 Z"/></g>
<g><path style="opacity:1" fill="#65bbda" d="M 72.5,139.5 C 73.5,139.5 74.5,139.5 75.5,139.5C 76.5676,140.434 77.901,140.768 79.5,140.5C 79.6107,141.117 79.944,141.617 80.5,142C 83.146,142.497 85.8127,142.664 88.5,142.5C 88.5,142.833 88.5,143.167 88.5,143.5C 82.5253,143.884 76.6919,144.884 71,146.5C 65.8421,144.098 60.3421,142.765 54.5,142.5C 53.5,141.833 52.5,141.167 51.5,140.5C 57.7974,141.32 64.1308,141.653 70.5,141.5C 71.8333,141.5 72.5,140.833 72.5,139.5 Z"/></g>
<g><path style="opacity:0.835" fill="#f4fbfa" d="M 54.5,142.5 C 60.3421,142.765 65.8421,144.098 71,146.5C 76.6919,144.884 82.5253,143.884 88.5,143.5C 90.1992,143.34 91.8659,143.506 93.5,144C 91.3553,144.743 91.1886,145.576 93,146.5C 95.2496,143.713 96.7496,144.046 97.5,147.5C 94.0764,148.51 90.7431,149.51 87.5,150.5C 79.1667,150.5 70.8333,150.5 62.5,150.5C 57.3605,149.297 52.3605,147.631 47.5,145.5C 46.9935,144.141 45.9935,143.141 44.5,142.5C 47.7697,141.808 51.103,141.808 54.5,142.5 Z"/></g>
</svg>
