<?xml version="1.0" encoding="UTF-8"?>
<!DOCTYPE svg PUBLIC "-//W3C//DTD SVG 1.1//EN" "http://www.w3.org/Graphics/SVG/1.1/DTD/svg11.dtd">
<svg xmlns="http://www.w3.org/2000/svg" version="1.1" width="512px" height="512px" style="shape-rendering:geometricPrecision; text-rendering:geometricPrecision; image-rendering:optimizeQuality; fill-rule:evenodd; clip-rule:evenodd" xmlns:xlink="http://www.w3.org/1999/xlink">
<g><path style="opacity:0.004" fill="#fecd2a" d="M 306.5,3.5 C 307.601,2.40168 308.934,2.23502 310.5,3C 309.207,3.49001 307.873,3.65668 306.5,3.5 Z"/></g>
<g><path style="opacity:0.004" fill="#fed427" d="M 193.5,4.5 C 194.251,3.42654 195.251,3.25988 196.5,4C 195.552,4.48278 194.552,4.64945 193.5,4.5 Z"/></g>
<g><path style="opacity:0.004" fill="#fed427" d="M 314.5,4.5 C 315.251,3.42654 316.251,3.25988 317.5,4C 316.552,4.48278 315.552,4.64945 314.5,4.5 Z"/></g>
<g><path style="opacity:0.004" fill="#fed427" d="M 330.5,9.5 C 331.251,8.42654 332.251,8.25988 333.5,9C 332.552,9.48278 331.552,9.64945 330.5,9.5 Z"/></g>
<g><path style="opacity:0.012" fill="#fdc02e" d="M 175.5,10.5 C 174.761,10.631 174.094,10.4643 173.5,10C 174.437,9.30831 175.103,9.47498 175.5,10.5 Z"/></g>
<g><path style="opacity:0.004" fill="#feca2b" d="M 335.5,10.5 C 335.897,9.47498 336.563,9.30831 337.5,10C 336.906,10.4643 336.239,10.631 335.5,10.5 Z"/></g>
<g><path style="opacity:0.02" fill="#f6b435" d="M 170.5,11.5 C 170.897,10.475 171.563,10.3083 172.5,11C 171.906,11.4643 171.239,11.631 170.5,11.5 Z"/></g>
<g><path style="opacity:0.012" fill="#f9b533" d="M 340.5,11.5 C 339.761,11.631 339.094,11.4643 338.5,11C 339.437,10.3083 340.103,10.475 340.5,11.5 Z"/></g>
<g><path style="opacity:0.012" fill="#fbb630" d="M 345.5,14.5 C 345.5,14.1667 345.5,13.8333 345.5,13.5C 348.167,13.8333 348.167,14.1667 345.5,14.5 Z"/></g>
<g><path style="opacity:0.004" fill="#fed427" d="M 162.5,15.5 C 161.761,15.631 161.094,15.4643 160.5,15C 161.437,14.3083 162.103,14.475 162.5,15.5 Z"/></g>
<g><path style="opacity:0.004" fill="#fed427" d="M 348.5,15.5 C 348.897,14.475 349.563,14.3083 350.5,15C 349.906,15.4643 349.239,15.631 348.5,15.5 Z"/></g>
<g><path style="opacity:1" fill="#f9ac14" d="M 227.5,-0.5 C 246.167,-0.5 264.833,-0.5 283.5,-0.5C 291.021,0.921013 298.687,2.25435 306.5,3.5C 314.441,5.24868 322.441,7.24868 330.5,9.5C 331.919,10.4511 333.585,10.7845 335.5,10.5C 336.995,12.345 338.662,12.6783 340.5,11.5C 342.553,11.4021 344.22,12.0687 345.5,13.5C 342.833,13.8333 342.833,14.1667 345.5,14.5C 346.209,15.404 347.209,15.7373 348.5,15.5C 349.641,16.339 350.974,17.0057 352.5,17.5C 356.076,16.7554 359.41,17.5888 362.5,20C 361.833,20.3333 361.167,20.6667 360.5,21C 362.743,22.1362 365.076,22.9695 367.5,23.5C 367.5,24.1667 367.833,24.5 368.5,24.5C 369.514,25.6737 370.847,26.3404 372.5,26.5C 376.068,29.1313 379.735,30.798 383.5,31.5C 382.167,31.8333 382.167,32.1667 383.5,32.5C 385.663,34.0828 387.996,35.4161 390.5,36.5C 390.5,37.1667 390.833,37.5 391.5,37.5C 391.842,38.3382 392.508,38.6716 393.5,38.5C 396.291,40.7349 399.291,42.7349 402.5,44.5C 402.973,45.9063 403.973,46.573 405.5,46.5C 405.5,47.1667 405.833,47.5 406.5,47.5C 408.833,49.5 411.167,51.5 413.5,53.5C 412.671,54.3324 411.838,53.999 411,52.5C 359.377,53.8311 307.544,54.4978 255.5,54.5C 202.583,54.4913 150.249,53.8246 98.5,52.5C 100.5,50.8333 102.5,49.1667 104.5,47.5C 105.167,47.5 105.5,47.1667 105.5,46.5C 110.175,43.4969 114.841,40.4969 119.5,37.5C 120.167,37.5 120.5,37.1667 120.5,36.5C 122.78,35.3599 125.114,34.1932 127.5,33C 127.833,32 128.167,31 128.5,30C 133.591,29.6349 138.258,27.8016 142.5,24.5C 143.167,24.5 143.5,24.1667 143.5,23.5C 145.924,22.9695 148.257,22.1362 150.5,21C 149.833,20.6667 149.167,20.3333 148.5,20C 151.59,17.5888 154.924,16.7554 158.5,17.5C 160.026,17.0057 161.359,16.339 162.5,15.5C 165.167,14.1667 167.833,12.8333 170.5,11.5C 172.338,12.6783 174.005,12.345 175.5,10.5C 192.781,6.08584 210.114,2.41917 227.5,-0.5 Z"/></g>
<g><path style="opacity:0.004" fill="#fed427" d="M 146.5,20.5 C 147.833,21.1667 147.833,21.1667 146.5,20.5 Z"/></g>
<g><path style="opacity:0.004" fill="#fed427" d="M 363.5,20.5 C 364.833,21.1667 364.833,21.1667 363.5,20.5 Z"/></g>
<g><path style="opacity:0.012" fill="#f9ba32" d="M 143.5,23.5 C 142.833,23.5 142.5,23.8333 142.5,24.5C 140.025,24.2533 140.025,23.5866 142.5,22.5C 143.107,22.6236 143.44,22.9569 143.5,23.5 Z"/></g>
<g><path style="opacity:0.02" fill="#f7bb33" d="M 367.5,23.5 C 368.497,22.2875 369.497,22.4542 370.5,24C 369.906,24.4643 369.239,24.631 368.5,24.5C 367.833,24.5 367.5,24.1667 367.5,23.5 Z"/></g>
<g><path style="opacity:0.004" fill="#fbc82e" d="M 372.5,26.5 C 372.897,25.475 373.563,25.3083 374.5,26C 373.906,26.4643 373.239,26.631 372.5,26.5 Z"/></g>
<g><path style="opacity:0.004" fill="#fed427" d="M 134.5,26.5 C 135.833,27.1667 135.833,27.1667 134.5,26.5 Z"/></g>
<g><path style="opacity:0.004" fill="#fed427" d="M 375.5,26.5 C 376.833,27.1667 376.833,27.1667 375.5,26.5 Z"/></g>
<g><path style="opacity:0.012" fill="#fbb630" d="M 132.5,27.5 C 133.833,28.1667 133.833,28.1667 132.5,27.5 Z"/></g>
<g><path style="opacity:0.012" fill="#fbb630" d="M 377.5,27.5 C 378.833,28.1667 378.833,28.1667 377.5,27.5 Z"/></g>
<g><path style="opacity:0.004" fill="#feca2b" d="M 383.5,32.5 C 383.5,32.1667 383.5,31.8333 383.5,31.5C 386.167,31.8333 386.167,32.1667 383.5,32.5 Z"/></g>
<g><path style="opacity:0.004" fill="#fed427" d="M 123.5,32.5 C 124.833,33.1667 124.833,33.1667 123.5,32.5 Z"/></g>
<g><path style="opacity:0.004" fill="#fed427" d="M 386.5,32.5 C 387.833,33.1667 387.833,33.1667 386.5,32.5 Z"/></g>
<g><path style="opacity:0.012" fill="#fabb30" d="M 120.5,36.5 C 119.833,36.5 119.5,36.8333 119.5,37.5C 117.025,37.2533 117.025,36.5866 119.5,35.5C 120.107,35.6236 120.44,35.9569 120.5,36.5 Z"/></g>
<g><path style="opacity:0.012" fill="#fbbc30" d="M 390.5,36.5 C 391.779,35.2848 392.779,35.6182 393.5,37.5C 392.833,37.5 392.167,37.5 391.5,37.5C 390.833,37.5 390.5,37.1667 390.5,36.5 Z"/></g>
<g><path style="opacity:0.012" fill="#fbb630" d="M 393.5,37.5 C 394.833,38.1667 394.833,38.1667 393.5,37.5 Z"/></g>
<g><path style="opacity:0.012" fill="#fbb630" d="M 402.5,43.5 C 403.833,44.1667 403.833,44.1667 402.5,43.5 Z"/></g>
<g><path style="opacity:0.004" fill="#fed427" d="M 105.5,44.5 C 106.833,45.1667 106.833,45.1667 105.5,44.5 Z"/></g>
<g><path style="opacity:0.004" fill="#fed427" d="M 405.5,45.5 C 404.833,44.1667 404.833,44.1667 405.5,45.5 Z"/></g>
<g><path style="opacity:0.012" fill="#fcb930" d="M 105.5,45.5 C 105.5,45.8333 105.5,46.1667 105.5,46.5C 104.833,46.5 104.5,46.8333 104.5,47.5C 102.207,46.6987 102.54,46.032 105.5,45.5 Z"/></g>
<g><path style="opacity:0.012" fill="#fcbc2f" d="M 405.5,46.5 C 405.5,46.1667 405.5,45.8333 405.5,45.5C 408.46,46.032 408.793,46.6987 406.5,47.5C 405.833,47.5 405.5,47.1667 405.5,46.5 Z"/></g>
<g><path style="opacity:0.012" fill="#fabb30" d="M 96.5,53.5 C 95.8333,53.5 95.5,53.8333 95.5,54.5C 93.0248,54.2533 93.0248,53.5866 95.5,52.5C 96.1067,52.6236 96.44,52.9569 96.5,53.5 Z"/></g>
<g><path style="opacity:0.012" fill="#fbbc30" d="M 414.5,53.5 C 415.497,52.2875 416.497,52.4542 417.5,54C 416.906,54.4643 416.239,54.631 415.5,54.5C 415.5,53.8333 415.167,53.5 414.5,53.5 Z"/></g>
<g><path style="opacity:0.012" fill="#fbb630" d="M 418.5,55.5 C 419.833,56.1667 419.833,56.1667 418.5,55.5 Z"/></g>
<g><path style="opacity:0.004" fill="#fed427" d="M 89.5,56.5 C 90.8333,57.1667 90.8333,57.1667 89.5,56.5 Z"/></g>
<g><path style="opacity:0.004" fill="#fed427" d="M 421.5,57.5 C 420.833,56.1667 420.833,56.1667 421.5,57.5 Z"/></g>
<g><path style="opacity:0.012" fill="#fbb630" d="M 89.5,57.5 C 88.8333,58.1667 88.8333,58.1667 89.5,57.5 Z"/></g>
<g><path style="opacity:0.012" fill="#fbb630" d="M 421.5,57.5 C 422.167,57.5 422.5,57.8333 422.5,58.5C 422.167,58.1667 421.833,57.8333 421.5,57.5 Z"/></g>
<g><path style="opacity:0.02" fill="#f2b336" d="M 88.5,58.5 C 87.8333,59.1667 87.8333,59.1667 88.5,58.5 Z"/></g>
<g><path style="opacity:0.02" fill="#f2b336" d="M 422.5,58.5 C 423.833,59.1667 423.833,59.1667 422.5,58.5 Z"/></g>
<g><path style="opacity:0.012" fill="#fdc52c" d="M 426.5,63.5 C 426.897,62.475 427.563,62.3083 428.5,63C 429.5,64 430.5,65 431.5,66C 430.906,66.4643 430.239,66.631 429.5,66.5C 429.5,65.8333 429.167,65.5 428.5,65.5C 428.5,64.8333 428.167,64.5 427.5,64.5C 427.5,63.8333 427.167,63.5 426.5,63.5 Z"/></g>
<g><path style="opacity:0.004" fill="#fecb2b" d="M 84.5,63.5 C 83.8333,63.5 83.5,63.8333 83.5,64.5C 82.8333,64.5 82.5,64.8333 82.5,65.5C 81.8333,65.5 81.5,65.8333 81.5,66.5C 80.7611,66.631 80.0944,66.4643 79.5,66C 80.5,65 81.5,64 82.5,63C 83.4368,62.3083 84.1034,62.475 84.5,63.5 Z"/></g>
<g><path style="opacity:0.004" fill="#fed427" d="M 77.5,67.5 C 78.8333,68.1667 78.8333,68.1667 77.5,67.5 Z"/></g>
<g><path style="opacity:0.004" fill="#fed427" d="M 433.5,68.5 C 432.833,67.1667 432.833,67.1667 433.5,68.5 Z"/></g>
<g><path style="opacity:0.012" fill="#fbb630" d="M 77.5,68.5 C 76.8333,69.1667 76.8333,69.1667 77.5,68.5 Z"/></g>
<g><path style="opacity:0.012" fill="#fbb630" d="M 433.5,68.5 C 434.167,68.5 434.5,68.8333 434.5,69.5C 434.167,69.1667 433.833,68.8333 433.5,68.5 Z"/></g>
<g><path style="opacity:0.012" fill="#fbb630" d="M 76.5,69.5 C 75.8333,70.1667 75.8333,70.1667 76.5,69.5 Z"/></g>
<g><path style="opacity:0.012" fill="#fbb630" d="M 434.5,69.5 C 435.167,69.5 435.5,69.8333 435.5,70.5C 435.167,70.1667 434.833,69.8333 434.5,69.5 Z"/></g>
<g><path style="opacity:0.012" fill="#fbb630" d="M 75.5,70.5 C 74.8333,71.1667 74.8333,71.1667 75.5,70.5 Z"/></g>
<g><path style="opacity:0.012" fill="#fbb630" d="M 435.5,70.5 C 436.833,71.1667 436.833,71.1667 435.5,70.5 Z"/></g>
<g><path style="opacity:0.012" fill="#fbb630" d="M 439.5,74.5 C 438.833,73.1667 438.833,73.1667 439.5,74.5 Z"/></g>
<g><path style="opacity:0.012" fill="#fbb630" d="M 70.5,74.5 C 71.8333,75.1667 71.8333,75.1667 70.5,74.5 Z"/></g>
<g><path style="opacity:0.012" fill="#fbb630" d="M 439.5,74.5 C 440.167,74.5 440.5,74.8333 440.5,75.5C 440.167,75.1667 439.833,74.8333 439.5,74.5 Z"/></g>
<g><path style="opacity:0.012" fill="#fbb630" d="M 70.5,75.5 C 69.8333,76.1667 69.8333,76.1667 70.5,75.5 Z"/></g>
<g><path style="opacity:0.012" fill="#fbb630" d="M 440.5,75.5 C 441.167,75.5 441.5,75.8333 441.5,76.5C 441.167,76.1667 440.833,75.8333 440.5,75.5 Z"/></g>
<g><path style="opacity:0.012" fill="#fbb630" d="M 69.5,76.5 C 68.8333,77.1667 68.8333,77.1667 69.5,76.5 Z"/></g>
<g><path style="opacity:0.012" fill="#fbb630" d="M 441.5,76.5 C 442.167,76.5 442.5,76.8333 442.5,77.5C 442.167,77.1667 441.833,76.8333 441.5,76.5 Z"/></g>
<g><path style="opacity:0.004" fill="#fed427" d="M 68.5,77.5 C 67.8333,78.1667 67.8333,78.1667 68.5,77.5 Z"/></g>
<g><path style="opacity:0.004" fill="#fed427" d="M 442.5,77.5 C 443.833,78.1667 443.833,78.1667 442.5,77.5 Z"/></g>
<g><path style="opacity:0.004" fill="#feca2b" d="M 66.5,81.5 C 65.8333,81.5 65.5,81.8333 65.5,82.5C 64.8333,82.5 64.5,82.8333 64.5,83.5C 63.8333,83.5 63.5,83.8333 63.5,84.5C 62.475,84.1034 62.3083,83.4368 63,82.5C 64,81.5 65,80.5 66,79.5C 66.4643,80.0944 66.631,80.7611 66.5,81.5 Z"/></g>
<g><path style="opacity:0.004" fill="#feca2b" d="M 447.5,84.5 C 447.5,83.8333 447.167,83.5 446.5,83.5C 446.5,82.8333 446.167,82.5 445.5,82.5C 445.5,81.8333 445.167,81.5 444.5,81.5C 444.369,80.7611 444.536,80.0944 445,79.5C 446,80.5 447,81.5 448,82.5C 448.692,83.4368 448.525,84.1034 447.5,84.5 Z"/></g>
<g><path style="opacity:1" fill="#f9af1c" d="M 98.5,52.5 C 150.249,53.8246 202.583,54.4913 255.5,54.5C 307.544,54.4978 359.377,53.8311 411,52.5C 411.838,53.999 412.671,54.3324 413.5,53.5C 413.833,53.5 414.167,53.5 414.5,53.5C 415.167,53.5 415.5,53.8333 415.5,54.5C 416.29,55.4013 417.29,56.0679 418.5,56.5C 420.751,59.2948 423.418,61.6281 426.5,63.5C 427.167,63.5 427.5,63.8333 427.5,64.5C 428.167,64.5 428.5,64.8333 428.5,65.5C 429.167,65.5 429.5,65.8333 429.5,66.5C 431.88,69.8805 434.88,72.5472 438.5,74.5C 439.757,77.4274 441.757,79.7607 444.5,81.5C 445.167,81.5 445.5,81.8333 445.5,82.5C 446.167,82.5 446.5,82.8333 446.5,83.5C 447.167,83.5 447.5,83.8333 447.5,84.5C 448.167,85.8333 449.167,86.8333 450.5,87.5C 452.122,90.4549 454.122,93.1215 456.5,95.5C 456.5,96.1667 456.833,96.5 457.5,96.5C 459.147,99.4735 461.147,102.14 463.5,104.5C 463.5,105.167 463.833,105.5 464.5,105.5C 464.733,107.062 465.4,108.395 466.5,109.5C 465.244,109.461 464.244,109.961 463.5,111C 324.833,111.667 186.167,111.667 47.5,111C 47,110.5 46.5,110 46,109.5C 45.7508,110.624 45.2508,111.624 44.5,112.5C 43.5712,113.55 42.9046,113.55 42.5,112.5C 43.8611,110.15 45.1944,107.816 46.5,105.5C 47.1667,105.5 47.5,105.167 47.5,104.5C 49.8532,102.14 51.8532,99.4735 53.5,96.5C 54.1667,96.5 54.5,96.1667 54.5,95.5C 57.8482,92.1486 60.8482,88.4819 63.5,84.5C 64.1667,84.5 64.5,84.1667 64.5,83.5C 65.1667,83.5 65.5,83.1667 65.5,82.5C 66.1667,82.5 66.5,82.1667 66.5,81.5C 71.1667,76.1667 76.1667,71.1667 81.5,66.5C 82.1667,66.5 82.5,66.1667 82.5,65.5C 83.1667,65.5 83.5,65.1667 83.5,64.5C 84.1667,64.5 84.5,64.1667 84.5,63.5C 88.4819,60.8482 92.1486,57.8482 95.5,54.5C 96.1667,54.5 96.5,54.1667 96.5,53.5C 97.1667,53.1667 97.8333,52.8333 98.5,52.5 Z"/></g>
<g><path style="opacity:0.02" fill="#f2b336" d="M 451.5,87.5 C 450.833,86.1667 450.833,86.1667 451.5,87.5 Z"/></g>
<g><path style="opacity:0.02" fill="#f2b336" d="M 58.5,87.5 C 59.8333,88.1667 59.8333,88.1667 58.5,87.5 Z"/></g>
<g><path style="opacity:0.02" fill="#f2b336" d="M 451.5,87.5 C 452.167,87.5 452.5,87.8333 452.5,88.5C 452.167,88.1667 451.833,87.8333 451.5,87.5 Z"/></g>
<g><path style="opacity:0.012" fill="#fbb630" d="M 58.5,88.5 C 57.8333,89.1667 57.8333,89.1667 58.5,88.5 Z"/></g>
<g><path style="opacity:0.012" fill="#fbb630" d="M 452.5,88.5 C 453.167,88.5 453.5,88.8333 453.5,89.5C 453.167,89.1667 452.833,88.8333 452.5,88.5 Z"/></g>
<g><path style="opacity:0.004" fill="#fed427" d="M 57.5,89.5 C 56.8333,90.1667 56.8333,90.1667 57.5,89.5 Z"/></g>
<g><path style="opacity:0.004" fill="#fed427" d="M 453.5,89.5 C 454.833,90.1667 454.833,90.1667 453.5,89.5 Z"/></g>
<g><path style="opacity:0.012" fill="#fabb30" d="M 54.5,95.5 C 53.8333,95.5 53.5,95.8333 53.5,96.5C 52.2875,95.5029 52.4542,94.5029 54,93.5C 54.4643,94.0944 54.631,94.7611 54.5,95.5 Z"/></g>
<g><path style="opacity:0.012" fill="#fabb30" d="M 457.5,96.5 C 456.833,96.5 456.5,96.1667 456.5,95.5C 456.747,93.0248 457.413,93.0248 458.5,95.5C 458.376,96.1067 458.043,96.44 457.5,96.5 Z"/></g>
<g><path style="opacity:0.012" fill="#fcbc2f" d="M 47.5,104.5 C 46.8333,104.5 46.5,104.833 46.5,105.5C 46.1667,105.5 45.8333,105.5 45.5,105.5C 46.032,102.54 46.6987,102.207 47.5,104.5 Z"/></g>
<g><path style="opacity:0.012" fill="#fcbc2f" d="M 465.5,105.5 C 465.167,105.5 464.833,105.5 464.5,105.5C 463.833,105.5 463.5,105.167 463.5,104.5C 464.301,102.207 464.968,102.54 465.5,105.5 Z"/></g>
<g><path style="opacity:0.004" fill="#fed427" d="M 45.5,105.5 C 44.8333,106.167 44.8333,106.167 45.5,105.5 Z"/></g>
<g><path style="opacity:0.004" fill="#fed427" d="M 465.5,105.5 C 466.833,106.167 466.833,106.167 465.5,105.5 Z"/></g>
<g><path style="opacity:1" fill="#fab222" d="M 466.5,109.5 C 468.833,112.833 471.167,116.167 473.5,119.5C 473.5,120.167 473.833,120.5 474.5,120.5C 475.64,122.78 476.807,125.114 478,127.5C 478.667,128.833 479.333,128.833 480,127.5C 481.039,128.244 481.539,129.244 481.5,130.5C 480.167,131.167 480.167,131.833 481.5,132.5C 482.659,136.151 484.326,139.485 486.5,142.5C 486.5,143.167 486.833,143.5 487.5,143.5C 487.5,144.167 487.5,144.833 487.5,145.5C 488.467,148.577 488.634,151.577 488,154.5C 436.102,154.297 383.602,154.297 330.5,154.5C 311.924,143.892 291.924,137.392 270.5,135C 232.998,134.169 195.664,134.336 158.5,135.5C 157.502,160.995 157.169,186.661 157.5,212.5C 146.5,212.5 135.5,212.5 124.5,212.5C 134.987,211.506 145.654,211.172 156.5,211.5C 157.008,180.137 156.675,160.804 155.5,153.5C 111.398,153.766 67.2313,154.099 23,154.5C 22.3664,151.577 22.5331,148.577 23.5,145.5C 23.5,144.833 23.5,144.167 23.5,143.5C 24.1667,143.5 24.5,143.167 24.5,142.5C 26.6744,139.485 28.3411,136.151 29.5,132.5C 30.8333,131.833 30.8333,131.167 29.5,130.5C 29.4614,129.244 29.9614,128.244 31,127.5C 31.6667,128.833 32.3333,128.833 33,127.5C 34.1932,125.114 35.3599,122.78 36.5,120.5C 37.1667,120.5 37.5,120.167 37.5,119.5C 38.9213,116.991 40.5879,114.657 42.5,112.5C 42.9046,113.55 43.5712,113.55 44.5,112.5C 45.2508,111.624 45.7508,110.624 46,109.5C 46.5,110 47,110.5 47.5,111C 186.167,111.667 324.833,111.667 463.5,111C 464.244,109.961 465.244,109.461 466.5,109.5 Z"/></g>
<g><path style="opacity:0.012" fill="#fabb30" d="M 37.5,119.5 C 36.8333,119.5 36.5,119.833 36.5,120.5C 35.2875,119.503 35.4542,118.503 37,117.5C 37.4643,118.094 37.631,118.761 37.5,119.5 Z"/></g>
<g><path style="opacity:0.012" fill="#fabb30" d="M 474.5,120.5 C 473.833,120.5 473.5,120.167 473.5,119.5C 473.747,117.025 474.413,117.025 475.5,119.5C 475.376,120.107 475.043,120.44 474.5,120.5 Z"/></g>
<g><path style="opacity:0.004" fill="#fed427" d="M 32.5,123.5 C 33.8333,124.167 33.8333,124.167 32.5,123.5 Z"/></g>
<g><path style="opacity:0.004" fill="#fed427" d="M 477.5,123.5 C 478.833,124.167 478.833,124.167 477.5,123.5 Z"/></g>
<g><path style="opacity:0.02" fill="#f6b435" d="M 29.5,130.5 C 29.5,131.167 29.5,131.833 29.5,132.5C 29.1667,132.5 28.8333,132.5 28.5,132.5C 28.3284,131.508 28.6618,130.842 29.5,130.5 Z"/></g>
<g><path style="opacity:0.02" fill="#f6b435" d="M 481.5,130.5 C 482.338,130.842 482.672,131.508 482.5,132.5C 482.167,132.5 481.833,132.5 481.5,132.5C 481.5,131.833 481.5,131.167 481.5,130.5 Z"/></g>
<g><path style="opacity:0.012" fill="#fbb630" d="M 28.5,132.5 C 27.8333,133.167 27.8333,133.167 28.5,132.5 Z"/></g>
<g><path style="opacity:0.012" fill="#fbb630" d="M 482.5,132.5 C 483.833,133.167 483.833,133.167 482.5,132.5 Z"/></g>
<g><path style="opacity:0.004" fill="#fed427" d="M 26.5,134.5 C 27.8333,135.167 27.8333,135.167 26.5,134.5 Z"/></g>
<g><path style="opacity:0.004" fill="#fed427" d="M 483.5,134.5 C 484.833,135.167 484.833,135.167 483.5,134.5 Z"/></g>
<g><path style="opacity:1" fill="#fffefd" d="M 330.5,154.5 C 345.14,164.307 357.307,176.64 367,191.5C 369.984,196.306 372.484,201.306 374.5,206.5C 375.594,208.612 376.594,210.779 377.5,213C 387.494,213.5 397.494,213.666 407.5,213.5C 407.5,222.833 407.5,232.167 407.5,241.5C 399.5,241.5 391.5,241.5 383.5,241.5C 384.65,251.147 384.65,260.814 383.5,270.5C 391.5,270.5 399.5,270.5 407.5,270.5C 407.5,280.167 407.5,289.833 407.5,299.5C 396.833,299.5 386.167,299.5 375.5,299.5C 373.856,305.796 371.356,311.796 368,317.5C 363.644,324.009 359.144,330.342 354.5,336.5C 330.974,359.688 302.641,372.688 269.5,375.5C 232.5,375.5 195.5,375.5 158.5,375.5C 158.5,349.833 158.5,324.167 158.5,298.5C 147.5,298.5 136.5,298.5 125.5,298.5C 125.5,289.5 125.5,280.5 125.5,271.5C 136.5,271.5 147.5,271.5 158.5,271.5C 158.827,261.319 158.494,251.319 157.5,241.5C 146.5,241.5 135.5,241.5 124.5,241.5C 124.5,232.167 124.5,222.833 124.5,213.5C 135.833,213.5 147.167,213.5 158.5,213.5C 158.5,187.5 158.5,161.5 158.5,135.5C 195.664,134.336 232.998,134.169 270.5,135C 291.924,137.392 311.924,143.892 330.5,154.5 Z"/></g>
<g><path style="opacity:0.012" fill="#f9ba32" d="M 24.5,142.5 C 23.8333,142.5 23.5,142.833 23.5,143.5C 23.1667,143.5 22.8333,143.5 22.5,143.5C 23.032,140.54 23.6987,140.207 24.5,142.5 Z"/></g>
<g><path style="opacity:0.012" fill="#f9ba32" d="M 488.5,143.5 C 488.167,143.5 487.833,143.5 487.5,143.5C 486.833,143.5 486.5,143.167 486.5,142.5C 487.301,140.207 487.968,140.54 488.5,143.5 Z"/></g>
<g><path style="opacity:0.012" fill="#fdc02e" d="M 22.5,143.5 C 22.5,144.167 22.5,144.833 22.5,145.5C 21.1667,144.833 21.1667,144.167 22.5,143.5 Z"/></g>
<g><path style="opacity:0.012" fill="#fdc02e" d="M 488.5,143.5 C 489.833,144.167 489.833,144.833 488.5,145.5C 488.5,144.833 488.5,144.167 488.5,143.5 Z"/></g>
<g><path style="opacity:0.004" fill="#fed427" d="M 20.5,146.5 C 21.8333,147.167 21.8333,147.167 20.5,146.5 Z"/></g>
<g><path style="opacity:0.004" fill="#fed427" d="M 489.5,146.5 C 490.833,147.167 490.833,147.167 489.5,146.5 Z"/></g>
<g><path style="opacity:1" fill="#fab528" d="M 22.5,145.5 C 22.8333,145.5 23.1667,145.5 23.5,145.5C 22.5331,148.577 22.3664,151.577 23,154.5C 67.2313,154.099 111.398,153.766 155.5,153.5C 155.5,170.5 155.5,187.5 155.5,204.5C 104.804,204.18 54.1369,204.514 3.5,205.5C 5.82434,195.521 8.15768,185.521 10.5,175.5C 12.345,174.005 12.6783,172.338 11.5,170.5C 12.8333,167.833 14.1667,165.167 15.5,162.5C 16.404,161.791 16.7373,160.791 16.5,159.5C 17.8333,158.833 17.8333,158.167 16.5,157.5C 17.9578,151.87 19.9578,147.87 22.5,145.5 Z"/></g>
<g><path style="opacity:1" fill="#fab528" d="M 487.5,145.5 C 487.833,145.5 488.167,145.5 488.5,145.5C 491.042,147.87 493.042,151.87 494.5,157.5C 493.167,158.167 493.167,158.833 494.5,159.5C 494.263,160.791 494.596,161.791 495.5,162.5C 496.833,165.167 498.167,167.833 499.5,170.5C 498.322,172.338 498.655,174.005 500.5,175.5C 502.842,185.521 505.176,195.521 507.5,205.5C 462.978,203.84 418.645,204.173 374.5,206.5C 372.484,201.306 369.984,196.306 367,191.5C 357.307,176.64 345.14,164.307 330.5,154.5C 383.602,154.297 436.102,154.297 488,154.5C 488.634,151.577 488.467,148.577 487.5,145.5 Z"/></g>
<g><path style="opacity:0.004" fill="#feca2b" d="M 16.5,157.5 C 16.5,158.167 16.5,158.833 16.5,159.5C 15.1667,158.833 15.1667,158.167 16.5,157.5 Z"/></g>
<g><path style="opacity:0.004" fill="#feca2b" d="M 494.5,157.5 C 495.833,158.167 495.833,158.833 494.5,159.5C 494.5,158.833 494.5,158.167 494.5,157.5 Z"/></g>
<g><path style="opacity:0.004" fill="#fed427" d="M 15.5,162.5 C 14.475,162.103 14.3083,161.437 15,160.5C 15.4643,161.094 15.631,161.761 15.5,162.5 Z"/></g>
<g><path style="opacity:0.004" fill="#fed427" d="M 495.5,162.5 C 495.369,161.761 495.536,161.094 496,160.5C 496.692,161.437 496.525,162.103 495.5,162.5 Z"/></g>
<g><path style="opacity:0.02" fill="#f6b435" d="M 11.5,170.5 C 11.631,171.239 11.4643,171.906 11,172.5C 10.3083,171.563 10.475,170.897 11.5,170.5 Z"/></g>
<g><path style="opacity:0.02" fill="#f6b435" d="M 499.5,170.5 C 500.525,170.897 500.692,171.563 500,172.5C 499.536,171.906 499.369,171.239 499.5,170.5 Z"/></g>
<g><path style="opacity:0.012" fill="#fdc02e" d="M 10.5,175.5 C 9.47498,175.103 9.30831,174.437 10,173.5C 10.4643,174.094 10.631,174.761 10.5,175.5 Z"/></g>
<g><path style="opacity:0.012" fill="#fdc02e" d="M 500.5,175.5 C 500.369,174.761 500.536,174.094 501,173.5C 501.692,174.437 501.525,175.103 500.5,175.5 Z"/></g>
<g><path style="opacity:1" fill="#fab52a" d="M 345.5,211.5 C 292.336,212.499 239.003,212.832 185.5,212.5C 185.5,195.167 185.5,177.833 185.5,160.5C 216.523,160.09 247.523,160.59 278.5,162C 308.898,167.84 331.231,184.34 345.5,211.5 Z"/></g>
<g><path style="opacity:0.004" fill="#fed427" d="M 3.5,193.5 C 4.57346,194.251 4.74012,195.251 4,196.5C 3.51722,195.552 3.35055,194.552 3.5,193.5 Z"/></g>
<g><path style="opacity:0.004" fill="#fed427" d="M 506.5,193.5 C 507.573,194.251 507.74,195.251 507,196.5C 506.517,195.552 506.351,194.552 506.5,193.5 Z"/></g>
<g><path style="opacity:1" fill="#fab72e" d="M 124.5,212.5 C 124.5,212.833 124.5,213.167 124.5,213.5C 123.67,222.658 123.17,231.991 123,241.5C 122.667,232.167 122.333,222.833 122,213.5C 121.5,222.16 121.334,230.827 121.5,239.5C 80.6818,238.858 40.0152,239.525 -0.5,241.5C -0.5,236.833 -0.5,232.167 -0.5,227.5C 0.473067,225.052 0.8064,222.385 0.5,219.5C 1.7339,215.006 2.7339,210.339 3.5,205.5C 54.1369,204.514 104.804,204.18 155.5,204.5C 155.5,187.5 155.5,170.5 155.5,153.5C 156.675,160.804 157.008,180.137 156.5,211.5C 145.654,211.172 134.987,211.506 124.5,212.5 Z"/></g>
<g><path style="opacity:1" fill="#fab72f" d="M 507.5,205.5 C 508.266,210.339 509.266,215.006 510.5,219.5C 510.194,222.385 510.527,225.052 511.5,227.5C 511.5,232.167 511.5,236.833 511.5,241.5C 509.926,241.063 508.759,240.063 508,238.5C 475.24,239.496 442.407,239.829 409.5,239.5C 409.666,230.827 409.5,222.16 409,213.5C 408.83,223.009 408.33,232.342 407.5,241.5C 407.5,232.167 407.5,222.833 407.5,213.5C 397.494,213.666 387.494,213.5 377.5,213C 376.594,210.779 375.594,208.612 374.5,206.5C 418.645,204.173 462.978,203.84 507.5,205.5 Z"/></g>
<g><path style="opacity:1" fill="#fbcc7f" d="M 158.5,135.5 C 158.5,161.5 158.5,187.5 158.5,213.5C 147.167,213.5 135.833,213.5 124.5,213.5C 124.5,213.167 124.5,212.833 124.5,212.5C 135.5,212.5 146.5,212.5 157.5,212.5C 157.169,186.661 157.502,160.995 158.5,135.5 Z"/></g>
<g><path style="opacity:1" fill="#fddca7" d="M 345.5,211.5 C 346.043,211.56 346.376,211.893 346.5,212.5C 292.668,213.831 239.002,213.831 185.5,212.5C 239.003,212.832 292.336,212.499 345.5,211.5 Z"/></g>
<g><path style="opacity:1" fill="#faba34" d="M 124.5,213.5 C 124.5,222.833 124.5,232.167 124.5,241.5C 135.5,241.5 146.5,241.5 157.5,241.5C 157.5,251.167 157.5,260.833 157.5,270.5C 146.5,270.5 135.5,270.5 124.5,270.5C 123.67,279.991 123.17,289.658 123,299.5C 122.667,289.833 122.333,280.167 122,270.5C 121.501,276.491 121.334,282.491 121.5,288.5C 82.4986,288.667 43.4986,288.5 4.5,288C 2.99627,286.509 2.16294,284.676 2,282.5C 1.78997,284.058 1.28997,285.391 0.5,286.5C 0.737305,285.209 0.403972,284.209 -0.5,283.5C -0.5,269.5 -0.5,255.5 -0.5,241.5C 40.0152,239.525 80.6818,238.858 121.5,239.5C 121.334,230.827 121.5,222.16 122,213.5C 122.333,222.833 122.667,232.167 123,241.5C 123.17,231.991 123.67,222.658 124.5,213.5 Z"/></g>
<g><path style="opacity:0.999" fill="#faba34" d="M 511.5,241.5 C 511.5,255.5 511.5,269.5 511.5,283.5C 510.596,284.209 510.263,285.209 510.5,286.5C 509.71,285.391 509.21,284.058 509,282.5C 508.333,285.167 507.667,287.833 507,290.5C 474.723,288.511 442.223,287.845 409.5,288.5C 409.666,282.824 409.499,277.157 409,271.5C 408.83,281.009 408.33,290.342 407.5,299.5C 407.5,289.833 407.5,280.167 407.5,270.5C 399.5,270.5 391.5,270.5 383.5,270.5C 384.65,260.814 384.65,251.147 383.5,241.5C 391.5,241.5 399.5,241.5 407.5,241.5C 408.33,232.342 408.83,223.009 409,213.5C 409.5,222.16 409.666,230.827 409.5,239.5C 442.407,239.829 475.24,239.496 508,238.5C 508.759,240.063 509.926,241.063 511.5,241.5 Z"/></g>
<g><path style="opacity:0.018" fill="#fbb831" d="M -0.5,213.5 C 0.461384,215.265 0.794717,217.265 0.5,219.5C 0.166667,219.5 -0.166667,219.5 -0.5,219.5C -0.5,217.5 -0.5,215.5 -0.5,213.5 Z"/></g>
<g><path style="opacity:0.018" fill="#fbb831" d="M 511.5,213.5 C 511.5,215.5 511.5,217.5 511.5,219.5C 511.167,219.5 510.833,219.5 510.5,219.5C 510.205,217.265 510.539,215.265 511.5,213.5 Z"/></g>
<g><path style="opacity:1" fill="#fab933" d="M 355.5,251.5 C 355.5,255.833 355.5,260.167 355.5,264.5C 354.71,265.609 354.21,266.942 354,268.5C 298.374,268.491 242.541,268.491 186.5,268.5C 186.5,259.833 186.5,251.167 186.5,242.5C 242.5,242.5 298.5,242.5 354.5,242.5C 354.19,245.713 354.523,248.713 355.5,251.5 Z"/></g>
<g><path style="opacity:1" fill="#fabd3a" d="M 355.5,251.5 C 354.523,248.713 354.19,245.713 354.5,242.5C 298.5,242.5 242.5,242.5 186.5,242.5C 186.5,251.167 186.5,259.833 186.5,268.5C 242.541,268.491 298.374,268.491 354,268.5C 354.21,266.942 354.71,265.609 355.5,264.5C 355.5,266.5 355.5,268.5 355.5,270.5C 298.833,270.5 242.167,270.5 185.5,270.5C 185.5,260.833 185.5,251.167 185.5,241.5C 242.167,241.5 298.833,241.5 355.5,241.5C 355.5,244.833 355.5,248.167 355.5,251.5 Z"/></g>
<g><path style="opacity:0.999" fill="#fabd3b" d="M 124.5,270.5 C 124.5,280.167 124.5,289.833 124.5,299.5C 124.5,299.833 124.5,300.167 124.5,300.5C 134.653,301.494 144.986,301.828 155.5,301.5C 155.5,314.167 155.5,326.833 155.5,339.5C 108.928,339.83 62.428,339.497 16,338.5C 15.3076,339.025 14.8076,339.692 14.5,340.5C 15.3094,342.071 15.6427,343.738 15.5,345.5C 15.1667,345.5 14.8333,345.5 14.5,345.5C 14.1667,342.833 13.8333,342.833 13.5,345.5C 12.0687,344.22 11.4021,342.553 11.5,340.5C 12.6783,338.662 12.345,336.995 10.5,335.5C 10.7845,333.585 10.4511,331.919 9.5,330.5C 7.24868,322.441 5.24868,314.441 3.5,306.5C 3.76781,304.901 3.43448,303.568 2.5,302.5C 2.78448,300.585 2.45115,298.919 1.5,297.5C 1.79472,295.265 1.46138,293.265 0.5,291.5C 0.5,289.833 0.5,288.167 0.5,286.5C 1.28997,285.391 1.78997,284.058 2,282.5C 2.16294,284.676 2.99627,286.509 4.5,288C 43.4986,288.5 82.4986,288.667 121.5,288.5C 121.334,282.491 121.501,276.491 122,270.5C 122.333,280.167 122.667,289.833 123,299.5C 123.17,289.658 123.67,279.991 124.5,270.5 Z"/></g>
<g><path style="opacity:0.999" fill="#fabd3b" d="M 510.5,286.5 C 510.5,288.167 510.5,289.833 510.5,291.5C 509.539,293.265 509.205,295.265 509.5,297.5C 508.549,298.919 508.216,300.585 508.5,302.5C 507.566,303.568 507.232,304.901 507.5,306.5C 506.021,313.423 504.354,320.423 502.5,327.5C 501.596,328.209 501.263,329.209 501.5,330.5C 500.549,331.919 500.216,333.585 500.5,335.5C 499.833,336.167 499.167,336.833 498.5,337.5C 497.761,337.369 497.094,337.536 496.5,338C 497.696,338.654 497.696,339.154 496.5,339.5C 472.677,339.155 448.677,339.155 424.5,339.5C 401.167,339.333 377.833,339.167 354.5,339C 355.774,338.023 355.774,337.189 354.5,336.5C 359.144,330.342 363.644,324.009 368,317.5C 371.356,311.796 373.856,305.796 375.5,299.5C 386.167,299.5 396.833,299.5 407.5,299.5C 408.33,290.342 408.83,281.009 409,271.5C 409.499,277.157 409.666,282.824 409.5,288.5C 442.223,287.845 474.723,288.511 507,290.5C 507.667,287.833 508.333,285.167 509,282.5C 509.21,284.058 509.71,285.391 510.5,286.5 Z"/></g>
<g><path style="opacity:0.012" fill="#fbbd30" d="M -0.5,291.5 C -0.166667,291.5 0.166667,291.5 0.5,291.5C 0.5,293.5 0.5,295.5 0.5,297.5C 0.166667,297.5 -0.166667,297.5 -0.5,297.5C -0.5,295.5 -0.5,293.5 -0.5,291.5 Z"/></g>
<g><path style="opacity:0.012" fill="#fbbd30" d="M 510.5,291.5 C 510.833,291.5 511.167,291.5 511.5,291.5C 511.5,293.5 511.5,295.5 511.5,297.5C 511.167,297.5 510.833,297.5 510.5,297.5C 510.5,295.5 510.5,293.5 510.5,291.5 Z"/></g>
<g><path style="opacity:1" fill="#fde1b8" d="M 157.5,241.5 C 158.494,251.319 158.827,261.319 158.5,271.5C 147.5,271.5 136.5,271.5 125.5,271.5C 125.5,280.5 125.5,289.5 125.5,298.5C 136.5,298.5 147.5,298.5 158.5,298.5C 158.5,324.167 158.5,349.833 158.5,375.5C 195.5,375.5 232.5,375.5 269.5,375.5C 232.337,376.498 195.004,376.832 157.5,376.5C 157.5,350.833 157.5,325.167 157.5,299.5C 146.5,299.5 135.5,299.5 124.5,299.5C 124.5,289.833 124.5,280.167 124.5,270.5C 135.5,270.5 146.5,270.5 157.5,270.5C 157.5,260.833 157.5,251.167 157.5,241.5 Z"/></g>
<g><path style="opacity:1" fill="#fdd89a" d="M 345.5,300.5 C 292.5,299.167 239.5,299.167 186.5,300.5C 186.5,317.167 186.5,333.833 186.5,350.5C 212.5,350.5 238.5,350.5 264.5,350.5C 238.339,351.498 212.005,351.831 185.5,351.5C 185.5,333.833 185.5,316.167 185.5,298.5C 239.171,298.167 292.837,298.5 346.5,299.5C 346.376,300.107 346.043,300.44 345.5,300.5 Z"/></g>
<g><path style="opacity:1" fill="#fab600" d="M 186.5,300.5 C 239.5,299.167 292.5,299.167 345.5,300.5C 344.833,301.167 344.167,301.833 343.5,302.5C 291.511,300.504 239.177,299.838 186.5,300.5 Z"/></g>
<g><path style="opacity:0.012" fill="#fbb531" d="M 0.5,297.5 C 0.833333,297.5 1.16667,297.5 1.5,297.5C 1.5,299.167 1.5,300.833 1.5,302.5C 0.548855,301.081 0.215521,299.415 0.5,297.5 Z"/></g>
<g><path style="opacity:0.012" fill="#fbb531" d="M 509.5,297.5 C 509.833,297.5 510.167,297.5 510.5,297.5C 510.784,299.415 510.451,301.081 509.5,302.5C 509.5,300.833 509.5,299.167 509.5,297.5 Z"/></g>
<g><path style="opacity:1" fill="#fab700" d="M 124.5,300.5 C 124.5,300.167 124.5,299.833 124.5,299.5C 135.5,299.5 146.5,299.5 157.5,299.5C 157.5,325.167 157.5,350.833 157.5,376.5C 156.502,351.339 156.169,326.005 156.5,300.5C 145.833,300.5 135.167,300.5 124.5,300.5 Z"/></g>
<g><path style="opacity:1" fill="#fabd3c" d="M 186.5,300.5 C 239.177,299.838 291.511,300.504 343.5,302.5C 330.776,325.722 311.442,340.555 285.5,347C 278.566,348.692 271.566,349.859 264.5,350.5C 238.5,350.5 212.5,350.5 186.5,350.5C 186.5,333.833 186.5,317.167 186.5,300.5 Z"/></g>
<g><path style="opacity:0.012" fill="#fab532" d="M 1.5,302.5 C 1.83333,302.5 2.16667,302.5 2.5,302.5C 2.5,303.833 2.5,305.167 2.5,306.5C 1.56552,305.432 1.23219,304.099 1.5,302.5 Z"/></g>
<g><path style="opacity:0.012" fill="#fab532" d="M 508.5,302.5 C 508.833,302.5 509.167,302.5 509.5,302.5C 509.768,304.099 509.434,305.432 508.5,306.5C 508.5,305.167 508.5,303.833 508.5,302.5 Z"/></g>
<g><path style="opacity:0.004" fill="#fecd2a" d="M 2.5,306.5 C 2.83333,306.5 3.16667,306.5 3.5,306.5C 3.16667,311.833 2.83333,311.833 2.5,306.5 Z"/></g>
<g><path style="opacity:0.004" fill="#fecd2a" d="M 507.5,306.5 C 507.833,306.5 508.167,306.5 508.5,306.5C 508.167,311.833 507.833,311.833 507.5,306.5 Z"/></g>
<g><path style="opacity:0.004" fill="#fed427" d="M 3.5,314.5 C 4.57346,315.251 4.74012,316.251 4,317.5C 3.51722,316.552 3.35055,315.552 3.5,314.5 Z"/></g>
<g><path style="opacity:0.004" fill="#fed427" d="M 506.5,314.5 C 507.573,315.251 507.74,316.251 507,317.5C 506.517,316.552 506.351,315.552 506.5,314.5 Z"/></g>
<g><path style="opacity:0.02" fill="#f6bb34" d="M 502.5,327.5 C 503.833,328.5 503.833,329.5 502.5,330.5C 502.5,329.5 502.5,328.5 502.5,327.5 Z"/></g>
<g><path style="opacity:0.004" fill="#fed427" d="M 9.5,330.5 C 9.64945,331.552 9.48278,332.552 9,333.5C 8.25988,332.251 8.42654,331.251 9.5,330.5 Z"/></g>
<g><path style="opacity:0.004" fill="#fed427" d="M 501.5,330.5 C 501.833,330.5 502.167,330.5 502.5,330.5C 502.167,334.5 501.833,334.5 501.5,330.5 Z"/></g>
<g><path style="opacity:0.004" fill="#feca2b" d="M 10.5,335.5 C 10.631,336.239 10.4643,336.906 10,337.5C 9.30831,336.563 9.47498,335.897 10.5,335.5 Z"/></g>
<g><path style="opacity:0.004" fill="#feca2b" d="M 500.5,335.5 C 501.525,335.897 501.692,336.563 501,337.5C 500.536,336.906 500.369,336.239 500.5,335.5 Z"/></g>
<g><path style="opacity:1" fill="#fabf42" d="M 124.5,300.5 C 135.167,300.5 145.833,300.5 156.5,300.5C 156.169,326.005 156.502,351.339 157.5,376.5C 195.004,376.832 232.337,376.498 269.5,375.5C 302.641,372.688 330.974,359.688 354.5,336.5C 355.774,337.189 355.774,338.023 354.5,339C 377.833,339.167 401.167,339.333 424.5,339.5C 448.677,339.155 472.677,339.155 496.5,339.5C 497.696,339.154 497.696,338.654 496.5,338C 497.094,337.536 497.761,337.369 498.5,337.5C 498.263,338.791 498.596,339.791 499.5,340.5C 499.598,342.553 498.931,344.22 497.5,345.5C 497.167,342.833 496.833,342.833 496.5,345.5C 495.596,346.209 495.263,347.209 495.5,348.5C 494.596,349.209 494.263,350.209 494.5,351.5C 493.167,352.167 493.167,352.833 494.5,353.5C 493.042,359.13 491.042,363.13 488.5,365.5C 487.662,365.842 487.328,366.508 487.5,367.5C 486.833,367.5 486.5,367.833 486.5,368.5C 485.662,368.842 485.328,369.508 485.5,370.5C 484.662,370.842 484.328,371.508 484.5,372.5C 482.992,374.181 481.992,376.181 481.5,378.5C 480.167,379.167 480.167,379.833 481.5,380.5C 481.573,382.027 480.906,383.027 479.5,383.5C 479.5,382.833 479.167,382.5 478.5,382.5C 329.833,381.167 181.167,381.167 32.5,382.5C 31.8333,382.5 31.5,382.833 31.5,383.5C 30.0937,383.027 29.427,382.027 29.5,380.5C 30.8333,379.833 30.8333,379.167 29.5,378.5C 29.0075,376.181 28.0075,374.181 26.5,372.5C 26.3404,370.847 25.6737,369.514 24.5,368.5C 24.5,367.833 24.1667,367.5 23.5,367.5C 20.6214,364.444 18.2881,359.777 16.5,353.5C 17.8333,352.833 17.8333,352.167 16.5,351.5C 16.7373,350.209 16.404,349.209 15.5,348.5C 15.5,347.5 15.5,346.5 15.5,345.5C 15.6427,343.738 15.3094,342.071 14.5,340.5C 14.8076,339.692 15.3076,339.025 16,338.5C 62.428,339.497 108.928,339.83 155.5,339.5C 155.5,326.833 155.5,314.167 155.5,301.5C 144.986,301.828 134.653,301.494 124.5,300.5 Z"/></g>
<g><path style="opacity:0.012" fill="#f9b533" d="M 11.5,340.5 C 10.475,340.103 10.3083,339.437 11,338.5C 11.4643,339.094 11.631,339.761 11.5,340.5 Z"/></g>
<g><path style="opacity:0.012" fill="#f9b533" d="M 499.5,340.5 C 499.369,339.761 499.536,339.094 500,338.5C 500.692,339.437 500.525,340.103 499.5,340.5 Z"/></g>
<g><path style="opacity:0.004" fill="#feca2b" d="M 13.5,345.5 C 13.8333,345.5 14.1667,345.5 14.5,345.5C 14.1667,348.167 13.8333,348.167 13.5,345.5 Z"/></g>
<g><path style="opacity:0.004" fill="#feca2b" d="M 496.5,345.5 C 496.833,345.5 497.167,345.5 497.5,345.5C 497.167,348.167 496.833,348.167 496.5,345.5 Z"/></g>
<g><path style="opacity:0.004" fill="#fed427" d="M 15.5,348.5 C 15.631,349.239 15.4643,349.906 15,350.5C 14.3083,349.563 14.475,348.897 15.5,348.5 Z"/></g>
<g><path style="opacity:0.004" fill="#fed427" d="M 495.5,348.5 C 496.525,348.897 496.692,349.563 496,350.5C 495.536,349.906 495.369,349.239 495.5,348.5 Z"/></g>
<g><path style="opacity:0.012" fill="#fdc02e" d="M 16.5,351.5 C 16.5,352.167 16.5,352.833 16.5,353.5C 15.1667,352.833 15.1667,352.167 16.5,351.5 Z"/></g>
<g><path style="opacity:0.012" fill="#fdc02e" d="M 494.5,351.5 C 495.833,352.167 495.833,352.833 494.5,353.5C 494.5,352.833 494.5,352.167 494.5,351.5 Z"/></g>
<g><path style="opacity:0.004" fill="#fed427" d="M 20.5,363.5 C 21.8333,364.167 21.8333,364.167 20.5,363.5 Z"/></g>
<g><path style="opacity:0.004" fill="#fed427" d="M 489.5,363.5 C 490.833,364.167 490.833,364.167 489.5,363.5 Z"/></g>
<g><path style="opacity:0.004" fill="#fed427" d="M 488.5,365.5 C 489.833,366.167 489.833,366.833 488.5,367.5C 488.5,366.833 488.5,366.167 488.5,365.5 Z"/></g>
<g><path style="opacity:0.02" fill="#f7bb33" d="M 23.5,367.5 C 24.1667,367.5 24.5,367.833 24.5,368.5C 24.2533,370.975 23.5866,370.975 22.5,368.5C 22.6236,367.893 22.9569,367.56 23.5,367.5 Z"/></g>
<g><path style="opacity:0.02" fill="#f7bb33" d="M 487.5,367.5 C 487.833,367.5 488.167,367.5 488.5,367.5C 488.573,369.027 487.906,370.027 486.5,370.5C 486.5,369.833 486.5,369.167 486.5,368.5C 487.167,368.5 487.5,368.167 487.5,367.5 Z"/></g>
<g><path style="opacity:0.018" fill="#fdb630" d="M 485.5,370.5 C 485.833,370.5 486.167,370.5 486.5,370.5C 486.672,371.492 486.338,372.158 485.5,372.5C 485.5,371.833 485.5,371.167 485.5,370.5 Z"/></g>
<g><path style="opacity:0.004" fill="#fbc82e" d="M 26.5,372.5 C 26.631,373.239 26.4643,373.906 26,374.5C 25.3083,373.563 25.475,372.897 26.5,372.5 Z"/></g>
<g><path style="opacity:0.004" fill="#fbc82e" d="M 484.5,372.5 C 484.833,372.5 485.167,372.5 485.5,372.5C 485.167,375.167 484.833,375.167 484.5,372.5 Z"/></g>
<g><path style="opacity:0.004" fill="#fed427" d="M 26.5,375.5 C 27.8333,376.167 27.8333,376.167 26.5,375.5 Z"/></g>
<g><path style="opacity:0.004" fill="#fed427" d="M 483.5,375.5 C 484.833,376.167 484.833,376.167 483.5,375.5 Z"/></g>
<g><path style="opacity:0.004" fill="#fed427" d="M 28.5,378.5 C 27.8333,377.167 27.8333,377.167 28.5,378.5 Z"/></g>
<g><path style="opacity:0.004" fill="#fed427" d="M 482.5,377.5 C 483.833,378.167 483.833,378.167 482.5,377.5 Z"/></g>
<g><path style="opacity:0.004" fill="#fbc82e" d="M 28.5,378.5 C 28.8333,378.5 29.1667,378.5 29.5,378.5C 29.5,379.167 29.5,379.833 29.5,380.5C 28.6618,380.158 28.3284,379.492 28.5,378.5 Z"/></g>
<g><path style="opacity:0.004" fill="#fbc82e" d="M 481.5,378.5 C 481.833,378.5 482.167,378.5 482.5,378.5C 482.672,379.492 482.338,380.158 481.5,380.5C 481.5,379.833 481.5,379.167 481.5,378.5 Z"/></g>
<g><path style="opacity:0.004" fill="#feca2b" d="M 31.5,383.5 C 31.8333,383.5 32.1667,383.5 32.5,383.5C 32.1667,386.167 31.8333,386.167 31.5,383.5 Z"/></g>
<g><path style="opacity:0.004" fill="#feca2b" d="M 478.5,383.5 C 478.833,383.5 479.167,383.5 479.5,383.5C 479.167,386.167 478.833,386.167 478.5,383.5 Z"/></g>
<g><path style="opacity:0.004" fill="#fed427" d="M 32.5,386.5 C 33.8333,387.167 33.8333,387.167 32.5,386.5 Z"/></g>
<g><path style="opacity:0.004" fill="#fed427" d="M 477.5,386.5 C 478.833,387.167 478.833,387.167 477.5,386.5 Z"/></g>
<g><path style="opacity:1" fill="#fac248" d="M 478.5,382.5 C 478.5,382.833 478.5,383.167 478.5,383.5C 476.917,385.663 475.584,387.996 474.5,390.5C 473.833,390.5 473.5,390.833 473.5,391.5C 472.662,391.842 472.328,392.508 472.5,393.5C 470.808,395.205 469.475,397.205 468.5,399.5C 467.662,399.842 467.328,400.508 467.5,401.5C 466.833,401.5 466.5,401.833 466.5,402.5C 465.094,402.973 464.427,403.973 464.5,405.5C 463.833,405.5 463.5,405.833 463.5,406.5C 462.662,406.842 462.328,407.508 462.5,408.5C 461.833,408.5 461.5,408.833 461.5,409.5C 460.833,409.5 460.5,409.833 460.5,410.5C 459.662,410.842 459.328,411.508 459.5,412.5C 458.833,412.5 458.5,412.833 458.5,413.5C 457.833,413.5 457.5,413.833 457.5,414.5C 456.833,414.5 456.5,414.833 456.5,415.5C 455.662,415.842 455.328,416.508 455.5,417.5C 454.833,417.5 454.5,417.833 454.5,418.5C 452.413,419.585 451.08,421.251 450.5,423.5C 449.833,423.5 449.5,423.833 449.5,424.5C 448.833,424.5 448.5,424.833 448.5,425.5C 448.167,425.5 447.833,425.5 447.5,425.5C 446.226,424.811 446.226,423.977 447.5,423C 446.975,422.308 446.308,421.808 445.5,421.5C 318.833,421.5 192.167,421.5 65.5,421.5C 63.9745,421.994 62.6412,422.661 61.5,423.5C 60.194,421.527 58.5273,419.861 56.5,418.5C 56.0679,417.29 55.4013,416.29 54.5,415.5C 54.5,414.833 54.1667,414.5 53.5,414.5C 51.8532,411.527 49.8532,408.86 47.5,406.5C 47.5,405.833 47.1667,405.5 46.5,405.5C 46.573,403.973 45.9063,402.973 44.5,402.5C 44.0679,401.29 43.4013,400.29 42.5,399.5C 41.5254,397.205 40.1921,395.205 38.5,393.5C 38.6716,392.508 38.3382,391.842 37.5,391.5C 37.5,390.833 37.1667,390.5 36.5,390.5C 35.4161,387.996 34.0828,385.663 32.5,383.5C 32.5,383.167 32.5,382.833 32.5,382.5C 181.167,381.167 329.833,381.167 478.5,382.5 Z"/></g>
<g><path style="opacity:0.004" fill="#fcc72d" d="M 36.5,390.5 C 37.1667,390.5 37.5,390.833 37.5,391.5C 37.5,392.167 37.5,392.833 37.5,393.5C 35.6182,392.779 35.2848,391.779 36.5,390.5 Z"/></g>
<g><path style="opacity:0.004" fill="#fcc72d" d="M 474.5,390.5 C 475.715,391.779 475.382,392.779 473.5,393.5C 473.5,392.833 473.5,392.167 473.5,391.5C 474.167,391.5 474.5,391.167 474.5,390.5 Z"/></g>
<g><path style="opacity:0.012" fill="#fbb630" d="M 37.5,393.5 C 37.8333,393.5 38.1667,393.5 38.5,393.5C 38.3147,394.17 37.9813,394.17 37.5,393.5 Z"/></g>
<g><path style="opacity:0.012" fill="#fbb630" d="M 472.5,393.5 C 472.833,393.5 473.167,393.5 473.5,393.5C 473.315,394.17 472.981,394.17 472.5,393.5 Z"/></g>
<g><path style="opacity:0.012" fill="#f9b533" d="M 42.5,399.5 C 42.631,400.239 42.4643,400.906 42,401.5C 41.3083,400.563 41.475,399.897 42.5,399.5 Z"/></g>
<g><path style="opacity:0.012" fill="#f9b533" d="M 468.5,399.5 C 469.833,400.167 469.833,400.833 468.5,401.5C 468.5,400.833 468.5,400.167 468.5,399.5 Z"/></g>
<g><path style="opacity:0.012" fill="#fbb630" d="M 467.5,401.5 C 467.833,401.5 468.167,401.5 468.5,401.5C 468.315,402.17 467.981,402.17 467.5,401.5 Z"/></g>
<g><path style="opacity:0.012" fill="#fbb630" d="M 44.5,402.5 C 43.8333,403.167 43.8333,403.167 44.5,402.5 Z"/></g>
<g><path style="opacity:0.012" fill="#fbb630" d="M 466.5,402.5 C 466.833,402.5 467.167,402.5 467.5,402.5C 467.315,403.17 466.981,403.17 466.5,402.5 Z"/></g>
<g><path style="opacity:0.004" fill="#fed427" d="M 45.5,405.5 C 44.8333,404.167 44.8333,404.167 45.5,405.5 Z"/></g>
<g><path style="opacity:0.004" fill="#fed427" d="M 465.5,404.5 C 466.833,405.167 466.833,405.167 465.5,404.5 Z"/></g>
<g><path style="opacity:0.004" fill="#fdc82c" d="M 45.5,405.5 C 45.8333,405.5 46.1667,405.5 46.5,405.5C 47.1667,405.5 47.5,405.833 47.5,406.5C 46.6987,408.793 46.032,408.46 45.5,405.5 Z"/></g>
<g><path style="opacity:0.004" fill="#fdc82c" d="M 464.5,405.5 C 464.833,405.5 465.167,405.5 465.5,405.5C 465.573,407.027 464.906,408.027 463.5,408.5C 463.5,407.833 463.5,407.167 463.5,406.5C 464.167,406.5 464.5,406.167 464.5,405.5 Z"/></g>
<g><path style="opacity:0.02" fill="#f2b336" d="M 462.5,408.5 C 462.833,408.5 463.167,408.5 463.5,408.5C 463.315,409.17 462.981,409.17 462.5,408.5 Z"/></g>
<g><path style="opacity:0.02" fill="#f2b336" d="M 461.5,409.5 C 461.833,409.5 462.167,409.5 462.5,409.5C 462.315,410.17 461.981,410.17 461.5,409.5 Z"/></g>
<g><path style="opacity:0.004" fill="#fed427" d="M 460.5,410.5 C 460.833,410.5 461.167,410.5 461.5,410.5C 461.672,411.492 461.338,412.158 460.5,412.5C 460.5,411.833 460.5,411.167 460.5,410.5 Z"/></g>
<g><path style="opacity:0.004" fill="#fed427" d="M 459.5,412.5 C 459.833,412.5 460.167,412.5 460.5,412.5C 460.315,413.17 459.981,413.17 459.5,412.5 Z"/></g>
<g><path style="opacity:0.02" fill="#f2b336" d="M 458.5,413.5 C 458.833,413.5 459.167,413.5 459.5,413.5C 459.315,414.17 458.981,414.17 458.5,413.5 Z"/></g>
<g><path style="opacity:0.004" fill="#fcc72d" d="M 53.5,414.5 C 54.1667,414.5 54.5,414.833 54.5,415.5C 54.2533,417.975 53.5866,417.975 52.5,415.5C 52.6236,414.893 52.9569,414.56 53.5,414.5 Z"/></g>
<g><path style="opacity:0.004" fill="#fcc72d" d="M 457.5,414.5 C 457.833,414.5 458.167,414.5 458.5,414.5C 458.573,416.027 457.906,417.027 456.5,417.5C 456.5,416.833 456.5,416.167 456.5,415.5C 457.167,415.5 457.5,415.167 457.5,414.5 Z"/></g>
<g><path style="opacity:0.012" fill="#fbb630" d="M 455.5,417.5 C 455.833,417.5 456.167,417.5 456.5,417.5C 456.315,418.17 455.981,418.17 455.5,417.5 Z"/></g>
<g><path style="opacity:0.004" fill="#fed427" d="M 56.5,418.5 C 55.8333,419.167 55.8333,419.167 56.5,418.5 Z"/></g>
<g><path style="opacity:0.004" fill="#fed427" d="M 454.5,418.5 C 454.833,418.5 455.167,418.5 455.5,418.5C 455.315,419.17 454.981,419.17 454.5,418.5 Z"/></g>
<g><path style="opacity:0.004" fill="#fed427" d="M 57.5,421.5 C 56.8333,420.167 56.8333,420.167 57.5,421.5 Z"/></g>
<g><path style="opacity:0.004" fill="#fed427" d="M 453.5,420.5 C 454.833,421.167 454.833,421.167 453.5,420.5 Z"/></g>
<g><path style="opacity:0.004" fill="#fed427" d="M 57.5,421.5 C 58.1667,421.5 58.5,421.833 58.5,422.5C 58.1667,422.167 57.8333,421.833 57.5,421.5 Z"/></g>
<g><path style="opacity:0.999" fill="#fbc44e" d="M 447.5,425.5 C 447.5,425.833 447.5,426.167 447.5,426.5C 446.833,426.5 446.5,426.833 446.5,427.5C 445.833,427.5 445.5,427.833 445.5,428.5C 444.833,428.5 444.5,428.833 444.5,429.5C 441.757,431.239 439.757,433.573 438.5,436.5C 437.833,436.5 437.5,436.833 437.5,437.5C 436.833,437.5 436.5,437.833 436.5,438.5C 433.573,439.757 431.239,441.757 429.5,444.5C 428.833,444.5 428.5,444.833 428.5,445.5C 427.833,445.5 427.5,445.833 427.5,446.5C 426.833,446.5 426.5,446.833 426.5,447.5C 425.833,447.5 425.5,447.833 425.5,448.5C 424.833,448.5 424.5,448.833 424.5,449.5C 423.833,449.5 423.5,449.833 423.5,450.5C 421.251,451.08 419.585,452.413 418.5,454.5C 417.833,454.5 417.5,454.833 417.5,455.5C 416.508,455.328 415.842,455.662 415.5,456.5C 414.833,456.5 414.5,456.833 414.5,457.5C 413.833,457.5 413.5,457.833 413.5,458.5C 412.833,458.5 412.5,458.833 412.5,459.5C 411.508,459.328 410.842,459.662 410.5,460.5C 409.833,460.5 409.5,460.833 409.5,461.5C 408.833,461.5 408.5,461.833 408.5,462.5C 407.508,462.328 406.842,462.662 406.5,463.5C 405.833,463.5 405.5,463.833 405.5,464.5C 403.973,464.427 402.973,465.094 402.5,466.5C 401.833,466.5 401.5,466.833 401.5,467.5C 400.508,467.328 399.842,467.662 399.5,468.5C 397.205,469.475 395.205,470.808 393.5,472.5C 392.508,472.328 391.842,472.662 391.5,473.5C 390.833,473.5 390.5,473.833 390.5,474.5C 388.938,474.733 387.605,475.4 386.5,476.5C 386.25,475.078 385.417,474.078 384,473.5C 298.287,473.546 212.621,473.546 127,473.5C 125.583,474.078 124.75,475.078 124.5,476.5C 123.395,475.4 122.062,474.733 120.5,474.5C 120.5,473.833 120.167,473.5 119.5,473.5C 114.841,470.503 110.175,467.503 105.5,464.5C 105.5,463.833 105.167,463.5 104.5,463.5C 102.14,461.147 99.4735,459.147 96.5,457.5C 96.5,456.833 96.1667,456.5 95.5,456.5C 93.1215,454.122 90.4549,452.122 87.5,450.5C 86.8333,449.167 85.8333,448.167 84.5,447.5C 84.5,446.833 84.1667,446.5 83.5,446.5C 83.5,445.833 83.1667,445.5 82.5,445.5C 82.5,444.833 82.1667,444.5 81.5,444.5C 79.7607,441.757 77.4274,439.757 74.5,438.5C 72.5472,434.88 69.8805,431.88 66.5,429.5C 66.5,428.833 66.1667,428.5 65.5,428.5C 65.5,427.833 65.1667,427.5 64.5,427.5C 64.5,426.833 64.1667,426.5 63.5,426.5C 62.8333,425.5 62.1667,424.5 61.5,423.5C 62.6412,422.661 63.9745,421.994 65.5,421.5C 192.167,421.5 318.833,421.5 445.5,421.5C 446.308,421.808 446.975,422.308 447.5,423C 446.226,423.977 446.226,424.811 447.5,425.5 Z"/></g>
<g><path style="opacity:0.004" fill="#fed427" d="M 453.5,421.5 C 452.833,422.167 452.833,422.167 453.5,421.5 Z"/></g>
<g><path style="opacity:0.02" fill="#f2b336" d="M 58.5,422.5 C 59.8333,423.167 59.8333,423.167 58.5,422.5 Z"/></g>
<g><path style="opacity:0.02" fill="#f2b336" d="M 452.5,422.5 C 451.833,423.167 451.833,423.167 452.5,422.5 Z"/></g>
<g><path style="opacity:0.02" fill="#f2b336" d="M 450.5,423.5 C 450.833,423.5 451.167,423.5 451.5,423.5C 451.315,424.17 450.981,424.17 450.5,423.5 Z"/></g>
<g><path style="opacity:0.004" fill="#fed427" d="M 449.5,424.5 C 449.833,424.5 450.167,424.5 450.5,424.5C 450.315,425.17 449.981,425.17 449.5,424.5 Z"/></g>
<g><path style="opacity:0.004" fill="#fed427" d="M 448.5,425.5 C 448.833,425.5 449.167,425.5 449.5,425.5C 449.315,426.17 448.981,426.17 448.5,425.5 Z"/></g>
<g><path style="opacity:0.004" fill="#fecd2a" d="M 63.5,426.5 C 64.1667,426.5 64.5,426.833 64.5,427.5C 65.1667,427.5 65.5,427.833 65.5,428.5C 66.1667,428.5 66.5,428.833 66.5,429.5C 66.631,430.239 66.4643,430.906 66,431.5C 65,430.5 64,429.5 63,428.5C 62.3083,427.563 62.475,426.897 63.5,426.5 Z"/></g>
<g><path style="opacity:0.004" fill="#fecd2a" d="M 447.5,426.5 C 447.833,426.5 448.167,426.5 448.5,426.5C 447.969,428.544 446.802,430.211 445,431.5C 444.536,430.906 444.369,430.239 444.5,429.5C 445.167,429.5 445.5,429.167 445.5,428.5C 446.167,428.5 446.5,428.167 446.5,427.5C 447.167,427.5 447.5,427.167 447.5,426.5 Z"/></g>
<g><path style="opacity:0.004" fill="#fed427" d="M 68.5,433.5 C 67.8333,432.167 67.8333,432.167 68.5,433.5 Z"/></g>
<g><path style="opacity:0.004" fill="#fed427" d="M 442.5,432.5 C 443.833,433.167 443.833,433.167 442.5,432.5 Z"/></g>
<g><path style="opacity:0.004" fill="#fed427" d="M 68.5,433.5 C 69.1667,433.5 69.5,433.833 69.5,434.5C 69.1667,434.167 68.8333,433.833 68.5,433.5 Z"/></g>
<g><path style="opacity:0.004" fill="#fed427" d="M 442.5,433.5 C 441.833,434.167 441.833,434.167 442.5,433.5 Z"/></g>
<g><path style="opacity:0.012" fill="#fbb630" d="M 69.5,434.5 C 70.1667,434.5 70.5,434.833 70.5,435.5C 70.1667,435.167 69.8333,434.833 69.5,434.5 Z"/></g>
<g><path style="opacity:0.012" fill="#fbb630" d="M 441.5,434.5 C 440.833,435.167 440.833,435.167 441.5,434.5 Z"/></g>
<g><path style="opacity:0.012" fill="#fbb630" d="M 70.5,435.5 C 71.8333,436.167 71.8333,436.167 70.5,435.5 Z"/></g>
<g><path style="opacity:0.012" fill="#fbb630" d="M 440.5,435.5 C 439.833,436.167 439.833,436.167 440.5,435.5 Z"/></g>
<g><path style="opacity:0.004" fill="#fed427" d="M 438.5,436.5 C 438.833,436.5 439.167,436.5 439.5,436.5C 439.315,437.17 438.981,437.17 438.5,436.5 Z"/></g>
<g><path style="opacity:0.004" fill="#fed427" d="M 437.5,437.5 C 437.833,437.5 438.167,437.5 438.5,437.5C 438.315,438.17 437.981,438.17 437.5,437.5 Z"/></g>
<g><path style="opacity:0.004" fill="#fed427" d="M 74.5,438.5 C 74.5,438.833 74.5,439.167 74.5,439.5C 73.8299,439.019 73.8299,438.685 74.5,438.5 Z"/></g>
<g><path style="opacity:0.004" fill="#fed427" d="M 436.5,438.5 C 436.833,438.5 437.167,438.5 437.5,438.5C 437.315,439.17 436.981,439.17 436.5,438.5 Z"/></g>
<g><path style="opacity:0.012" fill="#fbb630" d="M 74.5,439.5 C 75.1667,439.5 75.5,439.833 75.5,440.5C 75.1667,440.167 74.8333,439.833 74.5,439.5 Z"/></g>
<g><path style="opacity:0.012" fill="#fbb630" d="M 436.5,439.5 C 435.833,440.167 435.833,440.167 436.5,439.5 Z"/></g>
<g><path style="opacity:0.012" fill="#fbb630" d="M 75.5,440.5 C 76.1667,440.5 76.5,440.833 76.5,441.5C 76.1667,441.167 75.8333,440.833 75.5,440.5 Z"/></g>
<g><path style="opacity:0.012" fill="#fbb630" d="M 435.5,440.5 C 434.833,441.167 434.833,441.167 435.5,440.5 Z"/></g>
<g><path style="opacity:0.004" fill="#fed427" d="M 76.5,441.5 C 77.1667,441.5 77.5,441.833 77.5,442.5C 77.1667,442.167 76.8333,441.833 76.5,441.5 Z"/></g>
<g><path style="opacity:0.004" fill="#fed427" d="M 434.5,441.5 C 433.833,442.167 433.833,442.167 434.5,441.5 Z"/></g>
<g><path style="opacity:0.004" fill="#fed427" d="M 77.5,442.5 C 78.8333,443.167 78.8333,443.167 77.5,442.5 Z"/></g>
<g><path style="opacity:0.004" fill="#fed427" d="M 433.5,442.5 C 432.833,443.167 432.833,443.167 433.5,442.5 Z"/></g>
<g><path style="opacity:0.004" fill="#fed029" d="M 81.5,444.5 C 82.1667,444.5 82.5,444.833 82.5,445.5C 83.1667,445.5 83.5,445.833 83.5,446.5C 84.1667,446.5 84.5,446.833 84.5,447.5C 84.1034,448.525 83.4368,448.692 82.5,448C 81.5,447 80.5,446 79.5,445C 80.0944,444.536 80.7611,444.369 81.5,444.5 Z"/></g>
<g><path style="opacity:0.004" fill="#fed029" d="M 429.5,444.5 C 430.239,444.369 430.906,444.536 431.5,445C 430.211,446.802 428.544,447.969 426.5,448.5C 426.5,448.167 426.5,447.833 426.5,447.5C 427.167,447.5 427.5,447.167 427.5,446.5C 428.167,446.5 428.5,446.167 428.5,445.5C 429.167,445.5 429.5,445.167 429.5,444.5 Z"/></g>
<g><path style="opacity:0.004" fill="#fed427" d="M 425.5,448.5 C 425.833,448.5 426.167,448.5 426.5,448.5C 426.315,449.17 425.981,449.17 425.5,448.5 Z"/></g>
<g><path style="opacity:0.004" fill="#fed427" d="M 424.5,449.5 C 424.833,449.5 425.167,449.5 425.5,449.5C 425.315,450.17 424.981,450.17 424.5,449.5 Z"/></g>
<g><path style="opacity:0.02" fill="#f2b336" d="M 87.5,450.5 C 87.5,450.833 87.5,451.167 87.5,451.5C 86.8299,451.019 86.8299,450.685 87.5,450.5 Z"/></g>
<g><path style="opacity:0.02" fill="#f2b336" d="M 423.5,450.5 C 423.833,450.5 424.167,450.5 424.5,450.5C 424.315,451.17 423.981,451.17 423.5,450.5 Z"/></g>
<g><path style="opacity:0.02" fill="#f2b336" d="M 87.5,451.5 C 88.1667,451.5 88.5,451.833 88.5,452.5C 88.1667,452.167 87.8333,451.833 87.5,451.5 Z"/></g>
<g><path style="opacity:0.02" fill="#f2b336" d="M 423.5,451.5 C 422.833,452.167 422.833,452.167 423.5,451.5 Z"/></g>
<g><path style="opacity:0.004" fill="#fed427" d="M 88.5,452.5 C 89.1667,452.5 89.5,452.833 89.5,453.5C 89.1667,453.167 88.8333,452.833 88.5,452.5 Z"/></g>
<g><path style="opacity:0.004" fill="#fed427" d="M 422.5,452.5 C 421.833,453.167 421.833,453.167 422.5,452.5 Z"/></g>
<g><path style="opacity:0.004" fill="#fed427" d="M 89.5,453.5 C 90.8333,454.167 90.8333,454.167 89.5,453.5 Z"/></g>
<g><path style="opacity:0.004" fill="#fed427" d="M 421.5,453.5 C 420.833,454.167 420.833,454.167 421.5,453.5 Z"/></g>
<g><path style="opacity:0.004" fill="#fed427" d="M 418.5,454.5 C 419.833,455.167 419.833,455.167 418.5,454.5 Z"/></g>
<g><path style="opacity:0.012" fill="#fbb630" d="M 417.5,455.5 C 417.833,455.5 418.167,455.5 418.5,455.5C 418.315,456.17 417.981,456.17 417.5,455.5 Z"/></g>
<g><path style="opacity:0.012" fill="#fbc12f" d="M 95.5,456.5 C 96.1667,456.5 96.5,456.833 96.5,457.5C 95.5029,458.713 94.5029,458.546 93.5,457C 94.0944,456.536 94.7611,456.369 95.5,456.5 Z"/></g>
<g><path style="opacity:0.004" fill="#fcc92d" d="M 415.5,456.5 C 416.167,456.5 416.833,456.5 417.5,456.5C 417.027,457.906 416.027,458.573 414.5,458.5C 414.5,458.167 414.5,457.833 414.5,457.5C 415.167,457.5 415.5,457.167 415.5,456.5 Z"/></g>
<g><path style="opacity:0.02" fill="#f2b336" d="M 413.5,458.5 C 413.833,458.5 414.167,458.5 414.5,458.5C 414.315,459.17 413.981,459.17 413.5,458.5 Z"/></g>
<g><path style="opacity:0.004" fill="#fed427" d="M 412.5,459.5 C 412.833,459.5 413.167,459.5 413.5,459.5C 413.315,460.17 412.981,460.17 412.5,459.5 Z"/></g>
<g><path style="opacity:0.004" fill="#fed427" d="M 410.5,461.5 C 410.5,461.167 410.5,460.833 410.5,460.5C 411.167,460.5 411.833,460.5 412.5,460.5C 412.158,461.338 411.492,461.672 410.5,461.5 Z"/></g>
<g><path style="opacity:0.02" fill="#f2b336" d="M 409.5,461.5 C 409.833,461.5 410.167,461.5 410.5,461.5C 410.315,462.17 409.981,462.17 409.5,461.5 Z"/></g>
<g><path style="opacity:0.02" fill="#f2b336" d="M 408.5,462.5 C 408.833,462.5 409.167,462.5 409.5,462.5C 409.315,463.17 408.981,463.17 408.5,462.5 Z"/></g>
<g><path style="opacity:0.012" fill="#fdc22d" d="M 104.5,463.5 C 105.167,463.5 105.5,463.833 105.5,464.5C 105.5,464.833 105.5,465.167 105.5,465.5C 102.54,464.968 102.207,464.301 104.5,463.5 Z"/></g>
<g><path style="opacity:0.004" fill="#feca2b" d="M 406.5,463.5 C 407.167,463.5 407.833,463.5 408.5,463.5C 408.027,464.906 407.027,465.573 405.5,465.5C 405.5,465.167 405.5,464.833 405.5,464.5C 406.167,464.5 406.5,464.167 406.5,463.5 Z"/></g>
<g><path style="opacity:0.004" fill="#fed427" d="M 105.5,465.5 C 106.833,466.167 106.833,466.167 105.5,465.5 Z"/></g>
<g><path style="opacity:0.004" fill="#fed427" d="M 405.5,465.5 C 404.833,466.167 404.833,466.167 405.5,465.5 Z"/></g>
<g><path style="opacity:0.004" fill="#fed427" d="M 402.5,466.5 C 403.833,467.167 403.833,467.167 402.5,466.5 Z"/></g>
<g><path style="opacity:0.012" fill="#fbb630" d="M 401.5,467.5 C 401.833,467.5 402.167,467.5 402.5,467.5C 402.315,468.17 401.981,468.17 401.5,467.5 Z"/></g>
<g><path style="opacity:0.004" fill="#fbc82e" d="M 399.5,468.5 C 400.167,468.5 400.833,468.5 401.5,468.5C 400.833,469.833 400.167,469.833 399.5,468.5 Z"/></g>
<g><path style="opacity:0.012" fill="#fbb630" d="M 393.5,472.5 C 394.833,473.167 394.833,473.167 393.5,472.5 Z"/></g>
<g><path style="opacity:0.004" fill="#fcc72d" d="M 119.5,473.5 C 120.167,473.5 120.5,473.833 120.5,474.5C 119.503,475.713 118.503,475.546 117.5,474C 118.094,473.536 118.761,473.369 119.5,473.5 Z"/></g>
<g><path style="opacity:0.004" fill="#fcc72d" d="M 391.5,473.5 C 392.167,473.5 392.833,473.5 393.5,473.5C 392.779,475.382 391.779,475.715 390.5,474.5C 391.167,474.5 391.5,474.167 391.5,473.5 Z"/></g>
<g><path style="opacity:0.004" fill="#fed427" d="M 123.5,477.5 C 124.833,478.167 124.833,478.167 123.5,477.5 Z"/></g>
<g><path style="opacity:0.004" fill="#fed427" d="M 386.5,477.5 C 387.833,478.167 387.833,478.167 386.5,477.5 Z"/></g>
<g><path style="opacity:0.004" fill="#feca2b" d="M 383.5,479.5 C 383.5,479.167 383.5,478.833 383.5,478.5C 386.167,478.833 386.167,479.167 383.5,479.5 Z"/></g>
<g><path style="opacity:0.02" fill="#f7bd32" d="M 130.5,481.5 C 131.167,481.5 131.833,481.5 132.5,481.5C 132.5,481.833 132.5,482.167 132.5,482.5C 131.508,482.672 130.842,482.338 130.5,481.5 Z"/></g>
<g><path style="opacity:0.004" fill="#fbc82e" d="M 378.5,482.5 C 378.5,482.167 378.5,481.833 378.5,481.5C 379.167,481.5 379.833,481.5 380.5,481.5C 380.158,482.338 379.492,482.672 378.5,482.5 Z"/></g>
<g><path style="opacity:0.004" fill="#fed427" d="M 132.5,482.5 C 133.833,483.167 133.833,483.167 132.5,482.5 Z"/></g>
<g><path style="opacity:0.004" fill="#fed427" d="M 378.5,482.5 C 377.833,483.167 377.833,483.167 378.5,482.5 Z"/></g>
<g><path style="opacity:0.004" fill="#fed427" d="M 134.5,483.5 C 135.833,484.167 135.833,484.167 134.5,483.5 Z"/></g>
<g><path style="opacity:0.004" fill="#fed427" d="M 375.5,483.5 C 376.833,484.167 376.833,484.167 375.5,483.5 Z"/></g>
<g><path style="opacity:0.004" fill="#fbc82e" d="M 372.5,485.5 C 372.5,485.167 372.5,484.833 372.5,484.5C 375.167,484.833 375.167,485.167 372.5,485.5 Z"/></g>
<g><path style="opacity:0.018" fill="#fdb630" d="M 370.5,486.5 C 370.5,486.167 370.5,485.833 370.5,485.5C 371.167,485.5 371.833,485.5 372.5,485.5C 372.158,486.338 371.492,486.672 370.5,486.5 Z"/></g>
<g><path style="opacity:0.012" fill="#f9ba32" d="M 142.5,486.5 C 142.5,487.167 142.833,487.5 143.5,487.5C 143.5,487.833 143.5,488.167 143.5,488.5C 140.54,487.968 140.207,487.301 142.5,486.5 Z"/></g>
<g><path style="opacity:0.004" fill="#f9c230" d="M 368.5,486.5 C 369.167,486.5 369.833,486.5 370.5,486.5C 370.027,487.906 369.027,488.573 367.5,488.5C 367.5,488.167 367.5,487.833 367.5,487.5C 368.167,487.5 368.5,487.167 368.5,486.5 Z"/></g>
<g><path style="opacity:0.004" fill="#fed427" d="M 143.5,488.5 C 144.167,488.5 144.833,488.5 145.5,488.5C 144.833,489.833 144.167,489.833 143.5,488.5 Z"/></g>
<g><path style="opacity:0.996" fill="#fbc754" d="M 386.5,476.5 C 385.29,476.932 384.29,477.599 383.5,478.5C 382.167,478.833 382.167,479.167 383.5,479.5C 383.027,480.906 382.027,481.573 380.5,481.5C 379.833,480.167 379.167,480.167 378.5,481.5C 376.181,481.992 374.181,482.992 372.5,484.5C 371.508,484.328 370.842,484.662 370.5,485.5C 369.508,485.328 368.842,485.662 368.5,486.5C 367.833,486.5 367.5,486.833 367.5,487.5C 366.508,487.328 365.842,487.662 365.5,488.5C 363.13,491.042 359.13,493.042 353.5,494.5C 352.833,493.167 352.167,493.167 351.5,494.5C 350.209,494.263 349.209,494.596 348.5,495.5C 347.209,495.263 346.209,495.596 345.5,496.5C 342.833,496.833 342.833,497.167 345.5,497.5C 344.22,498.931 342.553,499.598 340.5,499.5C 338.662,498.322 336.995,498.655 335.5,500.5C 333.585,500.216 331.919,500.549 330.5,501.5C 329.209,501.263 328.209,501.596 327.5,502.5C 320.423,504.354 313.423,506.021 306.5,507.5C 304.901,507.232 303.568,507.566 302.5,508.5C 300.585,508.216 298.919,508.549 297.5,509.5C 295.265,509.205 293.265,509.539 291.5,510.5C 288.615,510.194 285.948,510.527 283.5,511.5C 264.833,511.5 246.167,511.5 227.5,511.5C 225.052,510.527 222.385,510.194 219.5,510.5C 204.793,507.819 190.126,504.486 175.5,500.5C 174.005,498.655 172.338,498.322 170.5,499.5C 167.833,498.167 165.167,496.833 162.5,495.5C 161.791,494.596 160.791,494.263 159.5,494.5C 158.833,493.167 158.167,493.167 157.5,494.5C 151.87,493.042 147.87,491.042 145.5,488.5C 145.158,487.662 144.492,487.328 143.5,487.5C 142.833,487.5 142.5,487.167 142.5,486.5C 139.485,484.326 136.151,482.659 132.5,481.5C 131.833,480.167 131.167,480.167 130.5,481.5C 129.414,479.551 127.414,477.885 124.5,476.5C 124.75,475.078 125.583,474.078 127,473.5C 212.621,473.546 298.287,473.546 384,473.5C 385.417,474.078 386.25,475.078 386.5,476.5 Z"/></g>
<g><path style="opacity:0.004" fill="#fed427" d="M 365.5,488.5 C 366.167,488.5 366.833,488.5 367.5,488.5C 366.833,489.833 366.167,489.833 365.5,488.5 Z"/></g>
<g><path style="opacity:0.004" fill="#fed427" d="M 146.5,489.5 C 147.833,490.167 147.833,490.167 146.5,489.5 Z"/></g>
<g><path style="opacity:0.004" fill="#fed427" d="M 363.5,489.5 C 364.833,490.167 364.833,490.167 363.5,489.5 Z"/></g>
<g><path style="opacity:0.004" fill="#fed427" d="M 157.5,494.5 C 158.167,494.5 158.833,494.5 159.5,494.5C 158.833,495.833 158.167,495.833 157.5,494.5 Z"/></g>
<g><path style="opacity:0.004" fill="#fed427" d="M 351.5,494.5 C 352.167,494.5 352.833,494.5 353.5,494.5C 352.833,495.833 352.167,495.833 351.5,494.5 Z"/></g>
<g><path style="opacity:0.004" fill="#fed427" d="M 162.5,495.5 C 162.103,496.525 161.437,496.692 160.5,496C 161.094,495.536 161.761,495.369 162.5,495.5 Z"/></g>
<g><path style="opacity:0.004" fill="#fed427" d="M 348.5,495.5 C 349.239,495.369 349.906,495.536 350.5,496C 349.563,496.692 348.897,496.525 348.5,495.5 Z"/></g>
<g><path style="opacity:0.004" fill="#feca2b" d="M 345.5,497.5 C 345.5,497.167 345.5,496.833 345.5,496.5C 348.167,496.833 348.167,497.167 345.5,497.5 Z"/></g>
<g><path style="opacity:0.02" fill="#f7bd32" d="M 170.5,499.5 C 171.239,499.369 171.906,499.536 172.5,500C 171.563,500.692 170.897,500.525 170.5,499.5 Z"/></g>
<g><path style="opacity:0.004" fill="#fbc82e" d="M 340.5,499.5 C 340.103,500.525 339.437,500.692 338.5,500C 339.094,499.536 339.761,499.369 340.5,499.5 Z"/></g>
<g><path style="opacity:0.004" fill="#fed427" d="M 175.5,500.5 C 175.103,501.525 174.437,501.692 173.5,501C 174.094,500.536 174.761,500.369 175.5,500.5 Z"/></g>
<g><path style="opacity:0.004" fill="#fed427" d="M 335.5,500.5 C 336.239,500.369 336.906,500.536 337.5,501C 336.563,501.692 335.897,501.525 335.5,500.5 Z"/></g>
<g><path style="opacity:0.004" fill="#fed427" d="M 330.5,502.5 C 330.5,502.167 330.5,501.833 330.5,501.5C 334.5,501.833 334.5,502.167 330.5,502.5 Z"/></g>
<g><path style="opacity:0.02" fill="#f6bb34" d="M 327.5,502.5 C 328.5,502.5 329.5,502.5 330.5,502.5C 329.5,503.833 328.5,503.833 327.5,502.5 Z"/></g>
<g><path style="opacity:0.004" fill="#fed427" d="M 193.5,507.5 C 194.251,506.427 195.251,506.26 196.5,507C 195.552,507.483 194.552,507.649 193.5,507.5 Z"/></g>
<g><path style="opacity:0.004" fill="#fed427" d="M 314.5,507.5 C 315.251,506.427 316.251,506.26 317.5,507C 316.552,507.483 315.552,507.649 314.5,507.5 Z"/></g>
<g><path style="opacity:0.004" fill="#fed427" d="M 306.5,508.5 C 306.5,508.167 306.5,507.833 306.5,507.5C 311.833,507.833 311.833,508.167 306.5,508.5 Z"/></g>
<g><path style="opacity:0.02" fill="#f9bb31" d="M 302.5,509.5 C 302.5,509.167 302.5,508.833 302.5,508.5C 303.833,508.5 305.167,508.5 306.5,508.5C 305.432,509.434 304.099,509.768 302.5,509.5 Z"/></g>
<g><path style="opacity:0.012" fill="#fbbb30" d="M 297.5,510.5 C 297.5,510.167 297.5,509.833 297.5,509.5C 299.167,509.5 300.833,509.5 302.5,509.5C 301.081,510.451 299.415,510.784 297.5,510.5 Z"/></g>
<g><path style="opacity:0.02" fill="#fabc31" d="M 213.5,511.5 C 215.265,510.539 217.265,510.205 219.5,510.5C 219.5,510.833 219.5,511.167 219.5,511.5C 217.5,511.5 215.5,511.5 213.5,511.5 Z"/></g>
<g><path style="opacity:0.012" fill="#fbbd30" d="M 291.5,511.5 C 291.5,511.167 291.5,510.833 291.5,510.5C 293.5,510.5 295.5,510.5 297.5,510.5C 297.5,510.833 297.5,511.167 297.5,511.5C 295.5,511.5 293.5,511.5 291.5,511.5 Z"/></g>
</svg>
