<?xml version="1.0" encoding="UTF-8"?>
<!DOCTYPE svg PUBLIC "-//W3C//DTD SVG 1.1//EN" "http://www.w3.org/Graphics/SVG/1.1/DTD/svg11.dtd">
<svg xmlns="http://www.w3.org/2000/svg" version="1.1" width="222px" height="222px" style="shape-rendering:geometricPrecision; text-rendering:geometricPrecision; image-rendering:optimizeQuality; fill-rule:evenodd; clip-rule:evenodd" xmlns:xlink="http://www.w3.org/1999/xlink">
<g><path style="opacity:0.81" fill="#f2f4f7" d="M 95.5,-0.5 C 105.5,-0.5 115.5,-0.5 125.5,-0.5C 178.5,10.5 210.5,42.5 221.5,95.5C 221.5,105.5 221.5,115.5 221.5,125.5C 210.5,178.5 178.5,210.5 125.5,221.5C 115.5,221.5 105.5,221.5 95.5,221.5C 42.5,210.5 10.5,178.5 -0.5,125.5C -0.5,115.5 -0.5,105.5 -0.5,95.5C 10.5,42.5 42.5,10.5 95.5,-0.5 Z"/></g>
<g><path style="opacity:1" fill="#3f5f87" d="M 216.5,87.5 C 218.073,99.4379 218.74,111.438 218.5,123.5C 211.588,169.764 185.921,200.597 141.5,216C 92.5302,228.083 52.6968,214.25 22,174.5C 13.7564,162.145 7.92302,148.812 4.5,134.5C 3.16667,119.167 3.16667,103.833 4.5,88.5C 5.43448,87.4324 5.76781,86.099 5.5,84.5C 7.20427,81.0615 8.5376,77.3948 9.5,73.5C 26.0404,32.0139 56.7071,8.51387 101.5,3C 145.647,1.32208 179.814,18.8221 204,55.5C 206.139,61.1122 208.806,66.4455 212,71.5C 213.615,76.8395 215.115,82.1729 216.5,87.5 Z"/></g>
<g><path style="opacity:1" fill="#030508" d="M 100.5,5.5 C 153.93,4.59943 190.764,28.5994 211,77.5C 222.732,122.582 211.899,161.082 178.5,193C 140.85,221.406 100.85,225.072 58.5,204C 20.4172,179.334 2.91723,144.167 6,98.5C 15.8228,45.5108 47.3228,14.5108 100.5,5.5 Z"/></g>
<g><path style="opacity:1" fill="#97aac2" d="M 9.5,73.5 C 8.5376,77.3948 7.20427,81.0615 5.5,84.5C 5.677,80.2924 7.01034,76.6257 9.5,73.5 Z"/></g>
<g><path style="opacity:1" fill="#18293d" d="M 13.5,93.5 C 12.2925,104.512 12.2925,115.512 13.5,126.5C 12.7321,125.737 12.2321,124.737 12,123.5C 11.8333,119.5 11.6667,115.5 11.5,111.5C 11.3332,105.26 11.9999,99.2597 13.5,93.5 Z"/></g>
<g><path style="opacity:1" fill="#6e88a9" d="M 4.5,88.5 C 3.16667,103.833 3.16667,119.167 4.5,134.5C 2.97323,126.893 2.30657,119.06 2.5,111C 2.2859,103.266 2.95257,95.7665 4.5,88.5 Z"/></g>
<g><path style="opacity:1" fill="#a0b1c7" d="M 216.5,87.5 C 219.495,99.3838 220.162,111.384 218.5,123.5C 218.74,111.438 218.073,99.4379 216.5,87.5 Z"/></g>
<g><path style="opacity:1" fill="#1e3149" d="M 207.5,93.5 C 209.034,99.0837 209.701,104.917 209.5,111C 209.873,119.151 208.873,126.985 206.5,134.5C 208.704,120.886 209.037,107.219 207.5,93.5 Z"/></g>
<g><path style="opacity:1" fill="#3f5f88" d="M 207.5,93.5 C 209.037,107.219 208.704,120.886 206.5,134.5C 195.982,174.182 170.649,199.016 130.5,209C 70.8648,215.615 32.0315,190.448 14,133.5C 13.5034,131.19 13.3367,128.857 13.5,126.5C 12.2925,115.512 12.2925,104.512 13.5,93.5C 21.2114,56.943 42.5448,31.7764 77.5,18C 129.135,4.20568 169.302,19.7057 198,64.5C 202.891,73.6122 206.058,83.2789 207.5,93.5 Z"/></g>
<g><path style="opacity:1" fill="#9fb0c6" d="M 203.5,89.5 C 205.068,91.8109 205.902,94.4776 206,97.5C 206.823,106.01 206.657,114.344 205.5,122.5C 205.874,111.42 205.207,100.42 203.5,89.5 Z"/></g>
<g><path style="opacity:1" fill="#adbccf" d="M 198.5,73.5 C 201.14,78.085 202.806,83.085 203.5,88.5C 201.256,83.7669 199.589,78.7669 198.5,73.5 Z"/></g>
<g><path style="opacity:1" fill="#c7cad0" d="M 48.5,39.5 C 48.8333,39.5 49.1667,39.5 49.5,39.5C 47.2294,41.2659 45.0627,43.2659 43,45.5C 42.2838,47.8791 41.1172,49.8791 39.5,51.5C 39.5,50.1667 38.8333,49.5 37.5,49.5C 40.5628,45.4342 44.2294,42.1009 48.5,39.5 Z"/></g>
<g><path style="opacity:1" fill="#514c53" d="M 53.5,38.5 C 68.8333,38.5 84.1667,38.5 99.5,38.5C 99.5,41.5 99.5,44.5 99.5,47.5C 84.9903,47.1707 70.6569,47.5041 56.5,48.5C 53.3252,48.8399 51.1585,50.5066 50,53.5C 49.3333,90.5 49.3333,127.5 50,164.5C 51.152,166.649 52.652,168.482 54.5,170C 91.8333,170.667 129.167,170.667 166.5,170C 169.023,168.64 171.023,166.807 172.5,164.5C 173.497,145.674 173.83,126.674 173.5,107.5C 176.167,107.5 178.833,107.5 181.5,107.5C 181.5,127.167 181.5,146.833 181.5,166.5C 179.75,174.084 175.083,178.918 167.5,181C 129.5,181.667 91.5,181.667 53.5,181C 46.9742,178.474 42.4742,173.974 40,167.5C 39.5,128.835 39.3333,90.1681 39.5,51.5C 41.1172,49.8791 42.2838,47.8791 43,45.5C 45.0627,43.2659 47.2294,41.2659 49.5,39.5C 50.8333,39.1667 52.1667,38.8333 53.5,38.5 Z"/></g>
<g><path style="opacity:1" fill="#8b898d" d="M 53.5,38.5 C 68.9911,37.5037 84.6578,37.1704 100.5,37.5C 100.5,41.1667 100.5,44.8333 100.5,48.5C 85.8333,48.5 71.1667,48.5 56.5,48.5C 70.6569,47.5041 84.9903,47.1707 99.5,47.5C 99.5,44.5 99.5,41.5 99.5,38.5C 84.1667,38.5 68.8333,38.5 53.5,38.5 Z"/></g>
<g><path style="opacity:1" fill="#faf9fa" d="M 198.5,73.5 C 199.589,78.7669 201.256,83.7669 203.5,88.5C 203.5,88.8333 203.5,89.1667 203.5,89.5C 205.207,100.42 205.874,111.42 205.5,122.5C 199.424,161.769 177.758,188.602 140.5,203C 100.386,214.598 66.2191,205.098 38,174.5C 14.9096,145.054 9.2429,112.387 21,76.5C 23.8814,72.0706 26.2147,67.404 28,62.5C 31.0299,57.9845 34.1966,53.6512 37.5,49.5C 38.8333,49.5 39.5,50.1667 39.5,51.5C 39.3333,90.1681 39.5,128.835 40,167.5C 42.4742,173.974 46.9742,178.474 53.5,181C 91.5,181.667 129.5,181.667 167.5,181C 175.083,178.918 179.75,174.084 181.5,166.5C 182.497,146.674 182.83,126.674 182.5,106.5C 179.167,106.5 175.833,106.5 172.5,106.5C 172.5,125.833 172.5,145.167 172.5,164.5C 171.023,166.807 169.023,168.64 166.5,170C 129.167,170.667 91.8333,170.667 54.5,170C 52.652,168.482 51.152,166.649 50,164.5C 49.3333,127.5 49.3333,90.5 50,53.5C 51.1585,50.5066 53.3252,48.8399 56.5,48.5C 71.1667,48.5 85.8333,48.5 100.5,48.5C 100.5,44.8333 100.5,41.1667 100.5,37.5C 84.6578,37.1704 68.9911,37.5037 53.5,38.5C 52.1667,38.8333 50.8333,39.1667 49.5,39.5C 49.1667,39.5 48.8333,39.5 48.5,39.5C 65.8977,23.4715 86.5644,15.4715 110.5,15.5C 151.573,17.3495 180.907,36.6828 198.5,73.5 Z"/></g>
<g><path style="opacity:1" fill="#878588" d="M 109.5,144.5 C 110.461,146.265 110.795,148.265 110.5,150.5C 106.167,150.5 101.833,150.5 97.5,150.5C 101.298,149.517 105.298,149.183 109.5,149.5C 109.5,147.833 109.5,146.167 109.5,144.5 Z"/></g>
<g><path style="opacity:1" fill="#6a676c" d="M 181.5,166.5 C 181.5,146.833 181.5,127.167 181.5,107.5C 178.833,107.5 176.167,107.5 173.5,107.5C 173.83,126.674 173.497,145.674 172.5,164.5C 172.5,145.167 172.5,125.833 172.5,106.5C 175.833,106.5 179.167,106.5 182.5,106.5C 182.83,126.674 182.497,146.674 181.5,166.5 Z"/></g>
<g><path style="opacity:1" fill="#585359" d="M 117.5,130.5 C 120.167,130.5 122.833,130.5 125.5,130.5C 125.5,141.5 125.5,152.5 125.5,163.5C 122.833,163.5 120.167,163.5 117.5,163.5C 117.5,152.5 117.5,141.5 117.5,130.5 Z"/></g>
<g><path style="opacity:1" fill="#555057" d="M 109.5,144.5 C 109.5,146.167 109.5,147.833 109.5,149.5C 105.298,149.183 101.298,149.517 97.5,150.5C 97.5,154.833 97.5,159.167 97.5,163.5C 94.8333,163.5 92.1667,163.5 89.5,163.5C 89.5,152.5 89.5,141.5 89.5,130.5C 96.8333,130.5 104.167,130.5 111.5,130.5C 111.5,132.5 111.5,134.5 111.5,136.5C 106.833,136.5 102.167,136.5 97.5,136.5C 97.5,139.167 97.5,141.833 97.5,144.5C 101.5,144.5 105.5,144.5 109.5,144.5 Z"/></g>
<g><path style="opacity:1" fill="#514c53" d="M 132.5,130.5 C 139.589,130.116 146.589,130.616 153.5,132C 159.747,134.224 162.747,138.558 162.5,145C 163.072,155.093 158.406,161.093 148.5,163C 143.177,163.499 137.844,163.666 132.5,163.5C 132.5,152.5 132.5,141.5 132.5,130.5 Z"/></g>
<g><path style="opacity:1" fill="#a3a1a4" d="M 140.5,136.5 C 140.5,143.5 140.5,150.5 140.5,157.5C 142.833,157.5 145.167,157.5 147.5,157.5C 145.052,158.473 142.385,158.806 139.5,158.5C 139.175,150.981 139.508,143.648 140.5,136.5 Z"/></g>
<g><path style="opacity:1" fill="#f9f9f9" d="M 147.5,157.5 C 145.167,157.5 142.833,157.5 140.5,157.5C 140.5,150.5 140.5,143.5 140.5,136.5C 152.486,135.006 156.986,140.339 154,152.5C 152.242,154.765 150.075,156.432 147.5,157.5 Z"/></g>
<g><path style="opacity:1" fill="#565157" d="M 58.5,130.5 C 64.5092,130.334 70.5092,130.501 76.5,131C 85.1729,135.502 85.8396,141.169 78.5,148C 82.3873,152.338 84.3873,157.505 84.5,163.5C 81.8333,163.5 79.1667,163.5 76.5,163.5C 76.7372,159.59 75.9039,155.923 74,152.5C 71.7724,150.887 69.2724,150.22 66.5,150.5C 66.5,154.833 66.5,159.167 66.5,163.5C 63.8333,163.5 61.1667,163.5 58.5,163.5C 58.5,152.5 58.5,141.5 58.5,130.5 Z"/></g>
<g><path style="opacity:1" fill="#ededed" d="M 66.5,135.5 C 71.2951,134.563 74.6284,136.23 76.5,140.5C 74.6284,144.77 71.2951,146.437 66.5,145.5C 66.5,142.167 66.5,138.833 66.5,135.5 Z"/></g>
<g><path style="opacity:1" fill="#575858" d="M 91.5,115.5 C 92.1667,115.5 92.5,115.833 92.5,116.5C 84.1707,124.666 74.1707,128.166 62.5,127C 60.2746,126.439 58.2746,125.439 56.5,124C 55.5494,123.282 55.3828,122.449 56,121.5C 57.5793,123.041 59.4127,124.208 61.5,125C 73.1115,126.683 83.1115,123.516 91.5,115.5 Z"/></g>
<g><path style="opacity:1" fill="#cd221f" d="M 101.5,98.5 C 102.167,98.5 102.5,98.8333 102.5,99.5C 102.5,99.8333 102.5,100.167 102.5,100.5C 98.864,105.142 95.1973,109.809 91.5,114.5C 84.354,120.151 76.1873,123.484 67,124.5C 59.6106,124.27 55.1106,120.603 53.5,113.5C 53.2322,111.901 53.5655,110.568 54.5,109.5C 57.2118,116.037 62.2118,119.371 69.5,119.5C 77.628,118.931 84.628,115.931 90.5,110.5C 95.5291,107.795 99.1958,103.795 101.5,98.5 Z"/></g>
<g><path style="opacity:1" fill="#b6afaf" d="M 102.5,100.5 C 103.028,101.847 103.195,103.181 103,104.5C 99.7182,108.759 96.2182,112.759 92.5,116.5C 92.5,115.833 92.1667,115.5 91.5,115.5C 91.5,115.167 91.5,114.833 91.5,114.5C 95.1973,109.809 98.864,105.142 102.5,100.5 Z"/></g>
<g><path style="opacity:1" fill="#e3888a" d="M 54.5,109.5 C 53.5655,110.568 53.2322,111.901 53.5,113.5C 52.2031,111.307 52.2031,108.973 53.5,106.5C 54.3857,107.325 54.719,108.325 54.5,109.5 Z"/></g>
<g><path style="opacity:1" fill="#7e7e7e" d="M 69.5,85.5 C 69.5,93.1667 69.5,100.833 69.5,108.5C 70.8333,108.5 72.1667,108.5 73.5,108.5C 72.1641,102.496 74.1641,100.496 79.5,102.5C 78.1667,102.5 76.8333,102.5 75.5,102.5C 75.5,104.833 75.5,107.167 75.5,109.5C 73.1667,109.5 70.8333,109.5 68.5,109.5C 68.1743,101.316 68.5076,93.3159 69.5,85.5 Z"/></g>
<g><path style="opacity:1" fill="#dd6869" d="M 106.5,90.5 C 105.925,93.9116 104.592,96.9116 102.5,99.5C 102.5,98.8333 102.167,98.5 101.5,98.5C 102.904,95.1197 104.404,91.7864 106,88.5C 106.464,89.0944 106.631,89.7611 106.5,90.5 Z"/></g>
<g><path style="opacity:1" fill="#ead1d1" d="M 92.5,69.5 C 101.89,72.2551 105.723,78.5885 104,88.5C 104.232,87.2625 104.732,86.2625 105.5,85.5C 106.117,85.3893 106.617,85.056 107,84.5C 107.789,86.7116 107.622,88.7116 106.5,90.5C 106.631,89.7611 106.464,89.0944 106,88.5C 104.404,91.7864 102.904,95.1197 101.5,98.5C 99.1958,103.795 95.5291,107.795 90.5,110.5C 90.1961,109.85 89.8627,109.183 89.5,108.5C 91.1712,105.508 93.1712,102.841 95.5,100.5C 95.81,101.738 96.31,101.738 97,100.5C 98.2714,97.5156 99.438,94.5156 100.5,91.5C 104.772,78.4517 100.105,71.7851 86.5,71.5C 88.5,70.8333 90.5,70.1667 92.5,69.5 Z"/></g>
<g><path style="opacity:1" fill="#db5b5c" d="M 98.5,83.5 C 99.1667,86.1667 99.8333,88.8333 100.5,91.5C 99.438,94.5156 98.2714,97.5156 97,100.5C 96.31,101.738 95.81,101.738 95.5,100.5C 98.0057,95.1353 99.0057,89.4686 98.5,83.5 Z"/></g>
<g><path style="opacity:1" fill="#ca322e" d="M 179.5,84.5 C 181.379,89.8701 182.045,95.5368 181.5,101.5C 173.167,101.5 164.833,101.5 156.5,101.5C 156.179,95.9738 156.512,90.6405 157.5,85.5C 159.25,82.6446 160.083,79.3113 160,75.5C 160.181,78.6946 160.681,81.6946 161.5,84.5C 166.5,84.5 171.5,84.5 176.5,84.5C 176.5,81.1667 176.5,77.8333 176.5,74.5C 176.81,73.2617 177.31,73.2617 178,74.5C 178.179,78.0252 178.679,81.3586 179.5,84.5 Z"/></g>
<g><path style="opacity:1" fill="#f5e2e2" d="M 167.5,88.5 C 168.822,88.33 169.989,88.6634 171,89.5C 170.954,92.8004 170.788,96.1337 170.5,99.5C 169.5,99.5 168.5,99.5 167.5,99.5C 166.911,95.7332 166.911,92.0665 167.5,88.5 Z"/></g>
<g><path style="opacity:1" fill="#534e55" d="M 136.5,84.5 C 146.825,84.6243 150.825,89.6243 148.5,99.5C 142.423,106.089 136.423,106.089 130.5,99.5C 127.676,92.3608 129.676,87.3608 136.5,84.5 Z"/></g>
<g><path style="opacity:1" fill="#3a3a3a" d="M 69.5,85.5 C 74.1785,85.3342 78.8452,85.5008 83.5,86C 84.4162,86.3742 85.2496,86.8742 86,87.5C 86.6667,90.8333 86.6667,94.1667 86,97.5C 84.3657,98.9904 84.699,100.324 87,101.5C 87.4974,104.146 87.6641,106.813 87.5,109.5C 85.5,109.5 83.5,109.5 81.5,109.5C 82.0102,106.612 81.3435,104.279 79.5,102.5C 74.1641,100.496 72.1641,102.496 73.5,108.5C 72.1667,108.5 70.8333,108.5 69.5,108.5C 69.5,100.833 69.5,93.1667 69.5,85.5 Z"/></g>
<g><path style="opacity:1" fill="#e2e2e2" d="M 74.5,90.5 C 76.5273,90.3379 78.5273,90.5045 80.5,91C 81.8333,92.6667 81.8333,94.3333 80.5,96C 78.5273,96.4955 76.5273,96.6621 74.5,96.5C 74.5,94.5 74.5,92.5 74.5,90.5 Z"/></g>
<g><path style="opacity:1" fill="#5c5c5c" d="M 105.5,85.5 C 104.732,86.2625 104.232,87.2625 104,88.5C 105.723,78.5885 101.89,72.2551 92.5,69.5C 91.7611,69.631 91.0944,69.4643 90.5,69C 102.238,68.2419 107.238,73.7419 105.5,85.5 Z"/></g>
<g><path style="opacity:1" fill="#ce2522" d="M 86.5,71.5 C 100.105,71.7851 104.772,78.4517 100.5,91.5C 99.8333,88.8333 99.1667,86.1667 98.5,83.5C 95.3506,76.0404 89.6839,73.2071 81.5,75C 77.7419,76.8337 74.0753,78.5004 70.5,80C 75.0371,75.6208 80.3704,72.7875 86.5,71.5 Z"/></g>
<g><path style="opacity:1" fill="#cf423d" d="M 179.5,84.5 C 178.679,81.3586 178.179,78.0252 178,74.5C 177.31,73.2617 176.81,73.2617 176.5,74.5C 165.401,68.5533 160.401,71.8866 161.5,84.5C 160.681,81.6946 160.181,78.6946 160,75.5C 160.083,79.3113 159.25,82.6446 157.5,85.5C 158.267,81.5845 158.767,77.5845 159,73.5C 165.593,66.9012 172.26,66.9012 179,73.5C 179.499,77.1516 179.665,80.8183 179.5,84.5 Z"/></g>
<g><path style="opacity:1" fill="#fcf5f5" d="M 176.5,74.5 C 176.5,77.8333 176.5,81.1667 176.5,84.5C 171.5,84.5 166.5,84.5 161.5,84.5C 160.401,71.8866 165.401,68.5533 176.5,74.5 Z"/></g>
<g><path style="opacity:1" fill="#534e55" d="M 130.5,69.5 C 138.764,68.8464 146.764,69.8464 154.5,72.5C 154.82,75.8984 154.487,79.2317 153.5,82.5C 146.384,77.523 138.717,76.3564 130.5,79C 126.94,81.4033 123.273,83.5699 119.5,85.5C 115.853,84.5139 114.686,82.1806 116,78.5C 120.343,74.5849 125.177,71.5849 130.5,69.5 Z"/></g>
<g><path style="opacity:1" fill="#514c53" d="M 128.5,54.5 C 142.577,52.4782 155.244,55.6449 166.5,64C 163.495,65.1697 160.495,66.3364 157.5,67.5C 147.194,62.0024 136.527,61.1691 125.5,65C 120.123,67.6817 115.123,70.8483 110.5,74.5C 106.853,73.5139 105.686,71.1806 107,67.5C 113.227,61.4761 120.393,57.1428 128.5,54.5 Z"/></g>
<g><path style="opacity:1" fill="#524d53" d="M 128.5,39.5 C 147.915,37.0986 164.915,42.2652 179.5,55C 182.167,61.3333 180.167,63.6667 173.5,62C 149.527,42.3625 125.861,42.6959 102.5,63C 98.9049,64.0727 96.9049,62.7394 96.5,59C 96.99,56.4972 98.3234,54.4972 100.5,53C 108.845,46.2832 118.179,41.7832 128.5,39.5 Z"/></g>
</svg>
