<?xml version="1.0" encoding="UTF-8"?>
<!DOCTYPE svg PUBLIC "-//W3C//DTD SVG 1.1//EN" "http://www.w3.org/Graphics/SVG/1.1/DTD/svg11.dtd">
<svg xmlns="http://www.w3.org/2000/svg" version="1.1" width="239px" height="239px" style="shape-rendering:geometricPrecision; text-rendering:geometricPrecision; image-rendering:optimizeQuality; fill-rule:evenodd; clip-rule:evenodd" xmlns:xlink="http://www.w3.org/1999/xlink">
<g><path style="opacity:1" fill="#e9e9e9" d="M 103.5,-0.5 C 113.833,-0.5 124.167,-0.5 134.5,-0.5C 168.731,4.94482 196.064,21.6115 216.5,49.5C 215.078,49.2914 213.745,48.7914 212.5,48C 208.399,43.1431 204.066,38.4764 199.5,34C 198.906,33.5357 198.239,33.369 197.5,33.5C 197.167,33.5 196.833,33.5 196.5,33.5C 193.37,28.3671 189.037,24.7004 183.5,22.5C 181.181,22.0075 179.181,21.0075 177.5,19.5C 177.631,18.6236 177.298,17.9569 176.5,17.5C 172.315,15.2199 167.981,13.5532 163.5,12.5C 161.151,10.6586 158.484,9.32525 155.5,8.5C 140.619,2.34501 124.952,0.178346 108.5,2C 107.944,2.38258 107.611,2.88258 107.5,3.5C 104.626,3.45108 101.792,3.78442 99,4.5C 97.6244,4.68423 96.7911,5.35089 96.5,6.5C 92.6814,6.41399 89.0148,7.08066 85.5,8.5C 81.0525,9.42668 76.7192,10.76 72.5,12.5C 74.1407,10.7425 76.1407,9.24246 78.5,8C 82.8899,6.85128 87.2232,5.51794 91.5,4C 92.056,3.61742 92.3893,3.11742 92.5,2.5C 96.1424,1.39341 99.8091,0.393406 103.5,-0.5 Z"/></g>
<g><path style="opacity:1" fill="#cfcfcf" d="M 155.5,8.5 C 151.833,7.83333 148.167,7.16667 144.5,6.5C 139.363,5.93225 134.363,5.26558 129.5,4.5C 122.352,3.50837 115.019,3.17503 107.5,3.5C 107.611,2.88258 107.944,2.38258 108.5,2C 124.952,0.178346 140.619,2.34501 155.5,8.5 Z"/></g>
<g><path style="opacity:1" fill="#9f9f9f" d="M 107.5,3.5 C 115.019,3.17503 122.352,3.50837 129.5,4.5C 118.426,4.16984 107.426,4.83651 96.5,6.5C 96.7911,5.35089 97.6244,4.68423 99,4.5C 101.792,3.78442 104.626,3.45108 107.5,3.5 Z"/></g>
<g><path style="opacity:1" fill="#2f2f2f" d="M 147.5,8.5 C 152.15,9.82983 156.817,11.1632 161.5,12.5C 161.833,13.1667 162.167,13.8333 162.5,14.5C 139.28,7.17505 115.613,5.67505 91.5,10C 84.926,12.8017 78.2593,15.3017 71.5,17.5C 80.8072,11.5631 91.1406,8.06311 102.5,7C 117.567,6.05091 132.567,6.55091 147.5,8.5 Z"/></g>
<g><path style="opacity:1" fill="#949494" d="M 144.5,6.5 C 148.167,7.16667 151.833,7.83333 155.5,8.5C 158.484,9.32525 161.151,10.6586 163.5,12.5C 162.833,12.5 162.167,12.5 161.5,12.5C 156.817,11.1632 152.15,9.82983 147.5,8.5C 146.5,7.83333 145.5,7.16667 144.5,6.5 Z"/></g>
<g><path style="opacity:1" fill="#616161" d="M 129.5,4.5 C 134.363,5.26558 139.363,5.93225 144.5,6.5C 145.5,7.16667 146.5,7.83333 147.5,8.5C 132.567,6.55091 117.567,6.05091 102.5,7C 91.1406,8.06311 80.8072,11.5631 71.5,17.5C 66.3489,19.5764 61.3489,21.9097 56.5,24.5C 59.6283,21.0304 63.2949,18.3638 67.5,16.5C 73.7738,14.3613 79.7738,11.6946 85.5,8.5C 89.0148,7.08066 92.6814,6.41399 96.5,6.5C 107.426,4.83651 118.426,4.16984 129.5,4.5 Z"/></g>
<g><path style="opacity:1" fill="#8da3c9" d="M 187.5,34.5 C 197.953,42.953 206.62,52.953 213.5,64.5C 212.21,65.4077 210.877,65.241 209.5,64C 208.418,61.3129 206.751,59.1462 204.5,57.5C 183.359,29.4264 155.026,14.7597 119.5,13.5C 82.9949,14.745 54.3282,30.0783 33.5,59.5C 31.8266,62.1666 29.4933,64.1666 26.5,65.5C 26.1667,65.1667 25.8333,64.8333 25.5,64.5C 55.7059,19.4796 97.3725,2.97956 150.5,15C 164.031,19.4298 176.364,25.9298 187.5,34.5 Z"/></g>
<g><path style="opacity:1" fill="#969696" d="M 85.5,8.5 C 79.7738,11.6946 73.7738,14.3613 67.5,16.5C 68.6718,14.461 70.3384,13.1276 72.5,12.5C 76.7192,10.76 81.0525,9.42668 85.5,8.5 Z"/></g>
<g><path style="opacity:1" fill="#5b5b5b" d="M 161.5,12.5 C 162.167,12.5 162.833,12.5 163.5,12.5C 167.818,15.3256 172.484,17.6589 177.5,19.5C 179.181,21.0075 181.181,22.0075 183.5,22.5C 184.625,23.9999 185.959,25.3332 187.5,26.5C 186.127,26.6567 184.793,26.49 183.5,26C 180.594,23.3805 177.261,21.5472 173.5,20.5C 170.028,18.2619 166.362,16.2619 162.5,14.5C 162.167,13.8333 161.833,13.1667 161.5,12.5 Z"/></g>
<g><path style="opacity:1" fill="#9d9d9d" d="M 163.5,12.5 C 167.981,13.5532 172.315,15.2199 176.5,17.5C 177.298,17.9569 177.631,18.6236 177.5,19.5C 172.484,17.6589 167.818,15.3256 163.5,12.5 Z"/></g>
<g><path style="opacity:1" fill="#090a0c" d="M 204.5,57.5 C 205.087,58.7666 205.087,59.7666 204.5,60.5C 201.676,59.3454 199.009,58.0121 196.5,56.5C 171.012,28.2793 139.345,16.7793 101.5,22C 78.4523,26.5153 59.4523,37.682 44.5,55.5C 41.005,58.1035 37.3383,59.4369 33.5,59.5C 54.3282,30.0783 82.9949,14.745 119.5,13.5C 155.026,14.7597 183.359,29.4264 204.5,57.5 Z"/></g>
<g><path style="opacity:1" fill="#92a8ce" d="M 196.5,56.5 C 197.392,58.8133 196.558,59.1466 194,57.5C 188.225,51.8789 182.058,46.8789 175.5,42.5C 162.622,32.422 147.955,26.422 131.5,24.5C 123.5,23.1667 115.5,23.1667 107.5,24.5C 84.2373,27.7974 64.5706,37.9641 48.5,55C 47.0544,56.298 45.7211,56.4646 44.5,55.5C 59.4523,37.682 78.4523,26.5153 101.5,22C 139.345,16.7793 171.012,28.2793 196.5,56.5 Z"/></g>
<g><path style="opacity:1" fill="#a7a7a7" d="M 183.5,22.5 C 189.037,24.7004 193.37,28.3671 196.5,33.5C 193.5,31.5 190.5,29.5 187.5,27.5C 187.5,27.1667 187.5,26.8333 187.5,26.5C 185.959,25.3332 184.625,23.9999 183.5,22.5 Z"/></g>
<g><path style="opacity:1" fill="#cccccc" d="M 72.5,12.5 C 70.3384,13.1276 68.6718,14.461 67.5,16.5C 65.3453,16.372 63.3453,16.872 61.5,18C 54.3859,22.6171 47.7192,27.7838 41.5,33.5C 41.33,32.1779 41.6634,31.0113 42.5,30C 50.9172,23.9094 59.5839,18.2427 68.5,13C 69.7932,12.51 71.1266,12.3433 72.5,12.5 Z"/></g>
<g><path style="opacity:1" fill="#6b6b6b" d="M 187.5,27.5 C 190.5,29.5 193.5,31.5 196.5,33.5C 196.833,33.5 197.167,33.5 197.5,33.5C 200.57,36.5638 203.237,39.8971 205.5,43.5C 202.588,40.4187 199.254,37.9187 195.5,36C 192.629,33.2972 189.962,30.4639 187.5,27.5 Z"/></g>
<g><path style="opacity:1" fill="#bbbbbc" d="M 151.5,41.5 C 153.033,43.2451 155.033,44.2451 157.5,44.5C 157.38,45.5862 156.713,46.2528 155.5,46.5C 144.974,42.619 134.641,38.2856 124.5,33.5C 120.888,32.4886 117.221,32.3219 113.5,33C 105.012,36.7444 96.6783,40.9111 88.5,45.5C 86.2181,46.3897 83.8848,46.5564 81.5,46C 83.7472,44.7225 85.7472,43.2225 87.5,41.5C 94.8059,37.847 102.139,34.1804 109.5,30.5C 113.5,29.3128 117.5,28.4794 121.5,28C 131.44,32.4954 141.44,36.9954 151.5,41.5 Z"/></g>
<g><path style="opacity:1" fill="#949494" d="M 67.5,16.5 C 63.2949,18.3638 59.6283,21.0304 56.5,24.5C 53.91,25.1283 51.5766,26.295 49.5,28C 41.2029,35.0921 33.5362,42.5921 26.5,50.5C 27.0722,48.7446 27.9055,47.0779 29,45.5C 32.6449,41.3543 36.4783,37.3543 40.5,33.5C 40.8333,33.5 41.1667,33.5 41.5,33.5C 47.7192,27.7838 54.3859,22.6171 61.5,18C 63.3453,16.872 65.3453,16.372 67.5,16.5 Z"/></g>
<g><path style="opacity:1" fill="#525252" d="M 56.5,24.5 C 49.8778,30.1144 43.2112,35.7811 36.5,41.5C 30.1404,50.9088 23.807,60.2421 17.5,69.5C 18.0526,65.5053 19.386,61.8386 21.5,58.5C 23.653,56.2063 25.3197,53.5396 26.5,50.5C 33.5362,42.5921 41.2029,35.0921 49.5,28C 51.5766,26.295 53.91,25.1283 56.5,24.5 Z"/></g>
<g><path style="opacity:1" fill="#848585" d="M 124.5,33.5 C 125.234,34.7079 125.567,36.0413 125.5,37.5C 129.099,38.6988 132.765,39.6988 136.5,40.5C 136.35,44.1612 137.85,45.1612 141,43.5C 144.108,45.073 147.274,46.573 150.5,48C 151.889,50.2391 153.556,52.0724 155.5,53.5C 152.574,52.3024 149.574,51.3024 146.5,50.5C 137.701,45.5711 128.534,41.2378 119,37.5C 105.18,42.8297 91.6804,48.8297 78.5,55.5C 78.2437,51.4791 79.9104,50.1458 83.5,51.5C 83.8333,50.8333 84.1667,50.1667 84.5,49.5C 85.1667,49.8333 85.8333,50.1667 86.5,50.5C 88.3761,49.0098 89.0428,47.3431 88.5,45.5C 96.6783,40.9111 105.012,36.7444 113.5,33C 117.221,32.3219 120.888,32.4886 124.5,33.5 Z"/></g>
<g><path style="opacity:1" fill="#111213" d="M 162.5,14.5 C 166.362,16.2619 170.028,18.2619 173.5,20.5C 172.957,20.56 172.624,20.8933 172.5,21.5C 175.055,22.9445 177.721,24.1112 180.5,25C 183.607,28.0604 186.941,30.8937 190.5,33.5C 189.675,34.3857 188.675,34.719 187.5,34.5C 176.364,25.9298 164.031,19.4298 150.5,15C 97.3725,2.97956 55.7059,19.4796 25.5,64.5C 25.8333,64.8333 26.1667,65.1667 26.5,65.5C 29.4933,64.1666 31.8266,62.1666 33.5,59.5C 37.3383,59.4369 41.005,58.1035 44.5,55.5C 45.7211,56.4646 47.0544,56.298 48.5,55C 64.5706,37.9641 84.2373,27.7974 107.5,24.5C 109.199,24.3398 110.866,24.5065 112.5,25C 109.382,26.0587 106.382,27.3921 103.5,29C 95.8391,29.8323 88.5058,31.8323 81.5,35C 80.6195,35.7083 79.9528,36.5416 79.5,37.5C 78.8333,37.5 78.1667,37.5 77.5,37.5C 70.2169,41.48 63.2169,45.98 56.5,51C 57,51.1667 57.5,51.3333 58,51.5C 61.4394,49.5299 64.9394,47.8632 68.5,46.5C 78.6457,41.45 88.979,36.7833 99.5,32.5C 102.144,31.5067 104.81,30.5067 107.5,29.5C 108.416,29.5427 109.083,29.8761 109.5,30.5C 102.139,34.1804 94.8059,37.847 87.5,41.5C 82.2361,42.7986 77.5694,45.1319 73.5,48.5C 70.3527,48.7366 67.3527,49.5699 64.5,51C 57.221,55.1376 49.8877,58.971 42.5,62.5C 35.0235,64.8279 27.6902,67.6612 20.5,71C 19.6051,74.0951 19.6051,77.2617 20.5,80.5C 20.3068,84.449 19.8068,84.449 19,80.5C 17.8924,76.9137 17.3924,73.247 17.5,69.5C 23.807,60.2421 30.1404,50.9088 36.5,41.5C 43.2112,35.7811 49.8778,30.1144 56.5,24.5C 61.3489,21.9097 66.3489,19.5764 71.5,17.5C 78.2593,15.3017 84.926,12.8017 91.5,10C 115.613,5.67505 139.28,7.17505 162.5,14.5 Z"/></g>
<g><path style="opacity:1" fill="#767676" d="M 99.5,32.5 C 88.979,36.7833 78.6457,41.45 68.5,46.5C 67.7611,46.631 67.0944,46.4643 66.5,46C 70.5969,43.6304 74.2635,40.7971 77.5,37.5C 78.1667,37.5 78.8333,37.5 79.5,37.5C 84.5832,36.1053 89.5832,34.272 94.5,32C 96.3869,31.2204 98.0536,31.3871 99.5,32.5 Z"/></g>
<g><path style="opacity:1" fill="#616264" d="M 151.5,41.5 C 153.967,41.7549 155.967,42.7549 157.5,44.5C 155.033,44.2451 153.033,43.2451 151.5,41.5 Z"/></g>
<g><path style="opacity:1" fill="#727272" d="M 205.5,43.5 C 208.573,45.5691 210.906,48.2358 212.5,51.5C 209.427,49.4309 207.094,46.7642 205.5,43.5 Z"/></g>
<g><path style="opacity:1" fill="#343434" d="M 77.5,37.5 C 74.2635,40.7971 70.5969,43.6304 66.5,46C 67.0944,46.4643 67.7611,46.631 68.5,46.5C 64.9394,47.8632 61.4394,49.5299 58,51.5C 57.5,51.3333 57,51.1667 56.5,51C 63.2169,45.98 70.2169,41.48 77.5,37.5 Z"/></g>
<g><path style="opacity:1" fill="#979797" d="M 124.5,33.5 C 134.641,38.2856 144.974,42.619 155.5,46.5C 156.713,46.2528 157.38,45.5862 157.5,44.5C 167.374,48.936 177.374,53.1027 187.5,57C 188.571,57.8518 189.571,58.6851 190.5,59.5C 191.615,61.455 192.948,63.2884 194.5,65C 201.456,67.8777 208.123,71.0444 214.5,74.5C 210.515,73.5729 206.515,73.0729 202.5,73C 205.407,74.6091 208.073,76.4424 210.5,78.5C 199.124,74.0538 188.124,69.0538 177.5,63.5C 175.165,60.8352 172.165,59.5018 168.5,59.5C 164.238,57.2002 159.905,55.2002 155.5,53.5C 153.556,52.0724 151.889,50.2391 150.5,48C 147.274,46.573 144.108,45.073 141,43.5C 137.85,45.1612 136.35,44.1612 136.5,40.5C 132.765,39.6988 129.099,38.6988 125.5,37.5C 125.567,36.0413 125.234,34.7079 124.5,33.5 Z"/></g>
<g><path style="opacity:1" fill="#0e0d0f" d="M 146.5,50.5 C 146.423,51.7498 145.756,52.5831 144.5,53C 146.727,53.704 147.06,54.8706 145.5,56.5C 139.753,51.9148 133.419,48.4148 126.5,46C 112.248,43.9602 101.581,49.1268 94.5,61.5C 90.7375,65.7026 88.5709,70.7026 88,76.5C 86.9583,85.0603 87.7916,93.3936 90.5,101.5C 88.2007,97.9532 86.7007,93.9532 86,89.5C 84.8289,90.8932 83.3289,91.7265 81.5,92C 82.4231,94.0408 82.7564,96.2075 82.5,98.5C 81.0695,98.5792 79.7362,98.2458 78.5,97.5C 78.1667,97.8333 77.8333,98.1667 77.5,98.5C 80.144,99.741 80.9774,101.741 80,104.5C 78.1114,105.097 76.2781,105.431 74.5,105.5C 76.5053,106.337 77.5053,107.837 77.5,110C 76.2495,112.165 75.2495,114.499 74.5,117C 74.8333,118.167 75.1667,119.333 75.5,120.5C 76.4656,118.604 76.7989,116.604 76.5,114.5C 77.5,114.5 78.5,114.5 79.5,114.5C 79.5,116.833 79.5,119.167 79.5,121.5C 80.5,121.5 81.5,121.5 82.5,121.5C 81.9862,119.488 81.8195,117.488 82,115.5C 83.0113,114.663 84.1779,114.33 85.5,114.5C 86.1667,122.5 86.8333,122.5 87.5,114.5C 88.5,114.5 89.5,114.5 90.5,114.5C 91.1667,122.5 91.8333,122.5 92.5,114.5C 93.5,114.5 94.5,114.5 95.5,114.5C 95.5,116.833 95.5,119.167 95.5,121.5C 98.8555,121.909 101.855,121.242 104.5,119.5C 107.721,120.111 110.721,121.278 113.5,123C 118.155,123.499 122.821,123.666 127.5,123.5C 127.336,129.086 128.003,134.753 129.5,140.5C 128.17,143.199 126.836,145.865 125.5,148.5C 124.526,150.743 124.192,153.076 124.5,155.5C 123.5,155.5 122.5,155.5 121.5,155.5C 121.993,157.806 122.326,160.139 122.5,162.5C 121.167,162.5 119.833,162.5 118.5,162.5C 118.993,164.806 119.326,167.139 119.5,169.5C 118.5,169.5 117.5,169.5 116.5,169.5C 116.072,166.754 114.406,165.087 111.5,164.5C 110.614,165.325 110.281,166.325 110.5,167.5C 110.167,167.5 109.833,167.5 109.5,167.5C 108.549,166.081 108.216,164.415 108.5,162.5C 114.338,163.663 117.338,161.33 117.5,155.5C 118.11,154.609 118.443,153.609 118.5,152.5C 119.674,151.486 120.34,150.153 120.5,148.5C 122.038,145.151 123.871,141.818 126,138.5C 126.808,134.973 126.641,131.64 125.5,128.5C 125.586,127.504 125.252,126.671 124.5,126C 98.8355,125.5 73.1688,125.333 47.5,125.5C 47.6896,128.855 48.6896,131.855 50.5,134.5C 50.5,135.167 50.5,135.833 50.5,136.5C 48.9493,139.619 47.9493,142.952 47.5,146.5C 46.8333,146.5 46.5,146.833 46.5,147.5C 43.8659,153.357 41.5326,159.357 39.5,165.5C 37.129,170.265 35.129,175.265 33.5,180.5C 32.5489,181.919 32.2155,183.585 32.5,185.5C 42.3478,185.827 52.0144,185.494 61.5,184.5C 62.3382,184.158 62.6716,183.492 62.5,182.5C 65.0797,177.433 67.0797,172.099 68.5,166.5C 69.3382,166.158 69.6716,165.492 69.5,164.5C 73.8333,163.167 78.1667,163.167 82.5,164.5C 82.5,164.833 82.5,165.167 82.5,165.5C 84.3307,171.659 86.3307,177.659 88.5,183.5C 96.9839,184.493 105.651,184.826 114.5,184.5C 114.435,181.572 113.768,178.905 112.5,176.5C 112.5,176.167 112.5,175.833 112.5,175.5C 114.46,177.56 116.794,179.227 119.5,180.5C 119.5,181.167 119.5,181.833 119.5,182.5C 118.596,183.209 118.263,184.209 118.5,185.5C 128.325,186.33 138.325,186.83 148.5,187C 139.467,187.251 130.467,187.751 121.5,188.5C 121.719,189.675 121.386,190.675 120.5,191.5C 111.833,190.167 103.167,190.167 94.5,191.5C 93.5,190.833 92.5,190.167 91.5,189.5C 90.4679,191.04 89.1346,191.54 87.5,191C 86.5,189.333 85.5,187.667 84.5,186C 84.9574,185.586 85.2907,185.086 85.5,184.5C 83.694,179.916 82.194,175.249 81,170.5C 78.626,168.06 76.4593,168.394 74.5,171.5C 76.0026,172.052 77.6693,172.052 79.5,171.5C 79.7564,173.792 79.4231,175.959 78.5,178C 79.448,178.483 80.448,178.649 81.5,178.5C 81.317,180.936 81.9837,183.103 83.5,185C 82.2513,186.824 81.0847,186.657 80,184.5C 79.51,183.207 79.3433,181.873 79.5,180.5C 75.6737,179.189 72.507,176.856 70,173.5C 69.2152,175.249 68.3818,176.916 67.5,178.5C 66.0605,180.588 65.3939,182.921 65.5,185.5C 65.2178,186.778 64.5511,187.778 63.5,188.5C 60.6085,189.403 57.6085,189.736 54.5,189.5C 53.0222,189.238 51.6888,189.571 50.5,190.5C 63.0013,203.252 78.0013,211.586 95.5,215.5C 98.3098,218.136 101.31,220.636 104.5,223C 103.552,223.483 102.552,223.649 101.5,223.5C 82.2266,220.529 65.2266,212.696 50.5,200C 46.9173,196.247 43.2506,192.747 39.5,189.5C 37.3382,188.583 35.0048,188.583 32.5,189.5C 30.8333,189.5 29.1667,189.5 27.5,189.5C 27.5,188.833 27.5,188.167 27.5,187.5C 29.1948,185.103 30.5282,182.437 31.5,179.5C 23.5357,164.777 18.0357,149.111 15,132.5C 13.6104,117.901 14.777,103.568 18.5,89.5C 19.3127,87.7392 20.3127,86.0725 21.5,84.5C 22.1667,85.5 22.8333,86.5 23.5,87.5C 23.5,89.1667 23.5,90.8333 23.5,92.5C 23.6695,94.8484 24.0029,97.1817 24.5,99.5C 22.5871,101.773 21.5871,104.439 21.5,107.5C 20.3439,115.323 20.1772,123.323 21,131.5C 21.1489,135.133 21.9823,138.466 23.5,141.5C 24.1319,145.584 25.1319,149.584 26.5,153.5C 26.7549,155.967 27.7549,157.967 29.5,159.5C 31.3531,162.208 32.3531,165.208 32.5,168.5C 33.5,168.5 34.5,168.5 35.5,168.5C 34.1915,162.211 32.0249,156.211 29,150.5C 27.5321,145.231 26.3655,139.898 25.5,134.5C 24.4372,124.527 24.2705,114.527 25,104.5C 28.2389,120.829 31.5722,137.163 35,153.5C 35.3603,155.421 36.1936,157.088 37.5,158.5C 38.9185,157.995 39.5852,156.995 39.5,155.5C 40.3382,155.158 40.6716,154.492 40.5,153.5C 41.6341,151.034 41.8007,148.367 41,145.5C 39.1291,135.301 36.9624,125.301 34.5,115.5C 34.5,115.167 34.5,114.833 34.5,114.5C 33.3231,106.277 31.6564,98.2771 29.5,90.5C 27.6564,86.6034 27.323,82.6034 28.5,78.5C 44.8966,70.3026 61.5633,62.6359 78.5,55.5C 91.6804,48.8297 105.18,42.8297 119,37.5C 128.534,41.2378 137.701,45.5711 146.5,50.5 Z"/></g>
<g><path style="opacity:1" fill="#0a0b0d" d="M 146.5,50.5 C 149.574,51.3024 152.574,52.3024 155.5,53.5C 159.905,55.2002 164.238,57.2002 168.5,59.5C 171.088,61.5918 174.088,62.9251 177.5,63.5C 188.124,69.0538 199.124,74.0538 210.5,78.5C 211.368,81.3273 211.368,84.3273 210.5,87.5C 209.076,89.5145 208.41,91.8478 208.5,94.5C 206.788,101.061 205.454,107.728 204.5,114.5C 204.5,114.833 204.5,115.167 204.5,115.5C 203.596,116.209 203.263,117.209 203.5,118.5C 202.566,119.568 202.232,120.901 202.5,122.5C 205.649,122.211 208.649,122.711 211.5,124C 185.502,124.5 159.502,124.667 133.5,124.5C 133.5,123.5 133.5,122.5 133.5,121.5C 137.5,121.5 141.5,121.5 145.5,121.5C 146.167,112.167 146.833,112.167 147.5,121.5C 150.5,121.5 153.5,121.5 156.5,121.5C 156.5,120.5 156.5,119.5 156.5,118.5C 152.453,120.469 150.453,119.136 150.5,114.5C 153.508,115.138 156.508,115.471 159.5,115.5C 159.833,115.167 160.167,114.833 160.5,114.5C 158.829,112.49 158.162,110.157 158.5,107.5C 161.954,108.087 165.287,108.087 168.5,107.5C 165.544,104.144 165.877,101.311 169.5,99C 168.809,97.9326 168.309,96.7659 168,95.5C 167.167,96.5 166.333,97.5 165.5,98.5C 164.132,95.9323 164.466,93.5989 166.5,91.5C 166.192,90.6919 165.692,90.0253 165,89.5C 163.989,90.3366 162.822,90.67 161.5,90.5C 161.318,88.4086 161.652,86.4086 162.5,84.5C 161.609,83.4104 160.609,83.4104 159.5,84.5C 158.526,82.2573 158.192,79.924 158.5,77.5C 157.5,77.5 156.5,77.5 155.5,77.5C 155.34,75.8008 155.506,74.1341 156,72.5C 157.652,71.783 159.152,71.4496 160.5,71.5C 158.923,68.2126 156.59,67.5459 153.5,69.5C 150.841,65.1717 148.174,60.8383 145.5,56.5C 147.06,54.8706 146.727,53.704 144.5,53C 145.756,52.5831 146.423,51.7498 146.5,50.5 Z"/></g>
<g><path style="opacity:1" fill="#6a6a6a" d="M 212.5,51.5 C 214.129,52.6253 215.629,53.9586 217,55.5C 218.773,58.2873 219.94,61.2873 220.5,64.5C 215.623,61.5496 212.957,57.2163 212.5,51.5 Z"/></g>
<g><path style="opacity:1" fill="#c5c5c5" d="M 40.5,33.5 C 36.4783,37.3543 32.6449,41.3543 29,45.5C 27.9055,47.0779 27.0722,48.7446 26.5,50.5C 25.3197,53.5396 23.653,56.2063 21.5,58.5C 19.0866,60.9056 17.0866,63.5723 15.5,66.5C 15.3433,65.1266 15.51,63.7932 16,62.5C 19.6667,56.8333 23.3333,51.1667 27,45.5C 30.8661,40.7452 35.3661,36.7452 40.5,33.5 Z"/></g>
<g><path style="opacity:1" fill="#878889" d="M 73.5,48.5 C 68.5524,50.3281 63.8857,52.8281 59.5,56C 60.8989,56.5946 62.2322,56.4279 63.5,55.5C 64.6956,55.8457 64.6956,56.3457 63.5,57C 53.7602,60.0428 44.4268,63.8761 35.5,68.5C 35.4142,67.5041 35.7476,66.6708 36.5,66C 38.7274,65.059 40.7274,63.8923 42.5,62.5C 49.8877,58.971 57.221,55.1376 64.5,51C 67.3527,49.5699 70.3527,48.7366 73.5,48.5 Z"/></g>
<g><path style="opacity:1" fill="#646465" d="M 168.5,59.5 C 172.165,59.5018 175.165,60.8352 177.5,63.5C 174.088,62.9251 171.088,61.5918 168.5,59.5 Z"/></g>
<g><path style="opacity:1" fill="#979797" d="M 21.5,58.5 C 19.386,61.8386 18.0526,65.5053 17.5,69.5C 15.8184,70.8273 14.4851,72.4939 13.5,74.5C 13.5838,71.6726 14.2504,69.006 15.5,66.5C 17.0866,63.5723 19.0866,60.9056 21.5,58.5 Z"/></g>
<g><path style="opacity:1" fill="#d4d4d4" d="M 197.5,33.5 C 198.239,33.369 198.906,33.5357 199.5,34C 204.066,38.4764 208.399,43.1431 212.5,48C 213.745,48.7914 215.078,49.2914 216.5,49.5C 221.742,56.0958 225.742,63.4291 228.5,71.5C 231.434,80.6493 233.934,89.9826 236,99.5C 236.667,109.833 236.667,120.167 236,130.5C 235.79,132.058 235.29,133.391 234.5,134.5C 236.127,122.959 235.793,111.626 233.5,100.5C 231.749,93.9658 229.916,87.2991 228,80.5C 226.953,77.1411 225.453,74.1411 223.5,71.5C 222.242,69.3131 221.242,66.9798 220.5,64.5C 219.94,61.2873 218.773,58.2873 217,55.5C 215.629,53.9586 214.129,52.6253 212.5,51.5C 210.906,48.2358 208.573,45.5691 205.5,43.5C 203.237,39.8971 200.57,36.5638 197.5,33.5 Z"/></g>
<g><path style="opacity:1" fill="#737374" d="M 190.5,59.5 C 199.804,63.4829 209.137,67.4829 218.5,71.5C 218.384,74.8599 218.051,78.1933 217.5,81.5C 216.833,86.5 216.167,91.5 215.5,96.5C 214.167,100.167 212.833,103.833 211.5,107.5C 212.8,97.1552 214.467,86.8219 216.5,76.5C 216.253,75.2867 215.586,74.62 214.5,74.5C 208.123,71.0444 201.456,67.8777 194.5,65C 192.948,63.2884 191.615,61.455 190.5,59.5 Z"/></g>
<g><path style="opacity:1" fill="#636464" d="M 42.5,62.5 C 40.7274,63.8923 38.7274,65.059 36.5,66C 35.7476,66.6708 35.4142,67.5041 35.5,68.5C 31.4273,70.3053 27.4273,72.3053 23.5,74.5C 23.0639,78.7556 23.0639,83.089 23.5,87.5C 22.8333,86.5 22.1667,85.5 21.5,84.5C 21.7678,82.901 21.4345,81.5676 20.5,80.5C 19.6051,77.2617 19.6051,74.0951 20.5,71C 27.6902,67.6612 35.0235,64.8279 42.5,62.5 Z"/></g>
<g><path style="opacity:1" fill="#a2a2a3" d="M 87.5,41.5 C 85.7472,43.2225 83.7472,44.7225 81.5,46C 83.8848,46.5564 86.2181,46.3897 88.5,45.5C 89.0428,47.3431 88.3761,49.0098 86.5,50.5C 85.8333,50.1667 85.1667,49.8333 84.5,49.5C 84.1667,50.1667 83.8333,50.8333 83.5,51.5C 79.9104,50.1458 78.2437,51.4791 78.5,55.5C 61.5633,62.6359 44.8966,70.3026 28.5,78.5C 27.323,82.6034 27.6564,86.6034 29.5,90.5C 29.5,92.8333 29.5,95.1667 29.5,97.5C 28.8418,98.7933 28.5085,100.293 28.5,102C 30.3231,111.104 31.6564,120.271 32.5,129.5C 29.7707,119.44 27.7707,109.107 26.5,98.5C 25.7918,96.2549 24.7918,94.2549 23.5,92.5C 23.5,90.8333 23.5,89.1667 23.5,87.5C 23.0639,83.089 23.0639,78.7556 23.5,74.5C 27.4273,72.3053 31.4273,70.3053 35.5,68.5C 44.4268,63.8761 53.7602,60.0428 63.5,57C 64.6956,56.3457 64.6956,55.8457 63.5,55.5C 62.2322,56.4279 60.8989,56.5946 59.5,56C 63.8857,52.8281 68.5524,50.3281 73.5,48.5C 77.5694,45.1319 82.2361,42.7986 87.5,41.5 Z"/></g>
<g><path style="opacity:1" fill="#633e87" d="M 145.5,56.5 C 148.174,60.8383 150.841,65.1717 153.5,69.5C 154.91,79.1857 154.744,88.8523 153,98.5C 152.392,100.066 151.558,101.4 150.5,102.5C 150.768,100.901 150.434,99.5676 149.5,98.5C 153.768,83.7624 151.434,70.2624 142.5,58C 138.833,55.6667 135.167,53.3333 131.5,51C 123.9,48.5723 116.567,49.0723 109.5,52.5C 105.673,56.1573 101.673,59.6573 97.5,63C 91.6078,75.3128 91.1078,87.8128 96,100.5C 97,102.167 98.3333,103.5 100,104.5C 100.163,106.676 100.996,108.509 102.5,110C 106.961,112.064 111.294,114.398 115.5,117C 120.528,117.588 125.528,117.422 130.5,116.5C 120.877,120.115 111.877,118.782 103.5,112.5C 103.167,112.667 102.833,112.833 102.5,113C 103.381,113.708 104.047,114.542 104.5,115.5C 97.1656,109.965 92.3322,102.632 90,93.5C 89.3333,86.5 89.3333,79.5 90,72.5C 92.0655,69.0395 93.5655,65.3728 94.5,61.5C 101.581,49.1268 112.248,43.9602 126.5,46C 133.419,48.4148 139.753,51.9148 145.5,56.5 Z"/></g>
<g><path style="opacity:1" fill="#abacac" d="M 214.5,74.5 C 215.586,74.62 216.253,75.2867 216.5,76.5C 214.467,86.8219 212.8,97.1552 211.5,107.5C 211.5,109.5 211.5,111.5 211.5,113.5C 209.94,115.156 208.94,117.156 208.5,119.5C 208.666,115.154 208.499,110.821 208,106.5C 207.262,109.501 206.096,112.168 204.5,114.5C 205.454,107.728 206.788,101.061 208.5,94.5C 209.924,92.4855 210.59,90.1522 210.5,87.5C 211.368,84.3273 211.368,81.3273 210.5,78.5C 208.073,76.4424 205.407,74.6091 202.5,73C 206.515,73.0729 210.515,73.5729 214.5,74.5 Z"/></g>
<g><path style="opacity:1" fill="#cccccc" d="M 15.5,66.5 C 14.2504,69.006 13.5838,71.6726 13.5,74.5C 13.5,75.8333 13.5,77.1667 13.5,78.5C 12.0683,80.1403 10.7349,81.9736 9.5,84C 8.22541,89.6499 6.89208,95.1499 5.5,100.5C 5.2614,94.4348 5.7614,88.4348 7,82.5C 9.19163,77.5949 11.1916,72.5949 13,67.5C 13.6708,66.7476 14.5041,66.4142 15.5,66.5 Z"/></g>
<g><path style="opacity:1" fill="#1c1339" d="M 149.5,98.5 C 145.652,105.698 140.319,111.532 133.5,116C 132.552,116.483 131.552,116.649 130.5,116.5C 125.528,117.422 120.528,117.588 115.5,117C 111.294,114.398 106.961,112.064 102.5,110C 100.996,108.509 100.163,106.676 100,104.5C 98.3333,103.5 97,102.167 96,100.5C 91.1078,87.8128 91.6078,75.3128 97.5,63C 101.673,59.6573 105.673,56.1573 109.5,52.5C 116.567,49.0723 123.9,48.5723 131.5,51C 135.167,53.3333 138.833,55.6667 142.5,58C 151.434,70.2624 153.768,83.7624 149.5,98.5 Z"/></g>
<g><path style="opacity:1" fill="#333435" d="M 17.5,69.5 C 17.3924,73.247 17.8924,76.9137 19,80.5C 19.8068,84.449 20.3068,84.449 20.5,80.5C 21.4345,81.5676 21.7678,82.901 21.5,84.5C 20.3127,86.0725 19.3127,87.7392 18.5,89.5C 18.6621,87.4727 18.4955,85.4727 18,83.5C 17.6174,84.056 17.1174,84.3893 16.5,84.5C 17.6843,82.146 17.5176,79.8126 16,77.5C 14.1147,81.9227 12.2814,86.256 10.5,90.5C 11.0901,86.3967 12.0901,82.3967 13.5,78.5C 13.5,77.1667 13.5,75.8333 13.5,74.5C 14.4851,72.4939 15.8184,70.8273 17.5,69.5 Z"/></g>
<g><path style="opacity:1" fill="#6e6e6e" d="M 223.5,71.5 C 225.453,74.1411 226.953,77.1411 228,80.5C 229.916,87.2991 231.749,93.9658 233.5,100.5C 233.5,103.167 233.5,105.833 233.5,108.5C 233.167,108.5 232.833,108.5 232.5,108.5C 232.423,104.123 231.923,99.7901 231,95.5C 229.367,91.1256 227.867,86.7923 226.5,82.5C 225.123,78.9546 224.123,75.288 223.5,71.5 Z"/></g>
<g><path style="opacity:1" fill="#5d6675" d="M 219.5,80.5 C 221.446,81.0347 222.446,82.368 222.5,84.5C 220.991,83.1405 220.324,83.6405 220.5,86C 221.077,88.137 221.41,90.3037 221.5,92.5C 219.75,88.8171 219.083,84.8171 219.5,80.5 Z"/></g>
<g><path style="opacity:1" fill="#656566" d="M 210.5,87.5 C 210.59,90.1522 209.924,92.4855 208.5,94.5C 208.41,91.8478 209.076,89.5145 210.5,87.5 Z"/></g>
<g><path style="opacity:1" fill="#99a8c3" d="M 222.5,84.5 C 223.8,88.0961 224.8,91.7627 225.5,95.5C 225.5,96.5 225.5,97.5 225.5,98.5C 224.527,100.948 224.194,103.615 224.5,106.5C 223.791,101.871 222.791,97.2042 221.5,92.5C 221.41,90.3037 221.077,88.137 220.5,86C 220.324,83.6405 220.991,83.1405 222.5,84.5 Z"/></g>
<g><path style="opacity:1" fill="#7f7f7f" d="M 13.5,78.5 C 12.0901,82.3967 11.0901,86.3967 10.5,90.5C 8.28171,93.7193 7.11505,97.386 7,101.5C 5.76872,110.792 5.26872,120.126 5.5,129.5C 4.40541,119.993 4.40541,110.326 5.5,100.5C 6.89208,95.1499 8.22541,89.6499 9.5,84C 10.7349,81.9736 12.0683,80.1403 13.5,78.5 Z"/></g>
<g><path style="opacity:1" fill="#2f1b4f" d="M 94.5,61.5 C 93.5655,65.3728 92.0655,69.0395 90,72.5C 89.3333,79.5 89.3333,86.5 90,93.5C 92.3322,102.632 97.1656,109.965 104.5,115.5C 111.125,121.181 118.791,123.014 127.5,121C 130.5,120 133.5,119 136.5,118C 141.743,113.92 146.41,109.42 150.5,104.5C 145.554,114.112 137.887,120.445 127.5,123.5C 122.821,123.666 118.155,123.499 113.5,123C 110.721,121.278 107.721,120.111 104.5,119.5C 98.6629,114.339 93.9962,108.339 90.5,101.5C 87.7916,93.3936 86.9583,85.0603 88,76.5C 88.5709,70.7026 90.7375,65.7026 94.5,61.5 Z"/></g>
<g><path style="opacity:1" fill="#7a7b7d" d="M 29.5,90.5 C 31.6564,98.2771 33.3231,106.277 34.5,114.5C 33.8826,114.389 33.3826,114.056 33,113.5C 32.0176,108.084 30.851,102.751 29.5,97.5C 29.5,95.1667 29.5,92.8333 29.5,90.5 Z"/></g>
<g><path style="opacity:1" fill="#412e6d" d="M 114.5,54.5 C 128.962,52.1463 139.462,57.4797 146,70.5C 150.691,86.1199 147.191,99.2866 135.5,110C 115.645,118.11 102.645,111.943 96.5,91.5C 93.1508,78.0313 96.8175,66.8647 107.5,58C 109.713,56.3838 112.047,55.2172 114.5,54.5 Z"/></g>
<g><path style="opacity:1" fill="#6b6082" d="M 140.5,82.5 C 141.485,86.6344 141.818,90.9677 141.5,95.5C 141.5,97.5 140.5,98.5 138.5,98.5C 138.783,97.7109 139.283,97.0442 140,96.5C 140.499,91.8452 140.666,87.1785 140.5,82.5 Z"/></g>
<g><path style="opacity:1" fill="#2c1f4f" d="M 141.5,95.5 C 141.818,90.9677 141.485,86.6344 140.5,82.5C 140.5,82.1667 140.5,81.8333 140.5,81.5C 140.716,77.9408 140.382,74.4408 139.5,71C 135.532,67.675 131.532,64.3417 127.5,61C 126,60.8333 124.5,60.6667 123,60.5C 119.192,61.4691 115.359,62.3025 111.5,63C 112.448,63.4828 113.448,63.6495 114.5,63.5C 114.5,63.8333 114.5,64.1667 114.5,64.5C 110.539,65.4792 107.206,67.4792 104.5,70.5C 104.167,70.5 103.833,70.5 103.5,70.5C 106.33,65.5043 110.33,61.671 115.5,59C 119.89,58.2278 124.223,58.3945 128.5,59.5C 133.63,62.8071 138.13,66.8071 142,71.5C 142.44,76.6726 142.94,81.8393 143.5,87C 143.511,90.1156 142.845,92.949 141.5,95.5 Z"/></g>
<g><path style="opacity:1" fill="#302355" d="M 102.5,71.5 C 102.5,75.8333 102.5,80.1667 102.5,84.5C 101.957,84.56 101.624,84.8933 101.5,85.5C 105.239,104.046 116.239,110.212 134.5,104C 135.373,102.955 136.373,102.122 137.5,101.5C 137.141,103.371 136.141,104.871 134.5,106C 131.624,106.438 128.957,107.438 126.5,109C 118.808,111.001 112.308,109.168 107,103.5C 106.667,102.167 106.333,100.833 106,99.5C 102.133,97.6398 99.7999,94.6398 99,90.5C 98.0779,83.6206 99.2446,77.2873 102.5,71.5 Z"/></g>
<g><path style="opacity:1" fill="#131317" d="M 124.5,94.5 C 124.5,92.5 124.5,90.5 124.5,88.5C 122.61,88.2965 121.11,88.9632 120,90.5C 119.211,92.7116 119.378,94.7116 120.5,96.5C 121.833,97.8333 123.167,99.1667 124.5,100.5C 121.645,101.803 118.645,101.803 115.5,100.5C 111.562,97.734 108.562,94.234 106.5,90C 107.094,89.5357 107.761,89.369 108.5,89.5C 109.667,90.8148 111.167,91.4814 113,91.5C 118.075,88.7117 122.909,85.5451 127.5,82C 135.768,82.1686 138.435,86.3353 135.5,94.5C 131.798,98.4884 128.131,98.4884 124.5,94.5 Z"/></g>
<g><path style="opacity:1" fill="#7e7f7e" d="M 124.5,94.5 C 121.788,89.1719 120.454,89.8386 120.5,96.5C 119.378,94.7116 119.211,92.7116 120,90.5C 121.11,88.9632 122.61,88.2965 124.5,88.5C 124.5,90.5 124.5,92.5 124.5,94.5 Z"/></g>
<g><path style="opacity:1" fill="#ddddde" d="M 114.5,64.5 C 115.262,66.2624 116.596,67.2624 118.5,67.5C 122.929,69.45 124.429,72.7833 123,77.5C 121.989,78.3366 120.822,78.67 119.5,78.5C 119.66,76.8008 119.494,75.1341 119,73.5C 116.835,72.4173 114.835,71.084 113,69.5C 106.828,71.728 104.828,76.0614 107,82.5C 108.845,84.0874 110.845,85.4208 113,86.5C 119.002,82.4213 125.169,78.7546 131.5,75.5C 133.8,77.984 136.467,79.984 139.5,81.5C 139.833,81.5 140.167,81.5 140.5,81.5C 140.5,81.8333 140.5,82.1667 140.5,82.5C 140.666,87.1785 140.499,91.8452 140,96.5C 139.283,97.0442 138.783,97.7109 138.5,98.5C 135.543,99.6372 132.71,100.971 130,102.5C 127.991,102.242 126.157,101.575 124.5,100.5C 123.167,99.1667 121.833,97.8333 120.5,96.5C 120.454,89.8386 121.788,89.1719 124.5,94.5C 128.131,98.4884 131.798,98.4884 135.5,94.5C 138.435,86.3353 135.768,82.1686 127.5,82C 122.909,85.5451 118.075,88.7117 113,91.5C 111.167,91.4814 109.667,90.8148 108.5,89.5C 106.833,88.1667 105.167,86.8333 103.5,85.5C 103.221,80.4053 103.555,75.4053 104.5,70.5C 107.206,67.4792 110.539,65.4792 114.5,64.5 Z"/></g>
<g><path style="opacity:1" fill="#9993a8" d="M 103.5,70.5 C 103.833,70.5 104.167,70.5 104.5,70.5C 103.555,75.4053 103.221,80.4053 103.5,85.5C 102.833,85.5 102.5,85.1667 102.5,84.5C 102.5,80.1667 102.5,75.8333 102.5,71.5C 102.5,70.8333 102.833,70.5 103.5,70.5 Z"/></g>
<g><path style="opacity:1" fill="#151519" d="M 131.5,75.5 C 125.169,78.7546 119.002,82.4213 113,86.5C 110.845,85.4208 108.845,84.0874 107,82.5C 104.828,76.0614 106.828,71.728 113,69.5C 114.835,71.084 116.835,72.4173 119,73.5C 119.494,75.1341 119.66,76.8008 119.5,78.5C 120.822,78.67 121.989,78.3366 123,77.5C 124.429,72.7833 122.929,69.45 118.5,67.5C 117.537,66.6365 117.537,65.9698 118.5,65.5C 122.826,67.2798 126.993,69.2798 131,71.5C 131.49,72.7932 131.657,74.1266 131.5,75.5 Z"/></g>
<g><path style="opacity:1" fill="#171526" d="M 114.5,63.5 C 120.104,63.4306 125.438,64.5973 130.5,67C 134.395,71.293 137.395,76.1263 139.5,81.5C 136.467,79.984 133.8,77.984 131.5,75.5C 131.657,74.1266 131.49,72.7932 131,71.5C 126.993,69.2798 122.826,67.2798 118.5,65.5C 117.537,65.9698 117.537,66.6365 118.5,67.5C 116.596,67.2624 115.262,66.2624 114.5,64.5C 114.5,64.1667 114.5,63.8333 114.5,63.5 Z"/></g>
<g><path style="opacity:1" fill="#1d1638" d="M 140.5,81.5 C 140.167,81.5 139.833,81.5 139.5,81.5C 137.395,76.1263 134.395,71.293 130.5,67C 125.438,64.5973 120.104,63.4306 114.5,63.5C 113.448,63.6495 112.448,63.4828 111.5,63C 115.359,62.3025 119.192,61.4691 123,60.5C 124.5,60.6667 126,60.8333 127.5,61C 131.532,64.3417 135.532,67.675 139.5,71C 140.382,74.4408 140.716,77.9408 140.5,81.5 Z"/></g>
<g><path style="opacity:1" fill="#3b3b3b" d="M 226.5,82.5 C 227.867,86.7923 229.367,91.1256 231,95.5C 231.923,99.7901 232.423,104.123 232.5,108.5C 232.825,115.687 232.491,122.687 231.5,129.5C 231.666,121.16 231.5,112.827 231,104.5C 228.987,97.2881 227.487,89.9547 226.5,82.5 Z"/></g>
<g><path style="opacity:1" fill="#1e1837" d="M 102.5,84.5 C 102.5,85.1667 102.833,85.5 103.5,85.5C 105.167,86.8333 106.833,88.1667 108.5,89.5C 107.761,89.369 107.094,89.5357 106.5,90C 108.562,94.234 111.562,97.734 115.5,100.5C 118.645,101.803 121.645,101.803 124.5,100.5C 126.157,101.575 127.991,102.242 130,102.5C 132.71,100.971 135.543,99.6372 138.5,98.5C 138.443,99.609 138.11,100.609 137.5,101.5C 136.373,102.122 135.373,102.955 134.5,104C 116.239,110.212 105.239,104.046 101.5,85.5C 101.624,84.8933 101.957,84.56 102.5,84.5 Z"/></g>
<g><path style="opacity:1" fill="#191a1c" d="M 90.5,101.5 C 93.9962,108.339 98.6629,114.339 104.5,119.5C 101.855,121.242 98.8555,121.909 95.5,121.5C 95.5,119.167 95.5,116.833 95.5,114.5C 94.5,114.5 93.5,114.5 92.5,114.5C 91.8333,122.5 91.1667,122.5 90.5,114.5C 89.5,114.5 88.5,114.5 87.5,114.5C 86.8333,122.5 86.1667,122.5 85.5,114.5C 84.1779,114.33 83.0113,114.663 82,115.5C 81.8195,117.488 81.9862,119.488 82.5,121.5C 81.5,121.5 80.5,121.5 79.5,121.5C 79.5,119.167 79.5,116.833 79.5,114.5C 78.5,114.5 77.5,114.5 76.5,114.5C 76.7989,116.604 76.4656,118.604 75.5,120.5C 75.1667,119.333 74.8333,118.167 74.5,117C 75.2495,114.499 76.2495,112.165 77.5,110C 77.5053,107.837 76.5053,106.337 74.5,105.5C 76.2781,105.431 78.1114,105.097 80,104.5C 80.9774,101.741 80.144,99.741 77.5,98.5C 77.8333,98.1667 78.1667,97.8333 78.5,97.5C 79.7362,98.2458 81.0695,98.5792 82.5,98.5C 82.7564,96.2075 82.4231,94.0408 81.5,92C 83.3289,91.7265 84.8289,90.8932 86,89.5C 86.7007,93.9532 88.2007,97.9532 90.5,101.5 Z"/></g>
<g><path style="opacity:1" fill="#bbcae6" d="M 225.5,98.5 C 227.078,107.083 227.745,115.75 227.5,124.5C 226.778,124.918 226.278,125.584 226,126.5C 225.828,119.654 225.328,112.987 224.5,106.5C 224.194,103.615 224.527,100.948 225.5,98.5 Z"/></g>
<g><path style="opacity:1" fill="#909bb0" d="M 217.5,104.5 C 218.47,113.082 218.803,121.749 218.5,130.5C 217.527,131.791 216.527,131.791 215.5,130.5C 214.335,121.853 214.168,113.186 215,104.5C 215.77,103.402 216.603,103.402 217.5,104.5 Z"/></g>
<g><path style="opacity:1" fill="#555555" d="M 232.5,108.5 C 232.833,108.5 233.167,108.5 233.5,108.5C 233.56,118.85 233.226,129.183 232.5,139.5C 231.597,142.391 231.264,145.391 231.5,148.5C 229.5,152.833 227.5,157.167 225.5,161.5C 228.423,151.114 230.423,140.448 231.5,129.5C 232.491,122.687 232.825,115.687 232.5,108.5 Z"/></g>
<g><path style="opacity:1" fill="#b7b7b7" d="M 5.5,100.5 C 4.40541,110.326 4.40541,119.993 5.5,129.5C 5.5,133.167 5.5,136.833 5.5,140.5C 4.73209,139.737 4.23209,138.737 4,137.5C 1.55043,124.856 2.05043,112.523 5.5,100.5 Z"/></g>
<g><path style="opacity:1" fill="#4c4c4c" d="M 10.5,90.5 C 7.80466,105.354 6.80466,120.354 7.5,135.5C 6.83333,133.5 6.16667,131.5 5.5,129.5C 5.26872,120.126 5.76872,110.792 7,101.5C 7.11505,97.386 8.28171,93.7193 10.5,90.5 Z"/></g>
<g><path style="opacity:1" fill="#714596" d="M 149.5,98.5 C 150.434,99.5676 150.768,100.901 150.5,102.5C 150.5,103.167 150.5,103.833 150.5,104.5C 146.41,109.42 141.743,113.92 136.5,118C 133.5,119 130.5,120 127.5,121C 118.791,123.014 111.125,121.181 104.5,115.5C 104.047,114.542 103.381,113.708 102.5,113C 102.833,112.833 103.167,112.667 103.5,112.5C 111.877,118.782 120.877,120.115 130.5,116.5C 131.552,116.649 132.552,116.483 133.5,116C 140.319,111.532 145.652,105.698 149.5,98.5 Z"/></g>
<g><path style="opacity:1" fill="#565d6a" d="M 225.5,95.5 C 226.748,98.9416 227.581,102.608 228,106.5C 228.823,115.01 228.657,123.344 227.5,131.5C 227.5,129.167 227.5,126.833 227.5,124.5C 227.745,115.75 227.078,107.083 225.5,98.5C 225.5,97.5 225.5,96.5 225.5,95.5 Z"/></g>
<g><path style="opacity:1" fill="#626467" d="M 23.5,92.5 C 24.7918,94.2549 25.7918,96.2549 26.5,98.5C 27.7707,109.107 29.7707,119.44 32.5,129.5C 33.2216,129.918 33.7216,130.584 34,131.5C 34.4974,134.146 34.6641,136.813 34.5,139.5C 35.1377,144.19 35.971,148.856 37,153.5C 37.4169,154.756 38.2502,155.423 39.5,155.5C 39.5852,156.995 38.9185,157.995 37.5,158.5C 36.1936,157.088 35.3603,155.421 35,153.5C 31.5722,137.163 28.2389,120.829 25,104.5C 24.2705,114.527 24.4372,124.527 25.5,134.5C 24.7321,133.737 24.2321,132.737 24,131.5C 23.6667,122.5 23.3333,113.5 23,104.5C 22.7679,105.737 22.2679,106.737 21.5,107.5C 21.5871,104.439 22.5871,101.773 24.5,99.5C 24.0029,97.1817 23.6695,94.8484 23.5,92.5 Z"/></g>
<g><path style="opacity:1" fill="#808181" d="M 34.5,115.5 C 36.9624,125.301 39.1291,135.301 41,145.5C 41.8007,148.367 41.6341,151.034 40.5,153.5C 38.111,140.889 36.111,128.223 34.5,115.5 Z"/></g>
<g><path style="opacity:1" fill="#760b0a" d="M 125.5,128.5 C 124.711,128.217 124.044,127.717 123.5,127C 98.8356,126.5 74.1689,126.333 49.5,126.5C 49.8333,129.167 50.1667,131.833 50.5,134.5C 48.6896,131.855 47.6896,128.855 47.5,125.5C 73.1688,125.333 98.8355,125.5 124.5,126C 125.252,126.671 125.586,127.504 125.5,128.5 Z"/></g>
<g><path style="opacity:1" fill="#515763" d="M 21.5,107.5 C 21.1552,118.907 21.8218,130.241 23.5,141.5C 21.9823,138.466 21.1489,135.133 21,131.5C 20.1772,123.323 20.3439,115.323 21.5,107.5 Z"/></g>
<g><path style="opacity:1" fill="#a2acbe" d="M 224.5,106.5 C 225.328,112.987 225.828,119.654 226,126.5C 226.278,125.584 226.778,124.918 227.5,124.5C 227.5,126.833 227.5,129.167 227.5,131.5C 225.373,149.719 219.207,166.385 209,181.5C 207.693,183.192 206.193,184.525 204.5,185.5C 204.343,184.127 204.51,182.793 205,181.5C 220.394,158.928 226.894,133.928 224.5,106.5 Z"/></g>
<g><path style="opacity:1" fill="#a40605" d="M 125.5,128.5 C 126.641,131.64 126.808,134.973 126,138.5C 123.871,141.818 122.038,145.151 120.5,148.5C 120.854,144.28 121.854,140.28 123.5,136.5C 121.144,135.706 118.811,136.039 116.5,137.5C 115.808,136.975 115.308,136.308 115,135.5C 109.752,135.379 104.252,135.712 98.5,136.5C 99.0922,139.631 98.0922,141.964 95.5,143.5C 95.5,142.833 95.5,142.167 95.5,141.5C 96.4345,140.432 96.7678,139.099 96.5,137.5C 90.9738,137.179 85.6405,137.512 80.5,138.5C 80.573,140.027 79.9063,141.027 78.5,141.5C 78.5,140.5 78.5,139.5 78.5,138.5C 70.8561,139.48 63.1894,139.647 55.5,139C 55,138.5 54.5,138 54,137.5C 54.3949,140.865 54.2282,144.198 53.5,147.5C 52.438,145.978 51.7713,144.312 51.5,142.5C 52.1471,141.726 52.4805,140.726 52.5,139.5C 52.3601,137.97 51.6935,136.97 50.5,136.5C 50.5,135.833 50.5,135.167 50.5,134.5C 50.1667,131.833 49.8333,129.167 49.5,126.5C 74.1689,126.333 98.8356,126.5 123.5,127C 124.044,127.717 124.711,128.217 125.5,128.5 Z"/></g>
<g><path style="opacity:1" fill="#a0acc1" d="M 18.5,89.5 C 14.777,103.568 13.6104,117.901 15,132.5C 18.0357,149.111 23.5357,164.777 31.5,179.5C 30.8501,179.804 30.1835,180.137 29.5,180.5C 10.4245,150.647 6.0912,118.647 16.5,84.5C 17.1174,84.3893 17.6174,84.056 18,83.5C 18.4955,85.4727 18.6621,87.4727 18.5,89.5 Z"/></g>
<g><path style="opacity:1" fill="#d8d8d8" d="M 29.5,97.5 C 30.851,102.751 32.0176,108.084 33,113.5C 33.3826,114.056 33.8826,114.389 34.5,114.5C 34.5,114.833 34.5,115.167 34.5,115.5C 36.111,128.223 38.111,140.889 40.5,153.5C 39.8826,153.611 39.3826,153.944 39,154.5C 37.8723,149.861 36.8723,145.195 36,140.5C 35.6174,139.944 35.1174,139.611 34.5,139.5C 34.6641,136.813 34.4974,134.146 34,131.5C 33.7216,130.584 33.2216,129.918 32.5,129.5C 31.6564,120.271 30.3231,111.104 28.5,102C 28.5085,100.293 28.8418,98.7933 29.5,97.5 Z"/></g>
<g><path style="opacity:1" fill="#4f0606" d="M 80.5,138.5 C 85.6405,137.512 90.9738,137.179 96.5,137.5C 96.7678,139.099 96.4345,140.432 95.5,141.5C 95.5,140.5 95.5,139.5 95.5,138.5C 90.5,138.5 85.5,138.5 80.5,138.5 Z"/></g>
<g><path style="opacity:1" fill="#b40401" d="M 120.5,148.5 C 120.34,150.153 119.674,151.486 118.5,152.5C 113.595,153.445 108.595,153.779 103.5,153.5C 103.5,151.833 103.5,150.167 103.5,148.5C 101.5,148.5 99.5,148.5 97.5,148.5C 95.7868,147.365 95.1201,145.698 95.5,143.5C 98.0922,141.964 99.0922,139.631 98.5,136.5C 104.252,135.712 109.752,135.379 115,135.5C 115.308,136.308 115.808,136.975 116.5,137.5C 118.811,136.039 121.144,135.706 123.5,136.5C 121.854,140.28 120.854,144.28 120.5,148.5 Z"/></g>
<g><path style="opacity:1" fill="#979797" d="M 233.5,100.5 C 235.793,111.626 236.127,122.959 234.5,134.5C 233.976,136.306 233.309,137.972 232.5,139.5C 233.226,129.183 233.56,118.85 233.5,108.5C 233.5,105.833 233.5,103.167 233.5,100.5 Z"/></g>
<g><path style="opacity:1" fill="#6d0909" d="M 50.5,136.5 C 51.6935,136.97 52.3601,137.97 52.5,139.5C 52.4805,140.726 52.1471,141.726 51.5,142.5C 51.44,141.957 51.1067,141.624 50.5,141.5C 49.6751,143.36 48.6751,145.026 47.5,146.5C 47.9493,142.952 48.9493,139.619 50.5,136.5 Z"/></g>
<g><path style="opacity:1" fill="#0e0a0c" d="M 80.5,138.5 C 85.5,138.5 90.5,138.5 95.5,138.5C 95.5,139.5 95.5,140.5 95.5,141.5C 95.5,142.167 95.5,142.833 95.5,143.5C 94.8333,143.5 94.5,143.833 94.5,144.5C 93.5489,145.919 93.2155,147.585 93.5,149.5C 88.1667,149.5 82.8333,149.5 77.5,149.5C 77.5,148.167 77.5,146.833 77.5,145.5C 77.8333,144.167 78.1667,142.833 78.5,141.5C 79.9063,141.027 80.573,140.027 80.5,138.5 Z"/></g>
<g><path style="opacity:1" fill="#b30501" d="M 78.5,141.5 C 78.1667,142.833 77.8333,144.167 77.5,145.5C 76.6618,145.842 76.3284,146.508 76.5,147.5C 75.5655,148.568 75.2322,149.901 75.5,151.5C 82.8211,152.034 90.1544,152.868 97.5,154C 80.5033,154.5 63.5033,154.667 46.5,154.5C 46.5,153.5 46.5,152.5 46.5,151.5C 46.5,150.167 46.5,148.833 46.5,147.5C 46.5,146.833 46.8333,146.5 47.5,146.5C 48.6751,145.026 49.6751,143.36 50.5,141.5C 51.1067,141.624 51.44,141.957 51.5,142.5C 51.7713,144.312 52.438,145.978 53.5,147.5C 54.2282,144.198 54.3949,140.865 54,137.5C 54.5,138 55,138.5 55.5,139C 63.1894,139.647 70.8561,139.48 78.5,138.5C 78.5,139.5 78.5,140.5 78.5,141.5 Z"/></g>
<g><path style="opacity:1" fill="#aaabab" d="M 34.5,139.5 C 35.1174,139.611 35.6174,139.944 36,140.5C 36.8723,145.195 37.8723,149.861 39,154.5C 39.3826,153.944 39.8826,153.611 40.5,153.5C 40.6716,154.492 40.3382,155.158 39.5,155.5C 38.2502,155.423 37.4169,154.756 37,153.5C 35.971,148.856 35.1377,144.19 34.5,139.5 Z"/></g>
<g><path style="opacity:1" fill="#777777" d="M 5.5,129.5 C 6.16667,131.5 6.83333,133.5 7.5,135.5C 8.95122,143.539 10.6179,151.539 12.5,159.5C 11.6851,158.571 10.8518,157.571 10,156.5C 8.80308,150.975 7.30308,145.642 5.5,140.5C 5.5,136.833 5.5,133.167 5.5,129.5 Z"/></g>
<g><path style="opacity:1" fill="#340606" d="M 94.5,144.5 C 94.5,146.5 94.5,148.5 94.5,150.5C 88.5,150.5 82.5,150.5 76.5,150.5C 76.5,149.5 76.5,148.5 76.5,147.5C 76.3284,146.508 76.6618,145.842 77.5,145.5C 77.5,146.833 77.5,148.167 77.5,149.5C 82.8333,149.5 88.1667,149.5 93.5,149.5C 93.2155,147.585 93.5489,145.919 94.5,144.5 Z"/></g>
<g><path style="opacity:1" fill="#6b0708" d="M 95.5,143.5 C 95.1201,145.698 95.7868,147.365 97.5,148.5C 98.0906,149.151 98.7573,149.818 99.5,150.5C 91.5277,151.498 83.5277,151.831 75.5,151.5C 75.2322,149.901 75.5655,148.568 76.5,147.5C 76.5,148.5 76.5,149.5 76.5,150.5C 82.5,150.5 88.5,150.5 94.5,150.5C 94.5,148.5 94.5,146.5 94.5,144.5C 94.5,143.833 94.8333,143.5 95.5,143.5 Z"/></g>
<g><path style="opacity:1" fill="#9c0703" d="M 97.5,148.5 C 99.5,148.5 101.5,148.5 103.5,148.5C 103.5,150.167 103.5,151.833 103.5,153.5C 108.595,153.779 113.595,153.445 118.5,152.5C 118.443,153.609 118.11,154.609 117.5,155.5C 93.5,155.5 69.5,155.5 45.5,155.5C 45.2322,153.901 45.5655,152.568 46.5,151.5C 46.5,152.5 46.5,153.5 46.5,154.5C 63.5033,154.667 80.5033,154.5 97.5,154C 90.1544,152.868 82.8211,152.034 75.5,151.5C 83.5277,151.831 91.5277,151.498 99.5,150.5C 98.7573,149.818 98.0906,149.151 97.5,148.5 Z"/></g>
<g><path style="opacity:1" fill="#656c77" d="M 26.5,153.5 C 28.2451,155.033 29.2451,157.033 29.5,159.5C 27.7549,157.967 26.7549,155.967 26.5,153.5 Z"/></g>
<g><path style="opacity:1" fill="#9ea6b7" d="M 216.5,139.5 C 214.067,151.348 209.734,162.348 203.5,172.5C 202.883,172.611 202.383,172.944 202,173.5C 201.192,171.421 201.359,169.421 202.5,167.5C 207.721,158.055 211.887,148.055 215,137.5C 215.333,137.167 215.667,136.833 216,136.5C 216.483,137.448 216.649,138.448 216.5,139.5 Z"/></g>
<g><path style="opacity:1" fill="#aab5c9" d="M 25.5,134.5 C 26.3655,139.898 27.5321,145.231 29,150.5C 32.0249,156.211 34.1915,162.211 35.5,168.5C 34.5,168.5 33.5,168.5 32.5,168.5C 32.3531,165.208 31.3531,162.208 29.5,159.5C 29.2451,157.033 28.2451,155.033 26.5,153.5C 25.1319,149.584 24.1319,145.584 23.5,141.5C 21.8218,130.241 21.1552,118.907 21.5,107.5C 22.2679,106.737 22.7679,105.737 23,104.5C 23.3333,113.5 23.6667,122.5 24,131.5C 24.2321,132.737 24.7321,133.737 25.5,134.5 Z"/></g>
<g><path style="opacity:1" fill="#8f8f8f" d="M 131.5,154.5 C 155.994,155.498 180.661,155.831 205.5,155.5C 204.043,157.628 203.043,159.962 202.5,162.5C 200.076,162.192 197.743,162.526 195.5,163.5C 196.309,165.071 196.643,166.738 196.5,168.5C 197.321,171.554 197.321,174.554 196.5,177.5C 189.013,175.924 181.679,176.257 174.5,178.5C 172.229,173.435 170.563,168.102 169.5,162.5C 165.486,162.334 161.486,162.501 157.5,163C 154.542,167.419 152.542,172.252 151.5,177.5C 150.15,178.483 149.15,179.816 148.5,181.5C 147.692,181.192 147.025,180.692 146.5,180C 138.784,179.2 131.117,179.367 123.5,180.5C 123.167,179.833 122.833,179.167 122.5,178.5C 123.762,175.978 124.429,173.311 124.5,170.5C 126.447,166.407 127.947,162.074 129,157.5C 129.377,156.058 130.21,155.058 131.5,154.5 Z"/></g>
<g><path style="opacity:1" fill="#1b1c1c" d="M 16.5,84.5 C 6.0912,118.647 10.4245,150.647 29.5,180.5C 30.1835,180.137 30.8501,179.804 31.5,179.5C 30.5282,182.437 29.1948,185.103 27.5,187.5C 26.544,184.561 24.8774,182.228 22.5,180.5C 22.6567,179.127 22.49,177.793 22,176.5C 18.6329,172.41 15.7995,168.076 13.5,163.5C 13.7678,161.901 13.4345,160.568 12.5,159.5C 10.6179,151.539 8.95122,143.539 7.5,135.5C 6.80466,120.354 7.80466,105.354 10.5,90.5C 12.2814,86.256 14.1147,81.9227 16,77.5C 17.5176,79.8126 17.6843,82.146 16.5,84.5 Z"/></g>
<g><path style="opacity:1" fill="#7e0701" d="M 46.5,147.5 C 46.5,148.833 46.5,150.167 46.5,151.5C 45.5655,152.568 45.2322,153.901 45.5,155.5C 69.5,155.5 93.5,155.5 117.5,155.5C 117.338,161.33 114.338,163.663 108.5,162.5C 108.216,164.415 108.549,166.081 109.5,167.5C 109.988,170.711 109.321,173.544 107.5,176C 101.296,176.227 95.1294,176.727 89,177.5C 86.7322,173.507 84.5656,169.507 82.5,165.5C 82.5,165.167 82.5,164.833 82.5,164.5C 82.5858,163.504 82.2524,162.671 81.5,162C 77.8333,161.333 74.1667,161.333 70.5,162C 69.7476,162.671 69.4142,163.504 69.5,164.5C 69.6716,165.492 69.3382,166.158 68.5,166.5C 66.7111,168.651 65.3778,171.151 64.5,174C 57.9184,174.81 51.4184,174.643 45,173.5C 43,174.167 41,174.833 39,175.5C 38.51,174.207 38.3433,172.873 38.5,171.5C 39.1495,169.565 39.4828,167.565 39.5,165.5C 41.5326,159.357 43.8659,153.357 46.5,147.5 Z"/></g>
<g><path style="opacity:1" fill="#520a08" d="M 82.5,164.5 C 78.1667,163.167 73.8333,163.167 69.5,164.5C 69.4142,163.504 69.7476,162.671 70.5,162C 74.1667,161.333 77.8333,161.333 81.5,162C 82.2524,162.671 82.5858,163.504 82.5,164.5 Z"/></g>
<g><path style="opacity:1" fill="#c8c8c8" d="M 5.5,140.5 C 7.30308,145.642 8.80308,150.975 10,156.5C 10.8518,157.571 11.6851,158.571 12.5,159.5C 13.4345,160.568 13.7678,161.901 13.5,163.5C 14.6633,170.161 17.6633,175.828 22.5,180.5C 23.5,183.167 24.5,185.833 25.5,188.5C 24.6236,188.631 23.9569,188.298 23.5,187.5C 20.2607,182.075 16.7607,176.742 13,171.5C 10.954,163.743 8.62071,156.076 6,148.5C 5.50258,145.854 5.33591,143.187 5.5,140.5 Z"/></g>
<g><path style="opacity:1" fill="#2b2c2d" d="M 116.5,169.5 C 117.5,169.5 118.5,169.5 119.5,169.5C 119.326,167.139 118.993,164.806 118.5,162.5C 119.833,162.5 121.167,162.5 122.5,162.5C 122.326,160.139 121.993,157.806 121.5,155.5C 122.5,155.5 123.5,155.5 124.5,155.5C 124.192,153.076 124.526,150.743 125.5,148.5C 126.836,145.865 128.17,143.199 129.5,140.5C 130.309,138.708 130.809,136.708 131,134.5C 131.893,133.289 132.726,133.289 133.5,134.5C 128.753,149.018 123.586,163.351 118,177.5C 117.667,177.833 117.333,178.167 117,178.5C 116.822,175.458 115.988,172.625 114.5,170C 114.683,168.316 115.35,168.15 116.5,169.5 Z"/></g>
<g><path style="opacity:1" fill="#131315" d="M 203.5,118.5 C 203.5,119.5 203.5,120.5 203.5,121.5C 209.646,122.487 212.313,119.82 211.5,113.5C 211.5,111.5 211.5,109.5 211.5,107.5C 212.833,103.833 214.167,100.167 215.5,96.5C 217.182,98.1559 217.848,100.823 217.5,104.5C 216.603,103.402 215.77,103.402 215,104.5C 214.168,113.186 214.335,121.853 215.5,130.5C 216.527,131.791 217.527,131.791 218.5,130.5C 218.324,133.727 217.657,136.727 216.5,139.5C 216.649,138.448 216.483,137.448 216,136.5C 215.667,136.833 215.333,137.167 215,137.5C 211.887,148.055 207.721,158.055 202.5,167.5C 201.359,169.421 201.192,171.421 202,173.5C 202.383,172.944 202.883,172.611 203.5,172.5C 203.5,173.833 203.5,175.167 203.5,176.5C 201.821,176.285 200.821,176.952 200.5,178.5C 200.167,178.5 199.833,178.5 199.5,178.5C 199.41,174.786 198.41,171.452 196.5,168.5C 196.643,166.738 196.309,165.071 195.5,163.5C 197.743,162.526 200.076,162.192 202.5,162.5C 203.043,159.962 204.043,157.628 205.5,155.5C 206.302,152.426 207.302,149.426 208.5,146.5C 209.974,142.974 211.307,139.307 212.5,135.5C 213.621,132.409 213.287,129.409 211.5,126.5C 186.005,125.502 160.339,125.169 134.5,125.5C 134.263,126.791 134.596,127.791 135.5,128.5C 135.875,130.698 136.542,132.698 137.5,134.5C 137.5,134.833 137.5,135.167 137.5,135.5C 137.6,138.108 136.933,140.442 135.5,142.5C 135.443,143.609 135.11,144.609 134.5,145.5C 132.528,148.084 131.528,151.084 131.5,154.5C 130.21,155.058 129.377,156.058 129,157.5C 127.947,162.074 126.447,166.407 124.5,170.5C 122.833,173.833 121.167,177.167 119.5,180.5C 116.794,179.227 114.46,177.56 112.5,175.5C 111.232,173.095 110.565,170.428 110.5,167.5C 110.281,166.325 110.614,165.325 111.5,164.5C 114.406,165.087 116.072,166.754 116.5,169.5C 115.35,168.15 114.683,168.316 114.5,170C 115.988,172.625 116.822,175.458 117,178.5C 117.333,178.167 117.667,177.833 118,177.5C 123.586,163.351 128.753,149.018 133.5,134.5C 132.726,133.289 131.893,133.289 131,134.5C 130.809,136.708 130.309,138.708 129.5,140.5C 128.003,134.753 127.336,129.086 127.5,123.5C 137.887,120.445 145.554,114.112 150.5,104.5C 150.5,103.833 150.5,103.167 150.5,102.5C 151.558,101.4 152.392,100.066 153,98.5C 154.744,88.8523 154.91,79.1857 153.5,69.5C 156.59,67.5459 158.923,68.2126 160.5,71.5C 159.152,71.4496 157.652,71.783 156,72.5C 155.506,74.1341 155.34,75.8008 155.5,77.5C 156.5,77.5 157.5,77.5 158.5,77.5C 158.192,79.924 158.526,82.2573 159.5,84.5C 160.609,83.4104 161.609,83.4104 162.5,84.5C 161.652,86.4086 161.318,88.4086 161.5,90.5C 162.822,90.67 163.989,90.3366 165,89.5C 165.692,90.0253 166.192,90.6919 166.5,91.5C 164.466,93.5989 164.132,95.9323 165.5,98.5C 166.333,97.5 167.167,96.5 168,95.5C 168.309,96.7659 168.809,97.9326 169.5,99C 165.877,101.311 165.544,104.144 168.5,107.5C 165.287,108.087 161.954,108.087 158.5,107.5C 158.162,110.157 158.829,112.49 160.5,114.5C 160.167,114.833 159.833,115.167 159.5,115.5C 156.508,115.471 153.508,115.138 150.5,114.5C 150.453,119.136 152.453,120.469 156.5,118.5C 156.5,119.5 156.5,120.5 156.5,121.5C 153.5,121.5 150.5,121.5 147.5,121.5C 146.833,112.167 146.167,112.167 145.5,121.5C 141.5,121.5 137.5,121.5 133.5,121.5C 133.5,122.5 133.5,123.5 133.5,124.5C 159.502,124.667 185.502,124.5 211.5,124C 208.649,122.711 205.649,122.211 202.5,122.5C 202.232,120.901 202.566,119.568 203.5,118.5 Z"/></g>
<g><path style="opacity:1" fill="#a5a5a5" d="M 134.5,145.5 C 134.127,148.574 133.461,151.574 132.5,154.5C 156.5,154.5 180.5,154.5 204.5,154.5C 203.572,150.517 204.905,147.85 208.5,146.5C 207.302,149.426 206.302,152.426 205.5,155.5C 180.661,155.831 155.994,155.498 131.5,154.5C 131.528,151.084 132.528,148.084 134.5,145.5 Z"/></g>
<g><path style="opacity:1" fill="#313133" d="M 183.5,140.5 C 182.629,143.112 181.963,145.779 181.5,148.5C 181.918,149.222 182.584,149.722 183.5,150C 176.654,150.821 169.987,150.654 163.5,149.5C 169.167,149.5 174.833,149.5 180.5,149.5C 180.138,145.919 181.138,142.919 183.5,140.5 Z"/></g>
<g><path style="opacity:1" fill="#c1c2c2" d="M 183.5,140.5 C 183.833,140.5 184.167,140.5 184.5,140.5C 192.228,142.418 200.228,143.085 208.5,142.5C 208.5,143.833 208.5,145.167 208.5,146.5C 204.905,147.85 203.572,150.517 204.5,154.5C 180.5,154.5 156.5,154.5 132.5,154.5C 133.461,151.574 134.127,148.574 134.5,145.5C 135.11,144.609 135.443,143.609 135.5,142.5C 136.652,141.375 137.652,141.375 138.5,142.5C 140.229,147.784 141.396,147.451 142,141.5C 149.079,142.48 156.245,142.813 163.5,142.5C 163.5,143.833 163.5,145.167 163.5,146.5C 163.5,146.833 163.5,147.167 163.5,147.5C 162.566,148.568 162.232,149.901 162.5,151.5C 170.86,151.831 179.193,151.498 187.5,150.5C 185.827,148.914 183.827,148.247 181.5,148.5C 181.963,145.779 182.629,143.112 183.5,140.5 Z"/></g>
<g><path style="opacity:1" fill="#6c6d6e" d="M 163.5,147.5 C 163.5,148.167 163.5,148.833 163.5,149.5C 169.987,150.654 176.654,150.821 183.5,150C 182.584,149.722 181.918,149.222 181.5,148.5C 183.827,148.247 185.827,148.914 187.5,150.5C 179.193,151.498 170.86,151.831 162.5,151.5C 162.232,149.901 162.566,148.568 163.5,147.5 Z"/></g>
<g><path style="opacity:1" fill="#0a0b0d" d="M 167.5,138.5 C 173.271,137.887 178.604,138.554 183.5,140.5C 181.138,142.919 180.138,145.919 180.5,149.5C 174.833,149.5 169.167,149.5 163.5,149.5C 163.5,148.833 163.5,148.167 163.5,147.5C 163.5,147.167 163.5,146.833 163.5,146.5C 164.641,143.746 165.975,141.079 167.5,138.5 Z"/></g>
<g><path style="opacity:1" fill="#6a6a6b" d="M 137.5,135.5 C 139.534,137.655 139.867,139.988 138.5,142.5C 137.652,141.375 136.652,141.375 135.5,142.5C 136.933,140.442 137.6,138.108 137.5,135.5 Z"/></g>
<g><path style="opacity:1" fill="#b1b2b2" d="M 212.5,135.5 C 211.307,139.307 209.974,142.974 208.5,146.5C 208.5,145.167 208.5,143.833 208.5,142.5C 200.228,143.085 192.228,142.418 184.5,140.5C 184.5,139.5 184.5,138.5 184.5,137.5C 178.642,137.178 172.975,137.511 167.5,138.5C 165.975,141.079 164.641,143.746 163.5,146.5C 163.5,145.167 163.5,143.833 163.5,142.5C 156.245,142.813 149.079,142.48 142,141.5C 141.396,147.451 140.229,147.784 138.5,142.5C 139.867,139.988 139.534,137.655 137.5,135.5C 137.5,135.167 137.5,134.833 137.5,134.5C 137.326,129.979 137.993,129.645 139.5,133.5C 163.399,134.171 187.232,134.838 211,135.5C 211.807,131.551 212.307,131.551 212.5,135.5 Z"/></g>
<g><path style="opacity:1" fill="#585859" d="M 167.5,138.5 C 172.975,137.511 178.642,137.178 184.5,137.5C 184.5,138.5 184.5,139.5 184.5,140.5C 184.167,140.5 183.833,140.5 183.5,140.5C 178.604,138.554 173.271,137.887 167.5,138.5 Z"/></g>
<g><path style="opacity:1" fill="#9f9f9f" d="M 210.5,126.5 C 210.833,126.5 211.167,126.5 211.5,126.5C 213.287,129.409 213.621,132.409 212.5,135.5C 212.307,131.551 211.807,131.551 211,135.5C 187.232,134.838 163.399,134.171 139.5,133.5C 137.993,129.645 137.326,129.979 137.5,134.5C 136.542,132.698 135.875,130.698 135.5,128.5C 160.856,129.157 185.856,128.491 210.5,126.5 Z"/></g>
<g><path style="opacity:1" fill="#c4c4c4" d="M 210.5,126.5 C 185.856,128.491 160.856,129.157 135.5,128.5C 160.144,126.509 185.144,125.843 210.5,126.5 Z"/></g>
<g><path style="opacity:1" fill="#7e7f7f" d="M 211.5,126.5 C 211.167,126.5 210.833,126.5 210.5,126.5C 185.144,125.843 160.144,126.509 135.5,128.5C 134.596,127.791 134.263,126.791 134.5,125.5C 160.339,125.169 186.005,125.502 211.5,126.5 Z"/></g>
<g><path style="opacity:1" fill="#5c5c5e" d="M 211.5,113.5 C 212.313,119.82 209.646,122.487 203.5,121.5C 203.5,120.5 203.5,119.5 203.5,118.5C 203.263,117.209 203.596,116.209 204.5,115.5C 204.5,117.167 204.5,118.833 204.5,120.5C 205.959,120.567 207.292,120.234 208.5,119.5C 208.94,117.156 209.94,115.156 211.5,113.5 Z"/></g>
<g><path style="opacity:1" fill="#d3d3d3" d="M 208.5,119.5 C 207.292,120.234 205.959,120.567 204.5,120.5C 204.5,118.833 204.5,117.167 204.5,115.5C 204.5,115.167 204.5,114.833 204.5,114.5C 206.096,112.168 207.262,109.501 208,106.5C 208.499,110.821 208.666,115.154 208.5,119.5 Z"/></g>
<g><path style="opacity:1" fill="#640a02" d="M 82.5,165.5 C 84.5656,169.507 86.7322,173.507 89,177.5C 95.1294,176.727 101.296,176.227 107.5,176C 109.321,173.544 109.988,170.711 109.5,167.5C 109.833,167.5 110.167,167.5 110.5,167.5C 110.565,170.428 111.232,173.095 112.5,175.5C 112.5,175.833 112.5,176.167 112.5,176.5C 112.5,178.833 112.5,181.167 112.5,183.5C 104.5,183.5 96.5,183.5 88.5,183.5C 86.3307,177.659 84.3307,171.659 82.5,165.5 Z"/></g>
<g><path style="opacity:1" fill="#3d3d3d" d="M 225.5,161.5 C 225.657,162.873 225.49,164.207 225,165.5C 222.072,171.029 218.906,176.363 215.5,181.5C 213.912,184.758 211.579,187.425 208.5,189.5C 213.681,179.793 219.347,170.46 225.5,161.5 Z"/></g>
<g><path style="opacity:1" fill="#670901" d="M 68.5,166.5 C 67.0797,172.099 65.0797,177.433 62.5,182.5C 53.25,183.472 43.9167,183.805 34.5,183.5C 35.2556,179.233 36.589,175.233 38.5,171.5C 38.3433,172.873 38.51,174.207 39,175.5C 41,174.833 43,174.167 45,173.5C 51.4184,174.643 57.9184,174.81 64.5,174C 65.3778,171.151 66.7111,168.651 68.5,166.5 Z"/></g>
<g><path style="opacity:1" fill="#aaaaaa" d="M 231.5,148.5 C 231.759,154.462 230.593,160.129 228,165.5C 223.605,171.275 219.938,177.608 217,184.5C 215.669,186.996 213.836,188.996 211.5,190.5C 213.629,187.905 214.962,184.905 215.5,181.5C 218.906,176.363 222.072,171.029 225,165.5C 225.49,164.207 225.657,162.873 225.5,161.5C 227.5,157.167 229.5,152.833 231.5,148.5 Z"/></g>
<g><path style="opacity:1" fill="#0e0f10" d="M 219.5,80.5 C 219.083,84.8171 219.75,88.8171 221.5,92.5C 222.791,97.2042 223.791,101.871 224.5,106.5C 226.894,133.928 220.394,158.928 205,181.5C 204.51,182.793 204.343,184.127 204.5,185.5C 204.5,186.5 204.5,187.5 204.5,188.5C 202.585,188.216 200.919,188.549 199.5,189.5C 181.775,209.031 159.775,220.698 133.5,224.5C 136.833,221.5 140.167,218.5 143.5,215.5C 161.336,211.417 176.669,202.917 189.5,190C 187.866,189.506 186.199,189.34 184.5,189.5C 180.342,188.461 176.342,188.461 172.5,189.5C 171.71,190.401 170.71,191.068 169.5,191.5C 169.685,189.804 170.519,188.471 172,187.5C 172.78,185.613 172.613,183.946 171.5,182.5C 170.962,180.883 170.629,179.216 170.5,177.5C 168.567,177.729 166.9,178.562 165.5,180C 157.906,186.282 150.573,192.782 143.5,199.5C 135.466,205.942 127.3,212.275 119,218.5C 110.729,211.95 102.562,205.283 94.5,198.5C 86.6666,191.502 78.6666,184.669 70.5,178C 69.4232,177.53 68.4232,177.697 67.5,178.5C 68.3818,176.916 69.2152,175.249 70,173.5C 72.507,176.856 75.6737,179.189 79.5,180.5C 79.3433,181.873 79.51,183.207 80,184.5C 81.0847,186.657 82.2513,186.824 83.5,185C 81.9837,183.103 81.317,180.936 81.5,178.5C 80.448,178.649 79.448,178.483 78.5,178C 79.4231,175.959 79.7564,173.792 79.5,171.5C 77.6693,172.052 76.0026,172.052 74.5,171.5C 76.4593,168.394 78.626,168.06 81,170.5C 82.194,175.249 83.694,179.916 85.5,184.5C 85.2907,185.086 84.9574,185.586 84.5,186C 85.5,187.667 86.5,189.333 87.5,191C 89.1346,191.54 90.4679,191.04 91.5,189.5C 92.5,190.167 93.5,190.833 94.5,191.5C 103.167,190.167 111.833,190.167 120.5,191.5C 121.386,190.675 121.719,189.675 121.5,188.5C 130.467,187.751 139.467,187.251 148.5,187C 138.325,186.83 128.325,186.33 118.5,185.5C 128.681,185.827 138.681,185.494 148.5,184.5C 150.075,182.453 151.075,180.119 151.5,177.5C 152.542,172.252 154.542,167.419 157.5,163C 161.486,162.501 165.486,162.334 169.5,162.5C 170.563,168.102 172.229,173.435 174.5,178.5C 174.833,180.5 175.167,182.5 175.5,184.5C 183.984,185.493 192.651,185.826 201.5,185.5C 201.326,183.139 200.993,180.806 200.5,178.5C 200.821,176.952 201.821,176.285 203.5,176.5C 203.5,175.167 203.5,173.833 203.5,172.5C 209.734,162.348 214.067,151.348 216.5,139.5C 217.657,136.727 218.324,133.727 218.5,130.5C 218.803,121.749 218.47,113.082 217.5,104.5C 217.848,100.823 217.182,98.1559 215.5,96.5C 216.167,91.5 216.833,86.5 217.5,81.5C 218.167,81.1667 218.833,80.8333 219.5,80.5 Z"/></g>
<g><path style="opacity:1" fill="#7c7c7d" d="M 196.5,168.5 C 198.41,171.452 199.41,174.786 199.5,178.5C 199.357,180.262 199.691,181.929 200.5,183.5C 192.193,184.498 183.86,184.831 175.5,184.5C 175.167,182.5 174.833,180.5 174.5,178.5C 181.679,176.257 189.013,175.924 196.5,177.5C 197.321,174.554 197.321,171.554 196.5,168.5 Z"/></g>
<g><path style="opacity:1" fill="#747474" d="M 13.5,163.5 C 15.7995,168.076 18.6329,172.41 22,176.5C 22.49,177.793 22.6567,179.127 22.5,180.5C 17.6633,175.828 14.6633,170.161 13.5,163.5 Z"/></g>
<g><path style="opacity:1" fill="#767677" d="M 124.5,170.5 C 124.429,173.311 123.762,175.978 122.5,178.5C 122.833,179.167 123.167,179.833 123.5,180.5C 131.117,179.367 138.784,179.2 146.5,180C 147.025,180.692 147.692,181.192 148.5,181.5C 149.15,179.816 150.15,178.483 151.5,177.5C 151.075,180.119 150.075,182.453 148.5,184.5C 138.442,185.14 128.775,184.473 119.5,182.5C 119.5,181.833 119.5,181.167 119.5,180.5C 121.167,177.167 122.833,173.833 124.5,170.5 Z"/></g>
<g><path style="opacity:1" fill="#616161" d="M 22.5,180.5 C 24.8774,182.228 26.544,184.561 27.5,187.5C 27.5,188.167 27.5,188.833 27.5,189.5C 26.8333,189.167 26.1667,188.833 25.5,188.5C 24.5,185.833 23.5,183.167 22.5,180.5 Z"/></g>
<g><path style="opacity:1" fill="#a2a2a3" d="M 94.5,198.5 C 96.0186,201.19 96.6852,203.857 96.5,206.5C 93.5355,204.552 90.5355,202.552 87.5,200.5C 87.1667,200.667 86.8333,200.833 86.5,201C 88.0414,202.371 89.3747,203.871 90.5,205.5C 82.0146,199.082 73.6813,192.415 65.5,185.5C 65.3939,182.921 66.0605,180.588 67.5,178.5C 68.4232,177.697 69.4232,177.53 70.5,178C 78.6666,184.669 86.6666,191.502 94.5,198.5 Z"/></g>
<g><path style="opacity:1" fill="#480b04" d="M 39.5,165.5 C 39.4828,167.565 39.1495,169.565 38.5,171.5C 36.589,175.233 35.2556,179.233 34.5,183.5C 43.9167,183.805 53.25,183.472 62.5,182.5C 62.6716,183.492 62.3382,184.158 61.5,184.5C 52.1667,184.5 42.8333,184.5 33.5,184.5C 33.5,183.167 33.5,181.833 33.5,180.5C 35.129,175.265 37.129,170.265 39.5,165.5 Z"/></g>
<g><path style="opacity:1" fill="#440b04" d="M 112.5,176.5 C 113.768,178.905 114.435,181.572 114.5,184.5C 105.651,184.826 96.9839,184.493 88.5,183.5C 96.5,183.5 104.5,183.5 112.5,183.5C 112.5,181.167 112.5,178.833 112.5,176.5 Z"/></g>
<g><path style="opacity:1" fill="#a3a3a3" d="M 171.5,182.5 C 171.657,183.873 171.49,185.207 171,186.5C 164.961,192.043 158.795,197.376 152.5,202.5C 152.53,201.503 152.03,200.836 151,200.5C 148.23,201.799 145.73,203.465 143.5,205.5C 143.631,204.624 143.298,203.957 142.5,203.5C 141.549,204.326 140.549,204.492 139.5,204C 141.041,202.629 142.375,201.129 143.5,199.5C 150.573,192.782 157.906,186.282 165.5,180C 166.9,178.562 168.567,177.729 170.5,177.5C 170.629,179.216 170.962,180.883 171.5,182.5 Z"/></g>
<g><path style="opacity:1" fill="#2b0a04" d="M 33.5,180.5 C 33.5,181.833 33.5,183.167 33.5,184.5C 42.8333,184.5 52.1667,184.5 61.5,184.5C 52.0144,185.494 42.3478,185.827 32.5,185.5C 32.2155,183.585 32.5489,181.919 33.5,180.5 Z"/></g>
<g><path style="opacity:1" fill="#353537" d="M 119.5,182.5 C 128.775,184.473 138.442,185.14 148.5,184.5C 138.681,185.494 128.681,185.827 118.5,185.5C 118.263,184.209 118.596,183.209 119.5,182.5 Z"/></g>
<g><path style="opacity:1" fill="#38393b" d="M 199.5,178.5 C 199.833,178.5 200.167,178.5 200.5,178.5C 200.993,180.806 201.326,183.139 201.5,185.5C 192.651,185.826 183.984,185.493 175.5,184.5C 183.86,184.831 192.193,184.498 200.5,183.5C 199.691,181.929 199.357,180.262 199.5,178.5 Z"/></g>
<g><path style="opacity:1" fill="#c2c2c2" d="M 25.5,188.5 C 26.1667,188.833 26.8333,189.167 27.5,189.5C 32.5103,194.512 37.177,199.845 41.5,205.5C 35.6158,202.124 30.4492,197.79 26,192.5C 25.51,191.207 25.3433,189.873 25.5,188.5 Z"/></g>
<g><path style="opacity:1" fill="#1a1a1a" d="M 39.5,189.5 C 38.448,189.351 37.448,189.517 36.5,190C 43.8007,198.144 51.8007,205.311 60.5,211.5C 59.352,212.164 58.0187,212.331 56.5,212C 63.7207,216.728 71.054,221.228 78.5,225.5C 77.1667,225.5 75.8333,225.5 74.5,225.5C 71.3541,222.756 67.6874,220.756 63.5,219.5C 53.9575,212.137 44.7909,204.137 36,195.5C 34.5787,193.595 33.412,191.595 32.5,189.5C 35.0048,188.583 37.3382,188.583 39.5,189.5 Z"/></g>
<g><path style="opacity:1" fill="#c0c8d6" d="M 54.5,189.5 C 54.8333,190.5 55.5,191.167 56.5,191.5C 67.1953,201.191 79.5286,208.358 93.5,213C 94.3805,213.708 95.0472,214.542 95.5,215.5C 78.0013,211.586 63.0013,203.252 50.5,190.5C 51.6888,189.571 53.0222,189.238 54.5,189.5 Z"/></g>
<g><path style="opacity:1" fill="#535353" d="M 27.5,189.5 C 29.1667,189.5 30.8333,189.5 32.5,189.5C 33.412,191.595 34.5787,193.595 36,195.5C 44.7909,204.137 53.9575,212.137 63.5,219.5C 62.1667,219.5 60.8333,219.5 59.5,219.5C 58.3747,217.871 57.0414,216.371 55.5,215C 50.6364,212.072 45.9698,208.906 41.5,205.5C 37.177,199.845 32.5103,194.512 27.5,189.5 Z"/></g>
<g><path style="opacity:1" fill="#f3f3f3" d="M 92.5,2.5 C 92.3893,3.11742 92.056,3.61742 91.5,4C 87.2232,5.51794 82.8899,6.85128 78.5,8C 76.1407,9.24246 74.1407,10.7425 72.5,12.5C 71.1266,12.3433 69.7932,12.51 68.5,13C 59.5839,18.2427 50.9172,23.9094 42.5,30C 41.6634,31.0113 41.33,32.1779 41.5,33.5C 41.1667,33.5 40.8333,33.5 40.5,33.5C 35.3661,36.7452 30.8661,40.7452 27,45.5C 23.3333,51.1667 19.6667,56.8333 16,62.5C 15.51,63.7932 15.3433,65.1266 15.5,66.5C 14.5041,66.4142 13.6708,66.7476 13,67.5C 11.1916,72.5949 9.19163,77.5949 7,82.5C 5.7614,88.4348 5.2614,94.4348 5.5,100.5C 2.05043,112.523 1.55043,124.856 4,137.5C 4.23209,138.737 4.73209,139.737 5.5,140.5C 5.33591,143.187 5.50258,145.854 6,148.5C 8.62071,156.076 10.954,163.743 13,171.5C 16.7607,176.742 20.2607,182.075 23.5,187.5C 23.9569,188.298 24.6236,188.631 25.5,188.5C 25.3433,189.873 25.51,191.207 26,192.5C 30.4492,197.79 35.6158,202.124 41.5,205.5C 42.7772,207.148 43.7772,208.982 44.5,211C 49.4059,214.089 54.4059,216.923 59.5,219.5C 59.4142,220.496 59.7476,221.329 60.5,222C 64.0689,223.942 67.4022,226.108 70.5,228.5C 37.2348,213.398 15.0681,188.398 4,153.5C 2.4148,147.05 0.914796,140.717 -0.5,134.5C -0.5,124.167 -0.5,113.833 -0.5,103.5C 7.44207,57.7155 32.7754,25.5489 75.5,7C 80.9934,4.77885 86.6601,3.27885 92.5,2.5 Z"/></g>
<g><path style="opacity:1" fill="#e9e9e9" d="M 228.5,71.5 C 230.99,75.4465 232.824,79.7798 234,84.5C 235.585,90.9498 237.085,97.2832 238.5,103.5C 238.5,113.833 238.5,124.167 238.5,134.5C 230.558,180.284 205.225,212.451 162.5,231C 153.207,234.154 143.873,236.654 134.5,238.5C 124.167,238.5 113.833,238.5 103.5,238.5C 98.4402,237.421 93.4402,236.088 88.5,234.5C 98.7282,236.303 109.061,237.303 119.5,237.5C 126.392,237.61 133.058,236.944 139.5,235.5C 146.947,234.305 154.28,232.472 161.5,230C 163.903,228.147 166.236,226.314 168.5,224.5C 171.912,223.925 174.912,222.592 177.5,220.5C 189.921,214.438 200.254,205.771 208.5,194.5C 209.5,193.167 210.5,191.833 211.5,190.5C 213.836,188.996 215.669,186.996 217,184.5C 219.938,177.608 223.605,171.275 228,165.5C 230.593,160.129 231.759,154.462 231.5,148.5C 231.264,145.391 231.597,142.391 232.5,139.5C 233.309,137.972 233.976,136.306 234.5,134.5C 235.29,133.391 235.79,132.058 236,130.5C 236.667,120.167 236.667,109.833 236,99.5C 233.934,89.9826 231.434,80.6493 228.5,71.5 Z"/></g>
<g><path style="opacity:1" fill="#4b4b4b" d="M 63.5,188.5 C 69.5607,192.382 75.2273,196.882 80.5,202C 80.1667,202.167 79.8333,202.333 79.5,202.5C 74.0206,199.285 68.6873,195.785 63.5,192C 61.0594,190.608 58.726,190.441 56.5,191.5C 55.5,191.167 54.8333,190.5 54.5,189.5C 57.6085,189.736 60.6085,189.403 63.5,188.5 Z"/></g>
<g><path style="opacity:1" fill="#c6cddb" d="M 39.5,189.5 C 43.2506,192.747 46.9173,196.247 50.5,200C 65.2266,212.696 82.2266,220.529 101.5,223.5C 104.246,224.251 106.913,225.251 109.5,226.5C 108.791,227.404 107.791,227.737 106.5,227.5C 89.9433,225.549 74.61,220.215 60.5,211.5C 51.8007,205.311 43.8007,198.144 36.5,190C 37.448,189.517 38.448,189.351 39.5,189.5 Z"/></g>
<g><path style="opacity:1" fill="#393939" d="M 206.5,192.5 C 197.174,204.833 185.507,214.167 171.5,220.5C 171.937,218.926 172.937,217.759 174.5,217C 180.801,213.848 186.801,210.182 192.5,206C 197.083,201.248 201.749,196.748 206.5,192.5 Z"/></g>
<g><path style="opacity:1" fill="#747474" d="M 215.5,181.5 C 214.962,184.905 213.629,187.905 211.5,190.5C 210.5,191.833 209.5,193.167 208.5,194.5C 203.749,198.748 199.083,203.248 194.5,208C 188.41,211.699 182.743,215.866 177.5,220.5C 174.912,222.592 171.912,223.925 168.5,224.5C 160.246,227.483 151.912,230.316 143.5,233C 139.179,233.499 134.846,233.666 130.5,233.5C 139.273,231.298 148.273,229.131 157.5,227C 162.3,225.011 166.966,222.845 171.5,220.5C 185.507,214.167 197.174,204.833 206.5,192.5C 207.167,191.5 207.833,190.5 208.5,189.5C 211.579,187.425 213.912,184.758 215.5,181.5 Z"/></g>
<g><path style="opacity:1" fill="#b2b2b2" d="M 208.5,194.5 C 200.254,205.771 189.921,214.438 177.5,220.5C 182.743,215.866 188.41,211.699 194.5,208C 199.083,203.248 203.749,198.748 208.5,194.5 Z"/></g>
<g><path style="opacity:1" fill="#0e0e0e" d="M 60.5,211.5 C 74.61,220.215 89.9433,225.549 106.5,227.5C 107.919,228.451 109.585,228.784 111.5,228.5C 111.953,229.458 112.619,230.292 113.5,231C 112.5,231.167 111.5,231.333 110.5,231.5C 99.7522,229.71 89.0855,227.71 78.5,225.5C 71.054,221.228 63.7207,216.728 56.5,212C 58.0187,212.331 59.352,212.164 60.5,211.5 Z"/></g>
<g><path style="opacity:1" fill="#b5b5b5" d="M 41.5,205.5 C 45.9698,208.906 50.6364,212.072 55.5,215C 57.0414,216.371 58.3747,217.871 59.5,219.5C 54.4059,216.923 49.4059,214.089 44.5,211C 43.7772,208.982 42.7772,207.148 41.5,205.5 Z"/></g>
<g><path style="opacity:1" fill="#181919" d="M 173.5,20.5 C 177.261,21.5472 180.594,23.3805 183.5,26C 184.793,26.49 186.127,26.6567 187.5,26.5C 187.5,26.8333 187.5,27.1667 187.5,27.5C 189.962,30.4639 192.629,33.2972 195.5,36C 199.254,37.9187 202.588,40.4187 205.5,43.5C 207.094,46.7642 209.427,49.4309 212.5,51.5C 212.957,57.2163 215.623,61.5496 220.5,64.5C 221.242,66.9798 222.242,69.3131 223.5,71.5C 224.123,75.288 225.123,78.9546 226.5,82.5C 227.487,89.9547 228.987,97.2881 231,104.5C 231.5,112.827 231.666,121.16 231.5,129.5C 230.423,140.448 228.423,151.114 225.5,161.5C 219.347,170.46 213.681,179.793 208.5,189.5C 207.833,190.5 207.167,191.5 206.5,192.5C 201.749,196.748 197.083,201.248 192.5,206C 186.801,210.182 180.801,213.848 174.5,217C 172.937,217.759 171.937,218.926 171.5,220.5C 166.966,222.845 162.3,225.011 157.5,227C 148.273,229.131 139.273,231.298 130.5,233.5C 117.363,233.822 104.363,232.655 91.5,230C 87.0351,228.499 82.7018,226.999 78.5,225.5C 89.0855,227.71 99.7522,229.71 110.5,231.5C 111.5,231.333 112.5,231.167 113.5,231C 112.619,230.292 111.953,229.458 111.5,228.5C 111.938,228.565 112.272,228.399 112.5,228C 111.756,226.961 110.756,226.461 109.5,226.5C 106.913,225.251 104.246,224.251 101.5,223.5C 102.552,223.649 103.552,223.483 104.5,223C 101.31,220.636 98.3098,218.136 95.5,215.5C 95.0472,214.542 94.3805,213.708 93.5,213C 79.5286,208.358 67.1953,201.191 56.5,191.5C 58.726,190.441 61.0594,190.608 63.5,192C 68.6873,195.785 74.0206,199.285 79.5,202.5C 79.8333,202.333 80.1667,202.167 80.5,202C 75.2273,196.882 69.5607,192.382 63.5,188.5C 64.5511,187.778 65.2178,186.778 65.5,185.5C 73.6813,192.415 82.0146,199.082 90.5,205.5C 99.5659,214.233 109.233,222.233 119.5,229.5C 130.675,220.742 141.675,211.742 152.5,202.5C 158.795,197.376 164.961,192.043 171,186.5C 171.49,185.207 171.657,183.873 171.5,182.5C 172.613,183.946 172.78,185.613 172,187.5C 170.519,188.471 169.685,189.804 169.5,191.5C 165.853,194.811 162.187,198.145 158.5,201.5C 158.833,201.833 159.167,202.167 159.5,202.5C 162.264,201.239 164.597,199.405 166.5,197C 170.879,196.145 174.212,193.812 176.5,190C 175.207,189.51 173.873,189.343 172.5,189.5C 176.342,188.461 180.342,188.461 184.5,189.5C 173.273,200.624 159.94,208.458 144.5,213C 143.748,213.671 143.414,214.504 143.5,215.5C 140.167,218.5 136.833,221.5 133.5,224.5C 130.86,224.954 128.527,226.121 126.5,228C 157.243,225.962 182.577,213.295 202.5,190C 201.552,189.517 200.552,189.351 199.5,189.5C 200.919,188.549 202.585,188.216 204.5,188.5C 204.5,187.5 204.5,186.5 204.5,185.5C 206.193,184.525 207.693,183.192 209,181.5C 219.207,166.385 225.373,149.719 227.5,131.5C 228.657,123.344 228.823,115.01 228,106.5C 227.581,102.608 226.748,98.9416 225.5,95.5C 224.8,91.7627 223.8,88.0961 222.5,84.5C 222.446,82.368 221.446,81.0347 219.5,80.5C 218.833,80.8333 218.167,81.1667 217.5,81.5C 218.051,78.1933 218.384,74.8599 218.5,71.5C 209.137,67.4829 199.804,63.4829 190.5,59.5C 189.571,58.6851 188.571,57.8518 187.5,57C 177.374,53.1027 167.374,48.936 157.5,44.5C 155.967,42.7549 153.967,41.7549 151.5,41.5C 141.44,36.9954 131.44,32.4954 121.5,28C 117.5,28.4794 113.5,29.3128 109.5,30.5C 109.083,29.8761 108.416,29.5427 107.5,29.5C 104.81,30.5067 102.144,31.5067 99.5,32.5C 98.0536,31.3871 96.3869,31.2204 94.5,32C 89.5832,34.272 84.5832,36.1053 79.5,37.5C 79.9528,36.5416 80.6195,35.7083 81.5,35C 88.5058,31.8323 95.8391,29.8323 103.5,29C 106.382,27.3921 109.382,26.0587 112.5,25C 110.866,24.5065 109.199,24.3398 107.5,24.5C 115.5,23.1667 123.5,23.1667 131.5,24.5C 129.801,24.3398 128.134,24.5065 126.5,25C 131.842,26.7128 136.842,28.8794 141.5,31.5C 140.761,31.369 140.094,31.5357 139.5,32C 149.37,37.7781 159.703,42.1114 170.5,45C 169.944,44.6174 169.611,44.1174 169.5,43.5C 171.144,43.2865 172.644,43.6198 174,44.5C 174.717,43.9558 175.217,43.2891 175.5,42.5C 182.058,46.8789 188.225,51.8789 194,57.5C 196.558,59.1466 197.392,58.8133 196.5,56.5C 199.009,58.0121 201.676,59.3454 204.5,60.5C 205.087,59.7666 205.087,58.7666 204.5,57.5C 206.751,59.1462 208.418,61.3129 209.5,64C 210.877,65.241 212.21,65.4077 213.5,64.5C 206.62,52.953 197.953,42.953 187.5,34.5C 188.675,34.719 189.675,34.3857 190.5,33.5C 186.941,30.8937 183.607,28.0604 180.5,25C 177.721,24.1112 175.055,22.9445 172.5,21.5C 172.624,20.8933 172.957,20.56 173.5,20.5 Z"/></g>
<g><path style="opacity:1" fill="#c2c9d6" d="M 199.5,189.5 C 200.552,189.351 201.552,189.517 202.5,190C 182.577,213.295 157.243,225.962 126.5,228C 128.527,226.121 130.86,224.954 133.5,224.5C 159.775,220.698 181.775,209.031 199.5,189.5 Z"/></g>
<g><path style="opacity:1" fill="#bfc6d5" d="M 184.5,189.5 C 186.199,189.34 187.866,189.506 189.5,190C 176.669,202.917 161.336,211.417 143.5,215.5C 143.414,214.504 143.748,213.671 144.5,213C 159.94,208.458 173.273,200.624 184.5,189.5 Z"/></g>
<g><path style="opacity:1" fill="#4f4f50" d="M 172.5,189.5 C 173.873,189.343 175.207,189.51 176.5,190C 174.212,193.812 170.879,196.145 166.5,197C 164.597,199.405 162.264,201.239 159.5,202.5C 159.167,202.167 158.833,201.833 158.5,201.5C 162.187,198.145 165.853,194.811 169.5,191.5C 170.71,191.068 171.71,190.401 172.5,189.5 Z"/></g>
<g><path style="opacity:1" fill="#7f7f80" d="M 141.5,31.5 C 141.833,31.5 142.167,31.5 142.5,31.5C 151.314,35.7364 160.314,39.7364 169.5,43.5C 169.611,44.1174 169.944,44.6174 170.5,45C 159.703,42.1114 149.37,37.7781 139.5,32C 140.094,31.5357 140.761,31.369 141.5,31.5 Z"/></g>
<g><path style="opacity:1" fill="#4c4c4c" d="M 142.5,31.5 C 146.724,32.1839 150.89,33.1839 155,34.5C 157.713,36.9398 160.88,38.4398 164.5,39C 166.692,40.0669 168.358,41.5669 169.5,43.5C 160.314,39.7364 151.314,35.7364 142.5,31.5 Z"/></g>
<g><path style="opacity:1" fill="#111112" d="M 131.5,24.5 C 147.955,26.422 162.622,32.422 175.5,42.5C 175.217,43.2891 174.717,43.9558 174,44.5C 172.644,43.6198 171.144,43.2865 169.5,43.5C 168.358,41.5669 166.692,40.0669 164.5,39C 160.88,38.4398 157.713,36.9398 155,34.5C 150.89,33.1839 146.724,32.1839 142.5,31.5C 142.167,31.5 141.833,31.5 141.5,31.5C 136.842,28.8794 131.842,26.7128 126.5,25C 128.134,24.5065 129.801,24.3398 131.5,24.5 Z"/></g>
<g><path style="opacity:1" fill="#8d8e8e" d="M 94.5,198.5 C 102.562,205.283 110.729,211.95 119,218.5C 127.3,212.275 135.466,205.942 143.5,199.5C 142.375,201.129 141.041,202.629 139.5,204C 140.549,204.492 141.549,204.326 142.5,203.5C 143.298,203.957 143.631,204.624 143.5,205.5C 135.811,212.52 127.811,219.187 119.5,225.5C 111.252,219.875 103.585,213.542 96.5,206.5C 96.6852,203.857 96.0186,201.19 94.5,198.5 Z"/></g>
<g><path style="opacity:1" fill="#6e6e6e" d="M 63.5,219.5 C 67.6874,220.756 71.3541,222.756 74.5,225.5C 72.079,224.109 69.4123,223.275 66.5,223C 64.9371,222.241 63.9371,221.074 63.5,219.5 Z"/></g>
<g><path style="opacity:1" fill="#c5c5c6" d="M 96.5,206.5 C 103.585,213.542 111.252,219.875 119.5,225.5C 127.811,219.187 135.811,212.52 143.5,205.5C 145.73,203.465 148.23,201.799 151,200.5C 152.03,200.836 152.53,201.503 152.5,202.5C 141.675,211.742 130.675,220.742 119.5,229.5C 109.233,222.233 99.5659,214.233 90.5,205.5C 89.3747,203.871 88.0414,202.371 86.5,201C 86.8333,200.833 87.1667,200.667 87.5,200.5C 90.5355,202.552 93.5355,204.552 96.5,206.5 Z"/></g>
<g><path style="opacity:1" fill="#7a7d84" d="M 109.5,226.5 C 110.756,226.461 111.756,226.961 112.5,228C 112.272,228.399 111.938,228.565 111.5,228.5C 109.585,228.784 107.919,228.451 106.5,227.5C 107.791,227.737 108.791,227.404 109.5,226.5 Z"/></g>
<g><path style="opacity:0.769" fill="#d6d6d6" d="M 59.5,219.5 C 60.8333,219.5 62.1667,219.5 63.5,219.5C 63.9371,221.074 64.9371,222.241 66.5,223C 69.4123,223.275 72.079,224.109 74.5,225.5C 80.3192,227.772 86.3192,229.939 92.5,232C 97.0633,233.475 101.73,234.308 106.5,234.5C 106.918,235.222 107.584,235.722 108.5,236C 118.845,236.56 129.179,236.393 139.5,235.5C 133.058,236.944 126.392,237.61 119.5,237.5C 109.061,237.303 98.7282,236.303 88.5,234.5C 82.155,233.496 76.155,231.496 70.5,228.5C 67.4022,226.108 64.0689,223.942 60.5,222C 59.7476,221.329 59.4142,220.496 59.5,219.5 Z"/></g>
<g><path style="opacity:1" fill="#6b6b6b" d="M 74.5,225.5 C 75.8333,225.5 77.1667,225.5 78.5,225.5C 82.7018,226.999 87.0351,228.499 91.5,230C 104.363,232.655 117.363,233.822 130.5,233.5C 122.684,234.492 114.684,234.826 106.5,234.5C 101.73,234.308 97.0633,233.475 92.5,232C 86.3192,229.939 80.3192,227.772 74.5,225.5 Z"/></g>
<g><path style="opacity:1" fill="#b8b8b8" d="M 168.5,224.5 C 166.236,226.314 163.903,228.147 161.5,230C 154.28,232.472 146.947,234.305 139.5,235.5C 129.179,236.393 118.845,236.56 108.5,236C 107.584,235.722 106.918,235.222 106.5,234.5C 114.684,234.826 122.684,234.492 130.5,233.5C 134.846,233.666 139.179,233.499 143.5,233C 151.912,230.316 160.246,227.483 168.5,224.5 Z"/></g>
</svg>
