<?xml version="1.0" encoding="UTF-8"?>
<!DOCTYPE svg PUBLIC "-//W3C//DTD SVG 1.1//EN" "http://www.w3.org/Graphics/SVG/1.1/DTD/svg11.dtd">
<svg xmlns="http://www.w3.org/2000/svg" version="1.1" width="210px" height="210px" style="shape-rendering:geometricPrecision; text-rendering:geometricPrecision; image-rendering:optimizeQuality; fill-rule:evenodd; clip-rule:evenodd" xmlns:xlink="http://www.w3.org/1999/xlink">
<g><path style="opacity:0.769" fill="#c8b56d" d="M 90.5,-0.5 C 99.8333,-0.5 109.167,-0.5 118.5,-0.5C 120.5,0.166667 122.5,0.833333 124.5,1.5C 109.754,-0.184927 95.0876,0.315073 80.5,3C 78.2774,3.56619 76.2774,4.39953 74.5,5.5C 71.8478,5.40953 69.5145,6.07619 67.5,7.5C 61.476,9.42147 55.8094,12.0881 50.5,15.5C 49.8333,15.5 49.1667,15.5 48.5,15.5C 61.3797,7.20707 75.3797,1.87374 90.5,-0.5 Z"/></g>
<g><path style="opacity:0.475" fill="#a28d58" d="M 124.5,1.5 C 131.677,2.11731 138.344,4.11731 144.5,7.5C 137.559,6.07224 130.893,4.07224 124.5,1.5 Z"/></g>
<g><path style="opacity:1" fill="#120e0a" d="M 124.5,1.5 C 130.893,4.07224 137.559,6.07224 144.5,7.5C 148.818,10.3256 153.484,12.6589 158.5,14.5C 158.973,15.9063 159.973,16.573 161.5,16.5C 162.634,19.0338 164.634,20.3671 167.5,20.5C 170.45,22.1153 173.116,24.1153 175.5,26.5C 177.094,29.7642 179.427,32.4309 182.5,34.5C 197.39,50.2811 206.39,68.9478 209.5,90.5C 209.5,99.8333 209.5,109.167 209.5,118.5C 206.605,136.62 199.605,152.953 188.5,167.5C 186.742,167.123 185.075,166.456 183.5,165.5C 182.472,167.361 180.972,168.695 179,169.5C 178.487,168.473 177.987,167.473 177.5,166.5C 182.275,165.09 183.608,162.09 181.5,157.5C 182.961,158.686 184.295,158.686 185.5,157.5C 186.985,155.066 188.652,152.733 190.5,150.5C 191.75,150.423 192.583,149.756 193,148.5C 194.43,145.647 195.263,142.647 195.5,139.5C 196.537,138.07 197.204,136.403 197.5,134.5C 198.924,132.485 199.59,130.152 199.5,127.5C 199.5,127.167 199.5,126.833 199.5,126.5C 201.217,123.155 201.884,119.489 201.5,115.5C 202.656,107.677 202.823,99.6775 202,91.5C 201.796,88.2026 200.963,85.2026 199.5,82.5C 199.768,80.901 199.434,79.5676 198.5,78.5C 198.472,75.0836 197.472,72.0836 195.5,69.5C 184.95,43.9492 166.95,25.6159 141.5,14.5C 135.179,12.6124 128.846,10.9457 122.5,9.5C 121.048,8.69808 119.382,8.19808 117.5,8C 108.833,7.33333 100.167,7.33333 91.5,8C 86.8534,8.53843 82.52,9.7051 78.5,11.5C 62.6418,15.3798 48.9751,23.0464 37.5,34.5C 37.762,33.0222 37.4287,31.6888 36.5,30.5C 35.549,31.3256 34.549,31.4922 33.5,31C 35.7059,28.9633 37.7059,26.7966 39.5,24.5C 42.8761,21.1218 46.5428,18.1218 50.5,15.5C 55.8094,12.0881 61.476,9.42147 67.5,7.5C 70.1522,7.59047 72.4855,6.92381 74.5,5.5C 76.2774,4.39953 78.2774,3.56619 80.5,3C 95.0876,0.315073 109.754,-0.184927 124.5,1.5 Z"/></g>
<g><path style="opacity:1" fill="#524224" d="M 74.5,5.5 C 72.4855,6.92381 70.1522,7.59047 67.5,7.5C 69.5145,6.07619 71.8478,5.40953 74.5,5.5 Z"/></g>
<g><path style="opacity:1" fill="#a97f24" d="M 122.5,9.5 C 107.758,9.03124 93.0917,9.69791 78.5,11.5C 82.52,9.7051 86.8534,8.53843 91.5,8C 100.167,7.33333 108.833,7.33333 117.5,8C 119.382,8.19808 121.048,8.69808 122.5,9.5 Z"/></g>
<g><path style="opacity:0.627" fill="#8e7e4f" d="M 144.5,7.5 C 149.753,8.79302 154.419,11.1263 158.5,14.5C 153.484,12.6589 148.818,10.3256 144.5,7.5 Z"/></g>
<g><path style="opacity:0.502" fill="#807749" d="M 158.5,14.5 C 160.027,14.427 161.027,15.0937 161.5,16.5C 159.973,16.573 158.973,15.9063 158.5,14.5 Z"/></g>
<g><path style="opacity:1" fill="#564d2c" d="M 161.5,16.5 C 163.853,17.3403 165.853,18.6736 167.5,20.5C 164.634,20.3671 162.634,19.0338 161.5,16.5 Z"/></g>
<g><path style="opacity:0.788" fill="#6a623b" d="M 175.5,26.5 C 178.573,28.5691 180.906,31.2358 182.5,34.5C 179.427,32.4309 177.094,29.7642 175.5,26.5 Z"/></g>
<g><path style="opacity:1" fill="#201b16" d="M 39.5,24.5 C 37.7059,26.7966 35.7059,28.9633 33.5,31C 34.549,31.4922 35.549,31.3256 36.5,30.5C 37.4287,31.6888 37.762,33.0222 37.5,34.5C 25.4936,46.0021 16.9936,59.6688 12,75.5C 11.3897,78.8273 10.8897,82.1606 10.5,85.5C 8.72959,94.6015 8.06292,103.935 8.5,113.5C 9.08103,118.813 8.24769,123.813 6,128.5C 5.4601,125.639 4.4601,122.972 3,120.5C 2.4726,108.824 2.63926,97.1573 3.5,85.5C 3.5,84.1667 3.5,82.8333 3.5,81.5C 4.35115,76.7751 5.51781,72.1084 7,67.5C 9.3753,61.9104 12.042,56.5771 15,51.5C 21.2644,40.7374 29.431,31.7374 39.5,24.5 Z"/></g>
<g><path style="opacity:1" fill="#b49750" d="M 48.5,15.5 C 49.1667,15.5 49.8333,15.5 50.5,15.5C 46.5428,18.1218 42.8761,21.1218 39.5,24.5C 29.431,31.7374 21.2644,40.7374 15,51.5C 12.042,56.5771 9.3753,61.9104 7,67.5C 5.51781,72.1084 4.35115,76.7751 3.5,81.5C 2.83333,82.5 2.16667,83.5 1.5,84.5C 7.34168,54.6831 23.0083,31.6831 48.5,15.5 Z"/></g>
<g><path style="opacity:1" fill="#c39429" d="M 122.5,9.5 C 128.846,10.9457 135.179,12.6124 141.5,14.5C 166.95,25.6159 184.95,43.9492 195.5,69.5C 195.69,72.855 196.69,75.855 198.5,78.5C 199.434,79.5676 199.768,80.901 199.5,82.5C 201.163,93.4256 201.83,104.426 201.5,115.5C 200.475,118.974 199.808,122.64 199.5,126.5C 199.5,126.833 199.5,127.167 199.5,127.5C 198.076,129.515 197.41,131.848 197.5,134.5C 197.204,136.403 196.537,138.07 195.5,139.5C 193.597,142.979 191.93,146.646 190.5,150.5C 188.652,152.733 186.985,155.066 185.5,157.5C 183.596,157.262 182.262,156.262 181.5,154.5C 186.761,150.545 188.761,145.378 187.5,139C 191.041,136.745 193.207,133.579 194,129.5C 195.143,117.236 195.643,104.736 195.5,92C 194.67,84.1216 192.67,76.6216 189.5,69.5C 185.614,68.4119 185.614,67.5785 189.5,67C 190.167,65.6667 190.833,64.3333 191.5,63C 189.053,60.0968 186.386,57.4302 183.5,55C 184.833,54.3333 184.833,53.6667 183.5,53C 182.551,52.3828 181.718,52.5494 181,53.5C 178.565,51.5628 178.398,49.7295 180.5,48C 179.874,47.2496 179.374,46.4162 179,45.5C 176.127,45.4458 173.627,44.1124 171.5,41.5C 171.307,39.9137 170.973,38.247 170.5,36.5C 168.629,35.233 166.796,35.233 165,36.5C 164.667,35.5 164.333,34.5 164,33.5C 161.692,32.3589 159.859,30.6922 158.5,28.5C 154.222,27.7162 150.222,26.2162 146.5,24C 147.308,23.6924 147.975,23.1924 148.5,22.5C 146.154,19.0675 142.821,17.5675 138.5,18C 139.604,16.8687 139.271,16.0354 137.5,15.5C 134.539,16.1831 134.205,17.0164 136.5,18C 136,18.1667 135.5,18.3333 135,18.5C 131.888,15.78 128.221,14.1133 124,13.5C 110.533,13.581 97.0329,13.581 83.5,13.5C 80.8333,14.5 80.8333,15.5 83.5,16.5C 80.1565,17.7571 76.8231,17.7571 73.5,16.5C 71.7295,17.0354 71.3961,17.8687 72.5,19C 69.4413,19.0577 67.108,20.391 65.5,23C 62.5,24 59.5,25 56.5,26C 55.624,27.586 54.624,29.086 53.5,30.5C 50.199,32.1498 47.199,34.1498 44.5,36.5C 45.0253,37.1924 45.6919,37.6924 46.5,38C 44.7601,39.827 43.0935,39.6603 41.5,37.5C 38.2325,40.9194 34.7325,44.2528 31,47.5C 31.5984,50.1606 31.4317,52.8273 30.5,55.5C 29.3049,57.297 27.6382,58.297 25.5,58.5C 25.5,59.8333 25.5,61.1667 25.5,62.5C 23.6954,63.2371 22.0287,64.2371 20.5,65.5C 17.3135,71.1041 15.6468,76.9375 15.5,83C 14.376,83.2492 13.376,83.7492 12.5,84.5C 13.3829,85.548 14.0496,86.7147 14.5,88C 13.0102,91.3183 12.3435,94.8183 12.5,98.5C 12.2857,111.307 14.2857,123.641 18.5,135.5C 18.1667,136.167 17.8333,136.833 17.5,137.5C 21.5326,138.939 22.5326,141.605 20.5,145.5C 19.0014,144.322 18.0014,142.655 17.5,140.5C 15.6286,134.976 14.4619,129.31 14,123.5C 13.586,123.957 13.086,124.291 12.5,124.5C 10.9187,111.55 10.2521,98.5502 10.5,85.5C 10.8897,82.1606 11.3897,78.8273 12,75.5C 16.9936,59.6688 25.4936,46.0021 37.5,34.5C 48.9751,23.0464 62.6418,15.3798 78.5,11.5C 93.0917,9.69791 107.758,9.03124 122.5,9.5 Z"/></g>
<g><path style="opacity:1" fill="#332114" d="M 57.5,38.5 C 54.4229,41.5693 51.7563,44.9026 49.5,48.5C 46.5691,50.0908 43.9024,52.0908 41.5,54.5C 45.8333,48.1667 51.1667,42.8333 57.5,38.5 Z"/></g>
<g><path style="opacity:1" fill="#987035" d="M 158.5,40.5 C 161.093,41.7536 163.427,43.4202 165.5,45.5C 166.6,46.6049 167.267,47.9382 167.5,49.5C 164.167,46.8333 161.167,43.8333 158.5,40.5 Z"/></g>
<g><path style="opacity:1" fill="#35172e" d="M 145.5,34.5 C 145.5,34.1667 145.5,33.8333 145.5,33.5C 150.058,35.3859 154.392,37.7193 158.5,40.5C 161.167,43.8333 164.167,46.8333 167.5,49.5C 168.5,50.8333 169.5,52.1667 170.5,53.5C 171.08,55.7488 172.413,57.4154 174.5,58.5C 174.5,59.1667 174.5,59.8333 174.5,60.5C 171.577,58.7427 169.577,56.2427 168.5,53C 166.535,51.4347 164.369,50.268 162,49.5C 161.683,45.9153 159.849,43.4153 156.5,42C 154.888,41.2797 153.388,41.4464 152,42.5C 152.436,38.071 150.269,35.4043 145.5,34.5 Z"/></g>
<g><path style="opacity:1" fill="#2d133f" d="M 145.5,34.5 C 150.269,35.4043 152.436,38.071 152,42.5C 153.388,41.4464 154.888,41.2797 156.5,42C 159.849,43.4153 161.683,45.9153 162,49.5C 164.369,50.268 166.535,51.4347 168.5,53C 169.577,56.2427 171.577,58.7427 174.5,60.5C 175.906,60.9731 176.573,61.9731 176.5,63.5C 177.447,66.9336 178.614,70.267 180,73.5C 180.377,74.9423 181.21,75.9423 182.5,76.5C 182.5,77.1667 182.833,77.5 183.5,77.5C 183.5,78.8333 183.5,80.1667 183.5,81.5C 183.5,87.8333 183.5,94.1667 183.5,100.5C 180.5,100.5 177.5,100.5 174.5,100.5C 174.728,95.9849 174.062,91.6516 172.5,87.5C 166.583,86.315 164.25,82.6484 165.5,76.5C 162.921,76.0833 160.754,76.75 159,78.5C 157.731,77.0953 157.231,75.4286 157.5,73.5C 158.675,73.719 159.675,73.3857 160.5,72.5C 158.955,71.5481 157.288,71.2148 155.5,71.5C 155.5,69.8333 155.5,68.1667 155.5,66.5C 152.753,66.8134 150.086,66.48 147.5,65.5C 148.349,63.4899 147.682,61.8233 145.5,60.5C 146.668,58.7826 148.335,58.1159 150.5,58.5C 150.5,56.5 150.5,54.5 150.5,52.5C 148.833,52.5 147.167,52.5 145.5,52.5C 145.5,49.1667 145.5,45.8333 145.5,42.5C 143.833,42.5 142.167,42.5 140.5,42.5C 140.192,40.076 140.526,37.7427 141.5,35.5C 142.086,35.7093 142.586,36.0426 143,36.5C 143.417,35.244 144.25,34.5774 145.5,34.5 Z"/></g>
<g><path style="opacity:1" fill="#180a20" d="M 86.5,24.5 C 86.8333,24.5 87.1667,24.5 87.5,24.5C 88.5,24.5 89.5,24.5 90.5,24.5C 88.6086,27.1717 85.9419,28.1717 82.5,27.5C 82.7213,31.7954 81.3879,32.4621 78.5,29.5C 76.3344,29.4296 76.0011,30.0962 77.5,31.5C 69.7672,32.674 69.6006,34.3407 77,36.5C 78.1076,40.0863 78.6076,43.753 78.5,47.5C 80.288,47.2148 81.9547,47.5481 83.5,48.5C 81.8624,49.7046 81.5291,51.0379 82.5,52.5C 95.3269,53.1667 107.994,53.8333 120.5,54.5C 97.8302,54.3375 75.1636,54.0042 52.5,53.5C 52.719,52.325 52.3857,51.325 51.5,50.5C 48.7978,51.7978 48.1311,51.1312 49.5,48.5C 51.7563,44.9026 54.4229,41.5693 57.5,38.5C 61.4882,36.3556 65.8216,35.0223 70.5,34.5C 70.5,33.5 70.5,32.5 70.5,31.5C 72.1788,31.7148 73.1788,31.0481 73.5,29.5C 73.5,29.1667 73.5,28.8333 73.5,28.5C 78.1646,27.9431 82.4979,26.6098 86.5,24.5 Z"/></g>
<g><path style="opacity:1" fill="#271137" d="M 96.5,24.5 C 105.167,24.5 113.833,24.5 122.5,24.5C 124.806,24.9926 127.139,25.3259 129.5,25.5C 135.037,27.6905 140.371,30.3571 145.5,33.5C 145.5,33.8333 145.5,34.1667 145.5,34.5C 144.25,34.5774 143.417,35.244 143,36.5C 142.586,36.0426 142.086,35.7093 141.5,35.5C 140.526,37.7427 140.192,40.076 140.5,42.5C 142.167,42.5 143.833,42.5 145.5,42.5C 145.5,45.8333 145.5,49.1667 145.5,52.5C 147.167,52.5 148.833,52.5 150.5,52.5C 150.5,54.5 150.5,56.5 150.5,58.5C 148.335,58.1159 146.668,58.7826 145.5,60.5C 147.682,61.8233 148.349,63.4899 147.5,65.5C 150.086,66.48 152.753,66.8134 155.5,66.5C 155.5,68.1667 155.5,69.8333 155.5,71.5C 157.288,71.2148 158.955,71.5481 160.5,72.5C 159.675,73.3857 158.675,73.719 157.5,73.5C 157.231,75.4286 157.731,77.0953 159,78.5C 160.754,76.75 162.921,76.0833 165.5,76.5C 164.25,82.6484 166.583,86.315 172.5,87.5C 174.062,91.6516 174.728,95.9849 174.5,100.5C 177.5,100.5 180.5,100.5 183.5,100.5C 183.5,94.1667 183.5,87.8333 183.5,81.5C 184.338,81.8417 184.672,82.5084 184.5,83.5C 186.049,95.9102 185.549,108.244 183,120.5C 180.232,121.208 179.399,122.708 180.5,125C 178.833,125.833 177.167,126.667 175.5,127.5C 174.614,126.675 174.281,125.675 174.5,124.5C 172.833,124.5 171.167,124.5 169.5,124.5C 169.072,121.436 168.406,118.436 167.5,115.5C 161.13,115.219 154.796,114.552 148.5,113.5C 150.128,111.681 152.128,110.347 154.5,109.5C 155.498,107.335 156.498,105.168 157.5,103C 155.939,100.709 154.772,98.2094 154,95.5C 153.667,90.5 153.333,85.5 153,80.5C 152.292,79.6195 151.458,78.9528 150.5,78.5C 150.672,77.5084 150.338,76.8417 149.5,76.5C 148.992,74.1346 148.325,71.8013 147.5,69.5C 146.423,68.2949 145.09,67.6282 143.5,67.5C 142.833,64.8333 141.167,63.1667 138.5,62.5C 136.847,62.3404 135.514,61.6737 134.5,60.5C 132.886,57.231 130.219,55.5643 126.5,55.5C 124.157,49.9978 120.157,48.3312 114.5,50.5C 113.354,49.8551 112.354,49.0217 111.5,48C 112.811,41.2235 112.811,34.3901 111.5,27.5C 110.914,27.7093 110.414,28.0426 110,28.5C 106.06,26.85 101.893,26.0167 97.5,26C 96.944,25.6174 96.6107,25.1174 96.5,24.5 Z"/></g>
<g><path style="opacity:1" fill="#1f0e2d" d="M 90.5,24.5 C 90.8333,24.5 91.1667,24.5 91.5,24.5C 93.1667,24.5 94.8333,24.5 96.5,24.5C 96.6107,25.1174 96.944,25.6174 97.5,26C 101.893,26.0167 106.06,26.85 110,28.5C 110.414,28.0426 110.914,27.7093 111.5,27.5C 112.811,34.3901 112.811,41.2235 111.5,48C 112.354,49.0217 113.354,49.8551 114.5,50.5C 120.157,48.3312 124.157,49.9978 126.5,55.5C 124.565,54.8505 122.565,54.5172 120.5,54.5C 107.994,53.8333 95.3269,53.1667 82.5,52.5C 81.5291,51.0379 81.8624,49.7046 83.5,48.5C 81.9547,47.5481 80.288,47.2148 78.5,47.5C 78.6076,43.753 78.1076,40.0863 77,36.5C 69.6006,34.3407 69.7672,32.674 77.5,31.5C 76.0011,30.0962 76.3344,29.4296 78.5,29.5C 81.3879,32.4621 82.7213,31.7954 82.5,27.5C 85.9419,28.1717 88.6086,27.1717 90.5,24.5 Z"/></g>
<g><path style="opacity:1" fill="#cfa024" d="M 171.5,41.5 C 167.818,40.8529 167.485,42.1863 170.5,45.5C 170,45.8333 169.5,46.1667 169,46.5C 167.862,46.0109 166.695,45.6775 165.5,45.5C 163.427,43.4202 161.093,41.7536 158.5,40.5C 155.36,35.3621 150.693,32.3621 144.5,31.5C 140.059,28.3475 135.059,26.3475 129.5,25.5C 125.645,22.9645 121.312,21.9645 116.5,22.5C 115.167,22.5 113.833,22.5 112.5,22.5C 107.684,21.3503 102.684,21.1837 97.5,22C 93.8675,22.1489 90.5341,22.9823 87.5,24.5C 87.1667,24.5 86.8333,24.5 86.5,24.5C 81.8354,25.0569 77.5021,26.3902 73.5,28.5C 73.5,28.8333 73.5,29.1667 73.5,29.5C 67.2181,30.9702 61.8847,33.9702 57.5,38.5C 51.1667,42.8333 45.8333,48.1667 41.5,54.5C 40.6618,54.8417 40.3284,55.5084 40.5,56.5C 42.9479,57.4731 45.6146,57.8064 48.5,57.5C 47.469,58.2485 46.3024,58.9152 45,59.5C 43.0127,66.1252 40.5127,72.4585 37.5,78.5C 34.2869,78.19 31.2869,78.5233 28.5,79.5C 26.7202,80.9899 26.0535,82.9899 26.5,85.5C 24.9328,86.6808 24.0995,88.3474 24,90.5C 23.1772,98.6775 23.3439,106.677 24.5,114.5C 24.7799,121.76 25.4466,126.76 26.5,129.5C 24.6096,129.703 23.1096,129.037 22,127.5C 21.7104,129.044 21.0437,130.377 20,131.5C 19.2823,124.967 17.7823,118.634 15.5,112.5C 17.6848,100.95 19.1848,89.2829 20,77.5C 22.7974,72.5862 24.6307,67.5862 25.5,62.5C 25.5,61.1667 25.5,59.8333 25.5,58.5C 27.6382,58.297 29.3049,57.297 30.5,55.5C 31.4317,52.8273 31.5984,50.1606 31,47.5C 34.7325,44.2528 38.2325,40.9194 41.5,37.5C 43.0935,39.6603 44.7601,39.827 46.5,38C 45.6919,37.6924 45.0253,37.1924 44.5,36.5C 47.199,34.1498 50.199,32.1498 53.5,30.5C 54.624,29.086 55.624,27.586 56.5,26C 59.5,25 62.5,24 65.5,23C 67.108,20.391 69.4413,19.0577 72.5,19C 71.3961,17.8687 71.7295,17.0354 73.5,16.5C 76.8231,17.7571 80.1565,17.7571 83.5,16.5C 80.8333,15.5 80.8333,14.5 83.5,13.5C 97.0329,13.581 110.533,13.581 124,13.5C 128.221,14.1133 131.888,15.78 135,18.5C 135.5,18.3333 136,18.1667 136.5,18C 134.205,17.0164 134.539,16.1831 137.5,15.5C 139.271,16.0354 139.604,16.8687 138.5,18C 142.821,17.5675 146.154,19.0675 148.5,22.5C 147.975,23.1924 147.308,23.6924 146.5,24C 150.222,26.2162 154.222,27.7162 158.5,28.5C 159.859,30.6922 161.692,32.3589 164,33.5C 164.333,34.5 164.667,35.5 165,36.5C 166.796,35.233 168.629,35.233 170.5,36.5C 170.973,38.247 171.307,39.9137 171.5,41.5 Z"/></g>
<g><path style="opacity:1" fill="#a97f33" d="M 144.5,31.5 C 150.693,32.3621 155.36,35.3621 158.5,40.5C 154.392,37.7193 150.058,35.3859 145.5,33.5C 145.167,32.8333 144.833,32.1667 144.5,31.5 Z"/></g>
<g><path style="opacity:1" fill="#2d1a13" d="M 73.5,29.5 C 73.1788,31.0481 72.1788,31.7148 70.5,31.5C 70.5,32.5 70.5,33.5 70.5,34.5C 65.8216,35.0223 61.4882,36.3556 57.5,38.5C 61.8847,33.9702 67.2181,30.9702 73.5,29.5 Z"/></g>
<g><path style="opacity:1" fill="#543323" d="M 129.5,25.5 C 135.059,26.3475 140.059,28.3475 144.5,31.5C 144.833,32.1667 145.167,32.8333 145.5,33.5C 140.371,30.3571 135.037,27.6905 129.5,25.5 Z"/></g>
<g><path style="opacity:1" fill="#5a3e1a" d="M 86.5,24.5 C 82.4979,26.6098 78.1646,27.9431 73.5,28.5C 77.5021,26.3902 81.8354,25.0569 86.5,24.5 Z"/></g>
<g><path style="opacity:1" fill="#845d2f" d="M 116.5,22.5 C 121.312,21.9645 125.645,22.9645 129.5,25.5C 127.139,25.3259 124.806,24.9926 122.5,24.5C 120.5,23.8333 118.5,23.1667 116.5,22.5 Z"/></g>
<g><path style="opacity:1" fill="#250e19" d="M 112.5,22.5 C 113.833,22.5 115.167,22.5 116.5,22.5C 118.5,23.1667 120.5,23.8333 122.5,24.5C 113.833,24.5 105.167,24.5 96.5,24.5C 94.8333,24.5 93.1667,24.5 91.5,24.5C 98.2618,22.8469 105.262,22.1802 112.5,22.5 Z"/></g>
<g><path style="opacity:1" fill="#715024" d="M 112.5,22.5 C 105.262,22.1802 98.2618,22.8469 91.5,24.5C 91.1667,24.5 90.8333,24.5 90.5,24.5C 89.5,24.5 88.5,24.5 87.5,24.5C 90.5341,22.9823 93.8675,22.1489 97.5,22C 102.684,21.1837 107.684,21.3503 112.5,22.5 Z"/></g>
<g><path style="opacity:1" fill="#18090f" d="M 49.5,48.5 C 48.1311,51.1312 48.7978,51.7978 51.5,50.5C 52.3857,51.325 52.719,52.325 52.5,53.5C 75.1636,54.0042 97.8302,54.3375 120.5,54.5C 122.565,54.5172 124.565,54.8505 126.5,55.5C 130.219,55.5643 132.886,57.231 134.5,60.5C 130.698,58.6005 126.698,57.2672 122.5,56.5C 95.5,55.8333 68.5,55.1667 41.5,54.5C 43.9024,52.0908 46.5691,50.0908 49.5,48.5 Z"/></g>
<g><path style="opacity:1" fill="#6f492c" d="M 170.5,53.5 C 172.587,54.5846 173.92,56.2512 174.5,58.5C 172.413,57.4154 171.08,55.7488 170.5,53.5 Z"/></g>
<g><path style="opacity:1" fill="#5c492d" d="M 41.5,54.5 C 68.5,55.1667 95.5,55.8333 122.5,56.5C 95.1667,56.5 67.8333,56.5 40.5,56.5C 40.3284,55.5084 40.6618,54.8417 41.5,54.5 Z"/></g>
<g><path style="opacity:1" fill="#e7c866" d="M 40.5,56.5 C 67.8333,56.5 95.1667,56.5 122.5,56.5C 126.698,57.2672 130.698,58.6005 134.5,60.5C 135.514,61.6737 136.847,62.3404 138.5,62.5C 139.833,64.5 141.5,66.1667 143.5,67.5C 145.775,70.404 147.775,73.404 149.5,76.5C 149.5,79.1667 149.5,81.8333 149.5,84.5C 149.5,84.8333 149.5,85.1667 149.5,85.5C 148.768,86.8083 147.934,88.1416 147,89.5C 144.927,85.1128 142.761,80.7795 140.5,76.5C 135.013,71.9242 129.347,67.5909 123.5,63.5C 113.323,59.529 102.99,59.029 92.5,62C 87.5,64.3333 82.5,66.6667 77.5,69C 74.2882,71.0194 72.6216,73.8527 72.5,77.5C 70.2646,77.2053 68.2646,77.5386 66.5,78.5C 66.5,78.8333 66.5,79.1667 66.5,79.5C 53.8333,79.5 41.1667,79.5 28.5,79.5C 31.2869,78.5233 34.2869,78.19 37.5,78.5C 41.8333,78.5 46.1667,78.5 50.5,78.5C 55.2919,78.6512 59.9585,77.9845 64.5,76.5C 68.8348,67.6808 75.8348,61.8475 85.5,59C 78.2806,57.5714 70.9472,57.0714 63.5,57.5C 58.5,57.5 53.5,57.5 48.5,57.5C 45.6146,57.8064 42.9479,57.4731 40.5,56.5 Z"/></g>
<g><path style="opacity:1" fill="#ebc644" d="M 63.5,57.5 C 70.9472,57.0714 78.2806,57.5714 85.5,59C 75.8348,61.8475 68.8348,67.6808 64.5,76.5C 59.9585,77.9845 55.2919,78.6512 50.5,78.5C 52.2922,77.6909 54.2922,77.1909 56.5,77C 59.881,70.1416 64.5476,64.3083 70.5,59.5C 68.0312,58.8319 65.6979,58.1653 63.5,57.5 Z"/></g>
<g><path style="opacity:1" fill="#54382f" d="M 138.5,62.5 C 141.167,63.1667 142.833,64.8333 143.5,67.5C 141.5,66.1667 139.833,64.5 138.5,62.5 Z"/></g>
<g><path style="opacity:1" fill="#eed88c" d="M 146.5,103.5 C 145.189,106.135 143.522,108.469 141.5,110.5C 139.54,111.138 137.707,111.138 136,110.5C 135.52,104.341 134.853,98.008 134,91.5C 132.758,89.1407 131.258,87.1407 129.5,85.5C 129.158,84.6618 128.492,84.3284 127.5,84.5C 127.368,81.2033 125.702,79.5367 122.5,79.5C 122.5,78.1667 122.5,76.8333 122.5,75.5C 120.897,75.3118 119.563,75.8118 118.5,77C 106.505,77.4999 94.5046,77.6665 82.5,77.5C 83.5676,76.5655 84.901,76.2322 86.5,76.5C 86.5441,72.9103 88.2108,70.4103 91.5,69C 96.944,67.7635 102.444,66.9302 108,66.5C 114.274,66.9245 120.107,68.7578 125.5,72C 129.377,75.7153 133.377,79.2153 137.5,82.5C 139.349,86.1978 141.182,89.8644 143,93.5C 143.333,96.5 143.667,99.5 144,102.5C 144.671,103.252 145.504,103.586 146.5,103.5 Z"/></g>
<g><path style="opacity:1" fill="#e8ba1c" d="M 48.5,57.5 C 53.5,57.5 58.5,57.5 63.5,57.5C 65.6979,58.1653 68.0312,58.8319 70.5,59.5C 64.5476,64.3083 59.881,70.1416 56.5,77C 54.2922,77.1909 52.2922,77.6909 50.5,78.5C 46.1667,78.5 41.8333,78.5 37.5,78.5C 40.5127,72.4585 43.0127,66.1252 45,59.5C 46.3024,58.9152 47.469,58.2485 48.5,57.5 Z"/></g>
<g><path style="opacity:1" fill="#472c2e" d="M 143.5,67.5 C 145.09,67.6282 146.423,68.2949 147.5,69.5C 148.325,71.8013 148.992,74.1346 149.5,76.5C 147.775,73.404 145.775,70.404 143.5,67.5 Z"/></g>
<g><path style="opacity:1" fill="#47262c" d="M 176.5,63.5 C 178.01,65.322 179.343,67.322 180.5,69.5C 181.167,71.8333 181.833,74.1667 182.5,76.5C 181.21,75.9423 180.377,74.9423 180,73.5C 178.614,70.267 177.447,66.9336 176.5,63.5 Z"/></g>
<g><path style="opacity:1" fill="#ecd176" d="M 149.5,85.5 C 149.94,91.8224 148.94,97.8224 146.5,103.5C 145.504,103.586 144.671,103.252 144,102.5C 143.667,99.5 143.333,96.5 143,93.5C 141.182,89.8644 139.349,86.1978 137.5,82.5C 133.377,79.2153 129.377,75.7153 125.5,72C 120.107,68.7578 114.274,66.9245 108,66.5C 102.444,66.9302 96.944,67.7635 91.5,69C 88.2108,70.4103 86.5441,72.9103 86.5,76.5C 84.901,76.2322 83.5676,76.5655 82.5,77.5C 77.1951,78.1942 71.8617,78.5276 66.5,78.5C 68.2646,77.5386 70.2646,77.2053 72.5,77.5C 72.6216,73.8527 74.2882,71.0194 77.5,69C 82.5,66.6667 87.5,64.3333 92.5,62C 102.99,59.029 113.323,59.529 123.5,63.5C 129.347,67.5909 135.013,71.9242 140.5,76.5C 142.761,80.7795 144.927,85.1128 147,89.5C 147.934,88.1416 148.768,86.8083 149.5,85.5 Z"/></g>
<g><path style="opacity:1" fill="#ce9e26" d="M 171.5,41.5 C 173.627,44.1124 176.127,45.4458 179,45.5C 179.374,46.4162 179.874,47.2496 180.5,48C 178.398,49.7295 178.565,51.5628 181,53.5C 181.718,52.5494 182.551,52.3828 183.5,53C 184.833,53.6667 184.833,54.3333 183.5,55C 186.386,57.4302 189.053,60.0968 191.5,63C 190.833,64.3333 190.167,65.6667 189.5,67C 185.614,67.5785 185.614,68.4119 189.5,69.5C 192.67,76.6216 194.67,84.1216 195.5,92C 195.643,104.736 195.143,117.236 194,129.5C 193.207,133.579 191.041,136.745 187.5,139C 188.761,145.378 186.761,150.545 181.5,154.5C 177.689,152.69 176.023,149.69 176.5,145.5C 178.025,143.784 179.025,141.784 179.5,139.5C 179.5,138.833 179.5,138.167 179.5,137.5C 179.833,137.5 180.167,137.5 180.5,137.5C 183.068,133.274 184.734,128.607 185.5,123.5C 186.785,120.411 187.451,117.078 187.5,113.5C 188.656,105.677 188.823,97.6775 188,89.5C 187.399,85.0484 185.899,81.0484 183.5,77.5C 183.655,74.284 182.655,71.6174 180.5,69.5C 179.343,67.322 178.01,65.322 176.5,63.5C 176.573,61.9731 175.906,60.9731 174.5,60.5C 174.5,59.8333 174.5,59.1667 174.5,58.5C 173.92,56.2512 172.587,54.5846 170.5,53.5C 169.5,52.1667 168.5,50.8333 167.5,49.5C 167.267,47.9382 166.6,46.6049 165.5,45.5C 166.695,45.6775 167.862,46.0109 169,46.5C 169.5,46.1667 170,45.8333 170.5,45.5C 167.485,42.1863 167.818,40.8529 171.5,41.5 Z"/></g>
<g><path style="opacity:1" fill="#875e34" d="M 180.5,69.5 C 182.655,71.6174 183.655,74.284 183.5,77.5C 182.833,77.5 182.5,77.1667 182.5,76.5C 181.833,74.1667 181.167,71.8333 180.5,69.5 Z"/></g>
<g><path style="opacity:1" fill="#6f5317" d="M 195.5,69.5 C 197.472,72.0836 198.472,75.0836 198.5,78.5C 196.69,75.855 195.69,72.855 195.5,69.5 Z"/></g>
<g><path style="opacity:1" fill="#eddaa8" d="M 127.5,84.5 C 126.833,84.1667 126.167,83.8333 125.5,83.5C 125.167,83.5 124.833,83.5 124.5,83.5C 123.564,82.0256 122.23,81.0256 120.5,80.5C 102.674,79.5032 84.6744,79.1699 66.5,79.5C 66.5,79.1667 66.5,78.8333 66.5,78.5C 71.8617,78.5276 77.1951,78.1942 82.5,77.5C 94.5046,77.6665 106.505,77.4999 118.5,77C 119.563,75.8118 120.897,75.3118 122.5,75.5C 122.5,76.8333 122.5,78.1667 122.5,79.5C 125.702,79.5367 127.368,81.2033 127.5,84.5 Z"/></g>
<g><path style="opacity:1" fill="#655030" d="M 28.5,79.5 C 41.1667,79.5 53.8333,79.5 66.5,79.5C 84.6744,79.1699 102.674,79.5032 120.5,80.5C 90.1667,80.5 59.8333,80.5 29.5,80.5C 27.7868,81.6354 27.1201,83.302 27.5,85.5C 27.1667,85.5 26.8333,85.5 26.5,85.5C 26.0535,82.9899 26.7202,80.9899 28.5,79.5 Z"/></g>
<g><path style="opacity:1" fill="#0e0813" d="M 78.5,81.5 C 77.3915,82.29 76.0581,82.79 74.5,83C 73.3595,83.7412 73.3595,84.5745 74.5,85.5C 70.8927,86.4892 67.226,86.8226 63.5,86.5C 63.5,88.1667 63.5,89.8333 63.5,91.5C 67.8333,91.5 72.1667,91.5 76.5,91.5C 76.5,92.5 76.5,93.5 76.5,94.5C 83.5402,94.4133 90.5402,94.9133 97.5,96C 89.3228,96.1708 81.3228,96.6708 73.5,97.5C 73.5,104.833 73.5,112.167 73.5,119.5C 73.5,126.833 73.5,134.167 73.5,141.5C 72.6704,133.01 72.1704,124.343 72,115.5C 71.6667,115.167 71.3333,114.833 71,114.5C 69.7726,117.874 69.6059,121.208 70.5,124.5C 69.1667,124.5 67.8333,124.5 66.5,124.5C 66.8841,126.665 66.2174,128.332 64.5,129.5C 63.5481,127.955 63.2148,126.288 63.5,124.5C 62.1667,124.5 60.8333,124.5 59.5,124.5C 59.5,121.5 59.5,118.5 59.5,115.5C 56.1667,115.167 52.8333,114.833 49.5,114.5C 49.5,112.833 49.5,111.167 49.5,109.5C 47.8333,109.5 46.1667,109.5 44.5,109.5C 44.5,104.833 44.5,100.167 44.5,95.5C 40.8571,95.5219 37.5238,94.5219 34.5,92.5C 34.7552,90.6565 34.9219,88.6565 35,86.5C 37.1087,85.9647 37.6087,84.9647 36.5,83.5C 50.4683,82.1682 64.4683,81.5015 78.5,81.5 Z"/></g>
<g><path style="opacity:1" fill="#190f21" d="M 78.5,81.5 C 86.5,81.5 94.5,81.5 102.5,81.5C 102.5,82.8333 102.5,84.1667 102.5,85.5C 104.167,85.5 105.833,85.5 107.5,85.5C 107.5,87.5 107.5,89.5 107.5,91.5C 109.359,91.4609 110.692,92.2942 111.5,94C 115.486,94.4988 119.486,94.6655 123.5,94.5C 122.694,95.7281 121.694,96.7281 120.5,97.5C 115.167,97.5 109.833,97.5 104.5,97.5C 103.676,101.312 103.176,105.312 103,109.5C 102.333,105.5 101.667,105.5 101,109.5C 100.667,109.167 100.333,108.833 100,108.5C 99.3666,104.653 98.5333,100.986 97.5,97.5C 97.1667,97.5 96.8333,97.5 96.5,97.5C 88.8333,97.5 81.1667,97.5 73.5,97.5C 81.3228,96.6708 89.3228,96.1708 97.5,96C 90.5402,94.9133 83.5402,94.4133 76.5,94.5C 76.5,93.5 76.5,92.5 76.5,91.5C 72.1667,91.5 67.8333,91.5 63.5,91.5C 63.5,89.8333 63.5,88.1667 63.5,86.5C 67.226,86.8226 70.8927,86.4892 74.5,85.5C 73.3595,84.5745 73.3595,83.7412 74.5,83C 76.0581,82.79 77.3915,82.29 78.5,81.5 Z"/></g>
<g><path style="opacity:1" fill="#1c0e27" d="M 102.5,81.5 C 110.008,80.9888 117.341,81.6555 124.5,83.5C 124.833,83.5 125.167,83.5 125.5,83.5C 126.265,86.0961 126.599,88.7628 126.5,91.5C 125.728,92.6935 124.728,93.6935 123.5,94.5C 119.486,94.6655 115.486,94.4988 111.5,94C 110.692,92.2942 109.359,91.4609 107.5,91.5C 107.5,89.5 107.5,87.5 107.5,85.5C 105.833,85.5 104.167,85.5 102.5,85.5C 102.5,84.1667 102.5,82.8333 102.5,81.5 Z"/></g>
<g><path style="opacity:1" fill="#070309" d="M 29.5,80.5 C 59.8333,80.5 90.1667,80.5 120.5,80.5C 122.23,81.0256 123.564,82.0256 124.5,83.5C 117.341,81.6555 110.008,80.9888 102.5,81.5C 94.5,81.5 86.5,81.5 78.5,81.5C 64.4683,81.5015 50.4683,82.1682 36.5,83.5C 37.6087,84.9647 37.1087,85.9647 35,86.5C 34.9219,88.6565 34.7552,90.6565 34.5,92.5C 37.5238,94.5219 40.8571,95.5219 44.5,95.5C 44.5,100.167 44.5,104.833 44.5,109.5C 46.1667,109.5 47.8333,109.5 49.5,109.5C 49.5,111.167 49.5,112.833 49.5,114.5C 52.8333,114.833 56.1667,115.167 59.5,115.5C 59.5,118.5 59.5,121.5 59.5,124.5C 60.8333,124.5 62.1667,124.5 63.5,124.5C 63.2148,126.288 63.5481,127.955 64.5,129.5C 66.2174,128.332 66.8841,126.665 66.5,124.5C 67.8333,124.5 69.1667,124.5 70.5,124.5C 69.6059,121.208 69.7726,117.874 71,114.5C 71.3333,114.833 71.6667,115.167 72,115.5C 72.1704,124.343 72.6704,133.01 73.5,141.5C 73.9926,143.806 74.3259,146.139 74.5,148.5C 71.3647,148.44 68.0313,148.273 64.5,148C 62.9666,145.416 62.3,142.249 62.5,138.5C 61.5,138.5 60.5,138.5 59.5,138.5C 59.5,137.167 59.5,135.833 59.5,134.5C 56.1501,134.665 52.8168,134.498 49.5,134C 48.6198,132.644 48.2865,131.144 48.5,129.5C 47.1667,129.5 45.8333,129.5 44.5,129.5C 44.5,127.833 44.5,126.167 44.5,124.5C 40.062,125.575 38.062,123.908 38.5,119.5C 37.1266,119.657 35.7932,119.49 34.5,119C 35.0219,118.439 35.3552,117.772 35.5,117C 34.1287,114.681 33.4621,112.181 33.5,109.5C 30.234,109.567 28.734,107.901 29,104.5C 28.3333,98.5 28.3333,92.5 29,86.5C 29.9246,85.9535 30.7579,85.2868 31.5,84.5C 30.3698,83.3777 29.7031,82.0443 29.5,80.5 Z"/></g>
<g><path style="opacity:1" fill="#8b6f4e" d="M 149.5,76.5 C 150.338,76.8417 150.672,77.5084 150.5,78.5C 151.4,83.772 151.733,89.1053 151.5,94.5C 151.167,94.5 150.833,94.5 150.5,94.5C 150.813,90.9581 150.479,87.6248 149.5,84.5C 149.5,81.8333 149.5,79.1667 149.5,76.5 Z"/></g>
<g><path style="opacity:1" fill="#837166" d="M 125.5,83.5 C 126.167,83.8333 126.833,84.1667 127.5,84.5C 127.802,87.0593 127.468,89.3926 126.5,91.5C 126.599,88.7628 126.265,86.0961 125.5,83.5 Z"/></g>
<g><path style="opacity:1" fill="#bfa473" d="M 149.5,84.5 C 150.479,87.6248 150.813,90.9581 150.5,94.5C 150.086,97.7431 149.086,100.743 147.5,103.5C 147.167,103.5 146.833,103.5 146.5,103.5C 148.94,97.8224 149.94,91.8224 149.5,85.5C 149.5,85.1667 149.5,84.8333 149.5,84.5 Z"/></g>
<g><path style="opacity:1" fill="#403012" d="M 26.5,85.5 C 26.8333,85.5 27.1667,85.5 27.5,85.5C 26.2494,97.8403 26.2494,110.174 27.5,122.5C 26.5,119.833 25.5,117.167 24.5,114.5C 24.1376,104.74 24.8043,95.0732 26.5,85.5 Z"/></g>
<g><path style="opacity:1" fill="#8a6536" d="M 183.5,77.5 C 185.899,81.0484 187.399,85.0484 188,89.5C 188.823,97.6775 188.656,105.677 187.5,113.5C 187.824,106.646 187.491,99.979 186.5,93.5C 186.247,89.9601 185.581,86.6267 184.5,83.5C 184.672,82.5084 184.338,81.8417 183.5,81.5C 183.5,80.1667 183.5,78.8333 183.5,77.5 Z"/></g>
<g><path style="opacity:1" fill="#b18e2e" d="M 26.5,85.5 C 24.8043,95.0732 24.1376,104.74 24.5,114.5C 23.3439,106.677 23.1772,98.6775 24,90.5C 24.0995,88.3474 24.9328,86.6808 26.5,85.5 Z"/></g>
<g><path style="opacity:1" fill="#060403" d="M 29.5,80.5 C 29.7031,82.0443 30.3698,83.3777 31.5,84.5C 30.7579,85.2868 29.9246,85.9535 29,86.5C 28.3333,92.5 28.3333,98.5 29,104.5C 28.734,107.901 30.234,109.567 33.5,109.5C 33.4621,112.181 34.1287,114.681 35.5,117C 35.3552,117.772 35.0219,118.439 34.5,119C 35.7932,119.49 37.1266,119.657 38.5,119.5C 38.062,123.908 40.062,125.575 44.5,124.5C 44.5,126.167 44.5,127.833 44.5,129.5C 45.8333,129.5 47.1667,129.5 48.5,129.5C 48.2865,131.144 48.6198,132.644 49.5,134C 52.8168,134.498 56.1501,134.665 59.5,134.5C 59.5,135.833 59.5,137.167 59.5,138.5C 60.5,138.5 61.5,138.5 62.5,138.5C 62.3,142.249 62.9666,145.416 64.5,148C 68.0313,148.273 71.3647,148.44 74.5,148.5C 77.1667,151.167 79.8333,153.833 82.5,156.5C 84.6291,158.95 87.2957,160.617 90.5,161.5C 91.2625,162.268 92.2625,162.768 93.5,163C 91.8659,163.494 90.1992,163.66 88.5,163.5C 88.5,164.5 88.5,165.5 88.5,166.5C 92.9962,167.461 93.6629,169.794 90.5,173.5C 92.1667,174.667 93.8333,175.833 95.5,177C 100.155,177.499 104.821,177.666 109.5,177.5C 109.343,178.873 109.51,180.207 110,181.5C 112.225,180.763 114.559,180.763 117,181.5C 120.118,181.21 123.118,180.544 126,179.5C 126.333,179.833 126.667,180.167 127,180.5C 131.42,178.721 135.92,177.387 140.5,176.5C 140.5,176.833 140.5,177.167 140.5,177.5C 134.608,179.129 128.941,181.129 123.5,183.5C 114.851,184.203 106.185,184.536 97.5,184.5C 90.9805,184.075 84.6472,182.742 78.5,180.5C 68.6047,177.216 59.938,171.883 52.5,164.5C 49.5,160.833 46.1667,157.5 42.5,154.5C 41.5514,152.223 40.2181,150.223 38.5,148.5C 38.2503,146.326 37.2503,144.659 35.5,143.5C 32.5261,136.918 29.8594,130.251 27.5,123.5C 27.5,123.167 27.5,122.833 27.5,122.5C 26.2494,110.174 26.2494,97.8403 27.5,85.5C 27.1201,83.302 27.7868,81.6354 29.5,80.5 Z"/></g>
<g><path style="opacity:1" fill="#5b3b2d" d="M 186.5,93.5 C 187.491,99.979 187.824,106.646 187.5,113.5C 187.451,117.078 186.785,120.411 185.5,123.5C 186.213,113.516 186.547,103.516 186.5,93.5 Z"/></g>
<g><path style="opacity:1" fill="#755928" d="M 3.5,81.5 C 3.5,82.8333 3.5,84.1667 3.5,85.5C 1.72959,94.6015 1.06292,103.935 1.5,113.5C 0.364434,103.991 0.364434,94.3243 1.5,84.5C 2.16667,83.5 2.83333,82.5 3.5,81.5 Z"/></g>
<g><path style="opacity:1" fill="#d7d9d9" d="M 89.5,99.5 C 95.2091,112.589 91.2091,121.422 77.5,126C 76.8742,126.75 76.3742,127.584 76,128.5C 75.79,126.942 75.29,125.609 74.5,124.5C 74.5,122.833 74.5,121.167 74.5,119.5C 74.5,117.833 74.5,116.167 74.5,114.5C 76.166,115.666 77.8327,115.666 79.5,114.5C 83.0346,110.083 83.3679,105.416 80.5,100.5C 83.4281,99.5159 86.4281,99.1826 89.5,99.5 Z"/></g>
<g><path style="opacity:1" fill="#b6ae97" d="M 104.5,97.5 C 109.833,97.5 115.167,97.5 120.5,97.5C 115.695,98.4872 110.695,98.8205 105.5,98.5C 105.5,107.167 105.5,115.833 105.5,124.5C 105.5,126.833 105.5,129.167 105.5,131.5C 104.505,120.346 104.172,109.012 104.5,97.5 Z"/></g>
<g><path style="opacity:1" fill="#553f13" d="M 199.5,82.5 C 200.963,85.2026 201.796,88.2026 202,91.5C 202.823,99.6775 202.656,107.677 201.5,115.5C 201.83,104.426 201.163,93.4256 199.5,82.5 Z"/></g>
<g><path style="opacity:1" fill="#eede9d" d="M 129.5,85.5 C 131.258,87.1407 132.758,89.1407 134,91.5C 134.853,98.008 135.52,104.341 136,110.5C 137.707,111.138 139.54,111.138 141.5,110.5C 140.833,111.5 140.167,112.5 139.5,113.5C 135.487,115.839 131.487,118.172 127.5,120.5C 130.854,123.188 133.854,126.188 136.5,129.5C 133.935,128.358 131.269,127.358 128.5,126.5C 124.47,129.498 120.637,132.832 117,136.5C 116.504,138.035 116.67,139.535 117.5,141C 119.163,142.495 120.163,144.328 120.5,146.5C 115.167,141.833 110.167,136.833 105.5,131.5C 105.5,129.167 105.5,126.833 105.5,124.5C 107.604,124.799 109.604,124.466 111.5,123.5C 112.09,122.201 113.09,121.368 114.5,121C 117.167,120.667 119.833,120.333 122.5,120C 121.643,119.311 120.977,118.478 120.5,117.5C 122.609,114.679 124.442,111.679 126,108.5C 125.901,100.694 127.068,93.0278 129.5,85.5 Z"/></g>
<g><path style="opacity:1" fill="#f6ecb4" d="M 127.5,84.5 C 128.492,84.3284 129.158,84.6618 129.5,85.5C 127.068,93.0278 125.901,100.694 126,108.5C 124.442,111.679 122.609,114.679 120.5,117.5C 120.977,118.478 121.643,119.311 122.5,120C 119.833,120.333 117.167,120.667 114.5,121C 113.09,121.368 112.09,122.201 111.5,123.5C 109.604,124.466 107.604,124.799 105.5,124.5C 105.5,115.833 105.5,107.167 105.5,98.5C 110.695,98.8205 115.695,98.4872 120.5,97.5C 121.694,96.7281 122.694,95.7281 123.5,94.5C 124.728,93.6935 125.728,92.6935 126.5,91.5C 127.468,89.3926 127.802,87.0593 127.5,84.5 Z"/></g>
<g><path style="opacity:1" fill="#5a463c" d="M 146.5,103.5 C 146.833,103.5 147.167,103.5 147.5,103.5C 146.241,108.049 143.574,111.382 139.5,113.5C 140.167,112.5 140.833,111.5 141.5,110.5C 143.522,108.469 145.189,106.135 146.5,103.5 Z"/></g>
<g><path style="opacity:1" fill="#1e0d28" d="M 150.5,94.5 C 150.833,94.5 151.167,94.5 151.5,94.5C 151.928,98.2746 151.261,101.775 149.5,105C 151.141,106.646 150.807,107.646 148.5,108C 148.833,108.333 149.167,108.667 149.5,109C 148.13,110.441 147.13,112.108 146.5,114C 148.527,116.094 150.194,118.427 151.5,121C 153.868,121.856 156.202,122.69 158.5,123.5C 157.949,128.118 159.949,130.951 164.5,132C 163.542,133.147 163.875,134.147 165.5,135C 167.921,134.326 170.421,133.492 173,132.5C 175.239,133.091 177.406,133.758 179.5,134.5C 180.72,131.309 181.553,127.975 182,124.5C 182.671,123.748 183.504,123.414 184.5,123.5C 183.034,128.183 181.701,132.85 180.5,137.5C 180.167,137.5 179.833,137.5 179.5,137.5C 177.871,138.625 176.371,139.959 175,141.5C 174.452,144.873 173.118,147.873 171,150.5C 169.812,149.437 169.312,148.103 169.5,146.5C 167.278,146.822 165.444,146.155 164,144.5C 162.705,146.565 162.205,148.565 162.5,150.5C 158.773,146.767 154.773,143.434 150.5,140.5C 148.74,135.425 145.073,132.425 139.5,131.5C 138.047,128.014 137.381,124.347 137.5,120.5C 136.325,120.719 135.325,120.386 134.5,119.5C 136.641,117.878 138.308,115.878 139.5,113.5C 143.574,111.382 146.241,108.049 147.5,103.5C 149.086,100.743 150.086,97.7431 150.5,94.5 Z"/></g>
<g><path style="opacity:1" fill="#230f2e" d="M 150.5,78.5 C 151.458,78.9528 152.292,79.6195 153,80.5C 153.333,85.5 153.667,90.5 154,95.5C 154.772,98.2094 155.939,100.709 157.5,103C 156.498,105.168 155.498,107.335 154.5,109.5C 152.128,110.347 150.128,111.681 148.5,113.5C 154.796,114.552 161.13,115.219 167.5,115.5C 168.406,118.436 169.072,121.436 169.5,124.5C 171.167,124.5 172.833,124.5 174.5,124.5C 174.281,125.675 174.614,126.675 175.5,127.5C 177.167,126.667 178.833,125.833 180.5,125C 179.399,122.708 180.232,121.208 183,120.5C 185.549,108.244 186.049,95.9102 184.5,83.5C 185.581,86.6267 186.247,89.9601 186.5,93.5C 186.547,103.516 186.213,113.516 185.5,123.5C 185.167,123.5 184.833,123.5 184.5,123.5C 183.504,123.414 182.671,123.748 182,124.5C 181.553,127.975 180.72,131.309 179.5,134.5C 177.406,133.758 175.239,133.091 173,132.5C 170.421,133.492 167.921,134.326 165.5,135C 163.875,134.147 163.542,133.147 164.5,132C 159.949,130.951 157.949,128.118 158.5,123.5C 156.202,122.69 153.868,121.856 151.5,121C 150.194,118.427 148.527,116.094 146.5,114C 147.13,112.108 148.13,110.441 149.5,109C 149.167,108.667 148.833,108.333 148.5,108C 150.807,107.646 151.141,106.646 149.5,105C 151.261,101.775 151.928,98.2746 151.5,94.5C 151.733,89.1053 151.4,83.772 150.5,78.5 Z"/></g>
<g><path style="opacity:1" fill="#281923" d="M 139.5,113.5 C 138.308,115.878 136.641,117.878 134.5,119.5C 135.325,120.386 136.325,120.719 137.5,120.5C 137.381,124.347 138.047,128.014 139.5,131.5C 138.5,130.833 137.5,130.167 136.5,129.5C 133.854,126.188 130.854,123.188 127.5,120.5C 131.487,118.172 135.487,115.839 139.5,113.5 Z"/></g>
<g><path style="opacity:0.694" fill="#a28344" d="M 1.5,84.5 C 0.364434,94.3243 0.364434,103.991 1.5,113.5C 2.42041,121.936 3.92041,130.269 6,138.5C 9.77609,146.088 13.2761,153.755 16.5,161.5C 11.9989,155.841 8.49893,149.508 6,142.5C 3.17941,134.541 1.01274,126.541 -0.5,118.5C -0.5,109.167 -0.5,99.8333 -0.5,90.5C 0.166667,88.5 0.833333,86.5 1.5,84.5 Z"/></g>
<g><path style="opacity:1" fill="#4a3711" d="M 201.5,115.5 C 201.884,119.489 201.217,123.155 199.5,126.5C 199.808,122.64 200.475,118.974 201.5,115.5 Z"/></g>
<g><path style="opacity:1" fill="#b48a34" d="M 10.5,85.5 C 10.2521,98.5502 10.9187,111.55 12.5,124.5C 13.086,124.291 13.586,123.957 14,123.5C 14.4619,129.31 15.6286,134.976 17.5,140.5C 18.0014,142.655 19.0014,144.322 20.5,145.5C 22.616,148.76 23.9493,152.427 24.5,156.5C 15.5401,143.569 10.2067,129.235 8.5,113.5C 8.06292,103.935 8.72959,94.6015 10.5,85.5 Z"/></g>
<g><path style="opacity:1" fill="#e9d27d" d="M 136.5,129.5 C 137.5,130.167 138.5,130.833 139.5,131.5C 140.5,132.833 141.5,134.167 142.5,135.5C 138.294,134.096 134.627,134.929 131.5,138C 127.932,139.618 124.265,140.951 120.5,142C 122.031,144.786 123.364,147.619 124.5,150.5C 122.833,149.5 121.5,148.167 120.5,146.5C 120.163,144.328 119.163,142.495 117.5,141C 116.67,139.535 116.504,138.035 117,136.5C 120.637,132.832 124.47,129.498 128.5,126.5C 131.269,127.358 133.935,128.358 136.5,129.5 Z"/></g>
<g><path style="opacity:1" fill="#4b3914" d="M 199.5,127.5 C 199.59,130.152 198.924,132.485 197.5,134.5C 197.41,131.848 198.076,129.515 199.5,127.5 Z"/></g>
<g><path style="opacity:1" fill="#babcbd" d="M 91.5,98.5 C 92.8333,98.5 94.1667,98.5 95.5,98.5C 95.8319,108.855 95.4986,119.188 94.5,129.5C 92.6232,130.803 90.9565,132.303 89.5,134C 84.7983,134.585 80.2983,135.751 76,137.5C 75.6174,136.944 75.1174,136.611 74.5,136.5C 74.5,132.5 74.5,128.5 74.5,124.5C 75.29,125.609 75.79,126.942 76,128.5C 76.3742,127.584 76.8742,126.75 77.5,126C 91.2091,121.422 95.2091,112.589 89.5,99.5C 90.4916,99.6716 91.1583,99.3382 91.5,98.5 Z"/></g>
<g><path style="opacity:1" fill="#735026" d="M 184.5,123.5 C 184.833,123.5 185.167,123.5 185.5,123.5C 184.734,128.607 183.068,133.274 180.5,137.5C 181.701,132.85 183.034,128.183 184.5,123.5 Z"/></g>
<g><path style="opacity:1" fill="#e5c864" d="M 142.5,135.5 C 143.833,136.5 145.167,137.5 146.5,138.5C 146.5,138.833 146.5,139.167 146.5,139.5C 144.302,138.986 142.302,137.986 140.5,136.5C 139.576,138.39 138.243,139.89 136.5,141C 132.927,142.371 129.427,143.871 126,145.5C 125.333,146.833 125.333,148.167 126,149.5C 127.75,151.734 129.25,154.068 130.5,156.5C 128.167,154.833 126.167,152.833 124.5,150.5C 123.364,147.619 122.031,144.786 120.5,142C 124.265,140.951 127.932,139.618 131.5,138C 134.627,134.929 138.294,134.096 142.5,135.5 Z"/></g>
<g><path style="opacity:1" fill="#25171c" d="M 139.5,131.5 C 145.073,132.425 148.74,135.425 150.5,140.5C 149.395,139.4 148.062,138.733 146.5,138.5C 145.167,137.5 143.833,136.5 142.5,135.5C 141.5,134.167 140.5,132.833 139.5,131.5 Z"/></g>
<g><path style="opacity:1" fill="#836922" d="M 27.5,123.5 C 29.8594,130.251 32.5261,136.918 35.5,143.5C 33.6994,142.242 32.1994,140.576 31,138.5C 29.7228,133.507 28.5562,128.507 27.5,123.5 Z"/></g>
<g><path style="opacity:1" fill="#cc9d25" d="M 25.5,62.5 C 24.6307,67.5862 22.7974,72.5862 20,77.5C 19.1848,89.2829 17.6848,100.95 15.5,112.5C 17.7823,118.634 19.2823,124.967 20,131.5C 21.0437,130.377 21.7104,129.044 22,127.5C 23.1096,129.037 24.6096,129.703 26.5,129.5C 25.4466,126.76 24.7799,121.76 24.5,114.5C 25.5,117.167 26.5,119.833 27.5,122.5C 27.5,122.833 27.5,123.167 27.5,123.5C 28.5562,128.507 29.7228,133.507 31,138.5C 32.1994,140.576 33.6994,142.242 35.5,143.5C 34.9162,146.285 35.9162,147.952 38.5,148.5C 40.2181,150.223 41.5514,152.223 42.5,154.5C 44.8333,158.833 48.1667,162.167 52.5,164.5C 59.938,171.883 68.6047,177.216 78.5,180.5C 75.9556,180.104 73.7889,180.771 72,182.5C 68.4314,180.355 65.598,177.689 63.5,174.5C 60.7836,172.816 57.7836,171.65 54.5,171C 55.9928,169.844 55.8261,169.01 54,168.5C 52.8058,170.024 51.3058,171.19 49.5,172C 53.1927,174.373 56.8593,176.706 60.5,179C 61.2524,179.671 61.5858,180.504 61.5,181.5C 59.2341,181.859 57.4007,181.192 56,179.5C 55.586,179.957 55.086,180.291 54.5,180.5C 51.8604,178.347 48.8604,177.013 45.5,176.5C 44.618,173.844 43.2847,171.344 41.5,169C 37.8965,167.694 34.5631,166.028 31.5,164C 30.5628,160.263 28.2294,158.096 24.5,157.5C 24.5,157.167 24.5,156.833 24.5,156.5C 23.9493,152.427 22.616,148.76 20.5,145.5C 22.5326,141.605 21.5326,138.939 17.5,137.5C 17.8333,136.833 18.1667,136.167 18.5,135.5C 14.2857,123.641 12.2857,111.307 12.5,98.5C 12.3435,94.8183 13.0102,91.3183 14.5,88C 14.0496,86.7147 13.3829,85.548 12.5,84.5C 13.376,83.7492 14.376,83.2492 15.5,83C 15.6468,76.9375 17.3135,71.1041 20.5,65.5C 22.0287,64.2371 23.6954,63.2371 25.5,62.5 Z"/></g>
<g><path style="opacity:1" fill="#5a441b" d="M 146.5,139.5 C 146.5,139.167 146.5,138.833 146.5,138.5C 148.062,138.733 149.395,139.4 150.5,140.5C 155.167,145.5 159.833,150.5 164.5,155.5C 164.167,155.5 163.833,155.5 163.5,155.5C 161.167,153.5 158.833,151.5 156.5,149.5C 155.5,147.833 154.167,146.5 152.5,145.5C 150.833,143.167 148.833,141.167 146.5,139.5 Z"/></g>
<g><path style="opacity:1" fill="#61441e" d="M 179.5,139.5 C 179.025,141.784 178.025,143.784 176.5,145.5C 176.167,145.5 175.833,145.5 175.5,145.5C 176.34,143.147 177.674,141.147 179.5,139.5 Z"/></g>
<g><path style="opacity:1" fill="#a4a5a9" d="M 73.5,97.5 C 81.1667,97.5 88.8333,97.5 96.5,97.5C 96.5,111.167 96.5,124.833 96.5,138.5C 95.596,139.209 95.2627,140.209 95.5,141.5C 91.0733,143.812 86.4067,145.645 81.5,147C 79.5273,147.495 77.5273,147.662 75.5,147.5C 75.1367,145.089 76.1367,143.589 78.5,143C 74.9704,142.328 73.6371,140.162 74.5,136.5C 75.1174,136.611 75.6174,136.944 76,137.5C 80.2983,135.751 84.7983,134.585 89.5,134C 90.9565,132.303 92.6232,130.803 94.5,129.5C 95.4986,119.188 95.8319,108.855 95.5,98.5C 94.1667,98.5 92.8333,98.5 91.5,98.5C 85.8333,98.5 80.1667,98.5 74.5,98.5C 74.5,103.833 74.5,109.167 74.5,114.5C 74.5,116.167 74.5,117.833 74.5,119.5C 74.1667,119.5 73.8333,119.5 73.5,119.5C 73.5,112.167 73.5,104.833 73.5,97.5 Z"/></g>
<g><path style="opacity:1" fill="#eeecf0" d="M 91.5,98.5 C 91.1583,99.3382 90.4916,99.6716 89.5,99.5C 86.4281,99.1826 83.4281,99.5159 80.5,100.5C 83.3679,105.416 83.0346,110.083 79.5,114.5C 77.8327,115.666 76.166,115.666 74.5,114.5C 74.5,109.167 74.5,103.833 74.5,98.5C 80.1667,98.5 85.8333,98.5 91.5,98.5 Z"/></g>
<g><path style="opacity:1" fill="#86898c" d="M 73.5,119.5 C 73.8333,119.5 74.1667,119.5 74.5,119.5C 74.5,121.167 74.5,122.833 74.5,124.5C 74.5,128.5 74.5,132.5 74.5,136.5C 73.6371,140.162 74.9704,142.328 78.5,143C 76.1367,143.589 75.1367,145.089 75.5,147.5C 77.5273,147.662 79.5273,147.495 81.5,147C 86.4067,145.645 91.0733,143.812 95.5,141.5C 95.2627,140.209 95.596,139.209 96.5,138.5C 96.6659,143.511 96.4993,148.511 96,153.5C 92.2764,154.15 88.7764,155.484 85.5,157.5C 84.5832,156.873 83.5832,156.539 82.5,156.5C 79.8333,153.833 77.1667,151.167 74.5,148.5C 74.3259,146.139 73.9926,143.806 73.5,141.5C 73.5,134.167 73.5,126.833 73.5,119.5 Z"/></g>
<g><path style="opacity:1" fill="#0f0912" d="M 97.5,97.5 C 98.5333,100.986 99.3666,104.653 100,108.5C 100.333,108.833 100.667,109.167 101,109.5C 101.667,105.5 102.333,105.5 103,109.5C 103.176,105.312 103.676,101.312 104.5,97.5C 104.172,109.012 104.505,120.346 105.5,131.5C 110.167,136.833 115.167,141.833 120.5,146.5C 121.5,148.167 122.833,149.5 124.5,150.5C 126.167,152.833 128.167,154.833 130.5,156.5C 131.5,158.167 132.833,159.5 134.5,160.5C 138.13,164.631 141.963,168.631 146,172.5C 146.239,173.788 145.739,174.788 144.5,175.5C 143.167,175.833 141.833,176.167 140.5,176.5C 135.92,177.387 131.42,178.721 127,180.5C 126.667,180.167 126.333,179.833 126,179.5C 123.118,180.544 120.118,181.21 117,181.5C 114.559,180.763 112.225,180.763 110,181.5C 109.51,180.207 109.343,178.873 109.5,177.5C 104.821,177.666 100.155,177.499 95.5,177C 93.8333,175.833 92.1667,174.667 90.5,173.5C 93.6629,169.794 92.9962,167.461 88.5,166.5C 88.5,165.5 88.5,164.5 88.5,163.5C 90.1992,163.66 91.8659,163.494 93.5,163C 92.2625,162.768 91.2625,162.268 90.5,161.5C 92.8333,161.5 95.1667,161.5 97.5,161.5C 97.5,140.167 97.5,118.833 97.5,97.5 Z"/></g>
<g><path style="opacity:1" fill="#e8c54c" d="M 146.5,139.5 C 148.833,141.167 150.833,143.167 152.5,145.5C 150.518,145.005 148.518,144.505 146.5,144C 147.571,142.175 146.904,141.008 144.5,140.5C 142.483,141.174 140.817,142.341 139.5,144C 140.833,144 142.167,144 143.5,144C 139.643,147.418 135.643,150.585 131.5,153.5C 132.32,155.974 133.32,158.307 134.5,160.5C 132.833,159.5 131.5,158.167 130.5,156.5C 129.25,154.068 127.75,151.734 126,149.5C 125.333,148.167 125.333,146.833 126,145.5C 129.427,143.871 132.927,142.371 136.5,141C 138.243,139.89 139.576,138.39 140.5,136.5C 142.302,137.986 144.302,138.986 146.5,139.5 Z"/></g>
<g><path style="opacity:1" fill="#896a21" d="M 35.5,143.5 C 37.2503,144.659 38.2503,146.326 38.5,148.5C 35.9162,147.952 34.9162,146.285 35.5,143.5 Z"/></g>
<g><path style="opacity:1" fill="#392913" d="M 195.5,139.5 C 195.263,142.647 194.43,145.647 193,148.5C 192.583,149.756 191.75,150.423 190.5,150.5C 191.93,146.646 193.597,142.979 195.5,139.5 Z"/></g>
<g><path style="opacity:1" fill="#9e7a39" d="M 175.5,145.5 C 175.833,145.5 176.167,145.5 176.5,145.5C 176.023,149.69 177.689,152.69 181.5,154.5C 182.262,156.262 183.596,157.262 185.5,157.5C 184.295,158.686 182.961,158.686 181.5,157.5C 179.539,155.037 177.372,152.703 175,150.5C 174.616,148.803 174.782,147.137 175.5,145.5 Z"/></g>
<g><path style="opacity:1" fill="#2c231c" d="M 3.5,85.5 C 2.63926,97.1573 2.4726,108.824 3,120.5C 4.4601,122.972 5.4601,125.639 6,128.5C 8.24769,123.813 9.08103,118.813 8.5,113.5C 10.2067,129.235 15.5401,143.569 24.5,156.5C 24.5,156.833 24.5,157.167 24.5,157.5C 28.413,164.082 33.413,169.749 39.5,174.5C 40.0283,175.721 40.695,176.887 41.5,178C 46.3504,181.363 51.0171,184.863 55.5,188.5C 54.448,188.351 53.448,188.517 52.5,189C 53.6956,189.654 53.6956,190.154 52.5,190.5C 51.4164,189.335 50.5831,188.002 50,186.5C 49.6667,186.833 49.3333,187.167 49,187.5C 48.4115,185.137 46.9115,184.137 44.5,184.5C 44.5,185.5 44.5,186.5 44.5,187.5C 46.6188,187.468 47.9522,188.468 48.5,190.5C 47.1667,190.5 45.8333,190.5 44.5,190.5C 42.5956,190.262 41.2623,189.262 40.5,187.5C 39.0892,185.086 37.0892,183.419 34.5,182.5C 29.1156,176.612 24.2823,170.279 20,163.5C 19.1841,162.177 18.0174,161.511 16.5,161.5C 13.2761,153.755 9.77609,146.088 6,138.5C 3.92041,130.269 2.42041,121.936 1.5,113.5C 1.06292,103.935 1.72959,94.6015 3.5,85.5 Z"/></g>
<g><path style="opacity:1" fill="#e8bb20" d="M 152.5,145.5 C 154.167,146.5 155.5,147.833 156.5,149.5C 156.837,151.672 157.837,153.505 159.5,155C 158.845,157.505 157.178,158.839 154.5,159C 154.966,160.299 154.966,161.799 154.5,163.5C 150.79,162.972 147.623,163.972 145,166.5C 143.594,165.586 142.094,164.92 140.5,164.5C 138.754,162.748 136.754,161.415 134.5,160.5C 133.32,158.307 132.32,155.974 131.5,153.5C 135.643,150.585 139.643,147.418 143.5,144C 142.167,144 140.833,144 139.5,144C 140.817,142.341 142.483,141.174 144.5,140.5C 146.904,141.008 147.571,142.175 146.5,144C 148.518,144.505 150.518,145.005 152.5,145.5 Z"/></g>
<g><path style="opacity:1" fill="#1c0e21" d="M 179.5,137.5 C 179.5,138.167 179.5,138.833 179.5,139.5C 177.674,141.147 176.34,143.147 175.5,145.5C 174.782,147.137 174.616,148.803 175,150.5C 177.372,152.703 179.539,155.037 181.5,157.5C 183.608,162.09 182.275,165.09 177.5,166.5C 172.161,161.494 167.161,156.161 162.5,150.5C 162.205,148.565 162.705,146.565 164,144.5C 165.444,146.155 167.278,146.822 169.5,146.5C 169.312,148.103 169.812,149.437 171,150.5C 173.118,147.873 174.452,144.873 175,141.5C 176.371,139.959 177.871,138.625 179.5,137.5 Z"/></g>
<g><path style="opacity:1" fill="#7f6320" d="M 42.5,154.5 C 46.1667,157.5 49.5,160.833 52.5,164.5C 48.1667,162.167 44.8333,158.833 42.5,154.5 Z"/></g>
<g><path style="opacity:1" fill="#64656a" d="M 96.5,97.5 C 96.8333,97.5 97.1667,97.5 97.5,97.5C 97.5,118.833 97.5,140.167 97.5,161.5C 95.1667,161.5 92.8333,161.5 90.5,161.5C 87.2957,160.617 84.6291,158.95 82.5,156.5C 83.5832,156.539 84.5832,156.873 85.5,157.5C 88.7764,155.484 92.2764,154.15 96,153.5C 96.4993,148.511 96.6659,143.511 96.5,138.5C 96.5,124.833 96.5,111.167 96.5,97.5 Z"/></g>
<g><path style="opacity:1" fill="#1b1715" d="M 150.5,140.5 C 154.773,143.434 158.773,146.767 162.5,150.5C 167.161,156.161 172.161,161.494 177.5,166.5C 177.987,167.473 178.487,168.473 179,169.5C 180.972,168.695 182.472,167.361 183.5,165.5C 185.075,166.456 186.742,167.123 188.5,167.5C 176.151,184.839 159.817,196.839 139.5,203.5C 134.519,204.089 129.519,204.589 124.5,205C 123.113,206.683 121.447,207.85 119.5,208.5C 119.167,208.5 118.833,208.5 118.5,208.5C 105.431,208.831 92.431,208.164 79.5,206.5C 75.4979,204.39 71.1646,203.057 66.5,202.5C 60.1559,198.996 54.1559,194.996 48.5,190.5C 47.9522,188.468 46.6188,187.468 44.5,187.5C 44.5,186.5 44.5,185.5 44.5,184.5C 46.9115,184.137 48.4115,185.137 49,187.5C 49.3333,187.167 49.6667,186.833 50,186.5C 50.5831,188.002 51.4164,189.335 52.5,190.5C 53.6956,190.154 53.6956,189.654 52.5,189C 53.448,188.517 54.448,188.351 55.5,188.5C 56.8333,188.833 58.1667,189.167 59.5,189.5C 62.2353,192.201 65.5686,193.868 69.5,194.5C 76.4379,197.617 83.7712,199.617 91.5,200.5C 99.6563,201.657 107.99,201.823 116.5,201C 118.058,200.79 119.391,200.29 120.5,199.5C 143.094,196.373 161.761,186.206 176.5,169C 172.676,164.343 168.676,159.843 164.5,155.5C 159.833,150.5 155.167,145.5 150.5,140.5 Z"/></g>
<g><path style="opacity:1" fill="#9a8248" d="M 16.5,161.5 C 18.0174,161.511 19.1841,162.177 20,163.5C 24.2823,170.279 29.1156,176.612 34.5,182.5C 31.6057,181.118 29.1057,179.118 27,176.5C 22.988,171.792 19.488,166.792 16.5,161.5 Z"/></g>
<g><path style="opacity:1" fill="#b38a33" d="M 39.5,174.5 C 42.5874,176.456 45.9207,177.956 49.5,179C 52.7053,182.738 56.0386,186.238 59.5,189.5C 58.1667,189.167 56.8333,188.833 55.5,188.5C 51.0171,184.863 46.3504,181.363 41.5,178C 40.695,176.887 40.0283,175.721 39.5,174.5 Z"/></g>
<g><path style="opacity:1" fill="#d0a023" d="M 156.5,149.5 C 158.833,151.5 161.167,153.5 163.5,155.5C 163.92,157.094 164.586,158.594 165.5,160C 165.355,160.772 165.022,161.439 164.5,162C 167.672,162.32 170.005,163.82 171.5,166.5C 168.128,167.269 165.295,168.935 163,171.5C 162.376,173.464 162.876,175.131 164.5,176.5C 160.383,179.778 155.883,182.445 151,184.5C 148.846,183.748 146.68,183.581 144.5,184C 144.833,184.333 145.167,184.667 145.5,185C 143.833,186 142.5,187.333 141.5,189C 141.833,189.333 142.167,189.667 142.5,190C 140.661,191.132 138.661,191.965 136.5,192.5C 135.614,193.325 135.281,194.325 135.5,195.5C 132.934,195.656 130.434,195.322 128,194.5C 126.941,194.63 126.108,195.13 125.5,196C 115.923,196.18 106.423,196.68 97,197.5C 94.7697,195.195 92.2697,194.862 89.5,196.5C 84.916,194.339 80.2494,192.172 75.5,190C 74.8333,189 74.1667,188 73.5,187C 70.5795,186.592 68.2462,185.259 66.5,183C 64.7525,182.648 63.0858,182.148 61.5,181.5C 61.5858,180.504 61.2524,179.671 60.5,179C 56.8593,176.706 53.1927,174.373 49.5,172C 51.3058,171.19 52.8058,170.024 54,168.5C 55.8261,169.01 55.9928,169.844 54.5,171C 57.7836,171.65 60.7836,172.816 63.5,174.5C 65.598,177.689 68.4314,180.355 72,182.5C 73.7889,180.771 75.9556,180.104 78.5,180.5C 84.6472,182.742 90.9805,184.075 97.5,184.5C 100.482,185.165 103.648,185.498 107,185.5C 112.734,185.585 118.234,184.918 123.5,183.5C 129.7,182.658 135.367,180.658 140.5,177.5C 140.5,177.167 140.5,176.833 140.5,176.5C 141.833,176.167 143.167,175.833 144.5,175.5C 145.833,175.5 147.167,175.5 148.5,175.5C 148.649,174.448 148.483,173.448 148,172.5C 145.295,169.964 142.795,167.297 140.5,164.5C 142.094,164.92 143.594,165.586 145,166.5C 147.623,163.972 150.79,162.972 154.5,163.5C 154.966,161.799 154.966,160.299 154.5,159C 157.178,158.839 158.845,157.505 159.5,155C 157.837,153.505 156.837,151.672 156.5,149.5 Z"/></g>
<g><path style="opacity:1" fill="#c5952b" d="M 163.5,155.5 C 163.833,155.5 164.167,155.5 164.5,155.5C 168.676,159.843 172.676,164.343 176.5,169C 161.761,186.206 143.094,196.373 120.5,199.5C 110.852,200.245 101.185,200.578 91.5,200.5C 86.7361,198.992 81.9028,197.325 77,195.5C 74.5021,195.083 72.0021,194.749 69.5,194.5C 66.6211,192.032 63.2877,190.365 59.5,189.5C 56.0386,186.238 52.7053,182.738 49.5,179C 45.9207,177.956 42.5874,176.456 39.5,174.5C 33.413,169.749 28.413,164.082 24.5,157.5C 28.2294,158.096 30.5628,160.263 31.5,164C 34.5631,166.028 37.8965,167.694 41.5,169C 43.2847,171.344 44.618,173.844 45.5,176.5C 48.8604,177.013 51.8604,178.347 54.5,180.5C 55.086,180.291 55.586,179.957 56,179.5C 57.4007,181.192 59.2341,181.859 61.5,181.5C 63.0858,182.148 64.7525,182.648 66.5,183C 68.2462,185.259 70.5795,186.592 73.5,187C 74.1667,188 74.8333,189 75.5,190C 80.2494,192.172 84.916,194.339 89.5,196.5C 92.2697,194.862 94.7697,195.195 97,197.5C 106.423,196.68 115.923,196.18 125.5,196C 126.108,195.13 126.941,194.63 128,194.5C 130.434,195.322 132.934,195.656 135.5,195.5C 135.281,194.325 135.614,193.325 136.5,192.5C 138.661,191.965 140.661,191.132 142.5,190C 142.167,189.667 141.833,189.333 141.5,189C 142.5,187.333 143.833,186 145.5,185C 145.167,184.667 144.833,184.333 144.5,184C 146.68,183.581 148.846,183.748 151,184.5C 155.883,182.445 160.383,179.778 164.5,176.5C 162.876,175.131 162.376,173.464 163,171.5C 165.295,168.935 168.128,167.269 171.5,166.5C 170.005,163.82 167.672,162.32 164.5,162C 165.022,161.439 165.355,160.772 165.5,160C 164.586,158.594 163.92,157.094 163.5,155.5 Z"/></g>
<g><path style="opacity:1" fill="#816626" d="M 140.5,177.5 C 135.367,180.658 129.7,182.658 123.5,183.5C 128.941,181.129 134.608,179.129 140.5,177.5 Z"/></g>
<g><path style="opacity:1" fill="#987726" d="M 134.5,160.5 C 136.754,161.415 138.754,162.748 140.5,164.5C 142.795,167.297 145.295,169.964 148,172.5C 148.483,173.448 148.649,174.448 148.5,175.5C 147.167,175.5 145.833,175.5 144.5,175.5C 145.739,174.788 146.239,173.788 146,172.5C 141.963,168.631 138.13,164.631 134.5,160.5 Z"/></g>
<g><path style="opacity:1" fill="#99834c" d="M 34.5,182.5 C 37.0892,183.419 39.0892,185.086 40.5,187.5C 37.9108,186.581 35.9108,184.914 34.5,182.5 Z"/></g>
<g><path style="opacity:1" fill="#81651e" d="M 123.5,183.5 C 118.234,184.918 112.734,185.585 107,185.5C 103.648,185.498 100.482,185.165 97.5,184.5C 106.185,184.536 114.851,184.203 123.5,183.5 Z"/></g>
<g><path style="opacity:1" fill="#9a7936" d="M 59.5,189.5 C 63.2877,190.365 66.6211,192.032 69.5,194.5C 65.5686,193.868 62.2353,192.201 59.5,189.5 Z"/></g>
<g><path style="opacity:1" fill="#766338" d="M 44.5,190.5 C 45.8333,190.5 47.1667,190.5 48.5,190.5C 54.1559,194.996 60.1559,198.996 66.5,202.5C 58.2293,200.035 50.896,196.035 44.5,190.5 Z"/></g>
<g><path style="opacity:1" fill="#9f7f37" d="M 69.5,194.5 C 72.0021,194.749 74.5021,195.083 77,195.5C 81.9028,197.325 86.7361,198.992 91.5,200.5C 83.7712,199.617 76.4379,197.617 69.5,194.5 Z"/></g>
<g><path style="opacity:1" fill="#a8863b" d="M 120.5,199.5 C 119.391,200.29 118.058,200.79 116.5,201C 107.99,201.823 99.6563,201.657 91.5,200.5C 101.185,200.578 110.852,200.245 120.5,199.5 Z"/></g>
<g><path style="opacity:1" fill="#816f41" d="M 66.5,202.5 C 71.1646,203.057 75.4979,204.39 79.5,206.5C 74.8354,205.943 70.5021,204.61 66.5,202.5 Z"/></g>
<g><path style="opacity:1" fill="#382b19" d="M 139.5,203.5 C 133.25,206.396 126.583,208.063 119.5,208.5C 121.447,207.85 123.113,206.683 124.5,205C 129.519,204.589 134.519,204.089 139.5,203.5 Z"/></g>
<g><path style="opacity:0.955" fill="#584928" d="M 79.5,206.5 C 92.431,208.164 105.431,208.831 118.5,208.5C 118.5,208.833 118.5,209.167 118.5,209.5C 109.167,209.5 99.8333,209.5 90.5,209.5C 86.8091,208.607 83.1424,207.607 79.5,206.5 Z"/></g>
</svg>
