<?xml version="1.0" encoding="UTF-8"?>
<!DOCTYPE svg PUBLIC "-//W3C//DTD SVG 1.1//EN" "http://www.w3.org/Graphics/SVG/1.1/DTD/svg11.dtd">
<svg xmlns="http://www.w3.org/2000/svg" version="1.1" width="512px" height="512px" style="shape-rendering:geometricPrecision; text-rendering:geometricPrecision; image-rendering:optimizeQuality; fill-rule:evenodd; clip-rule:evenodd" xmlns:xlink="http://www.w3.org/1999/xlink">
<g><path style="opacity:0.999" fill="#1c304f" d="M 445.5,396.5 C 442.019,394.581 439.019,392.915 436.5,391.5C 434.835,392.823 433.168,394.156 431.5,395.5C 431.733,393.938 432.4,392.605 433.5,391.5C 433.427,389.973 434.094,388.973 435.5,388.5C 437.063,387.055 438.396,385.389 439.5,383.5C 440.287,380.592 441.62,377.926 443.5,375.5C 446.129,370.999 448.462,366.333 450.5,361.5C 451.85,360.517 452.85,359.184 453.5,357.5C 454.964,352.906 456.13,348.24 457,343.5C 457.925,342.953 458.758,342.287 459.5,341.5C 458.557,336.9 458.223,332.233 458.5,327.5C 459.29,326.391 459.79,325.058 460,323.5C 460.667,316.5 460.667,309.5 460,302.5C 458.731,298.351 458.065,294.018 458,289.5C 457.292,288.619 456.458,287.953 455.5,287.5C 454.833,285.833 454.167,284.167 453.5,282.5C 453.5,281.167 453.5,279.833 453.5,278.5C 452.77,274.003 451.604,269.67 450,265.5C 449.425,262.714 447.925,260.714 445.5,259.5C 444.489,257.628 443.655,255.628 443,253.5C 439.721,249.159 436.554,244.825 433.5,240.5C 429.185,234.19 424.518,228.19 419.5,222.5C 419.663,220.143 419.497,217.81 419,215.5C 417.12,214.07 415.62,214.404 414.5,216.5C 416.988,222.28 417.322,227.947 415.5,233.5C 413.508,233.328 411.842,233.995 410.5,235.5C 408.869,232.331 407.535,228.998 406.5,225.5C 406.043,224.702 405.376,224.369 404.5,224.5C 385.52,171.52 349.186,136.52 295.5,119.5C 286.582,116.948 277.416,114.948 268,113.5C 266.285,114.604 264.785,115.938 263.5,117.5C 263.544,115.768 263.544,113.935 263.5,112C 260.854,111.503 258.187,111.336 255.5,111.5C 255.5,108.167 255.5,104.833 255.5,101.5C 252.421,101.26 249.421,101.593 246.5,102.5C 245.17,100.653 245.503,99.1531 247.5,98C 246.922,96.583 245.922,95.7496 244.5,95.5C 245.088,83.7651 242.754,72.7651 237.5,62.5C 219.103,91.4508 199.103,119.284 177.5,146C 172.122,147.064 167.956,145.231 165,140.5C 161.616,147.269 158.783,154.269 156.5,161.5C 154.761,162.434 153.095,162.434 151.5,161.5C 153.352,158.861 154.018,156.195 153.5,153.5C 151.022,154.722 150.022,156.722 150.5,159.5C 149.5,159.5 148.5,159.5 147.5,159.5C 147.5,160.833 147.5,162.167 147.5,163.5C 146.167,163.5 144.833,163.5 143.5,163.5C 143.779,168.497 142.113,169.497 138.5,166.5C 142.344,158.681 140.011,153.515 131.5,151C 112.711,143.424 93.7107,136.758 74.5,131C 85.3848,138.058 96.3848,144.891 107.5,151.5C 107.594,154.068 108.928,155.568 111.5,156C 111.167,156.333 110.833,156.667 110.5,157C 112.044,157.29 113.377,157.956 114.5,159C 113.551,159.617 112.718,159.451 112,158.5C 111.319,162.676 111.819,166.676 113.5,170.5C 111.784,170.371 110.117,170.038 108.5,169.5C 75.6703,147.184 43.5036,123.85 12,99.5C 11.51,98.2068 11.3433,96.8734 11.5,95.5C 43.005,105.058 74.1717,115.724 105,127.5C 105.5,127.167 106,126.833 106.5,126.5C 98.5738,98.2046 104.74,73.5379 125,52.5C 127.884,63.8172 131.55,74.8172 136,85.5C 150.365,46.1467 178.531,26.9801 220.5,28C 216.458,34.5848 212.291,41.0848 208,47.5C 207.312,48.3317 207.479,48.9984 208.5,49.5C 268.201,22.3457 326.868,24.5124 384.5,56C 396.016,62.5891 407.016,69.9224 417.5,78C 404.479,77.3913 391.479,76.7246 378.5,76C 455.909,115.762 495.242,179.429 496.5,267C 496.66,275.909 495.994,284.743 494.5,293.5C 489.854,287.686 485.021,282.02 480,276.5C 483.089,320.826 471.589,360.826 445.5,396.5 Z"/></g>
<g><path style="opacity:1" fill="#3f253f" d="M 271.5,42.5 C 268.021,43.0181 264.688,44.0181 261.5,45.5C 261.167,45.5 260.833,45.5 260.5,45.5C 256.556,45.1134 252.889,45.78 249.5,47.5C 249.953,46.5416 250.619,45.7083 251.5,45C 254.371,44.8823 257.038,44.2156 259.5,43C 263.486,42.5012 267.486,42.3345 271.5,42.5 Z"/></g>
<g><path style="opacity:1" fill="#3a263e" d="M 311.5,43.5 C 298.179,42.7862 284.845,42.4528 271.5,42.5C 276.065,40.96 280.898,40.2933 286,40.5C 294.742,40.6333 303.242,41.6333 311.5,43.5 Z"/></g>
<g><path style="opacity:1" fill="#ae2e36" d="M 271.5,42.5 C 284.845,42.4528 298.179,42.7862 311.5,43.5C 311.5,43.8333 311.5,44.1667 311.5,44.5C 294.805,44.2253 278.139,44.5586 261.5,45.5C 264.688,44.0181 268.021,43.0181 271.5,42.5 Z"/></g>
<g><path style="opacity:1" fill="#49293e" d="M 311.5,44.5 C 311.5,44.1667 311.5,43.8333 311.5,43.5C 321.054,43.6558 330.054,45.6558 338.5,49.5C 338.167,49.5 337.833,49.5 337.5,49.5C 328.797,48.0494 320.13,46.3827 311.5,44.5 Z"/></g>
<g><path style="opacity:1" fill="#d62122" d="M 311.5,44.5 C 320.13,46.3827 328.797,48.0494 337.5,49.5C 338.401,51.7271 340.067,52.7271 342.5,52.5C 342.67,53.8221 342.337,54.9887 341.5,56C 336.845,56.4992 332.179,56.6658 327.5,56.5C 310.154,56.1672 292.821,56.5005 275.5,57.5C 272.5,58.1667 269.5,58.8333 266.5,59.5C 265.757,60.1818 265.091,60.8485 264.5,61.5C 264.167,61.5 263.833,61.5 263.5,61.5C 257.681,62.2117 252.014,63.0451 246.5,64C 244.593,59.7742 242.593,55.6075 240.5,51.5C 247.382,49.6312 254.049,47.6312 260.5,45.5C 260.833,45.5 261.167,45.5 261.5,45.5C 278.139,44.5586 294.805,44.2253 311.5,44.5 Z"/></g>
<g><path style="opacity:1" fill="#8f3137" d="M 187.5,49.5 C 187.167,49.5 186.833,49.5 186.5,49.5C 186.179,47.9519 185.179,47.2852 183.5,47.5C 185.885,46.0829 188.385,44.7496 191,43.5C 191.5,43.8333 192,44.1667 192.5,44.5C 190.43,45.9029 188.763,47.5696 187.5,49.5 Z"/></g>
<g><path style="opacity:1" fill="#b02b33" d="M 260.5,45.5 C 254.049,47.6312 247.382,49.6312 240.5,51.5C 242.898,49.0257 245.898,47.6924 249.5,47.5C 252.889,45.78 256.556,45.1134 260.5,45.5 Z"/></g>
<g><path style="opacity:1" fill="#592834" d="M 186.5,49.5 C 186.833,49.5 187.167,49.5 187.5,49.5C 185.167,52.5 182.5,55.1667 179.5,57.5C 181.094,54.2358 183.427,51.5691 186.5,49.5 Z"/></g>
<g><path style="opacity:1" fill="#81303b" d="M 238.5,51.5 C 238.557,52.609 238.89,53.609 239.5,54.5C 237.97,55.2112 236.637,56.2112 235.5,57.5C 236.837,54.3126 235.837,53.646 232.5,55.5C 233.853,53.2621 235.853,51.9287 238.5,51.5 Z"/></g>
<g><path style="opacity:1" fill="#c2282b" d="M 337.5,49.5 C 337.833,49.5 338.167,49.5 338.5,49.5C 345.38,52.3108 352.38,54.9774 359.5,57.5C 359.611,58.1174 359.944,58.6174 360.5,59C 357.518,59.498 354.518,59.6646 351.5,59.5C 348.833,59.5 346.167,59.5 343.5,59.5C 343.389,58.8826 343.056,58.3826 342.5,58C 337.511,57.5007 332.511,57.3341 327.5,57.5C 327.5,57.1667 327.5,56.8333 327.5,56.5C 332.179,56.6658 336.845,56.4992 341.5,56C 342.337,54.9887 342.67,53.8221 342.5,52.5C 340.067,52.7271 338.401,51.7271 337.5,49.5 Z"/></g>
<g><path style="opacity:1" fill="#8a2b37" d="M 177.5,51.5 C 171.833,56.5 166.5,61.8333 161.5,67.5C 165.167,60.5 170.5,55.1667 177.5,51.5 Z"/></g>
<g><path style="opacity:1" fill="#a02a33" d="M 327.5,56.5 C 327.5,56.8333 327.5,57.1667 327.5,57.5C 313.829,57.3334 300.163,57.5001 286.5,58C 284.292,58.1909 282.292,58.6909 280.5,59.5C 275.054,59.3642 269.72,60.0309 264.5,61.5C 265.091,60.8485 265.757,60.1818 266.5,59.5C 269.5,58.8333 272.5,58.1667 275.5,57.5C 292.821,56.5005 310.154,56.1672 327.5,56.5 Z"/></g>
<g><path style="opacity:1" fill="#3e253c" d="M 327.5,57.5 C 332.511,57.3341 337.511,57.5007 342.5,58C 343.056,58.3826 343.389,58.8826 343.5,59.5C 322.5,58.1667 301.5,58.1667 280.5,59.5C 282.292,58.6909 284.292,58.1909 286.5,58C 300.163,57.5001 313.829,57.3334 327.5,57.5 Z"/></g>
<g><path style="opacity:1" fill="#912d3a" d="M 359.5,57.5 C 362.09,58.1283 364.423,59.295 366.5,61C 361.225,61.9007 356.225,61.4007 351.5,59.5C 354.518,59.6646 357.518,59.498 360.5,59C 359.944,58.6174 359.611,58.1174 359.5,57.5 Z"/></g>
<g><path style="opacity:1" fill="#392c41" d="M 239.5,54.5 C 241.293,58.0067 242.626,61.6733 243.5,65.5C 242.619,63.6964 241.286,62.1964 239.5,61C 238.184,60.4719 237.517,60.9719 237.5,62.5C 236.262,61.5876 234.928,61.4209 233.5,62C 229.495,65.1852 227.328,69.0185 227,73.5C 224.694,74.7301 222.527,76.0634 220.5,77.5C 220.87,74.733 222.204,72.733 224.5,71.5C 227.371,66.2853 231.038,61.6186 235.5,57.5C 236.637,56.2112 237.97,55.2112 239.5,54.5 Z"/></g>
<g><path style="opacity:1" fill="#c2272c" d="M 235.5,57.5 C 231.038,61.6186 227.371,66.2853 224.5,71.5C 225.129,69.5351 225.796,67.5351 226.5,65.5C 226.167,64.5 225.833,63.5 225.5,62.5C 224.378,63.6302 223.044,64.2969 221.5,64.5C 222.167,63.5 222.833,62.5 223.5,61.5C 223.369,60.6236 223.702,59.9569 224.5,59.5C 226.955,57.7033 229.622,56.37 232.5,55.5C 235.837,53.646 236.837,54.3126 235.5,57.5 Z"/></g>
<g><path style="opacity:1" fill="#902e3c" d="M 179.5,57.5 C 177.374,60.9591 175.707,64.6257 174.5,68.5C 174.167,68.5 173.833,68.5 173.5,68.5C 173.825,63.8603 175.825,60.1936 179.5,57.5 Z"/></g>
<g><path style="opacity:1" fill="#ac2b32" d="M 238.5,51.5 C 239.167,51.5 239.833,51.5 240.5,51.5C 242.593,55.6075 244.593,59.7742 246.5,64C 252.014,63.0451 257.681,62.2117 263.5,61.5C 257.9,63.5238 252.067,65.1904 246,66.5C 245.098,66.2568 244.265,65.9234 243.5,65.5C 242.626,61.6733 241.293,58.0067 239.5,54.5C 238.89,53.609 238.557,52.609 238.5,51.5 Z"/></g>
<g><path style="opacity:1" fill="#fbfcfd" d="M 237.5,62.5 C 242.754,72.7651 245.088,83.7651 244.5,95.5C 243.861,105.92 240.361,115.253 234,123.5C 226.814,134 217.314,141.5 205.5,146C 206.094,146.464 206.761,146.631 207.5,146.5C 222.365,149.152 237.365,149.152 252.5,146.5C 257.877,157.353 261.71,168.687 264,180.5C 258.132,194.227 252.298,207.894 246.5,221.5C 238.305,223.929 230.305,226.929 222.5,230.5C 217.5,241.484 212.833,252.484 208.5,263.5C 196.989,268.839 185.823,274.839 175,281.5C 169.12,292.592 163.787,303.925 159,315.5C 156.604,309.049 152.937,303.382 148,298.5C 149.803,307.398 151.47,316.398 153,325.5C 153.667,331.5 153.667,337.5 153,343.5C 152.439,345.725 151.439,347.725 150,349.5C 144.959,354.598 139.459,359.098 133.5,363C 142.107,364.574 150.44,366.74 158.5,369.5C 155.348,372.658 151.514,374.325 147,374.5C 140.353,373.637 133.853,372.137 127.5,370C 121.843,360.747 117.843,350.747 115.5,340C 119.663,329.841 124.496,320.007 130,310.5C 134.892,286.368 138.559,262.034 141,237.5C 146.984,244.47 150.65,252.47 152,261.5C 157.05,254.247 158.717,246.247 157,237.5C 154.198,229.898 150.865,222.565 147,215.5C 144.309,207.575 143.975,199.575 146,191.5C 149.212,181.364 152.712,171.364 156.5,161.5C 158.783,154.269 161.616,147.269 165,140.5C 167.956,145.231 172.122,147.064 177.5,146C 199.103,119.284 219.103,91.4508 237.5,62.5 Z"/></g>
<g><path style="opacity:1" fill="#d02325" d="M 183.5,47.5 C 185.179,47.2852 186.179,47.9519 186.5,49.5C 183.427,51.5691 181.094,54.2358 179.5,57.5C 175.825,60.1936 173.825,63.8603 173.5,68.5C 173.009,71.0103 172.009,73.3436 170.5,75.5C 169.52,78.0865 169.187,80.7531 169.5,83.5C 167.864,87.2095 167.198,91.2095 167.5,95.5C 166.674,100.316 166.174,105.316 166,110.5C 165.292,109.619 164.458,108.953 163.5,108.5C 162.37,106.685 161.704,104.685 161.5,102.5C 157.506,91.5529 157.506,80.5529 161.5,69.5C 161.5,68.8333 161.5,68.1667 161.5,67.5C 166.5,61.8333 171.833,56.5 177.5,51.5C 179.223,49.7819 181.223,48.4486 183.5,47.5 Z"/></g>
<g><path style="opacity:1" fill="#9d2e37" d="M 223.5,61.5 C 222.833,62.5 222.167,63.5 221.5,64.5C 216.833,68.8333 212.167,73.1667 207.5,77.5C 211.833,71.1667 217.167,65.8333 223.5,61.5 Z"/></g>
<g><path style="opacity:1" fill="#55283e" d="M 173.5,68.5 C 173.833,68.5 174.167,68.5 174.5,68.5C 173.001,73.664 171.334,78.664 169.5,83.5C 169.187,80.7531 169.52,78.0865 170.5,75.5C 172.009,73.3436 173.009,71.0103 173.5,68.5 Z"/></g>
<g><path style="opacity:1" fill="#a52c36" d="M 161.5,69.5 C 157.506,80.5529 157.506,91.5529 161.5,102.5C 159.689,100.615 158.522,98.2813 158,95.5C 157.333,88.8333 157.333,82.1667 158,75.5C 158.586,72.9807 159.753,70.9807 161.5,69.5 Z"/></g>
<g><path style="opacity:1" fill="#55283a" d="M 369.5,93.5 C 344.646,88.0805 319.98,88.4138 295.5,94.5C 292.833,94.8333 290.167,95.1667 287.5,95.5C 288.058,94.2101 289.058,93.3768 290.5,93C 313.255,88.4857 336.255,87.4857 359.5,90C 363.109,90.7013 366.442,91.8679 369.5,93.5 Z"/></g>
<g><path style="opacity:1" fill="#cb2327" d="M 224.5,71.5 C 222.204,72.733 220.87,74.733 220.5,77.5C 216.44,81.8972 212.107,85.8972 207.5,89.5C 204.925,90.7284 202.592,92.3951 200.5,94.5C 199.614,93.675 199.281,92.675 199.5,91.5C 201.145,86.2058 203.811,81.5392 207.5,77.5C 212.167,73.1667 216.833,68.8333 221.5,64.5C 223.044,64.2969 224.378,63.6302 225.5,62.5C 225.833,63.5 226.167,64.5 226.5,65.5C 225.796,67.5351 225.129,69.5351 224.5,71.5 Z"/></g>
<g><path style="opacity:1" fill="#392c44" d="M 126.5,107.5 C 124.723,104.495 123.723,101.162 123.5,97.5C 123.88,95.302 123.213,93.6354 121.5,92.5C 121.852,89.9272 121.352,87.5938 120,85.5C 119.292,86.3805 118.458,87.0472 117.5,87.5C 117.202,84.0245 118.535,81.8578 121.5,81C 122.451,84.0567 122.784,87.2234 122.5,90.5C 124.346,90.2222 125.68,90.8888 126.5,92.5C 125.408,94.1831 124.741,96.0164 124.5,98C 126.072,100.919 126.739,104.085 126.5,107.5 Z"/></g>
<g><path style="opacity:1" fill="#d72122" d="M 369.5,93.5 C 372.006,94.7496 374.673,95.4162 377.5,95.5C 380.209,97.7056 383.209,99.7056 386.5,101.5C 386.291,102.086 385.957,102.586 385.5,103C 390.01,103.146 394.343,103.979 398.5,105.5C 399.167,105.5 399.833,105.5 400.5,105.5C 409.394,110.728 417.727,116.728 425.5,123.5C 427.833,126.5 430.5,129.167 433.5,131.5C 437.818,136.775 442.151,142.108 446.5,147.5C 446.575,150.407 447.409,153.073 449,155.5C 449.671,154.748 450.504,154.414 451.5,154.5C 451.5,156.5 451.5,158.5 451.5,160.5C 452.5,160.5 453.5,160.5 454.5,160.5C 459.615,171.067 464.948,181.4 470.5,191.5C 471.404,192.209 471.737,193.209 471.5,194.5C 471.12,196.698 471.787,198.365 473.5,199.5C 473.366,201.292 473.699,202.958 474.5,204.5C 477.274,215.51 479.274,226.843 480.5,238.5C 480.167,240.833 479.833,243.167 479.5,245.5C 477.581,239.989 474.914,234.989 471.5,230.5C 470.213,227.093 468.213,224.093 465.5,221.5C 464.372,218.562 463.205,215.562 462,212.5C 456.584,205.266 451.418,197.933 446.5,190.5C 445.911,186.248 443.578,183.581 439.5,182.5C 437.868,179.867 435.868,177.533 433.5,175.5C 428.5,168.5 422.5,162.5 415.5,157.5C 414.222,157.218 413.222,156.551 412.5,155.5C 410.423,151.754 407.423,149.088 403.5,147.5C 401.973,147.573 400.973,146.906 400.5,145.5C 398.48,140.649 394.814,137.983 389.5,137.5C 387.973,137.573 386.973,136.906 386.5,135.5C 385.439,133.468 383.772,132.134 381.5,131.5C 380.754,130.264 380.421,128.93 380.5,127.5C 376.507,125.748 372.174,124.748 367.5,124.5C 367.5,124.167 367.5,123.833 367.5,123.5C 362.885,119.67 357.552,117.337 351.5,116.5C 347.861,113.532 343.528,111.865 338.5,111.5C 335.43,109.527 332.097,108.027 328.5,107C 319.903,104.956 311.237,103.456 302.5,102.5C 300.5,102.167 298.5,101.833 296.5,101.5C 291.27,100.844 285.936,100.011 280.5,99C 285.957,98.2302 290.957,96.7302 295.5,94.5C 319.98,88.4138 344.646,88.0805 369.5,93.5 Z"/></g>
<g><path style="opacity:1" fill="#99293b" d="M 207.5,89.5 C 205.134,92.8655 202.134,95.5322 198.5,97.5C 197.243,95.2014 197.577,93.2014 199.5,91.5C 199.281,92.675 199.614,93.675 200.5,94.5C 202.592,92.3951 204.925,90.7284 207.5,89.5 Z"/></g>
<g><path style="opacity:1" fill="#b02b34" d="M 121.5,92.5 C 120.732,91.7375 120.232,90.7375 120,89.5C 119.667,89.8333 119.333,90.1667 119,90.5C 118.11,100.932 118.61,111.265 120.5,121.5C 119.736,119.26 118.902,116.927 118,114.5C 117.5,105.506 117.334,96.5062 117.5,87.5C 118.458,87.0472 119.292,86.3805 120,85.5C 121.352,87.5938 121.852,89.9272 121.5,92.5 Z"/></g>
<g><path style="opacity:1" fill="#762838" d="M 121.5,92.5 C 123.213,93.6354 123.88,95.302 123.5,97.5C 123.167,97.5 122.833,97.5 122.5,97.5C 121.699,95.9582 121.366,94.2915 121.5,92.5 Z"/></g>
<g><path style="opacity:1" fill="#672535" d="M 286.5,95.5 C 284.485,96.9238 282.152,97.5905 279.5,97.5C 281.515,96.0762 283.848,95.4095 286.5,95.5 Z"/></g>
<g><path style="opacity:1" fill="#862d3a" d="M 279.5,97.5 C 278.571,98.3149 277.571,99.1482 276.5,100C 277.737,100.232 278.737,100.732 279.5,101.5C 267.816,101.261 267.816,99.9278 279.5,97.5 Z"/></g>
<g><path style="opacity:1" fill="#be2a2f" d="M 295.5,94.5 C 290.957,96.7302 285.957,98.2302 280.5,99C 285.936,100.011 291.27,100.844 296.5,101.5C 293.5,101.5 290.5,101.5 287.5,101.5C 284.833,101.5 282.167,101.5 279.5,101.5C 278.737,100.732 277.737,100.232 276.5,100C 277.571,99.1482 278.571,98.3149 279.5,97.5C 282.152,97.5905 284.485,96.9238 286.5,95.5C 286.833,95.5 287.167,95.5 287.5,95.5C 290.167,95.1667 292.833,94.8333 295.5,94.5 Z"/></g>
<g><path style="opacity:1" fill="#b42c39" d="M 122.5,97.5 C 122.833,97.5 123.167,97.5 123.5,97.5C 123.723,101.162 124.723,104.495 126.5,107.5C 126.5,108.167 126.5,108.833 126.5,109.5C 123.804,106.079 122.47,102.079 122.5,97.5 Z"/></g>
<g><path style="opacity:1" fill="#40293e" d="M 385.5,97.5 C 389.285,98.2462 392.952,99.4128 396.5,101C 398.384,102.049 399.718,103.549 400.5,105.5C 399.833,105.5 399.167,105.5 398.5,105.5C 394.13,102.829 389.796,100.162 385.5,97.5 Z"/></g>
<g><path style="opacity:1" fill="#bb292e" d="M 377.5,95.5 C 380.112,96.3705 382.779,97.0372 385.5,97.5C 389.796,100.162 394.13,102.829 398.5,105.5C 394.343,103.979 390.01,103.146 385.5,103C 385.957,102.586 386.291,102.086 386.5,101.5C 383.209,99.7056 380.209,97.7056 377.5,95.5 Z"/></g>
<g><path style="opacity:1" fill="#892e38" d="M 287.5,101.5 C 290.5,101.5 293.5,101.5 296.5,101.5C 298.5,101.833 300.5,102.167 302.5,102.5C 302.5,102.833 302.5,103.167 302.5,103.5C 297.332,103.066 292.332,102.4 287.5,101.5 Z"/></g>
<g><path style="opacity:1" fill="#b62b32" d="M 302.5,103.5 C 302.5,103.167 302.5,102.833 302.5,102.5C 311.237,103.456 319.903,104.956 328.5,107C 332.097,108.027 335.43,109.527 338.5,111.5C 326.607,108.406 314.607,105.739 302.5,103.5 Z"/></g>
<g><path style="opacity:1" fill="#3f273f" d="M 169.5,83.5 C 169.065,93.8438 168.398,104.177 167.5,114.5C 166.478,114.145 165.811,113.478 165.5,112.5C 167.45,107.265 168.117,101.598 167.5,95.5C 167.198,91.2095 167.864,87.2095 169.5,83.5 Z"/></g>
<g><path style="opacity:1" fill="#d32225" d="M 121.5,92.5 C 121.366,94.2915 121.699,95.9582 122.5,97.5C 122.47,102.079 123.804,106.079 126.5,109.5C 127.434,110.568 127.768,111.901 127.5,113.5C 127.908,117.573 129.908,120.573 133.5,122.5C 135.248,125.662 137.248,128.662 139.5,131.5C 139.238,132.978 139.571,134.311 140.5,135.5C 141.396,134.494 142.062,134.494 142.5,135.5C 141.5,135.833 140.5,136.167 139.5,136.5C 135.499,134.832 131.499,133.166 127.5,131.5C 124.662,128.479 122.328,125.146 120.5,121.5C 118.61,111.265 118.11,100.932 119,90.5C 119.333,90.1667 119.667,89.8333 120,89.5C 120.232,90.7375 120.732,91.7375 121.5,92.5 Z"/></g>
<g><path style="opacity:1" fill="#862b3a" d="M 167.5,95.5 C 168.117,101.598 167.45,107.265 165.5,112.5C 164.4,111.395 163.733,110.062 163.5,108.5C 164.458,108.953 165.292,109.619 166,110.5C 166.174,105.316 166.674,100.316 167.5,95.5 Z"/></g>
<g><path style="opacity:1" fill="#642636" d="M 126.5,107.5 C 128.241,109.395 129.241,111.728 129.5,114.5C 128.833,114.167 128.167,113.833 127.5,113.5C 127.768,111.901 127.434,110.568 126.5,109.5C 126.5,108.833 126.5,108.167 126.5,107.5 Z"/></g>
<g><path style="opacity:1" fill="#1e324d" d="M 233.5,86.5 C 237.025,106.089 229.192,119.089 210,125.5C 208.743,125.15 208.409,124.483 209,123.5C 217.389,111.285 225.556,98.9513 233.5,86.5 Z"/></g>
<g><path style="opacity:1" fill="#a72b36" d="M 338.5,111.5 C 343.528,111.865 347.861,113.532 351.5,116.5C 348.782,115.957 346.115,115.291 343.5,114.5C 341.58,113.935 339.913,112.935 338.5,111.5 Z"/></g>
<g><path style="opacity:1" fill="#93a6c0" d="M 295.5,119.5 C 290.427,123.066 285.76,127.232 281.5,132C 276.304,135.43 270.971,138.597 265.5,141.5C 263.191,136.268 260.857,130.935 258.5,125.5C 260.22,122.798 261.887,120.132 263.5,117.5C 264.785,115.938 266.285,114.604 268,113.5C 277.416,114.948 286.582,116.948 295.5,119.5 Z"/></g>
<g><path style="opacity:1" fill="#3e2943" d="M 343.5,114.5 C 346.115,115.291 348.782,115.957 351.5,116.5C 356.801,118.833 362.134,121.167 367.5,123.5C 367.5,123.833 367.5,124.167 367.5,124.5C 368.167,125.167 368.833,125.833 369.5,126.5C 362.263,123.405 354.93,120.405 347.5,117.5C 345.668,116.943 344.335,115.943 343.5,114.5 Z"/></g>
<g><path style="opacity:1" fill="#a92a32" d="M 127.5,113.5 C 128.167,113.833 128.833,114.167 129.5,114.5C 131.024,117.074 132.358,119.741 133.5,122.5C 129.908,120.573 127.908,117.573 127.5,113.5 Z"/></g>
<g><path style="opacity:1" fill="#b02a2f" d="M 351.5,116.5 C 357.552,117.337 362.885,119.67 367.5,123.5C 362.134,121.167 356.801,118.833 351.5,116.5 Z"/></g>
<g><path style="opacity:1" fill="#fbfcfd" d="M 295.5,119.5 C 349.186,136.52 385.52,171.52 404.5,224.5C 412.307,248.578 414.64,273.245 411.5,298.5C 411.15,258.135 397.65,222.801 371,192.5C 354.29,174.6 335.457,159.6 314.5,147.5C 312.031,146.431 309.698,145.098 307.5,143.5C 306.913,144.233 306.913,145.233 307.5,146.5C 315.213,174.812 308.547,198.979 287.5,219C 280.898,223.871 273.564,227.204 265.5,229C 252.427,229.018 240.094,232.018 228.5,238C 221.686,252.937 215.352,268.103 209.5,283.5C 208.5,283.5 207.5,283.5 206.5,283.5C 212.142,266.541 218.642,249.874 226,233.5C 233.075,230.808 240.242,228.308 247.5,226C 249.049,224.786 250.215,223.286 251,221.5C 253.187,215.802 255.353,210.135 257.5,204.5C 262.527,204.497 267.527,204.164 272.5,203.5C 274.972,196.053 277.305,188.553 279.5,181C 275.329,167.652 270.662,154.486 265.5,141.5C 270.971,138.597 276.304,135.43 281.5,132C 285.76,127.232 290.427,123.066 295.5,119.5 Z"/></g>
<g><path style="opacity:1" fill="#602936" d="M 425.5,123.5 C 429.167,125.167 431.833,127.833 433.5,131.5C 430.5,129.167 427.833,126.5 425.5,123.5 Z"/></g>
<g><path style="opacity:1" fill="#b62a31" d="M 367.5,124.5 C 372.174,124.748 376.507,125.748 380.5,127.5C 380.421,128.93 380.754,130.264 381.5,131.5C 383.772,132.134 385.439,133.468 386.5,135.5C 381.891,134.074 377.891,131.574 374.5,128C 372.846,127.392 371.179,126.892 369.5,126.5C 368.833,125.833 368.167,125.167 367.5,124.5 Z"/></g>
<g><path style="opacity:1" fill="#b02b35" d="M 127.5,131.5 C 131.499,133.166 135.499,134.832 139.5,136.5C 140.5,136.167 141.5,135.833 142.5,135.5C 142.062,134.494 141.396,134.494 140.5,135.5C 139.571,134.311 139.238,132.978 139.5,131.5C 142.438,133.755 145.438,136.088 148.5,138.5C 144.004,139.708 139.671,139.208 135.5,137C 132.279,135.896 129.612,134.063 127.5,131.5 Z"/></g>
<g><path style="opacity:1" fill="#90a1bd" d="M 252.5,146.5 C 237.365,149.152 222.365,149.152 207.5,146.5C 222.333,147.609 235.833,143.943 248,135.5C 249.799,139.07 251.299,142.737 252.5,146.5 Z"/></g>
<g><path style="opacity:1" fill="#f4f8f9" d="M 138.5,166.5 C 136.473,166.662 134.473,166.495 132.5,166C 123.812,161.66 115.478,156.827 107.5,151.5C 96.3848,144.891 85.3848,138.058 74.5,131C 93.7107,136.758 112.711,143.424 131.5,151C 140.011,153.515 142.344,158.681 138.5,166.5 Z"/></g>
<g><path style="opacity:1" fill="#b02b2e" d="M 389.5,137.5 C 394.814,137.983 398.48,140.649 400.5,145.5C 396.648,143.075 392.981,140.409 389.5,137.5 Z"/></g>
<g><path style="opacity:1" fill="#902d38" d="M 403.5,147.5 C 407.423,149.088 410.423,151.754 412.5,155.5C 408.874,153.541 405.874,150.874 403.5,147.5 Z"/></g>
<g><path style="opacity:1" fill="#b02c31" d="M 446.5,147.5 C 448.9,149.296 450.567,151.63 451.5,154.5C 450.504,154.414 449.671,154.748 449,155.5C 447.409,153.073 446.575,150.407 446.5,147.5 Z"/></g>
<g><path style="opacity:0.996" fill="#1b314f" d="M 244.5,95.5 C 245.922,95.7496 246.922,96.583 247.5,98C 245.503,99.1531 245.17,100.653 246.5,102.5C 249.421,101.593 252.421,101.26 255.5,101.5C 255.5,104.833 255.5,108.167 255.5,111.5C 258.187,111.336 260.854,111.503 263.5,112C 263.544,113.935 263.544,115.768 263.5,117.5C 261.887,120.132 260.22,122.798 258.5,125.5C 260.857,130.935 263.191,136.268 265.5,141.5C 270.662,154.486 275.329,167.652 279.5,181C 277.305,188.553 274.972,196.053 272.5,203.5C 267.527,204.164 262.527,204.497 257.5,204.5C 255.353,210.135 253.187,215.802 251,221.5C 250.215,223.286 249.049,224.786 247.5,226C 240.242,228.308 233.075,230.808 226,233.5C 218.642,249.874 212.142,266.541 206.5,283.5C 207.5,283.5 208.5,283.5 209.5,283.5C 215.193,283.701 220.86,283.868 226.5,284C 234.34,268.643 243.673,254.31 254.5,241C 260.725,239.749 267.058,239.083 273.5,239C 296.107,236.059 310.274,223.559 316,201.5C 321.157,181.784 318.324,163.451 307.5,146.5C 306.913,145.233 306.913,144.233 307.5,143.5C 309.698,145.098 312.031,146.431 314.5,147.5C 331.568,161.952 342.235,180.285 346.5,202.5C 345.387,203.946 345.22,205.613 346,207.5C 347.05,210.876 348.55,213.876 350.5,216.5C 349.883,216.389 349.383,216.056 349,215.5C 348.772,231.902 347.605,248.235 345.5,264.5C 368.543,320.298 360.543,371.298 321.5,417.5C 319.01,418.479 319.01,419.646 321.5,421C 321.355,421.772 321.022,422.439 320.5,423C 322.126,422.805 323.793,422.805 325.5,423C 323.071,423.451 322.904,424.285 325,425.5C 326.269,424.095 326.769,422.429 326.5,420.5C 329.709,418.735 332.709,416.735 335.5,414.5C 378.324,387.574 403.657,348.907 411.5,298.5C 414.64,273.245 412.307,248.578 404.5,224.5C 405.376,224.369 406.043,224.702 406.5,225.5C 407.535,228.998 408.869,232.331 410.5,235.5C 411.842,233.995 413.508,233.328 415.5,233.5C 417.455,234.447 417.789,235.781 416.5,237.5C 417,238.5 417.5,239.5 418,240.5C 418.667,239.167 419.333,239.167 420,240.5C 420.333,239.833 420.667,239.167 421,238.5C 422.788,240.76 424.288,243.093 425.5,245.5C 426.167,245.833 426.833,246.167 427.5,246.5C 427.5,246.833 427.5,247.167 427.5,247.5C 427.41,250.152 428.076,252.485 429.5,254.5C 430.406,257.436 431.072,260.436 431.5,263.5C 431.517,265.565 431.85,267.565 432.5,269.5C 432.378,275.177 433.378,280.51 435.5,285.5C 435.833,288.833 436.167,292.167 436.5,295.5C 436.71,315.206 436.044,334.873 434.5,354.5C 433.82,358.119 433.32,361.786 433,365.5C 432.722,366.416 432.222,367.082 431.5,367.5C 428.593,373.451 426.593,379.785 425.5,386.5C 424.541,390.63 423.208,394.63 421.5,398.5C 420.082,401.175 418.749,404.008 417.5,407C 417.833,407.833 418.167,408.667 418.5,409.5C 420.531,407.69 422.198,405.69 423.5,403.5C 423.5,402.167 424.167,401.5 425.5,401.5C 427.587,400.415 428.92,398.749 429.5,396.5C 430.167,396.167 430.833,395.833 431.5,395.5C 433.168,394.156 434.835,392.823 436.5,391.5C 439.019,392.915 442.019,394.581 445.5,396.5C 432.209,415.625 416.042,431.958 397,445.5C 398.591,435.543 399.924,425.543 401,415.5C 373.955,453.77 337.455,476.437 291.5,483.5C 297.684,477.15 303.684,470.65 309.5,464C 276.657,477.411 242.657,480.744 207.5,474C 193.538,471.426 179.871,467.76 166.5,463C 207.494,470.833 244.494,462.166 277.5,437C 314.266,404.025 325.433,363.858 311,316.5C 303.098,296.354 290.598,279.687 273.5,266.5C 266.143,275.356 258.977,284.356 252,293.5C 243.092,304.707 239.759,317.374 242,331.5C 240.466,341.071 235.966,348.904 228.5,355C 219.87,361.961 211.537,369.295 203.5,377C 197.702,380.525 191.369,382.358 184.5,382.5C 175.158,379.837 167.491,382.337 161.5,390C 153.127,391.739 144.793,391.406 136.5,389C 129.714,387.405 123.047,385.405 116.5,383C 106.595,370.14 100.262,355.64 97.5,339.5C 97.8417,337.133 98.3417,334.8 99,332.5C 104.59,321.653 109.923,310.653 115,299.5C 118.787,273.707 122.287,247.874 125.5,222C 123.653,214.137 120.82,206.637 117,199.5C 116.307,192.324 117.14,185.324 119.5,178.5C 115.619,175.731 111.952,172.731 108.5,169.5C 110.117,170.038 111.784,170.371 113.5,170.5C 111.819,166.676 111.319,162.676 112,158.5C 112.718,159.451 113.551,159.617 114.5,159C 113.377,157.956 112.044,157.29 110.5,157C 110.833,156.667 111.167,156.333 111.5,156C 108.928,155.568 107.594,154.068 107.5,151.5C 115.478,156.827 123.812,161.66 132.5,166C 134.473,166.495 136.473,166.662 138.5,166.5C 142.113,169.497 143.779,168.497 143.5,163.5C 144.833,163.5 146.167,163.5 147.5,163.5C 147.5,162.167 147.5,160.833 147.5,159.5C 148.5,159.5 149.5,159.5 150.5,159.5C 150.022,156.722 151.022,154.722 153.5,153.5C 154.018,156.195 153.352,158.861 151.5,161.5C 153.095,162.434 154.761,162.434 156.5,161.5C 152.712,171.364 149.212,181.364 146,191.5C 143.975,199.575 144.309,207.575 147,215.5C 150.865,222.565 154.198,229.898 157,237.5C 158.717,246.247 157.05,254.247 152,261.5C 150.65,252.47 146.984,244.47 141,237.5C 138.559,262.034 134.892,286.368 130,310.5C 124.496,320.007 119.663,329.841 115.5,340C 117.843,350.747 121.843,360.747 127.5,370C 133.853,372.137 140.353,373.637 147,374.5C 151.514,374.325 155.348,372.658 158.5,369.5C 166.249,363.252 172.749,355.919 178,347.5C 179.95,338.278 181.283,328.944 182,319.5C 185.991,310.083 193.158,306.25 203.5,308C 202.263,308.232 201.263,308.732 200.5,309.5C 198.692,309.491 197.025,309.991 195.5,311C 207.097,311.259 212.264,317.092 211,328.5C 205.05,333.282 199.55,338.615 194.5,344.5C 191.944,345.543 189.777,347.21 188,349.5C 183.622,354.373 179.455,359.373 175.5,364.5C 174.957,364.56 174.624,364.893 174.5,365.5C 180.32,366.816 185.987,366.816 191.5,365.5C 192.922,365.291 194.255,364.791 195.5,364C 204.667,355.5 213.833,347 223,338.5C 229.184,328.32 228.851,318.32 222,308.5C 216.255,300.884 208.755,296.217 199.5,294.5C 194.203,295.021 189.036,296.021 184,297.5C 184.893,294.564 186.726,292.064 189.5,290C 193.714,287.976 197.881,285.809 202,283.5C 204.468,276.905 206.635,270.239 208.5,263.5C 212.833,252.484 217.5,241.484 222.5,230.5C 230.305,226.929 238.305,223.929 246.5,221.5C 252.298,207.894 258.132,194.227 264,180.5C 261.71,168.687 257.877,157.353 252.5,146.5C 251.299,142.737 249.799,139.07 248,135.5C 235.833,143.943 222.333,147.609 207.5,146.5C 206.761,146.631 206.094,146.464 205.5,146C 217.314,141.5 226.814,134 234,123.5C 240.361,115.253 243.861,105.92 244.5,95.5 Z"/></g>
<g><path style="opacity:1" fill="#962c37" d="M 415.5,157.5 C 422.5,162.5 428.5,168.5 433.5,175.5C 427.167,169.833 421.167,163.833 415.5,157.5 Z"/></g>
<g><path style="opacity:1" fill="#492741" d="M 433.5,175.5 C 435.868,177.533 437.868,179.867 439.5,182.5C 439.833,183.167 440.167,183.833 440.5,184.5C 438.616,184.288 437.283,183.288 436.5,181.5C 435.914,181.709 435.414,182.043 435,182.5C 434.56,180.134 434.06,177.801 433.5,175.5 Z"/></g>
<g><path style="opacity:1" fill="#b62a2f" d="M 439.5,182.5 C 443.578,183.581 445.911,186.248 446.5,190.5C 444.667,188.33 442.667,186.33 440.5,184.5C 440.167,183.833 439.833,183.167 439.5,182.5 Z"/></g>
<g><path style="opacity:1" fill="#b02a33" d="M 451.5,154.5 C 459.808,165.569 466.142,177.903 470.5,191.5C 464.948,181.4 459.615,171.067 454.5,160.5C 453.5,160.5 452.5,160.5 451.5,160.5C 451.5,158.5 451.5,156.5 451.5,154.5 Z"/></g>
<g><path style="opacity:1" fill="#95a6c1" d="M 314.5,147.5 C 335.457,159.6 354.29,174.6 371,192.5C 397.65,222.801 411.15,258.135 411.5,298.5C 403.657,348.907 378.324,387.574 335.5,414.5C 355.168,394.182 369.501,370.515 378.5,343.5C 383.445,340.776 387.945,337.443 392,333.5C 394.143,322.93 394.809,312.263 394,301.5C 391.084,296.58 387.418,292.247 383,288.5C 379.038,256.389 366.872,228.055 346.5,203.5C 346.5,203.167 346.5,202.833 346.5,202.5C 342.235,180.285 331.568,161.952 314.5,147.5 Z"/></g>
<g><path style="opacity:1" fill="#9d2938" d="M 471.5,194.5 C 473.213,195.635 473.88,197.302 473.5,199.5C 471.787,198.365 471.12,196.698 471.5,194.5 Z"/></g>
<g><path style="opacity:1" fill="#20324c" d="M 209.5,157.5 C 210.097,157.735 210.43,158.235 210.5,159C 207.66,166.019 205.327,173.186 203.5,180.5C 215.646,184.706 219.48,193.04 215,205.5C 212.167,209.667 208.667,213.167 204.5,216C 192.874,223.223 181.041,229.723 169,235.5C 163.691,234.191 160.357,230.857 159,225.5C 158.139,219.415 158.473,213.415 160,207.5C 161.149,211.965 162.982,216.132 165.5,220C 167.387,220.163 168.887,219.329 170,217.5C 183.923,197.985 197.089,177.985 209.5,157.5 Z"/></g>
<g><path style="opacity:1" fill="#f3d335" d="M 206.5,202.5 C 204.937,203.945 203.604,205.611 202.5,207.5C 197.094,212.248 191.427,216.581 185.5,220.5C 183.742,220.877 182.075,221.544 180.5,222.5C 180.167,222.167 179.833,221.833 179.5,221.5C 181.038,219.757 182.038,217.757 182.5,215.5C 186.139,209.569 189.806,203.569 193.5,197.5C 194.906,197.027 195.573,196.027 195.5,194.5C 196.361,192.614 197.361,190.78 198.5,189C 199.5,188.333 200.5,188.333 201.5,189C 206.478,192.416 208.145,196.916 206.5,202.5 Z"/></g>
<g><path style="opacity:1" fill="#827e31" d="M 195.5,194.5 C 195.573,196.027 194.906,197.027 193.5,197.5C 193.427,195.973 194.094,194.973 195.5,194.5 Z"/></g>
<g><path style="opacity:1" fill="#852a3a" d="M 473.5,199.5 C 475.213,200.635 475.88,202.302 475.5,204.5C 475.167,204.5 474.833,204.5 474.5,204.5C 473.699,202.958 473.366,201.292 473.5,199.5 Z"/></g>
<g><path style="opacity:1" fill="#3b4029" d="M 206.5,202.5 C 206.33,205.204 204.997,206.871 202.5,207.5C 203.604,205.611 204.937,203.945 206.5,202.5 Z"/></g>
<g><path style="opacity:1" fill="#7f2a3a" d="M 475.5,206.5 C 477.213,207.635 477.88,209.302 477.5,211.5C 475.787,210.365 475.12,208.698 475.5,206.5 Z"/></g>
<g><path style="opacity:1" fill="#2d373b" d="M 182.5,215.5 C 182.038,217.757 181.038,219.757 179.5,221.5C 179.833,221.833 180.167,222.167 180.5,222.5C 182.075,221.544 183.742,220.877 185.5,220.5C 183.584,222.977 180.917,223.977 177.5,223.5C 177.643,221.738 177.309,220.071 176.5,218.5C 178.553,217.473 180.553,216.473 182.5,215.5 Z"/></g>
<g><path style="opacity:1" fill="#91a4c0" d="M 350.5,216.5 C 361.327,233.459 369.16,251.792 374,271.5C 374.93,276.799 375.597,282.133 376,287.5C 379.31,292.806 383.31,297.473 388,301.5C 388.818,311.593 388.151,321.593 386,331.5C 381.157,334.588 376.491,337.921 372,341.5C 363.25,372.378 346.417,397.711 321.5,417.5C 360.543,371.298 368.543,320.298 345.5,264.5C 347.605,248.235 348.772,231.902 349,215.5C 349.383,216.056 349.883,216.389 350.5,216.5 Z"/></g>
<g><path style="opacity:1" fill="#492941" d="M 465.5,221.5 C 468.213,224.093 470.213,227.093 471.5,230.5C 471.5,231.167 471.5,231.833 471.5,232.5C 467.774,229.878 465.774,226.211 465.5,221.5 Z"/></g>
<g><path style="opacity:1" fill="#722637" d="M 479.5,223.5 C 481.074,225.102 481.741,227.102 481.5,229.5C 479.926,227.898 479.259,225.898 479.5,223.5 Z"/></g>
<g><path style="opacity:1" fill="#2d2c4b" d="M 419.5,222.5 C 418.503,222.47 417.836,222.97 417.5,224C 421.468,230.754 424.135,237.921 425.5,245.5C 424.288,243.093 422.788,240.76 421,238.5C 420.667,239.167 420.333,239.833 420,240.5C 419.333,239.167 418.667,239.167 418,240.5C 417.5,239.5 417,238.5 416.5,237.5C 417.789,235.781 417.455,234.447 415.5,233.5C 417.322,227.947 416.988,222.28 414.5,216.5C 415.62,214.404 417.12,214.07 419,215.5C 419.497,217.81 419.663,220.143 419.5,222.5 Z"/></g>
<g><path style="opacity:1" fill="#94a6c2" d="M 307.5,146.5 C 318.324,163.451 321.157,181.784 316,201.5C 310.274,223.559 296.107,236.059 273.5,239C 267.058,239.083 260.725,239.749 254.5,241C 243.673,254.31 234.34,268.643 226.5,284C 220.86,283.868 215.193,283.701 209.5,283.5C 215.352,268.103 221.686,252.937 228.5,238C 240.094,232.018 252.427,229.018 265.5,229C 273.564,227.204 280.898,223.871 287.5,219C 308.547,198.979 315.213,174.812 307.5,146.5 Z"/></g>
<g><path style="opacity:1" fill="#bf282d" d="M 419.5,222.5 C 424.518,228.19 429.185,234.19 433.5,240.5C 431.643,237.982 429.81,237.982 428,240.5C 427.667,240.167 427.333,239.833 427,239.5C 426.444,241.885 426.61,244.218 427.5,246.5C 426.833,246.167 426.167,245.833 425.5,245.5C 424.135,237.921 421.468,230.754 417.5,224C 417.836,222.97 418.503,222.47 419.5,222.5 Z"/></g>
<g><path style="opacity:1" fill="#bd2a2d" d="M 474.5,204.5 C 474.833,204.5 475.167,204.5 475.5,204.5C 475.5,205.167 475.5,205.833 475.5,206.5C 475.12,208.698 475.787,210.365 477.5,211.5C 478.761,215.374 479.428,219.374 479.5,223.5C 479.259,225.898 479.926,227.898 481.5,229.5C 481.5,231.167 481.5,232.833 481.5,234.5C 482.319,241.336 482.319,248.003 481.5,254.5C 478.751,246.996 475.418,239.662 471.5,232.5C 471.5,231.833 471.5,231.167 471.5,230.5C 474.914,234.989 477.581,239.989 479.5,245.5C 479.833,243.167 480.167,240.833 480.5,238.5C 479.274,226.843 477.274,215.51 474.5,204.5 Z"/></g>
<g><path style="opacity:1" fill="#822a35" d="M 481.5,234.5 C 482.979,238.909 483.646,243.576 483.5,248.5C 483.167,251.5 482.833,254.5 482.5,257.5C 481.614,256.675 481.281,255.675 481.5,254.5C 482.319,248.003 482.319,241.336 481.5,234.5 Z"/></g>
<g><path style="opacity:1" fill="#902938" d="M 427.5,247.5 C 428.924,249.515 429.59,251.848 429.5,254.5C 428.076,252.485 427.41,250.152 427.5,247.5 Z"/></g>
<g><path style="opacity:1" fill="#ad2b32" d="M 433.5,240.5 C 436.554,244.825 439.721,249.159 443,253.5C 443.655,255.628 444.489,257.628 445.5,259.5C 445.833,260.833 446.167,262.167 446.5,263.5C 442.593,257.733 438.76,251.733 435,245.5C 434.392,243.846 433.892,242.179 433.5,240.5 Z"/></g>
<g><path style="opacity:1" fill="#50273c" d="M 445.5,259.5 C 447.925,260.714 449.425,262.714 450,265.5C 451.604,269.67 452.77,274.003 453.5,278.5C 451.5,274.167 449.5,269.833 447.5,265.5C 447.672,264.508 447.338,263.842 446.5,263.5C 446.167,262.167 445.833,260.833 445.5,259.5 Z"/></g>
<g><path style="opacity:1" fill="#802d3b" d="M 431.5,263.5 C 431.833,263.5 432.167,263.5 432.5,263.5C 433.15,265.435 433.483,267.435 433.5,269.5C 433.167,269.5 432.833,269.5 432.5,269.5C 431.85,267.565 431.517,265.565 431.5,263.5 Z"/></g>
<g><path style="opacity:1" fill="#be282d" d="M 432.5,263.5 C 434.026,265.45 435.026,267.783 435.5,270.5C 436.491,274.445 436.824,278.445 436.5,282.5C 436.167,282.5 435.833,282.5 435.5,282.5C 434.535,278.227 433.869,273.894 433.5,269.5C 433.483,267.435 433.15,265.435 432.5,263.5 Z"/></g>
<g><path style="opacity:1" fill="#b02b34" d="M 447.5,265.5 C 449.5,269.833 451.5,274.167 453.5,278.5C 453.5,279.833 453.5,281.167 453.5,282.5C 450.975,277.075 448.975,271.408 447.5,265.5 Z"/></g>
<g><path style="opacity:1" fill="#44263b" d="M 432.5,269.5 C 432.833,269.5 433.167,269.5 433.5,269.5C 433.869,273.894 434.535,278.227 435.5,282.5C 435.5,283.5 435.5,284.5 435.5,285.5C 433.378,280.51 432.378,275.177 432.5,269.5 Z"/></g>
<g><path style="opacity:1" fill="#722935" d="M 435.5,282.5 C 435.833,282.5 436.167,282.5 436.5,282.5C 436.5,282.833 436.5,283.167 436.5,283.5C 437.272,287.452 437.605,291.452 437.5,295.5C 437.167,295.5 436.833,295.5 436.5,295.5C 436.167,292.167 435.833,288.833 435.5,285.5C 435.5,284.5 435.5,283.5 435.5,282.5 Z"/></g>
<g><path style="opacity:1" fill="#93a5c1" d="M 208.5,263.5 C 206.635,270.239 204.468,276.905 202,283.5C 197.881,285.809 193.714,287.976 189.5,290C 186.726,292.064 184.893,294.564 184,297.5C 189.036,296.021 194.203,295.021 199.5,294.5C 208.755,296.217 216.255,300.884 222,308.5C 228.851,318.32 229.184,328.32 223,338.5C 213.833,347 204.667,355.5 195.5,364C 194.255,364.791 192.922,365.291 191.5,365.5C 185.974,365.821 180.64,365.488 175.5,364.5C 179.455,359.373 183.622,354.373 188,349.5C 189.777,347.21 191.944,345.543 194.5,344.5C 202.229,341.213 209.063,336.546 215,330.5C 217.095,322.737 215.261,316.237 209.5,311C 206.568,310.047 203.568,309.547 200.5,309.5C 201.263,308.732 202.263,308.232 203.5,308C 193.158,306.25 185.991,310.083 182,319.5C 181.283,328.944 179.95,338.278 178,347.5C 172.749,355.919 166.249,363.252 158.5,369.5C 150.44,366.74 142.107,364.574 133.5,363C 139.459,359.098 144.959,354.598 150,349.5C 151.439,347.725 152.439,345.725 153,343.5C 153.667,337.5 153.667,331.5 153,325.5C 151.47,316.398 149.803,307.398 148,298.5C 152.937,303.382 156.604,309.049 159,315.5C 163.787,303.925 169.12,292.592 175,281.5C 185.823,274.839 196.989,268.839 208.5,263.5 Z"/></g>
<g><path style="opacity:1" fill="#44263d" d="M 436.5,295.5 C 436.833,295.5 437.167,295.5 437.5,295.5C 438.099,306.156 438.433,316.823 438.5,327.5C 438.034,336.632 436.7,345.632 434.5,354.5C 436.044,334.873 436.71,315.206 436.5,295.5 Z"/></g>
<g><path style="opacity:1" fill="#3d2740" d="M 455.5,287.5 C 456.458,287.953 457.292,288.619 458,289.5C 458.065,294.018 458.731,298.351 460,302.5C 460.667,309.5 460.667,316.5 460,323.5C 459.79,325.058 459.29,326.391 458.5,327.5C 458.666,319.493 458.5,311.493 458,303.5C 457.811,299.233 456.977,295.233 455.5,291.5C 455.5,290.167 455.5,288.833 455.5,287.5 Z"/></g>
<g><path style="opacity:1" fill="#b02d34" d="M 436.5,283.5 C 437.222,283.918 437.722,284.584 438,285.5C 439.391,299.654 439.558,313.654 438.5,327.5C 438.433,316.823 438.099,306.156 437.5,295.5C 437.605,291.452 437.272,287.452 436.5,283.5 Z"/></g>
<g><path style="opacity:1" fill="#b72d36" d="M 455.5,291.5 C 456.977,295.233 457.811,299.233 458,303.5C 458.5,311.493 458.666,319.493 458.5,327.5C 457.527,329.948 457.194,332.615 457.5,335.5C 457.167,335.5 456.833,335.5 456.5,335.5C 456.685,320.816 456.351,306.149 455.5,291.5 Z"/></g>
<g><path style="opacity:1" fill="#edf3f7" d="M 200.5,309.5 C 203.568,309.547 206.568,310.047 209.5,311C 215.261,316.237 217.095,322.737 215,330.5C 209.063,336.546 202.229,341.213 194.5,344.5C 199.55,338.615 205.05,333.282 211,328.5C 212.264,317.092 207.097,311.259 195.5,311C 197.025,309.991 198.692,309.491 200.5,309.5 Z"/></g>
<g><path style="opacity:1" fill="#f2f5f7" d="M 192.5,317.5 C 200.868,316.061 204.368,319.395 203,327.5C 197.074,331.421 191.741,336.088 187,341.5C 187.992,335.62 188.659,329.62 189,323.5C 189.564,321.113 190.73,319.113 192.5,317.5 Z"/></g>
<g><path style="opacity:1" fill="#20334f" d="M 139.5,316.5 C 140.139,317.097 140.472,317.93 140.5,319C 139.766,322.501 139.1,326.001 138.5,329.5C 144.095,330.56 145.929,333.893 144,339.5C 141.886,344.617 138.219,347.95 133,349.5C 129.086,348.582 126.919,346.082 126.5,342C 130.447,333.272 134.78,324.772 139.5,316.5 Z"/></g>
<g><path style="opacity:1" fill="#842f38" d="M 456.5,335.5 C 456.833,335.5 457.167,335.5 457.5,335.5C 457.741,337.898 457.074,339.898 455.5,341.5C 455.517,339.435 455.85,337.435 456.5,335.5 Z"/></g>
<g><path style="opacity:1" fill="#d52122" d="M 433.5,240.5 C 433.892,242.179 434.392,243.846 435,245.5C 438.76,251.733 442.593,257.733 446.5,263.5C 447.338,263.842 447.672,264.508 447.5,265.5C 448.975,271.408 450.975,277.075 453.5,282.5C 454.167,284.167 454.833,285.833 455.5,287.5C 455.5,288.833 455.5,290.167 455.5,291.5C 456.351,306.149 456.685,320.816 456.5,335.5C 455.85,337.435 455.517,339.435 455.5,341.5C 455.5,342.167 455.5,342.833 455.5,343.5C 454.442,344.6 453.608,345.934 453,347.5C 451.846,351.454 451.013,355.454 450.5,359.5C 447.12,364.271 444.787,369.604 443.5,375.5C 441.62,377.926 440.287,380.592 439.5,383.5C 437.003,384.129 435.67,385.796 435.5,388.5C 434.094,388.973 433.427,389.973 433.5,391.5C 431.003,392.129 429.67,393.796 429.5,396.5C 427.413,397.585 426.08,399.251 425.5,401.5C 424.167,401.5 423.5,402.167 423.5,403.5C 422.176,404.85 421.176,404.683 420.5,403C 421.148,401.56 421.481,400.06 421.5,398.5C 423.208,394.63 424.541,390.63 425.5,386.5C 426.935,385.087 427.935,383.42 428.5,381.5C 431.658,378.236 432.992,374.236 432.5,369.5C 433.675,369.719 434.675,369.386 435.5,368.5C 434.913,366.727 434.58,364.894 434.5,363C 435.592,357.394 436.759,351.894 438,346.5C 438.5,340.175 438.666,333.842 438.5,327.5C 439.558,313.654 439.391,299.654 438,285.5C 437.722,284.584 437.222,283.918 436.5,283.5C 436.5,283.167 436.5,282.833 436.5,282.5C 436.824,278.445 436.491,274.445 435.5,270.5C 435.026,267.783 434.026,265.45 432.5,263.5C 432.167,263.5 431.833,263.5 431.5,263.5C 431.072,260.436 430.406,257.436 429.5,254.5C 429.59,251.848 428.924,249.515 427.5,247.5C 427.5,247.167 427.5,246.833 427.5,246.5C 426.61,244.218 426.444,241.885 427,239.5C 427.333,239.833 427.667,240.167 428,240.5C 429.81,237.982 431.643,237.982 433.5,240.5 Z"/></g>
<g><path style="opacity:1" fill="#3c2940" d="M 458.5,327.5 C 458.223,332.233 458.557,336.9 459.5,341.5C 458.758,342.287 457.925,342.953 457,343.5C 456.13,348.24 454.964,352.906 453.5,357.5C 452.85,359.184 451.85,360.517 450.5,361.5C 450.5,360.833 450.5,360.167 450.5,359.5C 452.911,354.49 454.578,349.157 455.5,343.5C 455.5,342.833 455.5,342.167 455.5,341.5C 457.074,339.898 457.741,337.898 457.5,335.5C 457.194,332.615 457.527,329.948 458.5,327.5 Z"/></g>
<g><path style="opacity:1" fill="#aa2e34" d="M 455.5,343.5 C 454.578,349.157 452.911,354.49 450.5,359.5C 451.013,355.454 451.846,351.454 453,347.5C 453.608,345.934 454.442,344.6 455.5,343.5 Z"/></g>
<g><path style="opacity:1" fill="#546985" d="M 175.5,364.5 C 180.64,365.488 185.974,365.821 191.5,365.5C 185.987,366.816 180.32,366.816 174.5,365.5C 174.624,364.893 174.957,364.56 175.5,364.5 Z"/></g>
<g><path style="opacity:1" fill="#b82a2e" d="M 438.5,327.5 C 438.666,333.842 438.5,340.175 438,346.5C 436.759,351.894 435.592,357.394 434.5,363C 434.58,364.894 434.913,366.727 435.5,368.5C 434.675,369.386 433.675,369.719 432.5,369.5C 432.992,374.236 431.658,378.236 428.5,381.5C 429.598,376.786 430.598,372.119 431.5,367.5C 432.222,367.082 432.722,366.416 433,365.5C 433.32,361.786 433.82,358.119 434.5,354.5C 436.7,345.632 438.034,336.632 438.5,327.5 Z"/></g>
<g><path style="opacity:1" fill="#e7eef4" d="M 346.5,203.5 C 366.872,228.055 379.038,256.389 383,288.5C 387.418,292.247 391.084,296.58 394,301.5C 394.809,312.263 394.143,322.93 392,333.5C 387.945,337.443 383.445,340.776 378.5,343.5C 369.501,370.515 355.168,394.182 335.5,414.5C 332.709,416.735 329.709,418.735 326.5,420.5C 325.577,421.303 324.577,421.47 323.5,421C 348.356,400.808 365.189,375.308 374,344.5C 379,340.833 384,337.167 389,333.5C 391.328,322.621 391.995,311.621 391,300.5C 387.333,296.167 383.667,291.833 380,287.5C 376.439,257.39 365.439,230.39 347,206.5C 346.517,205.552 346.351,204.552 346.5,203.5 Z"/></g>
<g><path style="opacity:1" fill="#a52d34" d="M 450.5,359.5 C 450.5,360.167 450.5,360.833 450.5,361.5C 448.462,366.333 446.129,370.999 443.5,375.5C 444.787,369.604 447.12,364.271 450.5,359.5 Z"/></g>
<g><path style="opacity:1" fill="#253853" d="M 346.5,202.5 C 346.5,202.833 346.5,203.167 346.5,203.5C 346.351,204.552 346.517,205.552 347,206.5C 365.439,230.39 376.439,257.39 380,287.5C 383.667,291.833 387.333,296.167 391,300.5C 391.995,311.621 391.328,322.621 389,333.5C 384,337.167 379,340.833 374,344.5C 365.189,375.308 348.356,400.808 323.5,421C 324.577,421.47 325.577,421.303 326.5,420.5C 326.769,422.429 326.269,424.095 325,425.5C 322.904,424.285 323.071,423.451 325.5,423C 323.793,422.805 322.126,422.805 320.5,423C 321.022,422.439 321.355,421.772 321.5,421C 319.01,419.646 319.01,418.479 321.5,417.5C 346.417,397.711 363.25,372.378 372,341.5C 376.491,337.921 381.157,334.588 386,331.5C 388.151,321.593 388.818,311.593 388,301.5C 383.31,297.473 379.31,292.806 376,287.5C 375.597,282.133 374.93,276.799 374,271.5C 369.16,251.792 361.327,233.459 350.5,216.5C 348.55,213.876 347.05,210.876 346,207.5C 345.22,205.613 345.387,203.946 346.5,202.5 Z"/></g>
<g><path style="opacity:1" fill="#42273f" d="M 431.5,367.5 C 430.598,372.119 429.598,376.786 428.5,381.5C 427.935,383.42 426.935,385.087 425.5,386.5C 426.593,379.785 428.593,373.451 431.5,367.5 Z"/></g>
<g><path style="opacity:1" fill="#8b2b38" d="M 439.5,383.5 C 438.396,385.389 437.063,387.055 435.5,388.5C 435.67,385.796 437.003,384.129 439.5,383.5 Z"/></g>
<g><path style="opacity:1" fill="#882d35" d="M 433.5,391.5 C 432.4,392.605 431.733,393.938 431.5,395.5C 430.833,395.833 430.167,396.167 429.5,396.5C 429.67,393.796 431.003,392.129 433.5,391.5 Z"/></g>
<g><path style="opacity:1" fill="#662a3a" d="M 429.5,396.5 C 428.92,398.749 427.587,400.415 425.5,401.5C 426.08,399.251 427.413,397.585 429.5,396.5 Z"/></g>
<g><path style="opacity:1" fill="#8c2f3c" d="M 421.5,398.5 C 421.481,400.06 421.148,401.56 420.5,403C 421.176,404.683 422.176,404.85 423.5,403.5C 422.198,405.69 420.531,407.69 418.5,409.5C 418.167,408.667 417.833,407.833 417.5,407C 418.749,404.008 420.082,401.175 421.5,398.5 Z"/></g>
</svg>
