<?xml version="1.0" encoding="UTF-8"?>
<!DOCTYPE svg PUBLIC "-//W3C//DTD SVG 1.1//EN" "http://www.w3.org/Graphics/SVG/1.1/DTD/svg11.dtd">
<svg xmlns="http://www.w3.org/2000/svg" version="1.1" width="98px" height="98px" style="shape-rendering:geometricPrecision; text-rendering:geometricPrecision; image-rendering:optimizeQuality; fill-rule:evenodd; clip-rule:evenodd" xmlns:xlink="http://www.w3.org/1999/xlink">
<g><path style="opacity:0.758" fill="#f0efee" d="M 38.5,-0.5 C 45.1667,-0.5 51.8333,-0.5 58.5,-0.5C 78.5,5.5 91.5,18.5 97.5,38.5C 97.5,45.1667 97.5,51.8333 97.5,58.5C 91.5,78.5 78.5,91.5 58.5,97.5C 51.8333,97.5 45.1667,97.5 38.5,97.5C 18.5,91.5 5.5,78.5 -0.5,58.5C -0.5,51.8333 -0.5,45.1667 -0.5,38.5C 5.5,18.5 18.5,5.5 38.5,-0.5 Z"/></g>
<g><path style="opacity:1" fill="#655849" d="M 58.5,2.5 C 58.0618,2.43456 57.7284,2.60123 57.5,3C 58.7375,3.23209 59.7375,3.73209 60.5,4.5C 51.473,3.03842 42.473,3.20509 33.5,5C 30.6089,6.27424 27.9422,7.77424 25.5,9.5C 18.5,13.1667 13.1667,18.5 9.5,25.5C 8.83333,25.8333 8.16667,26.1667 7.5,26.5C 18.7012,5.80752 35.7012,-2.19248 58.5,2.5 Z"/></g>
<g><path style="opacity:1" fill="#d0be97" d="M 69.5,8.5 C 76.7272,11.727 82.3939,16.727 86.5,23.5C 81.0528,18.0404 75.3861,13.0404 69.5,8.5 Z"/></g>
<g><path style="opacity:1" fill="#e6e4e1" d="M 52.5,17.5 C 53.5,17.5 54.5,17.5 55.5,17.5C 58.9789,19.4031 62.6456,21.0698 66.5,22.5C 67.8333,23.8333 69.1667,25.1667 70.5,26.5C 71.2159,29.5976 72.7159,32.2643 75,34.5C 76.1222,42.7102 75.4555,50.7102 73,58.5C 72.7679,57.2625 72.2679,56.2625 71.5,55.5C 71.0611,51.8943 69.0611,49.7277 65.5,49C 59.1667,48.6667 52.8333,48.3333 46.5,48C 45.1991,46.3845 45.1991,44.8845 46.5,43.5C 52.8682,43.8297 59.2015,43.4963 65.5,42.5C 68.2988,41.9959 70.7988,40.9959 73,39.5C 73.3333,39.8333 73.6667,40.1667 74,40.5C 74.9558,36.0748 73.1225,34.4082 68.5,35.5C 67.5,35.1667 66.8333,34.5 66.5,33.5C 60.3554,32.5098 54.0221,32.1765 47.5,32.5C 53.9874,31.6717 60.654,31.1717 67.5,31C 58.4657,21.9952 48.1324,20.1618 36.5,25.5C 35.5159,28.4281 35.1826,31.4281 35.5,34.5C 35.1667,34.5 34.8333,34.5 34.5,34.5C 32.4551,33.0772 31.4551,31.0772 31.5,28.5C 31.5,27.5 31.5,26.5 31.5,25.5C 29.7839,25.6287 28.1172,25.962 26.5,26.5C 28.7922,23.6952 31.4589,21.3619 34.5,19.5C 40.3456,17.7671 46.3456,17.1004 52.5,17.5 Z"/></g>
<g><path style="opacity:1" fill="#f6d797" d="M 74.5,15.5 C 82.3848,20.3796 87.0515,27.3796 88.5,36.5C 87.4415,35.3998 86.6082,34.0664 86,32.5C 84.2467,33.627 82.4134,34.627 80.5,35.5C 79.5713,36.6888 79.238,38.0222 79.5,39.5C 77.6999,34.3615 74.6999,30.0282 70.5,26.5C 69.1667,25.1667 67.8333,23.8333 66.5,22.5C 68.9635,19.8713 71.6301,17.538 74.5,15.5 Z"/></g>
<g><path style="opacity:1" fill="#edebe6" d="M 47.5,32.5 C 45.4471,32.4021 43.7804,33.0687 42.5,34.5C 41.8333,35.5 41.1667,36.5 40.5,37.5C 38.9666,39.6345 38.2999,42.1345 38.5,45C 38.6667,46.8333 38.8333,48.6667 39,50.5C 39.3768,51.9423 40.2101,52.9423 41.5,53.5C 41.6107,54.1174 41.944,54.6174 42.5,55C 49.5,55.3333 56.5,55.6667 63.5,56C 64.3802,57.3561 64.7135,58.8561 64.5,60.5C 61.9455,61.388 59.2788,61.7214 56.5,61.5C 52.5669,60.8574 49.2336,61.8574 46.5,64.5C 45.7611,64.631 45.0944,64.4643 44.5,64C 45.3366,62.9887 45.67,61.8221 45.5,60.5C 43.5,60.5 41.5,60.5 39.5,60.5C 38.391,60.4431 37.391,60.1098 36.5,59.5C 35.5604,51.2212 35.2271,42.8878 35.5,34.5C 35.1826,31.4281 35.5159,28.4281 36.5,25.5C 48.1324,20.1618 58.4657,21.9952 67.5,31C 60.654,31.1717 53.9874,31.6717 47.5,32.5 Z"/></g>
<g><path style="opacity:1" fill="#efd190" d="M 32.5,9.5 C 31.2879,13.2001 31.9546,16.5334 34.5,19.5C 31.4589,21.3619 28.7922,23.6952 26.5,26.5C 23.0882,29.67 20.4216,33.3367 18.5,37.5C 18.8254,33.3498 16.8254,31.3498 12.5,31.5C 11.4163,31.685 10.4163,32.0183 9.5,32.5C 10.5612,29.3777 11.8946,26.3777 13.5,23.5C 18.6789,17.3286 25.0123,12.662 32.5,9.5 Z"/></g>
<g><path style="opacity:1" fill="#37281a" d="M 58.5,2.5 C 81.7494,8.25238 94.4161,23.0857 96.5,47C 96.6491,58.3852 93.3157,68.5519 86.5,77.5C 85.8333,77.5 85.5,77.1667 85.5,76.5C 93.0239,64.1895 95.3573,50.8562 92.5,36.5C 92.2484,32.6733 90.9151,29.3399 88.5,26.5C 88.573,24.9731 87.9063,23.9731 86.5,23.5C 82.3939,16.727 76.7272,11.727 69.5,8.5C 66.7442,6.79624 63.7442,5.46291 60.5,4.5C 59.7375,3.73209 58.7375,3.23209 57.5,3C 57.7284,2.60123 58.0618,2.43456 58.5,2.5 Z"/></g>
<g><path style="opacity:1" fill="#ab8449" d="M 88.5,26.5 C 90.9151,29.3399 92.2484,32.6733 92.5,36.5C 90.0849,33.6601 88.7516,30.3267 88.5,26.5 Z"/></g>
<g><path style="opacity:1" fill="#d8d8d6" d="M 31.5,28.5 C 29.8267,29.343 28.66,30.6763 28,32.5C 27.5014,36.1516 27.3347,39.8183 27.5,43.5C 27.334,48.8437 27.5006,54.1771 28,59.5C 28.4238,62.0254 29.5905,64.0254 31.5,65.5C 32.6955,68.2208 34.6955,69.3874 37.5,69C 39.8333,66.6667 42.1667,64.3333 44.5,62C 42.6183,61.8019 40.9516,61.3019 39.5,60.5C 41.5,60.5 43.5,60.5 45.5,60.5C 45.67,61.8221 45.3366,62.9887 44.5,64C 45.0944,64.4643 45.7611,64.631 46.5,64.5C 45.1667,66.5 43.5,68.1667 41.5,69.5C 40.9569,69.56 40.6236,69.8933 40.5,70.5C 48.1378,71.4975 55.8045,71.8308 63.5,71.5C 51.2754,72.4814 39.2754,72.4814 27.5,71.5C 25.1394,69.8061 23.1394,67.8061 21.5,65.5C 17.9899,58.662 16.6565,51.3287 17.5,43.5C 17.3253,41.3792 17.6586,39.3792 18.5,37.5C 20.4216,33.3367 23.0882,29.67 26.5,26.5C 28.1172,25.962 29.7839,25.6287 31.5,25.5C 31.5,26.5 31.5,27.5 31.5,28.5 Z"/></g>
<g><path style="opacity:1" fill="#e4c87c" d="M 47.5,32.5 C 54.0221,32.1765 60.3554,32.5098 66.5,33.5C 63.5,33.5 60.5,33.5 57.5,33.5C 52.4635,33.4126 47.4635,33.746 42.5,34.5C 43.7804,33.0687 45.4471,32.4021 47.5,32.5 Z"/></g>
<g><path style="opacity:1" fill="#c5a054" d="M 18.5,37.5 C 17.6586,39.3792 17.3253,41.3792 17.5,43.5C 16.596,42.791 16.2627,41.791 16.5,40.5C 12.8215,40.0604 9.48816,40.727 6.5,42.5C 6.58039,38.8351 7.58039,35.5017 9.5,32.5C 10.4163,32.0183 11.4163,31.685 12.5,31.5C 16.8254,31.3498 18.8254,33.3498 18.5,37.5 Z"/></g>
<g><path style="opacity:1" fill="#f0c528" d="M 57.5,33.5 C 60.5,33.5 63.5,33.5 66.5,33.5C 66.8333,34.5 67.5,35.1667 68.5,35.5C 69.209,36.404 70.209,36.7373 71.5,36.5C 71.5,37.8333 71.5,39.1667 71.5,40.5C 67.6286,40.185 63.9619,40.5184 60.5,41.5C 59.129,39.064 58.129,36.3973 57.5,33.5 Z"/></g>
<g><path style="opacity:1" fill="#dccfbc" d="M 25.5,9.5 C 21.0621,13.4356 16.7287,17.6022 12.5,22C 13.056,22.3826 13.3893,22.8826 13.5,23.5C 11.8946,26.3777 10.5612,29.3777 9.5,32.5C 7.58039,35.5017 6.58039,38.8351 6.5,42.5C 6.5,43.5 6.5,44.5 6.5,45.5C 6.5,47.8333 6.5,50.1667 6.5,52.5C 5.67871,49.3586 5.17871,46.0252 5,42.5C 4.50085,47.1548 4.33418,51.8215 4.5,56.5C 3.51836,53.0381 3.18503,49.3714 3.5,45.5C 4.57726,38.5171 6.57726,31.8504 9.5,25.5C 13.1667,18.5 18.5,13.1667 25.5,9.5 Z"/></g>
<g><path style="opacity:1" fill="#f6cf2e" d="M 40.5,37.5 C 41.1649,41.8202 41.8316,46.1535 42.5,50.5C 42.4805,51.7261 42.1471,52.7261 41.5,53.5C 40.2101,52.9423 39.3768,51.9423 39,50.5C 38.8333,48.6667 38.6667,46.8333 38.5,45C 38.2999,42.1345 38.9666,39.6345 40.5,37.5 Z"/></g>
<g><path style="opacity:1" fill="#e6d8b1" d="M 68.5,35.5 C 73.1225,34.4082 74.9558,36.0748 74,40.5C 73.6667,40.1667 73.3333,39.8333 73,39.5C 70.7988,40.9959 68.2988,41.9959 65.5,42.5C 59.2015,43.4963 52.8682,43.8297 46.5,43.5C 51.1667,42.8333 55.8333,42.1667 60.5,41.5C 63.9619,40.5184 67.6286,40.185 71.5,40.5C 71.5,39.1667 71.5,37.8333 71.5,36.5C 70.209,36.7373 69.209,36.404 68.5,35.5 Z"/></g>
<g><path style="opacity:1" fill="#cca965" d="M 88.5,36.5 C 91.4477,41.9345 92.1144,47.6012 90.5,53.5C 91.1132,48.6968 90.7799,46.3635 89.5,46.5C 86.5525,46.7771 83.7191,46.4438 81,45.5C 80.8138,48.0356 80.3138,50.369 79.5,52.5C 79.5,48.1667 79.5,43.8333 79.5,39.5C 79.238,38.0222 79.5713,36.6888 80.5,35.5C 82.4134,34.627 84.2467,33.627 86,32.5C 86.6082,34.0664 87.4415,35.3998 88.5,36.5 Z"/></g>
<g><path style="opacity:1" fill="#6c4f27" d="M 9.5,25.5 C 6.57726,31.8504 4.57726,38.5171 3.5,45.5C 2.83333,45.5 2.16667,45.5 1.5,45.5C 1.52053,38.4426 3.52053,32.1093 7.5,26.5C 8.16667,26.1667 8.83333,25.8333 9.5,25.5 Z"/></g>
<g><path style="opacity:1" fill="#0f0c0d" d="M 31.5,28.5 C 31.4551,31.0772 32.4551,33.0772 34.5,34.5C 34.6663,41.8409 34.4997,49.1742 34,56.5C 31.2599,52.3533 29.0933,48.02 27.5,43.5C 27.3347,39.8183 27.5014,36.1516 28,32.5C 28.66,30.6763 29.8267,29.343 31.5,28.5 Z"/></g>
<g><path style="opacity:1" fill="#3e2b15" d="M 1.5,45.5 C 2.16667,45.5 2.83333,45.5 3.5,45.5C 3.18503,49.3714 3.51836,53.0381 4.5,56.5C 4.5,56.8333 4.5,57.1667 4.5,57.5C 4.78448,59.4147 4.45115,61.0813 3.5,62.5C 2.28998,56.9045 1.62332,51.2378 1.5,45.5 Z"/></g>
<g><path style="opacity:1" fill="#996f17" d="M 6.5,45.5 C 9.66801,46.792 12.8347,46.792 16,45.5C 16.1998,49.7533 16.6998,53.92 17.5,58C 14.9373,59.0793 12.2706,59.5793 9.5,59.5C 9.73731,60.791 9.40397,61.791 8.5,62.5C 7.21319,59.302 6.54652,55.9686 6.5,52.5C 6.5,50.1667 6.5,47.8333 6.5,45.5 Z"/></g>
<g><path style="opacity:1" fill="#a17825" d="M 90.5,53.5 C 89.6341,59.0969 87.9675,64.4302 85.5,69.5C 84.2479,66.4265 81.9146,64.5931 78.5,64C 77.7476,63.3292 77.4142,62.4959 77.5,61.5C 78.1667,58.5 78.8333,55.5 79.5,52.5C 80.3138,50.369 80.8138,48.0356 81,45.5C 83.7191,46.4438 86.5525,46.7771 89.5,46.5C 90.7799,46.3635 91.1132,48.6968 90.5,53.5 Z"/></g>
<g><path style="opacity:1" fill="#db9f14" d="M 57.5,33.5 C 58.129,36.3973 59.129,39.064 60.5,41.5C 55.8333,42.1667 51.1667,42.8333 46.5,43.5C 45.1991,44.8845 45.1991,46.3845 46.5,48C 52.8333,48.3333 59.1667,48.6667 65.5,49C 69.0611,49.7277 71.0611,51.8943 71.5,55.5C 71.665,58.8499 71.4983,62.1832 71,65.5C 70.6232,66.9423 69.7899,67.9423 68.5,68.5C 66.649,66.1314 65.3157,63.4647 64.5,60.5C 64.7135,58.8561 64.3802,57.3561 63.5,56C 56.5,55.6667 49.5,55.3333 42.5,55C 41.944,54.6174 41.6107,54.1174 41.5,53.5C 42.1471,52.7261 42.4805,51.7261 42.5,50.5C 41.8316,46.1535 41.1649,41.8202 40.5,37.5C 41.1667,36.5 41.8333,35.5 42.5,34.5C 47.4635,33.746 52.4635,33.4126 57.5,33.5 Z"/></g>
<g><path style="opacity:1" fill="#ca8603" d="M 47.5,49.5 C 51.1667,49.5 54.8333,49.5 58.5,49.5C 58.7135,51.1439 58.3802,52.6439 57.5,54C 54.1832,54.4983 50.8499,54.665 47.5,54.5C 47.5,52.8333 47.5,51.1667 47.5,49.5 Z"/></g>
<g><path style="opacity:1" fill="#b1893c" d="M 17.5,43.5 C 16.6565,51.3287 17.9899,58.662 21.5,65.5C 19.2603,66.2644 16.9269,67.0977 14.5,68C 13.9152,69.3024 13.2485,70.469 12.5,71.5C 10.8946,68.6223 9.56123,65.6223 8.5,62.5C 9.40397,61.791 9.73731,60.791 9.5,59.5C 12.2706,59.5793 14.9373,59.0793 17.5,58C 16.6998,53.92 16.1998,49.7533 16,45.5C 12.8347,46.792 9.66801,46.792 6.5,45.5C 6.5,44.5 6.5,43.5 6.5,42.5C 9.48816,40.727 12.8215,40.0604 16.5,40.5C 16.2627,41.791 16.596,42.791 17.5,43.5 Z"/></g>
<g><path style="opacity:1" fill="#1a1617" d="M 36.5,59.5 C 37.391,60.1098 38.391,60.4431 39.5,60.5C 40.9516,61.3019 42.6183,61.8019 44.5,62C 42.1667,64.3333 39.8333,66.6667 37.5,69C 34.6955,69.3874 32.6955,68.2208 31.5,65.5C 33.177,63.4602 34.8437,61.4602 36.5,59.5 Z"/></g>
<g><path style="opacity:1" fill="#514f51" d="M 34.5,34.5 C 34.8333,34.5 35.1667,34.5 35.5,34.5C 35.2271,42.8878 35.5604,51.2212 36.5,59.5C 34.8437,61.4602 33.177,63.4602 31.5,65.5C 29.5905,64.0254 28.4238,62.0254 28,59.5C 27.5006,54.1771 27.334,48.8437 27.5,43.5C 29.0933,48.02 31.2599,52.3533 34,56.5C 34.4997,49.1742 34.6663,41.8409 34.5,34.5 Z"/></g>
<g><path style="opacity:1" fill="#6f614f" d="M 4.5,57.5 C 5.40247,60.9968 6.06914,64.6634 6.5,68.5C 5.13022,66.7496 4.13022,64.7496 3.5,62.5C 4.45115,61.0813 4.78448,59.4147 4.5,57.5 Z"/></g>
<g><path style="opacity:1" fill="#f5d030" d="M 64.5,60.5 C 65.3157,63.4647 66.649,66.1314 68.5,68.5C 67.4863,69.6737 66.153,70.3404 64.5,70.5C 62.8333,70.5 61.1667,70.5 59.5,70.5C 59.5,67.8333 59.5,65.1667 59.5,62.5C 58.209,62.7373 57.209,62.404 56.5,61.5C 59.2788,61.7214 61.9455,61.388 64.5,60.5 Z"/></g>
<g><path style="opacity:1" fill="#e9e3d6" d="M 6.5,52.5 C 6.54652,55.9686 7.21319,59.302 8.5,62.5C 9.56123,65.6223 10.8946,68.6223 12.5,71.5C 19.1117,81.8085 28.445,88.1419 40.5,90.5C 40.8333,90.5 41.1667,90.5 41.5,90.5C 46.6509,91.3267 51.9842,91.8267 57.5,92C 51.9284,93.3507 46.2617,93.8507 40.5,93.5C 33.011,92.5885 26.3444,89.7552 20.5,85C 15.5599,80.5681 11.2265,75.7347 7.5,70.5C 6.66175,70.1583 6.32842,69.4916 6.5,68.5C 6.06914,64.6634 5.40247,60.9968 4.5,57.5C 4.5,57.1667 4.5,56.8333 4.5,56.5C 4.33418,51.8215 4.50085,47.1548 5,42.5C 5.17871,46.0252 5.67871,49.3586 6.5,52.5 Z"/></g>
<g><path style="opacity:1" fill="#e2a70d" d="M 56.5,61.5 C 57.209,62.404 58.209,62.7373 59.5,62.5C 59.5,65.1667 59.5,67.8333 59.5,70.5C 53.31,70.8229 47.31,70.4896 41.5,69.5C 43.5,68.1667 45.1667,66.5 46.5,64.5C 49.2336,61.8574 52.5669,60.8574 56.5,61.5 Z"/></g>
<g><path style="opacity:1" fill="#dddbd8" d="M 70.5,26.5 C 74.6999,30.0282 77.6999,34.3615 79.5,39.5C 79.5,43.8333 79.5,48.1667 79.5,52.5C 78.8333,55.5 78.1667,58.5 77.5,61.5C 72.9345,70.4029 65.9345,76.4029 56.5,79.5C 50.1799,80.7876 43.8466,80.7876 37.5,79.5C 33.8017,77.314 30.4683,74.6473 27.5,71.5C 39.2754,72.4814 51.2754,72.4814 63.5,71.5C 64.1667,71.5 64.5,71.1667 64.5,70.5C 66.153,70.3404 67.4863,69.6737 68.5,68.5C 69.7899,67.9423 70.6232,66.9423 71,65.5C 71.4983,62.1832 71.665,58.8499 71.5,55.5C 72.2679,56.2625 72.7679,57.2625 73,58.5C 75.4555,50.7102 76.1222,42.7102 75,34.5C 72.7159,32.2643 71.2159,29.5976 70.5,26.5 Z"/></g>
<g><path style="opacity:1" fill="#e6c261" d="M 41.5,69.5 C 47.31,70.4896 53.31,70.8229 59.5,70.5C 61.1667,70.5 62.8333,70.5 64.5,70.5C 64.5,71.1667 64.1667,71.5 63.5,71.5C 55.8045,71.8308 48.1378,71.4975 40.5,70.5C 40.6236,69.8933 40.9569,69.56 41.5,69.5 Z"/></g>
<g><path style="opacity:1" fill="#debb75" d="M 21.5,65.5 C 23.1394,67.8061 25.1394,69.8061 27.5,71.5C 30.4683,74.6473 33.8017,77.314 37.5,79.5C 36.325,79.281 35.325,79.6143 34.5,80.5C 33.8333,82.1667 33.1667,83.8333 32.5,85.5C 34.8915,87.6912 37.5582,89.3578 40.5,90.5C 28.445,88.1419 19.1117,81.8085 12.5,71.5C 13.2485,70.469 13.9152,69.3024 14.5,68C 16.9269,67.0977 19.2603,66.2644 21.5,65.5 Z"/></g>
<g><path style="opacity:1" fill="#d9b56d" d="M 77.5,61.5 C 77.4142,62.4959 77.7476,63.3292 78.5,64C 81.9146,64.5931 84.2479,66.4265 85.5,69.5C 81.4444,77.2222 75.4444,82.8889 67.5,86.5C 66.9355,79.3814 63.2688,77.0481 56.5,79.5C 65.9345,76.4029 72.9345,70.4029 77.5,61.5 Z"/></g>
<g><path style="opacity:1" fill="#e2dccb" d="M 60.5,4.5 C 63.7442,5.46291 66.7442,6.79624 69.5,8.5C 75.3861,13.0404 81.0528,18.0404 86.5,23.5C 87.9063,23.9731 88.573,24.9731 88.5,26.5C 88.7516,30.3267 90.0849,33.6601 92.5,36.5C 95.3573,50.8562 93.0239,64.1895 85.5,76.5C 81.4915,81.6795 76.4915,85.6795 70.5,88.5C 68.095,88.8664 65.7617,89.5331 63.5,90.5C 62.8333,90.3333 62.1667,90.1667 61.5,90C 62.7375,89.7679 63.7375,89.2679 64.5,88.5C 64.9731,87.0937 65.9731,86.427 67.5,86.5C 75.4444,82.8889 81.4444,77.2222 85.5,69.5C 87.9675,64.4302 89.6341,59.0969 90.5,53.5C 92.1144,47.6012 91.4477,41.9345 88.5,36.5C 87.0515,27.3796 82.3848,20.3796 74.5,15.5C 70.6556,11.6896 65.9889,9.35624 60.5,8.5C 58.5648,7.85048 56.5648,7.51715 54.5,7.5C 46.9709,5.82455 39.6376,6.49122 32.5,9.5C 25.0123,12.662 18.6789,17.3286 13.5,23.5C 13.3893,22.8826 13.056,22.3826 12.5,22C 16.7287,17.6022 21.0621,13.4356 25.5,9.5C 27.9422,7.77424 30.6089,6.27424 33.5,5C 42.473,3.20509 51.473,3.03842 60.5,4.5 Z"/></g>
<g><path style="opacity:1" fill="#dbb770" d="M 60.5,8.5 C 65.9889,9.35624 70.6556,11.6896 74.5,15.5C 71.6301,17.538 68.9635,19.8713 66.5,22.5C 62.6456,21.0698 58.9789,19.4031 55.5,17.5C 56.8333,17.5 58.1667,17.5 59.5,17.5C 60.1587,14.5448 60.4921,11.5448 60.5,8.5 Z"/></g>
<g><path style="opacity:1" fill="#b0862d" d="M 54.5,7.5 C 56.5648,7.51715 58.5648,7.85048 60.5,8.5C 60.4921,11.5448 60.1587,14.5448 59.5,17.5C 58.1667,17.5 56.8333,17.5 55.5,17.5C 54.5,17.5 53.5,17.5 52.5,17.5C 48.3155,16.8336 43.9822,16.1669 39.5,15.5C 36.5586,12.4569 36.8919,9.9569 40.5,8C 45.1548,7.50085 49.8215,7.33418 54.5,7.5 Z"/></g>
<g><path style="opacity:1" fill="#c9a458" d="M 54.5,7.5 C 49.8215,7.33418 45.1548,7.50085 40.5,8C 36.8919,9.9569 36.5586,12.4569 39.5,15.5C 43.9822,16.1669 48.3155,16.8336 52.5,17.5C 46.3456,17.1004 40.3456,17.7671 34.5,19.5C 31.9546,16.5334 31.2879,13.2001 32.5,9.5C 39.6376,6.49122 46.9709,5.82455 54.5,7.5 Z"/></g>
<g><path style="opacity:1" fill="#877d6d" d="M 7.5,70.5 C 11.2265,75.7347 15.5599,80.5681 20.5,85C 26.3444,89.7552 33.011,92.5885 40.5,93.5C 41.5676,94.4345 42.901,94.7678 44.5,94.5C 47.6248,95.4794 50.9581,95.8128 54.5,95.5C 36.1025,97.8933 21.2691,91.5599 10,76.5C 8.87803,74.5932 8.04469,72.5932 7.5,70.5 Z"/></g>
<g><path style="opacity:1" fill="#b48d3b" d="M 67.5,86.5 C 65.9731,86.427 64.9731,87.0937 64.5,88.5C 61.8333,88.8333 59.1667,89.1667 56.5,89.5C 57.388,86.9455 57.7214,84.2788 57.5,81.5C 51.3691,80.9078 45.5358,81.5745 40,83.5C 39.7266,85.1012 39.2266,86.6012 38.5,88C 43.7364,89.339 49.0698,89.839 54.5,89.5C 50.3656,90.4849 46.0323,90.8182 41.5,90.5C 41.1667,90.5 40.8333,90.5 40.5,90.5C 37.5582,89.3578 34.8915,87.6912 32.5,85.5C 33.1667,83.8333 33.8333,82.1667 34.5,80.5C 35.325,79.6143 36.325,79.281 37.5,79.5C 43.8466,80.7876 50.1799,80.7876 56.5,79.5C 63.2688,77.0481 66.9355,79.3814 67.5,86.5 Z"/></g>
<g><path style="opacity:1" fill="#9c7219" d="M 56.5,89.5 C 55.8333,89.5 55.1667,89.5 54.5,89.5C 49.0698,89.839 43.7364,89.339 38.5,88C 39.2266,86.6012 39.7266,85.1012 40,83.5C 45.5358,81.5745 51.3691,80.9078 57.5,81.5C 57.7214,84.2788 57.388,86.9455 56.5,89.5 Z"/></g>
<g><path style="opacity:1" fill="#decda7" d="M 64.5,88.5 C 63.7375,89.2679 62.7375,89.7679 61.5,90C 62.1667,90.1667 62.8333,90.3333 63.5,90.5C 65.7617,89.5331 68.095,88.8664 70.5,88.5C 62.5669,93.1328 53.9002,95.1328 44.5,94.5C 42.901,94.7678 41.5676,94.4345 40.5,93.5C 46.2617,93.8507 51.9284,93.3507 57.5,92C 51.9842,91.8267 46.6509,91.3267 41.5,90.5C 46.0323,90.8182 50.3656,90.4849 54.5,89.5C 55.1667,89.5 55.8333,89.5 56.5,89.5C 59.1667,89.1667 61.8333,88.8333 64.5,88.5 Z"/></g>
<g><path style="opacity:1" fill="#5b4d3b" d="M 85.5,76.5 C 85.5,77.1667 85.8333,77.5 86.5,77.5C 78.5065,88.1412 67.8399,94.1412 54.5,95.5C 50.9581,95.8128 47.6248,95.4794 44.5,94.5C 53.9002,95.1328 62.5669,93.1328 70.5,88.5C 76.4915,85.6795 81.4915,81.6795 85.5,76.5 Z"/></g>
</svg>
