<?xml version="1.0" encoding="UTF-8"?>
<!DOCTYPE svg PUBLIC "-//W3C//DTD SVG 1.1//EN" "http://www.w3.org/Graphics/SVG/1.1/DTD/svg11.dtd">
<svg xmlns="http://www.w3.org/2000/svg" version="1.1" width="79px" height="79px" style="shape-rendering:geometricPrecision; text-rendering:geometricPrecision; image-rendering:optimizeQuality; fill-rule:evenodd; clip-rule:evenodd" xmlns:xlink="http://www.w3.org/1999/xlink">
<g><path style="opacity:0.999" fill="#fccce0" d="M 30.5,-0.5 C 36.5,-0.5 42.5,-0.5 48.5,-0.5C 48.8417,0.338246 49.5084,0.67158 50.5,0.5C 51.3065,1.72813 52.3065,2.72813 53.5,3.5C 53.0377,4.87989 52.0377,5.54656 50.5,5.5C 46.2127,4.62546 41.8794,4.29213 37.5,4.5C 35.5148,3.07556 32.8482,2.07556 29.5,1.5C 29.5,1.16667 29.5,0.833333 29.5,0.5C 30.1667,0.5 30.5,0.166667 30.5,-0.5 Z"/></g>
<g><path style="opacity:0.482" fill="#5f4a80" d="M 50.5,0.5 C 54.0632,1.28239 57.3965,2.61572 60.5,4.5C 60.1959,6.79568 59.1959,7.12901 57.5,5.5C 55.9382,5.26714 54.6049,4.60048 53.5,3.5C 52.3065,2.72813 51.3065,1.72813 50.5,0.5 Z"/></g>
<g><path style="opacity:0.999" fill="#fecfe1" d="M 29.5,1.5 C 32.8482,2.07556 35.5148,3.07556 37.5,4.5C 37.5,4.83333 37.5,5.16667 37.5,5.5C 31.4061,5.75392 25.7395,7.42059 20.5,10.5C 19.375,9.65225 19.375,8.65225 20.5,7.5C 23.0127,4.74541 26.0127,2.74541 29.5,1.5 Z"/></g>
<g><path style="opacity:0.991" fill="#fdc2d3" d="M 53.5,3.5 C 54.6049,4.60048 55.9382,5.26714 57.5,5.5C 57.5106,7.01739 58.1772,8.18405 59.5,9C 58.9056,9.46434 58.2389,9.63101 57.5,9.5C 51.2274,6.30061 44.5608,4.96728 37.5,5.5C 37.5,5.16667 37.5,4.83333 37.5,4.5C 41.8794,4.29213 46.2127,4.62546 50.5,5.5C 52.0377,5.54656 53.0377,4.87989 53.5,3.5 Z"/></g>
<g><path style="opacity:0.972" fill="#fec4d5" d="M 34.5,6.5 C 37.5,6.5 40.5,6.5 43.5,6.5C 43.5858,7.4959 43.2524,8.32924 42.5,9C 45.0456,10.5213 45.0456,12.0213 42.5,13.5C 41.6618,13.8417 41.3284,14.5084 41.5,15.5C 40.8333,15.5 40.1667,15.5 39.5,15.5C 39.1667,12.8333 38.8333,12.8333 38.5,15.5C 37.8333,15.8333 37.1667,16.1667 36.5,16.5C 34.1625,14.9893 33.4958,15.3227 34.5,17.5C 34.5,17.8333 34.5,18.1667 34.5,18.5C 32.2729,17.5994 31.2729,15.9328 31.5,13.5C 31.0825,12.7784 30.4158,12.2784 29.5,12C 32.1667,10.6667 34.8333,9.33333 37.5,8C 36.2625,7.76791 35.2625,7.26791 34.5,6.5 Z"/></g>
<g><path style="opacity:0.976" fill="#eda9c3" d="M 43.5,6.5 C 48.8207,7.15636 53.4874,9.15636 57.5,12.5C 54.7794,13.5032 52.1128,13.1699 49.5,11.5C 47.6653,13.1609 45.6653,14.6609 43.5,16C 44.0442,16.7172 44.7109,17.2172 45.5,17.5C 45.5,17.8333 45.5,18.1667 45.5,18.5C 44.391,18.5569 43.391,18.8902 42.5,19.5C 41.6618,19.1583 41.3284,18.4916 41.5,17.5C 42.4345,16.4324 42.7678,15.099 42.5,13.5C 45.0456,12.0213 45.0456,10.5213 42.5,9C 43.2524,8.32924 43.5858,7.4959 43.5,6.5 Z"/></g>
<g><path style="opacity:1" fill="#c26a81" d="M 60.5,4.5 C 61.8333,5.16667 62.8333,6.16667 63.5,7.5C 63.6107,8.11742 63.944,8.61742 64.5,9C 62.9371,9.75891 61.9371,10.9256 61.5,12.5C 59.7697,11.9744 58.4363,10.9744 57.5,9.5C 58.2389,9.63101 58.9056,9.46434 59.5,9C 58.1772,8.18405 57.5106,7.01739 57.5,5.5C 59.1959,7.12901 60.1959,6.79568 60.5,4.5 Z"/></g>
<g><path style="opacity:0.965" fill="#fdabbc" d="M 20.5,7.5 C 19.375,8.65225 19.375,9.65225 20.5,10.5C 17.1938,13.1395 14.1938,16.1395 11.5,19.5C 10.9033,19.2648 10.5699,18.7648 10.5,18C 12.2088,12.9737 15.5422,9.47373 20.5,7.5 Z"/></g>
<g><path style="opacity:0.991" fill="#fecbdc" d="M 34.5,6.5 C 35.2625,7.26791 36.2625,7.76791 37.5,8C 34.8333,9.33333 32.1667,10.6667 29.5,12C 30.4158,12.2784 31.0825,12.7784 31.5,13.5C 30.5084,13.3284 29.8417,13.6618 29.5,14.5C 26.5118,16.273 23.1785,16.9396 19.5,16.5C 19.5,15.5 19.5,14.5 19.5,13.5C 23.8123,9.84568 28.8123,7.51235 34.5,6.5 Z"/></g>
<g><path style="opacity:1" fill="#5a6496" d="M 63.5,7.5 C 66.0892,8.41938 68.0892,10.086 69.5,12.5C 67.9275,13.6873 66.2608,14.6873 64.5,15.5C 63.1667,14.8333 62.1667,13.8333 61.5,12.5C 61.9371,10.9256 62.9371,9.75891 64.5,9C 63.944,8.61742 63.6107,8.11742 63.5,7.5 Z"/></g>
<g><path style="opacity:1" fill="#f992a4" d="M 29.5,0.5 C 29.5,0.833333 29.5,1.16667 29.5,1.5C 26.0127,2.74541 23.0127,4.74541 20.5,7.5C 15.5422,9.47373 12.2088,12.9737 10.5,18C 10.5699,18.7648 10.9033,19.2648 11.5,19.5C 9.91378,21.6705 8.58044,24.0038 7.5,26.5C 6.62356,26.6309 5.95689,26.2975 5.5,25.5C 8.05142,18.6528 11.3848,12.3195 15.5,6.5C 19.6782,3.41223 24.3448,1.41223 29.5,0.5 Z"/></g>
<g><path style="opacity:1" fill="#c185a5" d="M 57.5,12.5 C 59.0269,12.427 60.0269,13.0937 60.5,14.5C 56.6286,14.185 52.9619,14.5184 49.5,15.5C 48.0177,17.8907 46.3511,20.2241 44.5,22.5C 43.8333,22.5 43.5,22.8333 43.5,23.5C 41.2646,23.2053 39.2646,23.5386 37.5,24.5C 36.8333,24.5 36.1667,24.5 35.5,24.5C 35.5,24.1667 35.5,23.8333 35.5,23.5C 37.0586,21.7499 39.0586,20.7499 41.5,20.5C 43.2916,21.4728 44.625,20.8061 45.5,18.5C 46.8333,18.1667 46.8333,17.8333 45.5,17.5C 44.7109,17.2172 44.0442,16.7172 43.5,16C 45.6653,14.6609 47.6653,13.1609 49.5,11.5C 52.1128,13.1699 54.7794,13.5032 57.5,12.5 Z"/></g>
<g><path style="opacity:0.851" fill="#d16c83" d="M 69.5,12.5 C 70.8333,13.1667 71.8333,14.1667 72.5,15.5C 69.8333,15.5 67.1667,15.5 64.5,15.5C 66.2608,14.6873 67.9275,13.6873 69.5,12.5 Z"/></g>
<g><path style="opacity:0.999" fill="#fcc1d3" d="M 19.5,13.5 C 19.5,14.5 19.5,15.5 19.5,16.5C 23.1785,16.9396 26.5118,16.273 29.5,14.5C 30.1667,15.8333 30.8333,17.1667 31.5,18.5C 29.0065,18.1307 28.3398,18.7973 29.5,20.5C 29.1667,20.5 28.8333,20.5 28.5,20.5C 24.9221,21.5887 21.2554,21.7554 17.5,21C 16.7476,20.3292 16.4142,19.4959 16.5,18.5C 16.5,17.8333 16.5,17.1667 16.5,16.5C 17.1667,15.1667 18.1667,14.1667 19.5,13.5 Z"/></g>
<g><path style="opacity:1" fill="#977199" d="M 60.5,14.5 C 61.8333,15.1667 62.8333,16.1667 63.5,17.5C 61.2597,18.973 58.7597,19.973 56,20.5C 54.2458,18.75 52.0792,18.0833 49.5,18.5C 49.5,17.5 49.5,16.5 49.5,15.5C 52.9619,14.5184 56.6286,14.185 60.5,14.5 Z"/></g>
<g><path style="opacity:1" fill="#febdd0" d="M 16.5,18.5 C 16.4142,19.4959 16.7476,20.3292 17.5,21C 21.2554,21.7554 24.9221,21.5887 28.5,20.5C 28.8016,23.0593 28.4682,25.3926 27.5,27.5C 21.2253,28.7061 17.2253,26.3728 15.5,20.5C 15.5427,19.5836 15.8761,18.9169 16.5,18.5 Z"/></g>
<g><path style="opacity:1" fill="#fdb6c8" d="M 16.5,16.5 C 16.5,17.1667 16.5,17.8333 16.5,18.5C 15.8761,18.9169 15.5427,19.5836 15.5,20.5C 17.2253,26.3728 21.2253,28.7061 27.5,27.5C 27.1667,28.1667 26.8333,28.8333 26.5,29.5C 25.1667,29.8333 23.8333,30.1667 22.5,30.5C 16.9637,28.9593 13.9637,25.2926 13.5,19.5C 14.1667,18.1667 15.1667,17.1667 16.5,16.5 Z"/></g>
<g><path style="opacity:0.675" fill="#8f6992" d="M 38.5,15.5 C 38.8333,16.8333 39.1667,16.8333 39.5,15.5C 40.1667,15.5 40.8333,15.5 41.5,15.5C 41.5,16.1667 41.5,16.8333 41.5,17.5C 41.3284,18.4916 41.6618,19.1583 42.5,19.5C 42.5,20.1667 42.1667,20.5 41.5,20.5C 39.0586,20.7499 37.0586,21.7499 35.5,23.5C 35.5,23.1667 35.5,22.8333 35.5,22.5C 35.5,21.8333 35.1667,21.5 34.5,21.5C 33.8333,21.5 33.1667,21.5 32.5,21.5C 31.7784,21.0825 31.2784,20.4158 31,19.5C 30.6174,20.056 30.1174,20.3893 29.5,20.5C 28.3398,18.7973 29.0065,18.1307 31.5,18.5C 32.6522,19.625 33.6522,19.625 34.5,18.5C 34.5,18.1667 34.5,17.8333 34.5,17.5C 35.4916,17.6716 36.1583,17.3382 36.5,16.5C 37.1667,16.1667 37.8333,15.8333 38.5,15.5 Z"/></g>
<g><path style="opacity:0.976" fill="#fdaebf" d="M 13.5,19.5 C 13.9637,25.2926 16.9637,28.9593 22.5,30.5C 22.5,30.8333 22.5,31.1667 22.5,31.5C 20.302,31.1201 18.6354,31.7868 17.5,33.5C 15.3817,29.6403 12.3817,27.6403 8.5,27.5C 9.68034,24.4604 11.347,21.7937 13.5,19.5 Z"/></g>
<g><path style="opacity:1" fill="#71527d" d="M 63.5,17.5 C 64.5,17.8333 65.1667,18.5 65.5,19.5C 64.8333,20.1667 64.1667,20.8333 63.5,21.5C 58.4053,21.7787 53.4053,21.4454 48.5,20.5C 48.3284,19.5084 48.6618,18.8417 49.5,18.5C 52.0792,18.0833 54.2458,18.75 56,20.5C 58.7597,19.973 61.2597,18.973 63.5,17.5 Z"/></g>
<g><path style="opacity:1" fill="#5495c6" d="M 64.5,15.5 C 67.1667,15.5 69.8333,15.5 72.5,15.5C 74.0248,17.2163 75.0248,19.2163 75.5,21.5C 74.9645,26.3118 75.9645,30.6452 78.5,34.5C 78.5,35.1667 78.5,35.8333 78.5,36.5C 77.0689,36.1193 76.2355,35.1193 76,33.5C 74.872,35.3453 74.372,37.3453 74.5,39.5C 74.5,40.1667 74.1667,40.5 73.5,40.5C 73.857,30.9006 70.857,22.5673 64.5,15.5 Z"/></g>
<g><path style="opacity:1" fill="#5d3d6c" d="M 48.5,20.5 C 53.4053,21.4454 58.4053,21.7787 63.5,21.5C 63.4142,22.4959 63.7476,23.3292 64.5,24C 63.5842,24.2784 62.9175,24.7784 62.5,25.5C 56.7255,24.6515 51.0588,24.3181 45.5,24.5C 42.976,24.957 40.3093,24.957 37.5,24.5C 39.2646,23.5386 41.2646,23.2053 43.5,23.5C 44.1667,23.5 44.5,23.1667 44.5,22.5C 46.0618,22.2671 47.3951,21.6005 48.5,20.5 Z"/></g>
<g><path style="opacity:1" fill="#492d5d" d="M 45.5,24.5 C 51.0588,24.3181 56.7255,24.6515 62.5,25.5C 62.2178,26.7777 61.5511,27.7777 60.5,28.5C 57.1667,28.5 53.8333,28.5 50.5,28.5C 50.5,29.8333 50.5,31.1667 50.5,32.5C 49.5,32.1667 48.8333,31.5 48.5,30.5C 48.3167,28.0122 47.3167,26.0122 45.5,24.5 Z"/></g>
<g><path style="opacity:0.918" fill="#9b3244" d="M 75.5,21.5 C 76.6873,23.0725 77.6873,24.7392 78.5,26.5C 78.5,29.1667 78.5,31.8333 78.5,34.5C 75.9645,30.6452 74.9645,26.3118 75.5,21.5 Z"/></g>
<g><path style="opacity:1" fill="#4f6ca7" d="M 32.5,22.5 C 32.5,22.1667 32.5,21.8333 32.5,21.5C 33.1667,21.5 33.8333,21.5 34.5,21.5C 35.1667,21.5 35.5,21.8333 35.5,22.5C 35.5,22.8333 35.5,23.1667 35.5,23.5C 34.1667,23.8333 34.1667,24.1667 35.5,24.5C 36.1667,24.5 36.8333,24.5 37.5,24.5C 40.3093,24.957 42.976,24.957 45.5,24.5C 47.3167,26.0122 48.3167,28.0122 48.5,30.5C 43.6315,27.308 38.6315,26.9747 33.5,29.5C 32.6586,27.6208 32.3253,25.6208 32.5,23.5C 33.8333,23.1667 33.8333,22.8333 32.5,22.5 Z"/></g>
<g><path style="opacity:1" fill="#471a43" d="M 65.5,19.5 C 66.8897,20.8993 67.8897,22.5659 68.5,24.5C 67.6239,28.8838 66.6239,33.2171 65.5,37.5C 65.1667,37.5 64.8333,37.5 64.5,37.5C 63.5084,37.6716 62.8417,37.3382 62.5,36.5C 62.7128,33.5491 62.0461,30.8825 60.5,28.5C 61.5511,27.7777 62.2178,26.7777 62.5,25.5C 62.9175,24.7784 63.5842,24.2784 64.5,24C 63.7476,23.3292 63.4142,22.4959 63.5,21.5C 64.1667,20.8333 64.8333,20.1667 65.5,19.5 Z"/></g>
<g><path style="opacity:1" fill="#d36a7b" d="M 15.5,6.5 C 11.3848,12.3195 8.05142,18.6528 5.5,25.5C 5.95689,26.2975 6.62356,26.6309 7.5,26.5C 5.93602,30.6737 5.26935,35.007 5.5,39.5C 5.16667,39.5 4.83333,39.5 4.5,39.5C 4.26417,36.0861 3.5975,32.7527 2.5,29.5C 1.71237,30.7701 0.712371,31.7701 -0.5,32.5C -0.5,31.5 -0.5,30.5 -0.5,29.5C 2.43521,20.2206 7.76854,12.5539 15.5,6.5 Z"/></g>
<g><path style="opacity:0.333" fill="#549bd3" d="M 32.5,21.5 C 32.5,21.8333 32.5,22.1667 32.5,22.5C 32.5,22.8333 32.5,23.1667 32.5,23.5C 32.3253,25.6208 32.6586,27.6208 33.5,29.5C 32.5,30.1667 31.5,30.8333 30.5,31.5C 28.8008,31.6602 27.1341,31.4935 25.5,31C 26.056,30.6174 26.3893,30.1174 26.5,29.5C 26.8333,28.8333 27.1667,28.1667 27.5,27.5C 28.4682,25.3926 28.8016,23.0593 28.5,20.5C 28.8333,20.5 29.1667,20.5 29.5,20.5C 30.1174,20.3893 30.6174,20.056 31,19.5C 31.2784,20.4158 31.7784,21.0825 32.5,21.5 Z"/></g>
<g><path style="opacity:1" fill="#4b6da4" d="M 68.5,24.5 C 70.5753,27.827 71.9087,31.4936 72.5,35.5C 70.079,35.8782 67.7457,36.5448 65.5,37.5C 66.6239,33.2171 67.6239,28.8838 68.5,24.5 Z"/></g>
<g><path style="opacity:0.969" fill="#4e98cb" d="M 41.5,29.5 C 47.3832,31.0474 51.3832,34.7141 53.5,40.5C 51.7839,40.3713 50.1172,40.038 48.5,39.5C 47.4181,37.6614 46.5847,35.6614 46,33.5C 44.0077,32.6719 42.5077,31.3386 41.5,29.5 Z"/></g>
<g><path style="opacity:1" fill="#4c275c" d="M 4.5,39.5 C 3.25909,41.9312 2.09243,41.9312 1,39.5C 0.617425,40.056 0.117425,40.3893 -0.5,40.5C -0.5,37.8333 -0.5,35.1667 -0.5,32.5C 0.712371,31.7701 1.71237,30.7701 2.5,29.5C 3.5975,32.7527 4.26417,36.0861 4.5,39.5 Z"/></g>
<g><path style="opacity:1" fill="#4cbae6" d="M 41.5,29.5 C 42.5077,31.3386 44.0077,32.6719 46,33.5C 46.5847,35.6614 47.4181,37.6614 48.5,39.5C 46.549,39.2267 45.049,39.8934 44,41.5C 43.3292,40.7476 42.4959,40.4142 41.5,40.5C 41.4613,37.6786 40.7946,35.0119 39.5,32.5C 38.2638,31.7542 36.9305,31.4208 35.5,31.5C 31.9494,33.7159 31.6161,36.3826 34.5,39.5C 32.712,39.7852 31.0453,39.4519 29.5,38.5C 31.0049,37.1585 31.6715,35.4918 31.5,33.5C 34.0155,30.4326 37.3488,29.0993 41.5,29.5 Z"/></g>
<g><path style="opacity:0.306" fill="#a4d8e5" d="M 35.5,31.5 C 36.9305,31.4208 38.2638,31.7542 39.5,32.5C 40.7946,35.0119 41.4613,37.6786 41.5,40.5C 39.0103,38.8799 36.3437,37.3799 33.5,36C 34.5822,34.6703 35.2488,33.1703 35.5,31.5 Z"/></g>
<g><path style="opacity:0.996" fill="#4974ab" d="M 60.5,28.5 C 62.0461,30.8825 62.7128,33.5491 62.5,36.5C 60.5165,36.6168 58.8498,35.9501 57.5,34.5C 57.1667,34.8333 56.8333,35.1667 56.5,35.5C 59.2813,38.2625 58.6146,39.9292 54.5,40.5C 53.6916,37.5498 52.3582,34.8831 50.5,32.5C 50.5,31.1667 50.5,29.8333 50.5,28.5C 53.8333,28.5 57.1667,28.5 60.5,28.5 Z"/></g>
<g><path style="opacity:0.824" fill="#5181b6" d="M 26.5,29.5 C 26.3893,30.1174 26.056,30.6174 25.5,31C 27.1341,31.4935 28.8008,31.6602 30.5,31.5C 27.7559,33.9837 25.7559,36.9837 24.5,40.5C 23.1667,40.5 21.8333,40.5 20.5,40.5C 20.7076,38.0799 20.3742,35.7466 19.5,33.5C 20.6016,32.8243 21.6016,32.1577 22.5,31.5C 22.5,31.1667 22.5,30.8333 22.5,30.5C 23.8333,30.1667 25.1667,29.8333 26.5,29.5 Z"/></g>
<g><path style="opacity:1" fill="#f290a3" d="M 8.5,27.5 C 12.3817,27.6403 15.3817,29.6403 17.5,33.5C 20.2866,36.1993 20.1199,38.5327 17,40.5C 13.7509,37.7926 11.4176,34.4592 10,30.5C 9.2917,31.3805 8.45837,32.0472 7.5,32.5C 7.62867,30.7839 7.962,29.1172 8.5,27.5 Z"/></g>
<g><path style="opacity:1" fill="#492550" d="M 62.5,36.5 C 62.8417,37.3382 63.5084,37.6716 64.5,37.5C 62.8487,38.9701 61.0153,40.3034 59,41.5C 58.2086,42.745 57.7086,44.0783 57.5,45.5C 57.1667,45.5 56.8333,45.5 56.5,45.5C 55.8333,43.8333 55.1667,42.1667 54.5,40.5C 58.6146,39.9292 59.2813,38.2625 56.5,35.5C 56.8333,35.1667 57.1667,34.8333 57.5,34.5C 58.8498,35.9501 60.5165,36.6168 62.5,36.5 Z"/></g>
<g><path style="opacity:1" fill="#4a9bce" d="M 31.5,33.5 C 31.6715,35.4918 31.0049,37.1585 29.5,38.5C 31.0453,39.4519 32.712,39.7852 34.5,39.5C 35.172,40.2674 36.0053,40.9341 37,41.5C 37.1909,43.7078 37.6909,45.7078 38.5,47.5C 38.5,47.8333 38.5,48.1667 38.5,48.5C 37.0736,46.0178 35.2403,43.6845 33,41.5C 31.9231,42.4295 30.7564,43.0962 29.5,43.5C 28.7222,42.8444 28.0556,42.0111 27.5,41C 28.1476,39.5603 28.4809,38.0603 28.5,36.5C 29.1667,35.1667 30.1667,34.1667 31.5,33.5 Z"/></g>
<g><path style="opacity:1" fill="#61b6dd" d="M 48.5,39.5 C 50.1172,40.038 51.7839,40.3713 53.5,40.5C 54.3813,44.4543 55.0479,48.4543 55.5,52.5C 54.6236,52.6309 53.9569,52.2975 53.5,51.5C 53.0474,48.2487 51.3807,45.9154 48.5,44.5C 47.8165,44.8627 47.1499,45.1961 46.5,45.5C 45.4479,43.744 43.7812,43.0773 41.5,43.5C 41.5,42.5 41.5,41.5 41.5,40.5C 42.4959,40.4142 43.3292,40.7476 44,41.5C 45.049,39.8934 46.549,39.2267 48.5,39.5 Z"/></g>
<g><path style="opacity:1" fill="#524c84" d="M 17.5,33.5 C 18.6354,31.7868 20.302,31.1201 22.5,31.5C 21.6016,32.1577 20.6016,32.8243 19.5,33.5C 20.3742,35.7466 20.7076,38.0799 20.5,40.5C 21.8333,40.5 23.1667,40.5 24.5,40.5C 23.8333,42.1667 23.1667,43.8333 22.5,45.5C 21.8333,45.8333 21.1667,46.1667 20.5,46.5C 20.5,44.8333 20.5,43.1667 20.5,41.5C 18.2188,41.0773 16.5521,41.744 15.5,43.5C 14.7784,43.0825 14.2784,42.4158 14,41.5C 13.6012,41.7284 13.4346,42.0618 13.5,42.5C 12.5267,41.016 11.1933,40.516 9.5,41C 8.90109,42.6225 8.23442,44.1225 7.5,45.5C 6.16667,41.1667 6.16667,36.8333 7.5,32.5C 8.45837,32.0472 9.2917,31.3805 10,30.5C 11.4176,34.4592 13.7509,37.7926 17,40.5C 20.1199,38.5327 20.2866,36.1993 17.5,33.5 Z"/></g>
<g><path style="opacity:1" fill="#4ecbee" d="M 72.5,36.5 C 72.5,37.1667 72.5,37.8333 72.5,38.5C 70.744,39.5521 70.0773,41.2188 70.5,43.5C 69.5,43.5 68.5,43.5 67.5,43.5C 67.5324,48.2129 65.1991,49.7129 60.5,48C 59.6634,46.9887 59.33,45.8221 59.5,44.5C 61.2292,45.1175 62.7292,46.1175 64,47.5C 64.4499,41.8946 67.2832,38.2279 72.5,36.5 Z"/></g>
<g><path style="opacity:1" fill="#4a4981" d="M 4.5,39.5 C 4.83333,39.5 5.16667,39.5 5.5,39.5C 5.39542,44.744 6.39542,49.744 8.5,54.5C 7.5041,54.5858 6.67076,54.2524 6,53.5C 5.76445,55.1193 4.93112,56.1193 3.5,56.5C 1.97475,53.9209 0.641417,51.2542 -0.5,48.5C -0.5,45.8333 -0.5,43.1667 -0.5,40.5C 0.117425,40.3893 0.617425,40.056 1,39.5C 2.09243,41.9312 3.25909,41.9312 4.5,39.5 Z"/></g>
<g><path style="opacity:1" fill="#bf7d9d" d="M 15.5,43.5 C 16.8146,45.1347 16.8146,46.8014 15.5,48.5C 16.1667,49.5 16.8333,50.5 17.5,51.5C 17.3764,52.1067 17.0431,52.44 16.5,52.5C 14.7188,49.7765 13.0521,46.9432 11.5,44C 12.4158,43.7216 13.0825,43.2216 13.5,42.5C 13.4346,42.0618 13.6012,41.7284 14,41.5C 14.2784,42.4158 14.7784,43.0825 15.5,43.5 Z"/></g>
<g><path style="opacity:1" fill="#4d78af" d="M 38.5,48.5 C 36.4939,49.4851 34.8273,50.8184 33.5,52.5C 32.596,53.209 32.2627,54.209 32.5,55.5C 29.5448,56.1587 26.5448,56.4921 23.5,56.5C 23.5,54.8333 23.5,53.1667 23.5,51.5C 24.1174,51.3893 24.6174,51.056 25,50.5C 25.2189,51.938 25.7189,53.2713 26.5,54.5C 27.3857,53.675 27.719,52.675 27.5,51.5C 32.9554,49.9394 33.6221,47.2727 29.5,43.5C 30.7564,43.0962 31.9231,42.4295 33,41.5C 35.2403,43.6845 37.0736,46.0178 38.5,48.5 Z"/></g>
<g><path style="opacity:1" fill="#57c8e9" d="M 35.5,31.5 C 35.2488,33.1703 34.5822,34.6703 33.5,36C 36.3437,37.3799 39.0103,38.8799 41.5,40.5C 41.5,41.5 41.5,42.5 41.5,43.5C 43.7812,43.0773 45.4479,43.744 46.5,45.5C 43.9327,45.7215 41.5994,46.3882 39.5,47.5C 39.1667,47.5 38.8333,47.5 38.5,47.5C 37.6909,45.7078 37.1909,43.7078 37,41.5C 36.0053,40.9341 35.172,40.2674 34.5,39.5C 31.6161,36.3826 31.9494,33.7159 35.5,31.5 Z"/></g>
<g><path style="opacity:1" fill="#489acd" d="M 72.5,35.5 C 72.5,35.8333 72.5,36.1667 72.5,36.5C 67.2832,38.2279 64.4499,41.8946 64,47.5C 62.7292,46.1175 61.2292,45.1175 59.5,44.5C 58.8333,44.8333 58.1667,45.1667 57.5,45.5C 57.7086,44.0783 58.2086,42.745 59,41.5C 61.0153,40.3034 62.8487,38.9701 64.5,37.5C 64.8333,37.5 65.1667,37.5 65.5,37.5C 67.7457,36.5448 70.079,35.8782 72.5,35.5 Z"/></g>
<g><path style="opacity:1" fill="#735584" d="M 28.5,36.5 C 28.4809,38.0603 28.1476,39.5603 27.5,41C 28.0556,42.0111 28.7222,42.8444 29.5,43.5C 33.6221,47.2727 32.9554,49.9394 27.5,51.5C 27.719,52.675 27.3857,53.675 26.5,54.5C 25.7189,53.2713 25.2189,51.938 25,50.5C 24.6174,51.056 24.1174,51.3893 23.5,51.5C 23.7976,45.9483 25.4643,40.9483 28.5,36.5 Z"/></g>
<g><path style="opacity:1" fill="#491c44" d="M 55.5,52.5 C 55.4349,55.4282 54.7682,58.0948 53.5,60.5C 52.1931,59.1984 52.1931,57.865 53.5,56.5C 52.2299,55.7124 51.2299,54.7124 50.5,53.5C 47.9645,48.651 44.9645,48.3176 41.5,52.5C 39.744,51.4479 39.0773,49.7812 39.5,47.5C 41.5994,46.3882 43.9327,45.7215 46.5,45.5C 47.1499,45.1961 47.8165,44.8627 48.5,44.5C 51.3807,45.9154 53.0474,48.2487 53.5,51.5C 53.9569,52.2975 54.6236,52.6309 55.5,52.5 Z"/></g>
<g><path style="opacity:1" fill="#da798f" d="M 22.5,45.5 C 22.5,48.1667 22.5,50.8333 22.5,53.5C 19.2634,52.0028 18.5968,49.6695 20.5,46.5C 21.1667,46.1667 21.8333,45.8333 22.5,45.5 Z"/></g>
<g><path style="opacity:1" fill="#7cd8ea" d="M 72.5,38.5 C 72.4172,43.9498 71.0839,48.9498 68.5,53.5C 67.6868,52.3473 66.6868,52.3473 65.5,53.5C 64.8333,52.5 64.1667,51.5 63.5,50.5C 62.0153,51.4328 60.6819,51.0995 59.5,49.5C 58.791,48.596 57.791,48.2627 56.5,48.5C 56.5,47.5 56.5,46.5 56.5,45.5C 56.8333,45.5 57.1667,45.5 57.5,45.5C 58.1667,45.1667 58.8333,44.8333 59.5,44.5C 59.33,45.8221 59.6634,46.9887 60.5,48C 65.1991,49.7129 67.5324,48.2129 67.5,43.5C 68.5,43.5 69.5,43.5 70.5,43.5C 70.0773,41.2188 70.744,39.5521 72.5,38.5 Z"/></g>
<g><path style="opacity:1" fill="#4aaddc" d="M 78.5,36.5 C 78.5,41.5 78.5,46.5 78.5,51.5C 77.6618,51.8417 77.3284,52.5084 77.5,53.5C 76.7321,52.7375 76.2321,51.7375 76,50.5C 75.6174,51.056 75.1174,51.3893 74.5,51.5C 74.9157,48.5941 75.5824,45.7607 76.5,43C 76.3917,41.3189 75.7251,40.1522 74.5,39.5C 74.372,37.3453 74.872,35.3453 76,33.5C 76.2355,35.1193 77.0689,36.1193 78.5,36.5 Z"/></g>
<g><path style="opacity:1" fill="#471b44" d="M 50.5,53.5 C 49.4138,53.62 48.7472,54.2867 48.5,55.5C 49.8449,57.3228 50.3449,59.3228 50,61.5C 47.0512,59.6273 45.0512,56.9607 44,53.5C 43.3292,52.7476 42.4959,52.4142 41.5,52.5C 44.9645,48.3176 47.9645,48.651 50.5,53.5 Z"/></g>
<g><path style="opacity:1" fill="#4d8cc1" d="M 13.5,42.5 C 13.0825,43.2216 12.4158,43.7216 11.5,44C 13.0521,46.9432 14.7188,49.7765 16.5,52.5C 14.0107,52.2407 12.344,53.2407 11.5,55.5C 9.20567,52.6305 7.87234,49.2971 7.5,45.5C 8.23442,44.1225 8.90109,42.6225 9.5,41C 11.1933,40.516 12.5267,41.016 13.5,42.5 Z"/></g>
<g><path style="opacity:1" fill="#6879b0" d="M 20.5,46.5 C 18.5968,49.6695 19.2634,52.0028 22.5,53.5C 22.5,54.5 22.5,55.5 22.5,56.5C 21.391,56.4431 20.391,56.1098 19.5,55.5C 18.1667,54.8333 17.1667,53.8333 16.5,52.5C 17.0431,52.44 17.3764,52.1067 17.5,51.5C 16.8333,50.5 16.1667,49.5 15.5,48.5C 16.8146,46.8014 16.8146,45.1347 15.5,43.5C 16.5521,41.744 18.2188,41.0773 20.5,41.5C 20.5,43.1667 20.5,44.8333 20.5,46.5 Z"/></g>
<g><path style="opacity:1" fill="#b4dbe9" d="M 59.5,49.5 C 60.6819,51.0995 62.0153,51.4328 63.5,50.5C 64.1667,51.5 64.8333,52.5 65.5,53.5C 66.6868,52.3473 67.6868,52.3473 68.5,53.5C 68.2503,55.674 67.2503,57.3406 65.5,58.5C 63.5,58.1667 61.5,57.8333 59.5,57.5C 60.7966,54.459 60.7966,51.7923 59.5,49.5 Z"/></g>
<g><path style="opacity:1" fill="#4c264e" d="M 38.5,47.5 C 38.8333,47.5 39.1667,47.5 39.5,47.5C 39.0773,49.7812 39.744,51.4479 41.5,52.5C 42.4959,52.4142 43.3292,52.7476 44,53.5C 45.0512,56.9607 47.0512,59.6273 50,61.5C 50.3449,59.3228 49.8449,57.3228 48.5,55.5C 48.7472,54.2867 49.4138,53.62 50.5,53.5C 51.2299,54.7124 52.2299,55.7124 53.5,56.5C 52.1931,57.865 52.1931,59.1984 53.5,60.5C 53.4431,61.609 53.1098,62.609 52.5,63.5C 51.8333,63.5 51.1667,63.5 50.5,63.5C 49.1667,62.8333 47.8333,62.1667 46.5,61.5C 43.7239,56.3392 39.3906,53.3392 33.5,52.5C 34.8273,50.8184 36.4939,49.4851 38.5,48.5C 38.5,48.1667 38.5,47.8333 38.5,47.5 Z"/></g>
<g><path style="opacity:1" fill="#64c1e2" d="M 74.5,39.5 C 75.7251,40.1522 76.3917,41.3189 76.5,43C 75.5824,45.7607 74.9157,48.5941 74.5,51.5C 73.1811,55.1464 70.8478,57.813 67.5,59.5C 71.5058,53.8134 73.5058,47.48 73.5,40.5C 74.1667,40.5 74.5,40.1667 74.5,39.5 Z"/></g>
<g><path style="opacity:1" fill="#7fd4e9" d="M 56.5,48.5 C 57.791,48.2627 58.791,48.596 59.5,49.5C 60.7966,51.7923 60.7966,54.459 59.5,57.5C 61.5,57.8333 63.5,58.1667 65.5,58.5C 64.8902,59.391 64.5569,60.391 64.5,61.5C 64.1667,61.5 63.8333,61.5 63.5,61.5C 61.1667,60.8333 58.8333,60.1667 56.5,59.5C 56.5,55.8333 56.5,52.1667 56.5,48.5 Z"/></g>
<g><path style="opacity:1" fill="#4f3863" d="M 33.5,52.5 C 35.4192,54.8201 37.4192,57.1534 39.5,59.5C 38.8333,60.1667 38.1667,60.8333 37.5,61.5C 34.2247,61.7785 31.2247,62.1118 28.5,62.5C 27.205,61.5116 25.8717,60.5116 24.5,59.5C 24.4431,58.391 24.1098,57.391 23.5,56.5C 26.5448,56.4921 29.5448,56.1587 32.5,55.5C 32.2627,54.209 32.596,53.209 33.5,52.5 Z"/></g>
<g><path style="opacity:1" fill="#4d7aaf" d="M 77.5,53.5 C 75.812,58.2257 73.1454,62.2257 69.5,65.5C 69.7192,61.4726 68.5525,60.8059 66,63.5C 65.5357,62.9056 65.369,62.2389 65.5,61.5C 65.8333,60.5 66.5,59.8333 67.5,59.5C 70.8478,57.813 73.1811,55.1464 74.5,51.5C 75.1174,51.3893 75.6174,51.056 76,50.5C 76.2321,51.7375 76.7321,52.7375 77.5,53.5 Z"/></g>
<g><path style="opacity:0.939" fill="#c55f72" d="M 33.5,52.5 C 39.3906,53.3392 43.7239,56.3392 46.5,61.5C 44.4418,60.0669 42.1085,59.4003 39.5,59.5C 37.4192,57.1534 35.4192,54.8201 33.5,52.5 Z"/></g>
<g><path style="opacity:1" fill="#7bd7ed" d="M 16.5,52.5 C 17.1667,53.8333 18.1667,54.8333 19.5,55.5C 20.038,57.1172 20.3713,58.7839 20.5,60.5C 18.5,60.5 16.5,60.5 14.5,60.5C 13.075,59.078 12.075,57.4113 11.5,55.5C 12.344,53.2407 14.0107,52.2407 16.5,52.5 Z"/></g>
<g><path style="opacity:1" fill="#4d96ca" d="M 8.5,54.5 C 9.78913,57.3915 11.7891,59.7248 14.5,61.5C 14.5,62.1667 14.8333,62.5 15.5,62.5C 15.5,62.8333 15.5,63.1667 15.5,63.5C 13.8615,64.9136 12.5282,64.5803 11.5,62.5C 10.5713,63.6888 10.238,65.0222 10.5,66.5C 6.69268,64.2253 4.35935,60.8919 3.5,56.5C 4.93112,56.1193 5.76445,55.1193 6,53.5C 6.67076,54.2524 7.5041,54.5858 8.5,54.5 Z"/></g>
<g><path style="opacity:0.998" fill="#4bb3e0" d="M 19.5,55.5 C 20.391,56.1098 21.391,56.4431 22.5,56.5C 22.5838,59.3274 23.2504,61.994 24.5,64.5C 23.596,65.209 23.2627,66.209 23.5,67.5C 21.1495,66.1389 18.8162,64.8056 16.5,63.5C 16.5,62.8333 16.1667,62.5 15.5,62.5C 14.8333,62.5 14.5,62.1667 14.5,61.5C 14.5,61.1667 14.5,60.8333 14.5,60.5C 16.5,60.5 18.5,60.5 20.5,60.5C 20.3713,58.7839 20.038,57.1172 19.5,55.5 Z"/></g>
<g><path style="opacity:0.306" fill="#669dce" d="M 24.5,59.5 C 25.8717,60.5116 27.205,61.5116 28.5,62.5C 28.1667,63.5 27.5,64.1667 26.5,64.5C 25.4625,63.0697 24.7959,61.403 24.5,59.5 Z"/></g>
<g><path style="opacity:1" fill="#4c305b" d="M 39.5,59.5 C 42.1085,59.4003 44.4418,60.0669 46.5,61.5C 47.8333,62.1667 49.1667,62.8333 50.5,63.5C 48.9254,65.1137 48.2587,67.1137 48.5,69.5C 48.0269,70.9063 47.0269,71.573 45.5,71.5C 43.8218,68.2983 42.3218,64.965 41,61.5C 39.9614,62.2438 39.4614,63.2438 39.5,64.5C 36.9931,64.3678 36.3264,63.3678 37.5,61.5C 38.1667,60.8333 38.8333,60.1667 39.5,59.5 Z"/></g>
<g><path style="opacity:1" fill="#529cca" d="M 56.5,59.5 C 58.8333,60.1667 61.1667,60.8333 63.5,61.5C 62.8333,62.5 62.1667,63.5 61.5,64.5C 58.3933,65.8887 55.3933,67.5554 52.5,69.5C 52.1667,69.1667 51.8333,68.8333 51.5,68.5C 53.3667,65.5209 55.0333,62.5209 56.5,59.5 Z"/></g>
<g><path style="opacity:0.827" fill="#ce657f" d="M 24.5,64.5 C 25.1408,65.4822 25.8075,66.4822 26.5,67.5C 25.3864,68.7759 24.3864,68.7759 23.5,67.5C 23.2627,66.209 23.596,65.209 24.5,64.5 Z"/></g>
<g><path style="opacity:1" fill="#bf596c" d="M 37.5,61.5 C 36.3264,63.3678 36.9931,64.3678 39.5,64.5C 39.5,66.8333 39.5,69.1667 39.5,71.5C 37.8212,71.2852 36.8212,71.9519 36.5,73.5C 35.1667,73.1667 33.8333,72.8333 32.5,72.5C 30.1153,70.1162 28.1153,67.4495 26.5,64.5C 27.5,64.1667 28.1667,63.5 28.5,62.5C 31.2247,62.1118 34.2247,61.7785 37.5,61.5 Z"/></g>
<g><path style="opacity:1" fill="#49467d" d="M 64.5,61.5 C 64.8333,61.5 65.1667,61.5 65.5,61.5C 65.369,62.2389 65.5357,62.9056 66,63.5C 68.5525,60.8059 69.7192,61.4726 69.5,65.5C 67.9732,67.9385 65.9732,69.9385 63.5,71.5C 61.5,71.8333 59.5,72.1667 57.5,72.5C 57.5,71.1667 57.5,69.8333 57.5,68.5C 59.1392,67.5275 60.4726,66.1942 61.5,64.5C 63.5,64.5 64.5,63.5 64.5,61.5 Z"/></g>
<g><path style="opacity:0.557" fill="#5ec0dc" d="M 50.5,63.5 C 51.1667,63.5 51.8333,63.5 52.5,63.5C 51.5254,65.7952 50.1921,67.7952 48.5,69.5C 48.2587,67.1137 48.9254,65.1137 50.5,63.5 Z"/></g>
<g><path style="opacity:1" fill="#4c8cc0" d="M 15.5,63.5 C 15.8333,63.5 16.1667,63.5 16.5,63.5C 17.8606,65.5273 19.5273,67.194 21.5,68.5C 21.8975,71.4463 22.8975,74.113 24.5,76.5C 18.6998,74.6135 14.0332,71.2802 10.5,66.5C 10.238,65.0222 10.5713,63.6888 11.5,62.5C 12.5282,64.5803 13.8615,64.9136 15.5,63.5 Z"/></g>
<g><path style="opacity:0.731" fill="#b2495c" d="M 45.5,71.5 C 45.5,71.8333 45.5,72.1667 45.5,72.5C 45.1667,72.5 44.8333,72.5 44.5,72.5C 43.8333,72.5 43.5,72.8333 43.5,73.5C 42.3995,74.6049 41.7329,75.9382 41.5,77.5C 40.7777,76.4489 39.7777,75.7822 38.5,75.5C 38.1667,74.5 37.5,73.8333 36.5,73.5C 36.8212,71.9519 37.8212,71.2852 39.5,71.5C 39.5,69.1667 39.5,66.8333 39.5,64.5C 39.4614,63.2438 39.9614,62.2438 41,61.5C 42.3218,64.965 43.8218,68.2983 45.5,71.5 Z"/></g>
<g><path style="opacity:1" fill="#65c7e7" d="M 21.5,68.5 C 25.0087,70.2255 28.6754,71.5589 32.5,72.5C 33.8333,72.8333 35.1667,73.1667 36.5,73.5C 37.5,73.8333 38.1667,74.5 38.5,75.5C 38.4431,76.609 38.1098,77.609 37.5,78.5C 34.5,78.5 31.5,78.5 28.5,78.5C 27.3285,77.6554 25.9952,76.9887 24.5,76.5C 22.8975,74.113 21.8975,71.4463 21.5,68.5 Z"/></g>
<g><path style="opacity:1" fill="#5e3c66" d="M 49.5,71.5 C 50.6962,73.9815 52.1962,73.9815 54,71.5C 54.5074,72.9961 54.0074,74.1627 52.5,75C 49.1242,76.8987 45.4575,77.732 41.5,77.5C 41.7329,75.9382 42.3995,74.6049 43.5,73.5C 44.1667,73.5 44.5,73.1667 44.5,72.5C 44.8333,72.5 45.1667,72.5 45.5,72.5C 46.9587,72.5674 48.2921,72.2341 49.5,71.5 Z"/></g>
<g><path style="opacity:0.988" fill="#507fb5" d="M 57.5,68.5 C 57.5,69.8333 57.5,71.1667 57.5,72.5C 59.5,72.1667 61.5,71.8333 63.5,71.5C 59.5812,74.6257 55.2479,76.959 50.5,78.5C 46.1667,78.5 41.8333,78.5 37.5,78.5C 38.1098,77.609 38.4431,76.609 38.5,75.5C 39.7777,75.7822 40.7777,76.4489 41.5,77.5C 45.4575,77.732 49.1242,76.8987 52.5,75C 54.0074,74.1627 54.5074,72.9961 54,71.5C 52.1962,73.9815 50.6962,73.9815 49.5,71.5C 52.3267,70.8916 54.9933,69.8916 57.5,68.5 Z"/></g>
</svg>
