<?xml version="1.0" encoding="UTF-8"?>
<!DOCTYPE svg PUBLIC "-//W3C//DTD SVG 1.1//EN" "http://www.w3.org/Graphics/SVG/1.1/DTD/svg11.dtd">
<svg xmlns="http://www.w3.org/2000/svg" version="1.1" width="188px" height="209px" style="shape-rendering:geometricPrecision; text-rendering:geometricPrecision; image-rendering:optimizeQuality; fill-rule:evenodd; clip-rule:evenodd" xmlns:xlink="http://www.w3.org/1999/xlink">
<g><path style="opacity:0.296" fill="#bbbbbb" d="M 102.5,1.5 C 108.069,1.37603 113.402,2.04269 118.5,3.5C 112.949,3.47295 107.616,2.80629 102.5,1.5 Z"/></g>
<g><path style="opacity:1" fill="#a0a0a0" d="M 80.5,1.5 C 75.5978,2.61451 70.5978,3.78118 65.5,5C 69.129,4.89025 72.7956,4.72359 76.5,4.5C 76.0651,6.29671 76.0651,8.29671 76.5,10.5C 85.8393,10.6665 95.1726,10.4998 104.5,10C 103.055,7.87615 101.721,5.70948 100.5,3.5C 104.824,3.92719 109.158,4.26052 113.5,4.5C 112.289,7.5513 112.956,10.218 115.5,12.5C 112.873,13.0916 110.206,13.4249 107.5,13.5C 99.1667,13.5 90.8333,13.5 82.5,13.5C 88.9874,12.6717 95.654,12.1717 102.5,12C 94.5069,11.5003 86.5069,11.3336 78.5,11.5C 74.4594,11.6751 70.4594,11.8418 66.5,12C 67.5762,10.2739 67.7429,8.44058 67,6.5C 65.4934,10.2364 64.6601,10.2364 64.5,6.5C 62.5853,6.21552 60.9187,6.54885 59.5,7.5C 57.0971,7.44805 54.7638,7.78138 52.5,8.5C 53.5903,7.14294 54.9236,6.14294 56.5,5.5C 64.1628,2.88946 72.1628,1.55613 80.5,1.5 Z"/></g>
<g><path style="opacity:1" fill="#858585" d="M 102.5,1.5 C 107.616,2.80629 112.949,3.47295 118.5,3.5C 119.5,3.5 120.5,3.5 121.5,3.5C 125.207,5.04459 128.874,6.71126 132.5,8.5C 128.295,7.08966 123.962,6.42299 119.5,6.5C 119.675,8.6208 119.341,10.6208 118.5,12.5C 117.5,12.5 116.5,12.5 115.5,12.5C 112.956,10.218 112.289,7.5513 113.5,4.5C 109.158,4.26052 104.824,3.92719 100.5,3.5C 92.445,3.22989 84.445,3.56322 76.5,4.5C 72.7956,4.72359 69.129,4.89025 65.5,5C 70.5978,3.78118 75.5978,2.61451 80.5,1.5C 87.8333,0.166667 95.1667,0.166667 102.5,1.5 Z"/></g>
<g><path style="opacity:1" fill="#d3d3d3" d="M 100.5,3.5 C 101.721,5.70948 103.055,7.87615 104.5,10C 95.1726,10.4998 85.8393,10.6665 76.5,10.5C 76.0651,8.29671 76.0651,6.29671 76.5,4.5C 84.445,3.56322 92.445,3.22989 100.5,3.5 Z"/></g>
<g><path style="opacity:1" fill="#6b6b6b" d="M 132.5,8.5 C 134.185,9.18372 135.185,10.517 135.5,12.5C 135.291,13.086 134.957,13.586 134.5,14C 135.672,14.4186 136.672,15.0853 137.5,16C 135.575,15.8651 133.575,15.6984 131.5,15.5C 127.07,14.881 122.737,13.881 118.5,12.5C 119.341,10.6208 119.675,8.6208 119.5,6.5C 123.962,6.42299 128.295,7.08966 132.5,8.5 Z"/></g>
<g><path style="opacity:1" fill="#727272" d="M 59.5,7.5 C 60.6225,9.28841 60.7891,11.2884 60,13.5C 57.0506,14.4371 54.2173,15.4371 51.5,16.5C 42.4365,18.8536 33.7699,22.1869 25.5,26.5C 23.1861,25.8213 22.8528,24.488 24.5,22.5C 23.9747,21.8076 23.3081,21.3076 22.5,21C 23.3805,20.2917 24.0472,19.4584 24.5,18.5C 33.584,14.5823 42.9173,11.2489 52.5,8.5C 54.7638,7.78138 57.0971,7.44805 59.5,7.5 Z"/></g>
<g><path style="opacity:0.286" fill="#e7e7e7" d="M 56.5,5.5 C 54.9236,6.14294 53.5903,7.14294 52.5,8.5C 42.9173,11.2489 33.584,14.5823 24.5,18.5C 22.4418,19.9331 20.1085,20.5997 17.5,20.5C 29.6828,13.5832 42.6828,8.58321 56.5,5.5 Z"/></g>
<g><path style="opacity:1" fill="#616161" d="M 78.5,11.5 C 86.5069,11.3336 94.5069,11.5003 102.5,12C 95.654,12.1717 88.9874,12.6717 82.5,13.5C 79.8333,13.5 77.1667,13.5 74.5,13.5C 73.7611,13.631 73.0944,13.4643 72.5,13C 74.7078,12.8091 76.7078,12.3091 78.5,11.5 Z"/></g>
<g><path style="opacity:1" fill="#9b9b9b" d="M 121.5,3.5 C 132.893,5.63187 143.893,8.9652 154.5,13.5C 154.016,16.7413 154.016,20.0746 154.5,23.5C 154.167,23.5 153.833,23.5 153.5,23.5C 148.934,22.0244 144.267,21.0244 139.5,20.5C 140.552,20.6495 141.552,20.4828 142.5,20C 138.693,18.5716 135.026,17.0716 131.5,15.5C 133.575,15.6984 135.575,15.8651 137.5,16C 136.672,15.0853 135.672,14.4186 134.5,14C 134.957,13.586 135.291,13.086 135.5,12.5C 135.185,10.517 134.185,9.18372 132.5,8.5C 128.874,6.71126 125.207,5.04459 121.5,3.5 Z"/></g>
<g><path style="opacity:1" fill="#848484" d="M 59.5,7.5 C 60.9187,6.54885 62.5853,6.21552 64.5,6.5C 64.6601,10.2364 65.4934,10.2364 67,6.5C 67.7429,8.44058 67.5762,10.2739 66.5,12C 70.4594,11.8418 74.4594,11.6751 78.5,11.5C 76.7078,12.3091 74.7078,12.8091 72.5,13C 73.0944,13.4643 73.7611,13.631 74.5,13.5C 72.1667,14.1667 69.8333,14.8333 67.5,15.5C 62.1554,15.6865 56.8221,16.0199 51.5,16.5C 54.2173,15.4371 57.0506,14.4371 60,13.5C 60.7891,11.2884 60.6225,9.28841 59.5,7.5 Z"/></g>
<g><path style="opacity:1" fill="#c8c8c8" d="M 74.5,13.5 C 77.1667,13.5 79.8333,13.5 82.5,13.5C 90.8333,13.5 99.1667,13.5 107.5,13.5C 110.258,14.9665 109.925,15.6332 106.5,15.5C 106.288,22.3631 106.622,28.8631 107.5,35C 103.985,36.8846 100.319,38.0512 96.5,38.5C 94.7085,38.634 93.0418,38.3007 91.5,37.5C 90.4975,35.9891 89.8308,34.3224 89.5,32.5C 88.1266,32.6567 86.7932,32.49 85.5,32C 84.0726,29.6308 82.2393,29.1308 80,30.5C 77.3304,27.7504 74.1637,25.9171 70.5,25C 72.7147,24.6124 74.048,23.6124 74.5,22C 71.3455,21.0186 71.0122,19.6852 73.5,18C 71.4982,16.9808 69.4982,16.1475 67.5,15.5C 69.8333,14.8333 72.1667,14.1667 74.5,13.5 Z"/></g>
<g><path style="opacity:1" fill="#b1b1b1" d="M 115.5,12.5 C 116.5,12.5 117.5,12.5 118.5,12.5C 122.737,13.881 127.07,14.881 131.5,15.5C 135.026,17.0716 138.693,18.5716 142.5,20C 141.552,20.4828 140.552,20.6495 139.5,20.5C 139.167,20.5 138.833,20.5 138.5,20.5C 136.162,18.9605 133.495,18.2938 130.5,18.5C 127.817,16.7191 124.817,16.2191 121.5,17C 122.328,17.9147 123.328,18.5814 124.5,19C 121.833,19.6667 121.833,20.3333 124.5,21C 123.167,21.6667 123.167,22.3333 124.5,23C 123.691,28.4171 123.191,33.9171 123,39.5C 122.95,41.744 122.117,43.4107 120.5,44.5C 118.264,42.1067 115.597,40.2734 112.5,39C 107.177,38.5006 101.844,38.334 96.5,38.5C 100.319,38.0512 103.985,36.8846 107.5,35C 106.622,28.8631 106.288,22.3631 106.5,15.5C 109.925,15.6332 110.258,14.9665 107.5,13.5C 110.206,13.4249 112.873,13.0916 115.5,12.5 Z"/></g>
<g><path style="opacity:1" fill="#bdbdbd" d="M 67.5,15.5 C 69.4982,16.1475 71.4982,16.9808 73.5,18C 71.0122,19.6852 71.3455,21.0186 74.5,22C 74.048,23.6124 72.7147,24.6124 70.5,25C 74.1637,25.9171 77.3304,27.7504 80,30.5C 82.2393,29.1308 84.0726,29.6308 85.5,32C 86.7932,32.49 88.1266,32.6567 89.5,32.5C 89.8308,34.3224 90.4975,35.9891 91.5,37.5C 87.0293,34.5153 82.1959,32.182 77,30.5C 72.9425,33.4012 68.7759,36.0679 64.5,38.5C 63.5028,38.5299 62.8361,38.0299 62.5,37C 62.6923,35.1802 62.8589,33.3468 63,31.5C 61.3896,33.5968 60.2229,35.9302 59.5,38.5C 58.6667,37.5 57.8333,36.5 57,35.5C 56.7168,31.8673 55.8835,28.3673 54.5,25C 55.4837,23.18 55.317,21.68 54,20.5C 52.5944,21.6682 51.4277,21.3348 50.5,19.5C 47.6272,20.7749 44.6272,21.6082 41.5,22C 40.944,22.3826 40.6107,22.8826 40.5,23.5C 37.145,23.6896 34.145,24.6896 31.5,26.5C 30.0048,26.9887 28.6715,27.6554 27.5,28.5C 26.8333,28.5 26.1667,28.5 25.5,28.5C 24.4937,28.0623 24.4937,27.3957 25.5,26.5C 33.7699,22.1869 42.4365,18.8536 51.5,16.5C 56.8221,16.0199 62.1554,15.6865 67.5,15.5 Z"/></g>
<g><path style="opacity:1" fill="#a1a2a2" d="M 130.5,18.5 C 129.668,19.3285 130.001,20.1618 131.5,21C 128.833,21.6667 128.833,22.3333 131.5,23C 131.072,29.0921 130.072,35.0921 128.5,41C 132.489,45.5886 131.156,47.7552 124.5,47.5C 123.833,47.5 123.167,47.5 122.5,47.5C 121.833,46.5 121.167,45.5 120.5,44.5C 122.117,43.4107 122.95,41.744 123,39.5C 123.191,33.9171 123.691,28.4171 124.5,23C 123.167,22.3333 123.167,21.6667 124.5,21C 121.833,20.3333 121.833,19.6667 124.5,19C 123.328,18.5814 122.328,17.9147 121.5,17C 124.817,16.2191 127.817,16.7191 130.5,18.5 Z"/></g>
<g><path style="opacity:1" fill="#959495" d="M 130.5,18.5 C 133.495,18.2938 136.162,18.9605 138.5,20.5C 136.265,21.2481 136.598,22.0814 139.5,23C 138.422,23.6739 137.755,24.6739 137.5,26C 138.078,30.8644 138.744,35.6978 139.5,40.5C 137.462,43.3435 137.129,46.3435 138.5,49.5C 136.955,50.4519 135.288,50.7852 133.5,50.5C 130.341,49.6693 127.341,48.6693 124.5,47.5C 131.156,47.7552 132.489,45.5886 128.5,41C 130.072,35.0921 131.072,29.0921 131.5,23C 128.833,22.3333 128.833,21.6667 131.5,21C 130.001,20.1618 129.668,19.3285 130.5,18.5 Z"/></g>
<g><path style="opacity:1" fill="#c5c5c5" d="M 154.5,13.5 C 163.226,16.5866 170.893,21.2533 177.5,27.5C 175.517,26.5294 173.517,25.5294 171.5,24.5C 168.442,22.3044 165.109,20.6378 161.5,19.5C 161.047,22.6521 162.047,25.1521 164.5,27C 163.906,27.4643 163.239,27.631 162.5,27.5C 161.167,27.1667 159.833,26.8333 158.5,26.5C 157.167,25.5 155.833,24.5 154.5,23.5C 154.016,20.0746 154.016,16.7413 154.5,13.5 Z"/></g>
<g><path style="opacity:1" fill="#adadad" d="M 64.5,38.5 C 60.456,40.2422 56.2893,41.9089 52,43.5C 51.1251,44.8732 50.6251,46.3732 50.5,48C 51.3559,50.8797 52.3559,53.713 53.5,56.5C 53.3318,58.1705 52.6651,59.5039 51.5,60.5C 49.1667,58.8333 47.1667,56.8333 45.5,54.5C 45.44,53.9569 45.1067,53.6236 44.5,53.5C 43.7582,55.3497 42.7582,56.0164 41.5,55.5C 42.1667,56.1667 42.8333,56.8333 43.5,57.5C 42.6258,59.7466 42.2924,62.0799 42.5,64.5C 41.1667,64.5 39.8333,64.5 38.5,64.5C 39.6902,57.9735 39.6902,51.9735 38.5,46.5C 39.0243,44.6175 39.6909,42.7842 40.5,41C 39.8692,37.1502 39.2025,33.3168 38.5,29.5C 41.028,28.4826 41.028,27.3159 38.5,26C 39.6721,25.5814 40.6721,24.9147 41.5,24C 41.2716,23.6012 40.9382,23.4346 40.5,23.5C 40.6107,22.8826 40.944,22.3826 41.5,22C 44.6272,21.6082 47.6272,20.7749 50.5,19.5C 51.4277,21.3348 52.5944,21.6682 54,20.5C 55.317,21.68 55.4837,23.18 54.5,25C 55.8835,28.3673 56.7168,31.8673 57,35.5C 57.8333,36.5 58.6667,37.5 59.5,38.5C 60.2229,35.9302 61.3896,33.5968 63,31.5C 62.8589,33.3468 62.6923,35.1802 62.5,37C 62.8361,38.0299 63.5028,38.5299 64.5,38.5 Z"/></g>
<g><path style="opacity:1" fill="#888888" d="M 138.5,20.5 C 138.833,20.5 139.167,20.5 139.5,20.5C 144.267,21.0244 148.934,22.0244 153.5,23.5C 151.518,24.8165 149.518,24.8165 147.5,23.5C 145.833,23.8333 144.833,24.8333 144.5,26.5C 145.401,35.6135 145.901,44.9468 146,54.5C 143.619,55.435 141.119,55.7683 138.5,55.5C 136.5,54.1667 134.833,52.5 133.5,50.5C 135.288,50.7852 136.955,50.4519 138.5,49.5C 137.129,46.3435 137.462,43.3435 139.5,40.5C 138.744,35.6978 138.078,30.8644 137.5,26C 137.755,24.6739 138.422,23.6739 139.5,23C 136.598,22.0814 136.265,21.2481 138.5,20.5 Z"/></g>
<g><path style="opacity:1" fill="#797979" d="M 153.5,23.5 C 153.833,23.5 154.167,23.5 154.5,23.5C 155.833,24.5 157.167,25.5 158.5,26.5C 157.328,27.7053 155.995,27.7053 154.5,26.5C 154.891,27.7185 154.224,28.5518 152.5,29C 153.799,33.2457 154.466,37.7457 154.5,42.5C 154.679,49.0319 154.012,55.3653 152.5,61.5C 150.315,61.2964 148.315,60.6298 146.5,59.5C 146.047,58.5416 145.381,57.7083 144.5,57C 142.292,56.8091 140.292,56.3091 138.5,55.5C 141.119,55.7683 143.619,55.435 146,54.5C 145.901,44.9468 145.401,35.6135 144.5,26.5C 144.833,24.8333 145.833,23.8333 147.5,23.5C 149.518,24.8165 151.518,24.8165 153.5,23.5 Z"/></g>
<g><path style="opacity:1" fill="#a2a2a2" d="M 40.5,23.5 C 40.9382,23.4346 41.2716,23.6012 41.5,24C 40.6721,24.9147 39.6721,25.5814 38.5,26C 41.028,27.3159 41.028,28.4826 38.5,29.5C 39.2025,33.3168 39.8692,37.1502 40.5,41C 39.6909,42.7842 39.0243,44.6175 38.5,46.5C 39.6902,51.9735 39.6902,57.9735 38.5,64.5C 39.8333,64.5 41.1667,64.5 42.5,64.5C 42.2924,62.0799 42.6258,59.7466 43.5,57.5C 42.8333,56.8333 42.1667,56.1667 41.5,55.5C 42.7582,56.0164 43.7582,55.3497 44.5,53.5C 45.1067,53.6236 45.44,53.9569 45.5,54.5C 44.9569,54.56 44.6236,54.8933 44.5,55.5C 45.6368,57.6068 46.6368,59.7735 47.5,62C 47.2409,63.2613 46.5742,64.2613 45.5,65C 46.5171,66.0495 46.6838,67.2161 46,68.5C 42.9531,66.9474 39.7865,66.114 36.5,66C 39.0168,68.3494 41.3501,70.8494 43.5,73.5C 41.9928,74.7388 40.8261,74.4054 40,72.5C 37.7508,75.2412 37.2508,78.2412 38.5,81.5C 39.891,80.3554 41.2243,80.3554 42.5,81.5C 40.3921,82.9438 38.0588,83.6104 35.5,83.5C 36.6576,82.0502 36.1576,81.0502 34,80.5C 32.6986,78.6354 32.3653,76.6354 33,74.5C 34.1993,78.1862 34.5326,77.8529 34,73.5C 33.5518,71.7756 32.7185,71.109 31.5,71.5C 32.311,70.7836 32.9777,69.9503 33.5,69C 33.7846,55.7548 33.4512,42.4214 32.5,29C 35.3323,27.0924 34.999,26.259 31.5,26.5C 34.145,24.6896 37.145,23.6896 40.5,23.5 Z"/></g>
<g><path style="opacity:1" fill="#939393" d="M 171.5,24.5 C 169.075,24.684 169.075,25.3507 171.5,26.5C 169.009,27.5407 169.009,28.3741 171.5,29C 170.167,29.6667 170.167,30.3333 171.5,31C 170.906,31.4643 170.239,31.631 169.5,31.5C 169.167,31.5 168.833,31.5 168.5,31.5C 167.486,30.3263 166.153,29.6596 164.5,29.5C 163.833,28.8333 163.167,28.1667 162.5,27.5C 163.239,27.631 163.906,27.4643 164.5,27C 162.047,25.1521 161.047,22.6521 161.5,19.5C 165.109,20.6378 168.442,22.3044 171.5,24.5 Z"/></g>
<g><path style="opacity:1" fill="#999999" d="M 31.5,26.5 C 34.999,26.259 35.3323,27.0924 32.5,29C 33.4512,42.4214 33.7846,55.7548 33.5,69C 32.9777,69.9503 32.311,70.7836 31.5,71.5C 32.7185,71.109 33.5518,71.7756 34,73.5C 34.5326,77.8529 34.1993,78.1862 33,74.5C 32.3653,76.6354 32.6986,78.6354 34,80.5C 36.1576,81.0502 36.6576,82.0502 35.5,83.5C 34.448,83.3505 33.448,83.5172 32.5,84C 36.1323,84.9031 39.4656,86.4031 42.5,88.5C 41.1117,91.0789 39.6117,91.0789 38,88.5C 37.1764,91.8823 37.343,95.2156 38.5,98.5C 39.9397,97.0476 41.6064,96.0476 43.5,95.5C 43.5,96.1667 43.5,96.8333 43.5,97.5C 41.0676,98.7502 38.7343,100.25 36.5,102C 38.1341,102.494 39.8008,102.66 41.5,102.5C 43.099,102.232 44.4324,102.566 45.5,103.5C 45.5299,104.497 45.0299,105.164 44,105.5C 42.5603,104.852 41.0603,104.519 39.5,104.5C 35.7104,104.008 35.0437,104.841 37.5,107C 36.3431,117.452 36.3431,127.785 37.5,138C 36.2845,140.096 35.4512,139.929 35,137.5C 34.6012,137.728 34.4346,138.062 34.5,138.5C 31.7396,135.317 29.7396,131.651 28.5,127.5C 29.3567,125.597 30.0234,123.597 30.5,121.5C 29.2156,91.5405 29.2156,61.7072 30.5,32C 30.0946,31.0546 29.428,30.3879 28.5,30C 29.7119,28.8932 29.3786,28.3932 27.5,28.5C 28.6715,27.6554 30.0048,26.9887 31.5,26.5 Z"/></g>
<g><path style="opacity:1" fill="#717171" d="M 171.5,24.5 C 173.517,25.5294 175.517,26.5294 177.5,27.5C 179.404,27.7376 180.738,28.7376 181.5,30.5C 177.584,28.7372 175.917,30.0706 176.5,34.5C 173.759,34.2927 171.426,33.2927 169.5,31.5C 170.239,31.631 170.906,31.4643 171.5,31C 170.167,30.3333 170.167,29.6667 171.5,29C 169.009,28.3741 169.009,27.5407 171.5,26.5C 169.075,25.3507 169.075,24.684 171.5,24.5 Z"/></g>
<g><path style="opacity:1" fill="#8e8e8e" d="M 25.5,29.5 C 25.5,29.1667 25.5,28.8333 25.5,28.5C 26.1667,28.5 26.8333,28.5 27.5,28.5C 29.3786,28.3932 29.7119,28.8932 28.5,30C 29.428,30.3879 30.0946,31.0546 30.5,32C 29.2156,61.7072 29.2156,91.5405 30.5,121.5C 30.0234,123.597 29.3567,125.597 28.5,127.5C 26.3044,124.442 24.6378,121.109 23.5,117.5C 23.3334,89.498 23.5,61.498 24,33.5C 24.5,31.6667 25.6667,30.5 27.5,30C 26.9056,29.5357 26.2389,29.369 25.5,29.5 Z"/></g>
<g><path style="opacity:1" fill="#a5a5a5" d="M 24.5,18.5 C 24.0472,19.4584 23.3805,20.2917 22.5,21C 23.3081,21.3076 23.9747,21.8076 24.5,22.5C 22.8528,24.488 23.1861,25.8213 25.5,26.5C 24.4937,27.3957 24.4937,28.0623 25.5,28.5C 25.5,28.8333 25.5,29.1667 25.5,29.5C 21.493,32.0031 17.1596,33.6697 12.5,34.5C 12.1597,31.8207 11.8264,29.154 11.5,26.5C 7.57247,27.7741 4.57247,30.1074 2.5,33.5C 2.67158,32.5084 2.33825,31.8417 1.5,31.5C 1.51056,29.9826 2.17723,28.8159 3.5,28C 8.0616,25.2204 12.7283,22.7204 17.5,20.5C 20.1085,20.5997 22.4418,19.9331 24.5,18.5 Z"/></g>
<g><path style="opacity:1" fill="#301d11" d="M 91.5,37.5 C 93.0418,38.3007 94.7085,38.634 96.5,38.5C 101.844,38.334 107.177,38.5006 112.5,39C 115.597,40.2734 118.264,42.1067 120.5,44.5C 121.167,45.5 121.833,46.5 122.5,47.5C 118.682,45.0894 114.682,42.9228 110.5,41C 105.446,40.219 100.446,40.3857 95.5,41.5C 88.993,37.2292 81.993,34.7292 74.5,34C 68.443,39.2681 61.443,42.6014 53.5,44C 51.8953,48.2757 52.5619,52.1091 55.5,55.5C 54.6039,65.7458 58.6039,68.2458 67.5,63C 70.0226,61.6403 72.0226,59.807 73.5,57.5C 73.3284,58.4916 73.6618,59.1583 74.5,59.5C 69.7083,64.8216 63.7083,67.3216 56.5,67C 55.1367,65.0551 54.3034,62.8884 54,60.5C 52.6283,61.9101 51.795,63.5767 51.5,65.5C 50.8333,67.1667 50.1667,68.8333 49.5,70.5C 49.1667,70.5 48.8333,70.5 48.5,70.5C 48.3685,66.7794 49.3685,63.4461 51.5,60.5C 52.6651,59.5039 53.3318,58.1705 53.5,56.5C 52.3559,53.713 51.3559,50.8797 50.5,48C 50.6251,46.3732 51.1251,44.8732 52,43.5C 56.2893,41.9089 60.456,40.2422 64.5,38.5C 68.7759,36.0679 72.9425,33.4012 77,30.5C 82.1959,32.182 87.0293,34.5153 91.5,37.5 Z"/></g>
<g><path style="opacity:1" fill="#828282" d="M 25.5,29.5 C 26.2389,29.369 26.9056,29.5357 27.5,30C 25.6667,30.5 24.5,31.6667 24,33.5C 23.5,61.498 23.3334,89.498 23.5,117.5C 20.1784,110.401 17.8451,102.901 16.5,95C 16.4396,76.2514 16.6063,57.418 17,38.5C 18.241,37.1233 18.4077,35.79 17.5,34.5C 15.3334,35.7919 13.0001,36.6253 10.5,37C 11.566,38.159 11.2327,38.9924 9.5,39.5C 8.91618,36.715 9.91618,35.0483 12.5,34.5C 17.1596,33.6697 21.493,32.0031 25.5,29.5 Z"/></g>
<g><path style="opacity:1" fill="#525252" d="M 181.5,30.5 C 182.167,30.5 182.5,30.8333 182.5,31.5C 181.252,32.3339 180.585,33.6672 180.5,35.5C 180.383,44.6821 180.716,53.8488 181.5,63C 180.794,66.1312 180.127,69.2979 179.5,72.5C 180.121,77.632 180.787,82.632 181.5,87.5C 180.51,91.7722 179.844,96.1055 179.5,100.5C 178.442,101.6 177.608,102.934 177,104.5C 176.376,97.2936 175.876,89.9603 175.5,82.5C 175.5,81.5 175.5,80.5 175.5,79.5C 176.302,78.0484 176.802,76.3817 177,74.5C 177.667,67.1667 177.667,59.8333 177,52.5C 176.667,52.1667 176.333,51.8333 176,51.5C 175.279,58.8226 174.779,66.1559 174.5,73.5C 172.918,83.2488 170.918,92.9154 168.5,102.5C 167.054,105.254 166.054,108.254 165.5,111.5C 164.326,112.514 163.66,113.847 163.5,115.5C 162.903,115.265 162.57,114.765 162.5,114C 164.436,109.167 165.102,104.334 164.5,99.5C 165.05,92.1306 165.717,84.7973 166.5,77.5C 165.96,76.2519 165.293,75.0852 164.5,74C 165.516,73.4806 166.182,72.6473 166.5,71.5C 165.268,69.3175 165.268,67.1508 166.5,65C 166.05,63.7147 165.383,62.548 164.5,61.5C 165.803,53.5193 165.803,45.5193 164.5,37.5C 164.899,35.8034 165.399,34.1368 166,32.5C 166.671,31.7476 167.504,31.4142 168.5,31.5C 168.833,31.5 169.167,31.5 169.5,31.5C 171.426,33.2927 173.759,34.2927 176.5,34.5C 175.917,30.0706 177.584,28.7372 181.5,30.5 Z"/></g>
<g><path style="opacity:1" fill="#787878" d="M 23.5,117.5 C 24.6378,121.109 26.3044,124.442 28.5,127.5C 29.7396,131.651 31.7396,135.317 34.5,138.5C 35.7375,141.738 37.4042,144.738 39.5,147.5C 38.4749,148.374 37.8082,149.541 37.5,151C 38.6155,152.235 38.6155,153.402 37.5,154.5C 37.9767,155.478 38.6433,156.311 39.5,157C 38.244,157.417 37.5774,158.25 37.5,159.5C 29.4465,150.769 23.4465,140.769 19.5,129.5C 19.7512,127.83 20.4178,126.33 21.5,125C 20.8305,116.508 18.4972,108.341 14.5,100.5C 12.7084,91.4042 11.0417,82.4042 9.5,73.5C 8.19819,62.1643 8.19819,50.831 9.5,39.5C 11.2327,38.9924 11.566,38.159 10.5,37C 13.0001,36.6253 15.3334,35.7919 17.5,34.5C 18.4077,35.79 18.241,37.1233 17,38.5C 16.6063,57.418 16.4396,76.2514 16.5,95C 17.8451,102.901 20.1784,110.401 23.5,117.5 Z"/></g>
<g><path style="opacity:1" fill="#df995a" d="M 106.5,44.5 C 105.078,44.7086 103.745,45.2086 102.5,46C 109.299,45.435 115.299,47.2683 120.5,51.5C 121.167,52.5 121.833,53.5 122.5,54.5C 122.414,55.4959 122.748,56.3292 123.5,57C 120.723,59.0551 117.723,60.5551 114.5,61.5C 110.83,60.1718 109.163,57.5051 109.5,53.5C 106.265,54.6484 102.932,55.815 99.5,57C 101.787,58.4272 102.12,60.2606 100.5,62.5C 98.5767,63.3078 96.5767,63.8078 94.5,64C 96.1341,64.4935 97.8008,64.6602 99.5,64.5C 99.5,64.8333 99.5,65.1667 99.5,65.5C 96.8333,65.5 94.1667,65.5 91.5,65.5C 87.3196,65.1885 83.3196,65.8552 79.5,67.5C 78.5836,67.4573 77.9169,67.1239 77.5,66.5C 79.8068,65.3466 82.1401,64.1799 84.5,63C 81.7583,62.7048 79.425,63.5381 77.5,65.5C 74.2327,67.4273 71.2327,69.7606 68.5,72.5C 66.7116,71.3775 64.7116,71.2109 62.5,72C 61.5291,73.4813 60.1958,74.3146 58.5,74.5C 58.6068,72.6214 58.1068,72.2881 57,73.5C 54.9345,76.9605 53.4345,80.6272 52.5,84.5C 52.5674,85.9587 52.2341,87.2921 51.5,88.5C 50.8826,88.6107 50.3826,88.944 50,89.5C 50.1086,83.1246 49.9419,76.7913 49.5,70.5C 50.1667,68.8333 50.8333,67.1667 51.5,65.5C 53.5014,64.5896 54.8347,65.4229 55.5,68C 59.5,68.6667 63.5,68.6667 67.5,68C 71.5197,65.9656 75.5197,63.9656 79.5,62C 84.8248,57.8752 87.1581,52.7086 86.5,46.5C 84.2947,44.6366 82.9613,42.3033 82.5,39.5C 87.0812,37.9532 90.4146,39.4532 92.5,44C 96.4419,44.5596 100.275,44.0596 104,42.5C 105.167,42.6667 106.333,42.8333 107.5,43C 106.944,43.3826 106.611,43.8826 106.5,44.5 Z"/></g>
<g><path style="opacity:1" fill="#414141" d="M 182.5,31.5 C 183.167,31.5 183.5,31.8333 183.5,32.5C 184.162,36.4659 184.495,40.4659 184.5,44.5C 185.016,58.9568 184.016,73.2901 181.5,87.5C 180.787,82.632 180.121,77.632 179.5,72.5C 180.127,69.2979 180.794,66.1312 181.5,63C 180.716,53.8488 180.383,44.6821 180.5,35.5C 180.585,33.6672 181.252,32.3339 182.5,31.5 Z"/></g>
<g><path style="opacity:1" fill="#402615" d="M 122.5,47.5 C 123.167,47.5 123.833,47.5 124.5,47.5C 127.341,48.6693 130.341,49.6693 133.5,50.5C 134.833,52.5 136.5,54.1667 138.5,55.5C 140.292,56.3091 142.292,56.8091 144.5,57C 145.381,57.7083 146.047,58.5416 146.5,59.5C 144.844,58.8535 143.177,58.1869 141.5,57.5C 140.833,57.8333 140.167,58.1667 139.5,58.5C 140.77,59.2876 141.77,60.2876 142.5,61.5C 140.518,61.0046 138.518,60.5046 136.5,60C 136.957,59.586 137.291,59.086 137.5,58.5C 135.405,52.8426 131.572,50.5093 126,51.5C 124.624,50.2949 123.458,48.9616 122.5,47.5 Z"/></g>
<g><path style="opacity:1" fill="#a66c3e" d="M 78.5,42.5 C 77.6865,47.7916 76.0198,52.7916 73.5,57.5C 72.0226,59.807 70.0226,61.6403 67.5,63C 58.6039,68.2458 54.6039,65.7458 55.5,55.5C 56.3058,56.9972 56.9724,58.6639 57.5,60.5C 63.5085,62.3303 68.3418,60.6636 72,55.5C 74.2126,51.0748 76.3793,46.7415 78.5,42.5 Z"/></g>
<g><path style="opacity:0.985" fill="#818181" d="M 1.5,31.5 C 2.33825,31.8417 2.67158,32.5084 2.5,33.5C 1.71412,44.4816 1.38078,55.4816 1.5,66.5C 1.66018,68.1992 1.49351,69.8659 1,71.5C 0.824739,66.9805 0.324739,62.6472 -0.5,58.5C -0.5,51.1667 -0.5,43.8333 -0.5,36.5C 0.166667,34.8333 0.833333,33.1667 1.5,31.5 Z"/></g>
<g><path style="opacity:1" fill="#bb7c45" d="M 114.5,61.5 C 117.907,65.3686 122.241,67.3686 127.5,67.5C 125.989,69.4411 123.989,69.9411 121.5,69C 116.309,65.241 110.976,61.741 105.5,58.5C 104.791,57.596 103.791,57.2627 102.5,57.5C 102.5,59.8333 102.5,62.1667 102.5,64.5C 101.5,64.5 100.5,64.5 99.5,64.5C 97.8008,64.6602 96.1341,64.4935 94.5,64C 96.5767,63.8078 98.5767,63.3078 100.5,62.5C 102.12,60.2606 101.787,58.4272 99.5,57C 102.932,55.815 106.265,54.6484 109.5,53.5C 109.163,57.5051 110.83,60.1718 114.5,61.5 Z"/></g>
<g><path style="opacity:1" fill="#e5e5e5" d="M 12.5,34.5 C 9.91618,35.0483 8.91618,36.715 9.5,39.5C 8.19819,50.831 8.19819,62.1643 9.5,73.5C 9.93683,76.8066 9.27016,79.8066 7.5,82.5C 9.4095,89.7167 9.9095,97.0501 9,104.5C 8.76791,103.263 8.26791,102.263 7.5,101.5C 4.78233,89.8342 2.78233,78.1676 1.5,66.5C 1.38078,55.4816 1.71412,44.4816 2.5,33.5C 4.57247,30.1074 7.57247,27.7741 11.5,26.5C 11.8264,29.154 12.1597,31.8207 12.5,34.5 Z"/></g>
<g><path style="opacity:1" fill="#de975a" d="M 122.5,47.5 C 123.458,48.9616 124.624,50.2949 126,51.5C 131.572,50.5093 135.405,52.8426 137.5,58.5C 137.291,59.086 136.957,59.586 136.5,60C 138.518,60.5046 140.518,61.0046 142.5,61.5C 143.162,64.1484 143.829,66.8151 144.5,69.5C 143.378,73.3154 142.712,73.3154 142.5,69.5C 140.585,69.2155 138.919,69.5489 137.5,70.5C 135.955,69.7703 135.122,68.437 135,66.5C 134.072,69.0352 132.238,70.0352 129.5,69.5C 129.662,67.4727 129.495,65.4727 129,63.5C 128.209,64.745 127.709,66.0783 127.5,67.5C 122.241,67.3686 117.907,65.3686 114.5,61.5C 117.723,60.5551 120.723,59.0551 123.5,57C 122.748,56.3292 122.414,55.4959 122.5,54.5C 123.423,55.3029 124.423,55.4696 125.5,55C 123.963,53.2927 122.296,51.7927 120.5,50.5C 116.83,46.3353 112.163,44.3353 106.5,44.5C 106.611,43.8826 106.944,43.3826 107.5,43C 106.333,42.8333 105.167,42.6667 104,42.5C 100.275,44.0596 96.4419,44.5596 92.5,44C 90.4146,39.4532 87.0812,37.9532 82.5,39.5C 81.1667,39.5 79.8333,39.5 78.5,39.5C 78.5,40.5 78.5,41.5 78.5,42.5C 76.3793,46.7415 74.2126,51.0748 72,55.5C 68.3418,60.6636 63.5085,62.3303 57.5,60.5C 56.9724,58.6639 56.3058,56.9972 55.5,55.5C 52.5619,52.1091 51.8953,48.2757 53.5,44C 61.443,42.6014 68.443,39.2681 74.5,34C 81.993,34.7292 88.993,37.2292 95.5,41.5C 100.446,40.3857 105.446,40.219 110.5,41C 114.682,42.9228 118.682,45.0894 122.5,47.5 Z"/></g>
<g><path style="opacity:1" fill="#6e3709" d="M 120.5,50.5 C 122.296,51.7927 123.963,53.2927 125.5,55C 124.423,55.4696 123.423,55.3029 122.5,54.5C 121.833,53.5 121.167,52.5 120.5,51.5C 120.5,51.1667 120.5,50.8333 120.5,50.5 Z"/></g>
<g><path style="opacity:1" fill="#3e1a07" d="M 106.5,44.5 C 112.163,44.3353 116.83,46.3353 120.5,50.5C 120.5,50.8333 120.5,51.1667 120.5,51.5C 115.299,47.2683 109.299,45.435 102.5,46C 103.745,45.2086 105.078,44.7086 106.5,44.5 Z"/></g>
<g><path style="opacity:1" fill="#1f1610" d="M 82.5,39.5 C 82.9613,42.3033 84.2947,44.6366 86.5,46.5C 85.1754,50.9898 83.0087,54.9898 80,58.5C 79.586,58.0426 79.086,57.7093 78.5,57.5C 77.3777,58.6302 76.0443,59.2969 74.5,59.5C 73.6618,59.1583 73.3284,58.4916 73.5,57.5C 76.0198,52.7916 77.6865,47.7916 78.5,42.5C 78.5,41.5 78.5,40.5 78.5,39.5C 79.8333,39.5 81.1667,39.5 82.5,39.5 Z"/></g>
<g><path style="opacity:1" fill="#be916b" d="M 146.5,59.5 C 150.551,63.2622 153.884,67.5956 156.5,72.5C 155.311,73.4287 153.978,73.762 152.5,73.5C 153.065,69.2929 151.398,65.9596 147.5,63.5C 146.365,61.7868 144.698,61.1201 142.5,61.5C 141.77,60.2876 140.77,59.2876 139.5,58.5C 140.167,58.1667 140.833,57.8333 141.5,57.5C 143.177,58.1869 144.844,58.8535 146.5,59.5 Z"/></g>
<g><path style="opacity:0.443" fill="#bbbbbb" d="M 183.5,32.5 C 184.887,34.8766 185.721,37.5432 186,40.5C 186.167,45.8333 186.333,51.1667 186.5,56.5C 186.646,65.0503 185.98,73.3836 184.5,81.5C 185.598,69.0058 185.598,56.6725 184.5,44.5C 184.495,40.4659 184.162,36.4659 183.5,32.5 Z"/></g>
<g><path style="opacity:1" fill="#99602f" d="M 86.5,46.5 C 87.1581,52.7086 84.8248,57.8752 79.5,62C 75.5197,63.9656 71.5197,65.9656 67.5,68C 63.5,68.6667 59.5,68.6667 55.5,68C 54.8347,65.4229 53.5014,64.5896 51.5,65.5C 51.795,63.5767 52.6283,61.9101 54,60.5C 54.3034,62.8884 55.1367,65.0551 56.5,67C 63.7083,67.3216 69.7083,64.8216 74.5,59.5C 76.0443,59.2969 77.3777,58.6302 78.5,57.5C 79.086,57.7093 79.586,58.0426 80,58.5C 83.0087,54.9898 85.1754,50.9898 86.5,46.5 Z"/></g>
<g><path style="opacity:1" fill="#815737" d="M 105.5,58.5 C 103.803,60.3052 102.97,62.6385 103,65.5C 102.329,66.2524 101.496,66.5858 100.5,66.5C 100.5,65.8333 100.167,65.5 99.5,65.5C 99.5,65.1667 99.5,64.8333 99.5,64.5C 100.5,64.5 101.5,64.5 102.5,64.5C 102.5,62.1667 102.5,59.8333 102.5,57.5C 103.791,57.2627 104.791,57.596 105.5,58.5 Z"/></g>
<g><path style="opacity:1" fill="#5b2b0f" d="M 77.5,66.5 C 77.5,66.1667 77.5,65.8333 77.5,65.5C 79.425,63.5381 81.7583,62.7048 84.5,63C 82.1401,64.1799 79.8068,65.3466 77.5,66.5 Z"/></g>
<g><path style="opacity:1" fill="#584535" d="M 91.5,65.5 C 86.9374,66.811 82.2707,68.1443 77.5,69.5C 74.9017,68.5278 74.9017,67.5278 77.5,66.5C 77.9169,67.1239 78.5836,67.4573 79.5,67.5C 83.3196,65.8552 87.3196,65.1885 91.5,65.5 Z"/></g>
<g><path style="opacity:1" fill="#a8652d" d="M 147.5,63.5 C 151.398,65.9596 153.065,69.2929 152.5,73.5C 151.833,73.5 151.167,73.5 150.5,73.5C 149.22,72.0687 147.553,71.4021 145.5,71.5C 145.726,68.7508 145.393,66.0841 144.5,63.5C 145.233,62.913 146.233,62.913 147.5,63.5 Z"/></g>
<g><path style="opacity:1" fill="#281e1b" d="M 77.5,65.5 C 77.5,65.8333 77.5,66.1667 77.5,66.5C 74.9017,67.5278 74.9017,68.5278 77.5,69.5C 69.9536,72.5201 64.1203,77.5201 60,84.5C 61.0681,79.4021 63.9014,75.4021 68.5,72.5C 71.2327,69.7606 74.2327,67.4273 77.5,65.5 Z"/></g>
<g><path style="opacity:1" fill="#8d8d8d" d="M 175.5,79.5 C 175.795,77.2646 175.461,75.2646 174.5,73.5C 174.779,66.1559 175.279,58.8226 176,51.5C 176.333,51.8333 176.667,52.1667 177,52.5C 177.667,59.8333 177.667,67.1667 177,74.5C 176.802,76.3817 176.302,78.0484 175.5,79.5 Z"/></g>
<g><path style="opacity:1" fill="#545252" d="M 98.5,66.5 C 101.5,67.8333 104.5,67.8333 107.5,66.5C 108.833,66.5 110.167,66.5 111.5,66.5C 110.602,67.1577 109.602,67.8243 108.5,68.5C 108.624,69.1067 108.957,69.44 109.5,69.5C 104.933,70.6375 100.433,72.3042 96,74.5C 95.5,74.3333 95,74.1667 94.5,74C 98.0477,72.0593 101.714,70.3926 105.5,69C 100.116,68.495 94.7822,68.495 89.5,69C 92.3117,67.4511 95.3117,66.6178 98.5,66.5 Z"/></g>
<g><path style="opacity:1" fill="#221e1c" d="M 105.5,58.5 C 110.976,61.741 116.309,65.241 121.5,69C 123.989,69.9411 125.989,69.4411 127.5,67.5C 128.653,68.3132 128.653,69.3132 127.5,70.5C 130.279,72.2965 133.279,72.7965 136.5,72C 137.056,71.6174 137.389,71.1174 137.5,70.5C 138.315,71.4293 139.148,72.4293 140,73.5C 140.914,69.8149 141.581,70.1482 142,74.5C 142.383,73.944 142.883,73.6107 143.5,73.5C 143.573,75.0269 142.906,76.0269 141.5,76.5C 139.807,79.1897 137.473,81.1897 134.5,82.5C 132.801,82.6602 131.134,82.4935 129.5,82C 127.63,79.9604 125.63,78.1271 123.5,76.5C 122.933,74.9705 122.267,73.4705 121.5,72C 117.687,70.228 113.687,69.3947 109.5,69.5C 108.957,69.44 108.624,69.1067 108.5,68.5C 109.602,67.8243 110.602,67.1577 111.5,66.5C 112.166,63.8171 110.832,62.4838 107.5,62.5C 107.5,63.8333 107.5,65.1667 107.5,66.5C 104.5,67.8333 101.5,67.8333 98.5,66.5C 99.1667,66.5 99.8333,66.5 100.5,66.5C 101.496,66.5858 102.329,66.2524 103,65.5C 102.97,62.6385 103.803,60.3052 105.5,58.5 Z"/></g>
<g><path style="opacity:1" fill="#dcdee0" d="M 111.5,66.5 C 110.167,66.5 108.833,66.5 107.5,66.5C 107.5,65.1667 107.5,63.8333 107.5,62.5C 110.832,62.4838 112.166,63.8171 111.5,66.5 Z"/></g>
<g><path style="opacity:1" fill="#755237" d="M 137.5,70.5 C 137.389,71.1174 137.056,71.6174 136.5,72C 133.279,72.7965 130.279,72.2965 127.5,70.5C 128.653,69.3132 128.653,68.3132 127.5,67.5C 127.709,66.0783 128.209,64.745 129,63.5C 129.495,65.4727 129.662,67.4727 129.5,69.5C 132.238,70.0352 134.072,69.0352 135,66.5C 135.122,68.437 135.955,69.7703 137.5,70.5 Z"/></g>
<g><path style="opacity:0.931" fill="#b0b0b0" d="M -0.5,58.5 C 0.324739,62.6472 0.824739,66.9805 1,71.5C 1.49351,69.8659 1.66018,68.1992 1.5,66.5C 2.78233,78.1676 4.78233,89.8342 7.5,101.5C 7.63101,102.239 7.46434,102.906 7,103.5C 6.72158,102.584 6.22158,101.918 5.5,101.5C 2.52046,91.9324 0.52046,82.2657 -0.5,72.5C -0.5,67.8333 -0.5,63.1667 -0.5,58.5 Z"/></g>
<g><path style="opacity:1" fill="#dbd9da" d="M 91.5,65.5 C 94.1667,65.5 96.8333,65.5 99.5,65.5C 100.167,65.5 100.5,65.8333 100.5,66.5C 99.8333,66.5 99.1667,66.5 98.5,66.5C 95.3117,66.6178 92.3117,67.4511 89.5,69C 94.7822,68.495 100.116,68.495 105.5,69C 101.714,70.3926 98.0477,72.0593 94.5,74C 95,74.1667 95.5,74.3333 96,74.5C 100.433,72.3042 104.933,70.6375 109.5,69.5C 113.687,69.3947 117.687,70.228 121.5,72C 122.267,73.4705 122.933,74.9705 123.5,76.5C 124.134,79.6433 125.8,82.1433 128.5,84C 127.552,84.4828 126.552,84.6495 125.5,84.5C 123.05,84.702 120.717,84.3686 118.5,83.5C 117.439,80.4893 116.273,77.4893 115,74.5C 114.085,75.3279 113.419,76.3279 113,77.5C 110.726,76.1888 108.56,76.1888 106.5,77.5C 105.833,77.5 105.167,77.5 104.5,77.5C 92.5319,80.6361 85.0319,88.3027 82,100.5C 80.7947,113.308 81.9613,113.641 85.5,101.5C 86.2389,101.369 86.9056,101.536 87.5,102C 85.1404,107.045 84.1404,112.379 84.5,118C 84.5342,123.362 85.0342,127.862 86,131.5C 77.1389,136.955 70.4722,134.955 66,125.5C 64.0392,120.323 62.7058,114.99 62,109.5C 61.6411,114.859 61.6411,120.193 62,125.5C 57.1729,120.848 54.1729,115.181 53,108.5C 52.5007,103.511 52.3341,98.5111 52.5,93.5C 52.448,91.0971 52.7814,88.7638 53.5,86.5C 54.5806,82.3285 56.2472,78.3285 58.5,74.5C 60.1958,74.3146 61.5291,73.4813 62.5,72C 64.7116,71.2109 66.7116,71.3775 68.5,72.5C 63.9014,75.4021 61.0681,79.4021 60,84.5C 64.1203,77.5201 69.9536,72.5201 77.5,69.5C 82.2707,68.1443 86.9374,66.811 91.5,65.5 Z"/></g>
<g><path style="opacity:1" fill="#4c3221" d="M 142.5,61.5 C 144.698,61.1201 146.365,61.7868 147.5,63.5C 146.233,62.913 145.233,62.913 144.5,63.5C 145.393,66.0841 145.726,68.7508 145.5,71.5C 147.553,71.4021 149.22,72.0687 150.5,73.5C 148.031,72.9329 145.698,72.9329 143.5,73.5C 142.883,73.6107 142.383,73.944 142,74.5C 141.581,70.1482 140.914,69.8149 140,73.5C 139.148,72.4293 138.315,71.4293 137.5,70.5C 138.919,69.5489 140.585,69.2155 142.5,69.5C 142.712,73.3154 143.378,73.3154 144.5,69.5C 143.829,66.8151 143.162,64.1484 142.5,61.5 Z"/></g>
<g><path style="opacity:0.988" fill="#818181" d="M 184.5,44.5 C 185.598,56.6725 185.598,69.0058 184.5,81.5C 183.733,90.5606 181.733,99.2273 178.5,107.5C 178.674,105.139 179.007,102.806 179.5,100.5C 179.844,96.1055 180.51,91.7722 181.5,87.5C 184.016,73.2901 185.016,58.9568 184.5,44.5 Z"/></g>
<g><path style="opacity:1" fill="#66605b" d="M 104.5,78.5 C 104.5,78.1667 104.5,77.8333 104.5,77.5C 105.167,77.5 105.833,77.5 106.5,77.5C 109.097,77.7208 109.097,78.2208 106.5,79C 108.769,79.7581 110.936,79.5914 113,78.5C 113.692,79.4368 113.525,80.1034 112.5,80.5C 109.813,80.6641 107.146,80.4974 104.5,80C 105.738,79.31 105.738,78.81 104.5,78.5 Z"/></g>
<g><path style="opacity:1" fill="#66462a" d="M 58.5,74.5 C 56.2472,78.3285 54.5806,82.3285 53.5,86.5C 53.6716,85.5084 53.3382,84.8417 52.5,84.5C 53.4345,80.6272 54.9345,76.9605 57,73.5C 58.1068,72.2881 58.6068,72.6214 58.5,74.5 Z"/></g>
<g><path style="opacity:1" fill="#dcdbdd" d="M 141.5,76.5 C 142.429,77.3149 143.429,78.1482 144.5,79C 143.206,81.087 142.039,83.2537 141,85.5C 138.606,86.1359 136.106,86.1359 133.5,85.5C 132.508,85.6716 131.842,85.3382 131.5,84.5C 133.027,84.573 134.027,83.9063 134.5,82.5C 137.473,81.1897 139.807,79.1897 141.5,76.5 Z"/></g>
<g><path style="opacity:1" fill="#636263" d="M 164.5,29.5 C 166.153,29.6596 167.486,30.3263 168.5,31.5C 167.504,31.4142 166.671,31.7476 166,32.5C 165.399,34.1368 164.899,35.8034 164.5,37.5C 165.803,45.5193 165.803,53.5193 164.5,61.5C 165.383,62.548 166.05,63.7147 166.5,65C 165.268,67.1508 165.268,69.3175 166.5,71.5C 166.182,72.6473 165.516,73.4806 164.5,74C 165.293,75.0852 165.96,76.2519 166.5,77.5C 165.717,84.7973 165.05,92.1306 164.5,99.5C 165.102,104.334 164.436,109.167 162.5,114C 162.57,114.765 162.903,115.265 163.5,115.5C 162.289,118.926 160.789,122.259 159,125.5C 158.219,120.446 158.386,115.446 159.5,110.5C 157.266,109.262 156.932,107.596 158.5,105.5C 157.964,103.058 157.131,100.725 156,98.5C 153.349,102.334 151.182,106.334 149.5,110.5C 149.5,109.833 149.5,109.167 149.5,108.5C 153.061,101.67 153.394,94.6704 150.5,87.5C 152.808,91.0468 153.975,95.0468 154,99.5C 154.805,95.859 156.305,92.5257 158.5,89.5C 158.4,87.0075 158.067,84.5075 157.5,82C 158.536,80.3831 159.703,80.2164 161,81.5C 161.783,79.5665 161.283,78.0665 159.5,77C 162.167,76 162.167,75 159.5,74C 161.061,73.059 162.395,71.8924 163.5,70.5C 161.815,67.6056 160.815,64.439 160.5,61C 161.107,50.8385 161.774,40.6718 162.5,30.5C 163.183,30.1373 163.85,29.8039 164.5,29.5 Z"/></g>
<g><path style="opacity:1" fill="#999a99" d="M 123.5,76.5 C 125.63,78.1271 127.63,79.9604 129.5,82C 131.134,82.4935 132.801,82.6602 134.5,82.5C 134.027,83.9063 133.027,84.573 131.5,84.5C 129.389,85.7416 127.389,85.7416 125.5,84.5C 126.552,84.6495 127.552,84.4828 128.5,84C 125.8,82.1433 124.134,79.6433 123.5,76.5 Z"/></g>
<g><path style="opacity:1" fill="#84522a" d="M 48.5,70.5 C 48.8333,70.5 49.1667,70.5 49.5,70.5C 49.9419,76.7913 50.1086,83.1246 50,89.5C 50.3826,88.944 50.8826,88.6107 51.5,88.5C 51.1558,91.5623 50.4891,94.5623 49.5,97.5C 48.6735,93.5408 48.1735,89.5408 48,85.5C 47.6667,86.5 47.3333,87.5 47,88.5C 46.3762,82.4051 46.8762,76.4051 48.5,70.5 Z"/></g>
<g><path style="opacity:1" fill="#9b9999" d="M 104.5,77.5 C 104.5,77.8333 104.5,78.1667 104.5,78.5C 93.8956,83.0643 87.5622,90.7309 85.5,101.5C 81.9613,113.641 80.7947,113.308 82,100.5C 85.0319,88.3027 92.5319,80.6361 104.5,77.5 Z"/></g>
<g><path style="opacity:1" fill="#e7e5e4" d="M 107.5,85.5 C 106.841,88.4552 106.508,91.4552 106.5,94.5C 106.5,95.1667 106.167,95.5 105.5,95.5C 103.022,92.6709 102.022,89.3375 102.5,85.5C 104.167,82.8333 105.833,82.8333 107.5,85.5 Z"/></g>
<g><path style="opacity:1" fill="#653a3d" d="M 112.5,81.5 C 111.577,83.767 110.744,86.1003 110,88.5C 109.623,87.0577 108.79,86.0577 107.5,85.5C 105.833,82.8333 104.167,82.8333 102.5,85.5C 102.167,85.5 101.833,85.5 101.5,85.5C 101.158,84.6618 100.492,84.3284 99.5,84.5C 99.4142,83.5041 99.7476,82.6708 100.5,82C 104.486,81.5012 108.486,81.3345 112.5,81.5 Z"/></g>
<g><path style="opacity:1" fill="#e5e4e2" d="M 99.5,84.5 C 100.492,84.3284 101.158,84.6618 101.5,85.5C 101.224,94.1492 99.8908,94.4825 97.5,86.5C 97.8333,85.5 98.5,84.8333 99.5,84.5 Z"/></g>
<g><path style="opacity:1" fill="#1c1918" d="M 104.5,78.5 C 105.738,78.81 105.738,79.31 104.5,80C 107.146,80.4974 109.813,80.6641 112.5,80.5C 112.5,80.8333 112.5,81.1667 112.5,81.5C 108.486,81.3345 104.486,81.5012 100.5,82C 99.7476,82.6708 99.4142,83.5041 99.5,84.5C 98.5,84.8333 97.8333,85.5 97.5,86.5C 94.3657,90.5203 92.699,95.187 92.5,100.5C 91.7906,104.946 90.7906,105.279 89.5,101.5C 90.0645,97.6703 90.8979,94.0036 92,90.5C 89.3178,93.8647 87.1512,97.5313 85.5,101.5C 87.5622,90.7309 93.8956,83.0643 104.5,78.5 Z"/></g>
<g><path style="opacity:1" fill="#ecf1ee" d="M 117.5,84.5 C 117.106,86.7099 115.773,88.0432 113.5,88.5C 113.781,84.8121 114.281,81.1454 115,77.5C 115.698,80.0037 116.531,82.337 117.5,84.5 Z"/></g>
<g><path style="opacity:1" fill="#918e8f" d="M 72.5,78.5 C 73.0431,78.56 73.3764,78.8933 73.5,79.5C 71.0083,82.7894 69.175,86.4561 68,90.5C 66.7838,96.4637 65.7838,102.464 65,108.5C 64.5441,102.796 64.5441,97.1296 65,91.5C 62.7932,95.2504 61.1265,99.2504 60,103.5C 60.9837,93.5326 65.1504,85.1992 72.5,78.5 Z"/></g>
<g><path style="opacity:1" fill="#9f9b9b" d="M 118.5,83.5 C 117.833,83.5 117.5,83.8333 117.5,84.5C 116.531,82.337 115.698,80.0037 115,77.5C 114.281,81.1454 113.781,84.8121 113.5,88.5C 112.537,89.3635 112.537,90.0302 113.5,90.5C 114.622,89.3698 115.956,88.7031 117.5,88.5C 112.801,93.2003 107.801,97.5336 102.5,101.5C 105.296,98.2026 108.296,95.0359 111.5,92C 110.584,91.6258 109.75,91.1258 109,90.5C 108.392,92.0664 107.558,93.3998 106.5,94.5C 106.508,91.4552 106.841,88.4552 107.5,85.5C 108.79,86.0577 109.623,87.0577 110,88.5C 110.744,86.1003 111.577,83.767 112.5,81.5C 112.5,81.1667 112.5,80.8333 112.5,80.5C 113.525,80.1034 113.692,79.4368 113,78.5C 110.936,79.5914 108.769,79.7581 106.5,79C 109.097,78.2208 109.097,77.7208 106.5,77.5C 108.56,76.1888 110.726,76.1888 113,77.5C 113.419,76.3279 114.085,75.3279 115,74.5C 116.273,77.4893 117.439,80.4893 118.5,83.5 Z"/></g>
<g><path style="opacity:1" fill="#6e6d6d" d="M 158.5,26.5 C 159.833,26.8333 161.167,27.1667 162.5,27.5C 163.167,28.1667 163.833,28.8333 164.5,29.5C 163.85,29.8039 163.183,30.1373 162.5,30.5C 161.774,40.6718 161.107,50.8385 160.5,61C 160.815,64.439 161.815,67.6056 163.5,70.5C 162.395,71.8924 161.061,73.059 159.5,74C 162.167,75 162.167,76 159.5,77C 161.283,78.0665 161.783,79.5665 161,81.5C 159.703,80.2164 158.536,80.3831 157.5,82C 158.067,84.5075 158.4,87.0075 158.5,89.5C 156.305,92.5257 154.805,95.859 154,99.5C 153.975,95.0468 152.808,91.0468 150.5,87.5C 147.253,87.7206 147.086,89.054 150,91.5C 150.722,94.2605 150.555,96.9272 149.5,99.5C 149.167,99.5 148.833,99.5 148.5,99.5C 148.5,99.1667 148.5,98.8333 148.5,98.5C 150.121,95.4382 149.621,92.7716 147,90.5C 146.439,91.0219 145.772,91.3552 145,91.5C 141.84,89.9991 138.673,88.6658 135.5,87.5C 134.006,87.7092 132.839,88.3759 132,89.5C 131.283,88.9558 130.783,88.2891 130.5,87.5C 131.71,87.0679 132.71,86.4013 133.5,85.5C 136.106,86.1359 138.606,86.1359 141,85.5C 142.039,83.2537 143.206,81.087 144.5,79C 143.429,78.1482 142.429,77.3149 141.5,76.5C 142.906,76.0269 143.573,75.0269 143.5,73.5C 145.698,72.9329 148.031,72.9329 150.5,73.5C 151.167,73.5 151.833,73.5 152.5,73.5C 153.978,73.762 155.311,73.4287 156.5,72.5C 153.884,67.5956 150.551,63.2622 146.5,59.5C 148.315,60.6298 150.315,61.2964 152.5,61.5C 154.012,55.3653 154.679,49.0319 154.5,42.5C 154.466,37.7457 153.799,33.2457 152.5,29C 154.224,28.5518 154.891,27.7185 154.5,26.5C 155.995,27.7053 157.328,27.7053 158.5,26.5 Z"/></g>
<g><path style="opacity:1" fill="#dfdede" d="M 143.5,82.5 C 144.629,84.6282 144.796,86.9615 144,89.5C 143.075,88.9535 142.242,88.2868 141.5,87.5C 142.456,85.9246 143.123,84.258 143.5,82.5 Z"/></g>
<g><path style="opacity:1" fill="#d6d5d4" d="M 145.5,80.5 C 147.787,82.6603 147.954,84.9936 146,87.5C 145.503,85.1902 145.337,82.8568 145.5,80.5 Z"/></g>
<g><path style="opacity:1" fill="#484445" d="M 118.5,83.5 C 120.717,84.3686 123.05,84.702 125.5,84.5C 127.389,85.7416 129.389,85.7416 131.5,84.5C 131.842,85.3382 132.508,85.6716 133.5,85.5C 132.71,86.4013 131.71,87.0679 130.5,87.5C 125.88,85.869 121.546,86.2024 117.5,88.5C 115.956,88.7031 114.622,89.3698 113.5,90.5C 112.537,90.0302 112.537,89.3635 113.5,88.5C 115.773,88.0432 117.106,86.7099 117.5,84.5C 117.5,83.8333 117.833,83.5 118.5,83.5 Z"/></g>
<g><path style="opacity:1" fill="#dbdadb" d="M 130.5,87.5 C 130.783,88.2891 131.283,88.9558 132,89.5C 132.839,88.3759 134.006,87.7092 135.5,87.5C 138.673,88.6658 141.84,89.9991 145,91.5C 145.772,91.3552 146.439,91.0219 147,90.5C 149.621,92.7716 150.121,95.4382 148.5,98.5C 139.274,96.8404 129.941,96.3404 120.5,97C 114.451,98.8581 108.784,101.525 103.5,105C 100.294,105.89 97.2945,105.557 94.5,104C 96.0581,103.79 97.3915,103.29 98.5,102.5C 99.8333,102.167 101.167,101.833 102.5,101.5C 107.801,97.5336 112.801,93.2003 117.5,88.5C 121.546,86.2024 125.88,85.869 130.5,87.5 Z"/></g>
<g><path style="opacity:1" fill="#878787" d="M 101.5,85.5 C 101.833,85.5 102.167,85.5 102.5,85.5C 102.022,89.3375 103.022,92.6709 105.5,95.5C 104.728,96.6935 103.728,97.6935 102.5,98.5C 102.662,96.4727 102.495,94.4727 102,92.5C 99.9771,94.7693 99.1437,97.4359 99.5,100.5C 98.8333,100.5 98.1667,100.5 97.5,100.5C 98.5366,98.2625 98.7033,95.9291 98,93.5C 96.4766,95.5692 95.6432,97.9026 95.5,100.5C 94.5,100.5 93.5,100.5 92.5,100.5C 92.699,95.187 94.3657,90.5203 97.5,86.5C 99.8908,94.4825 101.224,94.1492 101.5,85.5 Z"/></g>
<g><path style="opacity:1" fill="#e9ebea" d="M 102.5,98.5 C 102.027,99.9063 101.027,100.573 99.5,100.5C 99.1437,97.4359 99.9771,94.7693 102,92.5C 102.495,94.4727 102.662,96.4727 102.5,98.5 Z"/></g>
<g><path style="opacity:1" fill="#4e4d4d" d="M 43.5,95.5 C 46.5172,97.6154 47.1839,100.282 45.5,103.5C 44.4324,102.566 43.099,102.232 41.5,102.5C 42.5676,101.566 43.901,101.232 45.5,101.5C 45.7709,99.6203 45.1042,98.287 43.5,97.5C 43.5,96.8333 43.5,96.1667 43.5,95.5 Z"/></g>
<g><path style="opacity:1" fill="#1b1a19" d="M 43.5,97.5 C 45.1042,98.287 45.7709,99.6203 45.5,101.5C 43.901,101.232 42.5676,101.566 41.5,102.5C 39.8008,102.66 38.1341,102.494 36.5,102C 38.7343,100.25 41.0676,98.7502 43.5,97.5 Z"/></g>
<g><path style="opacity:1" fill="#eeeded" d="M 97.5,100.5 C 96.8333,100.5 96.1667,100.5 95.5,100.5C 95.6432,97.9026 96.4766,95.5692 98,93.5C 98.7033,95.9291 98.5366,98.2625 97.5,100.5 Z"/></g>
<g><path style="opacity:1" fill="#acacac" d="M 174.5,73.5 C 175.461,75.2646 175.795,77.2646 175.5,79.5C 175.5,80.5 175.5,81.5 175.5,82.5C 173.326,88.8481 171.993,95.5148 171.5,102.5C 170.842,103.398 170.176,104.398 169.5,105.5C 168.614,104.675 168.281,103.675 168.5,102.5C 170.918,92.9154 172.918,83.2488 174.5,73.5 Z"/></g>
<g><path style="opacity:1" fill="#cecece" d="M 150.5,87.5 C 153.394,94.6704 153.061,101.67 149.5,108.5C 148.449,105.656 148.449,102.656 149.5,99.5C 150.555,96.9272 150.722,94.2605 150,91.5C 147.086,89.054 147.253,87.7206 150.5,87.5 Z"/></g>
<g><path style="opacity:1" fill="#1a1a1a" d="M 148.5,99.5 C 148.25,100.922 147.417,101.922 146,102.5C 145.698,108.533 145.198,114.533 144.5,120.5C 143.833,120.5 143.5,120.167 143.5,119.5C 143.5,118.167 143.5,116.833 143.5,115.5C 144.162,113.696 144.495,111.696 144.5,109.5C 144.41,107.036 143.743,104.87 142.5,103C 132.114,101.117 121.78,101.117 111.5,103C 113.087,102.138 114.754,101.471 116.5,101C 127.243,100.81 137.91,100.31 148.5,99.5 Z"/></g>
<g><path style="opacity:1" fill="#313031" d="M 102.5,101.5 C 101.167,101.833 99.8333,102.167 98.5,102.5C 96.5,102.5 94.5,102.5 92.5,102.5C 92.0242,106.993 91.3576,111.327 90.5,115.5C 90.7678,113.901 90.4345,112.568 89.5,111.5C 89.631,110.761 89.4643,110.094 89,109.5C 88.0913,113.54 87.0913,117.54 86,121.5C 85.8333,120.333 85.6667,119.167 85.5,118C 86.3649,112.253 87.6982,106.753 89.5,101.5C 90.7906,105.279 91.7906,104.946 92.5,100.5C 93.5,100.5 94.5,100.5 95.5,100.5C 96.1667,100.5 96.8333,100.5 97.5,100.5C 98.1667,100.5 98.8333,100.5 99.5,100.5C 101.027,100.573 102.027,99.9063 102.5,98.5C 103.728,97.6935 104.728,96.6935 105.5,95.5C 106.167,95.5 106.5,95.1667 106.5,94.5C 107.558,93.3998 108.392,92.0664 109,90.5C 109.75,91.1258 110.584,91.6258 111.5,92C 108.296,95.0359 105.296,98.2026 102.5,101.5 Z"/></g>
<g><path style="opacity:1" fill="#c4c4c4" d="M 9.5,73.5 C 11.0417,82.4042 12.7084,91.4042 14.5,100.5C 13.0999,109.206 13.7666,117.873 16.5,126.5C 17.2876,127.77 18.2876,128.77 19.5,129.5C 23.4465,140.769 29.4465,150.769 37.5,159.5C 39.8373,162.681 42.004,166.014 44,169.5C 49.0435,173.042 53.2101,177.376 56.5,182.5C 31.1986,160.934 14.1986,133.934 5.5,101.5C 6.22158,101.918 6.72158,102.584 7,103.5C 7.46434,102.906 7.63101,102.239 7.5,101.5C 8.26791,102.263 8.76791,103.263 9,104.5C 9.9095,97.0501 9.4095,89.7167 7.5,82.5C 9.27016,79.8066 9.93683,76.8066 9.5,73.5 Z"/></g>
<g><path style="opacity:1" fill="#dcdbdc" d="M 143.5,115.5 C 143.5,116.833 143.5,118.167 143.5,119.5C 142.199,122.101 140.866,124.768 139.5,127.5C 137.983,127.511 136.816,128.177 136,129.5C 135.833,129 135.667,128.5 135.5,128C 137.708,123.005 138.875,117.839 139,112.5C 136.25,121.86 130.75,129.027 122.5,134C 118.973,134.808 115.64,134.641 112.5,133.5C 112.833,132.167 113.167,130.833 113.5,129.5C 116.239,123.876 117.739,117.876 118,111.5C 116.031,120.275 111.865,127.775 105.5,134C 98.5895,136.391 94.9228,134.058 94.5,127C 94.8076,122.077 96.3076,117.577 99,113.5C 99.1667,114 99.3333,114.5 99.5,115C 98.5411,117.12 98.3744,119.287 99,121.5C 100.637,113.862 105.137,108.695 112.5,106C 122.865,103.617 133.032,104.117 143,107.5C 143.497,110.146 143.664,112.813 143.5,115.5 Z"/></g>
<g><path style="opacity:0.986" fill="#747474" d="M 175.5,82.5 C 175.876,89.9603 176.376,97.2936 177,104.5C 177.608,102.934 178.442,101.6 179.5,100.5C 179.007,102.806 178.674,105.139 178.5,107.5C 177.935,111.537 176.601,115.203 174.5,118.5C 172.766,116.317 171.766,113.65 171.5,110.5C 171.945,107.947 171.945,105.28 171.5,102.5C 171.993,95.5148 173.326,88.8481 175.5,82.5 Z"/></g>
<g><path style="opacity:1" fill="#999999" d="M 148.5,99.5 C 148.833,99.5 149.167,99.5 149.5,99.5C 148.449,102.656 148.449,105.656 149.5,108.5C 149.5,109.167 149.5,109.833 149.5,110.5C 147.733,112.792 146.733,115.458 146.5,118.5C 145.833,119.167 145.167,119.833 144.5,120.5C 145.198,114.533 145.698,108.533 146,102.5C 147.417,101.922 148.25,100.922 148.5,99.5 Z"/></g>
<g><path style="opacity:1" fill="#979797" d="M 148.5,98.5 C 148.5,98.8333 148.5,99.1667 148.5,99.5C 137.91,100.31 127.243,100.81 116.5,101C 114.754,101.471 113.087,102.138 111.5,103C 121.78,101.117 132.114,101.117 142.5,103C 143.743,104.87 144.41,107.036 144.5,109.5C 144.495,111.696 144.162,113.696 143.5,115.5C 143.664,112.813 143.497,110.146 143,107.5C 133.032,104.117 122.865,103.617 112.5,106C 105.137,108.695 100.637,113.862 99,121.5C 98.3744,119.287 98.5411,117.12 99.5,115C 99.3333,114.5 99.1667,114 99,113.5C 96.3076,117.577 94.8076,122.077 94.5,127C 94.9228,134.058 98.5895,136.391 105.5,134C 111.865,127.775 116.031,120.275 118,111.5C 117.739,117.876 116.239,123.876 113.5,129.5C 111.408,133.428 108.408,136.594 104.5,139C 99.9283,139.887 95.595,139.22 91.5,137C 90.5201,129.921 90.1868,122.755 90.5,115.5C 91.3576,111.327 92.0242,106.993 92.5,102.5C 94.5,102.5 96.5,102.5 98.5,102.5C 97.3915,103.29 96.0581,103.79 94.5,104C 97.2945,105.557 100.294,105.89 103.5,105C 108.784,101.525 114.451,98.8581 120.5,97C 129.941,96.3404 139.274,96.8404 148.5,98.5 Z"/></g>
<g><path style="opacity:1" fill="#8d8d8d" d="M 168.5,102.5 C 168.281,103.675 168.614,104.675 169.5,105.5C 170.176,104.398 170.842,103.398 171.5,102.5C 171.945,105.28 171.945,107.947 171.5,110.5C 171.766,113.65 172.766,116.317 174.5,118.5C 173.686,122.116 172.352,125.449 170.5,128.5C 169.883,128.611 169.383,128.944 169,129.5C 168.667,128.167 168.333,126.833 168,125.5C 167.581,126.672 166.915,127.672 166,128.5C 165.937,124.692 165.77,121.025 165.5,117.5C 166.833,115.5 166.833,113.5 165.5,111.5C 166.054,108.254 167.054,105.254 168.5,102.5 Z"/></g>
<g><path style="opacity:1" fill="#747474" d="M 163.5,115.5 C 163.66,113.847 164.326,112.514 165.5,111.5C 166.833,113.5 166.833,115.5 165.5,117.5C 163.509,121.79 161.509,126.124 159.5,130.5C 157.642,132.883 156.308,135.55 155.5,138.5C 153.926,139.984 152.593,141.651 151.5,143.5C 147.672,140.983 147.006,137.65 149.5,133.5C 149.023,132.522 148.357,131.689 147.5,131C 149.441,129.184 150.108,127.184 149.5,125C 148.773,123.601 148.273,122.101 148,120.5C 147.617,121.056 147.117,121.389 146.5,121.5C 146.5,120.5 146.5,119.5 146.5,118.5C 148.267,116.208 149.267,113.542 149.5,110.5C 151.182,106.334 153.349,102.334 156,98.5C 157.131,100.725 157.964,103.058 158.5,105.5C 156.932,107.596 157.266,109.262 159.5,110.5C 158.386,115.446 158.219,120.446 159,125.5C 160.789,122.259 162.289,118.926 163.5,115.5 Z"/></g>
<g><path style="opacity:1" fill="#333333" d="M 149.5,110.5 C 149.267,113.542 148.267,116.208 146.5,118.5C 146.733,115.458 147.733,112.792 149.5,110.5 Z"/></g>
<g><path style="opacity:1" fill="#797979" d="M 43.5,117.5 C 45.9931,117.479 48.6598,117.813 51.5,118.5C 49.7086,119.17 48.0419,119.837 46.5,120.5C 44.9142,119.852 43.2475,119.352 41.5,119C 42.0442,118.283 42.7109,117.783 43.5,117.5 Z"/></g>
<g><path style="opacity:1" fill="#a0a0a0" d="M 14.5,100.5 C 18.4972,108.341 20.8305,116.508 21.5,125C 20.4178,126.33 19.7512,127.83 19.5,129.5C 18.2876,128.77 17.2876,127.77 16.5,126.5C 13.7666,117.873 13.0999,109.206 14.5,100.5 Z"/></g>
<g><path style="opacity:1" fill="#ababab" d="M 39.5,104.5 C 40.7094,108.297 42.2094,111.964 44,115.5C 45.0458,113.91 46.2125,112.41 47.5,111C 48.3317,110.312 48.9984,110.479 49.5,111.5C 47.8122,113.854 45.8122,115.854 43.5,117.5C 42.7109,117.783 42.0442,118.283 41.5,119C 43.2475,119.352 44.9142,119.852 46.5,120.5C 48.7476,123.982 51.2476,127.316 54,130.5C 57.1988,129.764 57.3655,130.597 54.5,133C 56.1261,132.805 57.7928,132.805 59.5,133C 58.5842,133.278 57.9175,133.778 57.5,134.5C 56.325,134.281 55.325,134.614 54.5,135.5C 54.6607,144.989 55.6607,154.489 57.5,164C 57.1667,164.167 56.8333,164.333 56.5,164.5C 55.7492,163.624 55.2492,162.624 55,161.5C 53.7153,161.598 52.5486,161.598 51.5,161.5C 47.1256,157.128 43.1256,152.461 39.5,147.5C 37.4042,144.738 35.7375,141.738 34.5,138.5C 34.4346,138.062 34.6012,137.728 35,137.5C 35.4512,139.929 36.2845,140.096 37.5,138C 36.3431,127.785 36.3431,117.452 37.5,107C 35.0437,104.841 35.7104,104.008 39.5,104.5 Z"/></g>
<g><path style="opacity:1" fill="#9e9e9e" d="M 89.5,101.5 C 87.6982,106.753 86.3649,112.253 85.5,118C 85.6667,119.167 85.8333,120.333 86,121.5C 87.0913,117.54 88.0913,113.54 89,109.5C 89.4643,110.094 89.631,110.761 89.5,111.5C 89.6664,119.84 89.4997,128.173 89,136.5C 81.9702,141.765 74.9702,141.765 68,136.5C 67,134.5 66,132.5 65,130.5C 64.9152,132.085 64.7486,133.418 64.5,134.5C 56.4864,128.986 52.3198,121.32 52,111.5C 51.1808,105.319 51.3475,99.3188 52.5,93.5C 52.3341,98.5111 52.5007,103.511 53,108.5C 54.1729,115.181 57.1729,120.848 62,125.5C 61.6411,120.193 61.6411,114.859 62,109.5C 62.7058,114.99 64.0392,120.323 66,125.5C 70.4722,134.955 77.1389,136.955 86,131.5C 85.0342,127.862 84.5342,123.362 84.5,118C 84.1404,112.379 85.1404,107.045 87.5,102C 86.9056,101.536 86.2389,101.369 85.5,101.5C 87.1512,97.5313 89.3178,93.8647 92,90.5C 90.8979,94.0036 90.0645,97.6703 89.5,101.5 Z"/></g>
<g><path style="opacity:1" fill="#363636" d="M 146.5,118.5 C 146.5,119.5 146.5,120.5 146.5,121.5C 145.538,124.739 144.205,127.739 142.5,130.5C 143.342,127.502 143.842,124.502 144,121.5C 142.974,124.239 141.474,126.572 139.5,128.5C 139.5,128.167 139.5,127.833 139.5,127.5C 140.866,124.768 142.199,122.101 143.5,119.5C 143.5,120.167 143.833,120.5 144.5,120.5C 145.167,119.833 145.833,119.167 146.5,118.5 Z"/></g>
<g><path style="opacity:0.983" fill="#b2b2b2" d="M 165.5,117.5 C 165.77,121.025 165.937,124.692 166,128.5C 166.915,127.672 167.581,126.672 168,125.5C 168.333,126.833 168.667,128.167 169,129.5C 169.383,128.944 169.883,128.611 170.5,128.5C 168.926,133.32 166.593,137.653 163.5,141.5C 161.887,141.944 160.72,142.944 160,144.5C 159.032,139.64 159.532,134.974 161.5,130.5C 161.03,129.537 160.363,129.537 159.5,130.5C 161.509,126.124 163.509,121.79 165.5,117.5 Z"/></g>
<g><path style="opacity:1" fill="#9f9f9f" d="M 139.5,127.5 C 139.5,127.833 139.5,128.167 139.5,128.5C 141.474,126.572 142.974,124.239 144,121.5C 143.842,124.502 143.342,127.502 142.5,130.5C 140.704,131.793 139.037,133.293 137.5,135C 136.216,135.684 135.049,135.517 134,134.5C 133.292,135.381 132.458,136.047 131.5,136.5C 130.609,137.11 129.609,137.443 128.5,137.5C 129.458,136.038 130.624,134.705 132,133.5C 132.982,132.241 133.315,130.908 133,129.5C 127.216,139.639 118.716,142.972 107.5,139.5C 109.219,137.456 110.886,135.456 112.5,133.5C 115.64,134.641 118.973,134.808 122.5,134C 130.75,129.027 136.25,121.86 139,112.5C 138.875,117.839 137.708,123.005 135.5,128C 135.667,128.5 135.833,129 136,129.5C 136.816,128.177 137.983,127.511 139.5,127.5 Z"/></g>
<g><path style="opacity:1" fill="#3a3a3a" d="M 139.5,128.5 C 139.539,129.756 139.039,130.756 138,131.5C 137.415,130.002 137.915,129.002 139.5,128.5 Z"/></g>
<g><path style="opacity:1" fill="#404040" d="M 142.5,130.5 C 141.611,132.736 140.278,134.736 138.5,136.5C 136.027,137.797 133.693,137.797 131.5,136.5C 132.458,136.047 133.292,135.381 134,134.5C 135.049,135.517 136.216,135.684 137.5,135C 139.037,133.293 140.704,131.793 142.5,130.5 Z"/></g>
<g><path style="opacity:1" fill="#8b8b8b" d="M 151.5,143.5 C 145.603,149.409 139.937,155.743 134.5,162.5C 134.5,163.167 134.167,163.5 133.5,163.5C 132.957,163.44 132.624,163.107 132.5,162.5C 133.695,160.249 134.695,157.915 135.5,155.5C 133.899,151.271 133.233,147.104 133.5,143C 135.878,142.026 135.544,141.359 132.5,141C 133.833,140.333 133.833,139.667 132.5,139C 131.207,138.51 129.873,138.343 128.5,138.5C 128.5,138.167 128.5,137.833 128.5,137.5C 129.609,137.443 130.609,137.11 131.5,136.5C 133.693,137.797 136.027,137.797 138.5,136.5C 140.278,134.736 141.611,132.736 142.5,130.5C 144.205,127.739 145.538,124.739 146.5,121.5C 147.117,121.389 147.617,121.056 148,120.5C 148.273,122.101 148.773,123.601 149.5,125C 150.108,127.184 149.441,129.184 147.5,131C 148.357,131.689 149.023,132.522 149.5,133.5C 147.006,137.65 147.672,140.983 151.5,143.5 Z"/></g>
<g><path style="opacity:1" fill="#cdcdcd" d="M 163.5,141.5 C 158.603,150.061 152.937,158.061 146.5,165.5C 146.421,164.07 146.754,162.736 147.5,161.5C 150.577,158.591 153.077,155.258 155,151.5C 154.382,148.158 154.882,144.825 156.5,141.5C 155.873,140.583 155.539,139.583 155.5,138.5C 156.308,135.55 157.642,132.883 159.5,130.5C 160.363,129.537 161.03,129.537 161.5,130.5C 159.532,134.974 159.032,139.64 160,144.5C 160.72,142.944 161.887,141.944 163.5,141.5 Z"/></g>
<g><path style="opacity:1" fill="#1b1a1a" d="M 45.5,54.5 C 47.1667,56.8333 49.1667,58.8333 51.5,60.5C 49.3685,63.4461 48.3685,66.7794 48.5,70.5C 46.8762,76.4051 46.3762,82.4051 47,88.5C 47.3333,87.5 47.6667,86.5 48,85.5C 48.1735,89.5408 48.6735,93.5408 49.5,97.5C 50.4891,94.5623 51.1558,91.5623 51.5,88.5C 52.2341,87.2921 52.5674,85.9587 52.5,84.5C 53.3382,84.8417 53.6716,85.5084 53.5,86.5C 52.7814,88.7638 52.448,91.0971 52.5,93.5C 51.3475,99.3188 51.1808,105.319 52,111.5C 52.3198,121.32 56.4864,128.986 64.5,134.5C 64.7486,133.418 64.9152,132.085 65,130.5C 66,132.5 67,134.5 68,136.5C 74.9702,141.765 81.9702,141.765 89,136.5C 89.4997,128.173 89.6664,119.84 89.5,111.5C 90.4345,112.568 90.7678,113.901 90.5,115.5C 90.1868,122.755 90.5201,129.921 91.5,137C 95.595,139.22 99.9283,139.887 104.5,139C 108.408,136.594 111.408,133.428 113.5,129.5C 113.167,130.833 112.833,132.167 112.5,133.5C 110.886,135.456 109.219,137.456 107.5,139.5C 118.716,142.972 127.216,139.639 133,129.5C 133.315,130.908 132.982,132.241 132,133.5C 130.624,134.705 129.458,136.038 128.5,137.5C 128.5,137.833 128.5,138.167 128.5,138.5C 127.005,138.415 126.005,139.081 125.5,140.5C 127.387,143.153 128.887,145.819 130,148.5C 127,146.5 124,144.5 121,142.5C 120.316,143.784 120.483,144.951 121.5,146C 120.429,146.852 119.429,147.685 118.5,148.5C 117.041,148.433 115.708,148.766 114.5,149.5C 113.846,148.815 113.846,147.815 114.5,146.5C 111.511,142.503 108.511,142.503 105.5,146.5C 105.557,147.609 105.89,148.609 106.5,149.5C 102.689,150.645 98.6888,150.812 94.5,150C 95.6872,148.981 96.6872,147.814 97.5,146.5C 97.1667,145.5 96.5,144.833 95.5,144.5C 93.3418,147.148 92.0084,150.148 91.5,153.5C 91.5,154.167 91.1667,154.5 90.5,154.5C 90.5,150.833 90.5,147.167 90.5,143.5C 93.8056,142.577 93.4723,142.577 89.5,143.5C 88.5222,143.811 87.8555,144.478 87.5,145.5C 88.2458,146.736 88.5792,148.07 88.5,149.5C 87.8333,149.5 87.1667,149.5 86.5,149.5C 83.5,148.833 80.5,148.167 77.5,147.5C 74.8249,145.624 75.1582,144.124 78.5,143C 74.8198,142.318 72.3198,143.818 71,147.5C 71.3513,145.114 71.1847,142.781 70.5,140.5C 69.8333,141.167 69.1667,141.833 68.5,142.5C 64.5888,140.057 60.9221,137.39 57.5,134.5C 57.9175,133.778 58.5842,133.278 59.5,133C 57.7928,132.805 56.1261,132.805 54.5,133C 57.3655,130.597 57.1988,129.764 54,130.5C 51.2476,127.316 48.7476,123.982 46.5,120.5C 48.0419,119.837 49.7086,119.17 51.5,118.5C 48.6598,117.813 45.9931,117.479 43.5,117.5C 45.8122,115.854 47.8122,113.854 49.5,111.5C 48.9984,110.479 48.3317,110.312 47.5,111C 46.2125,112.41 45.0458,113.91 44,115.5C 42.2094,111.964 40.7094,108.297 39.5,104.5C 41.0603,104.519 42.5603,104.852 44,105.5C 45.0299,105.164 45.5299,104.497 45.5,103.5C 47.1839,100.282 46.5172,97.6154 43.5,95.5C 41.6064,96.0476 39.9397,97.0476 38.5,98.5C 37.343,95.2156 37.1764,91.8823 38,88.5C 39.6117,91.0789 41.1117,91.0789 42.5,88.5C 39.4656,86.4031 36.1323,84.9031 32.5,84C 33.448,83.5172 34.448,83.3505 35.5,83.5C 38.0588,83.6104 40.3921,82.9438 42.5,81.5C 41.2243,80.3554 39.891,80.3554 38.5,81.5C 37.2508,78.2412 37.7508,75.2412 40,72.5C 40.8261,74.4054 41.9928,74.7388 43.5,73.5C 41.3501,70.8494 39.0168,68.3494 36.5,66C 39.7865,66.114 42.9531,66.9474 46,68.5C 46.6838,67.2161 46.5171,66.0495 45.5,65C 46.5742,64.2613 47.2409,63.2613 47.5,62C 46.6368,59.7735 45.6368,57.6068 44.5,55.5C 44.6236,54.8933 44.9569,54.56 45.5,54.5 Z"/></g>
<g><path style="opacity:1" fill="#e7e7e7" d="M 89.5,143.5 C 89.7947,145.735 89.4614,147.735 88.5,149.5C 88.5792,148.07 88.2458,146.736 87.5,145.5C 87.8555,144.478 88.5222,143.811 89.5,143.5 Z"/></g>
<g><path style="opacity:1" fill="#191919" d="M 111.5,155.5 C 109.928,152.682 108.594,149.682 107.5,146.5C 108.287,144.896 109.62,144.229 111.5,144.5C 111.5,148.167 111.5,151.833 111.5,155.5 Z"/></g>
<g><path style="opacity:1" fill="#a4a4a4" d="M 128.5,138.5 C 129.873,138.343 131.207,138.51 132.5,139C 133.833,139.667 133.833,140.333 132.5,141C 135.544,141.359 135.878,142.026 133.5,143C 133.233,147.104 133.899,151.271 135.5,155.5C 134.695,157.915 133.695,160.249 132.5,162.5C 132.624,163.107 132.957,163.44 133.5,163.5C 129.5,168.167 125.167,172.5 120.5,176.5C 118.158,176.225 118.158,175.392 120.5,174C 119.51,165.749 119.51,157.415 120.5,149C 119.906,148.536 119.239,148.369 118.5,148.5C 119.429,147.685 120.429,146.852 121.5,146C 120.483,144.951 120.316,143.784 121,142.5C 124,144.5 127,146.5 130,148.5C 128.887,145.819 127.387,143.153 125.5,140.5C 126.005,139.081 127.005,138.415 128.5,138.5 Z"/></g>
<g><path style="opacity:1" fill="#bababa" d="M 57.5,134.5 C 60.9221,137.39 64.5888,140.057 68.5,142.5C 69.1667,141.833 69.8333,141.167 70.5,140.5C 71.1847,142.781 71.3513,145.114 71,147.5C 72.3198,143.818 74.8198,142.318 78.5,143C 75.1582,144.124 74.8249,145.624 77.5,147.5C 75.5291,148.51 74.0291,149.843 73,151.5C 72.8173,159.745 72.3173,167.912 71.5,176C 73.3028,177.262 74.6361,178.929 75.5,181C 74.5509,181.617 73.7175,181.451 73,180.5C 72.5357,181.094 72.369,181.761 72.5,182.5C 64.5272,176.527 57.5272,169.527 51.5,161.5C 52.5486,161.598 53.7153,161.598 55,161.5C 55.2492,162.624 55.7492,163.624 56.5,164.5C 56.8333,164.333 57.1667,164.167 57.5,164C 55.6607,154.489 54.6607,144.989 54.5,135.5C 55.325,134.614 56.325,134.281 57.5,134.5 Z"/></g>
<g><path style="opacity:1" fill="#a8a8a8" d="M 155.5,138.5 C 155.539,139.583 155.873,140.583 156.5,141.5C 154.882,144.825 154.382,148.158 155,151.5C 153.077,155.258 150.577,158.591 147.5,161.5C 146.754,162.736 146.421,164.07 146.5,165.5C 143.542,170.126 139.876,174.126 135.5,177.5C 138.488,172.69 141.821,168.023 145.5,163.5C 144.568,161.205 143.735,158.871 143,156.5C 140.6,158.729 138.433,161.063 136.5,163.5C 136.158,162.662 135.492,162.328 134.5,162.5C 139.937,155.743 145.603,149.409 151.5,143.5C 152.593,141.651 153.926,139.984 155.5,138.5 Z"/></g>
<g><path style="opacity:1" fill="#808080" d="M 90.5,154.5 C 89.407,152.651 88.0737,150.984 86.5,149.5C 87.1667,149.5 87.8333,149.5 88.5,149.5C 89.4614,147.735 89.7947,145.735 89.5,143.5C 93.4723,142.577 93.8056,142.577 90.5,143.5C 90.5,147.167 90.5,150.833 90.5,154.5 Z"/></g>
<g><path style="opacity:1" fill="#696969" d="M 106.5,149.5 C 107.338,149.842 107.672,150.508 107.5,151.5C 102.821,151.334 98.1548,151.501 93.5,152C 92.9558,152.717 92.2891,153.217 91.5,153.5C 92.0084,150.148 93.3418,147.148 95.5,144.5C 96.5,144.833 97.1667,145.5 97.5,146.5C 96.6872,147.814 95.6872,148.981 94.5,150C 98.6888,150.812 102.689,150.645 106.5,149.5 Z"/></g>
<g><path style="opacity:1" fill="#c7c7c7" d="M 77.5,147.5 C 80.5,148.167 83.5,148.833 86.5,149.5C 88.0737,150.984 89.407,152.651 90.5,154.5C 91.1667,154.5 91.5,154.167 91.5,153.5C 92.2891,153.217 92.9558,152.717 93.5,152C 98.1548,151.501 102.821,151.334 107.5,151.5C 107.586,152.496 107.252,153.329 106.5,154C 108.891,155.309 108.891,156.309 106.5,157C 107.167,157.333 107.833,157.667 108.5,158C 106.819,166.617 105.819,175.45 105.5,184.5C 106.472,184.593 107.472,184.926 108.5,185.5C 106.353,187.737 104.02,189.737 101.5,191.5C 99.3635,192.403 97.3635,193.569 95.5,195C 93.8333,195.667 92.1667,195.667 90.5,195C 84.2966,191.07 78.2966,186.903 72.5,182.5C 72.369,181.761 72.5357,181.094 73,180.5C 73.7175,181.451 74.5509,181.617 75.5,181C 74.6361,178.929 73.3028,177.262 71.5,176C 72.3173,167.912 72.8173,159.745 73,151.5C 74.0291,149.843 75.5291,148.51 77.5,147.5 Z"/></g>
<g><path style="opacity:1" fill="#7e7e7e" d="M 114.5,149.5 C 113.87,151.75 112.87,153.75 111.5,155.5C 111.5,151.833 111.5,148.167 111.5,144.5C 109.62,144.229 108.287,144.896 107.5,146.5C 106.833,146.5 106.167,146.5 105.5,146.5C 108.511,142.503 111.511,142.503 114.5,146.5C 113.846,147.815 113.846,148.815 114.5,149.5 Z"/></g>
<g><path style="opacity:1" fill="#b7b7b7" d="M 105.5,146.5 C 106.167,146.5 106.833,146.5 107.5,146.5C 108.594,149.682 109.928,152.682 111.5,155.5C 112.87,153.75 113.87,151.75 114.5,149.5C 115.708,148.766 117.041,148.433 118.5,148.5C 119.239,148.369 119.906,148.536 120.5,149C 119.51,157.415 119.51,165.749 120.5,174C 118.158,175.392 118.158,176.225 120.5,176.5C 120.328,177.492 120.662,178.158 121.5,178.5C 119.393,180.727 117.06,182.727 114.5,184.5C 113.85,184.196 113.183,183.863 112.5,183.5C 111.378,184.63 110.044,185.297 108.5,185.5C 107.472,184.926 106.472,184.593 105.5,184.5C 105.819,175.45 106.819,166.617 108.5,158C 107.833,157.667 107.167,157.333 106.5,157C 108.891,156.309 108.891,155.309 106.5,154C 107.252,153.329 107.586,152.496 107.5,151.5C 107.672,150.508 107.338,149.842 106.5,149.5C 105.89,148.609 105.557,147.609 105.5,146.5 Z"/></g>
<g><path style="opacity:1" fill="#dedede" d="M 134.5,162.5 C 135.492,162.328 136.158,162.662 136.5,163.5C 131.833,168.833 126.833,173.833 121.5,178.5C 120.662,178.158 120.328,177.492 120.5,176.5C 125.167,172.5 129.5,168.167 133.5,163.5C 134.167,163.5 134.5,163.167 134.5,162.5 Z"/></g>
<g><path style="opacity:1" fill="#6f6f6f" d="M 39.5,147.5 C 43.1256,152.461 47.1256,157.128 51.5,161.5C 57.5272,169.527 64.5272,176.527 72.5,182.5C 78.2966,186.903 84.2966,191.07 90.5,195C 92.1667,195.667 93.8333,195.667 95.5,195C 97.3635,193.569 99.3635,192.403 101.5,191.5C 102.492,191.328 103.158,191.662 103.5,192.5C 99.9663,194.766 96.2996,196.766 92.5,198.5C 85.9979,194.75 79.6645,190.75 73.5,186.5C 70.7607,183.616 67.7607,180.949 64.5,178.5C 63.1667,180.833 63.1667,183.167 64.5,185.5C 64,185.833 63.5,186.167 63,186.5C 60.9409,184.93 58.7742,183.597 56.5,182.5C 53.2101,177.376 49.0435,173.042 44,169.5C 42.004,166.014 39.8373,162.681 37.5,159.5C 37.5774,158.25 38.244,157.417 39.5,157C 38.6433,156.311 37.9767,155.478 37.5,154.5C 38.6155,153.402 38.6155,152.235 37.5,151C 37.8082,149.541 38.4749,148.374 39.5,147.5 Z"/></g>
<g><path style="opacity:1" fill="#979797" d="M 73.5,186.5 C 73.0618,186.435 72.7284,186.601 72.5,187C 74.7811,188.851 74.7811,190.518 72.5,192C 74.6447,192.743 74.8114,193.576 73,194.5C 71.5936,193.586 70.0936,192.92 68.5,192.5C 63.7524,190.118 59.7524,186.784 56.5,182.5C 58.7742,183.597 60.9409,184.93 63,186.5C 63.5,186.167 64,185.833 64.5,185.5C 63.1667,183.167 63.1667,180.833 64.5,178.5C 67.7607,180.949 70.7607,183.616 73.5,186.5 Z"/></g>
<g><path style="opacity:1" fill="#797979" d="M 135.5,177.5 C 130.582,182.628 125.249,187.295 119.5,191.5C 117.922,190.934 116.588,189.934 115.5,188.5C 115.709,187.914 116.043,187.414 116.5,187C 115.244,186.583 114.577,185.75 114.5,184.5C 117.06,182.727 119.393,180.727 121.5,178.5C 126.833,173.833 131.833,168.833 136.5,163.5C 138.433,161.063 140.6,158.729 143,156.5C 143.735,158.871 144.568,161.205 145.5,163.5C 141.821,168.023 138.488,172.69 135.5,177.5 Z"/></g>
<g><path style="opacity:1" fill="#939393" d="M 114.5,184.5 C 114.577,185.75 115.244,186.583 116.5,187C 116.043,187.414 115.709,187.914 115.5,188.5C 116.588,189.934 117.922,190.934 119.5,191.5C 115.896,194.975 111.896,197.975 107.5,200.5C 105.343,199.947 105.51,198.947 108,197.5C 108.783,195.567 108.283,194.067 106.5,193C 107.167,192.333 107.833,191.667 108.5,191C 106.505,190.387 104.838,190.887 103.5,192.5C 103.158,191.662 102.492,191.328 101.5,191.5C 104.02,189.737 106.353,187.737 108.5,185.5C 110.044,185.297 111.378,184.63 112.5,183.5C 113.183,183.863 113.85,184.196 114.5,184.5 Z"/></g>
<g><path style="opacity:1" fill="#bcbcbc" d="M 107.5,200.5 C 103.836,203.335 99.8362,205.668 95.5,207.5C 93.1582,207.225 93.1582,206.392 95.5,205C 94.1667,204 94.1667,203 95.5,202C 94.635,200.641 93.635,199.474 92.5,198.5C 96.2996,196.766 99.9663,194.766 103.5,192.5C 104.838,190.887 106.505,190.387 108.5,191C 107.833,191.667 107.167,192.333 106.5,193C 108.283,194.067 108.783,195.567 108,197.5C 105.51,198.947 105.343,199.947 107.5,200.5 Z"/></g>
<g><path style="opacity:0.761" fill="#cecece" d="M 73.5,186.5 C 79.6645,190.75 85.9979,194.75 92.5,198.5C 93.635,199.474 94.635,200.641 95.5,202C 94.1667,203 94.1667,204 95.5,205C 93.1582,206.392 93.1582,207.225 95.5,207.5C 95.5,207.833 95.5,208.167 95.5,208.5C 94.1667,208.5 92.8333,208.5 91.5,208.5C 83.2814,203.946 75.6147,198.613 68.5,192.5C 70.0936,192.92 71.5936,193.586 73,194.5C 74.8114,193.576 74.6447,192.743 72.5,192C 74.7811,190.518 74.7811,188.851 72.5,187C 72.7284,186.601 73.0618,186.435 73.5,186.5 Z"/></g>
</svg>
