<?xml version="1.0" encoding="UTF-8"?>
<!DOCTYPE svg PUBLIC "-//W3C//DTD SVG 1.1//EN" "http://www.w3.org/Graphics/SVG/1.1/DTD/svg11.dtd">
<svg xmlns="http://www.w3.org/2000/svg" version="1.1" width="235px" height="235px" style="shape-rendering:geometricPrecision; text-rendering:geometricPrecision; image-rendering:optimizeQuality; fill-rule:evenodd; clip-rule:evenodd" xmlns:xlink="http://www.w3.org/1999/xlink">
<g><path style="opacity:1" fill="#134067" d="M 195.5,195.5 C 186.814,204.195 176.814,210.862 165.5,215.5C 157.543,217.045 149.877,219.545 142.5,223C 128.999,225.889 115.332,226.223 101.5,224C 93.4688,222.56 85.4688,221.06 77.5,219.5C 53.0254,210.196 34.1921,194.196 21,171.5C 0.392718,131.209 1.89272,91.8754 25.5,53.5C 54.5917,14.7333 93.2584,-0.433373 141.5,8C 177.155,16.6548 202.988,37.4881 219,70.5C 236.634,117.153 228.801,158.82 195.5,195.5 Z"/></g>
<g><path style="opacity:0.868" fill="#f4f7f8" d="M 101.5,-0.5 C 111.833,-0.5 122.167,-0.5 132.5,-0.5C 178.138,7.91871 209.971,33.5854 228,76.5C 230.667,84.8385 232.833,93.1718 234.5,101.5C 234.5,111.833 234.5,122.167 234.5,132.5C 229.879,161.077 216.879,185.077 195.5,204.5C 195.217,203.711 194.717,203.044 194,202.5C 192.817,203.731 191.651,203.731 190.5,202.5C 191.518,201.148 192.851,200.148 194.5,199.5C 195.246,198.264 195.579,196.93 195.5,195.5C 228.801,158.82 236.634,117.153 219,70.5C 202.988,37.4881 177.155,16.6548 141.5,8C 93.2584,-0.433373 54.5917,14.7333 25.5,53.5C 24.5041,53.5858 23.6708,53.2524 23,52.5C 22.5065,50.8659 22.3398,49.1992 22.5,47.5C 42.0482,20.5497 68.3815,4.54967 101.5,-0.5 Z"/></g>
<g><path style="opacity:1" fill="#f2f6f9" d="M 115.5,39.5 C 137.866,51.8568 160.199,64.5235 182.5,77.5C 183.833,103.5 183.833,129.5 182.5,155.5C 160.697,167.569 139.031,179.902 117.5,192.5C 95.5996,180.605 73.933,168.271 52.5,155.5C 51.1667,129.5 51.1667,103.5 52.5,77.5C 73.7296,65.0589 94.7296,52.3923 115.5,39.5 Z"/></g>
<g><path style="opacity:1" fill="#183f65" d="M 115.5,48.5 C 117.308,48.4914 118.975,48.9914 120.5,50C 138.331,60.0811 155.998,70.4144 173.5,81C 174.448,81.4828 175.448,81.6495 176.5,81.5C 176.667,104.502 176.5,127.502 176,150.5C 156.269,161.861 136.602,173.194 117,184.5C 97.6667,173.167 78.3333,161.833 59,150.5C 58.1669,127.493 58.3335,104.493 59.5,81.5C 78.5591,70.9778 97.2258,59.9778 115.5,48.5 Z"/></g>
<g><path style="opacity:1" fill="#afb2c9" d="M 129.5,130.5 C 130.451,131.919 130.784,133.585 130.5,135.5C 121.651,135.826 112.984,135.493 104.5,134.5C 112.833,134.5 121.167,134.5 129.5,134.5C 129.5,133.167 129.5,131.833 129.5,130.5 Z"/></g>
<g><path style="opacity:1" fill="#f8fafb" d="M 83.5,108.5 C 89.1938,111.434 94.6938,114.767 100,118.5C 100.333,124.5 100.667,130.5 101,136.5C 104.333,139.833 107.667,143.167 111,146.5C 111.667,148.833 111.667,151.167 111,153.5C 107.985,156.683 104.818,159.683 101.5,162.5C 97.8333,163.833 94.1667,163.833 90.5,162.5C 83.3388,148.84 75.6722,135.507 67.5,122.5C 72.8648,117.826 78.1982,113.159 83.5,108.5 Z"/></g>
<g><path style="opacity:1" fill="#f8f9fb" d="M 148.5,108.5 C 154.649,112.748 160.649,117.248 166.5,122C 158.454,135.256 150.787,148.756 143.5,162.5C 140.216,163.657 136.882,163.824 133.5,163C 129.701,160.203 126.201,157.036 123,153.5C 122.333,151.167 122.333,148.833 123,146.5C 126.333,143.167 129.667,139.833 133,136.5C 133.333,130.5 133.667,124.5 134,118.5C 138.737,114.913 143.57,111.58 148.5,108.5 Z"/></g>
<g><path style="opacity:1" fill="#f9fafc" d="M 129.5,130.5 C 129.5,131.833 129.5,133.167 129.5,134.5C 121.167,134.5 112.833,134.5 104.5,134.5C 104.382,129.637 104.715,124.803 105.5,120C 104.522,114.567 102.855,109.4 100.5,104.5C 111.5,103.167 122.5,103.167 133.5,104.5C 131.532,109.571 129.865,114.737 128.5,120C 129.286,123.458 129.62,126.958 129.5,130.5 Z"/></g>
<g><path style="opacity:1" fill="#586482" d="M 148.5,97.5 C 149.404,98.209 149.737,99.209 149.5,100.5C 127.823,100.833 106.156,100.5 84.5,99.5C 84.6236,98.8933 84.9569,98.56 85.5,98.5C 95.8279,99.1665 106.328,99.4998 117,99.5C 127.855,99.4987 138.355,98.8321 148.5,97.5 Z"/></g>
<g><path style="opacity:1" fill="#f7f8fa" d="M 148.5,97.5 C 138.355,98.8321 127.855,99.4987 117,99.5C 106.328,99.4998 95.8279,99.1665 85.5,98.5C 87.1668,89.8322 88.8335,81.1656 90.5,72.5C 108.167,72.5 125.833,72.5 143.5,72.5C 145.444,80.7783 147.111,89.1117 148.5,97.5 Z"/></g>
<g><path style="opacity:1" fill="#838187" d="M 7.5,159.5 C 9.7267,161.229 10.7267,163.562 10.5,166.5C 8.70732,164.574 7.70732,162.241 7.5,159.5 Z"/></g>
<g><path style="opacity:1" fill="#969699" d="M 16.5,178.5 C 17.8333,178.5 19.1667,178.5 20.5,178.5C 20.9926,180.806 21.3259,183.139 21.5,185.5C 19.4776,183.469 17.8109,181.135 16.5,178.5 Z"/></g>
<g><path style="opacity:0.078" fill="#1f1e25" d="M 25.5,190.5 C 26.9063,190.973 27.573,191.973 27.5,193.5C 26.0937,193.027 25.427,192.027 25.5,190.5 Z"/></g>
<g><path style="opacity:0.969" fill="#46454a" d="M 39.5,205.5 C 41.4044,205.738 42.7377,206.738 43.5,208.5C 41.5956,208.262 40.2623,207.262 39.5,205.5 Z"/></g>
<g><path style="opacity:1" fill="#e8ebed" d="M 22.5,47.5 C 22.3398,49.1992 22.5065,50.8659 23,52.5C 23.6708,53.2524 24.5041,53.5858 25.5,53.5C 1.89272,91.8754 0.392718,131.209 21,171.5C 34.1921,194.196 53.0254,210.196 77.5,219.5C 93.3595,226.419 110.026,228.919 127.5,227C 141.102,225.857 153.768,222.024 165.5,215.5C 176.814,210.862 186.814,204.195 195.5,195.5C 195.579,196.93 195.246,198.264 194.5,199.5C 192.851,200.148 191.518,201.148 190.5,202.5C 191.651,203.731 192.817,203.731 194,202.5C 194.717,203.044 195.217,203.711 195.5,204.5C 180.748,218.211 163.415,227.211 143.5,231.5C 141.143,231.337 138.81,231.503 136.5,232C 135.944,232.383 135.611,232.883 135.5,233.5C 134.209,233.263 133.209,233.596 132.5,234.5C 122.167,234.5 111.833,234.5 101.5,234.5C 97.8091,233.607 94.1424,232.607 90.5,231.5C 88.4855,230.076 86.1522,229.41 83.5,229.5C 74.0989,227.463 65.4323,223.797 57.5,218.5C 57.0269,217.094 56.0269,216.427 54.5,216.5C 54.0269,215.094 53.0269,214.427 51.5,214.5C 50.7377,212.738 49.4044,211.738 47.5,211.5C 45.5956,211.262 44.2623,210.262 43.5,208.5C 42.7377,206.738 41.4044,205.738 39.5,205.5C 35.1667,201.833 31.1667,197.833 27.5,193.5C 27.573,191.973 26.9063,190.973 25.5,190.5C 23.457,189.421 22.1237,187.754 21.5,185.5C 21.3259,183.139 20.9926,180.806 20.5,178.5C 19.1667,178.5 17.8333,178.5 16.5,178.5C 13.9922,174.818 11.9922,170.818 10.5,166.5C 10.7267,163.562 9.7267,161.229 7.5,159.5C 3.74534,150.813 1.07868,141.813 -0.5,132.5C -0.5,122.167 -0.5,111.833 -0.5,101.5C 2.08397,85.257 7.58397,69.9236 16,55.5C 17.9461,52.5798 20.1128,49.9131 22.5,47.5 Z"/></g>
<g><path style="opacity:0.933" fill="#67656e" d="M 47.5,211.5 C 49.4044,211.738 50.7377,212.738 51.5,214.5C 49.5956,214.262 48.2623,213.262 47.5,211.5 Z"/></g>
<g><path style="opacity:0.655" fill="#504c54" d="M 51.5,214.5 C 53.0269,214.427 54.0269,215.094 54.5,216.5C 52.9731,216.573 51.9731,215.906 51.5,214.5 Z"/></g>
<g><path style="opacity:0.522" fill="#2f2c33" d="M 54.5,216.5 C 56.0269,216.427 57.0269,217.094 57.5,218.5C 55.9731,218.573 54.9731,217.906 54.5,216.5 Z"/></g>
<g><path style="opacity:1" fill="#274967" d="M 165.5,215.5 C 153.768,222.024 141.102,225.857 127.5,227C 110.026,228.919 93.3595,226.419 77.5,219.5C 85.4688,221.06 93.4688,222.56 101.5,224C 115.332,226.223 128.999,225.889 142.5,223C 149.877,219.545 157.543,217.045 165.5,215.5 Z"/></g>
<g><path style="opacity:1" fill="#6e6c72" d="M 83.5,229.5 C 86.1522,229.41 88.4855,230.076 90.5,231.5C 87.8478,231.59 85.5145,230.924 83.5,229.5 Z"/></g>
<g><path style="opacity:1" fill="#94919b" d="M 143.5,231.5 C 141.039,232.531 138.373,233.198 135.5,233.5C 135.611,232.883 135.944,232.383 136.5,232C 138.81,231.503 141.143,231.337 143.5,231.5 Z"/></g>
</svg>
