<?xml version="1.0" encoding="UTF-8"?>
<!DOCTYPE svg PUBLIC "-//W3C//DTD SVG 1.1//EN" "http://www.w3.org/Graphics/SVG/1.1/DTD/svg11.dtd">
<svg xmlns="http://www.w3.org/2000/svg" version="1.1" width="96px" height="96px" style="shape-rendering:geometricPrecision; text-rendering:geometricPrecision; image-rendering:optimizeQuality; fill-rule:evenodd; clip-rule:evenodd" xmlns:xlink="http://www.w3.org/1999/xlink">
<g><path style="opacity:0.99" fill="#feeef4" d="M 37.5,-0.5 C 44.1667,-0.5 50.8333,-0.5 57.5,-0.5C 77.193,5.193 89.8597,17.8597 95.5,37.5C 95.5,44.1667 95.5,50.8333 95.5,57.5C 92.8082,67.2166 87.8082,75.55 80.5,82.5C 78.2573,80.6512 75.924,78.9846 73.5,77.5C 74.376,76.7492 75.376,76.2492 76.5,76C 74.8659,75.5065 73.1992,75.3398 71.5,75.5C 74.2028,71.5602 75.0362,67.2269 74,62.5C 71.1291,58.9841 67.6291,56.3174 63.5,54.5C 62.5713,55.6888 62.238,57.0222 62.5,58.5C 62.1667,58.5 61.8333,58.5 61.5,58.5C 61.6567,57.1266 61.49,55.7932 61,54.5C 60.9918,57.3454 59.8251,59.3454 57.5,60.5C 56.4747,58.485 54.808,57.1517 52.5,56.5C 52.3602,55.0971 52.3602,53.5971 52.5,52C 50.9698,50.8797 49.3032,50.0464 47.5,49.5C 47.5,48.5 47.5,47.5 47.5,46.5C 46.5,46.5 45.5,46.5 44.5,46.5C 45.6736,44.6322 45.0069,43.6322 42.5,43.5C 42.5,42.1667 42.5,40.8333 42.5,39.5C 38.5271,34.8604 34.1938,30.5271 29.5,26.5C 32.7311,31.7441 36.3977,36.7441 40.5,41.5C 39.9984,42.521 39.3317,42.6877 38.5,42C 35.3333,38.1667 32.1667,34.3333 29,30.5C 28.6012,30.7284 28.4346,31.0618 28.5,31.5C 24.7279,26.8821 20.7279,23.0487 16.5,20C 16.8333,19.6667 17.1667,19.3333 17.5,19C 16.2986,18.0975 15.4652,16.9308 15,15.5C 14.5488,17.9288 13.7155,18.0955 12.5,16C 13.2524,15.3292 13.5858,14.4959 13.5,13.5C 16.8845,9.63064 20.8845,6.46397 25.5,4C 29.5711,2.36954 33.5711,0.869545 37.5,-0.5 Z"/></g>
<g><path style="opacity:1" fill="#ff7bb6" d="M 29.5,26.5 C 26.6052,24.7977 24.7719,22.4644 24,19.5C 26.4536,21.4412 28.287,23.7746 29.5,26.5 Z"/></g>
<g><path style="opacity:0.992" fill="#fdf6f9" d="M 13.5,13.5 C 13.5858,14.4959 13.2524,15.3292 12.5,16C 13.7155,18.0955 14.5488,17.9288 15,15.5C 15.4652,16.9308 16.2986,18.0975 17.5,19C 17.1667,19.3333 16.8333,19.6667 16.5,20C 20.7279,23.0487 24.7279,26.8821 28.5,31.5C 35.5864,41.5278 34.7531,51.1945 26,60.5C 25.1176,64.5312 25.9509,68.1979 28.5,71.5C 34.7056,73.116 37.8722,70.7826 38,64.5C 35.2951,63.2454 33.4618,61.2454 32.5,58.5C 33.9655,54.9364 35.1322,51.2698 36,47.5C 38.4381,46.4316 40.6048,45.0983 42.5,43.5C 45.0069,43.6322 45.6736,44.6322 44.5,46.5C 42.8235,47.1834 42.1568,48.5168 42.5,50.5C 44.4147,50.7845 46.0813,50.4511 47.5,49.5C 49.3032,50.0464 50.9698,50.8797 52.5,52C 52.3602,53.5971 52.3602,55.0971 52.5,56.5C 54.808,57.1517 56.4747,58.485 57.5,60.5C 54.337,61.8469 51.0037,63.0136 47.5,64C 51.2613,64.7383 54.9279,64.4049 58.5,63C 60.1412,61.871 61.1412,60.371 61.5,58.5C 61.8333,58.5 62.1667,58.5 62.5,58.5C 64.4401,62.2797 66.6067,65.9464 69,69.5C 69.6869,71.5675 69.5202,73.5675 68.5,75.5C 69.4246,76.5624 70.4246,76.5624 71.5,75.5C 73.1992,75.3398 74.8659,75.5065 76.5,76C 75.376,76.2492 74.376,76.7492 73.5,77.5C 75.924,78.9846 78.2573,80.6512 80.5,82.5C 74.0284,88.9768 66.3618,93.3101 57.5,95.5C 50.8333,95.5 44.1667,95.5 37.5,95.5C 17.807,89.807 5.14032,77.1403 -0.5,57.5C -0.5,50.8333 -0.5,44.1667 -0.5,37.5C 1.39416,31.6986 3.89416,26.0319 7,20.5C 8.66571,17.6688 10.8324,15.3355 13.5,13.5 Z"/></g>
<g><path style="opacity:1" fill="#ff2c85" d="M 42.5,39.5 C 41.0712,36.6916 40.4045,33.6916 40.5,30.5C 41.8221,30.33 42.9887,30.6634 44,31.5C 45.8445,34.8116 46.6778,38.1449 46.5,41.5C 45.3777,40.3698 44.0443,39.7031 42.5,39.5 Z"/></g>
<g><path style="opacity:1" fill="#ff2e85" d="M 42.5,29.5 C 43.2506,28.4265 44.2506,28.2599 45.5,29C 47.9768,30.6427 50.3102,32.476 52.5,34.5C 62.2736,33.0566 69.2736,36.8899 73.5,46C 67.8657,45.1711 62.1991,43.8378 56.5,42C 53.1667,38.3333 49.8333,34.6667 46.5,31C 45.255,30.2086 43.9217,29.7086 42.5,29.5 Z"/></g>
<g><path style="opacity:1" fill="#ff2c86" d="M 29.5,26.5 C 34.1938,30.5271 38.5271,34.8604 42.5,39.5C 42.5,40.8333 42.5,42.1667 42.5,43.5C 40.6048,45.0983 38.4381,46.4316 36,47.5C 35.1322,51.2698 33.9655,54.9364 32.5,58.5C 33.4618,61.2454 35.2951,63.2454 38,64.5C 37.8722,70.7826 34.7056,73.116 28.5,71.5C 25.9509,68.1979 25.1176,64.5312 26,60.5C 34.7531,51.1945 35.5864,41.5278 28.5,31.5C 28.4346,31.0618 28.6012,30.7284 29,30.5C 32.1667,34.3333 35.3333,38.1667 38.5,42C 39.3317,42.6877 39.9984,42.521 40.5,41.5C 36.3977,36.7441 32.7311,31.7441 29.5,26.5 Z"/></g>
<g><path style="opacity:1" fill="#ff2382" d="M 55.5,43.5 C 61.5146,45.013 67.5146,46.8463 73.5,49C 76.5276,52.7227 77.1942,56.8894 75.5,61.5C 74.7379,60.3717 74.0712,59.2051 73.5,58C 67.5917,55.4651 62.0917,52.2984 57,48.5C 55.9914,46.9751 55.4914,45.3084 55.5,43.5 Z"/></g>
<g><path style="opacity:1" fill="#ff2581" d="M 44.5,46.5 C 45.5,46.5 46.5,46.5 47.5,46.5C 47.5,47.5 47.5,48.5 47.5,49.5C 46.0813,50.4511 44.4147,50.7845 42.5,50.5C 42.1568,48.5168 42.8235,47.1834 44.5,46.5 Z"/></g>
<g><path style="opacity:1" fill="#ff2382" d="M 71.5,75.5 C 70.4246,76.5624 69.4246,76.5624 68.5,75.5C 69.5202,73.5675 69.6869,71.5675 69,69.5C 66.6067,65.9464 64.4401,62.2797 62.5,58.5C 62.238,57.0222 62.5713,55.6888 63.5,54.5C 67.6291,56.3174 71.1291,58.9841 74,62.5C 75.0362,67.2269 74.2028,71.5602 71.5,75.5 Z"/></g>
<g><path style="opacity:1" fill="#ff4694" d="M 61.5,58.5 C 61.1412,60.371 60.1412,61.871 58.5,63C 54.9279,64.4049 51.2613,64.7383 47.5,64C 51.0037,63.0136 54.337,61.8469 57.5,60.5C 59.8251,59.3454 60.9918,57.3454 61,54.5C 61.49,55.7932 61.6567,57.1266 61.5,58.5 Z"/></g>
<g><path style="opacity:1" fill="#ff378a" d="M 45.5,66.5 C 53.6997,66.1982 57.8664,70.1982 58,78.5C 59.1711,79.8932 60.6711,80.7265 62.5,81C 60.8333,81.6667 59.1667,81.6667 57.5,81C 55.5,78 53.5,75 51.5,72C 49.8659,71.5065 48.1992,71.3398 46.5,71.5C 45.7904,74.8595 47.1238,76.6929 50.5,77C 49.6667,77.1667 48.8333,77.3333 48,77.5C 44.6612,75.3527 41.1612,73.3527 37.5,71.5C 39.9279,69.2946 42.5946,67.6279 45.5,66.5 Z"/></g>
</svg>
