<?xml version="1.0" encoding="UTF-8"?>
<!DOCTYPE svg PUBLIC "-//W3C//DTD SVG 1.1//EN" "http://www.w3.org/Graphics/SVG/1.1/DTD/svg11.dtd">
<svg xmlns="http://www.w3.org/2000/svg" version="1.1" width="370px" height="370px" style="shape-rendering:geometricPrecision; text-rendering:geometricPrecision; image-rendering:optimizeQuality; fill-rule:evenodd; clip-rule:evenodd" xmlns:xlink="http://www.w3.org/1999/xlink">
<g><path style="opacity:0.961" fill="#f9fbfb" d="M 165.5,-0.5 C 178.167,-0.5 190.833,-0.5 203.5,-0.5C 282.707,11.2037 335.541,54.8703 362,130.5C 365.228,142.15 367.728,153.816 369.5,165.5C 369.5,178.167 369.5,190.833 369.5,203.5C 357.796,282.707 314.13,335.541 238.5,362C 226.85,365.228 215.184,367.728 203.5,369.5C 190.833,369.5 178.167,369.5 165.5,369.5C 86.2926,357.796 33.4592,314.13 7,238.5C 3.77193,226.85 1.27193,215.184 -0.5,203.5C -0.5,190.833 -0.5,178.167 -0.5,165.5C 11.2037,86.2926 54.8703,33.4592 130.5,7C 142.15,3.77193 153.816,1.27193 165.5,-0.5 Z"/></g>
<g><path style="opacity:1" fill="#45ab8d" d="M 194.5,12.5 C 196.833,13.1667 199.167,13.8333 201.5,14.5C 187.833,14.5 174.167,14.5 160.5,14.5C 160.5,14.1667 160.5,13.8333 160.5,13.5C 171.817,12.7407 183.15,12.4074 194.5,12.5 Z"/></g>
<g><path style="opacity:1" fill="#8dc4b4" d="M 194.5,12.5 C 199.731,12.4443 204.731,13.111 209.5,14.5C 206.833,14.5 204.167,14.5 201.5,14.5C 199.167,13.8333 196.833,13.1667 194.5,12.5 Z"/></g>
<g><path style="opacity:1" fill="#25a07b" d="M 160.5,14.5 C 174.167,14.5 187.833,14.5 201.5,14.5C 204.167,14.5 206.833,14.5 209.5,14.5C 213.799,16.6768 218.465,17.6768 223.5,17.5C 225.042,18.3007 226.708,18.634 228.5,18.5C 228.833,18.5 229.167,18.5 229.5,18.5C 232.505,20.2766 235.838,21.2766 239.5,21.5C 267.827,31.8174 292.16,48.1507 312.5,70.5C 312.357,72.2624 312.691,73.9291 313.5,75.5C 315.784,76.4584 317.784,77.7917 319.5,79.5C 324.998,85.0047 329.331,91.3381 332.5,98.5C 332.67,99.8221 332.337,100.989 331.5,102C 332.448,102.483 333.448,102.649 334.5,102.5C 334.468,104.619 335.468,105.952 337.5,106.5C 338.892,109.007 339.892,111.673 340.5,114.5C 341.06,116.801 341.56,119.134 342,121.5C 342.708,122.381 343.542,123.047 344.5,123.5C 347.578,131.178 349.911,139.178 351.5,147.5C 352.508,151.596 353.508,155.596 354.5,159.5C 354.5,159.833 354.5,160.167 354.5,160.5C 354.567,171.177 354.901,181.844 355.5,192.5C 355.821,197.695 355.487,202.695 354.5,207.5C 352.779,212.562 351.779,217.895 351.5,223.5C 348.117,235.695 344.117,247.695 339.5,259.5C 336.073,264.016 333.407,269.016 331.5,274.5C 329.484,276.249 327.818,278.249 326.5,280.5C 324.744,279.448 324.077,277.781 324.5,275.5C 324.232,273.901 324.566,272.568 325.5,271.5C 326.222,271.082 326.722,270.416 327,269.5C 327.497,266.854 327.664,264.187 327.5,261.5C 327.5,260.167 327.5,258.833 327.5,257.5C 328.164,255.022 328.497,252.355 328.5,249.5C 328.621,244.907 327.954,240.574 326.5,236.5C 326.634,234.708 326.301,233.042 325.5,231.5C 325.59,228.848 324.924,226.515 323.5,224.5C 321.459,217.415 318.126,211.082 313.5,205.5C 307.452,195.785 299.452,188.118 289.5,182.5C 286.978,180.639 284.478,178.639 282,176.5C 281.654,174.152 280.487,172.319 278.5,171C 273.687,167.51 268.353,165.343 262.5,164.5C 260.5,163.5 258.5,162.5 256.5,161.5C 249.143,158.858 241.476,157.024 233.5,156C 235.167,155.667 236.833,155.333 238.5,155C 239.731,153.817 239.731,152.651 238.5,151.5C 235.772,152.145 233.105,152.979 230.5,154C 222.173,154.5 213.84,154.666 205.5,154.5C 205.5,147.167 205.5,139.833 205.5,132.5C 223.008,132.83 240.341,132.497 257.5,131.5C 258.495,119.345 258.829,107.011 258.5,94.5C 208.5,94.5 158.5,94.5 108.5,94.5C 108.171,107.011 108.505,119.345 109.5,131.5C 127.326,132.497 145.326,132.83 163.5,132.5C 163.799,140.253 163.466,147.92 162.5,155.5C 157.438,155.274 152.438,155.608 147.5,156.5C 143.486,156.334 139.486,156.501 135.5,157C 134.584,157.278 133.918,157.778 133.5,158.5C 131.833,158.5 130.167,158.5 128.5,158.5C 119.814,158.407 111.814,160.407 104.5,164.5C 102.901,164.232 101.568,164.566 100.5,165.5C 97.284,165.345 94.6174,166.345 92.5,168.5C 86.8749,170.627 85.0416,174.627 87,180.5C 88.884,183.384 91.384,185.551 94.5,187C 110.391,192.484 126.724,196.15 143.5,198C 149.825,198.5 156.158,198.666 162.5,198.5C 163.473,208.084 163.806,217.75 163.5,227.5C 162.962,229.117 162.629,230.784 162.5,232.5C 161.778,232.918 161.278,233.584 161,234.5C 158.754,247.101 159.254,259.434 162.5,271.5C 162.232,273.099 162.566,274.432 163.5,275.5C 163.85,278.722 164.517,281.888 165.5,285C 165.715,286.908 166.715,288.074 168.5,288.5C 181.253,313.249 201.253,328.582 228.5,334.5C 239.31,336.986 250.31,337.153 261.5,335C 262.416,334.722 263.082,334.222 263.5,333.5C 264.833,333.167 266.167,332.833 267.5,332.5C 269.262,332.643 270.929,332.309 272.5,331.5C 273.463,331.97 273.463,332.637 272.5,333.5C 265.348,336.577 258.348,339.91 251.5,343.5C 248.504,344.27 245.837,345.604 243.5,347.5C 236.671,349.128 230.004,351.128 223.5,353.5C 217.497,353.333 211.83,354.333 206.5,356.5C 191.163,356.667 175.83,356.5 160.5,356C 154.011,355.407 147.678,354.241 141.5,352.5C 138.916,350.528 135.916,349.528 132.5,349.5C 129.833,348.833 127.167,348.167 124.5,347.5C 121.481,344.621 117.814,342.955 113.5,342.5C 112.391,342.443 111.391,342.11 110.5,341.5C 108.967,339.755 106.967,338.755 104.5,338.5C 90.9323,331.553 78.599,322.886 67.5,312.5C 62.8333,307.167 57.8333,302.167 52.5,297.5C 33.0019,274.024 20.3352,247.358 14.5,217.5C 12.7451,198.895 12.0785,180.228 12.5,161.5C 12.3284,160.508 12.6618,159.842 13.5,159.5C 14.793,158.158 15.6264,156.491 16,154.5C 16.8303,149.192 17.3303,143.859 17.5,138.5C 18.9851,134.229 20.3185,129.896 21.5,125.5C 24.9094,120.677 27.2428,115.344 28.5,109.5C 29.3764,109.631 30.0431,109.298 30.5,108.5C 32.2228,105.268 33.5561,101.935 34.5,98.5C 37.6686,91.3381 42.002,85.0047 47.5,79.5C 49.5869,78.4154 50.9202,76.7488 51.5,74.5C 55.5658,71.4372 58.8991,67.7706 61.5,63.5C 65.7706,60.8991 69.4372,57.5658 72.5,53.5C 78.9878,47.0133 86.3212,41.68 94.5,37.5C 96.8477,37.4077 98.5144,36.4077 99.5,34.5C 103.88,33.7827 107.546,31.7827 110.5,28.5C 110.833,28.5 111.167,28.5 111.5,28.5C 113.435,27.8505 115.435,27.5172 117.5,27.5C 117.67,28.8221 117.337,29.9887 116.5,31C 117.167,31.6667 117.833,31.6667 118.5,31C 118.67,29.4305 119.003,27.5972 119.5,25.5C 122.481,25.8176 124.815,24.8176 126.5,22.5C 130.104,22.9515 133.104,21.9515 135.5,19.5C 137.833,18.8333 140.167,18.1667 142.5,17.5C 148.467,16.3142 154.467,15.3142 160.5,14.5 Z"/></g>
<g><path style="opacity:1" fill="#92c9b8" d="M 160.5,13.5 C 160.5,13.8333 160.5,14.1667 160.5,14.5C 154.467,15.3142 148.467,16.3142 142.5,17.5C 148.156,15.1592 154.156,13.8258 160.5,13.5 Z"/></g>
<g><path style="opacity:1" fill="#c3e1d8" d="M 216.5,15.5 C 219.187,15.3359 221.854,15.5026 224.5,16C 226.32,16.2004 227.653,17.0337 228.5,18.5C 226.708,18.634 225.042,18.3007 223.5,17.5C 221.167,16.8333 218.833,16.1667 216.5,15.5 Z"/></g>
<g><path style="opacity:1" fill="#63b199" d="M 209.5,14.5 C 212.059,14.1984 214.393,14.5318 216.5,15.5C 218.833,16.1667 221.167,16.8333 223.5,17.5C 218.465,17.6768 213.799,16.6768 209.5,14.5 Z"/></g>
<g><path style="opacity:1" fill="#add6ca" d="M 229.5,18.5 C 233.162,18.7234 236.495,19.7234 239.5,21.5C 235.838,21.2766 232.505,20.2766 229.5,18.5 Z"/></g>
<g><path style="opacity:1" fill="#62b399" d="M 135.5,19.5 C 133.104,21.9515 130.104,22.9515 126.5,22.5C 129.008,20.446 132.008,19.446 135.5,19.5 Z"/></g>
<g><path style="opacity:1" fill="#52ad90" d="M 126.5,22.5 C 124.815,24.8176 122.481,25.8176 119.5,25.5C 119.003,27.5972 118.67,29.4305 118.5,31C 117.833,31.6667 117.167,31.6667 116.5,31C 117.337,29.9887 117.67,28.8221 117.5,27.5C 115.435,27.5172 113.435,27.8505 111.5,28.5C 113.922,26.732 116.588,25.232 119.5,24C 121.74,23.023 124.073,22.523 126.5,22.5 Z"/></g>
<g><path style="opacity:1" fill="#73baa5" d="M 110.5,28.5 C 107.546,31.7827 103.88,33.7827 99.5,34.5C 102.675,31.6718 106.342,29.6718 110.5,28.5 Z"/></g>
<g><path style="opacity:1" fill="#73baa4" d="M 99.5,34.5 C 98.5144,36.4077 96.8477,37.4077 94.5,37.5C 95.6594,35.7497 97.326,34.7497 99.5,34.5 Z"/></g>
<g><path style="opacity:1" fill="#69b49d" d="M 72.5,53.5 C 69.4372,57.5658 65.7706,60.8991 61.5,63.5C 64.5628,59.4342 68.2294,56.1009 72.5,53.5 Z"/></g>
<g><path style="opacity:1" fill="#71b7a2" d="M 61.5,63.5 C 58.8991,67.7706 55.5658,71.4372 51.5,74.5C 54.1009,70.2294 57.4342,66.5628 61.5,63.5 Z"/></g>
<g><path style="opacity:1" fill="#5faf96" d="M 312.5,70.5 C 315.209,73.2085 317.542,76.2085 319.5,79.5C 317.784,77.7917 315.784,76.4584 313.5,75.5C 312.691,73.9291 312.357,72.2624 312.5,70.5 Z"/></g>
<g><path style="opacity:1" fill="#7ac0aa" d="M 51.5,74.5 C 50.9202,76.7488 49.5869,78.4154 47.5,79.5C 48.0798,77.2512 49.4131,75.5846 51.5,74.5 Z"/></g>
<g><path style="opacity:1" fill="#acd3c7" d="M 257.5,131.5 C 257.5,119.5 257.5,107.5 257.5,95.5C 208.5,95.5 159.5,95.5 110.5,95.5C 109.505,107.322 109.172,119.322 109.5,131.5C 108.505,119.345 108.171,107.011 108.5,94.5C 158.5,94.5 208.5,94.5 258.5,94.5C 258.829,107.011 258.495,119.345 257.5,131.5 Z"/></g>
<g><path style="opacity:1" fill="#fdfdfd" d="M 110.5,95.5 C 159.5,95.5 208.5,95.5 257.5,95.5C 257.5,107.5 257.5,119.5 257.5,131.5C 239.83,131.333 222.164,131.5 204.5,132C 203.353,139.42 203.187,146.92 204,154.5C 208.796,155.248 213.629,155.915 218.5,156.5C 219.263,157.268 220.263,157.768 221.5,158C 215.659,157.865 209.992,158.031 204.5,158.5C 203.51,164.645 203.177,170.978 203.5,177.5C 206.01,177.946 208.01,177.28 209.5,175.5C 215.488,172.728 221.822,170.728 228.5,169.5C 237.842,168.299 247.175,168.299 256.5,169.5C 257.5,169.5 258.5,169.5 259.5,169.5C 262.228,171.076 265.228,171.576 268.5,171C 267.09,169.628 265.423,168.795 263.5,168.5C 263.5,168.167 263.5,167.833 263.5,167.5C 262.192,166.768 260.858,165.934 259.5,165C 260.448,164.517 261.448,164.351 262.5,164.5C 268.353,165.343 273.687,167.51 278.5,171C 280.487,172.319 281.654,174.152 282,176.5C 284.478,178.639 286.978,180.639 289.5,182.5C 288.791,183.404 287.791,183.737 286.5,183.5C 283.833,182.167 281.167,180.833 278.5,179.5C 277.817,177.824 276.483,177.157 274.5,177.5C 269.939,175.859 265.273,174.526 260.5,173.5C 258.162,171.96 255.495,171.294 252.5,171.5C 249.686,170.835 246.686,170.502 243.5,170.5C 238.893,170.316 234.56,170.983 230.5,172.5C 228.708,172.366 227.042,172.699 225.5,173.5C 223.102,173.259 221.102,173.926 219.5,175.5C 218.167,175.833 216.833,176.167 215.5,176.5C 213.597,176.796 211.93,177.463 210.5,178.5C 208.973,178.427 207.973,179.094 207.5,180.5C 205.847,180.66 204.514,181.326 203.5,182.5C 201.973,182.427 200.973,183.094 200.5,184.5C 198.973,184.427 197.973,185.094 197.5,186.5C 195.668,187.248 194.001,188.248 192.5,189.5C 190.302,189.591 189.969,188.925 191.5,187.5C 182.895,185.529 173.895,184.862 164.5,185.5C 163.833,185.5 163.5,185.167 163.5,184.5C 163.5,175.833 163.5,167.167 163.5,158.5C 159.958,158.187 156.625,158.521 153.5,159.5C 147.797,159.375 142.13,159.708 136.5,160.5C 133.482,160.665 130.482,160.498 127.5,160C 128.056,159.617 128.389,159.117 128.5,158.5C 130.167,158.5 131.833,158.5 133.5,158.5C 138.338,158.089 143.005,157.422 147.5,156.5C 152.438,155.608 157.438,155.274 162.5,155.5C 163.824,151.893 164.491,147.893 164.5,143.5C 164.485,139.252 164.152,135.085 163.5,131C 145.836,130.5 128.17,130.333 110.5,130.5C 110.5,118.833 110.5,107.167 110.5,95.5 Z"/></g>
<g><path style="opacity:1" fill="#63b59b" d="M 34.5,98.5 C 33.5561,101.935 32.2228,105.268 30.5,108.5C 30.0431,109.298 29.3764,109.631 28.5,109.5C 29.7417,105.345 31.7417,101.678 34.5,98.5 Z"/></g>
<g><path style="opacity:1" fill="#63b59b" d="M 332.5,98.5 C 334.664,100.822 336.331,103.489 337.5,106.5C 335.468,105.952 334.468,104.619 334.5,102.5C 333.448,102.649 332.448,102.483 331.5,102C 332.337,100.989 332.67,99.8221 332.5,98.5 Z"/></g>
<g><path style="opacity:1" fill="#7dc0ac" d="M 28.5,109.5 C 27.2428,115.344 24.9094,120.677 21.5,125.5C 22.7896,119.599 25.1229,114.265 28.5,109.5 Z"/></g>
<g><path style="opacity:1" fill="#6db7a0" d="M 340.5,114.5 C 341.931,115.903 343.098,117.569 344,119.5C 344.49,120.793 344.657,122.127 344.5,123.5C 343.542,123.047 342.708,122.381 342,121.5C 341.56,119.134 341.06,116.801 340.5,114.5 Z"/></g>
<g><path style="opacity:1" fill="#cae3db" d="M 110.5,95.5 C 110.5,107.167 110.5,118.833 110.5,130.5C 128.17,130.333 145.836,130.5 163.5,131C 164.152,135.085 164.485,139.252 164.5,143.5C 164.491,147.893 163.824,151.893 162.5,155.5C 163.466,147.92 163.799,140.253 163.5,132.5C 145.326,132.83 127.326,132.497 109.5,131.5C 109.172,119.322 109.505,107.322 110.5,95.5 Z"/></g>
<g><path style="opacity:1" fill="#60b399" d="M 257.5,131.5 C 240.341,132.497 223.008,132.83 205.5,132.5C 205.5,139.833 205.5,147.167 205.5,154.5C 213.84,154.666 222.173,154.5 230.5,154C 233.105,152.979 235.772,152.145 238.5,151.5C 239.731,152.651 239.731,153.817 238.5,155C 236.833,155.333 235.167,155.667 233.5,156C 241.476,157.024 249.143,158.858 256.5,161.5C 243.905,159.355 231.238,157.688 218.5,156.5C 213.629,155.915 208.796,155.248 204,154.5C 203.187,146.92 203.353,139.42 204.5,132C 222.164,131.5 239.83,131.333 257.5,131.5 Z"/></g>
<g><path style="opacity:1" fill="#a8d2c5" d="M 351.5,147.5 C 353.966,151.018 354.966,155.018 354.5,159.5C 353.508,155.596 352.508,151.596 351.5,147.5 Z"/></g>
<g><path style="opacity:1" fill="#50ad91" d="M 17.5,138.5 C 17.3303,143.859 16.8303,149.192 16,154.5C 15.6264,156.491 14.793,158.158 13.5,159.5C 13.3359,156.813 13.5026,154.146 14,151.5C 15.1742,147.058 16.3408,142.725 17.5,138.5 Z"/></g>
<g><path style="opacity:1" fill="#b9d8cf" d="M 147.5,156.5 C 143.005,157.422 138.338,158.089 133.5,158.5C 133.918,157.778 134.584,157.278 135.5,157C 139.486,156.501 143.486,156.334 147.5,156.5 Z"/></g>
<g><path style="opacity:1" fill="#81bbaa" d="M 213.5,159.5 C 219.739,159.276 225.739,159.943 231.5,161.5C 225.301,161.348 219.301,160.682 213.5,159.5 Z"/></g>
<g><path style="opacity:1" fill="#74b7a3" d="M 153.5,159.5 C 156.625,158.521 159.958,158.187 163.5,158.5C 163.5,167.167 163.5,175.833 163.5,184.5C 162.507,176.35 162.174,168.017 162.5,159.5C 159.5,159.5 156.5,159.5 153.5,159.5 Z"/></g>
<g><path style="opacity:1" fill="#e5f0ed" d="M 218.5,156.5 C 231.238,157.688 243.905,159.355 256.5,161.5C 258.5,162.5 260.5,163.5 262.5,164.5C 261.448,164.351 260.448,164.517 259.5,165C 260.858,165.934 262.192,166.768 263.5,167.5C 253.093,164.485 242.426,162.485 231.5,161.5C 225.739,159.943 219.739,159.276 213.5,159.5C 212.5,159.5 211.5,159.5 210.5,159.5C 208.735,158.539 206.735,158.205 204.5,158.5C 209.992,158.031 215.659,157.865 221.5,158C 220.263,157.768 219.263,157.268 218.5,156.5 Z"/></g>
<g><path style="opacity:1" fill="#29a17d" d="M 153.5,159.5 C 156.5,159.5 159.5,159.5 162.5,159.5C 162.174,168.017 162.507,176.35 163.5,184.5C 163.5,185.167 163.833,185.5 164.5,185.5C 164.5,186.167 164.833,186.5 165.5,186.5C 170.985,187.327 176.652,187.827 182.5,188C 183.624,188.249 184.624,188.749 185.5,189.5C 171.178,190.307 156.845,190.307 142.5,189.5C 127.478,189.315 113.145,186.148 99.5,180C 95.3562,176.021 95.6896,172.355 100.5,169C 108.571,165.767 116.904,163.601 125.5,162.5C 129.337,162.069 133.003,161.402 136.5,160.5C 142.13,159.708 147.797,159.375 153.5,159.5 Z"/></g>
<g><path style="opacity:1" fill="#2da27f" d="M 210.5,159.5 C 211.5,159.5 212.5,159.5 213.5,159.5C 219.301,160.682 225.301,161.348 231.5,161.5C 242.426,162.485 253.093,164.485 263.5,167.5C 263.5,167.833 263.5,168.167 263.5,168.5C 262.432,169.434 261.099,169.768 259.5,169.5C 258.5,169.5 257.5,169.5 256.5,169.5C 252.272,167.975 247.772,167.308 243,167.5C 237.91,167.344 233.077,168.01 228.5,169.5C 221.822,170.728 215.488,172.728 209.5,175.5C 207.883,176.038 206.216,176.371 204.5,176.5C 204.5,170.833 204.5,165.167 204.5,159.5C 206.5,159.5 208.5,159.5 210.5,159.5 Z"/></g>
<g><path style="opacity:1" fill="#bcddd3" d="M 128.5,158.5 C 128.389,159.117 128.056,159.617 127.5,160C 130.482,160.498 133.482,160.665 136.5,160.5C 133.003,161.402 129.337,162.069 125.5,162.5C 125.611,161.883 125.944,161.383 126.5,161C 124.833,160.833 123.167,160.667 121.5,160.5C 115.734,161.422 110.067,162.756 104.5,164.5C 111.814,160.407 119.814,158.407 128.5,158.5 Z"/></g>
<g><path style="opacity:1" fill="#a0cdbf" d="M 100.5,165.5 C 98.064,166.871 95.3973,167.871 92.5,168.5C 94.6174,166.345 97.284,165.345 100.5,165.5 Z"/></g>
<g><path style="opacity:1" fill="#a2d1c4" d="M 204.5,158.5 C 206.735,158.205 208.735,158.539 210.5,159.5C 208.5,159.5 206.5,159.5 204.5,159.5C 204.5,165.167 204.5,170.833 204.5,176.5C 206.216,176.371 207.883,176.038 209.5,175.5C 208.01,177.28 206.01,177.946 203.5,177.5C 203.177,170.978 203.51,164.645 204.5,158.5 Z"/></g>
<g><path style="opacity:1" fill="#8ecdb9" d="M 256.5,169.5 C 247.175,168.299 237.842,168.299 228.5,169.5C 233.077,168.01 237.91,167.344 243,167.5C 247.772,167.308 252.272,167.975 256.5,169.5 Z"/></g>
<g><path style="opacity:1" fill="#7dc3b1" d="M 263.5,168.5 C 265.423,168.795 267.09,169.628 268.5,171C 265.228,171.576 262.228,171.076 259.5,169.5C 261.099,169.768 262.432,169.434 263.5,168.5 Z"/></g>
<g><path style="opacity:1" fill="#c8c8c8" d="M 252.5,171.5 C 246.642,171.178 240.975,171.511 235.5,172.5C 233.833,172.5 232.167,172.5 230.5,172.5C 234.56,170.983 238.893,170.316 243.5,170.5C 246.686,170.502 249.686,170.835 252.5,171.5 Z"/></g>
<g><path style="opacity:1" fill="#5e5e5e" d="M 235.5,172.5 C 240.975,171.511 246.642,171.178 252.5,171.5C 255.495,171.294 258.162,171.96 260.5,173.5C 252.195,172.668 243.862,172.335 235.5,172.5 Z"/></g>
<g><path style="opacity:1" fill="#020203" d="M 230.5,172.5 C 232.167,172.5 233.833,172.5 235.5,172.5C 243.862,172.335 252.195,172.668 260.5,173.5C 265.273,174.526 269.939,175.859 274.5,177.5C 275.514,178.674 276.847,179.34 278.5,179.5C 281.167,180.833 283.833,182.167 286.5,183.5C 296.46,190.46 305.127,198.793 312.5,208.5C 312.5,209.167 312.5,209.833 312.5,210.5C 312.427,212.027 313.094,213.027 314.5,213.5C 316.479,217.03 318.312,220.696 320,224.5C 320.49,225.793 320.657,227.127 320.5,228.5C 323.602,241.666 324.268,254.999 322.5,268.5C 321.076,270.515 320.41,272.848 320.5,275.5C 320.5,275.833 320.5,276.167 320.5,276.5C 318.935,278.509 317.935,280.843 317.5,283.5C 316.758,285.98 315.758,288.313 314.5,290.5C 313.094,290.973 312.427,291.973 312.5,293.5C 311.662,293.842 311.328,294.508 311.5,295.5C 310.094,295.973 309.427,296.973 309.5,298.5C 307.177,301.126 304.843,303.793 302.5,306.5C 299.5,308.833 296.833,311.5 294.5,314.5C 288.998,318.085 283.331,321.419 277.5,324.5C 272.856,325.599 268.522,327.266 264.5,329.5C 252.237,331.714 239.904,332.047 227.5,330.5C 224.855,328.69 221.855,327.69 218.5,327.5C 217.167,327.167 215.833,326.833 214.5,326.5C 213.817,324.824 212.483,324.157 210.5,324.5C 210.167,324.5 209.833,324.5 209.5,324.5C 209.027,323.094 208.027,322.427 206.5,322.5C 205.508,322.672 204.842,322.338 204.5,321.5C 204.027,320.094 203.027,319.427 201.5,319.5C 196.591,316.926 192.258,313.592 188.5,309.5C 187.5,307.833 186.167,306.5 184.5,305.5C 182.471,303.142 180.471,300.808 178.5,298.5C 178.573,296.973 177.906,295.973 176.5,295.5C 176.672,294.508 176.338,293.842 175.5,293.5C 175.573,291.973 174.906,290.973 173.5,290.5C 173.107,288.716 172.441,287.05 171.5,285.5C 171.34,283.847 170.674,282.514 169.5,281.5C 169.5,281.167 169.5,280.833 169.5,280.5C 169.065,277.843 168.065,275.509 166.5,273.5C 166.5,273.167 166.5,272.833 166.5,272.5C 166.149,268.316 165.482,264.316 164.5,260.5C 163.021,252.122 163.354,243.789 165.5,235.5C 166.924,233.485 167.59,231.152 167.5,228.5C 167.4,225.892 168.067,223.558 169.5,221.5C 171.176,220.817 171.843,219.483 171.5,217.5C 171.66,215.847 172.326,214.514 173.5,213.5C 174.906,213.027 175.573,212.027 175.5,210.5C 176.809,207.222 178.642,204.222 181,201.5C 185.037,197.631 188.87,193.631 192.5,189.5C 194.001,188.248 195.668,187.248 197.5,186.5C 199.027,186.573 200.027,185.906 200.5,184.5C 202.027,184.573 203.027,183.906 203.5,182.5C 204.514,181.326 205.847,180.66 207.5,180.5C 209.027,180.573 210.027,179.906 210.5,178.5C 212.698,178.88 214.365,178.213 215.5,176.5C 216.833,176.167 218.167,175.833 219.5,175.5C 221.898,175.741 223.898,175.074 225.5,173.5C 227.042,172.699 228.708,172.366 230.5,172.5 Z"/></g>
<g><path style="opacity:1" fill="#5b5b5b" d="M 225.5,173.5 C 223.898,175.074 221.898,175.741 219.5,175.5C 221.102,173.926 223.102,173.259 225.5,173.5 Z"/></g>
<g><path style="opacity:1" fill="#646464" d="M 215.5,176.5 C 214.365,178.213 212.698,178.88 210.5,178.5C 211.93,177.463 213.597,176.796 215.5,176.5 Z"/></g>
<g><path style="opacity:1" fill="#acacac" d="M 274.5,177.5 C 276.483,177.157 277.817,177.824 278.5,179.5C 276.847,179.34 275.514,178.674 274.5,177.5 Z"/></g>
<g><path style="opacity:1" fill="#666666" d="M 210.5,178.5 C 210.027,179.906 209.027,180.573 207.5,180.5C 207.973,179.094 208.973,178.427 210.5,178.5 Z"/></g>
<g><path style="opacity:1" fill="#88bdaf" d="M 354.5,160.5 C 356.432,171.133 356.765,181.8 355.5,192.5C 354.901,181.844 354.567,171.177 354.5,160.5 Z"/></g>
<g><path style="opacity:1" fill="#81beac" d="M 12.5,161.5 C 12.0785,180.228 12.7451,198.895 14.5,217.5C 10.1788,199.052 9.51213,180.385 12.5,161.5 Z"/></g>
<g><path style="opacity:1" fill="#565656" d="M 203.5,182.5 C 203.027,183.906 202.027,184.573 200.5,184.5C 200.973,183.094 201.973,182.427 203.5,182.5 Z"/></g>
<g><path style="opacity:1" fill="#95cdbe" d="M 164.5,185.5 C 173.895,184.862 182.895,185.529 191.5,187.5C 191.167,187.5 190.833,187.5 190.5,187.5C 182.35,186.507 174.017,186.174 165.5,186.5C 164.833,186.5 164.5,186.167 164.5,185.5 Z"/></g>
<g><path style="opacity:1" fill="#4e4e4e" d="M 200.5,184.5 C 200.027,185.906 199.027,186.573 197.5,186.5C 197.973,185.094 198.973,184.427 200.5,184.5 Z"/></g>
<g><path style="opacity:1" fill="#49ad90" d="M 165.5,186.5 C 174.017,186.174 182.35,186.507 190.5,187.5C 189.038,188.458 187.705,189.624 186.5,191C 171.632,191.881 156.966,191.381 142.5,189.5C 156.845,190.307 171.178,190.307 185.5,189.5C 184.624,188.749 183.624,188.249 182.5,188C 176.652,187.827 170.985,187.327 165.5,186.5 Z"/></g>
<g><path style="opacity:1" fill="#e1e8e6" d="M 289.5,182.5 C 299.452,188.118 307.452,195.785 313.5,205.5C 312.596,206.209 312.263,207.209 312.5,208.5C 305.127,198.793 296.46,190.46 286.5,183.5C 287.791,183.737 288.791,183.404 289.5,182.5 Z"/></g>
<g><path style="opacity:1" fill="#cee2dd" d="M 162.5,198.5 C 163.827,202.951 164.494,207.784 164.5,213C 164.499,218.012 164.166,222.845 163.5,227.5C 163.806,217.75 163.473,208.084 162.5,198.5 Z"/></g>
<g><path style="opacity:1" fill="#5d5d5d" d="M 175.5,210.5 C 175.573,212.027 174.906,213.027 173.5,213.5C 173.427,211.973 174.094,210.973 175.5,210.5 Z"/></g>
<g><path style="opacity:1" fill="#646464" d="M 312.5,210.5 C 313.906,210.973 314.573,211.973 314.5,213.5C 313.094,213.027 312.427,212.027 312.5,210.5 Z"/></g>
<g><path style="opacity:1" fill="#434343" d="M 171.5,217.5 C 171.843,219.483 171.176,220.817 169.5,221.5C 169.66,219.847 170.326,218.514 171.5,217.5 Z"/></g>
<g><path style="opacity:1" fill="#94c9b9" d="M 354.5,207.5 C 354.221,213.105 353.221,218.438 351.5,223.5C 351.779,217.895 352.779,212.562 354.5,207.5 Z"/></g>
<g><path style="opacity:1" fill="#9dd2c4" d="M 323.5,224.5 C 324.924,226.515 325.59,228.848 325.5,231.5C 324.076,229.485 323.41,227.152 323.5,224.5 Z"/></g>
<g><path style="opacity:1" fill="#4e4e4e" d="M 167.5,228.5 C 167.59,231.152 166.924,233.485 165.5,235.5C 165.41,232.848 166.076,230.515 167.5,228.5 Z"/></g>
<g><path style="opacity:1" fill="#315c60" d="M 198.5,234.5 C 200.027,234.427 201.027,235.094 201.5,236.5C 199.973,236.573 198.973,235.906 198.5,234.5 Z"/></g>
<g><path style="opacity:1" fill="#70e2ea" d="M 198.5,234.5 C 198.973,235.906 199.973,236.573 201.5,236.5C 201.611,237.117 201.944,237.617 202.5,238C 200.618,238.198 198.952,238.698 197.5,239.5C 196.662,239.842 196.328,240.508 196.5,241.5C 195.758,243.98 194.758,246.313 193.5,248.5C 192.883,248.611 192.383,248.944 192,249.5C 191.821,245.975 191.321,242.641 190.5,239.5C 190.5,238.833 190.5,238.167 190.5,237.5C 191.922,233.536 194.589,232.536 198.5,234.5 Z"/></g>
<g><path style="opacity:1" fill="#54a4a8" d="M 201.5,236.5 C 203.027,236.427 204.027,237.094 204.5,238.5C 203.833,238.5 203.5,238.833 203.5,239.5C 201.5,239.5 199.5,239.5 197.5,239.5C 198.952,238.698 200.618,238.198 202.5,238C 201.944,237.617 201.611,237.117 201.5,236.5 Z"/></g>
<g><path style="opacity:1" fill="#6cdbe1" d="M 204.5,238.5 C 205.391,239.11 206.391,239.443 207.5,239.5C 208.11,240.391 208.443,241.391 208.5,242.5C 208.5,242.833 208.5,243.167 208.5,243.5C 207.326,244.514 206.66,245.847 206.5,247.5C 205.605,251.838 204.605,252.171 203.5,248.5C 203.5,245.5 203.5,242.5 203.5,239.5C 203.5,238.833 203.833,238.5 204.5,238.5 Z"/></g>
<g><path style="opacity:1" fill="#3c696d" d="M 207.5,239.5 C 209.552,240.053 209.885,241.053 208.5,242.5C 208.443,241.391 208.11,240.391 207.5,239.5 Z"/></g>
<g><path style="opacity:1" fill="#274b4f" d="M 197.5,239.5 C 199.5,239.5 201.5,239.5 203.5,239.5C 203.5,242.5 203.5,245.5 203.5,248.5C 202.527,246.052 202.194,243.385 202.5,240.5C 200.379,240.325 198.379,240.659 196.5,241.5C 196.328,240.508 196.662,239.842 197.5,239.5 Z"/></g>
<g><path style="opacity:1" fill="#254144" d="M 208.5,243.5 C 208.843,245.483 208.176,246.817 206.5,247.5C 206.66,245.847 207.326,244.514 208.5,243.5 Z"/></g>
<g><path style="opacity:1" fill="#bababa" d="M 237.5,263.5 C 235.833,262.833 234.167,262.167 232.5,261.5C 234.5,261.5 236.5,261.5 238.5,261.5C 238.768,259.901 238.434,258.568 237.5,257.5C 236.365,255.787 234.698,255.12 232.5,255.5C 227.696,252.788 227.363,249.622 231.5,246C 236.664,244.687 239.997,246.521 241.5,251.5C 239.641,251.539 238.308,250.706 237.5,249C 235.559,248.257 233.726,248.424 232,249.5C 231.316,250.784 231.483,251.951 232.5,253C 235.787,253.616 238.621,255.116 241,257.5C 242.122,260.872 240.955,262.872 237.5,263.5 Z"/></g>
<g><path style="opacity:1" fill="#e4e4e4" d="M 268.5,248.5 C 268.5,250.167 268.5,251.833 268.5,253.5C 270.833,254.167 273.167,254.833 275.5,255.5C 273.167,255.5 270.833,255.5 268.5,255.5C 268.5,257.5 268.5,259.5 268.5,261.5C 270.969,262.317 273.635,262.817 276.5,263C 273.183,263.498 269.85,263.665 266.5,263.5C 266.5,257.833 266.5,252.167 266.5,246.5C 269.85,246.335 273.183,246.502 276.5,247C 273.635,247.183 270.969,247.683 268.5,248.5 Z"/></g>
<g><path style="opacity:1" fill="#787878" d="M 320.5,228.5 C 322.808,232.047 323.975,236.047 324,240.5C 324.667,247.833 324.667,255.167 324,262.5C 323.809,264.708 323.309,266.708 322.5,268.5C 324.268,254.999 323.602,241.666 320.5,228.5 Z"/></g>
<g><path style="opacity:1" fill="#52a0a5" d="M 190.5,239.5 C 191.321,242.641 191.821,245.975 192,249.5C 192.383,248.944 192.883,248.611 193.5,248.5C 193.443,249.609 193.11,250.609 192.5,251.5C 190.577,247.971 189.911,243.971 190.5,239.5 Z"/></g>
<g><path style="opacity:1" fill="#808080" d="M 268.5,248.5 C 270.969,247.683 273.635,247.183 276.5,247C 273.183,246.502 269.85,246.335 266.5,246.5C 266.5,252.167 266.5,257.833 266.5,263.5C 269.85,263.665 273.183,263.498 276.5,263C 273.635,262.817 270.969,262.317 268.5,261.5C 268.833,261.5 269.167,261.5 269.5,261.5C 272.167,261.5 274.833,261.5 277.5,261.5C 277.5,262.5 277.5,263.5 277.5,264.5C 273.5,264.5 269.5,264.5 265.5,264.5C 265.5,258.167 265.5,251.833 265.5,245.5C 269.5,245.5 273.5,245.5 277.5,245.5C 277.5,246.5 277.5,247.5 277.5,248.5C 274.5,248.5 271.5,248.5 268.5,248.5 Z"/></g>
<g><path style="opacity:1" fill="#8bcdb8" d="M 326.5,236.5 C 327.954,240.574 328.621,244.907 328.5,249.5C 328.497,252.355 328.164,255.022 327.5,257.5C 327.422,250.485 327.089,243.485 326.5,236.5 Z"/></g>
<g><path style="opacity:1" fill="#90cebb" d="M 162.5,232.5 C 160.009,245.486 160.009,258.486 162.5,271.5C 159.254,259.434 158.754,247.101 161,234.5C 161.278,233.584 161.778,232.918 162.5,232.5 Z"/></g>
<g><path style="opacity:1" fill="#e9e9e9" d="M 247.5,246.5 C 246.236,252.229 245.236,257.895 244.5,263.5C 244.5,257.833 244.5,252.167 244.5,246.5C 245.5,246.5 246.5,246.5 247.5,246.5 Z"/></g>
<g><path style="opacity:1" fill="#e4e4e4" d="M 258.5,246.5 C 259.5,246.5 260.5,246.5 261.5,246.5C 261.5,252.167 261.5,257.833 261.5,263.5C 260.764,257.895 259.764,252.229 258.5,246.5 Z"/></g>
<g><path style="opacity:1" fill="#6edce1" d="M 215.5,244.5 C 215.595,247.692 214.929,250.692 213.5,253.5C 213.167,253.5 212.833,253.5 212.5,253.5C 211.596,252.791 211.263,251.791 211.5,250.5C 212.298,248.034 213.631,246.034 215.5,244.5 Z"/></g>
<g><path style="opacity:1" fill="#2f3c3e" d="M 215.5,244.5 C 215.94,246.844 216.94,248.844 218.5,250.5C 217.833,251.5 217.167,252.5 216.5,253.5C 215.532,255.607 215.198,257.941 215.5,260.5C 214.833,258.167 214.167,255.833 213.5,253.5C 214.929,250.692 215.595,247.692 215.5,244.5 Z"/></g>
<g><path style="opacity:1" fill="#b2b2b2" d="M 218.5,250.5 C 221.188,250.166 223.521,250.832 225.5,252.5C 225.5,252.833 225.5,253.167 225.5,253.5C 224.596,254.209 224.263,255.209 224.5,256.5C 222.167,256.5 219.833,256.5 217.5,256.5C 217.737,255.209 217.404,254.209 216.5,253.5C 217.167,252.5 217.833,251.5 218.5,250.5 Z"/></g>
<g><path style="opacity:1" fill="#b0b0b0" d="M 247.5,246.5 C 249.329,250.435 251.162,254.435 253,258.5C 253.278,257.584 253.778,256.918 254.5,256.5C 254.69,258.959 253.69,260.626 251.5,261.5C 249.912,259.887 248.912,257.887 248.5,255.5C 248.013,254.527 247.513,253.527 247,252.5C 246.501,256.152 246.335,259.818 246.5,263.5C 245.833,264.833 245.167,264.833 244.5,263.5C 245.236,257.895 246.236,252.229 247.5,246.5 Z"/></g>
<g><path style="opacity:1" fill="#cccccc" d="M 297.5,250.5 C 299.827,250.247 301.827,250.914 303.5,252.5C 304.803,255.645 304.803,258.645 303.5,261.5C 302.833,259.167 302.167,256.833 301.5,254.5C 300.068,252.353 298.235,252.02 296,253.5C 295.199,256.367 295.366,259.034 296.5,261.5C 296.167,262.167 295.833,262.833 295.5,263.5C 295.785,265.288 295.452,266.955 294.5,268.5C 293.505,262.872 293.171,257.206 293.5,251.5C 295.099,251.768 296.432,251.434 297.5,250.5 Z"/></g>
<g><path style="opacity:1" fill="#1d3437" d="M 190.5,237.5 C 190.5,238.167 190.5,238.833 190.5,239.5C 189.911,243.971 190.577,247.971 192.5,251.5C 192.179,253.048 191.179,253.715 189.5,253.5C 189.179,247.974 189.512,242.64 190.5,237.5 Z"/></g>
<g><path style="opacity:1" fill="#939393" d="M 282.5,261.5 C 281.679,258.359 281.179,255.025 281,251.5C 280.501,255.152 280.335,258.818 280.5,262.5C 279.517,258.702 279.183,254.702 279.5,250.5C 280.5,250.5 281.5,250.5 282.5,250.5C 282.5,254.167 282.5,257.833 282.5,261.5 Z"/></g>
<g><path style="opacity:1" fill="#838383" d="M 281.5,263.5 C 284.167,263.5 286.833,263.5 289.5,263.5C 289.666,259.486 289.499,255.486 289,251.5C 288.819,254.695 288.319,257.695 287.5,260.5C 287.5,257.167 287.5,253.833 287.5,250.5C 288.5,250.5 289.5,250.5 290.5,250.5C 290.5,255.167 290.5,259.833 290.5,264.5C 287.287,264.81 284.287,264.477 281.5,263.5 Z"/></g>
<g><path style="opacity:1" fill="#72e4eb" d="M 183.5,249.5 C 184.156,250.622 184.489,251.955 184.5,253.5C 184.415,255.333 183.748,256.666 182.5,257.5C 181.083,254.66 181.416,251.993 183.5,249.5 Z"/></g>
<g><path style="opacity:1" fill="#56a1a6" d="M 197.5,251.5 C 198.404,252.209 198.737,253.209 198.5,254.5C 197.391,254.557 196.391,254.89 195.5,255.5C 195.66,253.847 196.326,252.514 197.5,251.5 Z"/></g>
<g><path style="opacity:1" fill="#181818" d="M 219.5,252.5 C 221.346,252.222 222.68,252.889 223.5,254.5C 221.833,255.833 220.167,255.833 218.5,254.5C 218.863,253.817 219.196,253.15 219.5,252.5 Z"/></g>
<g><path style="opacity:1" fill="#919191" d="M 268.5,253.5 C 271.247,253.187 273.914,253.52 276.5,254.5C 276.376,255.107 276.043,255.44 275.5,255.5C 273.167,254.833 270.833,254.167 268.5,253.5 Z"/></g>
<g><path style="opacity:1" fill="#585858" d="M 297.5,250.5 C 296.432,251.434 295.099,251.768 293.5,251.5C 293.171,257.206 293.505,262.872 294.5,268.5C 295.452,266.955 295.785,265.288 295.5,263.5C 297.5,263.5 299.5,263.5 301.5,263.5C 300.081,264.451 298.415,264.784 296.5,264.5C 296.5,266.167 296.5,267.833 296.5,269.5C 295.167,269.5 293.833,269.5 292.5,269.5C 292.5,263.167 292.5,256.833 292.5,250.5C 294.167,250.5 295.833,250.5 297.5,250.5 Z"/></g>
<g><path style="opacity:1" fill="#1b1b1b" d="M 301.5,254.5 C 301.662,256.527 301.495,258.527 301,260.5C 299.644,261.38 298.144,261.714 296.5,261.5C 295.366,259.034 295.199,256.367 296,253.5C 298.235,252.02 300.068,252.353 301.5,254.5 Z"/></g>
<g><path style="opacity:1" fill="#4b8f95" d="M 183.5,249.5 C 183.56,248.957 183.893,248.624 184.5,248.5C 185.452,250.045 185.785,251.712 185.5,253.5C 185.923,255.781 185.256,257.448 183.5,258.5C 182.833,258.5 182.5,258.167 182.5,257.5C 183.748,256.666 184.415,255.333 184.5,253.5C 184.489,251.955 184.156,250.622 183.5,249.5 Z"/></g>
<g><path style="opacity:1" fill="#868686" d="M 232.5,255.5 C 234.698,255.12 236.365,255.787 237.5,257.5C 235.597,257.204 233.93,256.537 232.5,255.5 Z"/></g>
<g><path style="opacity:1" fill="#434343" d="M 259.5,263.5 C 258.833,260.833 258.167,258.167 257.5,255.5C 257.461,254.244 257.961,253.244 259,252.5C 259.499,256.152 259.665,259.818 259.5,263.5 Z"/></g>
<g><path style="opacity:1" fill="#adadad" d="M 258.5,246.5 C 259.764,252.229 260.764,257.895 261.5,263.5C 260.833,264.833 260.167,264.833 259.5,263.5C 259.665,259.818 259.499,256.152 259,252.5C 257.961,253.244 257.461,254.244 257.5,255.5C 257.5,256.167 257.167,256.5 256.5,256.5C 256.062,255.494 255.396,255.494 254.5,256.5C 255.321,252.873 256.654,249.54 258.5,246.5 Z"/></g>
<g><path style="opacity:1" fill="#373737" d="M 275.5,255.5 C 273.735,256.461 271.735,256.795 269.5,256.5C 269.5,258.167 269.5,259.833 269.5,261.5C 269.167,261.5 268.833,261.5 268.5,261.5C 268.5,259.5 268.5,257.5 268.5,255.5C 270.833,255.5 273.167,255.5 275.5,255.5 Z"/></g>
<g><path style="opacity:1" fill="#8a8a8a" d="M 225.5,252.5 C 226.461,254.265 226.795,256.265 226.5,258.5C 223.302,257.964 220.635,258.631 218.5,260.5C 217.596,259.791 217.263,258.791 217.5,257.5C 220.167,257.5 222.833,257.5 225.5,257.5C 225.5,256.167 225.5,254.833 225.5,253.5C 225.5,253.167 225.5,252.833 225.5,252.5 Z"/></g>
<g><path style="opacity:1" fill="#3e3e3e" d="M 248.5,255.5 C 247.833,258.167 247.167,260.833 246.5,263.5C 246.335,259.818 246.501,256.152 247,252.5C 247.513,253.527 248.013,254.527 248.5,255.5 Z"/></g>
<g><path style="opacity:1" fill="#1f393b" d="M 185.5,253.5 C 186.461,255.265 186.795,257.265 186.5,259.5C 185.209,259.737 184.209,259.404 183.5,258.5C 185.256,257.448 185.923,255.781 185.5,253.5 Z"/></g>
<g><path style="opacity:1" fill="#c5c5c5" d="M 216.5,253.5 C 217.404,254.209 217.737,255.209 217.5,256.5C 219.833,256.5 222.167,256.5 224.5,256.5C 224.263,255.209 224.596,254.209 225.5,253.5C 225.5,254.833 225.5,256.167 225.5,257.5C 222.833,257.5 220.167,257.5 217.5,257.5C 217.263,258.791 217.596,259.791 218.5,260.5C 219.919,261.451 221.585,261.784 223.5,261.5C 224.492,261.328 225.158,261.662 225.5,262.5C 221.484,265.564 218.151,264.897 215.5,260.5C 215.198,257.941 215.532,255.607 216.5,253.5 Z"/></g>
<g><path style="opacity:1" fill="#74ecf5" d="M 198.5,254.5 C 198.5,257.5 198.5,260.5 198.5,263.5C 196.833,263.5 195.167,263.5 193.5,263.5C 193.5,262.5 193.5,261.5 193.5,260.5C 194.441,258.95 195.107,257.284 195.5,255.5C 196.391,254.89 197.391,254.557 198.5,254.5 Z"/></g>
<g><path style="opacity:1" fill="#bfbfbf" d="M 228.5,259.5 C 229.609,259.557 230.609,259.89 231.5,260.5C 231.5,261.167 231.833,261.5 232.5,261.5C 234.167,262.167 235.833,262.833 237.5,263.5C 233.067,265.583 230.067,264.249 228.5,259.5 Z"/></g>
<g><path style="opacity:1" fill="#6e6e6e" d="M 228.5,259.5 C 229.947,258.115 230.947,258.448 231.5,260.5C 230.609,259.89 229.609,259.557 228.5,259.5 Z"/></g>
<g><path style="opacity:1" fill="#dadada" d="M 256.5,256.5 C 255.545,258.746 254.878,261.079 254.5,263.5C 252.821,263.715 251.821,263.048 251.5,261.5C 253.69,260.626 254.69,258.959 254.5,256.5C 255.396,255.494 256.062,255.494 256.5,256.5 Z"/></g>
<g><path style="opacity:1" fill="#a5a5a5" d="M 301.5,254.5 C 302.167,256.833 302.833,259.167 303.5,261.5C 303.167,262.5 302.5,263.167 301.5,263.5C 299.5,263.5 297.5,263.5 295.5,263.5C 295.833,262.833 296.167,262.167 296.5,261.5C 298.144,261.714 299.644,261.38 301,260.5C 301.495,258.527 301.662,256.527 301.5,254.5 Z"/></g>
<g><path style="opacity:1" fill="#666666" d="M 223.5,261.5 C 224.386,260.224 225.386,260.224 226.5,261.5C 226.376,262.107 226.043,262.44 225.5,262.5C 225.158,261.662 224.492,261.328 223.5,261.5 Z"/></g>
<g><path style="opacity:1" fill="#d8d8d8" d="M 282.5,261.5 C 284.415,261.784 286.081,261.451 287.5,260.5C 288.319,257.695 288.819,254.695 289,251.5C 289.499,255.486 289.666,259.486 289.5,263.5C 286.833,263.5 284.167,263.5 281.5,263.5C 280.833,263.5 280.5,263.167 280.5,262.5C 280.335,258.818 280.501,255.152 281,251.5C 281.179,255.025 281.679,258.359 282.5,261.5 Z"/></g>
<g><path style="opacity:1" fill="#305b60" d="M 197.5,251.5 C 197.56,250.957 197.893,250.624 198.5,250.5C 199.492,254.783 199.826,259.116 199.5,263.5C 201.5,263.5 203.5,263.5 205.5,263.5C 203.167,264.833 200.833,264.833 198.5,263.5C 198.5,260.5 198.5,257.5 198.5,254.5C 198.737,253.209 198.404,252.209 197.5,251.5 Z"/></g>
<g><path style="opacity:1" fill="#64c5ca" d="M 211.5,250.5 C 211.263,251.791 211.596,252.791 212.5,253.5C 210.746,258.842 208.079,263.675 204.5,268C 200.544,268.037 196.877,266.87 193.5,264.5C 192.218,263.042 192.218,261.708 193.5,260.5C 193.5,261.5 193.5,262.5 193.5,263.5C 195.167,263.5 196.833,263.5 198.5,263.5C 200.833,264.833 203.167,264.833 205.5,263.5C 206.71,258.749 208.71,254.416 211.5,250.5 Z"/></g>
<g><path style="opacity:1" fill="#7bc2ad" d="M 327.5,261.5 C 327.664,264.187 327.497,266.854 327,269.5C 326.722,270.416 326.222,271.082 325.5,271.5C 325.753,267.96 326.419,264.627 327.5,261.5 Z"/></g>
<g><path style="opacity:1" fill="#c7e1da" d="M 339.5,259.5 C 338.088,265.334 335.421,270.334 331.5,274.5C 333.407,269.016 336.073,264.016 339.5,259.5 Z"/></g>
<g><path style="opacity:1" fill="#808080" d="M 164.5,260.5 C 165.482,264.316 166.149,268.316 166.5,272.5C 164.75,268.817 164.083,264.817 164.5,260.5 Z"/></g>
<g><path style="opacity:1" fill="#828282" d="M 322.5,268.5 C 322.59,271.152 321.924,273.485 320.5,275.5C 320.41,272.848 321.076,270.515 322.5,268.5 Z"/></g>
<g><path style="opacity:1" fill="#919191" d="M 166.5,273.5 C 168.065,275.509 169.065,277.843 169.5,280.5C 167.166,278.824 166.166,276.491 166.5,273.5 Z"/></g>
<g><path style="opacity:1" fill="#a6a6a6" d="M 320.5,276.5 C 320.834,279.491 319.834,281.824 317.5,283.5C 317.935,280.843 318.935,278.509 320.5,276.5 Z"/></g>
<g><path style="opacity:1" fill="#5fb39b" d="M 324.5,275.5 C 324.077,277.781 324.744,279.448 326.5,280.5C 324.83,283.175 323.164,285.841 321.5,288.5C 320.662,288.158 320.328,287.492 320.5,286.5C 321.462,282.605 322.796,278.939 324.5,275.5 Z"/></g>
<g><path style="opacity:1" fill="#a2a2a2" d="M 169.5,281.5 C 170.674,282.514 171.34,283.847 171.5,285.5C 169.824,284.817 169.157,283.483 169.5,281.5 Z"/></g>
<g><path style="opacity:1" fill="#70bea7" d="M 163.5,275.5 C 165.342,279.68 167.008,284.013 168.5,288.5C 166.715,288.074 165.715,286.908 165.5,285C 164.517,281.888 163.85,278.722 163.5,275.5 Z"/></g>
<g><path style="opacity:1" fill="#a3cac3" d="M 320.5,286.5 C 320.328,287.492 320.662,288.158 321.5,288.5C 320.836,290.487 319.669,292.154 318,293.5C 317.705,290.758 318.538,288.425 320.5,286.5 Z"/></g>
<g><path style="opacity:1" fill="#8d8d8d" d="M 173.5,290.5 C 174.906,290.973 175.573,291.973 175.5,293.5C 174.094,293.027 173.427,292.027 173.5,290.5 Z"/></g>
<g><path style="opacity:1" fill="#939393" d="M 314.5,290.5 C 314.573,292.027 313.906,293.027 312.5,293.5C 312.427,291.973 313.094,290.973 314.5,290.5 Z"/></g>
<g><path style="opacity:1" fill="#a1a1a1" d="M 176.5,295.5 C 177.906,295.973 178.573,296.973 178.5,298.5C 177.094,298.027 176.427,297.027 176.5,295.5 Z"/></g>
<g><path style="opacity:1" fill="#a9a9a9" d="M 311.5,295.5 C 311.573,297.027 310.906,298.027 309.5,298.5C 309.427,296.973 310.094,295.973 311.5,295.5 Z"/></g>
<g><path style="opacity:1" fill="#b2d5cb" d="M 52.5,297.5 C 57.8333,302.167 62.8333,307.167 67.5,312.5C 61.5,308.5 56.5,303.5 52.5,297.5 Z"/></g>
<g><path style="opacity:1" fill="#999999" d="M 184.5,305.5 C 186.167,306.5 187.5,307.833 188.5,309.5C 186.167,309.167 184.833,307.833 184.5,305.5 Z"/></g>
<g><path style="opacity:1" fill="#b9b9b9" d="M 302.5,306.5 C 300.833,310.167 298.167,312.833 294.5,314.5C 296.833,311.5 299.5,308.833 302.5,306.5 Z"/></g>
<g><path style="opacity:1" fill="#5f5f5f" d="M 201.5,319.5 C 203.027,319.427 204.027,320.094 204.5,321.5C 202.973,321.573 201.973,320.906 201.5,319.5 Z"/></g>
<g><path style="opacity:1" fill="#808080" d="M 206.5,322.5 C 208.027,322.427 209.027,323.094 209.5,324.5C 207.973,324.573 206.973,323.906 206.5,322.5 Z"/></g>
<g><path style="opacity:1" fill="#414141" d="M 210.5,324.5 C 212.483,324.157 213.817,324.824 214.5,326.5C 212.847,326.34 211.514,325.674 210.5,324.5 Z"/></g>
<g><path style="opacity:1" fill="#909090" d="M 277.5,324.5 C 277.389,325.117 277.056,325.617 276.5,326C 272.553,327.484 268.553,328.65 264.5,329.5C 268.522,327.266 272.856,325.599 277.5,324.5 Z"/></g>
<g><path style="opacity:1" fill="#636363" d="M 218.5,327.5 C 221.855,327.69 224.855,328.69 227.5,330.5C 224.084,330.472 221.084,329.472 218.5,327.5 Z"/></g>
<g><path style="opacity:1" fill="#9fc6c7" d="M 272.5,333.5 C 273.463,332.637 273.463,331.97 272.5,331.5C 270.929,332.309 269.262,332.643 267.5,332.5C 271.22,330.427 275.22,329.261 279.5,329C 277.11,330.521 274.777,332.021 272.5,333.5 Z"/></g>
<g><path style="opacity:1" fill="#89c7ba" d="M 263.5,333.5 C 263.082,334.222 262.416,334.722 261.5,335C 250.31,337.153 239.31,336.986 228.5,334.5C 240.231,336.084 251.897,335.751 263.5,333.5 Z"/></g>
<g><path style="opacity:1" fill="#90c5b5" d="M 104.5,338.5 C 106.967,338.755 108.967,339.755 110.5,341.5C 108.033,341.245 106.033,340.245 104.5,338.5 Z"/></g>
<g><path style="opacity:1" fill="#70b9a2" d="M 113.5,342.5 C 117.814,342.955 121.481,344.621 124.5,347.5C 120.566,346.184 116.899,344.517 113.5,342.5 Z"/></g>
<g><path style="opacity:1" fill="#abd4c7" d="M 251.5,343.5 C 249.388,345.771 246.721,347.104 243.5,347.5C 245.837,345.604 248.504,344.27 251.5,343.5 Z"/></g>
<g><path style="opacity:1" fill="#78bea8" d="M 132.5,349.5 C 135.916,349.528 138.916,350.528 141.5,352.5C 138.145,352.31 135.145,351.31 132.5,349.5 Z"/></g>
<g><path style="opacity:1" fill="#bfe0d6" d="M 223.5,353.5 C 218.06,355.061 212.394,356.061 206.5,356.5C 211.83,354.333 217.497,353.333 223.5,353.5 Z"/></g>
</svg>
