<?xml version="1.0" encoding="UTF-8"?>
<!DOCTYPE svg PUBLIC "-//W3C//DTD SVG 1.1//EN" "http://www.w3.org/Graphics/SVG/1.1/DTD/svg11.dtd">
<svg xmlns="http://www.w3.org/2000/svg" version="1.1" width="60px" height="60px" style="shape-rendering:geometricPrecision; text-rendering:geometricPrecision; image-rendering:optimizeQuality; fill-rule:evenodd; clip-rule:evenodd" xmlns:xlink="http://www.w3.org/1999/xlink">
<g><path style="opacity:1" fill="#e6e7e8" d="M 39.5,3.5 C 39.634,5.29152 39.3007,6.95819 38.5,8.5C 38.2914,9.92167 37.7914,11.255 37,12.5C 34.6969,14.393 32.5302,16.393 30.5,18.5C 30.6667,18.8333 30.8333,19.1667 31,19.5C 32.1127,18.695 33.2794,18.0283 34.5,17.5C 38.8131,17.5483 42.8131,18.715 46.5,21C 44.8333,21.3333 43.1667,21.6667 41.5,22C 47.1644,24.3324 50.6644,28.4991 52,34.5C 53.7487,23.9984 50.082,15.9984 41,10.5C 40.5065,8.86586 40.3398,7.19919 40.5,5.5C 41.5,5.5 42.5,5.5 43.5,5.5C 46.117,6.78588 48.4504,8.45255 50.5,10.5C 50.427,12.0269 51.0937,13.0269 52.5,13.5C 58.0457,20.4941 59.879,28.4941 58,37.5C 54.7415,48.2556 47.9082,55.5889 37.5,59.5C 32.5,59.5 27.5,59.5 22.5,59.5C 1.49109,50.6665 -4.34224,35.6665 5,14.5C 13.9455,2.90735 25.4455,-0.759314 39.5,3.5 Z"/></g>
<g><path style="opacity:1" fill="#5b8ec3" d="M 39.5,3.5 C 41.153,3.6596 42.4863,4.32627 43.5,5.5C 42.5,5.5 41.5,5.5 40.5,5.5C 40.3398,7.19919 40.5065,8.86586 41,10.5C 50.082,15.9984 53.7487,23.9984 52,34.5C 50.6644,28.4991 47.1644,24.3324 41.5,22C 43.1667,21.6667 44.8333,21.3333 46.5,21C 42.8131,18.715 38.8131,17.5483 34.5,17.5C 36.4409,16.3259 37.9409,14.6592 39,12.5C 39.765,10.9343 39.5983,9.60093 38.5,8.5C 39.3007,6.95819 39.634,5.29152 39.5,3.5 Z"/></g>
<g><path style="opacity:0.663" fill="#616161" d="M 50.5,10.5 C 51.9063,10.9731 52.573,11.9731 52.5,13.5C 51.0937,13.0269 50.427,12.0269 50.5,10.5 Z"/></g>
<g><path style="opacity:1" fill="#384061" d="M 38.5,8.5 C 39.5983,9.60093 39.765,10.9343 39,12.5C 37.9409,14.6592 36.4409,16.3259 34.5,17.5C 33.2794,18.0283 32.1127,18.695 31,19.5C 30.8333,19.1667 30.6667,18.8333 30.5,18.5C 32.5302,16.393 34.6969,14.393 37,12.5C 37.7914,11.255 38.2914,9.92167 38.5,8.5 Z"/></g>
<g><path style="opacity:1" fill="#4a6892" d="M 27.5,16.5 C 29.8418,16.7748 29.8418,17.6081 27.5,19C 26.5,19.6667 25.5,19.6667 24.5,19C 25.5707,18.1482 26.5707,17.3149 27.5,16.5 Z"/></g>
<g><path style="opacity:1" fill="#458ac9" d="M 28.5,13.5 C 27.4019,12.603 27.4019,11.7697 28.5,11C 19.082,11.0509 12.7487,15.5509 9.5,24.5C 10.1716,26.1595 11.1716,27.4928 12.5,28.5C 12.4088,30.6977 13.0755,31.0311 14.5,29.5C 15.4057,30.9649 16.739,31.9649 18.5,32.5C 19.3857,31.675 19.719,30.675 19.5,29.5C 22.8499,29.335 26.1832,29.5017 29.5,30C 31.0557,30.7202 32.0557,31.8868 32.5,33.5C 31.6019,39.7215 27.9352,42.7215 21.5,42.5C 14.3348,42.3232 9.33477,38.9898 6.5,32.5C 7.5409,14.9634 16.8742,6.79677 34.5,8C 35.3081,8.30762 35.9747,8.80762 36.5,9.5C 35.6872,10.8139 34.6872,11.9805 33.5,13C 32.2559,13.4561 31.4226,12.9561 31,11.5C 30.2917,12.3805 29.4584,13.0472 28.5,13.5 Z"/></g>
<g><path style="opacity:1" fill="#6f9ed3" d="M 28.5,13.5 C 26.7274,14.8923 24.7274,16.059 22.5,17C 21.5282,21.6703 18.8616,23.3369 14.5,22C 12.9837,23.897 12.317,26.0637 12.5,28.5C 11.1716,27.4928 10.1716,26.1595 9.5,24.5C 12.7487,15.5509 19.082,11.0509 28.5,11C 27.4019,11.7697 27.4019,12.603 28.5,13.5 Z"/></g>
<g><path style="opacity:1" fill="#273071" d="M 45.5,44.5 C 43.8993,49.9268 40.2326,53.0935 34.5,54C 29.0403,55.129 24.0403,54.2956 19.5,51.5C 29.5452,52.4233 35.5452,48.09 37.5,38.5C 36.1667,38.5 34.8333,38.5 33.5,38.5C 33.7845,36.5853 33.4511,34.9187 32.5,33.5C 32.0557,31.8868 31.0557,30.7202 29.5,30C 26.1832,29.5017 22.8499,29.335 19.5,29.5C 19.719,30.675 19.3857,31.675 18.5,32.5C 16.739,31.9649 15.4057,30.9649 14.5,29.5C 15.5137,28.3263 16.847,27.6596 18.5,27.5C 22.8814,27.3718 27.2147,27.7051 31.5,28.5C 31.5,27.5 31.5,26.5 31.5,25.5C 41.4931,27.8356 46.1598,34.1689 45.5,44.5 Z"/></g>
<g><path style="opacity:1" fill="#262d52" d="M 45.5,44.5 C 46.1598,34.1689 41.4931,27.8356 31.5,25.5C 31.5,26.5 31.5,27.5 31.5,28.5C 27.2147,27.7051 22.8814,27.3718 18.5,27.5C 22.3123,26.6762 26.3123,26.1762 30.5,26C 28.1854,24.6325 28.1854,23.7991 30.5,23.5C 42.3568,25.9735 47.3568,32.9735 45.5,44.5 Z"/></g>
<g><path style="opacity:1" fill="#182246" d="M 6.5,32.5 C 9.33477,38.9898 14.3348,42.3232 21.5,42.5C 27.9352,42.7215 31.6019,39.7215 32.5,33.5C 33.4511,34.9187 33.7845,36.5853 33.5,38.5C 34.8333,38.5 36.1667,38.5 37.5,38.5C 35.5452,48.09 29.5452,52.4233 19.5,51.5C 11.4838,47.8325 7.15043,41.4991 6.5,32.5 Z"/></g>
</svg>
