<?xml version="1.0" encoding="UTF-8"?>
<!DOCTYPE svg PUBLIC "-//W3C//DTD SVG 1.1//EN" "http://www.w3.org/Graphics/SVG/1.1/DTD/svg11.dtd">
<svg xmlns="http://www.w3.org/2000/svg" version="1.1" width="230px" height="230px" style="shape-rendering:geometricPrecision; text-rendering:geometricPrecision; image-rendering:optimizeQuality; fill-rule:evenodd; clip-rule:evenodd" xmlns:xlink="http://www.w3.org/1999/xlink">
<g><path style="opacity:1" fill="#f1f8fa" d="M 99.5,-0.5 C 109.5,-0.5 119.5,-0.5 129.5,-0.5C 185.167,10.5 218.5,43.8333 229.5,99.5C 229.5,109.5 229.5,119.5 229.5,129.5C 218.5,185.167 185.167,218.5 129.5,229.5C 119.5,229.5 109.5,229.5 99.5,229.5C 43.8333,218.5 10.5,185.167 -0.5,129.5C -0.5,119.5 -0.5,109.5 -0.5,99.5C 10.5,43.8333 43.8333,10.5 99.5,-0.5 Z"/></g>
<g><path style="opacity:1" fill="#1e6392" d="M 134.5,225.5 C 126.951,221.89 118.951,220.89 110.5,222.5C 105.986,221.608 101.486,220.608 97,219.5C 92.5287,220.513 88.0287,220.679 83.5,220C 84.6956,219.346 84.6956,218.846 83.5,218.5C 81.3576,219.437 81.0243,220.77 82.5,222.5C 50.8219,212.319 27.6552,192.319 13,162.5C -4.25941,120.497 0.407261,81.1639 27,44.5C 64.7027,2.78533 109.869,-7.71467 162.5,13C 210.304,38.4305 231.47,78.2638 226,132.5C 217.866,175.631 193.366,205.131 152.5,221C 146.644,223.131 140.644,224.631 134.5,225.5 Z"/></g>
<g><path style="opacity:1" fill="#e6f2f7" d="M 104.5,10.5 C 148.834,8.57963 182.668,26.2463 206,63.5C 227.047,105.533 223.381,145.199 195,182.5C 164.631,214.953 127.798,225.786 84.5,215C 42.1794,199.886 17.6794,170.053 11,125.5C 9.40658,71.1591 33.9066,34.3258 84.5,15C 91.276,13.3782 97.9427,11.8782 104.5,10.5 Z"/></g>
<g><path style="opacity:1" fill="#403f3a" d="M 131.5,185.5 C 136.757,187.837 141.424,190.837 145.5,194.5C 143.118,195.351 141.118,196.684 139.5,198.5C 133.521,200.82 127.521,203.154 121.5,205.5C 120.505,200.208 120.172,194.875 120.5,189.5C 124.264,188.452 127.931,187.119 131.5,185.5 Z"/></g>
<g><path style="opacity:1" fill="#a8b0b3" d="M 145.5,175.5 C 145.833,175.5 146.167,175.5 146.5,175.5C 146.5,175.833 146.5,176.167 146.5,176.5C 141.63,179.766 136.63,182.766 131.5,185.5C 127.931,187.119 124.264,188.452 120.5,189.5C 120.172,194.875 120.505,200.208 121.5,205.5C 127.521,203.154 133.521,200.82 139.5,198.5C 133.429,202.53 126.762,205.53 119.5,207.5C 118.516,204.572 118.183,201.572 118.5,198.5C 118.5,195.833 118.5,193.167 118.5,190.5C 127.594,185.784 136.594,180.784 145.5,175.5 Z"/></g>
<g><path style="opacity:1" fill="#5e5e5b" d="M 146.5,176.5 C 146.709,177.922 147.209,179.255 148,180.5C 150.902,182.511 153.402,184.844 155.5,187.5C 152.204,189.821 148.871,192.154 145.5,194.5C 141.424,190.837 136.757,187.837 131.5,185.5C 136.63,182.766 141.63,179.766 146.5,176.5 Z"/></g>
<g><path style="opacity:1" fill="#888783" d="M 151.5,172.5 C 152.467,173.806 153.801,174.473 155.5,174.5C 155.197,177.588 156.53,179.254 159.5,179.5C 159.421,180.93 159.754,182.264 160.5,183.5C 158.814,184.857 157.148,186.19 155.5,187.5C 153.402,184.844 150.902,182.511 148,180.5C 147.209,179.255 146.709,177.922 146.5,176.5C 146.5,176.167 146.5,175.833 146.5,175.5C 148.001,174.248 149.668,173.248 151.5,172.5 Z"/></g>
<g><path style="opacity:1" fill="#1378b2" d="M 57.5,170.5 C 62.4729,176.14 67.8063,181.473 73.5,186.5C 74.2653,189.096 74.5987,191.763 74.5,194.5C 73.448,194.351 72.448,194.517 71.5,195C 74.5142,198.034 78.1809,199.201 82.5,198.5C 82.5,199.833 82.5,201.167 82.5,202.5C 79.3273,202.599 76.3273,201.932 73.5,200.5C 71.1088,201.191 71.1088,202.191 73.5,203.5C 73.1667,203.833 72.8333,204.167 72.5,204.5C 70.5914,203.652 68.5914,203.318 66.5,203.5C 59.2389,200.042 52.9056,195.375 47.5,189.5C 47.8039,188.85 48.1373,188.183 48.5,187.5C 45.833,184.502 42.833,181.835 39.5,179.5C 42.1178,179.457 44.7845,179.123 47.5,178.5C 48.3333,179.5 49.1667,180.5 50,181.5C 50.2055,178.052 50.3721,174.385 50.5,170.5C 52.8333,170.5 55.1667,170.5 57.5,170.5 Z"/></g>
<g><path style="opacity:1" fill="#a8abaa" d="M 170.5,175.5 C 162.136,185.846 151.803,193.513 139.5,198.5C 141.118,196.684 143.118,195.351 145.5,194.5C 148.871,192.154 152.204,189.821 155.5,187.5C 157.148,186.19 158.814,184.857 160.5,183.5C 159.754,182.264 159.421,180.93 159.5,179.5C 156.53,179.254 155.197,177.588 155.5,174.5C 153.801,174.473 152.467,173.806 151.5,172.5C 154.129,169.369 156.962,166.369 160,163.5C 162.567,167.7 166.067,170.867 170.5,173C 169.226,173.977 169.226,174.811 170.5,175.5 Z"/></g>
<g><path style="opacity:1" fill="#0d6fa3" d="M 160.5,152.5 C 160.833,152.5 161.167,152.5 161.5,152.5C 162.833,152.5 164.167,152.5 165.5,152.5C 164.345,155.475 162.678,158.142 160.5,160.5C 155.833,165.833 150.833,170.833 145.5,175.5C 136.594,180.784 127.594,185.784 118.5,190.5C 116.833,190.5 115.167,190.5 113.5,190.5C 111.167,189.167 108.833,187.833 106.5,186.5C 108.833,186.5 111.167,186.5 113.5,186.5C 114.167,181.167 114.833,175.833 115.5,170.5C 116.5,170.5 117.5,170.5 118.5,170.5C 118.5,167.833 118.5,165.167 118.5,162.5C 119.833,162.5 121.167,162.5 122.5,162.5C 122.5,165.167 122.5,167.833 122.5,170.5C 124.833,170.5 127.167,170.5 129.5,170.5C 129.522,166.407 130.189,162.407 131.5,158.5C 131.408,156.742 131.075,155.076 130.5,153.5C 135.923,154.935 141.256,154.602 146.5,152.5C 149.544,153.719 152.711,154.386 156,154.5C 157.986,154.431 159.486,153.765 160.5,152.5 Z"/></g>
<g><path style="opacity:1" fill="#cdcecd" d="M 175.5,169.5 C 173.833,171.5 172.167,173.5 170.5,175.5C 169.226,174.811 169.226,173.977 170.5,173C 166.067,170.867 162.567,167.7 160,163.5C 156.962,166.369 154.129,169.369 151.5,172.5C 149.668,173.248 148.001,174.248 146.5,175.5C 146.167,175.5 145.833,175.5 145.5,175.5C 150.833,170.833 155.833,165.833 160.5,160.5C 160.435,160.938 160.601,161.272 161,161.5C 162,160.5 163,159.5 164,158.5C 165.502,161.018 167.002,163.518 168.5,166C 171.166,166.666 173.5,167.833 175.5,169.5 Z"/></g>
<g><path style="opacity:1" fill="#faa43e" d="M 69.5,157.5 C 72.1667,160.5 74.8333,163.5 77.5,166.5C 85.5917,175.385 95.2584,182.052 106.5,186.5C 108.833,187.833 111.167,189.167 113.5,190.5C 113.5,193.5 113.5,196.5 113.5,199.5C 113.813,202.247 113.48,204.914 112.5,207.5C 98.1335,202.82 85.1335,195.82 73.5,186.5C 67.8063,181.473 62.4729,176.14 57.5,170.5C 57.5,170.167 57.5,169.833 57.5,169.5C 57.5692,162.094 61.5692,158.094 69.5,157.5 Z"/></g>
<g><path style="opacity:1" fill="#e6e6e5" d="M 183.5,156.5 C 181.084,161.001 178.417,165.334 175.5,169.5C 173.5,167.833 171.166,166.666 168.5,166C 167.002,163.518 165.502,161.018 164,158.5C 163,159.5 162,160.5 161,161.5C 160.601,161.272 160.435,160.938 160.5,160.5C 162.678,158.142 164.345,155.475 165.5,152.5C 167.539,151.328 168.872,149.662 169.5,147.5C 170.738,146.588 172.072,146.421 173.5,147C 177.381,149.718 180.715,152.884 183.5,156.5 Z"/></g>
<g><path style="opacity:1" fill="#1c83c0" d="M 39.5,138.5 C 40.8333,140.833 42.1667,143.167 43.5,145.5C 46.6425,154.46 51.3092,162.46 57.5,169.5C 57.5,169.833 57.5,170.167 57.5,170.5C 55.1667,170.5 52.8333,170.5 50.5,170.5C 50.3721,174.385 50.2055,178.052 50,181.5C 49.1667,180.5 48.3333,179.5 47.5,178.5C 44.7845,179.123 42.1178,179.457 39.5,179.5C 42.833,181.835 45.833,184.502 48.5,187.5C 48.1373,188.183 47.8039,188.85 47.5,189.5C 37.4449,181.418 29.7782,171.418 24.5,159.5C 26.5996,155.197 27.5996,150.531 27.5,145.5C 25.8008,145.66 24.1341,145.494 22.5,145C 25.5,142 28.5,139 31.5,136C 33.2166,134.441 35.2166,133.608 37.5,133.5C 37.7135,135.144 37.3802,136.644 36.5,138C 37.448,138.483 38.448,138.649 39.5,138.5 Z"/></g>
<g><path style="opacity:1" fill="#da821d" d="M 59.5,140.5 C 62.5528,146.263 65.8861,151.93 69.5,157.5C 61.5692,158.094 57.5692,162.094 57.5,169.5C 51.3092,162.46 46.6425,154.46 43.5,145.5C 43.369,144.761 43.5357,144.094 44,143.5C 44.8928,144.711 45.7261,144.711 46.5,143.5C 47.2458,142.264 47.5792,140.93 47.5,139.5C 50.3085,139.307 52.9752,138.64 55.5,137.5C 55.3505,136.448 55.5172,135.448 56,134.5C 56.4955,136.473 56.6621,138.473 56.5,140.5C 57.5,140.5 58.5,140.5 59.5,140.5 Z"/></g>
<g><path style="opacity:1" fill="#dadada" d="M 186.5,150.5 C 186.008,152.819 185.008,154.819 183.5,156.5C 180.715,152.884 177.381,149.718 173.5,147C 172.072,146.421 170.738,146.588 169.5,147.5C 169.5,146.833 169.5,146.167 169.5,145.5C 170.974,144.564 171.974,143.23 172.5,141.5C 174.068,140.527 175.735,140.36 177.5,141C 180.052,143.853 182.885,146.353 186,148.5C 186.464,149.094 186.631,149.761 186.5,150.5 Z"/></g>
<g><path style="opacity:1" fill="#bcbdbe" d="M 194.5,128.5 C 195.167,128.5 195.5,128.833 195.5,129.5C 193.752,137.18 190.752,144.18 186.5,150.5C 186.631,149.761 186.464,149.094 186,148.5C 182.885,146.353 180.052,143.853 177.5,141C 175.735,140.36 174.068,140.527 172.5,141.5C 173.836,138.162 175.169,134.829 176.5,131.5C 177.167,131.5 177.833,131.5 178.5,131.5C 183.825,130.504 189.158,129.504 194.5,128.5 Z"/></g>
<g><path style="opacity:1" fill="#324151" d="M 169.5,145.5 C 169.5,146.167 169.5,146.833 169.5,147.5C 168.872,149.662 167.539,151.328 165.5,152.5C 164.167,152.5 162.833,152.5 161.5,152.5C 163.448,151.869 165.281,150.869 167,149.5C 167.667,148.5 167.667,147.5 167,146.5C 163.362,148.014 159.529,148.68 155.5,148.5C 152.833,148.333 150.167,148.167 147.5,148C 144.953,145.639 144.12,146.139 145,149.5C 145.903,150.701 147.069,151.535 148.5,152C 152.486,152.499 156.486,152.666 160.5,152.5C 159.486,153.765 157.986,154.431 156,154.5C 152.711,154.386 149.544,153.719 146.5,152.5C 141.256,154.602 135.923,154.935 130.5,153.5C 127.901,153.451 125.734,152.451 124,150.5C 118.084,132.607 124.251,124.94 142.5,127.5C 138.949,115.906 143.116,110.239 155,110.5C 160.172,110.329 164.839,111.662 169,114.5C 169.5,124.828 169.666,135.161 169.5,145.5 Z"/></g>
<g><path style="opacity:1" fill="#e2733f" d="M 125.5,146.5 C 130.992,148.02 136.659,149.02 142.5,149.5C 142.833,150.167 143.167,150.833 143.5,151.5C 137.68,153.012 132.014,152.679 126.5,150.5C 125.571,149.311 125.238,147.978 125.5,146.5 Z"/></g>
<g><path style="opacity:1" fill="#edc550" d="M 161.5,152.5 C 161.167,152.5 160.833,152.5 160.5,152.5C 156.486,152.666 152.486,152.499 148.5,152C 147.069,151.535 145.903,150.701 145,149.5C 144.12,146.139 144.953,145.639 147.5,148C 150.167,148.167 152.833,148.333 155.5,148.5C 159.529,148.68 163.362,148.014 167,146.5C 167.667,147.5 167.667,148.5 167,149.5C 165.281,150.869 163.448,151.869 161.5,152.5 Z"/></g>
<g><path style="opacity:1" fill="#ec753f" d="M 125.5,141.5 C 130.98,143.283 136.647,143.949 142.5,143.5C 142.64,145.124 141.973,146.29 140.5,147C 135.597,147.937 130.93,147.27 126.5,145C 125.663,143.989 125.33,142.822 125.5,141.5 Z"/></g>
<g><path style="opacity:1" fill="#ebc34f" d="M 144.5,141.5 C 151.825,144.165 159.158,144.165 166.5,141.5C 167.9,143.782 167.234,145.282 164.5,146C 158.024,148.199 151.691,147.865 145.5,145C 144.663,143.989 144.33,142.822 144.5,141.5 Z"/></g>
<g><path style="opacity:1" fill="#116a9c" d="M 181.5,39.5 C 199.546,55.0963 210.712,74.7629 215,98.5C 219.7,142.15 204.2,176.317 168.5,201C 140.177,216.825 110.51,219.825 79.5,210C 74.8268,208.33 70.4934,206.163 66.5,203.5C 68.5914,203.318 70.5914,203.652 72.5,204.5C 72.8333,204.167 73.1667,203.833 73.5,203.5C 71.1088,202.191 71.1088,201.191 73.5,200.5C 76.3273,201.932 79.3273,202.599 82.5,202.5C 82.5,201.167 82.5,199.833 82.5,198.5C 78.1809,199.201 74.5142,198.034 71.5,195C 72.448,194.517 73.448,194.351 74.5,194.5C 74.5987,191.763 74.2653,189.096 73.5,186.5C 85.1335,195.82 98.1335,202.82 112.5,207.5C 113.48,204.914 113.813,202.247 113.5,199.5C 115.042,198.699 116.708,198.366 118.5,198.5C 118.183,201.572 118.516,204.572 119.5,207.5C 126.762,205.53 133.429,202.53 139.5,198.5C 151.803,193.513 162.136,185.846 170.5,175.5C 172.167,173.5 173.833,171.5 175.5,169.5C 178.417,165.334 181.084,161.001 183.5,156.5C 185.008,154.819 186.008,152.819 186.5,150.5C 190.752,144.18 193.752,137.18 195.5,129.5C 197.356,124.08 198.689,118.413 199.5,112.5C 199.674,110.139 200.007,107.806 200.5,105.5C 200.963,102.518 201.296,99.5176 201.5,96.5C 201.5,94.5 201.5,92.5 201.5,90.5C 202.492,82.6841 202.826,74.6841 202.5,66.5C 197.463,66.5874 192.463,66.254 187.5,65.5C 183.854,63.6717 180.521,61.3384 177.5,58.5C 177.5,58.1667 177.5,57.8333 177.5,57.5C 178.363,56.0597 178.363,54.7264 177.5,53.5C 178.098,52.2054 178.598,50.8721 179,49.5C 179.654,50.6956 180.154,50.6956 180.5,49.5C 179.833,48.8333 179.167,48.1667 178.5,47.5C 179.833,46.1667 179.833,44.8333 178.5,43.5C 180.404,42.2671 181.404,40.9338 181.5,39.5 Z"/></g>
<g><path style="opacity:1" fill="#1e1917" d="M 113.5,190.5 C 115.167,190.5 116.833,190.5 118.5,190.5C 118.5,193.167 118.5,195.833 118.5,198.5C 116.708,198.366 115.042,198.699 113.5,199.5C 113.5,196.5 113.5,193.5 113.5,190.5 Z"/></g>
<g><path style="opacity:1" fill="#5e9cbd" d="M 140.5,120.5 C 131.682,121.493 122.682,121.827 113.5,121.5C 113.828,132.346 113.494,143.013 112.5,153.5C 112.5,142.5 112.5,131.5 112.5,120.5C 121.833,120.5 131.167,120.5 140.5,120.5 Z"/></g>
<g><path style="opacity:1" fill="#3e9acf" d="M 33.5,116.5 C 35.4766,123.73 37.4766,131.064 39.5,138.5C 38.448,138.649 37.448,138.483 36.5,138C 37.3802,136.644 37.7135,135.144 37.5,133.5C 35.2166,133.608 33.2166,134.441 31.5,136C 28.5,139 25.5,142 22.5,145C 24.1341,145.494 25.8008,145.66 27.5,145.5C 27.5996,150.531 26.5996,155.197 24.5,159.5C 21.7376,154.895 19.7376,149.895 18.5,144.5C 17.2015,138.591 16.5348,132.591 16.5,126.5C 18.3084,126.509 19.9751,126.009 21.5,125C 25.0548,121.623 29.0548,118.79 33.5,116.5 Z"/></g>
<g><path style="opacity:1" fill="#575753" d="M 182.5,116.5 C 187.263,117.714 191.929,119.048 196.5,120.5C 196.44,123.341 195.774,126.007 194.5,128.5C 189.158,129.504 183.825,130.504 178.5,131.5C 179.681,126.441 181.014,121.441 182.5,116.5 Z"/></g>
<g><path style="opacity:1" fill="#62b0df" d="M 30.5,98.5 C 31.6948,104.335 32.6948,110.335 33.5,116.5C 29.0548,118.79 25.0548,121.623 21.5,125C 19.9751,126.009 18.3084,126.509 16.5,126.5C 16.5348,132.591 17.2015,138.591 18.5,144.5C 17.0734,140.364 15.9067,136.031 15,131.5C 14.1901,120.091 14.3568,108.757 15.5,97.5C 16.7206,98.0283 17.8873,98.695 19,99.5C 22.6053,96.2346 25.9386,96.2346 29,99.5C 29.3826,98.944 29.8826,98.6107 30.5,98.5 Z"/></g>
<g><path style="opacity:1" fill="#767674" d="M 199.5,112.5 C 198.689,118.413 197.356,124.08 195.5,129.5C 195.5,128.833 195.167,128.5 194.5,128.5C 195.774,126.007 196.44,123.341 196.5,120.5C 191.929,119.048 187.263,117.714 182.5,116.5C 182.699,114.04 183.365,111.707 184.5,109.5C 189.237,112.435 194.237,113.435 199.5,112.5 Z"/></g>
<g><path style="opacity:1" fill="#909393" d="M 184.5,96.5 C 184.5,98.8333 184.5,101.167 184.5,103.5C 189.171,104.504 193.837,105.837 198.5,107.5C 199.182,106.757 199.849,106.091 200.5,105.5C 200.007,107.806 199.674,110.139 199.5,112.5C 194.237,113.435 189.237,112.435 184.5,109.5C 183.365,111.707 182.699,114.04 182.5,116.5C 181.014,121.441 179.681,126.441 178.5,131.5C 177.833,131.5 177.167,131.5 176.5,131.5C 180.355,120 183.022,108.334 184.5,96.5 Z"/></g>
<g><path style="opacity:1" fill="#3e9cd3" d="M 93.5,87.5 C 93.5,87.8333 93.5,88.1667 93.5,88.5C 91.7446,89.0722 90.0779,89.9055 88.5,91C 84.3487,95.6518 80.0153,100.152 75.5,104.5C 69.8635,111.475 64.1968,118.475 58.5,125.5C 58.7093,126.086 59.0426,126.586 59.5,127C 58.6138,128.615 57.6138,130.115 56.5,131.5C 54.2911,125.54 52.2911,119.54 50.5,113.5C 50.5,112.167 50.5,110.833 50.5,109.5C 51.034,105.898 51.034,102.398 50.5,99C 52.2297,97.1476 53.3964,97.3143 54,99.5C 55.3561,98.6198 56.8561,98.2865 58.5,98.5C 59.6063,99.1494 60.6063,99.4827 61.5,99.5C 60.7579,100.287 59.9246,100.953 59,101.5C 58.3123,102.332 58.479,102.998 59.5,103.5C 62.6207,102.774 65.2873,101.274 67.5,99C 68.7932,98.51 70.1266,98.3433 71.5,98.5C 71.7105,101.97 72.8771,101.97 75,98.5C 75.3333,98.8333 75.6667,99.1667 76,99.5C 77.4007,97.8078 79.2341,97.1412 81.5,97.5C 81.6646,95.1732 82.3313,93.0065 83.5,91C 86.5467,90.3562 89.0467,88.8562 91,86.5C 91.6708,87.2524 92.5041,87.5858 93.5,87.5 Z"/></g>
<g><path style="opacity:1" fill="#137fbd" d="M 93.5,88.5 C 93.5,110.167 93.5,131.833 93.5,153.5C 92.1225,154.234 90.6225,154.901 89,155.5C 88.5034,157.81 88.3367,160.143 88.5,162.5C 86.1432,162.337 83.8098,162.503 81.5,163C 80.7734,164.399 80.2734,165.899 80,167.5C 79.3292,166.748 78.4959,166.414 77.5,166.5C 74.8333,163.5 72.1667,160.5 69.5,157.5C 65.8861,151.93 62.5528,146.263 59.5,140.5C 58.3024,137.574 57.3024,134.574 56.5,131.5C 57.6138,130.115 58.6138,128.615 59.5,127C 59.0426,126.586 58.7093,126.086 58.5,125.5C 64.1968,118.475 69.8635,111.475 75.5,104.5C 80.0153,100.152 84.3487,95.6518 88.5,91C 90.0779,89.9055 91.7446,89.0722 93.5,88.5 Z"/></g>
<g><path style="opacity:1" fill="#c06b0c" d="M 30.5,68.5 C 35.9429,73.395 41.6096,78.0617 47.5,82.5C 47.3748,88.2031 47.7081,93.8698 48.5,99.5C 43.8215,99.3342 39.1548,99.5008 34.5,100C 31.8333,101.667 31.8333,103.333 34.5,105C 40.0625,107.612 45.3958,110.445 50.5,113.5C 52.2911,119.54 54.2911,125.54 56.5,131.5C 57.3024,134.574 58.3024,137.574 59.5,140.5C 58.5,140.5 57.5,140.5 56.5,140.5C 56.6621,138.473 56.4955,136.473 56,134.5C 55.5172,135.448 55.3505,136.448 55.5,137.5C 52.9752,138.64 50.3085,139.307 47.5,139.5C 47.5792,140.93 47.2458,142.264 46.5,143.5C 45.7261,144.711 44.8928,144.711 44,143.5C 43.5357,144.094 43.369,144.761 43.5,145.5C 42.1667,143.167 40.8333,140.833 39.5,138.5C 37.4766,131.064 35.4766,123.73 33.5,116.5C 32.6948,110.335 31.6948,104.335 30.5,98.5C 30.5,95.5 30.5,92.5 30.5,89.5C 31.404,90.209 31.7373,91.209 31.5,92.5C 36.1624,92.0375 40.8291,91.5375 45.5,91C 47.2379,87.156 46.5712,83.8227 43.5,81C 39.6756,77.9209 35.6756,75.0876 31.5,72.5C 30.5091,76.4454 30.1758,80.4454 30.5,84.5C 29.5128,79.6946 29.1795,74.6946 29.5,69.5C 29.5,68.8333 29.8333,68.5 30.5,68.5 Z"/></g>
<g><path style="opacity:1" fill="#87afc7" d="M 142.5,72.5 C 143.488,77.6405 143.821,82.9738 143.5,88.5C 133.5,88.5 123.5,88.5 113.5,88.5C 113.5,93.8333 113.5,99.1667 113.5,104.5C 122.682,104.173 131.682,104.507 140.5,105.5C 131.167,105.5 121.833,105.5 112.5,105.5C 112.5,99.5 112.5,93.5 112.5,87.5C 122.5,87.5 132.5,87.5 142.5,87.5C 142.5,82.5 142.5,77.5 142.5,72.5 Z"/></g>
<g><path style="opacity:1" fill="#a74b03" d="M 48.5,99.5 C 48.5488,103.078 49.2154,106.411 50.5,109.5C 50.5,110.833 50.5,112.167 50.5,113.5C 45.3958,110.445 40.0625,107.612 34.5,105C 31.8333,103.333 31.8333,101.667 34.5,100C 39.1548,99.5008 43.8215,99.3342 48.5,99.5 Z"/></g>
<g><path style="opacity:1" fill="#b6b6b4" d="M 173.5,75.5 C 174.5,76.1667 175.5,76.8333 176.5,77.5C 180.623,79.8129 184.623,79.8129 188.5,77.5C 188.5,78.5 188.5,79.5 188.5,80.5C 186.642,84.5269 185.975,88.8602 186.5,93.5C 191.022,94.6925 195.356,96.3591 199.5,98.5C 200.182,97.7573 200.849,97.0906 201.5,96.5C 201.296,99.5176 200.963,102.518 200.5,105.5C 199.849,106.091 199.182,106.757 198.5,107.5C 193.837,105.837 189.171,104.504 184.5,103.5C 184.5,101.167 184.5,98.8333 184.5,96.5C 185.053,91.518 185.387,86.518 185.5,81.5C 180.57,81.1933 176.237,79.5267 172.5,76.5C 173.167,76.5 173.5,76.1667 173.5,75.5 Z"/></g>
<g><path style="opacity:1" fill="#88c5e9" d="M 29.5,69.5 C 29.1795,74.6946 29.5128,79.6946 30.5,84.5C 30.5,86.1667 30.5,87.8333 30.5,89.5C 30.5,92.5 30.5,95.5 30.5,98.5C 29.8826,98.6107 29.3826,98.944 29,99.5C 25.9386,96.2346 22.6053,96.2346 19,99.5C 17.8873,98.695 16.7206,98.0283 15.5,97.5C 15.8744,92.9505 16.8744,88.6172 18.5,84.5C 19.1499,84.1961 19.8165,83.8627 20.5,83.5C 20.9986,80.7827 22.1653,78.4494 24,76.5C 24.3762,73.0249 25.7095,70.0249 28,67.5C 28.2784,68.4158 28.7784,69.0825 29.5,69.5 Z"/></g>
<g><path style="opacity:1" fill="#ee972e" d="M 30.5,89.5 C 30.5,87.8333 30.5,86.1667 30.5,84.5C 30.1758,80.4454 30.5091,76.4454 31.5,72.5C 35.6756,75.0876 39.6756,77.9209 43.5,81C 46.5712,83.8227 47.2379,87.156 45.5,91C 40.8291,91.5375 36.1624,92.0375 31.5,92.5C 31.7373,91.209 31.404,90.209 30.5,89.5 Z"/></g>
<g><path style="opacity:1" fill="#0f7cbb" d="M 157.5,56.5 C 158.13,58.7496 159.13,60.7496 160.5,62.5C 162.164,67.1594 164.831,71.1594 168.5,74.5C 168.5,77.1667 168.5,79.8333 168.5,82.5C 161.5,80.8333 158.833,83.5 160.5,90.5C 153.5,88.8333 150.833,91.5 152.5,98.5C 145.5,96.8333 142.833,99.5 144.5,106.5C 143.041,106.567 141.708,106.234 140.5,105.5C 131.682,104.507 122.682,104.173 113.5,104.5C 113.5,99.1667 113.5,93.8333 113.5,88.5C 123.5,88.5 133.5,88.5 143.5,88.5C 143.821,82.9738 143.488,77.6405 142.5,72.5C 134.677,71.6708 126.677,71.1708 118.5,71C 123.952,67.6247 129.618,64.6247 135.5,62C 142.781,59.8465 150.114,58.0131 157.5,56.5 Z"/></g>
<g><path style="opacity:1" fill="#ececeb" d="M 201.5,90.5 C 201.5,92.5 201.5,94.5 201.5,96.5C 200.849,97.0906 200.182,97.7573 199.5,98.5C 195.356,96.3591 191.022,94.6925 186.5,93.5C 185.975,88.8602 186.642,84.5269 188.5,80.5C 192.482,77.5244 196.482,74.5244 200.5,71.5C 201.496,77.7985 201.83,84.1318 201.5,90.5 Z"/></g>
<g><path style="opacity:1" fill="#0e76af" d="M 168.5,74.5 C 169.833,75.1667 171.167,75.8333 172.5,76.5C 176.237,79.5267 180.57,81.1933 185.5,81.5C 185.387,86.518 185.053,91.518 184.5,96.5C 183.022,108.334 180.355,120 176.5,131.5C 175.169,134.829 173.836,138.162 172.5,141.5C 171.974,143.23 170.974,144.564 169.5,145.5C 169.666,135.161 169.5,124.828 169,114.5C 164.839,111.662 160.172,110.329 155,110.5C 143.116,110.239 138.949,115.906 142.5,127.5C 124.251,124.94 118.084,132.607 124,150.5C 125.734,152.451 127.901,153.451 130.5,153.5C 131.075,155.076 131.408,156.742 131.5,158.5C 130.189,162.407 129.522,166.407 129.5,170.5C 127.167,170.5 124.833,170.5 122.5,170.5C 122.5,167.833 122.5,165.167 122.5,162.5C 121.167,162.5 119.833,162.5 118.5,162.5C 118.5,165.167 118.5,167.833 118.5,170.5C 117.5,170.5 116.5,170.5 115.5,170.5C 114.833,175.833 114.167,181.167 113.5,186.5C 111.167,186.5 108.833,186.5 106.5,186.5C 95.2584,182.052 85.5917,175.385 77.5,166.5C 78.4959,166.414 79.3292,166.748 80,167.5C 80.2734,165.899 80.7734,164.399 81.5,163C 83.8098,162.503 86.1432,162.337 88.5,162.5C 88.3367,160.143 88.5034,157.81 89,155.5C 90.6225,154.901 92.1225,154.234 93.5,153.5C 99.8333,153.5 106.167,153.5 112.5,153.5C 113.494,143.013 113.828,132.346 113.5,121.5C 122.682,121.827 131.682,121.493 140.5,120.5C 140.5,115.5 140.5,110.5 140.5,105.5C 141.708,106.234 143.041,106.567 144.5,106.5C 142.833,99.5 145.5,96.8333 152.5,98.5C 150.833,91.5 153.5,88.8333 160.5,90.5C 158.833,83.5 161.5,80.8333 168.5,82.5C 168.5,79.8333 168.5,77.1667 168.5,74.5 Z"/></g>
<g><path style="opacity:1" fill="#ebc450" d="M 144.5,135.5 C 151.974,138.149 159.474,138.149 167,135.5C 167.757,138.476 166.591,140.309 163.5,141C 158.5,141.667 153.5,141.667 148.5,141C 145.785,140.125 144.452,138.292 144.5,135.5 Z"/></g>
<g><path style="opacity:1" fill="#e5733f" d="M 125.5,135.5 C 130.945,137.345 136.612,138.012 142.5,137.5C 142.5,138.833 142.5,140.167 142.5,141.5C 136.972,142 131.638,141.333 126.5,139.5C 125.571,138.311 125.238,136.978 125.5,135.5 Z"/></g>
<g><path style="opacity:1" fill="#ecc450" d="M 144.5,130.5 C 151.784,133.064 159.117,133.064 166.5,130.5C 167.9,132.782 167.234,134.282 164.5,135C 157.997,137.313 151.663,136.979 145.5,134C 144.663,132.989 144.33,131.822 144.5,130.5 Z"/></g>
<g><path style="opacity:1" fill="#e37240" d="M 132.5,128.5 C 135.579,128.26 138.579,128.593 141.5,129.5C 143.902,134.833 142.236,137.166 136.5,136.5C 132.933,136.589 129.6,135.755 126.5,134C 125.167,133 125.167,132 126.5,131C 128.611,130.155 130.611,129.322 132.5,128.5 Z"/></g>
<g><path style="opacity:1" fill="#efc650" d="M 144.5,124.5 C 151.974,127.149 159.474,127.149 167,124.5C 167.757,127.476 166.591,129.309 163.5,130C 158.5,130.667 153.5,130.667 148.5,130C 145.785,129.125 144.452,127.292 144.5,124.5 Z"/></g>
<g><path style="opacity:1" fill="#edc550" d="M 144.5,119.5 C 151.784,122.064 159.117,122.064 166.5,119.5C 167.9,121.782 167.234,123.282 164.5,124C 158.026,126.169 151.693,125.836 145.5,123C 144.663,121.989 144.33,120.822 144.5,119.5 Z"/></g>
<g><path style="opacity:1" fill="#f2c650" d="M 148.5,112.5 C 153.511,112.334 158.511,112.501 163.5,113C 168.833,115 168.833,117 163.5,119C 158.5,119.667 153.5,119.667 148.5,119C 143.402,116.91 143.402,114.744 148.5,112.5 Z"/></g>
<g><path style="opacity:1" fill="#ece9e7" d="M 93.5,72.5 C 100.5,72.5 107.5,72.5 114.5,72.5C 123.833,72.5 133.167,72.5 142.5,72.5C 142.5,77.5 142.5,82.5 142.5,87.5C 132.5,87.5 122.5,87.5 112.5,87.5C 112.5,93.5 112.5,99.5 112.5,105.5C 121.833,105.5 131.167,105.5 140.5,105.5C 140.5,110.5 140.5,115.5 140.5,120.5C 131.167,120.5 121.833,120.5 112.5,120.5C 112.5,131.5 112.5,142.5 112.5,153.5C 106.167,153.5 99.8333,153.5 93.5,153.5C 93.5,131.833 93.5,110.167 93.5,88.5C 93.5,88.1667 93.5,87.8333 93.5,87.5C 93.5,82.5 93.5,77.5 93.5,72.5 Z"/></g>
<g><path style="opacity:1" fill="#4fa6d6" d="M 93.5,72.5 C 93.5,77.5 93.5,82.5 93.5,87.5C 92.5041,87.5858 91.6708,87.2524 91,86.5C 89.0467,88.8562 86.5467,90.3562 83.5,91C 82.3313,93.0065 81.6646,95.1732 81.5,97.5C 79.2341,97.1412 77.4007,97.8078 76,99.5C 75.6667,99.1667 75.3333,98.8333 75,98.5C 72.8771,101.97 71.7105,101.97 71.5,98.5C 70.1266,98.3433 68.7932,98.51 67.5,99C 65.2873,101.274 62.6207,102.774 59.5,103.5C 58.479,102.998 58.3123,102.332 59,101.5C 59.9246,100.953 60.7579,100.287 61.5,99.5C 60.6063,99.4827 59.6063,99.1494 58.5,98.5C 60.085,95.361 62.7517,93.6944 66.5,93.5C 66.281,92.325 66.6143,91.325 67.5,90.5C 70.5819,88.6281 73.2486,86.2948 75.5,83.5C 77.444,82.8108 79.444,82.3108 81.5,82C 84.0698,79.886 86.4032,77.5527 88.5,75C 90.5029,74.6655 92.1696,73.8321 93.5,72.5 Z"/></g>
<g><path style="opacity:1" fill="#fbb40f" d="M 59.5,77.5 C 59.1667,77.5 58.8333,77.5 58.5,77.5C 56.323,77.4139 54.323,76.7472 52.5,75.5C 50.6181,72.3773 48.2848,69.7106 45.5,67.5C 46.9492,66.8281 48.2825,66.1614 49.5,65.5C 50.8804,64.2935 52.0471,64.6269 53,66.5C 54.2894,69.7083 56.2894,72.3749 59,74.5C 59.4828,75.448 59.6495,76.448 59.5,77.5 Z"/></g>
<g><path style="opacity:1" fill="#4e4d49" d="M 188.5,77.5 C 184.623,79.8129 180.623,79.8129 176.5,77.5C 179.866,72.9703 184.032,69.3036 189,66.5C 192.514,67.0576 196.014,67.7243 199.5,68.5C 195.947,71.758 192.28,74.758 188.5,77.5 Z"/></g>
<g><path style="opacity:1" fill="#f9cb60" d="M 54.5,60.5 C 54.8333,60.5 55.1667,60.5 55.5,60.5C 55.1961,61.1499 54.8627,61.8165 54.5,62.5C 57.011,67.4678 60.6776,71.1345 65.5,73.5C 63.7721,75.2255 61.7721,76.5589 59.5,77.5C 59.6495,76.448 59.4828,75.448 59,74.5C 56.2894,72.3749 54.2894,69.7083 53,66.5C 52.0471,64.6269 50.8804,64.2935 49.5,65.5C 48.5,65.5 47.5,65.5 46.5,65.5C 49.4336,64.361 52.1003,62.6943 54.5,60.5 Z"/></g>
<g><path style="opacity:1" fill="#8b8c8a" d="M 187.5,65.5 C 192.463,66.254 197.463,66.5874 202.5,66.5C 202.826,74.6841 202.492,82.6841 201.5,90.5C 201.83,84.1318 201.496,77.7985 200.5,71.5C 196.482,74.5244 192.482,77.5244 188.5,80.5C 188.5,79.5 188.5,78.5 188.5,77.5C 192.28,74.758 195.947,71.758 199.5,68.5C 196.014,67.7243 192.514,67.0576 189,66.5C 184.032,69.3036 179.866,72.9703 176.5,77.5C 175.5,76.8333 174.5,76.1667 173.5,75.5C 172.5,75.1667 171.833,74.5 171.5,73.5C 174.597,70.5836 177.931,67.7503 181.5,65C 183.488,64.8195 185.488,64.9862 187.5,65.5 Z"/></g>
<g><path style="opacity:1" fill="#e79b15" d="M 46.5,65.5 C 47.5,65.5 48.5,65.5 49.5,65.5C 48.2825,66.1614 46.9492,66.8281 45.5,67.5C 48.2848,69.7106 50.6181,72.3773 52.5,75.5C 54.323,76.7472 56.323,77.4139 58.5,77.5C 55.1586,79.7317 51.4919,81.3984 47.5,82.5C 41.6096,78.0617 35.9429,73.395 30.5,68.5C 35.7124,67.5077 41.0458,66.5077 46.5,65.5 Z"/></g>
<g><path style="opacity:1" fill="#bdbdbb" d="M 177.5,58.5 C 180.521,61.3384 183.854,63.6717 187.5,65.5C 185.488,64.9862 183.488,64.8195 181.5,65C 177.931,67.7503 174.597,70.5836 171.5,73.5C 169.616,73.2882 168.283,72.2882 167.5,70.5C 171.286,66.7286 174.619,62.7286 177.5,58.5 Z"/></g>
<g><path style="opacity:1" fill="#e8e9e9" d="M 170.5,38.5 C 172.206,44.927 174.539,51.2604 177.5,57.5C 177.5,57.8333 177.5,58.1667 177.5,58.5C 174.619,62.7286 171.286,66.7286 167.5,70.5C 168.283,72.2882 169.616,73.2882 171.5,73.5C 171.833,74.5 172.5,75.1667 173.5,75.5C 173.5,76.1667 173.167,76.5 172.5,76.5C 171.167,75.8333 169.833,75.1667 168.5,74.5C 164.831,71.1594 162.164,67.1594 160.5,62.5C 164.792,60.7824 168.625,57.7824 172,53.5C 172.484,49.3992 171.984,45.3992 170.5,41.5C 166.075,45.2714 161.409,48.6047 156.5,51.5C 155.833,51.5 155.5,51.1667 155.5,50.5C 155.5,50.1667 155.5,49.8333 155.5,49.5C 158.357,47.2417 161.357,45.2417 164.5,43.5C 167.115,42.5501 169.115,40.8835 170.5,38.5 Z"/></g>
<g><path style="opacity:1" fill="#fae4ac" d="M 59.5,53.5 C 63.7214,55.5471 67.2214,58.5471 70,62.5C 70.49,63.7932 70.6567,65.1266 70.5,66.5C 69.5294,68.4832 68.5294,70.4832 67.5,72.5C 66.8333,72.8333 66.1667,73.1667 65.5,73.5C 60.6776,71.1345 57.011,67.4678 54.5,62.5C 54.8627,61.8165 55.1961,61.1499 55.5,60.5C 55.5,59.8333 55.8333,59.5 56.5,59.5C 59.0758,62.4192 61.7425,65.4192 64.5,68.5C 68.0826,69.7296 69.2493,68.3962 68,64.5C 65.3859,60.6994 61.8859,58.366 57.5,57.5C 58.1667,56.1667 58.8333,54.8333 59.5,53.5 Z"/></g>
<g><path style="opacity:1" fill="#459fd1" d="M 137.5,45.5 C 143.38,47.5707 149.38,49.2373 155.5,50.5C 155.5,51.1667 155.833,51.5 156.5,51.5C 156.629,53.2161 156.962,54.8828 157.5,56.5C 150.114,58.0131 142.781,59.8465 135.5,62C 129.618,64.6247 123.952,67.6247 118.5,71C 126.677,71.1708 134.677,71.6708 142.5,72.5C 133.167,72.5 123.833,72.5 114.5,72.5C 110.353,71.6753 106.019,71.1753 101.5,71C 102.687,69.9805 103.687,68.8139 104.5,67.5C 103.975,66.8076 103.308,66.3076 102.5,66C 107.02,63.8805 111.687,62.0471 116.5,60.5C 119.156,58.5106 121.489,56.1773 123.5,53.5C 128.183,50.699 132.85,48.0323 137.5,45.5 Z"/></g>
<g><path style="opacity:1" fill="#63b0dc" d="M 121.5,39.5 C 124.426,40.6976 127.426,41.6976 130.5,42.5C 130.833,42.5 131.167,42.5 131.5,42.5C 133.5,43.5 135.5,44.5 137.5,45.5C 132.85,48.0323 128.183,50.699 123.5,53.5C 121.489,56.1773 119.156,58.5106 116.5,60.5C 111.687,62.0471 107.02,63.8805 102.5,66C 103.308,66.3076 103.975,66.8076 104.5,67.5C 103.687,68.8139 102.687,69.9805 101.5,71C 106.019,71.1753 110.353,71.6753 114.5,72.5C 107.5,72.5 100.5,72.5 93.5,72.5C 92.1696,73.8321 90.5029,74.6655 88.5,75C 86.4032,77.5527 84.0698,79.886 81.5,82C 79.444,82.3108 77.444,82.8108 75.5,83.5C 73.2486,86.2948 70.5819,88.6281 67.5,90.5C 66.6143,91.325 66.281,92.325 66.5,93.5C 62.7517,93.6944 60.085,95.361 58.5,98.5C 56.8561,98.2865 55.3561,98.6198 54,99.5C 53.3964,97.3143 52.2297,97.1476 50.5,99C 51.034,102.398 51.034,105.898 50.5,109.5C 49.2154,106.411 48.5488,103.078 48.5,99.5C 47.7081,93.8698 47.3748,88.2031 47.5,82.5C 51.4919,81.3984 55.1586,79.7317 58.5,77.5C 58.8333,77.5 59.1667,77.5 59.5,77.5C 61.7721,76.5589 63.7721,75.2255 65.5,73.5C 66.1667,73.1667 66.8333,72.8333 67.5,72.5C 69.5273,72.6621 71.5273,72.4955 73.5,72C 82.0962,69.5235 90.4295,66.3568 98.5,62.5C 98.3398,60.8008 98.5065,59.1341 99,57.5C 102,55.8333 105,54.1667 108,52.5C 109.131,53.6039 109.965,53.2705 110.5,51.5C 109.975,50.8076 109.308,50.3076 108.5,50C 113.065,46.5823 117.398,43.0823 121.5,39.5 Z"/></g>
<g><path style="opacity:1" fill="#fcf7e5" d="M 57.5,57.5 C 61.8859,58.366 65.3859,60.6994 68,64.5C 69.2493,68.3962 68.0826,69.7296 64.5,68.5C 61.7425,65.4192 59.0758,62.4192 56.5,59.5C 56.8333,58.8333 57.1667,58.1667 57.5,57.5 Z"/></g>
<g><path style="opacity:1" fill="#b1daf0" d="M 107.5,14.5 C 107.389,15.1174 107.056,15.6174 106.5,16C 109.226,16.1816 111.893,16.6816 114.5,17.5C 111.015,19.7337 107.681,20.067 104.5,18.5C 101.833,20.5 99.1667,22.5 96.5,24.5C 95.6143,25.325 95.281,26.325 95.5,27.5C 91.6052,28.4624 87.9385,29.7957 84.5,31.5C 76.8201,33.8932 69.1534,36.3932 61.5,39C 60.6198,40.3561 60.2865,41.8561 60.5,43.5C 60.5,44.1667 60.5,44.8333 60.5,45.5C 59.5655,46.5676 59.2322,47.901 59.5,49.5C 58.0367,53.2078 56.37,56.8745 54.5,60.5C 52.1003,62.6943 49.4336,64.361 46.5,65.5C 41.0458,66.5077 35.7124,67.5077 30.5,68.5C 29.8333,68.5 29.5,68.8333 29.5,69.5C 28.7784,69.0825 28.2784,68.4158 28,67.5C 25.7095,70.0249 24.3762,73.0249 24,76.5C 22.1653,78.4494 20.9986,80.7827 20.5,83.5C 19.8165,83.8627 19.1499,84.1961 18.5,84.5C 22.9342,69.6188 30.4342,56.6188 41,45.5C 59.0548,26.9015 81.2215,16.5682 107.5,14.5 Z"/></g>
<g><path style="opacity:1" fill="#c99d5e" d="M 59.5,49.5 C 59.5,50.8333 59.5,52.1667 59.5,53.5C 58.8333,54.8333 58.1667,56.1667 57.5,57.5C 57.1667,58.1667 56.8333,58.8333 56.5,59.5C 55.8333,59.5 55.5,59.8333 55.5,60.5C 55.1667,60.5 54.8333,60.5 54.5,60.5C 56.37,56.8745 58.0367,53.2078 59.5,49.5 Z"/></g>
<g><path style="opacity:1" fill="#f8ca5c" d="M 60.5,45.5 C 60.5,46.5 60.5,47.5 60.5,48.5C 62.4835,48.3832 64.1502,49.0499 65.5,50.5C 68.2215,54.4032 70.5548,58.4032 72.5,62.5C 72.7709,64.3797 72.1042,65.713 70.5,66.5C 70.6567,65.1266 70.49,63.7932 70,62.5C 67.2214,58.5471 63.7214,55.5471 59.5,53.5C 59.5,52.1667 59.5,50.8333 59.5,49.5C 59.2322,47.901 59.5655,46.5676 60.5,45.5 Z"/></g>
<g><path style="opacity:1" fill="#c0c0c1" d="M 160.5,62.5 C 159.13,60.7496 158.13,58.7496 157.5,56.5C 156.962,54.8828 156.629,53.2161 156.5,51.5C 161.409,48.6047 166.075,45.2714 170.5,41.5C 171.984,45.3992 172.484,49.3992 172,53.5C 168.625,57.7824 164.792,60.7824 160.5,62.5 Z"/></g>
<g><path style="opacity:1" fill="#76bae0" d="M 118.5,25.5 C 118.334,29.8461 118.501,34.1794 119,38.5C 119.671,39.2524 120.504,39.5858 121.5,39.5C 117.398,43.0823 113.065,46.5823 108.5,50C 109.308,50.3076 109.975,50.8076 110.5,51.5C 109.965,53.2705 109.131,53.6039 108,52.5C 105,54.1667 102,55.8333 99,57.5C 98.5065,59.1341 98.3398,60.8008 98.5,62.5C 90.4295,66.3568 82.0962,69.5235 73.5,72C 71.5273,72.4955 69.5273,72.6621 67.5,72.5C 68.5294,70.4832 69.5294,68.4832 70.5,66.5C 72.1042,65.713 72.7709,64.3797 72.5,62.5C 73.3446,61.3285 74.0113,59.9952 74.5,58.5C 75.2685,56.3326 76.2685,54.166 77.5,52C 80.5711,50.7043 83.5711,49.5377 86.5,48.5C 87.8333,48.1667 89.1667,47.8333 90.5,47.5C 96.7802,45.6857 102.78,43.3524 108.5,40.5C 108.833,40.5 109.167,40.5 109.5,40.5C 110.959,40.5674 112.292,40.2341 113.5,39.5C 114.166,35.9792 114.833,32.3125 115.5,28.5C 116.735,27.6602 117.735,26.6602 118.5,25.5 Z"/></g>
<g><path style="opacity:1" fill="#e7a629" d="M 60.5,43.5 C 65.6154,45.426 70.1154,48.426 74,52.5C 74.4955,54.4727 74.6621,56.4727 74.5,58.5C 74.0113,59.9952 73.3446,61.3285 72.5,62.5C 70.5548,58.4032 68.2215,54.4032 65.5,50.5C 64.1502,49.0499 62.4835,48.3832 60.5,48.5C 60.5,47.5 60.5,46.5 60.5,45.5C 60.5,44.8333 60.5,44.1667 60.5,43.5 Z"/></g>
<g><path style="opacity:1" fill="#bb8f51" d="M 105.5,40.5 C 106.5,40.5 107.5,40.5 108.5,40.5C 102.78,43.3524 96.7802,45.6857 90.5,47.5C 90.8333,46.8333 91.1667,46.1667 91.5,45.5C 92.4916,45.6716 93.1583,45.3382 93.5,44.5C 95.099,44.7678 96.4324,44.4345 97.5,43.5C 99.403,43.2041 101.07,42.5375 102.5,41.5C 103.791,41.7373 104.791,41.404 105.5,40.5 Z"/></g>
<g><path style="opacity:1" fill="#cb7a16" d="M 84.5,31.5 C 82.4914,32.9079 80.4914,34.4079 78.5,36C 79.1487,39.8752 79.982,43.7085 81,47.5C 82.6995,48.4061 84.5328,48.7394 86.5,48.5C 83.5711,49.5377 80.5711,50.7043 77.5,52C 76.2685,54.166 75.2685,56.3326 74.5,58.5C 74.6621,56.4727 74.4955,54.4727 74,52.5C 70.1154,48.426 65.6154,45.426 60.5,43.5C 60.2865,41.8561 60.6198,40.3561 61.5,39C 69.1534,36.3932 76.8201,33.8932 84.5,31.5 Z"/></g>
<g><path style="opacity:1" fill="#3a94c5" d="M 169.5,30.5 C 174.224,32.5293 178.224,35.5293 181.5,39.5C 181.404,40.9338 180.404,42.2671 178.5,43.5C 179.833,44.8333 179.833,46.1667 178.5,47.5C 179.167,48.1667 179.833,48.8333 180.5,49.5C 180.154,50.6956 179.654,50.6956 179,49.5C 178.598,50.8721 178.098,52.2054 177.5,53.5C 178.363,54.7264 178.363,56.0597 177.5,57.5C 174.539,51.2604 172.206,44.927 170.5,38.5C 168.321,37.3228 165.987,36.3228 163.5,35.5C 162.602,33.3731 160.936,32.2065 158.5,32C 159.618,30.9264 160.618,29.7598 161.5,28.5C 162.439,30.0534 163.606,31.3867 165,32.5C 166.406,31.5862 167.906,30.9195 169.5,30.5 Z"/></g>
<g><path style="opacity:1" fill="#575753" d="M 154.5,34.5 C 159.313,35.4932 163.98,36.9932 168.5,39C 166.959,40.3712 165.625,41.8712 164.5,43.5C 161.357,45.2417 158.357,47.2417 155.5,49.5C 153.421,49.0293 151.421,48.3627 149.5,47.5C 149.825,42.5372 151.492,38.2039 154.5,34.5 Z"/></g>
<g><path style="opacity:1" fill="#8f8e8c" d="M 154.5,34.5 C 151.492,38.2039 149.825,42.5372 149.5,47.5C 147.064,47.2511 145.064,46.2511 143.5,44.5C 145.738,40.6972 147.404,36.6972 148.5,32.5C 150.786,32.595 152.786,33.2616 154.5,34.5 Z"/></g>
<g><path style="opacity:1" fill="#c5c7c7" d="M 149.5,31.5 C 154.224,32.6304 158.891,33.9637 163.5,35.5C 165.987,36.3228 168.321,37.3228 170.5,38.5C 169.115,40.8835 167.115,42.5501 164.5,43.5C 165.625,41.8712 166.959,40.3712 168.5,39C 163.98,36.9932 159.313,35.4932 154.5,34.5C 152.786,33.2616 150.786,32.595 148.5,32.5C 147.404,36.6972 145.738,40.6972 143.5,44.5C 145.064,46.2511 147.064,47.2511 149.5,47.5C 151.421,48.3627 153.421,49.0293 155.5,49.5C 155.5,49.8333 155.5,50.1667 155.5,50.5C 149.38,49.2373 143.38,47.5707 137.5,45.5C 135.5,44.5 133.5,43.5 131.5,42.5C 134.325,42.9193 136.491,41.9193 138,39.5C 138.65,36.2164 139.816,33.2164 141.5,30.5C 144.167,30.8333 146.833,31.1667 149.5,31.5 Z"/></g>
<g><path style="opacity:1" fill="#fdf2d6" d="M 96.5,28.5 C 96.8333,28.5 97.1667,28.5 97.5,28.5C 98.5,28.5 99.5,28.5 100.5,28.5C 100.748,32.9062 101.415,37.2396 102.5,41.5C 101.07,42.5375 99.403,43.2041 97.5,43.5C 96.8333,43.5 96.5,43.1667 96.5,42.5C 95.9759,37.7369 95.9759,33.0703 96.5,28.5 Z"/></g>
<g><path style="opacity:1" fill="#e89d04" d="M 84.5,31.5 C 85.1667,31.5 85.8333,31.5 86.5,31.5C 87.3292,35.486 88.1626,39.486 89,43.5C 89.7083,44.3805 90.5416,45.0472 91.5,45.5C 91.1667,46.1667 90.8333,46.8333 90.5,47.5C 89.1667,47.8333 87.8333,48.1667 86.5,48.5C 84.5328,48.7394 82.6995,48.4061 81,47.5C 79.982,43.7085 79.1487,39.8752 78.5,36C 80.4914,34.4079 82.4914,32.9079 84.5,31.5 Z"/></g>
<g><path style="opacity:1" fill="#fbe4a5" d="M 97.5,28.5 C 97.5,28.1667 97.5,27.8333 97.5,27.5C 98.8333,27.5 100.167,27.5 101.5,27.5C 103.991,31.3597 105.325,35.693 105.5,40.5C 104.791,41.404 103.791,41.7373 102.5,41.5C 101.415,37.2396 100.748,32.9062 100.5,28.5C 99.5,28.5 98.5,28.5 97.5,28.5 Z"/></g>
<g><path style="opacity:1" fill="#e8ab2b" d="M 104.5,26.5 C 106.223,25.193 108.057,25.193 110,26.5C 112.074,31.3934 111.908,36.0601 109.5,40.5C 109.167,40.5 108.833,40.5 108.5,40.5C 108.662,38.4727 108.495,36.4727 108,34.5C 107.251,31.4974 106.085,28.8307 104.5,26.5 Z"/></g>
<g><path style="opacity:1" fill="#eaeaea" d="M 134.5,26.5 C 138.223,27.2967 141.89,28.2967 145.5,29.5C 146.995,29.9887 148.329,30.6554 149.5,31.5C 146.833,31.1667 144.167,30.8333 141.5,30.5C 139.816,33.2164 138.65,36.2164 138,39.5C 136.491,41.9193 134.325,42.9193 131.5,42.5C 131.167,42.5 130.833,42.5 130.5,42.5C 129.517,41.1497 128.184,40.1497 126.5,39.5C 128.549,34.6623 131.216,30.329 134.5,26.5 Z"/></g>
<g><path style="opacity:1" fill="#fcd370" d="M 93.5,29.5 C 92.6764,34.2104 93.6764,38.5437 96.5,42.5C 96.5,43.1667 96.8333,43.5 97.5,43.5C 96.4324,44.4345 95.099,44.7678 93.5,44.5C 92.7547,39.773 91.7547,35.1064 90.5,30.5C 91.391,29.8902 92.391,29.5569 93.5,29.5 Z"/></g>
<g><path style="opacity:1" fill="#fccf5f" d="M 101.5,27.5 C 102.209,26.596 103.209,26.2627 104.5,26.5C 106.085,28.8307 107.251,31.4974 108,34.5C 108.495,36.4727 108.662,38.4727 108.5,40.5C 107.5,40.5 106.5,40.5 105.5,40.5C 105.325,35.693 103.991,31.3597 101.5,27.5 Z"/></g>
<g><path style="opacity:1" fill="#fce19d" d="M 96.5,28.5 C 95.9759,33.0703 95.9759,37.7369 96.5,42.5C 93.6764,38.5437 92.6764,34.2104 93.5,29.5C 94.391,28.8902 95.391,28.5569 96.5,28.5 Z"/></g>
<g><path style="opacity:1" fill="#fbc12e" d="M 90.5,30.5 C 91.7547,35.1064 92.7547,39.773 93.5,44.5C 93.1583,45.3382 92.4916,45.6716 91.5,45.5C 90.5416,45.0472 89.7083,44.3805 89,43.5C 88.1626,39.486 87.3292,35.486 86.5,31.5C 87.8333,31.1667 89.1667,30.8333 90.5,30.5 Z"/></g>
<g><path style="opacity:1" fill="#c2771c" d="M 113.5,39.5 C 112.292,40.2341 110.959,40.5674 109.5,40.5C 111.908,36.0601 112.074,31.3934 110,26.5C 108.057,25.193 106.223,25.193 104.5,26.5C 103.209,26.2627 102.209,26.596 101.5,27.5C 100.167,27.5 98.8333,27.5 97.5,27.5C 102.403,24.7293 107.736,23.0626 113.5,22.5C 113.5,28.1667 113.5,33.8333 113.5,39.5 Z"/></g>
<g><path style="opacity:1" fill="#60aad3" d="M 161.5,25.5 C 164.54,26.6803 167.206,28.347 169.5,30.5C 167.906,30.9195 166.406,31.5862 165,32.5C 163.606,31.3867 162.439,30.0534 161.5,28.5C 160.618,29.7598 159.618,30.9264 158.5,32C 160.936,32.2065 162.602,33.3731 163.5,35.5C 158.891,33.9637 154.224,32.6304 149.5,31.5C 148.329,30.6554 146.995,29.9887 145.5,29.5C 145.5,28.5 145.5,27.5 145.5,26.5C 147.527,26.6621 149.527,26.4955 151.5,26C 151.167,25.6667 150.833,25.3333 150.5,25C 153.981,22.8928 157.147,23.3928 160,26.5C 160.765,26.4301 161.265,26.0967 161.5,25.5 Z"/></g>
<g><path style="opacity:1" fill="#b48545" d="M 95.5,27.5 C 96.1667,27.5 96.8333,27.5 97.5,27.5C 97.5,27.8333 97.5,28.1667 97.5,28.5C 97.1667,28.5 96.8333,28.5 96.5,28.5C 95.391,28.5569 94.391,28.8902 93.5,29.5C 92.391,29.5569 91.391,29.8902 90.5,30.5C 89.1667,30.8333 87.8333,31.1667 86.5,31.5C 85.8333,31.5 85.1667,31.5 84.5,31.5C 87.9385,29.7957 91.6052,28.4624 95.5,27.5 Z"/></g>
<g><path style="opacity:1" fill="#bbbdbf" d="M 134.5,26.5 C 131.216,30.329 128.549,34.6623 126.5,39.5C 128.184,40.1497 129.517,41.1497 130.5,42.5C 127.426,41.6976 124.426,40.6976 121.5,39.5C 120.504,39.5858 119.671,39.2524 119,38.5C 118.501,34.1794 118.334,29.8461 118.5,25.5C 118.5,23.8333 118.5,22.1667 118.5,20.5C 124.129,21.929 129.463,23.929 134.5,26.5 Z"/></g>
<g><path style="opacity:1" fill="#8ec4e1" d="M 107.5,14.5 C 126.763,12.6253 144.763,16.292 161.5,25.5C 161.265,26.0967 160.765,26.4301 160,26.5C 157.147,23.3928 153.981,22.8928 150.5,25C 150.833,25.3333 151.167,25.6667 151.5,26C 149.527,26.4955 147.527,26.6621 145.5,26.5C 145.5,27.5 145.5,28.5 145.5,29.5C 141.89,28.2967 138.223,27.2967 134.5,26.5C 129.463,23.929 124.129,21.929 118.5,20.5C 118.5,22.1667 118.5,23.8333 118.5,25.5C 117.735,26.6602 116.735,27.6602 115.5,28.5C 114.833,32.3125 114.166,35.9792 113.5,39.5C 113.5,33.8333 113.5,28.1667 113.5,22.5C 107.736,23.0626 102.403,24.7293 97.5,27.5C 96.8333,27.5 96.1667,27.5 95.5,27.5C 95.281,26.325 95.6143,25.325 96.5,24.5C 99.1667,22.5 101.833,20.5 104.5,18.5C 107.681,20.067 111.015,19.7337 114.5,17.5C 111.893,16.6816 109.226,16.1816 106.5,16C 107.056,15.6174 107.389,15.1174 107.5,14.5 Z"/></g>
<g><path style="opacity:1" fill="#1b629c" d="M 134.5,225.5 C 133.167,225.833 131.833,226.167 130.5,226.5C 125.745,225.058 120.745,224.392 115.5,224.5C 106.967,225.777 98.6338,225.777 90.5,224.5C 87.5718,224.435 84.9052,223.768 82.5,222.5C 81.0243,220.77 81.3576,219.437 83.5,218.5C 84.6956,218.846 84.6956,219.346 83.5,220C 88.0287,220.679 92.5287,220.513 97,219.5C 101.486,220.608 105.986,221.608 110.5,222.5C 118.951,220.89 126.951,221.89 134.5,225.5 Z"/></g>
<g><path style="opacity:1" fill="#1a698e" d="M 130.5,226.5 C 116.914,228.17 103.58,227.503 90.5,224.5C 98.6338,225.777 106.967,225.777 115.5,224.5C 120.745,224.392 125.745,225.058 130.5,226.5 Z"/></g>
</svg>
