<?xml version="1.0" encoding="UTF-8"?>
<!DOCTYPE svg PUBLIC "-//W3C//DTD SVG 1.1//EN" "http://www.w3.org/Graphics/SVG/1.1/DTD/svg11.dtd">
<svg xmlns="http://www.w3.org/2000/svg" version="1.1" width="125px" height="125px" style="shape-rendering:geometricPrecision; text-rendering:geometricPrecision; image-rendering:optimizeQuality; fill-rule:evenodd; clip-rule:evenodd" xmlns:xlink="http://www.w3.org/1999/xlink">
<g><path style="opacity:0.888" fill="#f9fdfc" d="M 50.5,-0.5 C 58.1667,-0.5 65.8333,-0.5 73.5,-0.5C 100.833,6.16667 117.833,23.1667 124.5,50.5C 124.5,58.1667 124.5,65.8333 124.5,73.5C 117.833,100.833 100.833,117.833 73.5,124.5C 65.8333,124.5 58.1667,124.5 50.5,124.5C 23.1667,117.833 6.16667,100.833 -0.5,73.5C -0.5,65.8333 -0.5,58.1667 -0.5,50.5C 6.16667,23.1667 23.1667,6.16667 50.5,-0.5 Z"/></g>
<g><path style="opacity:1" fill="#79d9be" d="M 69.5,4.5 C 62.485,4.57816 55.485,4.91149 48.5,5.5C 52.5739,4.04557 56.9073,3.3789 61.5,3.5C 64.3555,3.50255 67.0221,3.83588 69.5,4.5 Z"/></g>
<g><path style="opacity:1" fill="#09b989" d="M 69.5,4.5 C 94.3927,8.55601 110.893,22.556 119,46.5C 124.607,83.4862 109.774,107.653 74.5,119C 65.9896,119.823 57.6563,119.657 49.5,118.5C 46.1996,116.358 42.533,115.025 38.5,114.5C 28.0644,110.237 19.8978,103.237 14,93.5C -2.51818,62.0897 2.98182,35.2563 30.5,13C 35.9444,9.10947 41.9444,6.60947 48.5,5.5C 55.485,4.91149 62.485,4.57816 69.5,4.5 Z"/></g>
<g><path style="opacity:1" fill="#fdfefe" d="M 33.5,32.5 C 52.8333,32.5 72.1667,32.5 91.5,32.5C 91.5,36.1667 91.5,39.8333 91.5,43.5C 83.9809,43.175 76.6476,43.5084 69.5,44.5C 69.5,48.8333 69.5,53.1667 69.5,57.5C 65.1667,57.5 60.8333,57.5 56.5,57.5C 56.5,53.1667 56.5,48.8333 56.5,44.5C 48.8333,44.5 41.1667,44.5 33.5,44.5C 33.5,40.5 33.5,36.5 33.5,32.5 Z"/></g>
<g><path style="opacity:1" fill="#ccf0e7" d="M 33.5,32.5 C 52.9929,31.5029 72.6596,31.1696 92.5,31.5C 92.5,35.8333 92.5,40.1667 92.5,44.5C 84.8333,44.5 77.1667,44.5 69.5,44.5C 76.6476,43.5084 83.9809,43.175 91.5,43.5C 91.5,39.8333 91.5,36.1667 91.5,32.5C 72.1667,32.5 52.8333,32.5 33.5,32.5 Z"/></g>
<g><path style="opacity:1" fill="#57d0b0" d="M 33.5,44.5 C 41.1667,44.5 48.8333,44.5 56.5,44.5C 56.5,48.8333 56.5,53.1667 56.5,57.5C 56.1667,57.5 55.8333,57.5 55.5,57.5C 55.5,53.5 55.5,49.5 55.5,45.5C 47.9809,45.825 40.6476,45.4916 33.5,44.5 Z"/></g>
<g><path style="opacity:1" fill="#94e1cd" d="M 55.5,57.5 C 55.8333,57.5 56.1667,57.5 56.5,57.5C 60.8333,57.5 65.1667,57.5 69.5,57.5C 74.0323,57.1818 78.3656,57.5151 82.5,58.5C 78.1667,58.5 73.8333,58.5 69.5,58.5C 65.1667,58.5 60.8333,58.5 56.5,58.5C 56.5,67.1667 56.5,75.8333 56.5,84.5C 51.8333,84.5 47.1667,84.5 42.5,84.5C 42.1736,75.6506 42.507,66.9839 43.5,58.5C 47.2984,57.5166 51.2984,57.1832 55.5,57.5 Z"/></g>
<g><path style="opacity:1" fill="#fefffe" d="M 43.5,58.5 C 47.5,58.5 51.5,58.5 55.5,58.5C 55.5,66.8333 55.5,75.1667 55.5,83.5C 51.5,83.5 47.5,83.5 43.5,83.5C 43.5,75.1667 43.5,66.8333 43.5,58.5 Z"/></g>
<g><path style="opacity:1" fill="#0cba8a" d="M 69.5,58.5 C 69.5,67.1667 69.5,75.8333 69.5,84.5C 65.1667,84.5 60.8333,84.5 56.5,84.5C 56.5,75.8333 56.5,67.1667 56.5,58.5C 60.8333,58.5 65.1667,58.5 69.5,58.5 Z"/></g>
<g><path style="opacity:1" fill="#fbfefd" d="M 69.5,58.5 C 73.8333,58.5 78.1667,58.5 82.5,58.5C 82.5,67.1667 82.5,75.8333 82.5,84.5C 78.1667,84.5 73.8333,84.5 69.5,84.5C 69.5,75.8333 69.5,67.1667 69.5,58.5 Z"/></g>
<g><path style="opacity:1" fill="#fefffe" d="M 56.5,85.5 C 60.5,85.5 64.5,85.5 68.5,85.5C 68.5,89.1667 68.5,92.8333 68.5,96.5C 64.5,96.5 60.5,96.5 56.5,96.5C 56.5,92.8333 56.5,89.1667 56.5,85.5 Z"/></g>
<g><path style="opacity:1" fill="#cbf0e6" d="M 56.5,85.5 C 56.5,85.1667 56.5,84.8333 56.5,84.5C 60.8333,84.5 65.1667,84.5 69.5,84.5C 69.5,88.8333 69.5,93.1667 69.5,97.5C 64.9677,97.8182 60.6344,97.4849 56.5,96.5C 60.5,96.5 64.5,96.5 68.5,96.5C 68.5,92.8333 68.5,89.1667 68.5,85.5C 64.5,85.5 60.5,85.5 56.5,85.5 Z"/></g>
<g><path style="opacity:1" fill="#6ad3b4" d="M 38.5,114.5 C 42.533,115.025 46.1996,116.358 49.5,118.5C 45.467,117.975 41.8004,116.642 38.5,114.5 Z"/></g>
</svg>
