<?xml version="1.0" encoding="UTF-8"?>
<!DOCTYPE svg PUBLIC "-//W3C//DTD SVG 1.1//EN" "http://www.w3.org/Graphics/SVG/1.1/DTD/svg11.dtd">
<svg xmlns="http://www.w3.org/2000/svg" version="1.1" width="425px" height="425px" style="shape-rendering:geometricPrecision; text-rendering:geometricPrecision; image-rendering:optimizeQuality; fill-rule:evenodd; clip-rule:evenodd" xmlns:xlink="http://www.w3.org/1999/xlink">
<g><path style="opacity:1" fill="#728996" d="M 265.5,20.5 C 284.113,25.8077 301.446,33.8077 317.5,44.5C 316.167,44.5 314.833,44.5 313.5,44.5C 260.109,14.0308 204.109,8.36409 145.5,27.5C 142.794,27.5751 140.127,27.9084 137.5,28.5C 141.263,25.952 145.263,23.952 149.5,22.5C 187.976,11.2381 226.643,10.5715 265.5,20.5 Z"/></g>
<g><path style="opacity:0.986" fill="#d3e4e8" d="M 308.5,26.5 C 308.539,27.5832 308.873,28.5832 309.5,29.5C 309,29.8333 308.5,30.1667 308,30.5C 300.675,26.2576 292.842,23.2576 284.5,21.5C 280.72,25.2806 276.886,24.614 273,19.5C 270.566,20.3223 268.066,20.6556 265.5,20.5C 226.643,10.5715 187.976,11.2381 149.5,22.5C 146.08,22.9262 143.247,21.9262 141,19.5C 129.885,23.4318 119.052,28.0985 108.5,33.5C 107.479,32.9984 107.312,32.3317 108,31.5C 110.521,31.0005 112.354,29.6672 113.5,27.5C 159.52,2.67484 208.186,-3.82516 259.5,8C 276.634,12.0994 292.967,18.2661 308.5,26.5 Z"/></g>
<g><path style="opacity:1" fill="#020101" d="M 263.5,28.5 C 328.686,49.352 372.019,92.352 393.5,157.5C 393.656,163.8 394.823,170.133 397,176.5C 398.683,197.922 398.85,219.256 397.5,240.5C 396.5,240.5 395.5,240.5 394.5,240.5C 394.216,247.321 393.049,253.988 391,260.5C 387.285,268.959 384.118,277.626 381.5,286.5C 377.41,292.013 374.41,298.013 372.5,304.5C 372.165,307.09 370.665,309.423 368,311.5C 364.213,317.948 360.047,324.115 355.5,330C 351.707,331.75 348.374,334.083 345.5,337C 333.282,350.526 318.949,361.526 302.5,370C 301.663,371.011 301.33,372.178 301.5,373.5C 289.618,377.441 277.951,381.941 266.5,387C 251.545,389.577 236.545,391.577 221.5,393C 181.71,395.502 145.377,385.835 112.5,364C 110.787,362.622 109.453,360.955 108.5,359C 107.167,358.667 105.833,358.333 104.5,358C 92.2647,347.759 80.7647,336.926 70,325.5C 68.0784,321.337 65.4118,317.67 62,314.5C 59.4433,310.055 57.4433,305.389 56,300.5C 53.8863,297.907 52.053,295.24 50.5,292.5C 48.7148,286.929 46.3815,281.596 43.5,276.5C 28.364,236.026 26.364,195.026 37.5,153.5C 37.432,149.457 36.932,146.124 36,143.5C 36.3333,143.833 36.6667,144.167 37,144.5C 37.2895,142.048 37.9562,139.715 39,137.5C 39.6667,136.167 40.3333,136.167 41,137.5C 42.0968,133.377 43.9301,129.71 46.5,126.5C 45.6518,124.591 45.3184,122.591 45.5,120.5C 49.3506,112.649 54.0172,105.316 59.5,98.5C 60.5,98.1667 61.1667,97.5 61.5,96.5C 79.2106,74.4558 100.544,56.7892 125.5,43.5C 169.658,21.5195 215.658,16.5195 263.5,28.5 Z"/></g>
<g><path style="opacity:1" fill="#566c7b" d="M 145.5,27.5 C 124.851,35.322 105.851,45.9886 88.5,59.5C 87.5084,59.6716 86.8417,59.3382 86.5,58.5C 90.9525,53.779 95.9525,49.779 101.5,46.5C 111.691,39.9026 122.357,34.0693 133.5,29C 134.793,28.51 136.127,28.3433 137.5,28.5C 140.127,27.9084 142.794,27.5751 145.5,27.5 Z"/></g>
<g><path style="opacity:1" fill="#b4cfd9" d="M 308.5,26.5 C 318.549,31.5163 327.883,37.5163 336.5,44.5C 337.945,46.133 339.279,47.9663 340.5,50C 338.744,50.1405 337.078,49.6405 335.5,48.5C 334.914,48.7093 334.414,49.0426 334,49.5C 333.3,47.968 332.134,46.968 330.5,46.5C 328.899,47.1654 327.399,47.4988 326,47.5C 323.806,45.8222 321.306,44.8222 318.5,44.5C 318.167,44.5 317.833,44.5 317.5,44.5C 301.446,33.8077 284.113,25.8077 265.5,20.5C 268.066,20.6556 270.566,20.3223 273,19.5C 276.886,24.614 280.72,25.2806 284.5,21.5C 292.842,23.2576 300.675,26.2576 308,30.5C 308.5,30.1667 309,29.8333 309.5,29.5C 308.873,28.5832 308.539,27.5832 308.5,26.5 Z"/></g>
<g><path style="opacity:1" fill="#08101c" d="M 313.5,44.5 C 335.057,58.7238 353.724,76.0571 369.5,96.5C 387.036,120.09 398.369,146.424 403.5,175.5C 402.85,175.804 402.183,176.137 401.5,176.5C 400.601,171.179 399.768,165.846 399,160.5C 394.049,149.713 389.549,138.713 385.5,127.5C 384.675,126.614 383.675,126.281 382.5,126.5C 379.559,118.026 375.059,110.36 369,103.5C 367.881,99.9295 366.215,96.5961 364,93.5C 342.965,68.211 317.465,48.5443 287.5,34.5C 280.578,31.8691 273.578,29.5357 266.5,27.5C 238.777,19.4358 210.444,17.2692 181.5,21C 161.391,24.9252 142.391,31.4252 124.5,40.5C 100.549,53.033 79.8826,69.6997 62.5,90.5C 61.8659,92.5668 60.8659,94.4002 59.5,96C 60.0944,96.4643 60.7611,96.631 61.5,96.5C 61.1667,97.5 60.5,98.1667 59.5,98.5C 59.44,97.9569 59.1067,97.6236 58.5,97.5C 54.5359,100.861 51.0359,104.528 48,108.5C 44.7587,115.989 40.7587,122.989 36,129.5C 33.6115,137.696 30.2781,145.362 26,152.5C 25.5172,151.552 25.3505,150.552 25.5,149.5C 30.2297,135.375 36.563,122.042 44.5,109.5C 56.6772,90.6552 71.3439,73.9886 88.5,59.5C 105.851,45.9886 124.851,35.322 145.5,27.5C 204.109,8.36409 260.109,14.0308 313.5,44.5 Z"/></g>
<g><path style="opacity:1" fill="#343d46" d="M 266.5,27.5 C 265.791,28.404 264.791,28.7373 263.5,28.5C 215.658,16.5195 169.658,21.5195 125.5,43.5C 123.204,43.1959 122.871,42.1959 124.5,40.5C 142.391,31.4252 161.391,24.9252 181.5,21C 210.444,17.2692 238.777,19.4358 266.5,27.5 Z"/></g>
<g><path style="opacity:1" fill="#a4c1cb" d="M 149.5,22.5 C 145.263,23.952 141.263,25.952 137.5,28.5C 136.127,28.3433 134.793,28.51 133.5,29C 122.357,34.0693 111.691,39.9026 101.5,46.5C 98.7284,47.3715 96.0618,47.3715 93.5,46.5C 93.9354,49.6127 92.9354,50.2793 90.5,48.5C 88.7284,49.3599 87.3951,50.6932 86.5,52.5C 85.914,52.2907 85.414,51.9574 85,51.5C 73.1251,59.0374 62.7917,68.3707 54,79.5C 53.6258,78.5838 53.1258,77.7504 52.5,77C 54.1412,75.871 55.1412,74.371 55.5,72.5C 71.9695,53.6839 91.3028,38.6839 113.5,27.5C 112.354,29.6672 110.521,31.0005 108,31.5C 107.312,32.3317 107.479,32.9984 108.5,33.5C 119.052,28.0985 129.885,23.4318 141,19.5C 143.247,21.9262 146.08,22.9262 149.5,22.5 Z"/></g>
<g><path style="opacity:1" fill="#272c37" d="M 124.5,40.5 C 122.871,42.1959 123.204,43.1959 125.5,43.5C 100.544,56.7892 79.2106,74.4558 61.5,96.5C 60.7611,96.631 60.0944,96.4643 59.5,96C 60.8659,94.4002 61.8659,92.5668 62.5,90.5C 79.8826,69.6997 100.549,53.033 124.5,40.5 Z"/></g>
<g><path style="opacity:1" fill="#8aabba" d="M 318.5,44.5 C 321.306,44.8222 323.806,45.8222 326,47.5C 327.399,47.4988 328.899,47.1654 330.5,46.5C 332.134,46.968 333.3,47.968 334,49.5C 334.414,49.0426 334.914,48.7093 335.5,48.5C 337.078,49.6405 338.744,50.1405 340.5,50C 339.279,47.9663 337.945,46.133 336.5,44.5C 339.473,46.1468 342.14,48.1468 344.5,50.5C 341.688,49.1128 340.855,50.1128 342,53.5C 345.667,56.0012 348.834,59.0012 351.5,62.5C 349.521,64.1675 347.188,64.8342 344.5,64.5C 336.161,57.5055 327.495,50.8388 318.5,44.5 Z"/></g>
<g><path style="opacity:1" fill="#acc4d1" d="M 344.5,50.5 C 354.5,58.5 363.5,67.5 371.5,77.5C 372.366,79.144 372.866,80.8107 373,82.5C 369,81.1667 366.333,78.5 365,74.5C 360.866,69.8879 356.366,65.8879 351.5,62.5C 348.834,59.0012 345.667,56.0012 342,53.5C 340.855,50.1128 341.688,49.1128 344.5,50.5 Z"/></g>
<g><path style="opacity:1" fill="#636469" d="M 179.5,68.5 C 179.38,67.4138 178.713,66.7472 177.5,66.5C 175.149,67.1734 172.816,67.8401 170.5,68.5C 171.058,67.2101 172.058,66.3768 173.5,66C 176.478,65.304 179.478,64.804 182.5,64.5C 182.532,66.6188 181.532,67.9522 179.5,68.5 Z"/></g>
<g><path style="opacity:1" fill="#808188" d="M 289.5,78.5 C 280.319,75.1067 270.986,72.1067 261.5,69.5C 261.167,69.6667 260.833,69.8333 260.5,70C 263.428,72.09 265.761,74.59 267.5,77.5C 262.882,75.1852 258.549,72.3518 254.5,69C 252.963,67.8904 252.297,66.3904 252.5,64.5C 256.127,65.4293 259.793,66.2627 263.5,67C 268.182,69.5659 273.182,71.5659 278.5,73C 282.507,74.3366 286.173,76.1699 289.5,78.5 Z"/></g>
<g><path style="opacity:1" fill="#6e8f9d" d="M 101.5,46.5 C 95.9525,49.779 90.9525,53.779 86.5,58.5C 80.1514,63.5196 74.1514,68.8529 68.5,74.5C 65.7374,74.7438 63.5707,76.0771 62,78.5C 61.6924,77.6919 61.1924,77.0253 60.5,76.5C 58.4121,78.3921 56.0787,79.8921 53.5,81C 48.7879,86.0434 44.4546,91.3767 40.5,97C 39.5165,97.5908 38.8499,97.2575 38.5,96C 38.9891,94.8615 39.3225,93.6948 39.5,92.5C 44.3636,85.429 49.6969,78.7624 55.5,72.5C 55.1412,74.371 54.1412,75.871 52.5,77C 53.1258,77.7504 53.6258,78.5838 54,79.5C 62.7917,68.3707 73.1251,59.0374 85,51.5C 85.414,51.9574 85.914,52.2907 86.5,52.5C 87.3951,50.6932 88.7284,49.3599 90.5,48.5C 92.9354,50.2793 93.9354,49.6127 93.5,46.5C 96.0618,47.3715 98.7284,47.3715 101.5,46.5 Z"/></g>
<g><path style="opacity:1" fill="#4b4d51" d="M 178.5,69.5 C 174.87,73.3964 170.536,76.3964 165.5,78.5C 169.001,74.3375 173.335,71.3375 178.5,69.5 Z"/></g>
<g><path style="opacity:1" fill="#54585c" d="M 165.5,78.5 C 161.413,82.9225 156.746,86.5892 151.5,89.5C 155.587,85.0775 160.254,81.4108 165.5,78.5 Z"/></g>
<g><path style="opacity:1" fill="#3a4e5d" d="M 313.5,44.5 C 314.833,44.5 316.167,44.5 317.5,44.5C 317.833,44.5 318.167,44.5 318.5,44.5C 327.495,50.8388 336.161,57.5055 344.5,64.5C 354.922,74.2529 364.256,84.9195 372.5,96.5C 371.5,96.5 370.5,96.5 369.5,96.5C 353.724,76.0571 335.057,58.7238 313.5,44.5 Z"/></g>
<g><path style="opacity:1" fill="#a8acb6" d="M 179.5,68.5 C 178.833,68.5 178.5,68.8333 178.5,69.5C 173.335,71.3375 169.001,74.3375 165.5,78.5C 160.254,81.4108 155.587,85.0775 151.5,89.5C 146.555,92.4453 141.888,95.7786 137.5,99.5C 138.167,97.8333 138.833,96.1667 139.5,94.5C 140.552,94.6495 141.552,94.4828 142.5,94C 140.023,92.3573 137.69,90.524 135.5,88.5C 131.747,95.1202 131.08,94.9536 133.5,88C 135.657,87.9219 137.657,87.7552 139.5,87.5C 137.235,86.3526 134.902,86.1859 132.5,87C 131.88,89.2123 130.713,91.0456 129,92.5C 127.437,91.8979 127.604,91.0646 129.5,90C 127.095,89.8516 124.761,90.3516 122.5,91.5C 119.804,89.5602 118.471,90.2268 118.5,93.5C 117.448,93.3505 116.448,93.5172 115.5,94C 115.833,94.3333 116.167,94.6667 116.5,95C 115.109,96.02 113.609,96.8534 112,97.5C 111.667,96.8333 111.333,96.1667 111,95.5C 107.937,98.0755 104.771,100.409 101.5,102.5C 105.627,97.2051 110.294,92.3718 115.5,88C 118.833,88 122.167,88 125.5,88C 134.065,82.5503 143.065,77.8836 152.5,74C 158.361,71.5978 164.361,69.7645 170.5,68.5C 172.816,67.8401 175.149,67.1734 177.5,66.5C 178.713,66.7472 179.38,67.4138 179.5,68.5 Z"/></g>
<g><path style="opacity:1" fill="#81838a" d="M 306.5,87.5 C 310.462,88.2775 314.462,88.4441 318.5,88C 320.706,90.0367 322.706,92.2034 324.5,94.5C 321.884,93.5202 319.551,92.0202 317.5,90C 314.514,90.1276 311.514,90.1276 308.5,90C 307.619,89.2917 306.953,88.4584 306.5,87.5 Z"/></g>
<g><path style="opacity:1" fill="#fac405" d="M 259.5,104.5 C 263.056,102.06 266.723,102.06 270.5,104.5C 271.659,106.25 273.326,107.25 275.5,107.5C 278.93,112.146 283.43,115.48 289,117.5C 289.582,120.011 288.749,122.011 286.5,123.5C 285.548,125.045 285.215,126.712 285.5,128.5C 285.573,130.027 284.906,131.027 283.5,131.5C 281.441,133.558 279.774,135.891 278.5,138.5C 280.517,143.027 283.517,146.861 287.5,150C 292.392,151.252 296.392,150.085 299.5,146.5C 301.62,145.101 303.62,143.435 305.5,141.5C 307.896,139.788 310.562,139.288 313.5,140C 315.066,142.326 316.732,144.492 318.5,146.5C 318.502,150.165 319.835,153.165 322.5,155.5C 323.674,156.514 324.34,157.847 324.5,159.5C 326.178,162.552 326.845,165.885 326.5,169.5C 325.448,169.351 324.448,169.517 323.5,170C 321.237,171.617 319.237,173.45 317.5,175.5C 315.847,175.66 314.514,176.326 313.5,177.5C 306.897,178.351 304.73,182.018 307,188.5C 307.757,190.315 308.59,191.981 309.5,193.5C 309.414,194.496 309.748,195.329 310.5,196C 318.827,196.5 327.16,196.666 335.5,196.5C 335.833,197.167 336.167,197.833 336.5,198.5C 336.666,208.839 336.5,219.172 336,229.5C 327.578,230.318 319.078,230.818 310.5,231C 309.186,235.307 307.852,239.64 306.5,244C 306.528,245.07 306.861,245.903 307.5,246.5C 308.687,248.975 310.687,249.975 313.5,249.5C 315.651,252.415 318.651,254.082 322.5,254.5C 322.973,255.906 323.973,256.573 325.5,256.5C 326.818,260.274 326.485,263.941 324.5,267.5C 322.631,270.578 321.298,273.911 320.5,277.5C 319.094,277.973 318.427,278.973 318.5,280.5C 316.381,281.791 314.715,283.625 313.5,286C 310.266,286.641 307.6,285.641 305.5,283C 304.207,282.51 302.873,282.343 301.5,282.5C 298.486,281.307 295.819,279.474 293.5,277C 291.833,276.333 290.167,276.333 288.5,277C 286.345,280.051 283.845,282.885 281,285.5C 280.235,287.066 280.402,288.399 281.5,289.5C 281.5,290.167 281.5,290.833 281.5,291.5C 283.614,294.939 285.281,298.606 286.5,302.5C 286.938,304.126 287.272,305.793 287.5,307.5C 286.522,309.777 285.855,312.11 285.5,314.5C 284.833,314.5 284.167,314.5 283.5,314.5C 278.25,316.779 273.584,319.779 269.5,323.5C 267.104,325.212 264.438,325.712 261.5,325C 259.859,323.871 258.859,322.371 258.5,320.5C 256.751,315.17 254.084,310.336 250.5,306C 245.18,306.596 239.847,307.596 234.5,309C 233.518,316.747 233.185,324.58 233.5,332.5C 233.389,333.117 233.056,333.617 232.5,334C 222.172,334.5 211.839,334.666 201.5,334.5C 201.5,333.833 201.5,333.167 201.5,332.5C 201.831,324.472 201.498,316.472 200.5,308.5C 196.313,306.935 191.98,306.268 187.5,306.5C 183.834,304.786 181.834,306.12 181.5,310.5C 178.863,312.482 177.53,315.148 177.5,318.5C 176.326,319.514 175.66,320.847 175.5,322.5C 172.752,325.629 169.418,326.296 165.5,324.5C 164.833,323.833 164.167,323.167 163.5,322.5C 158.672,318.919 153.672,315.585 148.5,312.5C 146.841,309.118 147.341,306.118 150,303.5C 151.003,297.839 152.836,292.505 155.5,287.5C 152.929,283.31 150.262,279.143 147.5,275C 146.5,274.833 145.5,274.667 144.5,274.5C 139.362,275.804 135.028,278.304 131.5,282C 127.694,283.617 123.694,284.45 119.5,284.5C 117.961,278.862 114.961,274.195 110.5,270.5C 110.152,268.287 109.319,266.287 108,264.5C 107.503,262.19 107.337,259.857 107.5,257.5C 108.167,256.833 108.833,256.167 109.5,255.5C 114.223,255.307 117.89,253.307 120.5,249.5C 127.029,249.728 129.196,246.728 127,240.5C 126.392,238.934 125.558,237.6 124.5,236.5C 124.5,236.167 124.5,235.833 124.5,235.5C 124.768,233.901 124.434,232.568 123.5,231.5C 123.5,231.167 123.5,230.833 123.5,230.5C 115.987,228.823 108.154,227.823 100,227.5C 99.3333,218.167 99.3333,208.833 100,199.5C 107.421,198.684 114.921,198.184 122.5,198C 125.035,197.072 126.035,195.238 125.5,192.5C 126.813,188.924 127.313,185.258 127,181.5C 125.814,179.323 123.981,178.323 121.5,178.5C 119.58,177.935 117.913,176.935 116.5,175.5C 114.88,173.016 112.547,171.516 109.5,171C 107.019,167.454 107.019,163.787 109.5,160C 111.878,156.074 114.378,152.241 117,148.5C 117.49,147.207 117.657,145.873 117.5,144.5C 118.837,143.685 119.837,142.518 120.5,141C 122.134,140.506 123.801,140.34 125.5,140.5C 127.674,140.75 129.341,141.75 130.5,143.5C 130.953,144.458 131.619,145.292 132.5,146C 135.562,147.205 138.562,148.372 141.5,149.5C 143.03,151.847 145.03,152.014 147.5,150C 150.372,147.463 152.872,144.63 155,141.5C 155.667,139.833 155.667,138.167 155,136.5C 152.656,132.813 151.156,128.813 150.5,124.5C 147.23,124.321 145.563,122.488 145.5,119C 146.315,117.357 147.315,115.857 148.5,114.5C 154.867,110.205 161.534,106.371 168.5,103C 169.833,102.333 171.167,102.333 172.5,103C 173.373,104.045 174.373,104.878 175.5,105.5C 177.154,111.146 179.654,116.479 183,121.5C 184.616,122.801 186.116,122.801 187.5,121.5C 191.98,120.302 196.313,118.969 200.5,117.5C 201.329,110.345 201.829,103.011 202,95.5C 202.5,95 203,94.5 203.5,94C 213.214,93.1927 222.881,93.3594 232.5,94.5C 233.332,102.479 233.832,110.479 234,118.5C 238.982,119.833 243.982,121.167 249,122.5C 252.783,118.313 256.116,113.646 259,108.5C 259.49,107.207 259.657,105.873 259.5,104.5 Z"/></g>
<g><path style="opacity:1" fill="#b3b7c2" d="M 137.5,99.5 C 136.645,100.531 135.978,101.697 135.5,103C 135.57,103.765 135.903,104.265 136.5,104.5C 136.203,108.326 134.37,111.326 131,113.5C 130.275,115.157 130.775,116.157 132.5,116.5C 132.833,117.167 133.167,117.833 133.5,118.5C 138.497,124.33 143.997,129.663 150,134.5C 150.791,135.745 151.291,137.078 151.5,138.5C 149.216,140.89 147.55,143.724 146.5,147C 143.562,147.712 140.896,147.212 138.5,145.5C 138.167,145.5 137.833,145.5 137.5,145.5C 131.79,138.789 125.457,132.789 118.5,127.5C 116.444,128.048 114.777,129.214 113.5,131C 111.144,131.155 108.811,131.155 106.5,131C 102.759,135.844 99.0926,140.677 95.5,145.5C 91.4631,149.215 88.1297,153.548 85.5,158.5C 84.5,159.167 83.5,159.833 82.5,160.5C 81.4324,159.566 80.099,159.232 78.5,159.5C 79.609,156.267 80.4424,152.934 81,149.5C 82.23,145.429 84.23,141.763 87,138.5C 87.4396,136.134 87.9396,133.801 88.5,131.5C 88.2291,129.62 88.8958,128.287 90.5,127.5C 92.8603,125.287 94.6937,122.621 96,119.5C 95.6667,116.5 95.3333,113.5 95,110.5C 97.7821,108.229 99.9488,105.563 101.5,102.5C 104.771,100.409 107.937,98.0755 111,95.5C 111.333,96.1667 111.667,96.8333 112,97.5C 113.609,96.8534 115.109,96.02 116.5,95C 116.167,94.6667 115.833,94.3333 115.5,94C 116.448,93.5172 117.448,93.3505 118.5,93.5C 118.471,90.2268 119.804,89.5602 122.5,91.5C 124.761,90.3516 127.095,89.8516 129.5,90C 127.604,91.0646 127.437,91.8979 129,92.5C 130.713,91.0456 131.88,89.2123 132.5,87C 134.902,86.1859 137.235,86.3526 139.5,87.5C 137.657,87.7552 135.657,87.9219 133.5,88C 131.08,94.9536 131.747,95.1202 135.5,88.5C 137.69,90.524 140.023,92.3573 142.5,94C 141.552,94.4828 140.552,94.6495 139.5,94.5C 138.833,96.1667 138.167,97.8333 137.5,99.5 Z"/></g>
<g><path style="opacity:1" fill="#6c5405" d="M 232.5,92.5 C 222.494,92.3335 212.494,92.5002 202.5,93C 202,93.5 201.5,94 201,94.5C 200.5,102.159 200.334,109.826 200.5,117.5C 196.313,118.969 191.98,120.302 187.5,121.5C 187.611,120.883 187.944,120.383 188.5,120C 192.07,118.69 195.737,117.857 199.5,117.5C 199.334,109.493 199.5,101.493 200,93.5C 200.5,93 201,92.5 201.5,92C 212.008,91.1748 222.342,91.3415 232.5,92.5 Z"/></g>
<g><path style="opacity:1" fill="#4f5257" d="M 151.5,89.5 C 147.361,93.468 143.027,97.3013 138.5,101C 137.177,101.816 136.511,102.983 136.5,104.5C 135.903,104.265 135.57,103.765 135.5,103C 135.978,101.697 136.645,100.531 137.5,99.5C 141.888,95.7786 146.555,92.4453 151.5,89.5 Z"/></g>
<g><path style="opacity:1" fill="#7d6611" d="M 175.5,105.5 C 174.373,104.878 173.373,104.045 172.5,103C 171.167,102.333 169.833,102.333 168.5,103C 161.534,106.371 154.867,110.205 148.5,114.5C 146.983,114.511 145.816,115.177 145,116.5C 144.444,118.885 144.61,121.218 145.5,123.5C 141.599,120.374 141.599,117.208 145.5,114C 152.833,109.667 160.167,105.333 167.5,101C 171.745,99.7522 174.412,101.252 175.5,105.5 Z"/></g>
<g><path style="opacity:1" fill="#2e4150" d="M 86.5,58.5 C 86.8417,59.3382 87.5084,59.6716 88.5,59.5C 71.3439,73.9886 56.6772,90.6552 44.5,109.5C 43.1667,110.167 41.8333,110.833 40.5,111.5C 43.7516,106.666 46.7516,101.666 49.5,96.5C 55.0566,88.6018 61.3899,81.2685 68.5,74.5C 74.1514,68.8529 80.1514,63.5196 86.5,58.5 Z"/></g>
<g><path style="opacity:1" fill="#67540e" d="M 270.5,104.5 C 266.723,102.06 263.056,102.06 259.5,104.5C 261.316,100.225 264.316,99.3921 268.5,102C 269.381,102.708 270.047,103.542 270.5,104.5 Z"/></g>
<g><path style="opacity:1" fill="#745c07" d="M 270.5,104.5 C 272.848,104.592 274.514,105.592 275.5,107.5C 273.326,107.25 271.659,106.25 270.5,104.5 Z"/></g>
<g><path style="opacity:0.996" fill="#6a8896" d="M 351.5,62.5 C 356.366,65.8879 360.866,69.8879 365,74.5C 366.333,78.5 369,81.1667 373,82.5C 372.866,80.8107 372.366,79.144 371.5,77.5C 382.113,88.7892 390.779,101.456 397.5,115.5C 397.631,116.239 397.464,116.906 397,117.5C 395.39,117.87 393.89,117.203 392.5,115.5C 389.667,110.5 386.833,105.5 384,100.5C 381.712,100.737 379.212,100.737 376.5,100.5C 374.806,99.4726 373.473,98.1392 372.5,96.5C 364.256,84.9195 354.922,74.2529 344.5,64.5C 347.188,64.8342 349.521,64.1675 351.5,62.5 Z"/></g>
<g><path style="opacity:1" fill="#587483" d="M 68.5,74.5 C 61.3899,81.2685 55.0566,88.6018 49.5,96.5C 44.1436,96.2494 39.977,98.2494 37,102.5C 31.1089,111.821 25.7755,121.488 21,131.5C 21.0833,128.881 21.25,126.214 21.5,123.5C 26.2411,112.34 32.2411,102.006 39.5,92.5C 39.3225,93.6948 38.9891,94.8615 38.5,96C 38.8499,97.2575 39.5165,97.5908 40.5,97C 44.4546,91.3767 48.7879,86.0434 53.5,81C 56.0787,79.8921 58.4121,78.3921 60.5,76.5C 61.1924,77.0253 61.6924,77.6919 62,78.5C 63.5707,76.0771 65.7374,74.7438 68.5,74.5 Z"/></g>
<g><path style="opacity:1" fill="#8a6e0e" d="M 175.5,105.5 C 178.726,110.271 181.726,115.271 184.5,120.5C 185.325,121.386 186.325,121.719 187.5,121.5C 186.116,122.801 184.616,122.801 183,121.5C 179.654,116.479 177.154,111.146 175.5,105.5 Z"/></g>
<g><path style="opacity:1" fill="#4a4c51" d="M 136.5,104.5 C 137.613,105.946 137.78,107.613 137,109.5C 134.418,111.228 132.918,113.561 132.5,116.5C 130.775,116.157 130.275,115.157 131,113.5C 134.37,111.326 136.203,108.326 136.5,104.5 Z"/></g>
<g><path style="opacity:1" fill="#75787e" d="M 101.5,102.5 C 99.9488,105.563 97.7821,108.229 95,110.5C 95.3333,113.5 95.6667,116.5 96,119.5C 94.6937,122.621 92.8603,125.287 90.5,127.5C 90.3433,126.127 90.51,124.793 91,123.5C 94.8084,120.442 95.3084,116.942 92.5,113C 94.5648,108.763 97.5648,105.263 101.5,102.5 Z"/></g>
<g><path style="opacity:1" fill="#9c7d11" d="M 232.5,92.5 C 233.117,92.6107 233.617,92.944 234,93.5C 234.333,101.5 234.667,109.5 235,117.5C 239.996,119.189 245.163,120.189 250.5,120.5C 252.471,114.554 255.471,109.221 259.5,104.5C 259.657,105.873 259.49,107.207 259,108.5C 256.116,113.646 252.783,118.313 249,122.5C 243.982,121.167 238.982,119.833 234,118.5C 233.832,110.479 233.332,102.479 232.5,94.5C 222.881,93.3594 213.214,93.1927 203.5,94C 203,94.5 202.5,95 202,95.5C 201.829,103.011 201.329,110.345 200.5,117.5C 200.334,109.826 200.5,102.159 201,94.5C 201.5,94 202,93.5 202.5,93C 212.494,92.5002 222.494,92.3335 232.5,92.5 Z"/></g>
<g><path style="opacity:1" fill="#bf9b17" d="M 275.5,107.5 C 281.021,109.845 286.188,112.845 291,116.5C 291.667,117.833 291.667,119.167 291,120.5C 288.897,123.059 287.064,125.726 285.5,128.5C 285.215,126.712 285.548,125.045 286.5,123.5C 288.749,122.011 289.582,120.011 289,117.5C 283.43,115.48 278.93,112.146 275.5,107.5 Z"/></g>
<g><path style="opacity:1" fill="#395160" d="M 49.5,96.5 C 46.7516,101.666 43.7516,106.666 40.5,111.5C 34.0787,120.343 29.2453,130.009 26,140.5C 24.9207,142.394 23.5874,142.727 22,141.5C 22.0773,142.738 21.9106,143.738 21.5,144.5C 20.8076,143.975 20.3076,143.308 20,142.5C 18.8904,144.037 17.3904,144.703 15.5,144.5C 14.8769,149.675 13.0435,154.342 10,158.5C 9.50999,157.207 9.34332,155.873 9.5,154.5C 12.1483,143.554 16.1483,133.221 21.5,123.5C 21.25,126.214 21.0833,128.881 21,131.5C 25.7755,121.488 31.1089,111.821 37,102.5C 39.977,98.2494 44.1436,96.2494 49.5,96.5 Z"/></g>
<g><path style="opacity:1" fill="#6d6f69" d="M 301.5,112.5 C 302.649,112.791 303.316,113.624 303.5,115C 303.333,115.833 303.167,116.667 303,117.5C 295.911,124.757 288.745,131.757 281.5,138.5C 281.427,136.973 282.094,135.973 283.5,135.5C 289.436,129.062 295.603,122.729 302,116.5C 302.579,115.072 302.412,113.738 301.5,112.5 Z"/></g>
<g><path style="opacity:1" fill="#5a5b61" d="M 341.5,121.5 C 346.186,128.205 349.853,135.539 352.5,143.5C 348.761,137.695 345.261,131.695 342,125.5C 341.51,124.207 341.343,122.873 341.5,121.5 Z"/></g>
<g><path style="opacity:1" fill="#4c4025" d="M 133.5,118.5 C 138.072,121.563 142.239,125.23 146,129.5C 146.384,127.803 146.218,126.137 145.5,124.5C 146.794,125.29 147.961,126.29 149,127.5C 151.079,131.653 152.579,135.986 153.5,140.5C 152.833,139.833 152.167,139.167 151.5,138.5C 151.291,137.078 150.791,135.745 150,134.5C 143.997,129.663 138.497,124.33 133.5,118.5 Z"/></g>
<g><path style="opacity:1" fill="#b1b5c0" d="M 289.5,78.5 C 295.877,80.2217 301.543,83.2217 306.5,87.5C 306.953,88.4584 307.619,89.2917 308.5,90C 311.514,90.1276 314.514,90.1276 317.5,90C 319.551,92.0202 321.884,93.5202 324.5,94.5C 330.163,99.33 335.33,104.663 340,110.5C 340.66,113.047 340.493,115.547 339.5,118C 339.808,119.459 340.475,120.626 341.5,121.5C 341.343,122.873 341.51,124.207 342,125.5C 345.261,131.695 348.761,137.695 352.5,143.5C 352.814,146.947 353.648,150.28 355,153.5C 357.688,156.727 359.522,160.394 360.5,164.5C 361.494,167.816 362.494,171.149 363.5,174.5C 363.167,175.167 362.833,175.833 362.5,176.5C 361.141,175.376 360.141,174.042 359.5,172.5C 349.973,158.301 339.307,144.968 327.5,132.5C 325.708,131.691 323.708,131.191 321.5,131C 320.211,129.198 318.544,128.031 316.5,127.5C 315.749,126.427 314.749,126.26 313.5,127C 311.892,129.609 309.559,130.942 306.5,131C 305.663,132.011 305.33,133.178 305.5,134.5C 302.654,134.809 301.154,136.475 301,139.5C 298.245,142.083 295.745,144.749 293.5,147.5C 292.341,149.377 290.674,149.877 288.5,149C 284.652,146.353 282.319,142.853 281.5,138.5C 288.745,131.757 295.911,124.757 303,117.5C 303.167,116.667 303.333,115.833 303.5,115C 303.316,113.624 302.649,112.791 301.5,112.5C 300.206,111.71 299.039,110.71 298,109.5C 297.667,106.833 297.333,104.167 297,101.5C 286.978,93.6359 277.145,85.6359 267.5,77.5C 265.761,74.59 263.428,72.09 260.5,70C 260.833,69.8333 261.167,69.6667 261.5,69.5C 270.986,72.1067 280.319,75.1067 289.5,78.5 Z"/></g>
<g><path style="opacity:1" fill="#4d4f55" d="M 316.5,127.5 C 318.544,128.031 320.211,129.198 321.5,131C 323.708,131.191 325.708,131.691 327.5,132.5C 322.525,133.362 318.859,131.695 316.5,127.5 Z"/></g>
<g><path style="opacity:1" fill="#838583" d="M 316.5,127.5 C 309.568,131.43 303.901,136.764 299.5,143.5C 297.809,144.864 296.142,146.197 294.5,147.5C 294.167,147.5 293.833,147.5 293.5,147.5C 295.745,144.749 298.245,142.083 301,139.5C 301.154,136.475 302.654,134.809 305.5,134.5C 305.33,133.178 305.663,132.011 306.5,131C 309.559,130.942 311.892,129.609 313.5,127C 314.749,126.26 315.749,126.427 316.5,127.5 Z"/></g>
<g><path style="opacity:1" fill="#b29311" d="M 237.5,140.5 C 236.167,140.5 234.833,140.5 233.5,140.5C 231.901,140.768 230.568,140.434 229.5,139.5C 221.01,138.343 212.343,138.176 203.5,139C 202.584,139.278 201.918,139.778 201.5,140.5C 199.833,140.5 198.167,140.5 196.5,140.5C 202.631,137.113 209.297,135.779 216.5,136.5C 224.073,135.816 231.073,137.149 237.5,140.5 Z"/></g>
<g><path style="opacity:1" fill="#423204" d="M 229.5,139.5 C 220.134,139.279 210.801,139.613 201.5,140.5C 201.918,139.778 202.584,139.278 203.5,139C 212.343,138.176 221.01,138.343 229.5,139.5 Z"/></g>
<g><path style="opacity:0.631" fill="#455d6b" d="M 376.5,100.5 C 379.212,100.737 381.712,100.737 384,100.5C 386.833,105.5 389.667,110.5 392.5,115.5C 393.89,117.203 395.39,117.87 397,117.5C 397.464,116.906 397.631,116.239 397.5,115.5C 402.895,124.965 407.228,134.965 410.5,145.5C 410.66,147.199 410.494,148.866 410,150.5C 407.143,144.934 404.477,139.267 402,133.5C 401.333,132.167 400.667,132.167 400,133.5C 399.683,131.699 399.016,131.366 398,132.5C 396.906,129.291 394.74,127.291 391.5,126.5C 386.517,117.873 381.517,109.207 376.5,100.5 Z"/></g>
<g><path style="opacity:1" fill="#060301" d="M 229.5,139.5 C 230.568,140.434 231.901,140.768 233.5,140.5C 236.505,142.277 239.838,143.277 243.5,143.5C 248.825,146.497 254.159,149.497 259.5,152.5C 259.973,153.906 260.973,154.573 262.5,154.5C 262.709,155.922 263.209,157.255 264,158.5C 266.374,160.539 268.374,162.872 270,165.5C 272.231,167.624 274.731,169.291 277.5,170.5C 277.755,172.967 278.755,174.967 280.5,176.5C 282.083,178.663 283.416,180.996 284.5,183.5C 284.98,186.443 285.98,189.11 287.5,191.5C 287.5,192.167 287.5,192.833 287.5,193.5C 289.302,203.721 289.968,214.054 289.5,224.5C 288.833,228.5 288.167,232.5 287.5,236.5C 284.367,243.21 281.033,249.877 277.5,256.5C 276.833,256.833 276.167,257.167 275.5,257.5C 274.504,257.414 273.671,257.748 273,258.5C 269.596,262.394 266.429,266.394 263.5,270.5C 255.117,276.024 246.451,281.024 237.5,285.5C 224.954,288.409 212.288,289.076 199.5,287.5C 194.373,285.376 189.039,283.543 183.5,282C 178.477,278.824 173.477,275.658 168.5,272.5C 164.833,268.167 160.833,264.167 156.5,260.5C 156.573,258.973 155.906,257.973 154.5,257.5C 152.913,253.317 150.579,249.65 147.5,246.5C 146.975,242.467 145.642,238.8 143.5,235.5C 143.768,233.901 143.434,232.568 142.5,231.5C 139.915,219.489 139.915,207.489 142.5,195.5C 144.204,192.061 145.538,188.395 146.5,184.5C 146.328,183.508 146.662,182.842 147.5,182.5C 153.912,170.409 162.578,160.076 173.5,151.5C 181.217,147.743 188.884,144.076 196.5,140.5C 198.167,140.5 199.833,140.5 201.5,140.5C 210.801,139.613 220.134,139.279 229.5,139.5 Z"/></g>
<g><path style="opacity:1" fill="#644f09" d="M 233.5,140.5 C 234.833,140.5 236.167,140.5 237.5,140.5C 239.5,141.5 241.5,142.5 243.5,143.5C 239.838,143.277 236.505,142.277 233.5,140.5 Z"/></g>
<g><path style="opacity:1" fill="#61500d" d="M 125.5,140.5 C 123.801,140.34 122.134,140.506 120.5,141C 119.837,142.518 118.837,143.685 117.5,144.5C 118.516,138.706 121.183,137.373 125.5,140.5 Z"/></g>
<g><path style="opacity:1" fill="#b3aa89" d="M 151.5,138.5 C 152.167,139.167 152.833,139.833 153.5,140.5C 151.198,145.807 147.198,148.807 141.5,149.5C 140.5,148.167 139.5,146.833 138.5,145.5C 140.896,147.212 143.562,147.712 146.5,147C 147.55,143.724 149.216,140.89 151.5,138.5 Z"/></g>
<g><path style="opacity:1" fill="#cbae48" d="M 283.5,131.5 C 283.5,132.833 283.5,134.167 283.5,135.5C 282.094,135.973 281.427,136.973 281.5,138.5C 282.319,142.853 284.652,146.353 288.5,149C 290.674,149.877 292.341,149.377 293.5,147.5C 293.833,147.5 294.167,147.5 294.5,147.5C 296.216,147.371 297.883,147.038 299.5,146.5C 296.392,150.085 292.392,151.252 287.5,150C 283.517,146.861 280.517,143.027 278.5,138.5C 279.774,135.891 281.441,133.558 283.5,131.5 Z"/></g>
<g><path style="opacity:1" fill="#816609" d="M 243.5,143.5 C 250.082,144.453 255.416,147.453 259.5,152.5C 254.159,149.497 248.825,146.497 243.5,143.5 Z"/></g>
<g><path style="opacity:1" fill="#53410c" d="M 305.5,141.5 C 303.62,143.435 301.62,145.101 299.5,146.5C 297.883,147.038 296.216,147.371 294.5,147.5C 296.142,146.197 297.809,144.864 299.5,143.5C 301.685,143.296 303.685,142.63 305.5,141.5 Z"/></g>
<g><path style="opacity:1" fill="#8a701f" d="M 130.5,143.5 C 132.833,144.167 135.167,144.833 137.5,145.5C 137.833,145.5 138.167,145.5 138.5,145.5C 139.5,146.833 140.5,148.167 141.5,149.5C 138.562,148.372 135.562,147.205 132.5,146C 131.619,145.292 130.953,144.458 130.5,143.5 Z"/></g>
<g><path style="opacity:1" fill="#cfaf34" d="M 148.5,114.5 C 147.315,115.857 146.315,117.357 145.5,119C 145.563,122.488 147.23,124.321 150.5,124.5C 151.156,128.813 152.656,132.813 155,136.5C 155.667,138.167 155.667,139.833 155,141.5C 152.872,144.63 150.372,147.463 147.5,150C 145.03,152.014 143.03,151.847 141.5,149.5C 147.198,148.807 151.198,145.807 153.5,140.5C 152.579,135.986 151.079,131.653 149,127.5C 147.961,126.29 146.794,125.29 145.5,124.5C 145.5,124.167 145.5,123.833 145.5,123.5C 144.61,121.218 144.444,118.885 145,116.5C 145.816,115.177 146.983,114.511 148.5,114.5 Z"/></g>
<g><path style="opacity:1" fill="#8e6f0b" d="M 196.5,140.5 C 188.884,144.076 181.217,147.743 173.5,151.5C 180.058,145.631 187.725,141.965 196.5,140.5 Z"/></g>
<g><path style="opacity:1" fill="#7d650f" d="M 117.5,144.5 C 117.657,145.873 117.49,147.207 117,148.5C 114.378,152.241 111.878,156.074 109.5,160C 107.019,163.787 107.019,167.454 109.5,171C 112.547,171.516 114.88,173.016 116.5,175.5C 113.933,174.25 111.267,173.083 108.5,172C 106.703,170.406 105.703,168.406 105.5,166C 107.862,159.962 110.695,154.128 114,148.5C 114.949,146.907 116.115,145.574 117.5,144.5 Z"/></g>
<g><path style="opacity:1" fill="#82690f" d="M 318.5,146.5 C 320.742,149.082 322.076,152.082 322.5,155.5C 319.835,153.165 318.502,150.165 318.5,146.5 Z"/></g>
<g><path style="opacity:1" fill="#4d5155" d="M 95.5,145.5 C 92.9014,150.428 89.568,154.761 85.5,158.5C 88.1297,153.548 91.4631,149.215 95.5,145.5 Z"/></g>
<g><path style="opacity:1" fill="#1f2e3c" d="M 44.5,109.5 C 36.563,122.042 30.2297,135.375 25.5,149.5C 23.3318,153.841 21.8318,158.508 21,163.5C 19.6439,164.38 18.1439,164.714 16.5,164.5C 16.7367,168.273 16.2367,171.94 15,175.5C 14.1779,173.212 13.5112,170.878 13,168.5C 12.6667,169.833 12.3333,171.167 12,172.5C 10.984,171.366 10.3173,171.699 10,173.5C 9.66667,172.5 9.33333,171.5 9,170.5C 5.82128,177.814 4.98795,185.314 6.5,193C 5.00361,196.149 3.50361,199.316 2,202.5C 1.50649,200.866 1.33982,199.199 1.5,197.5C 1.8781,182.617 4.54477,168.284 9.5,154.5C 9.34332,155.873 9.50999,157.207 10,158.5C 13.0435,154.342 14.8769,149.675 15.5,144.5C 17.3904,144.703 18.8904,144.037 20,142.5C 20.3076,143.308 20.8076,143.975 21.5,144.5C 21.9106,143.738 22.0773,142.738 22,141.5C 23.5874,142.727 24.9207,142.394 26,140.5C 29.2453,130.009 34.0787,120.343 40.5,111.5C 41.8333,110.833 43.1667,110.167 44.5,109.5 Z"/></g>
<g><path style="opacity:1" fill="#9799a1" d="M 88.5,131.5 C 87.9396,133.801 87.4396,136.134 87,138.5C 84.23,141.763 82.23,145.429 81,149.5C 80.4424,152.934 79.609,156.267 78.5,159.5C 80.099,159.232 81.4324,159.566 82.5,160.5C 79.5715,164.694 76.9048,169.027 74.5,173.5C 73.6091,174.261 72.9424,175.261 72.5,176.5C 71.675,177.386 70.675,177.719 69.5,177.5C 70.7097,168.925 73.7097,161.092 78.5,154C 79.1608,151.536 79.6608,149.036 80,146.5C 83.13,141.569 85.9633,136.569 88.5,131.5 Z"/></g>
<g><path style="opacity:1" fill="#283a48" d="M 391.5,126.5 C 394.74,127.291 396.906,129.291 398,132.5C 399.016,131.366 399.683,131.699 400,133.5C 400.667,132.167 401.333,132.167 402,133.5C 404.477,139.267 407.143,144.934 410,150.5C 410.494,148.866 410.66,147.199 410.5,145.5C 412.924,150.847 414.591,156.513 415.5,162.5C 414.73,167.428 413.23,167.428 411,162.5C 410.082,165.063 410.582,167.23 412.5,169C 411.376,169.249 410.376,169.749 409.5,170.5C 410.706,172.516 410.706,174.516 409.5,176.5C 404.726,159.408 398.726,142.742 391.5,126.5 Z"/></g>
<g><path style="opacity:1" fill="#503f23" d="M 217.5,161.5 C 206.828,161.333 196.161,161.5 185.5,162C 184.333,163.167 183.167,164.333 182,165.5C 181.501,169.486 181.334,173.486 181.5,177.5C 191.681,177.173 201.681,177.506 211.5,178.5C 201.167,178.5 190.833,178.5 180.5,178.5C 180.334,173.821 180.501,169.155 181,164.5C 182.167,163.333 183.333,162.167 184.5,161C 195.674,160.174 206.674,160.341 217.5,161.5 Z"/></g>
<g><path style="opacity:1" fill="#9f8f61" d="M 262.5,154.5 C 264.229,155.117 265.729,156.117 267,157.5C 270.211,162.157 273.711,166.49 277.5,170.5C 274.731,169.291 272.231,167.624 270,165.5C 268.374,162.872 266.374,160.539 264,158.5C 263.209,157.255 262.709,155.922 262.5,154.5 Z"/></g>
<g><path style="opacity:1" fill="#a48b5b" d="M 217.5,161.5 C 222.391,163.072 227.391,164.572 232.5,166C 235.39,168.275 238.056,170.775 240.5,173.5C 222.941,163.21 204.108,160.543 184,165.5C 183.501,169.152 183.335,172.818 183.5,176.5C 197.03,175.794 210.363,176.794 223.5,179.5C 223.5,180.5 223.5,181.5 223.5,182.5C 219.411,181.151 215.411,179.818 211.5,178.5C 201.681,177.506 191.681,177.173 181.5,177.5C 181.334,173.486 181.501,169.486 182,165.5C 183.167,164.333 184.333,163.167 185.5,162C 196.161,161.5 206.828,161.333 217.5,161.5 Z"/></g>
<g><path style="opacity:1" fill="#172230" d="M 59.5,98.5 C 54.0172,105.316 49.3506,112.649 45.5,120.5C 32.9064,142.183 24.9064,165.516 21.5,190.5C 19.4904,196.544 18.3237,202.877 18,209.5C 17.6667,209.167 17.3333,208.833 17,208.5C 16.6264,214.81 16.4597,220.976 16.5,227C 17.3089,232.417 17.8089,237.917 18,243.5C 19.5757,248.614 21.0757,253.614 22.5,258.5C 24.8567,267.259 27.5233,275.926 30.5,284.5C 29.603,283.402 28.7697,283.402 28,284.5C 25.9519,281.187 24.9519,277.521 25,273.5C 22.0075,272.034 21.1742,269.868 22.5,267C 20.8333,266 19.1667,265 17.5,264C 17.2542,261.346 17.9209,258.679 19.5,256C 17.5188,255.395 17.1854,254.395 18.5,253C 17.9103,251.491 17.2436,249.991 16.5,248.5C 14.9291,249.309 13.2624,249.643 11.5,249.5C 10.0419,235.861 8.5419,222.195 7,208.5C 5.88298,207.051 5.21631,205.384 5,203.5C 4.00096,213.287 2.83429,222.954 1.5,232.5C 0.267659,220.682 0.267659,209.015 1.5,197.5C 1.33982,199.199 1.50649,200.866 2,202.5C 3.50361,199.316 5.00361,196.149 6.5,193C 4.98795,185.314 5.82128,177.814 9,170.5C 9.33333,171.5 9.66667,172.5 10,173.5C 10.3173,171.699 10.984,171.366 12,172.5C 12.3333,171.167 12.6667,169.833 13,168.5C 13.5112,170.878 14.1779,173.212 15,175.5C 16.2367,171.94 16.7367,168.273 16.5,164.5C 18.1439,164.714 19.6439,164.38 21,163.5C 21.8318,158.508 23.3318,153.841 25.5,149.5C 25.3505,150.552 25.5172,151.552 26,152.5C 30.2781,145.362 33.6115,137.696 36,129.5C 40.7587,122.989 44.7587,115.989 48,108.5C 51.0359,104.528 54.5359,100.861 58.5,97.5C 59.1067,97.6236 59.44,97.9569 59.5,98.5 Z"/></g>
<g><path style="opacity:1" fill="#725705" d="M 173.5,151.5 C 162.578,160.076 153.912,170.409 147.5,182.5C 147.372,180.345 147.872,178.345 149,176.5C 155.353,166.314 163.52,157.981 173.5,151.5 Z"/></g>
<g><path style="opacity:1" fill="#575a60" d="M 85.5,158.5 C 82.2125,163.786 78.5458,168.786 74.5,173.5C 76.9048,169.027 79.5715,164.694 82.5,160.5C 83.5,159.833 84.5,159.167 85.5,158.5 Z"/></g>
<g><path style="opacity:1" fill="#3e3f43" d="M 360.5,164.5 C 362.719,167.783 364.385,171.449 365.5,175.5C 365.253,178.082 363.92,178.915 361.5,178C 359.845,176.556 359.178,174.722 359.5,172.5C 360.141,174.042 361.141,175.376 362.5,176.5C 362.833,175.833 363.167,175.167 363.5,174.5C 362.494,171.149 361.494,167.816 360.5,164.5 Z"/></g>
<g><path style="opacity:1" fill="#bf9e5e" d="M 240.5,173.5 C 245.239,176.303 248.573,180.303 250.5,185.5C 251.488,189.485 252.488,193.485 253.5,197.5C 248.156,197.666 242.823,197.499 237.5,197C 235.667,194.893 234.501,192.393 234,189.5C 231.022,188.01 228.189,186.343 225.5,184.5C 224.833,183.833 224.167,183.167 223.5,182.5C 223.5,181.5 223.5,180.5 223.5,179.5C 210.363,176.794 197.03,175.794 183.5,176.5C 183.335,172.818 183.501,169.152 184,165.5C 204.108,160.543 222.941,163.21 240.5,173.5 Z"/></g>
<g><path style="opacity:1" fill="#867011" d="M 324.5,159.5 C 328.171,162.249 329.337,165.916 328,170.5C 324.415,172.079 320.915,173.746 317.5,175.5C 319.237,173.45 321.237,171.617 323.5,170C 324.448,169.517 325.448,169.351 326.5,169.5C 326.845,165.885 326.178,162.552 324.5,159.5 Z"/></g>
<g><path style="opacity:1" fill="#534408" d="M 277.5,170.5 C 279.975,171.687 280.975,173.687 280.5,176.5C 278.755,174.967 277.755,172.967 277.5,170.5 Z"/></g>
<g><path style="opacity:1" fill="#705808" d="M 121.5,178.5 C 123.981,178.323 125.814,179.323 127,181.5C 127.313,185.258 126.813,188.924 125.5,192.5C 124.833,193.5 124.167,194.5 123.5,195.5C 123.764,191.607 124.431,187.774 125.5,184C 125.099,181.44 123.766,179.607 121.5,178.5 Z"/></g>
<g><path style="opacity:1" fill="#80650e" d="M 284.5,183.5 C 286.655,185.617 287.655,188.284 287.5,191.5C 285.98,189.11 284.98,186.443 284.5,183.5 Z"/></g>
<g><path style="opacity:1" fill="#806303" d="M 146.5,184.5 C 145.538,188.395 144.204,192.061 142.5,195.5C 142.677,191.292 144.01,187.626 146.5,184.5 Z"/></g>
<g><path style="opacity:1" fill="#1d2a38" d="M 369.5,96.5 C 370.5,96.5 371.5,96.5 372.5,96.5C 373.473,98.1392 374.806,99.4726 376.5,100.5C 381.517,109.207 386.517,117.873 391.5,126.5C 398.726,142.742 404.726,159.408 409.5,176.5C 410.706,174.516 410.706,172.516 409.5,170.5C 410.376,169.749 411.376,169.249 412.5,169C 410.582,167.23 410.082,165.063 411,162.5C 413.23,167.428 414.73,167.428 415.5,162.5C 418.404,170.81 420.071,179.477 420.5,188.5C 420.25,189.922 419.417,190.922 418,191.5C 417.915,187.529 416.915,183.862 415,180.5C 414.219,181.729 413.719,183.062 413.5,184.5C 414.7,187.833 414.7,191.167 413.5,194.5C 411.08,194.708 408.747,194.374 406.5,193.5C 405.062,187.543 404.062,181.543 403.5,175.5C 398.369,146.424 387.036,120.09 369.5,96.5 Z"/></g>
<g><path style="opacity:1" fill="#9d7f10" d="M 313.5,177.5 C 312.378,178.947 310.878,179.947 309,180.5C 308.699,183.507 308.865,186.507 309.5,189.5C 309.5,190.833 309.5,192.167 309.5,193.5C 308.59,191.981 307.757,190.315 307,188.5C 304.73,182.018 306.897,178.351 313.5,177.5 Z"/></g>
<g><path style="opacity:1" fill="#16202c" d="M 266.5,27.5 C 273.578,29.5357 280.578,31.8691 287.5,34.5C 317.465,48.5443 342.965,68.211 364,93.5C 366.215,96.5961 367.881,99.9295 369,103.5C 375.059,110.36 379.559,118.026 382.5,126.5C 383.675,126.281 384.675,126.614 385.5,127.5C 389.549,138.713 394.049,149.713 399,160.5C 399.768,165.846 400.601,171.179 401.5,176.5C 402.183,176.137 402.85,175.804 403.5,175.5C 404.062,181.543 405.062,187.543 406.5,193.5C 408.747,194.374 411.08,194.708 413.5,194.5C 414.7,191.167 414.7,187.833 413.5,184.5C 413.719,183.062 414.219,181.729 415,180.5C 416.915,183.862 417.915,187.529 418,191.5C 419.417,190.922 420.25,189.922 420.5,188.5C 423.276,208.736 422.943,229.069 419.5,249.5C 418.5,249.5 417.5,249.5 416.5,249.5C 419.134,239.745 418.967,230.078 416,220.5C 414.136,231.471 412.47,242.471 411,253.5C 409.372,259.472 407.539,265.138 405.5,270.5C 404.199,269.36 403.032,268.027 402,266.5C 401.667,266.833 401.333,267.167 401,267.5C 398.726,274.806 395.726,281.806 392,288.5C 391.012,291.424 390.346,294.424 390,297.5C 389.667,297.167 389.333,296.833 389,296.5C 387.583,298.398 386.083,300.064 384.5,301.5C 384.833,300.167 385.167,298.833 385.5,297.5C 390.637,288.452 394.637,278.785 397.5,268.5C 406.036,246.657 408.869,223.99 406,200.5C 405.64,202.608 404.973,204.608 404,206.5C 403.667,203.167 403.333,199.833 403,196.5C 402.83,206.009 402.33,215.342 401.5,224.5C 403.485,201.452 400.818,179.118 393.5,157.5C 372.019,92.352 328.686,49.352 263.5,28.5C 264.791,28.7373 265.791,28.404 266.5,27.5 Z"/></g>
<g><path style="opacity:1" fill="#76633e" d="M 183.5,193.5 C 180.679,184.483 184.013,180.316 193.5,181C 199.172,183.768 201.006,188.268 199,194.5C 195.604,198.203 191.437,199.369 186.5,198C 184.859,196.871 183.859,195.371 183.5,193.5 Z"/></g>
<g><path style="opacity:1" fill="#b49866" d="M 183.5,193.5 C 182.208,184.282 185.875,181.115 194.5,184C 187.467,184.032 184.3,187.532 185,194.5C 184.617,193.944 184.117,193.611 183.5,193.5 Z"/></g>
<g><path style="opacity:1" fill="#0f0803" d="M 192.5,193.5 C 187.672,193.615 186.339,191.448 188.5,187C 194.319,186.474 195.652,188.641 192.5,193.5 Z"/></g>
<g><path style="opacity:1" fill="#b19565" d="M 192.5,193.5 C 193.5,193.5 194.5,193.5 195.5,193.5C 195.187,190.753 195.52,188.086 196.5,185.5C 199.332,189.2 198.999,192.7 195.5,196C 192.446,196.821 189.446,196.655 186.5,195.5C 188.631,194.831 190.631,194.165 192.5,193.5 Z"/></g>
<g><path style="opacity:1" fill="#5d4b0b" d="M 309.5,189.5 C 310.306,190.997 310.972,192.664 311.5,194.5C 319.657,195.167 327.657,195.833 335.5,196.5C 327.16,196.666 318.827,196.5 310.5,196C 309.748,195.329 309.414,194.496 309.5,193.5C 309.5,192.167 309.5,190.833 309.5,189.5 Z"/></g>
<g><path style="opacity:1" fill="#826d48" d="M 225.5,184.5 C 228.189,186.343 231.022,188.01 234,189.5C 234.501,192.393 235.667,194.893 237.5,197C 242.823,197.499 248.156,197.666 253.5,197.5C 252.488,193.485 251.488,189.485 250.5,185.5C 253.231,189.322 254.564,193.656 254.5,198.5C 248.158,198.666 241.825,198.5 235.5,198C 232.523,193.203 229.19,188.703 225.5,184.5 Z"/></g>
<g><path style="opacity:1" fill="#473505" d="M 123.5,195.5 C 115.677,196.329 107.677,196.829 99.5,197C 98.6195,197.708 97.9528,198.542 97.5,199.5C 96.506,209.319 96.1726,219.319 96.5,229.5C 95.3415,219.342 95.1748,209.008 96,198.5C 96.8333,197.667 97.6667,196.833 98.5,196C 106.827,195.5 115.16,195.334 123.5,195.5 Z"/></g>
<g><path style="opacity:1" fill="#57450a" d="M 335.5,196.5 C 336.496,196.414 337.329,196.748 338,197.5C 338.825,208.008 338.659,218.342 337.5,228.5C 337.827,218.319 337.494,208.319 336.5,198.5C 336.167,197.833 335.833,197.167 335.5,196.5 Z"/></g>
<g><path style="opacity:1" fill="#e2b916" d="M 125.5,192.5 C 126.035,195.238 125.035,197.072 122.5,198C 114.921,198.184 107.421,198.684 100,199.5C 99.3333,208.833 99.3333,218.167 100,227.5C 108.154,227.823 115.987,228.823 123.5,230.5C 115.493,230.666 107.493,230.5 99.5,230C 99,229.5 98.5,229 98,228.5C 97.5002,218.839 97.3335,209.172 97.5,199.5C 97.9528,198.542 98.6195,197.708 99.5,197C 107.677,196.829 115.677,196.329 123.5,195.5C 124.167,194.5 124.833,193.5 125.5,192.5 Z"/></g>
<g><path style="opacity:1" fill="#877147" d="M 187.5,203.5 C 183.167,203.5 178.833,203.5 174.5,203.5C 174.5,210.167 174.5,216.833 174.5,223.5C 177.167,223.5 179.833,223.5 182.5,223.5C 179.713,224.477 176.713,224.81 173.5,224.5C 173.5,216.833 173.5,209.167 173.5,201.5C 177.514,201.334 181.514,201.501 185.5,202C 186.416,202.278 187.082,202.778 187.5,203.5 Z"/></g>
<g><path style="opacity:1" fill="#6a5b3c" d="M 206.5,202.5 C 202.833,202.5 199.167,202.5 195.5,202.5C 195.5,209.5 195.5,216.5 195.5,223.5C 196.5,223.5 197.5,223.5 198.5,223.5C 198.205,221.265 198.539,219.265 199.5,217.5C 199.5,220.167 199.5,222.833 199.5,225.5C 197.833,225.5 196.167,225.5 194.5,225.5C 194.5,217.5 194.5,209.5 194.5,201.5C 198.702,201.183 202.702,201.517 206.5,202.5 Z"/></g>
<g><path style="opacity:1" fill="#9b7b0b" d="M 142.5,195.5 C 139.915,207.489 139.915,219.489 142.5,231.5C 141.778,231.082 141.278,230.416 141,229.5C 139.616,220.536 139.283,211.536 140,202.5C 140.39,199.896 141.224,197.562 142.5,195.5 Z"/></g>
<g><path style="opacity:1" fill="#b49962" d="M 187.5,203.5 C 188.794,204.29 189.961,205.29 191,206.5C 191.667,210.167 191.667,213.833 191,217.5C 189.395,221.276 186.562,223.276 182.5,223.5C 179.833,223.5 177.167,223.5 174.5,223.5C 174.5,216.833 174.5,210.167 174.5,203.5C 178.833,203.5 183.167,203.5 187.5,203.5 Z"/></g>
<g><path style="opacity:1" fill="#5d4d2d" d="M 184.5,207.5 C 185.496,207.414 186.329,207.748 187,208.5C 187.667,211.5 187.667,214.5 187,217.5C 186.184,218.823 185.017,219.489 183.5,219.5C 187.033,215.767 187.367,211.767 184.5,207.5 Z"/></g>
<g><path style="opacity:1" fill="#0b0502" d="M 184.5,207.5 C 187.367,211.767 187.033,215.767 183.5,219.5C 181.833,219.5 180.167,219.5 178.5,219.5C 178.5,215.5 178.5,211.5 178.5,207.5C 180.5,207.5 182.5,207.5 184.5,207.5 Z"/></g>
<g><path style="opacity:1" fill="#6b593b" d="M 265.5,219.5 C 268.5,219.5 271.5,219.5 274.5,219.5C 274.739,221.467 274.406,223.301 273.5,225C 269.179,225.499 264.846,225.666 260.5,225.5C 260.5,217.5 260.5,209.5 260.5,201.5C 262.167,201.5 263.833,201.5 265.5,201.5C 265.5,207.5 265.5,213.5 265.5,219.5 Z"/></g>
<g><path style="opacity:1" fill="#4f3e25" d="M 209.5,204.5 C 210.315,205.429 211.148,206.429 212,207.5C 212.383,206.944 212.883,206.611 213.5,206.5C 212.25,209.006 211.584,211.673 211.5,214.5C 207.936,216.968 203.936,217.968 199.5,217.5C 207.987,217.33 211.321,212.997 209.5,204.5 Z"/></g>
<g><path style="opacity:1" fill="#574207" d="M 287.5,193.5 C 290.931,199.428 292.264,205.928 291.5,213C 291.49,217.229 290.823,221.062 289.5,224.5C 289.968,214.054 289.302,203.721 287.5,193.5 Z"/></g>
<g><path style="opacity:1" fill="#503f24" d="M 229.5,203.5 C 231.836,205.004 233.669,207.004 235,209.5C 235.708,208.619 236.542,207.953 237.5,207.5C 235.635,213.135 236.635,218.135 240.5,222.5C 238.983,222.489 237.816,221.823 237,220.5C 236.71,218.956 236.044,217.623 235,216.5C 234,218.5 233,220.5 232,222.5C 230.989,223.337 229.822,223.67 228.5,223.5C 233.124,219.612 234.624,214.612 233,208.5C 231.198,207.211 230.031,205.544 229.5,203.5 Z"/></g>
<g><path style="opacity:1" fill="#7c663e" d="M 184.5,207.5 C 182.5,207.5 180.5,207.5 178.5,207.5C 178.5,211.5 178.5,215.5 178.5,219.5C 180.167,219.5 181.833,219.5 183.5,219.5C 181.44,220.811 179.274,220.811 177,219.5C 176.501,214.845 176.334,210.179 176.5,205.5C 179.553,205.111 182.22,205.777 184.5,207.5 Z"/></g>
<g><path style="opacity:1" fill="#223140" d="M 397.5,268.5 C 397.628,266.345 397.128,264.345 396,262.5C 395.617,263.056 395.117,263.389 394.5,263.5C 398.231,250.783 400.564,237.783 401.5,224.5C 402.33,215.342 402.83,206.009 403,196.5C 403.333,199.833 403.667,203.167 404,206.5C 404.973,204.608 405.64,202.608 406,200.5C 408.869,223.99 406.036,246.657 397.5,268.5 Z"/></g>
<g><path style="opacity:1" fill="#b2975f" d="M 206.5,202.5 C 207.5,203.167 208.5,203.833 209.5,204.5C 211.321,212.997 207.987,217.33 199.5,217.5C 198.539,219.265 198.205,221.265 198.5,223.5C 197.5,223.5 196.5,223.5 195.5,223.5C 195.5,216.5 195.5,209.5 195.5,202.5C 199.167,202.5 202.833,202.5 206.5,202.5 Z"/></g>
<g><path style="opacity:1" fill="#1d150b" d="M 199.5,206.5 C 204.667,205.492 206.334,207.325 204.5,212C 202.866,212.494 201.199,212.66 199.5,212.5C 199.5,210.5 199.5,208.5 199.5,206.5 Z"/></g>
<g><path style="opacity:1" fill="#a78e5d" d="M 229.5,203.5 C 230.031,205.544 231.198,207.211 233,208.5C 234.624,214.612 233.124,219.612 228.5,223.5C 220.395,225.611 214.729,222.611 211.5,214.5C 211.584,211.673 212.25,209.006 213.5,206.5C 217.955,200.074 223.288,199.074 229.5,203.5 Z"/></g>
<g><path style="opacity:1" fill="#584828" d="M 225.5,206.5 C 217.11,208.042 215.443,212.208 220.5,219C 222.473,219.495 224.473,219.662 226.5,219.5C 218.314,221.478 215.147,218.144 217,209.5C 219.113,205.798 221.946,204.798 225.5,206.5 Z"/></g>
<g><path style="opacity:1" fill="#0e0804" d="M 225.5,206.5 C 230.428,210.364 230.762,214.698 226.5,219.5C 224.473,219.662 222.473,219.495 220.5,219C 215.443,212.208 217.11,208.042 225.5,206.5 Z"/></g>
<g><path style="opacity:1" fill="#b79c65" d="M 265.5,219.5 C 267.607,220.468 269.941,220.802 272.5,220.5C 272.5,221.5 272.5,222.5 272.5,223.5C 268.833,223.5 265.167,223.5 261.5,223.5C 261.5,216.5 261.5,209.5 261.5,202.5C 262.5,202.5 263.5,202.5 264.5,202.5C 264.178,208.358 264.511,214.025 265.5,219.5 Z"/></g>
<g><path style="opacity:1" fill="#a38b5b" d="M 240.5,222.5 C 236.635,218.135 235.635,213.135 237.5,207.5C 238.885,203.12 241.885,201.12 246.5,201.5C 248.56,201.572 250.56,201.905 252.5,202.5C 259.714,208.599 260.381,215.432 254.5,223C 249.665,225.139 244.998,224.972 240.5,222.5 Z"/></g>
<g><path style="opacity:1" fill="#46391c" d="M 249.5,206.5 C 244.025,206.976 241.358,209.976 241.5,215.5C 239.69,211.623 240.69,208.457 244.5,206C 246.387,205.22 248.054,205.387 249.5,206.5 Z"/></g>
<g><path style="opacity:1" fill="#130f08" d="M 249.5,206.5 C 253.315,209.107 254.482,212.774 253,217.5C 250.159,219.504 246.993,220.004 243.5,219C 242.177,218.184 241.511,217.017 241.5,215.5C 241.358,209.976 244.025,206.976 249.5,206.5 Z"/></g>
<g><path style="opacity:1" fill="#243141" d="M 21.5,190.5 C 19.1347,214.568 21.1347,238.234 27.5,261.5C 26.8826,261.611 26.3826,261.944 26,262.5C 24.7485,260.999 23.7485,259.332 23,257.5C 22.6012,257.728 22.4346,258.062 22.5,258.5C 21.0757,253.614 19.5757,248.614 18,243.5C 17.8089,237.917 17.3089,232.417 16.5,227C 16.4597,220.976 16.6264,214.81 17,208.5C 17.3333,208.833 17.6667,209.167 18,209.5C 18.3237,202.877 19.4904,196.544 21.5,190.5 Z"/></g>
<g><path style="opacity:1" fill="#856c11" d="M 97.5,199.5 C 97.3335,209.172 97.5002,218.839 98,228.5C 98.5,229 99,229.5 99.5,230C 107.493,230.5 115.493,230.666 123.5,230.5C 123.5,230.833 123.5,231.167 123.5,231.5C 115.5,231.5 107.5,231.5 99.5,231.5C 98.2223,231.218 97.2223,230.551 96.5,229.5C 96.1726,219.319 96.506,209.319 97.5,199.5 Z"/></g>
<g><path style="opacity:1" fill="#8b7010" d="M 336.5,198.5 C 337.494,208.319 337.827,218.319 337.5,228.5C 337.586,229.496 337.252,230.329 336.5,231C 328.167,231.333 319.833,231.667 311.5,232C 310.064,236.808 308.73,241.641 307.5,246.5C 306.861,245.903 306.528,245.07 306.5,244C 307.852,239.64 309.186,235.307 310.5,231C 319.078,230.818 327.578,230.318 336,229.5C 336.5,219.172 336.666,208.839 336.5,198.5 Z"/></g>
<g><path style="opacity:1" fill="#030812" d="M 45.5,120.5 C 45.3184,122.591 45.6518,124.591 46.5,126.5C 43.9301,129.71 42.0968,133.377 41,137.5C 40.3333,136.167 39.6667,136.167 39,137.5C 37.9562,139.715 37.2895,142.048 37,144.5C 36.6667,144.167 36.3333,143.833 36,143.5C 36.932,146.124 37.432,149.457 37.5,153.5C 26.364,195.026 28.364,236.026 43.5,276.5C 46.3815,281.596 48.7148,286.929 50.5,292.5C 48.8235,291.817 48.1568,290.483 48.5,288.5C 47.5,288.5 46.5,288.5 45.5,288.5C 45.5,286.5 45.5,284.5 45.5,282.5C 44.5,282.5 43.5,282.5 42.5,282.5C 42.8076,284.924 42.4742,287.257 41.5,289.5C 39.1012,286.57 37.2679,283.237 36,279.5C 35.6174,280.056 35.1174,280.389 34.5,280.5C 31.5942,274.457 29.2609,268.123 27.5,261.5C 21.1347,238.234 19.1347,214.568 21.5,190.5C 24.9064,165.516 32.9064,142.183 45.5,120.5 Z"/></g>
<g><path style="opacity:1" fill="#08111c" d="M 393.5,157.5 C 400.818,179.118 403.485,201.452 401.5,224.5C 400.564,237.783 398.231,250.783 394.5,263.5C 391.476,274.576 387.476,285.243 382.5,295.5C 375.745,308.685 367.745,321.019 358.5,332.5C 354.403,337.687 350.07,342.687 345.5,347.5C 286.357,401.365 218.691,415.531 142.5,390C 125.866,382.688 110.199,373.855 95.5,363.5C 82.5,352.5 70.5,340.5 59.5,327.5C 51.8365,316.853 45.1698,305.519 39.5,293.5C 37.2508,289.424 35.5842,285.09 34.5,280.5C 35.1174,280.389 35.6174,280.056 36,279.5C 37.2679,283.237 39.1012,286.57 41.5,289.5C 42.4742,287.257 42.8076,284.924 42.5,282.5C 43.5,282.5 44.5,282.5 45.5,282.5C 45.5,284.5 45.5,286.5 45.5,288.5C 46.5,288.5 47.5,288.5 48.5,288.5C 48.1568,290.483 48.8235,291.817 50.5,292.5C 52.053,295.24 53.8863,297.907 56,300.5C 57.4433,305.389 59.4433,310.055 62,314.5C 65.4118,317.67 68.0784,321.337 70,325.5C 80.7647,336.926 92.2647,347.759 104.5,358C 105.833,358.333 107.167,358.667 108.5,359C 109.453,360.955 110.787,362.622 112.5,364C 145.377,385.835 181.71,395.502 221.5,393C 236.545,391.577 251.545,389.577 266.5,387C 277.951,381.941 289.618,377.441 301.5,373.5C 301.33,372.178 301.663,371.011 302.5,370C 318.949,361.526 333.282,350.526 345.5,337C 348.374,334.083 351.707,331.75 355.5,330C 360.047,324.115 364.213,317.948 368,311.5C 370.665,309.423 372.165,307.09 372.5,304.5C 374.41,298.013 377.41,292.013 381.5,286.5C 384.118,277.626 387.285,268.959 391,260.5C 393.049,253.988 394.216,247.321 394.5,240.5C 395.5,240.5 396.5,240.5 397.5,240.5C 398.85,219.256 398.683,197.922 397,176.5C 394.823,170.133 393.656,163.8 393.5,157.5 Z"/></g>
<g><path style="opacity:1" fill="#050812" d="M 11.5,249.5 C 21.3332,288.182 39.6665,322.349 66.5,352C 73.2476,357.038 79.581,362.538 85.5,368.5C 86.086,368.291 86.586,367.957 87,367.5C 89.6364,372.414 93.8031,375.248 99.5,376C 99.1667,376.333 98.8333,376.667 98.5,377C 99.8333,378.333 101.167,379.667 102.5,381C 141.055,405.722 183.389,416.222 229.5,412.5C 241.829,410.416 254.162,408.25 266.5,406C 310.281,392.382 346.114,367.548 374,331.5C 375.259,325.989 378.259,321.656 383,318.5C 387.899,312.702 391.232,306.035 393,298.5C 394,297.5 395,296.5 396,295.5C 399.205,287.106 402.372,278.772 405.5,270.5C 407.539,265.138 409.372,259.472 411,253.5C 412.47,242.471 414.136,231.471 416,220.5C 418.967,230.078 419.134,239.745 416.5,249.5C 417.5,249.5 418.5,249.5 419.5,249.5C 400.571,334.264 349.571,389.431 266.5,415C 183.913,433.485 113.08,412.652 54,352.5C 23.7198,318.257 6.2198,278.257 1.5,232.5C 2.83429,222.954 4.00096,213.287 5,203.5C 5.21631,205.384 5.88298,207.051 7,208.5C 8.5419,222.195 10.0419,235.861 11.5,249.5 Z"/></g>
<g><path style="opacity:1" fill="#856011" d="M 277.5,256.5 C 272.239,265.595 264.906,272.429 255.5,277C 250.653,282.257 244.653,285.09 237.5,285.5C 246.451,281.024 255.117,276.024 263.5,270.5C 268.208,266.793 272.208,262.46 275.5,257.5C 276.167,257.167 276.833,256.833 277.5,256.5 Z"/></g>
<g><path style="opacity:1" fill="#0e1825" d="M 30.5,284.5 C 32.1667,287.833 33.8333,291.167 35.5,294.5C 41.2456,307.003 48.2456,318.67 56.5,329.5C 66.463,342.463 77.7963,354.13 90.5,364.5C 138.674,402.291 193.007,415.124 253.5,403C 286.681,394.912 316.015,379.745 341.5,357.5C 349.578,350.758 356.578,343.091 362.5,334.5C 371.086,324.327 378.419,313.327 384.5,301.5C 386.083,300.064 387.583,298.398 389,296.5C 389.333,296.833 389.667,297.167 390,297.5C 390.346,294.424 391.012,291.424 392,288.5C 395.726,281.806 398.726,274.806 401,267.5C 401.333,267.167 401.667,266.833 402,266.5C 403.032,268.027 404.199,269.36 405.5,270.5C 402.372,278.772 399.205,287.106 396,295.5C 395,296.5 394,297.5 393,298.5C 391.232,306.035 387.899,312.702 383,318.5C 378.259,321.656 375.259,325.989 374,331.5C 346.114,367.548 310.281,392.382 266.5,406C 254.162,408.25 241.829,410.416 229.5,412.5C 183.389,416.222 141.055,405.722 102.5,381C 101.167,379.667 99.8333,378.333 98.5,377C 98.8333,376.667 99.1667,376.333 99.5,376C 93.8031,375.248 89.6364,372.414 87,367.5C 86.586,367.957 86.086,368.291 85.5,368.5C 79.581,362.538 73.2476,357.038 66.5,352C 39.6665,322.349 21.3332,288.182 11.5,249.5C 13.2624,249.643 14.9291,249.309 16.5,248.5C 17.2436,249.991 17.9103,251.491 18.5,253C 17.1854,254.395 17.5188,255.395 19.5,256C 17.9209,258.679 17.2542,261.346 17.5,264C 19.1667,265 20.8333,266 22.5,267C 21.1742,269.868 22.0075,272.034 25,273.5C 24.9519,277.521 25.9519,281.187 28,284.5C 28.7697,283.402 29.603,283.402 30.5,284.5 Z"/></g>
<g><path style="opacity:1" fill="#b3cbd8" d="M 345.5,347.5 C 346.552,347.351 347.552,347.517 348.5,348C 346.451,351.05 343.784,353.383 340.5,355C 341.252,355.671 341.586,356.504 341.5,357.5C 316.015,379.745 286.681,394.912 253.5,403C 193.007,415.124 138.674,402.291 90.5,364.5C 90.9867,363.527 91.4867,362.527 92,361.5C 92.7096,362.973 93.8762,363.64 95.5,363.5C 110.199,373.855 125.866,382.688 142.5,390C 218.691,415.531 286.357,401.365 345.5,347.5 Z"/></g>
<g><path style="opacity:1" fill="#8aa5b2" d="M 59.5,327.5 C 70.5,340.5 82.5,352.5 95.5,363.5C 93.8762,363.64 92.7096,362.973 92,361.5C 91.4867,362.527 90.9867,363.527 90.5,364.5C 77.7963,354.13 66.463,342.463 56.5,329.5C 56.9731,328.094 57.9731,327.427 59.5,327.5 Z"/></g>
<g><path style="opacity:1" fill="#77919f" d="M 362.5,334.5 C 356.578,343.091 349.578,350.758 341.5,357.5C 341.586,356.504 341.252,355.671 340.5,355C 343.784,353.383 346.451,351.05 348.5,348C 347.552,347.517 346.552,347.351 345.5,347.5C 350.07,342.687 354.403,337.687 358.5,332.5C 359.583,332.461 360.583,332.127 361.5,331.5C 362.386,332.325 362.719,333.325 362.5,334.5 Z"/></g>
<g><path style="opacity:1" fill="#5b4808" d="M 235.5,310.5 C 235.666,318.174 235.5,325.841 235,333.5C 234.167,334.333 233.333,335.167 232.5,336C 227.333,336.167 222.167,336.333 217,336.5C 211.454,336.495 206.288,335.828 201.5,334.5C 211.839,334.666 222.172,334.5 232.5,334C 233.056,333.617 233.389,333.117 233.5,332.5C 234.167,325.167 234.833,317.833 235.5,310.5 Z"/></g>
<g><path style="opacity:1" fill="#5d7886" d="M 385.5,297.5 C 385.167,298.833 384.833,300.167 384.5,301.5C 378.419,313.327 371.086,324.327 362.5,334.5C 362.719,333.325 362.386,332.325 361.5,331.5C 360.583,332.127 359.583,332.461 358.5,332.5C 367.745,321.019 375.745,308.685 382.5,295.5C 384.123,294.509 385.123,295.176 385.5,297.5 Z"/></g>
<g><path style="opacity:1" fill="#3b2e0a" d="M 175.5,322.5 C 175.5,323.833 175.5,325.167 175.5,326.5C 172.482,326.665 169.482,326.498 166.5,326C 165.944,325.617 165.611,325.117 165.5,324.5C 169.418,326.296 172.752,325.629 175.5,322.5 Z"/></g>
<g><path style="opacity:1" fill="#4f5156" d="M 329.5,316.5 C 326.5,320.167 323.167,323.5 319.5,326.5C 321.833,322.167 325.167,318.833 329.5,316.5 Z"/></g>
<g><path style="opacity:1" fill="#9c8113" d="M 283.5,314.5 C 279.376,318.281 274.709,321.281 269.5,323.5C 273.584,319.779 278.25,316.779 283.5,314.5 Z"/></g>
<g><path style="opacity:1" fill="#576f7f" d="M 39.5,293.5 C 45.1698,305.519 51.8365,316.853 59.5,327.5C 57.9731,327.427 56.9731,328.094 56.5,329.5C 48.2456,318.67 41.2456,307.003 35.5,294.5C 35.369,293.761 35.5357,293.094 36,292.5C 37.1448,292.619 38.3115,292.952 39.5,293.5 Z"/></g>
<g><path style="opacity:1" fill="#856a09" d="M 181.5,310.5 C 180.674,313.485 179.341,316.151 177.5,318.5C 177.53,315.148 178.863,312.482 181.5,310.5 Z"/></g>
<g><path style="opacity:1" fill="#7d660c" d="M 145.5,304.5 C 143.478,308.456 144.478,311.123 148.5,312.5C 153.672,315.585 158.672,318.919 163.5,322.5C 157.333,320.083 151.333,317.083 145.5,313.5C 144.104,312.148 143.437,310.481 143.5,308.5C 143.34,306.645 144.007,305.312 145.5,304.5 Z"/></g>
<g><path style="opacity:1" fill="#b79417" d="M 187.5,306.5 C 191.98,306.268 196.313,306.935 200.5,308.5C 201.498,316.472 201.831,324.472 201.5,332.5C 200.833,324.833 200.167,317.167 199.5,309.5C 195.098,309.692 191.098,308.692 187.5,306.5 Z"/></g>
<g><path style="opacity:1" fill="#715a09" d="M 258.5,320.5 C 255.165,315.828 251.832,311.162 248.5,306.5C 244.095,308.011 239.762,309.345 235.5,310.5C 234.833,317.833 234.167,325.167 233.5,332.5C 233.185,324.58 233.518,316.747 234.5,309C 239.847,307.596 245.18,306.596 250.5,306C 254.084,310.336 256.751,315.17 258.5,320.5 Z"/></g>
<g><path style="opacity:1" fill="#755d03" d="M 199.5,309.5 C 200.167,317.167 200.833,324.833 201.5,332.5C 201.5,333.167 201.5,333.833 201.5,334.5C 200.883,334.389 200.383,334.056 200,333.5C 199.5,325.507 199.334,317.507 199.5,309.5 Z"/></g>
<g><path style="opacity:1" fill="#575751" d="M 150.5,293.5 C 150.245,295.967 149.245,297.967 147.5,299.5C 147.565,299.062 147.399,298.728 147,298.5C 140.329,306.338 133.162,313.671 125.5,320.5C 133.472,311.194 141.805,302.194 150.5,293.5 Z"/></g>
<g><path style="opacity:1" fill="#7d6708" d="M 187.5,306.5 C 186.448,306.351 185.448,306.517 184.5,307C 183.837,308.518 182.837,309.685 181.5,310.5C 181.834,306.12 183.834,304.786 187.5,306.5 Z"/></g>
<g><path style="opacity:1" fill="#ba9c1e" d="M 286.5,302.5 C 287.167,302.833 287.833,303.167 288.5,303.5C 292.973,308.508 291.973,312.174 285.5,314.5C 285.855,312.11 286.522,309.777 287.5,307.5C 287.272,305.793 286.938,304.126 286.5,302.5 Z"/></g>
<g><path style="opacity:1" fill="#5a5a60" d="M 133.5,284.5 C 124.282,293.216 115.115,302.216 106,311.5C 105.333,313.167 105.333,314.833 106,316.5C 109.167,319.667 112.333,322.833 115.5,326C 116.793,326.49 118.127,326.657 119.5,326.5C 118.054,327.613 116.387,327.78 114.5,327C 109.855,323.199 106.188,318.699 103.5,313.5C 111.152,304.181 119.486,295.514 128.5,287.5C 130.354,286.759 132.021,285.759 133.5,284.5 Z"/></g>
<g><path style="opacity:1" fill="#73642b" d="M 281.5,291.5 C 284.5,293.167 286.833,295.5 288.5,298.5C 287.506,299.999 287.506,301.666 288.5,303.5C 287.833,303.167 287.167,302.833 286.5,302.5C 285.281,298.606 283.614,294.939 281.5,291.5 Z"/></g>
<g><path style="opacity:1" fill="#b1b4bf" d="M 299.5,282.5 C 302.563,286.566 306.229,289.899 310.5,292.5C 316.409,298.911 322.576,305.245 329,311.5C 329.494,313.134 329.66,314.801 329.5,316.5C 325.167,318.833 321.833,322.167 319.5,326.5C 317.801,326.66 316.134,326.494 314.5,326C 305.263,317.266 296.596,308.1 288.5,298.5C 286.833,295.5 284.5,293.167 281.5,291.5C 281.5,290.833 281.5,290.167 281.5,289.5C 281.351,288.448 281.517,287.448 282,286.5C 284.872,283.963 287.372,281.13 289.5,278C 290.5,277.333 291.5,277.333 292.5,278C 294.211,280.519 296.545,282.019 299.5,282.5 Z"/></g>
<g><path style="opacity:1" fill="#896509" d="M 237.5,285.5 C 234.34,287.504 230.673,288.671 226.5,289C 218.167,289.667 209.833,289.667 201.5,289C 200.584,288.722 199.918,288.222 199.5,287.5C 212.288,289.076 224.954,288.409 237.5,285.5 Z"/></g>
<g><path style="opacity:1" fill="#a68d1e" d="M 318.5,280.5 C 317.214,283.117 315.547,285.45 313.5,287.5C 308.696,287.681 304.696,286.015 301.5,282.5C 302.873,282.343 304.207,282.51 305.5,283C 307.6,285.641 310.266,286.641 313.5,286C 314.715,283.625 316.381,281.791 318.5,280.5 Z"/></g>
<g><path style="opacity:1" fill="#b2b6c0" d="M 152.5,289.5 C 152.267,291.062 151.6,292.395 150.5,293.5C 141.805,302.194 133.472,311.194 125.5,320.5C 123.806,322.861 121.806,324.861 119.5,326.5C 118.127,326.657 116.793,326.49 115.5,326C 112.333,322.833 109.167,319.667 106,316.5C 105.333,314.833 105.333,313.167 106,311.5C 115.115,302.216 124.282,293.216 133.5,284.5C 133.833,283.833 134.167,283.167 134.5,282.5C 136.027,282.573 137.027,281.906 137.5,280.5C 140.176,279.992 142.843,279.825 145.5,280C 148.888,282.531 151.221,285.698 152.5,289.5 Z"/></g>
<g><path style="opacity:1" fill="#605436" d="M 299.5,282.5 C 300.167,282.5 300.833,282.5 301.5,282.5C 304.696,286.015 308.696,287.681 313.5,287.5C 311.708,288.309 309.708,288.809 307.5,289C 308.71,290.039 309.71,291.206 310.5,292.5C 306.229,289.899 302.563,286.566 299.5,282.5 Z"/></g>
<g><path style="opacity:1" fill="#cdb777" d="M 301.5,282.5 C 300.833,282.5 300.167,282.5 299.5,282.5C 296.545,282.019 294.211,280.519 292.5,278C 291.5,277.333 290.5,277.333 289.5,278C 287.372,281.13 284.872,283.963 282,286.5C 281.517,287.448 281.351,288.448 281.5,289.5C 280.402,288.399 280.235,287.066 281,285.5C 283.845,282.885 286.345,280.051 288.5,277C 290.167,276.333 291.833,276.333 293.5,277C 295.819,279.474 298.486,281.307 301.5,282.5 Z"/></g>
<g><path style="opacity:1" fill="#b49010" d="M 165.5,271.5 C 166.391,272.11 167.391,272.443 168.5,272.5C 173.477,275.658 178.477,278.824 183.5,282C 189.039,283.543 194.373,285.376 199.5,287.5C 195.753,287.608 192.086,287.108 188.5,286C 184.706,283.982 180.706,282.482 176.5,281.5C 176.5,280.5 176.5,279.5 176.5,278.5C 171.59,277.891 167.924,275.558 165.5,271.5 Z"/></g>
<g><path style="opacity:1" fill="#89721b" d="M 110.5,270.5 C 114.961,274.195 117.961,278.862 119.5,284.5C 120.496,285.665 121.829,286.332 123.5,286.5C 127.075,284.878 130.741,283.544 134.5,282.5C 134.167,283.167 133.833,283.833 133.5,284.5C 132.021,285.759 130.354,286.759 128.5,287.5C 125.859,288.263 123.192,288.43 120.5,288C 117.017,282.193 113.683,276.36 110.5,270.5 Z"/></g>
<g><path style="opacity:1" fill="#dfbb31" d="M 148.5,312.5 C 144.478,311.123 143.478,308.456 145.5,304.5C 145.893,302.716 146.559,301.05 147.5,299.5C 149.245,297.967 150.245,295.967 150.5,293.5C 151.6,292.395 152.267,291.062 152.5,289.5C 153.598,288.399 153.765,287.066 153,285.5C 150.629,283.362 148.796,280.862 147.5,278C 143.632,277.028 140.299,277.861 137.5,280.5C 137.027,281.906 136.027,282.573 134.5,282.5C 130.741,283.544 127.075,284.878 123.5,286.5C 121.829,286.332 120.496,285.665 119.5,284.5C 123.694,284.45 127.694,283.617 131.5,282C 135.028,278.304 139.362,275.804 144.5,274.5C 145.5,274.667 146.5,274.833 147.5,275C 150.262,279.143 152.929,283.31 155.5,287.5C 152.836,292.505 151.003,297.839 150,303.5C 147.341,306.118 146.841,309.118 148.5,312.5 Z"/></g>
<g><path style="opacity:1" fill="#caba8b" d="M 152.5,289.5 C 151.221,285.698 148.888,282.531 145.5,280C 142.843,279.825 140.176,279.992 137.5,280.5C 140.299,277.861 143.632,277.028 147.5,278C 148.796,280.862 150.629,283.362 153,285.5C 153.765,287.066 153.598,288.399 152.5,289.5 Z"/></g>
<g><path style="opacity:1" fill="#394d5c" d="M 397.5,268.5 C 394.637,278.785 390.637,288.452 385.5,297.5C 385.123,295.176 384.123,294.509 382.5,295.5C 387.476,285.243 391.476,274.576 394.5,263.5C 395.117,263.389 395.617,263.056 396,262.5C 397.128,264.345 397.628,266.345 397.5,268.5 Z"/></g>
<g><path style="opacity:1" fill="#4e3b06" d="M 326.5,266.5 C 324.867,270.429 322.867,274.096 320.5,277.5C 321.298,273.911 322.631,270.578 324.5,267.5C 325.167,267.167 325.833,266.833 326.5,266.5 Z"/></g>
<g><path style="opacity:1" fill="#384a5a" d="M 27.5,261.5 C 29.2609,268.123 31.5942,274.457 34.5,280.5C 35.5842,285.09 37.2508,289.424 39.5,293.5C 38.3115,292.952 37.1448,292.619 36,292.5C 35.5357,293.094 35.369,293.761 35.5,294.5C 33.8333,291.167 32.1667,287.833 30.5,284.5C 27.5233,275.926 24.8567,267.259 22.5,258.5C 22.4346,258.062 22.6012,257.728 23,257.5C 23.7485,259.332 24.7485,260.999 26,262.5C 26.3826,261.944 26.8826,261.611 27.5,261.5 Z"/></g>
<g><path style="opacity:1" fill="#523819" d="M 275.5,257.5 C 272.208,262.46 268.208,266.793 263.5,270.5C 266.429,266.394 269.596,262.394 273,258.5C 273.671,257.748 274.504,257.414 275.5,257.5 Z"/></g>
<g><path style="opacity:1" fill="#7f6711" d="M 107.5,257.5 C 107.337,259.857 107.503,262.19 108,264.5C 109.319,266.287 110.152,268.287 110.5,270.5C 108.034,267.663 106.368,264.33 105.5,260.5C 105.64,258.97 106.307,257.97 107.5,257.5 Z"/></g>
<g><path style="opacity:1" fill="#a58718" d="M 325.5,256.5 C 326.496,256.414 327.329,256.748 328,257.5C 328.667,260.167 328.667,262.833 328,265.5C 327.617,266.056 327.117,266.389 326.5,266.5C 325.833,266.833 325.167,267.167 324.5,267.5C 326.485,263.941 326.818,260.274 325.5,256.5 Z"/></g>
<g><path style="opacity:1" fill="#7a6003" d="M 156.5,260.5 C 160.833,264.167 164.833,268.167 168.5,272.5C 167.391,272.443 166.391,272.11 165.5,271.5C 162.098,268.105 159.098,264.438 156.5,260.5 Z"/></g>
<g><path style="opacity:1" fill="#927307" d="M 147.5,246.5 C 150.579,249.65 152.913,253.317 154.5,257.5C 150.4,254.968 148.066,251.301 147.5,246.5 Z"/></g>
<g><path style="opacity:1" fill="#6e5a07" d="M 120.5,249.5 C 117.89,253.307 114.223,255.307 109.5,255.5C 112.999,253.25 116.665,251.25 120.5,249.5 Z"/></g>
<g><path style="opacity:1" fill="#69540b" d="M 313.5,249.5 C 316.992,250.41 319.992,252.076 322.5,254.5C 318.651,254.082 315.651,252.415 313.5,249.5 Z"/></g>
<g><path style="opacity:1" fill="#6b5809" d="M 307.5,246.5 C 309.967,246.755 311.967,247.755 313.5,249.5C 310.687,249.975 308.687,248.975 307.5,246.5 Z"/></g>
<g><path style="opacity:1" fill="#725b08" d="M 124.5,236.5 C 125.558,237.6 126.392,238.934 127,240.5C 129.196,246.728 127.029,249.728 120.5,249.5C 121.406,248.035 122.739,247.035 124.5,246.5C 124.833,245.5 125.167,244.5 125.5,243.5C 125.003,241.182 124.67,238.848 124.5,236.5 Z"/></g>
<g><path style="opacity:1" fill="#bd9d5e" d="M 199.5,229.5 C 199.181,234.363 199.514,239.03 200.5,243.5C 204.981,244.648 209.648,244.815 214.5,244C 218.371,242.488 222.371,241.655 226.5,241.5C 226.351,240.448 226.517,239.448 227,238.5C 229.492,236.211 231.992,233.877 234.5,231.5C 239.12,230.507 243.786,230.173 248.5,230.5C 248.436,234.22 247.936,237.886 247,241.5C 245.989,242.337 244.822,242.67 243.5,242.5C 243.5,243.833 243.5,245.167 243.5,246.5C 241.169,249.671 238.503,252.504 235.5,255C 232.285,255.274 229.619,256.607 227.5,259C 223.91,259.311 220.577,260.144 217.5,261.5C 206.495,261.667 195.495,261.5 184.5,261C 184,260.5 183.5,260 183,259.5C 182.5,249.506 182.334,239.506 182.5,229.5C 188.167,229.5 193.833,229.5 199.5,229.5 Z"/></g>
<g><path style="opacity:1" fill="#7a6643" d="M 181.5,228.5 C 187.69,228.177 193.69,228.51 199.5,229.5C 193.833,229.5 188.167,229.5 182.5,229.5C 182.334,239.506 182.5,249.506 183,259.5C 183.5,260 184,260.5 184.5,261C 195.495,261.5 206.495,261.667 217.5,261.5C 206.341,262.659 195.008,262.826 183.5,262C 182.299,261.097 181.465,259.931 181,258.5C 180.175,248.325 180.342,238.325 181.5,228.5 Z"/></g>
<g><path style="opacity:1" fill="#80650d" d="M 287.5,236.5 C 287.263,239.647 286.43,242.647 285,245.5C 283.131,249.637 280.631,253.303 277.5,256.5C 281.033,249.877 284.367,243.21 287.5,236.5 Z"/></g>
<g><path style="opacity:1" fill="#856706" d="M 143.5,235.5 C 145.642,238.8 146.975,242.467 147.5,246.5C 145,243.34 143.667,239.673 143.5,235.5 Z"/></g>
<g><path style="opacity:1" fill="#372901" d="M 99.5,231.5 C 107.5,231.5 115.5,231.5 123.5,231.5C 124.434,232.568 124.768,233.901 124.5,235.5C 123.596,234.791 123.263,233.791 123.5,232.5C 115.316,232.826 107.316,232.492 99.5,231.5 Z"/></g>
<g><path style="opacity:1" fill="#968052" d="M 243.5,246.5 C 243.5,245.167 243.5,243.833 243.5,242.5C 244.822,242.67 245.989,242.337 247,241.5C 247.936,237.886 248.436,234.22 248.5,230.5C 243.786,230.173 239.12,230.507 234.5,231.5C 231.992,233.877 229.492,236.211 227,238.5C 226.517,239.448 226.351,240.448 226.5,241.5C 222.371,241.655 218.371,242.488 214.5,244C 209.648,244.815 204.981,244.648 200.5,243.5C 214.365,244.728 225.365,239.894 233.5,229C 240.158,228.5 246.825,228.334 253.5,228.5C 251.193,233.686 249.027,239.019 247,244.5C 245.887,245.305 244.721,245.972 243.5,246.5 Z"/></g>
<g><path style="opacity:1" fill="#4d3f24" d="M 181.5,228.5 C 187.645,227.51 193.978,227.177 200.5,227.5C 200.5,232.833 200.5,238.167 200.5,243.5C 199.514,239.03 199.181,234.363 199.5,229.5C 193.69,228.51 187.69,228.177 181.5,228.5 Z"/></g>
</svg>
