<?xml version="1.0" encoding="UTF-8"?>
<!DOCTYPE svg PUBLIC "-//W3C//DTD SVG 1.1//EN" "http://www.w3.org/Graphics/SVG/1.1/DTD/svg11.dtd">
<svg xmlns="http://www.w3.org/2000/svg" version="1.1" width="139px" height="139px" style="shape-rendering:geometricPrecision; text-rendering:geometricPrecision; image-rendering:optimizeQuality; fill-rule:evenodd; clip-rule:evenodd" xmlns:xlink="http://www.w3.org/1999/xlink">
<g><path style="opacity:1" fill="#fcf1b2" d="M 57.5,8.5 C 64.3543,8.17596 71.021,8.50929 77.5,9.5C 70.443,9.23998 63.443,9.57331 56.5,10.5C 56.8333,9.83333 57.1667,9.16667 57.5,8.5 Z"/></g>
<g><path style="opacity:1" fill="#efe285" d="M 77.5,9.5 C 82.7062,9.81172 87.7062,10.9784 92.5,13C 93.3805,13.7083 94.0472,14.5416 94.5,15.5C 91.1893,15.0909 88.1893,13.9242 85.5,12C 82.854,11.5026 80.1873,11.3359 77.5,11.5C 77.5,10.8333 77.5,10.1667 77.5,9.5 Z"/></g>
<g><path style="opacity:0.966" fill="#d6ba66" d="M 57.5,0.5 C 58.4778,0.811029 59.1445,1.4777 59.5,2.5C 56.7021,3.9689 53.7021,4.80224 50.5,5C 49.944,5.38258 49.6107,5.88258 49.5,6.5C 44.8986,8.66222 40.2319,10.8289 35.5,13C 31.5818,16.435 27.5818,19.6016 23.5,22.5C 21.5,23.1667 19.5,23.8333 17.5,24.5C 17.5772,27.0124 16.5772,29.0124 14.5,30.5C 13.8182,29.7573 13.1515,29.0906 12.5,28.5C 23.3803,12.6332 38.3803,3.29982 57.5,0.5 Z"/></g>
<g><path style="opacity:1" fill="#ebcf37" d="M 77.5,11.5 C 80.1873,11.3359 82.854,11.5026 85.5,12C 88.1893,13.9242 91.1893,15.0909 94.5,15.5C 92.9367,18.7491 93.77,19.7491 97,18.5C 98.395,18.7804 99.5617,19.4471 100.5,20.5C 98.3113,21.1735 96.3113,22.1735 94.5,23.5C 93.5,23.1667 92.8333,22.5 92.5,21.5C 82.5222,20.5015 72.5222,20.1681 62.5,20.5C 62.5,22.8333 62.5,25.1667 62.5,27.5C 61.7321,26.7375 61.2321,25.7375 61,24.5C 60.0255,26.8776 59.3589,26.5443 59,23.5C 58.1247,25.5127 56.7913,25.5127 55,23.5C 53.6054,24.8146 52.6054,24.4812 52,22.5C 51.6667,22.8333 51.3333,23.1667 51,23.5C 50.6667,22.1667 50.3333,20.8333 50,19.5C 49.5172,20.448 49.3505,21.448 49.5,22.5C 48.7784,22.9175 48.2784,23.5842 48,24.5C 46.3688,18.6733 48.2021,14.5067 53.5,12C 61.4931,11.5003 69.4931,11.3336 77.5,11.5 Z"/></g>
<g><path style="opacity:1" fill="#ac9451" d="M 57.5,0.5 C 57.5,0.166667 57.5,-0.166667 57.5,-0.5C 65.1667,-0.5 72.8333,-0.5 80.5,-0.5C 94.4577,2.14526 106.458,8.4786 116.5,18.5C 115.325,18.281 114.325,18.6143 113.5,19.5C 116.337,21.9922 118.337,24.9922 119.5,28.5C 103.149,9.56634 82.4828,1.89967 57.5,5.5C 54.8333,5.83333 52.1667,6.16667 49.5,6.5C 49.6107,5.88258 49.944,5.38258 50.5,5C 53.7021,4.80224 56.7021,3.9689 59.5,2.5C 59.1445,1.4777 58.4778,0.811029 57.5,0.5 Z"/></g>
<g><path style="opacity:1" fill="#e7df97" d="M 34.5,20.5 C 30.1927,24.4718 25.8593,28.4718 21.5,32.5C 24.5537,27.1129 28.887,23.1129 34.5,20.5 Z"/></g>
<g><path style="opacity:1" fill="#f9f5e7" d="M 119.5,28.5 C 133.03,47.2029 136.363,67.5362 129.5,89.5C 128.504,89.4142 127.671,89.7476 127,90.5C 126.699,87.4929 126.865,84.4929 127.5,81.5C 128.574,73.2018 128.74,64.8684 128,56.5C 127.054,52.9724 125.887,49.6391 124.5,46.5C 122.745,44.1965 121.578,41.5298 121,38.5C 118.958,35.0595 116.458,32.0595 113.5,29.5C 111.12,26.1195 108.12,23.4528 104.5,21.5C 101.802,18.4827 98.4689,16.4827 94.5,15.5C 94.0472,14.5416 93.3805,13.7083 92.5,13C 87.7062,10.9784 82.7062,9.81172 77.5,9.5C 71.021,8.50929 64.3543,8.17596 57.5,8.5C 55.8008,8.66018 54.1341,8.49351 52.5,8C 54.744,7.95042 56.4107,7.11709 57.5,5.5C 82.4828,1.89967 103.149,9.56634 119.5,28.5 Z"/></g>
<g><path style="opacity:1" fill="#edd346" d="M 94.5,15.5 C 98.4689,16.4827 101.802,18.4827 104.5,21.5C 104.525,24.179 105.858,25.5123 108.5,25.5C 108.567,26.9587 108.234,28.2921 107.5,29.5C 105.633,29.045 103.8,28.3784 102,27.5C 101.167,27.6667 100.333,27.8333 99.5,28C 102.375,28.8945 102.708,29.7278 100.5,30.5C 94.884,29.9283 89.2173,29.9283 83.5,30.5C 78.4353,30.9272 74.1019,29.5939 70.5,26.5C 69.3652,28.7067 68.6985,31.0401 68.5,33.5C 66.0661,32.2287 64.5661,30.2287 64,27.5C 63.31,28.7383 62.81,28.7383 62.5,27.5C 62.5,25.1667 62.5,22.8333 62.5,20.5C 72.5222,20.1681 82.5222,20.5015 92.5,21.5C 92.8333,22.5 93.5,23.1667 94.5,23.5C 96.3113,22.1735 98.3113,21.1735 100.5,20.5C 99.5617,19.4471 98.395,18.7804 97,18.5C 93.77,19.7491 92.9367,18.7491 94.5,15.5 Z"/></g>
<g><path style="opacity:1" fill="#d9c03e" d="M 62.5,27.5 C 62.81,28.7383 63.31,28.7383 64,27.5C 64.5661,30.2287 66.0661,32.2287 68.5,33.5C 69.3786,36.7012 71.0453,39.3678 73.5,41.5C 73.5,42.1667 73.5,42.8333 73.5,43.5C 71.6561,42.3117 69.8228,41.3117 68,40.5C 66.8831,40.6651 65.7164,40.9984 64.5,41.5C 63.9805,37.5307 62.8138,34.5307 61,32.5C 59.2513,33.299 57.918,32.6324 57,30.5C 56.8275,34.8711 56.3275,39.2044 55.5,43.5C 53.5914,42.6518 51.5914,42.3184 49.5,42.5C 49.5,35.8333 49.5,29.1667 49.5,22.5C 49.3505,21.448 49.5172,20.448 50,19.5C 50.3333,20.8333 50.6667,22.1667 51,23.5C 51.3333,23.1667 51.6667,22.8333 52,22.5C 52.6054,24.4812 53.6054,24.8146 55,23.5C 56.7913,25.5127 58.1247,25.5127 59,23.5C 59.3589,26.5443 60.0255,26.8776 61,24.5C 61.2321,25.7375 61.7321,26.7375 62.5,27.5 Z"/></g>
<g><path style="opacity:1" fill="#eed552" d="M 107.5,29.5 C 109.167,29.5 110.833,29.5 112.5,29.5C 113.092,32.1272 113.425,34.7938 113.5,37.5C 115.346,37.2222 116.68,37.8888 117.5,39.5C 116.033,39.723 114.533,40.0563 113,40.5C 112.457,38.3686 111.624,36.3686 110.5,34.5C 107.997,36.5935 104.997,37.5935 101.5,37.5C 92.7883,37.0537 84.1217,36.387 75.5,35.5C 72.2914,36.6475 71.6247,38.6475 73.5,41.5C 71.0453,39.3678 69.3786,36.7012 68.5,33.5C 68.6985,31.0401 69.3652,28.7067 70.5,26.5C 74.1019,29.5939 78.4353,30.9272 83.5,30.5C 89.2173,29.9283 94.884,29.9283 100.5,30.5C 102.708,29.7278 102.375,28.8945 99.5,28C 100.333,27.8333 101.167,27.6667 102,27.5C 103.8,28.3784 105.633,29.045 107.5,29.5 Z"/></g>
<g><path style="opacity:0.964" fill="#a88e4c" d="M 116.5,18.5 C 128.253,29.0054 135.586,42.0054 138.5,57.5C 138.5,65.1667 138.5,72.8333 138.5,80.5C 137.268,86.4206 135.268,92.0873 132.5,97.5C 130.947,99.385 128.947,100.385 126.5,100.5C 126.167,103.5 124.5,105.167 121.5,105.5C 124.694,100.446 127.361,95.1122 129.5,89.5C 136.363,67.5362 133.03,47.2029 119.5,28.5C 118.337,24.9922 116.337,21.9922 113.5,19.5C 114.325,18.6143 115.325,18.281 116.5,18.5 Z"/></g>
<g><path style="opacity:1" fill="#ddc545" d="M 77.5,9.5 C 77.5,10.1667 77.5,10.8333 77.5,11.5C 69.4931,11.3336 61.4931,11.5003 53.5,12C 48.2021,14.5067 46.3688,18.6733 48,24.5C 48.2784,23.5842 48.7784,22.9175 49.5,22.5C 49.5,29.1667 49.5,35.8333 49.5,42.5C 46.6146,42.1936 43.9479,42.5269 41.5,43.5C 40.8333,43.5 40.5,43.8333 40.5,44.5C 39.391,44.5569 38.391,44.8902 37.5,45.5C 37.8288,39.7945 37.4954,34.1278 36.5,28.5C 35.8333,34.8333 35.1667,41.1667 34.5,47.5C 33.8333,44.8333 33.1667,42.1667 32.5,39.5C 31.914,39.2907 31.414,38.9574 31,38.5C 30.8214,41.5535 30.3214,44.5535 29.5,47.5C 28.2011,46.91 27.3678,45.91 27,44.5C 26.6667,45.5 26.3333,46.5 26,47.5C 23.2734,32.7863 21.9401,33.1197 22,48.5C 21.5008,43.8452 21.3342,39.1785 21.5,34.5C 21.5,33.8333 21.5,33.1667 21.5,32.5C 25.8593,28.4718 30.1927,24.4718 34.5,20.5C 38.7069,17.5664 43.0402,14.8997 47.5,12.5C 50.4196,11.4144 53.4196,10.7477 56.5,10.5C 63.443,9.57331 70.443,9.23998 77.5,9.5 Z"/></g>
<g><path style="opacity:1" fill="#edd75e" d="M 104.5,21.5 C 108.12,23.4528 111.12,26.1195 113.5,29.5C 116.801,34.24 119.135,39.5733 120.5,45.5C 118.338,45.1028 117.005,43.7695 116.5,41.5C 115.552,44.715 114.219,45.0484 112.5,42.5C 111.522,42.9767 110.689,43.6433 110,44.5C 99.5611,43.1813 89.0611,43.1813 78.5,44.5C 77.7542,45.7362 77.4208,47.0695 77.5,48.5C 76.8333,48.5 76.1667,48.5 75.5,48.5C 74.8333,46.8333 74.1667,45.1667 73.5,43.5C 73.5,42.8333 73.5,42.1667 73.5,41.5C 71.6247,38.6475 72.2914,36.6475 75.5,35.5C 84.1217,36.387 92.7883,37.0537 101.5,37.5C 104.997,37.5935 107.997,36.5935 110.5,34.5C 111.624,36.3686 112.457,38.3686 113,40.5C 114.533,40.0563 116.033,39.723 117.5,39.5C 116.68,37.8888 115.346,37.2222 113.5,37.5C 113.425,34.7938 113.092,32.1272 112.5,29.5C 110.833,29.5 109.167,29.5 107.5,29.5C 108.234,28.2921 108.567,26.9587 108.5,25.5C 105.858,25.5123 104.525,24.179 104.5,21.5 Z"/></g>
<g><path style="opacity:1" fill="#615216" d="M 41.5,43.5 C 45.7016,43.1832 49.7016,43.5166 53.5,44.5C 49.0685,44.2307 44.7352,44.564 40.5,45.5C 40.5,45.1667 40.5,44.8333 40.5,44.5C 40.5,43.8333 40.8333,43.5 41.5,43.5 Z"/></g>
<g><path style="opacity:1" fill="#d5be4e" d="M 73.5,43.5 C 74.1667,45.1667 74.8333,46.8333 75.5,48.5C 73.8333,48.5 72.1667,48.5 70.5,48.5C 69.0108,50.1161 68.0108,52.1161 67.5,54.5C 65.2706,53.4229 62.9372,52.7563 60.5,52.5C 60.0012,49.7361 58.3345,48.0695 55.5,47.5C 54.5987,46.7095 53.9321,45.7095 53.5,44.5C 49.7016,43.5166 45.7016,43.1832 41.5,43.5C 43.9479,42.5269 46.6146,42.1936 49.5,42.5C 51.5914,42.3184 53.5914,42.6518 55.5,43.5C 56.3275,39.2044 56.8275,34.8711 57,30.5C 57.918,32.6324 59.2513,33.299 61,32.5C 62.8138,34.5307 63.9805,37.5307 64.5,41.5C 65.7164,40.9984 66.8831,40.6651 68,40.5C 69.8228,41.3117 71.6561,42.3117 73.5,43.5 Z"/></g>
<g><path style="opacity:1" fill="#eed968" d="M 120.5,45.5 C 121.167,45.5 121.5,45.8333 121.5,46.5C 120.687,47.6527 119.687,47.6527 118.5,46.5C 117.167,47.5 115.833,48.5 114.5,49.5C 110.026,47.5321 105.36,47.0321 100.5,48C 98.9632,49.1096 98.2965,50.6096 98.5,52.5C 95.6075,51.477 92.7742,51.477 90,52.5C 89.7978,50.7444 89.2978,49.0777 88.5,47.5C 87.3554,48.7757 87.3554,50.109 88.5,51.5C 88.1345,52.9019 87.3012,53.9019 86,54.5C 83.683,53.0148 81.5164,51.3481 79.5,49.5C 79.1583,48.6618 78.4916,48.3284 77.5,48.5C 77.4208,47.0695 77.7542,45.7362 78.5,44.5C 89.0611,43.1813 99.5611,43.1813 110,44.5C 110.689,43.6433 111.522,42.9767 112.5,42.5C 114.219,45.0484 115.552,44.715 116.5,41.5C 117.005,43.7695 118.338,45.1028 120.5,45.5 Z"/></g>
<g><path style="opacity:1" fill="#372a03" d="M 53.5,44.5 C 53.9321,45.7095 54.5987,46.7095 55.5,47.5C 55.5,48.1667 55.5,48.8333 55.5,49.5C 54.469,50.2485 53.3024,50.9152 52,51.5C 50.3221,49.4468 48.4888,49.1134 46.5,50.5C 46.0679,51.7095 45.4013,52.7095 44.5,53.5C 42.9139,52.5868 41.4139,52.5868 40,53.5C 39.3333,50.8333 38.6667,50.8333 38,53.5C 37.5357,52.9056 37.369,52.2389 37.5,51.5C 38.1228,49.2895 39.1228,47.2895 40.5,45.5C 44.7352,44.564 49.0685,44.2307 53.5,44.5 Z"/></g>
<g><path style="opacity:1" fill="#fcf9e7" d="M 57.5,5.5 C 56.4107,7.11709 54.744,7.95042 52.5,8C 54.1341,8.49351 55.8008,8.66018 57.5,8.5C 57.1667,9.16667 56.8333,9.83333 56.5,10.5C 53.4196,10.7477 50.4196,11.4144 47.5,12.5C 43.0402,14.8997 38.7069,17.5664 34.5,20.5C 28.887,23.1129 24.5537,27.1129 21.5,32.5C 21.5,33.1667 21.5,33.8333 21.5,34.5C 19.8103,36.5193 18.1436,38.5193 16.5,40.5C 15.5416,40.9528 14.7083,41.6195 14,42.5C 9.15949,56.9722 8.32615,71.6389 11.5,86.5C 11.5111,88.5466 11.8444,90.5466 12.5,92.5C 12.2528,93.7133 11.5862,94.38 10.5,94.5C 0.101678,67.713 4.43501,43.713 23.5,22.5C 27.5818,19.6016 31.5818,16.435 35.5,13C 40.2319,10.8289 44.8986,8.66222 49.5,6.5C 52.1667,6.16667 54.8333,5.83333 57.5,5.5 Z"/></g>
<g><path style="opacity:1" fill="#ebd76b" d="M 37.5,45.5 C 35.9394,50.7337 33.4394,54.7337 30,57.5C 26.0852,56.5922 22.0852,55.9255 18,55.5C 15.7448,55.6095 14.0781,56.6095 13,58.5C 12.5172,57.552 12.3505,56.552 12.5,55.5C 14.1248,50.6899 15.4582,45.6899 16.5,40.5C 18.1436,38.5193 19.8103,36.5193 21.5,34.5C 21.3342,39.1785 21.5008,43.8452 22,48.5C 21.9401,33.1197 23.2734,32.7863 26,47.5C 26.3333,46.5 26.6667,45.5 27,44.5C 27.3678,45.91 28.2011,46.91 29.5,47.5C 30.3214,44.5535 30.8214,41.5535 31,38.5C 31.414,38.9574 31.914,39.2907 32.5,39.5C 33.1667,42.1667 33.8333,44.8333 34.5,47.5C 35.1667,41.1667 35.8333,34.8333 36.5,28.5C 37.4954,34.1278 37.8288,39.7945 37.5,45.5 Z"/></g>
<g><path style="opacity:1" fill="#eedc7d" d="M 113.5,29.5 C 116.458,32.0595 118.958,35.0595 121,38.5C 121.578,41.5298 122.745,44.1965 124.5,46.5C 125.335,53.8294 125.835,61.1627 126,68.5C 125.692,67.6919 125.192,67.0253 124.5,66.5C 123.852,68.1492 122.852,69.4825 121.5,70.5C 119.3,68.7471 118.133,66.4138 118,63.5C 117.464,65.8689 116.297,67.8689 114.5,69.5C 113.808,68.9747 113.308,68.3081 113,67.5C 111.928,61.5453 111.428,55.5453 111.5,49.5C 113.043,50.7358 114.043,52.4024 114.5,54.5C 113.355,55.891 113.355,57.2243 114.5,58.5C 115.216,56.518 116.383,54.8513 118,53.5C 118.879,56.3463 120.546,57.013 123,55.5C 123.781,52.1834 123.281,49.1834 121.5,46.5C 121.5,45.8333 121.167,45.5 120.5,45.5C 119.135,39.5733 116.801,34.24 113.5,29.5 Z"/></g>
<g><path style="opacity:1" fill="#eedb77" d="M 121.5,46.5 C 123.281,49.1834 123.781,52.1834 123,55.5C 120.546,57.013 118.879,56.3463 118,53.5C 116.383,54.8513 115.216,56.518 114.5,58.5C 113.355,57.2243 113.355,55.891 114.5,54.5C 114.043,52.4024 113.043,50.7358 111.5,49.5C 111.167,49.5 110.833,49.5 110.5,49.5C 107.713,48.5233 104.713,48.19 101.5,48.5C 101.5,54.1667 101.5,59.8333 101.5,65.5C 99.7837,67.0248 97.7837,68.0248 95.5,68.5C 94.448,68.6495 93.448,68.4828 92.5,68C 87.9357,63.6046 83.6023,59.1046 79.5,54.5C 79.5,52.8333 79.5,51.1667 79.5,49.5C 81.5164,51.3481 83.683,53.0148 86,54.5C 87.3012,53.9019 88.1345,52.9019 88.5,51.5C 87.3554,50.109 87.3554,48.7757 88.5,47.5C 89.2978,49.0777 89.7978,50.7444 90,52.5C 92.7742,51.477 95.6075,51.477 98.5,52.5C 98.2965,50.6096 98.9632,49.1096 100.5,48C 105.36,47.0321 110.026,47.5321 114.5,49.5C 115.833,48.5 117.167,47.5 118.5,46.5C 119.687,47.6527 120.687,47.6527 121.5,46.5 Z"/></g>
<g><path style="opacity:1" fill="#544706" d="M 46.5,50.5 C 48.4888,49.1134 50.3221,49.4468 52,51.5C 53.3024,50.9152 54.469,50.2485 55.5,49.5C 59.2604,54.6837 62.2604,60.3504 64.5,66.5C 63.8826,66.6107 63.3826,66.944 63,67.5C 60.2621,66.271 57.5955,64.9377 55,63.5C 49.9283,64.4714 44.7616,64.8047 39.5,64.5C 39.6495,63.448 39.4828,62.448 39,61.5C 38,62.8333 37,62.8333 36,61.5C 35,62.8333 34,64.1667 33,65.5C 32.6582,63.3808 31.8249,63.0474 30.5,64.5C 32.5826,59.9996 34.9159,55.6662 37.5,51.5C 37.369,52.2389 37.5357,52.9056 38,53.5C 38.6667,50.8333 39.3333,50.8333 40,53.5C 41.4139,52.5868 42.9139,52.5868 44.5,53.5C 43.4533,56.5963 42.12,59.5963 40.5,62.5C 44.8333,63.8333 49.1667,63.8333 53.5,62.5C 52.1624,57.8117 49.8291,53.8117 46.5,50.5 Z"/></g>
<g><path style="opacity:1" fill="#b5a557" d="M 110.5,49.5 C 107.833,49.5 105.167,49.5 102.5,49.5C 102.821,55.0262 102.488,60.3595 101.5,65.5C 101.5,59.8333 101.5,54.1667 101.5,48.5C 104.713,48.19 107.713,48.5233 110.5,49.5 Z"/></g>
<g><path style="opacity:1" fill="#ead879" d="M 55.5,47.5 C 58.3345,48.0695 60.0012,49.7361 60.5,52.5C 62.9372,52.7563 65.2706,53.4229 67.5,54.5C 68.0108,52.1161 69.0108,50.1161 70.5,48.5C 70.5,54.8333 70.5,61.1667 70.5,67.5C 70.1788,69.0481 69.1788,69.7148 67.5,69.5C 66.2719,68.6935 65.2719,67.6935 64.5,66.5C 62.2604,60.3504 59.2604,54.6837 55.5,49.5C 55.5,48.8333 55.5,48.1667 55.5,47.5 Z"/></g>
<g><path style="opacity:1" fill="#eedc7f" d="M 40.5,44.5 C 40.5,44.8333 40.5,45.1667 40.5,45.5C 39.1228,47.2895 38.1228,49.2895 37.5,51.5C 34.9159,55.6662 32.5826,59.9996 30.5,64.5C 29.5,65.8333 28.5,67.1667 27.5,68.5C 27.631,67.7611 27.4643,67.0944 27,66.5C 23.949,71.2764 20.7823,71.4431 17.5,67C 15.7928,66.8047 14.1261,66.8047 12.5,67C 11.179,63.0659 11.179,59.2326 12.5,55.5C 12.3505,56.552 12.5172,57.552 13,58.5C 14.0781,56.6095 15.7448,55.6095 18,55.5C 22.0852,55.9255 26.0852,56.5922 30,57.5C 33.4394,54.7337 35.9394,50.7337 37.5,45.5C 38.391,44.8902 39.391,44.5569 40.5,44.5 Z"/></g>
<g><path style="opacity:1" fill="#ead87b" d="M 46.5,50.5 C 49.8291,53.8117 52.1624,57.8117 53.5,62.5C 49.1667,63.8333 44.8333,63.8333 40.5,62.5C 42.12,59.5963 43.4533,56.5963 44.5,53.5C 45.4013,52.7095 46.0679,51.7095 46.5,50.5 Z"/></g>
<g><path style="opacity:1" fill="#7f6f21" d="M 70.5,48.5 C 72.1667,48.5 73.8333,48.5 75.5,48.5C 76.1667,48.5 76.8333,48.5 77.5,48.5C 78.4916,48.3284 79.1583,48.6618 79.5,49.5C 79.5,51.1667 79.5,52.8333 79.5,54.5C 79.5,57.8333 79.5,61.1667 79.5,64.5C 78.5128,59.6946 78.1795,54.6946 78.5,49.5C 76.1667,49.5 73.8333,49.5 71.5,49.5C 71.5,55.5 71.5,61.5 71.5,67.5C 71.1667,67.5 70.8333,67.5 70.5,67.5C 70.5,61.1667 70.5,54.8333 70.5,48.5 Z"/></g>
<g><path style="opacity:1" fill="#4c3f05" d="M 79.5,64.5 C 79.8333,65.8333 80.1667,67.1667 80.5,68.5C 78.9509,68.7358 77.4509,68.7358 76,68.5C 74.6976,69.0848 73.531,69.7515 72.5,70.5C 71.596,69.791 71.2627,68.791 71.5,67.5C 71.5,61.5 71.5,55.5 71.5,49.5C 73.8333,49.5 76.1667,49.5 78.5,49.5C 78.1795,54.6946 78.5128,59.6946 79.5,64.5 Z"/></g>
<g><path style="opacity:1" fill="#c4b14e" d="M 79.5,54.5 C 83.6023,59.1046 87.9357,63.6046 92.5,68C 93.448,68.4828 94.448,68.6495 95.5,68.5C 95.5,68.8333 95.5,69.1667 95.5,69.5C 91.5,69.5 87.5,69.5 83.5,69.5C 82.391,69.4431 81.391,69.1098 80.5,68.5C 80.1667,67.1667 79.8333,65.8333 79.5,64.5C 79.5,61.1667 79.5,57.8333 79.5,54.5 Z"/></g>
<g><path style="opacity:1" fill="#463b06" d="M 110.5,49.5 C 110.5,58.5 110.5,67.5 110.5,76.5C 107.833,76.5 105.167,76.5 102.5,76.5C 102.879,73.4331 101.879,72.4331 99.5,73.5C 97.5,72.8333 96.1667,71.5 95.5,69.5C 95.5,69.1667 95.5,68.8333 95.5,68.5C 97.7837,68.0248 99.7837,67.0248 101.5,65.5C 102.488,60.3595 102.821,55.0262 102.5,49.5C 105.167,49.5 107.833,49.5 110.5,49.5 Z"/></g>
<g><path style="opacity:1" fill="#433808" d="M 64.5,66.5 C 65.2719,67.6935 66.2719,68.6935 67.5,69.5C 67.8925,71.2838 68.5592,72.9505 69.5,74.5C 67.0122,76.3878 64.0122,77.0545 60.5,76.5C 59.914,74.1602 58.914,71.9935 57.5,70C 50.4763,69.1689 43.4763,69.3356 36.5,70.5C 36.0576,71.7387 35.3909,72.7387 34.5,73.5C 33.549,71.528 32.549,69.528 31.5,67.5C 30.3892,69.5522 28.7225,70.8855 26.5,71.5C 26.5569,70.391 26.8902,69.391 27.5,68.5C 28.5,67.1667 29.5,65.8333 30.5,64.5C 31.8249,63.0474 32.6582,63.3808 33,65.5C 34,64.1667 35,62.8333 36,61.5C 37,62.8333 38,62.8333 39,61.5C 39.4828,62.448 39.6495,63.448 39.5,64.5C 44.7616,64.8047 49.9283,64.4714 55,63.5C 57.5955,64.9377 60.2621,66.271 63,67.5C 63.3826,66.944 63.8826,66.6107 64.5,66.5 Z"/></g>
<g><path style="opacity:1" fill="#3b3009" d="M 34.5,73.5 C 34.4431,74.609 34.1098,75.609 33.5,76.5C 30.2869,76.81 27.2869,76.4767 24.5,75.5C 24.6596,73.847 25.3263,72.5137 26.5,71.5C 28.7225,70.8855 30.3892,69.5522 31.5,67.5C 32.549,69.528 33.549,71.528 34.5,73.5 Z"/></g>
<g><path style="opacity:1" fill="#eddf97" d="M 16.5,40.5 C 15.4582,45.6899 14.1248,50.6899 12.5,55.5C 11.179,59.2326 11.179,63.0659 12.5,67C 14.1261,66.8047 15.7928,66.8047 17.5,67C 20.7823,71.4431 23.949,71.2764 27,66.5C 27.4643,67.0944 27.631,67.7611 27.5,68.5C 26.8902,69.391 26.5569,70.391 26.5,71.5C 25.3263,72.5137 24.6596,73.847 24.5,75.5C 23.9569,75.56 23.6236,75.8933 23.5,76.5C 26.9798,77.8056 30.3132,77.8056 33.5,76.5C 34.1098,75.609 34.4431,74.609 34.5,73.5C 35.3909,72.7387 36.0576,71.7387 36.5,70.5C 43.4763,69.3356 50.4763,69.1689 57.5,70C 58.914,71.9935 59.914,74.1602 60.5,76.5C 60.5,77.1667 60.8333,77.5 61.5,77.5C 63.6581,79.22 66.3248,80.0533 69.5,80C 68.6634,81.0113 68.33,82.1779 68.5,83.5C 64.6242,85.9822 60.7908,85.9822 57,83.5C 55.0061,84.6642 52.8395,85.3308 50.5,85.5C 42.8245,84.8701 35.1578,84.2034 27.5,83.5C 25.6195,83.9252 24.1195,84.9252 23,86.5C 20.1063,85.3032 17.273,83.9699 14.5,82.5C 13.5344,84.396 13.2011,86.396 13.5,88.5C 12.8333,87.8333 12.1667,87.1667 11.5,86.5C 8.32615,71.6389 9.15949,56.9722 14,42.5C 14.7083,41.6195 15.5416,40.9528 16.5,40.5 Z"/></g>
<g><path style="opacity:1" fill="#41370a" d="M 80.5,68.5 C 81.391,69.1098 82.391,69.4431 83.5,69.5C 88.019,69.5169 91.6857,71.3502 94.5,75C 92.9419,75.21 91.6085,75.71 90.5,76.5C 88.3926,77.4682 86.0593,77.8016 83.5,77.5C 80.763,76.969 78.0964,76.1356 75.5,75C 73.8588,73.871 72.8588,72.371 72.5,70.5C 73.531,69.7515 74.6976,69.0848 76,68.5C 77.4509,68.7358 78.9509,68.7358 80.5,68.5 Z"/></g>
<g><path style="opacity:1" fill="#6f5e19" d="M 83.5,69.5 C 87.5,69.5 91.5,69.5 95.5,69.5C 96.1667,71.5 97.5,72.8333 99.5,73.5C 99.5,74.1667 99.1667,74.5 98.5,74.5C 95.9752,75.64 93.3085,76.3067 90.5,76.5C 91.6085,75.71 92.9419,75.21 94.5,75C 91.6857,71.3502 88.019,69.5169 83.5,69.5 Z"/></g>
<g><path style="opacity:1" fill="#eadc93" d="M 124.5,46.5 C 125.887,49.6391 127.054,52.9724 128,56.5C 128.74,64.8684 128.574,73.2018 127.5,81.5C 126.883,81.6107 126.383,81.944 126,82.5C 124.465,92.2374 120.298,100.571 113.5,107.5C 113.5,106.5 113.5,105.5 113.5,104.5C 115.796,102.599 117.629,100.266 119,97.5C 119.82,95.272 119.487,93.272 118,91.5C 115.961,92.9783 115.128,94.9783 115.5,97.5C 114.5,97.5 113.5,97.5 112.5,97.5C 112.33,96.1779 112.663,95.0113 113.5,94C 109.349,88.1742 105.349,82.3408 101.5,76.5C 99.8008,76.6602 98.1341,76.4935 96.5,76C 97.4158,75.7216 98.0825,75.2216 98.5,74.5C 99.1667,74.5 99.5,74.1667 99.5,73.5C 101.879,72.4331 102.879,73.4331 102.5,76.5C 105.167,76.5 107.833,76.5 110.5,76.5C 110.5,67.5 110.5,58.5 110.5,49.5C 110.833,49.5 111.167,49.5 111.5,49.5C 111.428,55.5453 111.928,61.5453 113,67.5C 113.308,68.3081 113.808,68.9747 114.5,69.5C 116.297,67.8689 117.464,65.8689 118,63.5C 118.133,66.4138 119.3,68.7471 121.5,70.5C 122.852,69.4825 123.852,68.1492 124.5,66.5C 125.192,67.0253 125.692,67.6919 126,68.5C 125.835,61.1627 125.335,53.8294 124.5,46.5 Z"/></g>
<g><path style="opacity:1" fill="#9e925a" d="M 24.5,75.5 C 27.2869,76.4767 30.2869,76.81 33.5,76.5C 30.3132,77.8056 26.9798,77.8056 23.5,76.5C 23.6236,75.8933 23.9569,75.56 24.5,75.5 Z"/></g>
<g><path style="opacity:1" fill="#998f56" d="M 69.5,74.5 C 70.404,75.209 70.7373,76.209 70.5,77.5C 67.5,77.5 64.5,77.5 61.5,77.5C 60.8333,77.5 60.5,77.1667 60.5,76.5C 64.0122,77.0545 67.0122,76.3878 69.5,74.5 Z"/></g>
<g><path style="opacity:1" fill="#eddf98" d="M 70.5,67.5 C 70.8333,67.5 71.1667,67.5 71.5,67.5C 71.2627,68.791 71.596,69.791 72.5,70.5C 72.8588,72.371 73.8588,73.871 75.5,75C 78.0964,76.1356 80.763,76.969 83.5,77.5C 84.347,78.9663 85.6803,79.7996 87.5,80C 86.552,80.4828 85.552,80.6495 84.5,80.5C 84.5,81.5 84.5,82.5 84.5,83.5C 88.1817,83.3347 91.8484,83.5014 95.5,84C 92.1182,84.1764 88.7848,84.6764 85.5,85.5C 91.2156,86.046 95.549,86.7127 98.5,87.5C 94.1161,87.1744 89.7828,87.5078 85.5,88.5C 86.0253,89.1924 86.6919,89.6924 87.5,90C 84.854,90.4974 82.1873,90.6641 79.5,90.5C 79.2248,86.0549 77.0581,84.7216 73,86.5C 71.3566,85.6854 69.8566,84.6854 68.5,83.5C 68.33,82.1779 68.6634,81.0113 69.5,80C 66.3248,80.0533 63.6581,79.22 61.5,77.5C 64.5,77.5 67.5,77.5 70.5,77.5C 70.7373,76.209 70.404,75.209 69.5,74.5C 68.5592,72.9505 67.8925,71.2838 67.5,69.5C 69.1788,69.7148 70.1788,69.0481 70.5,67.5 Z"/></g>
<g><path style="opacity:1" fill="#e7d98d" d="M 68.5,83.5 C 69.8566,84.6854 71.3566,85.6854 73,86.5C 77.0581,84.7216 79.2248,86.0549 79.5,90.5C 77.901,90.2322 76.5676,90.5655 75.5,91.5C 74.5386,93.2646 74.2053,95.2646 74.5,97.5C 73.0613,95.6397 71.3947,93.973 69.5,92.5C 68.0813,91.5489 66.4147,91.2155 64.5,91.5C 64.185,95.3714 64.5184,99.0381 65.5,102.5C 66.209,103.404 67.209,103.737 68.5,103.5C 68.3367,101.143 68.5034,98.8098 69,96.5C 71.0396,98.3702 72.8729,100.37 74.5,102.5C 74.5,102.833 74.5,103.167 74.5,103.5C 72.9755,102.826 71.6422,101.826 70.5,100.5C 69.1302,103.418 68.1302,106.418 67.5,109.5C 66.1779,109.33 65.0113,109.663 64,110.5C 63.1368,108.251 63.6368,106.418 65.5,105C 63.5318,103.456 61.3651,102.289 59,101.5C 58.51,102.793 58.3433,104.127 58.5,105.5C 56.8333,105.5 55.1667,105.5 53.5,105.5C 51.7215,104.33 50.7215,102.664 50.5,100.5C 50.5,99.1667 50.5,97.8333 50.5,96.5C 49.5416,96.0472 48.7083,95.3805 48,94.5C 47.5026,91.854 47.3359,89.1873 47.5,86.5C 43.0202,87.2115 38.5202,87.8781 34,88.5C 31.5456,88.2409 29.5456,87.2409 28,85.5C 26.6667,86.8333 25.3333,88.1667 24,89.5C 21.8665,88.6472 19.8665,88.3139 18,88.5C 17.1903,92.6895 17.6903,96.6895 19.5,100.5C 16.2143,97.1947 14.2143,93.1947 13.5,88.5C 13.2011,86.396 13.5344,84.396 14.5,82.5C 17.273,83.9699 20.1063,85.3032 23,86.5C 24.1195,84.9252 25.6195,83.9252 27.5,83.5C 35.1578,84.2034 42.8245,84.8701 50.5,85.5C 52.8395,85.3308 55.0061,84.6642 57,83.5C 60.7908,85.9822 64.6242,85.9822 68.5,83.5 Z"/></g>
<g><path style="opacity:1" fill="#eadb86" d="M 50.5,96.5 C 50.5,97.8333 50.5,99.1667 50.5,100.5C 49.8826,100.611 49.3826,100.944 49,101.5C 48.0766,100.241 47.2432,98.9079 46.5,97.5C 45.6919,97.8076 45.0253,98.3076 44.5,99C 39.8333,99.3333 35.1667,99.6667 30.5,100C 28.5018,101.414 27.5018,103.414 27.5,106C 27.9713,109.146 28.9713,111.979 30.5,114.5C 33.2921,114.622 35.2921,115.956 36.5,118.5C 34.3718,117.043 32.0384,116.043 29.5,115.5C 29.8333,112.5 28.5,111.167 25.5,111.5C 23.545,107.86 21.545,104.194 19.5,100.5C 17.6903,96.6895 17.1903,92.6895 18,88.5C 19.8665,88.3139 21.8665,88.6472 24,89.5C 25.3333,88.1667 26.6667,86.8333 28,85.5C 29.5456,87.2409 31.5456,88.2409 34,88.5C 38.5202,87.8781 43.0202,87.2115 47.5,86.5C 47.3359,89.1873 47.5026,91.854 48,94.5C 48.7083,95.3805 49.5416,96.0472 50.5,96.5 Z"/></g>
<g><path style="opacity:1" fill="#cfc277" d="M 98.5,87.5 C 98.5,88.5 98.5,89.5 98.5,90.5C 96.1432,90.3367 93.8098,90.5034 91.5,91C 92.3366,92.0113 92.67,93.1779 92.5,94.5C 94.5273,94.3379 96.5273,94.5045 98.5,95C 95.854,95.4974 93.1873,95.6641 90.5,95.5C 90.1667,96.1667 89.8333,96.8333 89.5,97.5C 87.5212,96.1879 85.8545,94.5212 84.5,92.5C 83.1667,91.1667 81.8333,91.1667 80.5,92.5C 81.7113,93.8745 82.7113,95.3745 83.5,97C 82.7113,98.6255 81.7113,100.126 80.5,101.5C 83.1253,102.193 85.4586,102.193 87.5,101.5C 87.5,102.833 86.8333,103.5 85.5,103.5C 83.1667,103.5 80.8333,103.5 78.5,103.5C 78.5,99.5 78.5,95.5 78.5,91.5C 77.5,91.5 76.5,91.5 75.5,91.5C 76.5676,90.5655 77.901,90.2322 79.5,90.5C 82.1873,90.6641 84.854,90.4974 87.5,90C 86.6919,89.6924 86.0253,89.1924 85.5,88.5C 89.7828,87.5078 94.1161,87.1744 98.5,87.5 Z"/></g>
<g><path style="opacity:1" fill="#dfc473" d="M 23.5,22.5 C 4.43501,43.713 0.101678,67.713 10.5,94.5C 11.3124,96.9446 12.3124,99.2779 13.5,101.5C 11.5545,99.2931 9.38783,97.2931 7,95.5C 6.8195,97.4884 6.98617,99.4884 7.5,101.5C 3.64425,94.9299 0.977582,87.9299 -0.5,80.5C -0.5,72.8333 -0.5,65.1667 -0.5,57.5C 1.70583,46.8836 6.03917,37.217 12.5,28.5C 13.1515,29.0906 13.8182,29.7573 14.5,30.5C 16.5772,29.0124 17.5772,27.0124 17.5,24.5C 19.5,23.8333 21.5,23.1667 23.5,22.5 Z"/></g>
<g><path style="opacity:1" fill="#d8c769" d="M 98.5,74.5 C 98.0825,75.2216 97.4158,75.7216 96.5,76C 98.1341,76.4935 99.8008,76.6602 101.5,76.5C 105.349,82.3408 109.349,88.1742 113.5,94C 112.663,95.0113 112.33,96.1779 112.5,97.5C 113.5,97.5 114.5,97.5 115.5,97.5C 115.128,94.9783 115.961,92.9783 118,91.5C 119.487,93.272 119.82,95.272 119,97.5C 117.629,100.266 115.796,102.599 113.5,104.5C 112.204,101.328 111.204,97.995 110.5,94.5C 106.871,93.7623 103.204,93.9289 99.5,95C 102.102,95.7387 103.769,97.4054 104.5,100C 103.167,101 103.167,102 104.5,103C 98.284,105.139 91.9507,106.473 85.5,107C 86.6226,105.956 87.9559,105.29 89.5,105C 87.9419,104.79 86.6085,104.29 85.5,103.5C 86.8333,103.5 87.5,102.833 87.5,101.5C 89.0683,102.473 90.735,102.64 92.5,102C 90.8588,100.871 89.8588,99.371 89.5,97.5C 89.8333,96.8333 90.1667,96.1667 90.5,95.5C 93.1873,95.6641 95.854,95.4974 98.5,95C 96.5273,94.5045 94.5273,94.3379 92.5,94.5C 92.67,93.1779 92.3366,92.0113 91.5,91C 93.8098,90.5034 96.1432,90.3367 98.5,90.5C 98.5,89.5 98.5,88.5 98.5,87.5C 95.549,86.7127 91.2156,86.046 85.5,85.5C 88.7848,84.6764 92.1182,84.1764 95.5,84C 91.8484,83.5014 88.1817,83.3347 84.5,83.5C 84.5,82.5 84.5,81.5 84.5,80.5C 85.552,80.6495 86.552,80.4828 87.5,80C 85.6803,79.7996 84.347,78.9663 83.5,77.5C 86.0593,77.8016 88.3926,77.4682 90.5,76.5C 93.3085,76.3067 95.9752,75.64 98.5,74.5 Z"/></g>
<g><path style="opacity:1" fill="#5c5428" d="M 52.5,92.5 C 51.209,92.2627 50.209,92.596 49.5,93.5C 48.2486,92.528 48.582,91.8614 50.5,91.5C 51.4164,91.5427 52.0831,91.8761 52.5,92.5 Z"/></g>
<g><path style="opacity:1" fill="#322713" d="M 90.5,95.5 C 89.0047,95.5852 88.0047,94.9185 87.5,93.5C 88.8333,92.1667 90.1667,92.1667 91.5,93.5C 91.1373,94.1835 90.8039,94.8501 90.5,95.5 Z"/></g>
<g><path style="opacity:1" fill="#69633c" d="M 69.5,92.5 C 68.1667,92.5 66.8333,92.5 65.5,92.5C 65.5,95.8333 65.5,99.1667 65.5,102.5C 64.5184,99.0381 64.185,95.3714 64.5,91.5C 66.4147,91.2155 68.0813,91.5489 69.5,92.5 Z"/></g>
<g><path style="opacity:1" fill="#241b0e" d="M 89.5,97.5 C 89.8588,99.371 90.8588,100.871 92.5,102C 90.735,102.64 89.0683,102.473 87.5,101.5C 85.4586,102.193 83.1253,102.193 80.5,101.5C 81.7113,100.126 82.7113,98.6255 83.5,97C 82.7113,95.3745 81.7113,93.8745 80.5,92.5C 81.8333,91.1667 83.1667,91.1667 84.5,92.5C 85.8545,94.5212 87.5212,96.1879 89.5,97.5 Z"/></g>
<g><path style="opacity:1" fill="#1a1309" d="M 52.5,92.5 C 54.6916,95.5498 56.3583,98.8832 57.5,102.5C 56.0413,102.567 54.7079,102.234 53.5,101.5C 52.7368,99.6316 51.7368,97.9649 50.5,96.5C 50.4431,95.391 50.1098,94.391 49.5,93.5C 50.209,92.596 51.209,92.2627 52.5,92.5 Z"/></g>
<g><path style="opacity:1" fill="#211b0e" d="M 60.5,91.5 C 61.675,91.281 62.675,91.6143 63.5,92.5C 62.2739,95.016 60.7739,97.3493 59,99.5C 58.1301,98.8921 57.6301,98.0588 57.5,97C 58.6321,95.2355 59.6321,93.4021 60.5,91.5 Z"/></g>
<g><path style="opacity:1" fill="#433c1a" d="M 75.5,91.5 C 76.5,91.5 77.5,91.5 78.5,91.5C 78.5,95.5 78.5,99.5 78.5,103.5C 77.1667,103.5 75.8333,103.5 74.5,103.5C 74.5,103.167 74.5,102.833 74.5,102.5C 75.5,102.5 76.5,102.5 77.5,102.5C 77.8204,99.1016 77.487,95.7683 76.5,92.5C 75.8302,94.2914 75.1635,95.9581 74.5,97.5C 74.2053,95.2646 74.5386,93.2646 75.5,91.5 Z"/></g>
<g><path style="opacity:1" fill="#19140a" d="M 69.5,92.5 C 71.3947,93.973 73.0613,95.6397 74.5,97.5C 75.1635,95.9581 75.8302,94.2914 76.5,92.5C 77.487,95.7683 77.8204,99.1016 77.5,102.5C 76.5,102.5 75.5,102.5 74.5,102.5C 72.8729,100.37 71.0396,98.3702 69,96.5C 68.5034,98.8098 68.3367,101.143 68.5,103.5C 67.209,103.737 66.209,103.404 65.5,102.5C 65.5,99.1667 65.5,95.8333 65.5,92.5C 66.8333,92.5 68.1667,92.5 69.5,92.5 Z"/></g>
<g><path style="opacity:1" fill="#756a3d" d="M 53.5,101.5 C 54.7079,102.234 56.0413,102.567 57.5,102.5C 57.0831,103.124 56.4164,103.457 55.5,103.5C 54.2867,103.253 53.62,102.586 53.5,101.5 Z"/></g>
<g><path style="opacity:1" fill="#fcf8e5" d="M 11.5,86.5 C 12.1667,87.1667 12.8333,87.8333 13.5,88.5C 14.2143,93.1947 16.2143,97.1947 19.5,100.5C 21.545,104.194 23.545,107.86 25.5,111.5C 28.5,111.167 29.8333,112.5 29.5,115.5C 32.0384,116.043 34.3718,117.043 36.5,118.5C 38.7641,120.314 41.0975,122.147 43.5,124C 46.7536,124.25 49.7536,125.25 52.5,127C 55.4816,127.498 58.4816,127.665 61.5,127.5C 70.1649,129.437 78.4982,128.437 86.5,124.5C 88.8056,124.007 91.139,123.674 93.5,123.5C 88.1926,126.063 88.8593,127.063 95.5,126.5C 94.7095,127.401 93.7095,128.068 92.5,128.5C 87.5065,129.661 82.5065,130.828 77.5,132C 72.1771,132.499 66.8437,132.666 61.5,132.5C 56.9493,132.244 52.616,131.244 48.5,129.5C 45.9267,128.507 43.26,127.674 40.5,127C 36.3409,123.753 32.0076,120.753 27.5,118C 22.5934,112.602 17.9268,107.102 13.5,101.5C 12.3124,99.2779 11.3124,96.9446 10.5,94.5C 11.5862,94.38 12.2528,93.7133 12.5,92.5C 11.8444,90.5466 11.5111,88.5466 11.5,86.5 Z"/></g>
<g><path style="opacity:1" fill="#e6d270" d="M 50.5,100.5 C 50.7215,102.664 51.7215,104.33 53.5,105.5C 52.596,106.209 52.2627,107.209 52.5,108.5C 53.9305,108.579 55.2638,108.246 56.5,107.5C 57.7003,108.531 59.0337,109.365 60.5,110C 55.1577,113.152 51.1577,111.986 48.5,106.5C 47.1068,108.674 47.4402,110.507 49.5,112C 47.2043,112.676 44.8709,113.176 42.5,113.5C 40.6309,114.165 38.6309,114.831 36.5,115.5C 37.1272,116.417 37.4606,117.417 37.5,118.5C 37.1667,118.5 36.8333,118.5 36.5,118.5C 35.2921,115.956 33.2921,114.622 30.5,114.5C 28.9713,111.979 27.9713,109.146 27.5,106C 27.5018,103.414 28.5018,101.414 30.5,100C 35.1667,99.6667 39.8333,99.3333 44.5,99C 45.0253,98.3076 45.6919,97.8076 46.5,97.5C 47.2432,98.9079 48.0766,100.241 49,101.5C 49.3826,100.944 49.8826,100.611 50.5,100.5 Z"/></g>
<g><path style="opacity:1" fill="#d4c052" d="M 111.5,110.5 C 105.706,115.321 99.7061,119.654 93.5,123.5C 91.139,123.674 88.8056,124.007 86.5,124.5C 85.1266,124.657 83.7932,124.49 82.5,124C 82.6158,122.732 82.9491,121.398 83.5,120C 82.552,119.517 81.552,119.351 80.5,119.5C 80.5,118.5 80.5,117.5 80.5,116.5C 78.901,116.768 77.5676,116.434 76.5,115.5C 79.0379,115.507 81.5379,115.841 84,116.5C 87.063,116.065 87.2297,115.232 84.5,114C 85.3279,113.085 86.3279,112.419 87.5,112C 84.8333,111 84.8333,110 87.5,109C 95.8123,107.005 104.146,105.172 112.5,103.5C 112.326,105.861 111.993,108.194 111.5,110.5 Z"/></g>
<g><path style="opacity:1" fill="#fcf8e8" d="M 127.5,81.5 C 126.865,84.4929 126.699,87.4929 127,90.5C 127.671,89.7476 128.504,89.4142 129.5,89.5C 127.361,95.1122 124.694,100.446 121.5,105.5C 118.365,108.808 115.365,112.308 112.5,116C 107.084,119.03 102.084,122.53 97.5,126.5C 96.8333,126.5 96.1667,126.5 95.5,126.5C 88.8593,127.063 88.1926,126.063 93.5,123.5C 99.7061,119.654 105.706,115.321 111.5,110.5C 112.401,109.71 113.068,108.71 113.5,107.5C 120.298,100.571 124.465,92.2374 126,82.5C 126.383,81.944 126.883,81.6107 127.5,81.5 Z"/></g>
<g><path style="opacity:1" fill="#e3d169" d="M 113.5,104.5 C 113.5,105.5 113.5,106.5 113.5,107.5C 113.068,108.71 112.401,109.71 111.5,110.5C 111.993,108.194 112.326,105.861 112.5,103.5C 104.146,105.172 95.8123,107.005 87.5,109C 84.8333,110 84.8333,111 87.5,112C 86.3279,112.419 85.3279,113.085 84.5,114C 87.2297,115.232 87.063,116.065 84,116.5C 81.5379,115.841 79.0379,115.507 76.5,115.5C 68.4638,115.229 60.4638,115.562 52.5,116.5C 49.3881,114.887 46.0547,113.887 42.5,113.5C 44.8709,113.176 47.2043,112.676 49.5,112C 47.4402,110.507 47.1068,108.674 48.5,106.5C 51.1577,111.986 55.1577,113.152 60.5,110C 59.0337,109.365 57.7003,108.531 56.5,107.5C 55.2638,108.246 53.9305,108.579 52.5,108.5C 52.2627,107.209 52.596,106.209 53.5,105.5C 55.1667,105.5 56.8333,105.5 58.5,105.5C 58.3433,104.127 58.51,102.793 59,101.5C 61.3651,102.289 63.5318,103.456 65.5,105C 63.6368,106.418 63.1368,108.251 64,110.5C 65.0113,109.663 66.1779,109.33 67.5,109.5C 68.1302,106.418 69.1302,103.418 70.5,100.5C 71.6422,101.826 72.9755,102.826 74.5,103.5C 75.8333,103.5 77.1667,103.5 78.5,103.5C 80.8333,103.5 83.1667,103.5 85.5,103.5C 86.6085,104.29 87.9419,104.79 89.5,105C 87.9559,105.29 86.6226,105.956 85.5,107C 91.9507,106.473 98.284,105.139 104.5,103C 103.167,102 103.167,101 104.5,100C 103.769,97.4054 102.102,95.7387 99.5,95C 103.204,93.9289 106.871,93.7623 110.5,94.5C 111.204,97.995 112.204,101.328 113.5,104.5 Z"/></g>
<g><path style="opacity:1" fill="#c4a95e" d="M 132.5,97.5 C 129.433,105.897 124.433,112.897 117.5,118.5C 116.069,118.119 115.236,117.119 115,115.5C 114.598,116.872 114.098,118.205 113.5,119.5C 108.123,121.858 102.79,124.191 97.5,126.5C 102.084,122.53 107.084,119.03 112.5,116C 115.365,112.308 118.365,108.808 121.5,105.5C 124.5,105.167 126.167,103.5 126.5,100.5C 128.947,100.385 130.947,99.385 132.5,97.5 Z"/></g>
<g><path style="opacity:1" fill="#e0c470" d="M 13.5,101.5 C 17.9268,107.102 22.5934,112.602 27.5,118C 32.0076,120.753 36.3409,123.753 40.5,127C 43.26,127.674 45.9267,128.507 48.5,129.5C 48.5,130.5 48.5,131.5 48.5,132.5C 46.8212,132.285 45.8212,132.952 45.5,134.5C 28.4909,128.49 15.8243,117.49 7.5,101.5C 6.98617,99.4884 6.8195,97.4884 7,95.5C 9.38783,97.2931 11.5545,99.2931 13.5,101.5 Z"/></g>
<g><path style="opacity:1" fill="#e0cb5c" d="M 42.5,113.5 C 46.0547,113.887 49.3881,114.887 52.5,116.5C 60.4638,115.562 68.4638,115.229 76.5,115.5C 77.5676,116.434 78.901,116.768 80.5,116.5C 80.5,117.5 80.5,118.5 80.5,119.5C 81.552,119.351 82.552,119.517 83.5,120C 82.9491,121.398 82.6158,122.732 82.5,124C 83.7932,124.49 85.1266,124.657 86.5,124.5C 78.4982,128.437 70.1649,129.437 61.5,127.5C 55.9535,126.092 50.2868,124.592 44.5,123C 42.6981,120.632 40.3648,119.132 37.5,118.5C 37.4606,117.417 37.1272,116.417 36.5,115.5C 38.6309,114.831 40.6309,114.165 42.5,113.5 Z"/></g>
<g><path style="opacity:1" fill="#e5da95" d="M 36.5,118.5 C 36.8333,118.5 37.1667,118.5 37.5,118.5C 40.3648,119.132 42.6981,120.632 44.5,123C 50.2868,124.592 55.9535,126.092 61.5,127.5C 58.4816,127.665 55.4816,127.498 52.5,127C 49.7536,125.25 46.7536,124.25 43.5,124C 41.0975,122.147 38.7641,120.314 36.5,118.5 Z"/></g>
<g><path style="opacity:1" fill="#decb8e" d="M 92.5,128.5 C 89.7659,129.705 87.0993,131.205 84.5,133C 76.6554,133.822 68.9887,133.656 61.5,132.5C 66.8437,132.666 72.1771,132.499 77.5,132C 82.5065,130.828 87.5065,129.661 92.5,128.5 Z"/></g>
<g><path style="opacity:0.964" fill="#ddc069" d="M 117.5,118.5 C 107.302,129.099 94.9688,135.766 80.5,138.5C 72.8333,138.5 65.1667,138.5 57.5,138.5C 53.4086,137.476 49.4086,136.143 45.5,134.5C 45.8212,132.952 46.8212,132.285 48.5,132.5C 48.5,131.5 48.5,130.5 48.5,129.5C 52.616,131.244 56.9493,132.244 61.5,132.5C 68.9887,133.656 76.6554,133.822 84.5,133C 87.0993,131.205 89.7659,129.705 92.5,128.5C 93.7095,128.068 94.7095,127.401 95.5,126.5C 96.1667,126.5 96.8333,126.5 97.5,126.5C 102.79,124.191 108.123,121.858 113.5,119.5C 114.098,118.205 114.598,116.872 115,115.5C 115.236,117.119 116.069,118.119 117.5,118.5 Z"/></g>
</svg>
