<?xml version="1.0" encoding="UTF-8"?>
<!DOCTYPE svg PUBLIC "-//W3C//DTD SVG 1.1//EN" "http://www.w3.org/Graphics/SVG/1.1/DTD/svg11.dtd">
<svg xmlns="http://www.w3.org/2000/svg" version="1.1" width="267px" height="267px" style="shape-rendering:geometricPrecision; text-rendering:geometricPrecision; image-rendering:optimizeQuality; fill-rule:evenodd; clip-rule:evenodd" xmlns:xlink="http://www.w3.org/1999/xlink">
<g><path style="opacity:0.928" fill="#fefefd" d="M 116.5,-0.5 C 127.5,-0.5 138.5,-0.5 149.5,-0.5C 214.833,12.1667 253.833,51.1667 266.5,116.5C 266.5,127.5 266.5,138.5 266.5,149.5C 253.833,214.833 214.833,253.833 149.5,266.5C 138.5,266.5 127.5,266.5 116.5,266.5C 51.1667,253.833 12.1667,214.833 -0.5,149.5C -0.5,138.5 -0.5,127.5 -0.5,116.5C 12.1667,51.1667 51.1667,12.1667 116.5,-0.5 Z"/></g>
<g><path style="opacity:1" fill="#e6e5db" d="M 113.5,4.5 C 163.947,0.649375 204.447,18.6494 235,58.5C 263.525,104.379 264.858,151.046 239,198.5C 207.49,245.049 163.656,264.215 107.5,256C 52.9141,243.412 19.7474,209.579 8,154.5C 0.218969,87.868 26.3856,40.368 86.5,12C 95.7338,9.94442 104.734,7.44442 113.5,4.5 Z"/></g>
<g><path style="opacity:1" fill="#202234" d="M 159.5,15.5 C 158.178,15.33 157.011,15.6634 156,16.5C 154.82,15.3159 153.32,14.6493 151.5,14.5C 133.413,12.9317 115.413,13.5983 97.5,16.5C 103.303,14.8395 109.303,13.3395 115.5,12C 129.944,10.9279 144.278,11.5946 158.5,14C 159.056,14.3826 159.389,14.8826 159.5,15.5 Z"/></g>
<g><path style="opacity:1" fill="#292a31" d="M 97.5,16.5 C 88.6235,20.3135 79.9569,24.8135 71.5,30C 70.2068,30.49 68.8734,30.6567 67.5,30.5C 76.4331,23.702 86.4331,19.0354 97.5,16.5 Z"/></g>
<g><path style="opacity:1" fill="#08194d" d="M 131.5,32.5 C 132.682,35.0092 134.682,36.3426 137.5,36.5C 137.5,37.1667 137.167,37.5 136.5,37.5C 135.325,37.281 134.325,37.6143 133.5,38.5C 134.738,41.4694 135.405,44.636 135.5,48C 135.333,50.8333 135.167,53.6667 135,56.5C 134.51,55.2068 134.343,53.8734 134.5,52.5C 129.465,52.8163 124.298,52.483 119,51.5C 114.847,50.9211 112.68,52.5878 112.5,56.5C 108.821,56.7244 105.154,57.0578 101.5,57.5C 101.5,58.5 101.5,59.5 101.5,60.5C 97.0748,59.8101 93.2415,60.8101 90,63.5C 88.1891,58.5594 84.6891,55.5594 79.5,54.5C 78.8333,54.5 78.5,54.1667 78.5,53.5C 79.1667,53.5 79.8333,53.5 80.5,53.5C 82.0723,51.0562 83.5723,48.3895 85,45.5C 85.3052,43.4432 85.3052,41.4432 85,39.5C 86.7468,42.2104 87.7468,45.2104 88,48.5C 89.1224,43.8984 89.6224,39.2318 89.5,34.5C 92.8835,34.3396 96.2169,34.673 99.5,35.5C 101.383,34.9757 103.216,34.3091 105,33.5C 105.945,33.9054 106.612,34.572 107,35.5C 107.495,33.5273 107.662,31.5273 107.5,29.5C 116.102,27.8382 124.102,28.8382 131.5,32.5 Z"/></g>
<g><path style="opacity:1" fill="#091948" d="M 159.5,15.5 C 199.339,25.4852 227.506,49.4852 244,87.5C 251.241,108.561 253.574,130.227 251,152.5C 247.697,168.41 242.031,183.41 234,197.5C 231.63,201.597 228.797,205.264 225.5,208.5C 224.609,207.739 223.942,206.739 223.5,205.5C 223.906,200.27 225.906,195.77 229.5,192C 228.874,191.25 228.374,190.416 228,189.5C 227.667,189.833 227.333,190.167 227,190.5C 226.517,189.552 226.351,188.552 226.5,187.5C 225.5,187.5 224.5,187.5 223.5,187.5C 227.392,181.771 232.226,176.771 238,172.5C 239.241,171.123 239.408,169.79 238.5,168.5C 235.752,173.963 234.085,173.629 233.5,167.5C 234.873,167.657 236.207,167.49 237.5,167C 238.885,164.146 240.552,161.48 242.5,159C 241.833,158 241.167,157 240.5,156C 241.424,154.189 242.257,154.355 243,156.5C 243.828,151.798 243.662,147.131 242.5,142.5C 241.354,141.855 240.354,141.022 239.5,140C 242.168,139.433 244.834,138.933 247.5,138.5C 247.719,137.325 247.386,136.325 246.5,135.5C 244.538,136.634 242.538,136.634 240.5,135.5C 237.178,137.497 234.178,139.831 231.5,142.5C 232.234,141.292 232.567,139.959 232.5,138.5C 233.473,136.052 233.806,133.385 233.5,130.5C 234.309,132.292 234.809,134.292 235,136.5C 237.066,131.637 238.732,126.637 240,121.5C 240.851,124.612 242.017,124.946 243.5,122.5C 242.902,121.205 242.402,119.872 242,118.5C 241.444,120.595 240.944,120.762 240.5,119C 240.911,117.856 241.244,116.689 241.5,115.5C 240.234,111.296 238.901,107.13 237.5,103C 237.911,101.856 238.244,100.689 238.5,99.5C 236.428,97.6505 235.095,95.3171 234.5,92.5C 233.311,91.5713 231.978,91.238 230.5,91.5C 230.89,87.6065 230.223,83.9398 228.5,80.5C 225.966,79.2117 223.466,79.2117 221,80.5C 220.147,78.8753 219.147,78.5419 218,79.5C 217.667,75.1667 217.333,70.8333 217,66.5C 215.301,65.5939 213.467,65.2606 211.5,65.5C 211.241,69.2396 211.574,72.9062 212.5,76.5C 212.167,76.8333 211.833,77.1667 211.5,77.5C 210.024,75.4287 208.024,74.4287 205.5,74.5C 207.025,72.7837 208.025,70.7837 208.5,68.5C 209.634,66.0336 209.801,63.367 209,60.5C 208.34,58.6763 207.173,57.343 205.5,56.5C 205.389,55.8826 205.056,55.3826 204.5,55C 201.5,54.3333 198.5,54.3333 195.5,55C 193.859,56.129 192.859,57.629 192.5,59.5C 191.842,60.7933 191.508,62.2933 191.5,64C 191.569,65.9855 192.235,67.4855 193.5,68.5C 192.791,69.404 191.791,69.7373 190.5,69.5C 190.777,64.7668 190.443,60.1001 189.5,55.5C 192.469,54.332 192.802,52.9987 190.5,51.5C 189.571,50.3112 189.238,48.9778 189.5,47.5C 186.167,47.5 182.833,47.5 179.5,47.5C 179.5,46.5 179.5,45.5 179.5,44.5C 183.351,43.9709 186.851,44.6375 190,46.5C 190.483,45.552 190.649,44.552 190.5,43.5C 186.833,43.5 183.167,43.5 179.5,43.5C 178.691,41.0271 178.358,38.6937 178.5,36.5C 171.866,35.8268 165.2,35.8268 158.5,36.5C 158.5,37.5 158.5,38.5 158.5,39.5C 157.5,39.5 156.5,39.5 155.5,39.5C 155.769,41.4286 155.269,43.0953 154,44.5C 153.284,41.5818 153.784,38.9151 155.5,36.5C 155.085,34.0909 154.418,31.7576 153.5,29.5C 153.243,32.6028 152.743,35.6028 152,38.5C 148.557,42.6674 147.057,42.3341 147.5,37.5C 148.055,35.2712 149.389,33.6046 151.5,32.5C 150.933,30.0177 150.266,27.6843 149.5,25.5C 149.226,21.052 146.892,18.2187 142.5,17C 133.544,15.6223 129.378,19.4557 130,28.5C 130.278,29.4158 130.778,30.0825 131.5,30.5C 131.5,31.1667 131.5,31.8333 131.5,32.5C 124.102,28.8382 116.102,27.8382 107.5,29.5C 107.662,31.5273 107.495,33.5273 107,35.5C 106.612,34.572 105.945,33.9054 105,33.5C 103.216,34.3091 101.383,34.9757 99.5,35.5C 96.2169,34.673 92.8835,34.3396 89.5,34.5C 89.6224,39.2318 89.1224,43.8984 88,48.5C 87.7468,45.2104 86.7468,42.2104 85,39.5C 85.3052,41.4432 85.3052,43.4432 85,45.5C 83.5723,48.3895 82.0723,51.0562 80.5,53.5C 81.7866,49.7316 81.7866,46.0649 80.5,42.5C 78.3828,39.0515 75.3828,36.7181 71.5,35.5C 69.7078,34.6909 67.7078,34.1909 65.5,34C 66.305,32.8873 66.9717,31.7206 67.5,30.5C 68.8734,30.6567 70.2068,30.49 71.5,30C 79.9569,24.8135 88.6235,20.3135 97.5,16.5C 115.413,13.5983 133.413,12.9317 151.5,14.5C 153.32,14.6493 154.82,15.3159 156,16.5C 157.011,15.6634 158.178,15.33 159.5,15.5 Z"/></g>
<g><path style="opacity:1" fill="#403738" d="M 149.5,25.5 C 150.266,27.6843 150.933,30.0177 151.5,32.5C 149.389,33.6046 148.055,35.2712 147.5,37.5C 146.167,37.8333 144.833,38.1667 143.5,38.5C 143.5,37.8333 143.5,37.1667 143.5,36.5C 148.792,34.8272 150.792,31.1605 149.5,25.5 Z"/></g>
<g><path style="opacity:1" fill="#e3ab14" d="M 149.5,25.5 C 150.792,31.1605 148.792,34.8272 143.5,36.5C 143.167,36.5 142.833,36.5 142.5,36.5C 142.5,36.1667 142.5,35.8333 142.5,35.5C 142.5,34.1667 142.5,32.8333 142.5,31.5C 140.833,31.5 139.167,31.5 137.5,31.5C 137.5,33.1667 137.5,34.8333 137.5,36.5C 134.682,36.3426 132.682,35.0092 131.5,32.5C 131.5,31.8333 131.5,31.1667 131.5,30.5C 130.912,17.6989 135.578,15.0323 145.5,22.5C 146.086,22.2907 146.586,21.9574 147,21.5C 147.934,22.8584 148.768,24.1917 149.5,25.5 Z"/></g>
<g><path style="opacity:1" fill="#b6812a" d="M 149.5,25.5 C 148.768,24.1917 147.934,22.8584 147,21.5C 146.586,21.9574 146.086,22.2907 145.5,22.5C 135.578,15.0323 130.912,17.6989 131.5,30.5C 130.778,30.0825 130.278,29.4158 130,28.5C 129.378,19.4557 133.544,15.6223 142.5,17C 146.892,18.2187 149.226,21.052 149.5,25.5 Z"/></g>
<g><path style="opacity:1" fill="#904564" d="M 142.5,35.5 C 141.596,34.791 141.263,33.791 141.5,32.5C 140.5,32.5 139.5,32.5 138.5,32.5C 138.768,34.099 138.434,35.4324 137.5,36.5C 137.5,34.8333 137.5,33.1667 137.5,31.5C 139.167,31.5 140.833,31.5 142.5,31.5C 142.5,32.8333 142.5,34.1667 142.5,35.5 Z"/></g>
<g><path style="opacity:1" fill="#08194e" d="M 190.5,69.5 C 190.672,70.4916 190.338,71.1583 189.5,71.5C 186.573,70.3732 184.406,71.3732 183,74.5C 182.5,74 182,73.5 181.5,73C 183.332,71.5114 184.165,69.678 184,67.5C 182.887,68.7111 181.72,68.7111 180.5,67.5C 179.77,65.6587 179.103,63.8254 178.5,62C 173.928,61.4827 169.761,59.9827 166,57.5C 163.297,60.538 160.297,63.2046 157,65.5C 156.308,64.9747 155.808,64.3081 155.5,63.5C 157.316,62.1851 158.983,60.6851 160.5,59C 158.5,57.3333 156.5,55.6667 154.5,54C 152.101,53.289 149.768,53.4557 147.5,54.5C 146.808,53.9747 146.308,53.3081 146,52.5C 146,55.1667 146,57.8333 146,60.5C 145.333,59.8333 144.667,59.1667 144,58.5C 143.5,51.8417 143.334,45.175 143.5,38.5C 144.833,38.1667 146.167,37.8333 147.5,37.5C 147.057,42.3341 148.557,42.6674 152,38.5C 152.743,35.6028 153.243,32.6028 153.5,29.5C 154.418,31.7576 155.085,34.0909 155.5,36.5C 153.784,38.9151 153.284,41.5818 154,44.5C 155.269,43.0953 155.769,41.4286 155.5,39.5C 156.5,39.5 157.5,39.5 158.5,39.5C 158.5,38.5 158.5,37.5 158.5,36.5C 165.2,35.8268 171.866,35.8268 178.5,36.5C 178.358,38.6937 178.691,41.0271 179.5,43.5C 183.167,43.5 186.833,43.5 190.5,43.5C 190.649,44.552 190.483,45.552 190,46.5C 186.851,44.6375 183.351,43.9709 179.5,44.5C 179.5,45.5 179.5,46.5 179.5,47.5C 182.833,47.5 186.167,47.5 189.5,47.5C 189.238,48.9778 189.571,50.3112 190.5,51.5C 192.802,52.9987 192.469,54.332 189.5,55.5C 190.443,60.1001 190.777,64.7668 190.5,69.5 Z"/></g>
<g><path style="opacity:1" fill="#da9d14" d="M 71.5,35.5 C 75.3828,36.7181 78.3828,39.0515 80.5,42.5C 80.8174,45.5719 80.4841,48.5719 79.5,51.5C 78.5832,50.8728 77.5832,50.5394 76.5,50.5C 75.1667,50.5 73.8333,50.5 72.5,50.5C 72.1201,52.698 72.7868,54.3646 74.5,55.5C 74.5,56.5 74.5,57.5 74.5,58.5C 67.1004,59.8828 61.9337,57.2161 59,50.5C 58.1925,46.9733 58.3592,43.6399 59.5,40.5C 62.1213,35.9687 66.1213,34.302 71.5,35.5 Z"/></g>
<g><path style="opacity:1" fill="#80692f" d="M 80.5,42.5 C 81.7866,46.0649 81.7866,49.7316 80.5,53.5C 79.8333,53.5 79.1667,53.5 78.5,53.5C 77.8333,52.5 77.1667,51.5 76.5,50.5C 77.5832,50.5394 78.5832,50.8728 79.5,51.5C 80.4841,48.5719 80.8174,45.5719 80.5,42.5 Z"/></g>
<g><path style="opacity:1" fill="#6f208b" d="M 76.5,50.5 C 77.1667,51.5 77.8333,52.5 78.5,53.5C 77.4168,53.4606 76.4168,53.1272 75.5,52.5C 74.4376,53.4246 74.4376,54.4246 75.5,55.5C 75.1667,55.5 74.8333,55.5 74.5,55.5C 72.7868,54.3646 72.1201,52.698 72.5,50.5C 73.8333,50.5 75.1667,50.5 76.5,50.5 Z"/></g>
<g><path style="opacity:1" fill="#0c1b57" d="M 136.5,37.5 C 136.5,47.5 136.5,57.5 136.5,67.5C 131.924,67.4379 127.591,68.1045 123.5,69.5C 115.387,71.0896 108.387,74.7562 102.5,80.5C 99.8781,77.7429 97.0448,75.0762 94,72.5C 89.8663,65.8777 85.033,59.8777 79.5,54.5C 84.6891,55.5594 88.1891,58.5594 90,63.5C 93.2415,60.8101 97.0748,59.8101 101.5,60.5C 101.5,59.5 101.5,58.5 101.5,57.5C 105.154,57.0578 108.821,56.7244 112.5,56.5C 112.68,52.5878 114.847,50.9211 119,51.5C 124.298,52.483 129.465,52.8163 134.5,52.5C 134.343,53.8734 134.51,55.2068 135,56.5C 135.167,53.6667 135.333,50.8333 135.5,48C 135.405,44.636 134.738,41.4694 133.5,38.5C 134.325,37.6143 135.325,37.281 136.5,37.5 Z"/></g>
<g><path style="opacity:1" fill="#0e1b58" d="M 142.5,36.5 C 142.833,36.5 143.167,36.5 143.5,36.5C 143.5,37.1667 143.5,37.8333 143.5,38.5C 143.334,45.175 143.5,51.8417 144,58.5C 144.667,59.1667 145.333,59.8333 146,60.5C 146,57.8333 146,55.1667 146,52.5C 146.308,53.3081 146.808,53.9747 147.5,54.5C 149.768,53.4557 152.101,53.289 154.5,54C 156.5,55.6667 158.5,57.3333 160.5,59C 158.983,60.6851 157.316,62.1851 155.5,63.5C 155.808,64.3081 156.308,64.9747 157,65.5C 160.297,63.2046 163.297,60.538 166,57.5C 169.761,59.9827 173.928,61.4827 178.5,62C 179.103,63.8254 179.77,65.6587 180.5,67.5C 181.72,68.7111 182.887,68.7111 184,67.5C 184.165,69.678 183.332,71.5114 181.5,73C 182,73.5 182.5,74 183,74.5C 184.406,71.3732 186.573,70.3732 189.5,71.5C 186.292,75.3954 182.959,79.2287 179.5,83C 178.167,83.6667 176.833,83.6667 175.5,83C 173.886,80.8733 171.886,79.3733 169.5,78.5C 165.576,76.335 161.576,74.1683 157.5,72C 152.352,70.6347 147.352,69.1347 142.5,67.5C 142.5,57.1667 142.5,46.8333 142.5,36.5 Z"/></g>
<g><path style="opacity:1" fill="#745a36" d="M 205.5,56.5 C 203.236,55.7814 200.903,55.448 198.5,55.5C 196.246,56.4151 194.246,57.7484 192.5,59.5C 192.859,57.629 193.859,56.129 195.5,55C 198.5,54.3333 201.5,54.3333 204.5,55C 205.056,55.3826 205.389,55.8826 205.5,56.5 Z"/></g>
<g><path style="opacity:1" fill="#0a1a4a" d="M 59.5,40.5 C 58.3592,43.6399 58.1925,46.9733 59,50.5C 61.9337,57.2161 67.1004,59.8828 74.5,58.5C 74.5,57.5 74.5,56.5 74.5,55.5C 74.8333,55.5 75.1667,55.5 75.5,55.5C 75.2322,57.099 75.5655,58.4324 76.5,59.5C 77.6225,61.5184 77.6225,63.5184 76.5,65.5C 77.325,66.3857 78.325,66.719 79.5,66.5C 80.2096,69.8595 78.8762,71.6929 75.5,72C 73.4569,74.117 73.1235,76.4503 74.5,79C 73.2927,80.3002 72.6261,81.8002 72.5,83.5C 69.2656,84.2598 66.0989,85.2598 63,86.5C 62.2124,89.9627 60.5457,92.9627 58,95.5C 57.5045,97.4727 57.3379,99.4727 57.5,101.5C 55.8561,101.286 54.3561,101.62 53,102.5C 52.6608,105.036 52.1608,107.536 51.5,110C 51.9504,111.285 52.6171,112.452 53.5,113.5C 52.2203,115.702 52.2203,117.868 53.5,120C 52.451,120.492 51.451,120.326 50.5,119.5C 49.4777,119.855 48.811,120.522 48.5,121.5C 48.1667,121.5 47.8333,121.5 47.5,121.5C 42.8492,110.836 35.5159,108.669 25.5,115C 24.7476,115.671 24.4142,116.504 24.5,117.5C 23.8826,117.611 23.3826,117.944 23,118.5C 22.1993,121.367 22.3659,124.034 23.5,126.5C 25.5144,135.014 30.8477,138.181 39.5,136C 40.056,135.617 40.3893,135.117 40.5,134.5C 42.3885,133.396 44.0552,132.063 45.5,130.5C 46.404,129.791 46.7373,128.791 46.5,127.5C 47.1667,127.5 47.5,127.833 47.5,128.5C 47.9175,129.222 48.5842,129.722 49.5,130C 49.5891,138.441 49.2558,147.108 48.5,156C 53.939,162.033 53.6057,167.866 47.5,173.5C 47.8333,174.5 48.5,175.167 49.5,175.5C 51.4032,174.053 53.0699,172.386 54.5,170.5C 57.7572,176.513 58.9238,182.846 58,189.5C 58.3333,188.5 58.6667,187.5 59,186.5C 61.0693,187.264 63.236,187.764 65.5,188C 65.1667,189 64.8333,190 64.5,191C 66.6312,192.47 68.6312,193.97 70.5,195.5C 67.4816,195.335 64.4816,195.502 61.5,196C 60.2899,197.039 59.2899,198.206 58.5,199.5C 56.9256,199.937 55.7589,200.937 55,202.5C 54.3333,205.833 54.3333,209.167 55,212.5C 55.3826,213.056 55.8826,213.389 56.5,213.5C 57.1175,215.229 58.1175,216.729 59.5,218C 72.3157,221.686 78.649,216.852 78.5,203.5C 80.1171,204.589 80.9504,206.256 81,208.5C 82.7506,207.826 84.4173,207.493 86,207.5C 87.6279,208.819 87.4613,210.152 85.5,211.5C 87.5101,212.349 89.1767,211.682 90.5,209.5C 91.731,210.651 91.731,211.817 90.5,213C 93.6858,216.182 97.1858,219.015 101,221.5C 103.619,220.271 106.119,220.604 108.5,222.5C 112.347,221.603 115.68,219.937 118.5,217.5C 118.703,219.39 118.037,220.89 116.5,222C 122.311,226.546 128.311,227.379 134.5,224.5C 134.671,213.854 135.171,213.854 136,224.5C 136.383,225.056 136.883,225.389 137.5,225.5C 137.5,225.833 137.5,226.167 137.5,226.5C 132.297,227.712 129.63,231.045 129.5,236.5C 129.869,246.726 134.869,250.559 144.5,248C 150.701,242.928 152.034,236.762 148.5,229.5C 147.305,227.703 145.638,226.703 143.5,226.5C 143.5,226.167 143.5,225.833 143.5,225.5C 145.981,225.323 147.814,226.323 149,228.5C 149.195,226.793 149.195,225.126 149,223.5C 149.915,224.328 150.581,225.328 151,226.5C 152.067,225.809 153.234,225.309 154.5,225C 151.957,222.649 152.623,221.483 156.5,221.5C 155.514,224.315 155.347,226.982 156,229.5C 157.084,228.335 157.917,227.002 158.5,225.5C 157.253,223.958 157.253,222.458 158.5,221C 161.817,220.502 165.15,220.335 168.5,220.5C 168.5,219.167 168.5,217.833 168.5,216.5C 171.909,216.751 175.242,216.417 178.5,215.5C 179.452,213.955 179.785,212.288 179.5,210.5C 182.97,209.712 185.637,207.712 187.5,204.5C 189.045,203.548 190.712,203.215 192.5,203.5C 192.216,201.585 192.549,199.919 193.5,198.5C 192.053,204.898 194.053,209.731 199.5,213C 205.473,214.534 209.473,212.368 211.5,206.5C 212.634,204.034 212.801,201.367 212,198.5C 210.287,197.122 208.953,195.455 208,193.5C 205.281,192.556 202.448,192.223 199.5,192.5C 200.687,191.466 201.52,190.133 202,188.5C 204.179,187.604 206.012,186.271 207.5,184.5C 210.799,179.883 213.799,175.05 216.5,170C 214.085,168.809 212.752,166.809 212.5,164C 213.885,162.403 214.551,160.57 214.5,158.5C 216.912,158.756 218.579,157.756 219.5,155.5C 218.349,154.269 217.183,154.269 216,155.5C 215.5,155 215,154.5 214.5,154C 215.925,151.282 217.258,148.448 218.5,145.5C 217.063,143.423 216.396,141.09 216.5,138.5C 220.488,143.236 225.488,144.57 231.5,142.5C 234.178,139.831 237.178,137.497 240.5,135.5C 242.538,136.634 244.538,136.634 246.5,135.5C 247.386,136.325 247.719,137.325 247.5,138.5C 244.834,138.933 242.168,139.433 239.5,140C 240.354,141.022 241.354,141.855 242.5,142.5C 243.662,147.131 243.828,151.798 243,156.5C 242.257,154.355 241.424,154.189 240.5,156C 241.167,157 241.833,158 242.5,159C 240.552,161.48 238.885,164.146 237.5,167C 236.207,167.49 234.873,167.657 233.5,167.5C 234.085,173.629 235.752,173.963 238.5,168.5C 239.408,169.79 239.241,171.123 238,172.5C 232.226,176.771 227.392,181.771 223.5,187.5C 224.5,187.5 225.5,187.5 226.5,187.5C 226.351,188.552 226.517,189.552 227,190.5C 227.333,190.167 227.667,189.833 228,189.5C 228.374,190.416 228.874,191.25 229.5,192C 225.906,195.77 223.906,200.27 223.5,205.5C 223.942,206.739 224.609,207.739 225.5,208.5C 205.352,233.412 179.352,248.246 147.5,253C 144.183,253.498 140.85,253.665 137.5,253.5C 128.149,253.023 118.816,252.356 109.5,251.5C 71.3156,242.499 43.1489,220.499 25,185.5C 19.0022,173.507 15.5022,160.84 14.5,147.5C 10.6072,103.314 25.4405,66.9808 59,38.5C 59.4643,39.0944 59.631,39.7611 59.5,40.5 Z"/></g>
<g><path style="opacity:1" fill="#752cd2" d="M 142.5,35.5 C 142.5,35.8333 142.5,36.1667 142.5,36.5C 142.5,46.8333 142.5,57.1667 142.5,67.5C 140.549,68.6414 138.549,68.6414 136.5,67.5C 136.5,57.5 136.5,47.5 136.5,37.5C 137.167,37.5 137.5,37.1667 137.5,36.5C 138.434,35.4324 138.768,34.099 138.5,32.5C 139.5,32.5 140.5,32.5 141.5,32.5C 141.263,33.791 141.596,34.791 142.5,35.5 Z"/></g>
<g><path style="opacity:1" fill="#d89610" d="M 198.5,55.5 C 200.903,55.448 203.236,55.7814 205.5,56.5C 207.173,57.343 208.34,58.6763 209,60.5C 209.801,63.367 209.634,66.0336 208.5,68.5C 205.221,68.8988 202.221,69.7321 199.5,71C 200.227,68.876 200.894,66.7094 201.5,64.5C 200.078,63.4528 198.578,63.4528 197,64.5C 196.055,64.0946 195.388,63.428 195,62.5C 194.667,63.8333 194.333,65.1667 194,66.5C 192.349,61.8408 193.849,59.1742 198.5,58.5C 198.5,57.5 198.5,56.5 198.5,55.5 Z"/></g>
<g><path style="opacity:1" fill="#0a194c" d="M 233.5,130.5 C 228.89,123.764 223.223,122.764 216.5,127.5C 215.057,125.456 213.724,123.29 212.5,121C 213.017,118.923 213.684,116.923 214.5,115C 213.39,111.951 212.723,108.784 212.5,105.5C 211.167,105.5 209.833,105.5 208.5,105.5C 209.077,102.403 209.077,99.0694 208.5,95.5C 207.127,95.6567 205.793,95.49 204.5,95C 206.019,93.6487 207.352,92.1487 208.5,90.5C 206.087,90.246 203.754,90.246 201.5,90.5C 202.537,85.9888 201.037,82.3221 197,79.5C 196.383,78.5509 196.549,77.7175 197.5,77C 196.027,76.2904 195.36,75.1238 195.5,73.5C 195.5,72.8333 195.833,72.5 196.5,72.5C 198.988,74.3878 201.988,75.0545 205.5,74.5C 208.024,74.4287 210.024,75.4287 211.5,77.5C 211.833,77.1667 212.167,76.8333 212.5,76.5C 211.574,72.9062 211.241,69.2396 211.5,65.5C 213.467,65.2606 215.301,65.5939 217,66.5C 217.333,70.8333 217.667,75.1667 218,79.5C 219.147,78.5419 220.147,78.8753 221,80.5C 223.466,79.2117 225.966,79.2117 228.5,80.5C 230.223,83.9398 230.89,87.6065 230.5,91.5C 231.978,91.238 233.311,91.5713 234.5,92.5C 235.095,95.3171 236.428,97.6505 238.5,99.5C 238.244,100.689 237.911,101.856 237.5,103C 238.901,107.13 240.234,111.296 241.5,115.5C 241.244,116.689 240.911,117.856 240.5,119C 240.944,120.762 241.444,120.595 242,118.5C 242.402,119.872 242.902,121.205 243.5,122.5C 242.017,124.946 240.851,124.612 240,121.5C 238.732,126.637 237.066,131.637 235,136.5C 234.809,134.292 234.309,132.292 233.5,130.5 Z"/></g>
<g><path style="opacity:1" fill="#c78b29" d="M 198.5,55.5 C 198.5,56.5 198.5,57.5 198.5,58.5C 193.849,59.1742 192.349,61.8408 194,66.5C 194.333,65.1667 194.667,63.8333 195,62.5C 195.388,63.428 196.055,64.0946 197,64.5C 198.578,63.4528 200.078,63.4528 201.5,64.5C 200.894,66.7094 200.227,68.876 199.5,71C 202.221,69.7321 205.221,68.8988 208.5,68.5C 208.025,70.7837 207.025,72.7837 205.5,74.5C 201.988,75.0545 198.988,74.3878 196.5,72.5C 198.081,70.8583 198.747,68.8583 198.5,66.5C 196.486,66.3915 194.82,67.0582 193.5,68.5C 192.235,67.4855 191.569,65.9855 191.5,64C 191.508,62.2933 191.842,60.7933 192.5,59.5C 194.246,57.7484 196.246,56.4151 198.5,55.5 Z"/></g>
<g><path style="opacity:1" fill="#0b1b56" d="M 76.5,59.5 C 82.79,67.7921 89.4566,75.7921 96.5,83.5C 94.2999,87.88 91.4665,91.88 88,95.5C 85.6028,99.624 83.7694,103.957 82.5,108.5C 81.0971,112.655 80.0971,116.988 79.5,121.5C 69.1667,121.5 58.8333,121.5 48.5,121.5C 48.811,120.522 49.4777,119.855 50.5,119.5C 51.451,120.326 52.451,120.492 53.5,120C 52.2203,117.868 52.2203,115.702 53.5,113.5C 52.6171,112.452 51.9504,111.285 51.5,110C 52.1608,107.536 52.6608,105.036 53,102.5C 54.3561,101.62 55.8561,101.286 57.5,101.5C 57.3379,99.4727 57.5045,97.4727 58,95.5C 60.5457,92.9627 62.2124,89.9627 63,86.5C 66.0989,85.2598 69.2656,84.2598 72.5,83.5C 72.6261,81.8002 73.2927,80.3002 74.5,79C 73.1235,76.4503 73.4569,74.117 75.5,72C 78.8762,71.6929 80.2096,69.8595 79.5,66.5C 78.325,66.719 77.325,66.3857 76.5,65.5C 77.6225,63.5184 77.6225,61.5184 76.5,59.5 Z"/></g>
<g><path style="opacity:1" fill="#4312ca" d="M 78.5,53.5 C 78.5,54.1667 78.8333,54.5 79.5,54.5C 85.033,59.8777 89.8663,65.8777 94,72.5C 97.0448,75.0762 99.8781,77.7429 102.5,80.5C 102.897,81.525 103.563,81.6917 104.5,81C 110.684,76.6887 117.017,72.8554 123.5,69.5C 127.591,68.1045 131.924,67.4379 136.5,67.5C 138.549,68.6414 140.549,68.6414 142.5,67.5C 147.352,69.1347 152.352,70.6347 157.5,72C 161.576,74.1683 165.576,76.335 169.5,78.5C 171.514,81.3466 174.014,83.6799 177,85.5C 180.239,84.098 183.072,82.098 185.5,79.5C 186.298,79.9569 186.631,80.6236 186.5,81.5C 184.032,83.6408 182.366,86.3075 181.5,89.5C 184.569,93.9622 187.403,98.6289 190,103.5C 190.863,108.586 192.03,113.586 193.5,118.5C 194.756,128.172 194.756,137.839 193.5,147.5C 193.702,149.95 193.369,152.283 192.5,154.5C 190.066,160.48 186.899,166.146 183,171.5C 177.66,175.674 172.827,180.34 168.5,185.5C 166.253,185.915 164.086,186.582 162,187.5C 158.661,186.12 155.494,186.287 152.5,188C 146.833,188.667 141.167,188.667 135.5,188C 129.729,185.949 124.063,183.616 118.5,181C 117.748,180.329 117.414,179.496 117.5,178.5C 134.794,186.783 150.794,184.783 165.5,172.5C 170.007,167.456 174.007,162.123 177.5,156.5C 177.5,157.5 177.5,158.5 177.5,159.5C 179.91,159.079 181.743,157.746 183,155.5C 183.219,156.938 183.719,158.271 184.5,159.5C 185.192,156.23 185.192,152.897 184.5,149.5C 185.822,149.33 186.989,149.663 188,150.5C 188.667,149.167 189.333,147.833 190,146.5C 192.644,132.364 191.311,118.698 186,105.5C 184.984,104.366 184.317,104.699 184,106.5C 181.999,102.576 180.166,102.576 178.5,106.5C 168.605,84.5473 151.605,75.0473 127.5,78C 120.886,80.1434 115.219,83.6434 110.5,88.5C 109.167,89.8333 107.833,91.1667 106.5,92.5C 92.0742,112.294 89.5742,133.627 99,156.5C 101.118,161.094 103.952,165.094 107.5,168.5C 107.5,168.833 107.5,169.167 107.5,169.5C 104.463,171.186 103.13,170.186 103.5,166.5C 102.167,166.5 100.833,166.5 99.5,166.5C 99.7373,167.791 99.404,168.791 98.5,169.5C 95.8333,165.167 93.1667,160.833 90.5,156.5C 88.0363,147.936 85.8696,139.269 84,130.5C 82.9887,129.663 81.8221,129.33 80.5,129.5C 80.5,128.5 80.5,127.5 80.5,126.5C 68.1408,126.728 55.8074,126.395 43.5,125.5C 42.596,124.791 42.2627,123.791 42.5,122.5C 54.8466,122.449 67.1799,122.783 79.5,123.5C 81.1667,123.5 82.8333,123.5 84.5,123.5C 85.3095,115.211 87.3095,107.211 90.5,99.5C 92.7222,95.3456 95.2222,91.3456 98,87.5C 98.7726,85.6476 98.2726,84.3143 96.5,83.5C 89.4566,75.7921 82.79,67.7921 76.5,59.5C 75.5655,58.4324 75.2322,57.099 75.5,55.5C 74.4376,54.4246 74.4376,53.4246 75.5,52.5C 76.4168,53.1272 77.4168,53.4606 78.5,53.5 Z"/></g>
<g><path style="opacity:1" fill="#3e28a4" d="M 123.5,69.5 C 117.017,72.8554 110.684,76.6887 104.5,81C 103.563,81.6917 102.897,81.525 102.5,80.5C 108.387,74.7562 115.387,71.0896 123.5,69.5 Z"/></g>
<g><path style="opacity:1" fill="#421bb0" d="M 196.5,72.5 C 195.833,72.5 195.5,72.8333 195.5,73.5C 192.526,76.1379 189.526,78.8046 186.5,81.5C 186.631,80.6236 186.298,79.9569 185.5,79.5C 183.072,82.098 180.239,84.098 177,85.5C 174.014,83.6799 171.514,81.3466 169.5,78.5C 171.886,79.3733 173.886,80.8733 175.5,83C 176.833,83.6667 178.167,83.6667 179.5,83C 182.959,79.2287 186.292,75.3954 189.5,71.5C 190.338,71.1583 190.672,70.4916 190.5,69.5C 191.791,69.7373 192.791,69.404 193.5,68.5C 194.82,67.0582 196.486,66.3915 198.5,66.5C 198.747,68.8583 198.081,70.8583 196.5,72.5 Z"/></g>
<g><path style="opacity:1" fill="#1b1c1f" d="M 67.5,30.5 C 66.9717,31.7206 66.305,32.8873 65.5,34C 67.7078,34.1909 69.7078,34.6909 71.5,35.5C 66.1213,34.302 62.1213,35.9687 59.5,40.5C 59.631,39.7611 59.4643,39.0944 59,38.5C 25.4405,66.9808 10.6072,103.314 14.5,147.5C 9.22266,103.184 23.556,66.3508 57.5,37C 60.7196,34.5633 64.053,32.3967 67.5,30.5 Z"/></g>
<g><path style="opacity:1" fill="#fbfbfd" d="M 106.5,92.5 C 107.496,92.4142 108.329,92.7476 109,93.5C 110.275,97.0421 111.775,100.375 113.5,103.5C 117.235,112.375 120.569,121.375 123.5,130.5C 121.122,134.624 119.122,138.958 117.5,143.5C 113.773,151.681 110.44,160.014 107.5,168.5C 103.952,165.094 101.118,161.094 99,156.5C 89.5742,133.627 92.0742,112.294 106.5,92.5 Z"/></g>
<g><path style="opacity:1" fill="#a0bddc" d="M 150.5,89.5 C 143.5,89.5 136.5,89.5 129.5,89.5C 129.263,90.791 129.596,91.791 130.5,92.5C 132.21,97.5914 134.21,102.591 136.5,107.5C 140.796,108.328 145.129,108.828 149.5,109C 150.416,109.278 151.082,109.778 151.5,110.5C 146.355,109.309 141.355,109.309 136.5,110.5C 135.599,109.71 134.932,108.71 134.5,107.5C 132.167,101.5 129.833,95.5 127.5,89.5C 135.265,88.188 142.932,88.188 150.5,89.5 Z"/></g>
<g><path style="opacity:1" fill="#0c1b57" d="M 195.5,73.5 C 195.36,75.1238 196.027,76.2904 197.5,77C 196.549,77.7175 196.383,78.5509 197,79.5C 201.037,82.3221 202.537,85.9888 201.5,90.5C 203.754,90.246 206.087,90.246 208.5,90.5C 207.352,92.1487 206.019,93.6487 204.5,95C 205.793,95.49 207.127,95.6567 208.5,95.5C 209.077,99.0694 209.077,102.403 208.5,105.5C 209.833,105.5 211.167,105.5 212.5,105.5C 212.723,108.784 213.39,111.951 214.5,115C 213.684,116.923 213.017,118.923 212.5,121C 213.724,123.29 215.057,125.456 216.5,127.5C 216.5,128.5 216.5,129.5 216.5,130.5C 209.891,129.577 203.224,129.244 196.5,129.5C 196.28,125.522 195.28,121.855 193.5,118.5C 192.03,113.586 190.863,108.586 190,103.5C 187.403,98.6289 184.569,93.9622 181.5,89.5C 182.366,86.3075 184.032,83.6408 186.5,81.5C 189.526,78.8046 192.526,76.1379 195.5,73.5 Z"/></g>
<g><path style="opacity:1" fill="#0e5db6" d="M 110.5,88.5 C 115.975,89.4889 121.642,89.8222 127.5,89.5C 129.833,95.5 132.167,101.5 134.5,107.5C 133.778,107.918 133.278,108.584 133,109.5C 131.552,107.106 129.386,105.606 126.5,105C 122.593,104.323 118.759,103.49 115,102.5C 114.617,103.056 114.117,103.389 113.5,103.5C 111.775,100.375 110.275,97.0421 109,93.5C 108.329,92.7476 107.496,92.4142 106.5,92.5C 107.833,91.1667 109.167,89.8333 110.5,88.5 Z"/></g>
<g><path style="opacity:1" fill="#7d6db9" d="M 96.5,83.5 C 98.2726,84.3143 98.7726,85.6476 98,87.5C 95.2222,91.3456 92.7222,95.3456 90.5,99.5C 89.5416,99.9528 88.7083,100.619 88,101.5C 86.3333,104.5 84.6667,107.5 83,110.5C 82.5357,109.906 82.369,109.239 82.5,108.5C 83.7694,103.957 85.6028,99.624 88,95.5C 91.4665,91.88 94.2999,87.88 96.5,83.5 Z"/></g>
<g><path style="opacity:1" fill="#1468c7" d="M 150.5,89.5 C 161.804,92.1327 169.804,98.7993 174.5,109.5C 168.807,108.988 163.807,106.822 159.5,103C 154.457,101.822 149.457,100.489 144.5,99C 140.207,96.7174 136.04,94.2174 132,91.5C 131.617,92.056 131.117,92.3893 130.5,92.5C 129.596,91.791 129.263,90.791 129.5,89.5C 136.5,89.5 143.5,89.5 150.5,89.5 Z"/></g>
<g><path style="opacity:1" fill="#0d52a1" d="M 174.5,109.5 C 177.342,114.689 178.675,120.356 178.5,126.5C 173.599,122.662 167.932,120.662 161.5,120.5C 159.167,116.167 155.833,112.833 151.5,110.5C 151.082,109.778 150.416,109.278 149.5,109C 145.129,108.828 140.796,108.328 136.5,107.5C 134.21,102.591 132.21,97.5914 130.5,92.5C 131.117,92.3893 131.617,92.056 132,91.5C 136.04,94.2174 140.207,96.7174 144.5,99C 149.457,100.489 154.457,101.822 159.5,103C 163.807,106.822 168.807,108.988 174.5,109.5 Z"/></g>
<g><path style="opacity:1" fill="#f5f4f7" d="M 178.5,106.5 C 183.851,123.257 183.517,139.924 177.5,156.5C 174.007,162.123 170.007,167.456 165.5,172.5C 150.794,184.783 134.794,186.783 117.5,178.5C 114.126,175.49 110.792,172.49 107.5,169.5C 107.5,169.167 107.5,168.833 107.5,168.5C 114.167,168.5 120.833,168.5 127.5,168.5C 128.167,168.5 128.833,168.5 129.5,168.5C 136.841,168.666 144.174,168.5 151.5,168C 157.474,166.685 162.474,163.852 166.5,159.5C 169.547,157.082 171.88,154.082 173.5,150.5C 176.589,144.563 178.255,138.23 178.5,131.5C 173.167,131.5 167.833,131.5 162.5,131.5C 162.5,131.167 162.5,130.833 162.5,130.5C 167.833,130.5 173.167,130.5 178.5,130.5C 178.5,129.167 178.5,127.833 178.5,126.5C 178.675,120.356 177.342,114.689 174.5,109.5C 169.804,98.7993 161.804,92.1327 150.5,89.5C 142.932,88.188 135.265,88.188 127.5,89.5C 121.642,89.8222 115.975,89.4889 110.5,88.5C 115.219,83.6434 120.886,80.1434 127.5,78C 151.605,75.0473 168.605,84.5473 178.5,106.5 Z"/></g>
<g><path style="opacity:1" fill="#fbfbfa" d="M 151.5,110.5 C 155.833,112.833 159.167,116.167 161.5,120.5C 162.207,123.786 162.54,127.119 162.5,130.5C 162.5,130.833 162.5,131.167 162.5,131.5C 161.55,135.353 160.217,139.02 158.5,142.5C 152.654,148.026 145.654,150.026 137.5,148.5C 137.5,147.833 137.5,147.167 137.5,146.5C 139.526,141.126 141.526,135.793 143.5,130.5C 144.043,130.44 144.376,130.107 144.5,129.5C 141.827,123.143 139.161,116.809 136.5,110.5C 141.355,109.309 146.355,109.309 151.5,110.5 Z"/></g>
<g><path style="opacity:1" fill="#1873d7" d="M 134.5,107.5 C 134.932,108.71 135.599,109.71 136.5,110.5C 139.161,116.809 141.827,123.143 144.5,129.5C 144.376,130.107 144.043,130.44 143.5,130.5C 136.833,130.5 130.167,130.5 123.5,130.5C 120.569,121.375 117.235,112.375 113.5,103.5C 114.117,103.389 114.617,103.056 115,102.5C 118.759,103.49 122.593,104.323 126.5,105C 129.386,105.606 131.552,107.106 133,109.5C 133.278,108.584 133.778,107.918 134.5,107.5 Z"/></g>
<g><path style="opacity:1" fill="#7350b5" d="M 90.5,99.5 C 87.3095,107.211 85.3095,115.211 84.5,123.5C 82.8333,123.5 81.1667,123.5 79.5,123.5C 79.5,122.833 79.5,122.167 79.5,121.5C 80.0971,116.988 81.0971,112.655 82.5,108.5C 82.369,109.239 82.5357,109.906 83,110.5C 84.6667,107.5 86.3333,104.5 88,101.5C 88.7083,100.619 89.5416,99.9528 90.5,99.5 Z"/></g>
<g><path style="opacity:1" fill="#cf991c" d="M 47.5,121.5 C 45.5,121.5 43.5,121.5 41.5,121.5C 41.5,123.5 41.5,125.5 41.5,127.5C 43.1667,127.5 44.8333,127.5 46.5,127.5C 46.7373,128.791 46.404,129.791 45.5,130.5C 44.0821,128.692 42.0821,128.025 39.5,128.5C 39.5,126.5 39.5,124.5 39.5,122.5C 37.8333,122.5 36.1667,122.5 34.5,122.5C 34.5,120.167 34.5,117.833 34.5,115.5C 28.143,114.679 24.8096,117.513 24.5,124C 26.6086,126.858 28.942,130.191 31.5,134C 34.4816,134.498 37.4816,134.665 40.5,134.5C 40.3893,135.117 40.056,135.617 39.5,136C 30.8477,138.181 25.5144,135.014 23.5,126.5C 23.3677,123.43 23.701,120.43 24.5,117.5C 24.4142,116.504 24.7476,115.671 25.5,115C 35.5159,108.669 42.8492,110.836 47.5,121.5 Z"/></g>
<g><path style="opacity:1" fill="#e2a905" d="M 45.5,130.5 C 44.0552,132.063 42.3885,133.396 40.5,134.5C 37.4816,134.665 34.4816,134.498 31.5,134C 28.942,130.191 26.6086,126.858 24.5,124C 24.8096,117.513 28.143,114.679 34.5,115.5C 34.5,117.833 34.5,120.167 34.5,122.5C 36.1667,122.5 37.8333,122.5 39.5,122.5C 39.5,124.5 39.5,126.5 39.5,128.5C 42.0821,128.025 44.0821,128.692 45.5,130.5 Z"/></g>
<g><path style="opacity:1" fill="#361f77" d="M 47.5,121.5 C 47.8333,121.5 48.1667,121.5 48.5,121.5C 58.8333,121.5 69.1667,121.5 79.5,121.5C 79.5,122.167 79.5,122.833 79.5,123.5C 67.1799,122.783 54.8466,122.449 42.5,122.5C 42.2627,123.791 42.596,124.791 43.5,125.5C 44.5,126.167 45.5,126.833 46.5,127.5C 44.8333,127.5 43.1667,127.5 41.5,127.5C 41.5,125.5 41.5,123.5 41.5,121.5C 43.5,121.5 45.5,121.5 47.5,121.5 Z"/></g>
<g><path style="opacity:1" fill="#6e5f3c" d="M 24.5,117.5 C 23.701,120.43 23.3677,123.43 23.5,126.5C 22.3659,124.034 22.1993,121.367 23,118.5C 23.3826,117.944 23.8826,117.611 24.5,117.5 Z"/></g>
<g><path style="opacity:1" fill="#0b67c9" d="M 161.5,120.5 C 167.932,120.662 173.599,122.662 178.5,126.5C 178.5,127.833 178.5,129.167 178.5,130.5C 173.167,130.5 167.833,130.5 162.5,130.5C 162.54,127.119 162.207,123.786 161.5,120.5 Z"/></g>
<g><path style="opacity:1" fill="#2e1793" d="M 43.5,125.5 C 55.8074,126.395 68.1408,126.728 80.5,126.5C 80.5,127.5 80.5,128.5 80.5,129.5C 80.1667,129.5 79.8333,129.5 79.5,129.5C 68.819,129.53 58.1523,129.196 47.5,128.5C 47.5,127.833 47.1667,127.5 46.5,127.5C 45.5,126.833 44.5,126.167 43.5,125.5 Z"/></g>
<g><path style="opacity:1" fill="#e5c316" d="M 162.5,131.5 C 167.833,131.5 173.167,131.5 178.5,131.5C 178.255,138.23 176.589,144.563 173.5,150.5C 168.972,148.587 164.305,146.921 159.5,145.5C 158.614,144.675 158.281,143.675 158.5,142.5C 160.217,139.02 161.55,135.353 162.5,131.5 Z"/></g>
<g><path style="opacity:1" fill="#3617a1" d="M 193.5,118.5 C 195.28,121.855 196.28,125.522 196.5,129.5C 203.224,129.244 209.891,129.577 216.5,130.5C 217.919,131.451 219.585,131.784 221.5,131.5C 221.5,132.5 221.5,133.5 221.5,134.5C 212.833,134.5 204.167,134.5 195.5,134.5C 195.844,139.122 195.177,143.455 193.5,147.5C 194.756,137.839 194.756,128.172 193.5,118.5 Z"/></g>
<g><path style="opacity:1" fill="#0d1c57" d="M 221.5,134.5 C 220.081,135.451 218.415,135.784 216.5,135.5C 216.5,136.5 216.5,137.5 216.5,138.5C 216.396,141.09 217.063,143.423 218.5,145.5C 217.258,148.448 215.925,151.282 214.5,154C 215,154.5 215.5,155 216,155.5C 217.183,154.269 218.349,154.269 219.5,155.5C 218.579,157.756 216.912,158.756 214.5,158.5C 214.551,160.57 213.885,162.403 212.5,164C 212.752,166.809 214.085,168.809 216.5,170C 213.799,175.05 210.799,179.883 207.5,184.5C 206.012,186.271 204.179,187.604 202,188.5C 201.52,190.133 200.687,191.466 199.5,192.5C 199.5,193.5 199.5,194.5 199.5,195.5C 195.643,189.198 190.809,183.531 185,178.5C 183.077,173.306 184.41,168.973 189,165.5C 190.295,161.785 191.462,158.118 192.5,154.5C 193.369,152.283 193.702,149.95 193.5,147.5C 195.177,143.455 195.844,139.122 195.5,134.5C 204.167,134.5 212.833,134.5 221.5,134.5 Z"/></g>
<g><path style="opacity:1" fill="#bca016" d="M 123.5,130.5 C 130.167,130.5 136.833,130.5 143.5,130.5C 141.526,135.793 139.526,141.126 137.5,146.5C 137.167,146.5 136.833,146.5 136.5,146.5C 130.635,142.809 124.302,141.809 117.5,143.5C 119.122,138.958 121.122,134.624 123.5,130.5 Z"/></g>
<g><path style="opacity:1" fill="#ba7d29" d="M 233.5,130.5 C 233.806,133.385 233.473,136.052 232.5,138.5C 232.567,139.959 232.234,141.292 231.5,142.5C 225.488,144.57 220.488,143.236 216.5,138.5C 216.5,137.5 216.5,136.5 216.5,135.5C 218.415,135.784 220.081,135.451 221.5,134.5C 221.5,133.5 221.5,132.5 221.5,131.5C 219.585,131.784 217.919,131.451 216.5,130.5C 216.5,129.5 216.5,128.5 216.5,127.5C 223.223,122.764 228.89,123.764 233.5,130.5 Z"/></g>
<g><path style="opacity:1" fill="#da8f0c" d="M 232.5,138.5 C 230.621,142.009 227.621,143.342 223.5,142.5C 223.762,141.022 223.429,139.689 222.5,138.5C 220.426,140.828 219.426,140.161 219.5,136.5C 220.675,136.719 221.675,136.386 222.5,135.5C 223.248,133.668 224.248,132.001 225.5,130.5C 224.369,129.396 223.535,129.729 223,131.5C 221.509,129.996 219.676,129.163 217.5,129C 218.839,126.984 220.672,125.817 223,125.5C 226.263,127.094 229.263,129.094 232,131.5C 232.497,133.81 232.663,136.143 232.5,138.5 Z"/></g>
<g><path style="opacity:1" fill="#b09514" d="M 158.5,142.5 C 158.281,143.675 158.614,144.675 159.5,145.5C 164.305,146.921 168.972,148.587 173.5,150.5C 171.88,154.082 169.547,157.082 166.5,159.5C 166.092,158.357 165.425,157.357 164.5,156.5C 160.791,155.812 157.457,154.312 154.5,152C 149.012,149.984 143.345,149.151 137.5,149.5C 137.5,149.167 137.5,148.833 137.5,148.5C 145.654,150.026 152.654,148.026 158.5,142.5 Z"/></g>
<g><path style="opacity:1" fill="#744cbf" d="M 79.5,129.5 C 79.8333,129.5 80.1667,129.5 80.5,129.5C 81.8221,129.33 82.9887,129.663 84,130.5C 85.8696,139.269 88.0363,147.936 90.5,156.5C 87.8333,153.833 85.1667,151.167 82.5,148.5C 80.8526,142.306 79.8526,135.972 79.5,129.5 Z"/></g>
<g><path style="opacity:1" fill="#e6c110" d="M 136.5,146.5 C 133.499,153.838 130.499,161.172 127.5,168.5C 120.833,168.5 114.167,168.5 107.5,168.5C 110.44,160.014 113.773,151.681 117.5,143.5C 124.302,141.809 130.635,142.809 136.5,146.5 Z"/></g>
<g><path style="opacity:1" fill="#4913e7" d="M 177.5,156.5 C 183.517,139.924 183.851,123.257 178.5,106.5C 180.166,102.576 181.999,102.576 184,106.5C 184.317,104.699 184.984,104.366 186,105.5C 191.311,118.698 192.644,132.364 190,146.5C 189.333,147.833 188.667,149.167 188,150.5C 186.989,149.663 185.822,149.33 184.5,149.5C 185.192,152.897 185.192,156.23 184.5,159.5C 183.719,158.271 183.219,156.938 183,155.5C 181.743,157.746 179.91,159.079 177.5,159.5C 177.5,158.5 177.5,157.5 177.5,156.5 Z"/></g>
<g><path style="opacity:1" fill="#e6c210" d="M 137.5,149.5 C 143.345,149.151 149.012,149.984 154.5,152C 157.457,154.312 160.791,155.812 164.5,156.5C 165.425,157.357 166.092,158.357 166.5,159.5C 162.474,163.852 157.474,166.685 151.5,168C 144.174,168.5 136.841,168.666 129.5,168.5C 131.796,161.927 134.462,155.594 137.5,149.5 Z"/></g>
<g><path style="opacity:1" fill="#f3e7a7" d="M 136.5,146.5 C 136.833,146.5 137.167,146.5 137.5,146.5C 137.5,147.167 137.5,147.833 137.5,148.5C 137.5,148.833 137.5,149.167 137.5,149.5C 134.462,155.594 131.796,161.927 129.5,168.5C 128.833,168.5 128.167,168.5 127.5,168.5C 130.499,161.172 133.499,153.838 136.5,146.5 Z"/></g>
<g><path style="opacity:1" fill="#73449e" d="M 82.5,148.5 C 85.1667,151.167 87.8333,153.833 90.5,156.5C 93.1667,160.833 95.8333,165.167 98.5,169.5C 98.5,169.833 98.5,170.167 98.5,170.5C 97.1667,171.167 95.8333,171.833 94.5,172.5C 88.9341,165.368 84.9341,157.368 82.5,148.5 Z"/></g>
<g><path style="opacity:1" fill="#3a1ba6" d="M 192.5,154.5 C 191.462,158.118 190.295,161.785 189,165.5C 184.41,168.973 183.077,173.306 185,178.5C 190.809,183.531 195.643,189.198 199.5,195.5C 199.833,195.5 200.167,195.5 200.5,195.5C 201.897,200.444 200.564,201.444 196.5,198.5C 194.909,197.781 193.409,196.781 192,195.5C 188.034,189.702 183.534,184.369 178.5,179.5C 175.394,181.952 172.061,183.952 168.5,185.5C 172.827,180.34 177.66,175.674 183,171.5C 186.899,166.146 190.066,160.48 192.5,154.5 Z"/></g>
<g><path style="opacity:1" fill="#3813a9" d="M 107.5,169.5 C 110.792,172.49 114.126,175.49 117.5,178.5C 117.414,179.496 117.748,180.329 118.5,181C 124.063,183.616 129.729,185.949 135.5,188C 141.167,188.667 146.833,188.667 152.5,188C 155.494,186.287 158.661,186.12 162,187.5C 164.086,186.582 166.253,185.915 168.5,185.5C 167.571,186.315 166.571,187.148 165.5,188C 160.231,189.468 154.898,190.635 149.5,191.5C 147.167,191.5 144.833,191.5 142.5,191.5C 142.829,204.677 142.495,217.677 141.5,230.5C 141.667,217.829 141.5,205.162 141,192.5C 140.586,192.043 140.086,191.709 139.5,191.5C 138.19,203.228 138.19,214.895 139.5,226.5C 139.167,226.5 138.833,226.5 138.5,226.5C 138.167,226.5 137.833,226.5 137.5,226.5C 137.5,226.167 137.5,225.833 137.5,225.5C 137.5,214.5 137.5,203.5 137.5,192.5C 134.779,192.037 132.112,191.371 129.5,190.5C 118.777,187.976 109.777,182.642 102.5,174.5C 100.889,175.32 100.222,176.654 100.5,178.5C 91.5259,185.143 83.1926,192.476 75.5,200.5C 83.4599,191.37 91.6266,182.37 100,173.5C 100.725,171.843 100.225,170.843 98.5,170.5C 98.5,170.167 98.5,169.833 98.5,169.5C 99.404,168.791 99.7373,167.791 99.5,166.5C 100.833,166.5 102.167,166.5 103.5,166.5C 103.13,170.186 104.463,171.186 107.5,169.5 Z"/></g>
<g><path style="opacity:1" fill="#765488" d="M 129.5,190.5 C 130.85,191.65 130.684,192.317 129,192.5C 118.324,190.078 108.824,185.412 100.5,178.5C 100.222,176.654 100.889,175.32 102.5,174.5C 109.777,182.642 118.777,187.976 129.5,190.5 Z"/></g>
<g><path style="opacity:1" fill="#0b1c57" d="M 196.5,198.5 C 195.5,198.5 194.5,198.5 193.5,198.5C 192.549,199.919 192.216,201.585 192.5,203.5C 190.712,203.215 189.045,203.548 187.5,204.5C 185.637,207.712 182.97,209.712 179.5,210.5C 179.785,212.288 179.452,213.955 178.5,215.5C 175.242,216.417 171.909,216.751 168.5,216.5C 168.5,217.833 168.5,219.167 168.5,220.5C 165.15,220.335 161.817,220.502 158.5,221C 157.253,222.458 157.253,223.958 158.5,225.5C 157.917,227.002 157.084,228.335 156,229.5C 155.347,226.982 155.514,224.315 156.5,221.5C 152.623,221.483 151.957,222.649 154.5,225C 153.234,225.309 152.067,225.809 151,226.5C 150.581,225.328 149.915,224.328 149,223.5C 149.195,225.126 149.195,226.793 149,228.5C 147.814,226.323 145.981,225.323 143.5,225.5C 143.5,214.5 143.5,203.5 143.5,192.5C 145.735,192.795 147.735,192.461 149.5,191.5C 154.898,190.635 160.231,189.468 165.5,188C 166.571,187.148 167.571,186.315 168.5,185.5C 172.061,183.952 175.394,181.952 178.5,179.5C 183.534,184.369 188.034,189.702 192,195.5C 193.409,196.781 194.909,197.781 196.5,198.5 Z"/></g>
<g><path style="opacity:1" fill="#6927cf" d="M 98.5,170.5 C 100.225,170.843 100.725,171.843 100,173.5C 91.6266,182.37 83.4599,191.37 75.5,200.5C 74.8444,201.278 74.0111,201.944 73,202.5C 72.5,202.167 72,201.833 71.5,201.5C 72.934,199.78 73.7674,197.78 74,195.5C 81.0634,187.942 87.8967,180.276 94.5,172.5C 95.8333,171.833 97.1667,171.167 98.5,170.5 Z"/></g>
<g><path style="opacity:1" fill="#945f2e" d="M 199.5,192.5 C 202.448,192.223 205.281,192.556 208,193.5C 208.953,195.455 210.287,197.122 212,198.5C 212.801,201.367 212.634,204.034 211.5,206.5C 211.579,203.729 211.079,201.063 210,198.5C 209.667,198.833 209.333,199.167 209,199.5C 207.939,193.451 205.106,192.118 200.5,195.5C 200.167,195.5 199.833,195.5 199.5,195.5C 199.5,194.5 199.5,193.5 199.5,192.5 Z"/></g>
<g><path style="opacity:1" fill="#0d1c58" d="M 47.5,128.5 C 58.1523,129.196 68.819,129.53 79.5,129.5C 79.8526,135.972 80.8526,142.306 82.5,148.5C 84.9341,157.368 88.9341,165.368 94.5,172.5C 87.8967,180.276 81.0634,187.942 74,195.5C 73.7674,197.78 72.934,199.78 71.5,201.5C 72,201.833 72.5,202.167 73,202.5C 74.0111,201.944 74.8444,201.278 75.5,200.5C 83.1926,192.476 91.5259,185.143 100.5,178.5C 108.824,185.412 118.324,190.078 129,192.5C 130.684,192.317 130.85,191.65 129.5,190.5C 132.112,191.371 134.779,192.037 137.5,192.5C 137.5,203.5 137.5,214.5 137.5,225.5C 136.883,225.389 136.383,225.056 136,224.5C 135.171,213.854 134.671,213.854 134.5,224.5C 128.311,227.379 122.311,226.546 116.5,222C 118.037,220.89 118.703,219.39 118.5,217.5C 115.68,219.937 112.347,221.603 108.5,222.5C 106.119,220.604 103.619,220.271 101,221.5C 97.1858,219.015 93.6858,216.182 90.5,213C 91.731,211.817 91.731,210.651 90.5,209.5C 89.1767,211.682 87.5101,212.349 85.5,211.5C 87.4613,210.152 87.6279,208.819 86,207.5C 84.4173,207.493 82.7506,207.826 81,208.5C 80.9504,206.256 80.1171,204.589 78.5,203.5C 78.44,202.957 78.1067,202.624 77.5,202.5C 70.53,205.695 68.8634,203.862 72.5,197C 72.1639,195.97 71.4972,195.47 70.5,195.5C 68.6312,193.97 66.6312,192.47 64.5,191C 64.8333,190 65.1667,189 65.5,188C 63.236,187.764 61.0693,187.264 59,186.5C 58.6667,187.5 58.3333,188.5 58,189.5C 58.9238,182.846 57.7572,176.513 54.5,170.5C 53.0699,172.386 51.4032,174.053 49.5,175.5C 48.5,175.167 47.8333,174.5 47.5,173.5C 53.6057,167.866 53.939,162.033 48.5,156C 49.2558,147.108 49.5891,138.441 49.5,130C 48.5842,129.722 47.9175,129.222 47.5,128.5 Z"/></g>
<g><path style="opacity:1" fill="#6717db" d="M 141.5,230.5 C 139.824,229.817 139.157,228.483 139.5,226.5C 138.19,214.895 138.19,203.228 139.5,191.5C 140.086,191.709 140.586,192.043 141,192.5C 141.5,205.162 141.667,217.829 141.5,230.5 Z"/></g>
<g><path style="opacity:1" fill="#d38916" d="M 211.5,206.5 C 209.473,212.368 205.473,214.534 199.5,213C 194.053,209.731 192.053,204.898 193.5,198.5C 194.5,198.5 195.5,198.5 196.5,198.5C 200.564,201.444 201.897,200.444 200.5,195.5C 205.106,192.118 207.939,193.451 209,199.5C 209.333,199.167 209.667,198.833 210,198.5C 211.079,201.063 211.579,203.729 211.5,206.5 Z"/></g>
<g><path style="opacity:1" fill="#d08a0d" d="M 70.5,195.5 C 71.4972,195.47 72.1639,195.97 72.5,197C 68.8634,203.862 70.53,205.695 77.5,202.5C 78.1067,202.624 78.44,202.957 78.5,203.5C 78.649,216.852 72.3157,221.686 59.5,218C 58.1175,216.729 57.1175,215.229 56.5,213.5C 54.9615,208.524 55.6282,203.858 58.5,199.5C 59.2899,198.206 60.2899,197.039 61.5,196C 64.4816,195.502 67.4816,195.335 70.5,195.5 Z"/></g>
<g><path style="opacity:1" fill="#77633b" d="M 58.5,199.5 C 55.6282,203.858 54.9615,208.524 56.5,213.5C 55.8826,213.389 55.3826,213.056 55,212.5C 54.3333,209.167 54.3333,205.833 55,202.5C 55.7589,200.937 56.9256,199.937 58.5,199.5 Z"/></g>
<g><path style="opacity:1" fill="#401b87" d="M 149.5,191.5 C 147.735,192.461 145.735,192.795 143.5,192.5C 143.5,203.5 143.5,214.5 143.5,225.5C 143.5,225.833 143.5,226.167 143.5,226.5C 144.575,230.938 142.908,232.938 138.5,232.5C 138.5,230.5 138.5,228.5 138.5,226.5C 138.833,226.5 139.167,226.5 139.5,226.5C 139.157,228.483 139.824,229.817 141.5,230.5C 142.495,217.677 142.829,204.677 142.5,191.5C 144.833,191.5 147.167,191.5 149.5,191.5 Z"/></g>
<g><path style="opacity:1" fill="#c97f18" d="M 137.5,226.5 C 137.833,226.5 138.167,226.5 138.5,226.5C 138.5,228.5 138.5,230.5 138.5,232.5C 142.908,232.938 144.575,230.938 143.5,226.5C 145.638,226.703 147.305,227.703 148.5,229.5C 152.034,236.762 150.701,242.928 144.5,248C 134.869,250.559 129.869,246.726 129.5,236.5C 129.63,231.045 132.297,227.712 137.5,226.5 Z"/></g>
<g><path style="opacity:1" fill="#73788d" d="M 109.5,251.5 C 118.816,252.356 128.149,253.023 137.5,253.5C 136.036,254.16 134.369,254.493 132.5,254.5C 125.842,253.889 119.175,253.389 112.5,253C 111.263,252.768 110.263,252.268 109.5,251.5 Z"/></g>
</svg>
