<?xml version="1.0" encoding="UTF-8"?>
<!DOCTYPE svg PUBLIC "-//W3C//DTD SVG 1.1//EN" "http://www.w3.org/Graphics/SVG/1.1/DTD/svg11.dtd">
<svg xmlns="http://www.w3.org/2000/svg" version="1.1" width="310px" height="310px" style="shape-rendering:geometricPrecision; text-rendering:geometricPrecision; image-rendering:optimizeQuality; fill-rule:evenodd; clip-rule:evenodd" xmlns:xlink="http://www.w3.org/1999/xlink">
<g><path style="opacity:1" fill="#caa519" d="M 184.5,2.5 C 182.365,4.36895 179.698,5.03562 176.5,4.5C 154.567,2.13406 132.901,3.4674 111.5,8.5C 111.062,8.56544 110.728,8.39877 110.5,8C 112.183,6.71367 113.849,5.547 115.5,4.5C 119.889,2.75376 124.556,1.75376 129.5,1.5C 147.926,-0.0652623 166.259,0.268071 184.5,2.5 Z"/></g>
<g><path style="opacity:1" fill="#ead57c" d="M 136.5,-0.5 C 148.5,-0.5 160.5,-0.5 172.5,-0.5C 176.539,0.315794 180.539,1.31579 184.5,2.5C 166.259,0.268071 147.926,-0.0652623 129.5,1.5C 131.833,0.833333 134.167,0.166667 136.5,-0.5 Z"/></g>
<g><path style="opacity:1" fill="#070604" d="M 176.5,4.5 C 211.159,9.86746 240.493,25.2008 264.5,50.5C 263.221,52.1233 261.887,53.79 260.5,55.5C 258.257,56.4742 255.924,56.8076 253.5,56.5C 253.778,54.6536 253.111,53.3202 251.5,52.5C 249.889,53.3202 249.222,54.6536 249.5,56.5C 248.048,57.3019 246.382,57.8019 244.5,58C 245.044,58.7172 245.711,59.2172 246.5,59.5C 246.705,61.7848 247.038,64.1181 247.5,66.5C 248.522,66.1445 249.189,65.4778 249.5,64.5C 249.833,64.5 250.167,64.5 250.5,64.5C 251.525,64.8966 251.692,65.5632 251,66.5C 246.773,68.0068 243.606,70.6734 241.5,74.5C 209.279,42.8574 170.946,31.5241 126.5,40.5C 104.156,46.335 84.8227,57.335 68.5,73.5C 66.329,71.4998 63.9957,69.6665 61.5,68C 60.2617,67.31 60.2617,66.81 61.5,66.5C 62.4972,66.5299 63.1639,66.0299 63.5,65C 62.8524,63.5603 62.5191,62.0603 62.5,60.5C 63.4293,59.6851 64.4293,58.8518 65.5,58C 63.6183,57.8019 61.9516,57.3019 60.5,56.5C 59.0296,51.2428 57.6963,51.2428 56.5,56.5C 54.1432,56.6633 51.8098,56.4966 49.5,56C 48.2978,53.3077 46.4645,52.4744 44,53.5C 43.5357,52.9056 43.369,52.2389 43.5,51.5C 62.5376,31.469 85.2043,17.1357 111.5,8.5C 132.901,3.4674 154.567,2.13406 176.5,4.5 Z"/></g>
<g><path style="opacity:1" fill="#684e15" d="M 156.5,15.5 C 155.038,14.5291 153.705,14.8624 152.5,16.5C 153.398,11.8525 154.731,11.5191 156.5,15.5 Z"/></g>
<g><path style="opacity:1" fill="#c8a22c" d="M 184.5,2.5 C 216.817,8.65405 244.151,23.654 266.5,47.5C 266.5,48.8333 266.5,50.1667 266.5,51.5C 265.833,51.1667 265.167,50.8333 264.5,50.5C 240.493,25.2008 211.159,9.86746 176.5,4.5C 179.698,5.03562 182.365,4.36895 184.5,2.5 Z"/></g>
<g><path style="opacity:1" fill="#d3b32b" d="M 156.5,15.5 C 157.678,16.9986 159.345,17.9986 161.5,18.5C 159.244,19.4209 158.244,21.0876 158.5,23.5C 158.672,24.4916 158.338,25.1583 157.5,25.5C 155.169,24.2091 153.003,24.5424 151,26.5C 151.135,23.0617 149.968,20.2283 147.5,18C 149.382,17.8019 151.048,17.3019 152.5,16.5C 153.705,14.8624 155.038,14.5291 156.5,15.5 Z"/></g>
<g><path style="opacity:1" fill="#6f5e14" d="M 158.5,23.5 C 159.776,24.3864 159.776,25.3864 158.5,26.5C 157.893,26.3764 157.56,26.0431 157.5,25.5C 158.338,25.1583 158.672,24.4916 158.5,23.5 Z"/></g>
<g><path style="opacity:1" fill="#0f0d08" d="M 244.5,80.5 C 249.922,87.6716 254.589,95.3383 258.5,103.5C 258.037,106.482 257.704,109.482 257.5,112.5C 255.537,108.855 253.537,105.189 251.5,101.5C 232.607,69.373 204.607,50.7063 167.5,45.5C 124.945,42.115 90.6116,57.115 64.5,90.5C 64.7035,88.6096 64.0368,87.1096 62.5,86C 63.2524,85.3292 63.5858,84.4959 63.5,83.5C 80.1912,62.4838 101.525,48.4838 127.5,41.5C 173.623,33.5408 212.623,46.5408 244.5,80.5 Z"/></g>
<g><path style="opacity:1" fill="#1e1b0a" d="M 163.5,46.5 C 158.5,47.1667 153.5,47.8333 148.5,48.5C 142.819,48.6349 137.152,48.9682 131.5,49.5C 134.534,47.9823 137.867,47.1489 141.5,47C 148.826,46.5003 156.159,46.3337 163.5,46.5 Z"/></g>
<g><path style="opacity:1" fill="#f9db3e" d="M 148.5,48.5 C 153.833,48.5 159.167,48.5 164.5,48.5C 166.292,48.366 167.958,48.6993 169.5,49.5C 168.791,50.404 167.791,50.7373 166.5,50.5C 165.281,59.788 164.281,69.1214 163.5,78.5C 158.821,78.6658 154.155,78.4992 149.5,78C 143.05,73.3796 136.05,69.8796 128.5,67.5C 125.251,68.7554 122.251,70.4221 119.5,72.5C 117.728,68.8884 115.728,65.3884 113.5,62C 116.017,59.9104 116.017,58.0771 113.5,56.5C 119.37,53.7669 125.37,51.4335 131.5,49.5C 137.152,48.9682 142.819,48.6349 148.5,48.5 Z"/></g>
<g><path style="opacity:1" fill="#c2ac30" d="M 241.5,74.5 C 242.5,75.8333 243.5,77.1667 244.5,78.5C 244.5,79.1667 244.5,79.8333 244.5,80.5C 212.623,46.5408 173.623,33.5408 127.5,41.5C 126.833,41.5 126.5,41.1667 126.5,40.5C 170.946,31.5241 209.279,42.8574 241.5,74.5 Z"/></g>
<g><path style="opacity:1" fill="#ebc237" d="M 169.5,49.5 C 174.376,49.7645 179.043,50.7645 183.5,52.5C 182.152,53.1859 180.985,54.1859 180,55.5C 177.571,62.9701 175.737,70.6367 174.5,78.5C 170.833,78.5 167.167,78.5 163.5,78.5C 164.281,69.1214 165.281,59.788 166.5,50.5C 167.791,50.7373 168.791,50.404 169.5,49.5 Z"/></g>
<g><path style="opacity:1" fill="#7c611d" d="M 60.5,56.5 C 59.5416,56.0472 58.7083,55.3805 58,54.5C 57.7216,55.4158 57.2216,56.0825 56.5,56.5C 57.6963,51.2428 59.0296,51.2428 60.5,56.5 Z"/></g>
<g><path style="opacity:1" fill="#6f561a" d="M 253.5,56.5 C 252.849,55.9094 252.182,55.2427 251.5,54.5C 250.818,55.2427 250.151,55.9094 249.5,56.5C 249.222,54.6536 249.889,53.3202 251.5,52.5C 253.111,53.3202 253.778,54.6536 253.5,56.5 Z"/></g>
<g><path style="opacity:1" fill="#261f0d" d="M 164.5,48.5 C 197.296,50.2367 223.296,64.57 242.5,91.5C 242.167,91.5 241.833,91.5 241.5,91.5C 238.167,87.8333 234.833,84.1667 231.5,80.5C 223.165,71.1716 213.165,64.1716 201.5,59.5C 196.019,56.0032 190.019,53.6699 183.5,52.5C 179.043,50.7645 174.376,49.7645 169.5,49.5C 167.958,48.6993 166.292,48.366 164.5,48.5 Z"/></g>
<g><path style="opacity:1" fill="#866a1e" d="M 167.5,45.5 C 204.607,50.7063 232.607,69.373 251.5,101.5C 250.833,101.5 250.5,101.833 250.5,102.5C 248.078,98.6562 245.411,94.9895 242.5,91.5C 223.296,64.57 197.296,50.2367 164.5,48.5C 159.167,48.5 153.833,48.5 148.5,48.5C 153.5,47.8333 158.5,47.1667 163.5,46.5C 165.099,46.7678 166.432,46.4345 167.5,45.5 Z"/></g>
<g><path style="opacity:1" fill="#e0bd2e" d="M 60.5,56.5 C 61.9516,57.3019 63.6183,57.8019 65.5,58C 64.4293,58.8518 63.4293,59.6851 62.5,60.5C 61.7597,62.2552 61.4263,63.9218 61.5,65.5C 60.5178,64.8592 59.5178,64.1925 58.5,63.5C 55.4307,66.0795 53.9307,65.0795 54,60.5C 53.1667,59.6667 52.3333,58.8333 51.5,58C 53.3817,57.8019 55.0484,57.3019 56.5,56.5C 57.2216,56.0825 57.7216,55.4158 58,54.5C 58.7083,55.3805 59.5416,56.0472 60.5,56.5 Z"/></g>
<g><path style="opacity:1" fill="#f8db2f" d="M 113.5,56.5 C 116.017,58.0771 116.017,59.9104 113.5,62C 115.728,65.3884 117.728,68.8884 119.5,72.5C 118.375,74.1288 117.041,75.6288 115.5,77C 108.451,80.4608 101.117,83.1274 93.5,85C 92.6195,85.7083 91.9528,86.5416 91.5,87.5C 90.3592,90.6399 90.1925,93.9733 91,97.5C 93.2863,100.365 94.1197,103.698 93.5,107.5C 92.8333,107.5 92.1667,107.5 91.5,107.5C 88.8333,105.833 86.1667,104.167 83.5,102.5C 83.44,101.957 83.1067,101.624 82.5,101.5C 81.3873,106.432 81.7206,111.265 83.5,116C 79.8484,116.499 76.1817,116.665 72.5,116.5C 71.158,115.207 69.4913,114.374 67.5,114C 68.3802,112.644 68.7135,111.144 68.5,109.5C 69.9741,105.891 71.9741,102.557 74.5,99.5C 74.1373,98.8165 73.8039,98.1499 73.5,97.5C 72.791,96.596 71.791,96.2627 70.5,96.5C 70.6399,94.8762 69.9733,93.7096 68.5,93C 69.2524,92.3292 69.5858,91.4959 69.5,90.5C 73.794,84.8705 78.4607,79.5372 83.5,74.5C 92.5658,66.9661 102.566,60.9661 113.5,56.5 Z"/></g>
<g><path style="opacity:1" fill="#eac831" d="M 253.5,56.5 C 254.952,57.3019 256.618,57.8019 258.5,58C 257.956,58.7172 257.289,59.2172 256.5,59.5C 255.127,59.3433 253.793,59.51 252.5,60C 254.466,61.3466 254.799,62.8466 253.5,64.5C 252.348,63.375 251.348,63.375 250.5,64.5C 250.167,64.5 249.833,64.5 249.5,64.5C 248.601,63.0057 248.935,61.5057 250.5,60C 249.207,59.51 247.873,59.3433 246.5,59.5C 245.711,59.2172 245.044,58.7172 244.5,58C 246.382,57.8019 248.048,57.3019 249.5,56.5C 250.151,55.9094 250.818,55.2427 251.5,54.5C 252.182,55.2427 252.849,55.9094 253.5,56.5 Z"/></g>
<g><path style="opacity:1" fill="#252210" d="M 131.5,49.5 C 125.37,51.4335 119.37,53.7669 113.5,56.5C 102.566,60.9661 92.5658,66.9661 83.5,74.5C 83.1667,74.5 82.8333,74.5 82.5,74.5C 96.1546,61.1717 112.488,52.8383 131.5,49.5 Z"/></g>
<g><path style="opacity:1" fill="#9b8b27" d="M 167.5,45.5 C 166.432,46.4345 165.099,46.7678 163.5,46.5C 156.159,46.3337 148.826,46.5003 141.5,47C 137.867,47.1489 134.534,47.9823 131.5,49.5C 112.488,52.8383 96.1546,61.1717 82.5,74.5C 74.0965,81.2391 67.0965,89.2391 61.5,98.5C 60.8333,98.5 60.5,98.1667 60.5,97.5C 61.8333,95.1667 63.1667,92.8333 64.5,90.5C 90.6116,57.115 124.945,42.115 167.5,45.5 Z"/></g>
<g><path style="opacity:1" fill="#a38829" d="M 246.5,59.5 C 247.873,59.3433 249.207,59.51 250.5,60C 248.935,61.5057 248.601,63.0057 249.5,64.5C 249.189,65.4778 248.522,66.1445 247.5,66.5C 247.038,64.1181 246.705,61.7848 246.5,59.5 Z"/></g>
<g><path style="opacity:1" fill="#947a1f" d="M 256.5,59.5 C 256.295,61.7848 255.962,64.1181 255.5,66.5C 254.478,66.1445 253.811,65.4778 253.5,64.5C 254.799,62.8466 254.466,61.3466 252.5,60C 253.793,59.51 255.127,59.3433 256.5,59.5 Z"/></g>
<g><path style="opacity:1" fill="#6f5f1c" d="M 62.5,60.5 C 62.5191,62.0603 62.8524,63.5603 63.5,65C 63.1639,66.0299 62.4972,66.5299 61.5,66.5C 61.5,66.1667 61.5,65.8333 61.5,65.5C 61.4263,63.9218 61.7597,62.2552 62.5,60.5 Z"/></g>
<g><path style="opacity:1" fill="#d19b24" d="M 201.5,59.5 C 213.165,64.1716 223.165,71.1716 231.5,80.5C 225.862,86.0567 219.862,91.39 213.5,96.5C 212.614,97.325 212.281,98.325 212.5,99.5C 206.63,95.8134 200.297,92.98 193.5,91C 191.294,88.9633 189.294,86.7966 187.5,84.5C 189.017,84.4894 190.184,83.8228 191,82.5C 194.512,74.8109 198.012,67.1442 201.5,59.5 Z"/></g>
<g><path style="opacity:1" fill="#1c1b1a" d="M 43.5,51.5 C 43.369,52.2389 43.5357,52.9056 44,53.5C 46.4645,52.4744 48.2978,53.3077 49.5,56C 51.8098,56.4966 54.1432,56.6633 56.5,56.5C 55.0484,57.3019 53.3817,57.8019 51.5,58C 52.3333,58.8333 53.1667,59.6667 54,60.5C 53.9307,65.0795 55.4307,66.0795 58.5,63.5C 59.5178,64.1925 60.5178,64.8592 61.5,65.5C 61.5,65.8333 61.5,66.1667 61.5,66.5C 60.2617,66.81 60.2617,67.31 61.5,68C 63.9957,69.6665 66.329,71.4998 68.5,73.5C 62.0311,80.9629 56.3644,88.9629 51.5,97.5C 49.8333,100.167 48.1667,102.833 46.5,105.5C 45.2264,104.811 45.2264,103.977 46.5,103C 37.5754,98.9715 28.9088,94.4715 20.5,89.5C 18.7859,90.6085 18.1192,89.9418 18.5,87.5C 24.5019,73.8397 32.8353,61.8397 43.5,51.5 Z"/></g>
<g><path style="opacity:1" fill="#d4b22b" d="M 266.5,47.5 C 279.734,60.2886 289.734,75.2886 296.5,92.5C 295.766,93.7079 295.433,95.0413 295.5,96.5C 293.882,92.6638 291.882,88.9971 289.5,85.5C 283.429,73.0942 275.762,61.7608 266.5,51.5C 266.5,50.1667 266.5,48.8333 266.5,47.5 Z"/></g>
<g><path style="opacity:1" fill="#151514" d="M 264.5,50.5 C 265.167,50.8333 265.833,51.1667 266.5,51.5C 275.762,61.7608 283.429,73.0942 289.5,85.5C 279.085,89.1841 269.419,94.1841 260.5,100.5C 255.656,92.8124 250.323,85.4791 244.5,78.5C 243.5,77.1667 242.5,75.8333 241.5,74.5C 243.606,70.6734 246.773,68.0068 251,66.5C 251.692,65.5632 251.525,64.8966 250.5,64.5C 251.348,63.375 252.348,63.375 253.5,64.5C 253.811,65.4778 254.478,66.1445 255.5,66.5C 255.962,64.1181 256.295,61.7848 256.5,59.5C 257.289,59.2172 257.956,58.7172 258.5,58C 256.618,57.8019 254.952,57.3019 253.5,56.5C 255.924,56.8076 258.257,56.4742 260.5,55.5C 261.887,53.79 263.221,52.1233 264.5,50.5 Z"/></g>
<g><path style="opacity:1" fill="#daaa2c" d="M 183.5,52.5 C 190.019,53.6699 196.019,56.0032 201.5,59.5C 198.012,67.1442 194.512,74.8109 191,82.5C 190.184,83.8228 189.017,84.4894 187.5,84.5C 183.719,81.1067 179.386,79.1067 174.5,78.5C 175.737,70.6367 177.571,62.9701 180,55.5C 180.985,54.1859 182.152,53.1859 183.5,52.5 Z"/></g>
<g><path style="opacity:1" fill="#a78122" d="M 126.5,40.5 C 126.5,41.1667 126.833,41.5 127.5,41.5C 101.525,48.4838 80.1912,62.4838 63.5,83.5C 59.589,88.3224 55.9224,93.3224 52.5,98.5C 52.5,97.8333 52.1667,97.5 51.5,97.5C 56.3644,88.9629 62.0311,80.9629 68.5,73.5C 84.8227,57.335 104.156,46.335 126.5,40.5 Z"/></g>
<g><path style="opacity:1" fill="#e09656" d="M 155.5,83.5 C 157.151,84.9701 158.985,86.3034 161,87.5C 161.333,85.9532 160.833,84.6199 159.5,83.5C 169.028,81.4878 178.028,82.8211 186.5,87.5C 186.631,88.3764 186.298,89.0431 185.5,89.5C 180.514,86.6658 175.18,85.8325 169.5,87C 168.058,87.3768 167.058,88.2101 166.5,89.5C 170.817,90.2139 175.817,91.0473 181.5,92C 187.568,95.3986 193.068,99.5653 198,104.5C 198.667,103.833 198.667,103.167 198,102.5C 195.336,101.002 193.17,99.0016 191.5,96.5C 191.297,94.9557 190.63,93.6223 189.5,92.5C 189.957,91.7025 190.624,91.3691 191.5,91.5C 192.962,92.4577 194.295,93.6244 195.5,95C 205.238,94.855 211.905,99.1883 215.5,108C 214.728,109.221 213.728,110.221 212.5,111C 215.167,111.333 217.833,111.667 220.5,112C 221.71,113.039 222.71,114.206 223.5,115.5C 224.369,117.717 224.702,120.05 224.5,122.5C 220.76,122.241 217.094,122.574 213.5,123.5C 212.833,121.833 212.167,120.167 211.5,118.5C 210.571,119.689 210.238,121.022 210.5,122.5C 208.283,123.369 205.95,123.702 203.5,123.5C 204.205,120.756 204.205,118.089 203.5,115.5C 202.059,116.865 200.726,118.365 199.5,120C 197.167,120.667 194.833,120.667 192.5,120C 185.297,113.399 176.964,108.899 167.5,106.5C 167.167,106.5 166.833,106.5 166.5,106.5C 165.749,105.427 164.749,105.26 163.5,106C 163.957,106.414 164.291,106.914 164.5,107.5C 163.083,110.092 162.083,112.759 161.5,115.5C 158.201,114.624 154.868,114.457 151.5,115C 155.5,116 159.5,117 163.5,118C 162.552,118.483 161.552,118.649 160.5,118.5C 155.5,118.5 150.5,118.5 145.5,118.5C 138.795,118.093 132.462,119.426 126.5,122.5C 126.167,122.333 125.833,122.167 125.5,122C 129.769,118.031 134.769,115.365 140.5,114C 134.879,113.651 129.879,115.318 125.5,119C 123.297,121.372 120.963,123.539 118.5,125.5C 115.059,125.301 111.726,125.801 108.5,127C 106.283,128.723 103.95,130.223 101.5,131.5C 102.35,129.506 102.85,127.506 103,125.5C 97.8381,133.498 94.0047,142.165 91.5,151.5C 90.8501,151.804 90.1835,152.137 89.5,152.5C 88.5258,150.257 88.1924,147.924 88.5,145.5C 88.5,143.833 88.5,142.167 88.5,140.5C 89.529,138.052 90.1957,135.386 90.5,132.5C 88.8953,131.176 88.2286,128.843 88.5,125.5C 89.546,122.81 90.546,120.143 91.5,117.5C 94.2723,117.595 96.2723,118.929 97.5,121.5C 112.192,122.74 125.025,118.407 136,108.5C 139.59,103.986 142.09,98.9859 143.5,93.5C 143.415,91.6672 142.748,90.3339 141.5,89.5C 141.167,88.8333 140.833,88.1667 140.5,87.5C 140.586,86.5041 140.252,85.6708 139.5,85C 140.167,84.6667 140.833,84.3333 141.5,84C 140.09,82.6283 138.423,81.795 136.5,81.5C 136.167,81.5 135.833,81.5 135.5,81.5C 134.22,80.0687 132.553,79.4021 130.5,79.5C 128.474,88.3991 124.974,96.7325 120,104.5C 114.156,111.011 106.989,113.344 98.5,111.5C 98.3003,108.37 97.6336,105.37 96.5,102.5C 95.4314,100.031 94.0981,97.6979 92.5,95.5C 92.0196,92.3148 92.6863,89.4815 94.5,87C 100.484,85.3454 106.484,83.6788 112.5,82C 116.217,78.6153 120.217,75.6153 124.5,73C 127.833,72.3333 131.167,72.3333 134.5,73C 141.805,75.986 148.805,79.486 155.5,83.5 Z"/></g>
<g><path style="opacity:1" fill="#d1ae34" d="M 115.5,4.5 C 113.849,5.547 112.183,6.71367 110.5,8C 110.728,8.39877 111.062,8.56544 111.5,8.5C 85.2043,17.1357 62.5376,31.469 43.5,51.5C 32.8353,61.8397 24.5019,73.8397 18.5,87.5C 10.4238,102.452 5.42376,118.452 3.5,135.5C 2.31423,149.342 2.31423,163.342 3.5,177.5C 2.73209,176.737 2.23209,175.737 2,174.5C 1.50649,176.134 1.33982,177.801 1.5,179.5C 0.833333,177.167 0.166667,174.833 -0.5,172.5C -0.5,169.833 -0.5,167.167 -0.5,164.5C 0.313823,166.631 0.813823,168.964 1,171.5C 1.79103,159.787 1.62436,148.121 0.5,136.5C 6.82225,88.6743 29.8222,51.1743 69.5,24C 83.781,15.0264 99.1143,8.52643 115.5,4.5 Z"/></g>
<g><path style="opacity:1" fill="#2e2419" d="M 163.5,78.5 C 167.167,78.5 170.833,78.5 174.5,78.5C 179.386,79.1067 183.719,81.1067 187.5,84.5C 189.294,86.7966 191.294,88.9633 193.5,91C 200.297,92.98 206.63,95.8134 212.5,99.5C 213.614,100.885 214.614,102.385 215.5,104C 223.998,104.344 230.331,108.178 234.5,115.5C 230.709,112.882 227.043,110.049 223.5,107C 221.5,106.333 219.5,106.333 217.5,107C 220.288,109.983 223.621,111.816 227.5,112.5C 226.074,113.341 224.74,114.341 223.5,115.5C 222.71,114.206 221.71,113.039 220.5,112C 217.833,111.667 215.167,111.333 212.5,111C 213.728,110.221 214.728,109.221 215.5,108C 211.905,99.1883 205.238,94.855 195.5,95C 194.295,93.6244 192.962,92.4577 191.5,91.5C 190.055,89.9373 188.389,88.604 186.5,87.5C 183.94,84.4625 180.607,82.6292 176.5,82C 169.5,81.3333 162.5,81.3333 155.5,82C 156.738,82.69 156.738,83.19 155.5,83.5C 148.805,79.486 141.805,75.986 134.5,73C 131.167,72.3333 127.833,72.3333 124.5,73C 120.217,75.6153 116.217,78.6153 112.5,82C 106.484,83.6788 100.484,85.3454 94.5,87C 92.6863,89.4815 92.0196,92.3148 92.5,95.5C 91.5269,93.0521 91.1936,90.3854 91.5,87.5C 91.9528,86.5416 92.6195,85.7083 93.5,85C 101.117,83.1274 108.451,80.4608 115.5,77C 117.041,75.6288 118.375,74.1288 119.5,72.5C 122.251,70.4221 125.251,68.7554 128.5,67.5C 136.05,69.8796 143.05,73.3796 149.5,78C 154.155,78.4992 158.821,78.6658 163.5,78.5 Z"/></g>
<g><path style="opacity:1" fill="#995e2e" d="M 136.5,81.5 C 138.423,81.795 140.09,82.6283 141.5,84C 140.833,84.3333 140.167,84.6667 139.5,85C 140.252,85.6708 140.586,86.5041 140.5,87.5C 137.657,86.0792 136.324,84.0792 136.5,81.5 Z"/></g>
<g><path style="opacity:1" fill="#ac652a" d="M 186.5,87.5 C 178.028,82.8211 169.028,81.4878 159.5,83.5C 160.833,84.6199 161.333,85.9532 161,87.5C 158.985,86.3034 157.151,84.9701 155.5,83.5C 156.738,83.19 156.738,82.69 155.5,82C 162.5,81.3333 169.5,81.3333 176.5,82C 180.607,82.6292 183.94,84.4625 186.5,87.5 Z"/></g>
<g><path style="opacity:1" fill="#1c1c1b" d="M 289.5,85.5 C 291.882,88.9971 293.882,92.6638 295.5,96.5C 296.939,98.588 297.606,100.921 297.5,103.5C 294.246,107.76 290.579,111.76 286.5,115.5C 287.648,117.149 288.981,118.649 290.5,120C 284.941,121.809 279.274,123.476 273.5,125C 272.058,125.377 271.058,126.21 270.5,127.5C 267.982,118.289 264.649,109.289 260.5,100.5C 269.419,94.1841 279.085,89.1841 289.5,85.5 Z"/></g>
<g><path style="opacity:1" fill="#b87237" d="M 186.5,87.5 C 188.389,88.604 190.055,89.9373 191.5,91.5C 190.624,91.3691 189.957,91.7025 189.5,92.5C 190.63,93.6223 191.297,94.9557 191.5,96.5C 187.59,93.1028 183.256,90.2695 178.5,88C 174.31,87.1903 170.31,87.6903 166.5,89.5C 167.058,88.2101 168.058,87.3768 169.5,87C 175.18,85.8325 180.514,86.6658 185.5,89.5C 186.298,89.0431 186.631,88.3764 186.5,87.5 Z"/></g>
<g><path style="opacity:1" fill="#52472a" d="M 91.5,87.5 C 91.1936,90.3854 91.5269,93.0521 92.5,95.5C 94.0981,97.6979 95.4314,100.031 96.5,102.5C 94.2298,101.875 93.8965,102.875 95.5,105.5C 95.1445,106.522 94.4778,107.189 93.5,107.5C 94.1197,103.698 93.2863,100.365 91,97.5C 90.1925,93.9733 90.3592,90.6399 91.5,87.5 Z"/></g>
<g><path style="opacity:1" fill="#34261a" d="M 191.5,96.5 C 193.17,99.0016 195.336,101.002 198,102.5C 198.667,103.167 198.667,103.833 198,104.5C 193.068,99.5653 187.568,95.3986 181.5,92C 175.817,91.0473 170.817,90.2139 166.5,89.5C 170.31,87.6903 174.31,87.1903 178.5,88C 183.256,90.2695 187.59,93.1028 191.5,96.5 Z"/></g>
<g><path style="opacity:1" fill="#daad23" d="M 231.5,80.5 C 234.833,84.1667 238.167,87.8333 241.5,91.5C 245.019,96.5368 248.019,101.87 250.5,107.5C 249.883,107.389 249.383,107.056 249,106.5C 248.16,109.464 247.16,109.797 246,107.5C 245.51,108.793 245.343,110.127 245.5,111.5C 243.538,106.26 240.538,101.593 236.5,97.5C 235.914,97.7093 235.414,98.0426 235,98.5C 238.029,103.55 240.863,108.883 243.5,114.5C 241.907,113.652 240.74,112.319 240,110.5C 239.517,111.448 239.351,112.448 239.5,113.5C 238.5,113.5 237.5,113.5 236.5,113.5C 236.5,114.5 236.5,115.5 236.5,116.5C 235.833,116.167 235.167,115.833 234.5,115.5C 230.331,108.178 223.998,104.344 215.5,104C 214.614,102.385 213.614,100.885 212.5,99.5C 212.281,98.325 212.614,97.325 213.5,96.5C 219.862,91.39 225.862,86.0567 231.5,80.5 Z"/></g>
<g><path style="opacity:1" fill="#f1db52" d="M 296.5,92.5 C 298.964,96.4436 300.63,100.777 301.5,105.5C 300.391,105.443 299.391,105.11 298.5,104.5C 298.5,103.833 298.167,103.5 297.5,103.5C 297.606,100.921 296.939,98.588 295.5,96.5C 295.433,95.0413 295.766,93.7079 296.5,92.5 Z"/></g>
<g><path style="opacity:1" fill="#b56e34" d="M 135.5,81.5 C 134.022,81.238 132.689,81.5713 131.5,82.5C 129.288,90.6565 126.455,98.6565 123,106.5C 118.158,112.754 111.825,116.42 104,117.5C 99.914,117.58 98.0807,115.58 98.5,111.5C 106.989,113.344 114.156,111.011 120,104.5C 124.974,96.7325 128.474,88.3991 130.5,79.5C 132.553,79.4021 134.22,80.0687 135.5,81.5 Z"/></g>
<g><path style="opacity:1" fill="#e8c324" d="M 69.5,90.5 C 69.5858,91.4959 69.2524,92.3292 68.5,93C 69.9733,93.7096 70.6399,94.8762 70.5,96.5C 71.791,96.2627 72.791,96.596 73.5,97.5C 72.5041,97.4142 71.6708,97.7476 71,98.5C 66.3373,105.495 62.504,112.829 59.5,120.5C 57.8355,121.306 56.1689,120.973 54.5,119.5C 55.3094,117.929 55.6427,116.262 55.5,114.5C 58.6563,105.507 63.323,97.507 69.5,90.5 Z"/></g>
<g><path style="opacity:1" fill="#7d7c79" d="M 82.5,105.5 C 84.1252,107.922 85.4585,110.588 86.5,113.5C 86.2528,114.713 85.5862,115.38 84.5,115.5C 83.8333,112.167 83.1667,108.833 82.5,105.5 Z"/></g>
<g><path style="opacity:1" fill="#bf844a" d="M 234.5,115.5 C 235.167,115.833 235.833,116.167 236.5,116.5C 239.61,119.732 241.944,123.399 243.5,127.5C 242.221,128.968 240.554,129.635 238.5,129.5C 237.391,128.71 236.058,128.21 234.5,128C 235.938,127.781 237.271,127.281 238.5,126.5C 237.9,123.651 236.567,121.318 234.5,119.5C 232.5,116.833 230.167,114.5 227.5,112.5C 223.621,111.816 220.288,109.983 217.5,107C 219.5,106.333 221.5,106.333 223.5,107C 227.043,110.049 230.709,112.882 234.5,115.5 Z"/></g>
<g><path style="opacity:1" fill="#9b8532" d="M 51.5,97.5 C 52.1667,97.5 52.5,97.8333 52.5,98.5C 48.7698,105.957 45.6031,113.624 43,121.5C 40.867,128.694 39.7003,136.027 39.5,143.5C 39.1667,143.5 38.8333,143.5 38.5,143.5C 38.6602,141.801 38.4935,140.134 38,138.5C 36.748,147.12 36.248,155.787 36.5,164.5C 36.1667,164.5 35.8333,164.5 35.5,164.5C 34.6769,143.952 38.3435,124.285 46.5,105.5C 48.1667,102.833 49.8333,100.167 51.5,97.5 Z"/></g>
<g><path style="opacity:1" fill="#282727" d="M 18.5,87.5 C 18.1192,89.9418 18.7859,90.6085 20.5,89.5C 28.9088,94.4715 37.5754,98.9715 46.5,103C 45.2264,103.977 45.2264,104.811 46.5,105.5C 38.3435,124.285 34.6769,143.952 35.5,164.5C 33.7779,160.335 33.1112,152.835 33.5,142C 29.577,141.207 25.7436,141.374 22,142.5C 21.5,142 21,141.5 20.5,141C 15.5111,140.501 10.5111,140.334 5.5,140.5C 4.90055,149.488 4.40055,158.488 4,167.5C 3.50016,156.839 3.3335,146.172 3.5,135.5C 5.42376,118.452 10.4238,102.452 18.5,87.5 Z"/></g>
<g><path style="opacity:1" fill="#493f20" d="M 82.5,74.5 C 82.8333,74.5 83.1667,74.5 83.5,74.5C 78.4607,79.5372 73.794,84.8705 69.5,90.5C 63.323,97.507 58.6563,105.507 55.5,114.5C 52.2797,120.695 50.2797,127.362 49.5,134.5C 48.3833,138.295 47.7167,142.295 47.5,146.5C 47.4351,129.337 52.1018,113.337 61.5,98.5C 67.0965,89.2391 74.0965,81.2391 82.5,74.5 Z"/></g>
<g><path style="opacity:1" fill="#764f2e" d="M 166.5,109.5 C 166.988,112.711 166.321,115.544 164.5,118C 164.833,118.333 165.167,118.667 165.5,119C 163.866,119.494 162.199,119.66 160.5,119.5C 160.5,119.167 160.5,118.833 160.5,118.5C 161.552,118.649 162.552,118.483 163.5,118C 159.5,117 155.5,116 151.5,115C 154.868,114.457 158.201,114.624 161.5,115.5C 162.568,116.434 163.901,116.768 165.5,116.5C 165.198,113.941 165.532,111.607 166.5,109.5 Z"/></g>
<g><path style="opacity:1" fill="#af6629" d="M 166.5,106.5 C 165.884,107.202 165.884,108.202 166.5,109.5C 165.532,111.607 165.198,113.941 165.5,116.5C 163.901,116.768 162.568,116.434 161.5,115.5C 162.083,112.759 163.083,110.092 164.5,107.5C 164.291,106.914 163.957,106.414 163.5,106C 164.749,105.26 165.749,105.427 166.5,106.5 Z"/></g>
<g><path style="opacity:1" fill="#a4903a" d="M 83.5,102.5 C 82.596,103.209 82.2627,104.209 82.5,105.5C 83.1667,108.833 83.8333,112.167 84.5,115.5C 84.6716,116.492 84.3382,117.158 83.5,117.5C 79.8333,117.5 76.1667,117.5 72.5,117.5C 71.1667,117.5 70.5,118.167 70.5,119.5C 69.596,118.791 69.2627,117.791 69.5,116.5C 70.5,116.5 71.5,116.5 72.5,116.5C 76.1817,116.665 79.8484,116.499 83.5,116C 81.7206,111.265 81.3873,106.432 82.5,101.5C 83.1067,101.624 83.44,101.957 83.5,102.5 Z"/></g>
<g><path style="opacity:1" fill="#aa662b" d="M 234.5,119.5 C 236.567,121.318 237.9,123.651 238.5,126.5C 237.271,127.281 235.938,127.781 234.5,128C 236.058,128.21 237.391,128.71 238.5,129.5C 237.833,129.5 237.5,129.833 237.5,130.5C 235.302,130.125 233.302,129.458 231.5,128.5C 230.795,127.203 229.128,126.536 226.5,126.5C 226.759,122.76 226.426,119.094 225.5,115.5C 226.365,114.417 227.365,114.251 228.5,115C 230.333,116.833 232.167,118.667 234,120.5C 234.399,120.272 234.565,119.938 234.5,119.5 Z"/></g>
<g><path style="opacity:1" fill="#554c23" d="M 241.5,91.5 C 241.833,91.5 242.167,91.5 242.5,91.5C 245.411,94.9895 248.078,98.6562 250.5,102.5C 263.829,127.967 266.995,154.634 260,182.5C 259.517,181.552 259.351,180.552 259.5,179.5C 260.299,176.57 260.632,173.57 260.5,170.5C 264.408,148.368 261.074,127.368 250.5,107.5C 248.019,101.87 245.019,96.5368 241.5,91.5 Z"/></g>
<g><path style="opacity:1" fill="#242323" d="M 297.5,103.5 C 298.167,103.5 298.5,103.833 298.5,104.5C 300.783,110.68 302.449,117.013 303.5,123.5C 303.808,127.36 304.475,131.026 305.5,134.5C 306.478,146.086 306.811,157.753 306.5,169.5C 305.662,169.842 305.328,170.508 305.5,171.5C 304.509,165.021 304.176,158.354 304.5,151.5C 300.5,151.833 296.5,152.167 292.5,152.5C 290.808,148.735 289.475,148.735 288.5,152.5C 284.167,152.5 279.833,152.5 275.5,152.5C 275.665,155.518 275.498,158.518 275,161.5C 274.823,157.644 274.323,153.977 273.5,150.5C 273.26,142.728 272.26,135.061 270.5,127.5C 271.058,126.21 272.058,125.377 273.5,125C 279.274,123.476 284.941,121.809 290.5,120C 288.981,118.649 287.648,117.149 286.5,115.5C 290.579,111.76 294.246,107.76 297.5,103.5 Z"/></g>
<g><path style="opacity:1" fill="#aa6227" d="M 141.5,89.5 C 142.748,90.3339 143.415,91.6672 143.5,93.5C 142.09,98.9859 139.59,103.986 136,108.5C 125.025,118.407 112.192,122.74 97.5,121.5C 96.2723,118.929 94.2723,117.595 91.5,117.5C 93.8729,109.903 95.7063,109.903 97,117.5C 100.667,120.95 104.834,121.45 109.5,119C 117.129,115.854 124.129,111.687 130.5,106.5C 131.521,107.002 131.688,107.668 131,108.5C 128.555,109.977 126.388,111.81 124.5,114C 129.416,112.442 133.249,109.275 136,104.5C 137.08,102.004 138.414,99.6705 140,97.5C 140.822,94.8832 141.322,92.2165 141.5,89.5 Z"/></g>
<g><path style="opacity:1" fill="#dad8d9" d="M 145.5,118.5 C 150.5,118.5 155.5,118.5 160.5,118.5C 160.5,118.833 160.5,119.167 160.5,119.5C 159.833,119.5 159.167,119.5 158.5,119.5C 155.054,119.889 151.721,120.722 148.5,122C 156.127,121.478 163.794,121.478 171.5,122C 170.944,122.383 170.611,122.883 170.5,123.5C 168.784,123.629 167.117,123.962 165.5,124.5C 160.243,126.462 155.243,128.962 150.5,132C 151.5,132.667 152.5,132.667 153.5,132C 157.771,129.533 162.104,127.366 166.5,125.5C 175.633,122.46 184.466,123.126 193,127.5C 193.505,129.518 194.005,131.518 194.5,133.5C 196.348,138.024 199.348,141.69 203.5,144.5C 201.955,145.452 200.288,145.785 198.5,145.5C 195.615,145.806 192.948,145.473 190.5,144.5C 189.685,143.163 188.518,142.163 187,141.5C 186.355,137.376 184.855,133.709 182.5,130.5C 181.127,132.49 180.127,134.657 179.5,137C 176.961,137.796 174.628,137.629 172.5,136.5C 176.47,135.021 176.137,134.354 171.5,134.5C 155.286,136.536 144.119,145.202 138,160.5C 135.845,168.041 134.845,175.708 135,183.5C 136.473,179.221 138.473,175.221 141,171.5C 140.121,177.915 139.621,184.415 139.5,191C 139.667,194.5 139.833,198 140,201.5C 140.667,202.833 141.333,202.833 142,201.5C 142.667,205.167 142.667,208.833 142,212.5C 140.2,214.317 138.034,215.484 135.5,216C 128.436,217.745 122.269,216.245 117,211.5C 112.488,203.299 109.155,194.632 107,185.5C 106.934,191.55 106.768,197.55 106.5,203.5C 103.841,200.671 101.341,197.671 99,194.5C 97.9101,190.223 96.2435,186.223 94,182.5C 93.3895,171.819 93.5562,161.153 94.5,150.5C 95.467,143.584 97.8004,137.25 101.5,131.5C 103.95,130.223 106.283,128.723 108.5,127C 111.726,125.801 115.059,125.301 118.5,125.5C 112.773,129.894 108.107,135.227 104.5,141.5C 102.569,143.794 101.736,146.461 102,149.5C 103.431,147.636 104.597,145.636 105.5,143.5C 106.026,141.77 107.026,140.436 108.5,139.5C 112.332,135.836 116.332,132.336 120.5,129C 126.045,126.725 131.378,124.225 136.5,121.5C 139.632,120.64 142.632,119.64 145.5,118.5 Z"/></g>
<g><path style="opacity:1" fill="#404040" d="M 158.5,119.5 C 163.167,120.833 167.833,120.833 172.5,119.5C 174.167,119.5 175.833,119.5 177.5,119.5C 175.06,120.695 172.727,122.028 170.5,123.5C 170.611,122.883 170.944,122.383 171.5,122C 163.794,121.478 156.127,121.478 148.5,122C 151.721,120.722 155.054,119.889 158.5,119.5 Z"/></g>
<g><path style="opacity:1" fill="#aa6429" d="M 167.5,106.5 C 176.964,108.899 185.297,113.399 192.5,120C 194.833,120.667 197.167,120.667 199.5,120C 200.726,118.365 202.059,116.865 203.5,115.5C 204.205,118.089 204.205,120.756 203.5,123.5C 205.95,123.702 208.283,123.369 210.5,122.5C 210.573,124.027 209.906,125.027 208.5,125.5C 206.167,125.5 203.833,125.5 201.5,125.5C 203.44,119.151 202.44,118.318 198.5,123C 196.5,123.667 194.5,123.667 192.5,123C 184.444,116.979 176.111,111.479 167.5,106.5 Z"/></g>
<g><path style="opacity:1" fill="#816a26" d="M 60.5,97.5 C 60.5,98.1667 60.8333,98.5 61.5,98.5C 52.1018,113.337 47.4351,129.337 47.5,146.5C 47.5,151.167 47.5,155.833 47.5,160.5C 46.6762,156.688 46.1762,152.688 46,148.5C 45.6667,155.167 45.3333,161.833 45,168.5C 44.5002,159.84 44.3336,151.173 44.5,142.5C 45.8868,126.001 51.2202,111.001 60.5,97.5 Z"/></g>
<g><path style="opacity:1" fill="#282724" d="M 63.5,83.5 C 63.5858,84.4959 63.2524,85.3292 62.5,86C 64.0368,87.1096 64.7035,88.6096 64.5,90.5C 63.1667,92.8333 61.8333,95.1667 60.5,97.5C 51.2202,111.001 45.8868,126.001 44.5,142.5C 43.5386,144.265 43.2053,146.265 43.5,148.5C 42.6745,152.982 42.1745,157.649 42,162.5C 41.6667,157.5 41.3333,152.5 41,147.5C 40.6667,154.167 40.3333,160.833 40,167.5C 39.5003,159.507 39.3336,151.507 39.5,143.5C 39.7003,136.027 40.867,128.694 43,121.5C 45.6031,113.624 48.7698,105.957 52.5,98.5C 55.9224,93.3224 59.589,88.3224 63.5,83.5 Z"/></g>
<g><path style="opacity:1" fill="#1d1c1c" d="M 166.5,106.5 C 166.833,106.5 167.167,106.5 167.5,106.5C 176.111,111.479 184.444,116.979 192.5,123C 194.5,123.667 196.5,123.667 198.5,123C 202.44,118.318 203.44,119.151 201.5,125.5C 200.761,125.369 200.094,125.536 199.5,126C 204.689,126.381 209.689,127.547 214.5,129.5C 215.696,129.154 215.696,128.654 214.5,128C 212.277,127.434 210.277,126.6 208.5,125.5C 209.906,125.027 210.573,124.027 210.5,122.5C 211.404,123.209 211.737,124.209 211.5,125.5C 213.5,125.167 215.5,124.833 217.5,124.5C 218.833,124.5 220.167,124.5 221.5,124.5C 220.924,127.607 220.924,130.607 221.5,133.5C 220.5,133.5 219.5,133.5 218.5,133.5C 218.385,135.947 217.385,137.947 215.5,139.5C 212.454,141.459 209.121,142.293 205.5,142C 201.386,139.716 197.72,136.883 194.5,133.5C 194.005,131.518 193.505,129.518 193,127.5C 184.466,123.126 175.633,122.46 166.5,125.5C 165.833,125.5 165.5,125.167 165.5,124.5C 167.117,123.962 168.784,123.629 170.5,123.5C 172.727,122.028 175.06,120.695 177.5,119.5C 178.579,116.32 177.413,113.986 174,112.5C 171.499,114.51 170.999,116.843 172.5,119.5C 167.833,120.833 163.167,120.833 158.5,119.5C 159.167,119.5 159.833,119.5 160.5,119.5C 162.199,119.66 163.866,119.494 165.5,119C 165.167,118.667 164.833,118.333 164.5,118C 166.321,115.544 166.988,112.711 166.5,109.5C 165.884,108.202 165.884,107.202 166.5,106.5 Z"/></g>
<g><path style="opacity:1" fill="#d8d8d8" d="M 177.5,119.5 C 175.833,119.5 174.167,119.5 172.5,119.5C 170.999,116.843 171.499,114.51 174,112.5C 177.413,113.986 178.579,116.32 177.5,119.5 Z"/></g>
<g><path style="opacity:1" fill="#f2d52b" d="M 250.5,107.5 C 261.074,127.368 264.408,148.368 260.5,170.5C 259.167,170.5 257.833,170.5 256.5,170.5C 256.826,161.651 256.493,152.984 255.5,144.5C 255.675,142.379 255.341,140.379 254.5,138.5C 254.59,135.848 253.924,133.515 252.5,131.5C 251.064,124.367 248.73,117.7 245.5,111.5C 245.343,110.127 245.51,108.793 246,107.5C 247.16,109.797 248.16,109.464 249,106.5C 249.383,107.056 249.883,107.389 250.5,107.5 Z"/></g>
<g><path style="opacity:1" fill="#8b8a89" d="M 71.5,119.5 C 74.9641,122.462 78.2975,125.629 81.5,129C 79.0367,130.97 76.7034,130.804 74.5,128.5C 74.7373,127.209 74.404,126.209 73.5,125.5C 72.8333,123.5 72.1667,121.5 71.5,119.5 Z"/></g>
<g><path style="opacity:1" fill="#27221e" d="M 145.5,118.5 C 142.632,119.64 139.632,120.64 136.5,121.5C 124.464,123.505 115.131,129.505 108.5,139.5C 107.026,140.436 106.026,141.77 105.5,143.5C 104.662,143.158 104.328,142.492 104.5,141.5C 108.107,135.227 112.773,129.894 118.5,125.5C 120.963,123.539 123.297,121.372 125.5,119C 129.879,115.318 134.879,113.651 140.5,114C 134.769,115.365 129.769,118.031 125.5,122C 125.833,122.167 126.167,122.333 126.5,122.5C 132.462,119.426 138.795,118.093 145.5,118.5 Z"/></g>
<g><path style="opacity:1" fill="#949393" d="M 136.5,121.5 C 131.378,124.225 126.045,126.725 120.5,129C 116.332,132.336 112.332,135.836 108.5,139.5C 115.131,129.505 124.464,123.505 136.5,121.5 Z"/></g>
<g><path style="opacity:1" fill="#9f5e28" d="M 224.5,122.5 C 223.898,129.483 223.231,129.817 222.5,123.5C 220.585,123.216 218.919,123.549 217.5,124.5C 215.5,124.833 213.5,125.167 211.5,125.5C 211.737,124.209 211.404,123.209 210.5,122.5C 210.238,121.022 210.571,119.689 211.5,118.5C 212.167,120.167 212.833,121.833 213.5,123.5C 217.094,122.574 220.76,122.241 224.5,122.5 Z"/></g>
<g><path style="opacity:1" fill="#745f1f" d="M 62.5,122.5 C 61.7066,126.88 60.7066,131.214 59.5,135.5C 59.1667,135.5 58.8333,135.5 58.5,135.5C 59.0569,130.835 60.3902,126.502 62.5,122.5 Z"/></g>
<g><path style="opacity:1" fill="#4e4d4d" d="M 165.5,124.5 C 165.5,125.167 165.833,125.5 166.5,125.5C 162.104,127.366 157.771,129.533 153.5,132C 152.5,132.667 151.5,132.667 150.5,132C 155.243,128.962 160.243,126.462 165.5,124.5 Z"/></g>
<g><path style="opacity:1" fill="#e0b224" d="M 68.5,109.5 C 68.7135,111.144 68.3802,112.644 67.5,114C 69.4913,114.374 71.158,115.207 72.5,116.5C 71.5,116.5 70.5,116.5 69.5,116.5C 69.2627,117.791 69.596,118.791 70.5,119.5C 70.8333,119.5 71.1667,119.5 71.5,119.5C 72.1667,121.5 72.8333,123.5 73.5,125.5C 73.1667,128.167 72.8333,130.833 72.5,133.5C 71.5386,135.265 71.2053,137.265 71.5,139.5C 70.0695,139.421 68.7362,139.754 67.5,140.5C 64.4569,137.559 61.9569,137.892 60,141.5C 59.5045,139.527 59.3379,137.527 59.5,135.5C 60.7066,131.214 61.7066,126.88 62.5,122.5C 63.7564,117.773 65.7564,113.439 68.5,109.5 Z"/></g>
<g><path style="opacity:1" fill="#818181" d="M 201.5,125.5 C 203.833,125.5 206.167,125.5 208.5,125.5C 210.277,126.6 212.277,127.434 214.5,128C 215.696,128.654 215.696,129.154 214.5,129.5C 209.689,127.547 204.689,126.381 199.5,126C 200.094,125.536 200.761,125.369 201.5,125.5 Z"/></g>
<g><path style="opacity:1" fill="#49351d" d="M 227.5,112.5 C 230.167,114.5 232.5,116.833 234.5,119.5C 234.565,119.938 234.399,120.272 234,120.5C 232.167,118.667 230.333,116.833 228.5,115C 227.365,114.251 226.365,114.417 225.5,115.5C 226.426,119.094 226.759,122.76 226.5,126.5C 229.128,126.536 230.795,127.203 231.5,128.5C 227.486,127.824 224.486,129.157 222.5,132.5C 222.863,133.183 223.196,133.85 223.5,134.5C 222.508,134.672 221.842,134.338 221.5,133.5C 220.924,130.607 220.924,127.607 221.5,124.5C 220.167,124.5 218.833,124.5 217.5,124.5C 218.919,123.549 220.585,123.216 222.5,123.5C 223.231,129.817 223.898,129.483 224.5,122.5C 224.702,120.05 224.369,117.717 223.5,115.5C 224.74,114.341 226.074,113.341 227.5,112.5 Z"/></g>
<g><path style="opacity:1" fill="#f4d426" d="M 243.5,114.5 C 246.605,121.485 248.938,128.819 250.5,136.5C 250.5,137.167 250.5,137.833 250.5,138.5C 249.778,138.082 249.278,137.416 249,136.5C 248.51,137.793 248.343,139.127 248.5,140.5C 244.046,140.422 239.713,141.089 235.5,142.5C 233.38,141.128 232.38,141.795 232.5,144.5C 231.5,144.167 230.833,143.5 230.5,142.5C 229.99,139.326 228.323,136.992 225.5,135.5C 225.158,134.662 224.492,134.328 223.5,134.5C 223.196,133.85 222.863,133.183 222.5,132.5C 224.486,129.157 227.486,127.824 231.5,128.5C 233.302,129.458 235.302,130.125 237.5,130.5C 239.5,130.5 241.5,130.5 243.5,130.5C 243.5,129.5 243.5,128.5 243.5,127.5C 241.944,123.399 239.61,119.732 236.5,116.5C 236.5,115.5 236.5,114.5 236.5,113.5C 237.5,113.5 238.5,113.5 239.5,113.5C 239.351,112.448 239.517,111.448 240,110.5C 240.74,112.319 241.907,113.652 243.5,114.5 Z"/></g>
<g><path style="opacity:1" fill="#242221" d="M 258.5,103.5 C 264.143,114.097 267.809,125.431 269.5,137.5C 269.666,145.507 269.5,153.507 269,161.5C 268.333,149.5 267.667,149.5 267,161.5C 266.825,156.981 266.325,152.647 265.5,148.5C 264.49,136.117 261.824,124.117 257.5,112.5C 257.704,109.482 258.037,106.482 258.5,103.5 Z"/></g>
<g><path style="opacity:1" fill="#362c1c" d="M 243.5,127.5 C 243.5,128.5 243.5,129.5 243.5,130.5C 241.5,130.5 239.5,130.5 237.5,130.5C 237.5,129.833 237.833,129.5 238.5,129.5C 240.554,129.635 242.221,128.968 243.5,127.5 Z"/></g>
<g><path style="opacity:1" fill="#6f5e1f" d="M 303.5,123.5 C 305.217,126.845 305.884,130.511 305.5,134.5C 304.475,131.026 303.808,127.36 303.5,123.5 Z"/></g>
<g><path style="opacity:1" fill="#995e2c" d="M 88.5,125.5 C 88.2286,128.843 88.8953,131.176 90.5,132.5C 90.1957,135.386 89.529,138.052 88.5,140.5C 88.6495,139.448 88.4828,138.448 88,137.5C 87.0797,140.101 86.413,142.768 86,145.5C 85.5045,143.527 85.3379,141.527 85.5,139.5C 85.8985,134.588 86.8985,129.921 88.5,125.5 Z"/></g>
<g><path style="opacity:1" fill="#2d2819" d="M 245.5,111.5 C 248.73,117.7 251.064,124.367 252.5,131.5C 252.41,134.152 253.076,136.485 254.5,138.5C 255.341,140.379 255.675,142.379 255.5,144.5C 255.687,153.861 255.354,163.195 254.5,172.5C 253.076,174.515 252.41,176.848 252.5,179.5C 251.162,184.511 249.662,189.511 248,194.5C 245.295,198.577 243.128,202.91 241.5,207.5C 239.841,209.469 238.175,211.469 236.5,213.5C 235.5,213.167 234.833,212.5 234.5,211.5C 235.763,209.971 236.763,208.305 237.5,206.5C 243.155,197.584 247.155,187.917 249.5,177.5C 250.924,175.485 251.59,173.152 251.5,170.5C 251.5,169.167 251.5,167.833 251.5,166.5C 252.166,162.681 252.499,158.681 252.5,154.5C 252.667,148.26 252,142.26 250.5,136.5C 248.938,128.819 246.605,121.485 243.5,114.5C 240.863,108.883 238.029,103.55 235,98.5C 235.414,98.0426 235.914,97.7093 236.5,97.5C 240.538,101.593 243.538,106.26 245.5,111.5 Z"/></g>
<g><path style="opacity:1" fill="#866e24" d="M 73.5,125.5 C 74.404,126.209 74.7373,127.209 74.5,128.5C 74.2041,130.403 73.5375,132.07 72.5,133.5C 72.8333,130.833 73.1667,128.167 73.5,125.5 Z"/></g>
<g><path style="opacity:1" fill="#6f5a1f" d="M 57.5,128.5 C 57.5905,131.152 56.9238,133.485 55.5,135.5C 55.4095,132.848 56.0762,130.515 57.5,128.5 Z"/></g>
<g><path style="opacity:1" fill="#d9a924" d="M 55.5,114.5 C 55.6427,116.262 55.3094,117.929 54.5,119.5C 56.1689,120.973 57.8355,121.306 59.5,120.5C 58.8333,123.167 58.1667,125.833 57.5,128.5C 56.0762,130.515 55.4095,132.848 55.5,135.5C 55.5,135.833 55.5,136.167 55.5,136.5C 54.2318,138.905 53.5651,141.572 53.5,144.5C 52.8826,144.611 52.3826,144.944 52,145.5C 50.0651,142.093 49.2318,138.426 49.5,134.5C 50.2797,127.362 52.2797,120.695 55.5,114.5 Z"/></g>
<g><path style="opacity:1" fill="#d8d6d6" d="M 221.5,133.5 C 221.842,134.338 222.508,134.672 223.5,134.5C 224.492,134.328 225.158,134.662 225.5,135.5C 223.506,139.804 221.506,144.137 219.5,148.5C 216.214,147.793 212.881,147.46 209.5,147.5C 208.737,146.732 207.737,146.232 206.5,146C 210.24,144.802 213.24,142.635 215.5,139.5C 217.385,137.947 218.385,135.947 218.5,133.5C 219.5,133.5 220.5,133.5 221.5,133.5 Z"/></g>
<g><path style="opacity:1" fill="#877920" d="M 252.5,131.5 C 253.924,133.515 254.59,135.848 254.5,138.5C 253.076,136.485 252.41,134.152 252.5,131.5 Z"/></g>
<g><path style="opacity:1" fill="#e5e5e5" d="M 185.5,148.5 C 185.5,148.833 185.5,149.167 185.5,149.5C 184.167,149.833 182.833,150.167 181.5,150.5C 180.853,149.726 180.52,148.726 180.5,147.5C 180.865,142.992 181.698,138.659 183,134.5C 184.792,139 185.625,143.667 185.5,148.5 Z"/></g>
<g><path style="opacity:1" fill="#927425" d="M 244.5,78.5 C 250.323,85.4791 255.656,92.8124 260.5,100.5C 264.649,109.289 267.982,118.289 270.5,127.5C 272.26,135.061 273.26,142.728 273.5,150.5C 273.821,155.695 273.487,160.695 272.5,165.5C 272.666,158.492 272.5,151.492 272,144.5C 271.828,150.681 271.328,156.681 270.5,162.5C 270.826,153.983 270.493,145.65 269.5,137.5C 267.809,125.431 264.143,114.097 258.5,103.5C 254.589,95.3383 249.922,87.6716 244.5,80.5C 244.5,79.8333 244.5,79.1667 244.5,78.5 Z"/></g>
<g><path style="opacity:1" fill="#c7c6c4" d="M 79.5,140.5 C 77.1433,142.098 74.4766,143.098 71.5,143.5C 70.5,143.5 69.5,143.5 68.5,143.5C 67.8333,143.5 67.5,143.167 67.5,142.5C 68.9303,141.463 70.597,140.796 72.5,140.5C 73.915,139.711 75.415,139.044 77,138.5C 78.301,138.639 79.1344,139.305 79.5,140.5 Z"/></g>
<g><path style="opacity:1" fill="#2e2d2c" d="M 3.5,135.5 C 3.3335,146.172 3.50016,156.839 4,167.5C 4.40055,158.488 4.90055,149.488 5.5,140.5C 10.5111,140.334 15.5111,140.501 20.5,141C 21,141.5 21.5,142 22,142.5C 25.7436,141.374 29.577,141.207 33.5,142C 33.1112,152.835 33.7779,160.335 35.5,164.5C 35.8333,164.5 36.1667,164.5 36.5,164.5C 38.5029,186.823 45.8363,207.156 58.5,225.5C 57.0799,227.766 55.4132,229.933 53.5,232C 48.6681,235.339 44.0014,238.839 39.5,242.5C 36.6976,243.534 34.3642,244.534 32.5,245.5C 28.4739,240.956 24.9739,235.956 22,230.5C 17.1591,220.498 12.6591,210.498 8.5,200.5C 8.30027,197.37 7.63361,194.37 6.5,191.5C 6.12964,186.578 5.12964,181.911 3.5,177.5C 2.31423,163.342 2.31423,149.342 3.5,135.5 Z"/></g>
<g><path style="opacity:1" fill="#5b402b" d="M 101.5,131.5 C 97.8004,137.25 95.467,143.584 94.5,150.5C 94.1667,150.5 93.8333,150.5 93.5,150.5C 92.8333,151.5 92.1667,152.5 91.5,153.5C 91.5,152.833 91.5,152.167 91.5,151.5C 94.0047,142.165 97.8381,133.498 103,125.5C 102.85,127.506 102.35,129.506 101.5,131.5 Z"/></g>
<g><path style="opacity:1" fill="#7b3939" d="M 178.5,140.5 C 177.833,143.5 177.167,146.5 176.5,149.5C 175.833,149.167 175.167,148.833 174.5,148.5C 174.167,147.5 173.5,146.833 172.5,146.5C 171.376,145.191 169.876,144.525 168,144.5C 165.509,145.675 163.009,145.675 160.5,144.5C 160.937,142.926 161.937,141.759 163.5,141C 168.489,140.501 173.489,140.334 178.5,140.5 Z"/></g>
<g><path style="opacity:1" fill="#171717" d="M 68.5,143.5 C 69.5,143.5 70.5,143.5 71.5,143.5C 74.1667,143.5 76.8333,143.5 79.5,143.5C 79.5,145.167 79.5,146.833 79.5,148.5C 78.5,148.5 77.5,148.5 76.5,148.5C 72.9385,148.035 69.6051,146.868 66.5,145C 67.4158,144.722 68.0825,144.222 68.5,143.5 Z"/></g>
<g><path style="opacity:1" fill="#3e3e3e" d="M 79.5,140.5 C 82.191,144.397 81.8577,148.063 78.5,151.5C 78.2178,150.222 77.5511,149.222 76.5,148.5C 77.5,148.5 78.5,148.5 79.5,148.5C 79.5,146.833 79.5,145.167 79.5,143.5C 76.8333,143.5 74.1667,143.5 71.5,143.5C 74.4766,143.098 77.1433,142.098 79.5,140.5 Z"/></g>
<g><path style="opacity:1" fill="#919091" d="M 124.5,133.5 C 125.376,133.369 126.043,133.702 126.5,134.5C 119.71,141.413 115.543,149.746 114,159.5C 113.084,166.82 112.251,174.154 111.5,181.5C 110.246,173.663 110.246,165.83 111.5,158C 111.333,157.167 111.167,156.333 111,155.5C 109.414,157.67 108.08,160.004 107,162.5C 106.333,160.833 106.333,159.167 107,157.5C 109.064,153.039 111.398,148.706 114,144.5C 117.704,140.964 121.204,137.298 124.5,133.5 Z"/></g>
<g><path style="opacity:1" fill="#929292" d="M 194.5,133.5 C 197.72,136.883 201.386,139.716 205.5,142C 209.121,142.293 212.454,141.459 215.5,139.5C 213.24,142.635 210.24,144.802 206.5,146C 207.737,146.232 208.737,146.732 209.5,147.5C 205.64,147.192 201.974,146.525 198.5,145.5C 200.288,145.785 201.955,145.452 203.5,144.5C 199.348,141.69 196.348,138.024 194.5,133.5 Z"/></g>
<g><path style="opacity:1" fill="#94918c" d="M 225.5,135.5 C 228.323,136.992 229.99,139.326 230.5,142.5C 230.167,142.5 229.833,142.5 229.5,142.5C 228.768,141.192 227.934,139.858 227,138.5C 226.333,142.167 226.333,145.833 227,149.5C 227.383,150.056 227.883,150.389 228.5,150.5C 228.5,150.833 228.5,151.167 228.5,151.5C 225.875,152.924 223.542,152.591 221.5,150.5C 223.982,148.898 224.815,146.565 224,143.5C 222.606,145.388 221.44,147.388 220.5,149.5C 219.833,149.5 219.5,149.167 219.5,148.5C 221.506,144.137 223.506,139.804 225.5,135.5 Z"/></g>
<g><path style="opacity:1" fill="#c3c1c2" d="M 229.5,142.5 C 229.425,145.206 229.092,147.873 228.5,150.5C 227.883,150.389 227.383,150.056 227,149.5C 226.333,145.833 226.333,142.167 227,138.5C 227.934,139.858 228.768,141.192 229.5,142.5 Z"/></g>
<g><path style="opacity:1" fill="#452d19" d="M 88.5,140.5 C 88.5,142.167 88.5,143.833 88.5,145.5C 87.5151,149.634 87.1818,153.968 87.5,158.5C 86.6981,157.048 86.1981,155.382 86,153.5C 85.6667,154.167 85.3333,154.833 85,155.5C 84.1826,149.984 84.3493,144.65 85.5,139.5C 85.3379,141.527 85.5045,143.527 86,145.5C 86.413,142.768 87.0797,140.101 88,137.5C 88.4828,138.448 88.6495,139.448 88.5,140.5 Z"/></g>
<g><path style="opacity:1" fill="#838182" d="M 104.5,141.5 C 104.328,142.492 104.662,143.158 105.5,143.5C 104.597,145.636 103.431,147.636 102,149.5C 101.736,146.461 102.569,143.794 104.5,141.5 Z"/></g>
<g><path style="opacity:1" fill="#474444" d="M 190.5,144.5 C 192.948,145.473 195.615,145.806 198.5,145.5C 201.974,146.525 205.64,147.192 209.5,147.5C 212.881,147.46 216.214,147.793 219.5,148.5C 219.5,149.167 219.833,149.5 220.5,149.5C 220.5,150.167 220.833,150.5 221.5,150.5C 223.542,152.591 225.875,152.924 228.5,151.5C 229.167,151.833 229.833,152.167 230.5,152.5C 234.851,155.938 235.517,159.938 232.5,164.5C 232.167,164.5 231.833,164.5 231.5,164.5C 231.5,163.833 231.5,163.167 231.5,162.5C 233.351,158.684 232.351,155.684 228.5,153.5C 224.906,155.017 221.906,154.184 219.5,151C 215.361,148.933 211.027,148.266 206.5,149C 207.84,151.179 207.507,151.679 205.5,150.5C 203.544,148.452 201.044,147.452 198,147.5C 193.79,148.03 189.623,148.696 185.5,149.5C 185.5,149.167 185.5,148.833 185.5,148.5C 186.163,146.958 186.83,145.291 187.5,143.5C 188.417,144.127 189.417,144.461 190.5,144.5 Z"/></g>
<g><path style="opacity:1" fill="#31302d" d="M 38.5,143.5 C 38.8333,143.5 39.1667,143.5 39.5,143.5C 39.3336,151.507 39.5003,159.507 40,167.5C 40.3333,160.833 40.6667,154.167 41,147.5C 41.3333,152.5 41.6667,157.5 42,162.5C 42.1745,157.649 42.6745,152.982 43.5,148.5C 42.4149,162.07 44.0815,175.07 48.5,187.5C 51.3225,198.143 55.9892,207.809 62.5,216.5C 63.075,218.411 64.075,220.078 65.5,221.5C 64.1879,221.824 63.3546,222.491 63,223.5C 62.0546,223.095 61.3879,222.428 61,221.5C 60.5357,222.094 60.369,222.761 60.5,223.5C 43.5378,199.668 36.2044,173.001 38.5,143.5 Z"/></g>
<g><path style="opacity:1" fill="#989797" d="M 190.5,144.5 C 189.417,144.461 188.417,144.127 187.5,143.5C 186.83,145.291 186.163,146.958 185.5,148.5C 185.625,143.667 184.792,139 183,134.5C 181.698,138.659 180.865,142.992 180.5,147.5C 180.52,148.726 180.853,149.726 181.5,150.5C 179.645,152.033 177.812,153.7 176,155.5C 175.51,153.455 175.677,151.455 176.5,149.5C 177.167,146.5 177.833,143.5 178.5,140.5C 175.466,138.982 172.133,138.149 168.5,138C 169.901,137.59 171.234,137.09 172.5,136.5C 174.628,137.629 176.961,137.796 179.5,137C 180.127,134.657 181.127,132.49 182.5,130.5C 184.855,133.709 186.355,137.376 187,141.5C 188.518,142.163 189.685,143.163 190.5,144.5 Z"/></g>
<g><path style="opacity:1" fill="#e6e6e6" d="M 221.5,150.5 C 220.833,150.5 220.5,150.167 220.5,149.5C 221.44,147.388 222.606,145.388 224,143.5C 224.815,146.565 223.982,148.898 221.5,150.5 Z"/></g>
<g><path style="opacity:1" fill="#8b8987" d="M 67.5,142.5 C 67.5,143.167 67.8333,143.5 68.5,143.5C 68.0825,144.222 67.4158,144.722 66.5,145C 69.6051,146.868 72.9385,148.035 76.5,148.5C 77.5511,149.222 78.2178,150.222 78.5,151.5C 77.8444,152.278 77.0111,152.944 76,153.5C 74.3566,152.685 72.8566,151.685 71.5,150.5C 69.4922,148.732 67.3256,147.066 65,145.5C 64.4808,143.511 65.3141,142.511 67.5,142.5 Z"/></g>
<g><path style="opacity:1" fill="#8b8b8b" d="M 172.5,146.5 C 173.5,146.833 174.167,147.5 174.5,148.5C 174.143,152.263 173.31,155.93 172,159.5C 170.989,160.337 169.822,160.67 168.5,160.5C 168.737,161.791 168.404,162.791 167.5,163.5C 167.122,161.079 166.455,158.746 165.5,156.5C 166.815,157.476 168.148,158.476 169.5,159.5C 170.63,155.183 171.63,150.85 172.5,146.5 Z"/></g>
<g><path style="opacity:1" fill="#dad8d9" d="M 231.5,162.5 C 228.858,163.853 226.024,164.519 223,164.5C 210.841,162.263 198.674,162.096 186.5,164C 180.009,167.078 173.675,170.412 167.5,174C 163.138,175.923 158.805,175.923 154.5,174C 153.748,173.329 153.414,172.496 153.5,171.5C 154.833,171.5 156.167,171.5 157.5,171.5C 159.92,171.708 162.253,171.374 164.5,170.5C 172.397,163.1 180.731,156.266 189.5,150C 194.796,149.876 200.13,150.043 205.5,150.5C 207.507,151.679 207.84,151.179 206.5,149C 211.027,148.266 215.361,148.933 219.5,151C 221.906,154.184 224.906,155.017 228.5,153.5C 232.351,155.684 233.351,158.684 231.5,162.5 Z"/></g>
<g><path style="opacity:1" fill="#cb9725" d="M 72.5,133.5 C 72.5,135.833 72.5,138.167 72.5,140.5C 70.597,140.796 68.9303,141.463 67.5,142.5C 65.3141,142.511 64.4808,143.511 65,145.5C 67.3256,147.066 69.4922,148.732 71.5,150.5C 71.9157,155.493 72.2491,160.493 72.5,165.5C 71.5,166.833 70.5,168.167 69.5,169.5C 68.7109,169.783 68.0442,170.283 67.5,171C 69.5018,172.019 71.5018,172.852 73.5,173.5C 72.2652,173.721 71.2652,174.388 70.5,175.5C 67.348,175.288 64.0147,175.288 60.5,175.5C 60.5,177.5 60.5,179.5 60.5,181.5C 59.6746,178.628 58.8412,175.628 58,172.5C 57.2066,160.121 57.3732,147.788 58.5,135.5C 58.8333,135.5 59.1667,135.5 59.5,135.5C 59.3379,137.527 59.5045,139.527 60,141.5C 61.9569,137.892 64.4569,137.559 67.5,140.5C 68.7362,139.754 70.0695,139.421 71.5,139.5C 71.2053,137.265 71.5386,135.265 72.5,133.5 Z"/></g>
<g><path style="opacity:1" fill="#955724" d="M 88.5,145.5 C 88.1924,147.924 88.5258,150.257 89.5,152.5C 90.1835,152.137 90.8501,151.804 91.5,151.5C 91.5,152.167 91.5,152.833 91.5,153.5C 90.8623,158.19 90.029,162.856 89,167.5C 87.6081,164.722 87.1081,161.722 87.5,158.5C 87.1818,153.968 87.5151,149.634 88.5,145.5 Z"/></g>
<g><path style="opacity:1" fill="#dcdcdc" d="M 160.5,144.5 C 163.009,145.675 165.509,145.675 168,144.5C 169.876,144.525 171.376,145.191 172.5,146.5C 171.63,150.85 170.63,155.183 169.5,159.5C 168.148,158.476 166.815,157.476 165.5,156.5C 164.863,153.544 164.363,150.544 164,147.5C 163.661,150.88 163.161,154.213 162.5,157.5C 160.926,157.063 159.759,156.063 159,154.5C 158.503,151.854 158.336,149.187 158.5,146.5C 158.833,145.5 159.5,144.833 160.5,144.5 Z"/></g>
<g><path style="opacity:1" fill="#fde032" d="M 250.5,138.5 C 251.212,145.143 251.546,151.809 251.5,158.5C 250.799,161.563 250.132,164.73 249.5,168C 246.183,168.498 242.85,168.665 239.5,168.5C 239.451,164.922 238.785,161.589 237.5,158.5C 236.62,153.525 234.953,148.859 232.5,144.5C 232.38,141.795 233.38,141.128 235.5,142.5C 239.713,141.089 244.046,140.422 248.5,140.5C 248.343,139.127 248.51,137.793 249,136.5C 249.278,137.416 249.778,138.082 250.5,138.5 Z"/></g>
<g><path style="opacity:1" fill="#6a6a6a" d="M 165.5,156.5 C 164.391,156.557 163.391,156.89 162.5,157.5C 163.161,154.213 163.661,150.88 164,147.5C 164.363,150.544 164.863,153.544 165.5,156.5 Z"/></g>
<g><path style="opacity:1" fill="#d4b430" d="M 18.5,149.5 C 20.4087,152.091 23.0754,153.758 26.5,154.5C 24.9466,155.439 23.6133,156.606 22.5,158C 23.9916,162.687 22.8249,163.521 19,160.5C 15.1751,163.521 14.0084,162.687 15.5,158C 14.4911,156.832 13.4911,155.665 12.5,154.5C 14.1667,153.833 15.8333,153.167 17.5,152.5C 18.1272,151.583 18.4606,150.583 18.5,149.5 Z"/></g>
<g><path style="opacity:1" fill="#ca9624" d="M 49.5,134.5 C 49.2318,138.426 50.0651,142.093 52,145.5C 52.3826,144.944 52.8826,144.611 53.5,144.5C 53.175,152.019 53.5084,159.352 54.5,166.5C 55.6214,172.111 56.6214,177.777 57.5,183.5C 56.0169,181.076 54.8502,178.409 54,175.5C 53.1597,178.464 52.1597,178.797 51,176.5C 50.5357,177.094 50.369,177.761 50.5,178.5C 48.7539,172.75 47.7539,166.75 47.5,160.5C 47.5,155.833 47.5,151.167 47.5,146.5C 47.7167,142.295 48.3833,138.295 49.5,134.5 Z"/></g>
<g><path style="opacity:1" fill="#838383" d="M 158.5,146.5 C 158.336,149.187 158.503,151.854 159,154.5C 159.759,156.063 160.926,157.063 162.5,157.5C 160.908,160.966 160.242,164.633 160.5,168.5C 159.833,168.167 159.167,167.833 158.5,167.5C 158.817,164.428 158.484,161.428 157.5,158.5C 155.02,161.361 154.02,164.694 154.5,168.5C 151.817,166.959 150.984,164.626 152,161.5C 152.588,155.671 154.755,150.671 158.5,146.5 Z"/></g>
<g><path style="opacity:1" fill="#9a8a27" d="M 250.5,136.5 C 252,142.26 252.667,148.26 252.5,154.5C 252.499,158.681 252.166,162.681 251.5,166.5C 251.5,163.833 251.5,161.167 251.5,158.5C 251.546,151.809 251.212,145.143 250.5,138.5C 250.5,137.833 250.5,137.167 250.5,136.5 Z"/></g>
<g><path style="opacity:1" fill="#68521f" d="M 55.5,136.5 C 54.7433,146.482 54.41,156.482 54.5,166.5C 53.5084,159.352 53.175,152.019 53.5,144.5C 53.5651,141.572 54.2318,138.905 55.5,136.5 Z"/></g>
<g><path style="opacity:1" fill="#d4b431" d="M 292.5,152.5 C 293.718,153.161 295.051,153.828 296.5,154.5C 295.509,155.665 294.509,156.832 293.5,158C 294.992,162.687 293.825,163.521 290,160.5C 286.175,163.521 285.008,162.687 286.5,158C 285.491,156.832 284.491,155.665 283.5,154.5C 285.291,153.83 286.958,153.163 288.5,152.5C 289.475,148.735 290.808,148.735 292.5,152.5 Z"/></g>
<g><path style="opacity:1" fill="#a6a5a6" d="M 205.5,150.5 C 200.13,150.043 194.796,149.876 189.5,150C 180.731,156.266 172.397,163.1 164.5,170.5C 162.253,171.374 159.92,171.708 157.5,171.5C 160.676,170.579 163.676,169.079 166.5,167C 172.429,160.564 178.763,154.731 185.5,149.5C 189.623,148.696 193.79,148.03 198,147.5C 201.044,147.452 203.544,148.452 205.5,150.5 Z"/></g>
<g><path style="opacity:1" fill="#f0cf4a" d="M -0.5,136.5 C -0.166667,136.5 0.166667,136.5 0.5,136.5C 1.62436,148.121 1.79103,159.787 1,171.5C 0.813823,168.964 0.313823,166.631 -0.5,164.5C -0.5,155.167 -0.5,145.833 -0.5,136.5 Z"/></g>
<g><path style="opacity:0.792" fill="#d8b738" d="M 298.5,104.5 C 299.391,105.11 300.391,105.443 301.5,105.5C 305.183,115.585 307.85,125.918 309.5,136.5C 309.5,148.5 309.5,160.5 309.5,172.5C 307.737,183.292 305.07,193.959 301.5,204.5C 300.897,202.374 300.897,200.041 301.5,197.5C 301.5,197.167 301.5,196.833 301.5,196.5C 302.793,195.158 303.626,193.491 304,191.5C 305.38,184.221 306.214,176.888 306.5,169.5C 306.811,157.753 306.478,146.086 305.5,134.5C 305.884,130.511 305.217,126.845 303.5,123.5C 302.449,117.013 300.783,110.68 298.5,104.5 Z"/></g>
<g><path style="opacity:1" fill="#665f45" d="M 229.5,142.5 C 229.833,142.5 230.167,142.5 230.5,142.5C 230.833,143.5 231.5,144.167 232.5,144.5C 234.953,148.859 236.62,153.525 237.5,158.5C 237.485,170.223 234.819,181.223 229.5,191.5C 229.5,190.5 229.5,189.5 229.5,188.5C 229.878,186.079 230.545,183.746 231.5,181.5C 234.478,175.704 236.145,169.537 236.5,163C 236.732,157.196 235.065,152.029 231.5,147.5C 230.548,149.045 230.215,150.712 230.5,152.5C 229.833,152.167 229.167,151.833 228.5,151.5C 228.5,151.167 228.5,150.833 228.5,150.5C 229.092,147.873 229.425,145.206 229.5,142.5 Z"/></g>
<g><path style="opacity:1" fill="#2b261d" d="M 73.5,97.5 C 73.8039,98.1499 74.1373,98.8165 74.5,99.5C 71.9741,102.557 69.9741,105.891 68.5,109.5C 65.7564,113.439 63.7564,117.773 62.5,122.5C 60.3902,126.502 59.0569,130.835 58.5,135.5C 57.3732,147.788 57.2066,160.121 58,172.5C 58.8412,175.628 59.6746,178.628 60.5,181.5C 61.4624,185.395 62.7957,189.061 64.5,192.5C 67.58,199.659 70.9134,206.659 74.5,213.5C 73.325,213.719 72.325,213.386 71.5,212.5C 70.0569,209.923 68.3902,207.59 66.5,205.5C 63.4914,198.152 60.4914,190.819 57.5,183.5C 56.6214,177.777 55.6214,172.111 54.5,166.5C 54.41,156.482 54.7433,146.482 55.5,136.5C 55.5,136.167 55.5,135.833 55.5,135.5C 56.9238,133.485 57.5905,131.152 57.5,128.5C 58.1667,125.833 58.8333,123.167 59.5,120.5C 62.504,112.829 66.3373,105.495 71,98.5C 71.6708,97.7476 72.5041,97.4142 73.5,97.5 Z"/></g>
<g><path style="opacity:1" fill="#bab9b8" d="M 70.5,169.5 C 70.1667,169.5 69.8333,169.5 69.5,169.5C 70.5,168.167 71.5,166.833 72.5,165.5C 74.5164,163.652 76.683,161.985 79,160.5C 80.4341,160.93 81.6008,161.764 82.5,163C 78.1166,164.512 74.1166,166.679 70.5,169.5 Z"/></g>
<g><path style="opacity:1" fill="#292726" d="M 171.5,134.5 C 176.137,134.354 176.47,135.021 172.5,136.5C 171.234,137.09 169.901,137.59 168.5,138C 172.133,138.149 175.466,138.982 178.5,140.5C 173.489,140.334 168.489,140.501 163.5,141C 161.937,141.759 160.937,142.926 160.5,144.5C 159.5,144.833 158.833,145.5 158.5,146.5C 154.755,150.671 152.588,155.671 152,161.5C 150.984,164.626 151.817,166.959 154.5,168.5C 156.099,168.768 157.432,168.434 158.5,167.5C 159.167,167.833 159.833,168.167 160.5,168.5C 163.117,167.214 165.45,165.547 167.5,163.5C 168.404,162.791 168.737,161.791 168.5,160.5C 169.822,160.67 170.989,160.337 172,159.5C 173.31,155.93 174.143,152.263 174.5,148.5C 175.167,148.833 175.833,149.167 176.5,149.5C 175.677,151.455 175.51,153.455 176,155.5C 177.812,153.7 179.645,152.033 181.5,150.5C 182.833,150.167 184.167,149.833 185.5,149.5C 178.763,154.731 172.429,160.564 166.5,167C 163.676,169.079 160.676,170.579 157.5,171.5C 156.167,171.5 154.833,171.5 153.5,171.5C 152.5,171.5 151.5,171.5 150.5,171.5C 149.518,175.316 148.851,179.316 148.5,183.5C 148.5,195.167 148.5,206.833 148.5,218.5C 148.5,219.167 148.5,219.833 148.5,220.5C 147.833,209.167 147.167,197.833 146.5,186.5C 146.663,184.143 146.497,181.81 146,179.5C 144.698,182.375 143.865,185.375 143.5,188.5C 142.549,187.081 142.216,185.415 142.5,183.5C 144.154,173.872 146.821,164.538 150.5,155.5C 149.833,154.167 149.167,154.167 148.5,155.5C 146,159.167 143.5,162.833 141,166.5C 145.463,150.534 155.629,139.868 171.5,134.5 Z"/></g>
<g><path style="opacity:1" fill="#d7d7d7" d="M 165.5,156.5 C 166.455,158.746 167.122,161.079 167.5,163.5C 165.45,165.547 163.117,167.214 160.5,168.5C 160.242,164.633 160.908,160.966 162.5,157.5C 163.391,156.89 164.391,156.557 165.5,156.5 Z"/></g>
<g><path style="opacity:1" fill="#e4e4e4" d="M 158.5,167.5 C 157.432,168.434 156.099,168.768 154.5,168.5C 154.02,164.694 155.02,161.361 157.5,158.5C 158.484,161.428 158.817,164.428 158.5,167.5 Z"/></g>
<g><path style="opacity:1" fill="#1d1d1d" d="M 231.5,164.5 C 231.833,164.5 232.167,164.5 232.5,164.5C 232.5,165.167 232.5,165.833 232.5,166.5C 231.481,168.507 229.815,169.84 227.5,170.5C 226.7,178.501 226.034,186.501 225.5,194.5C 224.662,194.158 224.328,193.492 224.5,192.5C 225.105,185.382 224.438,178.548 222.5,172C 207.447,168.772 192.447,168.772 177.5,172C 181.363,170.268 185.363,168.934 189.5,168C 202.179,167.606 214.846,167.606 227.5,168C 229.324,167.34 230.657,166.173 231.5,164.5 Z"/></g>
<g><path style="opacity:1" fill="#c9c7c8" d="M 231.5,181.5 C 230.876,181.083 230.543,180.416 230.5,179.5C 231.686,175.239 232.353,170.906 232.5,166.5C 232.5,165.833 232.5,165.167 232.5,164.5C 235.517,159.938 234.851,155.938 230.5,152.5C 230.215,150.712 230.548,149.045 231.5,147.5C 235.065,152.029 236.732,157.196 236.5,163C 236.145,169.537 234.478,175.704 231.5,181.5 Z"/></g>
<g><path style="opacity:1" fill="#8d8c8b" d="M 69.5,169.5 C 69.8333,169.5 70.1667,169.5 70.5,169.5C 74.6344,170.485 78.9677,170.818 83.5,170.5C 83.67,171.822 83.3366,172.989 82.5,174C 79.8806,173.917 77.214,173.75 74.5,173.5C 74.1667,173.5 73.8333,173.5 73.5,173.5C 71.5018,172.852 69.5018,172.019 67.5,171C 68.0442,170.283 68.7109,169.783 69.5,169.5 Z"/></g>
<g><path style="opacity:1" fill="#999999" d="M 231.5,162.5 C 231.5,163.167 231.5,163.833 231.5,164.5C 230.657,166.173 229.324,167.34 227.5,168C 214.846,167.606 202.179,167.606 189.5,168C 185.363,168.934 181.363,170.268 177.5,172C 192.447,168.772 207.447,168.772 222.5,172C 224.438,178.548 225.105,185.382 224.5,192.5C 224.167,192.5 223.833,192.5 223.5,192.5C 223.5,187.5 223.5,182.5 223.5,177.5C 208.968,172.925 194.301,172.425 179.5,176C 168.999,179.481 162.499,186.648 160,197.5C 159.594,193.039 159.928,188.706 161,184.5C 155.24,192.202 152.907,200.869 154,210.5C 155.265,215.102 158.265,217.435 163,217.5C 169.769,216.279 174.769,212.612 178,206.5C 181.422,199.667 184.256,192.667 186.5,185.5C 187.631,187.074 187.798,188.741 187,190.5C 186.072,196.903 184.239,202.903 181.5,208.5C 181.19,207.262 180.69,207.262 180,208.5C 178.643,211.898 176.81,214.898 174.5,217.5C 174.565,217.062 174.399,216.728 174,216.5C 170.629,220.515 166.296,222.182 161,221.5C 156.45,221.811 152.284,220.811 148.5,218.5C 148.5,206.833 148.5,195.167 148.5,183.5C 149.452,182.548 150.452,181.548 151.5,180.5C 150.593,177.579 150.26,174.579 150.5,171.5C 151.5,171.5 152.5,171.5 153.5,171.5C 153.414,172.496 153.748,173.329 154.5,174C 158.805,175.923 163.138,175.923 167.5,174C 173.675,170.412 180.009,167.078 186.5,164C 198.674,162.096 210.841,162.263 223,164.5C 226.024,164.519 228.858,163.853 231.5,162.5 Z"/></g>
<g><path style="opacity:1" fill="#917e2c" d="M 251.5,101.5 C 253.537,105.189 255.537,108.855 257.5,112.5C 261.824,124.117 264.49,136.117 265.5,148.5C 266.112,197.81 244.779,233.81 201.5,256.5C 188.429,262.184 174.762,265.518 160.5,266.5C 156.5,265.833 152.5,265.167 148.5,264.5C 183.762,265.859 213.095,253.525 236.5,227.5C 247.496,215.458 255.163,201.458 259.5,185.5C 259.457,184.584 259.124,183.917 258.5,183.5C 258.232,181.901 258.566,180.568 259.5,179.5C 259.351,180.552 259.517,181.552 260,182.5C 266.995,154.634 263.829,127.967 250.5,102.5C 250.5,101.833 250.833,101.5 251.5,101.5 Z"/></g>
<g><path style="opacity:1" fill="#64542b" d="M 44.5,142.5 C 44.3336,151.173 44.5002,159.84 45,168.5C 45.3333,161.833 45.6667,155.167 46,148.5C 46.1762,152.688 46.6762,156.688 47.5,160.5C 47.7539,166.75 48.7539,172.75 50.5,178.5C 51.943,189.373 55.6097,199.373 61.5,208.5C 65.1818,215.866 69.8485,222.533 75.5,228.5C 74.8333,228.5 74.5,228.833 74.5,229.5C 70.1256,225.128 66.1256,220.461 62.5,215.5C 57.2003,205.898 52.7003,195.898 49,185.5C 48.5357,186.094 48.369,186.761 48.5,187.5C 44.0815,175.07 42.4149,162.07 43.5,148.5C 43.2053,146.265 43.5386,144.265 44.5,142.5 Z"/></g>
<g><path style="opacity:1" fill="#dbd9da" d="M 223.5,192.5 C 222.672,197.988 220.672,202.988 217.5,207.5C 215.61,207.297 214.11,207.963 213,209.5C 212.517,208.552 212.351,207.552 212.5,206.5C 213.167,204.5 213.833,202.5 214.5,200.5C 217.252,196.299 218.086,191.632 217,186.5C 213.678,196.635 208.178,205.469 200.5,213C 194.56,217.343 188.06,218.51 181,216.5C 179.97,216.164 179.47,215.497 179.5,214.5C 180.167,212.5 180.833,210.5 181.5,208.5C 184.239,202.903 186.072,196.903 187,190.5C 187.798,188.741 187.631,187.074 186.5,185.5C 184.256,192.667 181.422,199.667 178,206.5C 174.769,212.612 169.769,216.279 163,217.5C 158.265,217.435 155.265,215.102 154,210.5C 152.907,200.869 155.24,192.202 161,184.5C 159.928,188.706 159.594,193.039 160,197.5C 162.499,186.648 168.999,179.481 179.5,176C 194.301,172.425 208.968,172.925 223.5,177.5C 223.5,182.5 223.5,187.5 223.5,192.5 Z"/></g>
<g><path style="opacity:1" fill="#8a7c2c" d="M 251.5,170.5 C 251.59,173.152 250.924,175.485 249.5,177.5C 249.41,174.848 250.076,172.515 251.5,170.5 Z"/></g>
<g><path style="opacity:1" fill="#8a7828" d="M 306.5,169.5 C 306.214,176.888 305.38,184.221 304,191.5C 303.626,193.491 302.793,195.158 301.5,196.5C 303.388,188.29 304.721,179.957 305.5,171.5C 305.328,170.508 305.662,169.842 306.5,169.5 Z"/></g>
<g><path style="opacity:1" fill="#555555" d="M 152.5,177.5 C 152.56,176.957 152.893,176.624 153.5,176.5C 156.974,178.062 160.64,178.895 164.5,179C 160.285,180.774 156.285,180.274 152.5,177.5 Z"/></g>
<g><path style="opacity:1" fill="#90822e" d="M 254.5,172.5 C 254.59,175.152 253.924,177.485 252.5,179.5C 252.41,176.848 253.076,174.515 254.5,172.5 Z"/></g>
<g><path style="opacity:1" fill="#565656" d="M 150.5,171.5 C 150.26,174.579 150.593,177.579 151.5,180.5C 150.452,181.548 149.452,182.548 148.5,183.5C 148.851,179.316 149.518,175.316 150.5,171.5 Z"/></g>
<g><path style="opacity:1" fill="#ae9528" d="M 272.5,165.5 C 271.757,178.239 268.757,190.239 263.5,201.5C 263.062,200.494 262.396,200.494 261.5,201.5C 266.661,189.035 269.661,176.035 270.5,162.5C 271.328,156.681 271.828,150.681 272,144.5C 272.5,151.492 272.666,158.492 272.5,165.5 Z"/></g>
<g><path style="opacity:1" fill="#d6a82f" d="M 73.5,173.5 C 73.8333,173.5 74.1667,173.5 74.5,173.5C 75.9203,179.099 77.9203,184.433 80.5,189.5C 80.5,190.167 80.5,190.833 80.5,191.5C 80.1667,191.5 79.8333,191.5 79.5,191.5C 79.1077,189.821 78.6077,188.154 78,186.5C 75.4552,187.522 72.9552,188.688 70.5,190C 68.5594,190.743 66.7261,190.576 65,189.5C 64.5172,190.448 64.3505,191.448 64.5,192.5C 62.7957,189.061 61.4624,185.395 60.5,181.5C 60.5,179.5 60.5,177.5 60.5,175.5C 64.0147,175.288 67.348,175.288 70.5,175.5C 71.2652,174.388 72.2652,173.721 73.5,173.5 Z"/></g>
<g><path style="opacity:1" fill="#ebd13c" d="M 255.5,144.5 C 256.493,152.984 256.826,161.651 256.5,170.5C 257.833,170.5 259.167,170.5 260.5,170.5C 260.632,173.57 260.299,176.57 259.5,179.5C 258.566,180.568 258.232,181.901 258.5,183.5C 255.519,193.779 251.185,203.445 245.5,212.5C 244.597,209.075 243.097,208.742 241,211.5C 240.805,210.181 240.972,208.847 241.5,207.5C 243.128,202.91 245.295,198.577 248,194.5C 249.662,189.511 251.162,184.511 252.5,179.5C 253.924,177.485 254.59,175.152 254.5,172.5C 255.354,163.195 255.687,153.861 255.5,144.5 Z"/></g>
<g><path style="opacity:1" fill="#9f8827" d="M 3.5,177.5 C 5.12964,181.911 6.12964,186.578 6.5,191.5C 4.04439,187.274 3.04439,182.607 3.5,177.5 Z"/></g>
<g><path style="opacity:1" fill="#d7ab30" d="M 57.5,183.5 C 60.4914,190.819 63.4914,198.152 66.5,205.5C 65.2397,205.201 64.073,205.201 63,205.5C 61.9614,206.244 61.4614,207.244 61.5,208.5C 55.6097,199.373 51.943,189.373 50.5,178.5C 50.369,177.761 50.5357,177.094 51,176.5C 52.1597,178.797 53.1597,178.464 54,175.5C 54.8502,178.409 56.0169,181.076 57.5,183.5 Z"/></g>
<g><path style="opacity:1" fill="#2b2b2a" d="M 273.5,150.5 C 274.323,153.977 274.823,157.644 275,161.5C 275.498,158.518 275.665,155.518 275.5,152.5C 279.833,152.5 284.167,152.5 288.5,152.5C 286.958,153.163 285.291,153.83 283.5,154.5C 284.491,155.665 285.491,156.832 286.5,158C 285.008,162.687 286.175,163.521 290,160.5C 293.825,163.521 294.992,162.687 293.5,158C 294.509,156.832 295.509,155.665 296.5,154.5C 295.051,153.828 293.718,153.161 292.5,152.5C 296.5,152.167 300.5,151.833 304.5,151.5C 304.176,158.354 304.509,165.021 305.5,171.5C 304.721,179.957 303.388,188.29 301.5,196.5C 301.5,196.833 301.5,197.167 301.5,197.5C 295.625,216.249 286.791,233.583 275,249.5C 271.664,254.002 267.831,258.002 263.5,261.5C 260.443,259.605 258.277,256.938 257,253.5C 256.329,252.748 255.496,252.414 254.5,252.5C 254.953,251.542 255.619,250.708 256.5,250C 253.233,250.063 251.066,248.563 250,245.5C 249.617,246.056 249.117,246.389 248.5,246.5C 248.607,244.621 248.107,244.288 247,245.5C 244.971,243.142 242.971,240.808 241,238.5C 240.329,239.252 239.496,239.586 238.5,239.5C 249.329,228.517 257.662,215.851 263.5,201.5C 268.757,190.239 271.757,178.239 272.5,165.5C 273.487,160.695 273.821,155.695 273.5,150.5 Z"/></g>
<g><path style="opacity:1" fill="#bdbdbc" d="M 80.5,191.5 C 80.5,190.833 80.5,190.167 80.5,189.5C 82.3031,187.519 83.9697,185.352 85.5,183C 86.448,182.517 87.448,182.351 88.5,182.5C 87.2686,186.734 84.6019,189.734 80.5,191.5 Z"/></g>
<g><path style="opacity:1" fill="#59522f" d="M 258.5,183.5 C 259.124,183.917 259.457,184.584 259.5,185.5C 255.163,201.458 247.496,215.458 236.5,227.5C 236.5,227.167 236.5,226.833 236.5,226.5C 236.5,226.167 236.5,225.833 236.5,225.5C 239.89,221.442 242.89,217.109 245.5,212.5C 251.185,203.445 255.519,193.779 258.5,183.5 Z"/></g>
<g><path style="opacity:1" fill="#f7d93f" d="M 237.5,158.5 C 238.785,161.589 239.451,164.922 239.5,168.5C 242.85,168.665 246.183,168.498 249.5,168C 250.132,164.73 250.799,161.563 251.5,158.5C 251.5,161.167 251.5,163.833 251.5,166.5C 251.5,167.833 251.5,169.167 251.5,170.5C 250.076,172.515 249.41,174.848 249.5,177.5C 247.155,187.917 243.155,197.584 237.5,206.5C 234.898,204.858 232.231,203.192 229.5,201.5C 228.679,198.554 228.679,195.554 229.5,192.5C 229.5,192.167 229.5,191.833 229.5,191.5C 234.819,181.223 237.485,170.223 237.5,158.5 Z"/></g>
<g><path style="opacity:1" fill="#76736d" d="M 84.5,196.5 C 82.1766,195.942 79.8432,195.275 77.5,194.5C 77.6236,193.893 77.9569,193.56 78.5,193.5C 78.7352,194.097 79.2352,194.43 80,194.5C 83.603,192.576 87.4363,191.576 91.5,191.5C 91.5,192.833 91.5,194.167 91.5,195.5C 88.9407,195.198 86.6074,195.532 84.5,196.5 Z"/></g>
<g><path style="opacity:1" fill="#9b9b9b" d="M 171.5,134.5 C 155.629,139.868 145.463,150.534 141,166.5C 143.5,162.833 146,159.167 148.5,155.5C 149.167,154.167 149.833,154.167 150.5,155.5C 146.821,164.538 144.154,173.872 142.5,183.5C 140.632,188.911 140.132,194.577 141,200.5C 141.943,196.504 142.776,192.504 143.5,188.5C 143.865,185.375 144.698,182.375 146,179.5C 146.497,181.81 146.663,184.143 146.5,186.5C 145.843,198 145.177,209.5 144.5,221C 135.151,226.942 125.818,226.942 116.5,221C 115.364,219.855 114.364,218.688 113.5,217.5C 113.122,214.978 112.289,212.645 111,210.5C 110.775,212.791 110.608,214.791 110.5,216.5C 101.312,211.15 95.812,203.15 94,192.5C 90.8601,178.543 90.6934,164.543 93.5,150.5C 93.8333,150.5 94.1667,150.5 94.5,150.5C 93.5562,161.153 93.3895,171.819 94,182.5C 96.2435,186.223 97.9101,190.223 99,194.5C 101.341,197.671 103.841,200.671 106.5,203.5C 106.768,197.55 106.934,191.55 107,185.5C 109.155,194.632 112.488,203.299 117,211.5C 122.269,216.245 128.436,217.745 135.5,216C 138.034,215.484 140.2,214.317 142,212.5C 142.667,208.833 142.667,205.167 142,201.5C 141.333,202.833 140.667,202.833 140,201.5C 139.833,198 139.667,194.5 139.5,191C 139.621,184.415 140.121,177.915 141,171.5C 138.473,175.221 136.473,179.221 135,183.5C 134.845,175.708 135.845,168.041 138,160.5C 144.119,145.202 155.286,136.536 171.5,134.5 Z"/></g>
<g><path style="opacity:1" fill="#5f5f5f" d="M 142.5,183.5 C 142.216,185.415 142.549,187.081 143.5,188.5C 142.776,192.504 141.943,196.504 141,200.5C 140.132,194.577 140.632,188.911 142.5,183.5 Z"/></g>
<g><path style="opacity:1" fill="#e9c338" d="M 79.5,191.5 C 79.1667,192.167 78.8333,192.833 78.5,193.5C 77.9569,193.56 77.6236,193.893 77.5,194.5C 79.8432,195.275 82.1766,195.942 84.5,196.5C 86.5113,199.861 88.5113,203.194 90.5,206.5C 89.2058,205.71 88.0391,204.71 87,203.5C 83.758,206.205 80.258,208.539 76.5,210.5C 75.8243,211.602 75.1577,212.602 74.5,213.5C 70.9134,206.659 67.58,199.659 64.5,192.5C 64.3505,191.448 64.5172,190.448 65,189.5C 66.7261,190.576 68.5594,190.743 70.5,190C 72.9552,188.688 75.4552,187.522 78,186.5C 78.6077,188.154 79.1077,189.821 79.5,191.5 Z"/></g>
<g><path style="opacity:1" fill="#e7d048" d="M 3.5,177.5 C 3.04439,182.607 4.04439,187.274 6.5,191.5C 7.63361,194.37 8.30027,197.37 8.5,200.5C 8.93487,202.703 8.93487,204.703 8.5,206.5C 4.78184,197.964 2.44851,188.964 1.5,179.5C 1.33982,177.801 1.50649,176.134 2,174.5C 2.23209,175.737 2.73209,176.737 3.5,177.5 Z"/></g>
<g><path style="opacity:1" fill="#3e3c37" d="M 229.5,188.5 C 229.5,189.5 229.5,190.5 229.5,191.5C 229.5,191.833 229.5,192.167 229.5,192.5C 227.48,199.233 225.146,205.9 222.5,212.5C 218.763,218.269 213.43,221.269 206.5,221.5C 205.833,221.5 205.167,221.5 204.5,221.5C 209.512,217.487 213.845,212.821 217.5,207.5C 220.672,202.988 222.672,197.988 223.5,192.5C 223.833,192.5 224.167,192.5 224.5,192.5C 224.328,193.492 224.662,194.158 225.5,194.5C 223.119,204.039 218.119,211.873 210.5,218C 214.293,218.022 217.459,216.522 220,213.5C 223.689,205.251 226.856,196.918 229.5,188.5 Z"/></g>
<g><path style="opacity:1" fill="#e9c539" d="M 229.5,192.5 C 228.679,195.554 228.679,198.554 229.5,201.5C 232.231,203.192 234.898,204.858 237.5,206.5C 236.763,208.305 235.763,209.971 234.5,211.5C 234.833,212.5 235.5,213.167 236.5,213.5C 238.175,211.469 239.841,209.469 241.5,207.5C 240.972,208.847 240.805,210.181 241,211.5C 243.097,208.742 244.597,209.075 245.5,212.5C 242.89,217.109 239.89,221.442 236.5,225.5C 230.567,222.533 225.9,218.2 222.5,212.5C 225.146,205.9 227.48,199.233 229.5,192.5 Z"/></g>
<g><path style="opacity:1" fill="#907b32" d="M 62.5,215.5 C 62.5,215.833 62.5,216.167 62.5,216.5C 55.9892,207.809 51.3225,198.143 48.5,187.5C 48.369,186.761 48.5357,186.094 49,185.5C 52.7003,195.898 57.2003,205.898 62.5,215.5 Z"/></g>
<g><path style="opacity:1" fill="#9d9d9d" d="M 214.5,200.5 C 214.607,198.621 214.107,198.288 213,199.5C 209.834,210.028 203.667,218.195 194.5,224C 186.821,227.331 179.155,227.331 171.5,224C 174.78,221.225 177.446,218.058 179.5,214.5C 179.47,215.497 179.97,216.164 181,216.5C 188.06,218.51 194.56,217.343 200.5,213C 208.178,205.469 213.678,196.635 217,186.5C 218.086,191.632 217.252,196.299 214.5,200.5 Z"/></g>
<g><path style="opacity:1" fill="#919191" d="M 232.5,166.5 C 232.353,170.906 231.686,175.239 230.5,179.5C 230.543,180.416 230.876,181.083 231.5,181.5C 230.545,183.746 229.878,186.079 229.5,188.5C 226.856,196.918 223.689,205.251 220,213.5C 217.459,216.522 214.293,218.022 210.5,218C 218.119,211.873 223.119,204.039 225.5,194.5C 226.034,186.501 226.7,178.501 227.5,170.5C 229.815,169.84 231.481,168.507 232.5,166.5 Z"/></g>
<g><path style="opacity:1" fill="#1c1c1a" d="M 135.5,81.5 C 135.833,81.5 136.167,81.5 136.5,81.5C 136.324,84.0792 137.657,86.0792 140.5,87.5C 140.833,88.1667 141.167,88.8333 141.5,89.5C 141.322,92.2165 140.822,94.8832 140,97.5C 138.414,99.6705 137.08,102.004 136,104.5C 133.249,109.275 129.416,112.442 124.5,114C 126.388,111.81 128.555,109.977 131,108.5C 131.688,107.668 131.521,107.002 130.5,106.5C 124.129,111.687 117.129,115.854 109.5,119C 104.834,121.45 100.667,120.95 97,117.5C 95.7063,109.903 93.8729,109.903 91.5,117.5C 90.546,120.143 89.546,122.81 88.5,125.5C 86.8985,129.921 85.8985,134.588 85.5,139.5C 84.3493,144.65 84.1826,149.984 85,155.5C 85.3333,154.833 85.6667,154.167 86,153.5C 86.1981,155.382 86.6981,157.048 87.5,158.5C 87.1081,161.722 87.6081,164.722 89,167.5C 90.029,162.856 90.8623,158.19 91.5,153.5C 92.1667,152.5 92.8333,151.5 93.5,150.5C 90.6934,164.543 90.8601,178.543 94,192.5C 95.812,203.15 101.312,211.15 110.5,216.5C 111.209,217.404 112.209,217.737 113.5,217.5C 114.364,218.688 115.364,219.855 116.5,221C 125.818,226.942 135.151,226.942 144.5,221C 145.177,209.5 145.843,198 146.5,186.5C 147.167,197.833 147.833,209.167 148.5,220.5C 155.62,223.76 162.954,224.26 170.5,222C 172.041,220.629 173.375,219.129 174.5,217.5C 176.81,214.898 178.643,211.898 180,208.5C 180.69,207.262 181.19,207.262 181.5,208.5C 180.833,210.5 180.167,212.5 179.5,214.5C 177.446,218.058 174.78,221.225 171.5,224C 179.155,227.331 186.821,227.331 194.5,224C 203.667,218.195 209.834,210.028 213,199.5C 214.107,198.288 214.607,198.621 214.5,200.5C 213.833,202.5 213.167,204.5 212.5,206.5C 209.692,211.932 206.026,216.765 201.5,221C 201.728,221.399 202.062,221.565 202.5,221.5C 202.5,221.833 202.5,222.167 202.5,222.5C 201.292,223.234 199.959,223.567 198.5,223.5C 199.722,227.612 201.722,231.279 204.5,234.5C 204.209,235.649 203.376,236.316 202,236.5C 200.93,236.472 200.097,236.139 199.5,235.5C 201.379,235.607 201.712,235.107 200.5,234C 197.638,233.07 195.305,231.403 193.5,229C 192.552,228.517 191.552,228.351 190.5,228.5C 190.253,230.858 190.919,232.858 192.5,234.5C 188.873,235.321 185.54,236.654 182.5,238.5C 182.167,238.5 181.833,238.5 181.5,238.5C 182.014,236.488 182.18,234.488 182,232.5C 181.184,231.177 180.017,230.511 178.5,230.5C 174.762,228.859 171.762,229.859 169.5,233.5C 169.196,234.15 168.863,234.817 168.5,235.5C 169.952,236.94 170.952,238.606 171.5,240.5C 165.167,240.5 158.833,240.5 152.5,240.5C 154.144,238.519 155.81,236.519 157.5,234.5C 156.52,233.019 155.353,231.685 154,230.5C 152.215,234.767 150.715,239.1 149.5,243.5C 148.833,246.167 148.167,246.167 147.5,243.5C 147.261,239.158 146.927,234.824 146.5,230.5C 145.5,230.5 144.5,230.5 143.5,230.5C 143.756,233.598 144.422,236.598 145.5,239.5C 138.896,238.298 132.562,236.298 126.5,233.5C 126.389,232.883 126.056,232.383 125.5,232C 132.367,228.966 132.034,227.966 124.5,229C 120.406,236.052 119.072,235.886 120.5,228.5C 120.167,227.833 119.833,227.167 119.5,226.5C 118.614,227.325 118.281,228.325 118.5,229.5C 112.883,226.536 107.55,223.202 102.5,219.5C 102.167,218.833 101.833,218.167 101.5,217.5C 104.125,216.198 104.125,214.865 101.5,213.5C 99.6036,214.275 97.937,215.275 96.5,216.5C 95.8826,216.611 95.3826,216.944 95,217.5C 94.2599,216.251 94.4265,215.251 95.5,214.5C 98.1567,213.521 98.8234,211.854 97.5,209.5C 96.8182,210.243 96.1515,210.909 95.5,211.5C 94.194,209.527 92.5273,207.861 90.5,206.5C 88.5113,203.194 86.5113,199.861 84.5,196.5C 86.6074,195.532 88.9407,195.198 91.5,195.5C 91.5,194.167 91.5,192.833 91.5,191.5C 87.4363,191.576 83.603,192.576 80,194.5C 79.2352,194.43 78.7352,194.097 78.5,193.5C 78.8333,192.833 79.1667,192.167 79.5,191.5C 79.8333,191.5 80.1667,191.5 80.5,191.5C 84.6019,189.734 87.2686,186.734 88.5,182.5C 87.448,182.351 86.448,182.517 85.5,183C 83.9697,185.352 82.3031,187.519 80.5,189.5C 77.9203,184.433 75.9203,179.099 74.5,173.5C 77.214,173.75 79.8806,173.917 82.5,174C 83.3366,172.989 83.67,171.822 83.5,170.5C 78.9677,170.818 74.6344,170.485 70.5,169.5C 74.1166,166.679 78.1166,164.512 82.5,163C 81.6008,161.764 80.4341,160.93 79,160.5C 76.683,161.985 74.5164,163.652 72.5,165.5C 72.2491,160.493 71.9157,155.493 71.5,150.5C 72.8566,151.685 74.3566,152.685 76,153.5C 77.0111,152.944 77.8444,152.278 78.5,151.5C 81.8577,148.063 82.191,144.397 79.5,140.5C 79.1344,139.305 78.301,138.639 77,138.5C 75.415,139.044 73.915,139.711 72.5,140.5C 72.5,138.167 72.5,135.833 72.5,133.5C 73.5375,132.07 74.2041,130.403 74.5,128.5C 76.7034,130.804 79.0367,130.97 81.5,129C 78.2975,125.629 74.9641,122.462 71.5,119.5C 71.1667,119.5 70.8333,119.5 70.5,119.5C 70.5,118.167 71.1667,117.5 72.5,117.5C 73.5137,118.674 74.847,119.34 76.5,119.5C 79.2154,121.072 82.2154,122.072 85.5,122.5C 85.7678,120.901 85.4345,119.568 84.5,118.5C 83.8333,118.5 83.5,118.167 83.5,117.5C 84.3382,117.158 84.6716,116.492 84.5,115.5C 85.5862,115.38 86.2528,114.713 86.5,113.5C 85.4585,110.588 84.1252,107.922 82.5,105.5C 82.2627,104.209 82.596,103.209 83.5,102.5C 84.7063,105.298 86.7063,107.465 89.5,109C 91.9476,109.853 92.6143,109.353 91.5,107.5C 92.1667,107.5 92.8333,107.5 93.5,107.5C 94.4778,107.189 95.1445,106.522 95.5,105.5C 93.8965,102.875 94.2298,101.875 96.5,102.5C 97.6336,105.37 98.3003,108.37 98.5,111.5C 98.0807,115.58 99.914,117.58 104,117.5C 111.825,116.42 118.158,112.754 123,106.5C 126.455,98.6565 129.288,90.6565 131.5,82.5C 132.689,81.5713 134.022,81.238 135.5,81.5 Z"/></g>
<g><path style="opacity:1" fill="#888888" d="M 84.5,118.5 C 85.4345,119.568 85.7678,120.901 85.5,122.5C 82.2154,122.072 79.2154,121.072 76.5,119.5C 78.5466,119.511 80.5466,119.844 82.5,120.5C 83.7133,120.253 84.38,119.586 84.5,118.5 Z"/></g>
<g><path style="opacity:1" fill="#d6d6d6" d="M 72.5,117.5 C 76.1667,117.5 79.8333,117.5 83.5,117.5C 83.5,118.167 83.8333,118.5 84.5,118.5C 84.38,119.586 83.7133,120.253 82.5,120.5C 80.5466,119.844 78.5466,119.511 76.5,119.5C 74.847,119.34 73.5137,118.674 72.5,117.5 Z"/></g>
<g><path style="opacity:1" fill="#b1afa7" d="M 83.5,102.5 C 86.1667,104.167 88.8333,105.833 91.5,107.5C 92.6143,109.353 91.9476,109.853 89.5,109C 86.7063,107.465 84.7063,105.298 83.5,102.5 Z"/></g>
<g><path style="opacity:1" fill="#2c2a27" d="M 269.5,137.5 C 270.493,145.65 270.826,153.983 270.5,162.5C 269.661,176.035 266.661,189.035 261.5,201.5C 249.616,228.717 230.283,248.717 203.5,261.5C 203.631,260.624 203.298,259.957 202.5,259.5C 200.669,260.929 198.669,261.429 196.5,261C 198.67,259.414 201.004,258.08 203.5,257C 202.906,256.536 202.239,256.369 201.5,256.5C 244.779,233.81 266.112,197.81 265.5,148.5C 266.325,152.647 266.825,156.981 267,161.5C 267.667,149.5 268.333,149.5 269,161.5C 269.5,153.507 269.666,145.507 269.5,137.5 Z"/></g>
<g><path style="opacity:1" fill="#bca72e" d="M 38.5,143.5 C 36.2044,173.001 43.5378,199.668 60.5,223.5C 69.2775,236.28 80.2775,246.613 93.5,254.5C 95.7937,256.653 98.4604,258.32 101.5,259.5C 101.158,260.338 100.492,260.672 99.5,260.5C 96.8333,259.167 94.1667,257.833 91.5,256.5C 84.9035,251.912 78.5702,246.912 72.5,241.5C 67.4317,236.437 62.765,231.104 58.5,225.5C 45.8363,207.156 38.5029,186.823 36.5,164.5C 36.248,155.787 36.748,147.12 38,138.5C 38.4935,140.134 38.6602,141.801 38.5,143.5 Z"/></g>
<g><path style="opacity:0.882" fill="#c29e1a" d="M 301.5,197.5 C 300.897,200.041 300.897,202.374 301.5,204.5C 278.54,264.127 235.54,299.127 172.5,309.5C 160.5,309.5 148.5,309.5 136.5,309.5C 80.9638,300.647 40.1305,271.314 14,221.5C 11.6641,216.657 9.83076,211.657 8.5,206.5C 8.93487,204.703 8.93487,202.703 8.5,200.5C 12.6591,210.498 17.1591,220.498 22,230.5C 24.9739,235.956 28.4739,240.956 32.5,245.5C 37.2199,252.919 42.8866,259.585 49.5,265.5C 56.3998,273.276 64.3998,279.609 73.5,284.5C 117.627,311.982 163.96,315.982 212.5,296.5C 221.945,292.612 230.945,287.945 239.5,282.5C 248.664,276.904 256.664,269.904 263.5,261.5C 267.831,258.002 271.664,254.002 275,249.5C 286.791,233.583 295.625,216.249 301.5,197.5 Z"/></g>
<g><path style="opacity:1" fill="#181513" d="M 93.5,248.5 C 113.816,261.825 136.149,267.825 160.5,266.5C 174.762,265.518 188.429,262.184 201.5,256.5C 202.239,256.369 202.906,256.536 203.5,257C 201.004,258.08 198.67,259.414 196.5,261C 198.669,261.429 200.669,260.929 202.5,259.5C 203.298,259.957 203.631,260.624 203.5,261.5C 197.244,264.03 190.91,266.363 184.5,268.5C 155.637,276.09 127.971,273.09 101.5,259.5C 98.4604,258.32 95.7937,256.653 93.5,254.5C 94.6266,252.083 94.6266,250.083 93.5,248.5 Z"/></g>
<g><path style="opacity:1" fill="#2e2918" d="M 236.5,226.5 C 236.5,226.833 236.5,227.167 236.5,227.5C 213.095,253.525 183.762,265.859 148.5,264.5C 118.877,263.019 94.2104,251.352 74.5,229.5C 74.5,228.833 74.8333,228.5 75.5,228.5C 79.539,233.54 84.2056,237.873 89.5,241.5C 105.63,254.122 123.963,261.122 144.5,262.5C 151.024,263.732 157.691,263.732 164.5,262.5C 168.873,262.018 173.206,261.352 177.5,260.5C 183.03,259.451 188.363,257.784 193.5,255.5C 204.106,252.19 213.44,246.857 221.5,239.5C 226.795,235.54 231.795,231.207 236.5,226.5 Z"/></g>
<g><path style="opacity:1" fill="#706222" d="M 63.5,254.5 C 65.3773,255.829 65.5439,257.162 64,258.5C 62.699,258.361 61.8656,257.695 61.5,256.5C 62.8333,256.5 63.5,255.833 63.5,254.5 Z"/></g>
<g><path style="opacity:1" fill="#1c1c1b" d="M 220.5,254.5 C 221.675,254.281 222.675,254.614 223.5,255.5C 225.098,258.601 227.265,261.268 230,263.5C 231.133,261.789 232.633,261.289 234.5,262C 233.366,263.016 233.699,263.683 235.5,264C 234.062,264.219 232.729,264.719 231.5,265.5C 233.75,269.668 236.25,273.668 239,277.5C 239.494,279.134 239.66,280.801 239.5,282.5C 230.945,287.945 221.945,292.612 212.5,296.5C 211.791,295.596 210.791,295.263 209.5,295.5C 206.442,286.493 203.275,277.493 200,268.5C 199.583,267.244 198.75,266.577 197.5,266.5C 205.258,262.787 212.925,258.787 220.5,254.5 Z"/></g>
<g><path style="opacity:1" fill="#debb2f" d="M 254.5,252.5 C 253.928,254.119 253.595,255.785 253.5,257.5C 250.658,254.717 248.158,255.05 246,258.5C 245.504,256.965 245.67,255.465 246.5,254C 246.012,252.416 245.012,251.249 243.5,250.5C 244.729,249.719 246.062,249.219 247.5,249C 248.252,248.329 248.586,247.496 248.5,246.5C 249.117,246.389 249.617,246.056 250,245.5C 251.066,248.563 253.233,250.063 256.5,250C 255.619,250.708 254.953,251.542 254.5,252.5 Z"/></g>
<g><path style="opacity:1" fill="#e2be2f" d="M 65.5,251.5 C 64.0937,251.973 63.427,252.973 63.5,254.5C 63.5,255.833 62.8333,256.5 61.5,256.5C 59.8716,255.147 58.5383,255.481 57.5,257.5C 55.228,257.089 54.8947,255.922 56.5,254C 55.9293,252.401 54.9293,251.234 53.5,250.5C 57.6463,249.353 61.9796,249.186 66.5,250C 65.944,250.383 65.6107,250.883 65.5,251.5 Z"/></g>
<g><path style="opacity:1" fill="#c5b036" d="M 263.5,201.5 C 257.662,215.851 249.329,228.517 238.5,239.5C 232.83,244.987 226.83,249.987 220.5,254.5C 212.925,258.787 205.258,262.787 197.5,266.5C 193.596,267.809 189.596,268.809 185.5,269.5C 184.833,269.5 184.5,269.167 184.5,268.5C 190.91,266.363 197.244,264.03 203.5,261.5C 230.283,248.717 249.616,228.717 261.5,201.5C 262.396,200.494 263.062,200.494 263.5,201.5 Z"/></g>
<g><path style="opacity:1" fill="#947b29" d="M 62.5,248.5 C 64.1667,248.5 65.8333,248.5 67.5,248.5C 67.7148,250.179 67.0481,251.179 65.5,251.5C 65.6107,250.883 65.944,250.383 66.5,250C 61.9796,249.186 57.6463,249.353 53.5,250.5C 52.9569,250.44 52.6236,250.107 52.5,249.5C 54.396,248.534 56.396,248.201 58.5,248.5C 58.2222,246.654 58.8888,245.32 60.5,244.5C 61.1719,245.949 61.8386,247.282 62.5,248.5 Z"/></g>
<g><path style="opacity:1" fill="#514e46" d="M 177.5,231.5 C 178.483,235.298 178.817,239.298 178.5,243.5C 178.369,248.189 177.369,248.522 175.5,244.5C 175.5,243.833 175.5,243.167 175.5,242.5C 176.222,242.918 176.722,243.584 177,244.5C 177.499,240.179 177.666,235.846 177.5,231.5 Z"/></g>
<g><path style="opacity:1" fill="#d8a924" d="M 181.5,238.5 C 181.833,238.5 182.167,238.5 182.5,238.5C 183.822,238.33 184.989,238.663 186,239.5C 186.587,243.17 188.087,246.337 190.5,249C 189.978,249.561 189.645,250.228 189.5,251C 190.704,252.699 192.038,254.199 193.5,255.5C 188.363,257.784 183.03,259.451 177.5,260.5C 176.081,259.549 174.415,259.216 172.5,259.5C 171.501,253.504 170.501,247.504 169.5,241.5C 166.5,241.5 163.5,241.5 160.5,241.5C 157.833,241.5 155.167,241.5 152.5,241.5C 152.5,241.167 152.5,240.833 152.5,240.5C 158.833,240.5 165.167,240.5 171.5,240.5C 172.833,241.833 174.167,243.167 175.5,244.5C 177.369,248.522 178.369,248.189 178.5,243.5C 179.935,242.087 180.935,240.42 181.5,238.5 Z"/></g>
<g><path style="opacity:1" fill="#e7b923" d="M 160.5,241.5 C 163.5,241.5 166.5,241.5 169.5,241.5C 170.501,247.504 171.501,253.504 172.5,259.5C 174.415,259.216 176.081,259.549 177.5,260.5C 173.206,261.352 168.873,262.018 164.5,262.5C 163.791,261.596 162.791,261.263 161.5,261.5C 161.664,254.798 161.331,248.131 160.5,241.5 Z"/></g>
<g><path style="opacity:1" fill="#e9c225" d="M 145.5,240.5 C 146.167,241.5 146.833,242.5 147.5,243.5C 148.167,246.167 148.833,246.167 149.5,243.5C 150.5,242.833 151.5,242.167 152.5,241.5C 155.167,241.5 157.833,241.5 160.5,241.5C 161.331,248.131 161.664,254.798 161.5,261.5C 162.791,261.263 163.791,261.596 164.5,262.5C 157.691,263.732 151.024,263.732 144.5,262.5C 148.182,262.665 151.848,262.499 155.5,262C 153.866,261.506 152.199,261.34 150.5,261.5C 151.037,256.685 151.037,252.018 150.5,247.5C 149.167,247.5 147.833,247.5 146.5,247.5C 146.007,245.194 145.674,242.861 145.5,240.5 Z"/></g>
<g><path style="opacity:1" fill="#a3912c" d="M 62.5,215.5 C 66.1256,220.461 70.1256,225.128 74.5,229.5C 94.2104,251.352 118.877,263.019 148.5,264.5C 152.5,265.167 156.5,265.833 160.5,266.5C 136.149,267.825 113.816,261.825 93.5,248.5C 82.899,240.901 73.5657,231.901 65.5,221.5C 64.075,220.078 63.075,218.411 62.5,216.5C 62.5,216.167 62.5,215.833 62.5,215.5 Z"/></g>
<g><path style="opacity:1" fill="#1d1c1b" d="M 72.5,241.5 C 78.5702,246.912 84.9035,251.912 91.5,256.5C 86.7382,263.197 82.2382,270.197 78,277.5C 76.4912,279.71 74.6579,281.543 72.5,283C 73.056,283.383 73.3893,283.883 73.5,284.5C 64.3998,279.609 56.3998,273.276 49.5,265.5C 51.8333,262.5 54.5,259.833 57.5,257.5C 58.5383,255.481 59.8716,255.147 61.5,256.5C 61.8656,257.695 62.699,258.361 64,258.5C 65.5439,257.162 65.3773,255.829 63.5,254.5C 63.427,252.973 64.0937,251.973 65.5,251.5C 67.0481,251.179 67.7148,250.179 67.5,248.5C 65.8333,248.5 64.1667,248.5 62.5,248.5C 62.369,247.761 62.5357,247.094 63,246.5C 64.4936,247.747 65.9936,247.747 67.5,246.5C 69.2147,244.785 70.8814,243.119 72.5,241.5 Z"/></g>
<g><path style="opacity:1" fill="#252423" d="M 248.5,246.5 C 248.586,247.496 248.252,248.329 247.5,249C 246.062,249.219 244.729,249.719 243.5,250.5C 245.012,251.249 246.012,252.416 246.5,254C 245.67,255.465 245.504,256.965 246,258.5C 248.158,255.05 250.658,254.717 253.5,257.5C 253.595,255.785 253.928,254.119 254.5,252.5C 255.496,252.414 256.329,252.748 257,253.5C 258.277,256.938 260.443,259.605 263.5,261.5C 256.664,269.904 248.664,276.904 239.5,282.5C 239.66,280.801 239.494,279.134 239,277.5C 236.25,273.668 233.75,269.668 231.5,265.5C 232.729,264.719 234.062,264.219 235.5,264C 233.699,263.683 233.366,263.016 234.5,262C 232.633,261.289 231.133,261.789 230,263.5C 227.265,261.268 225.098,258.601 223.5,255.5C 222.675,254.614 221.675,254.281 220.5,254.5C 226.83,249.987 232.83,244.987 238.5,239.5C 239.496,239.586 240.329,239.252 241,238.5C 242.971,240.808 244.971,243.142 247,245.5C 248.107,244.288 248.607,244.621 248.5,246.5 Z"/></g>
<g><path style="opacity:1" fill="#fadb2d" d="M 102.5,219.5 C 107.55,223.202 112.883,226.536 118.5,229.5C 118.337,231.857 118.503,234.19 119,236.5C 121.025,234.307 123.525,233.307 126.5,233.5C 132.562,236.298 138.896,238.298 145.5,239.5C 145.5,239.833 145.5,240.167 145.5,240.5C 145.674,242.861 146.007,245.194 146.5,247.5C 147.833,247.5 149.167,247.5 150.5,247.5C 151.037,252.018 151.037,256.685 150.5,261.5C 152.199,261.34 153.866,261.506 155.5,262C 151.848,262.499 148.182,262.665 144.5,262.5C 123.963,261.122 105.63,254.122 89.5,241.5C 89.5228,239.4 88.8561,237.567 87.5,236C 88.7073,234.7 89.3739,233.2 89.5,231.5C 90.5,231.5 91.5,231.5 92.5,231.5C 92.3505,230.448 92.5172,229.448 93,228.5C 95.7016,225.869 98.2016,223.035 100.5,220C 101.094,219.536 101.761,219.369 102.5,219.5 Z"/></g>
<g><path style="opacity:1" fill="#24221e" d="M 65.5,221.5 C 73.5657,231.901 82.899,240.901 93.5,248.5C 94.6266,250.083 94.6266,252.083 93.5,254.5C 80.2775,246.613 69.2775,236.28 60.5,223.5C 60.369,222.761 60.5357,222.094 61,221.5C 61.3879,222.428 62.0546,223.095 63,223.5C 63.3546,222.491 64.1879,221.824 65.5,221.5 Z"/></g>
<g><path style="opacity:1" fill="#bfbebc" d="M 169.5,233.5 C 171.03,234.211 172.363,235.211 173.5,236.5C 173.704,238.685 174.37,240.685 175.5,242.5C 175.5,243.167 175.5,243.833 175.5,244.5C 174.167,243.167 172.833,241.833 171.5,240.5C 170.952,238.606 169.952,236.94 168.5,235.5C 168.863,234.817 169.196,234.15 169.5,233.5 Z"/></g>
<g><path style="opacity:1" fill="#c0c0be" d="M 147.5,243.5 C 146.833,242.5 146.167,241.5 145.5,240.5C 145.5,240.167 145.5,239.833 145.5,239.5C 144.422,236.598 143.756,233.598 143.5,230.5C 144.5,230.5 145.5,230.5 146.5,230.5C 146.927,234.824 147.261,239.158 147.5,243.5 Z"/></g>
<g><path style="opacity:1" fill="#d09c25" d="M 202.5,221.5 C 203.167,221.5 203.833,221.5 204.5,221.5C 205.167,221.5 205.833,221.5 206.5,221.5C 207.383,225.582 209.549,228.916 213,231.5C 213.494,233.134 213.66,234.801 213.5,236.5C 216.079,237.656 218.745,238.656 221.5,239.5C 213.44,246.857 204.106,252.19 193.5,255.5C 192.038,254.199 190.704,252.699 189.5,251C 189.645,250.228 189.978,249.561 190.5,249C 188.087,246.337 186.587,243.17 186,239.5C 184.989,238.663 183.822,238.33 182.5,238.5C 185.54,236.654 188.873,235.321 192.5,234.5C 194.806,234.993 197.139,235.326 199.5,235.5C 200.097,236.139 200.93,236.472 202,236.5C 203.376,236.316 204.209,235.649 204.5,234.5C 203.962,230.476 203.295,226.476 202.5,222.5C 202.5,222.167 202.5,221.833 202.5,221.5 Z"/></g>
<g><path style="opacity:1" fill="#868685" d="M 152.5,240.5 C 152.5,240.833 152.5,241.167 152.5,241.5C 151.5,242.167 150.5,242.833 149.5,243.5C 150.715,239.1 152.215,234.767 154,230.5C 155.353,231.685 156.52,233.019 157.5,234.5C 155.81,236.519 154.144,238.519 152.5,240.5 Z"/></g>
<g><path style="opacity:1" fill="#bab7b3" d="M 199.5,235.5 C 197.139,235.326 194.806,234.993 192.5,234.5C 190.919,232.858 190.253,230.858 190.5,228.5C 191.552,228.351 192.552,228.517 193.5,229C 195.305,231.403 197.638,233.07 200.5,234C 201.712,235.107 201.379,235.607 199.5,235.5 Z"/></g>
<g><path style="opacity:1" fill="#8e8d8a" d="M 177.5,231.5 C 177.5,230.833 177.833,230.5 178.5,230.5C 180.017,230.511 181.184,231.177 182,232.5C 182.18,234.488 182.014,236.488 181.5,238.5C 180.935,240.42 179.935,242.087 178.5,243.5C 178.817,239.298 178.483,235.298 177.5,231.5 Z"/></g>
<g><path style="opacity:1" fill="#191919" d="M 177.5,231.5 C 177.666,235.846 177.499,240.179 177,244.5C 176.722,243.584 176.222,242.918 175.5,242.5C 174.37,240.685 173.704,238.685 173.5,236.5C 172.962,234.883 172.629,233.216 172.5,231.5C 174.167,231.5 175.833,231.5 177.5,231.5 Z"/></g>
<g><path style="opacity:1" fill="#515151" d="M 178.5,230.5 C 177.833,230.5 177.5,230.833 177.5,231.5C 175.833,231.5 174.167,231.5 172.5,231.5C 172.629,233.216 172.962,234.883 173.5,236.5C 172.363,235.211 171.03,234.211 169.5,233.5C 171.762,229.859 174.762,228.859 178.5,230.5 Z"/></g>
<g><path style="opacity:1" fill="#8a887f" d="M 126.5,233.5 C 123.525,233.307 121.025,234.307 119,236.5C 118.503,234.19 118.337,231.857 118.5,229.5C 118.281,228.325 118.614,227.325 119.5,226.5C 119.833,227.167 120.167,227.833 120.5,228.5C 119.072,235.886 120.406,236.052 124.5,229C 132.034,227.966 132.367,228.966 125.5,232C 126.056,232.383 126.389,232.883 126.5,233.5 Z"/></g>
<g><path style="opacity:1" fill="#252423" d="M 58.5,225.5 C 62.765,231.104 67.4317,236.437 72.5,241.5C 70.8814,243.119 69.2147,244.785 67.5,246.5C 65.9936,247.747 64.4936,247.747 63,246.5C 62.5357,247.094 62.369,247.761 62.5,248.5C 61.8386,247.282 61.1719,245.949 60.5,244.5C 58.8888,245.32 58.2222,246.654 58.5,248.5C 56.396,248.201 54.396,248.534 52.5,249.5C 52.6236,250.107 52.9569,250.44 53.5,250.5C 54.9293,251.234 55.9293,252.401 56.5,254C 54.8947,255.922 55.228,257.089 57.5,257.5C 54.5,259.833 51.8333,262.5 49.5,265.5C 42.8866,259.585 37.2199,252.919 32.5,245.5C 34.3642,244.534 36.6976,243.534 39.5,242.5C 44.0014,238.839 48.6681,235.339 53.5,232C 55.4132,229.933 57.0799,227.766 58.5,225.5 Z"/></g>
<g><path style="opacity:1" fill="#948d82" d="M 202.5,222.5 C 203.295,226.476 203.962,230.476 204.5,234.5C 201.722,231.279 199.722,227.612 198.5,223.5C 199.959,223.567 201.292,223.234 202.5,222.5 Z"/></g>
<g><path style="opacity:1" fill="#c6c4c5" d="M 174.5,217.5 C 173.375,219.129 172.041,220.629 170.5,222C 162.954,224.26 155.62,223.76 148.5,220.5C 148.5,219.833 148.5,219.167 148.5,218.5C 152.284,220.811 156.45,221.811 161,221.5C 166.296,222.182 170.629,220.515 174,216.5C 174.399,216.728 174.565,217.062 174.5,217.5 Z"/></g>
<g><path style="opacity:1" fill="#ddaf2f" d="M 222.5,212.5 C 225.9,218.2 230.567,222.533 236.5,225.5C 236.5,225.833 236.5,226.167 236.5,226.5C 231.795,231.207 226.795,235.54 221.5,239.5C 218.745,238.656 216.079,237.656 213.5,236.5C 213.66,234.801 213.494,233.134 213,231.5C 209.549,228.916 207.383,225.582 206.5,221.5C 213.43,221.269 218.763,218.269 222.5,212.5 Z"/></g>
<g><path style="opacity:1" fill="#7c7b79" d="M 101.5,217.5 C 99.9582,216.699 98.2915,216.366 96.5,216.5C 97.937,215.275 99.6036,214.275 101.5,213.5C 104.125,214.865 104.125,216.198 101.5,217.5 Z"/></g>
<g><path style="opacity:1" fill="#a0a0a0" d="M 212.5,206.5 C 212.351,207.552 212.517,208.552 213,209.5C 214.11,207.963 215.61,207.297 217.5,207.5C 213.845,212.821 209.512,217.487 204.5,221.5C 203.833,221.5 203.167,221.5 202.5,221.5C 202.062,221.565 201.728,221.399 201.5,221C 206.026,216.765 209.692,211.932 212.5,206.5 Z"/></g>
<g><path style="opacity:1" fill="#565656" d="M 113.5,217.5 C 112.209,217.737 111.209,217.404 110.5,216.5C 110.608,214.791 110.775,212.791 111,210.5C 112.289,212.645 113.122,214.978 113.5,217.5 Z"/></g>
<g><path style="opacity:1" fill="#f8da3f" d="M 90.5,206.5 C 92.5273,207.861 94.194,209.527 95.5,211.5C 95.5,212.5 95.5,213.5 95.5,214.5C 94.4265,215.251 94.2599,216.251 95,217.5C 95.3826,216.944 95.8826,216.611 96.5,216.5C 98.2915,216.366 99.9582,216.699 101.5,217.5C 101.833,218.167 102.167,218.833 102.5,219.5C 101.761,219.369 101.094,219.536 100.5,220C 98.2016,223.035 95.7016,225.869 93,228.5C 92.5172,229.448 92.3505,230.448 92.5,231.5C 91.5,231.5 90.5,231.5 89.5,231.5C 89.3739,233.2 88.7073,234.7 87.5,236C 88.8561,237.567 89.5228,239.4 89.5,241.5C 84.2056,237.873 79.539,233.54 75.5,228.5C 69.8485,222.533 65.1818,215.866 61.5,208.5C 61.4614,207.244 61.9614,206.244 63,205.5C 64.073,205.201 65.2397,205.201 66.5,205.5C 68.3902,207.59 70.0569,209.923 71.5,212.5C 72.325,213.386 73.325,213.719 74.5,213.5C 75.1577,212.602 75.8243,211.602 76.5,210.5C 80.258,208.539 83.758,206.205 87,203.5C 88.0391,204.71 89.2058,205.71 90.5,206.5 Z"/></g>
<g><path style="opacity:1" fill="#989690" d="M 95.5,214.5 C 95.5,213.5 95.5,212.5 95.5,211.5C 96.1515,210.909 96.8182,210.243 97.5,209.5C 98.8234,211.854 98.1567,213.521 95.5,214.5 Z"/></g>
<g><path style="opacity:1" fill="#b08826" d="M 101.5,259.5 C 127.971,273.09 155.637,276.09 184.5,268.5C 184.5,269.167 184.833,269.5 185.5,269.5C 155.625,278.137 126.958,275.137 99.5,260.5C 100.492,260.672 101.158,260.338 101.5,259.5 Z"/></g>
<g><path style="opacity:1" fill="#131211" d="M 91.5,256.5 C 94.1667,257.833 96.8333,259.167 99.5,260.5C 126.958,275.137 155.625,278.137 185.5,269.5C 189.596,268.809 193.596,267.809 197.5,266.5C 198.75,266.577 199.583,267.244 200,268.5C 203.275,277.493 206.442,286.493 209.5,295.5C 210.791,295.263 211.791,295.596 212.5,296.5C 163.96,315.982 117.627,311.982 73.5,284.5C 73.3893,283.883 73.056,283.383 72.5,283C 74.6579,281.543 76.4912,279.71 78,277.5C 82.2382,270.197 86.7382,263.197 91.5,256.5 Z"/></g>
<g><path style="opacity:1" fill="#7b601c" d="M 156.5,288.5 C 155.778,288.082 155.278,287.416 155,286.5C 154.292,287.381 153.458,288.047 152.5,288.5C 153.97,283.243 155.304,283.243 156.5,288.5 Z"/></g>
<g><path style="opacity:1" fill="#d8b72d" d="M 156.5,288.5 C 157.952,289.302 159.618,289.802 161.5,290C 160.667,290.833 159.833,291.667 159,292.5C 159.218,294.587 159.051,296.587 158.5,298.5C 157.167,297.5 155.833,296.5 154.5,295.5C 151.431,298.079 149.931,297.079 150,292.5C 149.167,291.667 148.333,290.833 147.5,290C 149.382,289.802 151.048,289.302 152.5,288.5C 153.458,288.047 154.292,287.381 155,286.5C 155.278,287.416 155.778,288.082 156.5,288.5 Z"/></g>
</svg>
