<?xml version="1.0" encoding="UTF-8"?>
<!DOCTYPE svg PUBLIC "-//W3C//DTD SVG 1.1//EN" "http://www.w3.org/Graphics/SVG/1.1/DTD/svg11.dtd">
<svg xmlns="http://www.w3.org/2000/svg" version="1.1" width="288px" height="288px" style="shape-rendering:geometricPrecision; text-rendering:geometricPrecision; image-rendering:optimizeQuality; fill-rule:evenodd; clip-rule:evenodd" xmlns:xlink="http://www.w3.org/1999/xlink">
<g><path style="opacity:0.943" fill="#fcfefd" d="M 126.5,-0.5 C 137.833,-0.5 149.167,-0.5 160.5,-0.5C 231.833,12.8333 274.167,55.1667 287.5,126.5C 287.5,137.833 287.5,149.167 287.5,160.5C 274.167,231.833 231.833,274.167 160.5,287.5C 149.167,287.5 137.833,287.5 126.5,287.5C 55.1667,274.167 12.8333,231.833 -0.5,160.5C -0.5,149.167 -0.5,137.833 -0.5,126.5C 12.8333,55.1667 55.1667,12.8333 126.5,-0.5 Z"/></g>
<g><path style="opacity:1" fill="#b6fdf4" d="M 153.5,9.5 C 143.468,9.27053 133.468,9.60387 123.5,10.5C 124.263,9.73209 125.263,9.23209 126.5,9C 135.676,8.17602 144.676,8.34269 153.5,9.5 Z"/></g>
<g><path style="opacity:1" fill="#53f7e3" d="M 153.5,9.5 C 153.833,9.5 154.167,9.5 154.5,9.5C 154.953,10.4584 155.619,11.2917 156.5,12C 161.883,12.8786 167.049,14.3786 172,16.5C 173.049,15.4829 174.216,15.3162 175.5,16C 174.296,20.0195 171.796,21.1862 168,19.5C 165.663,20.8076 163.163,21.8076 160.5,22.5C 162.5,23.1667 164.5,23.8333 166.5,24.5C 165.873,25.4168 165.539,26.4168 165.5,27.5C 154.518,26.7141 143.518,26.3808 132.5,26.5C 131.025,24.5905 129.025,23.4238 126.5,23C 127.167,22.6667 127.833,22.3333 128.5,22C 135.191,21.8309 141.858,21.3309 148.5,20.5C 143.208,19.5052 137.875,19.1718 132.5,19.5C 132.33,18.1779 132.663,17.0113 133.5,16C 131.527,15.5045 129.527,15.3379 127.5,15.5C 127.5,14.1667 127.5,12.8333 127.5,11.5C 121.712,11.3118 116.045,11.9785 110.5,13.5C 114.355,10.9645 118.688,9.96451 123.5,10.5C 133.468,9.60387 143.468,9.27053 153.5,9.5 Z"/></g>
<g><path style="opacity:1" fill="#7efdea" d="M 154.5,9.5 C 157.482,9.96286 160.482,10.2962 163.5,10.5C 165.148,11.9265 167.148,12.7599 169.5,13C 168.833,13.3333 168.167,13.6667 167.5,14C 171.167,14.3333 174.833,14.6667 178.5,15C 181.673,17.0872 185.006,18.9205 188.5,20.5C 184.167,21.1667 179.833,21.8333 175.5,22.5C 177.608,23.9438 179.941,24.6104 182.5,24.5C 182.5,25.5 182.5,26.5 182.5,27.5C 179.5,27.5 176.5,27.5 173.5,27.5C 170.833,27.5 168.167,27.5 165.5,27.5C 165.539,26.4168 165.873,25.4168 166.5,24.5C 164.5,23.8333 162.5,23.1667 160.5,22.5C 163.163,21.8076 165.663,20.8076 168,19.5C 171.796,21.1862 174.296,20.0195 175.5,16C 174.216,15.3162 173.049,15.4829 172,16.5C 167.049,14.3786 161.883,12.8786 156.5,12C 155.619,11.2917 154.953,10.4584 154.5,9.5 Z"/></g>
<g><path style="opacity:1" fill="#25fbdf" d="M 132.5,26.5 C 129.344,27.4339 126.011,28.1006 122.5,28.5C 113.845,30.3858 105.512,33.0524 97.5,36.5C 97.5,35.5 97.5,34.5 97.5,33.5C 99.1992,33.6602 100.866,33.4935 102.5,33C 101.552,32.5172 100.552,32.3505 99.5,32.5C 99.7135,30.8561 99.3802,29.3561 98.5,28C 96.0641,28.0534 93.7308,27.8867 91.5,27.5C 93.0755,26.9684 95.0755,26.6351 97.5,26.5C 97.33,25.1779 97.6634,24.0113 98.5,23C 96.8659,22.5065 95.1992,22.3398 93.5,22.5C 93.6495,21.448 93.4828,20.448 93,19.5C 91.6439,20.3802 90.1439,20.7135 88.5,20.5C 95.1641,16.4219 102.497,14.0885 110.5,13.5C 116.045,11.9785 121.712,11.3118 127.5,11.5C 127.5,12.8333 127.5,14.1667 127.5,15.5C 129.527,15.3379 131.527,15.5045 133.5,16C 132.663,17.0113 132.33,18.1779 132.5,19.5C 137.875,19.1718 143.208,19.5052 148.5,20.5C 141.858,21.3309 135.191,21.8309 128.5,22C 127.833,22.3333 127.167,22.6667 126.5,23C 129.025,23.4238 131.025,24.5905 132.5,26.5 Z"/></g>
<g><path style="opacity:1" fill="#98fcea" d="M 163.5,10.5 C 167.142,11.0804 170.809,11.5804 174.5,12C 181.638,14.9001 188.972,17.2335 196.5,19C 199.603,20.6886 202.603,22.5219 205.5,24.5C 205.577,25.7498 206.244,26.5831 207.5,27C 205.101,27.711 202.768,27.5443 200.5,26.5C 199.511,29.4377 198.844,32.4377 198.5,35.5C 196.833,35.5 195.167,35.5 193.5,35.5C 191.847,35.3404 190.514,34.6737 189.5,33.5C 187.436,32.1324 185.102,31.1324 182.5,30.5C 182.709,29.914 183.043,29.414 183.5,29C 179.975,28.8213 176.641,28.3213 173.5,27.5C 176.5,27.5 179.5,27.5 182.5,27.5C 182.5,26.5 182.5,25.5 182.5,24.5C 179.941,24.6104 177.608,23.9438 175.5,22.5C 179.833,21.8333 184.167,21.1667 188.5,20.5C 185.006,18.9205 181.673,17.0872 178.5,15C 174.833,14.6667 171.167,14.3333 167.5,14C 168.167,13.6667 168.833,13.3333 169.5,13C 167.148,12.7599 165.148,11.9265 163.5,10.5 Z"/></g>
<g><path style="opacity:1" fill="#254943" d="M 132.5,26.5 C 143.518,26.3808 154.518,26.7141 165.5,27.5C 169.019,28.6322 172.686,29.6322 176.5,30.5C 175.081,31.4511 173.415,31.7845 171.5,31.5C 153.844,28.911 136.177,28.911 118.5,31.5C 117.761,31.631 117.094,31.4643 116.5,31C 118.723,30.4338 120.723,29.6005 122.5,28.5C 126.011,28.1006 129.344,27.4339 132.5,26.5 Z"/></g>
<g><path style="opacity:1" fill="#71cfc3" d="M 165.5,27.5 C 168.167,27.5 170.833,27.5 173.5,27.5C 176.641,28.3213 179.975,28.8213 183.5,29C 183.043,29.414 182.709,29.914 182.5,30.5C 185.102,31.1324 187.436,32.1324 189.5,33.5C 185.051,32.971 180.718,31.971 176.5,30.5C 172.686,29.6322 169.019,28.6322 165.5,27.5 Z"/></g>
<g><path style="opacity:1" fill="#b0fee5" d="M 205.5,24.5 C 211.206,27.3468 216.539,30.6802 221.5,34.5C 216.006,33.88 212.672,36.2133 211.5,41.5C 206.544,40.8554 202.211,38.8554 198.5,35.5C 198.844,32.4377 199.511,29.4377 200.5,26.5C 202.768,27.5443 205.101,27.711 207.5,27C 206.244,26.5831 205.577,25.7498 205.5,24.5 Z"/></g>
<g><path style="opacity:1" fill="#e2e2d8" d="M 171.5,31.5 C 186.807,34.9248 201.141,40.9248 214.5,49.5C 230.352,60.682 243.019,74.682 252.5,91.5C 254.777,96.3873 256.777,101.387 258.5,106.5C 258.41,109.152 259.076,111.485 260.5,113.5C 260.833,114.167 261.167,114.833 261.5,115.5C 264.136,128.684 265.136,142.018 264.5,155.5C 262.543,163.061 260.543,170.728 258.5,178.5C 247.661,207.676 228.327,229.343 200.5,243.5C 186.637,249.571 172.303,253.571 157.5,255.5C 130.538,257.84 105.538,252.173 82.5,238.5C 54.7696,220.4 37.4363,195.067 30.5,162.5C 31.734,155.989 31.734,149.322 30.5,142.5C 31.1624,131.701 32.6624,121.034 35,110.5C 36.5,109.667 37.6667,108.5 38.5,107C 37.233,105.204 37.233,103.371 38.5,101.5C 38.0302,100.537 37.3635,100.537 36.5,101.5C 38.6417,95.8832 41.3084,90.5499 44.5,85.5C 62.1628,57.8284 86.8295,39.8284 118.5,31.5C 136.177,28.911 153.844,28.911 171.5,31.5 Z"/></g>
<g><path style="opacity:1" fill="#37fce1" d="M 88.5,20.5 C 87.1639,22.0103 85.9973,23.6769 85,25.5C 83.8173,24.269 82.6507,24.269 81.5,25.5C 82.4779,29.0396 81.1446,31.5396 77.5,33C 74.7514,34.084 71.9181,34.9173 69,35.5C 66.7806,38.5961 63.9473,39.2628 60.5,37.5C 68.7957,30.2209 78.129,24.5542 88.5,20.5 Z"/></g>
<g><path style="opacity:1" fill="#5b5b57" d="M 159.5,35.5 C 149.135,35.2667 138.802,35.6 128.5,36.5C 129.263,35.7321 130.263,35.2321 131.5,35C 141.009,34.1757 150.343,34.3424 159.5,35.5 Z"/></g>
<g><path style="opacity:1" fill="#080808" d="M 159.5,35.5 C 160.5,35.5 161.5,35.5 162.5,35.5C 167.05,36.4915 171.717,37.4915 176.5,38.5C 191.853,42.8431 205.853,49.8431 218.5,59.5C 219.585,61.5869 221.251,62.9202 223.5,63.5C 231.717,71.6255 238.717,80.6255 244.5,90.5C 244.427,92.0269 245.094,93.0269 246.5,93.5C 246.5,93.8333 246.5,94.1667 246.5,94.5C 246.427,96.0269 247.094,97.0269 248.5,97.5C 248.5,97.8333 248.5,98.1667 248.5,98.5C 248.427,100.027 249.094,101.027 250.5,101.5C 259.957,125.478 260.957,149.811 253.5,174.5C 252.463,175.93 251.796,177.597 251.5,179.5C 251.5,179.833 251.5,180.167 251.5,180.5C 249.935,182.509 248.935,184.843 248.5,187.5C 236.42,211.247 218.42,228.914 194.5,240.5C 191.053,241.083 188.053,242.416 185.5,244.5C 182.572,244.565 179.905,245.232 177.5,246.5C 175.901,246.232 174.568,246.566 173.5,247.5C 168.876,247.763 164.542,248.763 160.5,250.5C 149.806,250.709 139.14,250.375 128.5,249.5C 126.485,248.076 124.152,247.41 121.5,247.5C 121.167,247.5 120.833,247.5 120.5,247.5C 117.495,245.723 114.162,244.723 110.5,244.5C 109.005,244.011 107.671,243.345 106.5,242.5C 104.898,240.926 102.898,240.259 100.5,240.5C 98.1815,240.008 96.1815,239.008 94.5,237.5C 94.0269,236.094 93.0269,235.427 91.5,235.5C 65.8709,220.545 48.8709,198.878 40.5,170.5C 40.5905,167.848 39.9238,165.515 38.5,163.5C 35.9151,149.815 35.9151,136.148 38.5,122.5C 39.9238,120.485 40.5905,118.152 40.5,115.5C 40.2872,112.549 40.9539,109.882 42.5,107.5C 44.8337,105.824 45.8337,103.491 45.5,100.5C 52.5113,84.3033 62.8447,70.47 76.5,59C 82.8944,53.8033 89.8944,49.6367 97.5,46.5C 99.9674,46.2451 101.967,45.2451 103.5,43.5C 104.568,42.5655 105.901,42.2322 107.5,42.5C 111.149,41.7333 114.482,40.3999 117.5,38.5C 120.998,37.0832 124.665,36.4165 128.5,36.5C 138.802,35.6 149.135,35.2667 159.5,35.5 Z"/></g>
<g><path style="opacity:1" fill="#95948d" d="M 162.5,35.5 C 167.596,35.0439 172.262,36.0439 176.5,38.5C 171.717,37.4915 167.05,36.4915 162.5,35.5 Z"/></g>
<g><path style="opacity:1" fill="#d1f9cd" d="M 221.5,34.5 C 223.411,35.075 225.078,36.075 226.5,37.5C 224.674,40.4263 222.34,42.9263 219.5,45C 221.788,47.7619 223.788,50.5952 225.5,53.5C 225.833,54.1667 226.167,54.8333 226.5,55.5C 224.596,55.2624 223.262,54.2624 222.5,52.5C 221.415,50.4131 219.749,49.0798 217.5,48.5C 216.833,48.5 216.167,48.5 215.5,48.5C 215.167,47.8333 214.833,47.1667 214.5,46.5C 214.69,44.0411 213.69,42.3745 211.5,41.5C 212.672,36.2133 216.006,33.88 221.5,34.5 Z"/></g>
<g><path style="opacity:1" fill="#09fbd2" d="M 97.5,36.5 C 96.1667,37.1667 94.8333,37.8333 93.5,38.5C 91.0326,38.7549 89.0326,39.7549 87.5,41.5C 76.0428,47.9462 65.7094,55.9462 56.5,65.5C 55.1266,65.3433 53.7932,65.51 52.5,66C 53.6956,66.6543 53.6956,67.1543 52.5,67.5C 50.8849,66.846 49.2182,66.346 47.5,66C 51.3516,62.8582 51.3516,59.8582 47.5,57C 49.5155,53.4562 50.8488,49.6229 51.5,45.5C 53.8797,42.1195 56.8797,39.4528 60.5,37.5C 63.9473,39.2628 66.7806,38.5961 69,35.5C 71.9181,34.9173 74.7514,34.084 77.5,33C 81.1446,31.5396 82.4779,29.0396 81.5,25.5C 82.6507,24.269 83.8173,24.269 85,25.5C 85.9973,23.6769 87.1639,22.0103 88.5,20.5C 90.1439,20.7135 91.6439,20.3802 93,19.5C 93.4828,20.448 93.6495,21.448 93.5,22.5C 95.1992,22.3398 96.8659,22.5065 98.5,23C 97.6634,24.0113 97.33,25.1779 97.5,26.5C 95.0755,26.6351 93.0755,26.9684 91.5,27.5C 93.7308,27.8867 96.0641,28.0534 98.5,28C 99.3802,29.3561 99.7135,30.8561 99.5,32.5C 100.552,32.3505 101.552,32.5172 102.5,33C 100.866,33.4935 99.1992,33.6602 97.5,33.5C 97.5,34.5 97.5,35.5 97.5,36.5 Z"/></g>
<g><path style="opacity:1" fill="#109988" d="M 93.5,38.5 C 91.9674,40.2451 89.9674,41.2451 87.5,41.5C 89.0326,39.7549 91.0326,38.7549 93.5,38.5 Z"/></g>
<g><path style="opacity:1" fill="#54534f" d="M 117.5,38.5 C 114.482,40.3999 111.149,41.7333 107.5,42.5C 110.309,40.1034 113.642,38.7701 117.5,38.5 Z"/></g>
<g><path style="opacity:1" fill="#30514a" d="M 176.5,30.5 C 180.718,31.971 185.051,32.971 189.5,33.5C 190.514,34.6737 191.847,35.3404 193.5,35.5C 200.581,38.9743 207.581,42.641 214.5,46.5C 214.833,47.1667 215.167,47.8333 215.5,48.5C 214.833,48.5 214.5,48.8333 214.5,49.5C 201.141,40.9248 186.807,34.9248 171.5,31.5C 173.415,31.7845 175.081,31.4511 176.5,30.5 Z"/></g>
<g><path style="opacity:1" fill="#9dd5c3" d="M 193.5,35.5 C 195.167,35.5 196.833,35.5 198.5,35.5C 202.211,38.8554 206.544,40.8554 211.5,41.5C 213.69,42.3745 214.69,44.0411 214.5,46.5C 207.581,42.641 200.581,38.9743 193.5,35.5 Z"/></g>
<g><path style="opacity:1" fill="#e4fdc2" d="M 226.5,37.5 C 228.167,38.5 229.5,39.8333 230.5,41.5C 224.975,43.8842 223.308,47.8842 225.5,53.5C 223.788,50.5952 221.788,47.7619 219.5,45C 222.34,42.9263 224.674,40.4263 226.5,37.5 Z"/></g>
<g><path style="opacity:1" fill="#e9f1ac" d="M 230.5,41.5 C 232.909,42.7007 234.909,44.3674 236.5,46.5C 233.593,46.5752 230.927,47.4086 228.5,49C 227.22,51.1317 227.22,53.2984 228.5,55.5C 231.824,57.1615 234.49,59.4949 236.5,62.5C 238.254,64.5887 239.587,66.922 240.5,69.5C 235.5,65.1667 230.833,60.5 226.5,55.5C 226.167,54.8333 225.833,54.1667 225.5,53.5C 223.308,47.8842 224.975,43.8842 230.5,41.5 Z"/></g>
<g><path style="opacity:1" fill="#555451" d="M 103.5,43.5 C 101.967,45.2451 99.9674,46.2451 97.5,46.5C 99.0326,44.7549 101.033,43.7549 103.5,43.5 Z"/></g>
<g><path style="opacity:1" fill="#6f6f6f" d="M 165.5,48.5 C 153.167,47.1667 140.833,47.1667 128.5,48.5C 134.595,46.9865 140.928,46.3198 147.5,46.5C 153.749,46.2935 159.749,46.9602 165.5,48.5 Z"/></g>
<g><path style="opacity:1" fill="#fcfbfb" d="M 165.5,48.5 C 167.565,48.5172 169.565,48.8505 171.5,49.5C 171.611,50.1174 171.944,50.6174 172.5,51C 176.145,51.9949 179.812,52.8283 183.5,53.5C 184.167,53.5 184.833,53.5 185.5,53.5C 187.033,55.2451 189.033,56.2451 191.5,56.5C 193.167,57.1667 194.833,57.8333 196.5,58.5C 196.973,59.9063 197.973,60.573 199.5,60.5C 200.514,61.6737 201.847,62.3404 203.5,62.5C 203.973,63.9063 204.973,64.573 206.5,64.5C 213.104,69.4349 219.104,75.1016 224.5,81.5C 225.08,83.7488 226.413,85.4154 228.5,86.5C 228.738,88.4044 229.738,89.7377 231.5,90.5C 231.427,92.0269 232.094,93.0269 233.5,93.5C 233.427,95.0269 234.094,96.0269 235.5,96.5C 237.341,98.8485 238.674,101.515 239.5,104.5C 239.69,107.855 240.69,110.855 242.5,113.5C 243.167,113.5 243.5,113.833 243.5,114.5C 243.41,117.152 244.076,119.485 245.5,121.5C 245.5,122.167 245.5,122.833 245.5,123.5C 246.77,135.171 246.77,146.838 245.5,158.5C 244.699,160.042 244.366,161.708 244.5,163.5C 243.883,163.611 243.383,163.944 243,164.5C 241.985,168.895 240.818,173.229 239.5,177.5C 239.5,178.167 239.5,178.833 239.5,179.5C 237.076,182.008 235.41,185.008 234.5,188.5C 233.094,188.973 232.427,189.973 232.5,191.5C 231.662,191.842 231.328,192.508 231.5,193.5C 229.738,194.262 228.738,195.596 228.5,197.5C 226.605,198.973 224.939,200.64 223.5,202.5C 220.246,200.281 216.579,199.114 212.5,199C 166.82,196.888 121.153,197.054 75.5,199.5C 75.5608,202.05 76.8941,203.55 79.5,204C 87.8134,204.883 96.1468,205.383 104.5,205.5C 106.833,205.5 109.167,205.5 111.5,205.5C 147.233,207.144 183.066,206.477 219,203.5C 220.03,203.836 220.53,204.503 220.5,205.5C 218.167,208.167 215.833,210.833 213.5,213.5C 210.883,214.786 208.55,216.453 206.5,218.5C 204.973,218.427 203.973,219.094 203.5,220.5C 200.669,221.079 198.336,222.412 196.5,224.5C 193.982,225.264 191.649,226.264 189.5,227.5C 186.053,228.083 183.053,229.416 180.5,231.5C 177.848,231.41 175.515,232.076 173.5,233.5C 172.833,233.5 172.167,233.5 171.5,233.5C 152.574,236.878 133.907,235.878 115.5,230.5C 113.898,228.926 111.898,228.259 109.5,228.5C 106.018,225.556 102.018,223.556 97.5,222.5C 97.0269,221.094 96.0269,220.427 94.5,220.5C 93.7377,218.738 92.4044,217.738 90.5,217.5C 88.5956,217.262 87.2623,216.262 86.5,214.5C 85.7377,212.738 84.4044,211.738 82.5,211.5C 79.1667,207.5 75.5,203.833 71.5,200.5C 67.9054,195.635 64.5721,190.635 61.5,185.5C 61.573,183.973 60.9063,182.973 59.5,182.5C 59.5,181.833 59.5,181.167 59.5,180.5C 59.573,178.973 58.9063,177.973 57.5,177.5C 55.2024,170.976 53.5357,164.31 52.5,157.5C 51.7676,148.185 51.4343,138.852 51.5,129.5C 51.5,128.167 51.5,126.833 51.5,125.5C 52.9238,123.485 53.5905,121.152 53.5,118.5C 53.5,118.167 53.5,117.833 53.5,117.5C 54.9238,115.485 55.5905,113.152 55.5,110.5C 55.9321,109.29 56.5987,108.29 57.5,107.5C 59.5848,105.316 60.5848,102.649 60.5,99.5C 62.4077,98.5144 63.4077,96.8477 63.5,94.5C 64.9063,94.0269 65.573,93.0269 65.5,91.5C 66.9063,91.0269 67.573,90.0269 67.5,88.5C 69.5869,87.4154 70.9202,85.7488 71.5,83.5C 76.5,79.1667 81.1667,74.5 85.5,69.5C 87.8003,67.016 90.4669,65.016 93.5,63.5C 95.0269,63.573 96.0269,62.9063 96.5,61.5C 98.3356,59.412 100.669,58.0787 103.5,57.5C 109.094,56.0298 114.427,54.0298 119.5,51.5C 121.403,51.2041 123.07,50.5375 124.5,49.5C 126.099,49.7678 127.432,49.4345 128.5,48.5C 140.833,47.1667 153.167,47.1667 165.5,48.5 Z"/></g>
<g><path style="opacity:1" fill="#686868" d="M 124.5,49.5 C 123.07,50.5375 121.403,51.2041 119.5,51.5C 120.635,49.7868 122.302,49.1201 124.5,49.5 Z"/></g>
<g><path style="opacity:1" fill="#b9b9b9" d="M 171.5,49.5 C 175.805,50.2351 179.805,51.5684 183.5,53.5C 179.812,52.8283 176.145,51.9949 172.5,51C 171.944,50.6174 171.611,50.1174 171.5,49.5 Z"/></g>
<g><path style="opacity:1" fill="#97b495" d="M 217.5,48.5 C 219.749,49.0798 221.415,50.4131 222.5,52.5C 220.251,51.9202 218.585,50.5869 217.5,48.5 Z"/></g>
<g><path style="opacity:1" fill="#a5a5a5" d="M 119.5,51.5 C 114.427,54.0298 109.094,56.0298 103.5,57.5C 108.244,54.1382 113.577,52.1382 119.5,51.5 Z"/></g>
<g><path style="opacity:1" fill="#7b7b7b" d="M 185.5,53.5 C 187.967,53.7549 189.967,54.7549 191.5,56.5C 189.033,56.2451 187.033,55.2451 185.5,53.5 Z"/></g>
<g><path style="opacity:1" fill="#0df1c8" d="M 51.5,45.5 C 50.8488,49.6229 49.5155,53.4562 47.5,57C 51.3516,59.8582 51.3516,62.8582 47.5,66C 49.2182,66.346 50.8849,66.846 52.5,67.5C 53.6956,67.1543 53.6956,66.6543 52.5,66C 53.7932,65.51 55.1266,65.3433 56.5,65.5C 52.0134,70.4755 48.0134,75.8089 44.5,81.5C 42.0866,83.9056 40.0866,86.5723 38.5,89.5C 37.5041,89.5858 36.6708,89.2524 36,88.5C 35.8124,84.4893 33.979,83.156 30.5,84.5C 29.7132,83.7579 29.0465,82.9246 28.5,82C 29.342,77.6501 31.0087,73.6501 33.5,70C 32.7476,69.3292 32.4142,68.4959 32.5,67.5C 37.3444,58.9812 43.6778,51.6478 51.5,45.5 Z"/></g>
<g><path style="opacity:1" fill="#fdf390" d="M 236.5,46.5 C 240.876,49.8744 244.542,53.8744 247.5,58.5C 244.513,58.4223 243.847,59.589 245.5,62C 245.22,63.395 244.553,64.5617 243.5,65.5C 241.912,63.8867 240.912,61.8867 240.5,59.5C 239.311,58.5713 237.978,58.238 236.5,58.5C 236.5,59.8333 236.5,61.1667 236.5,62.5C 234.49,59.4949 231.824,57.1615 228.5,55.5C 227.22,53.2984 227.22,51.1317 228.5,49C 230.927,47.4086 233.593,46.5752 236.5,46.5 Z"/></g>
<g><path style="opacity:1" fill="#6e6e6e" d="M 196.5,58.5 C 198.027,58.427 199.027,59.0937 199.5,60.5C 197.973,60.573 196.973,59.9063 196.5,58.5 Z"/></g>
<g><path style="opacity:1" fill="#919089" d="M 218.5,59.5 C 220.749,60.0798 222.415,61.4131 223.5,63.5C 221.251,62.9202 219.585,61.5869 218.5,59.5 Z"/></g>
<g><path style="opacity:1" fill="#38432c" d="M 215.5,48.5 C 216.167,48.5 216.833,48.5 217.5,48.5C 218.585,50.5869 220.251,51.9202 222.5,52.5C 223.262,54.2624 224.596,55.2624 226.5,55.5C 230.833,60.5 235.5,65.1667 240.5,69.5C 244.918,75.2458 248.918,81.2458 252.5,87.5C 252.557,88.609 252.89,89.609 253.5,90.5C 252.833,90.5 252.5,90.8333 252.5,91.5C 243.019,74.682 230.352,60.682 214.5,49.5C 214.5,48.8333 214.833,48.5 215.5,48.5 Z"/></g>
<g><path style="opacity:1" fill="#9f9f9f" d="M 96.5,61.5 C 96.0269,62.9063 95.0269,63.573 93.5,63.5C 93.9731,62.0937 94.9731,61.427 96.5,61.5 Z"/></g>
<g><path style="opacity:1" fill="#f9ed7f" d="M 247.5,58.5 C 249.633,60.0905 251.299,62.0905 252.5,64.5C 250.833,64.5 249.167,64.5 247.5,64.5C 244.965,71.031 246.465,76.3644 252,80.5C 253.202,82.6775 253.702,85.0108 253.5,87.5C 253.167,87.5 252.833,87.5 252.5,87.5C 248.918,81.2458 244.918,75.2458 240.5,69.5C 239.587,66.922 238.254,64.5887 236.5,62.5C 236.5,61.1667 236.5,59.8333 236.5,58.5C 237.978,58.238 239.311,58.5713 240.5,59.5C 240.912,61.8867 241.912,63.8867 243.5,65.5C 244.553,64.5617 245.22,63.395 245.5,62C 243.847,59.589 244.513,58.4223 247.5,58.5 Z"/></g>
<g><path style="opacity:1" fill="#515151" d="M 203.5,62.5 C 205.027,62.427 206.027,63.0937 206.5,64.5C 204.973,64.573 203.973,63.9063 203.5,62.5 Z"/></g>
<g><path style="opacity:1" fill="#236460" d="M 122.5,28.5 C 120.723,29.6005 118.723,30.4338 116.5,31C 117.094,31.4643 117.761,31.631 118.5,31.5C 86.8295,39.8284 62.1628,57.8284 44.5,85.5C 43.6457,84.3684 43.6457,83.035 44.5,81.5C 48.0134,75.8089 52.0134,70.4755 56.5,65.5C 65.7094,55.9462 76.0428,47.9462 87.5,41.5C 89.9674,41.2451 91.9674,40.2451 93.5,38.5C 94.8333,37.8333 96.1667,37.1667 97.5,36.5C 105.512,33.0524 113.845,30.3858 122.5,28.5 Z"/></g>
<g><path style="opacity:1" fill="#fce570" d="M 252.5,64.5 C 258.677,71.507 263.344,79.507 266.5,88.5C 264.435,87.1744 263.102,87.841 262.5,90.5C 261.311,91.4287 259.978,91.762 258.5,91.5C 258.993,93.8056 259.326,96.139 259.5,98.5C 258.833,98.1667 258.167,97.8333 257.5,97.5C 256.758,95.0202 255.758,92.6869 254.5,90.5C 254.443,89.391 254.11,88.391 253.5,87.5C 253.702,85.0108 253.202,82.6775 252,80.5C 246.465,76.3644 244.965,71.031 247.5,64.5C 249.167,64.5 250.833,64.5 252.5,64.5 Z"/></g>
<g><path style="opacity:1" fill="#adadad" d="M 85.5,69.5 C 81.1667,74.5 76.5,79.1667 71.5,83.5C 75.1667,77.8333 79.8333,73.1667 85.5,69.5 Z"/></g>
<g><path style="opacity:1" fill="#aeaeae" d="M 224.5,81.5 C 226.587,82.5846 227.92,84.2512 228.5,86.5C 226.413,85.4154 225.08,83.7488 224.5,81.5 Z"/></g>
<g><path style="opacity:1" fill="#a9a9a9" d="M 71.5,83.5 C 70.9202,85.7488 69.5869,87.4154 67.5,88.5C 68.0798,86.2512 69.4131,84.5846 71.5,83.5 Z"/></g>
<g><path style="opacity:1" fill="#a1a1a1" d="M 228.5,86.5 C 230.262,87.2623 231.262,88.5956 231.5,90.5C 229.738,89.7377 228.738,88.4044 228.5,86.5 Z"/></g>
<g><path style="opacity:1" fill="#11d8bb" d="M 32.5,67.5 C 32.4142,68.4959 32.7476,69.3292 33.5,70C 31.0087,73.6501 29.342,77.6501 28.5,82C 29.0465,82.9246 29.7132,83.7579 30.5,84.5C 33.979,83.156 35.8124,84.4893 36,88.5C 36.6708,89.2524 37.5041,89.5858 38.5,89.5C 34.9697,95.7992 32.3031,102.466 30.5,109.5C 29.603,110.598 28.7697,110.598 28,109.5C 27.5291,107.754 26.8624,106.087 26,104.5C 25.1667,105.5 24.3333,106.5 23.5,107.5C 22.5649,104.898 20.8982,102.898 18.5,101.5C 17.6789,98.5535 17.6789,95.5535 18.5,92.5C 21.889,83.3823 26.5557,75.049 32.5,67.5 Z"/></g>
<g><path style="opacity:1" fill="#928544" d="M 252.5,87.5 C 252.833,87.5 253.167,87.5 253.5,87.5C 254.11,88.391 254.443,89.391 254.5,90.5C 254.167,90.5 253.833,90.5 253.5,90.5C 252.89,89.609 252.557,88.609 252.5,87.5 Z"/></g>
<g><path style="opacity:1" fill="#979797" d="M 67.5,88.5 C 67.573,90.0269 66.9063,91.0269 65.5,91.5C 65.427,89.9731 66.0937,88.9731 67.5,88.5 Z"/></g>
<g><path style="opacity:1" fill="#919191" d="M 231.5,90.5 C 232.906,90.9731 233.573,91.9731 233.5,93.5C 232.094,93.0269 231.427,92.0269 231.5,90.5 Z"/></g>
<g><path style="opacity:1" fill="#65645f" d="M 244.5,90.5 C 245.906,90.9731 246.573,91.9731 246.5,93.5C 245.094,93.0269 244.427,92.0269 244.5,90.5 Z"/></g>
<g><path style="opacity:1" fill="#8c8c8c" d="M 65.5,91.5 C 65.573,93.0269 64.9063,94.0269 63.5,94.5C 63.427,92.9731 64.0937,91.9731 65.5,91.5 Z"/></g>
<g><path style="opacity:1" fill="#22341b" d="M 253.5,90.5 C 253.833,90.5 254.167,90.5 254.5,90.5C 255.758,92.6869 256.758,95.0202 257.5,97.5C 257.427,99.0269 258.094,100.027 259.5,100.5C 259.5,101.167 259.5,101.833 259.5,102.5C 259.796,104.403 260.463,106.07 261.5,107.5C 263.025,110.583 264.025,113.916 264.5,117.5C 263.778,116.449 262.778,115.782 261.5,115.5C 261.167,114.833 260.833,114.167 260.5,113.5C 260.59,110.848 259.924,108.515 258.5,106.5C 256.777,101.387 254.777,96.3873 252.5,91.5C 252.5,90.8333 252.833,90.5 253.5,90.5 Z"/></g>
<g><path style="opacity:1" fill="#808080" d="M 233.5,93.5 C 234.906,93.9731 235.573,94.9731 235.5,96.5C 234.094,96.0269 233.427,95.0269 233.5,93.5 Z"/></g>
<g><path style="opacity:1" fill="#696863" d="M 246.5,94.5 C 247.906,94.9731 248.573,95.9731 248.5,97.5C 247.094,97.0269 246.427,96.0269 246.5,94.5 Z"/></g>
<g><path style="opacity:1" fill="#9f9f9f" d="M 63.5,94.5 C 63.4077,96.8477 62.4077,98.5144 60.5,99.5C 60.7497,97.326 61.7497,95.6594 63.5,94.5 Z"/></g>
<g><path style="opacity:1" fill="#847d3b" d="M 257.5,97.5 C 258.167,97.8333 258.833,98.1667 259.5,98.5C 259.5,98.8333 259.5,99.1667 259.5,99.5C 259.5,99.8333 259.5,100.167 259.5,100.5C 258.094,100.027 257.427,99.0269 257.5,97.5 Z"/></g>
<g><path style="opacity:1" fill="#f57f50" d="M 130.5,101.5 C 112.09,101.18 93.7569,101.514 75.5,102.5C 84.3081,101.168 93.4748,100.502 103,100.5C 112.34,100.5 121.506,100.834 130.5,101.5 Z"/></g>
<g><path style="opacity:1" fill="#777475" d="M 157.5,101.5 C 182.337,100.171 207.337,100.171 232.5,101.5C 231.965,103.261 230.965,104.594 229.5,105.5C 229.539,104.417 229.873,103.417 230.5,102.5C 206.176,101.5 181.842,101.167 157.5,101.5 Z"/></g>
<g><path style="opacity:1" fill="#72716c" d="M 248.5,98.5 C 249.906,98.9731 250.573,99.9731 250.5,101.5C 249.094,101.027 248.427,100.027 248.5,98.5 Z"/></g>
<g><path style="opacity:1" fill="#42423f" d="M 45.5,100.5 C 45.8337,103.491 44.8337,105.824 42.5,107.5C 42.9348,104.843 43.9348,102.509 45.5,100.5 Z"/></g>
<g><path style="opacity:1" fill="#f15a26" d="M 130.5,101.5 C 137.853,101.562 144.519,103.729 150.5,108C 153.447,110.436 155.78,113.269 157.5,116.5C 158.01,119.983 158.677,123.316 159.5,126.5C 159.804,127.15 160.137,127.817 160.5,128.5C 179.825,129.333 199.158,129.833 218.5,130C 219.905,131.269 221.571,131.769 223.5,131.5C 226.404,133.055 229.07,135.055 231.5,137.5C 232.508,139.544 233.508,141.544 234.5,143.5C 234.608,148.87 234.275,154.203 233.5,159.5C 232.094,159.973 231.427,160.973 231.5,162.5C 229.833,163.5 228.5,164.833 227.5,166.5C 223.855,167.987 220.188,169.487 216.5,171C 214.866,171.494 213.199,171.66 211.5,171.5C 186.164,171.667 160.831,171.5 135.5,171C 137.141,169.871 138.141,168.371 138.5,166.5C 140.914,165.089 142.581,163.089 143.5,160.5C 145.587,159.415 146.92,157.749 147.5,155.5C 167.663,154.668 187.996,154.168 208.5,154C 212.213,152.309 213.379,149.475 212,145.5C 210.67,144.418 209.17,143.751 207.5,143.5C 190.005,142.668 172.338,142.168 154.5,142C 152.655,140.872 150.655,140.372 148.5,140.5C 147.609,139.89 146.609,139.557 145.5,139.5C 142.027,137.363 139.694,134.363 138.5,130.5C 138.167,127.167 137.833,123.833 137.5,120.5C 135.435,120.483 133.435,120.15 131.5,119.5C 131.167,119.5 130.833,119.5 130.5,119.5C 107.981,119.163 85.648,118.163 63.5,116.5C 63.8333,115.5 64.5,114.833 65.5,114.5C 67.5869,113.415 68.9202,111.749 69.5,109.5C 71.5869,108.415 72.9202,106.749 73.5,104.5C 73.8333,103.5 74.5,102.833 75.5,102.5C 93.7569,101.514 112.09,101.18 130.5,101.5 Z"/></g>
<g><path style="opacity:1" fill="#4d4c4d" d="M 157.5,101.5 C 181.842,101.167 206.176,101.5 230.5,102.5C 229.873,103.417 229.539,104.417 229.5,105.5C 227.413,106.585 226.08,108.251 225.5,110.5C 223.413,111.585 222.08,113.251 221.5,115.5C 220.373,116.122 219.373,116.955 218.5,118C 200.17,118.5 181.836,118.667 163.5,118.5C 163.598,116.447 162.931,114.78 161.5,113.5C 160.094,113.027 159.427,112.027 159.5,110.5C 158.272,107.925 156.605,105.592 154.5,103.5C 155.602,102.824 156.602,102.158 157.5,101.5 Z"/></g>
<g><path style="opacity:1" fill="#7f7e7e" d="M 157.5,101.5 C 156.602,102.158 155.602,102.824 154.5,103.5C 156.605,105.592 158.272,107.925 159.5,110.5C 156.854,108.521 154.521,106.188 152.5,103.5C 153.668,101.783 155.335,101.116 157.5,101.5 Z"/></g>
<g><path style="opacity:1" fill="#72712f" d="M 259.5,102.5 C 261.213,103.635 261.88,105.302 261.5,107.5C 260.463,106.07 259.796,104.403 259.5,102.5 Z"/></g>
<g><path style="opacity:1" fill="#f6d65b" d="M 266.5,88.5 C 270.812,95.1076 273.146,102.441 273.5,110.5C 271.403,112.482 268.736,113.482 265.5,113.5C 264.888,109.304 263.721,105.304 262,101.5C 261.583,100.244 260.75,99.5774 259.5,99.5C 259.5,99.1667 259.5,98.8333 259.5,98.5C 259.326,96.139 258.993,93.8056 258.5,91.5C 259.978,91.762 261.311,91.4287 262.5,90.5C 263.102,87.841 264.435,87.1744 266.5,88.5 Z"/></g>
<g><path style="opacity:1" fill="#aaaaaa" d="M 60.5,99.5 C 60.5848,102.649 59.5848,105.316 57.5,107.5C 57.4152,104.351 58.4152,101.684 60.5,99.5 Z"/></g>
<g><path style="opacity:1" fill="#fa9472" d="M 73.5,104.5 C 72.9202,106.749 71.5869,108.415 69.5,109.5C 70.0798,107.251 71.4131,105.585 73.5,104.5 Z"/></g>
<g><path style="opacity:1" fill="#999999" d="M 239.5,104.5 C 241.472,107.084 242.472,110.084 242.5,113.5C 240.69,110.855 239.69,107.855 239.5,104.5 Z"/></g>
<g><path style="opacity:1" fill="#b0aeaf" d="M 229.5,105.5 C 228.92,107.749 227.587,109.415 225.5,110.5C 226.08,108.251 227.413,106.585 229.5,105.5 Z"/></g>
<g><path style="opacity:1" fill="#92a299" d="M 258.5,106.5 C 259.924,108.515 260.59,110.848 260.5,113.5C 259.076,111.485 258.41,109.152 258.5,106.5 Z"/></g>
<g><path style="opacity:1" fill="#f98d68" d="M 69.5,109.5 C 68.9202,111.749 67.5869,113.415 65.5,114.5C 66.0798,112.251 67.4131,110.585 69.5,109.5 Z"/></g>
<g><path style="opacity:1" fill="#717171" d="M 55.5,110.5 C 55.5905,113.152 54.9238,115.485 53.5,117.5C 53.4095,114.848 54.0762,112.515 55.5,110.5 Z"/></g>
<g><path style="opacity:1" fill="#b2b0b1" d="M 225.5,110.5 C 224.92,112.749 223.587,114.415 221.5,115.5C 222.08,113.251 223.413,111.585 225.5,110.5 Z"/></g>
<g><path style="opacity:1" fill="#d8cb5d" d="M 259.5,99.5 C 260.75,99.5774 261.583,100.244 262,101.5C 263.721,105.304 264.888,109.304 265.5,113.5C 268.736,113.482 271.403,112.482 273.5,110.5C 276.113,114.986 277.446,119.986 277.5,125.5C 277.167,125.5 276.833,125.5 276.5,125.5C 276.509,123.692 276.009,122.025 275,120.5C 271.809,124.402 268.642,124.402 265.5,120.5C 265.443,119.391 265.11,118.391 264.5,117.5C 264.025,113.916 263.025,110.583 261.5,107.5C 261.88,105.302 261.213,103.635 259.5,102.5C 259.5,101.833 259.5,101.167 259.5,100.5C 259.5,100.167 259.5,99.8333 259.5,99.5 Z"/></g>
<g><path style="opacity:1" fill="#0ebba9" d="M 18.5,92.5 C 17.6789,95.5535 17.6789,98.5535 18.5,101.5C 20.8982,102.898 22.5649,104.898 23.5,107.5C 24.3333,106.5 25.1667,105.5 26,104.5C 26.8624,106.087 27.5291,107.754 28,109.5C 28.7697,110.598 29.603,110.598 30.5,109.5C 28.3079,114.95 26.8079,120.617 26,126.5C 25.5002,135.494 25.3336,144.494 25.5,153.5C 25.5875,156.598 25.0875,156.932 24,154.5C 23.1697,149.192 22.6697,143.859 22.5,138.5C 21.1999,136.534 20.1999,134.368 19.5,132C 20.1667,131.333 20.8333,130.667 21.5,130C 20.6671,126.502 19.8337,123.002 19,119.5C 14.1144,119.536 11.9478,116.87 12.5,111.5C 13.7298,104.816 15.7298,98.4822 18.5,92.5 Z"/></g>
<g><path style="opacity:1" fill="#f9997d" d="M 63.5,116.5 C 85.648,118.163 107.981,119.163 130.5,119.5C 107.475,120.156 84.8087,119.49 62.5,117.5C 62.5,116.833 62.8333,116.5 63.5,116.5 Z"/></g>
<g><path style="opacity:1" fill="#949494" d="M 161.5,113.5 C 162.931,114.78 163.598,116.447 163.5,118.5C 181.836,118.667 200.17,118.5 218.5,118C 219.373,116.955 220.373,116.122 221.5,115.5C 221.489,117.017 220.823,118.184 219.5,119C 200.491,119.833 181.491,119.666 162.5,118.5C 161.691,116.929 161.357,115.262 161.5,113.5 Z"/></g>
<g><path style="opacity:1" fill="#fbd9cf" d="M 62.5,117.5 C 84.8087,119.49 107.475,120.156 130.5,119.5C 130.833,119.5 131.167,119.5 131.5,119.5C 131.5,119.833 131.5,120.167 131.5,120.5C 108.167,120.5 84.8333,120.5 61.5,120.5C 61.2627,119.209 61.596,118.209 62.5,117.5 Z"/></g>
<g><path style="opacity:1" fill="#5d5d5d" d="M 243.5,114.5 C 244.924,116.515 245.59,118.848 245.5,121.5C 244.076,119.485 243.41,117.152 243.5,114.5 Z"/></g>
<g><path style="opacity:1" fill="#51504c" d="M 40.5,115.5 C 40.5905,118.152 39.9238,120.485 38.5,122.5C 38.4095,119.848 39.0762,117.515 40.5,115.5 Z"/></g>
<g><path style="opacity:1" fill="#f87a51" d="M 131.5,120.5 C 131.5,120.167 131.5,119.833 131.5,119.5C 133.435,120.15 135.435,120.483 137.5,120.5C 137.833,123.833 138.167,127.167 138.5,130.5C 137.883,130.389 137.383,130.056 137,129.5C 137.595,124.902 135.761,121.902 131.5,120.5 Z"/></g>
<g><path style="opacity:1" fill="#f9baa5" d="M 157.5,116.5 C 158.117,116.611 158.617,116.944 159,117.5C 159.498,120.482 159.665,123.482 159.5,126.5C 158.677,123.316 158.01,119.983 157.5,116.5 Z"/></g>
<g><path style="opacity:1" fill="#7c7c7c" d="M 53.5,118.5 C 53.5905,121.152 52.9238,123.485 51.5,125.5C 51.4095,122.848 52.0762,120.515 53.5,118.5 Z"/></g>
<g><path style="opacity:1" fill="#96c16d" d="M 265.5,120.5 C 268.642,124.402 271.809,124.402 275,120.5C 276.009,122.025 276.509,123.692 276.5,125.5C 273.513,126.963 270.513,127.297 267.5,126.5C 267.011,125.005 266.345,123.671 265.5,122.5C 265.5,121.833 265.5,121.167 265.5,120.5 Z"/></g>
<g><path style="opacity:1" fill="#6cc984" d="M 276.5,125.5 C 276.833,125.5 277.167,125.5 277.5,125.5C 278.324,128.764 278.658,132.098 278.5,135.5C 274.772,133.181 271.105,131.514 267.5,130.5C 267.5,129.167 267.5,127.833 267.5,126.5C 270.513,127.297 273.513,126.963 276.5,125.5 Z"/></g>
<g><path style="opacity:1" fill="#f9bdaa" d="M 223.5,131.5 C 227.636,131.646 230.303,133.646 231.5,137.5C 229.07,135.055 226.404,133.055 223.5,131.5 Z"/></g>
<g><path style="opacity:1" fill="#4d4d4d" d="M 144.5,150.5 C 139.358,151.92 134.025,152.753 128.5,153C 113.837,153.5 99.1705,153.667 84.5,153.5C 83.5104,159.31 83.1771,165.31 83.5,171.5C 76.5,171.5 69.5,171.5 62.5,171.5C 62.5,159.833 62.5,148.167 62.5,136.5C 84.673,136.831 106.673,136.497 128.5,135.5C 130.06,135.481 131.56,135.148 133,134.5C 136.054,136.438 138.554,138.938 140.5,142C 143.148,144.05 146.148,145.216 149.5,145.5C 149.5,146.5 149.5,147.5 149.5,148.5C 147.302,148.12 145.635,148.787 144.5,150.5 Z"/></g>
<g><path style="opacity:1" fill="#297656" d="M 265.5,122.5 C 266.345,123.671 267.011,125.005 267.5,126.5C 267.5,127.833 267.5,129.167 267.5,130.5C 267.822,136.358 267.489,142.025 266.5,147.5C 266.705,139.133 266.371,130.8 265.5,122.5 Z"/></g>
<g><path style="opacity:1" fill="#eaf0ec" d="M 30.5,162.5 C 26.3753,141.445 28.3753,121.111 36.5,101.5C 37.3635,100.537 38.0302,100.537 38.5,101.5C 37.233,103.371 37.233,105.204 38.5,107C 37.6667,108.5 36.5,109.667 35,110.5C 32.6624,121.034 31.1624,131.701 30.5,142.5C 31.734,149.322 31.734,155.989 30.5,162.5 Z"/></g>
<g><path style="opacity:1" fill="#13ada1" d="M 12.5,111.5 C 11.9478,116.87 14.1144,119.536 19,119.5C 19.8337,123.002 20.6671,126.502 21.5,130C 20.8333,130.667 20.1667,131.333 19.5,132C 20.1999,134.368 21.1999,136.534 22.5,138.5C 20.9582,139.301 19.2915,139.634 17.5,139.5C 17.6621,137.473 17.4955,135.473 17,133.5C 16,139.167 15,144.833 14,150.5C 13.6596,146.442 12.9929,142.442 12,138.5C 10.9393,143.104 10.2727,147.771 10,152.5C 9.61742,153.056 9.11742,153.389 8.5,153.5C 8.3336,145.16 8.50027,136.827 9,128.5C 9.11929,122.486 10.286,116.819 12.5,111.5 Z"/></g>
<g><path style="opacity:1" fill="#c3c3c3" d="M 51.5,129.5 C 51.4343,138.852 51.7676,148.185 52.5,157.5C 50.9779,152.252 50.3112,146.752 50.5,141C 50.5012,136.985 50.8345,133.151 51.5,129.5 Z"/></g>
<g><path style="opacity:1" fill="#f8a283" d="M 231.5,137.5 C 233.975,138.687 234.975,140.687 234.5,143.5C 233.508,141.544 232.508,139.544 231.5,137.5 Z"/></g>
<g><path style="opacity:1" fill="#f9b5a1" d="M 145.5,139.5 C 146.609,139.557 147.609,139.89 148.5,140.5C 148.5,140.833 148.5,141.167 148.5,141.5C 146.973,141.573 145.973,140.906 145.5,139.5 Z"/></g>
<g><path style="opacity:1" fill="#f58a68" d="M 148.5,141.5 C 148.5,141.167 148.5,140.833 148.5,140.5C 150.655,140.372 152.655,140.872 154.5,142C 172.338,142.168 190.005,142.668 207.5,143.5C 189.497,143.667 171.497,143.5 153.5,143C 151.846,142.392 150.179,141.892 148.5,141.5 Z"/></g>
<g><path style="opacity:1" fill="#1cd49e" d="M 267.5,130.5 C 271.105,131.514 274.772,133.181 278.5,135.5C 278.5,139.167 278.5,142.833 278.5,146.5C 276.852,147.777 275.018,148.777 273,149.5C 272.517,148.552 272.351,147.552 272.5,146.5C 271.167,146.5 269.833,146.5 268.5,146.5C 268.57,150.425 267.903,154.091 266.5,157.5C 266.5,156.167 266.5,154.833 266.5,153.5C 266.5,151.5 266.5,149.5 266.5,147.5C 267.489,142.025 267.822,136.358 267.5,130.5 Z"/></g>
<g><path style="opacity:1" fill="#09a297" d="M 22.5,138.5 C 22.6697,143.859 23.1697,149.192 24,154.5C 25.0875,156.932 25.5875,156.598 25.5,153.5C 27.3758,161.678 29.3758,170.011 31.5,178.5C 31.719,179.675 31.3857,180.675 30.5,181.5C 30.1667,181 29.8333,180.5 29.5,180C 26.0869,171.63 22.9202,163.13 20,154.5C 19.6667,155.167 19.3333,155.833 19,156.5C 17.9563,155.377 17.2896,154.044 17,152.5C 14.0084,156.07 11.8418,160.07 10.5,164.5C 10.1667,164.5 9.83333,164.5 9.5,164.5C 9.44759,160.802 9.11425,157.135 8.5,153.5C 9.11742,153.389 9.61742,153.056 10,152.5C 10.2727,147.771 10.9393,143.104 12,138.5C 12.9929,142.442 13.6596,146.442 14,150.5C 15,144.833 16,139.167 17,133.5C 17.4955,135.473 17.6621,137.473 17.5,139.5C 19.2915,139.634 20.9582,139.301 22.5,138.5 Z"/></g>
<g><path style="opacity:1" fill="#999999" d="M 144.5,150.5 C 139.908,152.845 134.908,154.178 129.5,154.5C 114.5,154.5 99.5,154.5 84.5,154.5C 84.5,154.167 84.5,153.833 84.5,153.5C 99.1705,153.667 113.837,153.5 128.5,153C 134.025,152.753 139.358,151.92 144.5,150.5 Z"/></g>
<g><path style="opacity:1" fill="#dddddd" d="M 84.5,154.5 C 99.5,154.5 114.5,154.5 129.5,154.5C 115.01,155.496 100.343,155.829 85.5,155.5C 85.8222,161.358 85.4889,167.025 84.5,172.5C 84.5,166.5 84.5,160.5 84.5,154.5 Z"/></g>
<g><path style="opacity:1" fill="#858585" d="M 245.5,123.5 C 246.29,124.609 246.79,125.942 247,127.5C 247.167,131.833 247.333,136.167 247.5,140.5C 247.706,146.749 247.04,152.749 245.5,158.5C 246.77,146.838 246.77,135.171 245.5,123.5 Z"/></g>
<g><path style="opacity:1" fill="#0c4d42" d="M 261.5,115.5 C 262.778,115.782 263.778,116.449 264.5,117.5C 265.11,118.391 265.443,119.391 265.5,120.5C 265.5,121.167 265.5,121.833 265.5,122.5C 266.371,130.8 266.705,139.133 266.5,147.5C 266.5,149.5 266.5,151.5 266.5,153.5C 265.71,154.609 265.21,155.942 265,157.5C 264.536,156.906 264.369,156.239 264.5,155.5C 265.136,142.018 264.136,128.684 261.5,115.5 Z"/></g>
<g><path style="opacity:1" fill="#f9916b" d="M 147.5,155.5 C 146.92,157.749 145.587,159.415 143.5,160.5C 144.08,158.251 145.413,156.585 147.5,155.5 Z"/></g>
<g><path style="opacity:1" fill="#f9b9a4" d="M 234.5,143.5 C 235.648,147.981 235.815,152.648 235,157.5C 234.722,158.416 234.222,159.082 233.5,159.5C 234.275,154.203 234.608,148.87 234.5,143.5 Z"/></g>
<g><path style="opacity:1" fill="#1d7167" d="M 266.5,153.5 C 266.5,154.833 266.5,156.167 266.5,157.5C 266.5,157.833 266.5,158.167 266.5,158.5C 264.77,162.883 263.77,167.55 263.5,172.5C 262.596,173.209 262.263,174.209 262.5,175.5C 261.463,176.93 260.796,178.597 260.5,180.5C 259.167,180.5 258.5,179.833 258.5,178.5C 260.543,170.728 262.543,163.061 264.5,155.5C 264.369,156.239 264.536,156.906 265,157.5C 265.21,155.942 265.71,154.609 266.5,153.5 Z"/></g>
<g><path style="opacity:1" fill="#6eefcf" d="M 278.5,153.5 C 278.31,158.37 277.644,163.036 276.5,167.5C 276.123,162.547 276.789,157.881 278.5,153.5 Z"/></g>
<g><path style="opacity:1" fill="#f5b69b" d="M 233.5,159.5 C 233.573,161.027 232.906,162.027 231.5,162.5C 231.427,160.973 232.094,159.973 233.5,159.5 Z"/></g>
<g><path style="opacity:1" fill="#f8916c" d="M 143.5,160.5 C 142.581,163.089 140.914,165.089 138.5,166.5C 139.419,163.911 141.086,161.911 143.5,160.5 Z"/></g>
<g><path style="opacity:1" fill="#0ff4c1" d="M 278.5,146.5 C 278.5,148.833 278.5,151.167 278.5,153.5C 276.789,157.881 276.123,162.547 276.5,167.5C 275.081,177.758 272.081,187.425 267.5,196.5C 266.883,196.389 266.383,196.056 266,195.5C 265.585,197.291 264.585,198.624 263,199.5C 262.707,197.075 261.541,195.242 259.5,194C 259.306,192.237 259.306,190.403 259.5,188.5C 261.045,187.548 262.712,187.215 264.5,187.5C 264.351,188.552 264.517,189.552 265,190.5C 265.495,188.527 265.662,186.527 265.5,184.5C 263.22,184.746 261.22,184.746 259.5,184.5C 260.728,181.929 262.728,180.595 265.5,180.5C 265.69,178.041 264.69,176.374 262.5,175.5C 262.263,174.209 262.596,173.209 263.5,172.5C 265.23,168.117 266.23,163.45 266.5,158.5C 266.5,158.167 266.5,157.833 266.5,157.5C 267.903,154.091 268.57,150.425 268.5,146.5C 269.833,146.5 271.167,146.5 272.5,146.5C 272.351,147.552 272.517,148.552 273,149.5C 275.018,148.777 276.852,147.777 278.5,146.5 Z"/></g>
<g><path style="opacity:1" fill="#0fba9b" d="M 266.5,158.5 C 266.23,163.45 265.23,168.117 263.5,172.5C 263.77,167.55 264.77,162.883 266.5,158.5 Z"/></g>
<g><path style="opacity:1" fill="#089088" d="M 31.5,178.5 C 32.5375,179.93 33.2041,181.597 33.5,183.5C 32.3501,182.15 31.6834,182.316 31.5,184C 33.4507,189.397 35.7841,194.564 38.5,199.5C 36.6306,197.111 34.7972,197.111 33,199.5C 31.2658,197.549 29.0991,196.549 26.5,196.5C 26.6495,195.448 26.4828,194.448 26,193.5C 23.4028,197.567 22.9028,201.9 24.5,206.5C 18.219,195.596 13.8856,183.929 11.5,171.5C 11.3259,169.139 10.9926,166.806 10.5,164.5C 11.8418,160.07 14.0084,156.07 17,152.5C 17.2896,154.044 17.9563,155.377 19,156.5C 19.3333,155.833 19.6667,155.167 20,154.5C 22.9202,163.13 26.0869,171.63 29.5,180C 29.8333,180.5 30.1667,181 30.5,181.5C 31.3857,180.675 31.719,179.675 31.5,178.5 Z"/></g>
<g><path style="opacity:1" fill="#7f7d78" d="M 38.5,163.5 C 39.9238,165.515 40.5905,167.848 40.5,170.5C 39.0762,168.485 38.4095,166.152 38.5,163.5 Z"/></g>
<g><path style="opacity:1" fill="#98d4d0" d="M 9.5,164.5 C 9.83333,164.5 10.1667,164.5 10.5,164.5C 10.9926,166.806 11.3259,169.139 11.5,171.5C 10.0762,169.485 9.40953,167.152 9.5,164.5 Z"/></g>
<g><path style="opacity:1" fill="#f9d9ce" d="M 227.5,166.5 C 223.469,171.407 218.136,173.407 211.5,172.5C 211.5,172.167 211.5,171.833 211.5,171.5C 213.199,171.66 214.866,171.494 216.5,171C 220.188,169.487 223.855,167.987 227.5,166.5 Z"/></g>
<g><path style="opacity:1" fill="#757575" d="M 128.5,135.5 C 106.673,136.497 84.673,136.831 62.5,136.5C 62.5,148.167 62.5,159.833 62.5,171.5C 69.5,171.5 76.5,171.5 83.5,171.5C 83.1771,165.31 83.5104,159.31 84.5,153.5C 84.5,153.833 84.5,154.167 84.5,154.5C 84.5,160.5 84.5,166.5 84.5,172.5C 76.8333,172.5 69.1667,172.5 61.5,172.5C 61.5,160.167 61.5,147.833 61.5,135.5C 83.8333,135.5 106.167,135.5 128.5,135.5 Z"/></g>
<g><path style="opacity:1" fill="#f58254" d="M 138.5,166.5 C 138.141,168.371 137.141,169.871 135.5,171C 160.831,171.5 186.164,171.667 211.5,171.5C 211.5,171.833 211.5,172.167 211.5,172.5C 185.478,173.157 159.812,172.491 134.5,170.5C 135.5,168.833 136.833,167.5 138.5,166.5 Z"/></g>
<g><path style="opacity:1" fill="#f4cec0" d="M 134.5,170.5 C 159.812,172.491 185.478,173.157 211.5,172.5C 185.672,173.498 159.672,173.831 133.5,173.5C 133.263,172.209 133.596,171.209 134.5,170.5 Z"/></g>
<g><path style="opacity:1" fill="#9b9b9b" d="M 244.5,163.5 C 243.493,167.859 242.327,172.192 241,176.5C 240.617,177.056 240.117,177.389 239.5,177.5C 240.818,173.229 241.985,168.895 243,164.5C 243.383,163.944 243.883,163.611 244.5,163.5 Z"/></g>
<g><path style="opacity:1" fill="#8d8c85" d="M 253.5,174.5 C 253.88,176.698 253.213,178.365 251.5,179.5C 251.796,177.597 252.463,175.93 253.5,174.5 Z"/></g>
<g><path style="opacity:1" fill="#898989" d="M 57.5,177.5 C 58.9063,177.973 59.573,178.973 59.5,180.5C 58.0937,180.027 57.427,179.027 57.5,177.5 Z"/></g>
<g><path style="opacity:1" fill="#a09f98" d="M 251.5,180.5 C 251.834,183.491 250.834,185.824 248.5,187.5C 248.935,184.843 249.935,182.509 251.5,180.5 Z"/></g>
<g><path style="opacity:1" fill="#585858" d="M 59.5,182.5 C 60.9063,182.973 61.573,183.973 61.5,185.5C 60.0937,185.027 59.427,184.027 59.5,182.5 Z"/></g>
<g><path style="opacity:1" fill="#3b3b3b" d="M 239.5,179.5 C 239.082,183.349 237.415,186.349 234.5,188.5C 235.41,185.008 237.076,182.008 239.5,179.5 Z"/></g>
<g><path style="opacity:1" fill="#1c726f" d="M 44.5,81.5 C 43.6457,83.035 43.6457,84.3684 44.5,85.5C 41.3084,90.5499 38.6417,95.8832 36.5,101.5C 28.3753,121.111 26.3753,141.445 30.5,162.5C 37.4363,195.067 54.7696,220.4 82.5,238.5C 82.5,238.833 82.5,239.167 82.5,239.5C 59.7283,226.4 43.395,207.733 33.5,183.5C 33.2041,181.597 32.5375,179.93 31.5,178.5C 29.3758,170.011 27.3758,161.678 25.5,153.5C 25.3336,144.494 25.5002,135.494 26,126.5C 26.8079,120.617 28.3079,114.95 30.5,109.5C 32.3031,102.466 34.9697,95.7992 38.5,89.5C 40.0866,86.5723 42.0866,83.9056 44.5,81.5 Z"/></g>
<g><path style="opacity:1" fill="#6e6e6e" d="M 234.5,188.5 C 234.573,190.027 233.906,191.027 232.5,191.5C 232.427,189.973 233.094,188.973 234.5,188.5 Z"/></g>
<g><path style="opacity:1" fill="#12facf" d="M 262.5,175.5 C 264.69,176.374 265.69,178.041 265.5,180.5C 262.728,180.595 260.728,181.929 259.5,184.5C 261.22,184.746 263.22,184.746 265.5,184.5C 265.662,186.527 265.495,188.527 265,190.5C 264.517,189.552 264.351,188.552 264.5,187.5C 262.712,187.215 261.045,187.548 259.5,188.5C 259.306,190.403 259.306,192.237 259.5,194C 261.541,195.242 262.707,197.075 263,199.5C 264.585,198.624 265.585,197.291 266,195.5C 266.383,196.056 266.883,196.389 267.5,196.5C 258.05,220.279 242.717,239.279 221.5,253.5C 223.234,249.854 225.567,246.687 228.5,244C 226.757,241.981 225.59,239.814 225,237.5C 227.702,236.359 229.369,237.359 230,240.5C 230.305,238.443 230.305,236.443 230,234.5C 232.755,233.817 235.588,232.817 238.5,231.5C 236.5,230.833 234.5,230.167 232.5,229.5C 232.069,228.707 231.735,227.873 231.5,227C 234.061,223.948 236.394,220.781 238.5,217.5C 247.627,206.247 254.961,193.914 260.5,180.5C 260.796,178.597 261.463,176.93 262.5,175.5 Z"/></g>
<g><path style="opacity:1" fill="#545454" d="M 231.5,193.5 C 231.262,195.404 230.262,196.738 228.5,197.5C 228.738,195.596 229.738,194.262 231.5,193.5 Z"/></g>
<g><path style="opacity:1" fill="#f1f1f1" d="M 223.5,202.5 C 223.5,202.833 223.5,203.167 223.5,203.5C 222.5,204.167 221.5,204.833 220.5,205.5C 220.53,204.503 220.03,203.836 219,203.5C 183.066,206.477 147.233,207.144 111.5,205.5C 131.836,205.667 152.169,205.5 172.5,205C 182.597,204.745 192.597,203.745 202.5,202C 201.328,201.581 200.328,200.915 199.5,200C 173.015,198.319 146.682,198.152 120.5,199.5C 110.828,199.334 101.161,199.5 91.5,200C 88.7679,200.413 86.1013,201.08 83.5,202C 90.6416,203.138 97.6416,204.305 104.5,205.5C 96.1468,205.383 87.8134,204.883 79.5,204C 76.8941,203.55 75.5608,202.05 75.5,199.5C 121.153,197.054 166.82,196.888 212.5,199C 216.579,199.114 220.246,200.281 223.5,202.5 Z"/></g>
<g><path style="opacity:1" fill="#dfdfdf" d="M 111.5,205.5 C 109.167,205.5 106.833,205.5 104.5,205.5C 97.6416,204.305 90.6416,203.138 83.5,202C 86.1013,201.08 88.7679,200.413 91.5,200C 101.161,199.5 110.828,199.334 120.5,199.5C 146.682,198.152 173.015,198.319 199.5,200C 200.328,200.915 201.328,201.581 202.5,202C 192.597,203.745 182.597,204.745 172.5,205C 152.169,205.5 131.836,205.667 111.5,205.5 Z"/></g>
<g><path style="opacity:1" fill="#b6b6b6" d="M 120.5,199.5 C 140.836,199.333 161.169,199.5 181.5,200C 183.878,200.511 186.212,201.178 188.5,202C 181.334,203.298 174,203.965 166.5,204C 150.5,204.667 134.5,204.667 118.5,204C 113.79,203.625 109.123,202.958 104.5,202C 109.906,200.932 115.239,200.099 120.5,199.5 Z"/></g>
<g><path style="opacity:1" fill="#087c76" d="M 38.5,199.5 C 41.3993,202.952 44.0659,206.618 46.5,210.5C 45.448,210.649 44.448,210.483 43.5,210C 42.3589,208.383 41.5255,206.55 41,204.5C 39.6667,203.167 38.3333,203.167 37,204.5C 36.6667,207.167 36.3333,209.833 36,212.5C 32.7928,213.121 31.9595,215.287 33.5,219C 37.0207,221.674 39.0207,225.174 39.5,229.5C 33.2588,222.695 28.2588,215.029 24.5,206.5C 22.9028,201.9 23.4028,197.567 26,193.5C 26.4828,194.448 26.6495,195.448 26.5,196.5C 29.0991,196.549 31.2658,197.549 33,199.5C 34.7972,197.111 36.6306,197.111 38.5,199.5 Z"/></g>
<g><path style="opacity:1" fill="#5c5c5c" d="M 71.5,200.5 C 75.5,203.833 79.1667,207.5 82.5,211.5C 77.8333,208.833 74.1667,205.167 71.5,200.5 Z"/></g>
<g><path style="opacity:1" fill="#298e82" d="M 258.5,178.5 C 258.5,179.833 259.167,180.5 260.5,180.5C 254.961,193.914 247.627,206.247 238.5,217.5C 228.294,228.053 216.961,237.053 204.5,244.5C 203.833,244.5 203.167,244.5 202.5,244.5C 202.158,243.662 201.492,243.328 200.5,243.5C 228.327,229.343 247.661,207.676 258.5,178.5 Z"/></g>
<g><path style="opacity:1" fill="#8e8e8e" d="M 130.5,200.5 C 142.661,200.022 154.661,200.522 166.5,202C 153.51,203.917 140.51,203.917 127.5,202C 128.737,201.768 129.737,201.268 130.5,200.5 Z"/></g>
<g><path style="opacity:1" fill="#3a3a3a" d="M 223.5,203.5 C 221.167,207.833 217.833,211.167 213.5,213.5C 215.833,210.833 218.167,208.167 220.5,205.5C 221.5,204.833 222.5,204.167 223.5,203.5 Z"/></g>
<g><path style="opacity:1" fill="#016e68" d="M 46.5,210.5 C 50.2101,214.208 53.5434,218.208 56.5,222.5C 53.8609,222.429 51.6942,221.429 50,219.5C 47.8964,222.273 45.2297,224.273 42,225.5C 41.9822,227.797 42.1489,230.131 42.5,232.5C 41.1667,231.833 40.1667,230.833 39.5,229.5C 39.0207,225.174 37.0207,221.674 33.5,219C 31.9595,215.287 32.7928,213.121 36,212.5C 36.3333,209.833 36.6667,207.167 37,204.5C 38.3333,203.167 39.6667,203.167 41,204.5C 41.5255,206.55 42.3589,208.383 43.5,210C 44.448,210.483 45.448,210.649 46.5,210.5 Z"/></g>
<g><path style="opacity:1" fill="#9b9b9b" d="M 82.5,211.5 C 84.4044,211.738 85.7377,212.738 86.5,214.5C 84.5956,214.262 83.2623,213.262 82.5,211.5 Z"/></g>
<g><path style="opacity:1" fill="#9f9f9f" d="M 90.5,217.5 C 92.4044,217.738 93.7377,218.738 94.5,220.5C 92.5956,220.262 91.2623,219.262 90.5,217.5 Z"/></g>
<g><path style="opacity:1" fill="#5a5a5a" d="M 206.5,218.5 C 206.027,219.906 205.027,220.573 203.5,220.5C 203.973,219.094 204.973,218.427 206.5,218.5 Z"/></g>
<g><path style="opacity:1" fill="#17998a" d="M 33.5,183.5 C 43.395,207.733 59.7283,226.4 82.5,239.5C 97.5854,249.642 114.252,255.642 132.5,257.5C 134.969,258.317 137.635,258.817 140.5,259C 135.139,259.609 129.805,259.442 124.5,258.5C 123.167,258.5 121.833,258.5 120.5,258.5C 113.527,256.398 106.527,254.065 99.5,251.5C 86.404,245.116 74.0707,237.449 62.5,228.5C 60.8333,226.167 58.8333,224.167 56.5,222.5C 53.5434,218.208 50.2101,214.208 46.5,210.5C 44.0659,206.618 41.3993,202.952 38.5,199.5C 35.7841,194.564 33.4507,189.397 31.5,184C 31.6834,182.316 32.3501,182.15 33.5,183.5 Z"/></g>
<g><path style="opacity:1" fill="#7e7e7e" d="M 94.5,220.5 C 96.0269,220.427 97.0269,221.094 97.5,222.5C 95.9731,222.573 94.9731,221.906 94.5,220.5 Z"/></g>
<g><path style="opacity:1" fill="#9b9b9b" d="M 97.5,222.5 C 102.018,223.556 106.018,225.556 109.5,228.5C 104.902,227.535 100.902,225.535 97.5,222.5 Z"/></g>
<g><path style="opacity:1" fill="#515151" d="M 196.5,224.5 C 194.91,226.821 192.577,227.821 189.5,227.5C 191.649,226.264 193.982,225.264 196.5,224.5 Z"/></g>
<g><path style="opacity:1" fill="#959595" d="M 109.5,228.5 C 111.898,228.259 113.898,228.926 115.5,230.5C 113.102,230.741 111.102,230.074 109.5,228.5 Z"/></g>
<g><path style="opacity:1" fill="#636363" d="M 189.5,227.5 C 188.097,228.931 186.431,230.098 184.5,231C 183.207,231.49 181.873,231.657 180.5,231.5C 183.053,229.416 186.053,228.083 189.5,227.5 Z"/></g>
<g><path style="opacity:1" fill="#868686" d="M 115.5,230.5 C 133.907,235.878 152.574,236.878 171.5,233.5C 168.512,235.14 165.179,235.974 161.5,236C 148.723,237.092 136.056,236.425 123.5,234C 120.691,232.907 118.024,231.74 115.5,230.5 Z"/></g>
<g><path style="opacity:1" fill="#0b5f5f" d="M 56.5,222.5 C 58.8333,224.167 60.8333,226.167 62.5,228.5C 57.7827,231.037 53.4494,234.204 49.5,238C 50.8544,239.294 52.1877,239.46 53.5,238.5C 54.906,239.951 56.406,241.284 58,242.5C 58.3683,245.565 59.535,248.232 61.5,250.5C 53.899,245.901 47.5656,239.901 42.5,232.5C 42.1489,230.131 41.9822,227.797 42,225.5C 45.2297,224.273 47.8964,222.273 50,219.5C 51.6942,221.429 53.8609,222.429 56.5,222.5 Z"/></g>
<g><path style="opacity:1" fill="#535353" d="M 180.5,231.5 C 178.485,232.924 176.152,233.59 173.5,233.5C 175.515,232.076 177.848,231.41 180.5,231.5 Z"/></g>
<g><path style="opacity:1" fill="#08e8bc" d="M 238.5,217.5 C 236.394,220.781 234.061,223.948 231.5,227C 231.735,227.873 232.069,228.707 232.5,229.5C 234.5,230.167 236.5,230.833 238.5,231.5C 235.588,232.817 232.755,233.817 230,234.5C 230.305,236.443 230.305,238.443 230,240.5C 229.369,237.359 227.702,236.359 225,237.5C 225.59,239.814 226.757,241.981 228.5,244C 225.567,246.687 223.234,249.854 221.5,253.5C 219.049,256.277 216.049,258.277 212.5,259.5C 207.909,257.631 203.242,255.797 198.5,254C 200.601,251.527 203.267,250.36 206.5,250.5C 206.5,249.5 206.5,248.5 206.5,247.5C 203.752,247.598 203.086,246.598 204.5,244.5C 216.961,237.053 228.294,228.053 238.5,217.5 Z"/></g>
<g><path style="opacity:1" fill="#53524f" d="M 91.5,235.5 C 93.0269,235.427 94.0269,236.094 94.5,237.5C 92.9731,237.573 91.9731,236.906 91.5,235.5 Z"/></g>
<g><path style="opacity:1" fill="#403f3c" d="M 100.5,240.5 C 102.898,240.259 104.898,240.926 106.5,242.5C 104.102,242.741 102.102,242.074 100.5,240.5 Z"/></g>
<g><path style="opacity:1" fill="#8a8983" d="M 194.5,240.5 C 191.947,242.584 188.947,243.917 185.5,244.5C 188.053,242.416 191.053,241.083 194.5,240.5 Z"/></g>
<g><path style="opacity:1" fill="#075756" d="M 62.5,228.5 C 74.0707,237.449 86.404,245.116 99.5,251.5C 99.8212,253.048 100.821,253.715 102.5,253.5C 102.33,254.822 102.663,255.989 103.5,257C 102.451,257.492 101.451,257.326 100.5,256.5C 97.1593,259.218 93.4926,261.218 89.5,262.5C 91.1025,265.74 93.7692,267.24 97.5,267C 96.3157,268.145 96.3157,269.312 97.5,270.5C 83.7385,266.954 71.7385,260.287 61.5,250.5C 59.535,248.232 58.3683,245.565 58,242.5C 56.406,241.284 54.906,239.951 53.5,238.5C 52.1877,239.46 50.8544,239.294 49.5,238C 53.4494,234.204 57.7827,231.037 62.5,228.5 Z"/></g>
<g><path style="opacity:1" fill="#5c5b57" d="M 110.5,244.5 C 114.162,244.723 117.495,245.723 120.5,247.5C 116.838,247.277 113.505,246.277 110.5,244.5 Z"/></g>
<g><path style="opacity:1" fill="#8c8b84" d="M 185.5,244.5 C 183.162,246.04 180.495,246.706 177.5,246.5C 179.905,245.232 182.572,244.565 185.5,244.5 Z"/></g>
<g><path style="opacity:1" fill="#266960" d="M 82.5,238.5 C 105.538,252.173 130.538,257.84 157.5,255.5C 160.884,255.66 164.217,255.327 167.5,254.5C 169.721,254.439 170.054,255.105 168.5,256.5C 167.209,256.263 166.209,256.596 165.5,257.5C 162.5,257.5 159.5,257.5 156.5,257.5C 148.5,257.5 140.5,257.5 132.5,257.5C 114.252,255.642 97.5854,249.642 82.5,239.5C 82.5,239.167 82.5,238.833 82.5,238.5 Z"/></g>
<g><path style="opacity:1" fill="#82817b" d="M 121.5,247.5 C 124.152,247.41 126.485,248.076 128.5,249.5C 125.772,249.829 123.438,249.163 121.5,247.5 Z"/></g>
<g><path style="opacity:1" fill="#94938c" d="M 173.5,247.5 C 173.082,248.222 172.416,248.722 171.5,249C 167.83,249.548 164.163,250.048 160.5,250.5C 164.542,248.763 168.876,247.763 173.5,247.5 Z"/></g>
<g><path style="opacity:1" fill="#347d72" d="M 200.5,243.5 C 201.492,243.328 202.158,243.662 202.5,244.5C 198.277,246.462 194.277,248.795 190.5,251.5C 188.473,251.338 186.473,251.505 184.5,252C 181.65,253.791 178.65,254.958 175.5,255.5C 173.097,255.448 170.764,255.781 168.5,256.5C 170.054,255.105 169.721,254.439 167.5,254.5C 164.217,255.327 160.884,255.66 157.5,255.5C 172.303,253.571 186.637,249.571 200.5,243.5 Z"/></g>
<g><path style="opacity:1" fill="#10ccaa" d="M 202.5,244.5 C 203.167,244.5 203.833,244.5 204.5,244.5C 203.086,246.598 203.752,247.598 206.5,247.5C 206.5,248.5 206.5,249.5 206.5,250.5C 203.267,250.36 200.601,251.527 198.5,254C 203.242,255.797 207.909,257.631 212.5,259.5C 204.01,264.781 195.01,269.114 185.5,272.5C 186.379,270.772 187.046,268.939 187.5,267C 186.608,263.113 186.608,259.446 187.5,256C 186.5,255.667 185.5,255.333 184.5,255C 186.473,254.505 188.473,254.338 190.5,254.5C 190.5,253.5 190.5,252.5 190.5,251.5C 194.277,248.795 198.277,246.462 202.5,244.5 Z"/></g>
<g><path style="opacity:1" fill="#10b69b" d="M 190.5,251.5 C 190.5,252.5 190.5,253.5 190.5,254.5C 188.473,254.338 186.473,254.505 184.5,255C 185.5,255.333 186.5,255.667 187.5,256C 186.608,259.446 186.608,263.113 187.5,267C 187.046,268.939 186.379,270.772 185.5,272.5C 180.386,274.421 175.053,275.755 169.5,276.5C 170.29,275.599 171.29,274.932 172.5,274.5C 176.701,274.149 179.701,271.983 181.5,268C 174.862,266.546 174.862,265.379 181.5,264.5C 181.657,263.127 181.49,261.793 181,260.5C 179.12,261.93 177.62,261.596 176.5,259.5C 173.215,258.676 169.882,258.176 166.5,258C 169.742,257.594 172.742,256.761 175.5,255.5C 178.65,254.958 181.65,253.791 184.5,252C 186.473,251.505 188.473,251.338 190.5,251.5 Z"/></g>
<g><path style="opacity:1" fill="#02655f" d="M 99.5,251.5 C 106.527,254.065 113.527,256.398 120.5,258.5C 120.611,259.117 120.944,259.617 121.5,260C 115.042,260.845 115.042,262.178 121.5,264C 118.956,265.092 116.289,265.759 113.5,266C 111.983,267.685 110.316,269.185 108.5,270.5C 109.999,271.904 109.666,272.57 107.5,272.5C 106.328,272.081 105.328,271.415 104.5,270.5C 103.583,271.127 102.583,271.461 101.5,271.5C 99.901,271.768 98.5676,271.434 97.5,270.5C 96.3157,269.312 96.3157,268.145 97.5,267C 93.7692,267.24 91.1025,265.74 89.5,262.5C 93.4926,261.218 97.1593,259.218 100.5,256.5C 101.451,257.326 102.451,257.492 103.5,257C 102.663,255.989 102.33,254.822 102.5,253.5C 100.821,253.715 99.8212,253.048 99.5,251.5 Z"/></g>
<g><path style="opacity:1" fill="#097269" d="M 120.5,258.5 C 121.833,258.5 123.167,258.5 124.5,258.5C 125.263,259.268 126.263,259.768 127.5,260C 132.833,260.333 138.167,260.667 143.5,261C 144.711,261.893 144.711,262.726 143.5,263.5C 135.574,265.097 135.574,266.93 143.5,269C 140.637,270.399 137.637,271.399 134.5,272C 136.701,273.043 139.034,273.877 141.5,274.5C 141.291,275.086 140.957,275.586 140.5,276C 141.858,276.934 143.192,277.768 144.5,278.5C 138.5,278.5 132.5,278.5 126.5,278.5C 120.293,277.176 113.96,275.843 107.5,274.5C 105.179,273.94 103.179,272.94 101.5,271.5C 102.583,271.461 103.583,271.127 104.5,270.5C 105.328,271.415 106.328,272.081 107.5,272.5C 109.666,272.57 109.999,271.904 108.5,270.5C 110.316,269.185 111.983,267.685 113.5,266C 116.289,265.759 118.956,265.092 121.5,264C 115.042,262.178 115.042,260.845 121.5,260C 120.944,259.617 120.611,259.117 120.5,258.5 Z"/></g>
<g><path style="opacity:1" fill="#059783" d="M 156.5,257.5 C 159.5,257.5 162.5,257.5 165.5,257.5C 162.242,258.171 158.909,259.004 155.5,260C 160.201,260.393 164.868,260.393 169.5,260C 169.833,260.333 170.167,260.667 170.5,261C 168.833,262 167.167,263 165.5,264C 166.759,264.923 168.092,265.757 169.5,266.5C 169.291,267.086 168.957,267.586 168.5,268C 169.784,268.684 170.951,268.517 172,267.5C 173.583,269.699 173.75,272.032 172.5,274.5C 171.29,274.932 170.29,275.599 169.5,276.5C 167.708,276.366 166.042,276.699 164.5,277.5C 162.167,277.5 159.833,277.5 157.5,277.5C 159.631,276.686 161.964,276.186 164.5,276C 164.957,275.586 165.291,275.086 165.5,274.5C 160.479,273.756 155.479,272.923 150.5,272C 153.79,271.747 156.79,270.747 159.5,269C 157.221,268.527 155.221,267.527 153.5,266C 155.5,264.667 157.5,263.333 159.5,262C 154.53,261.114 149.53,260.448 144.5,260C 148.736,259.665 152.736,258.832 156.5,257.5 Z"/></g>
<g><path style="opacity:1" fill="#03a68f" d="M 175.5,255.5 C 172.742,256.761 169.742,257.594 166.5,258C 169.882,258.176 173.215,258.676 176.5,259.5C 177.62,261.596 179.12,261.93 181,260.5C 181.49,261.793 181.657,263.127 181.5,264.5C 174.862,265.379 174.862,266.546 181.5,268C 179.701,271.983 176.701,274.149 172.5,274.5C 173.75,272.032 173.583,269.699 172,267.5C 170.951,268.517 169.784,268.684 168.5,268C 168.957,267.586 169.291,267.086 169.5,266.5C 168.092,265.757 166.759,264.923 165.5,264C 167.167,263 168.833,262 170.5,261C 170.167,260.667 169.833,260.333 169.5,260C 164.868,260.393 160.201,260.393 155.5,260C 158.909,259.004 162.242,258.171 165.5,257.5C 166.209,256.596 167.209,256.263 168.5,256.5C 170.764,255.781 173.097,255.448 175.5,255.5 Z"/></g>
<g><path style="opacity:1" fill="#048778" d="M 132.5,257.5 C 140.5,257.5 148.5,257.5 156.5,257.5C 152.736,258.832 148.736,259.665 144.5,260C 149.53,260.448 154.53,261.114 159.5,262C 157.5,263.333 155.5,264.667 153.5,266C 155.221,267.527 157.221,268.527 159.5,269C 156.79,270.747 153.79,271.747 150.5,272C 155.479,272.923 160.479,273.756 165.5,274.5C 165.291,275.086 164.957,275.586 164.5,276C 161.964,276.186 159.631,276.686 157.5,277.5C 153.265,278.436 148.931,278.769 144.5,278.5C 143.192,277.768 141.858,276.934 140.5,276C 140.957,275.586 141.291,275.086 141.5,274.5C 139.034,273.877 136.701,273.043 134.5,272C 137.637,271.399 140.637,270.399 143.5,269C 135.574,266.93 135.574,265.097 143.5,263.5C 144.711,262.726 144.711,261.893 143.5,261C 138.167,260.667 132.833,260.333 127.5,260C 126.263,259.768 125.263,259.268 124.5,258.5C 129.805,259.442 135.139,259.609 140.5,259C 137.635,258.817 134.969,258.317 132.5,257.5 Z"/></g>
<g><path style="opacity:1" fill="#9ac5c3" d="M 157.5,277.5 C 159.833,277.5 162.167,277.5 164.5,277.5C 157.228,279.017 149.728,279.684 142,279.5C 136.656,279.499 131.489,279.166 126.5,278.5C 132.5,278.5 138.5,278.5 144.5,278.5C 148.931,278.769 153.265,278.436 157.5,277.5 Z"/></g>
</svg>
