<?xml version="1.0" encoding="UTF-8"?>
<!DOCTYPE svg PUBLIC "-//W3C//DTD SVG 1.1//EN" "http://www.w3.org/Graphics/SVG/1.1/DTD/svg11.dtd">
<svg xmlns="http://www.w3.org/2000/svg" version="1.1" width="500px" height="500px" style="shape-rendering:geometricPrecision; text-rendering:geometricPrecision; image-rendering:optimizeQuality; fill-rule:evenodd; clip-rule:evenodd" xmlns:xlink="http://www.w3.org/1999/xlink">
<g><path style="opacity:0.962" fill="#f2f2f2" d="M 231.5,-0.5 C 242.167,-0.5 252.833,-0.5 263.5,-0.5C 274.687,0.892013 286.02,2.22535 297.5,3.5C 301.889,5.24624 306.556,6.24624 311.5,6.5C 313.099,6.23219 314.432,6.56552 315.5,7.5C 378.329,26.5737 427.663,63.5737 463.5,118.5C 466.995,126.161 470.995,133.495 475.5,140.5C 478.256,148.774 481.589,156.774 485.5,164.5C 486.859,172.569 489.192,180.235 492.5,187.5C 492.425,192.192 493.425,196.526 495.5,200.5C 495.5,200.833 495.5,201.167 495.5,201.5C 495.322,205.122 495.989,208.456 497.5,211.5C 497.99,214.655 498.656,217.655 499.5,220.5C 499.5,239.833 499.5,259.167 499.5,278.5C 498.082,285.056 496.749,291.723 495.5,298.5C 481.978,358.219 451.644,407.553 404.5,446.5C 397.936,450.066 391.936,454.399 386.5,459.5C 363.923,472.622 340.257,483.289 315.5,491.5C 313.958,492.301 312.292,492.634 310.5,492.5C 303.891,493.087 297.558,494.421 291.5,496.5C 287.184,497.592 282.851,498.592 278.5,499.5C 259.167,499.5 239.833,499.5 220.5,499.5C 217.833,498.833 215.167,498.167 212.5,497.5C 209.155,495.783 205.489,495.116 201.5,495.5C 201.167,495.5 200.833,495.5 200.5,495.5C 194.17,492.917 187.503,491.251 180.5,490.5C 173.895,487.187 166.895,484.854 159.5,483.5C 158.22,482.069 156.553,481.402 154.5,481.5C 152.815,479.182 150.481,478.182 147.5,478.5C 144.912,476.375 141.912,475.042 138.5,474.5C 135.322,471.742 131.655,469.742 127.5,468.5C 126.508,468.672 125.842,468.338 125.5,467.5C 124.341,465.75 122.674,464.75 120.5,464.5C 119.341,462.75 117.674,461.75 115.5,461.5C 50.6752,417.893 12.6752,357.226 1.5,279.5C 1.47295,273.949 0.806286,268.616 -0.5,263.5C -0.5,249.167 -0.5,234.833 -0.5,220.5C 0.166667,217.5 0.833333,214.5 1.5,211.5C 18.2649,123.566 66.9316,60.0663 147.5,21C 154.98,17.5901 162.647,14.7567 170.5,12.5C 180.887,9.32373 191.221,6.32373 201.5,3.5C 211.684,2.5196 221.684,1.18627 231.5,-0.5 Z"/></g>
<g><path style="opacity:0.171" fill="#303030" d="M 263.5,-0.5 C 268.833,-0.5 274.167,-0.5 279.5,-0.5C 285.542,0.618416 291.542,1.95175 297.5,3.5C 286.02,2.22535 274.687,0.892013 263.5,-0.5 Z"/></g>
<g><path style="opacity:0.208" fill="#383838" d="M 219.5,-0.5 C 223.5,-0.5 227.5,-0.5 231.5,-0.5C 221.684,1.18627 211.684,2.5196 201.5,3.5C 207.458,1.95175 213.458,0.618416 219.5,-0.5 Z"/></g>
<g><path style="opacity:0.22" fill="#424242" d="M 201.5,3.5 C 191.221,6.32373 180.887,9.32373 170.5,12.5C 170.5,12.1667 170.5,11.8333 170.5,11.5C 180.419,7.64568 190.752,4.97902 201.5,3.5 Z"/></g>
<g><path style="opacity:0.02" fill="#131313" d="M 297.5,3.5 C 302.444,3.75376 307.111,4.75376 311.5,6.5C 306.556,6.24624 301.889,5.24624 297.5,3.5 Z"/></g>
<g><path style="opacity:1" fill="#010101" d="M 351.5,32.5 C 354.686,35.241 358.353,37.241 362.5,38.5C 416.002,67.9949 453.335,111.328 474.5,168.5C 474.41,171.152 475.076,173.485 476.5,175.5C 478.025,178.583 479.025,181.916 479.5,185.5C 479.742,189.479 480.742,193.146 482.5,196.5C 482.42,199.781 483.087,202.781 484.5,205.5C 490.043,242.207 488.209,278.54 479,314.5C 476.205,321.717 473.705,329.05 471.5,336.5C 470.508,338.456 469.508,340.456 468.5,342.5C 467.637,344.421 466.971,346.421 466.5,348.5C 465.094,348.973 464.427,349.973 464.5,351.5C 449.469,382.239 429.135,408.906 403.5,431.5C 401.251,432.08 399.585,433.413 398.5,435.5C 363.47,462.007 324.137,478.673 280.5,485.5C 264.849,486.342 249.182,486.675 233.5,486.5C 154.521,479.955 93.0209,443.955 49,378.5C 34.9098,355.734 24.4098,331.4 17.5,305.5C 17.8294,302.772 17.1628,300.438 15.5,298.5C -0.955968,203.34 27.044,124.507 99.5,62C 110.577,53.4689 122.244,45.9689 134.5,39.5C 136.848,39.4077 138.514,38.4077 139.5,36.5C 159.741,25.432 181.408,18.0986 204.5,14.5C 209.028,14.2296 213.361,13.5629 217.5,12.5C 250.197,8.19427 282.53,10.3609 314.5,19C 327.297,22.4415 339.631,26.9415 351.5,32.5 Z"/></g>
<g><path style="opacity:1" fill="#4e4e4e" d="M 217.5,12.5 C 213.361,13.5629 209.028,14.2296 204.5,14.5C 205.263,13.7321 206.263,13.2321 207.5,13C 210.817,12.5017 214.15,12.335 217.5,12.5 Z"/></g>
<g><path style="opacity:0.059" fill="#1f1f1f" d="M 315.5,7.5 C 379.76,24.7797 429.093,61.7797 463.5,118.5C 427.663,63.5737 378.329,26.5737 315.5,7.5 Z"/></g>
<g><path style="opacity:1" fill="#949494" d="M 351.5,32.5 C 354.707,33.1792 357.707,34.3459 360.5,36C 361.381,36.7083 362.047,37.5416 362.5,38.5C 358.353,37.241 354.686,35.241 351.5,32.5 Z"/></g>
<g><path style="opacity:1" fill="#515151" d="M 139.5,36.5 C 138.514,38.4077 136.848,39.4077 134.5,39.5C 135.659,37.7497 137.326,36.7497 139.5,36.5 Z"/></g>
<g><path style="opacity:0.086" fill="#191919" d="M 170.5,11.5 C 170.5,11.8333 170.5,12.1667 170.5,12.5C 162.647,14.7567 154.98,17.5901 147.5,21C 66.9316,60.0663 18.2649,123.566 1.5,211.5C 14.7981,132.389 55.7981,72.222 124.5,31C 139.111,22.6348 154.445,16.1348 170.5,11.5 Z"/></g>
<g><path style="opacity:0.016" fill="#171717" d="M 463.5,118.5 C 468.512,125.185 472.512,132.518 475.5,140.5C 470.995,133.495 466.995,126.161 463.5,118.5 Z"/></g>
<g><path style="opacity:0.071" fill="#242424" d="M 475.5,140.5 C 479.793,148.03 483.126,156.03 485.5,164.5C 481.589,156.774 478.256,148.774 475.5,140.5 Z"/></g>
<g><path style="opacity:1" fill="#575757" d="M 474.5,168.5 C 475.924,170.515 476.59,172.848 476.5,175.5C 475.076,173.485 474.41,171.152 474.5,168.5 Z"/></g>
<g><path style="opacity:0.275" fill="#3c3c3c" d="M 485.5,164.5 C 488.808,171.766 491.142,179.433 492.5,187.5C 489.192,180.235 486.859,172.569 485.5,164.5 Z"/></g>
<g><path style="opacity:1" fill="#585858" d="M 479.5,185.5 C 481.258,188.854 482.258,192.521 482.5,196.5C 480.742,193.146 479.742,189.479 479.5,185.5 Z"/></g>
<g><path style="opacity:0.051" fill="#262626" d="M 492.5,187.5 C 493.943,191.615 494.943,195.948 495.5,200.5C 493.425,196.526 492.425,192.192 492.5,187.5 Z"/></g>
<g><path style="opacity:1" fill="#7c7c7c" d="M 482.5,196.5 C 483.913,199.219 484.58,202.219 484.5,205.5C 483.087,202.781 482.42,199.781 482.5,196.5 Z"/></g>
<g><path style="opacity:0.047" fill="#191919" d="M 495.5,201.5 C 496.785,204.589 497.451,207.922 497.5,211.5C 495.989,208.456 495.322,205.122 495.5,201.5 Z"/></g>
<g><path style="opacity:1" fill="#79ebf4" d="M 136.5,240.5 C 134.416,243.053 133.083,246.053 132.5,249.5C 132.5,249.833 132.5,250.167 132.5,250.5C 131.778,250.918 131.278,251.584 131,252.5C 130.825,247.981 130.325,243.647 129.5,239.5C 129.5,238.833 129.5,238.167 129.5,237.5C 129.666,231.158 129.5,224.825 129,218.5C 128.809,216.292 128.309,214.292 127.5,212.5C 122.025,211.511 116.358,211.178 110.5,211.5C 109.827,216.197 107.827,220.197 104.5,223.5C 100.828,230.266 96.9945,236.933 93,243.5C 91.8873,230.515 91.054,217.515 90.5,204.5C 90.8925,202.716 91.5592,201.05 92.5,199.5C 93.6728,197.496 95.3395,195.996 97.5,195C 101.167,194.333 104.833,194.333 108.5,195C 116.261,199.48 123.928,204.147 131.5,209C 136.413,211.467 141.413,213.634 146.5,215.5C 143.316,223.912 139.983,232.246 136.5,240.5 Z"/></g>
<g><path style="opacity:1" fill="#559aa2" d="M 127.5,212.5 C 128.309,214.292 128.809,216.292 129,218.5C 129.5,224.825 129.666,231.158 129.5,237.5C 128.467,229.345 127.8,221.012 127.5,212.5 Z"/></g>
<g><path style="opacity:1" fill="#0c171b" d="M 92.5,199.5 C 91.5592,201.05 90.8925,202.716 90.5,204.5C 88.7573,205.641 87.7573,207.308 87.5,209.5C 88.9588,212.669 89.7922,216.002 90,219.5C 90.2145,230.532 90.8812,241.532 92,252.5C 93.6162,250.287 94.7828,247.953 95.5,245.5C 95.8333,245.5 96.1667,245.5 96.5,245.5C 97.2735,249.775 95.7735,252.775 92,254.5C 89.464,252.038 87.964,249.038 87.5,245.5C 88.6699,234.708 88.6699,223.708 87.5,212.5C 86.8586,210.704 85.8586,209.204 84.5,208C 86.0412,206.421 87.2078,204.587 88,202.5C 89.3997,201.252 90.8997,200.252 92.5,199.5 Z"/></g>
<g><path style="opacity:1" fill="#a1a1a1" d="M 232.5,233.5 C 225.841,232.217 219.174,232.217 212.5,233.5C 212.918,232.778 213.584,232.278 214.5,232C 219.833,231.333 225.167,231.333 230.5,232C 231.416,232.278 232.082,232.778 232.5,233.5 Z"/></g>
<g><path style="opacity:1" fill="#6f6f6f" d="M 314.5,232.5 C 325.654,231.505 336.988,231.172 348.5,231.5C 348.5,233.833 348.5,236.167 348.5,238.5C 339.833,238.5 331.167,238.5 322.5,238.5C 322.5,243.833 322.5,249.167 322.5,254.5C 330.019,254.175 337.352,254.508 344.5,255.5C 336.833,255.5 329.167,255.5 321.5,255.5C 321.5,249.5 321.5,243.5 321.5,237.5C 330.167,237.5 338.833,237.5 347.5,237.5C 347.5,235.833 347.5,234.167 347.5,232.5C 336.833,232.5 326.167,232.5 315.5,232.5C 315.167,232.5 314.833,232.5 314.5,232.5 Z"/></g>
<g><path style="opacity:1" fill="#e9e9e9" d="M 232.5,233.5 C 234.142,234.803 235.809,236.136 237.5,237.5C 237.942,240.343 238.942,243.009 240.5,245.5C 238.604,246.466 236.604,246.799 234.5,246.5C 234.771,244.62 234.104,243.287 232.5,242.5C 231.327,240.496 229.66,238.996 227.5,238C 224.167,237.333 220.833,237.333 217.5,238C 215.68,238.2 214.347,239.034 213.5,240.5C 212.883,240.611 212.383,240.944 212,241.5C 211.199,244.367 211.366,247.034 212.5,249.5C 213.526,250.853 214.859,251.853 216.5,252.5C 218.509,254.065 220.843,255.065 223.5,255.5C 226.792,255.647 229.792,256.647 232.5,258.5C 232.973,259.906 233.973,260.573 235.5,260.5C 241.714,265.275 243.048,271.275 239.5,278.5C 232.868,285.199 224.868,287.365 215.5,285C 210.685,283.599 207.018,280.766 204.5,276.5C 203.781,274.236 203.448,271.903 203.5,269.5C 205.833,269.5 208.167,269.5 210.5,269.5C 210.467,273.102 211.801,276.102 214.5,278.5C 220.725,280.345 226.559,279.679 232,276.5C 235.33,269.839 233.497,265.506 226.5,263.5C 223.374,261.01 219.708,259.677 215.5,259.5C 205.834,255.498 202.667,248.498 206,238.5C 207.777,236.21 209.944,234.543 212.5,233.5C 219.174,232.217 225.841,232.217 232.5,233.5 Z"/></g>
<g><path style="opacity:1" fill="#f0f0f0" d="M 259.5,232.5 C 265.322,245.5 270.655,258.834 275.5,272.5C 275.639,274.337 276.306,274.67 277.5,273.5C 279.961,269.118 281.627,264.451 282.5,259.5C 285.913,250.349 289.579,241.349 293.5,232.5C 296.167,232.5 298.833,232.5 301.5,232.5C 301.5,249.833 301.5,267.167 301.5,284.5C 299.833,284.5 298.167,284.5 296.5,284.5C 296.5,274.833 296.5,265.167 296.5,255.5C 296.823,251.774 296.489,248.107 295.5,244.5C 293.409,247.083 292.076,250.083 291.5,253.5C 289.533,258.021 287.866,262.687 286.5,267.5C 285.094,267.973 284.427,268.973 284.5,270.5C 283.271,274.907 281.771,279.24 280,283.5C 277.925,285.648 275.592,285.982 273,284.5C 271.666,279.195 269.833,274.195 267.5,269.5C 267.245,267.033 266.245,265.033 264.5,263.5C 262.805,259.452 261.139,255.452 259.5,251.5C 259.246,248.986 258.413,246.652 257,244.5C 256.5,257.829 256.333,271.163 256.5,284.5C 254.5,284.5 252.5,284.5 250.5,284.5C 250.5,267.167 250.5,249.833 250.5,232.5C 253.5,232.5 256.5,232.5 259.5,232.5 Z"/></g>
<g><path style="opacity:1" fill="#f5f5f5" d="M 315.5,232.5 C 326.167,232.5 336.833,232.5 347.5,232.5C 347.5,234.167 347.5,235.833 347.5,237.5C 338.833,237.5 330.167,237.5 321.5,237.5C 321.5,243.5 321.5,249.5 321.5,255.5C 329.167,255.5 336.833,255.5 344.5,255.5C 344.5,257.167 344.5,258.833 344.5,260.5C 336.833,260.5 329.167,260.5 321.5,260.5C 321.5,266.833 321.5,273.167 321.5,279.5C 330.5,279.5 339.5,279.5 348.5,279.5C 348.5,281.167 348.5,282.833 348.5,284.5C 337.5,284.5 326.5,284.5 315.5,284.5C 315.5,267.167 315.5,249.833 315.5,232.5 Z"/></g>
<g><path style="opacity:1" fill="#a1a1a1" d="M 237.5,237.5 C 240.46,240.1 241.794,243.433 241.5,247.5C 238.833,247.5 236.167,247.5 233.5,247.5C 233.371,245.784 233.038,244.117 232.5,242.5C 234.104,243.287 234.771,244.62 234.5,246.5C 236.604,246.799 238.604,246.466 240.5,245.5C 238.942,243.009 237.942,240.343 237.5,237.5 Z"/></g>
<g><path style="opacity:1" fill="#7ad0d7" d="M 90.5,204.5 C 91.054,217.515 91.8873,230.515 93,243.5C 96.9945,236.933 100.828,230.266 104.5,223.5C 103.095,229.048 101.095,234.381 98.5,239.5C 96.7549,241.033 95.7549,243.033 95.5,245.5C 94.7828,247.953 93.6162,250.287 92,252.5C 90.8812,241.532 90.2145,230.532 90,219.5C 89.7922,216.002 88.9588,212.669 87.5,209.5C 87.7573,207.308 88.7573,205.641 90.5,204.5 Z"/></g>
<g><path style="opacity:1" fill="#75cad2" d="M 165.5,229.5 C 163.389,228.032 161.556,228.365 160,230.5C 158.528,234.723 157.528,239.057 157,243.5C 153.447,246.308 150.613,249.641 148.5,253.5C 153.006,244.346 157.006,235.012 160.5,225.5C 163.367,225.369 165.033,226.703 165.5,229.5 Z"/></g>
<g><path style="opacity:1" fill="#3a747a" d="M 98.5,239.5 C 98.0293,241.579 97.3627,243.579 96.5,245.5C 96.1667,245.5 95.8333,245.5 95.5,245.5C 95.7549,243.033 96.7549,241.033 98.5,239.5 Z"/></g>
<g><path style="opacity:1" fill="#666666" d="M 213.5,240.5 C 212.701,243.43 212.368,246.43 212.5,249.5C 211.366,247.034 211.199,244.367 212,241.5C 212.383,240.944 212.883,240.611 213.5,240.5 Z"/></g>
<g><path style="opacity:1" fill="#b7b7b7" d="M 293.5,232.5 C 296.287,231.523 299.287,231.19 302.5,231.5C 302.5,249.5 302.5,267.5 302.5,285.5C 300.167,285.5 297.833,285.5 295.5,285.5C 295.5,275.5 295.5,265.5 295.5,255.5C 295.833,255.5 296.167,255.5 296.5,255.5C 296.5,265.167 296.5,274.833 296.5,284.5C 298.167,284.5 299.833,284.5 301.5,284.5C 301.5,267.167 301.5,249.833 301.5,232.5C 298.833,232.5 296.167,232.5 293.5,232.5 Z"/></g>
<g><path style="opacity:1" fill="#6d6d6d" d="M 419.5,245.5 C 415.434,245.307 411.434,245.64 407.5,246.5C 407.611,245.883 407.944,245.383 408.5,245C 412.358,244.19 416.024,244.357 419.5,245.5 Z"/></g>
<g><path style="opacity:1" fill="#417d84" d="M 136.5,240.5 C 135.917,243.947 134.584,246.947 132.5,249.5C 133.083,246.053 134.416,243.053 136.5,240.5 Z"/></g>
<g><path style="opacity:1" fill="#797979" d="M 296.5,255.5 C 296.167,255.5 295.833,255.5 295.5,255.5C 295.665,252.482 295.498,249.482 295,246.5C 294.478,249.281 293.311,251.615 291.5,253.5C 292.076,250.083 293.409,247.083 295.5,244.5C 296.489,248.107 296.823,251.774 296.5,255.5 Z"/></g>
<g><path style="opacity:1" fill="#ebebeb" d="M 193.5,250.5 C 193.754,253.014 194.587,255.348 196,257.5C 196.498,260.482 196.665,263.482 196.5,266.5C 187.651,266.174 178.984,266.507 170.5,267.5C 170.263,268.791 170.596,269.791 171.5,270.5C 172.246,274.323 174.246,277.323 177.5,279.5C 180.64,280.641 183.973,280.808 187.5,280C 189.324,279.34 190.657,278.173 191.5,276.5C 193.491,275.212 195.158,275.712 196.5,278C 194.682,280.648 192.349,282.815 189.5,284.5C 173.755,288.252 165.088,282.085 163.5,266C 164.153,250.356 172.153,243.69 187.5,246C 189.66,247.332 191.66,248.832 193.5,250.5 Z"/></g>
<g><path style="opacity:1" fill="#b3b3b3" d="M 362.5,273.5 C 361.507,264.682 361.173,255.682 361.5,246.5C 359.833,246.5 358.167,246.5 356.5,246.5C 356.5,256.5 356.5,266.5 356.5,276.5C 355.506,266.347 355.172,256.014 355.5,245.5C 357.833,245.5 360.167,245.5 362.5,245.5C 362.5,254.833 362.5,264.167 362.5,273.5 Z"/></g>
<g><path style="opacity:1" fill="#f8f8f8" d="M 362.5,273.5 C 363.242,275.426 364.242,277.259 365.5,279C 370.842,280.169 375.508,279.002 379.5,275.5C 380.494,266.014 380.827,256.348 380.5,246.5C 382.167,246.5 383.833,246.5 385.5,246.5C 385.5,259.167 385.5,271.833 385.5,284.5C 383.088,284.669 380.921,284.003 379,282.5C 378.235,282.57 377.735,282.903 377.5,283.5C 372.683,285.408 367.683,285.908 362.5,285C 359.137,283.101 357.137,280.268 356.5,276.5C 356.5,266.5 356.5,256.5 356.5,246.5C 358.167,246.5 359.833,246.5 361.5,246.5C 361.173,255.682 361.507,264.682 362.5,273.5 Z"/></g>
<g><path style="opacity:1" fill="#f0f0f0" d="M 419.5,245.5 C 423.12,247.285 425.953,249.952 428,253.5C 430.532,262.472 429.865,271.138 426,279.5C 420.92,285.375 414.753,287.041 407.5,284.5C 406.599,282.273 404.933,281.273 402.5,281.5C 402.5,287.5 402.5,293.5 402.5,299.5C 400.833,299.5 399.167,299.5 397.5,299.5C 397.5,281.833 397.5,264.167 397.5,246.5C 399.167,246.5 400.833,246.5 402.5,246.5C 402.5,247.5 402.5,248.5 402.5,249.5C 404.933,249.727 406.599,248.727 407.5,246.5C 411.434,245.64 415.434,245.307 419.5,245.5 Z"/></g>
<g><path style="opacity:1" fill="#808080" d="M 259.5,232.5 C 256.5,232.5 253.5,232.5 250.5,232.5C 250.5,249.833 250.5,267.167 250.5,284.5C 252.5,284.5 254.5,284.5 256.5,284.5C 256.333,271.163 256.5,257.829 257,244.5C 258.413,246.652 259.246,248.986 259.5,251.5C 258.732,250.737 258.232,249.737 258,248.5C 257.5,260.829 257.333,273.162 257.5,285.5C 254.833,285.5 252.167,285.5 249.5,285.5C 249.5,267.5 249.5,249.5 249.5,231.5C 253.042,231.187 256.375,231.521 259.5,232.5 Z"/></g>
<g><path style="opacity:1" fill="#434343" d="M 386.5,245.5 C 387.496,258.656 387.829,271.99 387.5,285.5C 383.917,285.768 380.584,285.101 377.5,283.5C 377.735,282.903 378.235,282.57 379,282.5C 380.921,284.003 383.088,284.669 385.5,284.5C 386.495,271.677 386.829,258.677 386.5,245.5 Z"/></g>
<g><path style="opacity:1" fill="#c8c8c8" d="M 407.5,246.5 C 406.599,248.727 404.933,249.727 402.5,249.5C 402.5,248.5 402.5,247.5 402.5,246.5C 400.833,246.5 399.167,246.5 397.5,246.5C 397.5,264.167 397.5,281.833 397.5,299.5C 399.167,299.5 400.833,299.5 402.5,299.5C 402.5,293.5 402.5,287.5 402.5,281.5C 404.933,281.273 406.599,282.273 407.5,284.5C 405.983,284.489 404.816,283.823 404,282.5C 403.501,288.491 403.334,294.491 403.5,300.5C 401.167,300.5 398.833,300.5 396.5,300.5C 396.5,282.167 396.5,263.833 396.5,245.5C 398.833,245.5 401.167,245.5 403.5,245.5C 403.351,246.552 403.517,247.552 404,248.5C 404.816,247.177 405.983,246.511 407.5,246.5 Z"/></g>
<g><path style="opacity:1" fill="#111f23" d="M 166.5,239.5 C 166.012,245.453 163.845,250.786 160,255.5C 159.667,255.167 159.333,254.833 159,254.5C 158.28,256.112 158.446,257.612 159.5,259C 152.96,264.552 148.793,271.719 147,280.5C 145.53,281.267 144.03,281.933 142.5,282.5C 149.706,267.651 157.706,253.318 166.5,239.5 Z"/></g>
<g><path style="opacity:1" fill="#bcbcbc" d="M 386.5,245.5 C 386.829,258.677 386.495,271.677 385.5,284.5C 385.5,271.833 385.5,259.167 385.5,246.5C 383.833,246.5 382.167,246.5 380.5,246.5C 380.827,256.348 380.494,266.014 379.5,275.5C 379.5,265.5 379.5,255.5 379.5,245.5C 381.833,245.5 384.167,245.5 386.5,245.5 Z"/></g>
<g><path style="opacity:1" fill="#747474" d="M 186.5,252.5 C 182.816,251.272 179.15,251.272 175.5,252.5C 175.611,251.883 175.944,251.383 176.5,251C 177.833,250.833 179.167,250.667 180.5,250.5C 182.883,250.361 184.883,251.028 186.5,252.5 Z"/></g>
<g><path style="opacity:1" fill="#0c0c0c" d="M 186.5,252.5 C 188.25,253.659 189.25,255.326 189.5,257.5C 189.5,258.5 189.5,259.5 189.5,260.5C 183.833,260.5 178.167,260.5 172.5,260.5C 172.5,259.167 172.5,257.833 172.5,256.5C 172.738,254.596 173.738,253.262 175.5,252.5C 179.15,251.272 182.816,251.272 186.5,252.5 Z"/></g>
<g><path style="opacity:1" fill="#535353" d="M 216.5,252.5 C 219.491,252.166 221.824,253.166 223.5,255.5C 220.843,255.065 218.509,254.065 216.5,252.5 Z"/></g>
<g><path style="opacity:1" fill="#0a0a0a" d="M 422.5,261.5 C 422.806,267.576 421.472,273.243 418.5,278.5C 412.874,280.609 408.041,279.609 404,275.5C 403.333,268.833 403.333,262.167 404,255.5C 404.465,254.069 405.299,252.903 406.5,252C 415.551,249.347 420.884,252.513 422.5,261.5 Z"/></g>
<g><path style="opacity:1" fill="#32575a" d="M 129.5,239.5 C 130.325,243.647 130.825,247.981 131,252.5C 131.278,251.584 131.778,250.918 132.5,250.5C 132.778,252.346 132.111,253.68 130.5,254.5C 129.506,249.544 129.173,244.544 129.5,239.5 Z"/></g>
<g><path style="opacity:1" fill="#7ae6f0" d="M 73.5,243.5 C 73.364,250.854 73.6973,258.188 74.5,265.5C 74.3333,267.167 74.1667,268.833 74,270.5C 73.3292,269.748 72.4959,269.414 71.5,269.5C 67.1304,268.464 64.4637,265.797 63.5,261.5C 63.6057,256.957 64.6057,252.624 66.5,248.5C 68.1142,244.69 70.1142,241.023 72.5,237.5C 73.4656,239.396 73.7989,241.396 73.5,243.5 Z"/></g>
<g><path style="opacity:1" fill="#4e8189" d="M 66.5,248.5 C 64.6057,252.624 63.6057,256.957 63.5,261.5C 61.6629,256.565 62.6629,252.231 66.5,248.5 Z"/></g>
<g><path style="opacity:1" fill="#919191" d="M 215.5,259.5 C 219.708,259.677 223.374,261.01 226.5,263.5C 222.605,262.538 218.939,261.204 215.5,259.5 Z"/></g>
<g><path style="opacity:1" fill="#707070" d="M 232.5,258.5 C 234.027,258.427 235.027,259.094 235.5,260.5C 233.973,260.573 232.973,259.906 232.5,258.5 Z"/></g>
<g><path style="opacity:1" fill="#414141" d="M 172.5,256.5 C 172.5,257.833 172.5,259.167 172.5,260.5C 178.167,260.5 183.833,260.5 189.5,260.5C 189.5,259.5 189.5,258.5 189.5,257.5C 190.434,258.568 190.768,259.901 190.5,261.5C 184.167,261.5 177.833,261.5 171.5,261.5C 171.216,259.585 171.549,257.919 172.5,256.5 Z"/></g>
<g><path style="opacity:1" fill="#474747" d="M 344.5,260.5 C 337.352,261.492 330.019,261.825 322.5,261.5C 322.5,267.167 322.5,272.833 322.5,278.5C 331.349,278.174 340.016,278.507 348.5,279.5C 339.5,279.5 330.5,279.5 321.5,279.5C 321.5,273.167 321.5,266.833 321.5,260.5C 329.167,260.5 336.833,260.5 344.5,260.5 Z"/></g>
<g><path style="opacity:1" fill="#939393" d="M 422.5,261.5 C 423.969,266.926 423.303,272.259 420.5,277.5C 420.043,278.298 419.376,278.631 418.5,278.5C 421.472,273.243 422.806,267.576 422.5,261.5 Z"/></g>
<g><path style="opacity:1" fill="#b2b2b2" d="M 193.5,250.5 C 194.804,251.987 195.97,253.654 197,255.5C 197.499,259.486 197.666,263.486 197.5,267.5C 188.5,267.5 179.5,267.5 170.5,267.5C 178.984,266.507 187.651,266.174 196.5,266.5C 196.665,263.482 196.498,260.482 196,257.5C 194.587,255.348 193.754,253.014 193.5,250.5 Z"/></g>
<g><path style="opacity:1" fill="#323232" d="M 170.5,267.5 C 179.5,267.5 188.5,267.5 197.5,267.5C 188.619,267.845 179.952,268.845 171.5,270.5C 170.596,269.791 170.263,268.791 170.5,267.5 Z"/></g>
<g><path style="opacity:1" fill="#747474" d="M 264.5,263.5 C 266.245,265.033 267.245,267.033 267.5,269.5C 265.755,267.967 264.755,265.967 264.5,263.5 Z"/></g>
<g><path style="opacity:1" fill="#969696" d="M 282.5,259.5 C 281.627,264.451 279.961,269.118 277.5,273.5C 276.306,274.67 275.639,274.337 275.5,272.5C 278.392,268.509 280.726,264.176 282.5,259.5 Z"/></g>
<g><path style="opacity:1" fill="#767676" d="M 286.5,267.5 C 286.573,269.027 285.906,270.027 284.5,270.5C 284.427,268.973 285.094,267.973 286.5,267.5 Z"/></g>
<g><path style="opacity:1" fill="#508b8f" d="M 73.5,243.5 C 74.9884,252.626 75.6551,261.959 75.5,271.5C 73.6203,271.771 72.287,271.104 71.5,269.5C 72.4959,269.414 73.3292,269.748 74,270.5C 74.1667,268.833 74.3333,267.167 74.5,265.5C 73.6973,258.188 73.364,250.854 73.5,243.5 Z"/></g>
<g><path style="opacity:0.188" fill="#727272" d="M -0.5,263.5 C 0.806286,268.616 1.47295,273.949 1.5,279.5C 1.16667,279.5 0.833333,279.5 0.5,279.5C 0.5,278.833 0.166667,278.5 -0.5,278.5C -0.5,273.5 -0.5,268.5 -0.5,263.5 Z"/></g>
<g><path style="opacity:1" fill="#7a7a7a" d="M 203.5,269.5 C 203.448,271.903 203.781,274.236 204.5,276.5C 203.007,275.688 202.34,274.355 202.5,272.5C 202.52,271.274 202.853,270.274 203.5,269.5 Z"/></g>
<g><path style="opacity:1" fill="#8b8b8b" d="M 191.5,276.5 C 190.657,278.173 189.324,279.34 187.5,280C 183.973,280.808 180.64,280.641 177.5,279.5C 182.595,280.09 187.262,279.09 191.5,276.5 Z"/></g>
<g><path style="opacity:1" fill="#919191" d="M 314.5,232.5 C 314.833,232.5 315.167,232.5 315.5,232.5C 315.5,249.833 315.5,267.167 315.5,284.5C 326.5,284.5 337.5,284.5 348.5,284.5C 337.346,285.495 326.012,285.828 314.5,285.5C 314.5,267.833 314.5,250.167 314.5,232.5 Z"/></g>
<g><path style="opacity:1" fill="#79e6ee" d="M 165.5,229.5 C 166.479,232.625 166.813,235.958 166.5,239.5C 157.706,253.318 149.706,267.651 142.5,282.5C 139.742,285.678 137.742,289.345 136.5,293.5C 132.532,296.926 127.865,298.26 122.5,297.5C 113.683,293.541 105.183,288.874 97,283.5C 96.6717,280.793 97.005,278.126 98,275.5C 103.563,265.655 108.563,255.655 113,245.5C 114.231,254.777 115.065,264.11 115.5,273.5C 115.5,277.833 115.5,282.167 115.5,286.5C 121.69,286.823 127.69,286.49 133.5,285.5C 138.504,274.826 143.504,264.159 148.5,253.5C 150.613,249.641 153.447,246.308 157,243.5C 157.528,239.057 158.528,234.723 160,230.5C 161.556,228.365 163.389,228.032 165.5,229.5 Z"/></g>
<g><path style="opacity:1" fill="#2d6168" d="M 115.5,273.5 C 116.483,277.298 116.817,281.298 116.5,285.5C 122.167,285.5 127.833,285.5 133.5,285.5C 127.69,286.49 121.69,286.823 115.5,286.5C 115.5,282.167 115.5,277.833 115.5,273.5 Z"/></g>
<g><path style="opacity:1" fill="#346166" d="M 136.5,293.5 C 135.976,296.188 134.309,297.688 131.5,298C 128.304,298.805 125.304,298.638 122.5,297.5C 127.865,298.26 132.532,296.926 136.5,293.5 Z"/></g>
<g><path style="opacity:1" fill="#959595" d="M 15.5,298.5 C 17.1628,300.438 17.8294,302.772 17.5,305.5C 16.0762,303.485 15.4095,301.152 15.5,298.5 Z"/></g>
<g><path style="opacity:0.022" fill="#1d1d1d" d="M 0.5,279.5 C 0.833333,279.5 1.16667,279.5 1.5,279.5C 12.6752,357.226 50.6752,417.893 115.5,461.5C 58.1689,425.579 21.3356,374.579 5,308.5C 2.84825,298.924 1.34825,289.257 0.5,279.5 Z"/></g>
<g><path style="opacity:1" fill="#9b9b9b" d="M 471.5,336.5 C 471.975,339.313 470.975,341.313 468.5,342.5C 469.508,340.456 470.508,338.456 471.5,336.5 Z"/></g>
<g><path style="opacity:1" fill="#747474" d="M 466.5,348.5 C 466.573,350.027 465.906,351.027 464.5,351.5C 464.427,349.973 465.094,348.973 466.5,348.5 Z"/></g>
<g><path style="opacity:0.082" fill="#1c1c1c" d="M 495.5,298.5 C 484.921,353.505 458.921,399.672 417.5,437C 413.462,440.674 409.129,443.841 404.5,446.5C 451.644,407.553 481.978,358.219 495.5,298.5 Z"/></g>
<g><path style="opacity:1" fill="#9b9b9b" d="M 403.5,431.5 C 402.415,433.587 400.749,434.92 398.5,435.5C 399.585,433.413 401.251,432.08 403.5,431.5 Z"/></g>
<g><path style="opacity:0.039" fill="#202020" d="M 404.5,446.5 C 399.215,451.81 393.215,456.144 386.5,459.5C 391.936,454.399 397.936,450.066 404.5,446.5 Z"/></g>
<g><path style="opacity:0.024" fill="#1a1a1a" d="M 115.5,461.5 C 117.674,461.75 119.341,462.75 120.5,464.5C 118.326,464.25 116.659,463.25 115.5,461.5 Z"/></g>
<g><path style="opacity:0.022" fill="#212121" d="M 386.5,459.5 C 365.02,474.735 341.353,485.402 315.5,491.5C 340.257,483.289 363.923,472.622 386.5,459.5 Z"/></g>
<g><path style="opacity:0.02" fill="#1a1a1a" d="M 120.5,464.5 C 122.674,464.75 124.341,465.75 125.5,467.5C 123.326,467.25 121.659,466.25 120.5,464.5 Z"/></g>
<g><path style="opacity:0.024" fill="#1a1a1a" d="M 127.5,468.5 C 131.655,469.742 135.322,471.742 138.5,474.5C 134.345,473.258 130.678,471.258 127.5,468.5 Z"/></g>
<g><path style="opacity:0.024" fill="#191919" d="M 138.5,474.5 C 141.912,475.042 144.912,476.375 147.5,478.5C 144.088,477.958 141.088,476.625 138.5,474.5 Z"/></g>
<g><path style="opacity:0.012" fill="#2b2b2b" d="M 147.5,478.5 C 150.481,478.182 152.815,479.182 154.5,481.5C 151.759,481.293 149.426,480.293 147.5,478.5 Z"/></g>
<g><path style="opacity:0.014" fill="#141414" d="M 154.5,481.5 C 156.553,481.402 158.22,482.069 159.5,483.5C 157.447,483.598 155.78,482.931 154.5,481.5 Z"/></g>
<g><path style="opacity:0.263" fill="#484848" d="M 159.5,483.5 C 166.895,484.854 173.895,487.187 180.5,490.5C 173.079,489.138 166.079,486.804 159.5,483.5 Z"/></g>
<g><path style="opacity:1" fill="#8d8d8d" d="M 280.5,485.5 C 271.552,487.032 262.385,487.698 253,487.5C 246.325,487.5 239.825,487.166 233.5,486.5C 249.182,486.675 264.849,486.342 280.5,485.5 Z"/></g>
<g><path style="opacity:0.192" fill="#383838" d="M 180.5,490.5 C 187.503,491.251 194.17,492.917 200.5,495.5C 193.573,494.435 186.906,492.768 180.5,490.5 Z"/></g>
<g><path style="opacity:0.012" fill="#262626" d="M 310.5,492.5 C 304.486,494.785 298.152,496.119 291.5,496.5C 297.558,494.421 303.891,493.087 310.5,492.5 Z"/></g>
<g><path style="opacity:0.122" fill="#333333" d="M 201.5,495.5 C 205.489,495.116 209.155,495.783 212.5,497.5C 208.613,497.354 204.946,496.687 201.5,495.5 Z"/></g>
</svg>
