<?xml version="1.0" encoding="UTF-8"?>
<!DOCTYPE svg PUBLIC "-//W3C//DTD SVG 1.1//EN" "http://www.w3.org/Graphics/SVG/1.1/DTD/svg11.dtd">
<svg xmlns="http://www.w3.org/2000/svg" version="1.1" width="50px" height="50px" style="shape-rendering:geometricPrecision; text-rendering:geometricPrecision; image-rendering:optimizeQuality; fill-rule:evenodd; clip-rule:evenodd" xmlns:xlink="http://www.w3.org/1999/xlink">
<g><path style="opacity:0.565" fill="#f09401" d="M 14.5,-0.5 C 21.1667,-0.5 27.8333,-0.5 34.5,-0.5C 37.2412,0.712201 39.9078,2.2122 42.5,4C 45.0973,7.41065 47.4306,10.9107 49.5,14.5C 49.5,21.1667 49.5,27.8333 49.5,34.5C 47.7921,37.4842 45.9587,40.4842 44,43.5C 40.912,45.7806 37.7453,47.7806 34.5,49.5C 27.8333,49.5 21.1667,49.5 14.5,49.5C 11.7588,48.2878 9.09216,46.7878 6.5,45C 3.9027,41.5893 1.56937,38.0893 -0.5,34.5C -0.5,27.8333 -0.5,21.1667 -0.5,14.5C 1.20793,11.5158 3.04126,8.51581 5,5.5C 8.088,3.21941 11.2547,1.21941 14.5,-0.5 Z M 40.5,21.5 C 40.5,23.5 40.5,25.5 40.5,27.5C 38.3944,34.6061 33.7277,38.9394 26.5,40.5C 15.7748,40.4398 9.77477,35.1064 8.5,24.5C 10.3168,12.6197 17.1501,7.61969 29,9.5C 35.1078,11.4387 38.9411,15.4387 40.5,21.5 Z"/></g>
<g><path style="opacity:0.784" fill="#5d310e" d="M 15.5,5.5 C 15.0269,6.90632 14.0269,7.57298 12.5,7.5C 12.9731,6.09368 13.9731,5.42702 15.5,5.5 Z"/></g>
<g><path style="opacity:0.65" fill="#0a071f" d="M 44.5,18.5 C 42.9069,17.6521 41.7403,16.3187 41,14.5C 41.6115,16.9625 41.4448,19.2958 40.5,21.5C 38.9411,15.4387 35.1078,11.4387 29,9.5C 17.1501,7.61969 10.3168,12.6197 8.5,24.5C 9.77477,35.1064 15.7748,40.4398 26.5,40.5C 32.7169,41.1296 37.2169,38.4629 40,32.5C 40.49,33.7932 40.6567,35.1266 40.5,36.5C 39.1667,38.1667 37.8333,39.8333 36.5,41.5C 21.9667,48.6237 11.3001,44.9571 4.5,30.5C 4.27428,25.4376 4.60762,20.4376 5.5,15.5C 6.90632,15.0269 7.57298,14.0269 7.5,12.5C 8.83333,10.5 10.5,8.83333 12.5,7.5C 14.0269,7.57298 15.0269,6.90632 15.5,5.5C 25.2584,2.59956 33.7584,4.59956 41,11.5C 42.705,13.5766 43.8717,15.91 44.5,18.5 Z"/></g>
<g><path style="opacity:0.804" fill="#69380b" d="M 7.5,12.5 C 7.57298,14.0269 6.90632,15.0269 5.5,15.5C 5.42702,13.9731 6.09368,12.9731 7.5,12.5 Z"/></g>
<g><path style="opacity:0.791" fill="#020626" d="M 44.5,18.5 C 44.7166,23.2303 44.3833,27.8969 43.5,32.5C 42.0652,31.0867 41.0652,29.42 40.5,27.5C 40.5,25.5 40.5,23.5 40.5,21.5C 41.4448,19.2958 41.6115,16.9625 41,14.5C 41.7403,16.3187 42.9069,17.6521 44.5,18.5 Z"/></g>
<g><path style="opacity:0.122" fill="#000319" d="M 22.5,11.5 C 23.8734,11.3433 25.2068,11.51 26.5,12C 27.7272,14.2696 29.3939,16.103 31.5,17.5C 30.1523,19.6568 28.1523,20.9901 25.5,21.5C 30.8125,22.7711 32.6459,26.4378 31,32.5C 28.8282,33.5089 27.6615,35.1756 27.5,37.5C 25.8008,37.6602 24.1341,37.4935 22.5,37C 20.4344,35.4114 18.7677,33.5781 17.5,31.5C 17.6082,30.5581 17.9415,29.7247 18.5,29C 26.2398,30.3788 26.9065,29.3788 20.5,26C 18.9903,24.6487 17.9903,22.982 17.5,21C 18.5694,17.4541 20.2361,14.2874 22.5,11.5 Z"/></g>
<g><path style="opacity:0.812" fill="#76440f" d="M 5.5,15.5 C 4.60762,20.4376 4.27428,25.4376 4.5,30.5C 3.35159,26.0189 3.18492,21.3522 4,16.5C 4.38258,15.944 4.88258,15.6107 5.5,15.5 Z"/></g>
<g><path style="opacity:0.812" fill="#7a460f" d="M 44.5,18.5 C 45.1633,20.6413 45.4966,22.9746 45.5,25.5C 45.4714,28.2695 44.8048,30.6028 43.5,32.5C 44.3833,27.8969 44.7166,23.2303 44.5,18.5 Z"/></g>
<g><path style="opacity:0.514" fill="#070517" d="M 40.5,27.5 C 41.0652,29.42 42.0652,31.0867 43.5,32.5C 43.5,33.1667 43.5,33.8333 43.5,34.5C 42.5,35.1667 41.5,35.8333 40.5,36.5C 40.6567,35.1266 40.49,33.7932 40,32.5C 37.2169,38.4629 32.7169,41.1296 26.5,40.5C 33.7277,38.9394 38.3944,34.6061 40.5,27.5 Z"/></g>
<g><path style="opacity:0.816" fill="#90530e" d="M 43.5,34.5 C 42.1667,37.8333 39.8333,40.1667 36.5,41.5C 37.8333,39.8333 39.1667,38.1667 40.5,36.5C 41.5,35.8333 42.5,35.1667 43.5,34.5 Z"/></g>
</svg>
