<?xml version="1.0" encoding="UTF-8"?>
<!DOCTYPE svg PUBLIC "-//W3C//DTD SVG 1.1//EN" "http://www.w3.org/Graphics/SVG/1.1/DTD/svg11.dtd">
<svg xmlns="http://www.w3.org/2000/svg" version="1.1" width="218px" height="218px" style="shape-rendering:geometricPrecision; text-rendering:geometricPrecision; image-rendering:optimizeQuality; fill-rule:evenodd; clip-rule:evenodd" xmlns:xlink="http://www.w3.org/1999/xlink">
<g><path style="opacity:0.892" fill="#fefcf8" d="M 93.5,-0.5 C 103.5,-0.5 113.5,-0.5 123.5,-0.5C 164.913,7.40186 194.079,30.7352 211,69.5C 213.508,77.5419 215.675,85.5419 217.5,93.5C 217.5,103.5 217.5,113.5 217.5,123.5C 209.598,164.913 186.265,194.079 147.5,211C 139.458,213.508 131.458,215.675 123.5,217.5C 113.5,217.5 103.5,217.5 93.5,217.5C 52.0875,209.598 22.9208,186.265 6,147.5C 3.4921,139.458 1.32544,131.458 -0.5,123.5C -0.5,113.5 -0.5,103.5 -0.5,93.5C 7.40186,52.0875 30.7352,22.9208 69.5,6C 77.5419,3.4921 85.5419,1.32544 93.5,-0.5 Z"/></g>
<g><path style="opacity:1" fill="#fcfbf6" d="M 138.5,19.5 C 145.505,22.2865 152.505,25.2865 159.5,28.5C 164.545,32.8777 169.878,36.8777 175.5,40.5C 179.607,45.7272 183.94,50.7272 188.5,55.5C 196.401,67.8835 201.735,81.2168 204.5,95.5C 204.737,106.198 204.404,116.865 203.5,127.5C 201.385,138.188 197.719,148.188 192.5,157.5C 170.991,190.59 140.324,206.257 100.5,204.5C 91.554,202.415 82.554,200.082 73.5,197.5C 69.3338,194.916 65.0004,192.583 60.5,190.5C 56.1907,187.198 51.8574,183.864 47.5,180.5C 41.011,173.495 35.011,166.161 29.5,158.5C 27.3739,152.914 24.7072,147.581 21.5,142.5C 21.0733,139.99 20.4067,137.657 19.5,135.5C 16.8391,123.677 15.8391,111.677 16.5,99.5C 16.8333,97.5 17.1667,95.5 17.5,93.5C 26.3614,52.804 51.028,27.304 91.5,17C 107.369,14.458 123.036,15.2913 138.5,19.5 Z"/></g>
<g><path style="opacity:1" fill="#f3d84d" d="M 152.5,14.5 C 158.005,16.7487 163.005,19.7487 167.5,23.5C 167.414,24.4959 167.748,25.3292 168.5,26C 167.5,26.3333 166.5,26.6667 165.5,27C 166.711,27.8928 166.711,28.7261 165.5,29.5C 164.833,28.8333 164.167,28.1667 163.5,27.5C 163.167,28.1667 162.833,28.8333 162.5,29.5C 161.583,28.8728 160.583,28.5394 159.5,28.5C 152.505,25.2865 145.505,22.2865 138.5,19.5C 143.807,19.5748 149.141,19.7415 154.5,20C 154.957,19.586 155.291,19.086 155.5,18.5C 153.712,17.7174 152.712,16.3841 152.5,14.5 Z"/></g>
<g><path style="opacity:1" fill="#eabf17" d="M 152.5,14.5 C 152.712,16.3841 153.712,17.7174 155.5,18.5C 155.291,19.086 154.957,19.586 154.5,20C 149.141,19.7415 143.807,19.5748 138.5,19.5C 123.036,15.2913 107.369,14.458 91.5,17C 51.028,27.304 26.3614,52.804 17.5,93.5C 14.41,94.3528 11.41,95.3528 8.5,96.5C 8.65668,97.8734 8.49001,99.2068 8,100.5C 7.50166,97.1832 7.33499,93.8499 7.5,90.5C 14.5362,53.2808 35.5362,27.1142 70.5,12C 98.2916,1.31402 125.625,2.14735 152.5,14.5 Z"/></g>
<g><path style="opacity:1" fill="#eecd32" d="M 125.5,24.5 C 130.788,24.8782 135.788,26.2116 140.5,28.5C 140.586,29.4959 140.252,30.3292 139.5,31C 140.167,31.3333 140.833,31.6667 141.5,32C 136.5,34.0162 131.5,34.8495 126.5,34.5C 125.513,31.2317 125.18,27.8984 125.5,24.5 Z"/></g>
<g><path style="opacity:1" fill="#f5db57" d="M 125.5,24.5 C 125.18,27.8984 125.513,31.2317 126.5,34.5C 131.5,34.8495 136.5,34.0162 141.5,32C 140.833,31.6667 140.167,31.3333 139.5,31C 140.252,30.3292 140.586,29.4959 140.5,28.5C 144.505,30.1679 148.505,31.8346 152.5,33.5C 152.119,34.9311 151.119,35.7645 149.5,36C 150.5,36.3333 151.5,36.6667 152.5,37C 149.833,37.3333 147.167,37.6667 144.5,38C 143.167,38.6667 143.167,39.3333 144.5,40C 143.906,40.4643 143.239,40.631 142.5,40.5C 136.688,38.2132 130.688,36.5465 124.5,35.5C 124.185,31.6286 124.518,27.9619 125.5,24.5 Z"/></g>
<g><path style="opacity:1" fill="#fbe675" d="M 167.5,23.5 C 169.595,24.412 171.595,25.5787 173.5,27C 178.669,31.0032 183.336,35.5032 187.5,40.5C 183.161,40.8393 179.161,40.8393 175.5,40.5C 169.878,36.8777 164.545,32.8777 159.5,28.5C 160.583,28.5394 161.583,28.8728 162.5,29.5C 162.833,28.8333 163.167,28.1667 163.5,27.5C 164.167,28.1667 164.833,28.8333 165.5,29.5C 166.711,28.7261 166.711,27.8928 165.5,27C 166.5,26.6667 167.5,26.3333 168.5,26C 167.748,25.3292 167.414,24.4959 167.5,23.5 Z"/></g>
<g><path style="opacity:1" fill="#f1de89" d="M 114.5,23.5 C 115.482,26.9619 115.815,30.6286 115.5,34.5C 112.167,34.5 108.833,34.5 105.5,34.5C 105.5,30.5 105.5,26.5 105.5,22.5C 108.713,22.19 111.713,22.5233 114.5,23.5 Z"/></g>
<g><path style="opacity:1" fill="#e4bb0a" d="M 114.5,23.5 C 114.5,26.8333 114.5,30.1667 114.5,33.5C 111.833,33.5 109.167,33.5 106.5,33.5C 106.5,30.1667 106.5,26.8333 106.5,23.5C 109.167,23.5 111.833,23.5 114.5,23.5 Z"/></g>
<g><path style="opacity:1" fill="#fae778" d="M 152.5,33.5 C 156.896,36.0251 160.896,39.0251 164.5,42.5C 161.717,44.0665 159.051,45.8999 156.5,48C 158.063,48.7589 159.063,49.9256 159.5,51.5C 154.08,47.4056 148.413,43.7389 142.5,40.5C 143.239,40.631 143.906,40.4643 144.5,40C 143.167,39.3333 143.167,38.6667 144.5,38C 147.167,37.6667 149.833,37.3333 152.5,37C 151.5,36.6667 150.5,36.3333 149.5,36C 151.119,35.7645 152.119,34.9311 152.5,33.5 Z"/></g>
<g><path style="opacity:1" fill="#f0d346" d="M 187.5,40.5 C 192.585,46.3415 196.918,52.6749 200.5,59.5C 196.684,58.6867 194.684,56.3534 194.5,52.5C 191.607,52.0311 189.607,53.0311 188.5,55.5C 183.94,50.7272 179.607,45.7272 175.5,40.5C 179.161,40.8393 183.161,40.8393 187.5,40.5 Z"/></g>
<g><path style="opacity:1" fill="#f9f3ad" d="M 129.5,46.5 C 127.024,47.8153 127.358,48.982 130.5,50C 129.906,50.4643 129.239,50.631 128.5,50.5C 121.928,49.0857 115.261,48.4191 108.5,48.5C 99.1413,48.0083 90.4746,50.0083 82.5,54.5C 77.6783,55.9977 73.6783,58.6644 70.5,62.5C 68.5887,63.075 66.922,64.075 65.5,65.5C 64.6618,65.1583 64.3284,64.4916 64.5,63.5C 69.0738,58.4337 74.4072,54.2671 80.5,51C 79.9056,50.5357 79.2389,50.369 78.5,50.5C 79.5137,49.3263 80.847,48.6596 82.5,48.5C 82.3893,49.1174 82.056,49.6174 81.5,50C 84.3285,50.9694 86.6618,50.3028 88.5,48C 87.552,47.5172 86.552,47.3505 85.5,47.5C 86.9303,46.4625 88.597,45.7959 90.5,45.5C 89.1498,46.6499 89.3164,47.3166 91,47.5C 94.2507,46.9317 97.4174,46.0984 100.5,45C 97.4929,44.6987 94.4929,44.8654 91.5,45.5C 96.0349,43.7246 100.868,42.7246 106,42.5C 108.3,42.4944 110.466,42.9944 112.5,44C 109.23,44.9948 105.897,45.8281 102.5,46.5C 109.5,47.8333 116.5,47.8333 123.5,46.5C 122.001,45.0962 122.334,44.4296 124.5,44.5C 126.422,44.8008 128.088,45.4675 129.5,46.5 Z"/></g>
<g><path style="opacity:1" fill="#f8ef77" d="M 90.5,45.5 C 90.8333,45.5 91.1667,45.5 91.5,45.5C 94.4929,44.8654 97.4929,44.6987 100.5,45C 97.4174,46.0984 94.2507,46.9317 91,47.5C 89.3164,47.3166 89.1498,46.6499 90.5,45.5 Z"/></g>
<g><path style="opacity:1" fill="#fad36b" d="M 85.5,47.5 C 86.552,47.3505 87.552,47.5172 88.5,48C 86.6618,50.3028 84.3285,50.9694 81.5,50C 82.056,49.6174 82.3893,49.1174 82.5,48.5C 83.391,47.8902 84.391,47.5569 85.5,47.5 Z"/></g>
<g><path style="opacity:1" fill="#fbeb6d" d="M 129.5,46.5 C 132.397,47.129 135.064,48.129 137.5,49.5C 137.48,51.143 138.147,52.4763 139.5,53.5C 138.675,54.3857 137.675,54.719 136.5,54.5C 134.254,53.5448 131.921,52.8782 129.5,52.5C 129.167,51.8333 128.833,51.1667 128.5,50.5C 129.239,50.631 129.906,50.4643 130.5,50C 127.358,48.982 127.024,47.8153 129.5,46.5 Z"/></g>
<g><path style="opacity:1" fill="#f7df62" d="M 164.5,42.5 C 167.784,44.117 170.451,46.4503 172.5,49.5C 169.368,49.7837 166.368,50.617 163.5,52C 162.829,52.9862 162.829,54.1529 163.5,55.5C 161.833,54.5 160.5,53.1667 159.5,51.5C 159.063,49.9256 158.063,48.7589 156.5,48C 159.051,45.8999 161.717,44.0665 164.5,42.5 Z"/></g>
<g><path style="opacity:1" fill="#e7be18" d="M 89.5,24.5 C 91.8333,24.5 94.1667,24.5 96.5,24.5C 96.5,28.1667 96.5,31.8333 96.5,35.5C 77.238,39.2996 61.5714,48.9663 49.5,64.5C 42.5502,67.0463 39.7169,64.7129 41,57.5C 53.9162,41.6325 70.0829,30.6325 89.5,24.5 Z"/></g>
<g><path style="opacity:1" fill="#cfa637" d="M 108.5,48.5 C 104.688,50.0574 100.688,51.3907 96.5,52.5C 94.8828,53.038 93.2161,53.3713 91.5,53.5C 91.2648,52.9033 90.7648,52.5699 90,52.5C 87.6813,53.8713 85.1813,54.5379 82.5,54.5C 90.4746,50.0083 99.1413,48.0083 108.5,48.5 Z"/></g>
<g><path style="opacity:1" fill="#cdb751" d="M 108.5,48.5 C 115.261,48.4191 121.928,49.0857 128.5,50.5C 128.833,51.1667 129.167,51.8333 129.5,52.5C 128.494,52.9377 128.494,53.6043 129.5,54.5C 127.254,53.5448 124.921,52.8782 122.5,52.5C 120.321,51.0744 117.821,50.4078 115,50.5C 108.819,51.1346 102.653,51.8013 96.5,52.5C 100.688,51.3907 104.688,50.0574 108.5,48.5 Z"/></g>
<g><path style="opacity:1" fill="#f0c549" d="M 137.5,49.5 C 140.331,50.0787 142.664,51.412 144.5,53.5C 144.859,55.371 145.859,56.871 147.5,58C 146.756,59.0386 145.756,59.5386 144.5,59.5C 143.609,58.8902 142.609,58.5569 141.5,58.5C 140.016,56.9263 138.349,55.593 136.5,54.5C 137.675,54.719 138.675,54.3857 139.5,53.5C 138.147,52.4763 137.48,51.143 137.5,49.5 Z"/></g>
<g><path style="opacity:1" fill="#b2881a" d="M 129.5,52.5 C 131.921,52.8782 134.254,53.5448 136.5,54.5C 138.349,55.593 140.016,56.9263 141.5,58.5C 140.833,58.5 140.5,58.8333 140.5,59.5C 139.833,59.1667 139.167,58.8333 138.5,58.5C 135.497,57.1614 132.497,55.8281 129.5,54.5C 128.494,53.6043 128.494,52.9377 129.5,52.5 Z"/></g>
<g><path style="opacity:1" fill="#edcd39" d="M 172.5,49.5 C 175.5,51.6676 178,54.3343 180,57.5C 181.481,63.8571 178.981,66.3571 172.5,65C 169.368,61.8546 166.368,58.6879 163.5,55.5C 162.829,54.1529 162.829,52.9862 163.5,52C 166.368,50.617 169.368,49.7837 172.5,49.5 Z"/></g>
<g><path style="opacity:1" fill="#af7f31" d="M 91.5,53.5 C 85.8832,55.6417 80.5499,58.3084 75.5,61.5C 75.44,60.9569 75.1067,60.6236 74.5,60.5C 73.3777,61.6302 72.0443,62.2969 70.5,62.5C 73.6783,58.6644 77.6783,55.9977 82.5,54.5C 85.1813,54.5379 87.6813,53.8713 90,52.5C 90.7648,52.5699 91.2648,52.9033 91.5,53.5 Z"/></g>
<g><path style="opacity:1" fill="#f9efb7" d="M 122.5,52.5 C 111.203,53.7121 99.8699,55.7121 88.5,58.5C 82.8924,61.1543 77.2258,63.8209 71.5,66.5C 71.5,66.1667 71.5,65.8333 71.5,65.5C 72.5,63.8333 73.8333,62.5 75.5,61.5C 80.5499,58.3084 85.8832,55.6417 91.5,53.5C 93.2161,53.3713 94.8828,53.038 96.5,52.5C 102.653,51.8013 108.819,51.1346 115,50.5C 117.821,50.4078 120.321,51.0744 122.5,52.5 Z"/></g>
<g><path style="opacity:1" fill="#b99b43" d="M 78.5,50.5 C 79.2389,50.369 79.9056,50.5357 80.5,51C 74.4072,54.2671 69.0738,58.4337 64.5,63.5C 60.8333,66.5 57.5,69.8333 54.5,73.5C 54.8333,72.1667 55.1667,70.8333 55.5,69.5C 61.705,61.2857 69.3717,54.9523 78.5,50.5 Z"/></g>
<g><path style="opacity:1" fill="#9c7937" d="M 70.5,62.5 C 67.5,66.1667 64.1667,69.5 60.5,72.5C 61.7536,69.9066 63.4202,67.5732 65.5,65.5C 66.922,64.075 68.5887,63.075 70.5,62.5 Z"/></g>
<g><path style="opacity:1" fill="#fcdd5c" d="M 117.5,56.5 C 115.981,57.4098 114.315,58.2432 112.5,59C 115.688,60.3158 119.022,60.8158 122.5,60.5C 122.286,62.1439 122.62,63.6439 123.5,65C 126.872,66.9416 130.538,68.1083 134.5,68.5C 135.395,72.433 133.728,73.933 129.5,73C 127.776,72.5518 127.109,71.7185 127.5,70.5C 126.228,71.046 124.894,71.3793 123.5,71.5C 115.215,69.0598 106.882,68.8932 98.5,71C 96.3474,71.0995 94.6808,71.9328 93.5,73.5C 91.8828,74.038 90.2161,74.3713 88.5,74.5C 88.33,73.1779 88.6634,72.0113 89.5,71C 91.8098,70.5034 94.1432,70.3367 96.5,70.5C 96.5,69.5 96.5,68.5 96.5,67.5C 102.795,67.3648 108.795,66.0315 114.5,63.5C 112.929,61.585 110.929,60.585 108.5,60.5C 108.67,59.1779 108.337,58.0113 107.5,57C 110.817,56.5017 114.15,56.335 117.5,56.5 Z"/></g>
<g><path style="opacity:1" fill="#955e16" d="M 141.5,58.5 C 142.609,58.5569 143.609,58.8902 144.5,59.5C 152.293,65.6224 158.626,72.9557 163.5,81.5C 162.503,81.4701 161.836,81.9701 161.5,83C 161.989,84.1385 162.322,85.3052 162.5,86.5C 161.833,86.1667 161.167,85.8333 160.5,85.5C 160.768,83.901 160.434,82.5676 159.5,81.5C 156.55,76.7113 153.384,72.0446 150,67.5C 146.855,64.6962 143.688,62.0296 140.5,59.5C 140.5,58.8333 140.833,58.5 141.5,58.5 Z"/></g>
<g><path style="opacity:1" fill="#dbab47" d="M 144.5,53.5 C 146.062,53.7329 147.395,54.3995 148.5,55.5C 148.762,57.5638 149.929,58.8971 152,59.5C 152.333,61.1667 152.667,62.8333 153,64.5C 156.399,67.7289 159.565,71.0622 162.5,74.5C 166.578,80.6576 169.578,87.3242 171.5,94.5C 171.674,96.861 172.007,99.1944 172.5,101.5C 171.5,101.5 170.5,101.5 169.5,101.5C 169.5,100.5 169.5,99.5 169.5,98.5C 167.96,92.6755 165.96,87.0088 163.5,81.5C 158.626,72.9557 152.293,65.6224 144.5,59.5C 145.756,59.5386 146.756,59.0386 147.5,58C 145.859,56.871 144.859,55.371 144.5,53.5 Z"/></g>
<g><path style="opacity:1" fill="#fbf16e" d="M 122.5,52.5 C 124.921,52.8782 127.254,53.5448 129.5,54.5C 132.497,55.8281 135.497,57.1614 138.5,58.5C 138.5,59.5 138.5,60.5 138.5,61.5C 133.797,59.405 128.963,57.405 124,55.5C 121.901,56.2865 119.734,56.6199 117.5,56.5C 114.15,56.335 110.817,56.5017 107.5,57C 108.337,58.0113 108.67,59.1779 108.5,60.5C 110.929,60.585 112.929,61.585 114.5,63.5C 108.795,66.0315 102.795,67.3648 96.5,67.5C 96.5,68.5 96.5,69.5 96.5,70.5C 94.1432,70.3367 91.8098,70.5034 89.5,71C 88.6634,72.0113 88.33,73.1779 88.5,74.5C 88.5,75.1667 88.1667,75.5 87.5,75.5C 82.1501,76.1722 77.1501,77.8388 72.5,80.5C 70.2546,78.3773 67.5879,77.3773 64.5,77.5C 68.6449,75.5193 71.6449,72.3526 73.5,68C 76.599,65.8697 79.9323,64.3697 83.5,63.5C 83.5,62.5 83.5,61.5 83.5,60.5C 85.698,60.8799 87.3646,60.2132 88.5,58.5C 99.8699,55.7121 111.203,53.7121 122.5,52.5 Z"/></g>
<g><path style="opacity:1" fill="#684a19" d="M 75.5,61.5 C 73.8333,62.5 72.5,63.8333 71.5,65.5C 67.8333,67.1667 65.1667,69.8333 63.5,73.5C 58.8251,77.8535 55.8251,83.1868 54.5,89.5C 52.4384,91.3613 51.1051,93.6947 50.5,96.5C 50.0461,94.7411 50.0461,92.7411 50.5,90.5C 51.1552,86.1885 52.6552,82.1885 55,78.5C 56.617,76.2368 58.4503,74.2368 60.5,72.5C 64.1667,69.5 67.5,66.1667 70.5,62.5C 72.0443,62.2969 73.3777,61.6302 74.5,60.5C 75.1067,60.6236 75.44,60.9569 75.5,61.5 Z"/></g>
<g><path style="opacity:1" fill="#beac65" d="M 71.5,65.5 C 71.5,65.8333 71.5,66.1667 71.5,66.5C 68.8333,68.8333 66.1667,71.1667 63.5,73.5C 65.1667,69.8333 67.8333,67.1667 71.5,65.5 Z"/></g>
<g><path style="opacity:1" fill="#f6d156" d="M 138.5,58.5 C 139.167,58.8333 139.833,59.1667 140.5,59.5C 143.688,62.0296 146.855,64.6962 150,67.5C 153.384,72.0446 156.55,76.7113 159.5,81.5C 157.712,81.7852 156.045,81.4519 154.5,80.5C 155.326,79.549 155.492,78.549 155,77.5C 150.929,77.0078 146.762,77.0078 142.5,77.5C 142.514,81.9278 143.514,86.2611 145.5,90.5C 143.167,87.8333 140.833,85.1667 138.5,82.5C 135.045,76.2196 129.712,73.0529 122.5,73C 123.381,73.7083 124.047,74.5416 124.5,75.5C 120.576,74.281 116.743,72.9477 113,71.5C 105.036,72.5448 97.5361,74.8781 90.5,78.5C 92.6122,75.9374 95.2788,74.104 98.5,73C 96.8034,72.6155 95.1368,72.7822 93.5,73.5C 94.6808,71.9328 96.3474,71.0995 98.5,71C 106.882,68.8932 115.215,69.0598 123.5,71.5C 124.894,71.3793 126.228,71.046 127.5,70.5C 127.109,71.7185 127.776,72.5518 129.5,73C 133.728,73.933 135.395,72.433 134.5,68.5C 130.538,68.1083 126.872,66.9416 123.5,65C 122.62,63.6439 122.286,62.1439 122.5,60.5C 119.022,60.8158 115.688,60.3158 112.5,59C 114.315,58.2432 115.981,57.4098 117.5,56.5C 119.734,56.6199 121.901,56.2865 124,55.5C 128.963,57.405 133.797,59.405 138.5,61.5C 138.5,60.5 138.5,59.5 138.5,58.5 Z"/></g>
<g><path style="opacity:1" fill="#b47e2b" d="M 148.5,55.5 C 148.833,55.5 149.167,55.5 149.5,55.5C 155.177,60.1777 160.177,65.511 164.5,71.5C 164.218,72.7777 163.551,73.7777 162.5,74.5C 159.565,71.0622 156.399,67.7289 153,64.5C 152.667,62.8333 152.333,61.1667 152,59.5C 149.929,58.8971 148.762,57.5638 148.5,55.5 Z"/></g>
<g><path style="opacity:1" fill="#f1e8d6" d="M 149.5,55.5 C 153.618,57.78 157.618,60.28 161.5,63C 169.912,71.9897 175.579,82.4897 178.5,94.5C 177,93.3748 175.667,92.0414 174.5,90.5C 174.672,89.5084 174.338,88.8417 173.5,88.5C 172.321,81.8067 169.321,76.1401 164.5,71.5C 160.177,65.511 155.177,60.1777 149.5,55.5 Z"/></g>
<g><path style="opacity:1" fill="#e0dbbe" d="M 124.5,75.5 C 127.009,76.9213 129.343,78.5879 131.5,80.5C 130.391,80.4431 129.391,80.1098 128.5,79.5C 124.429,77.3654 120.095,76.0321 115.5,75.5C 115.167,75.5 114.833,75.5 114.5,75.5C 112.696,74.838 110.696,74.5046 108.5,74.5C 105.186,74.3425 102.186,75.0092 99.5,76.5C 95.6907,77.332 92.3573,78.9986 89.5,81.5C 86.8333,83.5 84.1667,85.5 81.5,87.5C 81.5,87.1667 81.5,86.8333 81.5,86.5C 83.5,83.8333 85.8333,81.5 88.5,79.5C 89.1667,79.1667 89.8333,78.8333 90.5,78.5C 97.5361,74.8781 105.036,72.5448 113,71.5C 116.743,72.9477 120.576,74.281 124.5,75.5 Z"/></g>
<g><path style="opacity:1" fill="#4f4e50" d="M 114.5,75.5 C 109.463,75.4126 104.463,75.746 99.5,76.5C 102.186,75.0092 105.186,74.3425 108.5,74.5C 110.696,74.5046 112.696,74.838 114.5,75.5 Z"/></g>
<g><path style="opacity:1" fill="#deb520" d="M 200.5,59.5 C 205.789,67.6932 209.123,76.6932 210.5,86.5C 209.4,84.7226 208.566,82.7226 208,80.5C 206.989,79.6634 205.822,79.33 204.5,79.5C 205.752,84.5372 205.752,89.8705 204.5,95.5C 201.735,81.2168 196.401,67.8835 188.5,55.5C 189.607,53.0311 191.607,52.0311 194.5,52.5C 194.684,56.3534 196.684,58.6867 200.5,59.5 Z"/></g>
<g><path style="opacity:1" fill="#ead97e" d="M 64.5,63.5 C 64.3284,64.4916 64.6618,65.1583 65.5,65.5C 63.4202,67.5732 61.7536,69.9066 60.5,72.5C 58.4503,74.2368 56.617,76.2368 55,78.5C 52.6552,82.1885 51.1552,86.1885 50.5,90.5C 48.0339,94.0184 47.0339,98.0184 47.5,102.5C 46.209,102.737 45.209,102.404 44.5,101.5C 44.7467,95.9924 45.9134,90.659 48,85.5C 50.4458,81.6056 52.6124,77.6056 54.5,73.5C 57.5,69.8333 60.8333,66.5 64.5,63.5 Z"/></g>
<g><path style="opacity:1" fill="#b2831a" d="M 90.5,78.5 C 89.8333,78.8333 89.1667,79.1667 88.5,79.5C 88.5,78.1667 87.8333,77.5 86.5,77.5C 86.8333,76.8333 87.1667,76.1667 87.5,75.5C 88.1667,75.5 88.5,75.1667 88.5,74.5C 90.2161,74.3713 91.8828,74.038 93.5,73.5C 95.1368,72.7822 96.8034,72.6155 98.5,73C 95.2788,74.104 92.6122,75.9374 90.5,78.5 Z"/></g>
<g><path style="opacity:1" fill="#282514" d="M 115.5,75.5 C 120.095,76.0321 124.429,77.3654 128.5,79.5C 129.76,82.5958 131.926,84.9292 135,86.5C 136.958,86.2086 138.458,87.2086 139.5,89.5C 138.209,89.2627 137.209,89.596 136.5,90.5C 127.801,81.4927 117.134,77.4927 104.5,78.5C 108.191,77.6066 111.858,76.6066 115.5,75.5 Z"/></g>
<g><path style="opacity:1" fill="#fde15d" d="M 159.5,81.5 C 160.434,82.5676 160.768,83.901 160.5,85.5C 162.752,90.2572 164.419,95.2572 165.5,100.5C 161.154,100.666 156.821,100.499 152.5,100C 152.833,99.6667 153.167,99.3333 153.5,99C 152.207,98.51 150.873,98.3433 149.5,98.5C 149.662,96.4727 149.495,94.4727 149,92.5C 148.184,91.1772 147.017,90.5106 145.5,90.5C 143.514,86.2611 142.514,81.9278 142.5,77.5C 146.762,77.0078 150.929,77.0078 155,77.5C 155.492,78.549 155.326,79.549 154.5,80.5C 156.045,81.4519 157.712,81.7852 159.5,81.5 Z"/></g>
<g><path style="opacity:1" fill="#12130f" d="M 114.5,75.5 C 114.833,75.5 115.167,75.5 115.5,75.5C 111.858,76.6066 108.191,77.6066 104.5,78.5C 101.921,78.3939 99.588,79.0605 97.5,80.5C 95.5168,81.4706 93.5168,82.4706 91.5,83.5C 90.1667,83.5 89.5,82.8333 89.5,81.5C 92.3573,78.9986 95.6907,77.332 99.5,76.5C 104.463,75.746 109.463,75.4126 114.5,75.5 Z"/></g>
<g><path style="opacity:1" fill="#fce764" d="M 87.5,75.5 C 87.1667,76.1667 86.8333,76.8333 86.5,77.5C 82.8125,79.4918 79.8125,82.1585 77.5,85.5C 74.821,85.5246 73.4877,86.858 73.5,89.5C 69.9267,89.0412 66.9267,90.0412 64.5,92.5C 62.1688,91.4737 60.1688,90.1403 58.5,88.5C 58.7058,86.4508 59.5391,86.1175 61,87.5C 61.3333,85.5 61.6667,83.5 62,81.5C 62.414,81.9574 62.914,82.2907 63.5,82.5C 64.4519,80.9547 64.7852,79.288 64.5,77.5C 67.5879,77.3773 70.2546,78.3773 72.5,80.5C 77.1501,77.8388 82.1501,76.1722 87.5,75.5 Z"/></g>
<g><path style="opacity:1" fill="#998141" d="M 55.5,69.5 C 55.1667,70.8333 54.8333,72.1667 54.5,73.5C 52.6124,77.6056 50.4458,81.6056 48,85.5C 45.9134,90.659 44.7467,95.9924 44.5,101.5C 42.5437,107.412 41.8771,113.745 42.5,120.5C 41.5119,115.36 41.1786,110.026 41.5,104.5C 42.3932,91.1985 47.0599,79.5319 55.5,69.5 Z"/></g>
<g><path style="opacity:1" fill="#94631f" d="M 86.5,77.5 C 87.8333,77.5 88.5,78.1667 88.5,79.5C 85.8333,81.5 83.5,83.8333 81.5,86.5C 80.8333,86.8333 80.1667,87.1667 79.5,87.5C 79.5912,85.3023 78.9245,84.9689 77.5,86.5C 77.5,86.1667 77.5,85.8333 77.5,85.5C 79.8125,82.1585 82.8125,79.4918 86.5,77.5 Z"/></g>
<g><path style="opacity:1" fill="#b97e22" d="M 138.5,82.5 C 137.662,82.8417 137.328,83.5084 137.5,84.5C 135.754,82.7484 133.754,81.4151 131.5,80.5C 129.343,78.5879 127.009,76.9213 124.5,75.5C 124.047,74.5416 123.381,73.7083 122.5,73C 129.712,73.0529 135.045,76.2196 138.5,82.5 Z"/></g>
<g><path style="opacity:1" fill="#edd907" d="M 115.5,97.5 C 115.5,96.8333 115.167,96.5 114.5,96.5C 110.802,93.5624 107.469,93.8957 104.5,97.5C 103.532,99.6074 103.198,101.941 103.5,104.5C 96.1591,104.334 88.8258,104.5 81.5,105C 80.5842,105.278 79.9175,105.778 79.5,106.5C 78.8761,106.083 78.5427,105.416 78.5,104.5C 79.762,101.978 80.4287,99.3113 80.5,96.5C 81.3403,94.1475 82.6736,92.1475 84.5,90.5C 85.9613,91.6857 87.2946,91.6857 88.5,90.5C 91.4495,88.8847 94.1162,86.8847 96.5,84.5C 97.8366,83.6851 98.8366,82.5185 99.5,81C 106.158,80.5004 112.825,80.3337 119.5,80.5C 119.297,82.3904 119.963,83.8904 121.5,85C 126.019,85.5189 129.519,87.6856 132,91.5C 133.427,95.3887 134.927,99.2221 136.5,103C 130.167,103.667 123.833,103.667 117.5,103C 116.891,101.052 116.224,99.2184 115.5,97.5 Z"/></g>
<g><path style="opacity:1" fill="#f4e77f" d="M 88.5,58.5 C 87.3646,60.2132 85.698,60.8799 83.5,60.5C 83.5,61.5 83.5,62.5 83.5,63.5C 79.9323,64.3697 76.599,65.8697 73.5,68C 71.6449,72.3526 68.6449,75.5193 64.5,77.5C 64.7852,79.288 64.4519,80.9547 63.5,82.5C 62.914,82.2907 62.414,81.9574 62,81.5C 61.6667,83.5 61.3333,85.5 61,87.5C 59.5391,86.1175 58.7058,86.4508 58.5,88.5C 57.8444,89.2778 57.0111,89.9444 56,90.5C 55.2352,90.4301 54.7352,90.0967 54.5,89.5C 55.8251,83.1868 58.8251,77.8535 63.5,73.5C 66.1667,71.1667 68.8333,68.8333 71.5,66.5C 77.2258,63.8209 82.8924,61.1543 88.5,58.5 Z"/></g>
<g><path style="opacity:1" fill="#7c4a14" d="M 163.5,81.5 C 165.96,87.0088 167.96,92.6755 169.5,98.5C 168.033,95.7417 167.367,96.075 167.5,99.5C 167.167,99.5 166.833,99.5 166.5,99.5C 165.572,95.0477 164.238,90.7144 162.5,86.5C 162.322,85.3052 161.989,84.1385 161.5,83C 161.836,81.9701 162.503,81.4701 163.5,81.5 Z"/></g>
<g><path style="opacity:1" fill="#8d5a24" d="M 164.5,71.5 C 169.321,76.1401 172.321,81.8067 173.5,88.5C 173.664,91.1873 173.497,93.854 173,96.5C 172.722,95.5842 172.222,94.9175 171.5,94.5C 169.578,87.3242 166.578,80.6576 162.5,74.5C 163.551,73.7777 164.218,72.7777 164.5,71.5 Z"/></g>
<g><path style="opacity:1" fill="#c7c37a" d="M 91.5,84.5 C 90.0401,86.4628 88.3734,88.2962 86.5,90C 87.0944,90.4643 87.7611,90.631 88.5,90.5C 87.2946,91.6857 85.9613,91.6857 84.5,90.5C 86.2393,87.7573 88.5726,85.7573 91.5,84.5 Z"/></g>
<g><path style="opacity:1" fill="#eae8d8" d="M 97.5,80.5 C 96.7659,81.7079 96.4326,83.0413 96.5,84.5C 94.1162,86.8847 91.4495,88.8847 88.5,90.5C 87.7611,90.631 87.0944,90.4643 86.5,90C 88.3734,88.2962 90.0401,86.4628 91.5,84.5C 91.5,84.1667 91.5,83.8333 91.5,83.5C 93.5168,82.4706 95.5168,81.4706 97.5,80.5 Z"/></g>
<g><path style="opacity:1" fill="#9e6e25" d="M 138.5,82.5 C 140.833,85.1667 143.167,87.8333 145.5,90.5C 146.258,94.0229 147.591,97.3562 149.5,100.5C 152.333,100.833 155.167,101.167 158,101.5C 161.252,101.481 164.085,100.814 166.5,99.5C 166.833,99.5 167.167,99.5 167.5,99.5C 167.5,100.5 167.5,101.5 167.5,102.5C 160.978,102.177 154.645,102.51 148.5,103.5C 146.139,96.4487 142.472,90.1154 137.5,84.5C 137.328,83.5084 137.662,82.8417 138.5,82.5 Z"/></g>
<g><path style="opacity:1" fill="#f7d75b" d="M 77.5,85.5 C 77.5,85.8333 77.5,86.1667 77.5,86.5C 76.8333,87.1667 76.1667,87.8333 75.5,88.5C 72.1649,92.0858 70.1649,96.4191 69.5,101.5C 63.1667,101.5 56.8333,101.5 50.5,101.5C 50.5,99.8333 50.5,98.1667 50.5,96.5C 51.1051,93.6947 52.4384,91.3613 54.5,89.5C 54.7352,90.0967 55.2352,90.4301 56,90.5C 57.0111,89.9444 57.8444,89.2778 58.5,88.5C 60.1688,90.1403 62.1688,91.4737 64.5,92.5C 66.9267,90.0412 69.9267,89.0412 73.5,89.5C 73.4877,86.858 74.821,85.5246 77.5,85.5 Z"/></g>
<g><path style="opacity:1" fill="#8e8169" d="M 128.5,79.5 C 129.391,80.1098 130.391,80.4431 131.5,80.5C 133.754,81.4151 135.754,82.7484 137.5,84.5C 142.472,90.1154 146.139,96.4487 148.5,103.5C 148.5,103.833 148.5,104.167 148.5,104.5C 148.5,109.5 148.5,114.5 148.5,119.5C 145.872,128.459 140.872,135.792 133.5,141.5C 132.609,142.11 131.609,142.443 130.5,142.5C 148.301,127.311 151.301,109.645 139.5,89.5C 138.458,87.2086 136.958,86.2086 135,86.5C 131.926,84.9292 129.76,82.5958 128.5,79.5 Z"/></g>
<g><path style="opacity:1" fill="#c1aa12" d="M 104.5,78.5 C 117.134,77.4927 127.801,81.4927 136.5,90.5C 138.098,92.6979 139.431,95.0313 140.5,97.5C 140.462,100.181 141.129,102.681 142.5,105C 142.164,106.03 141.497,106.53 140.5,106.5C 138.883,105.962 137.216,105.629 135.5,105.5C 129.021,104.509 122.354,104.176 115.5,104.5C 115.5,102.167 115.5,99.8333 115.5,97.5C 116.224,99.2184 116.891,101.052 117.5,103C 123.833,103.667 130.167,103.667 136.5,103C 134.927,99.2221 133.427,95.3887 132,91.5C 129.519,87.6856 126.019,85.5189 121.5,85C 119.963,83.8904 119.297,82.3904 119.5,80.5C 112.825,80.3337 106.158,80.5004 99.5,81C 98.8366,82.5185 97.8366,83.6851 96.5,84.5C 96.4326,83.0413 96.7659,81.7079 97.5,80.5C 99.588,79.0605 101.921,78.3939 104.5,78.5 Z"/></g>
<g><path style="opacity:1" fill="#fcf3c7" d="M 23.5,95.5 C 28.9753,94.5111 34.642,94.1778 40.5,94.5C 40.5,97.8333 40.5,101.167 40.5,104.5C 40.1667,104.5 39.8333,104.5 39.5,104.5C 39.5,103.5 39.5,102.5 39.5,101.5C 39.5,99.5 39.5,97.5 39.5,95.5C 34.5,95.5 29.5,95.5 24.5,95.5C 24.1667,95.5 23.8333,95.5 23.5,95.5 Z"/></g>
<g><path style="opacity:1" fill="#e9dbaf" d="M 174.5,90.5 C 175.667,92.0414 177,93.3748 178.5,94.5C 185.022,94.1765 191.355,94.5098 197.5,95.5C 191.167,95.5 184.833,95.5 178.5,95.5C 177.596,96.209 177.263,97.209 177.5,98.5C 176.129,96.064 175.129,93.3973 174.5,90.5 Z"/></g>
<g><path style="opacity:1" fill="#100f0e" d="M 114.5,96.5 C 114.5,99.5 114.5,102.5 114.5,105.5C 121.5,105.5 128.5,105.5 135.5,105.5C 137.216,105.629 138.883,105.962 140.5,106.5C 140.5,106.833 140.5,107.167 140.5,107.5C 131.956,106.299 123.123,106.299 114,107.5C 113.722,106.584 113.222,105.918 112.5,105.5C 111.417,105.461 110.417,105.127 109.5,104.5C 108.476,105.853 107.143,106.52 105.5,106.5C 98.1667,106.5 90.8333,106.5 83.5,106.5C 90.3134,105.509 97.3134,105.175 104.5,105.5C 104.5,102.833 104.5,100.167 104.5,97.5C 107.469,93.8957 110.802,93.5624 114.5,96.5 Z"/></g>
<g><path style="opacity:1" fill="#f6dc58" d="M 24.5,95.5 C 29.5,95.5 34.5,95.5 39.5,95.5C 39.5,97.5 39.5,99.5 39.5,101.5C 38.596,102.209 38.2627,103.209 38.5,104.5C 33.8333,104.5 29.1667,104.5 24.5,104.5C 24.5,101.5 24.5,98.5 24.5,95.5 Z"/></g>
<g><path style="opacity:1" fill="#b08d3a" d="M 75.5,88.5 C 73.6472,92.9341 71.6472,97.2675 69.5,101.5C 70.1649,96.4191 72.1649,92.0858 75.5,88.5 Z"/></g>
<g><path style="opacity:1" fill="#efcf37" d="M 7.5,90.5 C 7.33499,93.8499 7.50166,97.1832 8,100.5C 8.49001,99.2068 8.65668,97.8734 8.5,96.5C 11.41,95.3528 14.41,94.3528 17.5,93.5C 17.1667,95.5 16.8333,97.5 16.5,99.5C 15.6981,100.952 15.1981,102.618 15,104.5C 12.939,104.889 10.7723,105.889 8.5,107.5C 7.74917,108.376 7.24917,109.376 7,110.5C 6.50051,104.509 6.33385,98.5092 6.5,92.5C 6.32842,91.5084 6.66175,90.8417 7.5,90.5 Z"/></g>
<g><path style="opacity:1" fill="#b0a412" d="M 80.5,96.5 C 80.4287,99.3113 79.762,101.978 78.5,104.5C 78.5427,105.416 78.8761,106.083 79.5,106.5C 79.5,107.167 79.1667,107.5 78.5,107.5C 77.6618,107.158 77.3284,106.492 77.5,105.5C 77.1324,101.956 78.1324,98.9557 80.5,96.5 Z"/></g>
<g><path style="opacity:1" fill="#aea595" d="M 81.5,86.5 C 81.5,86.8333 81.5,87.1667 81.5,87.5C 75.7163,96.3009 73.2163,105.968 74,116.5C 74.9406,119.154 75.7739,121.821 76.5,124.5C 78.9647,127.614 80.9647,130.947 82.5,134.5C 85.1938,137.86 88.1938,140.86 91.5,143.5C 89.7162,143.107 88.0495,142.441 86.5,141.5C 86.5,140.833 86.1667,140.5 85.5,140.5C 85.5,139.833 85.1667,139.5 84.5,139.5C 80.6523,135.113 77.319,130.447 74.5,125.5C 72.8185,118.288 72.1518,110.955 72.5,103.5C 73.7476,97.6734 76.0809,92.3401 79.5,87.5C 80.1667,87.1667 80.8333,86.8333 81.5,86.5 Z"/></g>
<g><path style="opacity:1" fill="#e6c44d" d="M 160.5,85.5 C 161.167,85.8333 161.833,86.1667 162.5,86.5C 164.238,90.7144 165.572,95.0477 166.5,99.5C 164.085,100.814 161.252,101.481 158,101.5C 155.167,101.167 152.333,100.833 149.5,100.5C 147.591,97.3562 146.258,94.0229 145.5,90.5C 147.017,90.5106 148.184,91.1772 149,92.5C 149.495,94.4727 149.662,96.4727 149.5,98.5C 150.873,98.3433 152.207,98.51 153.5,99C 153.167,99.3333 152.833,99.6667 152.5,100C 156.821,100.499 161.154,100.666 165.5,100.5C 164.419,95.2572 162.752,90.2572 160.5,85.5 Z"/></g>
<g><path style="opacity:1" fill="#d6a816" d="M 178.5,95.5 C 184.833,95.5 191.167,95.5 197.5,95.5C 197.5,98.8333 197.5,102.167 197.5,105.5C 191.5,105.5 185.5,105.5 179.5,105.5C 178.586,102.272 178.253,98.9387 178.5,95.5 Z"/></g>
<g><path style="opacity:1" fill="#5a340c" d="M 169.5,98.5 C 169.5,99.5 169.5,100.5 169.5,101.5C 170.568,102.434 171.901,102.768 173.5,102.5C 173.34,100.801 173.506,99.1341 174,97.5C 174.758,99.7695 174.591,101.936 173.5,104C 165.173,104.5 156.84,104.666 148.5,104.5C 148.5,104.167 148.5,103.833 148.5,103.5C 154.645,102.51 160.978,102.177 167.5,102.5C 167.5,101.5 167.5,100.5 167.5,99.5C 167.367,96.075 168.033,95.7417 169.5,98.5 Z"/></g>
<g><path style="opacity:1" fill="#ead391" d="M 211.5,90.5 C 212.975,95.7574 213.642,101.257 213.5,107C 213.499,110.683 213.165,114.183 212.5,117.5C 212.552,108.482 212.218,99.4818 211.5,90.5 Z"/></g>
<g><path style="opacity:1" fill="#f6ea8b" d="M 23.5,95.5 C 23.8333,95.5 24.1667,95.5 24.5,95.5C 24.5,98.5 24.5,101.5 24.5,104.5C 29.1667,104.5 33.8333,104.5 38.5,104.5C 38.2627,103.209 38.596,102.209 39.5,101.5C 39.5,102.5 39.5,103.5 39.5,104.5C 34.3595,105.488 29.0262,105.821 23.5,105.5C 23.5,102.167 23.5,98.8333 23.5,95.5 Z"/></g>
<g><path style="opacity:1" fill="#494310" d="M 114.5,96.5 C 115.167,96.5 115.5,96.8333 115.5,97.5C 115.5,99.8333 115.5,102.167 115.5,104.5C 122.354,104.176 129.021,104.509 135.5,105.5C 128.5,105.5 121.5,105.5 114.5,105.5C 114.5,102.5 114.5,99.5 114.5,96.5 Z"/></g>
<g><path style="opacity:1" fill="#423b11" d="M 104.5,97.5 C 104.5,100.167 104.5,102.833 104.5,105.5C 97.3134,105.175 90.3134,105.509 83.5,106.5C 82.1667,106.5 80.8333,106.5 79.5,106.5C 79.9175,105.778 80.5842,105.278 81.5,105C 88.8258,104.5 96.1591,104.334 103.5,104.5C 103.198,101.941 103.532,99.6074 104.5,97.5 Z"/></g>
<g><path style="opacity:1" fill="#faf3c1" d="M 5.5,99.5 C 5.25787,109.902 5.92453,120.235 7.5,130.5C 5.98226,127.466 5.14893,124.133 5,120.5C 4.17874,113.321 4.3454,106.321 5.5,99.5 Z"/></g>
<g><path style="opacity:1" fill="#784d15" d="M 79.5,87.5 C 76.0809,92.3401 73.7476,97.6734 72.5,103.5C 65.6457,103.176 58.979,103.509 52.5,104.5C 52.1667,104.5 51.8333,104.5 51.5,104.5C 50.5,104.5 49.5,104.5 48.5,104.5C 47.4583,103.209 46.2917,103.209 45,104.5C 44.5012,108.486 44.3345,112.486 44.5,116.5C 44.6602,118.199 44.4935,119.866 44,121.5C 43.6174,120.944 43.1174,120.611 42.5,120.5C 41.8771,113.745 42.5437,107.412 44.5,101.5C 45.209,102.404 46.209,102.737 47.5,102.5C 47.0339,98.0184 48.0339,94.0184 50.5,90.5C 50.0461,92.7411 50.0461,94.7411 50.5,96.5C 50.5,98.1667 50.5,99.8333 50.5,101.5C 56.8333,101.5 63.1667,101.5 69.5,101.5C 71.6472,97.2675 73.6472,92.9341 75.5,88.5C 76.1667,87.8333 76.8333,87.1667 77.5,86.5C 78.9245,84.9689 79.5912,85.3023 79.5,87.5 Z"/></g>
<g><path style="opacity:1" fill="#201f19" d="M 89.5,81.5 C 89.5,82.8333 90.1667,83.5 91.5,83.5C 91.5,83.8333 91.5,84.1667 91.5,84.5C 88.5726,85.7573 86.2393,87.7573 84.5,90.5C 82.6736,92.1475 81.3403,94.1475 80.5,96.5C 78.1324,98.9557 77.1324,101.956 77.5,105.5C 76.1667,109.167 76.1667,112.833 77.5,116.5C 77.5,117.833 77.5,119.167 77.5,120.5C 77.7678,122.099 77.4345,123.432 76.5,124.5C 75.7739,121.821 74.9406,119.154 74,116.5C 73.2163,105.968 75.7163,96.3009 81.5,87.5C 84.1667,85.5 86.8333,83.5 89.5,81.5 Z"/></g>
<g><path style="opacity:1" fill="#7e5b17" d="M 173.5,88.5 C 174.338,88.8417 174.672,89.5084 174.5,90.5C 175.129,93.3973 176.129,96.064 177.5,98.5C 177.731,107.912 177.064,117.245 175.5,126.5C 174.833,124.833 174.167,123.167 173.5,121.5C 172.5,121.5 171.5,121.5 170.5,121.5C 169.939,126.176 168.606,130.509 166.5,134.5C 166.062,133.494 165.396,133.494 164.5,134.5C 165.883,131.139 166.883,127.639 167.5,124C 167.472,122.93 167.139,122.097 166.5,121.5C 160.833,121.5 155.167,121.5 149.5,121.5C 155.319,120.672 161.319,120.172 167.5,120C 165.03,118.886 162.364,118.386 159.5,118.5C 155.81,118.692 152.143,119.025 148.5,119.5C 148.5,114.5 148.5,109.5 148.5,104.5C 156.84,104.666 165.173,104.5 173.5,104C 174.591,101.936 174.758,99.7695 174,97.5C 173.506,99.1341 173.34,100.801 173.5,102.5C 171.901,102.768 170.568,102.434 169.5,101.5C 170.5,101.5 171.5,101.5 172.5,101.5C 172.007,99.1944 171.674,96.861 171.5,94.5C 172.222,94.9175 172.722,95.5842 173,96.5C 173.497,93.854 173.664,91.1873 173.5,88.5 Z"/></g>
<g><path style="opacity:1" fill="#746711" d="M 140.5,97.5 C 141.793,98.842 142.626,100.509 143,102.5C 143.667,108.5 143.667,114.5 143,120.5C 142.8,122.32 141.966,123.653 140.5,124.5C 142.428,120.137 142.761,115.804 141.5,111.5C 141.768,109.901 141.434,108.568 140.5,107.5C 140.5,107.167 140.5,106.833 140.5,106.5C 141.497,106.53 142.164,106.03 142.5,105C 141.129,102.681 140.462,100.181 140.5,97.5 Z"/></g>
<g><path style="opacity:1" fill="#8b7f19" d="M 77.5,105.5 C 77.3284,106.492 77.6618,107.158 78.5,107.5C 78.5,108.833 78.5,110.167 78.5,111.5C 77.5489,112.919 77.2155,114.585 77.5,116.5C 76.1667,112.833 76.1667,109.167 77.5,105.5 Z"/></g>
<g><path style="opacity:1" fill="#e2bc4a" d="M 51.5,104.5 C 51.8333,104.5 52.1667,104.5 52.5,104.5C 52.8333,104.5 53.1667,104.5 53.5,104.5C 53.5,110.833 53.5,117.167 53.5,123.5C 51.7517,117.426 51.085,111.093 51.5,104.5 Z"/></g>
<g><path style="opacity:1" fill="#fcde5b" d="M 53.5,104.5 C 59.1667,104.5 64.8333,104.5 70.5,104.5C 70.7947,106.735 70.4614,108.735 69.5,110.5C 68.3445,114.762 67.0112,119.095 65.5,123.5C 65.7093,124.086 66.0426,124.586 66.5,125C 64.8659,125.494 63.1992,125.66 61.5,125.5C 61.6697,132.683 60.3364,133.183 57.5,127C 56.0993,126.59 54.766,126.09 53.5,125.5C 53.5,124.833 53.5,124.167 53.5,123.5C 53.5,117.167 53.5,110.833 53.5,104.5 Z"/></g>
<g><path style="opacity:1" fill="#cf9e19" d="M 210.5,86.5 C 211.234,87.7079 211.567,89.0413 211.5,90.5C 212.218,99.4818 212.552,108.482 212.5,117.5C 211.444,122.781 210.777,128.114 210.5,133.5C 209.833,134.5 209.167,135.5 208.5,136.5C 208.364,133.449 208.698,130.449 209.5,127.5C 209.075,125.62 208.075,124.12 206.5,123C 207.923,121.588 207.756,120.421 206,119.5C 205.721,122.457 204.887,125.123 203.5,127.5C 204.404,116.865 204.737,106.198 204.5,95.5C 205.752,89.8705 205.752,84.5372 204.5,79.5C 205.822,79.33 206.989,79.6634 208,80.5C 208.566,82.7226 209.4,84.7226 210.5,86.5 Z"/></g>
<g><path style="opacity:1" fill="#d4aa44" d="M 48.5,104.5 C 48.5,111.833 48.5,119.167 48.5,126.5C 48.5912,128.698 47.9245,129.031 46.5,127.5C 45.9736,123.688 45.3069,120.021 44.5,116.5C 44.3345,112.486 44.5012,108.486 45,104.5C 46.2917,103.209 47.4583,103.209 48.5,104.5 Z"/></g>
<g><path style="opacity:1" fill="#d1c741" d="M 91.5,124.5 C 89.744,123.448 89.0773,121.781 89.5,119.5C 87.901,119.768 86.5676,119.434 85.5,118.5C 86.552,118.649 87.552,118.483 88.5,118C 90.8497,114.158 94.183,112.492 98.5,113C 96.0934,115.285 93.5934,117.451 91,119.5C 90.3603,121.265 90.5269,122.932 91.5,124.5 Z"/></g>
<g><path style="opacity:1" fill="#d2d0ca" d="M 112.5,105.5 C 112.888,107.685 113.888,109.518 115.5,111C 114.873,113.135 114.373,115.302 114,117.5C 109.607,121.897 106.107,121.231 103.5,115.5C 105.774,112.696 106.44,109.696 105.5,106.5C 107.143,106.52 108.476,105.853 109.5,104.5C 110.417,105.127 111.417,105.461 112.5,105.5 Z"/></g>
<g><path style="opacity:1" fill="#e0d446" d="M 141.5,111.5 C 142.761,115.804 142.428,120.137 140.5,124.5C 140.672,125.492 140.338,126.158 139.5,126.5C 138.222,126.782 137.222,127.449 136.5,128.5C 135.564,125.862 133.897,125.195 131.5,126.5C 128.326,126.009 125.326,125.343 122.5,124.5C 124.833,124.5 127.167,124.5 129.5,124.5C 128.522,119.819 125.855,116.153 121.5,113.5C 122.365,112.417 123.365,112.251 124.5,113C 127.435,114.715 130.268,116.548 133,118.5C 137.165,117.682 139.998,115.348 141.5,111.5 Z"/></g>
<g><path style="opacity:1" fill="#f8e36c" d="M 39.5,116.5 C 39.5,119.167 39.5,121.833 39.5,124.5C 34.1667,124.5 28.8333,124.5 23.5,124.5C 23.5,121.167 23.5,117.833 23.5,114.5C 29.2709,113.887 34.6042,114.554 39.5,116.5 Z"/></g>
<g><path style="opacity:1" fill="#cd9a09" d="M 179.5,114.5 C 185.5,114.5 191.5,114.5 197.5,114.5C 197.5,117.833 197.5,121.167 197.5,124.5C 191.167,124.5 184.833,124.5 178.5,124.5C 178.253,121.061 178.586,117.728 179.5,114.5 Z"/></g>
<g><path style="opacity:1" fill="#bc9231" d="M 52.5,104.5 C 58.979,103.509 65.6457,103.176 72.5,103.5C 72.1518,110.955 72.8185,118.288 74.5,125.5C 73.8826,125.389 73.3826,125.056 73,124.5C 72.5065,126.134 72.3398,127.801 72.5,129.5C 72.1667,129.5 71.8333,129.5 71.5,129.5C 69.9946,123.278 69.328,116.945 69.5,110.5C 70.4614,108.735 70.7947,106.735 70.5,104.5C 64.8333,104.5 59.1667,104.5 53.5,104.5C 53.1667,104.5 52.8333,104.5 52.5,104.5 Z"/></g>
<g><path style="opacity:1" fill="#474541" d="M 112.5,105.5 C 113.222,105.918 113.722,106.584 114,107.5C 123.123,106.299 131.956,106.299 140.5,107.5C 141.434,108.568 141.768,109.901 141.5,111.5C 139.998,115.348 137.165,117.682 133,118.5C 130.268,116.548 127.435,114.715 124.5,113C 123.365,112.251 122.365,112.417 121.5,113.5C 125.855,116.153 128.522,119.819 129.5,124.5C 127.167,124.5 124.833,124.5 122.5,124.5C 122.047,123.542 121.381,122.708 120.5,122C 113.5,121.333 106.5,121.333 99.5,122C 97.3312,124.203 94.6646,125.036 91.5,124.5C 90.5269,122.932 90.3603,121.265 91,119.5C 93.5934,117.451 96.0934,115.285 98.5,113C 94.183,112.492 90.8497,114.158 88.5,118C 87.552,118.483 86.552,118.649 85.5,118.5C 82.1886,117.189 79.8552,114.855 78.5,111.5C 78.5,110.167 78.5,108.833 78.5,107.5C 79.1667,107.5 79.5,107.167 79.5,106.5C 80.8333,106.5 82.1667,106.5 83.5,106.5C 90.8333,106.5 98.1667,106.5 105.5,106.5C 106.44,109.696 105.774,112.696 103.5,115.5C 106.107,121.231 109.607,121.897 114,117.5C 114.373,115.302 114.873,113.135 115.5,111C 113.888,109.518 112.888,107.685 112.5,105.5 Z"/></g>
<g><path style="opacity:1" fill="#c8bc5d" d="M 107.5,113.5 C 108.978,113.238 110.311,113.571 111.5,114.5C 110.833,114.833 110.167,115.167 109.5,115.5C 108.287,115.253 107.62,114.586 107.5,113.5 Z"/></g>
<g><path style="opacity:1" fill="#403e37" d="M 109.5,109.5 C 111.337,109.639 111.67,110.306 110.5,111.5C 109.702,111.043 109.369,110.376 109.5,109.5 Z"/></g>
<g><path style="opacity:1" fill="#dbb046" d="M 149.5,121.5 C 155.167,121.5 160.833,121.5 166.5,121.5C 166.5,121.833 166.5,122.167 166.5,122.5C 161.167,122.5 155.833,122.5 150.5,122.5C 150.482,125.921 149.149,128.588 146.5,130.5C 148.086,127.743 149.086,124.743 149.5,121.5 Z"/></g>
<g><path style="opacity:1" fill="#c7ab61" d="M 178.5,95.5 C 178.253,98.9387 178.586,102.272 179.5,105.5C 178.167,108.5 178.167,111.5 179.5,114.5C 178.586,117.728 178.253,121.061 178.5,124.5C 177.022,125.448 176.022,126.781 175.5,128.5C 175.5,127.833 175.5,127.167 175.5,126.5C 177.064,117.245 177.731,107.912 177.5,98.5C 177.263,97.209 177.596,96.209 178.5,95.5 Z"/></g>
<g><path style="opacity:1" fill="#e8dab7" d="M 40.5,104.5 C 40.8333,104.5 41.1667,104.5 41.5,104.5C 41.1786,110.026 41.5119,115.36 42.5,120.5C 42.5,121.833 42.5,123.167 42.5,124.5C 41.5,124.5 40.5,124.5 39.5,124.5C 39.5,121.833 39.5,119.167 39.5,116.5C 40.4834,112.702 40.8168,108.702 40.5,104.5 Z"/></g>
<g><path style="opacity:1" fill="#f2e9ca" d="M 178.5,124.5 C 184.833,124.5 191.167,124.5 197.5,124.5C 191.021,125.491 184.354,125.824 177.5,125.5C 177.59,128.152 176.924,130.485 175.5,132.5C 175.5,131.167 175.5,129.833 175.5,128.5C 176.022,126.781 177.022,125.448 178.5,124.5 Z"/></g>
<g><path style="opacity:1" fill="#f9e471" d="M 6.5,92.5 C 6.33385,98.5092 6.50051,104.509 7,110.5C 7.24917,109.376 7.74917,108.376 8.5,107.5C 10.7723,105.889 12.939,104.889 15,104.5C 15.1981,102.618 15.6981,100.952 16.5,99.5C 15.8391,111.677 16.8391,123.677 19.5,135.5C 18.3995,133.723 17.5662,131.723 17,129.5C 16.5172,130.448 16.3505,131.448 16.5,132.5C 14.0072,132.329 12.1739,133.329 11,135.5C 10.3457,134.304 9.84569,134.304 9.5,135.5C 10.5,136.167 11.5,136.833 12.5,137.5C 12.1543,138.696 11.6543,138.696 11,137.5C 10.51,138.793 10.3433,140.127 10.5,141.5C 8.92569,138.093 7.92569,134.427 7.5,130.5C 5.92453,120.235 5.25787,109.902 5.5,99.5C 5.19845,96.9407 5.53178,94.6074 6.5,92.5 Z"/></g>
<g><path style="opacity:1" fill="#34301d" d="M 77.5,120.5 C 79.7822,124.803 82.1155,129.136 84.5,133.5C 83.0755,131.969 82.4088,132.302 82.5,134.5C 80.9647,130.947 78.9647,127.614 76.5,124.5C 77.4345,123.432 77.7678,122.099 77.5,120.5 Z"/></g>
<g><path style="opacity:1" fill="#d8cb39" d="M 122.5,124.5 C 115.733,122.455 108.733,121.955 101.5,123C 107.157,123.499 112.824,123.666 118.5,123.5C 118.795,125.735 118.461,127.735 117.5,129.5C 117.5,128.167 117.5,126.833 117.5,125.5C 112.36,124.512 107.026,124.179 101.5,124.5C 101.833,126.5 102.167,128.5 102.5,130.5C 101.849,131.091 101.182,131.757 100.5,132.5C 100.167,131.833 99.8333,131.167 99.5,130.5C 100.396,128.199 100.562,125.866 100,123.5C 97.3025,125.673 94.4692,126.006 91.5,124.5C 94.6646,125.036 97.3312,124.203 99.5,122C 106.5,121.333 113.5,121.333 120.5,122C 121.381,122.708 122.047,123.542 122.5,124.5 Z"/></g>
<g><path style="opacity:1" fill="#fbda5a" d="M 166.5,122.5 C 166.737,123.791 166.404,124.791 165.5,125.5C 161.279,129.274 158.613,133.941 157.5,139.5C 153.829,139.798 151.163,138.298 149.5,135C 148.552,134.517 147.552,134.351 146.5,134.5C 146.5,133.167 146.5,131.833 146.5,130.5C 149.149,128.588 150.482,125.921 150.5,122.5C 155.833,122.5 161.167,122.5 166.5,122.5 Z"/></g>
<g><path style="opacity:1" fill="#181714" d="M 139.5,89.5 C 151.301,109.645 148.301,127.311 130.5,142.5C 129.508,142.328 128.842,142.662 128.5,143.5C 126.456,144.508 124.456,145.508 122.5,146.5C 119.833,146.833 117.167,147.167 114.5,147.5C 110.167,147.5 105.833,147.5 101.5,147.5C 99.9674,145.755 97.9674,144.755 95.5,144.5C 94.1667,144.167 92.8333,143.833 91.5,143.5C 88.1938,140.86 85.1938,137.86 82.5,134.5C 82.4088,132.302 83.0755,131.969 84.5,133.5C 88.5155,137.508 93.1822,140.508 98.5,142.5C 101.695,144.03 105.195,144.696 109,144.5C 111.69,144.497 114.19,144.164 116.5,143.5C 120.007,143.08 123.341,142.08 126.5,140.5C 132.219,137.115 136.552,132.448 139.5,126.5C 140.338,126.158 140.672,125.492 140.5,124.5C 141.966,123.653 142.8,122.32 143,120.5C 143.667,114.5 143.667,108.5 143,102.5C 142.626,100.509 141.793,98.842 140.5,97.5C 139.431,95.0313 138.098,92.6979 136.5,90.5C 137.209,89.596 138.209,89.2627 139.5,89.5 Z"/></g>
<g><path style="opacity:1" fill="#553311" d="M 149.5,121.5 C 149.086,124.743 148.086,127.743 146.5,130.5C 143.775,134.729 140.441,138.562 136.5,142C 135.251,142.74 134.251,142.573 133.5,141.5C 140.872,135.792 145.872,128.459 148.5,119.5C 152.143,119.025 155.81,118.692 159.5,118.5C 162.364,118.386 165.03,118.886 167.5,120C 161.319,120.172 155.319,120.672 149.5,121.5 Z"/></g>
<g><path style="opacity:1" fill="#f5dc58" d="M 19.5,135.5 C 20.4067,137.657 21.0733,139.99 21.5,142.5C 19.5842,140.884 18.0842,141.218 17,143.5C 16.6924,142.692 16.1924,142.025 15.5,141.5C 14.451,143.528 13.451,145.528 12.5,147.5C 11.2616,145.786 10.595,143.786 10.5,141.5C 10.3433,140.127 10.51,138.793 11,137.5C 11.6543,138.696 12.1543,138.696 12.5,137.5C 11.5,136.833 10.5,136.167 9.5,135.5C 9.84569,134.304 10.3457,134.304 11,135.5C 12.1739,133.329 14.0072,132.329 16.5,132.5C 16.3505,131.448 16.5172,130.448 17,129.5C 17.5662,131.723 18.3995,133.723 19.5,135.5 Z"/></g>
<g><path style="opacity:1" fill="#f2c850" d="M 69.5,110.5 C 69.328,116.945 69.9946,123.278 71.5,129.5C 72.8456,133.036 73.8456,136.702 74.5,140.5C 73.448,140.649 72.448,140.483 71.5,140C 70.2135,136.178 68.2135,135.678 65.5,138.5C 65.0234,139.931 64.3567,141.264 63.5,142.5C 62.7174,140.712 61.3841,139.712 59.5,139.5C 56.1461,135.446 54.1461,130.779 53.5,125.5C 54.766,126.09 56.0993,126.59 57.5,127C 60.3364,133.183 61.6697,132.683 61.5,125.5C 63.1992,125.66 64.8659,125.494 66.5,125C 66.0426,124.586 65.7093,124.086 65.5,123.5C 67.0112,119.095 68.3445,114.762 69.5,110.5 Z"/></g>
<g><path style="opacity:1" fill="#ccca8e" d="M 139.5,126.5 C 136.552,132.448 132.219,137.115 126.5,140.5C 130.127,136.861 133.461,132.861 136.5,128.5C 137.222,127.449 138.222,126.782 139.5,126.5 Z"/></g>
<g><path style="opacity:1" fill="#ead680" d="M 166.5,121.5 C 167.139,122.097 167.472,122.93 167.5,124C 166.883,127.639 165.883,131.139 164.5,134.5C 162.007,140.98 158.341,146.646 153.5,151.5C 155.386,146.689 157.22,141.689 159,136.5C 161.421,132.929 163.587,129.262 165.5,125.5C 166.404,124.791 166.737,123.791 166.5,122.5C 166.5,122.167 166.5,121.833 166.5,121.5 Z"/></g>
<g><path style="opacity:1" fill="#efde20" d="M 78.5,111.5 C 79.8552,114.855 82.1886,117.189 85.5,118.5C 86.5676,119.434 87.901,119.768 89.5,119.5C 89.0773,121.781 89.744,123.448 91.5,124.5C 94.4692,126.006 97.3025,125.673 100,123.5C 100.562,125.866 100.396,128.199 99.5,130.5C 99.8333,131.167 100.167,131.833 100.5,132.5C 101.182,131.757 101.849,131.091 102.5,130.5C 107.363,130.819 112.03,130.486 116.5,129.5C 116.833,129.5 117.167,129.5 117.5,129.5C 118.461,127.735 118.795,125.735 118.5,123.5C 112.824,123.666 107.157,123.499 101.5,123C 108.733,121.955 115.733,122.455 122.5,124.5C 125.326,125.343 128.326,126.009 131.5,126.5C 133.897,125.195 135.564,125.862 136.5,128.5C 133.461,132.861 130.127,136.861 126.5,140.5C 123.341,142.08 120.007,143.08 116.5,143.5C 110.464,143.64 104.464,143.307 98.5,142.5C 93.1822,140.508 88.5155,137.508 84.5,133.5C 82.1155,129.136 79.7822,124.803 77.5,120.5C 77.5,119.167 77.5,117.833 77.5,116.5C 77.2155,114.585 77.5489,112.919 78.5,111.5 Z"/></g>
<g><path style="opacity:1" fill="#222017" d="M 105.5,134.5 C 108.304,133.362 111.304,133.195 114.5,134C 113.944,134.383 113.611,134.883 113.5,135.5C 110.468,138.323 107.801,137.99 105.5,134.5 Z"/></g>
<g><path style="opacity:1" fill="#ad9f21" d="M 113.5,135.5 C 113.611,134.883 113.944,134.383 114.5,134C 111.304,133.195 108.304,133.362 105.5,134.5C 104.957,134.44 104.624,134.107 104.5,133.5C 108.107,132.511 111.774,132.177 115.5,132.5C 115.715,134.179 115.048,135.179 113.5,135.5 Z"/></g>
<g><path style="opacity:1" fill="#75712e" d="M 117.5,125.5 C 112.489,125.334 107.489,125.501 102.5,126C 103.337,127.011 103.67,128.178 103.5,129.5C 107.833,129.5 112.167,129.5 116.5,129.5C 112.03,130.486 107.363,130.819 102.5,130.5C 102.167,128.5 101.833,126.5 101.5,124.5C 107.026,124.179 112.36,124.512 117.5,125.5 Z"/></g>
<g><path style="opacity:1" fill="#2f2f2e" d="M 117.5,125.5 C 117.5,126.833 117.5,128.167 117.5,129.5C 117.167,129.5 116.833,129.5 116.5,129.5C 112.167,129.5 107.833,129.5 103.5,129.5C 103.67,128.178 103.337,127.011 102.5,126C 107.489,125.501 112.489,125.334 117.5,125.5 Z"/></g>
<g><path style="opacity:1" fill="#a87930" d="M 74.5,125.5 C 77.319,130.447 80.6523,135.113 84.5,139.5C 82.5165,139.617 80.8498,138.95 79.5,137.5C 79.0166,139.917 80.1833,141.584 83,142.5C 84.301,142.361 85.1344,141.695 85.5,140.5C 86.1667,140.5 86.5,140.833 86.5,141.5C 84.0381,144.004 81.3714,144.004 78.5,141.5C 76.9125,137.259 74.9125,133.259 72.5,129.5C 72.3398,127.801 72.5065,126.134 73,124.5C 73.3826,125.056 73.8826,125.389 74.5,125.5 Z"/></g>
<g><path style="opacity:1" fill="#ead5a8" d="M 210.5,133.5 C 209.991,138.703 208.324,143.37 205.5,147.5C 206.703,143.89 207.703,140.223 208.5,136.5C 209.167,135.5 209.833,134.5 210.5,133.5 Z"/></g>
<g><path style="opacity:1" fill="#b6983f" d="M 146.5,130.5 C 146.5,131.833 146.5,133.167 146.5,134.5C 143.062,137.435 139.729,140.601 136.5,144C 135.552,144.483 134.552,144.649 133.5,144.5C 132.081,143.549 130.415,143.216 128.5,143.5C 128.842,142.662 129.508,142.328 130.5,142.5C 131.609,142.443 132.609,142.11 133.5,141.5C 134.251,142.573 135.251,142.74 136.5,142C 140.441,138.562 143.775,134.729 146.5,130.5 Z"/></g>
<g><path style="opacity:1" fill="#69380e" d="M 84.5,139.5 C 85.1667,139.5 85.5,139.833 85.5,140.5C 85.1344,141.695 84.301,142.361 83,142.5C 80.1833,141.584 79.0166,139.917 79.5,137.5C 80.8498,138.95 82.5165,139.617 84.5,139.5 Z"/></g>
<g><path style="opacity:1" fill="#c18f38" d="M 48.5,126.5 C 50.4141,133.661 53.4141,140.328 57.5,146.5C 61.8151,153.814 67.4817,159.814 74.5,164.5C 73.5084,164.328 72.8417,164.662 72.5,165.5C 59.5499,155.863 50.8832,143.196 46.5,127.5C 47.9245,129.031 48.5912,128.698 48.5,126.5 Z"/></g>
<g><path style="opacity:1" fill="#8c7224" d="M 173.5,121.5 C 174.167,123.167 174.833,124.833 175.5,126.5C 175.5,127.167 175.5,127.833 175.5,128.5C 175.5,129.833 175.5,131.167 175.5,132.5C 170.527,144.479 163.193,154.812 153.5,163.5C 152.662,163.158 152.328,162.492 152.5,161.5C 154.833,158.833 157.167,156.167 159.5,153.5C 167.437,144.388 172.103,133.722 173.5,121.5 Z"/></g>
<g><path style="opacity:1" fill="#b2a60e" d="M 98.5,142.5 C 104.464,143.307 110.464,143.64 116.5,143.5C 114.19,144.164 111.69,144.497 109,144.5C 105.195,144.696 101.695,144.03 98.5,142.5 Z"/></g>
<g><path style="opacity:1" fill="#daba59" d="M 78.5,141.5 C 81.3714,144.004 84.0381,144.004 86.5,141.5C 88.0495,142.441 89.7162,143.107 91.5,143.5C 92.8333,143.833 94.1667,144.167 95.5,144.5C 96.2623,146.262 97.5956,147.262 99.5,147.5C 101.14,148.79 101.64,150.457 101,152.5C 98.4327,155.731 95.266,158.231 91.5,160C 89.2101,161.777 87.5434,163.944 86.5,166.5C 83.6689,165.921 81.3356,164.588 79.5,162.5C 81.5273,162.662 83.5273,162.495 85.5,162C 87.5268,160.121 89.8602,158.954 92.5,158.5C 92.2196,155.612 93.5529,154.112 96.5,154C 93.5366,150.713 90.7032,150.88 88,154.5C 86.6012,153.773 85.1012,153.273 83.5,153C 82.3384,151.173 82.6718,149.506 84.5,148C 83.0456,146.287 81.2123,145.12 79,144.5C 78.5172,143.552 78.3505,142.552 78.5,141.5 Z"/></g>
<g><path style="opacity:1" fill="#9c691c" d="M 48.5,104.5 C 49.5,104.5 50.5,104.5 51.5,104.5C 51.085,111.093 51.7517,117.426 53.5,123.5C 53.5,124.167 53.5,124.833 53.5,125.5C 54.1461,130.779 56.1461,135.446 59.5,139.5C 63.5267,146.882 68.5267,153.549 74.5,159.5C 67.3251,156.499 61.8251,151.499 58,144.5C 57.5357,145.094 57.369,145.761 57.5,146.5C 53.4141,140.328 50.4141,133.661 48.5,126.5C 48.5,119.167 48.5,111.833 48.5,104.5 Z"/></g>
<g><path style="opacity:1" fill="#e0cf90" d="M 128.5,143.5 C 127.313,145.975 125.313,146.975 122.5,146.5C 124.456,145.508 126.456,144.508 128.5,143.5 Z"/></g>
<g><path style="opacity:1" fill="#e1bb50" d="M 71.5,129.5 C 71.8333,129.5 72.1667,129.5 72.5,129.5C 74.9125,133.259 76.9125,137.259 78.5,141.5C 78.3505,142.552 78.5172,143.552 79,144.5C 81.2123,145.12 83.0456,146.287 84.5,148C 82.6718,149.506 82.3384,151.173 83.5,153C 85.1012,153.273 86.6012,153.773 88,154.5C 90.7032,150.88 93.5366,150.713 96.5,154C 93.5529,154.112 92.2196,155.612 92.5,158.5C 89.8602,158.954 87.5268,160.121 85.5,162C 83.5273,162.495 81.5273,162.662 79.5,162.5C 77.5887,161.925 75.922,160.925 74.5,159.5C 68.5267,153.549 63.5267,146.882 59.5,139.5C 61.3841,139.712 62.7174,140.712 63.5,142.5C 64.3567,141.264 65.0234,139.931 65.5,138.5C 68.2135,135.678 70.2135,136.178 71.5,140C 72.448,140.483 73.448,140.649 74.5,140.5C 73.8456,136.702 72.8456,133.036 71.5,129.5 Z"/></g>
<g><path style="opacity:1" fill="#aba593" d="M 95.5,144.5 C 97.9674,144.755 99.9674,145.755 101.5,147.5C 100.833,147.5 100.167,147.5 99.5,147.5C 97.5956,147.262 96.2623,146.262 95.5,144.5 Z"/></g>
<g><path style="opacity:1" fill="#fae66a" d="M 165.5,125.5 C 163.587,129.262 161.421,132.929 159,136.5C 157.22,141.689 155.386,146.689 153.5,151.5C 152.448,151.351 151.448,151.517 150.5,152C 148.137,154.18 145.47,155.847 142.5,157C 139.9,160.427 136.567,162.927 132.5,164.5C 132.957,165.298 133.624,165.631 134.5,165.5C 134.5,165.833 134.5,166.167 134.5,166.5C 133.5,166.5 132.5,166.5 131.5,166.5C 131.162,163.843 131.829,161.51 133.5,159.5C 131.707,156.749 130.041,153.916 128.5,151C 131.231,149.058 134.231,147.558 137.5,146.5C 136.051,145.828 134.718,145.161 133.5,144.5C 134.552,144.649 135.552,144.483 136.5,144C 139.729,140.601 143.062,137.435 146.5,134.5C 147.552,134.351 148.552,134.517 149.5,135C 151.163,138.298 153.829,139.798 157.5,139.5C 158.613,133.941 161.279,129.274 165.5,125.5 Z"/></g>
<g><path style="opacity:1" fill="#ebc931" d="M 21.5,142.5 C 24.7072,147.581 27.3739,152.914 29.5,158.5C 27.4862,156.197 25.3196,154.864 23,154.5C 20.7621,156.309 19.5954,158.642 19.5,161.5C 16.6566,157.147 14.3232,152.48 12.5,147.5C 13.451,145.528 14.451,143.528 15.5,141.5C 16.1924,142.025 16.6924,142.692 17,143.5C 18.0842,141.218 19.5842,140.884 21.5,142.5 Z"/></g>
<g><path style="opacity:1" fill="#d7c370" d="M 173.5,121.5 C 172.103,133.722 167.437,144.388 159.5,153.5C 159.631,152.761 159.464,152.094 159,151.5C 155.902,155.107 152.402,158.107 148.5,160.5C 156.505,153.171 162.505,144.505 166.5,134.5C 168.606,130.509 169.939,126.176 170.5,121.5C 171.5,121.5 172.5,121.5 173.5,121.5 Z"/></g>
<g><path style="opacity:1" fill="#5b481a" d="M 166.5,134.5 C 162.505,144.505 156.505,153.171 148.5,160.5C 148.167,160.5 147.833,160.5 147.5,160.5C 146.833,160.5 146.5,160.167 146.5,159.5C 148.833,156.833 151.167,154.167 153.5,151.5C 158.341,146.646 162.007,140.98 164.5,134.5C 165.396,133.494 166.062,133.494 166.5,134.5 Z"/></g>
<g><path style="opacity:1" fill="#c38b15" d="M 208.5,136.5 C 207.703,140.223 206.703,143.89 205.5,147.5C 202.928,153.402 199.928,159.069 196.5,164.5C 196.717,161.565 197.383,158.731 198.5,156C 198.167,155.167 197.833,154.333 197.5,153.5C 195.814,154.857 194.148,156.19 192.5,157.5C 197.719,148.188 201.385,138.188 203.5,127.5C 204.887,125.123 205.721,122.457 206,119.5C 207.756,120.421 207.923,121.588 206.5,123C 208.075,124.12 209.075,125.62 209.5,127.5C 208.698,130.449 208.364,133.449 208.5,136.5 Z"/></g>
<g><path style="opacity:1" fill="#6d4012" d="M 74.5,159.5 C 75.922,160.925 77.5887,161.925 79.5,162.5C 81.3356,164.588 83.6689,165.921 86.5,166.5C 86.8417,167.338 87.5084,167.672 88.5,167.5C 89.937,168.725 91.6036,169.725 93.5,170.5C 92.3112,171.429 90.9778,171.762 89.5,171.5C 84.1834,170.01 79.1834,167.677 74.5,164.5C 67.4817,159.814 61.8151,153.814 57.5,146.5C 57.369,145.761 57.5357,145.094 58,144.5C 61.8251,151.499 67.3251,156.499 74.5,159.5 Z"/></g>
<g><path style="opacity:1" fill="#fbea50" d="M 111.5,149.5 C 113.546,152.366 116.213,154.533 119.5,156C 121.422,157.42 122.755,159.253 123.5,161.5C 124.795,162.098 126.128,162.598 127.5,163C 128.252,163.671 128.586,164.504 128.5,165.5C 122.605,170.106 115.938,171.773 108.5,170.5C 109.325,169.614 110.325,169.281 111.5,169.5C 109.654,163.325 108.654,157.325 108.5,151.5C 108.821,149.952 109.821,149.285 111.5,149.5 Z"/></g>
<g><path style="opacity:1" fill="#9f6e22" d="M 44.5,116.5 C 45.3069,120.021 45.9736,123.688 46.5,127.5C 50.8832,143.196 59.5499,155.863 72.5,165.5C 78.4483,169.725 84.9483,173.058 92,175.5C 93.3102,176.13 94.1435,177.13 94.5,178.5C 66.5617,170.564 49.2284,152.564 42.5,124.5C 42.5,123.167 42.5,121.833 42.5,120.5C 43.1174,120.611 43.6174,120.944 44,121.5C 44.4935,119.866 44.6602,118.199 44.5,116.5 Z"/></g>
<g><path style="opacity:1" fill="#f7db57" d="M 128.5,143.5 C 130.415,143.216 132.081,143.549 133.5,144.5C 134.718,145.161 136.051,145.828 137.5,146.5C 134.231,147.558 131.231,149.058 128.5,151C 130.041,153.916 131.707,156.749 133.5,159.5C 131.829,161.51 131.162,163.843 131.5,166.5C 130.609,165.89 129.609,165.557 128.5,165.5C 128.586,164.504 128.252,163.671 127.5,163C 126.128,162.598 124.795,162.098 123.5,161.5C 122.755,159.253 121.422,157.42 119.5,156C 116.213,154.533 113.546,152.366 111.5,149.5C 113.179,149.715 114.179,149.048 114.5,147.5C 117.167,147.167 119.833,146.833 122.5,146.5C 125.313,146.975 127.313,145.975 128.5,143.5 Z"/></g>
<g><path style="opacity:1" fill="#f6c63e" d="M 108.5,151.5 C 108.654,157.325 109.654,163.325 111.5,169.5C 110.325,169.281 109.325,169.614 108.5,170.5C 115.938,171.773 122.605,170.106 128.5,165.5C 129.609,165.557 130.609,165.89 131.5,166.5C 130.251,168.136 128.584,169.303 126.5,170C 121.01,171.889 115.343,172.722 109.5,172.5C 106.615,172.806 103.948,172.473 101.5,171.5C 102.098,166.187 102.431,160.854 102.5,155.5C 104.322,153.99 106.322,152.657 108.5,151.5 Z"/></g>
<g><path style="opacity:1" fill="#c18713" d="M 171.5,154.5 C 177.864,153.067 181.03,155.4 181,161.5C 166.448,179.863 147.615,191.196 124.5,195.5C 124.5,191.833 124.5,188.167 124.5,184.5C 144.248,180.798 159.915,170.798 171.5,154.5 Z"/></g>
<g><path style="opacity:1" fill="#ead98e" d="M 99.5,147.5 C 100.167,147.5 100.833,147.5 101.5,147.5C 105.833,147.5 110.167,147.5 114.5,147.5C 114.179,149.048 113.179,149.715 111.5,149.5C 109.821,149.285 108.821,149.952 108.5,151.5C 106.322,152.657 104.322,153.99 102.5,155.5C 99.5726,156.757 97.2393,158.757 95.5,161.5C 92.5677,162.8 90.2344,164.8 88.5,167.5C 87.5084,167.672 86.8417,167.338 86.5,166.5C 87.5434,163.944 89.2101,161.777 91.5,160C 95.266,158.231 98.4327,155.731 101,152.5C 101.64,150.457 101.14,148.79 99.5,147.5 Z"/></g>
<g><path style="opacity:1" fill="#f5eda8" d="M 153.5,151.5 C 151.167,154.167 148.833,156.833 146.5,159.5C 142.81,162.012 138.81,164.012 134.5,165.5C 133.624,165.631 132.957,165.298 132.5,164.5C 136.567,162.927 139.9,160.427 142.5,157C 145.47,155.847 148.137,154.18 150.5,152C 151.448,151.517 152.448,151.351 153.5,151.5 Z"/></g>
<g><path style="opacity:1" fill="#a4771e" d="M 95.5,161.5 C 96.2389,161.369 96.9056,161.536 97.5,162C 96.4268,165.112 96.4268,168.279 97.5,171.5C 98.8333,171.5 100.167,171.5 101.5,171.5C 103.948,172.473 106.615,172.806 109.5,172.5C 111.607,173.468 113.941,173.802 116.5,173.5C 113.713,174.477 110.713,174.81 107.5,174.5C 101.209,174.505 95.2087,173.505 89.5,171.5C 90.9778,171.762 92.3112,171.429 93.5,170.5C 91.6036,169.725 89.937,168.725 88.5,167.5C 90.2344,164.8 92.5677,162.8 95.5,161.5 Z"/></g>
<g><path style="opacity:1" fill="#c79a2c" d="M 102.5,155.5 C 102.431,160.854 102.098,166.187 101.5,171.5C 100.167,171.5 98.8333,171.5 97.5,171.5C 96.4268,168.279 96.4268,165.112 97.5,162C 96.9056,161.536 96.2389,161.369 95.5,161.5C 97.2393,158.757 99.5726,156.757 102.5,155.5 Z"/></g>
<g><path style="opacity:1" fill="#926732" d="M 146.5,159.5 C 146.5,160.167 146.833,160.5 147.5,160.5C 144.35,163.579 140.683,165.913 136.5,167.5C 135.833,167.167 135.167,166.833 134.5,166.5C 134.5,166.167 134.5,165.833 134.5,165.5C 138.81,164.012 142.81,162.012 146.5,159.5 Z"/></g>
<g><path style="opacity:1" fill="#deb318" d="M 29.5,158.5 C 35.011,166.161 41.011,173.495 47.5,180.5C 44.8681,178.276 42.0347,176.943 39,176.5C 38.342,178.108 38.842,179.275 40.5,180C 39.09,180.368 38.09,181.201 37.5,182.5C 38.9524,183.94 39.9524,185.606 40.5,187.5C 31.292,180.624 24.292,171.958 19.5,161.5C 19.5954,158.642 20.7621,156.309 23,154.5C 25.3196,154.864 27.4862,156.197 29.5,158.5 Z"/></g>
<g><path style="opacity:1" fill="#c38d1a" d="M 131.5,166.5 C 132.5,166.5 133.5,166.5 134.5,166.5C 135.167,166.833 135.833,167.167 136.5,167.5C 130.454,171.291 123.788,173.291 116.5,173.5C 113.941,173.802 111.607,173.468 109.5,172.5C 115.343,172.722 121.01,171.889 126.5,170C 128.584,169.303 130.251,168.136 131.5,166.5 Z"/></g>
<g><path style="opacity:1" fill="#cab24b" d="M 152.5,161.5 C 152.328,162.492 152.662,163.158 153.5,163.5C 148.51,168.669 142.51,172.336 135.5,174.5C 133.302,174.591 132.969,173.925 134.5,172.5C 140.957,169.736 146.957,166.069 152.5,161.5 Z"/></g>
<g><path style="opacity:1" fill="#d9ab11" d="M 67.5,172.5 C 67.3601,174.124 68.0267,175.29 69.5,176C 66.3681,177.782 63.0347,178.948 59.5,179.5C 50.9132,174.747 44.5798,167.913 40.5,159C 41.5282,154.794 44.1948,153.461 48.5,155C 54.3772,161.379 60.7105,167.213 67.5,172.5 Z"/></g>
<g><path style="opacity:1" fill="#e6c859" d="M 74.5,164.5 C 79.1834,167.677 84.1834,170.01 89.5,171.5C 95.2087,173.505 101.209,174.505 107.5,174.5C 105.631,175.165 103.631,175.831 101.5,176.5C 103.045,177.452 104.712,177.785 106.5,177.5C 108.292,178.309 110.292,178.809 112.5,179C 108.848,179.499 105.182,179.665 101.5,179.5C 99.0971,179.552 96.7638,179.219 94.5,178.5C 94.1435,177.13 93.3102,176.13 92,175.5C 84.9483,173.058 78.4483,169.725 72.5,165.5C 72.8417,164.662 73.5084,164.328 74.5,164.5 Z"/></g>
<g><path style="opacity:1" fill="#f8ebae" d="M 159.5,153.5 C 157.167,156.167 154.833,158.833 152.5,161.5C 146.957,166.069 140.957,169.736 134.5,172.5C 125.733,176.972 116.399,178.638 106.5,177.5C 104.712,177.785 103.045,177.452 101.5,176.5C 103.631,175.831 105.631,175.165 107.5,174.5C 110.713,174.81 113.713,174.477 116.5,173.5C 123.788,173.291 130.454,171.291 136.5,167.5C 140.683,165.913 144.35,163.579 147.5,160.5C 147.833,160.5 148.167,160.5 148.5,160.5C 152.402,158.107 155.902,155.107 159,151.5C 159.464,152.094 159.631,152.761 159.5,153.5 Z"/></g>
<g><path style="opacity:1" fill="#fbeb7e" d="M 134.5,172.5 C 132.969,173.925 133.302,174.591 135.5,174.5C 124.564,179.282 113.231,180.949 101.5,179.5C 105.182,179.665 108.848,179.499 112.5,179C 110.292,178.809 108.292,178.309 106.5,177.5C 116.399,178.638 125.733,176.972 134.5,172.5 Z"/></g>
<g><path style="opacity:1" fill="#cc9a0e" d="M 67.5,172.5 C 75.8803,178.63 85.2136,182.63 95.5,184.5C 95.5,187.833 95.5,191.167 95.5,194.5C 94.1667,194.5 92.8333,194.5 91.5,194.5C 79.2298,192.696 68.5631,187.696 59.5,179.5C 63.0347,178.948 66.3681,177.782 69.5,176C 68.0267,175.29 67.3601,174.124 67.5,172.5 Z"/></g>
<g><path style="opacity:1" fill="#d3a312" d="M 47.5,180.5 C 51.8574,183.864 56.1907,187.198 60.5,190.5C 57.5403,191.764 54.5403,192.931 51.5,194C 52.6817,195.678 53.8484,195.512 55,193.5C 58.3677,194.098 58.8677,195.265 56.5,197C 57.1667,197.333 57.8333,197.667 58.5,198C 57.4019,198.77 57.4019,199.603 58.5,200.5C 53.4734,198.317 48.8067,195.483 44.5,192C 42.9586,190.629 41.6253,189.129 40.5,187.5C 39.9524,185.606 38.9524,183.94 37.5,182.5C 38.09,181.201 39.09,180.368 40.5,180C 38.842,179.275 38.342,178.108 39,176.5C 42.0347,176.943 44.8681,178.276 47.5,180.5 Z"/></g>
<g><path style="opacity:1" fill="#dcbc76" d="M 114.5,186.5 C 111.833,186.5 109.167,186.5 106.5,186.5C 106.5,189.833 106.5,193.167 106.5,196.5C 105.518,193.038 105.185,189.371 105.5,185.5C 108.713,185.19 111.713,185.523 114.5,186.5 Z"/></g>
<g><path style="opacity:1" fill="#dbba6b" d="M 95.5,184.5 C 96.4816,187.962 96.815,191.629 96.5,195.5C 94.5853,195.784 92.9187,195.451 91.5,194.5C 92.8333,194.5 94.1667,194.5 95.5,194.5C 95.5,191.167 95.5,187.833 95.5,184.5 Z"/></g>
<g><path style="opacity:1" fill="#c28806" d="M 114.5,186.5 C 114.5,189.833 114.5,193.167 114.5,196.5C 111.833,196.5 109.167,196.5 106.5,196.5C 106.5,193.167 106.5,189.833 106.5,186.5C 109.167,186.5 111.833,186.5 114.5,186.5 Z"/></g>
<g><path style="opacity:1" fill="#cb9913" d="M 60.5,190.5 C 65.0004,192.583 69.3338,194.916 73.5,197.5C 71.6214,197.393 71.2881,197.893 72.5,199C 80.2415,202.543 79.9082,203.209 71.5,201C 72.6341,202.016 72.3008,202.683 70.5,203C 79.4516,203.112 79.785,204.278 71.5,206.5C 66.749,205.29 62.4156,203.29 58.5,200.5C 57.4019,199.603 57.4019,198.77 58.5,198C 57.8333,197.667 57.1667,197.333 56.5,197C 58.8677,195.265 58.3677,194.098 55,193.5C 53.8484,195.512 52.6817,195.678 51.5,194C 54.5403,192.931 57.5403,191.764 60.5,190.5 Z"/></g>
<g><path style="opacity:1" fill="#e5ca94" d="M 114.5,186.5 C 115.482,189.962 115.815,193.629 115.5,197.5C 112.287,197.81 109.287,197.477 106.5,196.5C 109.167,196.5 111.833,196.5 114.5,196.5C 114.5,193.167 114.5,189.833 114.5,186.5 Z"/></g>
<g><path style="opacity:1" fill="#c68f13" d="M 73.5,197.5 C 82.554,200.082 91.554,202.415 100.5,204.5C 99.448,204.351 98.448,204.517 97.5,205C 99.8333,205.333 102.167,205.667 104.5,206C 102.699,206.317 102.366,206.984 103.5,208C 100.5,208.333 97.5,208.667 94.5,209C 95.8333,209.667 97.1667,210.333 98.5,211C 97.8333,211.333 97.1667,211.667 96.5,212C 99.0356,212.186 101.369,212.686 103.5,213.5C 92.3115,213.033 81.6448,210.7 71.5,206.5C 79.785,204.278 79.4516,203.112 70.5,203C 72.3008,202.683 72.6341,202.016 71.5,201C 79.9082,203.209 80.2415,202.543 72.5,199C 71.2881,197.893 71.6214,197.393 73.5,197.5 Z"/></g>
<g><path style="opacity:1" fill="#bb7e10" d="M 196.5,164.5 C 178.437,192.997 152.437,209.163 118.5,213C 113.511,213.499 108.511,213.666 103.5,213.5C 101.369,212.686 99.0356,212.186 96.5,212C 97.1667,211.667 97.8333,211.333 98.5,211C 97.1667,210.333 95.8333,209.667 94.5,209C 97.5,208.667 100.5,208.333 103.5,208C 102.366,206.984 102.699,206.317 104.5,206C 102.167,205.667 99.8333,205.333 97.5,205C 98.448,204.517 99.448,204.351 100.5,204.5C 140.324,206.257 170.991,190.59 192.5,157.5C 194.148,156.19 195.814,154.857 197.5,153.5C 197.833,154.333 198.167,155.167 198.5,156C 197.383,158.731 196.717,161.565 196.5,164.5 Z"/></g>
</svg>
