<?xml version="1.0" encoding="UTF-8"?>
<!DOCTYPE svg PUBLIC "-//W3C//DTD SVG 1.1//EN" "http://www.w3.org/Graphics/SVG/1.1/DTD/svg11.dtd">
<svg xmlns="http://www.w3.org/2000/svg" version="1.1" width="64px" height="64px" style="shape-rendering:geometricPrecision; text-rendering:geometricPrecision; image-rendering:optimizeQuality; fill-rule:evenodd; clip-rule:evenodd" xmlns:xlink="http://www.w3.org/1999/xlink">
<g><path style="opacity:1" fill="#a161a4" d="M 29.5,0.5 C 33.8171,0.0833886 37.8171,0.750055 41.5,2.5C 41.2169,3.21607 40.8836,4.0494 40.5,5C 42.0412,6.57934 43.2078,8.41267 44,10.5C 49.0843,13.7495 52.9176,18.0829 55.5,23.5C 57.1933,25.0267 59.0266,26.3601 61,27.5C 61.4643,26.9056 61.631,26.2389 61.5,25.5C 62.8333,29.5 62.8333,33.5 61.5,37.5C 58.3065,35.4644 55.9732,32.631 54.5,29C 53.5,28.6667 52.5,28.3333 51.5,28C 46.3268,19.085 39.6601,10.7517 31.5,3C 31.8333,2.66667 32.1667,2.33333 32.5,2C 31.2625,1.76791 30.2625,1.26791 29.5,0.5 Z"/></g>
<g><path style="opacity:1" fill="#7c7eaf" d="M 18.5,3.5 C 21.8284,8.15826 25.495,12.4916 29.5,16.5C 28.3052,18.7513 27.3052,21.0846 26.5,23.5C 21.9242,18.0133 17.5909,12.3467 13.5,6.5C 14.8993,5.11028 16.5659,4.11028 18.5,3.5 Z"/></g>
<g><path style="opacity:1" fill="#9767a7" d="M 28.5,0.5 C 28.8333,0.5 29.1667,0.5 29.5,0.5C 30.2625,1.26791 31.2625,1.76791 32.5,2C 32.1667,2.33333 31.8333,2.66667 31.5,3C 39.6601,10.7517 46.3268,19.085 51.5,28C 52.5,28.3333 53.5,28.6667 54.5,29C 55.9732,32.631 58.3065,35.4644 61.5,37.5C 61.5,38.5 61.5,39.5 61.5,40.5C 58.8045,40.067 56.6379,38.7337 55,36.5C 45.5,25 36,13.5 26.5,2C 27.4158,1.72158 28.0825,1.22158 28.5,0.5 Z"/></g>
<g><path style="opacity:1" fill="#916da9" d="M 28.5,0.5 C 28.0825,1.22158 27.4158,1.72158 26.5,2C 36,13.5 45.5,25 55,36.5C 56.6379,38.7337 58.8045,40.067 61.5,40.5C 60.8333,41.8333 60.1667,43.1667 59.5,44.5C 49.54,33.1946 39.8733,21.528 30.5,9.5C 26.9529,7.38358 24.9529,4.71692 24.5,1.5C 25.7079,0.765886 27.0413,0.432553 28.5,0.5 Z"/></g>
<g><path style="opacity:1" fill="#7185b2" d="M 13.5,6.5 C 17.5909,12.3467 21.9242,18.0133 26.5,23.5C 25.8333,24.8333 25.1667,26.1667 24.5,27.5C 21.1819,24.8317 18.5153,21.4983 16.5,17.5C 15.675,16.6143 14.675,16.281 13.5,16.5C 12.6842,14.1046 11.6842,11.7712 10.5,9.5C 11.1667,8.16667 12.1667,7.16667 13.5,6.5 Z"/></g>
<g><path style="opacity:1" fill="#ad58a2" d="M 41.5,2.5 C 52.5652,6.27155 59.2318,13.9382 61.5,25.5C 61.631,26.2389 61.4643,26.9056 61,27.5C 59.0266,26.3601 57.1933,25.0267 55.5,23.5C 52.9176,18.0829 49.0843,13.7495 44,10.5C 43.2078,8.41267 42.0412,6.57934 40.5,5C 40.8836,4.0494 41.2169,3.21607 41.5,2.5 Z"/></g>
<g><path style="opacity:1" fill="#678fb6" d="M 10.5,9.5 C 11.6842,11.7712 12.6842,14.1046 13.5,16.5C 14.675,16.281 15.675,16.6143 16.5,17.5C 18.5153,21.4983 21.1819,24.8317 24.5,27.5C 23.0145,29.2309 21.0145,30.2309 18.5,30.5C 14.4819,25.154 10.1485,20.154 5.5,15.5C 6.41938,12.9108 8.08605,10.9108 10.5,9.5 Z"/></g>
<g><path style="opacity:1" fill="#8b73ab" d="M 24.5,1.5 C 24.9529,4.71692 26.9529,7.38358 30.5,9.5C 39.8733,21.528 49.54,33.1946 59.5,44.5C 59.2671,46.0618 58.6005,47.3951 57.5,48.5C 51.9824,43.807 47.149,38.4737 43,32.5C 42.3292,31.7476 41.4959,31.4142 40.5,31.5C 38.1085,27.0441 35.9418,22.3774 34,17.5C 32.6439,16.6198 31.1439,16.2865 29.5,16.5C 25.495,12.4916 21.8284,8.15826 18.5,3.5C 20.2972,2.27024 22.2972,1.60357 24.5,1.5 Z"/></g>
<g><path style="opacity:1" fill="#4aa4be" d="M 2.5,21.5 C 4.22917,22.1175 5.72917,23.1175 7,24.5C 11.1878,29.5811 15.3545,34.5811 19.5,39.5C 19.1231,41.258 18.4565,42.9246 17.5,44.5C 17.8627,45.1835 18.1961,45.8501 18.5,46.5C 16.8514,45.286 15.1848,43.9527 13.5,42.5C 10.1528,37.6619 6.65282,32.9952 3,28.5C 2.66667,28.8333 2.33333,29.1667 2,29.5C 1.50999,28.2068 1.34332,26.8734 1.5,25.5C 1.23219,23.901 1.56552,22.5676 2.5,21.5 Z"/></g>
<g><path style="opacity:1" fill="#579bba" d="M 5.5,15.5 C 10.1485,20.154 14.4819,25.154 18.5,30.5C 18.7565,32.7761 20.0898,33.9428 22.5,34C 21.3606,35.7804 20.3606,37.6137 19.5,39.5C 15.3545,34.5811 11.1878,29.5811 7,24.5C 5.72917,23.1175 4.22917,22.1175 2.5,21.5C 2.75488,19.0326 3.75488,17.0326 5.5,15.5 Z"/></g>
<g><path style="opacity:1" fill="#7f7bae" d="M 40.5,31.5 C 41.4959,31.4142 42.3292,31.7476 43,32.5C 47.149,38.4737 51.9824,43.807 57.5,48.5C 56.1667,50.5 54.5,52.1667 52.5,53.5C 50.1956,50.8587 47.8623,48.192 45.5,45.5C 43.8264,40.8228 42.1598,36.1562 40.5,31.5 Z"/></g>
<g><path style="opacity:1" fill="#3cafc1" d="M 0.5,30.5 C 9.13113,39.97 17.6311,49.6367 26,59.5C 26.6917,60.4368 26.525,61.1034 25.5,61.5C 23.1016,61.7406 21.1016,61.0739 19.5,59.5C 20.0431,59.44 20.3764,59.1067 20.5,58.5C 18.9231,56.5508 17.4231,54.5508 16,52.5C 11.2597,47.3417 6.75973,42.0083 2.5,36.5C 1.89333,36.6236 1.55999,36.9569 1.5,37.5C 0.531782,35.3926 0.198448,33.0593 0.5,30.5 Z"/></g>
<g><path style="opacity:1" fill="#7386b2" d="M 45.5,45.5 C 47.8623,48.192 50.1956,50.8587 52.5,53.5C 51.4154,55.5869 49.7488,56.9202 47.5,57.5C 47.6427,55.7376 47.3094,54.0709 46.5,52.5C 43.0957,49.0512 39.5957,45.7179 36,42.5C 35.1376,40.913 34.4709,39.2464 34,37.5C 31.8816,36.7171 30.3816,35.3838 29.5,33.5C 32.1973,31.0308 31.5306,29.5308 27.5,29C 28.741,26.4372 30.0744,23.9372 31.5,21.5C 34.9005,29.5316 38.4005,37.5316 42,45.5C 43.1455,46.6843 44.3121,46.6843 45.5,45.5 Z"/></g>
<g><path style="opacity:1" fill="#668fb6" d="M 29.5,33.5 C 30.3816,35.3838 31.8816,36.7171 34,37.5C 34.4709,39.2464 35.1376,40.913 36,42.5C 39.5957,45.7179 43.0957,49.0512 46.5,52.5C 47.3094,54.0709 47.6427,55.7376 47.5,57.5C 46.2318,59.047 44.5652,60.047 42.5,60.5C 42.6495,59.448 42.4828,58.448 42,57.5C 35.5412,50.8855 29.7078,44.5521 24.5,38.5C 25.038,36.8828 25.3713,35.2161 25.5,33.5C 26.8333,33.5 28.1667,33.5 29.5,33.5 Z"/></g>
<g><path style="opacity:1" fill="#579bba" d="M 24.5,38.5 C 29.7078,44.5521 35.5412,50.8855 42,57.5C 42.4828,58.448 42.6495,59.448 42.5,60.5C 39.9333,61.475 37.2666,62.1417 34.5,62.5C 29.9331,57.0433 25.5998,51.3766 21.5,45.5C 22.2638,42.9823 23.2638,40.649 24.5,38.5 Z"/></g>
<g><path style="opacity:1" fill="#38b6c4" d="M 19.5,59.5 C 9.51375,55.5064 3.51375,48.1731 1.5,37.5C 1.55999,36.9569 1.89333,36.6236 2.5,36.5C 6.75973,42.0083 11.2597,47.3417 16,52.5C 17.4231,54.5508 18.9231,56.5508 20.5,58.5C 20.3764,59.1067 20.0431,59.44 19.5,59.5 Z"/></g>
<g><path style="opacity:1" fill="#46a8bf" d="M 1.5,25.5 C 1.34332,26.8734 1.50999,28.2068 2,29.5C 2.33333,29.1667 2.66667,28.8333 3,28.5C 6.65282,32.9952 10.1528,37.6619 13.5,42.5C 15.1848,43.9527 16.8514,45.286 18.5,46.5C 19.609,46.4431 20.609,46.1098 21.5,45.5C 25.5998,51.3766 29.9331,57.0433 34.5,62.5C 31.2869,62.81 28.2869,62.4767 25.5,61.5C 26.525,61.1034 26.6917,60.4368 26,59.5C 17.6311,49.6367 9.13113,39.97 0.5,30.5C 0.215521,28.5853 0.548855,26.9187 1.5,25.5 Z"/></g>
</svg>
