<?xml version="1.0" encoding="UTF-8"?>
<!DOCTYPE svg PUBLIC "-//W3C//DTD SVG 1.1//EN" "http://www.w3.org/Graphics/SVG/1.1/DTD/svg11.dtd">
<svg xmlns="http://www.w3.org/2000/svg" version="1.1" width="138px" height="138px" style="shape-rendering:geometricPrecision; text-rendering:geometricPrecision; image-rendering:optimizeQuality; fill-rule:evenodd; clip-rule:evenodd" xmlns:xlink="http://www.w3.org/1999/xlink">
<g><path style="opacity:0.983" fill="#010202" d="M 56.5,-0.5 C 64.5,-0.5 72.5,-0.5 80.5,-0.5C 111.167,6.83333 130.167,25.8333 137.5,56.5C 137.5,64.5 137.5,72.5 137.5,80.5C 130.167,111.167 111.167,130.167 80.5,137.5C 72.5,137.5 64.5,137.5 56.5,137.5C 25.8333,130.167 6.83333,111.167 -0.5,80.5C -0.5,72.5 -0.5,64.5 -0.5,56.5C 6.83333,25.8333 25.8333,6.83333 56.5,-0.5 Z"/></g>
<g><path style="opacity:1" fill="#698fcc" d="M 41.5,36.5 C 44.6248,35.5206 47.9581,35.1872 51.5,35.5C 52.6085,36.29 53.9419,36.79 55.5,37C 59.2743,42.4186 63.6076,47.2519 68.5,51.5C 64.1667,51.5 59.8333,51.5 55.5,51.5C 52.8409,46.8709 49.6742,42.5376 46,38.5C 44.8904,36.9632 43.3904,36.2965 41.5,36.5 Z"/></g>
<g><path style="opacity:1" fill="#56a3c4" d="M 51.5,35.5 C 56.8333,35.5 62.1667,35.5 67.5,35.5C 71.8333,40.8333 76.1667,46.1667 80.5,51.5C 76.5,51.5 72.5,51.5 68.5,51.5C 63.6076,47.2519 59.2743,42.4186 55.5,37C 53.9419,36.79 52.6085,36.29 51.5,35.5 Z"/></g>
<g><path style="opacity:1" fill="#41b2b8" d="M 67.5,35.5 C 71.8333,35.5 76.1667,35.5 80.5,35.5C 79.7375,36.2679 78.7375,36.7679 77.5,37C 81.0233,41.0224 84.3566,45.189 87.5,49.5C 91.1073,50.4892 94.774,50.8226 98.5,50.5C 92.69,51.4896 86.69,51.8229 80.5,51.5C 76.1667,46.1667 71.8333,40.8333 67.5,35.5 Z"/></g>
<g><path style="opacity:1" fill="#34c6b6" d="M 80.5,35.5 C 83.1667,35.5 85.8333,35.5 88.5,35.5C 91.9394,40.059 95.6061,44.3923 99.5,48.5C 99.6716,49.4916 99.3382,50.1583 98.5,50.5C 94.774,50.8226 91.1073,50.4892 87.5,49.5C 84.3566,45.189 81.0233,41.0224 77.5,37C 78.7375,36.7679 79.7375,36.2679 80.5,35.5 Z"/></g>
<g><path style="opacity:1" fill="#1bd9a7" d="M 88.5,35.5 C 95.0898,35.189 101.59,35.5223 108,36.5C 106.249,41.1137 103.415,45.1137 99.5,48.5C 95.6061,44.3923 91.9394,40.059 88.5,35.5 Z"/></g>
<g><path style="opacity:1" fill="#8862d0" d="M 43.5,51.5 C 39.1161,51.8256 34.7828,51.4922 30.5,50.5C 31.709,48.0592 33.3757,46.0592 35.5,44.5C 36.4584,44.0472 37.2917,43.3805 38,42.5C 39.8123,45.2802 41.979,47.7802 44.5,50C 43.944,50.3826 43.6107,50.8826 43.5,51.5 Z"/></g>
<g><path style="opacity:1" fill="#7d79d3" d="M 41.5,36.5 C 43.3904,36.2965 44.8904,36.9632 46,38.5C 49.6742,42.5376 52.8409,46.8709 55.5,51.5C 51.5,51.5 47.5,51.5 43.5,51.5C 43.6107,50.8826 43.944,50.3826 44.5,50C 41.979,47.7802 39.8123,45.2802 38,42.5C 37.2917,43.3805 36.4584,44.0472 35.5,44.5C 37.1223,41.5451 39.1223,38.8785 41.5,36.5 Z"/></g>
<g><path style="opacity:1" fill="#9963e3" d="M 39.5,59.5 C 41.8333,59.5 44.1667,59.5 46.5,59.5C 50.8333,64.8333 55.1667,70.1667 59.5,75.5C 57.1667,75.5 54.8333,75.5 52.5,75.5C 48.1667,70.1667 43.8333,64.8333 39.5,59.5 Z"/></g>
<g><path style="opacity:1" fill="#8873dc" d="M 46.5,59.5 C 50.1667,59.5 53.8333,59.5 57.5,59.5C 61.3757,65.2791 65.709,70.6124 70.5,75.5C 66.8333,75.5 63.1667,75.5 59.5,75.5C 55.1667,70.1667 50.8333,64.8333 46.5,59.5 Z"/></g>
<g><path style="opacity:1" fill="#7488d4" d="M 57.5,59.5 C 61.5,59.5 65.5,59.5 69.5,59.5C 73.8333,64.8333 78.1667,70.1667 82.5,75.5C 78.5,75.5 74.5,75.5 70.5,75.5C 65.709,70.6124 61.3757,65.2791 57.5,59.5 Z"/></g>
<g><path style="opacity:1" fill="#619bcb" d="M 69.5,59.5 C 73.1667,59.5 76.8333,59.5 80.5,59.5C 84.8333,64.8333 89.1667,70.1667 93.5,75.5C 89.8333,75.5 86.1667,75.5 82.5,75.5C 78.1667,70.1667 73.8333,64.8333 69.5,59.5 Z"/></g>
<g><path style="opacity:1" fill="#54a9c6" d="M 80.5,59.5 C 82.8333,59.5 85.1667,59.5 87.5,59.5C 91.8333,64.8333 96.1667,70.1667 100.5,75.5C 98.1667,75.5 95.8333,75.5 93.5,75.5C 89.1667,70.1667 84.8333,64.8333 80.5,59.5 Z"/></g>
<g><path style="opacity:1" fill="#3fb0b5" d="M 87.5,59.5 C 91.1817,59.3347 94.8484,59.5014 98.5,60C 102.045,64.9231 105.712,69.7564 109.5,74.5C 106.572,75.4841 103.572,75.8174 100.5,75.5C 96.1667,70.1667 91.8333,64.8333 87.5,59.5 Z"/></g>
<g><path style="opacity:1" fill="#a450e3" d="M 39.5,59.5 C 43.8333,64.8333 48.1667,70.1667 52.5,75.5C 48.5633,75.7935 44.73,75.4601 41,74.5C 37.6924,69.6919 34.1924,65.0252 30.5,60.5C 33.4281,59.5159 36.4281,59.1826 39.5,59.5 Z"/></g>
<g><path style="opacity:1" fill="#ba3eed" d="M 41.5,84.5 C 45.5,84.5 49.5,84.5 53.5,84.5C 55.7021,89.6945 59.0355,94.1945 63.5,98C 61.9419,98.21 60.6085,98.71 59.5,99.5C 49.7734,100.139 40.4401,99.4722 31.5,97.5C 31.8333,96.5 32.5,95.8333 33.5,95.5C 33.5858,96.4959 33.2524,97.3292 32.5,98C 39.1667,98.6667 45.8333,98.6667 52.5,98C 51.5,97.6667 50.5,97.3333 49.5,97C 46.6352,93.3081 43.6352,89.8081 40.5,86.5C 40.8333,85.8333 41.1667,85.1667 41.5,84.5 Z"/></g>
<g><path style="opacity:1" fill="#a456e8" d="M 53.5,84.5 C 56.2469,84.1866 58.9135,84.52 61.5,85.5C 64.6084,90.1115 68.275,94.2782 72.5,98C 71.2625,98.2321 70.2625,98.7321 69.5,99.5C 66.1667,99.5 62.8333,99.5 59.5,99.5C 60.6085,98.71 61.9419,98.21 63.5,98C 59.0355,94.1945 55.7021,89.6945 53.5,84.5 Z"/></g>
<g><path style="opacity:1" fill="#9463dd" d="M 41.5,84.5 C 48.6476,83.5084 55.9809,83.175 63.5,83.5C 66.6414,84.3213 69.9748,84.8213 73.5,85C 77.1667,89.3333 80.8333,93.6667 84.5,98C 83.944,98.3826 83.6107,98.8826 83.5,99.5C 78.8333,99.5 74.1667,99.5 69.5,99.5C 70.2625,98.7321 71.2625,98.2321 72.5,98C 68.275,94.2782 64.6084,90.1115 61.5,85.5C 58.9135,84.52 56.2469,84.1866 53.5,84.5C 49.5,84.5 45.5,84.5 41.5,84.5 Z"/></g>
<g><path style="opacity:1" fill="#6c87cb" d="M 76.5,83.5 C 81.1667,83.5 85.8333,83.5 90.5,83.5C 91.9516,84.3019 93.6183,84.8019 95.5,85C 98.1885,87.8298 100.188,90.9964 101.5,94.5C 100.876,96.754 99.543,98.4206 97.5,99.5C 95.8333,99.5 94.1667,99.5 92.5,99.5C 93.2625,98.7321 94.2625,98.2321 95.5,98C 91.8333,93.6667 88.1667,89.3333 84.5,85C 81.6353,84.8171 78.9686,84.3171 76.5,83.5 Z"/></g>
<g><path style="opacity:1" fill="#5694bb" d="M 90.5,83.5 C 96.8682,83.1703 103.202,83.5037 109.5,84.5C 107.159,88.1654 104.493,91.4988 101.5,94.5C 100.188,90.9964 98.1885,87.8298 95.5,85C 93.6183,84.8019 91.9516,84.3019 90.5,83.5 Z"/></g>
<g><path style="opacity:1" fill="#cb2cf4" d="M 40.5,86.5 C 43.6352,89.8081 46.6352,93.3081 49.5,97C 50.5,97.3333 51.5,97.6667 52.5,98C 45.8333,98.6667 39.1667,98.6667 32.5,98C 33.2524,97.3292 33.5858,96.4959 33.5,95.5C 35.4821,92.1897 37.8154,89.1897 40.5,86.5 Z"/></g>
<g><path style="opacity:1" fill="#7f79d5" d="M 63.5,83.5 C 67.8333,83.5 72.1667,83.5 76.5,83.5C 78.9686,84.3171 81.6353,84.8171 84.5,85C 88.1667,89.3333 91.8333,93.6667 95.5,98C 94.2625,98.2321 93.2625,98.7321 92.5,99.5C 89.5,99.5 86.5,99.5 83.5,99.5C 83.6107,98.8826 83.944,98.3826 84.5,98C 80.8333,93.6667 77.1667,89.3333 73.5,85C 69.9748,84.8213 66.6414,84.3213 63.5,83.5 Z"/></g>
<g><path style="opacity:1" fill="#4a2362" d="M 31.5,97.5 C 40.4401,99.4722 49.7734,100.139 59.5,99.5C 62.8333,99.5 66.1667,99.5 69.5,99.5C 74.1667,99.5 78.8333,99.5 83.5,99.5C 86.5,99.5 89.5,99.5 92.5,99.5C 94.1667,99.5 95.8333,99.5 97.5,99.5C 75.0037,100.663 52.3371,100.83 29.5,100C 30.0659,99.0053 30.7326,98.172 31.5,97.5 Z"/></g>
</svg>
