<?xml version="1.0" encoding="UTF-8"?>
<!DOCTYPE svg PUBLIC "-//W3C//DTD SVG 1.1//EN" "http://www.w3.org/Graphics/SVG/1.1/DTD/svg11.dtd">
<svg xmlns="http://www.w3.org/2000/svg" version="1.1" width="350px" height="350px" style="shape-rendering:geometricPrecision; text-rendering:geometricPrecision; image-rendering:optimizeQuality; fill-rule:evenodd; clip-rule:evenodd" xmlns:xlink="http://www.w3.org/1999/xlink">
<g><path style="opacity:1" fill="#e7cb7c" d="M 193.5,0.5 C 213.329,2.1206 231.996,7.45393 249.5,16.5C 246.512,15.8389 243.512,15.1722 240.5,14.5C 235.271,16.1422 235.271,17.9755 240.5,20C 239.748,20.6708 239.414,21.5041 239.5,22.5C 228.788,18.4055 217.788,15.4055 206.5,13.5C 199.144,11.7199 191.81,10.3865 184.5,9.5C 186.199,9.66018 187.866,9.49351 189.5,9C 185.386,6.61024 181.053,6.11024 176.5,7.5C 172.186,7.50678 168.186,6.50678 164.5,4.5C 165.025,3.80762 165.692,3.30762 166.5,3C 166.167,2.66667 165.833,2.33333 165.5,2C 174.666,0.528961 183.999,0.0289611 193.5,0.5 Z"/></g>
<g><path style="opacity:1" fill="#f0df9b" d="M 155.5,-0.5 C 168.167,-0.5 180.833,-0.5 193.5,-0.5C 193.5,-0.166667 193.5,0.166667 193.5,0.5C 183.999,0.0289611 174.666,0.528961 165.5,2C 165.833,2.33333 166.167,2.66667 166.5,3C 165.692,3.30762 165.025,3.80762 164.5,4.5C 168.186,6.50678 172.186,7.50678 176.5,7.5C 181.053,6.11024 185.386,6.61024 189.5,9C 187.866,9.49351 186.199,9.66018 184.5,9.5C 167.583,8.76455 150.917,10.4312 134.5,14.5C 131.208,13.5044 127.875,12.5044 124.5,11.5C 124.33,10.1779 124.663,9.01127 125.5,8C 130.553,5.62885 135.886,4.29552 141.5,4C 142.056,3.61742 142.389,3.11742 142.5,2.5C 146.816,1.4076 151.149,0.407598 155.5,-0.5 Z"/></g>
<g><path style="opacity:1" fill="#715624" d="M 206.5,13.5 C 217.788,15.4055 228.788,18.4055 239.5,22.5C 245.259,25.2141 250.925,28.2141 256.5,31.5C 256.5,32.1667 256.5,32.8333 256.5,33.5C 240.931,25.5312 224.597,19.5312 207.5,15.5C 207.167,14.8333 206.833,14.1667 206.5,13.5 Z"/></g>
<g><path style="opacity:1" fill="#4a391a" d="M 184.5,9.5 C 191.81,10.3865 199.144,11.7199 206.5,13.5C 206.833,14.1667 207.167,14.8333 207.5,15.5C 120.137,4.33579 58.4698,38.6691 22.5,118.5C 23.4243,115.204 24.4243,111.871 25.5,108.5C 25.8333,107.167 26.1667,105.833 26.5,104.5C 49.1179,58.5136 85.1179,28.5136 134.5,14.5C 150.917,10.4312 167.583,8.76455 184.5,9.5 Z"/></g>
<g><path style="opacity:1" fill="#f1e3a9" d="M 142.5,2.5 C 142.389,3.11742 142.056,3.61742 141.5,4C 135.886,4.29552 130.553,5.62885 125.5,8C 124.663,9.01127 124.33,10.1779 124.5,11.5C 127.875,12.5044 131.208,13.5044 134.5,14.5C 85.1179,28.5136 49.1179,58.5136 26.5,104.5C 30.0552,93.5957 35.3886,83.5957 42.5,74.5C 41.675,73.6143 40.675,73.281 39.5,73.5C 38.8333,75.8333 38.1667,78.1667 37.5,80.5C 35.5082,80.6715 33.8415,80.0049 32.5,78.5C 30.2275,79.3751 29.2275,81.0418 29.5,83.5C 28.1779,83.33 27.0113,83.6634 26,84.5C 23.9289,87.5882 22.2622,90.9215 21,94.5C 20.3292,95.2524 19.4959,95.5858 18.5,95.5C 37.2186,57.2845 66.2186,29.7845 105.5,13C 117.423,7.96899 129.756,4.46899 142.5,2.5 Z"/></g>
<g><path style="opacity:1" fill="#22221e" d="M 269.5,67.5 C 261.026,60.6896 252.026,54.6896 242.5,49.5C 237.716,46.4583 232.716,43.7917 227.5,41.5C 228.007,40.1411 229.007,39.1411 230.5,38.5C 229.975,37.8076 229.308,37.3076 228.5,37C 230.5,36.6667 232.5,36.3333 234.5,36C 231.176,33.8722 227.509,33.0389 223.5,33.5C 223.561,35.5922 224.561,37.0922 226.5,38C 221.63,38.2486 216.963,37.2486 212.5,35C 209.849,31.96 207.016,28.46 204,24.5C 200.129,28.8801 195.296,30.3801 189.5,29C 191.924,28.0771 193.924,26.5771 195.5,24.5C 195,23.5 194.5,22.5 194,21.5C 192.266,22.2489 190.433,22.7489 188.5,23C 186.792,24.0623 186.126,25.229 186.5,26.5C 182.683,24.7808 182.683,22.9475 186.5,21C 186.167,20.5 185.833,20 185.5,19.5C 184.833,20.1667 184.167,20.8333 183.5,21.5C 181.851,20.294 180.351,18.9606 179,17.5C 176.26,18.2822 173.426,18.7822 170.5,19C 170.957,19.414 171.291,19.914 171.5,20.5C 167.112,23.5438 162.445,24.0438 157.5,22C 163.909,22.1249 164.576,20.9583 159.5,18.5C 157.65,20.8292 155.483,21.1625 153,19.5C 145.548,21.285 138.048,22.785 130.5,24C 129.256,26.3034 127.589,26.8034 125.5,25.5C 119.594,26.9625 114.261,29.4625 109.5,33C 112.76,33.7835 115.927,33.6168 119,32.5C 119.5,33 120,33.5 120.5,34C 116.987,34.9272 113.487,35.7606 110,36.5C 109.586,36.0426 109.086,35.7093 108.5,35.5C 105.932,37.7172 102.932,38.8839 99.5,39C 98.386,40.5699 97.0526,41.9032 95.5,43C 95.8333,43.3333 96.1667,43.6667 96.5,44C 95.2161,44.6838 94.0495,44.5171 93,43.5C 92.5078,44.549 92.6744,45.549 93.5,46.5C 91.6672,49.2904 90.6672,48.9571 90.5,45.5C 88.712,45.2148 87.0453,45.5481 85.5,46.5C 83.9078,49.5326 81.5744,50.1992 78.5,48.5C 73.1631,56.0033 66.6631,62.3366 59,67.5C 58.0551,71.1141 57.3884,74.7808 57,78.5C 54.6667,81.5 52.3333,84.5 50,87.5C 48.7105,90.1683 47.5439,92.8349 46.5,95.5C 45.5,95.5 44.5,95.5 43.5,95.5C 43.8501,99.5463 43.1834,103.38 41.5,107C 42.2529,108.487 43.0862,108.654 44,107.5C 45.4205,112.777 46.5871,112.777 47.5,107.5C 47.3333,106.5 47.1667,105.5 47,104.5C 46.6667,104.833 46.3333,105.167 46,105.5C 45.3333,103.5 45.3333,101.5 46,99.5C 48.4757,98.3195 51.309,98.3195 54.5,99.5C 50.075,106.349 46.7417,113.682 44.5,121.5C 41.1775,127.82 38.6775,134.487 37,141.5C 34.7767,157.415 33.9434,173.415 34.5,189.5C 34.4595,192.881 34.7929,196.214 35.5,199.5C 34.7332,203.415 34.2332,207.415 34,211.5C 33.6905,210.234 33.1905,209.067 32.5,208C 33.483,203.524 33.6497,198.691 33,193.5C 31.3333,196.167 29.6667,196.167 28,193.5C 27.5291,195.246 26.8624,196.913 26,198.5C 25.6667,198.167 25.3333,197.833 25,197.5C 24.6667,199.167 24.3333,200.833 24,202.5C 23.6667,199.5 23.3333,196.5 23,193.5C 22.6758,195.569 21.8425,195.902 20.5,194.5C 18.6388,190.313 18.6388,186.313 20.5,182.5C 19.627,176.198 19.2936,169.865 19.5,163.5C 20.552,163.649 21.552,163.483 22.5,163C 22.627,154.751 22.4603,145.917 22,136.5C 24.973,126.896 27.6396,117.23 30,107.5C 34.1457,101.506 37.479,95.5056 40,89.5C 41.4058,87.1291 43.4058,85.4624 46,84.5C 47.8665,82.1918 48.8665,79.5251 49,76.5C 54.1426,72.2016 58.3093,67.2016 61.5,61.5C 62.552,61.6495 63.552,61.4828 64.5,61C 65.1043,58.5325 66.4376,56.5325 68.5,55C 74.7522,49.1998 81.4188,43.8664 88.5,39C 90.1667,38.6667 91.8333,38.3333 93.5,38C 97.9468,33.9357 102.947,30.6024 108.5,28C 119.384,24.9652 130.217,22.1319 141,19.5C 141.561,20.0219 142.228,20.3552 143,20.5C 153.408,18.2576 163.908,16.591 174.5,15.5C 180.77,16.4606 186.936,17.7939 193,19.5C 197.306,19.5873 201.639,19.5873 206,19.5C 212.237,21.7039 218.403,24.0372 224.5,26.5C 225.293,26.0688 226.127,25.7355 227,25.5C 231.361,26.5457 235.527,28.0457 239.5,30C 238.134,32.4385 238.634,32.9385 241,31.5C 242.605,32.1007 243.938,33.1007 245,34.5C 245.333,34.1667 245.667,33.8333 246,33.5C 248.015,35.4731 247.848,37.1397 245.5,38.5C 247.777,38.9855 249.944,38.3188 252,36.5C 255.661,38.0548 259.161,40.0548 262.5,42.5C 263.442,42.3918 264.275,42.0585 265,41.5C 267.874,43.5769 270.041,46.2436 271.5,49.5C 273.976,50.8149 276.143,52.4815 278,54.5C 278.333,53.8333 278.667,53.1667 279,52.5C 280.028,54.3615 281.528,55.6948 283.5,56.5C 284.386,57.325 284.719,58.325 284.5,59.5C 281.442,59.2882 278.942,57.9548 277,55.5C 276.047,57.5922 274.714,57.9255 273,56.5C 272.333,58.8333 272.333,61.1667 273,63.5C 275.225,64.395 277.725,65.395 280.5,66.5C 280.5,67.5 280.5,68.5 280.5,69.5C 278.712,69.7852 277.045,69.4519 275.5,68.5C 273.66,65.1889 271.66,64.8555 269.5,67.5 Z"/></g>
<g><path style="opacity:1" fill="#282924" d="M 72.5,121.5 C 72.5,121.833 72.5,122.167 72.5,122.5C 72.5,155.5 72.5,188.5 72.5,221.5C 71.8403,188.597 71.1736,156.264 70.5,124.5C 68.5,124.5 66.5,124.5 64.5,124.5C 64.6641,121.813 64.4974,119.146 64,116.5C 63.4177,119.668 62.4177,120.001 61,117.5C 58.4581,120.685 56.9581,124.352 56.5,128.5C 56.1667,128.333 55.8333,128.167 55.5,128C 54.9723,123.959 53.8056,120.125 52,116.5C 50.9174,122.17 52.0841,127.337 55.5,132C 56.4491,132.617 57.2825,132.451 58,131.5C 59.0375,128.595 60.2042,125.761 61.5,123C 62.6001,122.568 63.2668,123.068 63.5,124.5C 65.2414,127.393 64.5747,129.559 61.5,131C 62.5784,131.674 63.2451,132.674 63.5,134C 62.935,137.769 62.935,141.436 63.5,145C 63.3552,145.772 63.0219,146.439 62.5,147C 59.591,146.716 56.7577,146.883 54,147.5C 52.6595,143.993 50.8261,143.993 48.5,147.5C 45.4926,146.493 43.4926,144.493 42.5,141.5C 41.833,145.647 41.1663,149.647 40.5,153.5C 40.631,152.761 40.4643,152.094 40,151.5C 39.8091,153.708 39.3091,155.708 38.5,157.5C 39.0293,145.654 41.6959,134.321 46.5,123.5C 50.5166,111.129 56.8499,100.129 65.5,90.5C 65.3691,91.3764 65.7025,92.0431 66.5,92.5C 67.4255,91.3595 68.2588,91.3595 69,92.5C 69.3095,91.2341 69.8095,90.0674 70.5,89C 72.8324,86.832 75.499,85.1653 78.5,84C 77.4829,82.9505 77.3162,81.7839 78,80.5C 85.9176,70.9409 95.4176,63.1076 106.5,57C 106.043,56.586 105.709,56.086 105.5,55.5C 108.747,54.3503 112.08,53.517 115.5,53C 116.373,51.955 117.373,51.1217 118.5,50.5C 119.496,50.4142 120.329,50.7476 121,51.5C 123.25,50.2921 125.417,48.9587 127.5,47.5C 134.113,46.5722 140.446,44.9055 146.5,42.5C 149.5,43.8333 152.5,45.1667 155.5,46.5C 158.187,46.4622 158.854,45.4622 157.5,43.5C 156.271,42.7189 154.938,42.2189 153.5,42C 157.546,40.9283 161.546,39.7616 165.5,38.5C 170.984,39.7954 176.484,40.7954 182,41.5C 182.192,43.5767 182.692,45.5767 183.5,47.5C 184.396,46.4937 185.062,46.4937 185.5,47.5C 184.5,48.3333 183.5,49.1667 182.5,50C 185.062,49.7616 187.396,50.7616 189.5,53C 186.45,53.4968 185.45,54.9968 186.5,57.5C 183.623,59.5213 180.79,59.8546 178,58.5C 176.352,59.717 174.519,60.5503 172.5,61C 172.043,61.414 171.709,61.914 171.5,62.5C 172.5,63.8333 173.5,65.1667 174.5,66.5C 173.965,68.1013 172.965,68.6013 171.5,68C 172.833,67 172.833,66 171.5,65C 167.319,63.9504 164.986,65.617 164.5,70C 167.138,71.7645 166.804,73.0978 163.5,74C 166.787,74.7446 167.787,76.578 166.5,79.5C 167.833,80.6199 168.333,81.9532 168,83.5C 166.649,81.9903 164.982,80.9903 163,80.5C 163.167,82.4423 162.167,84.1089 160,85.5C 159.282,84.5494 158.449,84.3828 157.5,85C 159.784,86.3629 159.951,87.8629 158,89.5C 155.735,88.4845 153.901,87.3179 152.5,86C 150.833,85.3333 149.167,85.3333 147.5,86C 148.872,86.4017 150.205,86.9017 151.5,87.5C 152.711,88.2739 152.711,89.1072 151.5,90C 153.112,90.7203 154.612,90.5536 156,89.5C 158.917,91.2298 158.417,92.5632 154.5,93.5C 153.476,92.1468 152.143,91.4802 150.5,91.5C 150.5,92.8333 150.5,94.1667 150.5,95.5C 151.833,95.5 153.167,95.5 154.5,95.5C 154.5,97.8333 154.5,100.167 154.5,102.5C 145.772,100.873 145.439,99.5397 153.5,98.5C 151.579,97.359 149.579,97.1923 147.5,98C 145.647,101.418 142.98,102.918 139.5,102.5C 142.027,103.214 144.527,103.88 147,104.5C 148.889,107.808 148.389,108.142 145.5,105.5C 143.164,106.594 143.164,107.927 145.5,109.5C 144.833,109.833 144.167,110.167 143.5,110.5C 140.849,109.124 138.015,108.124 135,107.5C 133.274,108.648 133.441,109.815 135.5,111C 136.996,111.507 138.163,111.007 139,109.5C 140.728,111.194 140.228,112.361 137.5,113C 135.633,113.711 134.133,113.211 133,111.5C 130.493,113.155 127.659,113.989 124.5,114C 127.954,114.293 128.288,115.626 125.5,118C 120.757,118.543 116.09,118.543 111.5,118C 111.167,118.333 110.833,118.667 110.5,119C 115.5,119.333 120.5,119.667 125.5,120C 107.093,120.161 89.4259,120.661 72.5,121.5 Z"/></g>
<g><path style="opacity:1" fill="#d8b461" d="M 249.5,16.5 C 264.036,22.5915 277.036,30.9248 288.5,41.5C 285.073,41.5879 282.74,43.2545 281.5,46.5C 282.262,46.9106 283.262,47.0773 284.5,47C 283.934,47.9947 283.267,48.828 282.5,49.5C 274.182,43.0067 265.515,37.0067 256.5,31.5C 250.925,28.2141 245.259,25.2141 239.5,22.5C 239.414,21.5041 239.748,20.6708 240.5,20C 235.271,17.9755 235.271,16.1422 240.5,14.5C 243.512,15.1722 246.512,15.8389 249.5,16.5 Z"/></g>
<g><path style="opacity:1" fill="#957434" d="M 256.5,31.5 C 265.515,37.0067 274.182,43.0067 282.5,49.5C 283.585,52.6676 285.751,54.6676 289,55.5C 290.122,57.4205 290.956,59.4205 291.5,61.5C 286.003,56.1708 280.336,51.0042 274.5,46C 268.321,41.9703 262.321,37.8036 256.5,33.5C 256.5,32.8333 256.5,32.1667 256.5,31.5 Z"/></g>
<g><path style="opacity:1" fill="#22221f" d="M 205.5,119.5 C 183.833,120.167 162.167,120.833 140.5,121.5C 140.5,128.167 140.5,134.833 140.5,141.5C 141.66,142.265 142.66,143.265 143.5,144.5C 149.825,145.343 156.158,146.01 162.5,146.5C 162.667,160.171 162.5,173.837 162,187.5C 161.691,186.234 161.191,185.067 160.5,184C 161.458,182.853 161.125,181.853 159.5,181C 160.308,180.692 160.975,180.192 161.5,179.5C 161.154,178.304 160.654,178.304 160,179.5C 158.865,176.35 157.699,173.183 156.5,170C 157.591,167.044 156.424,165.211 153,164.5C 153.931,166.004 154.598,167.671 155,169.5C 152.373,170.314 150.04,171.647 148,173.5C 147.689,174.742 148.189,175.742 149.5,176.5C 147.383,178.831 144.716,179.997 141.5,180C 143.833,180.333 146.167,180.667 148.5,181C 145.571,181.777 142.737,181.61 140,180.5C 137.904,181.715 138.071,182.549 140.5,183C 138.045,184.54 135.379,184.874 132.5,184C 134.937,182.721 135.437,181.221 134,179.5C 133.549,181.929 132.715,182.096 131.5,180C 132.759,179.077 134.092,178.243 135.5,177.5C 134.675,176.614 133.675,176.281 132.5,176.5C 131.138,173.036 130.304,168.702 130,163.5C 129.692,164.308 129.192,164.975 128.5,165.5C 127.376,164.086 126.376,162.586 125.5,161C 114.839,160.5 104.172,160.333 93.5,160.5C 93.5,154.833 93.5,149.167 93.5,143.5C 105.505,143.667 117.505,143.5 129.5,143C 130,142.5 130.5,142 131,141.5C 131.667,135.5 131.667,129.5 131,123.5C 130.722,122.584 130.222,121.918 129.5,121.5C 110.5,121.5 91.5,121.5 72.5,121.5C 89.4259,120.661 107.093,120.161 125.5,120C 120.5,119.667 115.5,119.333 110.5,119C 110.833,118.667 111.167,118.333 111.5,118C 116.09,118.543 120.757,118.543 125.5,118C 128.288,115.626 127.954,114.293 124.5,114C 127.659,113.989 130.493,113.155 133,111.5C 134.133,113.211 135.633,113.711 137.5,113C 140.228,112.361 140.728,111.194 139,109.5C 138.163,111.007 136.996,111.507 135.5,111C 133.441,109.815 133.274,108.648 135,107.5C 138.015,108.124 140.849,109.124 143.5,110.5C 144.167,110.167 144.833,109.833 145.5,109.5C 143.164,107.927 143.164,106.594 145.5,105.5C 148.389,108.142 148.889,107.808 147,104.5C 144.527,103.88 142.027,103.214 139.5,102.5C 142.98,102.918 145.647,101.418 147.5,98C 149.579,97.1923 151.579,97.359 153.5,98.5C 145.439,99.5397 145.772,100.873 154.5,102.5C 154.5,100.167 154.5,97.8333 154.5,95.5C 153.167,95.5 151.833,95.5 150.5,95.5C 150.5,94.1667 150.5,92.8333 150.5,91.5C 152.143,91.4802 153.476,92.1468 154.5,93.5C 158.417,92.5632 158.917,91.2298 156,89.5C 154.612,90.5536 153.112,90.7203 151.5,90C 152.711,89.1072 152.711,88.2739 151.5,87.5C 150.205,86.9017 148.872,86.4017 147.5,86C 149.167,85.3333 150.833,85.3333 152.5,86C 153.901,87.3179 155.735,88.4845 158,89.5C 159.951,87.8629 159.784,86.3629 157.5,85C 158.449,84.3828 159.282,84.5494 160,85.5C 162.167,84.1089 163.167,82.4423 163,80.5C 164.982,80.9903 166.649,81.9903 168,83.5C 168.333,81.9532 167.833,80.6199 166.5,79.5C 167.787,76.578 166.787,74.7446 163.5,74C 166.804,73.0978 167.138,71.7645 164.5,70C 164.986,65.617 167.319,63.9504 171.5,65C 172.833,66 172.833,67 171.5,68C 172.965,68.6013 173.965,68.1013 174.5,66.5C 173.5,65.1667 172.5,63.8333 171.5,62.5C 171.709,61.914 172.043,61.414 172.5,61C 174.519,60.5503 176.352,59.717 178,58.5C 180.79,59.8546 183.623,59.5213 186.5,57.5C 185.45,54.9968 186.45,53.4968 189.5,53C 187.396,50.7616 185.062,49.7616 182.5,50C 183.5,49.1667 184.5,48.3333 185.5,47.5C 185.062,46.4937 184.396,46.4937 183.5,47.5C 182.692,45.5767 182.192,43.5767 182,41.5C 176.484,40.7954 170.984,39.7954 165.5,38.5C 161.546,39.7616 157.546,40.9283 153.5,42C 154.938,42.2189 156.271,42.7189 157.5,43.5C 158.854,45.4622 158.187,46.4622 155.5,46.5C 152.5,45.1667 149.5,43.8333 146.5,42.5C 140.446,44.9055 134.113,46.5722 127.5,47.5C 125.417,48.9587 123.25,50.2921 121,51.5C 120.329,50.7476 119.496,50.4142 118.5,50.5C 124.58,46.6642 131.246,43.8309 138.5,42C 162.272,34.7195 186.272,34.7195 210.5,42C 207.289,42.9465 204.455,44.4465 202,46.5C 200.774,46.3552 199.607,46.0219 198.5,45.5C 197.397,47.1036 195.897,48.1036 194,48.5C 192.584,47.4267 191.25,47.4267 190,48.5C 189.517,47.552 189.351,46.552 189.5,45.5C 188.448,45.3505 187.448,45.5172 186.5,46C 187.337,47.0113 187.67,48.1779 187.5,49.5C 191.5,49.5 195.5,49.5 199.5,49.5C 199.5,50.5 199.5,51.5 199.5,52.5C 202.044,52.8957 204.211,52.229 206,50.5C 208.085,52.0449 210.252,52.3782 212.5,51.5C 213.251,52.376 213.751,53.376 214,54.5C 214.893,53.2888 215.726,53.2888 216.5,54.5C 213.847,58.3224 210.18,60.4891 205.5,61C 207.392,61.9734 209.392,62.6401 211.5,63C 207.5,64.3333 203.5,65.6667 199.5,67C 199.833,67.3333 200.167,67.6667 200.5,68C 199.5,68.8333 198.5,69.6667 197.5,70.5C 198.325,71.3857 199.325,71.719 200.5,71.5C 200.5,72.5 200.5,73.5 200.5,74.5C 199.07,74.5792 197.736,74.2458 196.5,73.5C 195.692,73.8076 195.025,74.3076 194.5,75C 196.9,75.1858 199.234,75.6858 201.5,76.5C 200.176,77.9347 198.51,78.9347 196.5,79.5C 203.19,80.1635 203.856,82.1635 198.5,85.5C 197.289,84.7261 197.289,83.8928 198.5,83C 197,82.5 195.5,82 194,81.5C 192.5,82.5 191,83.5 189.5,84.5C 191.167,85.1667 192.833,85.8333 194.5,86.5C 190.703,88.2835 186.703,89.4501 182.5,90C 185.859,91.2087 189.192,91.7087 192.5,91.5C 194.481,91.5629 196.148,90.8962 197.5,89.5C 198.59,90.727 199.924,91.5604 201.5,92C 199.888,92.7203 198.388,92.5536 197,91.5C 195.604,93.5268 193.938,93.8602 192,92.5C 190.452,97.53 186.952,100.197 181.5,100.5C 181.041,104.82 179.208,105.487 176,102.5C 175.316,103.784 175.483,104.951 176.5,106C 182.837,106.837 182.503,107.503 175.5,108C 180.73,108.909 180.73,110.075 175.5,111.5C 176.833,112.167 178.167,112.833 179.5,113.5C 177.668,114.248 176.001,115.248 174.5,116.5C 172.599,115.422 171.099,114.422 170,113.5C 165.395,114.193 161.228,115.193 157.5,116.5C 160.372,117.783 163.205,117.783 166,116.5C 167.067,117.191 168.234,117.691 169.5,118C 165.586,118.897 165.752,119.397 170,119.5C 172.059,119.007 174.059,118.34 176,117.5C 178.787,118.198 181.62,118.365 184.5,118C 183.5,118.333 182.5,118.667 181.5,119C 189.493,119.5 197.493,119.666 205.5,119.5 Z"/></g>
<g><path style="opacity:1" fill="#1d1d1b" d="M 256.5,62.5 C 269.881,70.8809 280.548,81.8809 288.5,95.5C 287.175,94.0474 286.342,94.3808 286,96.5C 284.312,94.8116 282.645,93.1449 281,91.5C 280.5,91.8333 280,92.1667 279.5,92.5C 282.144,95.1085 284.311,98.1085 286,101.5C 286.798,103.259 286.631,104.926 285.5,106.5C 284.649,104.118 283.316,102.118 281.5,100.5C 281.709,99.914 282.043,99.414 282.5,99C 279.399,96.6463 276.399,94.1463 273.5,91.5C 272.159,94.8007 270.492,97.8007 268.5,100.5C 270.911,100.863 272.411,99.8633 273,97.5C 277.892,98.0521 280.225,100.719 280,105.5C 276.785,105.55 273.619,106.05 270.5,107C 272.81,107.497 275.143,107.663 277.5,107.5C 277.5,109.167 277.5,110.833 277.5,112.5C 276.022,112.238 274.689,112.571 273.5,113.5C 274.914,114.624 276.414,115.624 278,116.5C 279.085,113.183 280.585,112.849 282.5,115.5C 279.836,118.958 277.169,119.125 274.5,116C 272.741,115.202 271.074,115.369 269.5,116.5C 276.019,118.527 276.019,120.861 269.5,123.5C 269.667,123.833 269.833,124.167 270,124.5C 270.893,123.919 271.893,123.585 273,123.5C 275.164,125.16 277.33,125.994 279.5,126C 276.975,126.896 274.808,126.396 273,124.5C 272.5,125 272,125.5 271.5,126C 272.623,127.044 273.956,127.71 275.5,128C 273.807,130.952 271.974,131.118 270,128.5C 268.344,131.053 268.177,133.719 269.5,136.5C 270.873,136.343 272.207,136.51 273.5,137C 271.527,137.495 269.527,137.662 267.5,137.5C 267.207,131.107 267.54,124.773 268.5,118.5C 267.295,116.862 265.962,116.529 264.5,117.5C 262.936,114.864 261.603,115.031 260.5,118C 262.615,118.424 263.448,119.591 263,121.5C 253.578,120.349 244.078,120.182 234.5,121C 243.01,121.171 251.343,121.671 259.5,122.5C 259.167,122.5 258.833,122.5 258.5,122.5C 250.167,122.5 241.833,122.5 233.5,122.5C 224.956,148.796 216.623,175.13 208.5,201.5C 208.5,201.833 208.5,202.167 208.5,202.5C 207.5,204.5 206.5,206.5 205.5,208.5C 205.52,206.857 204.853,205.524 203.5,204.5C 204.274,203.289 205.107,203.289 206,204.5C 206.1,200.798 206.933,197.298 208.5,194C 207.66,192.829 206.827,191.662 206,190.5C 203.651,192.744 204.151,193.911 207.5,194C 206.552,194.483 205.552,194.649 204.5,194.5C 205.008,197.176 205.175,199.843 205,202.5C 203.268,200.805 201.268,199.472 199,198.5C 198.5,198.833 198,199.167 197.5,199.5C 198.5,200.167 199.5,200.833 200.5,201.5C 197.549,202.224 194.549,202.057 191.5,201C 190.833,200 190.167,199 189.5,198C 189.229,189.929 189.563,181.762 190.5,173.5C 189.833,172.5 189.167,171.5 188.5,170.5C 189.257,165.077 189.257,159.577 188.5,154C 188.53,151.576 188.863,149.243 189.5,147C 193.282,147.68 196.782,146.847 200,144.5C 203.346,145.725 206.346,145.058 209,142.5C 209.821,135.654 209.654,128.987 208.5,122.5C 186.006,121.503 163.339,121.169 140.5,121.5C 162.167,120.833 183.833,120.167 205.5,119.5C 205.286,117.856 205.62,116.356 206.5,115C 205.223,114.873 204.057,115.373 203,116.5C 202.192,114.852 200.359,113.685 197.5,113C 199.09,111.954 200.59,110.787 202,109.5C 202.492,110.549 202.326,111.549 201.5,112.5C 202.833,113.833 204.167,113.833 205.5,112.5C 204.584,110.216 205.584,109.049 208.5,109C 205.456,108.641 205.122,107.974 207.5,107C 206.101,106.405 204.768,106.572 203.5,107.5C 203.167,107 202.833,106.5 202.5,106C 204.084,104.165 205.417,102.165 206.5,100C 210.525,99.3321 214.359,98.1654 218,96.5C 218.837,94.6494 219.671,92.8161 220.5,91C 219.216,90.3162 218.049,90.4829 217,91.5C 213.667,88.8333 213.667,86.1667 217,83.5C 218.011,84.3366 219.178,84.67 220.5,84.5C 220.34,86.1992 220.506,87.8659 221,89.5C 222.563,86.4143 224.397,83.4143 226.5,80.5C 222.478,77.2506 222.478,76.5839 226.5,78.5C 230.445,77.7315 234.445,77.2315 238.5,77C 233.453,76.6621 228.453,75.9954 223.5,75C 226.224,74.7305 228.891,74.2305 231.5,73.5C 232.854,75.1836 234.521,75.6836 236.5,75C 232.867,72.8109 232.534,70.1442 235.5,67C 231.717,63.3111 232.05,62.4778 236.5,64.5C 238.471,64.9965 240.471,65.3298 242.5,65.5C 247.086,64.1872 251.753,63.1872 256.5,62.5 Z"/></g>
<g><path style="opacity:1" fill="#c19a47" d="M 288.5,41.5 C 301.935,52.7699 313.435,65.7699 323,80.5C 325.372,83.9099 327.205,87.5766 328.5,91.5C 327.069,91.1193 326.236,90.1193 326,88.5C 325,90.1667 323.667,91.5 322,92.5C 321.333,94.5 321.333,96.5 322,98.5C 324.255,91.8705 326.088,91.5372 327.5,97.5C 328.274,98.7112 329.107,98.7112 330,97.5C 330.667,99.5 330.667,101.5 330,103.5C 326.578,97.989 324.411,98.3223 323.5,104.5C 322.833,104.5 322.167,104.5 321.5,104.5C 313.717,88.5942 303.717,74.2609 291.5,61.5C 290.956,59.4205 290.122,57.4205 289,55.5C 285.751,54.6676 283.585,52.6676 282.5,49.5C 283.267,48.828 283.934,47.9947 284.5,47C 283.262,47.0773 282.262,46.9106 281.5,46.5C 282.74,43.2545 285.073,41.5879 288.5,41.5 Z"/></g>
<g><path style="opacity:1" fill="#f0dd97" d="M 26.5,104.5 C 26.1667,105.833 25.8333,107.167 25.5,108.5C 25.1757,106.036 25.009,103.369 25,100.5C 24,98.8333 23,97.1667 22,95.5C 21.1729,96.6621 20.3396,97.8288 19.5,99C 19.6448,99.772 19.9781,100.439 20.5,101C 19.3094,101.698 18.3094,102.531 17.5,103.5C 17.8333,100.833 18.1667,98.1667 18.5,95.5C 19.4959,95.5858 20.3292,95.2524 21,94.5C 22.2622,90.9215 23.9289,87.5882 26,84.5C 27.0113,83.6634 28.1779,83.33 29.5,83.5C 29.2275,81.0418 30.2275,79.3751 32.5,78.5C 33.8415,80.0049 35.5082,80.6715 37.5,80.5C 38.1667,78.1667 38.8333,75.8333 39.5,73.5C 40.675,73.281 41.675,73.6143 42.5,74.5C 35.3886,83.5957 30.0552,93.5957 26.5,104.5 Z"/></g>
<g><path style="opacity:1" fill="#b18737" d="M 328.5,91.5 C 334.119,100.079 338.119,109.413 340.5,119.5C 340.662,121.527 340.495,123.527 340,125.5C 339.751,124.376 339.251,123.376 338.5,122.5C 338.446,123.53 338.112,124.697 337.5,126C 336.207,126.49 334.873,126.657 333.5,126.5C 333.5,127.833 333.5,129.167 333.5,130.5C 332.883,130.389 332.383,130.056 332,129.5C 330.169,122.509 328.502,115.509 327,108.5C 326.333,109.833 325.667,109.833 325,108.5C 324.209,107.255 323.709,105.922 323.5,104.5C 324.411,98.3223 326.578,97.989 330,103.5C 330.667,101.5 330.667,99.5 330,97.5C 329.107,98.7112 328.274,98.7112 327.5,97.5C 326.088,91.5372 324.255,91.8705 322,98.5C 321.333,96.5 321.333,94.5 322,92.5C 323.667,91.5 325,90.1667 326,88.5C 326.236,90.1193 327.069,91.1193 328.5,91.5 Z"/></g>
<g><path style="opacity:1" fill="#af9355" d="M 292.5,95.5 C 296.476,100.768 299.976,106.434 303,112.5C 305.179,117.944 307.346,123.278 309.5,128.5C 311.58,135.739 313.246,143.073 314.5,150.5C 314.667,162.171 314.5,173.838 314,185.5C 312.721,193.503 311.555,201.503 310.5,209.5C 310.5,210.833 310.5,212.167 310.5,213.5C 308.541,216.732 306.541,220.065 304.5,223.5C 304.167,223.5 303.833,223.5 303.5,223.5C 307.092,212.619 309.759,201.619 311.5,190.5C 312.923,184.392 313.589,178.059 313.5,171.5C 313.651,165.591 312.984,159.925 311.5,154.5C 310.47,146.042 308.637,137.709 306,129.5C 301.531,117.895 296.031,106.895 289.5,96.5C 290.75,96.5774 291.583,97.244 292,98.5C 292.483,97.552 292.649,96.552 292.5,95.5 Z"/></g>
<g><path style="opacity:1" fill="#8e8974" d="M 16.5,99.5 C 16.6567,100.873 16.49,102.207 16,103.5C 13.5508,109.093 11.0508,114.426 8.5,119.5C 10.0941,112.325 12.7607,105.659 16.5,99.5 Z"/></g>
<g><path style="opacity:1" fill="#171715" d="M 288.5,95.5 C 289.167,95.5 289.5,95.8333 289.5,96.5C 296.031,106.895 301.531,117.895 306,129.5C 308.637,137.709 310.47,146.042 311.5,154.5C 312.798,166.498 312.798,178.498 311.5,190.5C 309.759,201.619 307.092,212.619 303.5,223.5C 300.898,227.706 298.564,232.039 296.5,236.5C 295.604,232.999 293.938,229.999 291.5,227.5C 291.799,225.185 292.632,225.185 294,227.5C 294.667,225.167 294.667,222.833 294,220.5C 293.329,221.252 292.496,221.586 291.5,221.5C 284.891,200.006 277.891,178.672 270.5,157.5C 269.078,151.233 267.078,145.233 264.5,139.5C 263.61,133.834 261.943,128.5 259.5,123.5C 259.5,123.167 259.5,122.833 259.5,122.5C 251.343,121.671 243.01,121.171 234.5,121C 244.078,120.182 253.578,120.349 263,121.5C 263.448,119.591 262.615,118.424 260.5,118C 261.603,115.031 262.936,114.864 264.5,117.5C 265.962,116.529 267.295,116.862 268.5,118.5C 267.54,124.773 267.207,131.107 267.5,137.5C 269.527,137.662 271.527,137.495 273.5,137C 272.207,136.51 270.873,136.343 269.5,136.5C 268.177,133.719 268.344,131.053 270,128.5C 271.974,131.118 273.807,130.952 275.5,128C 273.956,127.71 272.623,127.044 271.5,126C 272,125.5 272.5,125 273,124.5C 274.808,126.396 276.975,126.896 279.5,126C 277.33,125.994 275.164,125.16 273,123.5C 271.893,123.585 270.893,123.919 270,124.5C 269.833,124.167 269.667,123.833 269.5,123.5C 276.019,120.861 276.019,118.527 269.5,116.5C 271.074,115.369 272.741,115.202 274.5,116C 277.169,119.125 279.836,118.958 282.5,115.5C 280.585,112.849 279.085,113.183 278,116.5C 276.414,115.624 274.914,114.624 273.5,113.5C 274.689,112.571 276.022,112.238 277.5,112.5C 277.5,110.833 277.5,109.167 277.5,107.5C 275.143,107.663 272.81,107.497 270.5,107C 273.619,106.05 276.785,105.55 280,105.5C 280.225,100.719 277.892,98.0521 273,97.5C 272.411,99.8633 270.911,100.863 268.5,100.5C 270.492,97.8007 272.159,94.8007 273.5,91.5C 276.399,94.1463 279.399,96.6463 282.5,99C 282.043,99.414 281.709,99.914 281.5,100.5C 283.316,102.118 284.649,104.118 285.5,106.5C 286.631,104.926 286.798,103.259 286,101.5C 284.311,98.1085 282.144,95.1085 279.5,92.5C 280,92.1667 280.5,91.8333 281,91.5C 282.645,93.1449 284.312,94.8116 286,96.5C 286.342,94.3808 287.175,94.0474 288.5,95.5 Z"/></g>
<g><path style="opacity:1" fill="#615f47" d="M 72.5,122.5 C 72.5,122.167 72.5,121.833 72.5,121.5C 91.5,121.5 110.5,121.5 129.5,121.5C 129.824,128.354 129.491,135.021 128.5,141.5C 128.5,135.5 128.5,129.5 128.5,123.5C 110.007,122.503 91.3408,122.17 72.5,122.5 Z"/></g>
<g><path style="opacity:1" fill="#857d6d" d="M 8.5,119.5 C 8.94649,122.01 8.27983,124.01 6.5,125.5C 6.59495,123.214 7.26162,121.214 8.5,119.5 Z"/></g>
<g><path style="opacity:1" fill="#ddcf97" d="M 18.5,95.5 C 18.1667,98.1667 17.8333,100.833 17.5,103.5C 13.3487,113.689 9.51533,124.022 6,134.5C 4.40307,141.047 3.40307,147.714 3,154.5C 2.72158,155.416 2.22158,156.082 1.5,156.5C 2.22948,151.87 2.56282,147.203 2.5,142.5C 3.22158,142.082 3.72158,141.416 4,140.5C 4.49742,137.854 4.66409,135.187 4.5,132.5C 6.16276,130.562 6.82943,128.228 6.5,125.5C 8.27983,124.01 8.94649,122.01 8.5,119.5C 11.0508,114.426 13.5508,109.093 16,103.5C 16.49,102.207 16.6567,100.873 16.5,99.5C 16.6596,97.847 17.3263,96.5137 18.5,95.5 Z"/></g>
<g><path style="opacity:1" fill="#736237" d="M 259.5,123.5 C 261.943,128.5 263.61,133.834 264.5,139.5C 262.057,134.5 260.39,129.166 259.5,123.5 Z"/></g>
<g><path style="opacity:1" fill="#5f5d4b" d="M 6.5,125.5 C 6.82943,128.228 6.16276,130.562 4.5,132.5C 4.72148,129.933 5.38815,127.599 6.5,125.5 Z"/></g>
<g><path style="opacity:1" fill="#dbb864" d="M 207.5,123.5 C 207.5,129.167 207.5,134.833 207.5,140.5C 199.648,140.175 191.982,140.508 184.5,141.5C 183.508,148.982 183.175,156.648 183.5,164.5C 182.679,161.359 182.179,158.025 182,154.5C 179.333,155.167 176.667,155.833 174,156.5C 172.249,155.191 170.749,155.525 169.5,157.5C 168.914,157.291 168.414,156.957 168,156.5C 167.826,151.316 167.326,146.316 166.5,141.5C 166.5,140.167 166.5,138.833 166.5,137.5C 171.489,138.886 174.489,136.886 175.5,131.5C 172.662,132.946 169.662,133.446 166.5,133C 166.93,132.08 167.264,131.247 167.5,130.5C 168.192,131.025 168.692,131.692 169,132.5C 169.772,131.151 170.939,130.318 172.5,130C 175.833,129.667 179.167,129.333 182.5,129C 178.178,127.671 173.844,126.337 169.5,125C 182.131,123.708 194.798,123.208 207.5,123.5 Z"/></g>
<g><path style="opacity:1" fill="#e4c97a" d="M 207.5,122.5 C 207.5,122.833 207.5,123.167 207.5,123.5C 194.798,123.208 182.131,123.708 169.5,125C 173.844,126.337 178.178,127.671 182.5,129C 179.167,129.333 175.833,129.667 172.5,130C 170.939,130.318 169.772,131.151 169,132.5C 168.692,131.692 168.192,131.025 167.5,130.5C 167.264,131.247 166.93,132.08 166.5,133C 169.662,133.446 172.662,132.946 175.5,131.5C 174.489,136.886 171.489,138.886 166.5,137.5C 166.5,138.833 166.5,140.167 166.5,141.5C 166.5,160.167 166.5,178.833 166.5,197.5C 166.666,205.174 166.5,212.841 166,220.5C 165.832,193.997 165.332,167.663 164.5,141.5C 157.018,140.508 149.352,140.175 141.5,140.5C 141.5,134.5 141.5,128.5 141.5,122.5C 163.5,122.5 185.5,122.5 207.5,122.5 Z"/></g>
<g><path style="opacity:1" fill="#a1782d" d="M 340.5,119.5 C 342.589,123.501 343.922,127.835 344.5,132.5C 345.429,140.491 345.929,148.491 346,156.5C 344.186,159.87 342.353,160.037 340.5,157C 340.833,156.667 341.167,156.333 341.5,156C 340.88,153.527 340.214,151.027 339.5,148.5C 339.167,148.667 338.833,148.833 338.5,149C 339.829,160.265 339.829,171.431 338.5,182.5C 338.813,164.963 337.146,147.63 333.5,130.5C 333.5,129.167 333.5,127.833 333.5,126.5C 334.873,126.657 336.207,126.49 337.5,126C 338.112,124.697 338.446,123.53 338.5,122.5C 339.251,123.376 339.751,124.376 340,125.5C 340.495,123.527 340.662,121.527 340.5,119.5 Z"/></g>
<g><path style="opacity:1" fill="#635b50" d="M 4.5,132.5 C 4.66409,135.187 4.49742,137.854 4,140.5C 3.72158,141.416 3.22158,142.082 2.5,142.5C 2.54877,138.922 3.21543,135.589 4.5,132.5 Z"/></g>
<g><path style="opacity:1" fill="#82774f" d="M 140.5,121.5 C 163.339,121.169 186.006,121.503 208.5,122.5C 208.167,122.5 207.833,122.5 207.5,122.5C 185.5,122.5 163.5,122.5 141.5,122.5C 141.5,128.5 141.5,134.5 141.5,140.5C 149.352,140.175 157.018,140.508 164.5,141.5C 156.5,141.5 148.5,141.5 140.5,141.5C 140.5,134.833 140.5,128.167 140.5,121.5 Z"/></g>
<g><path style="opacity:1" fill="#917a43" d="M 207.5,122.5 C 207.833,122.5 208.167,122.5 208.5,122.5C 208.5,128.833 208.5,135.167 208.5,141.5C 200.5,141.5 192.5,141.5 184.5,141.5C 191.982,140.508 199.648,140.175 207.5,140.5C 207.5,134.833 207.5,129.167 207.5,123.5C 207.5,123.167 207.5,122.833 207.5,122.5 Z"/></g>
<g><path style="opacity:1" fill="#d2c283" d="M 44.5,121.5 C 44.1307,123.993 44.7973,124.66 46.5,123.5C 41.6959,134.321 39.0293,145.654 38.5,157.5C 37.6618,157.842 37.3284,158.508 37.5,159.5C 36.67,168.991 36.17,178.658 36,188.5C 35.6174,189.056 35.1174,189.389 34.5,189.5C 33.9434,173.415 34.7767,157.415 37,141.5C 38.6775,134.487 41.1775,127.82 44.5,121.5 Z"/></g>
<g><path style="opacity:1" fill="#624d21" d="M 22.5,118.5 C 20.4829,129.572 17.9829,140.572 15,151.5C 14.324,165.514 14.4907,179.514 15.5,193.5C 14.7784,193.082 14.2784,192.416 14,191.5C 13.5001,179.505 13.3335,167.505 13.5,155.5C 14.1875,142.421 17.1875,130.088 22.5,118.5 Z"/></g>
<g><path style="opacity:1" fill="#222220" d="M 70.5,124.5 C 69.7421,147.486 69.2421,170.486 69,193.5C 68.0266,191.608 67.3599,189.608 67,187.5C 67.1201,194.161 67.1201,200.827 67,207.5C 65.5399,209.972 64.5399,212.639 64,215.5C 63.5983,214.128 63.0983,212.795 62.5,211.5C 63.5,210.667 64.5,209.833 65.5,209C 64.7877,207.575 64.621,206.075 65,204.5C 64.6667,204.167 64.3333,203.833 64,203.5C 62.0767,206.969 59.7434,207.302 57,204.5C 55.7147,204.95 54.548,205.617 53.5,206.5C 49.5417,204.117 48.5417,200.784 50.5,196.5C 52.0745,195.369 53.7412,195.202 55.5,196C 52.5071,198.458 52.0071,201.291 54,204.5C 58.0473,204.119 60.5473,201.953 61.5,198C 58.2515,195.419 54.5848,193.753 50.5,193C 48.588,190.052 46.588,190.219 44.5,193.5C 43.7519,188.531 42.7519,183.698 41.5,179C 42.5115,175.959 42.1781,173.292 40.5,171C 41.1737,169.249 41.507,167.583 41.5,166C 40.4216,165.326 39.7549,164.326 39.5,163C 40.256,159.875 40.5893,156.709 40.5,153.5C 41.1663,149.647 41.833,145.647 42.5,141.5C 43.4926,144.493 45.4926,146.493 48.5,147.5C 50.8261,143.993 52.6595,143.993 54,147.5C 56.7577,146.883 59.591,146.716 62.5,147C 63.0219,146.439 63.3552,145.772 63.5,145C 62.935,141.436 62.935,137.769 63.5,134C 63.2451,132.674 62.5784,131.674 61.5,131C 64.5747,129.559 65.2414,127.393 63.5,124.5C 63.2668,123.068 62.6001,122.568 61.5,123C 60.2042,125.761 59.0375,128.595 58,131.5C 57.2825,132.451 56.4491,132.617 55.5,132C 52.0841,127.337 50.9174,122.17 52,116.5C 53.8056,120.125 54.9723,123.959 55.5,128C 55.8333,128.167 56.1667,128.333 56.5,128.5C 56.9581,124.352 58.4581,120.685 61,117.5C 62.4177,120.001 63.4177,119.668 64,116.5C 64.4974,119.146 64.6641,121.813 64.5,124.5C 66.5,124.5 68.5,124.5 70.5,124.5 Z"/></g>
<g><path style="opacity:1" fill="#d6b562" d="M 258.5,122.5 C 258.833,122.5 259.167,122.5 259.5,122.5C 259.5,122.833 259.5,123.167 259.5,123.5C 260.39,129.166 262.057,134.5 264.5,139.5C 262.952,142.244 262.118,145.911 262,150.5C 261.612,149.572 260.945,148.905 260,148.5C 258.629,149.581 257.129,150.415 255.5,151C 257.569,151.324 257.902,152.158 256.5,153.5C 259.196,157.784 258.363,158.451 254,155.5C 253.833,156 253.667,156.5 253.5,157C 255.075,158.12 256.075,159.62 256.5,161.5C 255.673,164.783 255.34,168.116 255.5,171.5C 257.443,173.395 258.943,175.728 260,178.5C 260.273,176.899 260.773,175.399 261.5,174C 260.288,172.893 260.621,172.393 262.5,172.5C 263.152,173.449 263.486,174.615 263.5,176C 262.849,178.642 261.849,181.142 260.5,183.5C 256.167,183.833 251.833,184.167 247.5,184.5C 242.652,184.441 237.985,183.774 233.5,182.5C 232.833,183.167 232.167,183.833 231.5,184.5C 230.516,181.572 230.183,178.572 230.5,175.5C 229.325,175.281 228.325,175.614 227.5,176.5C 227.245,178.343 227.078,180.343 227,182.5C 225.107,183.965 223.44,185.631 222,187.5C 218.495,185.411 218.828,184.078 223,183.5C 223.564,181.438 223.064,179.605 221.5,178C 222.663,176.145 224.33,174.811 226.5,174C 224.037,172.03 221.703,172.196 219.5,174.5C 224.39,157.246 229.723,140.246 235.5,123.5C 243.352,123.825 251.018,123.492 258.5,122.5 Z"/></g>
<g><path style="opacity:1" fill="#c9bc8b" d="M 258.5,122.5 C 251.018,123.492 243.352,123.825 235.5,123.5C 229.723,140.246 224.39,157.246 219.5,174.5C 216.081,183.662 212.414,192.662 208.5,201.5C 216.623,175.13 224.956,148.796 233.5,122.5C 241.833,122.5 250.167,122.5 258.5,122.5 Z"/></g>
<g><path style="opacity:1" fill="#dec476" d="M 25.5,108.5 C 24.4243,111.871 23.4243,115.204 22.5,118.5C 17.1875,130.088 14.1875,142.421 13.5,155.5C 13.1667,155.5 12.8333,155.5 12.5,155.5C 12.6641,152.813 12.4974,150.146 12,147.5C 11.2322,152.846 10.3989,158.179 9.5,163.5C 8.72672,161.187 8.06006,158.854 7.5,156.5C 6.36872,155.396 5.53539,155.729 5,157.5C 4.66667,156.833 4.33333,156.167 4,155.5C 3.50009,170.163 3.33342,184.83 3.5,199.5C 1.06958,193.186 0.0695827,186.52 0.5,179.5C 0.174637,171.648 0.50797,163.982 1.5,156.5C 2.22158,156.082 2.72158,155.416 3,154.5C 3.40307,147.714 4.40307,141.047 6,134.5C 9.51533,124.022 13.3487,113.689 17.5,103.5C 18.3094,102.531 19.3094,101.698 20.5,101C 19.9781,100.439 19.6448,99.772 19.5,99C 20.3396,97.8288 21.1729,96.6621 22,95.5C 23,97.1667 24,98.8333 25,100.5C 25.009,103.369 25.1757,106.036 25.5,108.5 Z"/></g>
<g><path style="opacity:1" fill="#bea058" d="M 321.5,104.5 C 322.167,104.5 322.833,104.5 323.5,104.5C 323.709,105.922 324.209,107.255 325,108.5C 325.667,109.833 326.333,109.833 327,108.5C 328.502,115.509 330.169,122.509 332,129.5C 332.383,130.056 332.883,130.389 333.5,130.5C 337.146,147.63 338.813,164.963 338.5,182.5C 338.549,189.013 337.883,195.346 336.5,201.5C 335.766,202.708 335.433,204.041 335.5,205.5C 334.778,205.082 334.278,204.416 334,203.5C 334.053,206.675 333.22,209.342 331.5,211.5C 333.044,203.235 334.044,194.901 334.5,186.5C 335.166,181.511 335.499,176.344 335.5,171C 335.64,162.616 334.974,154.449 333.5,146.5C 332.7,134.785 329.7,123.785 324.5,113.5C 323.345,110.543 322.345,107.543 321.5,104.5 Z"/></g>
<g><path style="opacity:1" fill="#1b1b18" d="M 129.5,121.5 C 130.222,121.918 130.722,122.584 131,123.5C 131.667,129.5 131.667,135.5 131,141.5C 130.5,142 130,142.5 129.5,143C 117.505,143.5 105.505,143.667 93.5,143.5C 93.5,149.167 93.5,154.833 93.5,160.5C 104.172,160.333 114.839,160.5 125.5,161C 126.376,162.586 127.376,164.086 128.5,165.5C 129.192,164.975 129.692,164.308 130,163.5C 130.304,168.702 131.138,173.036 132.5,176.5C 133.675,176.281 134.675,176.614 135.5,177.5C 134.092,178.243 132.759,179.077 131.5,180C 132.715,182.096 133.549,181.929 134,179.5C 135.437,181.221 134.937,182.721 132.5,184C 135.379,184.874 138.045,184.54 140.5,183C 138.071,182.549 137.904,181.715 140,180.5C 142.737,181.61 145.571,181.777 148.5,181C 146.167,180.667 143.833,180.333 141.5,180C 144.716,179.997 147.383,178.831 149.5,176.5C 148.189,175.742 147.689,174.742 148,173.5C 150.04,171.647 152.373,170.314 155,169.5C 154.598,167.671 153.931,166.004 153,164.5C 156.424,165.211 157.591,167.044 156.5,170C 157.699,173.183 158.865,176.35 160,179.5C 160.654,178.304 161.154,178.304 161.5,179.5C 160.975,180.192 160.308,180.692 159.5,181C 161.125,181.853 161.458,182.853 160.5,184C 161.191,185.067 161.691,186.234 162,187.5C 162.5,173.837 162.667,160.171 162.5,146.5C 156.158,146.01 149.825,145.343 143.5,144.5C 142.66,143.265 141.66,142.265 140.5,141.5C 148.5,141.5 156.5,141.5 164.5,141.5C 164.5,168.167 164.5,194.833 164.5,221.5C 165.626,223.5 165.793,225.5 165,227.5C 165.414,227.043 165.914,226.709 166.5,226.5C 168.115,227.154 169.782,227.654 171.5,228C 169.782,228.346 168.115,228.846 166.5,229.5C 165.371,233.257 166.705,234.257 170.5,232.5C 170.919,231.328 171.585,230.328 172.5,229.5C 172.94,230.698 173.273,231.865 173.5,233C 175.167,233.333 176.833,233.667 178.5,234C 175.648,234.269 172.982,235.103 170.5,236.5C 166.771,234.967 166.104,235.467 168.5,238C 167.419,239.371 166.585,240.871 166,242.5C 164.915,240.343 163.749,240.176 162.5,242C 164.271,242.535 164.604,243.369 163.5,244.5C 159.825,243.801 156.325,244.467 153,246.5C 150.797,245.123 149.297,243.123 148.5,240.5C 147.355,241.776 147.355,243.109 148.5,244.5C 148,244.833 147.5,245.167 147,245.5C 144.234,243.985 141.734,244.318 139.5,246.5C 144.416,247.63 148.749,249.797 152.5,253C 151.975,253.692 151.308,254.192 150.5,254.5C 145.71,249.881 140.043,248.381 133.5,250C 136.053,251.656 138.719,251.823 141.5,250.5C 141.5,251.5 141.5,252.5 141.5,253.5C 140.5,253.5 139.5,253.5 138.5,253.5C 139.823,256.281 139.656,258.947 138,261.5C 136.022,262.816 134.522,262.316 133.5,260C 134.448,259.517 135.448,259.351 136.5,259.5C 136.5,258.5 136.5,257.5 136.5,256.5C 133.45,255.923 131.45,257.09 130.5,260C 127.469,260.495 124.469,260.329 121.5,259.5C 119.614,262.455 118.614,265.789 118.5,269.5C 119.675,269.281 120.675,269.614 121.5,270.5C 120.271,271.281 118.938,271.781 117.5,272C 120.279,272.149 120.779,272.983 119,274.5C 118.741,277.587 118.241,280.587 117.5,283.5C 116.883,283.611 116.383,283.944 116,284.5C 115.605,282.821 115.772,281.155 116.5,279.5C 116.444,278.263 115.944,277.263 115,276.5C 113.008,277.328 111.508,278.661 110.5,280.5C 109.833,280.5 109.5,280.167 109.5,279.5C 105.918,276.364 101.918,273.697 97.5,271.5C 94.8714,270.04 92.3714,268.374 90,266.5C 86.3364,269.997 82.8364,273.664 79.5,277.5C 75.5388,276.755 74.8722,274.922 77.5,272C 76.7968,268.845 75.1301,267.678 72.5,268.5C 72.6495,267.448 72.4828,266.448 72,265.5C 66.2546,258.922 61.0879,251.922 56.5,244.5C 53.8606,237.888 50.6939,231.554 47,225.5C 44.5771,214.954 41.7437,204.62 38.5,194.5C 38.5,193.833 38.5,193.167 38.5,192.5C 37.7141,181.518 37.3808,170.518 37.5,159.5C 37.3284,158.508 37.6618,157.842 38.5,157.5C 39.3091,155.708 39.8091,153.708 40,151.5C 40.4643,152.094 40.631,152.761 40.5,153.5C 40.5893,156.709 40.256,159.875 39.5,163C 39.7549,164.326 40.4216,165.326 41.5,166C 41.507,167.583 41.1737,169.249 40.5,171C 42.1781,173.292 42.5115,175.959 41.5,179C 42.7519,183.698 43.7519,188.531 44.5,193.5C 46.588,190.219 48.588,190.052 50.5,193C 54.5848,193.753 58.2515,195.419 61.5,198C 60.5473,201.953 58.0473,204.119 54,204.5C 52.0071,201.291 52.5071,198.458 55.5,196C 53.7412,195.202 52.0745,195.369 50.5,196.5C 48.5417,200.784 49.5417,204.117 53.5,206.5C 54.548,205.617 55.7147,204.95 57,204.5C 59.7434,207.302 62.0767,206.969 64,203.5C 64.3333,203.833 64.6667,204.167 65,204.5C 64.621,206.075 64.7877,207.575 65.5,209C 64.5,209.833 63.5,210.667 62.5,211.5C 63.0983,212.795 63.5983,214.128 64,215.5C 64.5399,212.639 65.5399,209.972 67,207.5C 67.1201,200.827 67.1201,194.161 67,187.5C 67.3599,189.608 68.0266,191.608 69,193.5C 69.2421,170.486 69.7421,147.486 70.5,124.5C 71.1736,156.264 71.8403,188.597 72.5,221.5C 73.1667,221.5 73.8333,221.5 74.5,221.5C 93.1667,221.5 111.833,221.5 130.5,221.5C 130.5,214.833 130.5,208.167 130.5,201.5C 117.5,201.5 104.5,201.5 91.5,201.5C 91.5,194.5 91.5,187.5 91.5,180.5C 102.5,180.5 113.5,180.5 124.5,180.5C 124.5,174.833 124.5,169.167 124.5,163.5C 113.884,161.523 102.884,160.856 91.5,161.5C 91.5,154.833 91.5,148.167 91.5,141.5C 103.833,141.5 116.167,141.5 128.5,141.5C 129.491,135.021 129.824,128.354 129.5,121.5 Z"/></g>
<g><path style="opacity:1" fill="#a8a484" d="M 91.5,161.5 C 102.884,160.856 113.884,161.523 124.5,163.5C 113.401,162.854 102.401,162.187 91.5,161.5 Z"/></g>
<g><path style="opacity:1" fill="#ebd589" d="M 128.5,123.5 C 128.5,129.5 128.5,135.5 128.5,141.5C 116.167,141.5 103.833,141.5 91.5,141.5C 90.2026,146.62 89.3693,151.954 89,157.5C 88.8871,155.026 87.8871,153.026 86,151.5C 84.9717,153.361 83.4717,154.695 81.5,155.5C 81.4669,154.011 80.9669,152.678 80,151.5C 79.5172,152.448 79.3505,153.448 79.5,154.5C 78.1779,154.33 77.0113,154.663 76,155.5C 75.454,158.379 74.6206,161.046 73.5,163.5C 73.5,150.167 73.5,136.833 73.5,123.5C 91.8333,123.5 110.167,123.5 128.5,123.5 Z"/></g>
<g><path style="opacity:1" fill="#473f22" d="M 333.5,146.5 C 334.974,154.449 335.64,162.616 335.5,171C 335.499,176.344 335.166,181.511 334.5,186.5C 334.611,173.152 334.277,159.819 333.5,146.5 Z"/></g>
<g><path style="opacity:1" fill="#dfc170" d="M 91.5,141.5 C 91.5,148.167 91.5,154.833 91.5,161.5C 102.401,162.187 113.401,162.854 124.5,163.5C 124.5,169.167 124.5,174.833 124.5,180.5C 113.5,180.5 102.5,180.5 91.5,180.5C 90.9269,187.426 90.0935,194.426 89,201.5C 88.586,201.957 88.086,202.291 87.5,202.5C 86.8333,200.167 86.1667,197.833 85.5,195.5C 84.8076,196.025 84.3076,196.692 84,197.5C 82.9887,196.663 81.8221,196.33 80.5,196.5C 80.5,199.5 80.5,202.5 80.5,205.5C 77.6711,205.675 76.0045,204.342 75.5,201.5C 74.8243,202.602 74.1577,203.602 73.5,204.5C 73.5,190.833 73.5,177.167 73.5,163.5C 74.6206,161.046 75.454,158.379 76,155.5C 77.0113,154.663 78.1779,154.33 79.5,154.5C 79.3505,153.448 79.5172,152.448 80,151.5C 80.9669,152.678 81.4669,154.011 81.5,155.5C 83.4717,154.695 84.9717,153.361 86,151.5C 87.8871,153.026 88.8871,155.026 89,157.5C 89.3693,151.954 90.2026,146.62 91.5,141.5 Z"/></g>
<g><path style="opacity:1" fill="#725a2a" d="M 314.5,150.5 C 317.246,166.709 317.079,183.042 314,199.5C 313.054,203.028 311.887,206.361 310.5,209.5C 311.555,201.503 312.721,193.503 314,185.5C 314.5,173.838 314.667,162.171 314.5,150.5 Z"/></g>
<g><path style="opacity:1" fill="#7f704a" d="M 311.5,154.5 C 312.984,159.925 313.651,165.591 313.5,171.5C 313.589,178.059 312.923,184.392 311.5,190.5C 312.798,178.498 312.798,166.498 311.5,154.5 Z"/></g>
<g><path style="opacity:0.993" fill="#3d372e" d="M 2.5,142.5 C 2.56282,147.203 2.22948,151.87 1.5,156.5C 0.50797,163.982 0.174637,171.648 0.5,179.5C 0.166667,179.5 -0.166667,179.5 -0.5,179.5C -0.5,171.5 -0.5,163.5 -0.5,155.5C 0.407598,151.149 1.4076,146.816 2.5,142.5 Z"/></g>
<g><path style="opacity:1" fill="#cda854" d="M 264.5,139.5 C 267.078,145.233 269.078,151.233 270.5,157.5C 270.336,160.187 270.503,162.854 271,165.5C 271.333,165.167 271.667,164.833 272,164.5C 272.896,167.025 272.396,169.192 270.5,171C 270.649,172.816 270.649,174.649 270.5,176.5C 268.983,176.511 267.816,177.177 267,178.5C 266.691,177.234 266.191,176.067 265.5,175C 266.591,172.936 266.758,170.769 266,168.5C 263.929,169.103 262.762,170.436 262.5,172.5C 260.621,172.393 260.288,172.893 261.5,174C 260.773,175.399 260.273,176.899 260,178.5C 258.943,175.728 257.443,173.395 255.5,171.5C 255.34,168.116 255.673,164.783 256.5,161.5C 256.075,159.62 255.075,158.12 253.5,157C 253.667,156.5 253.833,156 254,155.5C 258.363,158.451 259.196,157.784 256.5,153.5C 257.902,152.158 257.569,151.324 255.5,151C 257.129,150.415 258.629,149.581 260,148.5C 260.945,148.905 261.612,149.572 262,150.5C 262.118,145.911 262.952,142.244 264.5,139.5 Z"/></g>
<g><path style="opacity:1" fill="#1a1915" d="M 255.5,171.5 C 256.294,174.802 256.96,178.135 257.5,181.5C 250.167,181.5 242.833,181.5 235.5,181.5C 238.679,169.123 242.179,156.79 246,144.5C 246.667,145.167 247.333,145.833 248,146.5C 250.232,155.02 252.732,163.354 255.5,171.5 Z"/></g>
<g><path style="opacity:1" fill="#ddd19f" d="M 72.5,122.5 C 91.3408,122.17 110.007,122.503 128.5,123.5C 110.167,123.5 91.8333,123.5 73.5,123.5C 73.5,136.833 73.5,150.167 73.5,163.5C 73.5,177.167 73.5,190.833 73.5,204.5C 73.2143,210.259 73.5476,215.925 74.5,221.5C 73.8333,221.5 73.1667,221.5 72.5,221.5C 72.5,188.5 72.5,155.5 72.5,122.5 Z"/></g>
<g><path style="opacity:1" fill="#d8b55e" d="M 12.5,155.5 C 12.2933,170.186 12.6267,184.853 13.5,199.5C 12.5,199.5 11.5,199.5 10.5,199.5C 10.6567,198.127 10.49,196.793 10,195.5C 8.31897,198.715 6.1523,200.715 3.5,201.5C 3.5,200.833 3.5,200.167 3.5,199.5C 3.33342,184.83 3.50009,170.163 4,155.5C 4.33333,156.167 4.66667,156.833 5,157.5C 5.53539,155.729 6.36872,155.396 7.5,156.5C 8.06006,158.854 8.72672,161.187 9.5,163.5C 10.3989,158.179 11.2322,152.846 12,147.5C 12.4974,150.146 12.6641,152.813 12.5,155.5 Z"/></g>
<g><path style="opacity:1" fill="#c49d4b" d="M 270.5,176.5 C 271.268,177.263 271.768,178.263 272,179.5C 272.315,176.853 273.482,176.187 275.5,177.5C 275.168,185.864 275.834,194.197 277.5,202.5C 275.867,204.503 273.867,205.836 271.5,206.5C 271.66,204.801 271.494,203.134 271,201.5C 269.333,199.5 267.667,197.5 266,195.5C 265.355,196.646 264.522,197.646 263.5,198.5C 252.007,199.167 240.674,199.833 229.5,200.5C 228.542,202.302 227.875,204.302 227.5,206.5C 226.001,209.047 224.501,211.714 223,214.5C 222.506,216.134 222.34,217.801 222.5,219.5C 216.833,219.5 211.167,219.5 205.5,219.5C 206.179,213.796 207.179,208.129 208.5,202.5C 208.5,202.167 208.5,201.833 208.5,201.5C 212.414,192.662 216.081,183.662 219.5,174.5C 221.703,172.196 224.037,172.03 226.5,174C 224.33,174.811 222.663,176.145 221.5,178C 223.064,179.605 223.564,181.438 223,183.5C 218.828,184.078 218.495,185.411 222,187.5C 223.44,185.631 225.107,183.965 227,182.5C 227.078,180.343 227.245,178.343 227.5,176.5C 228.325,175.614 229.325,175.281 230.5,175.5C 230.183,178.572 230.516,181.572 231.5,184.5C 232.167,183.833 232.833,183.167 233.5,182.5C 237.985,183.774 242.652,184.441 247.5,184.5C 251.833,184.167 256.167,183.833 260.5,183.5C 261.849,181.142 262.849,178.642 263.5,176C 263.486,174.615 263.152,173.449 262.5,172.5C 262.762,170.436 263.929,169.103 266,168.5C 266.758,170.769 266.591,172.936 265.5,175C 266.191,176.067 266.691,177.234 267,178.5C 267.816,177.177 268.983,176.511 270.5,176.5 Z"/></g>
<g><path style="opacity:1" fill="#a19057" d="M 37.5,159.5 C 37.3808,170.518 37.7141,181.518 38.5,192.5C 37.7321,191.737 37.2321,190.737 37,189.5C 36.5017,192.817 36.335,196.15 36.5,199.5C 36.1667,199.5 35.8333,199.5 35.5,199.5C 34.7929,196.214 34.4595,192.881 34.5,189.5C 35.1174,189.389 35.6174,189.056 36,188.5C 36.17,178.658 36.67,168.991 37.5,159.5 Z"/></g>
<g><path style="opacity:1" fill="#906924" d="M 344.5,132.5 C 346.786,139.877 348.119,147.544 348.5,155.5C 348.666,165.839 348.5,176.172 348,186.5C 347.599,188.521 346.432,189.855 344.5,190.5C 343.52,193.086 343.187,195.753 343.5,198.5C 341.61,198.297 340.11,198.963 339,200.5C 338.667,199.833 338.333,199.167 338,198.5C 337.768,199.737 337.268,200.737 336.5,201.5C 337.883,195.346 338.549,189.013 338.5,182.5C 339.829,171.431 339.829,160.265 338.5,149C 338.833,148.833 339.167,148.667 339.5,148.5C 340.214,151.027 340.88,153.527 341.5,156C 341.167,156.333 340.833,156.667 340.5,157C 342.353,160.037 344.186,159.87 346,156.5C 345.929,148.491 345.429,140.491 344.5,132.5 Z"/></g>
<g><path style="opacity:1" fill="#d1b567" d="M 38.5,192.5 C 38.5,193.167 38.5,193.833 38.5,194.5C 39.0578,198.677 39.7244,202.844 40.5,207C 40.3333,208.5 40.1667,210 40,211.5C 39.7216,210.584 39.2216,209.918 38.5,209.5C 37.8333,206.167 37.1667,202.833 36.5,199.5C 36.335,196.15 36.5017,192.817 37,189.5C 37.2321,190.737 37.7321,191.737 38.5,192.5 Z"/></g>
<g><path style="opacity:1" fill="#b18f46" d="M 164.5,141.5 C 165.332,167.663 165.832,193.997 166,220.5C 166.5,212.841 166.666,205.174 166.5,197.5C 167.967,194.742 168.633,195.075 168.5,198.5C 171.598,198.587 171.932,198.087 169.5,197C 171.246,196.529 172.913,195.862 174.5,195C 173.366,193.984 173.699,193.317 175.5,193C 174.833,192.667 174.167,192.333 173.5,192C 175.936,192.053 178.269,191.887 180.5,191.5C 181.098,190.205 181.598,188.872 182,187.5C 182.333,192.5 182.667,197.5 183,202.5C 183.5,189.838 183.667,177.171 183.5,164.5C 183.175,156.648 183.508,148.982 184.5,141.5C 184.5,168.167 184.5,194.833 184.5,221.5C 177.833,221.5 171.167,221.5 164.5,221.5C 164.5,194.833 164.5,168.167 164.5,141.5 Z"/></g>
<g><path style="opacity:1" fill="#caa652" d="M 166.5,141.5 C 167.326,146.316 167.826,151.316 168,156.5C 168.414,156.957 168.914,157.291 169.5,157.5C 170.749,155.525 172.249,155.191 174,156.5C 176.667,155.833 179.333,155.167 182,154.5C 182.179,158.025 182.679,161.359 183.5,164.5C 183.667,177.171 183.5,189.838 183,202.5C 182.667,197.5 182.333,192.5 182,187.5C 181.598,188.872 181.098,190.205 180.5,191.5C 178.269,191.887 175.936,192.053 173.5,192C 174.167,192.333 174.833,192.667 175.5,193C 173.699,193.317 173.366,193.984 174.5,195C 172.913,195.862 171.246,196.529 169.5,197C 171.932,198.087 171.598,198.587 168.5,198.5C 168.633,195.075 167.967,194.742 166.5,197.5C 166.5,178.833 166.5,160.167 166.5,141.5 Z"/></g>
<g><path style="opacity:1" fill="#b28c42" d="M 270.5,157.5 C 277.891,178.672 284.891,200.006 291.5,221.5C 284.167,221.5 276.833,221.5 269.5,221.5C 268.043,214.461 266.377,207.461 264.5,200.5C 252.833,200.5 241.167,200.5 229.5,200.5C 240.674,199.833 252.007,199.167 263.5,198.5C 264.522,197.646 265.355,196.646 266,195.5C 267.667,197.5 269.333,199.5 271,201.5C 271.494,203.134 271.66,204.801 271.5,206.5C 273.867,205.836 275.867,204.503 277.5,202.5C 275.834,194.197 275.168,185.864 275.5,177.5C 273.482,176.187 272.315,176.853 272,179.5C 271.768,178.263 271.268,177.263 270.5,176.5C 270.649,174.649 270.649,172.816 270.5,171C 272.396,169.192 272.896,167.025 272,164.5C 271.667,164.833 271.333,165.167 271,165.5C 270.503,162.854 270.336,160.187 270.5,157.5 Z"/></g>
<g><path style="opacity:1" fill="#cba757" d="M 91.5,180.5 C 91.5,187.5 91.5,194.5 91.5,201.5C 104.5,201.5 117.5,201.5 130.5,201.5C 130.5,208.167 130.5,214.833 130.5,221.5C 111.833,221.5 93.1667,221.5 74.5,221.5C 73.5476,215.925 73.2143,210.259 73.5,204.5C 74.1577,203.602 74.8243,202.602 75.5,201.5C 76.0045,204.342 77.6711,205.675 80.5,205.5C 80.5,202.5 80.5,199.5 80.5,196.5C 81.8221,196.33 82.9887,196.663 84,197.5C 84.3076,196.692 84.8076,196.025 85.5,195.5C 86.1667,197.833 86.8333,200.167 87.5,202.5C 88.086,202.291 88.586,201.957 89,201.5C 90.0935,194.426 90.9269,187.426 91.5,180.5 Z"/></g>
<g><path style="opacity:1" fill="#171614" d="M 229.5,200.5 C 241.167,200.5 252.833,200.5 264.5,200.5C 266.377,207.461 268.043,214.461 269.5,221.5C 276.833,221.5 284.167,221.5 291.5,221.5C 292.496,221.586 293.329,221.252 294,220.5C 294.667,222.833 294.667,225.167 294,227.5C 292.632,225.185 291.799,225.185 291.5,227.5C 293.938,229.999 295.604,232.999 296.5,236.5C 295.62,239.262 294.454,241.929 293,244.5C 286.813,253.558 280.647,262.558 274.5,271.5C 272.955,272.23 272.122,273.563 272,275.5C 270.764,274.601 269.93,273.434 269.5,272C 270.84,269.063 272.34,266.23 274,263.5C 274.567,259.883 274.234,256.216 273,252.5C 271.644,251.62 270.144,251.286 268.5,251.5C 268.808,253.924 268.474,256.257 267.5,258.5C 263.397,261.693 263.73,263.193 268.5,263C 269.191,261.933 269.691,260.766 270,259.5C 271.072,263.109 270.239,266.109 267.5,268.5C 265.132,265.976 262.466,263.81 259.5,262C 257.098,261.186 254.765,261.353 252.5,262.5C 252.667,262.833 252.833,263.167 253,263.5C 261.399,265.018 261.566,266.685 253.5,268.5C 250.005,271.825 246.339,274.992 242.5,278C 243.414,279.406 244.08,280.906 244.5,282.5C 244.271,284.433 243.438,286.1 242,287.5C 241.5,287 241,286.5 240.5,286C 235.194,284.933 229.861,284.099 224.5,283.5C 224.5,284.5 224.5,285.5 224.5,286.5C 222.08,286.292 219.747,286.626 217.5,287.5C 217.167,288.667 216.833,289.833 216.5,291C 216.608,292.681 217.275,293.848 218.5,294.5C 219.11,296.434 220.11,298.101 221.5,299.5C 222.535,303.909 223.868,308.242 225.5,312.5C 225.791,313.649 226.624,314.316 228,314.5C 230.896,313.633 233.729,312.633 236.5,311.5C 235.587,313.086 235.587,314.586 236.5,316C 233.985,318.239 230.985,319.406 227.5,319.5C 227.592,315.929 225.926,314.762 222.5,316C 220.579,317.588 218.579,319.088 216.5,320.5C 215.614,321.325 215.281,322.325 215.5,323.5C 212.663,323.316 210.663,321.982 209.5,319.5C 212.157,319.838 214.49,319.171 216.5,317.5C 212.392,309.609 208.059,301.942 203.5,294.5C 201.167,294.5 198.833,294.5 196.5,294.5C 195.498,301.172 194.498,307.838 193.5,314.5C 192.087,317.219 191.42,320.219 191.5,323.5C 187.5,317.892 184.5,318.226 182.5,324.5C 177.642,325.125 172.975,326.625 168.5,329C 169.505,330.507 170.838,331.673 172.5,332.5C 169.553,333.321 166.553,333.821 163.5,334C 168.833,334.667 174.167,334.667 179.5,334C 178.5,333.667 177.5,333.333 176.5,333C 175.167,332.333 175.167,331.667 176.5,331C 175.672,330.085 174.672,329.419 173.5,329C 175.937,327.625 178.603,327.125 181.5,327.5C 181.328,329.492 181.995,331.158 183.5,332.5C 182.624,333.251 181.624,333.751 180.5,334C 184.152,334.499 187.818,334.665 191.5,334.5C 183.729,336.155 175.729,336.822 167.5,336.5C 161.601,335.326 155.601,334.659 149.5,334.5C 147.162,332.96 144.495,332.294 141.5,332.5C 129.524,329.841 117.857,326.175 106.5,321.5C 98.3974,316.944 90.3974,312.11 82.5,307C 77.9728,303.301 73.6395,299.468 69.5,295.5C 70.5832,295.539 71.5832,295.873 72.5,296.5C 74.503,294.867 75.8363,292.867 76.5,290.5C 79.4645,292.295 82.2978,294.295 85,296.5C 86.49,295.683 87.99,294.85 89.5,294C 86.7198,292.188 84.2198,290.021 82,287.5C 81.2211,285.094 82.0544,283.427 84.5,282.5C 86.6572,284.412 88.9906,286.079 91.5,287.5C 92.3816,286.24 93.3816,285.074 94.5,284C 92.6116,281.81 90.4449,279.977 88,278.5C 88.1458,275.051 89.9791,273.885 93.5,275C 95.1667,276.667 96.8333,278.333 98.5,280C 99.635,280.749 100.635,280.583 101.5,279.5C 101.977,278.522 102.643,277.689 103.5,277C 101.004,275.669 99.0038,273.836 97.5,271.5C 101.918,273.697 105.918,276.364 109.5,279.5C 108.307,279.97 107.64,280.97 107.5,282.5C 108.483,287.143 108.65,291.809 108,296.5C 103.889,298.468 100.055,300.801 96.5,303.5C 95.2267,304.077 95.2267,304.743 96.5,305.5C 97.9411,306.304 99.4411,306.971 101,307.5C 103.57,305.462 106.404,303.795 109.5,302.5C 110.324,305.785 110.824,309.118 111,312.5C 113.235,314.202 115.735,315.202 118.5,315.5C 117.665,309.497 117.165,303.497 117,297.5C 120.677,295.304 124.177,292.97 127.5,290.5C 128.738,290.19 128.738,289.69 127.5,289C 126,288.5 124.5,288 123,287.5C 120.384,288.615 117.884,289.949 115.5,291.5C 114.679,288.553 114.179,285.553 114,282.5C 112.887,281.695 111.721,281.028 110.5,280.5C 111.508,278.661 113.008,277.328 115,276.5C 115.944,277.263 116.444,278.263 116.5,279.5C 115.772,281.155 115.605,282.821 116,284.5C 116.383,283.944 116.883,283.611 117.5,283.5C 117.5,284.833 117.5,286.167 117.5,287.5C 120.786,286.793 124.119,286.46 127.5,286.5C 127.5,285.5 127.5,284.5 127.5,283.5C 130.525,283.231 133.192,284.064 135.5,286C 134.833,287 134.167,288 133.5,289C 139.056,290.972 144.722,292.472 150.5,293.5C 150.662,291.473 150.495,289.473 150,287.5C 148.294,286.692 147.461,285.359 147.5,283.5C 145.396,283.799 143.396,283.466 141.5,282.5C 144.555,281.695 146.222,279.695 146.5,276.5C 145.833,276.167 145.167,275.833 144.5,275.5C 146.297,274.305 147.297,272.638 147.5,270.5C 151.182,270.665 154.848,270.499 158.5,270C 160.421,266.731 163.088,265.897 166.5,267.5C 169.619,266.306 169.952,264.806 167.5,263C 165.833,262.667 164.167,262.333 162.5,262C 165.5,261.667 168.5,261.333 171.5,261C 172.667,260.5 173.5,259.667 174,258.5C 176.75,259.291 179.583,259.291 182.5,258.5C 184.067,254.279 185.067,249.946 185.5,245.5C 186.978,245.762 188.311,245.429 189.5,244.5C 188.263,243.719 187.263,242.719 186.5,241.5C 187.934,240.77 189.1,239.77 190,238.5C 190.523,240.223 191.523,241.556 193,242.5C 195.747,238.084 199.58,236.751 204.5,238.5C 205.429,237.311 205.762,235.978 205.5,234.5C 212.136,233.978 212.136,233.145 205.5,232C 207.556,231.689 209.556,231.189 211.5,230.5C 213.768,231.544 216.101,231.711 218.5,231C 214.889,229.724 211.389,228.224 208,226.5C 206.43,227.614 205.097,228.947 204,230.5C 201.852,228.428 202.018,226.594 204.5,225C 203.027,224.29 202.36,223.124 202.5,221.5C 209.532,221.83 216.532,221.497 223.5,220.5C 225.041,215.88 226.374,211.213 227.5,206.5C 227.875,204.302 228.542,202.302 229.5,200.5 Z"/></g>
<g><path style="opacity:0.506" fill="#271f14" d="M -0.5,179.5 C -0.166667,179.5 0.166667,179.5 0.5,179.5C 0.0695827,186.52 1.06958,193.186 3.5,199.5C 3.5,200.167 3.5,200.833 3.5,201.5C 5.59297,217.767 10.2596,233.101 17.5,247.5C 24.0861,263.685 33.4195,278.019 45.5,290.5C 48.7912,295.127 52.4579,299.46 56.5,303.5C 35.9636,285.82 20.7969,264.153 11,238.5C 5.43449,223.803 1.60116,208.803 -0.5,193.5C -0.5,188.833 -0.5,184.167 -0.5,179.5 Z"/></g>
<g><path style="opacity:1" fill="#866a2f" d="M 15.5,195.5 C 17.5172,206.229 20.1838,216.896 23.5,227.5C 22.3361,223.883 20.5028,220.55 18,217.5C 17.1613,210.153 16.328,202.82 15.5,195.5 Z"/></g>
<g><path style="opacity:1" fill="#ad9057" d="M 208.5,202.5 C 207.179,208.129 206.179,213.796 205.5,219.5C 211.167,219.5 216.833,219.5 222.5,219.5C 222.34,217.801 222.506,216.134 223,214.5C 224.501,211.714 226.001,209.047 227.5,206.5C 226.374,211.213 225.041,215.88 223.5,220.5C 216.532,221.497 209.532,221.83 202.5,221.5C 201.957,221.44 201.624,221.107 201.5,220.5C 203.039,216.55 204.372,212.55 205.5,208.5C 206.5,206.5 207.5,204.5 208.5,202.5 Z"/></g>
<g><path style="opacity:1" fill="#191916" d="M 208.5,122.5 C 209.654,128.987 209.821,135.654 209,142.5C 206.346,145.058 203.346,145.725 200,144.5C 196.782,146.847 193.282,147.68 189.5,147C 188.863,149.243 188.53,151.576 188.5,154C 189.257,159.577 189.257,165.077 188.5,170.5C 189.167,171.5 189.833,172.5 190.5,173.5C 189.563,181.762 189.229,189.929 189.5,198C 190.167,199 190.833,200 191.5,201C 194.549,202.057 197.549,202.224 200.5,201.5C 199.5,200.833 198.5,200.167 197.5,199.5C 198,199.167 198.5,198.833 199,198.5C 201.268,199.472 203.268,200.805 205,202.5C 205.175,199.843 205.008,197.176 204.5,194.5C 205.552,194.649 206.552,194.483 207.5,194C 204.151,193.911 203.651,192.744 206,190.5C 206.827,191.662 207.66,192.829 208.5,194C 206.933,197.298 206.1,200.798 206,204.5C 205.107,203.289 204.274,203.289 203.5,204.5C 204.853,205.524 205.52,206.857 205.5,208.5C 204.372,212.55 203.039,216.55 201.5,220.5C 201.624,221.107 201.957,221.44 202.5,221.5C 202.36,223.124 203.027,224.29 204.5,225C 202.018,226.594 201.852,228.428 204,230.5C 205.097,228.947 206.43,227.614 208,226.5C 211.389,228.224 214.889,229.724 218.5,231C 216.101,231.711 213.768,231.544 211.5,230.5C 209.556,231.189 207.556,231.689 205.5,232C 212.136,233.145 212.136,233.978 205.5,234.5C 205.762,235.978 205.429,237.311 204.5,238.5C 199.58,236.751 195.747,238.084 193,242.5C 191.523,241.556 190.523,240.223 190,238.5C 189.1,239.77 187.934,240.77 186.5,241.5C 187.263,242.719 188.263,243.719 189.5,244.5C 188.311,245.429 186.978,245.762 185.5,245.5C 185.067,249.946 184.067,254.279 182.5,258.5C 179.583,259.291 176.75,259.291 174,258.5C 173.5,259.667 172.667,260.5 171.5,261C 168.5,261.333 165.5,261.667 162.5,262C 164.167,262.333 165.833,262.667 167.5,263C 169.952,264.806 169.619,266.306 166.5,267.5C 163.088,265.897 160.421,266.731 158.5,270C 154.848,270.499 151.182,270.665 147.5,270.5C 147.297,272.638 146.297,274.305 144.5,275.5C 145.167,275.833 145.833,276.167 146.5,276.5C 146.222,279.695 144.555,281.695 141.5,282.5C 143.396,283.466 145.396,283.799 147.5,283.5C 147.461,285.359 148.294,286.692 150,287.5C 150.495,289.473 150.662,291.473 150.5,293.5C 144.722,292.472 139.056,290.972 133.5,289C 134.167,288 134.833,287 135.5,286C 133.192,284.064 130.525,283.231 127.5,283.5C 127.5,284.5 127.5,285.5 127.5,286.5C 124.119,286.46 120.786,286.793 117.5,287.5C 117.5,286.167 117.5,284.833 117.5,283.5C 118.241,280.587 118.741,277.587 119,274.5C 120.779,272.983 120.279,272.149 117.5,272C 118.938,271.781 120.271,271.281 121.5,270.5C 120.675,269.614 119.675,269.281 118.5,269.5C 118.614,265.789 119.614,262.455 121.5,259.5C 124.469,260.329 127.469,260.495 130.5,260C 131.45,257.09 133.45,255.923 136.5,256.5C 136.5,257.5 136.5,258.5 136.5,259.5C 135.448,259.351 134.448,259.517 133.5,260C 134.522,262.316 136.022,262.816 138,261.5C 139.656,258.947 139.823,256.281 138.5,253.5C 139.5,253.5 140.5,253.5 141.5,253.5C 141.5,252.5 141.5,251.5 141.5,250.5C 138.719,251.823 136.053,251.656 133.5,250C 140.043,248.381 145.71,249.881 150.5,254.5C 151.308,254.192 151.975,253.692 152.5,253C 148.749,249.797 144.416,247.63 139.5,246.5C 141.734,244.318 144.234,243.985 147,245.5C 147.5,245.167 148,244.833 148.5,244.5C 147.355,243.109 147.355,241.776 148.5,240.5C 149.297,243.123 150.797,245.123 153,246.5C 156.325,244.467 159.825,243.801 163.5,244.5C 164.604,243.369 164.271,242.535 162.5,242C 163.749,240.176 164.915,240.343 166,242.5C 166.585,240.871 167.419,239.371 168.5,238C 166.104,235.467 166.771,234.967 170.5,236.5C 172.982,235.103 175.648,234.269 178.5,234C 176.833,233.667 175.167,233.333 173.5,233C 173.273,231.865 172.94,230.698 172.5,229.5C 171.585,230.328 170.919,231.328 170.5,232.5C 166.705,234.257 165.371,233.257 166.5,229.5C 168.115,228.846 169.782,228.346 171.5,228C 169.782,227.654 168.115,227.154 166.5,226.5C 165.914,226.709 165.414,227.043 165,227.5C 165.793,225.5 165.626,223.5 164.5,221.5C 171.167,221.5 177.833,221.5 184.5,221.5C 184.5,194.833 184.5,168.167 184.5,141.5C 192.5,141.5 200.5,141.5 208.5,141.5C 208.5,135.167 208.5,128.833 208.5,122.5 Z"/></g>
<g><path style="opacity:1" fill="#c39d4a" d="M 12.5,155.5 C 12.8333,155.5 13.1667,155.5 13.5,155.5C 13.3335,167.505 13.5001,179.505 14,191.5C 14.2784,192.416 14.7784,193.082 15.5,193.5C 15.5,194.167 15.5,194.833 15.5,195.5C 16.328,202.82 17.1613,210.153 18,217.5C 20.5028,220.55 22.3361,223.883 23.5,227.5C 23.5294,233.545 25.1961,239.045 28.5,244C 28.1667,244.833 27.8333,245.667 27.5,246.5C 25.6805,244.872 24.3472,242.872 23.5,240.5C 22.1921,243.464 20.1921,245.797 17.5,247.5C 10.2596,233.101 5.59297,217.767 3.5,201.5C 6.1523,200.715 8.31897,198.715 10,195.5C 10.49,196.793 10.6567,198.127 10.5,199.5C 11.5,199.5 12.5,199.5 13.5,199.5C 12.6267,184.853 12.2933,170.186 12.5,155.5 Z"/></g>
<g><path style="opacity:1" fill="#6e582b" d="M 310.5,213.5 C 304.086,235.993 292.753,255.66 276.5,272.5C 275.893,272.376 275.56,272.043 275.5,271.5C 288.206,257.437 297.872,241.437 304.5,223.5C 306.541,220.065 308.541,216.732 310.5,213.5 Z"/></g>
<g><path style="opacity:1" fill="#a8976e" d="M 303.5,223.5 C 303.833,223.5 304.167,223.5 304.5,223.5C 297.872,241.437 288.206,257.437 275.5,271.5C 275.167,271.5 274.833,271.5 274.5,271.5C 280.647,262.558 286.813,253.558 293,244.5C 294.454,241.929 295.62,239.262 296.5,236.5C 298.564,232.039 300.898,227.706 303.5,223.5 Z"/></g>
<g><path style="opacity:1" fill="#151411" d="M 324.5,113.5 C 329.7,123.785 332.7,134.785 333.5,146.5C 334.277,159.819 334.611,173.152 334.5,186.5C 334.044,194.901 333.044,203.235 331.5,211.5C 317.924,261.589 287.924,298.422 241.5,322C 225.593,329.31 208.926,333.477 191.5,334.5C 187.818,334.665 184.152,334.499 180.5,334C 181.624,333.751 182.624,333.251 183.5,332.5C 181.995,331.158 181.328,329.492 181.5,327.5C 178.603,327.125 175.937,327.625 173.5,329C 174.672,329.419 175.672,330.085 176.5,331C 175.167,331.667 175.167,332.333 176.5,333C 177.5,333.333 178.5,333.667 179.5,334C 174.167,334.667 168.833,334.667 163.5,334C 166.553,333.821 169.553,333.321 172.5,332.5C 170.838,331.673 169.505,330.507 168.5,329C 172.975,326.625 177.642,325.125 182.5,324.5C 184.5,318.226 187.5,317.892 191.5,323.5C 197.5,324.833 199.833,322.5 198.5,316.5C 200.848,316.33 203.182,315.997 205.5,315.5C 208.175,315.531 209.509,316.864 209.5,319.5C 210.663,321.982 212.663,323.316 215.5,323.5C 215.281,322.325 215.614,321.325 216.5,320.5C 218.579,319.088 220.579,317.588 222.5,316C 225.926,314.762 227.592,315.929 227.5,319.5C 230.985,319.406 233.985,318.239 236.5,316C 235.587,314.586 235.587,313.086 236.5,311.5C 244.168,306.833 246.168,300.5 242.5,292.5C 242.167,291.5 241.5,290.833 240.5,290.5C 238.302,287.564 235.302,285.897 231.5,285.5C 226.875,286.758 222.208,287.758 217.5,288.5C 217.325,290.621 217.659,292.621 218.5,294.5C 217.275,293.848 216.608,292.681 216.5,291C 216.833,289.833 217.167,288.667 217.5,287.5C 219.747,286.626 222.08,286.292 224.5,286.5C 224.5,285.5 224.5,284.5 224.5,283.5C 229.861,284.099 235.194,284.933 240.5,286C 241,286.5 241.5,287 242,287.5C 243.438,286.1 244.271,284.433 244.5,282.5C 249.09,287.49 253.09,292.99 256.5,299C 258.352,299.773 259.686,299.273 260.5,297.5C 264.372,295.807 267.872,293.474 271,290.5C 271.333,288.953 270.833,287.62 269.5,286.5C 268.743,285.227 268.077,285.227 267.5,286.5C 264.711,288.641 261.711,290.307 258.5,291.5C 257.645,290.469 256.978,289.303 256.5,288C 257.744,285.618 259.577,283.785 262,282.5C 262.884,280.359 262.384,278.693 260.5,277.5C 257.833,279.167 255.167,280.833 252.5,282.5C 251.447,281.562 250.78,280.395 250.5,279C 252.271,276.513 254.438,274.346 257,272.5C 257.585,271.002 257.085,270.002 255.5,269.5C 255.158,268.662 254.492,268.328 253.5,268.5C 261.566,266.685 261.399,265.018 253,263.5C 252.833,263.167 252.667,262.833 252.5,262.5C 254.765,261.353 257.098,261.186 259.5,262C 262.466,263.81 265.132,265.976 267.5,268.5C 270.239,266.109 271.072,263.109 270,259.5C 269.691,260.766 269.191,261.933 268.5,263C 263.73,263.193 263.397,261.693 267.5,258.5C 268.474,256.257 268.808,253.924 268.5,251.5C 270.144,251.286 271.644,251.62 273,252.5C 274.234,256.216 274.567,259.883 274,263.5C 272.34,266.23 270.84,269.063 269.5,272C 269.93,273.434 270.764,274.601 272,275.5C 272.122,273.563 272.955,272.23 274.5,271.5C 274.833,271.5 275.167,271.5 275.5,271.5C 275.56,272.043 275.893,272.376 276.5,272.5C 292.753,255.66 304.086,235.993 310.5,213.5C 310.5,212.167 310.5,210.833 310.5,209.5C 311.887,206.361 313.054,203.028 314,199.5C 317.079,183.042 317.246,166.709 314.5,150.5C 313.246,143.073 311.58,135.739 309.5,128.5C 310.695,122.91 311.695,117.243 312.5,111.5C 313.086,111.291 313.586,110.957 314,110.5C 313.713,114.708 313.546,118.875 313.5,123C 314.784,123.684 315.951,123.517 317,122.5C 316.323,116.623 318.823,113.623 324.5,113.5 Z"/></g>
<g><path style="opacity:1" fill="#b09655" d="M 38.5,194.5 C 41.7437,204.62 44.5771,214.954 47,225.5C 50.6939,231.554 53.8606,237.888 56.5,244.5C 61.0879,251.922 66.2546,258.922 72,265.5C 72.4828,266.448 72.6495,267.448 72.5,268.5C 71.1779,268.67 70.0113,268.337 69,267.5C 54.8701,250.24 44.7034,230.906 38.5,209.5C 39.2216,209.918 39.7216,210.584 40,211.5C 40.1667,210 40.3333,208.5 40.5,207C 39.7244,202.844 39.0578,198.677 38.5,194.5 Z"/></g>
<g><path style="opacity:1" fill="#d8c57d" d="M 335.5,205.5 C 320.804,273.032 280.138,316.198 213.5,335C 204.26,337.016 194.926,338.182 185.5,338.5C 179.366,337.914 173.366,337.248 167.5,336.5C 175.729,336.822 183.729,336.155 191.5,334.5C 208.926,333.477 225.593,329.31 241.5,322C 287.924,298.422 317.924,261.589 331.5,211.5C 333.22,209.342 334.053,206.675 334,203.5C 334.278,204.416 334.778,205.082 335.5,205.5 Z"/></g>
<g><path style="opacity:1" fill="#b38b3d" d="M 23.5,227.5 C 31.4017,247.967 42.4017,266.633 56.5,283.5C 59.1221,287.828 61.7888,292.161 64.5,296.5C 64.4142,297.496 64.7476,298.329 65.5,299C 63.4259,298.773 61.4259,298.939 59.5,299.5C 56.3452,298.21 54.3452,295.877 53.5,292.5C 50.6315,293.09 47.9648,292.423 45.5,290.5C 33.4195,278.019 24.0861,263.685 17.5,247.5C 20.1921,245.797 22.1921,243.464 23.5,240.5C 24.3472,242.872 25.6805,244.872 27.5,246.5C 27.8333,245.667 28.1667,244.833 28.5,244C 25.1961,239.045 23.5294,233.545 23.5,227.5 Z"/></g>
<g><path style="opacity:1" fill="#1a1916" d="M 207.5,15.5 C 224.597,19.5312 240.931,25.5312 256.5,33.5C 262.321,37.8036 268.321,41.9703 274.5,46C 280.336,51.0042 286.003,56.1708 291.5,61.5C 303.717,74.2609 313.717,88.5942 321.5,104.5C 322.345,107.543 323.345,110.543 324.5,113.5C 318.823,113.623 316.323,116.623 317,122.5C 315.951,123.517 314.784,123.684 313.5,123C 313.546,118.875 313.713,114.708 314,110.5C 313.586,110.957 313.086,111.291 312.5,111.5C 311.695,117.243 310.695,122.91 309.5,128.5C 307.346,123.278 305.179,117.944 303,112.5C 299.976,106.434 296.476,100.768 292.5,95.5C 286.345,85.0034 278.678,75.6701 269.5,67.5C 271.66,64.8555 273.66,65.1889 275.5,68.5C 277.045,69.4519 278.712,69.7852 280.5,69.5C 280.5,68.5 280.5,67.5 280.5,66.5C 277.725,65.395 275.225,64.395 273,63.5C 272.333,61.1667 272.333,58.8333 273,56.5C 274.714,57.9255 276.047,57.5922 277,55.5C 278.942,57.9548 281.442,59.2882 284.5,59.5C 284.719,58.325 284.386,57.325 283.5,56.5C 281.528,55.6948 280.028,54.3615 279,52.5C 278.667,53.1667 278.333,53.8333 278,54.5C 276.143,52.4815 273.976,50.8149 271.5,49.5C 270.041,46.2436 267.874,43.5769 265,41.5C 264.275,42.0585 263.442,42.3918 262.5,42.5C 259.161,40.0548 255.661,38.0548 252,36.5C 249.944,38.3188 247.777,38.9855 245.5,38.5C 247.848,37.1397 248.015,35.4731 246,33.5C 245.667,33.8333 245.333,34.1667 245,34.5C 243.938,33.1007 242.605,32.1007 241,31.5C 238.634,32.9385 238.134,32.4385 239.5,30C 235.527,28.0457 231.361,26.5457 227,25.5C 226.127,25.7355 225.293,26.0688 224.5,26.5C 218.403,24.0372 212.237,21.7039 206,19.5C 201.639,19.5873 197.306,19.5873 193,19.5C 186.936,17.7939 180.77,16.4606 174.5,15.5C 163.908,16.591 153.408,18.2576 143,20.5C 142.228,20.3552 141.561,20.0219 141,19.5C 130.217,22.1319 119.384,24.9652 108.5,28C 102.947,30.6024 97.9468,33.9357 93.5,38C 91.8333,38.3333 90.1667,38.6667 88.5,39C 81.4188,43.8664 74.7522,49.1998 68.5,55C 66.4376,56.5325 65.1043,58.5325 64.5,61C 63.552,61.4828 62.552,61.6495 61.5,61.5C 58.3093,67.2016 54.1426,72.2016 49,76.5C 48.8665,79.5251 47.8665,82.1918 46,84.5C 43.4058,85.4624 41.4058,87.1291 40,89.5C 37.479,95.5056 34.1457,101.506 30,107.5C 27.6396,117.23 24.973,126.896 22,136.5C 22.4603,145.917 22.627,154.751 22.5,163C 21.552,163.483 20.552,163.649 19.5,163.5C 19.2936,169.865 19.627,176.198 20.5,182.5C 18.6388,186.313 18.6388,190.313 20.5,194.5C 21.8425,195.902 22.6758,195.569 23,193.5C 23.3333,196.5 23.6667,199.5 24,202.5C 24.3333,200.833 24.6667,199.167 25,197.5C 25.3333,197.833 25.6667,198.167 26,198.5C 26.8624,196.913 27.5291,195.246 28,193.5C 29.6667,196.167 31.3333,196.167 33,193.5C 33.6497,198.691 33.483,203.524 32.5,208C 33.1905,209.067 33.6905,210.234 34,211.5C 34.2332,207.415 34.7332,203.415 35.5,199.5C 35.8333,199.5 36.1667,199.5 36.5,199.5C 37.1667,202.833 37.8333,206.167 38.5,209.5C 44.7034,230.906 54.8701,250.24 69,267.5C 70.0113,268.337 71.1779,268.67 72.5,268.5C 75.1301,267.678 76.7968,268.845 77.5,272C 74.8722,274.922 75.5388,276.755 79.5,277.5C 77.7686,280.615 75.7686,283.615 73.5,286.5C 74.5244,287.852 75.5244,289.185 76.5,290.5C 75.8363,292.867 74.503,294.867 72.5,296.5C 71.5832,295.873 70.5832,295.539 69.5,295.5C 65.1667,291.5 60.8333,287.5 56.5,283.5C 42.4017,266.633 31.4017,247.967 23.5,227.5C 20.1838,216.896 17.5172,206.229 15.5,195.5C 15.5,194.833 15.5,194.167 15.5,193.5C 14.4907,179.514 14.324,165.514 15,151.5C 17.9829,140.572 20.4829,129.572 22.5,118.5C 58.4698,38.6691 120.137,4.33579 207.5,15.5 Z"/></g>
<g><path style="opacity:1" fill="#c9b470" d="M 237.5,49.5 C 239.167,49.5 240.833,49.5 242.5,49.5C 252.026,54.6896 261.026,60.6896 269.5,67.5C 278.678,75.6701 286.345,85.0034 292.5,95.5C 292.649,96.552 292.483,97.552 292,98.5C 291.583,97.244 290.75,96.5774 289.5,96.5C 289.5,95.8333 289.167,95.5 288.5,95.5C 280.548,81.8809 269.881,70.8809 256.5,62.5C 250.687,57.4253 244.354,53.092 237.5,49.5 Z"/></g>
<g><path style="opacity:1" fill="#dad6ad" d="M 181.5,32.5 C 182.5,33.1667 183.5,33.8333 184.5,34.5C 177.159,34.3337 169.826,34.5003 162.5,35C 159.964,35.1862 157.631,35.6862 155.5,36.5C 117.654,41.7435 87.6536,59.7435 65.5,90.5C 56.8499,100.129 50.5166,111.129 46.5,123.5C 44.7973,124.66 44.1307,123.993 44.5,121.5C 46.7417,113.682 50.075,106.349 54.5,99.5C 76.2378,64.7806 107.238,43.114 147.5,34.5C 158.778,33.0292 170.112,32.3625 181.5,32.5 Z"/></g>
<g><path style="opacity:1" fill="#2c2b27" d="M 227.5,41.5 C 214.982,36.4541 201.982,33.4541 188.5,32.5C 179.676,31.3427 170.676,31.176 161.5,32C 156.611,32.354 151.944,33.1873 147.5,34.5C 107.238,43.114 76.2378,64.7806 54.5,99.5C 51.309,98.3195 48.4757,98.3195 46,99.5C 45.3333,101.5 45.3333,103.5 46,105.5C 46.3333,105.167 46.6667,104.833 47,104.5C 47.1667,105.5 47.3333,106.5 47.5,107.5C 46.5871,112.777 45.4205,112.777 44,107.5C 43.0862,108.654 42.2529,108.487 41.5,107C 43.1834,103.38 43.8501,99.5463 43.5,95.5C 44.5,95.5 45.5,95.5 46.5,95.5C 47.5439,92.8349 48.7105,90.1683 50,87.5C 52.3333,84.5 54.6667,81.5 57,78.5C 57.3884,74.7808 58.0551,71.1141 59,67.5C 66.6631,62.3366 73.1631,56.0033 78.5,48.5C 81.5744,50.1992 83.9078,49.5326 85.5,46.5C 87.0453,45.5481 88.712,45.2148 90.5,45.5C 90.6672,48.9571 91.6672,49.2904 93.5,46.5C 92.6744,45.549 92.5078,44.549 93,43.5C 94.0495,44.5171 95.2161,44.6838 96.5,44C 96.1667,43.6667 95.8333,43.3333 95.5,43C 97.0526,41.9032 98.386,40.5699 99.5,39C 102.932,38.8839 105.932,37.7172 108.5,35.5C 109.086,35.7093 109.586,36.0426 110,36.5C 113.487,35.7606 116.987,34.9272 120.5,34C 120,33.5 119.5,33 119,32.5C 115.927,33.6168 112.76,33.7835 109.5,33C 114.261,29.4625 119.594,26.9625 125.5,25.5C 127.589,26.8034 129.256,26.3034 130.5,24C 138.048,22.785 145.548,21.285 153,19.5C 155.483,21.1625 157.65,20.8292 159.5,18.5C 164.576,20.9583 163.909,22.1249 157.5,22C 162.445,24.0438 167.112,23.5438 171.5,20.5C 171.291,19.914 170.957,19.414 170.5,19C 173.426,18.7822 176.26,18.2822 179,17.5C 180.351,18.9606 181.851,20.294 183.5,21.5C 184.167,20.8333 184.833,20.1667 185.5,19.5C 185.833,20 186.167,20.5 186.5,21C 182.683,22.9475 182.683,24.7808 186.5,26.5C 186.126,25.229 186.792,24.0623 188.5,23C 190.433,22.7489 192.266,22.2489 194,21.5C 194.5,22.5 195,23.5 195.5,24.5C 193.924,26.5771 191.924,28.0771 189.5,29C 195.296,30.3801 200.129,28.8801 204,24.5C 207.016,28.46 209.849,31.96 212.5,35C 216.963,37.2486 221.63,38.2486 226.5,38C 224.561,37.0922 223.561,35.5922 223.5,33.5C 227.509,33.0389 231.176,33.8722 234.5,36C 232.5,36.3333 230.5,36.6667 228.5,37C 229.308,37.3076 229.975,37.8076 230.5,38.5C 229.007,39.1411 228.007,40.1411 227.5,41.5 Z"/></g>
<g><path style="opacity:1" fill="#1f1f1c" d="M 184.5,35.5 C 202.982,37.2035 220.649,41.8701 237.5,49.5C 244.354,53.092 250.687,57.4253 256.5,62.5C 251.753,63.1872 247.086,64.1872 242.5,65.5C 240.471,65.3298 238.471,64.9965 236.5,64.5C 232.05,62.4778 231.717,63.3111 235.5,67C 232.534,70.1442 232.867,72.8109 236.5,75C 234.521,75.6836 232.854,75.1836 231.5,73.5C 228.891,74.2305 226.224,74.7305 223.5,75C 228.453,75.9954 233.453,76.6621 238.5,77C 234.445,77.2315 230.445,77.7315 226.5,78.5C 222.478,76.5839 222.478,77.2506 226.5,80.5C 224.397,83.4143 222.563,86.4143 221,89.5C 220.506,87.8659 220.34,86.1992 220.5,84.5C 219.178,84.67 218.011,84.3366 217,83.5C 213.667,86.1667 213.667,88.8333 217,91.5C 218.049,90.4829 219.216,90.3162 220.5,91C 219.671,92.8161 218.837,94.6494 218,96.5C 214.359,98.1654 210.525,99.3321 206.5,100C 205.417,102.165 204.084,104.165 202.5,106C 202.833,106.5 203.167,107 203.5,107.5C 204.768,106.572 206.101,106.405 207.5,107C 205.122,107.974 205.456,108.641 208.5,109C 205.584,109.049 204.584,110.216 205.5,112.5C 204.167,113.833 202.833,113.833 201.5,112.5C 202.326,111.549 202.492,110.549 202,109.5C 200.59,110.787 199.09,111.954 197.5,113C 200.359,113.685 202.192,114.852 203,116.5C 204.057,115.373 205.223,114.873 206.5,115C 205.62,116.356 205.286,117.856 205.5,119.5C 197.493,119.666 189.493,119.5 181.5,119C 182.5,118.667 183.5,118.333 184.5,118C 181.62,118.365 178.787,118.198 176,117.5C 174.059,118.34 172.059,119.007 170,119.5C 165.752,119.397 165.586,118.897 169.5,118C 168.234,117.691 167.067,117.191 166,116.5C 163.205,117.783 160.372,117.783 157.5,116.5C 161.228,115.193 165.395,114.193 170,113.5C 171.099,114.422 172.599,115.422 174.5,116.5C 176.001,115.248 177.668,114.248 179.5,113.5C 178.167,112.833 176.833,112.167 175.5,111.5C 180.73,110.075 180.73,108.909 175.5,108C 182.503,107.503 182.837,106.837 176.5,106C 175.483,104.951 175.316,103.784 176,102.5C 179.208,105.487 181.041,104.82 181.5,100.5C 186.952,100.197 190.452,97.53 192,92.5C 193.938,93.8602 195.604,93.5268 197,91.5C 198.388,92.5536 199.888,92.7203 201.5,92C 199.924,91.5604 198.59,90.727 197.5,89.5C 196.148,90.8962 194.481,91.5629 192.5,91.5C 189.192,91.7087 185.859,91.2087 182.5,90C 186.703,89.4501 190.703,88.2835 194.5,86.5C 192.833,85.8333 191.167,85.1667 189.5,84.5C 191,83.5 192.5,82.5 194,81.5C 195.5,82 197,82.5 198.5,83C 197.289,83.8928 197.289,84.7261 198.5,85.5C 203.856,82.1635 203.19,80.1635 196.5,79.5C 198.51,78.9347 200.176,77.9347 201.5,76.5C 199.234,75.6858 196.9,75.1858 194.5,75C 195.025,74.3076 195.692,73.8076 196.5,73.5C 197.736,74.2458 199.07,74.5792 200.5,74.5C 200.5,73.5 200.5,72.5 200.5,71.5C 199.325,71.719 198.325,71.3857 197.5,70.5C 198.5,69.6667 199.5,68.8333 200.5,68C 200.167,67.6667 199.833,67.3333 199.5,67C 203.5,65.6667 207.5,64.3333 211.5,63C 209.392,62.6401 207.392,61.9734 205.5,61C 210.18,60.4891 213.847,58.3224 216.5,54.5C 215.726,53.2888 214.893,53.2888 214,54.5C 213.751,53.376 213.251,52.376 212.5,51.5C 210.252,52.3782 208.085,52.0449 206,50.5C 204.211,52.229 202.044,52.8957 199.5,52.5C 199.5,51.5 199.5,50.5 199.5,49.5C 195.5,49.5 191.5,49.5 187.5,49.5C 187.67,48.1779 187.337,47.0113 186.5,46C 187.448,45.5172 188.448,45.3505 189.5,45.5C 189.351,46.552 189.517,47.552 190,48.5C 191.25,47.4267 192.584,47.4267 194,48.5C 195.897,48.1036 197.397,47.1036 198.5,45.5C 199.607,46.0219 200.774,46.3552 202,46.5C 204.455,44.4465 207.289,42.9465 210.5,42C 186.272,34.7195 162.272,34.7195 138.5,42C 131.246,43.8309 124.58,46.6642 118.5,50.5C 117.373,51.1217 116.373,51.955 115.5,53C 112.08,53.517 108.747,54.3503 105.5,55.5C 105.709,56.086 106.043,56.586 106.5,57C 95.4176,63.1076 85.9176,70.9409 78,80.5C 77.3162,81.7839 77.4829,82.9505 78.5,84C 75.499,85.1653 72.8324,86.832 70.5,89C 69.8095,90.0674 69.3095,91.2341 69,92.5C 68.2588,91.3595 67.4255,91.3595 66.5,92.5C 65.7025,92.0431 65.3691,91.3764 65.5,90.5C 87.6536,59.7435 117.654,41.7435 155.5,36.5C 165.148,35.7549 174.815,35.4216 184.5,35.5 Z"/></g>
<g><path style="opacity:1" fill="#dcd199" d="M 181.5,32.5 C 183.833,32.5 186.167,32.5 188.5,32.5C 201.982,33.4541 214.982,36.4541 227.5,41.5C 232.716,43.7917 237.716,46.4583 242.5,49.5C 240.833,49.5 239.167,49.5 237.5,49.5C 220.649,41.8701 202.982,37.2035 184.5,35.5C 184.5,35.1667 184.5,34.8333 184.5,34.5C 183.5,33.8333 182.5,33.1667 181.5,32.5 Z"/></g>
<g><path style="opacity:1" fill="#635b34" d="M 184.5,34.5 C 184.5,34.8333 184.5,35.1667 184.5,35.5C 174.815,35.4216 165.148,35.7549 155.5,36.5C 157.631,35.6862 159.964,35.1862 162.5,35C 169.826,34.5003 177.159,34.3337 184.5,34.5 Z"/></g>
<g><path style="opacity:1" fill="#a7a382" d="M 188.5,32.5 C 186.167,32.5 183.833,32.5 181.5,32.5C 170.112,32.3625 158.778,33.0292 147.5,34.5C 151.944,33.1873 156.611,32.354 161.5,32C 170.676,31.176 179.676,31.3427 188.5,32.5 Z"/></g>
<g><path style="opacity:1" fill="#c2a55f" d="M 97.5,271.5 C 99.0038,273.836 101.004,275.669 103.5,277C 102.643,277.689 101.977,278.522 101.5,279.5C 100.635,280.583 99.635,280.749 98.5,280C 96.8333,278.333 95.1667,276.667 93.5,275C 89.9791,273.885 88.1458,275.051 88,278.5C 90.4449,279.977 92.6116,281.81 94.5,284C 93.3816,285.074 92.3816,286.24 91.5,287.5C 88.9906,286.079 86.6572,284.412 84.5,282.5C 82.0544,283.427 81.2211,285.094 82,287.5C 84.2198,290.021 86.7198,292.188 89.5,294C 87.99,294.85 86.49,295.683 85,296.5C 82.2978,294.295 79.4645,292.295 76.5,290.5C 75.5244,289.185 74.5244,287.852 73.5,286.5C 75.7686,283.615 77.7686,280.615 79.5,277.5C 82.8364,273.664 86.3364,269.997 90,266.5C 92.3714,268.374 94.8714,270.04 97.5,271.5 Z"/></g>
<g><path style="opacity:1" fill="#baa672" d="M 109.5,279.5 C 109.5,280.167 109.833,280.5 110.5,280.5C 111.721,281.028 112.887,281.695 114,282.5C 114.179,285.553 114.679,288.553 115.5,291.5C 117.884,289.949 120.384,288.615 123,287.5C 124.5,288 126,288.5 127.5,289C 128.738,289.69 128.738,290.19 127.5,290.5C 122.998,289.063 118.998,290.063 115.5,293.5C 114.914,293.291 114.414,292.957 114,292.5C 114.151,288.627 112.984,285.294 110.5,282.5C 109.671,287.467 109.171,292.467 109,297.5C 105.25,299.959 101.417,302.292 97.5,304.5C 96.8933,304.376 96.56,304.043 96.5,303.5C 100.055,300.801 103.889,298.468 108,296.5C 108.65,291.809 108.483,287.143 107.5,282.5C 107.64,280.97 108.307,279.97 109.5,279.5 Z"/></g>
<g><path style="opacity:1" fill="#8f6f34" d="M 255.5,269.5 C 257.085,270.002 257.585,271.002 257,272.5C 254.438,274.346 252.271,276.513 250.5,279C 250.78,280.395 251.447,281.562 252.5,282.5C 255.167,280.833 257.833,279.167 260.5,277.5C 262.384,278.693 262.884,280.359 262,282.5C 259.577,283.785 257.744,285.618 256.5,288C 256.978,289.303 257.645,290.469 258.5,291.5C 250.853,289.12 246.853,284.12 246.5,276.5C 249.75,274.388 252.75,272.055 255.5,269.5 Z"/></g>
<g><path style="opacity:1" fill="#a48e5d" d="M 240.5,290.5 C 240.565,290.938 240.399,291.272 240,291.5C 233.931,286.683 227.431,286.183 220.5,290C 219.978,290.561 219.645,291.228 219.5,292C 220.871,294.319 221.538,296.819 221.5,299.5C 220.11,298.101 219.11,296.434 218.5,294.5C 217.659,292.621 217.325,290.621 217.5,288.5C 222.208,287.758 226.875,286.758 231.5,285.5C 235.302,285.897 238.302,287.564 240.5,290.5 Z"/></g>
<g><path style="opacity:1" fill="#9e824c" d="M 253.5,268.5 C 254.492,268.328 255.158,268.662 255.5,269.5C 252.75,272.055 249.75,274.388 246.5,276.5C 246.853,284.12 250.853,289.12 258.5,291.5C 261.711,290.307 264.711,288.641 267.5,286.5C 267.938,286.435 268.272,286.601 268.5,287C 265.158,290.359 261.324,292.859 257,294.5C 256.667,296.934 257.834,297.934 260.5,297.5C 259.686,299.273 258.352,299.773 256.5,299C 253.09,292.99 249.09,287.49 244.5,282.5C 244.08,280.906 243.414,279.406 242.5,278C 246.339,274.992 250.005,271.825 253.5,268.5 Z"/></g>
<g><path style="opacity:1" fill="#997534" d="M 240.5,290.5 C 241.5,290.833 242.167,291.5 242.5,292.5C 243.213,298.628 241.546,303.961 237.5,308.5C 235.402,307.516 233.402,307.849 231.5,309.5C 230.537,309.03 230.537,308.363 231.5,307.5C 237.58,304.887 239.08,300.553 236,294.5C 233.005,291.735 229.505,290.902 225.5,292C 224.144,294.414 224.478,296.581 226.5,298.5C 227.002,303.351 228.002,308.017 229.5,312.5C 228.167,312.5 226.833,312.5 225.5,312.5C 223.868,308.242 222.535,303.909 221.5,299.5C 221.538,296.819 220.871,294.319 219.5,292C 219.645,291.228 219.978,290.561 220.5,290C 227.431,286.183 233.931,286.683 240,291.5C 240.399,291.272 240.565,290.938 240.5,290.5 Z"/></g>
<g><path style="opacity:1" fill="#806029" d="M 267.5,286.5 C 268.077,285.227 268.743,285.227 269.5,286.5C 270.833,287.62 271.333,288.953 271,290.5C 267.872,293.474 264.372,295.807 260.5,297.5C 257.834,297.934 256.667,296.934 257,294.5C 261.324,292.859 265.158,290.359 268.5,287C 268.272,286.601 267.938,286.435 267.5,286.5 Z"/></g>
<g><path style="opacity:1" fill="#bca365" d="M 154.5,297.5 C 150.841,296.317 147.175,296.317 143.5,297.5C 142.111,304.397 140.111,311.063 137.5,317.5C 137.685,318.584 138.018,319.584 138.5,320.5C 137.275,319.848 136.608,318.681 136.5,317C 137.518,311.262 138.851,305.595 140.5,300C 138.713,297.866 136.38,297.033 133.5,297.5C 133.132,294.944 133.966,292.944 136,291.5C 141.214,293.303 146.547,294.637 152,295.5C 153.376,295.684 154.209,296.351 154.5,297.5 Z"/></g>
<g><path style="opacity:1" fill="#b3934c" d="M 127.5,290.5 C 124.177,292.97 120.677,295.304 117,297.5C 117.165,303.497 117.665,309.497 118.5,315.5C 115.735,315.202 113.235,314.202 111,312.5C 110.824,309.118 110.324,305.785 109.5,302.5C 106.404,303.795 103.57,305.462 101,307.5C 99.4411,306.971 97.9411,306.304 96.5,305.5C 95.2267,304.743 95.2267,304.077 96.5,303.5C 96.56,304.043 96.8933,304.376 97.5,304.5C 101.417,302.292 105.25,299.959 109,297.5C 109.171,292.467 109.671,287.467 110.5,282.5C 112.984,285.294 114.151,288.627 114,292.5C 114.414,292.957 114.914,293.291 115.5,293.5C 118.998,290.063 122.998,289.063 127.5,290.5 Z"/></g>
<g><path style="opacity:1" fill="#c6a75d" d="M 56.5,283.5 C 60.8333,287.5 65.1667,291.5 69.5,295.5C 73.6395,299.468 77.9728,303.301 82.5,307C 90.3974,312.11 98.3974,316.944 106.5,321.5C 103.594,320.213 100.594,319.213 97.5,318.5C 86.5742,313.401 76.9075,306.568 68.5,298C 67.255,297.209 65.9217,296.709 64.5,296.5C 61.7888,292.161 59.1221,287.828 56.5,283.5 Z"/></g>
<g><path style="opacity:1" fill="#b59d5f" d="M 181.5,301.5 C 181.737,302.791 181.404,303.791 180.5,304.5C 180.454,300.765 178.787,299.432 175.5,300.5C 177.392,302.881 177.892,305.547 177,308.5C 173.89,310.592 170.723,310.925 167.5,309.5C 170.271,309.579 172.937,309.079 175.5,308C 176.935,305.733 176.602,303.733 174.5,302C 172.19,301.503 169.857,301.337 167.5,301.5C 169.369,300.835 171.369,300.169 173.5,299.5C 170.232,298.513 166.898,298.18 163.5,298.5C 163.5,306.833 163.5,315.167 163.5,323.5C 162.833,323.5 162.167,323.5 161.5,323.5C 161.5,314.5 161.5,305.5 161.5,296.5C 166.511,296.334 171.511,296.501 176.5,297C 178.618,298.049 180.284,299.549 181.5,301.5 Z"/></g>
<g><path style="opacity:1" fill="#171410" d="M 231.5,307.5 C 230.503,307.53 229.836,307.03 229.5,306C 228.767,303.28 227.767,300.78 226.5,298.5C 224.478,296.581 224.144,294.414 225.5,292C 229.505,290.902 233.005,291.735 236,294.5C 239.08,300.553 237.58,304.887 231.5,307.5 Z"/></g>
<g><path style="opacity:1" fill="#ad9864" d="M 203.5,294.5 C 202.391,295.29 201.058,295.79 199.5,296C 196.91,304.277 195.077,312.777 194,321.5C 193.111,322.888 192.611,322.722 192.5,321C 193.287,318.901 193.62,316.734 193.5,314.5C 194.498,307.838 195.498,301.172 196.5,294.5C 198.833,294.5 201.167,294.5 203.5,294.5 Z"/></g>
<g><path style="opacity:1" fill="#af8d44" d="M 154.5,297.5 C 154.5,298.5 154.5,299.5 154.5,300.5C 151.455,300.492 148.455,300.159 145.5,299.5C 144.816,305.906 143.649,312.239 142,318.5C 141.29,319.973 140.124,320.64 138.5,320.5C 138.018,319.584 137.685,318.584 137.5,317.5C 140.111,311.063 142.111,304.397 143.5,297.5C 147.175,296.317 150.841,296.317 154.5,297.5 Z"/></g>
<g><path style="opacity:1" fill="#a88035" d="M 45.5,290.5 C 47.9648,292.423 50.6315,293.09 53.5,292.5C 54.3452,295.877 56.3452,298.21 59.5,299.5C 61.4259,298.939 63.4259,298.773 65.5,299C 64.7476,298.329 64.4142,297.496 64.5,296.5C 65.9217,296.709 67.255,297.209 68.5,298C 76.9075,306.568 86.5742,313.401 97.5,318.5C 98.1667,319.167 98.8333,319.833 99.5,320.5C 93.6521,321.522 92.9855,324.022 97.5,328C 95.5273,328.495 93.5273,328.662 91.5,328.5C 91.67,327.178 91.3366,326.011 90.5,325C 87.8232,324.751 85.4899,323.751 83.5,322C 84.858,319.248 84.1913,318.748 81.5,320.5C 78.3015,318.136 74.9681,315.97 71.5,314C 74.8175,312.915 75.1508,311.415 72.5,309.5C 71.8333,310.5 71.1667,311.5 70.5,312.5C 66.4225,308.469 61.7558,305.469 56.5,303.5C 52.4579,299.46 48.7912,295.127 45.5,290.5 Z"/></g>
<g><path style="opacity:1" fill="#866122" d="M 348.5,155.5 C 348.833,155.5 349.167,155.5 349.5,155.5C 349.5,168.167 349.5,180.833 349.5,193.5C 341.294,251.109 312.627,295.276 263.5,326C 243.87,337.265 222.87,344.432 200.5,347.5C 195.156,347.666 189.823,347.499 184.5,347C 181.507,346.573 181.007,345.406 183,343.5C 186.385,343.53 189.885,343.697 193.5,344C 192.167,343 192.167,342 193.5,341C 195.5,340.667 197.5,340.333 199.5,340C 187.138,340.71 176.138,340.544 166.5,339.5C 173.022,339.823 179.355,339.49 185.5,338.5C 194.926,338.182 204.26,337.016 213.5,335C 280.138,316.198 320.804,273.032 335.5,205.5C 335.433,204.041 335.766,202.708 336.5,201.5C 337.268,200.737 337.768,199.737 338,198.5C 338.333,199.167 338.667,199.833 339,200.5C 340.11,198.963 341.61,198.297 343.5,198.5C 343.187,195.753 343.52,193.086 344.5,190.5C 346.432,189.855 347.599,188.521 348,186.5C 348.5,176.172 348.666,165.839 348.5,155.5 Z"/></g>
<g><path style="opacity:1" fill="#7d6332" d="M 242.5,292.5 C 246.168,300.5 244.168,306.833 236.5,311.5C 233.729,312.633 230.896,313.633 228,314.5C 226.624,314.316 225.791,313.649 225.5,312.5C 226.833,312.5 228.167,312.5 229.5,312.5C 228.002,308.017 227.002,303.351 226.5,298.5C 227.767,300.78 228.767,303.28 229.5,306C 229.836,307.03 230.503,307.53 231.5,307.5C 230.537,308.363 230.537,309.03 231.5,309.5C 233.402,307.849 235.402,307.516 237.5,308.5C 241.546,303.961 243.213,298.628 242.5,292.5 Z"/></g>
<g><path style="opacity:1" fill="#957437" d="M 203.5,294.5 C 208.059,301.942 212.392,309.609 216.5,317.5C 214.49,319.171 212.157,319.838 209.5,319.5C 209.509,316.864 208.175,315.531 205.5,315.5C 203.182,315.997 200.848,316.33 198.5,316.5C 199.833,322.5 197.5,324.833 191.5,323.5C 191.42,320.219 192.087,317.219 193.5,314.5C 193.62,316.734 193.287,318.901 192.5,321C 192.611,322.722 193.111,322.888 194,321.5C 195.077,312.777 196.91,304.277 199.5,296C 201.058,295.79 202.391,295.29 203.5,294.5 Z"/></g>
<g><path style="opacity:1" fill="#231b0e" d="M 200.5,302.5 C 202.247,304.428 203.913,306.594 205.5,309C 203.655,310.128 201.655,310.628 199.5,310.5C 199.401,307.763 199.735,305.096 200.5,302.5 Z"/></g>
<g><path style="opacity:1" fill="#a58038" d="M 167.5,301.5 C 167.5,304.167 167.5,306.833 167.5,309.5C 170.723,310.925 173.89,310.592 177,308.5C 177.892,305.547 177.392,302.881 175.5,300.5C 178.787,299.432 180.454,300.765 180.5,304.5C 178.925,312.066 174.258,315.4 166.5,314.5C 166.5,317.5 166.5,320.5 166.5,323.5C 165.5,323.5 164.5,323.5 163.5,323.5C 163.5,315.167 163.5,306.833 163.5,298.5C 166.898,298.18 170.232,298.513 173.5,299.5C 171.369,300.169 169.369,300.835 167.5,301.5 Z"/></g>
<g><path style="opacity:1" fill="#1e1811" d="M 167.5,301.5 C 169.857,301.337 172.19,301.503 174.5,302C 176.602,303.733 176.935,305.733 175.5,308C 172.937,309.079 170.271,309.579 167.5,309.5C 167.5,306.833 167.5,304.167 167.5,301.5 Z"/></g>
<g><path style="opacity:1" fill="#95763d" d="M 181.5,301.5 C 182.634,303.966 182.801,306.633 182,309.5C 180.341,310.817 179.174,312.483 178.5,314.5C 180.406,317.64 181.74,320.973 182.5,324.5C 180.473,324.662 178.473,324.495 176.5,324C 174.529,321.857 173.196,319.357 172.5,316.5C 170.955,315.548 169.288,315.215 167.5,315.5C 167.5,318.5 167.5,321.5 167.5,324.5C 165.265,324.795 163.265,324.461 161.5,323.5C 162.167,323.5 162.833,323.5 163.5,323.5C 164.5,323.5 165.5,323.5 166.5,323.5C 166.5,320.5 166.5,317.5 166.5,314.5C 174.258,315.4 178.925,312.066 180.5,304.5C 181.404,303.791 181.737,302.791 181.5,301.5 Z"/></g>
<g><path style="opacity:1" fill="#7c6030" d="M 56.5,303.5 C 61.7558,305.469 66.4225,308.469 70.5,312.5C 71.1667,311.5 71.8333,310.5 72.5,309.5C 75.1508,311.415 74.8175,312.915 71.5,314C 74.9681,315.97 78.3015,318.136 81.5,320.5C 84.1913,318.748 84.858,319.248 83.5,322C 85.4899,323.751 87.8232,324.751 90.5,325C 91.3366,326.011 91.67,327.178 91.5,328.5C 81.1989,323.373 71.5322,317.206 62.5,310C 60.2941,307.963 58.2941,305.797 56.5,303.5 Z"/></g>
<g><path style="opacity:1" fill="#7d6f3f" d="M 141.5,332.5 C 144.495,332.294 147.162,332.96 149.5,334.5C 146.572,334.435 143.905,333.768 141.5,332.5 Z"/></g>
<g><path style="opacity:1" fill="#ddc170" d="M 97.5,318.5 C 100.594,319.213 103.594,320.213 106.5,321.5C 117.857,326.175 129.524,329.841 141.5,332.5C 143.905,333.768 146.572,334.435 149.5,334.5C 155.601,334.659 161.601,335.326 167.5,336.5C 173.366,337.248 179.366,337.914 185.5,338.5C 179.355,339.49 173.022,339.823 166.5,339.5C 143.024,337.456 120.69,331.122 99.5,320.5C 98.8333,319.833 98.1667,319.167 97.5,318.5 Z"/></g>
<g><path style="opacity:1" fill="#97702a" d="M 99.5,320.5 C 120.69,331.122 143.024,337.456 166.5,339.5C 176.138,340.544 187.138,340.71 199.5,340C 197.5,340.333 195.5,340.667 193.5,341C 192.167,342 192.167,343 193.5,344C 189.885,343.697 186.385,343.53 183,343.5C 181.007,345.406 181.507,346.573 184.5,347C 189.823,347.499 195.156,347.666 200.5,347.5C 198.167,348.167 195.833,348.833 193.5,349.5C 180.833,349.5 168.167,349.5 155.5,349.5C 132.874,346.514 111.541,339.514 91.5,328.5C 93.5273,328.662 95.5273,328.495 97.5,328C 92.9855,324.022 93.6521,321.522 99.5,320.5 Z"/></g>
</svg>
