<?xml version="1.0" encoding="UTF-8"?>
<!DOCTYPE svg PUBLIC "-//W3C//DTD SVG 1.1//EN" "http://www.w3.org/Graphics/SVG/1.1/DTD/svg11.dtd">
<svg xmlns="http://www.w3.org/2000/svg" version="1.1" width="198px" height="198px" style="shape-rendering:geometricPrecision; text-rendering:geometricPrecision; image-rendering:optimizeQuality; fill-rule:evenodd; clip-rule:evenodd" xmlns:xlink="http://www.w3.org/1999/xlink">
<g><path style="opacity:1" fill="#edc263" d="M 84.5,-0.5 C 93.8333,-0.5 103.167,-0.5 112.5,-0.5C 159.167,9.5 187.5,37.8333 197.5,84.5C 197.5,93.8333 197.5,103.167 197.5,112.5C 187.5,159.167 159.167,187.5 112.5,197.5C 103.167,197.5 93.8333,197.5 84.5,197.5C 37.8333,187.5 9.5,159.167 -0.5,112.5C -0.5,103.167 -0.5,93.8333 -0.5,84.5C 9.5,37.8333 37.8333,9.5 84.5,-0.5 Z"/></g>
<g><path style="opacity:1" fill="#9f8143" d="M 133.5,12.5 C 136.785,12.2104 139.785,12.877 142.5,14.5C 147.183,16.8388 151.517,19.6721 155.5,23C 156.872,24.2419 157.872,25.7419 158.5,27.5C 161.541,30.6999 165.041,33.3665 169,35.5C 169.483,36.448 169.649,37.448 169.5,38.5C 161.412,32.5858 153.746,26.0858 146.5,19C 141.029,18.9313 136.696,16.7646 133.5,12.5 Z"/></g>
<g><path style="opacity:1" fill="#c3a050" d="M 142.5,14.5 C 144.833,14.5 147.167,14.5 149.5,14.5C 149.5,15.5 149.5,16.5 149.5,17.5C 154.168,19.3232 157.835,22.4898 160.5,27C 162.167,28 163.833,29 165.5,30C 172.964,36.7723 178.797,44.6056 183,53.5C 183.49,54.7932 183.657,56.1266 183.5,57.5C 181.926,57.0629 180.759,56.0629 180,54.5C 178.194,49.5545 175.861,44.8878 173,40.5C 172.184,39.1772 171.017,38.5106 169.5,38.5C 169.649,37.448 169.483,36.448 169,35.5C 165.041,33.3665 161.541,30.6999 158.5,27.5C 157.872,25.7419 156.872,24.2419 155.5,23C 151.517,19.6721 147.183,16.8388 142.5,14.5 Z"/></g>
<g><path style="opacity:1" fill="#d1ba6b" d="M 122.5,12.5 C 123.568,13.4345 124.901,13.7678 126.5,13.5C 159.669,25.6673 180.002,49.0007 187.5,83.5C 186.833,83.8333 186.167,84.1667 185.5,84.5C 183.977,73.918 180.31,64.2514 174.5,55.5C 173.66,53.1475 172.326,51.1475 170.5,49.5C 154.706,27.2563 133.039,14.7563 105.5,12C 89.0224,10.1282 73.6891,13.2949 59.5,21.5C 44.9913,28.3416 33.658,38.675 25.5,52.5C 20.3264,58.9824 16.6598,66.3157 14.5,74.5C 13.596,73.791 13.2627,72.791 13.5,71.5C 28.211,32.7081 56.3776,12.0414 98,9.5C 106.27,9.79575 114.437,10.7958 122.5,12.5 Z"/></g>
<g><path style="opacity:1" fill="#202119" d="M 170.5,49.5 C 162.718,42.2401 154.385,35.4068 145.5,29C 123.679,16.5965 100.346,12.2632 75.5,16C 76.3081,16.3076 76.9747,16.8076 77.5,17.5C 71.8664,20.2279 65.8664,21.5612 59.5,21.5C 73.6891,13.2949 89.0224,10.1282 105.5,12C 133.039,14.7563 154.706,27.2563 170.5,49.5 Z"/></g>
<g><path style="opacity:1" fill="#bd9b4e" d="M 142.5,14.5 C 139.785,12.877 136.785,12.2104 133.5,12.5C 132.5,12.5 131.5,12.5 130.5,12.5C 119.132,6.7994 106.965,4.46607 94,5.5C 84.1009,4.09521 75.2676,6.09521 67.5,11.5C 58.9003,15.9977 50.2336,20.4977 41.5,25C 35.3459,30.9878 29.3459,37.1545 23.5,43.5C 21.2495,47.3805 18.9161,51.0472 16.5,54.5C 17.4058,50.852 18.7391,47.352 20.5,44C 25.0568,39.2751 29.0568,34.1084 32.5,28.5C 36.8574,25.1357 41.1907,21.8024 45.5,18.5C 54.0955,15.0314 62.4288,11.198 70.5,7C 94.3705,1.10641 117.704,2.77307 140.5,12C 141.381,12.7083 142.047,13.5416 142.5,14.5 Z"/></g>
<g><path style="opacity:1" fill="#987b3d" d="M 130.5,12.5 C 128.901,12.2322 127.568,12.5655 126.5,13.5C 124.901,13.7678 123.568,13.4345 122.5,12.5C 123.552,12.6495 124.552,12.4828 125.5,12C 106.178,6.29949 86.8443,6.13282 67.5,11.5C 75.2676,6.09521 84.1009,4.09521 94,5.5C 106.965,4.46607 119.132,6.7994 130.5,12.5 Z"/></g>
<g><path style="opacity:1" fill="#0a0704" d="M 170.5,49.5 C 172.326,51.1475 173.66,53.1475 174.5,55.5C 178.766,66.2597 182.433,77.2597 185.5,88.5C 187.957,113.8 181.29,136.467 165.5,156.5C 140.434,183.84 109.768,193.006 73.5,184C 62.4685,180.652 52.4685,175.485 43.5,168.5C 25.7276,152.731 15.3943,133.065 12.5,109.5C 12.0253,97.3271 13.192,85.3271 16,73.5C 16.6098,70.9784 17.9431,68.9784 20,67.5C 21.2389,62.2411 23.0723,57.2411 25.5,52.5C 33.658,38.675 44.9913,28.3416 59.5,21.5C 65.8664,21.5612 71.8664,20.2279 77.5,17.5C 76.9747,16.8076 76.3081,16.3076 75.5,16C 100.346,12.2632 123.679,16.5965 145.5,29C 154.385,35.4068 162.718,42.2401 170.5,49.5 Z"/></g>
<g><path style="opacity:1" fill="#987a2f" d="M 53.5,35.5 C 51.6519,37.5164 49.9852,39.683 48.5,42C 49.7982,45.2052 52.1316,46.2052 55.5,45C 57.8171,42.8431 60.4838,41.3431 63.5,40.5C 60.4792,43.4359 56.9792,45.7692 53,47.5C 49.2223,46.5592 47.0557,44.2258 46.5,40.5C 48.5732,38.4202 50.9066,36.7536 53.5,35.5 Z"/></g>
<g><path style="opacity:1" fill="#c3951e" d="M 71.5,25.5 C 69.9112,28.0797 67.5779,29.413 64.5,29.5C 65.2096,32.8595 63.8762,34.6929 60.5,35C 63.3758,37.8287 66.7091,38.3287 70.5,36.5C 68.8333,37.8333 67.1667,39.1667 65.5,40.5C 64.8333,40.5 64.1667,40.5 63.5,40.5C 60.4838,41.3431 57.8171,42.8431 55.5,45C 52.1316,46.2052 49.7982,45.2052 48.5,42C 49.9852,39.683 51.6519,37.5164 53.5,35.5C 58.556,30.6348 64.556,27.3015 71.5,25.5 Z"/></g>
<g><path style="opacity:1" fill="#bf9521" d="M 124.5,24.5 C 133.164,28.1607 141.164,32.8274 148.5,38.5C 147.164,42.0008 144.664,44.3341 141,45.5C 133.864,40.6893 126.364,36.6893 118.5,33.5C 121.554,34.3211 124.554,34.3211 127.5,33.5C 129.022,31.8437 128.689,30.677 126.5,30C 127.167,29.3333 127.833,28.6667 128.5,28C 126.907,27.0513 125.574,25.8846 124.5,24.5 Z"/></g>
<g><path style="opacity:1" fill="#e6ba1f" d="M 71.5,25.5 C 73.8333,25.5 76.1667,25.5 78.5,25.5C 79.0762,29.1125 78.0762,32.1125 75.5,34.5C 73.9505,35.4408 72.2838,36.1075 70.5,36.5C 66.7091,38.3287 63.3758,37.8287 60.5,35C 63.8762,34.6929 65.2096,32.8595 64.5,29.5C 67.5779,29.413 69.9112,28.0797 71.5,25.5 Z"/></g>
<g><path style="opacity:1" fill="#ecbf21" d="M 118.5,23.5 C 120.5,23.8333 122.5,24.1667 124.5,24.5C 125.574,25.8846 126.907,27.0513 128.5,28C 127.833,28.6667 127.167,29.3333 126.5,30C 128.689,30.677 129.022,31.8437 127.5,33.5C 124.554,34.3211 121.554,34.3211 118.5,33.5C 118.167,33.5 117.833,33.5 117.5,33.5C 115.877,30.7847 115.21,27.7847 115.5,24.5C 116.791,24.7373 117.791,24.404 118.5,23.5 Z"/></g>
<g><path style="opacity:1" fill="#ead169" d="M 114.5,22.5 C 116.099,22.2322 117.432,22.5655 118.5,23.5C 117.791,24.404 116.791,24.7373 115.5,24.5C 115.21,27.7847 115.877,30.7847 117.5,33.5C 115.901,33.7678 114.568,33.4345 113.5,32.5C 111.652,30.4836 109.985,28.317 108.5,26C 109.429,23.0912 111.429,21.9245 114.5,22.5 Z"/></g>
<g><path style="opacity:1" fill="#dfc865" d="M 78.5,23.5 C 79.8333,23.5 81.1667,23.5 82.5,23.5C 82.4601,26.9876 81.7934,30.3209 80.5,33.5C 78.7839,33.6287 77.1172,33.962 75.5,34.5C 78.0762,32.1125 79.0762,29.1125 78.5,25.5C 76.1667,25.5 73.8333,25.5 71.5,25.5C 73.5145,24.0762 75.8478,23.4095 78.5,23.5 Z"/></g>
<g><path style="opacity:1" fill="#ecdfa8" d="M 114.5,22.5 C 111.429,21.9245 109.429,23.0912 108.5,26C 109.985,28.317 111.652,30.4836 113.5,32.5C 102.397,30.8659 91.3973,31.1992 80.5,33.5C 81.7934,30.3209 82.4601,26.9876 82.5,23.5C 81.1667,23.5 79.8333,23.5 78.5,23.5C 90.4147,19.9722 102.415,19.6389 114.5,22.5 Z"/></g>
<g><path style="opacity:1" fill="#3f3f37" d="M 113.5,32.5 C 114.568,33.4345 115.901,33.7678 117.5,33.5C 117.833,33.5 118.167,33.5 118.5,33.5C 126.364,36.6893 133.864,40.6893 141,45.5C 144.664,44.3341 147.164,42.0008 148.5,38.5C 151.526,41.1954 154.526,43.8621 157.5,46.5C 156.041,46.4326 154.708,46.7659 153.5,47.5C 152.041,47.5674 150.708,47.2341 149.5,46.5C 145.793,47.724 143.627,50.3907 143,54.5C 141.212,52.6674 141.046,50.6674 142.5,48.5C 139.79,47.4848 137.457,45.9848 135.5,44C 134.207,43.51 132.873,43.3433 131.5,43.5C 131.5,44.5 131.5,45.5 131.5,46.5C 125.303,46.3251 124.637,47.3251 129.5,49.5C 128.855,50.646 128.022,51.646 127,52.5C 125.542,48.9024 123.542,48.2357 121,50.5C 119.831,49.9915 118.998,49.1581 118.5,48C 122.382,46.5664 125.715,44.3998 128.5,41.5C 126.865,40.3192 125.198,40.3192 123.5,41.5C 122.751,39.9884 121.584,38.9884 120,38.5C 116.034,40.4467 111.868,40.9467 107.5,40C 110.47,39.2622 113.136,38.0955 115.5,36.5C 115.291,35.914 114.957,35.414 114.5,35C 105.382,32.6587 96.0486,31.992 86.5,33C 85.8333,33.3333 85.1667,33.6667 84.5,34C 85.938,34.2189 87.2713,34.7189 88.5,35.5C 82.9368,36.7732 82.6035,37.9399 87.5,39C 87.1667,39.3333 86.8333,39.6667 86.5,40C 82.6245,40.5746 78.9578,40.0746 75.5,38.5C 75.5,39.5 75.5,40.5 75.5,41.5C 72.1401,41.3841 68.8067,41.0508 65.5,40.5C 67.1667,39.1667 68.8333,37.8333 70.5,36.5C 72.2838,36.1075 73.9505,35.4408 75.5,34.5C 77.1172,33.962 78.7839,33.6287 80.5,33.5C 91.3973,31.1992 102.397,30.8659 113.5,32.5 Z"/></g>
<g><path style="opacity:1" fill="#544d2d" d="M 149.5,46.5 C 150.708,47.2341 152.041,47.5674 153.5,47.5C 152.542,48.9616 151.376,50.2949 150,51.5C 149.235,53.0657 149.402,54.3991 150.5,55.5C 151.833,56.1667 152.833,57.1667 153.5,58.5C 155.226,60.2279 156.559,62.2279 157.5,64.5C 159.081,66.1417 159.747,68.1417 159.5,70.5C 156.523,65.9441 153.19,61.6108 149.5,57.5C 148.54,53.8614 148.54,50.1947 149.5,46.5 Z"/></g>
<g><path style="opacity:1" fill="#3d3d3b" d="M 46.5,40.5 C 47.0557,44.2258 49.2223,46.5592 53,47.5C 56.9792,45.7692 60.4792,43.4359 63.5,40.5C 64.1667,40.5 64.8333,40.5 65.5,40.5C 65.6775,41.6948 66.0109,42.8615 66.5,44C 65.1034,45.9613 64.1034,48.1279 63.5,50.5C 63.8333,51.1667 64.1667,51.8333 64.5,52.5C 65.5,51.8333 66.5,51.1667 67.5,50.5C 67.9642,52.9749 68.9642,54.9749 70.5,56.5C 70.3146,58.1958 69.4813,59.5291 68,60.5C 67.1697,88.3364 67.3364,116.003 68.5,143.5C 68.5,144.167 68.8333,144.5 69.5,144.5C 69.8417,145.338 70.5084,145.672 71.5,145.5C 67.6887,147.118 64.1887,146.451 61,143.5C 60.5812,141.32 60.7479,139.154 61.5,137C 61.4907,135.596 60.9907,134.43 60,133.5C 57.4075,136.873 56.9075,140.54 58.5,144.5C 50.6019,144.886 50.6019,145.886 58.5,147.5C 57.0921,148.243 55.7588,149.077 54.5,150C 57.1962,150.804 59.6962,151.971 62,153.5C 63.8138,152.24 65.6471,152.24 67.5,153.5C 66.2713,154.281 64.938,154.781 63.5,155C 64.056,155.383 64.3893,155.883 64.5,156.5C 63.8333,156.5 63.1667,156.5 62.5,156.5C 56.8211,150.502 52.8211,151.502 50.5,159.5C 47.141,156.471 43.8076,153.471 40.5,150.5C 43.2921,150.378 45.2921,149.044 46.5,146.5C 47.6491,146.209 48.3158,145.376 48.5,144C 46.7788,141.093 44.4455,138.593 41.5,136.5C 40.6597,134.147 39.3264,132.147 37.5,130.5C 37.1667,129.167 36.8333,127.833 36.5,126.5C 34.5909,120.786 32.9242,115.119 31.5,109.5C 31.3118,97.6181 32.6451,85.9514 35.5,74.5C 36.3786,72.7703 37.712,71.437 39.5,70.5C 41.1547,71.228 42.8214,71.3947 44.5,71C 43.6919,70.6924 43.0253,70.1924 42.5,69.5C 43.4069,67.7441 43.4069,65.9108 42.5,64C 43.1984,60.8213 44.5317,57.9879 46.5,55.5C 46.1517,53.1517 44.8184,51.8184 42.5,51.5C 41.3951,50.3995 40.0618,49.7329 38.5,49.5C 41.1954,46.4744 43.8621,43.4744 46.5,40.5 Z"/></g>
<g><path style="opacity:1" fill="#82682c" d="M 122.5,12.5 C 114.437,10.7958 106.27,9.79575 98,9.5C 56.3776,12.0414 28.211,32.7081 13.5,71.5C 2.67831,110.211 12.345,142.877 42.5,169.5C 76.4614,194.056 111.795,195.889 148.5,175C 155.63,170.037 161.963,164.203 167.5,157.5C 172.238,152.36 176.238,146.693 179.5,140.5C 180.65,139.15 181.317,139.316 181.5,141C 177.721,148.028 173.054,154.528 167.5,160.5C 160.05,168.622 151.717,175.622 142.5,181.5C 139.074,183.076 135.74,184.909 132.5,187C 125.678,188.295 119.011,189.961 112.5,192C 104.167,192.667 95.8333,192.667 87.5,192C 82.7952,191.886 78.4619,190.719 74.5,188.5C 67.0386,186.011 59.7053,182.844 52.5,179C 47.1328,175.322 41.7995,171.655 36.5,168C 34.7537,165.508 32.7537,163.341 30.5,161.5C 28.5372,160.04 26.7038,158.373 25,156.5C 22.4029,151.081 18.9029,146.415 14.5,142.5C 13.4189,138.685 12.0856,135.018 10.5,131.5C 9.94918,125.92 8.44918,120.587 6,115.5C 5.27791,100.775 5.94458,86.1082 8,71.5C 10.742,65.7647 13.5754,60.098 16.5,54.5C 18.9161,51.0472 21.2495,47.3805 23.5,43.5C 29.3459,37.1545 35.3459,30.9878 41.5,25C 50.2336,20.4977 58.9003,15.9977 67.5,11.5C 86.8443,6.13282 106.178,6.29949 125.5,12C 124.552,12.4828 123.552,12.6495 122.5,12.5 Z"/></g>
<g><path style="opacity:1" fill="#95822a" d="M 157.5,46.5 C 157.5,46.8333 157.5,47.1667 157.5,47.5C 153.726,48.9382 151.393,51.6049 150.5,55.5C 149.402,54.3991 149.235,53.0657 150,51.5C 151.376,50.2949 152.542,48.9616 153.5,47.5C 154.708,46.7659 156.041,46.4326 157.5,46.5 Z"/></g>
<g><path style="opacity:1" fill="#3d3c3c" d="M 149.5,46.5 C 148.54,50.1947 148.54,53.8614 149.5,57.5C 153.19,61.6108 156.523,65.9441 159.5,70.5C 160.833,72.5 162.167,74.5 163.5,76.5C 163.851,79.9032 164.518,83.2365 165.5,86.5C 165.716,95.533 165.383,104.533 164.5,113.5C 164.5,113.833 164.5,114.167 164.5,114.5C 163.833,115.833 163.167,117.167 162.5,118.5C 160.78,121.864 159.113,125.197 157.5,128.5C 156.325,128.281 155.325,128.614 154.5,129.5C 155.52,131.432 155.687,133.432 155,135.5C 152.954,137.376 151.121,139.376 149.5,141.5C 149.453,143.038 150.12,144.038 151.5,144.5C 152.167,144.5 152.833,144.5 153.5,144.5C 154.585,146.587 156.251,147.92 158.5,148.5C 155.805,151.526 153.138,154.526 150.5,157.5C 149.848,153.515 147.515,151.181 143.5,150.5C 137.637,153.927 131.97,157.594 126.5,161.5C 120.839,162.831 115.173,164.164 109.5,165.5C 102.825,165.666 96.1583,165.5 89.5,165C 89.8333,164.667 90.1667,164.333 90.5,164C 84.0604,163.77 77.727,162.937 71.5,161.5C 69.2669,159.652 66.9336,157.985 64.5,156.5C 64.3893,155.883 64.056,155.383 63.5,155C 64.938,154.781 66.2713,154.281 67.5,153.5C 65.6471,152.24 63.8138,152.24 62,153.5C 59.6962,151.971 57.1962,150.804 54.5,150C 55.7588,149.077 57.0921,148.243 58.5,147.5C 50.6019,145.886 50.6019,144.886 58.5,144.5C 56.9075,140.54 57.4075,136.873 60,133.5C 60.9907,134.43 61.4907,135.596 61.5,137C 60.7479,139.154 60.5812,141.32 61,143.5C 64.1887,146.451 67.6887,147.118 71.5,145.5C 92.527,146.155 113.194,145.488 133.5,143.5C 133.5,137.833 133.5,132.167 133.5,126.5C 131.833,126.5 130.167,126.5 128.5,126.5C 115.344,125.504 102.01,125.171 88.5,125.5C 88.334,120.156 88.5006,114.823 89,109.5C 89.5,109 90,108.5 90.5,108C 98.1971,107.522 105.864,107.522 113.5,108C 120.491,105.32 123.658,100.153 123,92.5C 124.299,92.9662 125.799,92.9662 127.5,92.5C 128.025,87.882 126.692,86.882 123.5,89.5C 122.252,87.5414 120.585,86.0414 118.5,85C 108.506,84.5002 98.5056,84.3335 88.5,84.5C 88.3626,80.8209 89.0293,77.3209 90.5,74C 103.829,73.5001 117.163,73.3334 130.5,73.5C 130.312,75.1033 130.812,76.4366 132,77.5C 132.977,75.26 133.477,72.9267 133.5,70.5C 133.666,65.4889 133.499,60.4889 133,55.5C 130.959,54.5769 128.792,54.2436 126.5,54.5C 117.84,53.8335 109.006,53.5002 100,53.5C 90.8071,53.5018 81.9738,54.1685 73.5,55.5C 72.391,55.5569 71.391,55.8902 70.5,56.5C 68.9642,54.9749 67.9642,52.9749 67.5,50.5C 66.5,51.1667 65.5,51.8333 64.5,52.5C 64.1667,51.8333 63.8333,51.1667 63.5,50.5C 64.1034,48.1279 65.1034,45.9613 66.5,44C 66.0109,42.8615 65.6775,41.6948 65.5,40.5C 68.8067,41.0508 72.1401,41.3841 75.5,41.5C 75.5,40.5 75.5,39.5 75.5,38.5C 78.9578,40.0746 82.6245,40.5746 86.5,40C 86.8333,39.6667 87.1667,39.3333 87.5,39C 82.6035,37.9399 82.9368,36.7732 88.5,35.5C 87.2713,34.7189 85.938,34.2189 84.5,34C 85.1667,33.6667 85.8333,33.3333 86.5,33C 96.0486,31.992 105.382,32.6587 114.5,35C 114.957,35.414 115.291,35.914 115.5,36.5C 113.136,38.0955 110.47,39.2622 107.5,40C 111.868,40.9467 116.034,40.4467 120,38.5C 121.584,38.9884 122.751,39.9884 123.5,41.5C 125.198,40.3192 126.865,40.3192 128.5,41.5C 125.715,44.3998 122.382,46.5664 118.5,48C 118.998,49.1581 119.831,49.9915 121,50.5C 123.542,48.2357 125.542,48.9024 127,52.5C 128.022,51.646 128.855,50.646 129.5,49.5C 124.637,47.3251 125.303,46.3251 131.5,46.5C 131.5,45.5 131.5,44.5 131.5,43.5C 132.873,43.3433 134.207,43.51 135.5,44C 137.457,45.9848 139.79,47.4848 142.5,48.5C 141.046,50.6674 141.212,52.6674 143,54.5C 143.627,50.3907 145.793,47.724 149.5,46.5 Z"/></g>
<g><path style="opacity:1" fill="#403d2b" d="M 126.5,54.5 C 108.757,54.181 91.0899,54.5143 73.5,55.5C 81.9738,54.1685 90.8071,53.5018 100,53.5C 109.006,53.5002 117.84,53.8335 126.5,54.5 Z"/></g>
<g><path style="opacity:1" fill="#eac436" d="M 157.5,47.5 C 159.587,48.5846 160.92,50.2512 161.5,52.5C 162.576,55.8705 163.576,59.2039 164.5,62.5C 162.416,61.7517 160.416,61.7517 158.5,62.5C 157.664,60.0602 155.997,58.7268 153.5,58.5C 152.833,57.1667 151.833,56.1667 150.5,55.5C 151.393,51.6049 153.726,48.9382 157.5,47.5 Z"/></g>
<g><path style="opacity:1" fill="#80672a" d="M 130.5,12.5 C 131.5,12.5 132.5,12.5 133.5,12.5C 136.696,16.7646 141.029,18.9313 146.5,19C 153.746,26.0858 161.412,32.5858 169.5,38.5C 171.017,38.5106 172.184,39.1772 173,40.5C 175.861,44.8878 178.194,49.5545 180,54.5C 180.759,56.0629 181.926,57.0629 183.5,57.5C 190.418,77.2672 192.751,97.6005 190.5,118.5C 189.156,124.535 186.656,130.201 183,135.5C 182.536,134.906 182.369,134.239 182.5,133.5C 188.751,117.125 190.418,100.458 187.5,83.5C 180.002,49.0007 159.669,25.6673 126.5,13.5C 127.568,12.5655 128.901,12.2322 130.5,12.5 Z"/></g>
<g><path style="opacity:1" fill="#b9a047" d="M 35.5,53.5 C 34.9396,55.8008 34.4396,58.1341 34,60.5C 33.6667,59.8333 33.3333,59.1667 33,58.5C 32.7635,60.8452 31.9302,62.8452 30.5,64.5C 29.7777,65.5511 28.7777,66.2178 27.5,66.5C 29.3815,61.6325 32.0482,57.2991 35.5,53.5 Z"/></g>
<g><path style="opacity:1" fill="#ebc946" d="M 38.5,49.5 C 40.0618,49.7329 41.3951,50.3995 42.5,51.5C 43.4756,52.8149 44.4756,54.1482 45.5,55.5C 43.8149,57.5707 42.1482,59.5707 40.5,61.5C 37.7918,63.2504 34.9584,64.9171 32,66.5C 30.9701,66.1639 30.4701,65.4972 30.5,64.5C 31.9302,62.8452 32.7635,60.8452 33,58.5C 33.3333,59.1667 33.6667,59.8333 34,60.5C 34.4396,58.1341 34.9396,55.8008 35.5,53.5C 35.7376,51.5956 36.7376,50.2623 38.5,49.5 Z"/></g>
<g><path style="opacity:1" fill="#efcf65" d="M 112.5,69.5 C 112.5,69.8333 112.5,70.1667 112.5,70.5C 111.5,70.5 110.5,70.5 109.5,70.5C 101.648,70.1746 93.9818,70.508 86.5,71.5C 85.8333,74.1667 85.1667,76.8333 84.5,79.5C 84.5,76.5 84.5,73.5 84.5,70.5C 88.2878,68.9402 91.2878,66.4402 93.5,63C 98.1667,62.3333 102.833,62.3333 107.5,63C 109.79,64.7772 111.457,66.9438 112.5,69.5 Z"/></g>
<g><path style="opacity:1" fill="#e3c867" d="M 161.5,52.5 C 165.287,55.6238 167.621,59.6238 168.5,64.5C 168.441,66.7224 167.275,67.7224 165,67.5C 162.778,65.8057 160.278,64.8057 157.5,64.5C 156.559,62.2279 155.226,60.2279 153.5,58.5C 155.997,58.7268 157.664,60.0602 158.5,62.5C 160.416,61.7517 162.416,61.7517 164.5,62.5C 163.576,59.2039 162.576,55.8705 161.5,52.5 Z"/></g>
<g><path style="opacity:1" fill="#585037" d="M 42.5,51.5 C 44.8184,51.8184 46.1517,53.1517 46.5,55.5C 44.5317,57.9879 43.1984,60.8213 42.5,64C 43.4069,65.9108 43.4069,67.7441 42.5,69.5C 43.0253,70.1924 43.6919,70.6924 44.5,71C 42.8214,71.3947 41.1547,71.228 39.5,70.5C 37.712,71.437 36.3786,72.7703 35.5,74.5C 36.3366,69.8303 38.0032,65.4969 40.5,61.5C 42.1482,59.5707 43.8149,57.5707 45.5,55.5C 44.4756,54.1482 43.4756,52.8149 42.5,51.5 Z"/></g>
<g><path style="opacity:1" fill="#8e792f" d="M 131.5,56.5 C 132.486,60.97 132.819,65.6367 132.5,70.5C 125.018,71.492 117.352,71.8254 109.5,71.5C 109.5,71.1667 109.5,70.8333 109.5,70.5C 110.5,70.5 111.5,70.5 112.5,70.5C 118.833,70.5 125.167,70.5 131.5,70.5C 131.5,65.8333 131.5,61.1667 131.5,56.5 Z"/></g>
<g><path style="opacity:1" fill="#726844" d="M 25.5,71.5 C 25.2766,75.1621 24.2766,78.4954 22.5,81.5C 22.7234,77.8379 23.7234,74.5046 25.5,71.5 Z"/></g>
<g><path style="opacity:1" fill="#746d46" d="M 171.5,69.5 C 173.472,72.0836 174.472,75.0836 174.5,78.5C 172.69,75.855 171.69,72.855 171.5,69.5 Z"/></g>
<g><path style="opacity:1" fill="#2d2916" d="M 174.5,55.5 C 180.31,64.2514 183.977,73.918 185.5,84.5C 185.5,85.8333 185.5,87.1667 185.5,88.5C 182.433,77.2597 178.766,66.2597 174.5,55.5 Z"/></g>
<g><path style="opacity:1" fill="#8c805a" d="M 109.5,70.5 C 109.5,70.8333 109.5,71.1667 109.5,71.5C 102.167,71.5 94.8333,71.5 87.5,71.5C 87.5,77.5 87.5,83.5 87.5,89.5C 98.6794,89.1721 109.679,89.5054 120.5,90.5C 120.167,90.5 119.833,90.5 119.5,90.5C 109.167,90.5 98.8333,90.5 88.5,90.5C 86.5437,84.588 85.8771,78.2547 86.5,71.5C 93.9818,70.508 101.648,70.1746 109.5,70.5 Z"/></g>
<g><path style="opacity:1" fill="#2b2513" d="M 25.5,52.5 C 23.0723,57.2411 21.2389,62.2411 20,67.5C 17.9431,68.9784 16.6098,70.9784 16,73.5C 13.192,85.3271 12.0253,97.3271 12.5,109.5C 10.945,97.8487 11.6116,86.182 14.5,74.5C 16.6598,66.3157 20.3264,58.9824 25.5,52.5 Z"/></g>
<g><path style="opacity:1" fill="#444138" d="M 132.5,70.5 C 132.833,70.5 133.167,70.5 133.5,70.5C 133.477,72.9267 132.977,75.26 132,77.5C 130.812,76.4366 130.312,75.1033 130.5,73.5C 117.163,73.3334 103.829,73.5001 90.5,74C 89.0293,77.3209 88.3626,80.8209 88.5,84.5C 98.5056,84.3335 108.506,84.5002 118.5,85C 120.585,86.0414 122.252,87.5414 123.5,89.5C 126.692,86.882 128.025,87.882 127.5,92.5C 125.799,92.9662 124.299,92.9662 123,92.5C 123.658,100.153 120.491,105.32 113.5,108C 105.864,107.522 98.1971,107.522 90.5,108C 90,108.5 89.5,109 89,109.5C 88.5006,114.823 88.334,120.156 88.5,125.5C 102.01,125.171 115.344,125.504 128.5,126.5C 114.833,126.5 101.167,126.5 87.5,126.5C 87.5,119.5 87.5,112.5 87.5,105.5C 87.5,105.167 87.5,104.833 87.5,104.5C 96.8393,104.666 106.173,104.5 115.5,104C 116.381,103.292 117.047,102.458 117.5,101.5C 118.15,101.196 118.817,100.863 119.5,100.5C 120.487,97.2317 120.82,93.8984 120.5,90.5C 109.679,89.5054 98.6794,89.1721 87.5,89.5C 87.5,83.5 87.5,77.5 87.5,71.5C 94.8333,71.5 102.167,71.5 109.5,71.5C 117.352,71.8254 125.018,71.492 132.5,70.5 Z"/></g>
<g><path style="opacity:1" fill="#64604d" d="M 35.5,74.5 C 32.6451,85.9514 31.3118,97.6181 31.5,109.5C 29.7928,98.478 30.4594,87.478 33.5,76.5C 34.1667,75.8333 34.8333,75.1667 35.5,74.5 Z"/></g>
<g><path style="opacity:1" fill="#b19049" d="M 183.5,57.5 C 188.846,66.6982 192.346,76.6982 194,87.5C 195.375,101.056 194.375,114.389 191,127.5C 190.617,128.056 190.117,128.389 189.5,128.5C 190.324,125.236 190.658,121.902 190.5,118.5C 192.751,97.6005 190.418,77.2672 183.5,57.5 Z"/></g>
<g><path style="opacity:1" fill="#665425" d="M 126.5,54.5 C 128.792,54.2436 130.959,54.5769 133,55.5C 133.499,60.4889 133.666,65.4889 133.5,70.5C 133.167,70.5 132.833,70.5 132.5,70.5C 132.819,65.6367 132.486,60.97 131.5,56.5C 113.005,55.3378 94.3379,55.1712 75.5,56C 72.532,56.762 70.532,58.5953 69.5,61.5C 68.5021,88.6616 68.1688,115.995 68.5,143.5C 67.3364,116.003 67.1697,88.3364 68,60.5C 69.4813,59.5291 70.3146,58.1958 70.5,56.5C 71.391,55.8902 72.391,55.5569 73.5,55.5C 91.0899,54.5143 108.757,54.181 126.5,54.5 Z"/></g>
<g><path style="opacity:1" fill="#eec01a" d="M 108.5,56.5 C 111.833,56.5 115.167,56.5 118.5,56.5C 119.263,57.2679 120.263,57.7679 121.5,58C 120.852,62.3518 122.519,65.8518 126.5,68.5C 123.232,69.487 119.898,69.8204 116.5,69.5C 112.677,65.1818 108.343,61.3484 103.5,58C 105.382,57.8019 107.048,57.3019 108.5,56.5 Z"/></g>
<g><path style="opacity:1" fill="#f0cd48" d="M 87.5,56.5 C 94.5,56.5 101.5,56.5 108.5,56.5C 107.048,57.3019 105.382,57.8019 103.5,58C 108.343,61.3484 112.677,65.1818 116.5,69.5C 115.167,69.5 113.833,69.5 112.5,69.5C 111.457,66.9438 109.79,64.7772 107.5,63C 102.833,62.3333 98.1667,62.3333 93.5,63C 91.2878,66.4402 88.2878,68.9402 84.5,70.5C 85.7502,68.0676 87.2502,65.7343 89,63.5C 92.5921,63.074 94.0921,61.074 93.5,57.5C 91.2646,57.7947 89.2646,57.4614 87.5,56.5 Z"/></g>
<g><path style="opacity:1" fill="#d9aa19" d="M 118.5,56.5 C 122.833,56.5 127.167,56.5 131.5,56.5C 131.5,61.1667 131.5,65.8333 131.5,70.5C 125.167,70.5 118.833,70.5 112.5,70.5C 112.5,70.1667 112.5,69.8333 112.5,69.5C 113.833,69.5 115.167,69.5 116.5,69.5C 119.898,69.8204 123.232,69.487 126.5,68.5C 122.519,65.8518 120.852,62.3518 121.5,58C 120.263,57.7679 119.263,57.2679 118.5,56.5 Z"/></g>
<g><path style="opacity:1" fill="#ebdb93" d="M 157.5,64.5 C 160.278,64.8057 162.778,65.8057 165,67.5C 167.275,67.7224 168.441,66.7224 168.5,64.5C 169.737,65.9649 170.737,67.6316 171.5,69.5C 171.69,72.855 172.69,75.855 174.5,78.5C 175.923,87.0904 176.59,95.7571 176.5,104.5C 176.144,110.946 175.144,117.279 173.5,123.5C 171.755,125.033 170.755,127.033 170.5,129.5C 169.833,130.5 169.167,131.5 168.5,132.5C 168.5,131.167 168.5,129.833 168.5,128.5C 167.127,128.343 165.793,128.51 164.5,129C 165.433,130.608 164.767,131.441 162.5,131.5C 161.558,131.392 160.725,131.059 160,130.5C 159.722,131.416 159.222,132.082 158.5,132.5C 158.614,130.282 159.28,128.282 160.5,126.5C 161.667,124.959 163,123.625 164.5,122.5C 166.241,120.076 167.575,117.41 168.5,114.5C 169.822,114.67 170.989,114.337 172,113.5C 172.001,108.153 172.834,102.986 174.5,98C 171.82,92.1179 169.986,85.9512 169,79.5C 167.494,77.8258 165.661,76.8258 163.5,76.5C 162.167,74.5 160.833,72.5 159.5,70.5C 159.747,68.1417 159.081,66.1417 157.5,64.5 Z"/></g>
<g><path style="opacity:1" fill="#f8edb9" d="M 88.5,90.5 C 98.8333,90.5 109.167,90.5 119.5,90.5C 118.081,91.4511 116.415,91.7845 114.5,91.5C 114.5,94.5 114.5,97.5 114.5,100.5C 115.791,100.263 116.791,100.596 117.5,101.5C 117.047,102.458 116.381,103.292 115.5,104C 106.173,104.5 96.8393,104.666 87.5,104.5C 87.0618,104.565 86.7284,104.399 86.5,104C 89.8587,102.865 91.192,100.532 90.5,97C 90.6616,94.498 89.9949,92.3313 88.5,90.5 Z"/></g>
<g><path style="opacity:1" fill="#e9d688" d="M 86.5,71.5 C 85.8771,78.2547 86.5437,84.588 88.5,90.5C 89.9949,92.3313 90.6616,94.498 90.5,97C 91.192,100.532 89.8587,102.865 86.5,104C 86.7284,104.399 87.0618,104.565 87.5,104.5C 87.5,104.833 87.5,105.167 87.5,105.5C 86.5084,112.648 86.175,119.981 86.5,127.5C 85.6805,124.695 85.1805,121.695 85,118.5C 84.5001,105.838 84.3334,93.1711 84.5,80.5C 84.5,80.1667 84.5,79.8333 84.5,79.5C 85.1667,76.8333 85.8333,74.1667 86.5,71.5 Z"/></g>
<g><path style="opacity:1" fill="#e9d472" d="M 119.5,90.5 C 119.833,90.5 120.167,90.5 120.5,90.5C 120.82,93.8984 120.487,97.2317 119.5,100.5C 118.817,100.863 118.15,101.196 117.5,101.5C 116.791,100.596 115.791,100.263 114.5,100.5C 114.5,97.5 114.5,94.5 114.5,91.5C 116.415,91.7845 118.081,91.4511 119.5,90.5 Z"/></g>
<g><path style="opacity:1" fill="#c5a022" d="M 131.5,56.5 C 127.167,56.5 122.833,56.5 118.5,56.5C 115.167,56.5 111.833,56.5 108.5,56.5C 101.5,56.5 94.5,56.5 87.5,56.5C 83.6286,56.185 79.9619,56.5184 76.5,57.5C 74.4854,59.2137 72.8187,61.2137 71.5,63.5C 70.3335,86.8262 70.1669,110.16 71,133.5C 71.3333,133.167 71.6667,132.833 72,132.5C 72.9433,135.845 73.7766,139.178 74.5,142.5C 73.1667,142.5 71.8333,142.5 70.5,142.5C 69.5261,115.532 69.1927,88.532 69.5,61.5C 70.532,58.5953 72.532,56.762 75.5,56C 94.3379,55.1712 113.005,55.3378 131.5,56.5 Z"/></g>
<g><path style="opacity:1" fill="#f0c830" d="M 76.5,57.5 C 79.9619,56.5184 83.6286,56.185 87.5,56.5C 89.2646,57.4614 91.2646,57.7947 93.5,57.5C 94.0921,61.074 92.5921,63.074 89,63.5C 87.2502,65.7343 85.7502,68.0676 84.5,70.5C 84.5,73.5 84.5,76.5 84.5,79.5C 84.5,79.8333 84.5,80.1667 84.5,80.5C 80.7821,85.1683 79.1154,90.6683 79.5,97C 80.5229,107.687 82.3562,118.187 85,128.5C 85.6708,129.252 86.5041,129.586 87.5,129.5C 91.136,130.743 92.8027,133.41 92.5,137.5C 97.1292,138.481 101.796,138.648 106.5,138C 109.736,134.594 113.069,131.427 116.5,128.5C 119.833,128.5 123.167,128.5 126.5,128.5C 126.5,129.167 126.167,129.5 125.5,129.5C 118.573,128.704 114.406,131.704 113,138.5C 112.097,139.701 110.931,140.535 109.5,141C 111.708,141.191 113.708,141.691 115.5,142.5C 103.167,142.5 90.8333,142.5 78.5,142.5C 79.6085,141.71 80.9419,141.21 82.5,141C 81.7476,140.329 81.4142,139.496 81.5,138.5C 82.379,136.772 83.0457,134.939 83.5,133C 80.2014,126.643 78.368,119.81 78,112.5C 77.3333,101.833 77.3333,91.1667 78,80.5C 79.1309,75.9154 80.6309,71.4154 82.5,67C 81.9415,66.2753 81.6082,65.4419 81.5,64.5C 82.7866,62.8404 84.1199,61.1738 85.5,59.5C 83.9547,58.5481 82.288,58.2148 80.5,58.5C 79.4324,57.5655 78.099,57.2322 76.5,57.5 Z"/></g>
<g><path style="opacity:1" fill="#87846c" d="M 165.5,86.5 C 166.657,94.6563 166.823,102.99 166,111.5C 165.722,112.416 165.222,113.082 164.5,113.5C 165.383,104.533 165.716,95.533 165.5,86.5 Z"/></g>
<g><path style="opacity:1" fill="#f4e6ae" d="M 163.5,76.5 C 165.661,76.8258 167.494,77.8258 169,79.5C 169.986,85.9512 171.82,92.1179 174.5,98C 172.834,102.986 172.001,108.153 172,113.5C 170.989,114.337 169.822,114.67 168.5,114.5C 167.575,117.41 166.241,120.076 164.5,122.5C 164.5,119.833 164.5,117.167 164.5,114.5C 164.5,114.167 164.5,113.833 164.5,113.5C 165.222,113.082 165.722,112.416 166,111.5C 166.823,102.99 166.657,94.6563 165.5,86.5C 164.518,83.2365 163.851,79.9032 163.5,76.5 Z"/></g>
<g><path style="opacity:1" fill="#655c43" d="M 22.5,81.5 C 21.7676,90.815 21.4343,100.148 21.5,109.5C 20.8345,105.849 20.5012,102.015 20.5,98C 20.3112,92.2483 20.9779,86.7483 22.5,81.5 Z"/></g>
<g><path style="opacity:1" fill="#f2e5b1" d="M 33.5,76.5 C 30.4594,87.478 29.7928,98.478 31.5,109.5C 31.3424,112.902 31.6758,116.236 32.5,119.5C 29.9806,113.734 27.3139,108.068 24.5,102.5C 25.5703,92.9477 28.5703,84.281 33.5,76.5 Z"/></g>
<g><path style="opacity:1" fill="#756d50" d="M 174.5,78.5 C 175.761,81.2578 176.594,84.2578 177,87.5C 177.818,93.3487 177.652,99.0154 176.5,104.5C 176.59,95.7571 175.923,87.0904 174.5,78.5 Z"/></g>
<g><path style="opacity:1" fill="#e2b00a" d="M 76.5,57.5 C 78.099,57.2322 79.4324,57.5655 80.5,58.5C 74.7207,67.4631 71.7207,77.4631 71.5,88.5C 71.8928,101.907 73.0595,115.241 75,128.5C 76,131.5 77,134.5 78,137.5C 79.0113,138.337 80.1779,138.67 81.5,138.5C 81.4142,139.496 81.7476,140.329 82.5,141C 80.9419,141.21 79.6085,141.71 78.5,142.5C 77.1667,142.5 75.8333,142.5 74.5,142.5C 73.7766,139.178 72.9433,135.845 72,132.5C 71.6667,132.833 71.3333,133.167 71,133.5C 70.1669,110.16 70.3335,86.8262 71.5,63.5C 72.8187,61.2137 74.4854,59.2137 76.5,57.5 Z"/></g>
<g><path style="opacity:1" fill="#efdd98" d="M 40.5,61.5 C 38.0032,65.4969 36.3366,69.8303 35.5,74.5C 34.8333,75.1667 34.1667,75.8333 33.5,76.5C 28.5703,84.281 25.5703,92.9477 24.5,102.5C 27.3139,108.068 29.9806,113.734 32.5,119.5C 33.4611,122.055 34.7945,124.388 36.5,126.5C 36.8333,127.833 37.1667,129.167 37.5,130.5C 35.0071,129.203 32.3404,128.203 29.5,127.5C 28.8182,128.243 28.1515,128.909 27.5,129.5C 26.7333,125.851 25.3999,122.518 23.5,119.5C 23.4512,115.922 22.7846,112.589 21.5,109.5C 21.4343,100.148 21.7676,90.815 22.5,81.5C 24.2766,78.4954 25.2766,75.1621 25.5,71.5C 26.4408,69.9505 27.1075,68.2838 27.5,66.5C 28.7777,66.2178 29.7777,65.5511 30.5,64.5C 30.4701,65.4972 30.9701,66.1639 32,66.5C 34.9584,64.9171 37.7918,63.2504 40.5,61.5 Z"/></g>
<g><path style="opacity:1" fill="#efd056" d="M 84.5,80.5 C 84.3334,93.1711 84.5001,105.838 85,118.5C 85.1805,121.695 85.6805,124.695 86.5,127.5C 86.8333,128.167 87.1667,128.833 87.5,129.5C 86.5041,129.586 85.6708,129.252 85,128.5C 82.3562,118.187 80.5229,107.687 79.5,97C 79.1154,90.6683 80.7821,85.1683 84.5,80.5 Z"/></g>
<g><path style="opacity:1" fill="#b9974b" d="M 16.5,54.5 C 13.5754,60.098 10.742,65.7647 8,71.5C 5.94458,86.1082 5.27791,100.775 6,115.5C 8.44918,120.587 9.94918,125.92 10.5,131.5C 7.5172,127.389 5.68386,122.722 5,117.5C 0.722015,96.0597 3.55535,75.7264 13.5,56.5C 14.3569,55.5748 15.3569,54.9081 16.5,54.5 Z"/></g>
<g><path style="opacity:1" fill="#9c9572" d="M 31.5,109.5 C 32.9242,115.119 34.5909,120.786 36.5,126.5C 34.7945,124.388 33.4611,122.055 32.5,119.5C 31.6758,116.236 31.3424,112.902 31.5,109.5 Z"/></g>
<g><path style="opacity:1" fill="#baa45c" d="M 187.5,83.5 C 190.418,100.458 188.751,117.125 182.5,133.5C 180.935,135.509 179.935,137.843 179.5,140.5C 176.238,146.693 172.238,152.36 167.5,157.5C 167.158,156.662 166.492,156.328 165.5,156.5C 181.29,136.467 187.957,113.8 185.5,88.5C 185.5,87.1667 185.5,85.8333 185.5,84.5C 186.167,84.1667 186.833,83.8333 187.5,83.5 Z"/></g>
<g><path style="opacity:1" fill="#a7a072" d="M 164.5,114.5 C 164.5,117.167 164.5,119.833 164.5,122.5C 163,123.625 161.667,124.959 160.5,126.5C 161.371,123.888 162.037,121.221 162.5,118.5C 163.167,117.167 163.833,115.833 164.5,114.5 Z"/></g>
<g><path style="opacity:1" fill="#edbe0c" d="M 80.5,58.5 C 82.288,58.2148 83.9547,58.5481 85.5,59.5C 84.1199,61.1738 82.7866,62.8404 81.5,64.5C 81.6082,65.4419 81.9415,66.2753 82.5,67C 80.6309,71.4154 79.1309,75.9154 78,80.5C 77.3333,91.1667 77.3333,101.833 78,112.5C 78.368,119.81 80.2014,126.643 83.5,133C 83.0457,134.939 82.379,136.772 81.5,138.5C 80.1779,138.67 79.0113,138.337 78,137.5C 77,134.5 76,131.5 75,128.5C 73.0595,115.241 71.8928,101.907 71.5,88.5C 71.7207,77.4631 74.7207,67.4631 80.5,58.5 Z"/></g>
<g><path style="opacity:1" fill="#5d5532" d="M 173.5,123.5 C 173.245,125.967 172.245,127.967 170.5,129.5C 170.755,127.033 171.755,125.033 173.5,123.5 Z"/></g>
<g><path style="opacity:1" fill="#4e4834" d="M 162.5,118.5 C 162.037,121.221 161.371,123.888 160.5,126.5C 159.28,128.282 158.614,130.282 158.5,132.5C 156.983,135.535 154.817,138.201 152,140.5C 151.51,141.793 151.343,143.127 151.5,144.5C 150.12,144.038 149.453,143.038 149.5,141.5C 151.121,139.376 152.954,137.376 155,135.5C 155.687,133.432 155.52,131.432 154.5,129.5C 155.325,128.614 156.325,128.281 157.5,128.5C 159.113,125.197 160.78,121.864 162.5,118.5 Z"/></g>
<g><path style="opacity:1" fill="#edd06e" d="M 86.5,127.5 C 95.1667,127.5 103.833,127.5 112.5,127.5C 113.568,128.434 114.901,128.768 116.5,128.5C 113.069,131.427 109.736,134.594 106.5,138C 101.796,138.648 97.1292,138.481 92.5,137.5C 92.8027,133.41 91.136,130.743 87.5,129.5C 87.1667,128.833 86.8333,128.167 86.5,127.5 Z"/></g>
<g><path style="opacity:1" fill="#6e5d2d" d="M 87.5,105.5 C 87.5,112.5 87.5,119.5 87.5,126.5C 101.167,126.5 114.833,126.5 128.5,126.5C 130.167,126.5 131.833,126.5 133.5,126.5C 133.5,132.167 133.5,137.833 133.5,143.5C 133.167,143.5 132.833,143.5 132.5,143.5C 132.805,138.238 132.471,133.072 131.5,128C 125.175,127.5 118.842,127.334 112.5,127.5C 103.833,127.5 95.1667,127.5 86.5,127.5C 86.175,119.981 86.5084,112.648 87.5,105.5 Z"/></g>
<g><path style="opacity:1" fill="#3d3420" d="M 23.5,119.5 C 25.3999,122.518 26.7333,125.851 27.5,129.5C 28.1667,131.167 28.8333,132.833 29.5,134.5C 28.8501,134.196 28.1835,133.863 27.5,133.5C 25.9591,128.879 24.6258,124.212 23.5,119.5 Z"/></g>
<g><path style="opacity:1" fill="#e0cb70" d="M 37.5,130.5 C 39.3264,132.147 40.6597,134.147 41.5,136.5C 39.2018,134.539 36.5351,133.539 33.5,133.5C 33.5,135.5 33.5,137.5 33.5,139.5C 32.1667,137.833 30.8333,136.167 29.5,134.5C 28.8333,132.833 28.1667,131.167 27.5,129.5C 28.1515,128.909 28.8182,128.243 29.5,127.5C 32.3404,128.203 35.0071,129.203 37.5,130.5 Z"/></g>
<g><path style="opacity:1" fill="#ecc212" d="M 125.5,129.5 C 124.351,132.776 123.017,135.942 121.5,139C 122.684,140.145 122.684,141.312 121.5,142.5C 119.5,142.5 117.5,142.5 115.5,142.5C 113.708,141.691 111.708,141.191 109.5,141C 110.931,140.535 112.097,139.701 113,138.5C 114.406,131.704 118.573,128.704 125.5,129.5 Z"/></g>
<g><path style="opacity:1" fill="#ddac10" d="M 126.5,128.5 C 127.833,128.5 129.167,128.5 130.5,128.5C 130.5,133.167 130.5,137.833 130.5,142.5C 127.5,142.5 124.5,142.5 121.5,142.5C 122.684,141.312 122.684,140.145 121.5,139C 123.017,135.942 124.351,132.776 125.5,129.5C 126.167,129.5 126.5,129.167 126.5,128.5 Z"/></g>
<g><path style="opacity:1" fill="#e4c650" d="M 41.5,136.5 C 41.5569,137.609 41.8902,138.609 42.5,139.5C 41.5041,139.414 40.6708,139.748 40,140.5C 38.9335,138.717 37.4335,138.217 35.5,139C 36.4233,141.86 37.4233,144.693 38.5,147.5C 36.0499,145.371 34.3833,142.704 33.5,139.5C 33.5,137.5 33.5,135.5 33.5,133.5C 36.5351,133.539 39.2018,134.539 41.5,136.5 Z"/></g>
<g><path style="opacity:1" fill="#e7c954" d="M 168.5,132.5 C 167,136.173 165,139.506 162.5,142.5C 162.471,139.344 160.804,137.678 157.5,137.5C 154.453,138.875 153.12,141.208 153.5,144.5C 152.833,144.5 152.167,144.5 151.5,144.5C 151.343,143.127 151.51,141.793 152,140.5C 154.817,138.201 156.983,135.535 158.5,132.5C 159.222,132.082 159.722,131.416 160,130.5C 160.725,131.059 161.558,131.392 162.5,131.5C 164.767,131.441 165.433,130.608 164.5,129C 165.793,128.51 167.127,128.343 168.5,128.5C 168.5,129.833 168.5,131.167 168.5,132.5 Z"/></g>
<g><path style="opacity:1" fill="#bba55d" d="M 13.5,71.5 C 13.2627,72.791 13.596,73.791 14.5,74.5C 11.6116,86.182 10.945,97.8487 12.5,109.5C 15.3943,133.065 25.7276,152.731 43.5,168.5C 42.8333,168.5 42.5,168.833 42.5,169.5C 12.345,142.877 2.67831,110.211 13.5,71.5 Z"/></g>
<g><path style="opacity:1" fill="#6f5f31" d="M 41.5,136.5 C 44.4455,138.593 46.7788,141.093 48.5,144C 48.3158,145.376 47.6491,146.209 46.5,146.5C 46.4452,143.386 45.1119,141.052 42.5,139.5C 41.8902,138.609 41.5569,137.609 41.5,136.5 Z"/></g>
<g><path style="opacity:1" fill="#c1a22f" d="M 112.5,127.5 C 118.842,127.334 125.175,127.5 131.5,128C 132.471,133.072 132.805,138.238 132.5,143.5C 112.993,143.83 93.6595,143.497 74.5,142.5C 75.8333,142.5 77.1667,142.5 78.5,142.5C 90.8333,142.5 103.167,142.5 115.5,142.5C 117.5,142.5 119.5,142.5 121.5,142.5C 124.5,142.5 127.5,142.5 130.5,142.5C 130.5,137.833 130.5,133.167 130.5,128.5C 129.167,128.5 127.833,128.5 126.5,128.5C 123.167,128.5 119.833,128.5 116.5,128.5C 114.901,128.768 113.568,128.434 112.5,127.5 Z"/></g>
<g><path style="opacity:1" fill="#ebc52f" d="M 42.5,139.5 C 45.1119,141.052 46.4452,143.386 46.5,146.5C 44.9064,146.92 43.4064,147.586 42,148.5C 40.8615,148.011 39.6948,147.678 38.5,147.5C 37.4233,144.693 36.4233,141.86 35.5,139C 37.4335,138.217 38.9335,138.717 40,140.5C 40.6708,139.748 41.5041,139.414 42.5,139.5 Z"/></g>
<g><path style="opacity:1" fill="#947c26" d="M 69.5,61.5 C 69.1927,88.532 69.5261,115.532 70.5,142.5C 71.8333,142.5 73.1667,142.5 74.5,142.5C 93.6595,143.497 112.993,143.83 132.5,143.5C 111.673,144.497 90.6733,144.831 69.5,144.5C 68.8333,144.5 68.5,144.167 68.5,143.5C 68.1688,115.995 68.5021,88.6616 69.5,61.5 Z"/></g>
<g><path style="opacity:1" fill="#eac428" d="M 162.5,142.5 C 161.551,144.777 160.218,146.777 158.5,148.5C 156.251,147.92 154.585,146.587 153.5,144.5C 153.12,141.208 154.453,138.875 157.5,137.5C 160.804,137.678 162.471,139.344 162.5,142.5 Z"/></g>
<g><path style="opacity:1" fill="#4b4225" d="M 132.5,143.5 C 132.833,143.5 133.167,143.5 133.5,143.5C 113.194,145.488 92.527,146.155 71.5,145.5C 70.5084,145.672 69.8417,145.338 69.5,144.5C 90.6733,144.831 111.673,144.497 132.5,143.5 Z"/></g>
<g><path style="opacity:1" fill="#a99428" d="M 46.5,146.5 C 45.2921,149.044 43.2921,150.378 40.5,150.5C 39.8333,149.5 39.1667,148.5 38.5,147.5C 39.6948,147.678 40.8615,148.011 42,148.5C 43.4064,147.586 44.9064,146.92 46.5,146.5 Z"/></g>
<g><path style="opacity:1" fill="#b28a26" d="M 62.5,156.5 C 62.8333,157.167 63.1667,157.833 63.5,158.5C 60.1556,157.24 56.8223,156.406 53.5,156C 54.0611,157.676 55.0611,159.009 56.5,160C 55.4477,161.716 56.1144,162.716 58.5,163C 59.2524,163.671 59.5858,164.504 59.5,165.5C 55.9505,164.277 52.9505,162.277 50.5,159.5C 52.8211,151.502 56.8211,150.502 62.5,156.5 Z"/></g>
<g><path style="opacity:1" fill="#776227" d="M 62.5,156.5 C 63.1667,156.5 63.8333,156.5 64.5,156.5C 66.9336,157.985 69.2669,159.652 71.5,161.5C 68.6733,160.892 66.0067,159.892 63.5,158.5C 63.1667,157.833 62.8333,157.167 62.5,156.5 Z"/></g>
<g><path style="opacity:1" fill="#bd9421" d="M 150.5,157.5 C 143.761,162.869 136.427,167.202 128.5,170.5C 129.048,168.468 130.381,167.468 132.5,167.5C 132.36,165.876 133.027,164.71 134.5,164C 133.874,163.25 133.374,162.416 133,161.5C 130.973,161.014 128.807,161.014 126.5,161.5C 131.97,157.594 137.637,153.927 143.5,150.5C 147.515,151.181 149.848,153.515 150.5,157.5 Z"/></g>
<g><path style="opacity:1" fill="#625b44" d="M 71.5,161.5 C 77.727,162.937 84.0604,163.77 90.5,164C 90.1667,164.333 89.8333,164.667 89.5,165C 96.1583,165.5 102.825,165.666 109.5,165.5C 105.609,167.007 101.442,167.674 97,167.5C 92.8081,167.342 88.6414,167.009 84.5,166.5C 83.0697,165.463 81.403,164.796 79.5,164.5C 77.7839,164.371 76.1172,164.038 74.5,163.5C 73.5,162.833 72.5,162.167 71.5,161.5 Z"/></g>
<g><path style="opacity:1" fill="#ecc32d" d="M 74.5,163.5 C 76.1172,164.038 77.7839,164.371 79.5,164.5C 81.8711,166.997 82.8711,169.997 82.5,173.5C 80.8333,173.5 79.1667,173.5 77.5,173.5C 77.1667,173.5 76.8333,173.5 76.5,173.5C 75.1667,172.067 73.6667,170.733 72,169.5C 71.187,167.564 70.687,165.564 70.5,163.5C 71.8333,163.5 73.1667,163.5 74.5,163.5 Z"/></g>
<g><path style="opacity:1" fill="#bb994e" d="M 14.5,142.5 C 18.9029,146.415 22.4029,151.081 25,156.5C 26.7038,158.373 28.5372,160.04 30.5,161.5C 30.2865,163.144 30.6198,164.644 31.5,166C 33.596,167.766 35.9293,169.099 38.5,170C 39.1667,171.333 39.8333,172.667 40.5,174C 44.9307,175.536 48.5974,178.036 51.5,181.5C 48.9953,179.285 45.9953,178.119 42.5,178C 36.8333,172.833 31.1667,167.667 25.5,162.5C 24.846,160.885 24.346,159.218 24,157.5C 22.414,154.782 20.414,152.449 18,150.5C 16.9167,147.733 15.75,145.067 14.5,142.5 Z"/></g>
<g><path style="opacity:1" fill="#c79a18" d="M 63.5,158.5 C 66.0067,159.892 68.6733,160.892 71.5,161.5C 72.5,162.167 73.5,162.833 74.5,163.5C 73.1667,163.5 71.8333,163.5 70.5,163.5C 70.687,165.564 71.187,167.564 72,169.5C 73.6667,170.733 75.1667,172.067 76.5,173.5C 70.2074,171.968 64.5408,169.302 59.5,165.5C 59.5858,164.504 59.2524,163.671 58.5,163C 56.1144,162.716 55.4477,161.716 56.5,160C 55.0611,159.009 54.0611,157.676 53.5,156C 56.8223,156.406 60.1556,157.24 63.5,158.5 Z"/></g>
<g><path style="opacity:1" fill="#e4cd76" d="M 79.5,164.5 C 81.403,164.796 83.0697,165.463 84.5,166.5C 87.6397,167.744 87.973,169.411 85.5,171.5C 86.8715,173.62 86.2048,174.62 83.5,174.5C 81.2646,174.795 79.2646,174.461 77.5,173.5C 79.1667,173.5 80.8333,173.5 82.5,173.5C 82.8711,169.997 81.8711,166.997 79.5,164.5 Z"/></g>
<g><path style="opacity:1" fill="#e9cb5d" d="M 122.5,163.5 C 121.412,165 120.079,166.333 118.5,167.5C 119.246,168.736 119.579,170.07 119.5,171.5C 121.5,171.5 123.5,171.5 125.5,171.5C 123.786,172.738 121.786,173.405 119.5,173.5C 114.932,173.917 113.432,171.917 115,167.5C 117.158,165.506 119.658,164.172 122.5,163.5 Z"/></g>
<g><path style="opacity:1" fill="#b9994d" d="M 174.5,156.5 C 171.071,162.429 166.738,167.595 161.5,172C 157.985,175.259 153.985,177.759 149.5,179.5C 158.232,172.095 166.565,164.428 174.5,156.5 Z"/></g>
<g><path style="opacity:1" fill="#e8bb19" d="M 128.5,170.5 C 127.609,171.11 126.609,171.443 125.5,171.5C 123.5,171.5 121.5,171.5 119.5,171.5C 119.579,170.07 119.246,168.736 118.5,167.5C 120.079,166.333 121.412,165 122.5,163.5C 123.995,163.011 125.329,162.345 126.5,161.5C 128.807,161.014 130.973,161.014 133,161.5C 133.374,162.416 133.874,163.25 134.5,164C 133.027,164.71 132.36,165.876 132.5,167.5C 130.381,167.468 129.048,168.468 128.5,170.5 Z"/></g>
<g><path style="opacity:1" fill="#967b3c" d="M 190.5,118.5 C 190.658,121.902 190.324,125.236 189.5,128.5C 186.338,134.468 183.838,140.802 182,147.5C 179.318,150.348 176.818,153.348 174.5,156.5C 166.565,164.428 158.232,172.095 149.5,179.5C 149.167,179.5 148.833,179.5 148.5,179.5C 146.685,180.63 144.685,181.296 142.5,181.5C 151.717,175.622 160.05,168.622 167.5,160.5C 173.054,154.528 177.721,148.028 181.5,141C 181.317,139.316 180.65,139.15 179.5,140.5C 179.935,137.843 180.935,135.509 182.5,133.5C 182.369,134.239 182.536,134.906 183,135.5C 186.656,130.201 189.156,124.535 190.5,118.5 Z"/></g>
<g><path style="opacity:1" fill="#ecdea5" d="M 126.5,161.5 C 125.329,162.345 123.995,163.011 122.5,163.5C 119.658,164.172 117.158,165.506 115,167.5C 113.432,171.917 114.932,173.917 119.5,173.5C 108.811,176.368 97.8108,177.202 86.5,176C 85.2625,175.768 84.2625,175.268 83.5,174.5C 86.2048,174.62 86.8715,173.62 85.5,171.5C 87.973,169.411 87.6397,167.744 84.5,166.5C 88.6414,167.009 92.8081,167.342 97,167.5C 101.442,167.674 105.609,167.007 109.5,165.5C 115.173,164.164 120.839,162.831 126.5,161.5 Z"/></g>
<g><path style="opacity:1" fill="#93783e" d="M 30.5,161.5 C 32.7537,163.341 34.7537,165.508 36.5,168C 41.7995,171.655 47.1328,175.322 52.5,179C 59.7053,182.844 67.0386,186.011 74.5,188.5C 69.7308,187.928 65.0641,186.928 60.5,185.5C 58.6221,184.792 56.9555,183.626 55.5,182C 54.2068,181.51 52.8734,181.343 51.5,181.5C 48.5974,178.036 44.9307,175.536 40.5,174C 39.8333,172.667 39.1667,171.333 38.5,170C 35.9293,169.099 33.596,167.766 31.5,166C 30.6198,164.644 30.2865,163.144 30.5,161.5 Z"/></g>
<g><path style="opacity:1" fill="#d4bd70" d="M 165.5,156.5 C 166.492,156.328 167.158,156.662 167.5,157.5C 161.963,164.203 155.63,170.037 148.5,175C 111.795,195.889 76.4614,194.056 42.5,169.5C 42.5,168.833 42.8333,168.5 43.5,168.5C 52.4685,175.485 62.4685,180.652 73.5,184C 109.768,193.006 140.434,183.84 165.5,156.5 Z"/></g>
<g><path style="opacity:1" fill="#c9a653" d="M 51.5,181.5 C 52.8734,181.343 54.2068,181.51 55.5,182C 56.9555,183.626 58.6221,184.792 60.5,185.5C 60.6107,186.117 60.944,186.617 61.5,187C 80.6307,194.759 100.297,196.425 120.5,192C 124.803,189.347 129.469,188.18 134.5,188.5C 107.085,198.79 80.0852,197.623 53.5,185C 52.695,183.887 52.0283,182.721 51.5,181.5 Z"/></g>
<g><path style="opacity:1" fill="#af9048" d="M 148.5,179.5 C 148.047,180.458 147.381,181.292 146.5,182C 142.588,184.312 138.588,186.479 134.5,188.5C 129.469,188.18 124.803,189.347 120.5,192C 100.297,196.425 80.6307,194.759 61.5,187C 60.944,186.617 60.6107,186.117 60.5,185.5C 65.0641,186.928 69.7308,187.928 74.5,188.5C 78.4619,190.719 82.7952,191.886 87.5,192C 95.8333,192.667 104.167,192.667 112.5,192C 119.011,189.961 125.678,188.295 132.5,187C 135.74,184.909 139.074,183.076 142.5,181.5C 144.685,181.296 146.685,180.63 148.5,179.5 Z"/></g>
</svg>
