<?xml version="1.0" encoding="UTF-8"?>
<!DOCTYPE svg PUBLIC "-//W3C//DTD SVG 1.1//EN" "http://www.w3.org/Graphics/SVG/1.1/DTD/svg11.dtd">
<svg xmlns="http://www.w3.org/2000/svg" version="1.1" width="134px" height="134px" style="shape-rendering:geometricPrecision; text-rendering:geometricPrecision; image-rendering:optimizeQuality; fill-rule:evenodd; clip-rule:evenodd" xmlns:xlink="http://www.w3.org/1999/xlink">
<g><path style="opacity:0.999" fill="#fcf9f1" d="M 54.5,-0.5 C 62.5,-0.5 70.5,-0.5 78.5,-0.5C 78.5,-0.166667 78.5,0.166667 78.5,0.5C 76.1667,0.5 73.8333,0.5 71.5,0.5C 70.9106,4.9707 71.5772,8.9707 73.5,12.5C 74.1667,12.5 74.8333,12.5 75.5,12.5C 93.6174,16.6006 107.617,26.6006 117.5,42.5C 118.512,46.5152 119.512,50.5152 120.5,54.5C 120.979,57.0644 121.645,59.5644 122.5,62C 126.152,62.4986 129.818,62.6653 133.5,62.5C 133.5,65.8333 133.5,69.1667 133.5,72.5C 129.629,72.185 125.962,72.5184 122.5,73.5C 120.546,85.0147 115.88,95.3481 108.5,104.5C 101.428,111.359 93.4278,116.693 84.5,120.5C 80.5341,121.162 76.5341,121.495 72.5,121.5C 72.5,125.5 72.5,129.5 72.5,133.5C 68.8333,133.5 65.1667,133.5 61.5,133.5C 61.7935,129.563 61.4601,125.73 60.5,122C 55.7575,121.471 51.0908,120.638 46.5,119.5C 41.5921,117.713 36.9255,115.379 32.5,112.5C 29.1667,108.5 25.5,104.833 21.5,101.5C 19.9932,97.1554 17.8265,93.1554 15,89.5C 14.0514,83.8702 12.5514,78.5369 10.5,73.5C 7.03808,72.5184 3.37141,72.185 -0.5,72.5C -0.5,69.1667 -0.5,65.8333 -0.5,62.5C 3.37141,62.815 7.03808,62.4816 10.5,61.5C 11.7201,55.4889 13.3867,49.4889 15.5,43.5C 19.6658,35.6589 25.3324,28.9922 32.5,23.5C 36.4005,20.0536 40.7339,17.3869 45.5,15.5C 50.4379,14.3013 55.4379,13.3013 60.5,12.5C 61.4834,8.70159 61.8168,4.70159 61.5,0.5C 59.2646,0.205283 57.2646,0.538616 55.5,1.5C 50.1652,2.41085 45.1652,4.07751 40.5,6.5C 38.5,6.83333 36.5,7.16667 34.5,7.5C 40.7907,3.84856 47.4574,1.18189 54.5,-0.5 Z"/></g>
<g><path style="opacity:0.773" fill="#f9f6c1" d="M 78.5,0.5 C 88.2513,1.85368 96.9179,5.52035 104.5,11.5C 99.4313,8.63396 94.098,6.30063 88.5,4.5C 83.3399,2.735 78.0066,1.735 72.5,1.5C 72.244,5.26928 72.5773,8.93595 73.5,12.5C 71.5772,8.9707 70.9106,4.9707 71.5,0.5C 73.8333,0.5 76.1667,0.5 78.5,0.5 Z"/></g>
<g><path style="opacity:1" fill="#fba112" d="M 55.5,1.5 C 57.1667,1.5 58.8333,1.5 60.5,1.5C 60.5,5.16667 60.5,8.83333 60.5,12.5C 55.4379,13.3013 50.4379,14.3013 45.5,15.5C 44.2502,15.4226 43.4169,14.756 43,13.5C 41.4931,14.5348 39.9931,14.3681 38.5,13C 39.3081,12.6924 39.9747,12.1924 40.5,11.5C 39.9478,9.9974 39.9478,8.33073 40.5,6.5C 45.1652,4.07751 50.1652,2.41085 55.5,1.5 Z"/></g>
<g><path style="opacity:1" fill="#f2c582" d="M 55.5,1.5 C 57.2646,0.538616 59.2646,0.205283 61.5,0.5C 61.8168,4.70159 61.4834,8.70159 60.5,12.5C 60.5,8.83333 60.5,5.16667 60.5,1.5C 58.8333,1.5 57.1667,1.5 55.5,1.5 Z"/></g>
<g><path style="opacity:1" fill="#fdf00b" d="M 88.5,4.5 C 89.2751,6.38814 89.2751,8.38814 88.5,10.5C 91.0588,10.3896 93.3921,11.0562 95.5,12.5C 94.2713,13.2811 92.938,13.7811 91.5,14C 86.2802,13.3713 80.9469,12.8713 75.5,12.5C 74.8333,12.5 74.1667,12.5 73.5,12.5C 72.5773,8.93595 72.244,5.26928 72.5,1.5C 78.0066,1.735 83.3399,2.735 88.5,4.5 Z"/></g>
<g><path style="opacity:0.953" fill="#f7ebc8" d="M 34.5,7.5 C 33.4726,9.19416 32.1392,10.5275 30.5,11.5C 29.8333,11.5 29.1667,11.5 28.5,11.5C 30.1475,9.6736 32.1475,8.34026 34.5,7.5 Z"/></g>
<g><path style="opacity:0.192" fill="#f7efbe" d="M 104.5,11.5 C 106.404,11.7376 107.738,12.7376 108.5,14.5C 106.596,14.2624 105.262,13.2624 104.5,11.5 Z"/></g>
<g><path style="opacity:0.086" fill="#f9f0c1" d="M 108.5,14.5 C 111.089,15.4194 113.089,17.086 114.5,19.5C 111.911,18.5806 109.911,16.914 108.5,14.5 Z"/></g>
<g><path style="opacity:1" fill="#fbbd11" d="M 40.5,6.5 C 39.9478,8.33073 39.9478,9.9974 40.5,11.5C 39.9747,12.1924 39.3081,12.6924 38.5,13C 39.9931,14.3681 41.4931,14.5348 43,13.5C 43.4169,14.756 44.2502,15.4226 45.5,15.5C 40.7339,17.3869 36.4005,20.0536 32.5,23.5C 30.4359,22.6953 28.4359,22.362 26.5,22.5C 27.5907,18.6699 28.9241,15.0032 30.5,11.5C 32.1392,10.5275 33.4726,9.19416 34.5,7.5C 36.5,7.16667 38.5,6.83333 40.5,6.5 Z"/></g>
<g><path style="opacity:1" fill="#fad91e" d="M 88.5,4.5 C 94.098,6.30063 99.4313,8.63396 104.5,11.5C 105.262,13.2624 106.596,14.2624 108.5,14.5C 109.911,16.914 111.911,18.5806 114.5,19.5C 117.556,21.9485 119.889,24.9485 121.5,28.5C 119.209,27.0489 117.043,25.3822 115,23.5C 113.752,25.7894 112.585,28.1227 111.5,30.5C 112.815,32.3159 114.315,33.9825 116,35.5C 116.304,37.4405 117.137,39.1072 118.5,40.5C 118.137,41.1835 117.804,41.8501 117.5,42.5C 107.617,26.6006 93.6174,16.6006 75.5,12.5C 80.9469,12.8713 86.2802,13.3713 91.5,14C 92.938,13.7811 94.2713,13.2811 95.5,12.5C 93.3921,11.0562 91.0588,10.3896 88.5,10.5C 89.2751,8.38814 89.2751,6.38814 88.5,4.5 Z"/></g>
<g><path style="opacity:0.847" fill="#f8edb7" d="M 28.5,11.5 C 22.5,16.8333 16.8333,22.5 11.5,28.5C 15.5,21.1667 21.1667,15.5 28.5,11.5 Z"/></g>
<g><path style="opacity:1" fill="#d9c76b" d="M 60.5,23.5 C 60.8417,22.6618 61.5084,22.3284 62.5,22.5C 67.3633,22.1805 72.03,22.5139 76.5,23.5C 76.5,23.8333 76.5,24.1667 76.5,24.5C 76.5,24.8333 76.5,25.1667 76.5,25.5C 71.5411,24.6837 66.5411,24.6837 61.5,25.5C 62.9516,24.6981 64.6183,24.1981 66.5,24C 64.5273,23.5045 62.5273,23.3379 60.5,23.5 Z"/></g>
<g><path style="opacity:1" fill="#f1d97c" d="M 62.5,21.5 C 55.3432,22.0188 48.6765,24.0188 42.5,27.5C 41.8333,27.5 41.5,27.1667 41.5,26.5C 49.0719,21.3642 57.4052,19.1976 66.5,20C 64.9419,20.21 63.6085,20.71 62.5,21.5 Z"/></g>
<g><path style="opacity:1" fill="#f8f1b5" d="M 62.5,21.5 C 62.5,21.8333 62.5,22.1667 62.5,22.5C 61.5084,22.3284 60.8417,22.6618 60.5,23.5C 52.8777,24.5874 46.211,27.5874 40.5,32.5C 39.1667,33.5 37.8333,34.5 36.5,35.5C 35.5084,35.6716 34.8417,35.3382 34.5,34.5C 37.1667,32.1667 39.8333,29.8333 42.5,27.5C 48.6765,24.0188 55.3432,22.0188 62.5,21.5 Z"/></g>
<g><path style="opacity:1" fill="#c69b36" d="M 60.5,23.5 C 62.5273,23.3379 64.5273,23.5045 66.5,24C 64.6183,24.1981 62.9516,24.6981 61.5,25.5C 54.6375,26.4631 48.3042,28.7965 42.5,32.5C 41.8333,32.5 41.1667,32.5 40.5,32.5C 46.211,27.5874 52.8777,24.5874 60.5,23.5 Z"/></g>
<g><path style="opacity:1" fill="#fcf5cd" d="M 76.5,25.5 C 76.6107,26.1174 76.944,26.6174 77.5,27C 71.8333,27.6667 66.1667,27.6667 60.5,27C 61.056,26.6174 61.3893,26.1174 61.5,25.5C 66.5411,24.6837 71.5411,24.6837 76.5,25.5 Z"/></g>
<g><path style="opacity:1" fill="#f8e364" d="M 88.5,24.5 C 88.7118,26.3841 89.7118,27.7174 91.5,28.5C 91,28.8333 90.5,29.1667 90,29.5C 85.9736,26.5708 81.4736,24.9041 76.5,24.5C 76.5,24.1667 76.5,23.8333 76.5,23.5C 78.2769,23.2137 79.9436,22.5471 81.5,21.5C 83.9703,22.2366 86.3036,23.2366 88.5,24.5 Z"/></g>
<g><path style="opacity:1" fill="#fbd71b" d="M 28.5,11.5 C 29.1667,11.5 29.8333,11.5 30.5,11.5C 28.9241,15.0032 27.5907,18.6699 26.5,22.5C 28.4359,22.362 30.4359,22.6953 32.5,23.5C 25.3324,28.9922 19.6658,35.6589 15.5,43.5C 14.6805,40.6946 14.1805,37.6946 14,34.5C 13.195,31.7814 11.695,30.7814 9.5,31.5C 9.42702,29.9731 10.0937,28.9731 11.5,28.5C 16.8333,22.5 22.5,16.8333 28.5,11.5 Z"/></g>
<g><path style="opacity:1" fill="#f7efac" d="M 61.5,25.5 C 61.3893,26.1174 61.056,26.6174 60.5,27C 66.1667,27.6667 71.8333,27.6667 77.5,27C 76.944,26.6174 76.6107,26.1174 76.5,25.5C 78.153,25.6596 79.4863,26.3263 80.5,27.5C 75.9296,28.441 71.263,28.7744 66.5,28.5C 57.2312,27.822 49.2312,30.4887 42.5,36.5C 41.209,36.7373 40.209,36.404 39.5,35.5C 40.8333,34.8333 41.8333,33.8333 42.5,32.5C 48.3042,28.7965 54.6375,26.4631 61.5,25.5 Z"/></g>
<g><path style="opacity:1" fill="#fcf16d" d="M 66.5,28.5 C 66.736,30.9732 68.0693,32.6399 70.5,33.5C 68.5767,34.3078 66.5767,34.8078 64.5,35C 66.4812,35.6054 66.8146,36.6054 65.5,38C 63.2922,38.1909 61.2922,38.6909 59.5,39.5C 56.5944,39.9565 53.9278,40.9565 51.5,42.5C 48.6887,42.8257 46.022,43.6591 43.5,45C 43.9574,45.414 44.2907,45.914 44.5,46.5C 42.3633,47.0798 40.53,48.0798 39,49.5C 37.8861,45.5443 37.0527,45.5443 36.5,49.5C 34.7839,49.6287 33.1172,49.962 31.5,50.5C 32.8136,47.8564 34.1469,45.1897 35.5,42.5C 38.4865,41.1743 40.8199,39.1743 42.5,36.5C 49.2312,30.4887 57.2312,27.822 66.5,28.5 Z"/></g>
<g><path style="opacity:1" fill="#f8ea71" d="M 9.5,31.5 C 9.65668,32.8734 9.49001,34.2068 9,35.5C 7.93309,37.6917 6.43309,39.3583 4.5,40.5C 5.40975,37.0078 7.07642,34.0078 9.5,31.5 Z"/></g>
<g><path style="opacity:1" fill="#fbc516" d="M 121.5,28.5 C 127.48,36.0821 131.146,44.7487 132.5,54.5C 132.5,56.5 132.5,58.5 132.5,60.5C 129.167,60.5 125.833,60.5 122.5,60.5C 122.946,57.9899 122.28,55.9899 120.5,54.5C 119.512,50.5152 118.512,46.5152 117.5,42.5C 117.804,41.8501 118.137,41.1835 118.5,40.5C 117.137,39.1072 116.304,37.4405 116,35.5C 114.315,33.9825 112.815,32.3159 111.5,30.5C 112.585,28.1227 113.752,25.7894 115,23.5C 117.043,25.3822 119.209,27.0489 121.5,28.5 Z"/></g>
<g><path style="opacity:1" fill="#f9d759" d="M 80.5,27.5 C 83.8732,28.0659 86.8732,29.3993 89.5,31.5C 99.9912,38.6888 105.991,48.6888 107.5,61.5C 103.833,61.5 100.167,61.5 96.5,61.5C 93.5576,50.2738 86.5576,42.9404 75.5,39.5C 73.3718,38.3709 71.0385,38.2042 68.5,39C 66.3474,39.0995 64.6808,39.9328 63.5,41.5C 62.5,41.5 61.5,41.5 60.5,41.5C 62.0311,40.0755 61.6977,39.4088 59.5,39.5C 61.2922,38.6909 63.2922,38.1909 65.5,38C 66.8146,36.6054 66.4812,35.6054 64.5,35C 66.5767,34.8078 68.5767,34.3078 70.5,33.5C 68.0693,32.6399 66.736,30.9732 66.5,28.5C 71.263,28.7744 75.9296,28.441 80.5,27.5 Z"/></g>
<g><path style="opacity:1" fill="#e1cf75" d="M 34.5,34.5 C 34.8417,35.3382 35.5084,35.6716 36.5,35.5C 29.5367,42.0944 25.2034,50.0944 23.5,59.5C 22.7777,60.5511 21.7777,61.2178 20.5,61.5C 21.7699,50.6568 26.4366,41.6568 34.5,34.5 Z"/></g>
<g><path style="opacity:1" fill="#e5d48a" d="M 75.5,39.5 C 75.0618,39.4346 74.7284,39.6012 74.5,40C 76.7528,41.7814 79.0861,43.2814 81.5,44.5C 80.8333,44.5 80.1667,44.5 79.5,44.5C 77.2543,43.5448 74.921,42.8782 72.5,42.5C 69.7131,41.5233 66.7131,41.19 63.5,41.5C 64.6808,39.9328 66.3474,39.0995 68.5,39C 71.0385,38.2042 73.3718,38.3709 75.5,39.5 Z"/></g>
<g><path style="opacity:1" fill="#d4a33e" d="M 76.5,25.5 C 76.5,25.1667 76.5,24.8333 76.5,24.5C 81.4736,24.9041 85.9736,26.5708 90,29.5C 90.5,29.1667 91,28.8333 91.5,28.5C 89.7118,27.7174 88.7118,26.3841 88.5,24.5C 93.6122,26.0522 97.6122,29.0522 100.5,33.5C 104.224,39.944 107.724,46.6107 111,53.5C 112.19,56.1944 112.356,58.8611 111.5,61.5C 110.828,60.0508 110.161,58.7175 109.5,57.5C 106.839,45.8203 100.506,36.8203 90.5,30.5C 89.8933,30.6236 89.56,30.9569 89.5,31.5C 86.8732,29.3993 83.8732,28.0659 80.5,27.5C 79.4863,26.3263 78.153,25.6596 76.5,25.5 Z"/></g>
<g><path style="opacity:1" fill="#c09123" d="M 59.5,39.5 C 61.6977,39.4088 62.0311,40.0755 60.5,41.5C 58.0462,42.2271 55.7128,43.2271 53.5,44.5C 53.1583,43.6618 52.4916,43.3284 51.5,43.5C 51.5,43.1667 51.5,42.8333 51.5,42.5C 53.9278,40.9565 56.5944,39.9565 59.5,39.5 Z"/></g>
<g><path style="opacity:1" fill="#935f1b" d="M 89.5,31.5 C 89.56,30.9569 89.8933,30.6236 90.5,30.5C 100.506,36.8203 106.839,45.8203 109.5,57.5C 108.833,58.8333 108.167,60.1667 107.5,61.5C 105.991,48.6888 99.9912,38.6888 89.5,31.5 Z"/></g>
<g><path style="opacity:1" fill="#faeb18" d="M 15.5,43.5 C 13.3867,49.4889 11.7201,55.4889 10.5,61.5C 7.16667,61.5 3.83333,61.5 0.5,61.5C 0.5,59.1667 0.5,56.8333 0.5,54.5C 0.904973,49.5436 2.23831,44.8769 4.5,40.5C 6.43309,39.3583 7.93309,37.6917 9,35.5C 9.49001,34.2068 9.65668,32.8734 9.5,31.5C 11.695,30.7814 13.195,31.7814 14,34.5C 14.1805,37.6946 14.6805,40.6946 15.5,43.5 Z"/></g>
<g><path style="opacity:1" fill="#ae7622" d="M 75.5,39.5 C 86.5576,42.9404 93.5576,50.2738 96.5,61.5C 95.8333,61.5 95.1667,61.5 94.5,61.5C 93.8902,60.609 93.5569,59.609 93.5,58.5C 91.3071,52.3055 87.3071,47.6388 81.5,44.5C 79.0861,43.2814 76.7528,41.7814 74.5,40C 74.7284,39.6012 75.0618,39.4346 75.5,39.5 Z"/></g>
<g><path style="opacity:1" fill="#9c8c74" d="M 79.5,44.5 C 80.1667,44.5 80.8333,44.5 81.5,44.5C 87.3071,47.6388 91.3071,52.3055 93.5,58.5C 93.1667,58.5 92.8333,58.5 92.5,58.5C 91.5604,56.3875 90.3937,54.3875 89,52.5C 85.4842,50.1716 82.3176,47.5049 79.5,44.5 Z"/></g>
<g><path style="opacity:1" fill="#ab934e" d="M 41.5,26.5 C 41.5,27.1667 41.8333,27.5 42.5,27.5C 39.8333,29.8333 37.1667,32.1667 34.5,34.5C 26.4366,41.6568 21.7699,50.6568 20.5,61.5C 20.1667,61.5 19.8333,61.5 19.5,61.5C 21.0786,46.2473 28.4119,34.5807 41.5,26.5 Z"/></g>
<g><path style="opacity:1" fill="#f8dc5d" d="M 51.5,42.5 C 51.5,42.8333 51.5,43.1667 51.5,43.5C 44.8223,47.1598 40.8223,52.8264 39.5,60.5C 34.8804,61.4933 30.2137,61.8266 25.5,61.5C 25.2322,59.901 25.5655,58.5676 26.5,57.5C 27.404,56.791 27.7373,55.791 27.5,54.5C 28.5,54.5 29.5,54.5 30.5,54.5C 30.2322,52.901 30.5655,51.5676 31.5,50.5C 33.1172,49.962 34.7839,49.6287 36.5,49.5C 37.0527,45.5443 37.8861,45.5443 39,49.5C 40.53,48.0798 42.3633,47.0798 44.5,46.5C 44.2907,45.914 43.9574,45.414 43.5,45C 46.022,43.6591 48.6887,42.8257 51.5,42.5 Z"/></g>
<g><path style="opacity:1" fill="#eedf7b" d="M 39.5,35.5 C 40.209,36.404 41.209,36.7373 42.5,36.5C 40.8199,39.1743 38.4865,41.1743 35.5,42.5C 34.1469,45.1897 32.8136,47.8564 31.5,50.5C 30.5655,51.5676 30.2322,52.901 30.5,54.5C 29.5,54.5 28.5,54.5 27.5,54.5C 27.7373,55.791 27.404,56.791 26.5,57.5C 28.3265,48.6761 32.6599,41.3428 39.5,35.5 Z"/></g>
<g><path style="opacity:1" fill="#764e1b" d="M 40.5,32.5 C 41.1667,32.5 41.8333,32.5 42.5,32.5C 41.8333,33.8333 40.8333,34.8333 39.5,35.5C 32.6599,41.3428 28.3265,48.6761 26.5,57.5C 25.5655,58.5676 25.2322,59.901 25.5,61.5C 30.2137,61.8266 34.8804,61.4933 39.5,60.5C 40.8223,52.8264 44.8223,47.1598 51.5,43.5C 52.4916,43.3284 53.1583,43.6618 53.5,44.5C 46.8204,48.8403 42.4871,54.8403 40.5,62.5C 35.6367,62.1805 30.97,62.5139 26.5,63.5C 24.0882,63.3059 23.0882,61.9726 23.5,59.5C 25.2034,50.0944 29.5367,42.0944 36.5,35.5C 37.8333,34.5 39.1667,33.5 40.5,32.5 Z"/></g>
<g><path style="opacity:1" fill="#9c9281" d="M 60.5,41.5 C 61.5,41.5 62.5,41.5 63.5,41.5C 66.7131,41.19 69.7131,41.5233 72.5,42.5C 50.7187,42.6198 40.7187,53.6198 42.5,75.5C 41.7321,74.7375 41.2321,73.7375 41,72.5C 40.5017,69.1832 40.335,65.8499 40.5,62.5C 42.4871,54.8403 46.8204,48.8403 53.5,44.5C 55.7128,43.2271 58.0462,42.2271 60.5,41.5 Z"/></g>
<g><path style="opacity:1" fill="#f0cd67" d="M 120.5,54.5 C 122.28,55.9899 122.946,57.9899 122.5,60.5C 125.833,60.5 129.167,60.5 132.5,60.5C 132.5,58.5 132.5,56.5 132.5,54.5C 132.833,54.5 133.167,54.5 133.5,54.5C 133.5,57.1667 133.5,59.8333 133.5,62.5C 129.818,62.6653 126.152,62.4986 122.5,62C 121.645,59.5644 120.979,57.0644 120.5,54.5 Z"/></g>
<g><path style="opacity:1" fill="#f0ea80" d="M -0.5,54.5 C -0.166667,54.5 0.166667,54.5 0.5,54.5C 0.5,56.8333 0.5,59.1667 0.5,61.5C 3.83333,61.5 7.16667,61.5 10.5,61.5C 7.03808,62.4816 3.37141,62.815 -0.5,62.5C -0.5,59.8333 -0.5,57.1667 -0.5,54.5 Z"/></g>
<g><path style="opacity:1" fill="#805a1c" d="M 100.5,33.5 C 101.239,33.369 101.906,33.5357 102.5,34C 110.777,42.0572 115.11,51.8905 115.5,63.5C 115.589,66.7086 115.256,69.8752 114.5,73C 114.316,74.3756 113.649,75.2089 112.5,75.5C 112.167,75.5 111.833,75.5 111.5,75.5C 111.918,74.7784 112.584,74.2784 113.5,74C 107.175,73.5005 100.842,73.3338 94.5,73.5C 94.5,69.5 94.5,65.5 94.5,61.5C 95.1667,61.5 95.8333,61.5 96.5,61.5C 100.167,61.5 103.833,61.5 107.5,61.5C 108.167,60.1667 108.833,58.8333 109.5,57.5C 110.161,58.7175 110.828,60.0508 111.5,61.5C 112.356,58.8611 112.19,56.1944 111,53.5C 107.724,46.6107 104.224,39.944 100.5,33.5 Z"/></g>
<g><path style="opacity:1" fill="#fbdb5a" d="M 26.5,63.5 C 30.8333,63.5 35.1667,63.5 39.5,63.5C 38.2477,68.5092 38.2477,73.5092 39.5,78.5C 39.4535,81.9278 38.2868,84.9278 36,87.5C 34.7012,87.9662 33.2012,87.9662 31.5,87.5C 30.8333,86.1667 30.1667,84.8333 29.5,83.5C 29.0652,80.8427 28.0652,78.5093 26.5,76.5C 26.5,72.1667 26.5,67.8333 26.5,63.5 Z"/></g>
<g><path style="opacity:1" fill="#efdd84" d="M -0.5,72.5 C 3.37141,72.185 7.03808,72.5184 10.5,73.5C 7.16667,73.5 3.83333,73.5 0.5,73.5C 0.5,75.1667 0.5,76.8333 0.5,78.5C 0.166667,78.5 -0.166667,78.5 -0.5,78.5C -0.5,76.5 -0.5,74.5 -0.5,72.5 Z"/></g>
<g><path style="opacity:1" fill="#f1c184" d="M 122.5,73.5 C 125.962,72.5184 129.629,72.185 133.5,72.5C 133.5,74.5 133.5,76.5 133.5,78.5C 133.167,78.5 132.833,78.5 132.5,78.5C 132.5,76.8333 132.5,75.1667 132.5,73.5C 129.167,73.5 125.833,73.5 122.5,73.5 Z"/></g>
<g><path style="opacity:1" fill="#6e6352" d="M 92.5,58.5 C 92.8333,58.5 93.1667,58.5 93.5,58.5C 93.5569,59.609 93.8902,60.609 94.5,61.5C 94.5,65.5 94.5,69.5 94.5,73.5C 92.9751,80.2146 89.6417,85.8812 84.5,90.5C 83.5,90.5 82.5,90.5 81.5,90.5C 92.1995,82.4148 95.8661,71.7482 92.5,58.5 Z"/></g>
<g><path style="opacity:1" fill="#b78b30" d="M 26.5,63.5 C 30.97,62.5139 35.6367,62.1805 40.5,62.5C 40.335,65.8499 40.5017,69.1832 41,72.5C 41.2321,73.7375 41.7321,74.7375 42.5,75.5C 42.2917,79.0848 43.625,81.7515 46.5,83.5C 46.7329,85.0618 47.3995,86.3951 48.5,87.5C 47.2334,86.913 46.2334,86.913 45.5,87.5C 46.2826,89.2882 47.6159,90.2882 49.5,90.5C 47.2431,91.8026 45.4098,91.136 44,88.5C 42.747,84.9986 41.247,81.6653 39.5,78.5C 38.2477,73.5092 38.2477,68.5092 39.5,63.5C 35.1667,63.5 30.8333,63.5 26.5,63.5 Z"/></g>
<g><path style="opacity:1" fill="#ad9c7e" d="M 42.5,75.5 C 44.341,77.8485 45.6743,80.5152 46.5,83.5C 43.625,81.7515 42.2917,79.0848 42.5,75.5 Z"/></g>
<g><path style="opacity:1" fill="#bc8d34" d="M 26.5,76.5 C 28.0652,78.5093 29.0652,80.8427 29.5,83.5C 28.2101,82.9423 27.3768,81.9423 27,80.5C 26.3782,87.2528 28.5449,92.9195 33.5,97.5C 38.3351,103.012 44.0017,107.345 50.5,110.5C 49.448,110.351 48.448,110.517 47.5,111C 49.5883,112.03 51.755,112.863 54,113.5C 55.0299,113.836 55.5299,114.503 55.5,115.5C 52.145,115.31 49.145,114.31 46.5,112.5C 41.3025,107.807 36.1358,102.807 31,97.5C 23.1375,87.4145 20.3042,76.0812 22.5,63.5C 23.3275,67.7956 23.8275,72.1289 24,76.5C 25.5066,80.2364 26.3399,80.2364 26.5,76.5 Z"/></g>
<g><path style="opacity:1" fill="#222018" d="M 72.5,42.5 C 74.921,42.8782 77.2543,43.5448 79.5,44.5C 82.3176,47.5049 85.4842,50.1716 89,52.5C 90.3937,54.3875 91.5604,56.3875 92.5,58.5C 95.8661,71.7482 92.1995,82.4148 81.5,90.5C 78.0969,92.5795 74.4302,93.9129 70.5,94.5C 66.8019,94.4476 63.1352,94.1143 59.5,93.5C 57.9699,91.6535 55.9699,90.6535 53.5,90.5C 51.5,87.8333 49.1667,85.5 46.5,83.5C 45.6743,80.5152 44.341,77.8485 42.5,75.5C 40.7187,53.6198 50.7187,42.6198 72.5,42.5 Z"/></g>
<g><path style="opacity:1" fill="#e9db37" d="M 45.5,68.5 C 48.1159,74.2106 51.4492,74.7106 55.5,70C 56.5,69.3333 57.5,69.3333 58.5,70C 55.758,71.8864 54.0913,74.3864 53.5,77.5C 58.1384,76.1504 62.9718,75.4837 68,75.5C 72.7054,75.4393 77.2054,76.1059 81.5,77.5C 81.762,76.0222 81.4287,74.6888 80.5,73.5C 79.0186,72.5197 77.6853,71.353 76.5,70C 79.3963,69.9401 82.063,70.7734 84.5,72.5C 85.8492,72.1543 87.1825,71.821 88.5,71.5C 89.4614,73.2646 89.7947,75.2646 89.5,77.5C 88.6618,77.8417 88.3284,78.5084 88.5,79.5C 86.1765,82.1261 83.8432,84.7928 81.5,87.5C 80.609,88.1098 79.609,88.4431 78.5,88.5C 77.8429,85.1592 79.1763,83.1592 82.5,82.5C 81.6667,82.1667 80.8333,81.8333 80,81.5C 74.672,82.0434 69.5053,82.7101 64.5,83.5C 64.5,84.1667 64.5,84.8333 64.5,85.5C 61.2936,84.4598 59.2936,82.2931 58.5,79C 56.1667,78.6667 53.8333,78.3333 51.5,78C 52.3366,76.9887 52.67,75.8221 52.5,74.5C 48.5,73.8333 46.8333,75.5 47.5,79.5C 45.5516,77.6796 44.5516,75.3462 44.5,72.5C 44.2322,70.901 44.5655,69.5676 45.5,68.5 Z"/></g>
<g><path style="opacity:1" fill="#30302e" d="M 72.5,81.5 C 68.9581,81.8128 65.6248,81.4794 62.5,80.5C 65.3373,78.5977 68.6707,77.931 72.5,78.5C 72.5,79.5 72.5,80.5 72.5,81.5 Z"/></g>
<g><path style="opacity:1" fill="#6f6b34" d="M 72.5,81.5 C 72.5,80.5 72.5,79.5 72.5,78.5C 68.6707,77.931 65.3373,78.5977 62.5,80.5C 61.596,79.791 61.2627,78.791 61.5,77.5C 65.5,77.5 69.5,77.5 73.5,77.5C 73.7678,79.099 73.4345,80.4324 72.5,81.5 Z"/></g>
<g><path style="opacity:1" fill="#454440" d="M 70.5,57.5 C 70.8333,57.5 71.1667,57.5 71.5,57.5C 71.5,59.5 71.5,61.5 71.5,63.5C 76.8437,63.334 82.1771,63.5006 87.5,64C 89.8317,66.1836 90.165,68.6836 88.5,71.5C 87.1825,71.821 85.8492,72.1543 84.5,72.5C 82.063,70.7734 79.3963,69.9401 76.5,70C 77.6853,71.353 79.0186,72.5197 80.5,73.5C 81.4287,74.6888 81.762,76.0222 81.5,77.5C 77.2054,76.1059 72.7054,75.4393 68,75.5C 62.9718,75.4837 58.1384,76.1504 53.5,77.5C 54.0913,74.3864 55.758,71.8864 58.5,70C 57.5,69.3333 56.5,69.3333 55.5,70C 51.4492,74.7106 48.1159,74.2106 45.5,68.5C 45.5,67.5 45.5,66.5 45.5,65.5C 45.9731,64.0937 46.9731,63.427 48.5,63.5C 49.1667,63.5 49.8333,63.5 50.5,63.5C 54.97,64.4861 59.6367,64.8195 64.5,64.5C 63.9919,67.1761 63.8253,69.8428 64,72.5C 69.9105,74.709 72.2438,72.709 71,66.5C 69.8904,64.9632 68.3904,64.2965 66.5,64.5C 67.5676,63.5655 68.901,63.2322 70.5,63.5C 70.5,61.5 70.5,59.5 70.5,57.5 Z"/></g>
<g><path style="opacity:1" fill="#ceccc1" d="M 64.5,64.5 C 65.1667,64.5 65.8333,64.5 66.5,64.5C 68.3904,64.2965 69.8904,64.9632 71,66.5C 72.2438,72.709 69.9105,74.709 64,72.5C 63.8253,69.8428 63.9919,67.1761 64.5,64.5 Z"/></g>
<g><path style="opacity:1" fill="#6d6415" d="M 44.5,63.5 C 44.3284,64.4916 44.6618,65.1583 45.5,65.5C 45.5,66.5 45.5,67.5 45.5,68.5C 44.5655,69.5676 44.2322,70.901 44.5,72.5C 43.1667,69.5 43.1667,66.5 44.5,63.5 Z"/></g>
<g><path style="opacity:1" fill="#9b8d0b" d="M 63.5,58.5 C 63.5,60.1667 63.5,61.8333 63.5,63.5C 59.1667,63.5 54.8333,63.5 50.5,63.5C 49.8333,63.5 49.1667,63.5 48.5,63.5C 52.97,62.5139 57.6367,62.1805 62.5,62.5C 62.2322,60.901 62.5655,59.5676 63.5,58.5 Z"/></g>
<g><path style="opacity:1" fill="#0e0c07" d="M 70.5,57.5 C 70.5,59.5 70.5,61.5 70.5,63.5C 68.901,63.2322 67.5676,63.5655 66.5,64.5C 65.8333,64.5 65.1667,64.5 64.5,64.5C 59.6367,64.8195 54.97,64.4861 50.5,63.5C 54.8333,63.5 59.1667,63.5 63.5,63.5C 63.5,61.8333 63.5,60.1667 63.5,58.5C 64.3121,57.0069 65.6455,56.3402 67.5,56.5C 68.7261,56.5195 69.7261,56.8529 70.5,57.5 Z"/></g>
<g><path style="opacity:1" fill="#e3e0b6" d="M 58.5,46.5 C 56.9803,50.6814 53.9803,53.0148 49.5,53.5C 51.6367,50.027 54.6367,47.6936 58.5,46.5 Z"/></g>
<g><path style="opacity:1" fill="#edd909" d="M 58.5,46.5 C 68.4179,44.8625 76.9179,47.5292 84,54.5C 84.2104,57.2342 85.0437,59.7342 86.5,62C 81.8452,62.4992 77.1785,62.6658 72.5,62.5C 72.7845,60.5853 72.4511,58.9187 71.5,57.5C 71.1667,57.5 70.8333,57.5 70.5,57.5C 69.7261,56.8529 68.7261,56.5195 67.5,56.5C 65.6455,56.3402 64.3121,57.0069 63.5,58.5C 62.5655,59.5676 62.2322,60.901 62.5,62.5C 57.6367,62.1805 52.97,62.5139 48.5,63.5C 46.9731,63.427 45.9731,64.0937 45.5,65.5C 44.6618,65.1583 44.3284,64.4916 44.5,63.5C 45.1025,59.6284 46.7691,56.2951 49.5,53.5C 53.9803,53.0148 56.9803,50.6814 58.5,46.5 Z"/></g>
<g><path style="opacity:1" fill="#baa515" d="M 89.5,77.5 C 89.7947,75.2646 89.4614,73.2646 88.5,71.5C 90.165,68.6836 89.8317,66.1836 87.5,64C 82.1771,63.5006 76.8437,63.334 71.5,63.5C 71.5,61.5 71.5,59.5 71.5,57.5C 72.4511,58.9187 72.7845,60.5853 72.5,62.5C 77.1785,62.6658 81.8452,62.4992 86.5,62C 85.0437,59.7342 84.2104,57.2342 84,54.5C 76.9179,47.5292 68.4179,44.8625 58.5,46.5C 73.1057,42.0988 83.939,46.7655 91,60.5C 91.9426,66.4363 91.4426,72.103 89.5,77.5 Z"/></g>
<g><path style="opacity:1" fill="#fc9606" d="M 129.5,89.5 C 129.204,91.403 128.537,93.0697 127.5,94.5C 126.069,94.8807 125.236,95.8807 125,97.5C 124.308,96.9747 123.808,96.3081 123.5,95.5C 122.94,88.6208 122.94,81.6208 123.5,74.5C 126.167,74.5 128.833,74.5 131.5,74.5C 131.315,79.5705 130.648,84.5705 129.5,89.5 Z"/></g>
<g><path style="opacity:1" fill="#ead812" d="M 64.5,85.5 C 64.8333,85.5 65.1667,85.5 65.5,85.5C 66.8333,86.8333 68.1667,86.8333 69.5,85.5C 70.0431,85.44 70.3764,85.1067 70.5,84.5C 68.604,83.5344 66.604,83.2011 64.5,83.5C 69.5053,82.7101 74.672,82.0434 80,81.5C 80.8333,81.8333 81.6667,82.1667 82.5,82.5C 79.1763,83.1592 77.8429,85.1592 78.5,88.5C 77.3998,89.5585 76.0664,90.3918 74.5,91C 65.9646,92.8558 58.298,91.1891 51.5,86C 49.7682,84.0281 48.4348,81.8614 47.5,79.5C 46.8333,75.5 48.5,73.8333 52.5,74.5C 52.67,75.8221 52.3366,76.9887 51.5,78C 53.8333,78.3333 56.1667,78.6667 58.5,79C 59.2936,82.2931 61.2936,84.4598 64.5,85.5 Z"/></g>
<g><path style="opacity:1" fill="#a49780" d="M 46.5,83.5 C 49.1667,85.5 51.5,87.8333 53.5,90.5C 52.391,90.4431 51.391,90.1098 50.5,89.5C 49.8333,88.8333 49.1667,88.1667 48.5,87.5C 47.3995,86.3951 46.7329,85.0618 46.5,83.5 Z"/></g>
<g><path style="opacity:1" fill="#595218" d="M 64.5,83.5 C 66.604,83.2011 68.604,83.5344 70.5,84.5C 70.3764,85.1067 70.0431,85.44 69.5,85.5C 68.1667,84.1667 66.8333,84.1667 65.5,85.5C 65.1667,85.5 64.8333,85.5 64.5,85.5C 64.5,84.8333 64.5,84.1667 64.5,83.5 Z"/></g>
<g><path style="opacity:1" fill="#1b1a19" d="M 69.5,85.5 C 68.1667,86.8333 66.8333,86.8333 65.5,85.5C 66.8333,84.1667 68.1667,84.1667 69.5,85.5 Z"/></g>
<g><path style="opacity:1" fill="#7b7c5e" d="M 88.5,79.5 C 87.5501,83.4135 85.2167,86.0802 81.5,87.5C 83.8432,84.7928 86.1765,82.1261 88.5,79.5 Z"/></g>
<g><path style="opacity:1" fill="#faa51e" d="M 122.5,73.5 C 125.833,73.5 129.167,73.5 132.5,73.5C 132.5,75.1667 132.5,76.8333 132.5,78.5C 132.258,82.479 131.258,86.1456 129.5,89.5C 130.648,84.5705 131.315,79.5705 131.5,74.5C 128.833,74.5 126.167,74.5 123.5,74.5C 122.94,81.6208 122.94,88.6208 123.5,95.5C 123.808,96.3081 124.308,96.9747 125,97.5C 125.236,95.8807 126.069,94.8807 127.5,94.5C 125.618,99.3675 122.952,103.701 119.5,107.5C 117.616,107.288 116.283,106.288 115.5,104.5C 116.704,102.097 117.038,99.7638 116.5,97.5C 115.548,99.0453 115.215,100.712 115.5,102.5C 112.892,102.4 110.558,103.067 108.5,104.5C 115.88,95.3481 120.546,85.0147 122.5,73.5 Z"/></g>
<g><path style="opacity:1" fill="#663a0f" d="M 48.5,87.5 C 49.1667,88.1667 49.8333,88.8333 50.5,89.5C 50.5,90.1667 50.1667,90.5 49.5,90.5C 47.6159,90.2882 46.2826,89.2882 45.5,87.5C 46.2334,86.913 47.2334,86.913 48.5,87.5 Z"/></g>
<g><path style="opacity:1" fill="#93792b" d="M 115.5,63.5 C 116.915,80.2353 111.248,94.2353 98.5,105.5C 97.475,105.103 97.3083,104.437 98,103.5C 106.802,96.2289 111.636,86.8955 112.5,75.5C 113.649,75.2089 114.316,74.3756 114.5,73C 115.256,69.8752 115.589,66.7086 115.5,63.5 Z"/></g>
<g><path style="opacity:1" fill="#fbc316" d="M 10.5,73.5 C 12.5514,78.5369 14.0514,83.8702 15,89.5C 17.8265,93.1554 19.9932,97.1554 21.5,101.5C 19.9878,99.6833 17.9878,98.6833 15.5,98.5C 15.7711,100.821 15.1045,102.821 13.5,104.5C 16.1554,106.444 17.4887,109.11 17.5,112.5C 8.1443,103.122 2.47763,91.7887 0.5,78.5C 0.5,76.8333 0.5,75.1667 0.5,73.5C 3.83333,73.5 7.16667,73.5 10.5,73.5 Z"/></g>
<g><path style="opacity:1" fill="#9d6a1f" d="M 29.5,83.5 C 30.1667,84.8333 30.8333,86.1667 31.5,87.5C 34.0078,93.3424 37.6745,98.3424 42.5,102.5C 39.462,100.888 36.6287,98.8882 34,96.5C 33.6012,96.7284 33.4346,97.0618 33.5,97.5C 28.5449,92.9195 26.3782,87.2528 27,80.5C 27.3768,81.9423 28.2101,82.9423 29.5,83.5 Z"/></g>
<g><path style="opacity:1" fill="#ebde91" d="M 107.5,81.5 C 103.331,92.9906 95.9972,101.657 85.5,107.5C 84.8333,107.5 84.1667,107.5 83.5,107.5C 83.4142,106.504 83.7476,105.671 84.5,105C 89.3852,102.373 93.8852,99.2063 98,95.5C 100.686,90.3861 103.853,85.7195 107.5,81.5 Z"/></g>
<g><path style="opacity:1" fill="#dfbb52" d="M 39.5,78.5 C 41.247,81.6653 42.747,84.9986 44,88.5C 45.4098,91.136 47.2431,91.8026 49.5,90.5C 50.1667,90.5 50.5,90.1667 50.5,89.5C 51.391,90.1098 52.391,90.4431 53.5,90.5C 55.9699,90.6535 57.9699,91.6535 59.5,93.5C 60.984,94.4733 61.484,95.8067 61,97.5C 57.3297,100.734 53.8297,104.067 50.5,107.5C 47.3189,106.651 44.6523,104.985 42.5,102.5C 37.6745,98.3424 34.0078,93.3424 31.5,87.5C 33.2012,87.9662 34.7012,87.9662 36,87.5C 38.2868,84.9278 39.4535,81.9278 39.5,78.5 Z"/></g>
<g><path style="opacity:1" fill="#f8df5f" d="M 107.5,81.5 C 103.853,85.7195 100.686,90.3861 98,95.5C 93.8852,99.2063 89.3852,102.373 84.5,105C 83.7476,105.671 83.4142,106.504 83.5,107.5C 81.2084,109.267 78.5418,110.267 75.5,110.5C 77.1233,109.221 78.79,107.887 80.5,106.5C 77.0792,102.074 73.0792,98.4072 68.5,95.5C 69.4916,95.6716 70.1583,95.3382 70.5,94.5C 74.4302,93.9129 78.0969,92.5795 81.5,90.5C 82.5,90.5 83.5,90.5 84.5,90.5C 86.9032,90.607 88.7365,89.607 90,87.5C 92.6559,83.8562 94.4893,79.8562 95.5,75.5C 99.8333,75.5 104.167,75.5 108.5,75.5C 108.167,77.5 107.833,79.5 107.5,81.5 Z"/></g>
<g><path style="opacity:1" fill="#6f5321" d="M 94.5,73.5 C 100.842,73.3338 107.175,73.5005 113.5,74C 112.584,74.2784 111.918,74.7784 111.5,75.5C 108.259,89.4357 100.593,100.436 88.5,108.5C 87.8333,108.5 87.1667,108.5 86.5,108.5C 85.8333,108.5 85.5,108.167 85.5,107.5C 95.9972,101.657 103.331,92.9906 107.5,81.5C 107.833,79.5 108.167,77.5 108.5,75.5C 104.167,75.5 99.8333,75.5 95.5,75.5C 94.4893,79.8562 92.6559,83.8562 90,87.5C 88.7365,89.607 86.9032,90.607 84.5,90.5C 89.6417,85.8812 92.9751,80.2146 94.5,73.5 Z"/></g>
<g><path style="opacity:1" fill="#ead980" d="M 111.5,75.5 C 111.833,75.5 112.167,75.5 112.5,75.5C 111.636,86.8955 106.802,96.2289 98,103.5C 97.3083,104.437 97.475,105.103 98.5,105.5C 87.4274,114.86 74.7608,118.526 60.5,116.5C 62.1992,116.66 63.8659,116.494 65.5,116C 62.8333,115.333 60.1667,114.667 57.5,114C 56.944,113.617 56.6107,113.117 56.5,112.5C 58.8056,112.993 61.139,113.326 63.5,113.5C 71.6492,115.319 79.6492,114.486 87.5,111C 88.999,110.162 89.3324,109.329 88.5,108.5C 100.593,100.436 108.259,89.4357 111.5,75.5 Z"/></g>
<g><path style="opacity:1" fill="#9d6d24" d="M 23.5,59.5 C 23.0882,61.9726 24.0882,63.3059 26.5,63.5C 26.5,67.8333 26.5,72.1667 26.5,76.5C 26.3399,80.2364 25.5066,80.2364 24,76.5C 23.8275,72.1289 23.3275,67.7956 22.5,63.5C 20.3042,76.0812 23.1375,87.4145 31,97.5C 36.1358,102.807 41.3025,107.807 46.5,112.5C 31.5624,104.692 22.3958,92.3584 19,75.5C 18.1849,70.6478 18.3516,65.9811 19.5,61.5C 19.8333,61.5 20.1667,61.5 20.5,61.5C 21.7777,61.2178 22.7777,60.5511 23.5,59.5 Z"/></g>
<g><path style="opacity:1" fill="#fbeb52" d="M 66.5,95.5 C 67.1667,95.5 67.8333,95.5 68.5,95.5C 73.0792,98.4072 77.0792,102.074 80.5,106.5C 78.79,107.887 77.1233,109.221 75.5,110.5C 72.4816,110.665 69.4816,110.498 66.5,110C 67.7932,109.51 69.1266,109.343 70.5,109.5C 68.3218,105.141 66.9885,100.474 66.5,95.5 Z"/></g>
<g><path style="opacity:1" fill="#6a4112" d="M 42.5,102.5 C 44.6523,104.985 47.3189,106.651 50.5,107.5C 53.1755,108.355 55.8421,109.522 58.5,111C 57.552,111.483 56.552,111.649 55.5,111.5C 53.7839,111.371 52.1172,111.038 50.5,110.5C 44.0017,107.345 38.3351,103.012 33.5,97.5C 33.4346,97.0618 33.6012,96.7284 34,96.5C 36.6287,98.8882 39.462,100.888 42.5,102.5 Z"/></g>
<g><path style="opacity:1" fill="#f2e290" d="M 59.5,93.5 C 63.1352,94.1143 66.8019,94.4476 70.5,94.5C 70.1583,95.3382 69.4916,95.6716 68.5,95.5C 67.8333,95.5 67.1667,95.5 66.5,95.5C 64.8333,96.5 63.5,97.8333 62.5,99.5C 59.1616,101.515 56.1616,104.015 53.5,107C 52.552,107.483 51.552,107.649 50.5,107.5C 53.8297,104.067 57.3297,100.734 61,97.5C 61.484,95.8067 60.984,94.4733 59.5,93.5 Z"/></g>
<g><path style="opacity:1" fill="#f8d145" d="M 66.5,95.5 C 66.9885,100.474 68.3218,105.141 70.5,109.5C 69.1266,109.343 67.7932,109.51 66.5,110C 69.4816,110.498 72.4816,110.665 75.5,110.5C 71.6888,111.645 67.6888,111.812 63.5,111C 62.4258,110.261 61.7591,109.261 61.5,108C 62.1667,105.667 62.8333,103.333 63.5,101C 63.4301,100.235 63.0967,99.7352 62.5,99.5C 63.5,97.8333 64.8333,96.5 66.5,95.5 Z"/></g>
<g><path style="opacity:1" fill="#fbb10b" d="M 119.5,107.5 C 116.812,112.188 113.145,115.855 108.5,118.5C 107.5,118.5 106.5,118.5 105.5,118.5C 105.421,117.07 105.754,115.736 106.5,114.5C 105.975,113.808 105.308,113.308 104.5,113C 105.938,112.781 107.271,112.281 108.5,111.5C 107.328,109.177 107.328,106.844 108.5,104.5C 110.558,103.067 112.892,102.4 115.5,102.5C 115.215,100.712 115.548,99.0453 116.5,97.5C 117.038,99.7638 116.704,102.097 115.5,104.5C 116.283,106.288 117.616,107.288 119.5,107.5 Z"/></g>
<g><path style="opacity:1" fill="#eaca53" d="M 50.5,110.5 C 52.1172,111.038 53.7839,111.371 55.5,111.5C 55.5,112.167 55.8333,112.5 56.5,112.5C 56.6107,113.117 56.944,113.617 57.5,114C 60.1667,114.667 62.8333,115.333 65.5,116C 63.8659,116.494 62.1992,116.66 60.5,116.5C 58.7085,116.634 57.0418,116.301 55.5,115.5C 55.5299,114.503 55.0299,113.836 54,113.5C 51.755,112.863 49.5883,112.03 47.5,111C 48.448,110.517 49.448,110.351 50.5,110.5 Z"/></g>
<g><path style="opacity:1" fill="#c29125" d="M 62.5,99.5 C 63.0967,99.7352 63.4301,100.235 63.5,101C 62.8333,103.333 62.1667,105.667 61.5,108C 61.7591,109.261 62.4258,110.261 63.5,111C 67.6888,111.812 71.6888,111.645 75.5,110.5C 78.5418,110.267 81.2084,109.267 83.5,107.5C 84.1667,107.5 84.8333,107.5 85.5,107.5C 85.5,108.167 85.8333,108.5 86.5,108.5C 79.3687,112.062 71.7021,113.728 63.5,113.5C 61.139,113.326 58.8056,112.993 56.5,112.5C 55.8333,112.5 55.5,112.167 55.5,111.5C 56.552,111.649 57.552,111.483 58.5,111C 55.8421,109.522 53.1755,108.355 50.5,107.5C 51.552,107.649 52.552,107.483 53.5,107C 56.1616,104.015 59.1616,101.515 62.5,99.5 Z"/></g>
<g><path style="opacity:1" fill="#f9eeb7" d="M 86.5,108.5 C 87.1667,108.5 87.8333,108.5 88.5,108.5C 89.3324,109.329 88.999,110.162 87.5,111C 79.6492,114.486 71.6492,115.319 63.5,113.5C 71.7021,113.728 79.3687,112.062 86.5,108.5 Z"/></g>
<g><path style="opacity:1" fill="#fbb20e" d="M 21.5,101.5 C 25.5,104.833 29.1667,108.5 32.5,112.5C 32.5774,113.75 33.244,114.583 34.5,115C 33.8333,115.333 33.1667,115.667 32.5,116C 36.9825,116.464 37.9825,118.297 35.5,121.5C 37.264,123.13 38.264,125.13 38.5,127.5C 30.2588,124.215 23.2588,119.215 17.5,112.5C 17.4887,109.11 16.1554,106.444 13.5,104.5C 15.1045,102.821 15.7711,100.821 15.5,98.5C 17.9878,98.6833 19.9878,99.6833 21.5,101.5 Z"/></g>
<g><path style="opacity:1" fill="#fbc819" d="M 108.5,104.5 C 107.328,106.844 107.328,109.177 108.5,111.5C 107.271,112.281 105.938,112.781 104.5,113C 105.308,113.308 105.975,113.808 106.5,114.5C 105.754,115.736 105.421,117.07 105.5,118.5C 106.5,118.5 107.5,118.5 108.5,118.5C 105.197,122.156 101.197,124.822 96.5,126.5C 93.994,124.563 92.494,121.896 92,118.5C 89.5644,119.355 87.0644,120.021 84.5,120.5C 93.4278,116.693 101.428,111.359 108.5,104.5 Z"/></g>
<g><path style="opacity:1" fill="#f3cb96" d="M 46.5,119.5 C 51.0908,120.638 55.7575,121.471 60.5,122C 61.4601,125.73 61.7935,129.563 61.5,133.5C 61.1667,133.5 60.8333,133.5 60.5,133.5C 60.665,130.15 60.4983,126.817 60,123.5C 55.1961,122.943 50.6961,121.61 46.5,119.5 Z"/></g>
<g><path style="opacity:1" fill="#fb970c" d="M 32.5,112.5 C 36.9255,115.379 41.5921,117.713 46.5,119.5C 50.6961,121.61 55.1961,122.943 60,123.5C 60.4983,126.817 60.665,130.15 60.5,133.5C 58.5,133.5 56.5,133.5 54.5,133.5C 48.9563,132.096 43.623,130.096 38.5,127.5C 38.264,125.13 37.264,123.13 35.5,121.5C 37.9825,118.297 36.9825,116.464 32.5,116C 33.1667,115.667 33.8333,115.333 34.5,115C 33.244,114.583 32.5774,113.75 32.5,112.5 Z"/></g>
<g><path style="opacity:1" fill="#fcec18" d="M 96.5,126.5 C 90.7926,129.624 84.7926,131.957 78.5,133.5C 76.5,133.5 74.5,133.5 72.5,133.5C 72.5,129.5 72.5,125.5 72.5,121.5C 76.5341,121.495 80.5341,121.162 84.5,120.5C 87.0644,120.021 89.5644,119.355 92,118.5C 92.494,121.896 93.994,124.563 96.5,126.5 Z"/></g>
</svg>
