<?xml version="1.0" encoding="UTF-8"?>
<!DOCTYPE svg PUBLIC "-//W3C//DTD SVG 1.1//EN" "http://www.w3.org/Graphics/SVG/1.1/DTD/svg11.dtd">
<svg xmlns="http://www.w3.org/2000/svg" version="1.1" width="256px" height="256px" style="shape-rendering:geometricPrecision; text-rendering:geometricPrecision; image-rendering:optimizeQuality; fill-rule:evenodd; clip-rule:evenodd" xmlns:xlink="http://www.w3.org/1999/xlink">
<g><path style="opacity:0.998" fill="#1248e3" d="M 111.5,-0.5 C 122.167,-0.5 132.833,-0.5 143.5,-0.5C 193.489,7.98005 228.323,35.6467 248,82.5C 251.314,92.0953 253.814,101.762 255.5,111.5C 255.5,122.167 255.5,132.833 255.5,143.5C 247.02,193.489 219.353,228.323 172.5,248C 162.905,251.314 153.238,253.814 143.5,255.5C 132.833,255.5 122.167,255.5 111.5,255.5C 61.5108,247.02 26.6775,219.353 7,172.5C 3.68558,162.905 1.18558,153.238 -0.5,143.5C -0.5,132.833 -0.5,122.167 -0.5,111.5C 7.98005,61.5108 35.6467,26.6775 82.5,7C 92.0953,3.68558 101.762,1.18558 111.5,-0.5 Z"/></g>
<g><path style="opacity:1" fill="#3359ce" d="M 159.5,27.5 C 139.304,21.2749 118.971,20.9415 98.5,26.5C 99.343,24.8267 100.676,23.66 102.5,23C 120.981,20.4559 139.314,21.1226 157.5,25C 158.756,25.4169 159.423,26.2502 159.5,27.5 Z"/></g>
<g><path style="opacity:1" fill="#f3fafe" d="M 159.5,27.5 C 169.865,30.8502 179.532,35.5169 188.5,41.5C 194.438,46.0992 200.105,51.0992 205.5,56.5C 209.553,61.2192 213.22,66.2192 216.5,71.5C 217.237,73.3046 218.237,74.9713 219.5,76.5C 216.232,77.9362 213.232,77.6029 210.5,75.5C 198.299,55.0228 180.632,41.1895 157.5,34C 151.709,31.6789 145.709,30.5122 139.5,30.5C 130.676,29.3427 121.676,29.176 112.5,30C 109.203,30.2037 106.203,31.037 103.5,32.5C 93.1821,34.3778 83.8488,38.3778 75.5,44.5C 69.6962,47.5788 64.3628,51.4122 59.5,56C 55.2181,60.1027 51.5515,64.6027 48.5,69.5C 46.5026,71.513 44.836,73.8463 43.5,76.5C 40.8333,77.8333 38.1667,77.8333 35.5,76.5C 50.0181,51.6467 71.0181,34.98 98.5,26.5C 118.971,20.9415 139.304,21.2749 159.5,27.5 Z"/></g>
<g><path style="opacity:1" fill="#415fcd" d="M 139.5,30.5 C 127.431,30.1694 115.431,30.836 103.5,32.5C 106.203,31.037 109.203,30.2037 112.5,30C 121.676,29.176 130.676,29.3427 139.5,30.5 Z"/></g>
<g><path style="opacity:1" fill="#254dd4" d="M 188.5,41.5 C 191.625,41.8182 194.458,42.8182 197,44.5C 197.249,43.376 197.749,42.376 198.5,41.5C 199.167,44.1667 199.833,46.8333 200.5,49.5C 201.167,48.8333 201.833,48.1667 202.5,47.5C 203.645,48.7757 203.645,50.109 202.5,51.5C 204.216,51.9972 205.883,52.3306 207.5,52.5C 206.624,53.2508 205.624,53.7508 204.5,54C 205.252,54.6708 205.586,55.5041 205.5,56.5C 200.105,51.0992 194.438,46.0992 188.5,41.5 Z"/></g>
<g><path style="opacity:1" fill="#2c53d3" d="M 75.5,44.5 C 74.9532,47.2122 73.2865,48.7122 70.5,49C 71.3802,50.3561 71.7135,51.8561 71.5,53.5C 67.0448,52.6217 63.7115,54.1217 61.5,58C 60.552,58.4828 59.552,58.6495 58.5,58.5C 58.5,59.5 58.5,60.5 58.5,61.5C 57.448,61.3505 56.448,61.5172 55.5,62C 53.6671,64.9985 51.3338,67.4985 48.5,69.5C 51.5515,64.6027 55.2181,60.1027 59.5,56C 64.3628,51.4122 69.6962,47.5788 75.5,44.5 Z"/></g>
<g><path style="opacity:1" fill="#385ad6" d="M 216.5,71.5 C 219.158,73.6077 221.491,76.1077 223.5,79C 220.167,79.6667 216.833,79.6667 213.5,79C 211.574,78.5776 210.574,77.4109 210.5,75.5C 213.232,77.6029 216.232,77.9362 219.5,76.5C 218.237,74.9713 217.237,73.3046 216.5,71.5 Z"/></g>
<g><path style="opacity:1" fill="#3054cb" d="M 48.5,103.5 C 47.525,100.689 46.8583,97.6888 46.5,94.5C 40.5,94.5 34.5,94.5 28.5,94.5C 28.5,96.1667 28.5,97.8333 28.5,99.5C 26.9983,97.1371 27.3316,94.9705 29.5,93C 35.5,92.3333 41.5,92.3333 47.5,93C 48.4558,96.3936 48.7892,99.8936 48.5,103.5 Z"/></g>
<g><path style="opacity:1" fill="#3259ca" d="M 85.5,111.5 C 86.1769,105.771 87.1769,100.105 88.5,94.5C 82.1667,94.5 75.8333,94.5 69.5,94.5C 72.2575,93.1818 75.4242,92.5152 79,92.5C 82.9503,92.4067 86.7836,92.9067 90.5,94C 89.015,98.3386 88.1817,102.839 88,107.5C 87.3918,109.066 86.5585,110.4 85.5,111.5 Z"/></g>
<g><path style="opacity:1" fill="#f9fdfd" d="M 48.5,103.5 C 49.0945,108.186 49.7611,112.853 50.5,117.5C 50.5,118.5 50.5,119.5 50.5,120.5C 46.8333,120.5 43.1667,120.5 39.5,120.5C 35.4469,118.447 32.4469,115.447 30.5,111.5C 30.5701,107.575 29.9034,103.909 28.5,100.5C 28.5,100.167 28.5,99.8333 28.5,99.5C 28.5,97.8333 28.5,96.1667 28.5,94.5C 34.5,94.5 40.5,94.5 46.5,94.5C 46.8583,97.6888 47.525,100.689 48.5,103.5 Z"/></g>
<g><path style="opacity:1" fill="#f9fcfe" d="M 69.5,94.5 C 75.8333,94.5 82.1667,94.5 88.5,94.5C 87.1769,100.105 86.1769,105.771 85.5,111.5C 84.8122,114.057 83.6455,116.391 82,118.5C 78.8546,120.976 75.688,123.31 72.5,125.5C 68.2198,127.64 63.8864,129.807 59.5,132C 58.6195,132.708 57.9528,133.542 57.5,134.5C 54.0961,136.577 51.5961,139.577 50,143.5C 48.8436,147.44 48.0103,151.44 47.5,155.5C 46.5489,156.919 46.2155,158.585 46.5,160.5C 40.1667,160.5 33.8333,160.5 27.5,160.5C 28.4593,152.96 30.2926,145.627 33,138.5C 34.8333,136.667 36.6667,134.833 38.5,133C 45.6628,129.253 52.6628,125.253 59.5,121C 60.965,119.226 62.2983,117.392 63.5,115.5C 66.7438,109.673 68.7438,103.34 69.5,96.5C 69.5,95.8333 69.5,95.1667 69.5,94.5 Z"/></g>
<g><path style="opacity:1" fill="#2d51bc" d="M 190.5,104.5 C 198.7,103.246 207.033,103.413 215.5,105C 217.319,105.74 218.652,106.907 219.5,108.5C 210.269,104.986 200.602,103.653 190.5,104.5 Z"/></g>
<g><path style="opacity:1" fill="#f6fbfd" d="M 133.5,111.5 C 131.852,113.429 130.185,115.429 128.5,117.5C 124.608,114.674 120.275,113.841 115.5,115C 114.14,116.938 114.473,118.604 116.5,120C 120.643,122.05 124.976,123.716 129.5,125C 135.225,129.086 137.059,134.586 135,141.5C 133.521,144.828 131.355,147.494 128.5,149.5C 118.791,152.962 109.791,151.629 101.5,145.5C 102.622,142.021 104.622,139.021 107.5,136.5C 111.936,140.346 116.936,141.346 122.5,139.5C 123.833,138.167 123.833,136.833 122.5,135.5C 120.22,134.298 117.886,133.298 115.5,132.5C 115.167,132.5 114.833,132.5 114.5,132.5C 105.72,129.353 101.72,123.02 102.5,113.5C 111.858,101.553 122.525,100.386 134.5,110C 133.944,110.383 133.611,110.883 133.5,111.5 Z"/></g>
<g><path style="opacity:1" fill="#f4fafd" d="M 177.5,112.5 C 176.236,114.27 174.736,115.937 173,117.5C 169.276,114.76 165.109,113.926 160.5,115C 158.365,115.876 157.031,117.376 156.5,119.5C 155.662,119.842 155.328,120.508 155.5,121.5C 154.355,125.311 154.188,129.311 155,133.5C 155.697,135.584 156.864,137.251 158.5,138.5C 158.918,139.222 159.584,139.722 160.5,140C 163.482,140.498 166.482,140.665 169.5,140.5C 169.5,138.167 169.5,135.833 169.5,133.5C 167.5,133.5 165.5,133.5 163.5,133.5C 163.5,130.167 163.5,126.833 163.5,123.5C 168.833,123.5 174.167,123.5 179.5,123.5C 180.82,131.01 180.82,138.677 179.5,146.5C 176.521,148.367 173.521,150.033 170.5,151.5C 160.667,152.303 152.333,149.303 145.5,142.5C 145.672,141.508 145.338,140.842 144.5,140.5C 140.028,130.429 140.695,120.762 146.5,111.5C 157.224,101.596 168.224,101.096 179.5,110C 178.619,110.708 177.953,111.542 177.5,112.5 Z"/></g>
<g><path style="opacity:1" fill="#2852c5" d="M 69.5,96.5 C 68.7438,103.34 66.7438,109.673 63.5,115.5C 64.5579,110.155 65.7246,104.822 67,99.5C 67.3768,98.0577 68.2101,97.0577 69.5,96.5 Z"/></g>
<g><path style="opacity:1" fill="#f7fcfe" d="M 190.5,104.5 C 200.602,103.653 210.269,104.986 219.5,108.5C 225.468,113.779 228.134,120.446 227.5,128.5C 226.914,140.911 220.581,148.078 208.5,150C 202.509,150.499 196.509,150.666 190.5,150.5C 190.5,135.167 190.5,119.833 190.5,104.5 Z"/></g>
<g><path style="opacity:1" fill="#4361ce" d="M 28.5,100.5 C 29.9034,103.909 30.5701,107.575 30.5,111.5C 28.5864,108.316 27.9197,104.649 28.5,100.5 Z"/></g>
<g><path style="opacity:1" fill="#274fcd" d="M 219.5,108.5 C 220.833,108.5 222.167,108.5 223.5,108.5C 223.5,109.5 223.5,110.5 223.5,111.5C 224.5,111.5 225.5,111.5 226.5,111.5C 227.003,115.85 227.67,120.183 228.5,124.5C 228.489,126.045 228.156,127.378 227.5,128.5C 228.134,120.446 225.468,113.779 219.5,108.5 Z"/></g>
<g><path style="opacity:1" fill="#224cda" d="M 133.5,111.5 C 132.596,118.099 134.93,119.599 140.5,116C 139.62,114.644 139.286,113.144 139.5,111.5C 141.833,111.5 144.167,111.5 146.5,111.5C 140.695,120.762 140.028,130.429 144.5,140.5C 142.291,139.104 140.791,137.104 140,134.5C 139.818,131.774 139.318,129.107 138.5,126.5C 137.328,126.919 136.328,127.585 135.5,128.5C 136.922,130.787 137.589,133.287 137.5,136C 136.933,139.861 136.267,143.695 135.5,147.5C 133.079,147.878 130.746,148.545 128.5,149.5C 131.355,147.494 133.521,144.828 135,141.5C 137.059,134.586 135.225,129.086 129.5,125C 124.976,123.716 120.643,122.05 116.5,120C 114.473,118.604 114.14,116.938 115.5,115C 120.275,113.841 124.608,114.674 128.5,117.5C 130.185,115.429 131.852,113.429 133.5,111.5 Z"/></g>
<g><path style="opacity:1" fill="#1548df" d="M 208.5,115.5 C 210.371,115.859 211.871,116.859 213,118.5C 215,124.5 215,130.5 213,136.5C 211.736,138.607 209.903,139.607 207.5,139.5C 206.167,139.5 204.833,139.5 203.5,139.5C 203.5,131.5 203.5,123.5 203.5,115.5C 205.167,115.5 206.833,115.5 208.5,115.5 Z"/></g>
<g><path style="opacity:1" fill="#2853cd" d="M 102.5,113.5 C 101.72,123.02 105.72,129.353 114.5,132.5C 110.25,132.905 106.75,131.572 104,128.5C 102.579,125.586 101.412,122.586 100.5,119.5C 100.361,117.117 101.028,115.117 102.5,113.5 Z"/></g>
<g><path style="opacity:1" fill="#799ae7" d="M 50.5,117.5 C 51.4345,118.568 51.7678,119.901 51.5,121.5C 47.2984,121.817 43.2984,121.483 39.5,120.5C 43.1667,120.5 46.8333,120.5 50.5,120.5C 50.5,119.5 50.5,118.5 50.5,117.5 Z"/></g>
<g><path style="opacity:1" fill="#234bb1" d="M 208.5,115.5 C 206.833,115.5 205.167,115.5 203.5,115.5C 203.5,123.5 203.5,131.5 203.5,139.5C 204.833,139.5 206.167,139.5 207.5,139.5C 206.081,140.451 204.415,140.784 202.5,140.5C 202.5,131.833 202.5,123.167 202.5,114.5C 204.735,114.205 206.735,114.539 208.5,115.5 Z"/></g>
<g><path style="opacity:1" fill="#2750d2" d="M 177.5,112.5 C 177.703,114.39 177.037,115.89 175.5,117C 176.624,117.249 177.624,117.749 178.5,118.5C 178,118.833 177.5,119.167 177,119.5C 172.376,118.651 167.876,117.651 163.5,116.5C 163.5,117.833 163.5,119.167 163.5,120.5C 168.898,121.731 174.231,122.731 179.5,123.5C 174.167,123.5 168.833,123.5 163.5,123.5C 163.5,126.833 163.5,130.167 163.5,133.5C 165.5,133.5 167.5,133.5 169.5,133.5C 169.5,135.833 169.5,138.167 169.5,140.5C 166.482,140.665 163.482,140.498 160.5,140C 159.584,139.722 158.918,139.222 158.5,138.5C 161.833,138.833 165.167,139.167 168.5,139.5C 168.5,137.833 168.5,136.167 168.5,134.5C 166.409,134.318 164.409,134.652 162.5,135.5C 161.5,132.167 160.5,128.834 159.5,125.5C 161.171,123.49 161.838,121.157 161.5,118.5C 159.708,118.366 158.042,118.699 156.5,119.5C 157.031,117.376 158.365,115.876 160.5,115C 165.109,113.926 169.276,114.76 173,117.5C 174.736,115.937 176.236,114.27 177.5,112.5 Z"/></g>
<g><path style="opacity:1" fill="#3557c2" d="M 155.5,121.5 C 155.121,127.428 156.121,133.095 158.5,138.5C 156.864,137.251 155.697,135.584 155,133.5C 154.188,129.311 154.355,125.311 155.5,121.5 Z"/></g>
<g><path style="opacity:1" fill="#3154d3" d="M 72.5,125.5 C 71.6586,127.379 71.3253,129.379 71.5,131.5C 69.1432,131.337 66.8098,131.503 64.5,132C 69.5329,132.171 74.5329,132.671 79.5,133.5C 82.6295,135.377 84.6295,138.044 85.5,141.5C 80.4923,135.04 73.8256,132.706 65.5,134.5C 66.383,139.132 67.0496,143.798 67.5,148.5C 66.8501,148.196 66.1835,147.863 65.5,147.5C 64.8333,143.5 64.1667,139.5 63.5,135.5C 61.5914,134.652 59.5914,134.318 57.5,134.5C 57.9528,133.542 58.6195,132.708 59.5,132C 63.8864,129.807 68.2198,127.64 72.5,125.5 Z"/></g>
<g><path style="opacity:1" fill="#f9fcfe" d="M 85.5,141.5 C 86.5932,147.819 87.5932,154.152 88.5,160.5C 82.1667,160.5 75.8333,160.5 69.5,160.5C 69.4709,156.36 68.8042,152.36 67.5,148.5C 67.0496,143.798 66.383,139.132 65.5,134.5C 73.8256,132.706 80.4923,135.04 85.5,141.5 Z"/></g>
<g><path style="opacity:1" fill="#1547e3" d="M 158.5,138.5 C 156.121,133.095 155.121,127.428 155.5,121.5C 155.328,120.508 155.662,119.842 156.5,119.5C 158.042,118.699 159.708,118.366 161.5,118.5C 161.838,121.157 161.171,123.49 159.5,125.5C 160.5,128.834 161.5,132.167 162.5,135.5C 164.409,134.652 166.409,134.318 168.5,134.5C 168.5,136.167 168.5,137.833 168.5,139.5C 165.167,139.167 161.833,138.833 158.5,138.5 Z"/></g>
<g><path style="opacity:1" fill="#2a52d0" d="M 115.5,132.5 C 117.886,133.298 120.22,134.298 122.5,135.5C 123.833,136.833 123.833,138.167 122.5,139.5C 116.936,141.346 111.936,140.346 107.5,136.5C 104.622,139.021 102.622,142.021 101.5,145.5C 100.539,143.735 100.205,141.735 100.5,139.5C 103.718,139.349 104.051,138.516 101.5,137C 103.61,136.446 105.61,135.612 107.5,134.5C 111.763,138.274 116.763,139.441 122.5,138C 120.971,135.264 119.471,135.098 118,137.5C 117.215,135.751 116.382,134.084 115.5,132.5 Z"/></g>
<g><path style="opacity:1" fill="#3053cd" d="M 145.5,142.5 C 152.333,149.303 160.667,152.303 170.5,151.5C 166.354,152.647 162.02,152.814 157.5,152C 155.038,150.784 152.371,150.118 149.5,150C 148.663,148.989 148.33,147.822 148.5,146.5C 147.127,146.657 145.793,146.49 144.5,146C 145.337,144.989 145.67,143.822 145.5,142.5 Z"/></g>
<g><path style="opacity:1" fill="#4465c3" d="M 47.5,155.5 C 47.5,157.5 47.5,159.5 47.5,161.5C 40.6457,161.824 33.979,161.491 27.5,160.5C 33.8333,160.5 40.1667,160.5 46.5,160.5C 46.2155,158.585 46.5489,156.919 47.5,155.5 Z"/></g>
<g><path style="opacity:1" fill="#3f62d4" d="M 46.5,182.5 C 45.0351,181.594 44.0351,180.261 43.5,178.5C 40.8333,177.167 38.1667,177.167 35.5,178.5C 36.6302,179.622 37.2969,180.956 37.5,182.5C 36.5,182.5 35.5,182.5 34.5,182.5C 34.5,180.5 34.5,178.5 34.5,176.5C 37.8984,176.18 41.2317,176.513 44.5,177.5C 45.4565,179.075 46.1231,180.742 46.5,182.5 Z"/></g>
<g><path style="opacity:1" fill="#466cdb" d="M 212.5,177.5 C 214.948,176.527 217.615,176.194 220.5,176.5C 220.876,179.923 219.543,182.256 216.5,183.5C 217.237,181.695 218.237,180.029 219.5,178.5C 217.257,177.526 214.924,177.192 212.5,177.5 Z"/></g>
<g><path style="opacity:1" fill="#395acc" d="M 43.5,191.5 C 46.4905,194.792 49.4905,198.126 52.5,201.5C 47.9823,199.562 44.9823,196.229 43.5,191.5 Z"/></g>
<g><path style="opacity:1" fill="#4162c8" d="M 56.5,205.5 C 59.8103,207.482 62.8103,209.815 65.5,212.5C 61.3113,211.639 58.3113,209.306 56.5,205.5 Z"/></g>
<g><path style="opacity:1" fill="#f2f9fd" d="M 46.5,182.5 C 60.9584,203.908 80.9584,217.575 106.5,223.5C 112.936,224.987 119.602,225.654 126.5,225.5C 131.013,225.499 135.347,225.166 139.5,224.5C 146.166,224.582 152.5,223.249 158.5,220.5C 163.642,219.458 168.309,217.458 172.5,214.5C 189.027,205.641 202.36,193.307 212.5,177.5C 214.924,177.192 217.257,177.526 219.5,178.5C 218.237,180.029 217.237,181.695 216.5,183.5C 205.61,200.394 191.277,213.394 173.5,222.5C 167.015,224.659 160.681,226.992 154.5,229.5C 149.304,230.139 144.304,231.139 139.5,232.5C 131.833,232.5 124.167,232.5 116.5,232.5C 97.8305,229.995 80.8305,223.329 65.5,212.5C 62.8103,209.815 59.8103,207.482 56.5,205.5C 55.5,203.833 54.1667,202.5 52.5,201.5C 49.4905,198.126 46.4905,194.792 43.5,191.5C 41.7451,188.32 39.7451,185.32 37.5,182.5C 37.2969,180.956 36.6302,179.622 35.5,178.5C 38.1667,177.167 40.8333,177.167 43.5,178.5C 44.0351,180.261 45.0351,181.594 46.5,182.5 Z"/></g>
<g><path style="opacity:1" fill="#385cce" d="M 172.5,214.5 C 168.309,217.458 163.642,219.458 158.5,220.5C 161.186,218.648 164.186,216.981 167.5,215.5C 169.045,214.548 170.712,214.215 172.5,214.5 Z"/></g>
<g><path style="opacity:1" fill="#3052c5" d="M 106.5,223.5 C 117.484,224.249 128.484,224.583 139.5,224.5C 135.347,225.166 131.013,225.499 126.5,225.5C 119.602,225.654 112.936,224.987 106.5,223.5 Z"/></g>
<g><path style="opacity:1" fill="#2d52d0" d="M 173.5,222.5 C 171.65,225.419 168.984,227.253 165.5,228C 161.83,228.548 158.163,229.048 154.5,229.5C 160.681,226.992 167.015,224.659 173.5,222.5 Z"/></g>
<g><path style="opacity:1" fill="#1d4dc8" d="M 116.5,232.5 C 124.167,232.5 131.833,232.5 139.5,232.5C 139.082,233.222 138.416,233.722 137.5,234C 134.5,234.167 131.5,234.333 128.5,234.5C 124.203,234.722 120.203,234.055 116.5,232.5 Z"/></g>
</svg>
