<?xml version="1.0" encoding="UTF-8"?>
<!DOCTYPE svg PUBLIC "-//W3C//DTD SVG 1.1//EN" "http://www.w3.org/Graphics/SVG/1.1/DTD/svg11.dtd">
<svg xmlns="http://www.w3.org/2000/svg" version="1.1" width="191px" height="191px" style="shape-rendering:geometricPrecision; text-rendering:geometricPrecision; image-rendering:optimizeQuality; fill-rule:evenodd; clip-rule:evenodd" xmlns:xlink="http://www.w3.org/1999/xlink">
<g><path style="opacity:0.964" fill="#fdb145" d="M 81.5,-0.5 C 90.5,-0.5 99.5,-0.5 108.5,-0.5C 117.944,1.11236 126.944,4.11236 135.5,8.5C 134.5,8.83333 133.833,9.5 133.5,10.5C 128.766,18.3901 126.433,27.0568 126.5,36.5C 125.662,36.1583 125.328,35.4916 125.5,34.5C 125.957,30.4161 125.29,26.5828 123.5,23C 120.124,22.6929 118.79,20.8595 119.5,17.5C 116.575,18.094 114.575,19.7607 113.5,22.5C 113.666,16.8236 113.499,11.1569 113,5.5C 110.489,2.70126 107.655,2.0346 104.5,3.5C 103.094,3.97306 102.427,4.97306 102.5,6.5C 102.5,10.5 102.5,14.5 102.5,18.5C 101.026,16.8627 99.1923,15.8627 97,15.5C 72.2025,16.7744 50.2025,25.1077 31,40.5C 29.2722,43.5076 27.6056,46.5076 26,49.5C 24.6482,51.4324 22.8149,52.7657 20.5,53.5C 20.0068,56.4779 18.5068,58.8112 16,60.5C 9.35391,76.6931 7.02058,93.3597 9,110.5C 10.8714,116.447 12.5381,122.447 14,128.5C 17.4574,132.94 20.4574,137.607 23,142.5C 23.3333,143.833 23.6667,145.167 24,146.5C 29.0085,150.343 33.5085,154.676 37.5,159.5C 42.1293,162.957 47.1293,165.79 52.5,168C 53.8333,168.667 53.8333,169.333 52.5,170C 57.5175,170.798 62.1842,172.465 66.5,175C 69.8168,175.498 73.1501,175.665 76.5,175.5C 77.347,176.966 78.6803,177.8 80.5,178C 91.7184,179.223 102.718,178.223 113.5,175C 121.352,171.903 129.019,168.569 136.5,165C 140.088,161.238 144.088,158.072 148.5,155.5C 145.551,158.788 142.551,162.121 139.5,165.5C 134.978,169.113 129.978,172.28 124.5,175C 118.214,177.155 111.88,179.155 105.5,181C 95.8333,181.667 86.1667,181.667 76.5,181C 69.2073,178.816 61.874,176.816 54.5,175C 51.5752,171.764 47.9085,169.764 43.5,169C 40.9759,165.394 37.6426,162.728 33.5,161C 31.7596,158.965 29.9262,157.131 28,155.5C 26.2874,156.137 26.1207,157.137 27.5,158.5C 34.3706,165.389 42.0373,171.055 50.5,175.5C 51.4054,176.702 51.4054,178.036 50.5,179.5C 22.2895,163.946 5.28949,140.279 -0.5,108.5C -0.5,99.5 -0.5,90.5 -0.5,81.5C 9.16667,36.5 36.5,9.16667 81.5,-0.5 Z"/></g>
<g><path style="opacity:1" fill="#d1504c" d="M 104.5,3.5 C 107.655,2.0346 110.489,2.70126 113,5.5C 113.499,11.1569 113.666,16.8236 113.5,22.5C 113.326,24.861 112.993,27.1944 112.5,29.5C 112.167,29.5 111.833,29.5 111.5,29.5C 111.671,26.2027 111.005,25.8694 109.5,28.5C 109.167,27.8333 108.833,27.1667 108.5,26.5C 107.686,18.6102 106.353,10.9436 104.5,3.5 Z"/></g>
<g><path style="opacity:1" fill="#fdbe44" d="M 125.5,34.5 C 124.399,33.1516 123.399,31.6516 122.5,30C 119.959,29.6191 117.626,28.7857 115.5,27.5C 114.261,27.9424 113.261,28.6091 112.5,29.5C 112.993,27.1944 113.326,24.861 113.5,22.5C 114.575,19.7607 116.575,18.094 119.5,17.5C 118.79,20.8595 120.124,22.6929 123.5,23C 125.29,26.5828 125.957,30.4161 125.5,34.5 Z"/></g>
<g><path style="opacity:1" fill="#b0454a" d="M 104.5,3.5 C 106.353,10.9436 107.686,18.6102 108.5,26.5C 108.833,27.1667 109.167,27.8333 109.5,28.5C 111.005,25.8694 111.671,26.2027 111.5,29.5C 111.737,30.791 111.404,31.791 110.5,32.5C 108.265,29.9825 106.765,26.9825 106,23.5C 105.676,17.5231 104.509,11.8564 102.5,6.5C 102.427,4.97306 103.094,3.97306 104.5,3.5 Z"/></g>
<g><path style="opacity:1" fill="#7b3a3c" d="M 102.5,6.5 C 104.509,11.8564 105.676,17.5231 106,23.5C 106.765,26.9825 108.265,29.9825 110.5,32.5C 109.295,33.6857 107.961,33.6857 106.5,32.5C 106.34,30.847 105.674,29.5137 104.5,28.5C 104.212,25.0611 103.546,21.7278 102.5,18.5C 102.5,14.5 102.5,10.5 102.5,6.5 Z"/></g>
<g><path style="opacity:1" fill="#fbce42" d="M 103.5,28.5 C 103.833,28.5 104.167,28.5 104.5,28.5C 105.674,29.5137 106.34,30.847 106.5,32.5C 106.833,33.8333 107.167,35.1667 107.5,36.5C 106.833,36.5 106.5,36.8333 106.5,37.5C 105.549,38.9187 105.216,40.5853 105.5,42.5C 104.917,39.759 103.917,37.0923 102.5,34.5C 98.5705,33.5672 94.5705,33.2338 90.5,33.5C 90.5,34.5 90.5,35.5 90.5,36.5C 88.3702,34.8729 86.3702,33.0396 84.5,31C 82.3258,30.1231 80.6591,30.6231 79.5,32.5C 79.2671,34.0618 78.6005,35.3951 77.5,36.5C 77.1667,36.5 76.8333,36.5 76.5,36.5C 76.1344,35.3054 75.301,34.6387 74,34.5C 71.1512,35.9901 68.4845,37.6568 66,39.5C 64.087,37.8131 61.9203,37.3131 59.5,38C 60.1667,38.6667 60.8333,39.3333 61.5,40C 59.8659,40.4935 58.1992,40.6602 56.5,40.5C 56.5,41.5 56.5,42.5 56.5,43.5C 49.4186,42.7175 48.7519,44.0508 54.5,47.5C 51.3637,46.9791 49.0304,47.9791 47.5,50.5C 45.7329,52.7916 44.7329,55.4582 44.5,58.5C 43.71,59.6085 43.21,60.9419 43,62.5C 42.8305,73.6743 42.3305,84.6743 41.5,95.5C 41.7715,83.4625 41.4382,71.4625 40.5,59.5C 39.5,59.5 38.5,59.5 37.5,59.5C 37.6632,63.2552 35.9966,65.7552 32.5,67C 32.8333,67.3333 33.1667,67.6667 33.5,68C 31.3036,69.2225 29.8036,71.0558 29,73.5C 28.3457,72.3044 27.8457,72.3044 27.5,73.5C 28.4847,75.0983 28.6514,76.765 28,78.5C 24.7322,81.4335 24.2322,84.6001 26.5,88C 24.6063,89.0793 24.273,90.4126 25.5,92C 25.0238,95.3839 23.6905,98.3839 21.5,101C 22.2529,102.487 23.0862,102.654 24,101.5C 24.3742,102.416 24.8742,103.25 25.5,104C 25.3686,106.253 25.0353,108.419 24.5,110.5C 25.624,111.914 26.624,113.414 27.5,115C 27.1667,115.333 26.8333,115.667 26.5,116C 27.8521,119.911 29.8521,123.411 32.5,126.5C 32.5,130.5 32.5,134.5 32.5,138.5C 28.3551,132.799 25.1885,126.465 23,119.5C 21.6667,118.833 20.6667,117.833 20,116.5C 17.9111,104.448 18.0778,92.4482 20.5,80.5C 20.1667,79.8333 19.8333,79.1667 19.5,78.5C 23.7982,74.4627 26.2982,69.4627 27,63.5C 29.7317,60.3839 32.2317,57.0506 34.5,53.5C 36.1727,51.9137 38.1727,51.2471 40.5,51.5C 40.7027,46.9642 43.036,44.2976 47.5,43.5C 47.3505,42.448 47.5172,41.448 48,40.5C 50.0676,38.4385 52.5676,37.2718 55.5,37C 55.1667,36.6667 54.8333,36.3333 54.5,36C 63.8956,32.3419 73.3956,29.1752 83,26.5C 87.352,29.161 91.6853,29.161 96,26.5C 98.3015,27.8672 100.801,28.5339 103.5,28.5 Z"/></g>
<g><path style="opacity:1" fill="#cf494d" d="M 135.5,8.5 C 137.954,9.22713 140.287,10.2271 142.5,11.5C 140.994,19.9916 137.661,27.6582 132.5,34.5C 131.602,33.8423 130.602,33.1757 129.5,32.5C 131.333,28.0026 132.333,23.336 132.5,18.5C 133.21,16.1073 133.877,13.6073 134.5,11C 134.272,10.6012 133.938,10.4346 133.5,10.5C 133.833,9.5 134.5,8.83333 135.5,8.5 Z"/></g>
<g><path style="opacity:1" fill="#a44248" d="M 132.5,18.5 C 132.333,23.336 131.333,28.0026 129.5,32.5C 130.602,33.1757 131.602,33.8423 132.5,34.5C 131.833,35.8333 130.833,36.8333 129.5,37.5C 128.453,30.7873 129.453,24.454 132.5,18.5 Z"/></g>
<g><path style="opacity:1" fill="#823c3e" d="M 133.5,10.5 C 133.938,10.4346 134.272,10.6012 134.5,11C 133.877,13.6073 133.21,16.1073 132.5,18.5C 129.453,24.454 128.453,30.7873 129.5,37.5C 128.833,37.5 128.167,37.5 127.5,37.5C 126.833,37.5 126.5,37.1667 126.5,36.5C 126.433,27.0568 128.766,18.3901 133.5,10.5 Z"/></g>
<g><path style="opacity:0.972" fill="#fdb046" d="M 142.5,11.5 C 169.172,27.5069 185.172,50.8403 190.5,81.5C 190.5,90.5 190.5,99.5 190.5,108.5C 180.833,153.5 153.5,180.833 108.5,190.5C 99.5,190.5 90.5,190.5 81.5,190.5C 70.5524,188.628 60.2191,184.961 50.5,179.5C 51.4054,178.036 51.4054,176.702 50.5,175.5C 57.2668,178.205 64.2668,180.372 71.5,182C 72.5786,182.956 73.7453,183.789 75,184.5C 91.1518,185.5 106.985,183.5 122.5,178.5C 123.086,178.709 123.586,179.043 124,179.5C 130.878,174.996 137.711,170.496 144.5,166C 146.26,165.035 146.594,163.868 145.5,162.5C 143.757,164.038 141.757,165.038 139.5,165.5C 142.551,162.121 145.551,158.788 148.5,155.5C 149.492,155.672 150.158,155.338 150.5,154.5C 154.145,150.023 158.311,146.023 163,142.5C 177.415,116.413 179.082,89.4134 168,61.5C 162.705,57.5555 158.872,52.5555 156.5,46.5C 155.609,47.1098 154.609,47.4431 153.5,47.5C 153.833,46.8333 154.167,46.1667 154.5,45.5C 158.694,43.8169 162.527,41.4836 166,38.5C 167.677,33.3455 165.844,30.3455 160.5,29.5C 158.962,29.4534 157.962,30.1201 157.5,31.5C 152.47,34.6843 147.804,38.351 143.5,42.5C 142.906,38.7387 140.74,36.4054 137,35.5C 134.341,36.217 131.841,37.217 129.5,38.5C 128.584,38.4573 127.917,38.1239 127.5,37.5C 128.167,37.5 128.833,37.5 129.5,37.5C 130.833,36.8333 131.833,35.8333 132.5,34.5C 137.661,27.6582 140.994,19.9916 142.5,11.5 Z"/></g>
<g><path style="opacity:1" fill="#d74a4e" d="M 154.5,45.5 C 152.4,45.4772 150.567,46.1439 149,47.5C 148.5,47.1667 148,46.8333 147.5,46.5C 150.152,42.8483 153.152,39.515 156.5,36.5C 157.117,34.7708 158.117,33.2708 159.5,32C 158.906,31.5357 158.239,31.369 157.5,31.5C 157.962,30.1201 158.962,29.4534 160.5,29.5C 165.844,30.3455 167.677,33.3455 166,38.5C 162.527,41.4836 158.694,43.8169 154.5,45.5 Z"/></g>
<g><path style="opacity:1" fill="#fac844" d="M 125.5,34.5 C 125.328,35.4916 125.662,36.1583 126.5,36.5C 126.5,37.1667 126.833,37.5 127.5,37.5C 127.917,38.1239 128.584,38.4573 129.5,38.5C 131.841,37.217 134.341,36.217 137,35.5C 140.74,36.4054 142.906,38.7387 143.5,42.5C 142.075,43.922 141.075,45.5887 140.5,47.5C 139.728,48.6935 138.728,49.6935 137.5,50.5C 135.585,50.2155 133.919,50.5489 132.5,51.5C 130.787,52.6354 130.12,54.302 130.5,56.5C 129.749,53.754 128.749,51.0873 127.5,48.5C 127.5,48.1667 127.5,47.8333 127.5,47.5C 128.993,46.6879 129.66,45.3545 129.5,43.5C 129.167,42.5 128.833,41.5 128.5,40.5C 126.357,39.2463 124.357,39.2463 122.5,40.5C 121.539,42.2646 121.205,44.2646 121.5,46.5C 121.009,43.8797 119.842,41.5463 118,39.5C 117.333,40.8333 116.667,40.8333 116,39.5C 115.392,41.0664 114.558,42.3998 113.5,43.5C 113.5,42.8333 113.5,42.1667 113.5,41.5C 113.938,37.0917 111.938,35.4251 107.5,36.5C 107.167,35.1667 106.833,33.8333 106.5,32.5C 107.961,33.6857 109.295,33.6857 110.5,32.5C 111.404,31.791 111.737,30.791 111.5,29.5C 111.833,29.5 112.167,29.5 112.5,29.5C 113.261,28.6091 114.261,27.9424 115.5,27.5C 117.626,28.7857 119.959,29.6191 122.5,30C 123.399,31.6516 124.399,33.1516 125.5,34.5 Z"/></g>
<g><path style="opacity:1" fill="#d74e53" d="M 107.5,36.5 C 111.938,35.4251 113.938,37.0917 113.5,41.5C 111.473,41.6621 109.473,41.4955 107.5,41C 106.663,39.9887 106.33,38.8221 106.5,37.5C 106.5,36.8333 106.833,36.5 107.5,36.5 Z"/></g>
<g><path style="opacity:1" fill="#ac5e48" d="M 79.5,32.5 C 80.2389,32.369 80.9056,32.5357 81.5,33C 82.0322,35.4632 83.3655,37.2965 85.5,38.5C 85.1936,41.3854 85.5269,44.0521 86.5,46.5C 86.0431,50.5839 86.7098,54.4172 88.5,58C 89.7932,58.49 91.1266,58.6567 92.5,58.5C 91.5169,59.8503 90.1836,60.8503 88.5,61.5C 84.2172,62.4922 79.8839,62.8256 75.5,62.5C 75.5,62.1667 75.5,61.8333 75.5,61.5C 75.5,58.5 75.5,55.5 75.5,52.5C 75.8333,52.5 76.1667,52.5 76.5,52.5C 76.5,55.5 76.5,58.5 76.5,61.5C 77.8333,61.5 79.1667,61.5 80.5,61.5C 79.3859,54.0462 78.3859,46.7128 77.5,39.5C 77.5,38.5 77.5,37.5 77.5,36.5C 78.6005,35.3951 79.2671,34.0618 79.5,32.5 Z"/></g>
<g><path style="opacity:1" fill="#fdd944" d="M 76.5,36.5 C 75.6576,41.787 75.3243,47.1203 75.5,52.5C 75.5,55.5 75.5,58.5 75.5,61.5C 73.6951,62.9094 71.6951,63.4094 69.5,63C 65.6404,56.6418 60.6404,51.4752 54.5,47.5C 48.7519,44.0508 49.4186,42.7175 56.5,43.5C 56.5,42.5 56.5,41.5 56.5,40.5C 58.1992,40.6602 59.8659,40.4935 61.5,40C 60.8333,39.3333 60.1667,38.6667 59.5,38C 61.9203,37.3131 64.087,37.8131 66,39.5C 68.4845,37.6568 71.1512,35.9901 74,34.5C 75.301,34.6387 76.1344,35.3054 76.5,36.5 Z"/></g>
<g><path style="opacity:1" fill="#f6a85b" d="M 90.5,36.5 C 94.3747,41.3665 97.3747,46.6998 99.5,52.5C 102.689,53.1661 106.023,53.8328 109.5,54.5C 112.178,56.1844 114.845,57.8511 117.5,59.5C 118.004,63.1778 117.004,63.3445 114.5,60C 110.406,59.2327 106.406,59.566 102.5,61C 105.579,61.9728 108.579,62.8061 111.5,63.5C 109.167,63.5 106.833,63.5 104.5,63.5C 103.761,63.631 103.094,63.4643 102.5,63C 100.636,60.3123 98.636,57.8123 96.5,55.5C 96.5,55.1667 96.5,54.8333 96.5,54.5C 94.0601,48.4942 91.0601,42.8275 87.5,37.5C 86.8165,37.8627 86.1499,38.1961 85.5,38.5C 83.3655,37.2965 82.0322,35.4632 81.5,33C 80.9056,32.5357 80.2389,32.369 79.5,32.5C 80.6591,30.6231 82.3258,30.1231 84.5,31C 86.3702,33.0396 88.3702,34.8729 90.5,36.5 Z"/></g>
<g><path style="opacity:1" fill="#8f4844" d="M 106.5,37.5 C 106.33,38.8221 106.663,39.9887 107.5,41C 109.473,41.4955 111.473,41.6621 113.5,41.5C 113.5,42.1667 113.5,42.8333 113.5,43.5C 112.033,43.8938 110.533,44.2272 109,44.5C 107.301,44.6134 106.134,43.9468 105.5,42.5C 105.216,40.5853 105.549,38.9187 106.5,37.5 Z"/></g>
<g><path style="opacity:1" fill="#fdda43" d="M 105.5,42.5 C 106.134,43.9468 107.301,44.6134 109,44.5C 110.533,44.2272 112.033,43.8938 113.5,43.5C 114.558,42.3998 115.392,41.0664 116,39.5C 116.667,40.8333 117.333,40.8333 118,39.5C 119.842,41.5463 121.009,43.8797 121.5,46.5C 123.142,48.0808 125.142,48.7475 127.5,48.5C 128.749,51.0873 129.749,53.754 130.5,56.5C 131.627,57.1217 132.627,57.955 133.5,59C 134.749,59.7401 135.749,59.5735 136.5,58.5C 137.5,57.8333 138.5,57.1667 139.5,56.5C 139.833,56.5 140.167,56.5 140.5,56.5C 142.229,57.1175 143.729,58.1175 145,59.5C 147.726,64.6924 149.559,69.8591 150.5,75C 151.872,75.6309 153.205,76.2975 154.5,77C 154.255,79.7552 154.255,82.4218 154.5,85C 154.759,86.2613 155.426,87.2613 156.5,88C 156.5,90 156.5,92 156.5,94C 157.167,94.3333 157.833,94.6667 158.5,95C 157.833,98.3333 157.167,101.667 156.5,105C 156.957,105.414 157.291,105.914 157.5,106.5C 155.022,110.213 153.689,114.047 153.5,118C 153.905,118.945 154.572,119.612 155.5,120C 151.854,121.982 148.854,124.649 146.5,128C 147.784,128.684 148.951,128.517 150,127.5C 150.456,128.744 149.956,129.577 148.5,130C 149.34,131.666 148.84,131.833 147,130.5C 145.398,132.263 144.898,134.096 145.5,136C 144.551,136.617 143.718,136.451 143,135.5C 141.885,137 141.052,138.667 140.5,140.5C 137.848,141.653 135.848,143.487 134.5,146C 133.207,146.49 131.873,146.657 130.5,146.5C 130.5,147.5 130.5,148.5 130.5,149.5C 127.042,149.369 125.042,150.536 124.5,153C 120.749,154.188 117.416,155.355 114.5,156.5C 113.833,156.167 113.167,155.833 112.5,155.5C 114.278,153.736 115.611,151.736 116.5,149.5C 119.167,144.833 121.833,140.167 124.5,135.5C 127.317,134.905 129.65,133.572 131.5,131.5C 132.5,131.167 133.167,130.5 133.5,129.5C 135.167,127.5 136.833,125.5 138.5,123.5C 140.074,121.898 140.741,119.898 140.5,117.5C 140.216,115.585 140.549,113.919 141.5,112.5C 142.65,107.684 142.816,102.684 142,97.5C 141.722,96.5842 141.222,95.9175 140.5,95.5C 140.167,94.8333 139.833,94.1667 139.5,93.5C 139.5,92.5 139.5,91.5 139.5,90.5C 139.703,88.9557 140.37,87.6223 141.5,86.5C 140.687,85.1861 139.687,84.0195 138.5,83C 139.174,81.2494 139.507,79.5827 139.5,78C 138.333,77.5 137.5,76.6667 137,75.5C 137.551,70.9012 135.718,67.7345 131.5,66C 127.353,64.7619 123.686,62.7619 120.5,60C 121.731,58.8173 121.731,57.6507 120.5,56.5C 118.253,55.6258 115.92,55.2924 113.5,55.5C 113.5,54.5 113.5,53.5 113.5,52.5C 108.833,52.5 104.167,52.5 99.5,52.5C 97.3747,46.6998 94.3747,41.3665 90.5,36.5C 90.5,35.5 90.5,34.5 90.5,33.5C 94.5705,33.2338 98.5705,33.5672 102.5,34.5C 103.917,37.0923 104.917,39.759 105.5,42.5 Z"/></g>
<g><path style="opacity:1" fill="#803a3e" d="M 157.5,31.5 C 158.239,31.369 158.906,31.5357 159.5,32C 158.117,33.2708 157.117,34.7708 156.5,36.5C 149.018,38.979 144.351,43.979 142.5,51.5C 140.824,50.8166 140.157,49.4832 140.5,47.5C 141.075,45.5887 142.075,43.922 143.5,42.5C 147.804,38.351 152.47,34.6843 157.5,31.5 Z"/></g>
<g><path style="opacity:1" fill="#904a42" d="M 122.5,40.5 C 123.302,41.9516 123.802,43.6183 124,45.5C 125.302,46.0848 126.469,46.7515 127.5,47.5C 127.5,47.8333 127.5,48.1667 127.5,48.5C 125.142,48.7475 123.142,48.0808 121.5,46.5C 121.205,44.2646 121.539,42.2646 122.5,40.5 Z"/></g>
<g><path style="opacity:1" fill="#f7c4ad" d="M 96.5,54.5 C 94.2362,53.7814 91.9029,53.448 89.5,53.5C 90.0922,50.3695 89.0922,48.0361 86.5,46.5C 85.5269,44.0521 85.1936,41.3854 85.5,38.5C 86.1499,38.1961 86.8165,37.8627 87.5,37.5C 91.0601,42.8275 94.0601,48.4942 96.5,54.5 Z"/></g>
<g><path style="opacity:1" fill="#cc534d" d="M 122.5,40.5 C 124.357,39.2463 126.357,39.2463 128.5,40.5C 128.833,41.5 129.167,42.5 129.5,43.5C 129.66,45.3545 128.993,46.6879 127.5,47.5C 126.469,46.7515 125.302,46.0848 124,45.5C 123.802,43.6183 123.302,41.9516 122.5,40.5 Z"/></g>
<g><path style="opacity:1" fill="#b44749" d="M 156.5,36.5 C 153.152,39.515 150.152,42.8483 147.5,46.5C 148,46.8333 148.5,47.1667 149,47.5C 150.567,46.1439 152.4,45.4772 154.5,45.5C 154.167,46.1667 153.833,46.8333 153.5,47.5C 149.942,49.1117 146.275,50.445 142.5,51.5C 144.351,43.979 149.018,38.979 156.5,36.5 Z"/></g>
<g><path style="opacity:1" fill="#be973f" d="M 76.5,36.5 C 76.8333,36.5 77.1667,36.5 77.5,36.5C 77.5,37.5 77.5,38.5 77.5,39.5C 76.564,43.7352 76.2307,48.0685 76.5,52.5C 76.1667,52.5 75.8333,52.5 75.5,52.5C 75.3243,47.1203 75.6576,41.787 76.5,36.5 Z"/></g>
<g><path style="opacity:1" fill="#6c4331" d="M 77.5,39.5 C 78.3859,46.7128 79.3859,54.0462 80.5,61.5C 79.1667,61.5 77.8333,61.5 76.5,61.5C 76.5,58.5 76.5,55.5 76.5,52.5C 76.2307,48.0685 76.564,43.7352 77.5,39.5 Z"/></g>
<g><path style="opacity:1" fill="#e7ad9b" d="M 86.5,46.5 C 89.0922,48.0361 90.0922,50.3695 89.5,53.5C 91.9029,53.448 94.2362,53.7814 96.5,54.5C 96.5,54.8333 96.5,55.1667 96.5,55.5C 96.4431,56.609 96.1098,57.609 95.5,58.5C 94.5,58.5 93.5,58.5 92.5,58.5C 91.1266,58.6567 89.7932,58.49 88.5,58C 86.7098,54.4172 86.0431,50.5839 86.5,46.5 Z"/></g>
<g><path style="opacity:1" fill="#fdd142" d="M 145.5,52.5 C 146.801,53.8816 147.634,55.5483 148,57.5C 149.586,58.376 151.086,59.376 152.5,60.5C 153.747,62.0421 153.747,63.5421 152.5,65C 153.416,65.3742 154.25,65.8742 155,66.5C 155.691,71.6622 157.858,75.9955 161.5,79.5C 160.96,80.7481 160.293,81.9148 159.5,83C 161.204,86.4817 162.537,90.1484 163.5,94C 162.833,94.3333 162.167,94.6667 161.5,95C 162.624,95.2492 163.624,95.7492 164.5,96.5C 163.273,97.5904 162.44,98.9238 162,100.5C 161.744,103.557 161.244,106.557 160.5,109.5C 160.977,110.478 161.643,111.311 162.5,112C 160.765,115.467 158.765,118.8 156.5,122C 158.821,124.405 158.155,126.072 154.5,127C 154.833,127.333 155.167,127.667 155.5,128C 151.595,132.107 149.095,136.941 148,142.5C 144.258,145.724 140.092,148.391 135.5,150.5C 134.05,151.85 133.383,153.516 133.5,155.5C 129.188,156.986 124.855,158.486 120.5,160C 119.5,161 118.5,162 117.5,163C 113.466,163.567 109.633,164.734 106,166.5C 103.453,166.238 100.953,165.738 98.5,165C 97.4019,164.23 97.4019,163.397 98.5,162.5C 99.1667,161.5 99.8333,160.5 100.5,159.5C 102.288,158.64 103.955,157.64 105.5,156.5C 105.833,156.5 106.167,156.5 106.5,156.5C 109.198,156.155 111.198,154.822 112.5,152.5C 113.5,152.167 114.167,151.5 114.5,150.5C 115.167,150.167 115.833,149.833 116.5,149.5C 115.611,151.736 114.278,153.736 112.5,155.5C 113.167,155.833 113.833,156.167 114.5,156.5C 117.416,155.355 120.749,154.188 124.5,153C 125.042,150.536 127.042,149.369 130.5,149.5C 130.5,148.5 130.5,147.5 130.5,146.5C 131.873,146.657 133.207,146.49 134.5,146C 135.848,143.487 137.848,141.653 140.5,140.5C 141.052,138.667 141.885,137 143,135.5C 143.718,136.451 144.551,136.617 145.5,136C 144.898,134.096 145.398,132.263 147,130.5C 148.84,131.833 149.34,131.666 148.5,130C 149.956,129.577 150.456,128.744 150,127.5C 148.951,128.517 147.784,128.684 146.5,128C 148.854,124.649 151.854,121.982 155.5,120C 154.572,119.612 153.905,118.945 153.5,118C 153.689,114.047 155.022,110.213 157.5,106.5C 157.291,105.914 156.957,105.414 156.5,105C 157.167,101.667 157.833,98.3333 158.5,95C 157.833,94.6667 157.167,94.3333 156.5,94C 156.5,92 156.5,90 156.5,88C 155.426,87.2613 154.759,86.2613 154.5,85C 154.255,82.4218 154.255,79.7552 154.5,77C 153.205,76.2975 151.872,75.6309 150.5,75C 149.559,69.8591 147.726,64.6924 145,59.5C 143.729,58.1175 142.229,57.1175 140.5,56.5C 140.5,55.1667 140.5,53.8333 140.5,52.5C 142.167,52.5 143.833,52.5 145.5,52.5 Z"/></g>
<g><path style="opacity:1" fill="#ce5052" d="M 132.5,51.5 C 133.919,50.5489 135.585,50.2155 137.5,50.5C 139.081,52.1417 139.747,54.1417 139.5,56.5C 138.5,57.1667 137.5,57.8333 136.5,58.5C 135.504,58.5858 134.671,58.2524 134,57.5C 133.809,55.2922 133.309,53.2922 132.5,51.5 Z"/></g>
<g><path style="opacity:1" fill="#8a4540" d="M 132.5,51.5 C 133.309,53.2922 133.809,55.2922 134,57.5C 134.671,58.2524 135.504,58.5858 136.5,58.5C 135.749,59.5735 134.749,59.7401 133.5,59C 132.627,57.955 131.627,57.1217 130.5,56.5C 130.12,54.302 130.787,52.6354 132.5,51.5 Z"/></g>
<g><path style="opacity:1" fill="#a16046" d="M 47.5,50.5 C 50.1081,52.1027 52.4414,54.1027 54.5,56.5C 53.8333,56.5 53.5,56.8333 53.5,57.5C 51.9328,58.6808 51.0995,60.3474 51,62.5C 50.5026,65.146 50.3359,67.8127 50.5,70.5C 49.5,70.5 48.5,70.5 47.5,70.5C 47.7947,68.2646 47.4614,66.2646 46.5,64.5C 46.9746,61.9179 46.3079,59.9179 44.5,58.5C 44.7329,55.4582 45.7329,52.7916 47.5,50.5 Z"/></g>
<g><path style="opacity:1" fill="#f6a251" d="M 54.5,47.5 C 60.6404,51.4752 65.6404,56.6418 69.5,63C 71.6951,63.4094 73.6951,62.9094 75.5,61.5C 75.5,61.8333 75.5,62.1667 75.5,62.5C 75.5,62.8333 75.5,63.1667 75.5,63.5C 74.791,64.404 73.791,64.7373 72.5,64.5C 72.7731,67.1369 73.1064,69.4702 73.5,71.5C 76.4281,72.4841 79.4281,72.8174 82.5,72.5C 80.3926,73.4682 78.0593,73.8016 75.5,73.5C 74.448,73.6495 73.448,73.4828 72.5,73C 69.9315,69.108 66.9315,65.608 63.5,62.5C 63.573,60.9731 62.9063,59.9731 61.5,59.5C 60.2377,56.0361 57.9044,55.0361 54.5,56.5C 52.4414,54.1027 50.1081,52.1027 47.5,50.5C 49.0304,47.9791 51.3637,46.9791 54.5,47.5 Z"/></g>
<g><path style="opacity:1" fill="#fdc143" d="M 156.5,46.5 C 156.34,48.1992 156.506,49.8659 157,51.5C 160.56,56.063 163.727,60.8963 166.5,66C 166.043,66.414 165.709,66.914 165.5,67.5C 169.621,74.5999 171.788,82.2666 172,90.5C 172.5,91 173,91.5 173.5,92C 172.368,94.937 172.368,97.937 173.5,101C 172.253,106.819 171.087,112.652 170,118.5C 166.906,123.765 164.573,129.431 163,135.5C 159.722,140.942 155.889,145.942 151.5,150.5C 150.754,151.736 150.421,153.07 150.5,154.5C 150.158,155.338 149.492,155.672 148.5,155.5C 144.088,158.072 140.088,161.238 136.5,165C 129.019,168.569 121.352,171.903 113.5,175C 102.718,178.223 91.7184,179.223 80.5,178C 78.6803,177.8 77.347,176.966 76.5,175.5C 78.4888,174.113 80.3221,174.447 82,176.5C 82.3076,175.692 82.8076,175.025 83.5,174.5C 84.8333,175.833 86.1667,175.833 87.5,174.5C 91.2075,175.473 94.7075,176.14 98,176.5C 101.062,175.716 103.562,174.049 105.5,171.5C 109.108,172.593 112.775,172.76 116.5,172C 116.167,171.667 115.833,171.333 115.5,171C 118.185,170.496 120.519,169.33 122.5,167.5C 124.432,168.52 126.432,168.687 128.5,168C 126.071,167.549 125.904,166.715 128,165.5C 128.333,165.833 128.667,166.167 129,166.5C 134.979,161.701 141.146,157.034 147.5,152.5C 150.442,148.914 153.109,145.247 155.5,141.5C 155.156,138.926 155.656,136.259 157,133.5C 159.882,128.342 162.715,123.175 165.5,118C 162.79,115.649 163.123,113.649 166.5,112C 166.043,111.586 165.709,111.086 165.5,110.5C 168.167,107.833 168.167,105.167 165.5,102.5C 166.311,101.784 166.978,100.95 167.5,100C 165.78,97.1611 166.446,95.1611 169.5,94C 168.272,93.221 167.272,92.221 166.5,91C 165.761,86.8726 165.261,82.706 165,78.5C 164.56,76.9238 163.727,75.5904 162.5,74.5C 162.709,73.914 163.043,73.414 163.5,73C 162.333,71.8333 161.167,70.6667 160,69.5C 158.761,64.8049 157.428,60.4716 156,56.5C 154.927,57.2797 153.76,57.113 152.5,56C 151.958,53.7452 150.791,51.9119 149,50.5C 148.29,51.9733 147.124,52.6399 145.5,52.5C 143.833,52.5 142.167,52.5 140.5,52.5C 140.5,53.8333 140.5,55.1667 140.5,56.5C 140.167,56.5 139.833,56.5 139.5,56.5C 139.747,54.1417 139.081,52.1417 137.5,50.5C 138.728,49.6935 139.728,48.6935 140.5,47.5C 140.157,49.4832 140.824,50.8166 142.5,51.5C 146.275,50.445 149.942,49.1117 153.5,47.5C 154.609,47.4431 155.609,47.1098 156.5,46.5 Z"/></g>
<g><path style="opacity:1" fill="#f9a752" d="M 117.5,59.5 C 127.588,68.0562 134.921,78.3895 139.5,90.5C 139.5,91.5 139.5,92.5 139.5,93.5C 136.754,91.8736 133.754,91.2069 130.5,91.5C 132.292,90.6909 134.292,90.1909 136.5,90C 134.776,83.4969 130.943,78.6636 125,75.5C 124.667,74.5 124.333,73.5 124,72.5C 123.768,73.7375 123.268,74.7375 122.5,75.5C 122.813,72.1626 121.48,69.8293 118.5,68.5C 117.737,67.7321 116.737,67.2321 115.5,67C 116.833,66.3333 116.833,65.6667 115.5,65C 114.255,64.2086 112.922,63.7086 111.5,63.5C 108.579,62.8061 105.579,61.9728 102.5,61C 106.406,59.566 110.406,59.2327 114.5,60C 117.004,63.3445 118.004,63.1778 117.5,59.5 Z"/></g>
<g><path style="opacity:1" fill="#fcc243" d="M 102.5,18.5 C 103.546,21.7278 104.212,25.0611 104.5,28.5C 104.167,28.5 103.833,28.5 103.5,28.5C 102.59,25.5894 100.59,23.5894 97.5,22.5C 96.8076,23.0253 96.3076,23.6919 96,24.5C 95.2613,23.4258 94.2613,22.7591 93,22.5C 91.5319,23.6278 89.8652,24.2945 88,24.5C 85.9115,23.5547 83.9115,23.5547 82,24.5C 80.6667,23.8333 79.3333,23.1667 78,22.5C 75.6624,23.8403 73.329,25.1736 71,26.5C 68.5398,25.7222 66.0398,25.8888 63.5,27C 64.3402,28.6665 63.8402,28.8331 62,27.5C 56.5299,30.1089 51.3632,33.2756 46.5,37C 44.8659,37.4935 43.1992,37.6602 41.5,37.5C 41.6399,39.1238 40.9733,40.2904 39.5,41C 39.9574,41.414 40.2907,41.914 40.5,42.5C 37.5419,43.9263 34.8753,45.7596 32.5,48C 32.8333,48.3333 33.1667,48.6667 33.5,49C 31.1829,50.3198 29.1829,51.9864 27.5,54C 27.9574,54.414 28.2907,54.914 28.5,55.5C 27.1369,56.8928 26.3036,58.5595 26,60.5C 25.6121,59.572 24.9454,58.9054 24,58.5C 22.7263,59.5353 21.5596,60.702 20.5,62C 20.8608,66.5435 20.0275,71.0435 18,75.5C 17.0975,76.7014 15.9308,77.5348 14.5,78C 16.7151,79.3907 16.7151,81.0574 14.5,83C 15.265,85.8365 14.9317,88.6698 13.5,91.5C 14.0636,94.7814 14.0636,98.1147 13.5,101.5C 12.448,101.351 11.448,101.517 10.5,102C 11.938,102.219 13.2713,102.719 14.5,103.5C 14.1092,106.063 13.7759,108.563 13.5,111C 13.7029,113.406 14.7029,115.406 16.5,117C 16.3349,118.117 16.0016,119.284 15.5,120.5C 16.0983,121.795 16.5983,123.128 17,124.5C 20.7903,129.12 23.957,134.12 26.5,139.5C 28.3198,140.883 30.3198,141.883 32.5,142.5C 31.9807,146.314 33.6473,148.314 37.5,148.5C 40.1193,151.148 43.1193,153.314 46.5,155C 52.1723,155.484 57.1723,157.317 61.5,160.5C 63.7886,162.387 66.4553,163.721 69.5,164.5C 75.4564,167.336 81.7897,168.169 88.5,167C 91.0639,165.604 93.7305,164.437 96.5,163.5C 95.4125,165 94.0792,166.333 92.5,167.5C 94.3845,168.197 94.7178,169.197 93.5,170.5C 93.8076,171.308 94.3076,171.975 95,172.5C 98.6798,172.024 102.18,171.024 105.5,169.5C 106.446,169.987 107.446,170.32 108.5,170.5C 115.484,166.385 122.984,163.385 131,161.5C 132.997,159.267 135.497,157.767 138.5,157C 137.833,156.667 137.167,156.333 136.5,156C 137.938,155.781 139.271,155.281 140.5,154.5C 140.291,153.914 139.957,153.414 139.5,153C 140.872,152.598 142.205,152.098 143.5,151.5C 146.294,148.633 148.961,145.633 151.5,142.5C 152.689,141.571 154.022,141.238 155.5,141.5C 153.109,145.247 150.442,148.914 147.5,152.5C 141.146,157.034 134.979,161.701 129,166.5C 128.667,166.167 128.333,165.833 128,165.5C 125.904,166.715 126.071,167.549 128.5,168C 126.432,168.687 124.432,168.52 122.5,167.5C 120.519,169.33 118.185,170.496 115.5,171C 115.833,171.333 116.167,171.667 116.5,172C 112.775,172.76 109.108,172.593 105.5,171.5C 103.562,174.049 101.062,175.716 98,176.5C 94.7075,176.14 91.2075,175.473 87.5,174.5C 86.1667,175.833 84.8333,175.833 83.5,174.5C 82.8076,175.025 82.3076,175.692 82,176.5C 80.3221,174.447 78.4888,174.113 76.5,175.5C 73.1501,175.665 69.8168,175.498 66.5,175C 62.1842,172.465 57.5175,170.798 52.5,170C 53.8333,169.333 53.8333,168.667 52.5,168C 47.1293,165.79 42.1293,162.957 37.5,159.5C 33.5085,154.676 29.0085,150.343 24,146.5C 23.6667,145.167 23.3333,143.833 23,142.5C 20.4574,137.607 17.4574,132.94 14,128.5C 12.5381,122.447 10.8714,116.447 9,110.5C 7.02058,93.3597 9.35391,76.6931 16,60.5C 18.5068,58.8112 20.0068,56.4779 20.5,53.5C 22.8149,52.7657 24.6482,51.4324 26,49.5C 27.6056,46.5076 29.2722,43.5076 31,40.5C 50.2025,25.1077 72.2025,16.7744 97,15.5C 99.1923,15.8627 101.026,16.8627 102.5,18.5 Z"/></g>
<g><path style="opacity:1" fill="#f9d3bd" d="M 61.5,59.5 C 62.9063,59.9731 63.573,60.9731 63.5,62.5C 63.7329,64.0618 64.3995,65.3951 65.5,66.5C 60.7404,67.1356 57.7404,64.8023 56.5,59.5C 56.8333,58.8333 57.1667,58.1667 57.5,57.5C 58.8599,58.1799 60.1932,58.8466 61.5,59.5 Z"/></g>
<g><path style="opacity:1" fill="#fbbb81" d="M 96.5,55.5 C 98.636,57.8123 100.636,60.3123 102.5,63C 103.094,63.4643 103.761,63.631 104.5,63.5C 107.028,64.1657 109.694,64.8324 112.5,65.5C 111.624,66.2508 110.624,66.7508 109.5,67C 105.432,67.3004 101.432,66.8004 97.5,65.5C 96.9495,63.3432 96.2829,61.3432 95.5,59.5C 95.5,59.1667 95.5,58.8333 95.5,58.5C 96.1098,57.609 96.4431,56.609 96.5,55.5 Z"/></g>
<g><path style="opacity:1" fill="#e1824a" d="M 92.5,58.5 C 93.5,58.5 94.5,58.5 95.5,58.5C 95.5,58.8333 95.5,59.1667 95.5,59.5C 93.8356,60.9488 93.0023,62.9488 93,65.5C 89.6621,66.3484 86.3288,66.015 83,64.5C 80.1333,66.133 77.6333,65.7997 75.5,63.5C 75.5,63.1667 75.5,62.8333 75.5,62.5C 79.8839,62.8256 84.2172,62.4922 88.5,61.5C 90.1836,60.8503 91.5169,59.8503 92.5,58.5 Z"/></g>
<g><path style="opacity:1" fill="#f8aa6a" d="M 95.5,59.5 C 96.2829,61.3432 96.9495,63.3432 97.5,65.5C 101.432,66.8004 105.432,67.3004 109.5,67C 110.624,66.7508 111.624,66.2508 112.5,65.5C 109.694,64.8324 107.028,64.1657 104.5,63.5C 106.833,63.5 109.167,63.5 111.5,63.5C 112.922,63.7086 114.255,64.2086 115.5,65C 116.833,65.6667 116.833,66.3333 115.5,67C 116.737,67.2321 117.737,67.7321 118.5,68.5C 115.058,67.8283 112.391,68.8283 110.5,71.5C 109.596,70.791 109.263,69.791 109.5,68.5C 106.15,68.335 102.817,68.5017 99.5,69C 95.8819,70.9554 92.5486,73.2888 89.5,76C 86.5219,76.696 83.5219,77.196 80.5,77.5C 80.9528,76.5416 81.6195,75.7083 82.5,75C 79.9644,74.8138 77.631,74.3138 75.5,73.5C 78.0593,73.8016 80.3926,73.4682 82.5,72.5C 91.2865,72.3809 95.6198,68.0476 95.5,59.5 Z"/></g>
<g><path style="opacity:1" fill="#fdb545" d="M 156.5,46.5 C 158.872,52.5555 162.705,57.5555 168,61.5C 179.082,89.4134 177.415,116.413 163,142.5C 158.311,146.023 154.145,150.023 150.5,154.5C 150.421,153.07 150.754,151.736 151.5,150.5C 155.889,145.942 159.722,140.942 163,135.5C 164.573,129.431 166.906,123.765 170,118.5C 171.087,112.652 172.253,106.819 173.5,101C 172.368,97.937 172.368,94.937 173.5,92C 173,91.5 172.5,91 172,90.5C 171.788,82.2666 169.621,74.5999 165.5,67.5C 165.709,66.914 166.043,66.414 166.5,66C 163.727,60.8963 160.56,56.063 157,51.5C 156.506,49.8659 156.34,48.1992 156.5,46.5 Z"/></g>
<g><path style="opacity:1" fill="#f3944b" d="M 95.5,59.5 C 95.6198,68.0476 91.2865,72.3809 82.5,72.5C 79.4281,72.8174 76.4281,72.4841 73.5,71.5C 73.1064,69.4702 72.7731,67.1369 72.5,64.5C 73.791,64.7373 74.791,64.404 75.5,63.5C 77.6333,65.7997 80.1333,66.133 83,64.5C 86.3288,66.015 89.6621,66.3484 93,65.5C 93.0023,62.9488 93.8356,60.9488 95.5,59.5 Z"/></g>
<g><path style="opacity:1" fill="#905842" d="M 53.5,57.5 C 53.3878,64.2686 54.0545,70.9353 55.5,77.5C 58.7188,77.0935 61.7188,77.0935 64.5,77.5C 63.8333,77.8333 63.1667,78.1667 62.5,78.5C 61.2502,78.5774 60.4169,79.244 60,80.5C 59.5065,82.1341 59.3398,83.8008 59.5,85.5C 57.1447,86.0944 54.978,87.0944 53,88.5C 51.2475,87.7137 49.4142,87.8804 47.5,89C 47.0257,90.7286 46.0257,91.8953 44.5,92.5C 47.4836,84.6968 48.1503,76.6968 46.5,68.5C 46.5,67.1667 46.5,65.8333 46.5,64.5C 47.4614,66.2646 47.7947,68.2646 47.5,70.5C 48.5,70.5 49.5,70.5 50.5,70.5C 50.3359,67.8127 50.5026,65.146 51,62.5C 51.0995,60.3474 51.9328,58.6808 53.5,57.5 Z"/></g>
<g><path style="opacity:1" fill="#f5baa7" d="M 61.5,59.5 C 60.1932,58.8466 58.8599,58.1799 57.5,57.5C 57.1667,58.1667 56.8333,58.8333 56.5,59.5C 57.7404,64.8023 60.7404,67.1356 65.5,66.5C 67.2451,68.0326 68.2451,70.0326 68.5,72.5C 64.8333,72.5 61.1667,72.5 57.5,72.5C 56.4953,67.1569 55.4953,61.8236 54.5,56.5C 57.9044,55.0361 60.2377,56.0361 61.5,59.5 Z"/></g>
<g><path style="opacity:1" fill="#efdddd" d="M 118.5,68.5 C 121.48,69.8293 122.813,72.1626 122.5,75.5C 121.833,75.8333 121.167,76.1667 120.5,76.5C 116.116,77.4245 112.782,76.0912 110.5,72.5C 110.5,72.1667 110.5,71.8333 110.5,71.5C 112.391,68.8283 115.058,67.8283 118.5,68.5 Z"/></g>
<g><path style="opacity:1" fill="#fcd942" d="M 41.5,95.5 C 39.8734,100.42 38.54,105.42 37.5,110.5C 36.0762,112.515 35.4095,114.848 35.5,117.5C 33.8819,120.171 33.2153,123.171 33.5,126.5C 33.1667,126.5 32.8333,126.5 32.5,126.5C 29.8521,123.411 27.8521,119.911 26.5,116C 26.8333,115.667 27.1667,115.333 27.5,115C 26.624,113.414 25.624,111.914 24.5,110.5C 25.0353,108.419 25.3686,106.253 25.5,104C 24.8742,103.25 24.3742,102.416 24,101.5C 23.0862,102.654 22.2529,102.487 21.5,101C 23.6905,98.3839 25.0238,95.3839 25.5,92C 24.273,90.4126 24.6063,89.0793 26.5,88C 24.2322,84.6001 24.7322,81.4335 28,78.5C 28.6514,76.765 28.4847,75.0983 27.5,73.5C 27.8457,72.3044 28.3457,72.3044 29,73.5C 29.8036,71.0558 31.3036,69.2225 33.5,68C 33.1667,67.6667 32.8333,67.3333 32.5,67C 35.9966,65.7552 37.6632,63.2552 37.5,59.5C 38.5,59.5 39.5,59.5 40.5,59.5C 41.4382,71.4625 41.7715,83.4625 41.5,95.5 Z"/></g>
<g><path style="opacity:1" fill="#d89f8d" d="M 54.5,56.5 C 55.4953,61.8236 56.4953,67.1569 57.5,72.5C 61.1667,72.5 64.8333,72.5 68.5,72.5C 68.5,72.8333 68.5,73.1667 68.5,73.5C 68.1667,74.5 67.5,75.1667 66.5,75.5C 65.8333,76.1667 65.1667,76.8333 64.5,77.5C 61.7188,77.0935 58.7188,77.0935 55.5,77.5C 54.0545,70.9353 53.3878,64.2686 53.5,57.5C 53.5,56.8333 53.8333,56.5 54.5,56.5 Z"/></g>
<g><path style="opacity:1" fill="#f9ca9e" d="M 63.5,62.5 C 66.9315,65.608 69.9315,69.108 72.5,73C 73.448,73.4828 74.448,73.6495 75.5,73.5C 77.631,74.3138 79.9644,74.8138 82.5,75C 81.6195,75.7083 80.9528,76.5416 80.5,77.5C 75.8311,77.9438 71.8311,76.6105 68.5,73.5C 68.5,73.1667 68.5,72.8333 68.5,72.5C 68.2451,70.0326 67.2451,68.0326 65.5,66.5C 64.3995,65.3951 63.7329,64.0618 63.5,62.5 Z"/></g>
<g><path style="opacity:1" fill="#f4944b" d="M 110.5,71.5 C 110.5,71.8333 110.5,72.1667 110.5,72.5C 109.201,74.1534 109.534,75.6534 111.5,77C 114.696,77.8045 117.696,77.6378 120.5,76.5C 121.167,76.1667 121.833,75.8333 122.5,75.5C 123.268,74.7375 123.768,73.7375 124,72.5C 124.333,73.5 124.667,74.5 125,75.5C 130.943,78.6636 134.776,83.4969 136.5,90C 134.292,90.1909 132.292,90.6909 130.5,91.5C 127.833,91.8333 125.167,92.1667 122.5,92.5C 122.167,92.5 121.833,92.5 121.5,92.5C 121.719,91.325 121.386,90.325 120.5,89.5C 118.591,88.6518 116.591,88.3184 114.5,88.5C 112.623,88.0997 111.123,87.0997 110,85.5C 108.775,85.8623 107.609,86.3623 106.5,87C 105.826,88.7506 105.493,90.4173 105.5,92C 106.5,92.8333 107.5,93.6667 108.5,94.5C 106.041,95.3263 103.541,95.993 101,96.5C 97.7829,92.7386 94.2829,92.0719 90.5,94.5C 89.8166,96.1765 88.4832,96.8432 86.5,96.5C 83.2357,96.2736 82.2357,94.7736 83.5,92C 85.3506,91.1628 87.1839,90.3295 89,89.5C 89.7734,84.8184 89.1067,84.4851 87,88.5C 86.8091,86.2922 86.3091,84.2922 85.5,82.5C 83.4168,80.3956 81.0835,80.0623 78.5,81.5C 77.1667,82.5 75.8333,83.5 74.5,84.5C 73.1667,84.5 71.8333,84.5 70.5,84.5C 68.721,81.7138 67.3876,78.7138 66.5,75.5C 67.5,75.1667 68.1667,74.5 68.5,73.5C 71.8311,76.6105 75.8311,77.9438 80.5,77.5C 83.5219,77.196 86.5219,76.696 89.5,76C 92.5486,73.2888 95.8819,70.9554 99.5,69C 102.817,68.5017 106.15,68.335 109.5,68.5C 109.263,69.791 109.596,70.791 110.5,71.5 Z"/></g>
<g><path style="opacity:1" fill="#fcd24a" d="M 99.5,52.5 C 104.167,52.5 108.833,52.5 113.5,52.5C 113.5,53.5 113.5,54.5 113.5,55.5C 115.92,55.2924 118.253,55.6258 120.5,56.5C 121.731,57.6507 121.731,58.8173 120.5,60C 123.686,62.7619 127.353,64.7619 131.5,66C 135.718,67.7345 137.551,70.9012 137,75.5C 137.5,76.6667 138.333,77.5 139.5,78C 139.507,79.5827 139.174,81.2494 138.5,83C 139.687,84.0195 140.687,85.1861 141.5,86.5C 140.37,87.6223 139.703,88.9557 139.5,90.5C 134.921,78.3895 127.588,68.0562 117.5,59.5C 114.845,57.8511 112.178,56.1844 109.5,54.5C 106.023,53.8328 102.689,53.1661 99.5,52.5 Z"/></g>
<g><path style="opacity:1" fill="#9f7e75" d="M 110.5,72.5 C 112.782,76.0912 116.116,77.4245 120.5,76.5C 117.696,77.6378 114.696,77.8045 111.5,77C 109.534,75.6534 109.201,74.1534 110.5,72.5 Z"/></g>
<g><path style="opacity:1" fill="#6a492e" d="M 44.5,58.5 C 46.3079,59.9179 46.9746,61.9179 46.5,64.5C 46.5,65.8333 46.5,67.1667 46.5,68.5C 45.8423,67.6016 45.1757,66.6016 44.5,65.5C 43.1778,74.9918 43.1778,84.3251 44.5,93.5C 42.5909,99.2143 40.9242,104.881 39.5,110.5C 39.6495,109.448 39.4828,108.448 39,107.5C 38.7679,108.737 38.2679,109.737 37.5,110.5C 38.54,105.42 39.8734,100.42 41.5,95.5C 42.3305,84.6743 42.8305,73.6743 43,62.5C 43.21,60.9419 43.71,59.6085 44.5,58.5 Z"/></g>
<g><path style="opacity:1" fill="#fecb44" d="M 103.5,28.5 C 100.801,28.5339 98.3015,27.8672 96,26.5C 91.6853,29.161 87.352,29.161 83,26.5C 73.3956,29.1752 63.8956,32.3419 54.5,36C 54.8333,36.3333 55.1667,36.6667 55.5,37C 52.5676,37.2718 50.0676,38.4385 48,40.5C 47.5172,41.448 47.3505,42.448 47.5,43.5C 43.036,44.2976 40.7027,46.9642 40.5,51.5C 38.1727,51.2471 36.1727,51.9137 34.5,53.5C 32.2317,57.0506 29.7317,60.3839 27,63.5C 26.2982,69.4627 23.7982,74.4627 19.5,78.5C 19.8333,79.1667 20.1667,79.8333 20.5,80.5C 18.0778,92.4482 17.9111,104.448 20,116.5C 20.6667,117.833 21.6667,118.833 23,119.5C 25.1885,126.465 28.3551,132.799 32.5,138.5C 32.5,139.833 32.5,141.167 32.5,142.5C 30.3198,141.883 28.3198,140.883 26.5,139.5C 23.957,134.12 20.7903,129.12 17,124.5C 16.5983,123.128 16.0983,121.795 15.5,120.5C 16.0016,119.284 16.3349,118.117 16.5,117C 14.7029,115.406 13.7029,113.406 13.5,111C 13.7759,108.563 14.1092,106.063 14.5,103.5C 13.2713,102.719 11.938,102.219 10.5,102C 11.448,101.517 12.448,101.351 13.5,101.5C 14.0636,98.1147 14.0636,94.7814 13.5,91.5C 14.9317,88.6698 15.265,85.8365 14.5,83C 16.7151,81.0574 16.7151,79.3907 14.5,78C 15.9308,77.5348 17.0975,76.7014 18,75.5C 20.0275,71.0435 20.8608,66.5435 20.5,62C 21.5596,60.702 22.7263,59.5353 24,58.5C 24.9454,58.9054 25.6121,59.572 26,60.5C 26.3036,58.5595 27.1369,56.8928 28.5,55.5C 28.2907,54.914 27.9574,54.414 27.5,54C 29.1829,51.9864 31.1829,50.3198 33.5,49C 33.1667,48.6667 32.8333,48.3333 32.5,48C 34.8753,45.7596 37.5419,43.9263 40.5,42.5C 40.2907,41.914 39.9574,41.414 39.5,41C 40.9733,40.2904 41.6399,39.1238 41.5,37.5C 43.1992,37.6602 44.8659,37.4935 46.5,37C 51.3632,33.2756 56.5299,30.1089 62,27.5C 63.8402,28.8331 64.3402,28.6665 63.5,27C 66.0398,25.8888 68.5398,25.7222 71,26.5C 73.329,25.1736 75.6624,23.8403 78,22.5C 79.3333,23.1667 80.6667,23.8333 82,24.5C 83.9115,23.5547 85.9115,23.5547 88,24.5C 89.8652,24.2945 91.5319,23.6278 93,22.5C 94.2613,22.7591 95.2613,23.4258 96,24.5C 96.3076,23.6919 96.8076,23.0253 97.5,22.5C 100.59,23.5894 102.59,25.5894 103.5,28.5 Z"/></g>
<g><path style="opacity:1" fill="#472d20" d="M 46.5,68.5 C 48.1503,76.6968 47.4836,84.6968 44.5,92.5C 44.5,92.8333 44.5,93.1667 44.5,93.5C 43.1778,84.3251 43.1778,74.9918 44.5,65.5C 45.1757,66.6016 45.8423,67.6016 46.5,68.5 Z"/></g>
<g><path style="opacity:1" fill="#c0a9a8" d="M 78.5,81.5 C 77.5078,84.7786 77.3412,88.1119 78,91.5C 78.3826,92.056 78.8826,92.3893 79.5,92.5C 79.5,92.8333 79.5,93.1667 79.5,93.5C 78.5,93.5 77.5,93.5 76.5,93.5C 76.6621,91.4727 76.4955,89.4727 76,87.5C 75.6174,86.944 75.1174,86.6107 74.5,86.5C 74.5,85.8333 74.5,85.1667 74.5,84.5C 75.8333,83.5 77.1667,82.5 78.5,81.5 Z"/></g>
<g><path style="opacity:1" fill="#f6e8e9" d="M 85.5,82.5 C 85.5232,87.1245 83.5232,90.4579 79.5,92.5C 78.8826,92.3893 78.3826,92.056 78,91.5C 77.3412,88.1119 77.5078,84.7786 78.5,81.5C 81.0835,80.0623 83.4168,80.3956 85.5,82.5 Z"/></g>
<g><path style="opacity:1" fill="#241716" d="M 114.5,88.5 C 116.591,88.3184 118.591,88.6518 120.5,89.5C 121.386,90.325 121.719,91.325 121.5,92.5C 117.869,93.412 114.203,93.5787 110.5,93C 110.043,92.586 109.709,92.086 109.5,91.5C 111.655,90.9986 113.322,89.9986 114.5,88.5 Z"/></g>
<g><path style="opacity:1" fill="#e98d4e" d="M 66.5,75.5 C 67.3876,78.7138 68.721,81.7138 70.5,84.5C 71.8333,84.5 73.1667,84.5 74.5,84.5C 74.5,85.1667 74.5,85.8333 74.5,86.5C 73.3775,88.2884 73.2109,90.2884 74,92.5C 75.6779,94.5532 77.5112,94.8866 79.5,93.5C 79.5,93.1667 79.5,92.8333 79.5,92.5C 83.5232,90.4579 85.5232,87.1245 85.5,82.5C 86.3091,84.2922 86.8091,86.2922 87,88.5C 89.1067,84.4851 89.7734,84.8184 89,89.5C 87.1839,90.3295 85.3506,91.1628 83.5,92C 82.2357,94.7736 83.2357,96.2736 86.5,96.5C 86.4142,97.4959 86.7476,98.3292 87.5,99C 90.1667,99.6667 92.8333,99.6667 95.5,99C 97.4054,98.1739 97.7388,97.0072 96.5,95.5C 94.5914,94.6518 92.5914,94.3184 90.5,94.5C 94.2829,92.0719 97.7829,92.7386 101,96.5C 103.541,95.993 106.041,95.3263 108.5,94.5C 107.5,93.6667 106.5,92.8333 105.5,92C 105.493,90.4173 105.826,88.7506 106.5,87C 107.609,86.3623 108.775,85.8623 110,85.5C 111.123,87.0997 112.623,88.0997 114.5,88.5C 113.322,89.9986 111.655,90.9986 109.5,91.5C 109.709,92.086 110.043,92.586 110.5,93C 114.203,93.5787 117.869,93.412 121.5,92.5C 121.833,92.5 122.167,92.5 122.5,92.5C 122.5,92.8333 122.5,93.1667 122.5,93.5C 112.15,97.174 102.15,101.674 92.5,107C 90.5273,107.495 88.5273,107.662 86.5,107.5C 80.1803,102.28 72.847,99.6134 64.5,99.5C 63.448,99.6495 62.448,99.4828 61.5,99C 63.1438,94.5136 64.1438,89.8469 64.5,85C 63.5891,82.4201 63.5891,79.9201 64.5,77.5C 65.1667,76.8333 65.8333,76.1667 66.5,75.5 Z"/></g>
<g><path style="opacity:1" fill="#8e7573" d="M 74.5,86.5 C 75.1174,86.6107 75.6174,86.944 76,87.5C 76.4955,89.4727 76.6621,91.4727 76.5,93.5C 77.5,93.5 78.5,93.5 79.5,93.5C 77.5112,94.8866 75.6779,94.5532 74,92.5C 73.2109,90.2884 73.3775,88.2884 74.5,86.5 Z"/></g>
<g><path style="opacity:1" fill="#fcf7f9" d="M 130.5,91.5 C 133.754,91.2069 136.754,91.8736 139.5,93.5C 139.833,94.1667 140.167,94.8333 140.5,95.5C 141.229,100.13 141.563,104.797 141.5,109.5C 139.937,110.945 138.604,112.611 137.5,114.5C 134.566,116.696 131.233,118.029 127.5,118.5C 121.303,118.548 114.803,118.215 108,117.5C 101.902,118.953 95.7354,119.953 89.5,120.5C 83.508,120.251 77.8414,118.918 72.5,116.5C 70.2067,114.388 67.7067,112.388 65,110.5C 64.0572,107.749 63.2239,105.083 62.5,102.5C 62.5,102.167 62.5,101.833 62.5,101.5C 63.1667,100.833 63.8333,100.167 64.5,99.5C 72.847,99.6134 80.1803,102.28 86.5,107.5C 88.5706,108.809 91.0706,109.475 94,109.5C 96.5,109.333 99,109.167 101.5,109C 105.499,106.388 109.499,103.888 113.5,101.5C 113.5,103.5 113.5,105.5 113.5,107.5C 114.833,107.5 116.167,107.5 117.5,107.5C 120.48,109.239 123.647,110.572 127,111.5C 130.511,110.518 132.678,108.185 133.5,104.5C 136.616,100.582 135.949,97.415 131.5,95C 128.854,94.5026 126.187,94.3359 123.5,94.5C 122.833,94.5 122.5,94.1667 122.5,93.5C 122.5,93.1667 122.5,92.8333 122.5,92.5C 125.167,92.1667 127.833,91.8333 130.5,91.5 Z"/></g>
<g><path style="opacity:1" fill="#493d41" d="M 123.5,95.5 C 123.5,95.1667 123.5,94.8333 123.5,94.5C 126.187,94.3359 128.854,94.5026 131.5,95C 135.949,97.415 136.616,100.582 133.5,104.5C 133.66,102.801 133.494,101.134 133,99.5C 131.253,103.421 128.419,104.421 124.5,102.5C 123.008,99.2326 124.008,97.0659 127.5,96C 126.207,95.51 124.873,95.3433 123.5,95.5 Z"/></g>
<g><path style="opacity:1" fill="#995a42" d="M 59.5,85.5 C 53.9949,98.1992 51.8282,111.533 53,125.5C 54.0476,129.924 55.8809,133.924 58.5,137.5C 56.0968,137.607 54.2635,136.607 53,134.5C 51.3206,130.122 49.654,125.789 48,121.5C 46.7238,129.998 49.5571,136.831 56.5,142C 52.9843,140.979 49.3177,140.146 45.5,139.5C 42.7055,137.181 40.8722,134.181 40,130.5C 39.5004,123.842 39.3337,117.175 39.5,110.5C 40.9242,104.881 42.5909,99.2143 44.5,93.5C 44.5,93.1667 44.5,92.8333 44.5,92.5C 46.0257,91.8953 47.0257,90.7286 47.5,89C 49.4142,87.8804 51.2475,87.7137 53,88.5C 54.978,87.0944 57.1447,86.0944 59.5,85.5 Z"/></g>
<g><path style="opacity:1" fill="#281a18" d="M 90.5,94.5 C 92.5914,94.3184 94.5914,94.6518 96.5,95.5C 97.7388,97.0072 97.4054,98.1739 95.5,99C 92.8333,99.6667 90.1667,99.6667 87.5,99C 86.7476,98.3292 86.4142,97.4959 86.5,96.5C 88.4832,96.8432 89.8166,96.1765 90.5,94.5 Z"/></g>
<g><path style="opacity:1" fill="#fae2ad" d="M 140.5,95.5 C 141.222,95.9175 141.722,96.5842 142,97.5C 142.816,102.684 142.65,107.684 141.5,112.5C 141.5,111.5 141.5,110.5 141.5,109.5C 141.563,104.797 141.229,100.13 140.5,95.5 Z"/></g>
<g><path style="opacity:1" fill="#f1e0e3" d="M 122.5,93.5 C 122.5,94.1667 122.833,94.5 123.5,94.5C 123.5,94.8333 123.5,95.1667 123.5,95.5C 118.903,96.126 115.903,98.626 114.5,103C 115.008,104.893 116.008,106.393 117.5,107.5C 116.167,107.5 114.833,107.5 113.5,107.5C 113.5,105.5 113.5,103.5 113.5,101.5C 109.499,103.888 105.499,106.388 101.5,109C 99,109.167 96.5,109.333 94,109.5C 91.0706,109.475 88.5706,108.809 86.5,107.5C 88.5273,107.662 90.5273,107.495 92.5,107C 102.15,101.674 112.15,97.174 122.5,93.5 Z"/></g>
<g><path style="opacity:1" fill="#2c2024" d="M 123.5,95.5 C 124.873,95.3433 126.207,95.51 127.5,96C 124.008,97.0659 123.008,99.2326 124.5,102.5C 128.419,104.421 131.253,103.421 133,99.5C 133.494,101.134 133.66,102.801 133.5,104.5C 132.678,108.185 130.511,110.518 127,111.5C 123.647,110.572 120.48,109.239 117.5,107.5C 116.008,106.393 115.008,104.893 114.5,103C 115.903,98.626 118.903,96.126 123.5,95.5 Z"/></g>
<g><path style="opacity:1" fill="#bc6d4a" d="M 62.5,78.5 C 61.5145,88.063 59.3479,97.3963 56,106.5C 51.9384,120.48 55.7717,131.313 67.5,139C 74.9361,139.881 81.6027,142.714 87.5,147.5C 95.7565,150.271 104.09,151.937 112.5,152.5C 111.198,154.822 109.198,156.155 106.5,156.5C 106.389,155.883 106.056,155.383 105.5,155C 97.6328,154.616 90.6328,151.95 84.5,147C 83.2068,146.51 81.8734,146.343 80.5,146.5C 75.5379,143.904 70.2046,142.404 64.5,142C 62.2528,140.723 60.2528,139.223 58.5,137.5C 55.8809,133.924 54.0476,129.924 53,125.5C 51.8282,111.533 53.9949,98.1992 59.5,85.5C 59.3398,83.8008 59.5065,82.1341 60,80.5C 60.4169,79.244 61.2502,78.5774 62.5,78.5 Z"/></g>
<g><path style="opacity:1" fill="#fecb43" d="M 155.5,141.5 C 154.022,141.238 152.689,141.571 151.5,142.5C 148.961,145.633 146.294,148.633 143.5,151.5C 142.205,152.098 140.872,152.598 139.5,153C 139.957,153.414 140.291,153.914 140.5,154.5C 139.271,155.281 137.938,155.781 136.5,156C 137.167,156.333 137.833,156.667 138.5,157C 135.497,157.767 132.997,159.267 131,161.5C 122.984,163.385 115.484,166.385 108.5,170.5C 107.446,170.32 106.446,169.987 105.5,169.5C 102.18,171.024 98.6798,172.024 95,172.5C 94.3076,171.975 93.8076,171.308 93.5,170.5C 94.7178,169.197 94.3845,168.197 92.5,167.5C 94.0792,166.333 95.4125,165 96.5,163.5C 96.8417,162.662 97.5084,162.328 98.5,162.5C 97.4019,163.397 97.4019,164.23 98.5,165C 100.953,165.738 103.453,166.238 106,166.5C 109.633,164.734 113.466,163.567 117.5,163C 118.5,162 119.5,161 120.5,160C 124.855,158.486 129.188,156.986 133.5,155.5C 133.383,153.516 134.05,151.85 135.5,150.5C 140.092,148.391 144.258,145.724 148,142.5C 149.095,136.941 151.595,132.107 155.5,128C 155.167,127.667 154.833,127.333 154.5,127C 158.155,126.072 158.821,124.405 156.5,122C 158.765,118.8 160.765,115.467 162.5,112C 161.643,111.311 160.977,110.478 160.5,109.5C 161.244,106.557 161.744,103.557 162,100.5C 162.44,98.9238 163.273,97.5904 164.5,96.5C 163.624,95.7492 162.624,95.2492 161.5,95C 162.167,94.6667 162.833,94.3333 163.5,94C 162.537,90.1484 161.204,86.4817 159.5,83C 160.293,81.9148 160.96,80.7481 161.5,79.5C 157.858,75.9955 155.691,71.6622 155,66.5C 154.25,65.8742 153.416,65.3742 152.5,65C 153.747,63.5421 153.747,62.0421 152.5,60.5C 151.086,59.376 149.586,58.376 148,57.5C 147.634,55.5483 146.801,53.8816 145.5,52.5C 147.124,52.6399 148.29,51.9733 149,50.5C 150.791,51.9119 151.958,53.7452 152.5,56C 153.76,57.113 154.927,57.2797 156,56.5C 157.428,60.4716 158.761,64.8049 160,69.5C 161.167,70.6667 162.333,71.8333 163.5,73C 163.043,73.414 162.709,73.914 162.5,74.5C 163.727,75.5904 164.56,76.9238 165,78.5C 165.261,82.706 165.761,86.8726 166.5,91C 167.272,92.221 168.272,93.221 169.5,94C 166.446,95.1611 165.78,97.1611 167.5,100C 166.978,100.95 166.311,101.784 165.5,102.5C 168.167,105.167 168.167,107.833 165.5,110.5C 165.709,111.086 166.043,111.586 166.5,112C 163.123,113.649 162.79,115.649 165.5,118C 162.715,123.175 159.882,128.342 157,133.5C 155.656,136.259 155.156,138.926 155.5,141.5 Z"/></g>
<g><path style="opacity:1" fill="#eecf7b" d="M 140.5,117.5 C 140.741,119.898 140.074,121.898 138.5,123.5C 138.5,122.167 138.5,120.833 138.5,119.5C 139.167,118.833 139.833,118.167 140.5,117.5 Z"/></g>
<g><path style="opacity:1" fill="#ebdee6" d="M 62.5,102.5 C 63.2239,105.083 64.0572,107.749 65,110.5C 67.7067,112.388 70.2067,114.388 72.5,116.5C 74.5466,118.196 76.8799,119.53 79.5,120.5C 85.0712,121.929 90.7379,122.596 96.5,122.5C 108.497,121.923 120.497,121.423 132.5,121C 135.142,119.532 136.809,117.365 137.5,114.5C 138.604,112.611 139.937,110.945 141.5,109.5C 141.5,110.5 141.5,111.5 141.5,112.5C 140.549,113.919 140.216,115.585 140.5,117.5C 139.833,118.167 139.167,118.833 138.5,119.5C 136.484,120.456 134.651,121.79 133,123.5C 132.517,124.448 132.351,125.448 132.5,126.5C 118.496,126.667 104.496,126.5 90.5,126C 84.7404,125.048 79.0737,123.715 73.5,122C 71.3392,118.998 68.5059,116.831 65,115.5C 62.3927,111.422 61.5593,107.089 62.5,102.5 Z"/></g>
<g><path style="opacity:1" fill="#f9eef6" d="M 137.5,114.5 C 136.809,117.365 135.142,119.532 132.5,121C 120.497,121.423 108.497,121.923 96.5,122.5C 90.7379,122.596 85.0712,121.929 79.5,120.5C 76.8799,119.53 74.5466,118.196 72.5,116.5C 77.8414,118.918 83.508,120.251 89.5,120.5C 95.7354,119.953 101.902,118.953 108,117.5C 114.803,118.215 121.303,118.548 127.5,118.5C 131.233,118.029 134.566,116.696 137.5,114.5 Z"/></g>
<g><path style="opacity:1" fill="#d0c1ca" d="M 62.5,101.5 C 62.5,101.833 62.5,102.167 62.5,102.5C 61.5593,107.089 62.3927,111.422 65,115.5C 68.5059,116.831 71.3392,118.998 73.5,122C 79.0737,123.715 84.7404,125.048 90.5,126C 104.496,126.5 118.496,126.667 132.5,126.5C 132.351,125.448 132.517,124.448 133,123.5C 134.651,121.79 136.484,120.456 138.5,119.5C 138.5,120.833 138.5,122.167 138.5,123.5C 136.833,125.5 135.167,127.5 133.5,129.5C 118.835,129.728 104.002,129.394 89,128.5C 80.8806,126.183 73.0473,123.183 65.5,119.5C 62.4186,115.333 60.4186,110.666 59.5,105.5C 59.7376,103.596 60.7376,102.262 62.5,101.5 Z"/></g>
<g><path style="opacity:1" fill="#d8804d" d="M 64.5,77.5 C 63.5891,79.9201 63.5891,82.4201 64.5,85C 64.1438,89.8469 63.1438,94.5136 61.5,99C 62.448,99.4828 63.448,99.6495 64.5,99.5C 63.8333,100.167 63.1667,100.833 62.5,101.5C 60.7376,102.262 59.7376,103.596 59.5,105.5C 58.756,115.056 62.0893,123.223 69.5,130C 76.7168,134.24 84.3835,136.74 92.5,137.5C 88.6249,137.085 84.9582,137.585 81.5,139C 89.6585,143.663 98.3252,146.83 107.5,148.5C 110.702,145.928 113.035,146.595 114.5,150.5C 114.167,151.5 113.5,152.167 112.5,152.5C 104.09,151.937 95.7565,150.271 87.5,147.5C 81.6027,142.714 74.9361,139.881 67.5,139C 55.7717,131.313 51.9384,120.48 56,106.5C 59.3479,97.3963 61.5145,88.063 62.5,78.5C 63.1667,78.1667 63.8333,77.8333 64.5,77.5 Z"/></g>
<g><path style="opacity:1" fill="#806035" d="M 35.5,117.5 C 34.6502,124.799 34.3169,132.132 34.5,139.5C 33.5151,135.366 33.1818,131.032 33.5,126.5C 33.2153,123.171 33.8819,120.171 35.5,117.5 Z"/></g>
<g><path style="opacity:1" fill="#aa9ca5" d="M 65.5,119.5 C 73.0473,123.183 80.8806,126.183 89,128.5C 104.002,129.394 118.835,129.728 133.5,129.5C 133.167,130.5 132.5,131.167 131.5,131.5C 116.478,132.766 101.478,132.6 86.5,131C 81.6552,130.215 76.9885,128.882 72.5,127C 69.5724,124.91 67.2391,122.41 65.5,119.5 Z"/></g>
<g><path style="opacity:1" fill="#412b1f" d="M 39.5,110.5 C 39.3337,117.175 39.5004,123.842 40,130.5C 40.8722,134.181 42.7055,137.181 45.5,139.5C 51.5653,144.13 58.5653,146.296 66.5,146C 71.497,149.834 76.8303,153.167 82.5,156C 88.5044,157.82 94.5044,158.986 100.5,159.5C 99.8333,160.5 99.1667,161.5 98.5,162.5C 97.5084,162.328 96.8417,162.662 96.5,163.5C 93.7305,164.437 91.0639,165.604 88.5,167C 81.7897,168.169 75.4564,167.336 69.5,164.5C 69.5858,163.504 69.2524,162.671 68.5,162C 66.1341,161.56 63.8008,161.06 61.5,160.5C 57.1723,157.317 52.1723,155.484 46.5,155C 43.1193,153.314 40.1193,151.148 37.5,148.5C 35.6643,145.817 34.6643,142.817 34.5,139.5C 34.3169,132.132 34.6502,124.799 35.5,117.5C 35.4095,114.848 36.0762,112.515 37.5,110.5C 38.2679,109.737 38.7679,108.737 39,107.5C 39.4828,108.448 39.6495,109.448 39.5,110.5 Z"/></g>
<g><path style="opacity:1" fill="#817074" d="M 59.5,105.5 C 60.4186,110.666 62.4186,115.333 65.5,119.5C 67.2391,122.41 69.5724,124.91 72.5,127C 76.9885,128.882 81.6552,130.215 86.5,131C 101.478,132.6 116.478,132.766 131.5,131.5C 129.65,133.572 127.317,134.905 124.5,135.5C 113.914,137.194 103.247,137.86 92.5,137.5C 84.3835,136.74 76.7168,134.24 69.5,130C 62.0893,123.223 58.756,115.056 59.5,105.5 Z"/></g>
<g><path style="opacity:1" fill="#e3884c" d="M 124.5,135.5 C 121.833,140.167 119.167,144.833 116.5,149.5C 115.833,149.833 115.167,150.167 114.5,150.5C 113.035,146.595 110.702,145.928 107.5,148.5C 98.3252,146.83 89.6585,143.663 81.5,139C 84.9582,137.585 88.6249,137.085 92.5,137.5C 103.247,137.86 113.914,137.194 124.5,135.5 Z"/></g>
<g><path style="opacity:1" fill="#dcb046" d="M 32.5,126.5 C 32.8333,126.5 33.1667,126.5 33.5,126.5C 33.1818,131.032 33.5151,135.366 34.5,139.5C 34.6643,142.817 35.6643,145.817 37.5,148.5C 33.6473,148.314 31.9807,146.314 32.5,142.5C 32.5,141.167 32.5,139.833 32.5,138.5C 32.5,134.5 32.5,130.5 32.5,126.5 Z"/></g>
<g><path style="opacity:1" fill="#87533e" d="M 58.5,137.5 C 60.2528,139.223 62.2528,140.723 64.5,142C 70.2046,142.404 75.5379,143.904 80.5,146.5C 83.5624,149.192 86.8957,151.526 90.5,153.5C 95.2172,155.882 100.217,156.882 105.5,156.5C 103.955,157.64 102.288,158.64 100.5,159.5C 94.5044,158.986 88.5044,157.82 82.5,156C 76.8303,153.167 71.497,149.834 66.5,146C 58.5653,146.296 51.5653,144.13 45.5,139.5C 49.3177,140.146 52.9843,140.979 56.5,142C 49.5571,136.831 46.7238,129.998 48,121.5C 49.654,125.789 51.3206,130.122 53,134.5C 54.2635,136.607 56.0968,137.607 58.5,137.5 Z"/></g>
<g><path style="opacity:1" fill="#a56046" d="M 80.5,146.5 C 81.8734,146.343 83.2068,146.51 84.5,147C 90.6328,151.95 97.6328,154.616 105.5,155C 106.056,155.383 106.389,155.883 106.5,156.5C 106.167,156.5 105.833,156.5 105.5,156.5C 100.217,156.882 95.2172,155.882 90.5,153.5C 86.8957,151.526 83.5624,149.192 80.5,146.5 Z"/></g>
<g><path style="opacity:1" fill="#704f33" d="M 61.5,160.5 C 63.8008,161.06 66.1341,161.56 68.5,162C 69.2524,162.671 69.5858,163.504 69.5,164.5C 66.4553,163.721 63.7886,162.387 61.5,160.5 Z"/></g>
<g><path style="opacity:1" fill="#fba645" d="M 139.5,165.5 C 141.757,165.038 143.757,164.038 145.5,162.5C 146.594,163.868 146.26,165.035 144.5,166C 137.711,170.496 130.878,174.996 124,179.5C 123.586,179.043 123.086,178.709 122.5,178.5C 106.985,183.5 91.1518,185.5 75,184.5C 73.7453,183.789 72.5786,182.956 71.5,182C 64.2668,180.372 57.2668,178.205 50.5,175.5C 42.0373,171.055 34.3706,165.389 27.5,158.5C 26.1207,157.137 26.2874,156.137 28,155.5C 29.9262,157.131 31.7596,158.965 33.5,161C 37.6426,162.728 40.9759,165.394 43.5,169C 47.9085,169.764 51.5752,171.764 54.5,175C 61.874,176.816 69.2073,178.816 76.5,181C 86.1667,181.667 95.8333,181.667 105.5,181C 111.88,179.155 118.214,177.155 124.5,175C 129.978,172.28 134.978,169.113 139.5,165.5 Z"/></g>
</svg>
