<?xml version="1.0" encoding="UTF-8"?>
<!DOCTYPE svg PUBLIC "-//W3C//DTD SVG 1.1//EN" "http://www.w3.org/Graphics/SVG/1.1/DTD/svg11.dtd">
<svg xmlns="http://www.w3.org/2000/svg" version="1.1" width="225px" height="225px" style="shape-rendering:geometricPrecision; text-rendering:geometricPrecision; image-rendering:optimizeQuality; fill-rule:evenodd; clip-rule:evenodd" xmlns:xlink="http://www.w3.org/1999/xlink">
<g><path style="opacity:1" fill="#fffefe" d="M -0.5,-0.5 C 32.5,-0.5 65.5,-0.5 98.5,-0.5C 43.1667,10.1667 10.1667,43.1667 -0.5,98.5C -0.5,65.5 -0.5,32.5 -0.5,-0.5 Z"/></g>
<g><path style="opacity:1" fill="#fcdd03" d="M 98.5,-0.5 C 106.167,-0.5 113.833,-0.5 121.5,-0.5C 178.968,8.40532 213.301,41.4053 224.5,98.5C 224.5,105.167 224.5,111.833 224.5,118.5C 218.613,171.225 190.28,205.391 139.5,221C 132.392,222.407 125.392,223.574 118.5,224.5C 111.833,224.5 105.167,224.5 98.5,224.5C 57.0973,217.594 27.2639,195.261 9,157.5C 3.84177,144.848 0.675102,131.848 -0.5,118.5C -0.5,111.833 -0.5,105.167 -0.5,98.5C 10.1667,43.1667 43.1667,10.1667 98.5,-0.5 Z"/></g>
<g><path style="opacity:1" fill="#fffefd" d="M 121.5,-0.5 C 155.833,-0.5 190.167,-0.5 224.5,-0.5C 224.5,32.5 224.5,65.5 224.5,98.5C 213.301,41.4053 178.968,8.40532 121.5,-0.5 Z"/></g>
<g><path style="opacity:1" fill="#e72f35" d="M 115.5,28.5 C 118.187,28.3359 120.854,28.5026 123.5,29C 126.085,38.4525 125.918,47.9525 123,57.5C 121.087,59.9556 119.421,59.6222 118,56.5C 115.391,49.5697 113.891,42.403 113.5,35C 113.338,32.498 114.005,30.3313 115.5,28.5 Z"/></g>
<g><path style="opacity:1" fill="#e72e36" d="M 147.5,33.5 C 153.873,33.3677 156.373,36.3677 155,42.5C 152.478,50.3847 148.311,57.2181 142.5,63C 141.552,63.4828 140.552,63.6495 139.5,63.5C 138.726,52.5036 141.392,42.5036 147.5,33.5 Z"/></g>
<g><path style="opacity:1" fill="#e72f35" d="M 171.5,55.5 C 177.74,55.2939 180.24,58.2939 179,64.5C 171.681,71.2436 163.181,75.4103 153.5,77C 152.978,76.4387 152.645,75.772 152.5,75C 157.682,67.3188 164.015,60.8188 171.5,55.5 Z"/></g>
<g><path style="opacity:1" fill="#e58b19" d="M 151.5,119.5 C 145.1,118.043 138.766,118.376 132.5,120.5C 134.931,118.932 134.931,117.432 132.5,116C 130.833,115.333 129.167,115.333 127.5,116C 126.149,117.617 124.482,118.784 122.5,119.5C 124.51,121.171 126.843,121.838 129.5,121.5C 120.332,126.001 111.165,130.668 102,135.5C 97.0475,132.607 91.8809,130.107 86.5,128C 74.5994,123.911 69.0994,128.078 70,140.5C 74.7384,155.223 84.9051,163.389 100.5,165C 112.908,165.917 125.241,165.417 137.5,163.5C 133.145,171.03 127.812,177.864 121.5,184C 118.166,185.042 115.166,186.542 112.5,188.5C 99.5641,187.68 88.2308,182.847 78.5,174C 57.3283,174.499 47.495,164.332 49,143.5C 50.8824,131.186 54.3824,119.353 59.5,108C 57.5528,100.768 55.8861,93.601 54.5,86.5C 55.5106,82.7934 56.6773,79.1267 58,75.5C 62.2204,72.8361 66.3871,73.0027 70.5,76C 74.8902,80.1222 78.5569,84.7888 81.5,90C 83.8212,90.008 85.8212,89.1747 87.5,87.5C 89.8444,87.4938 91.1777,86.3271 91.5,84C 90.3959,77.7039 89.3959,71.5372 88.5,65.5C 88.546,59.2817 91.546,56.4484 97.5,57C 103.864,63.5537 108.864,71.0537 112.5,79.5C 114.432,78.4798 116.432,78.3131 118.5,79C 136.02,87.2162 147.02,100.716 151.5,119.5 Z"/></g>
<g><path style="opacity:1" fill="#e73635" d="M 119.5,61.5 C 125.75,61.8821 127.417,64.7154 124.5,70C 117.416,70.475 115.749,67.6417 119.5,61.5 Z"/></g>
<g><path style="opacity:1" fill="#efb89a" d="M 96.5,63.5 C 98.7157,64.2026 100.549,65.5359 102,67.5C 103.746,71.3267 105.746,74.9934 108,78.5C 108.538,84.5191 105.705,86.6858 99.5,85C 98.2986,84.0975 97.4652,82.9308 97,81.5C 96.5005,75.5092 96.3338,69.5092 96.5,63.5 Z"/></g>
<g><path style="opacity:1" fill="#e73435" d="M 135.5,65.5 C 142.896,65.6148 144.23,68.4481 139.5,74C 133.254,73.7055 131.921,70.8721 135.5,65.5 Z"/></g>
<g><path style="opacity:1" fill="#35280d" d="M 88.5,65.5 C 89.3959,71.5372 90.3959,77.7039 91.5,84C 91.1777,86.3271 89.8444,87.4938 87.5,87.5C 87.2743,80.1239 87.6076,72.7906 88.5,65.5 Z"/></g>
<g><path style="opacity:1" fill="#e73635" d="M 145.5,76.5 C 149.459,75.5778 151.792,77.0778 152.5,81C 150.715,85.6532 147.881,86.4865 144,83.5C 143.167,80.829 143.667,78.4957 145.5,76.5 Z"/></g>
<g><path style="opacity:1" fill="#eeb799" d="M 65.5,81.5 C 68.617,81.6423 71.117,82.9756 73,85.5C 75.7343,89.3909 78.2343,93.3909 80.5,97.5C 77.684,103.989 72.8507,106.655 66,105.5C 63.6953,98.6527 62.6953,91.6527 63,84.5C 64.045,83.6266 64.8783,82.6266 65.5,81.5 Z"/></g>
<g><path style="opacity:1" fill="#faf6f1" d="M 124.5,95.5 C 127.649,95.2114 130.649,95.7114 133.5,97C 136.009,101.723 134.343,104.223 128.5,104.5C 121.298,103.776 119.964,100.776 124.5,95.5 Z"/></g>
<g><path style="opacity:1" fill="#faf8f6" d="M 90.5,107.5 C 94.4948,106.884 96.4948,108.55 96.5,112.5C 96.0261,116.971 93.6927,119.971 89.5,121.5C 86.6976,121.029 85.3642,119.362 85.5,116.5C 85.9039,112.771 87.5706,109.771 90.5,107.5 Z"/></g>
<g><path style="opacity:1" fill="#150c03" d="M 132.5,120.5 C 131.609,121.11 130.609,121.443 129.5,121.5C 126.843,121.838 124.51,121.171 122.5,119.5C 124.482,118.784 126.149,117.617 127.5,116C 129.167,115.333 130.833,115.333 132.5,116C 134.931,117.432 134.931,118.932 132.5,120.5 Z"/></g>
<g><path style="opacity:1" fill="#faf9f8" d="M 151.5,119.5 C 154.675,123.03 156.008,127.197 155.5,132C 154.961,140.285 152.794,148.118 149,155.5C 145.888,159.298 142.055,161.964 137.5,163.5C 125.241,165.417 112.908,165.917 100.5,165C 84.9051,163.389 74.7384,155.223 70,140.5C 69.0994,128.078 74.5994,123.911 86.5,128C 91.8809,130.107 97.0475,132.607 102,135.5C 111.165,130.668 120.332,126.001 129.5,121.5C 130.609,121.443 131.609,121.11 132.5,120.5C 138.766,118.376 145.1,118.043 151.5,119.5 Z"/></g>
<g><path style="opacity:1" fill="#050200" d="M 103.5,121.5 C 106.157,121.162 108.49,121.829 110.5,123.5C 110.023,124.478 109.357,125.311 108.5,126C 104.967,126.903 101.633,126.57 98.5,125C 100.584,124.303 102.251,123.136 103.5,121.5 Z"/></g>
<g><path style="opacity:1" fill="#050505" d="M 137.5,121.5 C 147.919,120.9 150.419,125.233 145,134.5C 144.128,136.613 142.628,137.946 140.5,138.5C 137.059,137.631 133.726,136.464 130.5,135C 126.356,131.021 126.69,127.355 131.5,124C 133.723,123.434 135.723,122.6 137.5,121.5 Z"/></g>
<g><path style="opacity:1" fill="#fffefd" d="M -0.5,118.5 C 0.675102,131.848 3.84177,144.848 9,157.5C 27.2639,195.261 57.0973,217.594 98.5,224.5C 65.5,224.5 32.5,224.5 -0.5,224.5C -0.5,189.167 -0.5,153.833 -0.5,118.5 Z"/></g>
<g><path style="opacity:1" fill="#fffefd" d="M 224.5,118.5 C 224.5,153.833 224.5,189.167 224.5,224.5C 189.167,224.5 153.833,224.5 118.5,224.5C 125.392,223.574 132.392,222.407 139.5,221C 190.28,205.391 218.613,171.225 224.5,118.5 Z"/></g>
<g><path style="opacity:1" fill="#392b0c" d="M 54.5,86.5 C 55.8861,93.601 57.5528,100.768 59.5,108C 54.3824,119.353 50.8824,131.186 49,143.5C 47.495,164.332 57.3283,174.499 78.5,174C 88.2308,182.847 99.5641,187.68 112.5,188.5C 102.777,195.927 92.1101,197.427 80.5,193C 75.5076,190.839 70.8409,188.172 66.5,185C 55.1122,184.273 47.9455,178.44 45,167.5C 43.8858,151.509 46.5525,136.176 53,121.5C 53.2299,109.801 53.7299,98.1343 54.5,86.5 Z"/></g>
</svg>
