<?xml version="1.0" encoding="UTF-8"?>
<!DOCTYPE svg PUBLIC "-//W3C//DTD SVG 1.1//EN" "http://www.w3.org/Graphics/SVG/1.1/DTD/svg11.dtd">
<svg xmlns="http://www.w3.org/2000/svg" version="1.1" width="272px" height="272px" style="shape-rendering:geometricPrecision; text-rendering:geometricPrecision; image-rendering:optimizeQuality; fill-rule:evenodd; clip-rule:evenodd" xmlns:xlink="http://www.w3.org/1999/xlink">
<g><path style="opacity:0.691" fill="#e5e5e5" d="M 119.5,-0.5 C 130.167,-0.5 140.833,-0.5 151.5,-0.5C 199.994,6.72467 235.328,32.058 257.5,75.5C 242.012,48.6812 220.345,28.3479 192.5,14.5C 190.967,12.7549 188.967,11.7549 186.5,11.5C 184.708,11.634 183.042,11.3007 181.5,10.5C 181.389,9.88258 181.056,9.38258 180.5,9C 175.892,7.51477 171.226,6.34811 166.5,5.5C 165.833,5.5 165.167,5.5 164.5,5.5C 164.389,4.88258 164.056,4.38258 163.5,4C 160.518,3.50204 157.518,3.33537 154.5,3.5C 152.139,3.32588 149.806,2.99255 147.5,2.5C 133.586,0.996854 119.586,1.49685 105.5,4C 103.277,4.56619 101.277,5.39953 99.5,6.5C 97.901,6.23219 96.5676,6.56552 95.5,7.5C 92.284,7.3455 89.6174,8.3455 87.5,10.5C 85.146,10.838 82.8127,11.338 80.5,12C 77.0476,15.0595 73.0476,17.0595 68.5,18C 61.6319,22.2625 54.9652,26.7625 48.5,31.5C 48.1667,31.5 47.8333,31.5 47.5,31.5C 68.3097,13.7639 92.3097,3.09727 119.5,-0.5 Z"/></g>
<g><path style="opacity:1" fill="#707070" d="M 147.5,2.5 C 131.307,1.86252 115.307,3.19585 99.5,6.5C 101.277,5.39953 103.277,4.56619 105.5,4C 119.586,1.49685 133.586,0.996854 147.5,2.5 Z"/></g>
<g><path style="opacity:1" fill="#8d8d8d" d="M 154.5,3.5 C 157.518,3.33537 160.518,3.50204 163.5,4C 164.056,4.38258 164.389,4.88258 164.5,5.5C 160.96,5.24742 157.627,4.58075 154.5,3.5 Z"/></g>
<g><path style="opacity:1" fill="#757575" d="M 166.5,5.5 C 171.226,6.34811 175.892,7.51477 180.5,9C 181.056,9.38258 181.389,9.88258 181.5,10.5C 176.255,9.27925 171.255,7.61258 166.5,5.5 Z"/></g>
<g><path style="opacity:1" fill="#efefef" d="M 177.5,12.5 C 180.084,14.4725 183.084,15.4725 186.5,15.5C 213.704,27.5332 235.204,46.1999 251,71.5C 255.337,79.1703 258.837,87.1703 261.5,95.5C 261.41,98.1522 262.076,100.485 263.5,102.5C 264.918,109.056 266.251,115.723 267.5,122.5C 267.737,133.198 267.404,143.865 266.5,154.5C 256.979,205.223 228.312,240.223 180.5,259.5C 178.102,259.259 176.102,259.926 174.5,261.5C 171.447,261.111 168.78,261.777 166.5,263.5C 162.316,263.851 158.316,264.518 154.5,265.5C 140.17,266.788 125.837,266.788 111.5,265.5C 107.694,262.966 103.36,261.966 98.5,262.5C 96.4855,261.076 94.1522,260.41 91.5,260.5C 87.9634,259.46 84.63,258.127 81.5,256.5C 77.3993,253.116 72.7326,250.783 67.5,249.5C 36.6985,231.697 16.3652,205.697 6.5,171.5C 6.74061,169.102 6.07394,167.102 4.5,165.5C -5.82749,102.335 16.1725,54.1684 70.5,21C 74.4896,18.8584 78.4896,17.025 82.5,15.5C 87.1646,14.9431 91.4979,13.6098 95.5,11.5C 97.5145,10.0762 99.8478,9.40953 102.5,9.5C 107.45,9.23011 112.117,8.23011 116.5,6.5C 137.166,3.95523 157.499,5.95523 177.5,12.5 Z"/></g>
<g><path style="opacity:1" fill="#717171" d="M 95.5,7.5 C 93.064,8.87096 90.3973,9.87096 87.5,10.5C 89.6174,8.3455 92.284,7.3455 95.5,7.5 Z"/></g>
<g><path style="opacity:1" fill="#878787" d="M 186.5,11.5 C 188.967,11.7549 190.967,12.7549 192.5,14.5C 190.033,14.2451 188.033,13.2451 186.5,11.5 Z"/></g>
<g><path style="opacity:1" fill="#737373" d="M 47.5,31.5 C 47.8333,31.5 48.1667,31.5 48.5,31.5C 41.9473,37.5969 35.614,43.9302 29.5,50.5C 34.3642,43.1175 40.3642,36.7842 47.5,31.5 Z"/></g>
<g><path style="opacity:1" fill="#171818" d="M 148.5,14.5 C 155.741,16.0221 163.074,17.6887 170.5,19.5C 174.776,20.9861 179.109,22.3195 183.5,23.5C 185.033,25.2451 187.033,26.2451 189.5,26.5C 191.033,28.2451 193.033,29.2451 195.5,29.5C 228.316,47.9964 248.982,75.6631 257.5,112.5C 257.527,118.051 258.194,123.384 259.5,128.5C 259.868,184.443 234.868,224.443 184.5,248.5C 180.064,249.414 176.064,251.081 172.5,253.5C 171.167,253.5 169.833,253.5 168.5,253.5C 163.641,253.295 163.641,252.295 168.5,250.5C 171.167,249.5 173.833,248.5 176.5,247.5C 192.38,242.23 206.38,233.897 218.5,222.5C 226.68,215.326 233.346,206.993 238.5,197.5C 240.669,195.66 242.002,193.326 242.5,190.5C 245.983,186.868 247.816,182.534 248,177.5C 246.882,180.855 245.382,184.022 243.5,187C 242.256,187.456 241.423,186.956 241,185.5C 240.234,176.309 240.401,167.142 241.5,158C 240.963,153.647 239.797,149.48 238,145.5C 237.667,148.167 237.333,150.833 237,153.5C 234.326,156.963 232.826,160.963 232.5,165.5C 231.833,166.833 231.167,168.167 230.5,169.5C 230.106,168.033 229.773,166.533 229.5,165C 232.112,153.996 233.445,142.829 233.5,131.5C 233.819,110.425 226.986,91.7582 213,75.5C 212.601,75.7284 212.435,76.0618 212.5,76.5C 211.122,75.4549 210.122,74.1216 209.5,72.5C 211.099,72.2322 212.432,72.5655 213.5,73.5C 218.573,79.3093 222.907,85.6426 226.5,92.5C 233.752,107.513 237.585,123.513 238,140.5C 239.718,138.798 239.885,136.965 238.5,135C 239.202,131.534 239.869,128.034 240.5,124.5C 238.975,121.722 237.975,118.722 237.5,115.5C 238.312,104.546 238.812,93.5463 239,82.5C 239.333,81.1667 239.667,79.8333 240,78.5C 240.654,79.6956 241.154,79.6956 241.5,78.5C 238.545,72.8993 234.878,67.8993 230.5,63.5C 225.893,57.2238 220.559,51.5572 214.5,46.5C 211.48,43.4838 208.146,40.8171 204.5,38.5C 198.822,34.6595 192.822,31.3261 186.5,28.5C 183.167,27.1667 179.833,25.8333 176.5,24.5C 169.944,22.4264 163.277,20.7597 156.5,19.5C 154.565,18.8505 152.565,18.5172 150.5,18.5C 139.777,17.2955 129.11,17.2955 118.5,18.5C 115.615,18.1936 112.948,18.5269 110.5,19.5C 104.142,20.2534 98.142,21.9201 92.5,24.5C 88.6872,25.4375 85.0205,26.7709 81.5,28.5C 80.1667,27.5 80.1667,26.5 81.5,25.5C 84.6865,24.4031 87.6865,23.0697 90.5,21.5C 94.1621,21.2766 97.4954,20.2766 100.5,18.5C 105.447,18.2828 110.114,17.2828 114.5,15.5C 125.821,14.8194 137.154,14.4861 148.5,14.5 Z"/></g>
<g><path style="opacity:1" fill="#040403" d="M 152.5,64.5 C 154.515,65.9238 156.848,66.5905 159.5,66.5C 176.53,73.8584 189.863,85.5251 199.5,101.5C 202.416,106.506 204.416,111.839 205.5,117.5C 206.399,123.298 207.066,129.131 207.5,135C 206.973,141.189 206.306,147.356 205.5,153.5C 191.373,194.598 162.373,213.098 118.5,209C 84.5467,200.545 64.5467,179.045 58.5,144.5C 57.8091,132.569 59.1424,120.902 62.5,109.5C 78.3774,74.8879 105.377,59.3879 143.5,63C 146.432,63.9533 149.432,64.4533 152.5,64.5 Z"/></g>
<g><path style="opacity:1" fill="#0d0a06" d="M 62.5,67.5 C 66.8333,72.5 71.5,77.1667 76.5,81.5C 72.5543,86.2963 68.721,91.2963 65,96.5C 61.6534,102.188 59.1534,108.188 57.5,114.5C 56.6156,117.023 55.7823,119.69 55,122.5C 54.1768,131.01 54.3434,139.344 55.5,147.5C 56.8866,155.828 59.3866,163.828 63,171.5C 67.3559,178.009 71.8559,184.342 76.5,190.5C 71.1667,195.5 65.8333,200.5 60.5,205.5C 59.5084,205.672 58.8417,205.338 58.5,204.5C 53.7641,199.77 49.4307,194.77 45.5,189.5C 43.0857,184.337 40.4191,179.337 37.5,174.5C 26.8573,140.679 31.5239,109.012 51.5,79.5C 51.3333,79.1667 51.1667,78.8333 51,78.5C 33.0338,102.373 27.0338,129.04 33,158.5C 31.1729,154.719 30.1729,150.719 30,146.5C 27.9954,129.877 30.1621,113.877 36.5,98.5C 39.4044,91.0204 43.571,84.3537 49,78.5C 49.4828,77.552 49.6495,76.552 49.5,75.5C 51.4147,75.7845 53.0813,75.4511 54.5,74.5C 56.0627,73.0552 57.396,71.3885 58.5,69.5C 59.6049,68.3995 60.9382,67.7329 62.5,67.5 Z"/></g>
<g><path style="opacity:1" fill="#0a0905" d="M 203.5,67.5 C 203.833,67.5 204.167,67.5 204.5,67.5C 206.5,68.8333 208.167,70.5 209.5,72.5C 210.122,74.1216 211.122,75.4549 212.5,76.5C 224.806,92.7438 231.806,111.077 233.5,131.5C 233.445,142.829 232.112,153.996 229.5,165C 229.773,166.533 230.106,168.033 230.5,169.5C 226.387,178.54 221.721,187.206 216.5,195.5C 212.473,198.86 208.806,202.527 205.5,206.5C 200.167,200.833 194.833,195.167 189.5,189.5C 193.491,184.196 197.491,178.863 201.5,173.5C 204.967,167.232 207.3,160.565 208.5,153.5C 209.924,151.485 210.59,149.152 210.5,146.5C 212.455,129.112 209.289,112.779 201,97.5C 196.923,92.2698 193.09,86.9364 189.5,81.5C 193.833,76.5 198.5,71.8333 203.5,67.5 Z"/></g>
<g><path style="opacity:1" fill="#121618" d="M 124.5,65.5 C 155.311,64.4838 179.144,76.8172 196,102.5C 205.97,124.866 205.97,147.2 196,169.5C 193.027,173.974 189.86,178.307 186.5,182.5C 186.167,182.167 185.833,181.833 185.5,181.5C 206.81,153.678 207.976,125.012 189,95.5C 162.754,66.229 131.921,60.0623 96.5,77C 89.1201,81.3734 82.6201,86.8734 77,93.5C 76.3333,92.8333 76.3333,92.1667 77,91.5C 89.4808,76.522 105.314,67.8553 124.5,65.5 Z"/></g>
<g><path style="opacity:0.592" fill="#c8c8c8" d="M 257.5,75.5 C 260.458,79.6911 262.458,84.3578 263.5,89.5C 261.6,86.395 259.766,83.0617 258,79.5C 257.51,78.2068 257.343,76.8734 257.5,75.5 Z"/></g>
<g><path style="opacity:1" fill="#f3c311" d="M 54.5,112.5 C 53.0762,114.515 52.4095,116.848 52.5,119.5C 51.71,120.609 51.21,121.942 51,123.5C 49.6116,136.435 50.7782,149.102 54.5,161.5C 54.5018,165.165 55.8352,168.165 58.5,170.5C 64.4228,177.185 63.0894,181.185 54.5,182.5C 49.5094,175.186 46.1761,167.186 44.5,158.5C 44.5905,155.848 43.9238,153.515 42.5,151.5C 42.3578,139.482 42.6912,127.482 43.5,115.5C 44.1174,115.389 44.6174,115.056 45,114.5C 45.696,111.522 46.196,108.522 46.5,105.5C 48.8337,103.824 49.8337,101.491 49.5,98.5C 49.6596,96.847 50.3263,95.5137 51.5,94.5C 52.9063,94.0269 53.573,93.0269 53.5,91.5C 53.695,89.097 54.8616,87.4304 57,86.5C 59.8333,88 62,90.1667 63.5,93C 58.7409,98.685 55.7409,105.185 54.5,112.5 Z"/></g>
<g><path style="opacity:1" fill="#eebe11" d="M 211.5,90.5 C 211.427,92.0269 212.094,93.0269 213.5,93.5C 215.851,96.8683 217.684,100.535 219,104.5C 220.143,107.777 220.977,111.11 221.5,114.5C 221.41,117.152 222.076,119.485 223.5,121.5C 225.839,136.944 224.339,151.944 219,166.5C 216.016,171.95 213.516,177.616 211.5,183.5C 207.829,182.671 205.162,180.504 203.5,177C 205.044,173.413 206.711,169.913 208.5,166.5C 210.655,164.383 211.655,161.716 211.5,158.5C 212.301,156.958 212.634,155.292 212.5,153.5C 214.068,151.189 214.902,148.522 215,145.5C 215.167,142 215.333,138.5 215.5,135C 215.707,129.898 215.04,125.065 213.5,120.5C 213.59,117.848 212.924,115.515 211.5,113.5C 209.925,106.026 206.925,99.1928 202.5,93C 203.963,90.3688 205.963,88.2021 208.5,86.5C 210.288,87.2826 211.288,88.6159 211.5,90.5 Z"/></g>
<g><path style="opacity:1" fill="#1f1f21" d="M 28.5,195.5 C 26.1904,192.898 24.3571,189.898 23,186.5C 22.4727,182.354 21.306,178.521 19.5,175C 20.1667,173.667 20.8333,172.333 21.5,171C 20.5054,145.908 20.1721,120.741 20.5,95.5C 19.5,95.5 18.5,95.5 17.5,95.5C 19.1006,88.9705 21.7673,82.9705 25.5,77.5C 27.4171,76.8836 28.5838,75.5503 29,73.5C 29.6924,74.0253 30.1924,74.6919 30.5,75.5C 29.8625,79.6996 29.1959,83.8663 28.5,88C 29.5862,96.2958 29.5862,104.629 28.5,113C 27.8333,113.667 27.1667,114.333 26.5,115C 27.2961,116.092 27.9628,117.259 28.5,118.5C 26.8138,120.725 25.8138,123.225 25.5,126C 25.5394,127.894 26.2061,128.894 27.5,129C 26.6662,137.581 26.6662,146.081 27.5,154.5C 26.8333,155.833 26.1667,157.167 25.5,158.5C 26.2247,160.075 27.2247,161.742 28.5,163.5C 28.0609,165.104 27.3943,166.604 26.5,168C 26.6301,169.059 27.1301,169.892 28,170.5C 28.4997,178.827 28.6664,187.16 28.5,195.5 Z"/></g>
<g><path style="opacity:1" fill="#161617" d="M 17.5,95.5 C 18.5,95.5 19.5,95.5 20.5,95.5C 20.1721,120.741 20.5054,145.908 21.5,171C 20.8333,172.333 20.1667,173.667 19.5,175C 21.306,178.521 22.4727,182.354 23,186.5C 24.3571,189.898 26.1904,192.898 28.5,195.5C 29.7589,199.025 31.7589,202.025 34.5,204.5C 36.697,208.238 39.3637,211.571 42.5,214.5C 46.539,219.54 51.2056,223.873 56.5,227.5C 62.2754,232.562 68.6087,236.895 75.5,240.5C 80.2049,243.405 85.2049,245.738 90.5,247.5C 96.4104,250.546 102.744,252.213 109.5,252.5C 124.955,256.133 140.621,256.467 156.5,253.5C 158.857,253.337 161.19,253.503 163.5,254C 162.142,254.934 160.808,255.768 159.5,256.5C 158.5,256.5 157.5,256.5 156.5,256.5C 143.187,257.358 129.853,257.691 116.5,257.5C 113.026,256.475 109.36,255.808 105.5,255.5C 102.06,254.489 98.7263,253.489 95.5,252.5C 93.064,251.129 90.3973,250.129 87.5,249.5C 71.0465,243.372 56.7132,234.039 44.5,221.5C 42.5698,217.9 39.9031,214.9 36.5,212.5C 15.9423,185.459 7.27559,154.793 10.5,120.5C 11.7682,118.095 12.4349,115.428 12.5,112.5C 13.4093,106.513 15.076,100.847 17.5,95.5 Z"/></g>
<g><path style="opacity:0.8" fill="#bcbcbc" d="M 263.5,89.5 C 266.353,95.0734 268.02,101.073 268.5,107.5C 265.918,101.849 264.251,95.8491 263.5,89.5 Z"/></g>
<g><path style="opacity:1" fill="#afafaf" d="M 268.5,107.5 C 269.989,111.236 270.656,115.236 270.5,119.5C 270.5,120.5 270.5,121.5 270.5,122.5C 268.969,117.75 268.302,112.75 268.5,107.5 Z"/></g>
<g><path style="opacity:1" fill="#a28111" d="M 43.5,115.5 C 42.6912,127.482 42.3578,139.482 42.5,151.5C 41.3412,141.008 41.1745,130.341 42,119.5C 42.21,117.942 42.71,116.609 43.5,115.5 Z"/></g>
<g><path style="opacity:1" fill="#8f8f8f" d="M 205.5,117.5 C 209.457,129.486 209.457,141.486 205.5,153.5C 206.306,147.356 206.973,141.189 207.5,135C 207.066,129.131 206.399,123.298 205.5,117.5 Z"/></g>
<g><path style="opacity:1" fill="#866b0f" d="M 213.5,120.5 C 215.04,125.065 215.707,129.898 215.5,135C 215.333,138.5 215.167,142 215,145.5C 214.902,148.522 214.068,151.189 212.5,153.5C 214.74,142.565 215.073,131.565 213.5,120.5 Z"/></g>
<g><path style="opacity:1" fill="#2a2a2c" d="M 37.5,60.5 C 38.0431,60.56 38.3764,60.8933 38.5,61.5C 37.6872,62.8139 36.6872,63.9805 35.5,65C 35.7183,69.2291 37.0516,73.3958 39.5,77.5C 37.66,82.5152 35.9933,87.5152 34.5,92.5C 35.5481,94.4104 35.5481,96.2438 34.5,98C 35.0944,98.4643 35.7611,98.631 36.5,98.5C 30.1621,113.877 27.9954,129.877 30,146.5C 30.1729,150.719 31.1729,154.719 33,158.5C 27.0338,129.04 33.0338,102.373 51,78.5C 51.1667,78.8333 51.3333,79.1667 51.5,79.5C 31.5239,109.012 26.8573,140.679 37.5,174.5C 36.6236,174.369 35.9569,174.702 35.5,175.5C 35.7265,177.671 36.0598,179.838 36.5,182C 33.8333,183.333 33.8333,184.667 36.5,186C 35.8333,186.667 35.1667,187.333 34.5,188C 35.7385,193.186 35.7385,198.686 34.5,204.5C 31.7589,202.025 29.7589,199.025 28.5,195.5C 28.6664,187.16 28.4997,178.827 28,170.5C 27.1301,169.892 26.6301,169.059 26.5,168C 27.3943,166.604 28.0609,165.104 28.5,163.5C 27.2247,161.742 26.2247,160.075 25.5,158.5C 26.1667,157.167 26.8333,155.833 27.5,154.5C 26.6662,146.081 26.6662,137.581 27.5,129C 26.2061,128.894 25.5394,127.894 25.5,126C 25.8138,123.225 26.8138,120.725 28.5,118.5C 27.9628,117.259 27.2961,116.092 26.5,115C 27.1667,114.333 27.8333,113.667 28.5,113C 29.5862,104.629 29.5862,96.2958 28.5,88C 29.1959,83.8663 29.8625,79.6996 30.5,75.5C 30.1924,74.6919 29.6924,74.0253 29,73.5C 28.5838,75.5503 27.4171,76.8836 25.5,77.5C 28.2734,70.9478 32.2734,65.2812 37.5,60.5 Z"/></g>
<g><path style="opacity:1" fill="#575757" d="M 267.5,122.5 C 268.167,131.5 268.833,140.5 269.5,149.5C 269.784,151.415 269.451,153.081 268.5,154.5C 268.649,153.448 268.483,152.448 268,151.5C 267.768,152.737 267.268,153.737 266.5,154.5C 267.404,143.865 267.737,133.198 267.5,122.5 Z"/></g>
<g><path style="opacity:1" fill="#717171" d="M 210.5,146.5 C 210.59,149.152 209.924,151.485 208.5,153.5C 208.41,150.848 209.076,148.515 210.5,146.5 Z"/></g>
<g><path style="opacity:1" fill="#7e650f" d="M 42.5,151.5 C 43.9238,153.515 44.5905,155.848 44.5,158.5C 42.8372,156.562 42.1706,154.228 42.5,151.5 Z"/></g>
<g><path style="opacity:1" fill="#272729" d="M 242.5,190.5 C 241.215,192.062 239.715,193.396 238,194.5C 235.274,192.872 234.774,190.706 236.5,188C 234.022,184.764 233.356,181.264 234.5,177.5C 233.833,176.5 233.167,175.5 232.5,174.5C 233.5,172.5 234.5,170.5 235.5,168.5C 234.812,167.145 233.812,166.145 232.5,165.5C 232.826,160.963 234.326,156.963 237,153.5C 237.333,150.833 237.667,148.167 238,145.5C 239.797,149.48 240.963,153.647 241.5,158C 240.401,167.142 240.234,176.309 241,185.5C 241.423,186.956 242.256,187.456 243.5,187C 245.382,184.022 246.882,180.855 248,177.5C 247.816,182.534 245.983,186.868 242.5,190.5 Z"/></g>
<g><path style="opacity:1" fill="#7b6210" d="M 211.5,158.5 C 211.655,161.716 210.655,164.383 208.5,166.5C 209.129,163.603 210.129,160.936 211.5,158.5 Z"/></g>
<g><path style="opacity:1" fill="#9e7f12" d="M 54.5,161.5 C 56.5918,164.088 57.9251,167.088 58.5,170.5C 55.8352,168.165 54.5018,165.165 54.5,161.5 Z"/></g>
<g><path style="opacity:1" fill="#6c6c6c" d="M 4.5,165.5 C 6.07394,167.102 6.74061,169.102 6.5,171.5C 4.92606,169.898 4.25939,167.898 4.5,165.5 Z"/></g>
<g><path style="opacity:1" fill="#363739" d="M 37.5,174.5 C 40.4191,179.337 43.0857,184.337 45.5,189.5C 44.5,189.5 43.5,189.5 42.5,189.5C 42.8206,186.12 41.8206,185.287 39.5,187C 40.428,187.388 41.0946,188.055 41.5,189C 40.1011,193.804 40.4344,198.47 42.5,203C 41.8333,203.667 41.1667,204.333 40.5,205C 42.7778,207.958 43.4445,211.124 42.5,214.5C 39.3637,211.571 36.697,208.238 34.5,204.5C 35.7385,198.686 35.7385,193.186 34.5,188C 35.1667,187.333 35.8333,186.667 36.5,186C 33.8333,184.667 33.8333,183.333 36.5,182C 36.0598,179.838 35.7265,177.671 35.5,175.5C 35.9569,174.702 36.6236,174.369 37.5,174.5 Z"/></g>
<g><path style="opacity:1" fill="#866c16" d="M 189.5,189.5 C 194.833,195.167 200.167,200.833 205.5,206.5C 205.5,206.833 205.5,207.167 205.5,207.5C 205.5,208.167 205.167,208.5 204.5,208.5C 199.56,202.222 194.227,196.222 188.5,190.5C 188.5,189.833 188.833,189.5 189.5,189.5 Z"/></g>
<g><path style="opacity:1" fill="#d2ab16" d="M 76.5,190.5 C 77.8333,190.5 78.5,191.167 78.5,192.5C 73.5,197.833 68.5,203.167 63.5,208.5C 61.5,208.5 60.5,207.5 60.5,205.5C 65.8333,200.5 71.1667,195.5 76.5,190.5 Z"/></g>
<g><path style="opacity:1" fill="#0d0b08" d="M 78.5,192.5 C 83.4419,195.981 88.4419,199.481 93.5,203C 97.624,205.397 101.957,207.231 106.5,208.5C 109.505,210.277 112.838,211.277 116.5,211.5C 142.88,216.073 166.214,209.74 186.5,192.5C 192.167,197.5 197.5,202.833 202.5,208.5C 202.631,209.239 202.464,209.906 202,210.5C 198.642,213.031 195.476,215.698 192.5,218.5C 186.492,221.837 180.492,225.17 174.5,228.5C 165.603,231.675 156.603,234.342 147.5,236.5C 132.936,238.488 118.603,237.488 104.5,233.5C 98.5772,231.215 92.5772,228.881 86.5,226.5C 83.8695,224.847 81.2028,223.181 78.5,221.5C 74.2341,218.355 69.9008,215.188 65.5,212C 64.1772,211.184 63.5106,210.017 63.5,208.5C 68.5,203.167 73.5,197.833 78.5,192.5 Z"/></g>
<g><path style="opacity:1" fill="#333436" d="M 232.5,165.5 C 233.812,166.145 234.812,167.145 235.5,168.5C 234.5,170.5 233.5,172.5 232.5,174.5C 233.167,175.5 233.833,176.5 234.5,177.5C 233.356,181.264 234.022,184.764 236.5,188C 234.774,190.706 235.274,192.872 238,194.5C 239.715,193.396 241.215,192.062 242.5,190.5C 242.002,193.326 240.669,195.66 238.5,197.5C 234.206,203.129 229.539,208.463 224.5,213.5C 223.811,212.226 222.977,212.226 222,213.5C 221.667,212.833 221.333,212.167 221,211.5C 220.725,205.68 219.725,200.013 218,194.5C 217.617,195.056 217.117,195.389 216.5,195.5C 221.721,187.206 226.387,178.54 230.5,169.5C 231.167,168.167 231.833,166.833 232.5,165.5 Z"/></g>
<g><path style="opacity:1" fill="#eec314" d="M 188.5,190.5 C 194.227,196.222 199.56,202.222 204.5,208.5C 203.833,208.5 203.167,208.5 202.5,208.5C 197.5,202.833 192.167,197.5 186.5,192.5C 186.833,191.5 187.5,190.833 188.5,190.5 Z"/></g>
<g><path style="opacity:1" fill="#d5d5d5" d="M 186.5,79.5 C 186.973,80.9063 187.973,81.573 189.5,81.5C 193.09,86.9364 196.923,92.2698 201,97.5C 209.289,112.779 212.455,129.112 210.5,146.5C 209.076,148.515 208.41,150.848 208.5,153.5C 207.3,160.565 204.967,167.232 201.5,173.5C 197.491,178.863 193.491,184.196 189.5,189.5C 188.833,189.5 188.5,189.833 188.5,190.5C 187.5,190.833 186.833,191.5 186.5,192.5C 166.214,209.74 142.88,216.073 116.5,211.5C 113.495,209.723 110.162,208.723 106.5,208.5C 101.957,207.231 97.624,205.397 93.5,203C 88.4419,199.481 83.4419,195.981 78.5,192.5C 78.5,191.167 77.8333,190.5 76.5,190.5C 71.8559,184.342 67.3559,178.009 63,171.5C 59.3866,163.828 56.8866,155.828 55.5,147.5C 55.3336,139.493 55.5003,131.493 56,123.5C 56.3333,123.167 56.6667,122.833 57,122.5C 57.1712,130.011 57.6712,137.345 58.5,144.5C 64.5467,179.045 84.5467,200.545 118.5,209C 162.373,213.098 191.373,194.598 205.5,153.5C 209.457,141.486 209.457,129.486 205.5,117.5C 204.416,111.839 202.416,106.506 199.5,101.5C 189.863,85.5251 176.53,73.8584 159.5,66.5C 157.485,65.0762 155.152,64.4095 152.5,64.5C 149.432,64.4533 146.432,63.9533 143.5,63C 105.377,59.3879 78.3774,74.8879 62.5,109.5C 60.7341,113.285 59.2341,117.285 58,121.5C 57.5034,119.19 57.3367,116.857 57.5,114.5C 59.1534,108.188 61.6534,102.188 65,96.5C 68.721,91.2963 72.5543,86.2963 76.5,81.5C 77.8333,81.5 78.5,80.8333 78.5,79.5C 104.92,57.885 134.253,53.385 166.5,66C 173.359,70.2591 180.025,74.7591 186.5,79.5 Z"/></g>
<g><path style="opacity:1" fill="#2b194d" d="M 159.5,162.5 C 160.461,159.574 161.127,156.574 161.5,153.5C 157.818,153.335 154.152,153.501 150.5,154C 149.947,155.878 148.947,157.378 147.5,158.5C 147.869,156.559 148.536,154.725 149.5,153C 154.155,152.501 158.821,152.334 163.5,152.5C 163.248,156.327 161.915,159.66 159.5,162.5 Z"/></g>
<g><path style="opacity:1" fill="#907b03" d="M 159.5,127.5 C 159.5,133.833 159.5,140.167 159.5,146.5C 161.5,146.5 163.5,146.5 165.5,146.5C 165.5,147.833 165.5,149.167 165.5,150.5C 159.5,150.5 153.5,150.5 147.5,150.5C 147.5,149.167 147.5,147.833 147.5,146.5C 149.833,146.5 152.167,146.5 154.5,146.5C 152.631,147.165 150.631,147.831 148.5,148.5C 153.833,149.833 159.167,149.833 164.5,148.5C 162.604,147.534 160.604,147.201 158.5,147.5C 158.176,140.646 158.509,133.979 159.5,127.5 Z"/></g>
<g><path style="opacity:1" fill="#685b05" d="M 88.5,148.5 C 87.713,150.104 86.3797,150.771 84.5,150.5C 85.5137,149.326 86.847,148.66 88.5,148.5 Z"/></g>
<g><path style="opacity:1" fill="#e2c603" d="M 126.5,123.5 C 130.234,123.323 133.901,123.656 137.5,124.5C 138.167,125.833 139.167,126.833 140.5,127.5C 141.938,134.247 141.605,140.914 139.5,147.5C 132.693,152.019 126.527,151.352 121,145.5C 120.517,144.552 120.351,143.552 120.5,142.5C 120.283,137.77 120.617,133.103 121.5,128.5C 123.5,127.167 125.167,125.5 126.5,123.5 Z"/></g>
<g><path style="opacity:1" fill="#49287d" d="M 122.5,164.5 C 123.058,165.79 124.058,166.623 125.5,167C 129.689,167.812 133.689,167.645 137.5,166.5C 141.603,164.784 144.936,162.117 147.5,158.5C 148.947,157.378 149.947,155.878 150.5,154C 154.152,153.501 157.818,153.335 161.5,153.5C 161.127,156.574 160.461,159.574 159.5,162.5C 149.649,176.401 136.315,180.901 119.5,176C 109.901,171.407 103.568,164.074 100.5,154C 102.289,150.435 102.956,146.602 102.5,142.5C 105.5,142.5 108.5,142.5 111.5,142.5C 112.012,151.525 115.679,158.858 122.5,164.5 Z"/></g>
<g><path style="opacity:1" fill="#221539" d="M 122.5,164.5 C 127.414,165.707 132.414,166.374 137.5,166.5C 133.689,167.645 129.689,167.812 125.5,167C 124.058,166.623 123.058,165.79 122.5,164.5 Z"/></g>
<g><path style="opacity:1" fill="#d0b405" d="M 73.5,131.5 C 73.19,134.713 73.5233,137.713 74.5,140.5C 75.3274,145.65 78.3274,147.65 83.5,146.5C 85.9118,146.306 86.9118,144.973 86.5,142.5C 88.0418,141.699 89.7085,141.366 91.5,141.5C 92.0922,144.631 91.0922,146.964 88.5,148.5C 86.847,148.66 85.5137,149.326 84.5,150.5C 77.4176,152.394 72.7509,150.061 70.5,143.5C 72.0207,139.64 73.0207,135.64 73.5,131.5 Z"/></g>
<g><path style="opacity:1" fill="#3d3304" d="M 100.5,140.5 C 103.167,140.5 105.833,140.5 108.5,140.5C 106.393,141.468 104.059,141.802 101.5,141.5C 101.81,144.713 101.477,147.713 100.5,150.5C 100.5,147.167 100.5,143.833 100.5,140.5 Z"/></g>
<g><path style="opacity:1" fill="#9d8703" d="M 111.5,124.5 C 106.833,124.5 102.167,124.5 97.5,124.5C 97.1688,132.86 97.5021,141.193 98.5,149.5C 99.1674,146.358 99.834,143.358 100.5,140.5C 100.5,143.833 100.5,147.167 100.5,150.5C 98.8333,150.5 97.1667,150.5 95.5,150.5C 95.3336,141.494 95.5002,132.494 96,123.5C 100.413,122.368 104.913,122.201 109.5,123C 110.416,123.278 111.082,123.778 111.5,124.5 Z"/></g>
<g><path style="opacity:1" fill="#9d8505" d="M 188.5,123.5 C 189.568,122.566 190.901,122.232 192.5,122.5C 192.5,131.833 192.5,141.167 192.5,150.5C 190.265,150.795 188.265,150.461 186.5,149.5C 188.167,149.5 189.833,149.5 191.5,149.5C 191.5,141.167 191.5,132.833 191.5,124.5C 190.791,123.596 189.791,123.263 188.5,123.5 Z"/></g>
<g><path style="opacity:1" fill="#756405" d="M 177.5,123.5 C 175.833,123.5 174.167,123.5 172.5,123.5C 172.5,132.167 172.5,140.833 172.5,149.5C 173.5,149.5 174.5,149.5 175.5,149.5C 175.17,143.132 175.504,136.798 176.5,130.5C 177.919,131.005 178.585,132.005 178.5,133.5C 177.883,133.389 177.383,133.056 177,132.5C 176.501,138.491 176.334,144.491 176.5,150.5C 174.833,150.5 173.167,150.5 171.5,150.5C 171.5,141.167 171.5,131.833 171.5,122.5C 173.735,122.205 175.735,122.539 177.5,123.5 Z"/></g>
<g><path style="opacity:1" fill="#4c4d51" d="M 45.5,189.5 C 49.4307,194.77 53.7641,199.77 58.5,204.5C 57.5041,204.586 56.6708,204.252 56,203.5C 55.6905,204.766 55.1905,205.933 54.5,207C 57.1523,209.781 57.819,212.947 56.5,216.5C 57.0056,219.391 58.0056,222.058 59.5,224.5C 58.0065,225.141 57.0065,226.141 56.5,227.5C 51.2056,223.873 46.539,219.54 42.5,214.5C 43.4445,211.124 42.7778,207.958 40.5,205C 41.1667,204.333 41.8333,203.667 42.5,203C 40.4344,198.47 40.1011,193.804 41.5,189C 41.0946,188.055 40.428,187.388 39.5,187C 41.8206,185.287 42.8206,186.12 42.5,189.5C 43.5,189.5 44.5,189.5 45.5,189.5 Z"/></g>
<g><path style="opacity:1" fill="#525358" d="M 224.5,213.5 C 222.909,216.431 220.909,219.098 218.5,221.5C 215.518,223.474 212.518,225.474 209.5,227.5C 207.922,226.934 206.588,225.934 205.5,224.5C 206.627,218.681 206.627,213.015 205.5,207.5C 205.5,207.167 205.5,206.833 205.5,206.5C 208.806,202.527 212.473,198.86 216.5,195.5C 217.117,195.389 217.617,195.056 218,194.5C 219.725,200.013 220.725,205.68 221,211.5C 221.333,212.167 221.667,212.833 222,213.5C 222.977,212.226 223.811,212.226 224.5,213.5 Z"/></g>
<g><path style="opacity:1" fill="#836911" d="M 177.5,205.5 C 176.167,205.833 174.833,206.167 173.5,206.5C 174.538,204.481 175.872,204.147 177.5,205.5 Z"/></g>
<g><path style="opacity:1" fill="#f0c011" d="M 116.5,215.5 C 121.748,217.022 127.248,217.689 133,217.5C 139.074,217.659 144.908,216.993 150.5,215.5C 151.391,214.89 152.391,214.557 153.5,214.5C 156.152,214.59 158.485,213.924 160.5,212.5C 164.645,210.264 168.978,208.264 173.5,206.5C 174.833,206.167 176.167,205.833 177.5,205.5C 178.793,207.296 180.293,208.963 182,210.5C 182.688,211.332 182.521,211.998 181.5,212.5C 160.163,224.507 137.496,228.507 113.5,224.5C 111.485,223.076 109.152,222.41 106.5,222.5C 98.5858,220.71 91.2525,217.544 84.5,213C 83.5494,212.282 83.3828,211.449 84,210.5C 85.5,209 87,207.5 88.5,206C 97.4485,209.817 106.782,212.984 116.5,215.5 Z"/></g>
<g><path style="opacity:1" fill="#888888" d="M 106.5,208.5 C 110.162,208.723 113.495,209.723 116.5,211.5C 112.838,211.277 109.505,210.277 106.5,208.5 Z"/></g>
<g><path style="opacity:0.71" fill="#d7d7d7" d="M 270.5,119.5 C 270.833,119.5 271.167,119.5 271.5,119.5C 271.5,130.167 271.5,140.833 271.5,151.5C 259.167,219.167 219.167,259.167 151.5,271.5C 147.833,271.5 144.167,271.5 140.5,271.5C 140.5,271.167 140.5,270.833 140.5,270.5C 151.312,269.698 161.979,268.031 172.5,265.5C 226.642,247.689 258.642,210.689 268.5,154.5C 269.451,153.081 269.784,151.415 269.5,149.5C 270.347,140.528 270.68,131.528 270.5,122.5C 270.5,121.5 270.5,120.5 270.5,119.5 Z"/></g>
<g><path style="opacity:1" fill="#a0a0a0" d="M 36.5,212.5 C 39.9031,214.9 42.5698,217.9 44.5,221.5C 41.0969,219.1 38.4302,216.1 36.5,212.5 Z"/></g>
<g><path style="opacity:1" fill="#987912" d="M 160.5,212.5 C 158.485,213.924 156.152,214.59 153.5,214.5C 155.515,213.076 157.848,212.41 160.5,212.5 Z"/></g>
<g><path style="opacity:1" fill="#7e650e" d="M 116.5,215.5 C 127.833,216.833 139.167,216.833 150.5,215.5C 144.908,216.993 139.074,217.659 133,217.5C 127.248,217.689 121.748,217.022 116.5,215.5 Z"/></g>
<g><path style="opacity:1" fill="#808081" d="M 238.5,197.5 C 233.346,206.993 226.68,215.326 218.5,222.5C 218.5,222.167 218.5,221.833 218.5,221.5C 220.909,219.098 222.909,216.431 224.5,213.5C 229.539,208.463 234.206,203.129 238.5,197.5 Z"/></g>
<g><path style="opacity:1" fill="#727379" d="M 205.5,207.5 C 206.627,213.015 206.627,218.681 205.5,224.5C 206.588,225.934 207.922,226.934 209.5,227.5C 205.376,231.281 200.709,234.281 195.5,236.5C 194.548,235.548 193.548,234.548 192.5,233.5C 193.711,232.28 193.711,231.113 192.5,230C 194.525,228.806 194.859,227.306 193.5,225.5C 194.115,223.884 195.115,222.551 196.5,221.5C 195.148,220.476 193.815,219.476 192.5,218.5C 195.476,215.698 198.642,213.031 202,210.5C 202.464,209.906 202.631,209.239 202.5,208.5C 203.167,208.5 203.833,208.5 204.5,208.5C 205.167,208.5 205.5,208.167 205.5,207.5 Z"/></g>
<g><path style="opacity:1" fill="#707177" d="M 58.5,204.5 C 58.8417,205.338 59.5084,205.672 60.5,205.5C 60.5,207.5 61.5,208.5 63.5,208.5C 63.5106,210.017 64.1772,211.184 65.5,212C 69.9008,215.188 74.2341,218.355 78.5,221.5C 74.5654,221.918 74.0654,222.918 77,224.5C 77.7517,227.894 77.5851,231.227 76.5,234.5C 77.0253,235.192 77.6919,235.692 78.5,236C 77.3595,236.741 77.3595,237.575 78.5,238.5C 77.3984,239.176 76.3984,239.842 75.5,240.5C 68.6087,236.895 62.2754,232.562 56.5,227.5C 57.0065,226.141 58.0065,225.141 59.5,224.5C 58.0056,222.058 57.0056,219.391 56.5,216.5C 57.819,212.947 57.1523,209.781 54.5,207C 55.1905,205.933 55.6905,204.766 56,203.5C 56.6708,204.252 57.5041,204.586 58.5,204.5 Z"/></g>
<g><path style="opacity:1" fill="#7b630f" d="M 106.5,222.5 C 109.152,222.41 111.485,223.076 113.5,224.5C 110.848,224.59 108.515,223.924 106.5,222.5 Z"/></g>
<g><path style="opacity:1" fill="#89898f" d="M 192.5,218.5 C 193.815,219.476 195.148,220.476 196.5,221.5C 195.115,222.551 194.115,223.884 193.5,225.5C 194.859,227.306 194.525,228.806 192.5,230C 193.711,231.113 193.711,232.28 192.5,233.5C 193.548,234.548 194.548,235.548 195.5,236.5C 192.562,238.977 189.229,240.977 185.5,242.5C 184.522,242.023 183.689,241.357 183,240.5C 182.667,241.167 182.333,241.833 182,242.5C 182.624,239.134 183.791,235.801 185.5,232.5C 183.458,231.497 183.125,230.163 184.5,228.5C 183.264,227.643 181.931,226.977 180.5,226.5C 179.304,226.846 179.304,227.346 180.5,228C 178.527,228.495 176.527,228.662 174.5,228.5C 180.492,225.17 186.492,221.837 192.5,218.5 Z"/></g>
<g><path style="opacity:1" fill="#afb1b8" d="M 218.5,221.5 C 218.5,221.833 218.5,222.167 218.5,222.5C 206.38,233.897 192.38,242.23 176.5,247.5C 176.083,246.876 175.416,246.543 174.5,246.5C 167.718,249.788 160.718,250.621 153.5,249C 153.189,245.828 154.189,242.828 156.5,240C 155.09,239.632 154.09,238.799 153.5,237.5C 151.604,236.534 149.604,236.201 147.5,236.5C 156.603,234.342 165.603,231.675 174.5,228.5C 176.527,228.662 178.527,228.495 180.5,228C 179.304,227.346 179.304,226.846 180.5,226.5C 181.931,226.977 183.264,227.643 184.5,228.5C 183.125,230.163 183.458,231.497 185.5,232.5C 183.791,235.801 182.624,239.134 182,242.5C 182.333,241.833 182.667,241.167 183,240.5C 183.689,241.357 184.522,242.023 185.5,242.5C 189.229,240.977 192.562,238.977 195.5,236.5C 200.709,234.281 205.376,231.281 209.5,227.5C 212.518,225.474 215.518,223.474 218.5,221.5 Z"/></g>
<g><path style="opacity:1" fill="#909298" d="M 78.5,221.5 C 81.2028,223.181 83.8695,224.847 86.5,226.5C 85.6236,226.369 84.9569,226.702 84.5,227.5C 86.9048,231.17 88.5714,235.17 89.5,239.5C 88.9747,240.192 88.3081,240.692 87.5,241C 89.4812,241.605 89.8146,242.605 88.5,244C 89.305,245.113 89.9717,246.279 90.5,247.5C 85.2049,245.738 80.2049,243.405 75.5,240.5C 76.3984,239.842 77.3984,239.176 78.5,238.5C 77.3595,237.575 77.3595,236.741 78.5,236C 77.6919,235.692 77.0253,235.192 76.5,234.5C 77.5851,231.227 77.7517,227.894 77,224.5C 74.0654,222.918 74.5654,221.918 78.5,221.5 Z"/></g>
<g><path style="opacity:1" fill="#262626" d="M 268.5,154.5 C 258.642,210.689 226.642,247.689 172.5,265.5C 172.611,264.883 172.944,264.383 173.5,264C 171.19,263.503 168.857,263.337 166.5,263.5C 168.78,261.777 171.447,261.111 174.5,261.5C 176.898,261.741 178.898,261.074 180.5,259.5C 228.312,240.223 256.979,205.223 266.5,154.5C 267.268,153.737 267.768,152.737 268,151.5C 268.483,152.448 268.649,153.448 268.5,154.5 Z"/></g>
<g><path style="opacity:1" fill="#afb4b9" d="M 86.5,226.5 C 92.5772,228.881 98.5772,231.215 104.5,233.5C 103.325,233.281 102.325,233.614 101.5,234.5C 104.382,236.282 104.715,238.115 102.5,240C 107.595,242.412 108.261,245.412 104.5,249C 106.183,250.286 107.849,251.453 109.5,252.5C 102.744,252.213 96.4104,250.546 90.5,247.5C 89.9717,246.279 89.305,245.113 88.5,244C 89.8146,242.605 89.4812,241.605 87.5,241C 88.3081,240.692 88.9747,240.192 89.5,239.5C 88.5714,235.17 86.9048,231.17 84.5,227.5C 84.9569,226.702 85.6236,226.369 86.5,226.5 Z"/></g>
<g><path style="opacity:1" fill="#1b1b1b" d="M 147.5,2.5 C 149.806,2.99255 152.139,3.32588 154.5,3.5C 157.627,4.58075 160.96,5.24742 164.5,5.5C 165.167,5.5 165.833,5.5 166.5,5.5C 171.255,7.61258 176.255,9.27925 181.5,10.5C 183.042,11.3007 184.708,11.634 186.5,11.5C 188.033,13.2451 190.033,14.2451 192.5,14.5C 220.345,28.3479 242.012,48.6812 257.5,75.5C 257.343,76.8734 257.51,78.2068 258,79.5C 259.766,83.0617 261.6,86.395 263.5,89.5C 264.251,95.8491 265.918,101.849 268.5,107.5C 268.302,112.75 268.969,117.75 270.5,122.5C 270.68,131.528 270.347,140.528 269.5,149.5C 268.833,140.5 268.167,131.5 267.5,122.5C 266.251,115.723 264.918,109.056 263.5,102.5C 263.59,99.8478 262.924,97.5145 261.5,95.5C 258.837,87.1703 255.337,79.1703 251,71.5C 235.204,46.1999 213.704,27.5332 186.5,15.5C 183.855,13.6896 180.855,12.6896 177.5,12.5C 157.499,5.95523 137.166,3.95523 116.5,6.5C 111.5,6.49833 106.833,7.49833 102.5,9.5C 99.8478,9.40953 97.5145,10.0762 95.5,11.5C 90.8354,12.0569 86.5021,13.3902 82.5,15.5C 78.4896,17.025 74.4896,18.8584 70.5,21C 16.1725,54.1684 -5.82749,102.335 4.5,165.5C 4.25939,167.898 4.92606,169.898 6.5,171.5C 16.3652,205.697 36.6985,231.697 67.5,249.5C 71.5694,252.868 76.2361,255.201 81.5,256.5C 84.63,258.127 87.9634,259.46 91.5,260.5C 93.5145,261.924 95.8478,262.59 98.5,262.5C 102.533,264.322 106.867,265.322 111.5,265.5C 118.934,267.051 126.6,267.718 134.5,267.5C 140.167,267.333 145.833,267.167 151.5,267C 152.737,266.768 153.737,266.268 154.5,265.5C 158.817,265.917 162.817,265.25 166.5,263.5C 168.857,263.337 171.19,263.503 173.5,264C 172.944,264.383 172.611,264.883 172.5,265.5C 161.979,268.031 151.312,269.698 140.5,270.5C 129.446,270.608 118.446,269.941 107.5,268.5C 103.761,266.898 99.7607,265.898 95.5,265.5C 48.9392,250.437 18.4392,219.437 4,172.5C 2.41113,165.379 0.911125,158.379 -0.5,151.5C -0.5,140.833 -0.5,130.167 -0.5,119.5C 2.91176,93.5858 12.9118,70.5858 29.5,50.5C 35.614,43.9302 41.9473,37.5969 48.5,31.5C 54.9652,26.7625 61.6319,22.2625 68.5,18C 73.0476,17.0595 77.0476,15.0595 80.5,12C 82.8127,11.338 85.146,10.838 87.5,10.5C 90.3973,9.87096 93.064,8.87096 95.5,7.5C 96.5676,6.56552 97.901,6.23219 99.5,6.5C 115.307,3.19585 131.307,1.86252 147.5,2.5 Z"/></g>
<g><path style="opacity:1" fill="#e1c303" d="M 165.5,123.5 C 165.5,124.5 165.5,125.5 165.5,126.5C 163.265,126.205 161.265,126.539 159.5,127.5C 158.509,133.979 158.176,140.646 158.5,147.5C 160.604,147.201 162.604,147.534 164.5,148.5C 159.167,149.833 153.833,149.833 148.5,148.5C 150.631,147.831 152.631,147.165 154.5,146.5C 154.5,139.833 154.5,133.167 154.5,126.5C 152.5,126.5 150.5,126.5 148.5,126.5C 148.5,125.5 148.5,124.5 148.5,123.5C 154.167,123.5 159.833,123.5 165.5,123.5 Z"/></g>
<g><path style="opacity:1" fill="#847104" d="M 137.5,143.5 C 136.886,146.766 134.886,148.099 131.5,147.5C 130.167,147.333 128.833,147.167 127.5,147C 126.748,146.329 126.414,145.496 126.5,144.5C 130.358,147.202 134.024,146.869 137.5,143.5 Z"/></g>
<g><path style="opacity:1" fill="#6d5e06" d="M 86.5,142.5 C 86.9118,144.973 85.9118,146.306 83.5,146.5C 84.5116,145.128 85.5116,143.795 86.5,142.5 Z"/></g>
<g><path style="opacity:1" fill="#c3a904" d="M 188.5,123.5 C 189.791,123.263 190.791,123.596 191.5,124.5C 189.541,130.75 188.874,137.416 189.5,144.5C 188.5,144.5 187.5,144.5 186.5,144.5C 186.5,145.833 186.5,147.167 186.5,148.5C 183.073,143.984 180.407,138.984 178.5,133.5C 180.256,132.448 180.923,130.781 180.5,128.5C 182.674,131.515 184.341,134.849 185.5,138.5C 185.628,140.09 186.295,141.423 187.5,142.5C 188.496,136.202 188.83,129.868 188.5,123.5 Z"/></g>
<g><path style="opacity:1" fill="#917c06" d="M 140.5,127.5 C 141.79,128.058 142.623,129.058 143,130.5C 144.424,136.922 143.257,142.589 139.5,147.5C 141.605,140.914 141.938,134.247 140.5,127.5 Z"/></g>
<g><path style="opacity:1" fill="#7a6906" d="M 90.5,127.5 C 81.5599,120.801 74.7265,122.467 70,132.5C 69.4213,136.203 69.588,139.869 70.5,143.5C 66.645,135.494 68.3117,128.661 75.5,123C 79.9255,122.209 84.2589,122.543 88.5,124C 89.8228,124.816 90.4894,125.983 90.5,127.5 Z"/></g>
<g><path style="opacity:1" fill="#473c06" d="M 125.5,131.5 C 125.294,135.898 125.627,140.232 126.5,144.5C 125.094,144.027 124.427,143.027 124.5,141.5C 124.187,137.958 124.521,134.625 125.5,131.5 Z"/></g>
<g><path style="opacity:1" fill="#746406" d="M 121.5,128.5 C 120.617,133.103 120.283,137.77 120.5,142.5C 119.353,138.354 119.186,134.02 120,129.5C 120.383,128.944 120.883,128.611 121.5,128.5 Z"/></g>
<g><path style="opacity:1" fill="#ebce03" d="M 177.5,123.5 C 177.427,125.027 178.094,126.027 179.5,126.5C 179.328,127.492 179.662,128.158 180.5,128.5C 180.923,130.781 180.256,132.448 178.5,133.5C 178.585,132.005 177.919,131.005 176.5,130.5C 175.504,136.798 175.17,143.132 175.5,149.5C 174.5,149.5 173.5,149.5 172.5,149.5C 172.5,140.833 172.5,132.167 172.5,123.5C 174.167,123.5 175.833,123.5 177.5,123.5 Z"/></g>
<g><path style="opacity:1" fill="#554805" d="M 76.5,128.5 C 74.7476,132.227 74.081,136.227 74.5,140.5C 73.5233,137.713 73.19,134.713 73.5,131.5C 74.1667,130.167 75.1667,129.167 76.5,128.5 Z"/></g>
<g><path style="opacity:1" fill="#211d05" d="M 165.5,123.5 C 166.451,124.919 166.784,126.585 166.5,128.5C 164.5,128.5 162.5,128.5 160.5,128.5C 160.5,134.167 160.5,139.833 160.5,145.5C 162.415,145.216 164.081,145.549 165.5,146.5C 163.5,146.5 161.5,146.5 159.5,146.5C 159.5,140.167 159.5,133.833 159.5,127.5C 161.265,126.539 163.265,126.205 165.5,126.5C 165.5,125.5 165.5,124.5 165.5,123.5 Z"/></g>
<g><path style="opacity:1" fill="#7b6a07" d="M 90.5,127.5 C 91.4511,128.919 91.7845,130.585 91.5,132.5C 89.8333,132.5 88.1667,132.5 86.5,132.5C 86.5,131.5 86.5,130.5 86.5,129.5C 87.4674,130.806 88.8007,131.473 90.5,131.5C 90.5,130.167 90.5,128.833 90.5,127.5 Z"/></g>
<g><path style="opacity:1" fill="#8c7a07" d="M 113.5,125.5 C 115.959,126.874 116.959,129.04 116.5,132C 116.333,133.5 116.167,135 116,136.5C 115.583,137.756 114.75,138.423 113.5,138.5C 116.158,134.135 116.158,129.801 113.5,125.5 Z"/></g>
<g><path style="opacity:1" fill="#f5d501" d="M 191.5,124.5 C 191.5,132.833 191.5,141.167 191.5,149.5C 189.833,149.5 188.167,149.5 186.5,149.5C 186.5,149.167 186.5,148.833 186.5,148.5C 186.5,147.167 186.5,145.833 186.5,144.5C 187.5,144.5 188.5,144.5 189.5,144.5C 188.874,137.416 189.541,130.75 191.5,124.5 Z"/></g>
<g><path style="opacity:1" fill="#0e0b02" d="M 137.5,130.5 C 138.736,134.701 138.736,139.035 137.5,143.5C 134.024,146.869 130.358,147.202 126.5,144.5C 125.627,140.232 125.294,135.898 125.5,131.5C 129.066,126.575 133.066,126.242 137.5,130.5 Z"/></g>
<g><path style="opacity:1" fill="#7b6a06" d="M 137.5,130.5 C 133.066,126.242 129.066,126.575 125.5,131.5C 124.521,134.625 124.187,137.958 124.5,141.5C 120.836,131.005 124.502,126.171 135.5,127C 136.823,127.816 137.489,128.983 137.5,130.5 Z"/></g>
<g><path style="opacity:1" fill="#e5c703" d="M 90.5,127.5 C 90.5,128.833 90.5,130.167 90.5,131.5C 88.8007,131.473 87.4674,130.806 86.5,129.5C 85.5,128.833 84.5,128.167 83.5,127.5C 82.7261,126.853 81.7261,126.52 80.5,126.5C 78.6455,126.34 77.3121,127.007 76.5,128.5C 75.1667,129.167 74.1667,130.167 73.5,131.5C 73.0207,135.64 72.0207,139.64 70.5,143.5C 69.588,139.869 69.4213,136.203 70,132.5C 74.7265,122.467 81.5599,120.801 90.5,127.5 Z"/></g>
<g><path style="opacity:1" fill="#463c06" d="M 83.5,127.5 C 81.0971,127.448 78.7638,127.781 76.5,128.5C 77.3121,127.007 78.6455,126.34 80.5,126.5C 81.7261,126.52 82.7261,126.853 83.5,127.5 Z"/></g>
<g><path style="opacity:1" fill="#5c5008" d="M 177.5,123.5 C 178.906,123.973 179.573,124.973 179.5,126.5C 178.094,126.027 177.427,125.027 177.5,123.5 Z"/></g>
<g><path style="opacity:1" fill="#564a03" d="M 188.5,123.5 C 188.83,129.868 188.496,136.202 187.5,142.5C 186.295,141.423 185.628,140.09 185.5,138.5C 186.117,138.611 186.617,138.944 187,139.5C 187.173,133.984 187.673,128.651 188.5,123.5 Z"/></g>
<g><path style="opacity:1" fill="#756506" d="M 126.5,123.5 C 125.167,125.5 123.5,127.167 121.5,128.5C 122.167,125.833 123.833,124.167 126.5,123.5 Z"/></g>
<g><path style="opacity:1" fill="#e7ca02" d="M 111.5,124.5 C 112.492,124.328 113.158,124.662 113.5,125.5C 116.158,129.801 116.158,134.135 113.5,138.5C 111.989,139.502 110.322,140.169 108.5,140.5C 105.833,140.5 103.167,140.5 100.5,140.5C 99.834,143.358 99.1674,146.358 98.5,149.5C 97.5021,141.193 97.1688,132.86 97.5,124.5C 102.167,124.5 106.833,124.5 111.5,124.5 Z"/></g>
<g><path style="opacity:1" fill="#241d0b" d="M 108.5,127.5 C 108.833,127.5 109.167,127.5 109.5,127.5C 112.401,130.969 112.067,133.969 108.5,136.5C 105.833,136.5 103.167,136.5 100.5,136.5C 100.5,133.5 100.5,130.5 100.5,127.5C 103.167,127.5 105.833,127.5 108.5,127.5 Z"/></g>
<g><path style="opacity:1" fill="#392067" d="M 108.5,129.5 C 109.139,130.097 109.472,130.93 109.5,132C 109.316,133.376 108.649,134.209 107.5,134.5C 105.833,134.5 104.167,134.5 102.5,134.5C 102.5,132.833 102.5,131.167 102.5,129.5C 104.5,129.5 106.5,129.5 108.5,129.5 Z"/></g>
<g><path style="opacity:1" fill="#927d04" d="M 108.5,127.5 C 105.833,127.5 103.167,127.5 100.5,127.5C 100.5,130.5 100.5,133.5 100.5,136.5C 99.5206,133.375 99.1872,130.042 99.5,126.5C 102.713,126.19 105.713,126.523 108.5,127.5 Z"/></g>
<g><path style="opacity:1" fill="#130922" d="M 108.5,129.5 C 106.5,129.5 104.5,129.5 102.5,129.5C 102.5,131.167 102.5,132.833 102.5,134.5C 104.167,134.5 105.833,134.5 107.5,134.5C 105.735,135.461 103.735,135.795 101.5,135.5C 101.5,133.167 101.5,130.833 101.5,128.5C 104.059,128.198 106.393,128.532 108.5,129.5 Z"/></g>
<g><path style="opacity:1" fill="#968102" d="M 109.5,127.5 C 111.95,127.874 112.95,129.374 112.5,132C 113.068,135.263 111.734,136.763 108.5,136.5C 112.067,133.969 112.401,130.969 109.5,127.5 Z"/></g>
<g><path style="opacity:1" fill="#534804" d="M 165.5,123.5 C 159.833,123.5 154.167,123.5 148.5,123.5C 148.5,124.5 148.5,125.5 148.5,126.5C 150.5,126.5 152.5,126.5 154.5,126.5C 154.5,133.167 154.5,139.833 154.5,146.5C 152.167,146.5 149.833,146.5 147.5,146.5C 149.265,145.539 151.265,145.205 153.5,145.5C 153.5,139.5 153.5,133.5 153.5,127.5C 151.5,127.5 149.5,127.5 147.5,127.5C 147.5,125.833 147.5,124.167 147.5,122.5C 153.69,122.177 159.69,122.51 165.5,123.5 Z"/></g>
<g><path style="opacity:1" fill="#736205" d="M 126.5,123.5 C 129.64,122.359 132.973,122.192 136.5,123C 137.056,123.383 137.389,123.883 137.5,124.5C 133.901,123.656 130.234,123.323 126.5,123.5 Z"/></g>
<g><path style="opacity:1" fill="#878787" d="M 62.5,109.5 C 59.1424,120.902 57.8091,132.569 58.5,144.5C 57.6712,137.345 57.1712,130.011 57,122.5C 56.6667,122.833 56.3333,123.167 56,123.5C 55.5003,131.493 55.3336,139.493 55.5,147.5C 54.3434,139.344 54.1768,131.01 55,122.5C 55.7823,119.69 56.6156,117.023 57.5,114.5C 57.3367,116.857 57.5034,119.19 58,121.5C 59.2341,117.285 60.7341,113.285 62.5,109.5 Z"/></g>
<g><path style="opacity:1" fill="#6b550e" d="M 221.5,114.5 C 222.924,116.515 223.59,118.848 223.5,121.5C 222.076,119.485 221.41,117.152 221.5,114.5 Z"/></g>
<g><path style="opacity:1" fill="#21123e" d="M 160.5,112.5 C 162.472,115.084 163.472,118.084 163.5,121.5C 158.637,121.819 153.97,121.486 149.5,120.5C 153.884,120.826 158.217,120.492 162.5,119.5C 161.054,117.382 160.387,115.049 160.5,112.5 Z"/></g>
<g><path style="opacity:1" fill="#241444" d="M 101.5,117.5 C 101.5,118.5 101.5,119.5 101.5,120.5C 105.167,120.5 108.833,120.5 112.5,120.5C 108.366,121.485 104.032,121.818 99.5,121.5C 99.2291,119.62 99.8958,118.287 101.5,117.5 Z"/></g>
<g><path style="opacity:1" fill="#6f6f6f" d="M 257.5,112.5 C 258.957,117.598 259.624,122.931 259.5,128.5C 258.194,123.384 257.527,118.051 257.5,112.5 Z"/></g>
<g><path style="opacity:1" fill="#65510d" d="M 211.5,113.5 C 212.924,115.515 213.59,117.848 213.5,120.5C 212.076,118.485 211.41,116.152 211.5,113.5 Z"/></g>
<g><path style="opacity:1" fill="#868686" d="M 12.5,112.5 C 12.4349,115.428 11.7682,118.095 10.5,120.5C 10.2938,117.505 10.9605,114.838 12.5,112.5 Z"/></g>
<g><path style="opacity:1" fill="#47380c" d="M 54.5,112.5 C 54.5905,115.152 53.9238,117.485 52.5,119.5C 52.4095,116.848 53.0762,114.515 54.5,112.5 Z"/></g>
<g><path style="opacity:1" fill="#a18111" d="M 46.5,105.5 C 46.196,108.522 45.696,111.522 45,114.5C 44.6174,115.056 44.1174,115.389 43.5,115.5C 43.7234,111.838 44.7234,108.505 46.5,105.5 Z"/></g>
<g><path style="opacity:1" fill="#2a1947" d="M 112.5,102.5 C 109.471,105.859 106.471,109.192 103.5,112.5C 105.105,107.896 108.105,104.562 112.5,102.5 Z"/></g>
<g><path style="opacity:1" fill="#9f8012" d="M 49.5,98.5 C 49.8337,101.491 48.8337,103.824 46.5,105.5C 46.9348,102.843 47.9348,100.509 49.5,98.5 Z"/></g>
<g><path style="opacity:1" fill="#8a8a8a" d="M 261.5,95.5 C 262.924,97.5145 263.59,99.8478 263.5,102.5C 262.076,100.485 261.41,98.1522 261.5,95.5 Z"/></g>
<g><path style="opacity:1" fill="#49297d" d="M 160.5,112.5 C 160.387,115.049 161.054,117.382 162.5,119.5C 158.217,120.492 153.884,120.826 149.5,120.5C 147.593,114.259 143.593,109.925 137.5,107.5C 133.354,106.353 129.02,106.186 124.5,107C 123.058,107.377 122.058,108.21 121.5,109.5C 117.3,112.349 114.3,116.016 112.5,120.5C 108.833,120.5 105.167,120.5 101.5,120.5C 101.5,119.5 101.5,118.5 101.5,117.5C 101.12,115.302 101.787,113.635 103.5,112.5C 106.471,109.192 109.471,105.859 112.5,102.5C 115.32,99.9193 118.654,98.0859 122.5,97C 135.561,93.9296 146.894,96.9296 156.5,106C 158.232,107.972 159.565,110.139 160.5,112.5 Z"/></g>
<g><path style="opacity:1" fill="#201438" d="M 137.5,107.5 C 132.009,107.15 126.676,107.816 121.5,109.5C 122.058,108.21 123.058,107.377 124.5,107C 129.02,106.186 133.354,106.353 137.5,107.5 Z"/></g>
<g><path style="opacity:1" fill="#866b11" d="M 53.5,91.5 C 53.573,93.0269 52.9063,94.0269 51.5,94.5C 51.427,92.9731 52.0937,91.9731 53.5,91.5 Z"/></g>
<g><path style="opacity:1" fill="#866b10" d="M 211.5,90.5 C 212.906,90.9731 213.573,91.9731 213.5,93.5C 212.094,93.0269 211.427,92.0269 211.5,90.5 Z"/></g>
<g><path style="opacity:1" fill="#3b3b3d" d="M 233.5,131.5 C 231.806,111.077 224.806,92.7438 212.5,76.5C 212.435,76.0618 212.601,75.7284 213,75.5C 226.986,91.7582 233.819,110.425 233.5,131.5 Z"/></g>
<g><path style="opacity:1" fill="#2a2a2c" d="M 230.5,63.5 C 234.878,67.8993 238.545,72.8993 241.5,78.5C 241.154,79.6956 240.654,79.6956 240,78.5C 239.667,79.8333 239.333,81.1667 239,82.5C 238.812,93.5463 238.312,104.546 237.5,115.5C 237.975,118.722 238.975,121.722 240.5,124.5C 239.869,128.034 239.202,131.534 238.5,135C 239.885,136.965 239.718,138.798 238,140.5C 237.585,123.513 233.752,107.513 226.5,92.5C 227.496,92.4142 228.329,92.7476 229,93.5C 229.645,92.354 230.478,91.354 231.5,90.5C 230.415,89.2159 229.748,87.7159 229.5,86C 228.763,83.5585 228.763,81.2252 229.5,79C 229.01,74.8877 228.01,70.8877 226.5,67C 226.878,65.3651 227.544,63.8651 228.5,62.5C 229.183,62.8627 229.85,63.1961 230.5,63.5 Z"/></g>
<g><path style="opacity:1" fill="#3f4043" d="M 52.5,47.5 C 53.6772,49.1026 53.5106,50.436 52,51.5C 50.3488,56.8131 50.1822,62.1464 51.5,67.5C 49.1084,69.5598 49.1084,71.7265 51.5,74C 52.448,74.4828 53.448,74.6495 54.5,74.5C 53.0813,75.4511 51.4147,75.7845 49.5,75.5C 49.6495,76.552 49.4828,77.552 49,78.5C 43.571,84.3537 39.4044,91.0204 36.5,98.5C 35.7611,98.631 35.0944,98.4643 34.5,98C 35.5481,96.2438 35.5481,94.4104 34.5,92.5C 35.9933,87.5152 37.66,82.5152 39.5,77.5C 37.0516,73.3958 35.7183,69.2291 35.5,65C 36.6872,63.9805 37.6872,62.8139 38.5,61.5C 38.3764,60.8933 38.0431,60.56 37.5,60.5C 37.427,58.9731 38.0937,57.9731 39.5,57.5C 39.369,58.2389 39.5357,58.9056 40,59.5C 43.8695,55.1564 48.0362,51.1564 52.5,47.5 Z"/></g>
<g><path style="opacity:1" fill="#e6bc15" d="M 200.5,65.5 C 202.179,65.2852 203.179,65.9519 203.5,67.5C 198.5,71.8333 193.833,76.5 189.5,81.5C 187.973,81.573 186.973,80.9063 186.5,79.5C 191.5,75.1667 196.167,70.5 200.5,65.5 Z"/></g>
<g><path style="opacity:1" fill="#d2ac16" d="M 64.5,65.5 C 69.5,69.8333 74.1667,74.5 78.5,79.5C 78.5,80.8333 77.8333,81.5 76.5,81.5C 71.5,77.1667 66.8333,72.5 62.5,67.5C 62.5,66.1667 63.1667,65.5 64.5,65.5 Z"/></g>
<g><path style="opacity:1" fill="#3e3e41" d="M 214.5,46.5 C 220.559,51.5572 225.893,57.2238 230.5,63.5C 229.85,63.1961 229.183,62.8627 228.5,62.5C 227.544,63.8651 226.878,65.3651 226.5,67C 228.01,70.8877 229.01,74.8877 229.5,79C 228.763,81.2252 228.763,83.5585 229.5,86C 229.748,87.7159 230.415,89.2159 231.5,90.5C 230.478,91.354 229.645,92.354 229,93.5C 228.329,92.7476 227.496,92.4142 226.5,92.5C 222.907,85.6426 218.573,79.3093 213.5,73.5C 215.429,73.7692 217.095,73.2692 218.5,72C 215.27,66.4285 214.603,60.7619 216.5,55C 216.097,53.5272 215.43,52.1939 214.5,51C 215.413,49.5861 215.413,48.0861 214.5,46.5 Z"/></g>
<g><path style="opacity:1" fill="#69696d" d="M 71.5,33.5 C 70.5721,36.4535 69.7388,39.4535 69,42.5C 68.6667,42.1667 68.3333,41.8333 68,41.5C 65.6748,45.5951 65.1748,49.5951 66.5,53.5C 65.9747,54.1924 65.3081,54.6924 64.5,55C 65.6364,56.1451 66.6364,57.3117 67.5,58.5C 67.6567,59.8734 67.49,61.2068 67,62.5C 65.583,63.0779 64.7496,64.0779 64.5,65.5C 63.1667,65.5 62.5,66.1667 62.5,67.5C 60.9382,67.7329 59.6049,68.3995 58.5,69.5C 57.8401,68.036 57.5068,66.3693 57.5,64.5C 58.3341,60.2535 59.3341,56.0868 60.5,52C 57.8693,50.3091 58.2027,49.1424 61.5,48.5C 60.5,47.8333 59.5,47.1667 58.5,46.5C 60.264,44.8704 61.264,42.8704 61.5,40.5C 64.7959,38.1792 68.1292,35.8458 71.5,33.5 Z"/></g>
<g><path style="opacity:1" fill="#57585b" d="M 61.5,40.5 C 61.264,42.8704 60.264,44.8704 58.5,46.5C 59.5,47.1667 60.5,47.8333 61.5,48.5C 58.2027,49.1424 57.8693,50.3091 60.5,52C 59.3341,56.0868 58.3341,60.2535 57.5,64.5C 57.5068,66.3693 57.8401,68.036 58.5,69.5C 57.396,71.3885 56.0627,73.0552 54.5,74.5C 53.448,74.6495 52.448,74.4828 51.5,74C 49.1084,71.7265 49.1084,69.5598 51.5,67.5C 50.1822,62.1464 50.3488,56.8131 52,51.5C 53.5106,50.436 53.6772,49.1026 52.5,47.5C 55.1897,44.8154 58.1897,42.4821 61.5,40.5 Z"/></g>
<g><path style="opacity:1" fill="#5a5b5f" d="M 204.5,38.5 C 208.146,40.8171 211.48,43.4838 214.5,46.5C 215.413,48.0861 215.413,49.5861 214.5,51C 215.43,52.1939 216.097,53.5272 216.5,55C 214.603,60.7619 215.27,66.4285 218.5,72C 217.095,73.2692 215.429,73.7692 213.5,73.5C 212.432,72.5655 211.099,72.2322 209.5,72.5C 208.167,70.5 206.5,68.8333 204.5,67.5C 203.793,59.5901 202.793,51.7567 201.5,44C 202.131,41.901 203.131,40.0677 204.5,38.5 Z"/></g>
<g><path style="opacity:1" fill="#8d8e94" d="M 176.5,24.5 C 179.833,25.8333 183.167,27.1667 186.5,28.5C 186.5,29.8333 186.5,31.1667 186.5,32.5C 189.487,32.4223 190.153,33.589 188.5,36C 190.872,39.0831 191.538,42.4164 190.5,46C 192.25,47.7542 192.917,49.9208 192.5,52.5C 191.5,52.5 190.5,52.5 189.5,52.5C 185.218,49.9701 180.884,47.6368 176.5,45.5C 182.445,41.8994 183.112,37.2328 178.5,31.5C 178.709,30.914 179.043,30.414 179.5,30C 174.373,29.5259 174.373,28.5259 179.5,27C 177.881,26.7645 176.881,25.9311 176.5,24.5 Z"/></g>
<g><path style="opacity:1" fill="#74757a" d="M 186.5,28.5 C 192.822,31.3261 198.822,34.6595 204.5,38.5C 203.131,40.0677 202.131,41.901 201.5,44C 202.793,51.7567 203.793,59.5901 204.5,67.5C 204.167,67.5 203.833,67.5 203.5,67.5C 203.179,65.9519 202.179,65.2852 200.5,65.5C 198.45,62.7658 196.784,59.7658 195.5,56.5C 193.435,55.1433 191.435,53.81 189.5,52.5C 190.5,52.5 191.5,52.5 192.5,52.5C 192.917,49.9208 192.25,47.7542 190.5,46C 191.538,42.4164 190.872,39.0831 188.5,36C 190.153,33.589 189.487,32.4223 186.5,32.5C 186.5,31.1667 186.5,29.8333 186.5,28.5 Z"/></g>
<g><path style="opacity:1" fill="#a9abb2" d="M 110.5,19.5 C 108.438,20.7763 106.104,21.6097 103.5,22C 105.158,22.7253 105.658,23.892 105,25.5C 103.339,28.7444 101.172,31.5777 98.5,34C 98.7205,35.7985 99.0539,37.6318 99.5,39.5C 95.6893,40.7376 95.6893,41.4042 99.5,41.5C 96.8539,43.2525 93.8539,44.2525 90.5,44.5C 86.5335,43.7459 85.8668,41.9126 88.5,39C 88.7451,37.0886 88.7451,35.0886 88.5,33C 91.6486,31.0673 92.982,28.2339 92.5,24.5C 98.142,21.9201 104.142,20.2534 110.5,19.5 Z"/></g>
<g><path style="opacity:1" fill="#0e0d0a" d="M 141.5,37.5 C 148.331,37.6391 154.998,38.6391 161.5,40.5C 166.341,42.3359 171.341,44.0026 176.5,45.5C 180.884,47.6368 185.218,49.9701 189.5,52.5C 191.435,53.81 193.435,55.1433 195.5,56.5C 196.784,59.7658 198.45,62.7658 200.5,65.5C 196.167,70.5 191.5,75.1667 186.5,79.5C 180.025,74.7591 173.359,70.2591 166.5,66C 134.253,53.385 104.92,57.885 78.5,79.5C 74.1667,74.5 69.5,69.8333 64.5,65.5C 64.7496,64.0779 65.583,63.0779 67,62.5C 67.49,61.2068 67.6567,59.8734 67.5,58.5C 70.8708,56.1542 74.2041,53.8208 77.5,51.5C 82.0004,49.4174 86.3338,47.0841 90.5,44.5C 93.8539,44.2525 96.8539,43.2525 99.5,41.5C 104.344,39.8645 109.344,38.8645 114.5,38.5C 123.485,37.8342 132.485,37.5009 141.5,37.5 Z"/></g>
<g><path style="opacity:1" fill="#a48412" d="M 91.5,55.5 C 90.5144,57.4077 88.8477,58.4077 86.5,58.5C 87.6594,56.7497 89.326,55.7497 91.5,55.5 Z"/></g>
<g><path style="opacity:1" fill="#6a540f" d="M 174.5,55.5 C 176.027,55.427 177.027,56.0937 177.5,57.5C 175.973,57.573 174.973,56.9063 174.5,55.5 Z"/></g>
<g><path style="opacity:1" fill="#c9a213" d="M 115.5,47.5 C 115.389,48.1174 115.056,48.6174 114.5,49C 112.167,49.3333 109.833,49.6667 107.5,50C 108.167,50.3333 108.833,50.6667 109.5,51C 103.294,51.9975 97.2944,53.4975 91.5,55.5C 98.9668,51.4642 106.967,48.7975 115.5,47.5 Z"/></g>
<g><path style="opacity:1" fill="#53420d" d="M 147.5,46.5 C 150.152,46.4095 152.485,47.0762 154.5,48.5C 151.848,48.5905 149.515,47.9238 147.5,46.5 Z"/></g>
<g><path style="opacity:1" fill="#f4c311" d="M 142.5,46.5 C 144.167,46.5 145.833,46.5 147.5,46.5C 149.515,47.9238 151.848,48.5905 154.5,48.5C 161.095,50.7854 167.761,53.1187 174.5,55.5C 174.973,56.9063 175.973,57.573 177.5,57.5C 179.533,57.9488 181.2,58.9488 182.5,60.5C 180.167,62.5 177.833,64.5 175.5,66.5C 167.868,62.5892 159.868,59.5892 151.5,57.5C 149.189,55.9318 146.522,55.0984 143.5,55C 136.321,54.1787 129.321,54.3454 122.5,55.5C 117.813,55.5508 113.479,56.5508 109.5,58.5C 102.489,59.9225 95.9885,62.5891 90,66.5C 87.3688,65.0367 85.2021,63.0367 83.5,60.5C 84.0047,59.0815 85.0047,58.4148 86.5,58.5C 88.8477,58.4077 90.5144,57.4077 91.5,55.5C 97.2944,53.4975 103.294,51.9975 109.5,51C 108.833,50.6667 108.167,50.3333 107.5,50C 109.833,49.6667 112.167,49.3333 114.5,49C 115.056,48.6174 115.389,48.1174 115.5,47.5C 124.482,46.7817 133.482,46.4484 142.5,46.5 Z"/></g>
<g><path style="opacity:1" fill="#8f8f8f" d="M 152.5,64.5 C 155.152,64.4095 157.485,65.0762 159.5,66.5C 156.848,66.5905 154.515,65.9238 152.5,64.5 Z"/></g>
<g><path style="opacity:1" fill="#5b480e" d="M 122.5,55.5 C 123.5,55.5 124.5,55.5 125.5,55.5C 120.37,56.9131 115.037,57.9131 109.5,58.5C 113.479,56.5508 117.813,55.5508 122.5,55.5 Z"/></g>
<g><path style="opacity:1" fill="#967811" d="M 122.5,55.5 C 129.321,54.3454 136.321,54.1787 143.5,55C 146.522,55.0984 149.189,55.9318 151.5,57.5C 142.915,55.9216 134.249,55.2549 125.5,55.5C 124.5,55.5 123.5,55.5 122.5,55.5 Z"/></g>
<g><path style="opacity:1" fill="#745c0f" d="M 142.5,46.5 C 133.482,46.4484 124.482,46.7817 115.5,47.5C 120.401,45.9481 125.568,45.2814 131,45.5C 135.015,45.5012 138.849,45.8345 142.5,46.5 Z"/></g>
<g><path style="opacity:1" fill="#47484c" d="M 141.5,36.5 C 141.5,36.8333 141.5,37.1667 141.5,37.5C 132.485,37.5009 123.485,37.8342 114.5,38.5C 114.5,38.1667 114.5,37.8333 114.5,37.5C 123.479,36.7345 132.479,36.4011 141.5,36.5 Z"/></g>
<g><path style="opacity:1" fill="#929298" d="M 92.5,24.5 C 92.982,28.2339 91.6486,31.0673 88.5,33C 88.7451,35.0886 88.7451,37.0886 88.5,39C 85.8668,41.9126 86.5335,43.7459 90.5,44.5C 86.3338,47.0841 82.0004,49.4174 77.5,51.5C 76.7611,51.631 76.0944,51.4643 75.5,51C 78.2862,48.9786 77.9528,47.4786 74.5,46.5C 78.1361,41.3009 79.4694,35.9676 78.5,30.5C 79.2905,29.5987 80.2905,28.9321 81.5,28.5C 85.0205,26.7709 88.6872,25.4375 92.5,24.5 Z"/></g>
<g><path style="opacity:1" fill="#7e7e85" d="M 78.5,30.5 C 79.4694,35.9676 78.1361,41.3009 74.5,46.5C 77.9528,47.4786 78.2862,48.9786 75.5,51C 76.0944,51.4643 76.7611,51.631 77.5,51.5C 74.2041,53.8208 70.8708,56.1542 67.5,58.5C 66.6364,57.3117 65.6364,56.1451 64.5,55C 65.3081,54.6924 65.9747,54.1924 66.5,53.5C 65.1748,49.5951 65.6748,45.5951 68,41.5C 68.3333,41.8333 68.6667,42.1667 69,42.5C 69.7388,39.4535 70.5721,36.4535 71.5,33.5C 73.7128,32.2271 76.0462,31.2271 78.5,30.5 Z"/></g>
<g><path style="opacity:1" fill="#bec2c8" d="M 150.5,18.5 C 152.565,18.5172 154.565,18.8505 156.5,19.5C 158.148,20.9265 160.148,21.7599 162.5,22C 161.167,22.3333 159.833,22.6667 158.5,23C 159.646,23.6449 160.646,24.4783 161.5,25.5C 162.086,25.2907 162.586,24.9574 163,24.5C 164.167,26.8333 165.333,29.1667 166.5,31.5C 165.429,33.3255 166.096,34.4921 168.5,35C 167.552,35.4828 166.552,35.6495 165.5,35.5C 165.286,37.1439 165.62,38.6439 166.5,40C 164.866,40.4935 163.199,40.6602 161.5,40.5C 154.998,38.6391 148.331,37.6391 141.5,37.5C 141.5,37.1667 141.5,36.8333 141.5,36.5C 146.125,36.2416 150.625,36.2416 155,36.5C 155.167,36.1667 155.333,35.8333 155.5,35.5C 154.271,34.7189 152.938,34.2189 151.5,34C 153.41,33.5917 154.41,32.4251 154.5,30.5C 153.533,28.2383 152.866,25.905 152.5,23.5C 151.325,23.719 150.325,23.3857 149.5,22.5C 150.246,21.2638 150.579,19.9305 150.5,18.5 Z"/></g>
<g><path style="opacity:1" fill="#2a2a2b" d="M 81.5,25.5 C 80.1667,26.5 80.1667,27.5 81.5,28.5C 80.2905,28.9321 79.2905,29.5987 78.5,30.5C 76.0462,31.2271 73.7128,32.2271 71.5,33.5C 68.1292,35.8458 64.7959,38.1792 61.5,40.5C 58.1897,42.4821 55.1897,44.8154 52.5,47.5C 48.0362,51.1564 43.8695,55.1564 40,59.5C 39.5357,58.9056 39.369,58.2389 39.5,57.5C 51.0102,43.4284 65.0102,32.7617 81.5,25.5 Z"/></g>
<g><path style="opacity:1" fill="#a8abb2" d="M 156.5,19.5 C 163.277,20.7597 169.944,22.4264 176.5,24.5C 176.881,25.9311 177.881,26.7645 179.5,27C 174.373,28.5259 174.373,29.5259 179.5,30C 179.043,30.414 178.709,30.914 178.5,31.5C 183.112,37.2328 182.445,41.8994 176.5,45.5C 171.341,44.0026 166.341,42.3359 161.5,40.5C 163.199,40.6602 164.866,40.4935 166.5,40C 165.62,38.6439 165.286,37.1439 165.5,35.5C 166.552,35.6495 167.552,35.4828 168.5,35C 166.096,34.4921 165.429,33.3255 166.5,31.5C 165.333,29.1667 164.167,26.8333 163,24.5C 162.586,24.9574 162.086,25.2907 161.5,25.5C 160.646,24.4783 159.646,23.6449 158.5,23C 159.833,22.6667 161.167,22.3333 162.5,22C 160.148,21.7599 158.148,20.9265 156.5,19.5 Z"/></g>
<g><path style="opacity:1" fill="#818181" d="M 189.5,26.5 C 191.967,26.7549 193.967,27.7549 195.5,29.5C 193.033,29.2451 191.033,28.2451 189.5,26.5 Z"/></g>
<g><path style="opacity:1" fill="#c0c3cd" d="M 118.5,18.5 C 116.708,19.3091 114.708,19.8091 112.5,20C 114.715,20.1705 116.715,20.8372 118.5,22C 113.608,22.1204 113.275,23.4538 117.5,26C 116.377,27.0437 115.044,27.7104 113.5,28C 114.552,29.7165 113.886,30.7165 111.5,31C 111.833,31.3333 112.167,31.6667 112.5,32C 104.442,35.8787 105.109,37.712 114.5,37.5C 114.5,37.8333 114.5,38.1667 114.5,38.5C 109.344,38.8645 104.344,39.8645 99.5,41.5C 95.6893,41.4042 95.6893,40.7376 99.5,39.5C 99.0539,37.6318 98.7205,35.7985 98.5,34C 101.172,31.5777 103.339,28.7444 105,25.5C 105.658,23.892 105.158,22.7253 103.5,22C 106.104,21.6097 108.438,20.7763 110.5,19.5C 112.948,18.5269 115.615,18.1936 118.5,18.5 Z"/></g>
<g><path style="opacity:1" fill="#8f8f8f" d="M 183.5,23.5 C 185.967,23.7549 187.967,24.7549 189.5,26.5C 187.033,26.2451 185.033,25.2451 183.5,23.5 Z"/></g>
<g><path style="opacity:1" fill="#d7dbe4" d="M 150.5,18.5 C 150.579,19.9305 150.246,21.2638 149.5,22.5C 150.325,23.3857 151.325,23.719 152.5,23.5C 152.866,25.905 153.533,28.2383 154.5,30.5C 154.41,32.4251 153.41,33.5917 151.5,34C 152.938,34.2189 154.271,34.7189 155.5,35.5C 155.333,35.8333 155.167,36.1667 155,36.5C 150.625,36.2416 146.125,36.2416 141.5,36.5C 132.479,36.4011 123.479,36.7345 114.5,37.5C 105.109,37.712 104.442,35.8787 112.5,32C 112.167,31.6667 111.833,31.3333 111.5,31C 113.886,30.7165 114.552,29.7165 113.5,28C 115.044,27.7104 116.377,27.0437 117.5,26C 113.275,23.4538 113.608,22.1204 118.5,22C 116.715,20.8372 114.715,20.1705 112.5,20C 114.708,19.8091 116.708,19.3091 118.5,18.5C 129.11,17.2955 139.777,17.2955 150.5,18.5 Z"/></g>
<g><path style="opacity:1" fill="#8e8e8e" d="M 100.5,18.5 C 97.4954,20.2766 94.1621,21.2766 90.5,21.5C 93.5046,19.7234 96.8379,18.7234 100.5,18.5 Z"/></g>
<g><path style="opacity:1" fill="#898989" d="M 148.5,14.5 C 156.315,14.5775 163.648,16.2441 170.5,19.5C 163.074,17.6887 155.741,16.0221 148.5,14.5 Z"/></g>
<g><path style="opacity:1" fill="#777777" d="M 114.5,15.5 C 110.114,17.2828 105.447,18.2828 100.5,18.5C 104.886,16.7172 109.553,15.7172 114.5,15.5 Z"/></g>
<g><path style="opacity:1" fill="#6e6e6e" d="M 177.5,12.5 C 180.855,12.6896 183.855,13.6896 186.5,15.5C 183.084,15.4725 180.084,14.4725 177.5,12.5 Z"/></g>
<g><path style="opacity:1" fill="#8e8e8e" d="M 148.5,14.5 C 137.154,14.4861 125.821,14.8194 114.5,15.5C 120.93,13.975 127.596,13.3083 134.5,13.5C 139.346,13.5008 144.012,13.8341 148.5,14.5 Z"/></g>
<g><path style="opacity:1" fill="#8b8b8b" d="M 95.5,11.5 C 91.4979,13.6098 87.1646,14.9431 82.5,15.5C 86.5021,13.3902 90.8354,12.0569 95.5,11.5 Z"/></g>
<g><path style="opacity:1" fill="#878787" d="M 116.5,6.5 C 112.117,8.23011 107.45,9.23011 102.5,9.5C 106.833,7.49833 111.5,6.49833 116.5,6.5 Z"/></g>
<g><path style="opacity:1" fill="#d2d5de" d="M 104.5,233.5 C 118.603,237.488 132.936,238.488 147.5,236.5C 149.604,236.201 151.604,236.534 153.5,237.5C 154.09,238.799 155.09,239.632 156.5,240C 154.189,242.828 153.189,245.828 153.5,249C 160.718,250.621 167.718,249.788 174.5,246.5C 175.416,246.543 176.083,246.876 176.5,247.5C 173.833,248.5 171.167,249.5 168.5,250.5C 164.298,251.132 160.298,252.132 156.5,253.5C 140.621,256.467 124.955,256.133 109.5,252.5C 107.849,251.453 106.183,250.286 104.5,249C 108.261,245.412 107.595,242.412 102.5,240C 104.715,238.115 104.382,236.282 101.5,234.5C 102.325,233.614 103.325,233.281 104.5,233.5 Z"/></g>
<g><path style="opacity:1" fill="#9c9c9c" d="M 67.5,249.5 C 72.7326,250.783 77.3993,253.116 81.5,256.5C 76.2361,255.201 71.5694,252.868 67.5,249.5 Z"/></g>
<g><path style="opacity:1" fill="#818181" d="M 87.5,249.5 C 90.3973,250.129 93.064,251.129 95.5,252.5C 92.284,252.655 89.6174,251.655 87.5,249.5 Z"/></g>
<g><path style="opacity:1" fill="#808080" d="M 184.5,248.5 C 180.936,250.919 176.936,252.586 172.5,253.5C 176.064,251.081 180.064,249.414 184.5,248.5 Z"/></g>
<g><path style="opacity:1" fill="#474747" d="M 168.5,250.5 C 163.641,252.295 163.641,253.295 168.5,253.5C 165.916,255.472 162.916,256.472 159.5,256.5C 160.808,255.768 162.142,254.934 163.5,254C 161.19,253.503 158.857,253.337 156.5,253.5C 160.298,252.132 164.298,251.132 168.5,250.5 Z"/></g>
<g><path style="opacity:1" fill="#858585" d="M 105.5,255.5 C 109.36,255.808 113.026,256.475 116.5,257.5C 112.511,257.884 108.845,257.217 105.5,255.5 Z"/></g>
<g><path style="opacity:1" fill="#444444" d="M 156.5,256.5 C 149.066,258.051 141.4,258.718 133.5,258.5C 127.657,258.499 121.99,258.166 116.5,257.5C 129.853,257.691 143.187,257.358 156.5,256.5 Z"/></g>
<g><path style="opacity:1" fill="#818181" d="M 91.5,260.5 C 94.1522,260.41 96.4855,261.076 98.5,262.5C 95.8478,262.59 93.5145,261.924 91.5,260.5 Z"/></g>
<g><path style="opacity:1" fill="#5a5a5a" d="M 180.5,259.5 C 178.898,261.074 176.898,261.741 174.5,261.5C 176.102,259.926 178.102,259.259 180.5,259.5 Z"/></g>
<g><path style="opacity:1" fill="#a1a1a1" d="M 98.5,262.5 C 103.36,261.966 107.694,262.966 111.5,265.5C 106.867,265.322 102.533,264.322 98.5,262.5 Z"/></g>
<g><path style="opacity:1" fill="#888888" d="M 166.5,263.5 C 162.817,265.25 158.817,265.917 154.5,265.5C 158.316,264.518 162.316,263.851 166.5,263.5 Z"/></g>
<g><path style="opacity:0.992" fill="#939393" d="M 95.5,265.5 C 99.7607,265.898 103.761,266.898 107.5,268.5C 103.163,268.416 99.1629,267.416 95.5,265.5 Z"/></g>
<g><path style="opacity:1" fill="#797979" d="M 111.5,265.5 C 125.837,266.788 140.17,266.788 154.5,265.5C 153.737,266.268 152.737,266.768 151.5,267C 145.833,267.167 140.167,267.333 134.5,267.5C 126.6,267.718 118.934,267.051 111.5,265.5 Z"/></g>
<g><path style="opacity:0.992" fill="#929292" d="M 107.5,268.5 C 118.446,269.941 129.446,270.608 140.5,270.5C 140.5,270.833 140.5,271.167 140.5,271.5C 133.5,271.5 126.5,271.5 119.5,271.5C 115.461,270.684 111.461,269.684 107.5,268.5 Z"/></g>
</svg>
