<?xml version="1.0" encoding="UTF-8"?>
<!DOCTYPE svg PUBLIC "-//W3C//DTD SVG 1.1//EN" "http://www.w3.org/Graphics/SVG/1.1/DTD/svg11.dtd">
<svg xmlns="http://www.w3.org/2000/svg" version="1.1" width="268px" height="268px" style="shape-rendering:geometricPrecision; text-rendering:geometricPrecision; image-rendering:optimizeQuality; fill-rule:evenodd; clip-rule:evenodd" xmlns:xlink="http://www.w3.org/1999/xlink">
<g><path style="opacity:0.972" fill="#060503" d="M 117.5,-0.5 C 128.167,-0.5 138.833,-0.5 149.5,-0.5C 178.717,3.44304 204.05,15.443 225.5,35.5C 218.833,42.8333 211.833,49.8333 204.5,56.5C 172.76,30.4873 137.093,23.3206 97.5,35C 84.6673,40.3459 73.0006,47.5126 62.5,56.5C 55.1667,49.8333 48.1667,42.8333 41.5,35.5C 62.95,15.443 88.2833,3.44304 117.5,-0.5 Z"/></g>
<g><path style="opacity:1" fill="#987916" d="M 153.5,13.5 C 139.495,12.2874 125.495,12.2874 111.5,13.5C 117.769,12.0201 124.269,11.3534 131,11.5C 138.714,11.4346 146.214,12.1013 153.5,13.5 Z"/></g>
<g><path style="opacity:1" fill="#f5c312" d="M 153.5,13.5 C 169.589,15.638 184.255,21.3046 197.5,30.5C 198.521,31.0016 198.688,31.6683 198,32.5C 195.618,35.2193 192.951,37.5526 190,39.5C 183.639,36.568 177.473,33.568 171.5,30.5C 169.485,29.0762 167.152,28.4095 164.5,28.5C 157.562,27.0173 150.562,25.684 143.5,24.5C 135.677,23.3439 127.677,23.1772 119.5,24C 118.263,24.2321 117.263,24.7321 116.5,25.5C 114.097,25.448 111.764,25.7814 109.5,26.5C 105.085,26.8606 101.085,28.1939 97.5,30.5C 90.1776,32.4388 83.3443,35.4388 77,39.5C 73.6997,37.3675 70.8663,34.7008 68.5,31.5C 77.5761,24.13 87.9094,19.13 99.5,16.5C 103.8,16.2453 107.8,15.2453 111.5,13.5C 125.495,12.2874 139.495,12.2874 153.5,13.5 Z"/></g>
<g><path style="opacity:1" fill="#7a6111" d="M 111.5,13.5 C 107.8,15.2453 103.8,16.2453 99.5,16.5C 103.2,14.7547 107.2,13.7547 111.5,13.5 Z"/></g>
<g><path style="opacity:1" fill="#937514" d="M 143.5,24.5 C 134.467,24.2841 125.467,24.6175 116.5,25.5C 117.263,24.7321 118.263,24.2321 119.5,24C 127.677,23.1772 135.677,23.3439 143.5,24.5 Z"/></g>
<g><path style="opacity:1" fill="#967813" d="M 164.5,28.5 C 167.152,28.4095 169.485,29.0762 171.5,30.5C 168.848,30.5905 166.515,29.9238 164.5,28.5 Z"/></g>
<g><path style="opacity:1" fill="#3e310f" d="M 109.5,26.5 C 105.915,28.8061 101.915,30.1394 97.5,30.5C 101.085,28.1939 105.085,26.8606 109.5,26.5 Z"/></g>
<g><path style="opacity:1" fill="#dfdfdf" d="M 204.5,56.5 C 205.262,58.2624 206.596,59.2624 208.5,59.5C 213.477,65.9903 218.311,72.6569 223,79.5C 237.955,107.26 240.622,136.26 231,166.5C 225.953,180.934 218.12,193.601 207.5,204.5C 206.167,205.167 205.167,206.167 204.5,207.5C 177.639,230.785 146.639,239.451 111.5,233.5C 109.485,232.076 107.152,231.41 104.5,231.5C 88.7002,226.602 74.7002,218.602 62.5,207.5C 62.0269,206.094 61.0269,205.427 59.5,205.5C 44.9357,188.704 35.4357,169.371 31,147.5C 29.9389,134.644 30.4389,121.978 32.5,109.5C 33.9238,107.485 34.5905,105.152 34.5,102.5C 36.1087,95.8452 38.6087,89.5119 42,83.5C 47.2729,75.2684 52.7729,67.2684 58.5,59.5C 60.4044,59.2624 61.7377,58.2624 62.5,56.5C 73.0006,47.5126 84.6673,40.3459 97.5,35C 137.093,23.3206 172.76,30.4873 204.5,56.5 Z"/></g>
<g><path style="opacity:1" fill="#101112" d="M 232.5,122.5 C 232.9,133.978 231.9,145.312 229.5,156.5C 218.946,194.885 194.28,219.052 155.5,229C 104.629,237.314 67.1287,218.814 43,173.5C 25.3728,128.851 33.8728,90.0179 68.5,57C 94.8618,35.1229 124.862,28.1229 158.5,36C 201.393,49.3829 226.059,78.2162 232.5,122.5 Z"/></g>
<g><path style="opacity:0.973" fill="#060503" d="M 38.5,38.5 C 45.1667,45.5 51.8333,52.5 58.5,59.5C 52.7729,67.2684 47.2729,75.2684 42,83.5C 38.6087,89.5119 36.1087,95.8452 34.5,102.5C 33.0762,104.515 32.4095,106.848 32.5,109.5C 30.4389,121.978 29.9389,134.644 31,147.5C 35.4357,169.371 44.9357,188.704 59.5,205.5C 51.8333,212.5 44.5,219.833 37.5,227.5C 16.2848,205.735 3.61809,179.735 -0.5,149.5C -0.5,138.833 -0.5,128.167 -0.5,117.5C 3.70614,86.755 16.7061,60.4217 38.5,38.5 Z"/></g>
<g><path style="opacity:0.973" fill="#070603" d="M 228.5,38.5 C 250.294,60.4217 263.294,86.755 267.5,117.5C 267.5,128.167 267.5,138.833 267.5,149.5C 263.382,179.735 250.715,205.735 229.5,227.5C 222.167,219.833 214.833,212.167 207.5,204.5C 218.12,193.601 225.953,180.934 231,166.5C 240.622,136.26 237.955,107.26 223,79.5C 218.311,72.6569 213.477,65.9903 208.5,59.5C 215.167,52.5 221.833,45.5 228.5,38.5 Z"/></g>
<g><path style="opacity:1" fill="#fcfcfb" d="M 216.5,92.5 C 219.139,99.0565 221.473,105.723 223.5,112.5C 223.167,112.5 222.833,112.5 222.5,112.5C 220.5,112.5 218.5,112.5 216.5,112.5C 216.666,122.172 216.5,131.839 216,141.5C 210.994,131.994 205.828,122.494 200.5,113C 197.854,112.503 195.187,112.336 192.5,112.5C 192.5,126.167 192.5,139.833 192.5,153.5C 194.5,153.5 196.5,153.5 198.5,153.5C 199.167,144.5 199.833,135.5 200.5,126.5C 205.949,135.063 210.616,144.063 214.5,153.5C 217.385,153.806 220.052,153.473 222.5,152.5C 222.833,152.5 223.167,152.5 223.5,152.5C 213.243,190.759 188.91,214.425 150.5,223.5C 105.401,228.287 72.0672,210.954 50.5,171.5C 47.8851,164.324 45.8851,156.991 44.5,149.5C 46.6979,151.098 49.0313,152.431 51.5,153.5C 55.3112,154.645 59.3112,154.812 63.5,154C 64.056,153.617 64.3893,153.117 64.5,152.5C 69.7052,149.775 72.7052,145.442 73.5,139.5C 70.8333,139.5 68.1667,139.5 65.5,139.5C 64.498,147.284 60.1647,150.117 52.5,148C 47.9971,143.652 45.9971,138.318 46.5,132C 45.486,126.029 47.486,121.363 52.5,118C 57.4374,116.631 61.604,117.797 65,121.5C 65.49,122.793 65.6567,124.127 65.5,125.5C 67.8333,125.5 70.1667,125.5 72.5,125.5C 72.0652,118.548 68.3985,114.048 61.5,112C 54.2156,110.021 48.2156,111.855 43.5,117.5C 53.2898,75.5429 79.2898,50.3763 121.5,42C 164.041,38.9309 195.708,55.7642 216.5,92.5 Z"/></g>
<g><path style="opacity:1" fill="#e3b715" d="M 225.5,35.5 C 226.833,36.1667 227.833,37.1667 228.5,38.5C 221.833,45.5 215.167,52.5 208.5,59.5C 206.596,59.2624 205.262,58.2624 204.5,56.5C 211.833,49.8333 218.833,42.8333 225.5,35.5 Z"/></g>
<g><path style="opacity:1" fill="#e6ba15" d="M 41.5,35.5 C 48.1667,42.8333 55.1667,49.8333 62.5,56.5C 61.7377,58.2624 60.4044,59.2624 58.5,59.5C 51.8333,52.5 45.1667,45.5 38.5,38.5C 39.1667,37.1667 40.1667,36.1667 41.5,35.5 Z"/></g>
<g><path style="opacity:1" fill="#1f2427" d="M 216.5,92.5 C 195.708,55.7642 164.041,38.9309 121.5,42C 79.2898,50.3763 53.2898,75.5429 43.5,117.5C 41.9241,128.249 42.2575,138.916 44.5,149.5C 45.8851,156.991 47.8851,164.324 50.5,171.5C 49.8826,171.611 49.3826,171.944 49,172.5C 38.3497,149.983 36.683,126.65 44,102.5C 50.4299,84.3702 61.2632,69.2035 76.5,57C 86.1549,52.0021 95.8216,47.0021 105.5,42C 151.867,31.5204 188.367,45.6871 215,84.5C 217.116,86.9964 217.616,89.6631 216.5,92.5 Z"/></g>
<g><path style="opacity:1" fill="#f3c212" d="M 31.5,94.5 C 30.0762,96.5145 29.4095,98.8478 29.5,101.5C 28.0762,103.515 27.4095,105.848 27.5,108.5C 26.8505,110.435 26.5172,112.435 26.5,114.5C 25.7784,114.918 25.2784,115.584 25,116.5C 24.1764,125.343 24.3431,134.01 25.5,142.5C 26.6763,149.537 28.0096,156.537 29.5,163.5C 29.4095,166.152 30.0762,168.485 31.5,170.5C 34.4541,176.408 37.4541,182.408 40.5,188.5C 37.5,191.167 34.5,193.833 31.5,196.5C 24.3756,186.458 19.3756,175.458 16.5,163.5C 16.6621,161.473 16.4955,159.473 16,157.5C 15.6174,156.944 15.1174,156.611 14.5,156.5C 11.5049,139.068 11.8382,121.734 15.5,104.5C 16.9238,102.485 17.5905,100.152 17.5,97.5C 20.6423,86.8826 25.1423,76.8826 31,67.5C 32.3876,66.4464 33.8876,66.2797 35.5,67C 37.7982,69.3013 39.7982,71.8013 41.5,74.5C 37.1984,80.7743 33.8651,87.441 31.5,94.5 Z"/></g>
<g><path style="opacity:1" fill="#f6c412" d="M 244.5,84.5 C 245.783,89.3506 247.449,94.0173 249.5,98.5C 251.342,102.159 252.342,106.159 252.5,110.5C 253.41,121.802 253.743,133.136 253.5,144.5C 252.767,151.565 251.6,158.565 250,165.5C 246.444,176.174 242.278,186.507 237.5,196.5C 233.347,195.029 230.013,192.363 227.5,188.5C 231.567,179.296 235.233,169.963 238.5,160.5C 240.067,159.319 240.901,157.653 241,155.5C 241.497,152.854 241.664,150.187 241.5,147.5C 241.5,145.833 241.5,144.167 241.5,142.5C 242.657,134.344 242.823,126.01 242,117.5C 241.79,115.942 241.29,114.609 240.5,113.5C 238.561,99.5243 233.561,86.691 225.5,75C 227.774,70.6975 231.107,68.0308 235.5,67C 239.18,72.5266 242.18,78.36 244.5,84.5 Z"/></g>
<g><path style="opacity:1" fill="#513088" d="M 150.5,74.5 C 152.033,76.2451 154.033,77.2451 156.5,77.5C 167.526,83.5225 174.859,92.5225 178.5,104.5C 178.5,105.833 178.5,107.167 178.5,108.5C 172.167,108.5 165.833,108.5 159.5,108.5C 157.266,97.9324 150.932,91.2658 140.5,88.5C 135.015,87.3483 129.349,87.1816 123.5,88C 121.934,88.6082 120.6,89.4415 119.5,90.5C 111.887,94.7785 106.887,101.112 104.5,109.5C 98.1226,109.252 92.1226,108.252 86.5,106.5C 90.052,93.61 97.7187,83.9433 109.5,77.5C 113.327,77.2484 116.66,75.9151 119.5,73.5C 123.653,72.8343 127.987,72.5009 132.5,72.5C 138.707,72.2949 144.707,72.9616 150.5,74.5 Z"/></g>
<g><path style="opacity:1" fill="#886fad" d="M 119.5,73.5 C 116.66,75.9151 113.327,77.2484 109.5,77.5C 112.34,75.0849 115.673,73.7516 119.5,73.5 Z"/></g>
<g><path style="opacity:1" fill="#9d8bbc" d="M 150.5,74.5 C 152.967,74.7549 154.967,75.7549 156.5,77.5C 154.033,77.2451 152.033,76.2451 150.5,74.5 Z"/></g>
<g><path style="opacity:1" fill="#a68415" d="M 244.5,84.5 C 247.334,88.6642 249.001,93.3308 249.5,98.5C 247.449,94.0173 245.783,89.3506 244.5,84.5 Z"/></g>
<g><path style="opacity:1" fill="#c0b3d4" d="M 140.5,88.5 C 133.349,88.1086 126.349,88.7753 119.5,90.5C 120.6,89.4415 121.934,88.6082 123.5,88C 129.349,87.1816 135.015,87.3483 140.5,88.5 Z"/></g>
<g><path style="opacity:1" fill="#675210" d="M 31.5,94.5 C 31.5905,97.1522 30.9238,99.4855 29.5,101.5C 29.4095,98.8478 30.0762,96.5145 31.5,94.5 Z"/></g>
<g><path style="opacity:1" fill="#6d5711" d="M 17.5,97.5 C 17.5905,100.152 16.9238,102.485 15.5,104.5C 15.4095,101.848 16.0762,99.5145 17.5,97.5 Z"/></g>
<g><path style="opacity:1" fill="#56440f" d="M 29.5,101.5 C 29.5905,104.152 28.9238,106.485 27.5,108.5C 27.4095,105.848 28.0762,103.515 29.5,101.5 Z"/></g>
<g><path style="opacity:1" fill="#727272" d="M 34.5,102.5 C 34.5905,105.152 33.9238,107.485 32.5,109.5C 32.4095,106.848 33.0762,104.515 34.5,102.5 Z"/></g>
<g><path style="opacity:1" fill="#947fb5" d="M 86.5,106.5 C 92.1226,108.252 98.1226,109.252 104.5,109.5C 103.791,110.404 102.791,110.737 101.5,110.5C 96.3595,109.512 91.0262,109.179 85.5,109.5C 85.2627,108.209 85.596,107.209 86.5,106.5 Z"/></g>
<g><path style="opacity:1" fill="#a796c2" d="M 178.5,104.5 C 179.451,105.919 179.784,107.585 179.5,109.5C 172.646,109.824 165.979,109.491 159.5,108.5C 165.833,108.5 172.167,108.5 178.5,108.5C 178.5,107.167 178.5,105.833 178.5,104.5 Z"/></g>
<g><path style="opacity:1" fill="#fff9db" d="M 101.5,110.5 C 103.77,112.515 105.77,114.848 107.5,117.5C 105.61,115.422 103.276,114.089 100.5,113.5C 93.6866,112.509 86.6866,112.175 79.5,112.5C 80.2625,111.732 81.2625,111.232 82.5,111C 88.8246,110.5 95.1579,110.334 101.5,110.5 Z"/></g>
<g><path style="opacity:1" fill="#ffd724" d="M 222.5,112.5 C 222.5,125.833 222.5,139.167 222.5,152.5C 220.052,153.473 217.385,153.806 214.5,153.5C 210.616,144.063 205.949,135.063 200.5,126.5C 200.539,125.244 200.039,124.244 199,123.5C 198.5,133.494 198.334,143.494 198.5,153.5C 196.5,153.5 194.5,153.5 192.5,153.5C 192.5,139.833 192.5,126.167 192.5,112.5C 195.187,112.336 197.854,112.503 200.5,113C 205.828,122.494 210.994,131.994 216,141.5C 216.5,131.839 216.666,122.172 216.5,112.5C 218.5,112.5 220.5,112.5 222.5,112.5 Z"/></g>
<g><path style="opacity:1" fill="#ffe567" d="M 79.5,112.5 C 86.6866,112.175 93.6866,112.509 100.5,113.5C 93.8333,113.5 87.1667,113.5 80.5,113.5C 80.5,126.5 80.5,139.5 80.5,152.5C 82.1667,152.5 83.8333,152.5 85.5,152.5C 85.1805,147.637 85.5139,142.97 86.5,138.5C 86.5,143.5 86.5,148.5 86.5,153.5C 84.1667,153.5 81.8333,153.5 79.5,153.5C 79.5,139.833 79.5,126.167 79.5,112.5 Z"/></g>
<g><path style="opacity:1" fill="#ffd722" d="M 100.5,113.5 C 103.276,114.089 105.61,115.422 107.5,117.5C 108.117,117.611 108.617,117.944 109,118.5C 111.895,127.652 109.062,134.152 100.5,138C 95.8452,138.499 91.1785,138.666 86.5,138.5C 85.5139,142.97 85.1805,147.637 85.5,152.5C 83.8333,152.5 82.1667,152.5 80.5,152.5C 80.5,139.5 80.5,126.5 80.5,113.5C 87.1667,113.5 93.8333,113.5 100.5,113.5 Z"/></g>
<g><path style="opacity:1" fill="#ffd829" d="M 173.5,147.5 C 176.287,148.477 179.287,148.81 182.5,148.5C 182.5,149.833 182.5,151.167 182.5,152.5C 174.167,152.5 165.833,152.5 157.5,152.5C 157.5,151.5 157.5,150.5 157.5,149.5C 160.833,149.5 164.167,149.5 167.5,149.5C 167.828,138.986 167.494,128.653 166.5,118.5C 163.375,117.521 160.042,117.187 156.5,117.5C 156.5,115.833 156.5,114.167 156.5,112.5C 165.5,112.5 174.5,112.5 183.5,112.5C 183.5,114.167 183.5,115.833 183.5,117.5C 180.167,117.5 176.833,117.5 173.5,117.5C 173.5,127.5 173.5,137.5 173.5,147.5 Z"/></g>
<g><path style="opacity:1" fill="#ffd726" d="M 117.5,145.5 C 115.716,138.649 115.05,131.649 115.5,124.5C 120.014,111.806 128.348,108.306 140.5,114C 149.288,121.309 151.788,130.475 148,141.5C 143.719,152.423 135.886,156.257 124.5,153C 121.588,150.985 119.255,148.485 117.5,145.5 Z"/></g>
<g><path style="opacity:1" fill="#fffdf5" d="M 127.5,117.5 C 134.362,116.535 139.195,119.202 142,125.5C 143.331,132.285 142.331,138.618 139,144.5C 130.376,151.303 124.71,149.303 122,138.5C 119.978,130.351 121.811,123.351 127.5,117.5 Z"/></g>
<g><path style="opacity:1" fill="#fff5c8" d="M 156.5,117.5 C 160.042,117.187 163.375,117.521 166.5,118.5C 166.5,128.167 166.5,137.833 166.5,147.5C 163.167,147.5 159.833,147.5 156.5,147.5C 159.287,146.523 162.287,146.19 165.5,146.5C 165.5,137.167 165.5,127.833 165.5,118.5C 162.287,118.81 159.287,118.477 156.5,117.5 Z"/></g>
<g><path style="opacity:1" fill="#ffe258" d="M 166.5,118.5 C 167.494,128.653 167.828,138.986 167.5,149.5C 164.167,149.5 160.833,149.5 157.5,149.5C 157.5,150.5 157.5,151.5 157.5,152.5C 165.833,152.5 174.167,152.5 182.5,152.5C 182.5,151.167 182.5,149.833 182.5,148.5C 179.287,148.81 176.287,148.477 173.5,147.5C 176.833,147.5 180.167,147.5 183.5,147.5C 183.5,149.5 183.5,151.5 183.5,153.5C 174.5,153.5 165.5,153.5 156.5,153.5C 156.5,151.5 156.5,149.5 156.5,147.5C 159.833,147.5 163.167,147.5 166.5,147.5C 166.5,137.833 166.5,128.167 166.5,118.5 Z"/></g>
<g><path style="opacity:1" fill="#efe9e9" d="M 86.5,118.5 C 90.8461,118.334 95.1794,118.501 99.5,119C 104.964,123.705 104.631,128.038 98.5,132C 94.5138,132.499 90.5138,132.666 86.5,132.5C 86.5,127.833 86.5,123.167 86.5,118.5 Z"/></g>
<g><path style="opacity:1" fill="#58388c" d="M 89.5,121.5 C 92.5184,121.335 95.5184,121.502 98.5,122C 99.9817,124.592 99.6483,126.925 97.5,129C 94.854,129.497 92.1873,129.664 89.5,129.5C 89.5,126.833 89.5,124.167 89.5,121.5 Z"/></g>
<g><path style="opacity:1" fill="#ede8d2" d="M 222.5,112.5 C 222.833,112.5 223.167,112.5 223.5,112.5C 226.166,125.826 226.166,139.16 223.5,152.5C 223.167,152.5 222.833,152.5 222.5,152.5C 222.5,139.167 222.5,125.833 222.5,112.5 Z"/></g>
<g><path style="opacity:1" fill="#987813" d="M 252.5,110.5 C 253.268,111.263 253.768,112.263 254,113.5C 254.825,124.008 254.659,134.342 253.5,144.5C 253.743,133.136 253.41,121.802 252.5,110.5 Z"/></g>
<g><path style="opacity:1" fill="#868686" d="M 232.5,122.5 C 233.848,133.415 233.348,144.415 231,155.5C 230.617,156.056 230.117,156.389 229.5,156.5C 231.9,145.312 232.9,133.978 232.5,122.5 Z"/></g>
<g><path style="opacity:1" fill="#866a12" d="M 26.5,114.5 C 25.6126,123.801 25.2792,133.134 25.5,142.5C 24.3431,134.01 24.1764,125.343 25,116.5C 25.2784,115.584 25.7784,114.918 26.5,114.5 Z"/></g>
<g><path style="opacity:1" fill="#fff4c2" d="M 200.5,126.5 C 199.833,135.5 199.167,144.5 198.5,153.5C 198.334,143.494 198.5,133.494 199,123.5C 200.039,124.244 200.539,125.244 200.5,126.5 Z"/></g>
<g><path style="opacity:1" fill="#59460c" d="M 240.5,113.5 C 241.29,114.609 241.79,115.942 242,117.5C 242.823,126.01 242.657,134.344 241.5,142.5C 241.578,132.815 241.245,123.148 240.5,113.5 Z"/></g>
<g><path style="opacity:1" fill="#ffefa7" d="M 115.5,124.5 C 115.05,131.649 115.716,138.649 117.5,145.5C 116.034,144.653 115.2,143.32 115,141.5C 114.182,135.651 114.348,129.985 115.5,124.5 Z"/></g>
<g><path style="opacity:1" fill="#513088" d="M 117.5,173.5 C 118.894,175.708 120.894,177.208 123.5,178C 129.349,178.818 135.015,178.652 140.5,177.5C 147.274,175.389 152.607,171.389 156.5,165.5C 158.098,163.605 159.432,161.438 160.5,159C 163.333,158.833 166.167,158.667 169,158.5C 172.252,158.519 175.085,159.186 177.5,160.5C 177.037,163.221 176.371,165.888 175.5,168.5C 167.889,183.105 155.889,191.438 139.5,193.5C 133.131,193.653 126.797,193.32 120.5,192.5C 115.47,191.577 110.803,189.743 106.5,187C 97.0708,179.161 90.0708,169.495 85.5,158C 86.5353,156.726 87.702,155.56 89,154.5C 89.499,150.179 89.6657,145.846 89.5,141.5C 93.5,141.5 97.5,141.5 101.5,141.5C 102.164,152.551 105.997,162.217 113,170.5C 114.129,172.141 115.629,173.141 117.5,173.5 Z"/></g>
<g><path style="opacity:1" fill="#fdd72a" d="M 64.5,152.5 C 60.2315,153.373 55.8982,153.706 51.5,153.5C 49.0313,152.431 46.6979,151.098 44.5,149.5C 42.2575,138.916 41.9241,128.249 43.5,117.5C 48.2156,111.855 54.2156,110.021 61.5,112C 68.3985,114.048 72.0652,118.548 72.5,125.5C 70.1667,125.5 67.8333,125.5 65.5,125.5C 65.6567,124.127 65.49,122.793 65,121.5C 61.604,117.797 57.4374,116.631 52.5,118C 47.486,121.363 45.486,126.029 46.5,132C 45.9971,138.318 47.9971,143.652 52.5,148C 60.1647,150.117 64.498,147.284 65.5,139.5C 68.1667,139.5 70.8333,139.5 73.5,139.5C 72.7052,145.442 69.7052,149.775 64.5,152.5 Z"/></g>
<g><path style="opacity:1" fill="#ffeea0" d="M 64.5,152.5 C 64.3893,153.117 64.056,153.617 63.5,154C 59.3112,154.812 55.3112,154.645 51.5,153.5C 55.8982,153.706 60.2315,153.373 64.5,152.5 Z"/></g>
<g><path style="opacity:1" fill="#a98615" d="M 241.5,147.5 C 241.664,150.187 241.497,152.854 241,155.5C 240.901,157.653 240.067,159.319 238.5,160.5C 238.882,155.908 239.882,151.575 241.5,147.5 Z"/></g>
<g><path style="opacity:1" fill="#71549d" d="M 178.5,160.5 C 178.167,160.5 177.833,160.5 177.5,160.5C 175.085,159.186 172.252,158.519 169,158.5C 166.167,158.667 163.333,158.833 160.5,159C 159.432,161.438 158.098,163.605 156.5,165.5C 157.202,162.56 158.202,159.727 159.5,157C 166.158,156.5 172.825,156.334 179.5,156.5C 179.567,157.959 179.234,159.292 178.5,160.5 Z"/></g>
<g><path style="opacity:1" fill="#907313" d="M 14.5,156.5 C 15.1174,156.611 15.6174,156.944 16,157.5C 16.4955,159.473 16.6621,161.473 16.5,163.5C 15.5933,161.343 14.9267,159.01 14.5,156.5 Z"/></g>
<g><path style="opacity:1" fill="#a694c2" d="M 177.5,160.5 C 177.833,160.5 178.167,160.5 178.5,160.5C 178.655,163.716 177.655,166.383 175.5,168.5C 176.371,165.888 177.037,163.221 177.5,160.5 Z"/></g>
<g><path style="opacity:1" fill="#846912" d="M 29.5,163.5 C 30.9238,165.515 31.5905,167.848 31.5,170.5C 30.0762,168.485 29.4095,166.152 29.5,163.5 Z"/></g>
<g><path style="opacity:1" fill="#b4a5cb" d="M 117.5,173.5 C 124.654,177.122 132.321,178.455 140.5,177.5C 135.015,178.652 129.349,178.818 123.5,178C 120.894,177.208 118.894,175.708 117.5,173.5 Z"/></g>
<g><path style="opacity:1" fill="#c2b6d5" d="M 120.5,192.5 C 126.797,193.32 133.131,193.653 139.5,193.5C 137.022,194.164 134.355,194.497 131.5,194.5C 127.531,194.706 123.865,194.039 120.5,192.5 Z"/></g>
<g><path style="opacity:0.975" fill="#060402" d="M 62.5,207.5 C 74.7002,218.602 88.7002,226.602 104.5,231.5C 106.515,232.924 108.848,233.59 111.5,233.5C 146.639,239.451 177.639,230.785 204.5,207.5C 211.806,215.14 219.139,222.807 226.5,230.5C 204.892,251.136 179.225,263.47 149.5,267.5C 138.833,267.5 128.167,267.5 117.5,267.5C 87.7746,263.47 62.108,251.136 40.5,230.5C 47.8333,222.833 55.1667,215.167 62.5,207.5 Z"/></g>
<g><path style="opacity:1" fill="#202428" d="M 50.5,171.5 C 72.0672,210.954 105.401,228.287 150.5,223.5C 107.194,230.44 74.0273,215.107 51,177.5C 50.5045,175.527 50.3379,173.527 50.5,171.5 Z"/></g>
<g><path style="opacity:1" fill="#e4b816" d="M 59.5,205.5 C 61.0269,205.427 62.0269,206.094 62.5,207.5C 55.1667,215.167 47.8333,222.833 40.5,230.5C 39.1667,229.833 38.1667,228.833 37.5,227.5C 44.5,219.833 51.8333,212.5 59.5,205.5 Z"/></g>
<g><path style="opacity:1" fill="#e6b915" d="M 207.5,204.5 C 214.833,212.167 222.167,219.833 229.5,227.5C 228.833,228.833 227.833,229.833 226.5,230.5C 219.139,222.807 211.806,215.14 204.5,207.5C 205.167,206.167 206.167,205.167 207.5,204.5 Z"/></g>
<g><path style="opacity:1" fill="#f7c512" d="M 174.5,246.5 C 171.848,246.41 169.515,247.076 167.5,248.5C 160.402,250.433 153.069,251.766 145.5,252.5C 134.148,252.627 122.815,252.294 111.5,251.5C 109.708,251.634 108.042,251.301 106.5,250.5C 104.485,249.076 102.152,248.41 99.5,248.5C 96.855,246.69 93.855,245.69 90.5,245.5C 82.5609,242.781 75.0609,239.114 68,234.5C 69.471,230.681 72.1377,227.681 76,225.5C 81.9255,228.213 87.7588,231.046 93.5,234C 100.509,236.334 107.509,238.167 114.5,239.5C 120.084,241.034 125.917,241.701 132,241.5C 136.347,241.499 140.514,241.166 144.5,240.5C 144.833,240.5 145.167,240.5 145.5,240.5C 151.503,240.667 157.17,239.667 162.5,237.5C 162.842,236.662 163.508,236.328 164.5,236.5C 166.898,236.741 168.898,236.074 170.5,234.5C 177.56,231.646 184.394,228.312 191,224.5C 193.994,227.328 196.827,230.328 199.5,233.5C 195.668,236.25 191.668,238.75 187.5,241C 182.989,242.555 178.656,244.388 174.5,246.5 Z"/></g>
<g><path style="opacity:1" fill="#6c6c6c" d="M 104.5,231.5 C 107.152,231.41 109.485,232.076 111.5,233.5C 108.848,233.59 106.515,232.924 104.5,231.5 Z"/></g>
<g><path style="opacity:1" fill="#806512" d="M 170.5,234.5 C 168.898,236.074 166.898,236.741 164.5,236.5C 166.214,235.262 168.214,234.595 170.5,234.5 Z"/></g>
<g><path style="opacity:1" fill="#a07f15" d="M 162.5,237.5 C 157.17,239.667 151.503,240.667 145.5,240.5C 150.959,239.049 156.626,238.049 162.5,237.5 Z"/></g>
<g><path style="opacity:1" fill="#765e0f" d="M 114.5,239.5 C 124.482,240.257 134.482,240.59 144.5,240.5C 140.514,241.166 136.347,241.499 132,241.5C 125.917,241.701 120.084,241.034 114.5,239.5 Z"/></g>
<g><path style="opacity:1" fill="#8c7013" d="M 90.5,245.5 C 93.855,245.69 96.855,246.69 99.5,248.5C 96.0836,248.472 93.0836,247.472 90.5,245.5 Z"/></g>
<g><path style="opacity:1" fill="#644f0f" d="M 174.5,246.5 C 172.485,247.924 170.152,248.59 167.5,248.5C 169.515,247.076 171.848,246.41 174.5,246.5 Z"/></g>
<g><path style="opacity:1" fill="#8d7013" d="M 99.5,248.5 C 102.152,248.41 104.485,249.076 106.5,250.5C 103.848,250.59 101.515,249.924 99.5,248.5 Z"/></g>
<g><path style="opacity:1" fill="#8d7012" d="M 111.5,251.5 C 122.815,252.294 134.148,252.627 145.5,252.5C 141.012,253.166 136.346,253.499 131.5,253.5C 124.596,253.692 117.93,253.025 111.5,251.5 Z"/></g>
</svg>
