<?xml version="1.0" encoding="UTF-8"?>
<!DOCTYPE svg PUBLIC "-//W3C//DTD SVG 1.1//EN" "http://www.w3.org/Graphics/SVG/1.1/DTD/svg11.dtd">
<svg xmlns="http://www.w3.org/2000/svg" version="1.1" width="230px" height="230px" style="shape-rendering:geometricPrecision; text-rendering:geometricPrecision; image-rendering:optimizeQuality; fill-rule:evenodd; clip-rule:evenodd" xmlns:xlink="http://www.w3.org/1999/xlink">
<g><path style="opacity:1" fill="#030407" d="M 14.5,169.5 C 1.44082,144.284 -2.55918,117.618 2.5,89.5C 4.43547,85.0244 5.7688,80.3578 6.5,75.5C 6.55164,72.6538 7.55164,70.3204 9.5,68.5C 39.099,13.8939 84.4323,-6.93939 145.5,6C 190.762,20.9269 217.929,51.7602 227,98.5C 231.173,148.318 212.34,186.485 170.5,213C 137.356,230.082 103.356,232.082 68.5,219C 45.4935,207.821 27.4935,191.321 14.5,169.5 Z"/></g>
<g><path style="opacity:0.169" fill="#8c9fb9" d="M 172.5,14.5 C 178.409,17.0966 183.409,20.7633 187.5,25.5C 182.851,22.5263 178.184,19.5263 173.5,16.5C 172.702,16.0431 172.369,15.3764 172.5,14.5 Z"/></g>
<g><path style="opacity:1" fill="#405e84" d="M 101.5,-0.5 C 110.167,-0.5 118.833,-0.5 127.5,-0.5C 143.458,1.36831 158.458,6.36831 172.5,14.5C 172.369,15.3764 172.702,16.0431 173.5,16.5C 178.184,19.5263 182.851,22.5263 187.5,25.5C 202.846,37.5116 214.346,52.5116 222,70.5C 224.823,79.1285 227.323,87.7952 229.5,96.5C 229.5,108.5 229.5,120.5 229.5,132.5C 218.167,185.833 185.833,218.167 132.5,229.5C 120.5,229.5 108.5,229.5 96.5,229.5C 59.5245,222.322 31.5245,202.322 12.5,169.5C 13.1667,169.5 13.8333,169.5 14.5,169.5C 27.4935,191.321 45.4935,207.821 68.5,219C 103.356,232.082 137.356,230.082 170.5,213C 212.34,186.485 231.173,148.318 227,98.5C 217.929,51.7602 190.762,20.9269 145.5,6C 84.4323,-6.93939 39.099,13.8939 9.5,68.5C 19.3438,43.9763 36.0104,25.3096 59.5,12.5C 72.8264,5.90402 86.8264,1.57069 101.5,-0.5 Z"/></g>
<g><path style="opacity:1" fill="#415f85" d="M 99.5,10.5 C 150.514,6.75719 187.681,27.4239 211,72.5C 225.04,108.152 221.706,142.152 201,174.5C 174.149,209.684 138.649,224.184 94.5,218C 46.4695,206.302 17.9695,176.136 9,127.5C 5.98375,74.3524 28.8171,37.1857 77.5,16C 84.8875,13.8039 92.2208,11.9706 99.5,10.5 Z"/></g>
<g><path style="opacity:1" fill="#e3e6e8" d="M 99.5,12.5 C 145.727,8.86248 180.893,26.5292 205,65.5C 225.221,107.279 220.887,146.279 192,182.5C 162.599,212.994 127.099,223.494 85.5,214C 50.3927,202.559 26.8927,179.392 15,144.5C 2.83961,93.9577 18.3396,54.4577 61.5,26C 73.4959,19.171 86.1626,14.671 99.5,12.5 Z"/></g>
<g><path style="opacity:1" fill="#040303" d="M 119.5,15.5 C 168.205,20.3757 199.038,46.3757 212,93.5C 218.006,133.494 205.839,166.661 175.5,193C 158.771,205.077 140.104,211.91 119.5,213.5C 112.485,213.422 105.485,213.089 98.5,212.5C 60.8446,205.694 35.0113,184.36 21,148.5C 5.62931,94.7672 21.796,53.6005 69.5,25C 78.0333,20.6554 87.0333,17.8221 96.5,16.5C 104.15,15.8567 111.817,15.5234 119.5,15.5 Z"/></g>
<g><path style="opacity:1" fill="#6e4217" d="M 98.5,47.5 C 99.8333,47.5 101.167,47.5 102.5,47.5C 100.491,49.0652 98.1573,50.0652 95.5,50.5C 95.5,50.1667 95.5,49.8333 95.5,49.5C 96.7095,49.0679 97.7095,48.4013 98.5,47.5 Z"/></g>
<g><path style="opacity:1" fill="#bf7010" d="M 82.5,37.5 C 81.0975,38.9312 79.4308,40.0978 77.5,41C 79.5758,44.9876 81.2425,49.1542 82.5,53.5C 84.8676,51.777 87.5342,51.1103 90.5,51.5C 87.7898,53.1084 84.7898,54.2751 81.5,55C 80.5429,58.4039 79.2095,61.5705 77.5,64.5C 77.5431,61.4135 77.7097,58.4135 78,55.5C 74.6421,52.6415 71.1421,49.9749 67.5,47.5C 66.8281,48.9492 66.1614,50.2825 65.5,51.5C 65.5,49.8333 65.5,48.1667 65.5,46.5C 65.33,45.1779 65.6634,44.0113 66.5,43C 71.7447,40.863 77.078,39.0297 82.5,37.5 Z"/></g>
<g><path style="opacity:1" fill="#f3af1a" d="M 92.5,34.5 C 93.1667,34.5 93.8333,34.5 94.5,34.5C 93.9816,35.5774 93.6483,36.7441 93.5,38C 94.4831,41.1118 95.1497,44.2785 95.5,47.5C 96.5,47.5 97.5,47.5 98.5,47.5C 97.7095,48.4013 96.7095,49.0679 95.5,49.5C 93.0799,49.2924 90.7466,49.6258 88.5,50.5C 85.7742,46.4788 85.1075,42.1454 86.5,37.5C 88.5939,36.4824 90.5939,35.4824 92.5,34.5 Z"/></g>
<g><path style="opacity:1" fill="#e5e5e4" d="M 136.5,32.5 C 136.833,32.5 137.167,32.5 137.5,32.5C 138.153,33.8068 138.82,35.1401 139.5,36.5C 137.796,40.321 136.462,44.321 135.5,48.5C 133.929,47.6906 132.262,47.3573 130.5,47.5C 129.005,47.0113 127.671,46.3446 126.5,45.5C 125.418,44.4062 124.752,43.0729 124.5,41.5C 125.336,38.1539 126.836,35.1539 129,32.5C 131.288,32.2625 133.788,32.2625 136.5,32.5 Z"/></g>
<g><path style="opacity:1" fill="#f9dc91" d="M 100.5,32.5 C 101.209,31.596 102.209,31.2627 103.5,31.5C 104.167,31.5 104.833,31.5 105.5,31.5C 106.08,35.81 106.414,40.1434 106.5,44.5C 105.395,45.6005 104.062,46.2671 102.5,46.5C 103.018,45.4226 103.352,44.2559 103.5,43C 103.35,39.0143 102.35,35.5143 100.5,32.5 Z"/></g>
<g><path style="opacity:1" fill="#fbda8c" d="M 94.5,34.5 C 95.1667,34.5 95.8333,34.5 96.5,34.5C 97.1667,38.5 97.8333,42.5 98.5,46.5C 99.8333,46.5 101.167,46.5 102.5,46.5C 102.5,46.8333 102.5,47.1667 102.5,47.5C 101.167,47.5 99.8333,47.5 98.5,47.5C 97.5,47.5 96.5,47.5 95.5,47.5C 95.1497,44.2785 94.4831,41.1118 93.5,38C 93.6483,36.7441 93.9816,35.5774 94.5,34.5 Z"/></g>
<g><path style="opacity:1" fill="#fbf2d7" d="M 100.5,32.5 C 102.35,35.5143 103.35,39.0143 103.5,43C 103.352,44.2559 103.018,45.4226 102.5,46.5C 101.167,46.5 99.8333,46.5 98.5,46.5C 97.8333,42.5 97.1667,38.5 96.5,34.5C 97.287,32.8958 98.6203,32.2291 100.5,32.5 Z"/></g>
<g><path style="opacity:1" fill="#d48909" d="M 92.5,34.5 C 90.5939,35.4824 88.5939,36.4824 86.5,37.5C 85.1075,42.1454 85.7742,46.4788 88.5,50.5C 90.7466,49.6258 93.0799,49.2924 95.5,49.5C 95.5,49.8333 95.5,50.1667 95.5,50.5C 93.7085,50.366 92.0418,50.6993 90.5,51.5C 87.5342,51.1103 84.8676,51.777 82.5,53.5C 81.2425,49.1542 79.5758,44.9876 77.5,41C 79.4308,40.0978 81.0975,38.9312 82.5,37.5C 85.5459,35.7084 88.8793,34.7084 92.5,34.5 Z"/></g>
<g><path style="opacity:1" fill="#f5c042" d="M 105.5,31.5 C 107.017,31.5106 108.184,32.1772 109,33.5C 109.826,36.7928 110.326,40.1262 110.5,43.5C 109.167,43.8333 107.833,44.1667 106.5,44.5C 106.414,40.1434 106.08,35.81 105.5,31.5 Z"/></g>
<g><path style="opacity:1" fill="#bcbcbd" d="M 136.5,32.5 C 133.788,32.2625 131.288,32.2625 129,32.5C 126.836,35.1539 125.336,38.1539 124.5,41.5C 124.752,43.0729 125.418,44.4062 126.5,45.5C 123.687,45.4519 121.021,44.7853 118.5,43.5C 117.167,37.5 117.167,31.5 118.5,25.5C 124.453,28.2565 130.453,30.5898 136.5,32.5 Z"/></g>
<g><path style="opacity:1" fill="#d48c19" d="M 110.5,43.5 C 110.326,40.1262 109.826,36.7928 109,33.5C 108.184,32.1772 107.017,31.5106 105.5,31.5C 104.833,31.5 104.167,31.5 103.5,31.5C 106.215,29.9281 109.215,28.9281 112.5,28.5C 113.108,33.9443 112.442,38.9443 110.5,43.5 Z"/></g>
<g><path style="opacity:1" fill="#834b17" d="M 102.5,47.5 C 102.5,47.1667 102.5,46.8333 102.5,46.5C 104.062,46.2671 105.395,45.6005 106.5,44.5C 107.833,44.1667 109.167,43.8333 110.5,43.5C 112.442,38.9443 113.108,33.9443 112.5,28.5C 109.215,28.9281 106.215,29.9281 103.5,31.5C 102.209,31.2627 101.209,31.596 100.5,32.5C 98.6203,32.2291 97.287,32.8958 96.5,34.5C 95.8333,34.5 95.1667,34.5 94.5,34.5C 93.8333,34.5 93.1667,34.5 92.5,34.5C 99.0905,31.0759 106.091,28.4092 113.5,26.5C 113.829,32.5368 113.496,38.5368 112.5,44.5C 109.023,45.2556 105.69,46.2556 102.5,47.5 Z"/></g>
<g><path style="opacity:1" fill="#555555" d="M 119.5,15.5 C 111.817,15.5234 104.15,15.8567 96.5,16.5C 101.088,15.0722 105.921,14.4055 111,14.5C 114.021,14.5022 116.854,14.8356 119.5,15.5 Z"/></g>
<g><path style="opacity:1" fill="#a27337" d="M 65.5,46.5 C 65.5,48.1667 65.5,49.8333 65.5,51.5C 65.5,52.8333 65.5,54.1667 65.5,55.5C 64.8902,56.391 64.5569,57.391 64.5,58.5C 63.6618,58.8417 63.3284,59.5084 63.5,60.5C 62.5116,61.795 61.5116,63.1283 60.5,64.5C 59.609,65.1098 58.609,65.4431 57.5,65.5C 62.1318,59.9227 64.7985,53.5894 65.5,46.5 Z"/></g>
<g><path style="opacity:1" fill="#bfbfbf" d="M 137.5,32.5 C 146.476,35.8263 155.476,39.1596 164.5,42.5C 165.549,48.697 167.215,54.697 169.5,60.5C 168.288,59.7701 167.288,58.7701 166.5,57.5C 165.5,58 164.5,58.5 163.5,59C 162.237,61.3858 160.403,63.2192 158,64.5C 157.392,66.1545 156.892,67.8211 156.5,69.5C 153.548,65.334 151.548,60.6674 150.5,55.5C 143.675,53.0078 137.008,50.3411 130.5,47.5C 132.262,47.3573 133.929,47.6906 135.5,48.5C 136.462,44.321 137.796,40.321 139.5,36.5C 138.82,35.1401 138.153,33.8068 137.5,32.5 Z"/></g>
<g><path style="opacity:1" fill="#7f7e7c" d="M 153.5,40.5 C 151.91,40.6282 150.577,41.2949 149.5,42.5C 148.642,45.6195 147.642,48.6195 146.5,51.5C 144.064,51.2511 142.064,50.2511 140.5,48.5C 142.289,45.0167 143.623,41.35 144.5,37.5C 147.785,37.9281 150.785,38.9281 153.5,40.5 Z"/></g>
<g><path style="opacity:1" fill="#565551" d="M 153.5,40.5 C 155.679,41.0592 157.846,41.7259 160,42.5C 161.257,42.8499 161.591,43.5165 161,44.5C 157.833,47 154.667,49.5 151.5,52C 149.735,52.6397 148.068,52.4731 146.5,51.5C 147.642,48.6195 148.642,45.6195 149.5,42.5C 150.577,41.2949 151.91,40.6282 153.5,40.5 Z"/></g>
<g><path style="opacity:1" fill="#e9ac33" d="M 77.5,64.5 C 77.6716,65.4916 77.3382,66.1583 76.5,66.5C 76.6495,65.448 76.4828,64.448 76,63.5C 72.6351,60.6324 69.1351,57.9658 65.5,55.5C 65.5,54.1667 65.5,52.8333 65.5,51.5C 66.1614,50.2825 66.8281,48.9492 67.5,47.5C 71.1421,49.9749 74.6421,52.6415 78,55.5C 77.7097,58.4135 77.5431,61.4135 77.5,64.5 Z"/></g>
<g><path style="opacity:1" fill="#fbf3da" d="M 64.5,58.5 C 70.227,60.824 72.8936,64.824 72.5,70.5C 67.3859,69.0533 64.3859,65.72 63.5,60.5C 63.3284,59.5084 63.6618,58.8417 64.5,58.5 Z"/></g>
<g><path style="opacity:1" fill="#eeeeee" d="M 169.5,60.5 C 169.414,61.4959 169.748,62.3292 170.5,63C 166.83,66.8353 162.496,69.6686 157.5,71.5C 157.167,70.8333 156.833,70.1667 156.5,69.5C 156.892,67.8211 157.392,66.1545 158,64.5C 160.403,63.2192 162.237,61.3858 163.5,59C 164.5,58.5 165.5,58 166.5,57.5C 167.288,58.7701 168.288,59.7701 169.5,60.5 Z"/></g>
<g><path style="opacity:1" fill="#fbe7b3" d="M 63.5,60.5 C 64.3859,65.72 67.3859,69.0533 72.5,70.5C 71.9484,72.7029 70.6151,73.5362 68.5,73C 66.0934,70.7152 63.5934,68.5486 61,66.5C 60.5357,65.9056 60.369,65.2389 60.5,64.5C 61.5116,63.1283 62.5116,61.795 63.5,60.5 Z"/></g>
<g><path style="opacity:1" fill="#868683" d="M 177.5,66.5 C 180.763,67.4822 184.097,68.1489 187.5,68.5C 183.987,69.3308 180.321,69.4975 176.5,69C 173.678,72.216 171.011,75.3827 168.5,78.5C 166.637,78.1541 165.804,77.1541 166,75.5C 169.05,71.2685 172.884,68.2685 177.5,66.5 Z"/></g>
<g><path style="opacity:1" fill="#b4b4b2" d="M 169.5,60.5 C 171.884,62.8847 174.55,64.8847 177.5,66.5C 172.884,68.2685 169.05,71.2685 166,75.5C 165.804,77.1541 166.637,78.1541 168.5,78.5C 169.167,78.8333 169.833,79.1667 170.5,79.5C 170.158,80.3382 169.492,80.6716 168.5,80.5C 163.937,78.6046 160.27,75.6046 157.5,71.5C 162.496,69.6686 166.83,66.8353 170.5,63C 169.748,62.3292 169.414,61.4959 169.5,60.5 Z"/></g>
<g><path style="opacity:1" fill="#efc670" d="M 65.5,55.5 C 69.1351,57.9658 72.6351,60.6324 76,63.5C 76.4828,64.448 76.6495,65.448 76.5,66.5C 74.5838,71.6568 71.2505,75.6568 66.5,78.5C 64.5584,73.5588 61.2251,69.8922 56.5,67.5C 56.8333,66.8333 57.1667,66.1667 57.5,65.5C 58.609,65.4431 59.609,65.1098 60.5,64.5C 60.369,65.2389 60.5357,65.9056 61,66.5C 63.5934,68.5486 66.0934,70.7152 68.5,73C 70.6151,73.5362 71.9484,72.7029 72.5,70.5C 72.8936,64.824 70.227,60.824 64.5,58.5C 64.5569,57.391 64.8902,56.391 65.5,55.5 Z"/></g>
<g><path style="opacity:1" fill="#f9b416" d="M 56.5,67.5 C 61.2251,69.8922 64.5584,73.5588 66.5,78.5C 66.1667,78.5 65.8333,78.5 65.5,78.5C 63.5328,78.2606 61.6995,78.5939 60,79.5C 56.8333,76.3333 53.6667,73.1667 50.5,70C 52.4068,68.878 54.4068,68.0447 56.5,67.5 Z"/></g>
<g><path style="opacity:1" fill="#eae7e4" d="M 112.5,89.5 C 112.5,94.5 112.5,99.5 112.5,104.5C 120.833,104.5 129.167,104.5 137.5,104.5C 137.5,106.833 137.5,109.167 137.5,111.5C 137.5,114.167 137.5,116.833 137.5,119.5C 129.167,119.5 120.833,119.5 112.5,119.5C 112.5,129.833 112.5,140.167 112.5,150.5C 106.833,150.5 101.167,150.5 95.5,150.5C 95.5,125.167 95.5,99.8333 95.5,74.5C 109.833,74.5 124.167,74.5 138.5,74.5C 138.5,79.1667 138.5,83.8333 138.5,88.5C 129.651,88.1736 120.984,88.507 112.5,89.5 Z"/></g>
<g><path style="opacity:1" fill="#575753" d="M 187.5,68.5 C 189.167,68.5 190.833,68.5 192.5,68.5C 192.825,76.3516 192.492,84.0182 191.5,91.5C 191.5,85.1667 191.5,78.8333 191.5,72.5C 191.719,71.325 191.386,70.325 190.5,69.5C 185.688,73.1444 181.021,76.9777 176.5,81C 174.305,81.4094 172.305,80.9094 170.5,79.5C 169.833,79.1667 169.167,78.8333 168.5,78.5C 171.011,75.3827 173.678,72.216 176.5,69C 180.321,69.4975 183.987,69.3308 187.5,68.5 Z"/></g>
<g><path style="opacity:1" fill="#efefee" d="M 189.5,74.5 C 190.49,80.6446 190.823,86.9779 190.5,93.5C 186.832,92.4445 183.165,91.2778 179.5,90C 178.915,88.6976 178.249,87.531 177.5,86.5C 177.351,85.448 177.517,84.448 178,83.5C 181.709,80.2854 185.542,77.2854 189.5,74.5 Z"/></g>
<g><path style="opacity:0.42" fill="#243a56" d="M 6.5,75.5 C 5.7688,80.3578 4.43547,85.0244 2.5,89.5C 2.33788,87.4727 2.50454,85.4727 3,83.5C 3.73782,80.4985 4.90449,77.8318 6.5,75.5 Z"/></g>
<g><path style="opacity:1" fill="#e59428" d="M 57.5,65.5 C 57.1667,66.1667 56.8333,66.8333 56.5,67.5C 54.4068,68.0447 52.4068,68.878 50.5,70C 53.6667,73.1667 56.8333,76.3333 60,79.5C 61.6995,78.5939 63.5328,78.2606 65.5,78.5C 62.5113,80.6611 59.178,82.3277 55.5,83.5C 55.1667,83.5 54.8333,83.5 54.5,83.5C 53.5386,85.2646 53.2053,87.2646 53.5,89.5C 49.4838,89.2871 45.6504,89.9538 42,91.5C 41.6174,90.944 41.1174,90.6107 40.5,90.5C 39.5379,83.5878 39.2045,76.5878 39.5,69.5C 45.5915,69.0544 51.5915,67.7211 57.5,65.5 Z"/></g>
<g><path style="opacity:1" fill="#807f7d" d="M 113.5,89.5 C 113.167,89.5 112.833,89.5 112.5,89.5C 120.984,88.507 129.651,88.1736 138.5,88.5C 138.5,83.8333 138.5,79.1667 138.5,74.5C 124.167,74.5 109.833,74.5 95.5,74.5C 95.5,99.8333 95.5,125.167 95.5,150.5C 94.5022,125.005 94.1689,99.3388 94.5,73.5C 109.5,73.5 124.5,73.5 139.5,73.5C 139.5,78.8333 139.5,84.1667 139.5,89.5C 130.833,89.5 122.167,89.5 113.5,89.5 Z"/></g>
<g><path style="opacity:1" fill="#cacac8" d="M 191.5,72.5 C 191.5,78.8333 191.5,85.1667 191.5,91.5C 191.5,92.5 191.5,93.5 191.5,94.5C 190.717,96.3432 190.05,98.3432 189.5,100.5C 187.892,101.242 186.225,101.409 184.5,101C 185.328,101.915 186.328,102.581 187.5,103C 184.03,102.092 180.364,101.592 176.5,101.5C 176.274,96.4376 176.608,91.4376 177.5,86.5C 178.249,87.531 178.915,88.6976 179.5,90C 183.165,91.2778 186.832,92.4445 190.5,93.5C 190.823,86.9779 190.49,80.6446 189.5,74.5C 189.5,73.1667 190.167,72.5 191.5,72.5 Z"/></g>
<g><path style="opacity:1" fill="#c8700b" d="M 54.5,83.5 C 54.5,87.8333 54.5,92.1667 54.5,96.5C 49.9635,98.448 45.2968,98.7813 40.5,97.5C 40.7093,96.914 41.0426,96.414 41.5,96C 52.1667,95.3333 52.1667,94.6667 41.5,94C 40.6634,92.9887 40.33,91.8221 40.5,90.5C 41.1174,90.6107 41.6174,90.944 42,91.5C 45.6504,89.9538 49.4838,89.2871 53.5,89.5C 53.2053,87.2646 53.5386,85.2646 54.5,83.5 Z"/></g>
<g><path style="opacity:1" fill="#ad5505" d="M 39.5,69.5 C 39.2045,76.5878 39.5379,83.5878 40.5,90.5C 40.33,91.8221 40.6634,92.9887 41.5,94C 52.1667,94.6667 52.1667,95.3333 41.5,96C 41.0426,96.414 40.7093,96.914 40.5,97.5C 45.2968,98.7813 49.9635,98.448 54.5,96.5C 55.1667,101.5 55.8333,106.5 56.5,111.5C 51.5625,109.363 46.8959,106.696 42.5,103.5C 41.5258,105.743 41.1924,108.076 41.5,110.5C 39.9832,105.414 39.1499,100.081 39,94.5C 38.1768,85.9896 38.3434,77.6563 39.5,69.5 Z"/></g>
<g><path style="opacity:1" fill="#454544" d="M 112.5,89.5 C 112.833,89.5 113.167,89.5 113.5,89.5C 113.5,94.1667 113.5,98.8333 113.5,103.5C 121.684,103.174 129.684,103.508 137.5,104.5C 129.167,104.5 120.833,104.5 112.5,104.5C 112.5,99.5 112.5,94.5 112.5,89.5 Z"/></g>
<g><path style="opacity:1" fill="#bc6807" d="M 56.5,111.5 C 57.2254,115.676 58.5588,119.676 60.5,123.5C 62.8122,129.424 65.1455,135.424 67.5,141.5C 66.5041,141.586 65.6708,141.252 65,140.5C 64.7506,137.823 63.7506,135.49 62,133.5C 60.9887,134.337 59.8221,134.67 58.5,134.5C 58.6495,135.552 58.4828,136.552 58,137.5C 56.3708,136.435 55.2042,135.101 54.5,133.5C 53.1014,135.103 51.4347,136.437 49.5,137.5C 50.8333,139.833 52.1667,142.167 53.5,144.5C 52.8728,145.417 52.5394,146.417 52.5,147.5C 46.7073,135.927 43.0407,123.593 41.5,110.5C 41.1924,108.076 41.5258,105.743 42.5,103.5C 46.8959,106.696 51.5625,109.363 56.5,111.5 Z"/></g>
<g><path style="opacity:1" fill="#384045" d="M 163.5,140.5 C 163.5,140.833 163.5,141.167 163.5,141.5C 162.549,142.919 162.216,144.585 162.5,146.5C 161.659,145.074 160.659,143.74 159.5,142.5C 159.5,141.833 159.833,141.5 160.5,141.5C 161.72,139.95 161.72,138.284 160.5,136.5C 160.5,136.167 160.5,135.833 160.5,135.5C 161.097,135.265 161.43,134.765 161.5,134C 160.944,132.989 160.278,132.156 159.5,131.5C 160.167,131.5 160.5,131.167 160.5,130.5C 161.72,128.95 161.72,127.284 160.5,125.5C 161.72,123.95 161.72,122.284 160.5,120.5C 160.5,119.5 160.5,118.5 160.5,117.5C 153.493,118.787 146.493,118.787 139.5,117.5C 139.433,118.959 139.766,120.292 140.5,121.5C 139.1,122.1 138.1,123.1 137.5,124.5C 137.5,123.167 137.5,121.833 137.5,120.5C 129.5,120.5 121.5,120.5 113.5,120.5C 113.827,130.681 113.494,140.681 112.5,150.5C 112.5,140.167 112.5,129.833 112.5,119.5C 120.833,119.5 129.167,119.5 137.5,119.5C 137.5,116.833 137.5,114.167 137.5,111.5C 139.196,111.315 140.529,110.481 141.5,109C 146.833,108.333 152.167,108.333 157.5,109C 159.081,109.707 160.581,110.54 162,111.5C 162.17,121.342 162.67,131.009 163.5,140.5 Z"/></g>
<g><path style="opacity:1" fill="#ecc250" d="M 143.5,109.5 C 147.514,109.334 151.514,109.501 155.5,110C 157.555,110.687 159.221,111.854 160.5,113.5C 159.91,114.799 158.91,115.632 157.5,116C 152.5,116.667 147.5,116.667 142.5,116C 141.09,115.632 140.09,114.799 139.5,113.5C 140.549,111.784 141.882,110.451 143.5,109.5 Z"/></g>
<g><path style="opacity:1" fill="#929290" d="M 191.5,72.5 C 190.167,72.5 189.5,73.1667 189.5,74.5C 185.542,77.2854 181.709,80.2854 178,83.5C 177.517,84.448 177.351,85.448 177.5,86.5C 176.608,91.4376 176.274,96.4376 176.5,101.5C 180.364,101.592 184.03,102.092 187.5,103C 186.328,102.581 185.328,101.915 184.5,101C 186.225,101.409 187.892,101.242 189.5,100.5C 190.05,98.3432 190.717,96.3432 191.5,94.5C 191.533,98.8689 191.2,103.202 190.5,107.5C 189.661,108.641 188.994,109.974 188.5,111.5C 182.986,112.769 178.319,111.436 174.5,107.5C 174.782,99.1641 175.116,90.8308 175.5,82.5C 172.848,82.5905 170.515,81.9238 168.5,80.5C 169.492,80.6716 170.158,80.3382 170.5,79.5C 172.305,80.9094 174.305,81.4094 176.5,81C 181.021,76.9777 185.688,73.1444 190.5,69.5C 191.386,70.325 191.719,71.325 191.5,72.5 Z"/></g>
<g><path style="opacity:1" fill="#706f6c" d="M 174.5,107.5 C 178.319,111.436 182.986,112.769 188.5,111.5C 188.994,109.974 189.661,108.641 190.5,107.5C 189.651,114.808 187.985,121.808 185.5,128.5C 185.5,127.167 184.833,126.5 183.5,126.5C 184.968,125.221 185.635,123.554 185.5,121.5C 181.864,119.227 177.864,117.893 173.5,117.5C 172.909,120.94 171.909,124.273 170.5,127.5C 171.689,128.429 173.022,128.762 174.5,128.5C 172.735,129.461 170.735,129.795 168.5,129.5C 170.208,121.992 172.208,114.659 174.5,107.5 Z"/></g>
<g><path style="opacity:1" fill="#e3bd4f" d="M 160.5,120.5 C 153.936,122.689 147.27,123.023 140.5,121.5C 139.766,120.292 139.433,118.959 139.5,117.5C 146.493,118.787 153.493,118.787 160.5,117.5C 160.5,118.5 160.5,119.5 160.5,120.5 Z"/></g>
<g><path style="opacity:1" fill="#804811" d="M 54.5,83.5 C 54.8333,83.5 55.1667,83.5 55.5,83.5C 55.8599,96.9935 57.5266,110.327 60.5,123.5C 58.5588,119.676 57.2254,115.676 56.5,111.5C 55.8333,106.5 55.1667,101.5 54.5,96.5C 54.5,92.1667 54.5,87.8333 54.5,83.5 Z"/></g>
<g><path style="opacity:1" fill="#565652" d="M 183.5,126.5 C 180.454,127.062 177.454,127.729 174.5,128.5C 173.022,128.762 171.689,128.429 170.5,127.5C 171.909,124.273 172.909,120.94 173.5,117.5C 177.864,117.893 181.864,119.227 185.5,121.5C 185.635,123.554 184.968,125.221 183.5,126.5 Z"/></g>
<g><path style="opacity:1" fill="#52544d" d="M 160.5,120.5 C 161.72,122.284 161.72,123.95 160.5,125.5C 161.72,127.284 161.72,128.95 160.5,130.5C 160.649,129.448 160.483,128.448 160,127.5C 153.295,129.746 146.462,130.079 139.5,128.5C 139.561,131.05 140.894,132.55 143.5,133C 149.014,133.93 154.348,133.43 159.5,131.5C 160.278,132.156 160.944,132.989 161.5,134C 161.43,134.765 161.097,135.265 160.5,135.5C 160.53,134.503 160.03,133.836 159,133.5C 152.777,136.011 146.611,136.011 140.5,133.5C 139.702,133.957 139.369,134.624 139.5,135.5C 138.778,134.449 137.778,133.782 136.5,133.5C 137.369,131.283 137.702,128.95 137.5,126.5C 134.167,126.5 130.833,126.5 127.5,126.5C 130.833,125.833 134.167,125.167 137.5,124.5C 138.1,123.1 139.1,122.1 140.5,121.5C 147.27,123.023 153.936,122.689 160.5,120.5 Z"/></g>
<g><path style="opacity:1" fill="#eec550" d="M 160.5,125.5 C 154.71,127.521 148.71,128.021 142.5,127C 139.766,126.282 139.1,124.782 140.5,122.5C 146.792,125.053 153.125,125.053 159.5,122.5C 160.386,123.325 160.719,124.325 160.5,125.5 Z"/></g>
<g><path style="opacity:1" fill="#e37240" d="M 127.5,126.5 C 130.833,126.5 134.167,126.5 137.5,126.5C 137.702,128.95 137.369,131.283 136.5,133.5C 131.63,133.968 126.964,133.302 122.5,131.5C 121.417,130.635 121.251,129.635 122,128.5C 123.725,127.536 125.559,126.869 127.5,126.5 Z"/></g>
<g><path style="opacity:1" fill="#e8bf50" d="M 160.5,130.5 C 160.5,131.167 160.167,131.5 159.5,131.5C 154.348,133.43 149.014,133.93 143.5,133C 140.894,132.55 139.561,131.05 139.5,128.5C 146.462,130.079 153.295,129.746 160,127.5C 160.483,128.448 160.649,129.448 160.5,130.5 Z"/></g>
<g><path style="opacity:1" fill="#b9b9ba" d="M 183.5,126.5 C 184.833,126.5 185.5,127.167 185.5,128.5C 184.042,136.558 181.042,143.892 176.5,150.5C 176.662,148.473 176.495,146.473 176,144.5C 173.833,142.333 171.667,140.167 169.5,138C 168.5,137.333 167.5,137.333 166.5,138C 166.026,139.729 165.026,140.895 163.5,141.5C 163.5,141.167 163.5,140.833 163.5,140.5C 164.989,136.677 166.656,133.01 168.5,129.5C 170.735,129.795 172.735,129.461 174.5,128.5C 177.454,127.729 180.454,127.062 183.5,126.5 Z"/></g>
<g><path style="opacity:1" fill="#edc450" d="M 160.5,135.5 C 160.5,135.833 160.5,136.167 160.5,136.5C 153.531,139.163 146.531,139.163 139.5,136.5C 139.5,136.167 139.5,135.833 139.5,135.5C 139.369,134.624 139.702,133.957 140.5,133.5C 146.611,136.011 152.777,136.011 159,133.5C 160.03,133.836 160.53,134.503 160.5,135.5 Z"/></g>
<g><path style="opacity:1" fill="#2d3844" d="M 137.5,124.5 C 134.167,125.167 130.833,125.833 127.5,126.5C 125.559,126.869 123.725,127.536 122,128.5C 121.251,129.635 121.417,130.635 122.5,131.5C 126.964,133.302 131.63,133.968 136.5,133.5C 137.778,133.782 138.778,134.449 139.5,135.5C 139.5,135.833 139.5,136.167 139.5,136.5C 139.167,137.5 138.5,138.167 137.5,138.5C 137.5,137.167 137.5,135.833 137.5,134.5C 133.833,134.5 130.167,134.5 126.5,134.5C 125.041,134.567 123.708,134.234 122.5,133.5C 122.44,132.957 122.107,132.624 121.5,132.5C 120.197,135.645 120.197,138.645 121.5,141.5C 121.5,142.167 121.833,142.5 122.5,142.5C 121.722,143.156 121.056,143.989 120.5,145C 120.57,145.765 120.903,146.265 121.5,146.5C 122.058,147.79 123.058,148.623 124.5,149C 129.155,149.499 133.821,149.666 138.5,149.5C 139.833,149.5 141.167,149.5 142.5,149.5C 146.833,149.5 151.167,149.5 155.5,149.5C 156.833,149.5 157.5,150.167 157.5,151.5C 157.167,151.5 156.833,151.5 156.5,151.5C 146.492,150.497 136.492,150.33 126.5,151C 123.966,150.484 121.8,149.317 120,147.5C 119.333,140.833 119.333,134.167 120,127.5C 125.486,124.829 131.32,123.829 137.5,124.5 Z"/></g>
<g><path style="opacity:1" fill="#e5733f" d="M 122.5,133.5 C 123.708,134.234 125.041,134.567 126.5,134.5C 129.625,135.479 132.958,135.813 136.5,135.5C 136.5,136.5 136.5,137.5 136.5,138.5C 132.486,138.666 128.486,138.499 124.5,138C 121.731,137.165 121.065,135.665 122.5,133.5 Z"/></g>
<g><path style="opacity:1" fill="#8a5a47" d="M 126.5,134.5 C 130.167,134.5 133.833,134.5 137.5,134.5C 137.5,135.833 137.5,137.167 137.5,138.5C 137.167,138.5 136.833,138.5 136.5,138.5C 136.5,137.5 136.5,136.5 136.5,135.5C 132.958,135.813 129.625,135.479 126.5,134.5 Z"/></g>
<g><path style="opacity:1" fill="#e5bf4f" d="M 160.5,141.5 C 159.833,141.5 159.5,141.833 159.5,142.5C 153.149,145.022 146.816,145.022 140.5,142.5C 139.386,141.277 139.219,139.944 140,138.5C 145.985,140.795 152.152,141.129 158.5,139.5C 159.713,139.747 160.38,140.414 160.5,141.5 Z"/></g>
<g><path style="opacity:1" fill="#4d4e4d" d="M 122.5,133.5 C 121.065,135.665 121.731,137.165 124.5,138C 128.486,138.499 132.486,138.666 136.5,138.5C 136.833,138.5 137.167,138.5 137.5,138.5C 138.5,138.167 139.167,137.5 139.5,136.5C 146.531,139.163 153.531,139.163 160.5,136.5C 161.72,138.284 161.72,139.95 160.5,141.5C 160.38,140.414 159.713,139.747 158.5,139.5C 152.152,141.129 145.985,140.795 140,138.5C 139.219,139.944 139.386,141.277 140.5,142.5C 146.816,145.022 153.149,145.022 159.5,142.5C 160.659,143.74 161.659,145.074 162.5,146.5C 161.084,148.179 159.75,149.846 158.5,151.5C 158.167,151.5 157.833,151.5 157.5,151.5C 157.5,150.167 156.833,149.5 155.5,149.5C 156.641,148.661 157.974,147.994 159.5,147.5C 160.833,146.5 160.833,145.5 159.5,144.5C 153.167,145.833 146.833,145.833 140.5,144.5C 139.417,145.365 139.251,146.365 140,147.5C 140.995,148.066 141.828,148.733 142.5,149.5C 141.167,149.5 139.833,149.5 138.5,149.5C 138.461,148.417 138.127,147.417 137.5,146.5C 132.482,145.786 127.482,145.119 122.5,144.5C 121.702,144.957 121.369,145.624 121.5,146.5C 120.903,146.265 120.57,145.765 120.5,145C 121.056,143.989 121.722,143.156 122.5,142.5C 126.998,144.277 131.665,144.777 136.5,144C 137.337,142.989 137.67,141.822 137.5,140.5C 133.154,140.666 128.821,140.499 124.5,140C 122.125,137.593 121.125,138.093 121.5,141.5C 120.197,138.645 120.197,135.645 121.5,132.5C 122.107,132.624 122.44,132.957 122.5,133.5 Z"/></g>
<g><path style="opacity:1" fill="#dd7140" d="M 122.5,142.5 C 121.833,142.5 121.5,142.167 121.5,141.5C 121.125,138.093 122.125,137.593 124.5,140C 128.821,140.499 133.154,140.666 137.5,140.5C 137.67,141.822 137.337,142.989 136.5,144C 131.665,144.777 126.998,144.277 122.5,142.5 Z"/></g>
<g><path style="opacity:1" fill="#d26e41" d="M 138.5,149.5 C 133.821,149.666 129.155,149.499 124.5,149C 123.058,148.623 122.058,147.79 121.5,146.5C 121.369,145.624 121.702,144.957 122.5,144.5C 127.482,145.119 132.482,145.786 137.5,146.5C 138.127,147.417 138.461,148.417 138.5,149.5 Z"/></g>
<g><path style="opacity:1" fill="#d57d19" d="M 67.5,141.5 C 67.3573,143.262 67.6906,144.929 68.5,146.5C 66.9951,147.842 66.3285,149.508 66.5,151.5C 63.0392,152.397 60.3725,154.397 58.5,157.5C 56.0002,154.506 54.0002,151.173 52.5,147.5C 52.5394,146.417 52.8728,145.417 53.5,144.5C 52.1667,142.167 50.8333,139.833 49.5,137.5C 51.4347,136.437 53.1014,135.103 54.5,133.5C 55.2042,135.101 56.3708,136.435 58,137.5C 58.4828,136.552 58.6495,135.552 58.5,134.5C 59.8221,134.67 60.9887,134.337 62,133.5C 63.7506,135.49 64.7506,137.823 65,140.5C 65.6708,141.252 66.5041,141.586 67.5,141.5 Z"/></g>
<g><path style="opacity:1" fill="#eac150" d="M 155.5,149.5 C 151.167,149.5 146.833,149.5 142.5,149.5C 141.828,148.733 140.995,148.066 140,147.5C 139.251,146.365 139.417,145.365 140.5,144.5C 146.833,145.833 153.167,145.833 159.5,144.5C 160.833,145.5 160.833,146.5 159.5,147.5C 157.974,147.994 156.641,148.661 155.5,149.5 Z"/></g>
<g><path style="opacity:0.2" fill="#253d5a" d="M 2.5,89.5 C -2.55918,117.618 1.44082,144.284 14.5,169.5C 13.8333,169.5 13.1667,169.5 12.5,169.5C 5.89614,156.094 1.56281,142.094 -0.5,127.5C -0.5,118.833 -0.5,110.167 -0.5,101.5C 0.0676885,97.3985 1.06769,93.3985 2.5,89.5 Z"/></g>
<g><path style="opacity:1" fill="#e6e6e6" d="M 176.5,150.5 C 175.59,153.992 173.924,156.992 171.5,159.5C 170.178,159.67 169.011,159.337 168,158.5C 167.383,159.449 167.549,160.282 168.5,161C 167.5,161.667 166.5,161.667 165.5,161C 162.112,158.469 159.779,155.302 158.5,151.5C 159.75,149.846 161.084,148.179 162.5,146.5C 162.216,144.585 162.549,142.919 163.5,141.5C 165.026,140.895 166.026,139.729 166.5,138C 167.5,137.333 168.5,137.333 169.5,138C 171.667,140.167 173.833,142.333 176,144.5C 176.495,146.473 176.662,148.473 176.5,150.5 Z"/></g>
<g><path style="opacity:1" fill="#e28f2f" d="M 67.5,141.5 C 71.4195,149.008 76.0861,156.008 81.5,162.5C 79.234,160.565 76.734,158.899 74,157.5C 70.7677,159.427 67.2677,160.76 63.5,161.5C 64.1667,162.167 64.8333,162.833 65.5,163.5C 64.8728,164.417 64.5394,165.417 64.5,166.5C 61.7232,164.049 59.7232,161.049 58.5,157.5C 60.3725,154.397 63.0392,152.397 66.5,151.5C 66.3285,149.508 66.9951,147.842 68.5,146.5C 67.6906,144.929 67.3573,143.262 67.5,141.5 Z"/></g>
<g><path style="opacity:1" fill="#f8a23d" d="M 81.5,162.5 C 90.3802,171.439 100.714,178.105 112.5,182.5C 113.117,188.598 112.45,194.265 110.5,199.5C 91.641,193.405 76.3077,182.405 64.5,166.5C 64.5394,165.417 64.8728,164.417 65.5,163.5C 64.8333,162.833 64.1667,162.167 63.5,161.5C 67.2677,160.76 70.7677,159.427 74,157.5C 76.734,158.899 79.234,160.565 81.5,162.5 Z"/></g>
<g><path style="opacity:1" fill="#cacac8" d="M 156.5,151.5 C 156.833,151.5 157.167,151.5 157.5,151.5C 157.833,151.5 158.167,151.5 158.5,151.5C 159.779,155.302 162.112,158.469 165.5,161C 166.5,161.667 167.5,161.667 168.5,161C 167.549,160.282 167.383,159.449 168,158.5C 169.011,159.337 170.178,159.67 171.5,159.5C 169.167,162.833 166.833,166.167 164.5,169.5C 160.052,166.894 155.719,164.06 151.5,161C 152.252,160.329 152.586,159.496 152.5,158.5C 153.861,156.15 155.194,153.816 156.5,151.5 Z"/></g>
<g><path style="opacity:1" fill="#a8a8a7" d="M 152.5,158.5 C 152.586,159.496 152.252,160.329 151.5,161C 155.719,164.06 160.052,166.894 164.5,169.5C 152.239,184.799 136.572,194.799 117.5,199.5C 117.334,193.824 117.501,188.157 118,182.5C 131.328,177.089 142.828,169.089 152.5,158.5 Z"/></g>
<g><path style="opacity:1" fill="#878683" d="M 147.5,183.5 C 147.649,182.448 147.483,181.448 147,180.5C 143.958,178.279 141.125,175.946 138.5,173.5C 141.349,170.816 144.516,168.483 148,166.5C 150.38,169.045 153.046,171.378 156,173.5C 156.667,174.5 156.667,175.5 156,176.5C 153.044,178.722 150.21,181.055 147.5,183.5 Z"/></g>
<g><path style="opacity:1" fill="#5d5c59" d="M 138.5,173.5 C 141.125,175.946 143.958,178.279 147,180.5C 147.483,181.448 147.649,182.448 147.5,183.5C 144.5,185.5 141.5,187.5 138.5,189.5C 138.586,188.504 138.252,187.671 137.5,187C 138.167,186.667 138.833,186.333 139.5,186C 136.602,183.289 133.269,181.122 129.5,179.5C 132.477,177.533 135.477,175.533 138.5,173.5 Z"/></g>
<g><path style="opacity:1" fill="#43423d" d="M 129.5,179.5 C 133.269,181.122 136.602,183.289 139.5,186C 138.833,186.333 138.167,186.667 137.5,187C 138.252,187.671 138.586,188.504 138.5,189.5C 132.314,192.759 125.981,195.759 119.5,198.5C 118.338,193.869 118.172,189.202 119,184.5C 122.293,182.437 125.793,180.77 129.5,179.5 Z"/></g>
<g><path style="opacity:1" fill="#a5713d" d="M 112.5,182.5 C 113.49,188.31 113.823,194.31 113.5,200.5C 112.209,200.737 111.209,200.404 110.5,199.5C 112.45,194.265 113.117,188.598 112.5,182.5 Z"/></g>
<g><path style="opacity:1" fill="#8c8c8c" d="M 98.5,212.5 C 105.485,213.089 112.485,213.422 119.5,213.5C 112.443,214.83 105.443,214.496 98.5,212.5 Z"/></g>
</svg>
