<?xml version="1.0" encoding="UTF-8"?>
<svg version="1.1" xmlns="http://www.w3.org/2000/svg" width="144" height="144">
<path d="M0 0 C15.2898226 11.72298995 25.72240946 27.99967593 29.07421875 47.05078125 C30.47231046 69.43931353 27.23587706 89.40517076 12.18359375 106.8203125 C0.23914919 119.45045665 -15.60042261 130.09376198 -33.50610352 131.21191406 C-58.17277073 131.59048699 -77.03211072 127.3300746 -95.25 109.81640625 C-110.87423913 93.58205252 -115.39213208 74.82719131 -115.12890625 52.953125 C-114.6429971 33.96415107 -104.75706255 17.37635263 -91.30078125 4.42578125 C-65.17235386 -18.2161842 -28.24475859 -18.81726907 0 0 Z " fill="#F0B80E" transform="translate(114.92578125,12.94921875)"/>
<path d="M0 0 C0 0.66 0 1.32 0 2 C1.07507813 2.36544922 1.07507813 2.36544922 2.171875 2.73828125 C7.55173579 5.13841252 13.39678423 9.63260302 15.97265625 15.04296875 C16.3125 16.875 16.3125 16.875 16 20 C14.625 21.75 14.625 21.75 13 23 C12.67 23.99 12.34 24.98 12 26 C9.36 26.33 6.72 26.66 4 27 C4 29.31 4 31.62 4 34 C3.34 34 2.68 34 2 34 C2 33.34 2 32.68 2 32 C0.41642541 32.31127516 -1.16684993 32.62407289 -2.75 32.9375 C-3.63171875 33.11152344 -4.5134375 33.28554688 -5.421875 33.46484375 C-7.63235053 33.92368488 -9.81512068 34.43336074 -12 35 C-11.690625 36.423125 -11.690625 36.423125 -11.375 37.875 C-11.25125 38.90625 -11.1275 39.9375 -11 41 C-11.99 41.99 -11.99 41.99 -13 43 C-13.556875 42.649375 -14.11375 42.29875 -14.6875 41.9375 C-17.63047291 40.74440288 -18.96012852 41.17585706 -22 42 C-24.30226635 43.13088502 -24.30226635 43.13088502 -26.5 44.5 C-29.66774384 46.41849275 -32.28753175 47.61141637 -36 48 C-39.3125 46.5625 -39.3125 46.5625 -42 45 C-42 44.34 -42 43.68 -42 43 C-43.65 42.67 -45.3 42.34 -47 42 C-47 41.34 -47 40.68 -47 40 C-48.1446875 40.2784375 -48.1446875 40.2784375 -49.3125 40.5625 C-52 41 -52 41 -55 40 C-54.1875 37.0625 -54.1875 37.0625 -53 34 C-49.99580359 32.9986012 -47.12290635 32.48578543 -44 32 C-43.505 34.97 -43.505 34.97 -43 38 C-41.33524314 38.34274406 -39.66804677 38.67364302 -38 39 C-36.989375 39.268125 -35.97875 39.53625 -34.9375 39.8125 C-31.87032884 40.34264921 -31.87032884 40.34264921 -29.625 38.0625 C-29.08875 37.381875 -28.5525 36.70125 -28 36 C-29.485 35.01 -29.485 35.01 -31 34 C-31 33.01 -31 32.02 -31 31 C-35.64586892 31.48484276 -35.64586892 31.48484276 -40 33 C-40.66 32.34 -41.32 31.68 -42 31 C-38.25 28 -38.25 28 -36 28 C-36 27.01 -36 26.02 -36 25 C-30.4068948 25.29437396 -26.91863418 27.80101905 -22.46484375 30.91796875 C-20.00561379 32.29872148 -20.00561379 32.29872148 -17.2734375 31.30859375 C-14.69396011 29.82384302 -14.00972809 28.75380388 -13 26 C-13.680625 25.75636719 -14.36125 25.51273438 -15.0625 25.26171875 C-19.22256498 23.47488233 -23.00675958 21.07105244 -26.828125 18.65820312 C-29.50311098 17.05611913 -31.41020375 15.98028037 -34.5703125 16.0859375 C-37.44449653 17.16722217 -40.14165245 18.4103282 -42.875 19.8125 C-43.91914062 20.34746094 -44.96328125 20.88242187 -46.0390625 21.43359375 C-49.40820857 23.21595202 -52.71877273 25.06109298 -56 27 C-56 28.32 -56 29.64 -56 31 C-55.01 31.33 -54.02 31.66 -53 32 C-53.495 32.99 -53.495 32.99 -54 34 C-54.928125 33.67 -55.85625 33.34 -56.8125 33 C-61.80904873 31.54010305 -66.8433358 31.83215198 -72 32 C-72.02712351 34.39591038 -72.0468982 36.79150957 -72.0625 39.1875 C-72.07087891 39.86103516 -72.07925781 40.53457031 -72.08789062 41.22851562 C-72.10614342 44.97033767 -71.76339658 48.34807582 -71 52 C-71.33 52.33 -71.66 52.66 -72 53 C-72.15980437 55.44608998 -72.25929447 57.86731058 -72.31640625 60.31640625 C-72.33718735 61.04746078 -72.35796844 61.77851532 -72.37937927 62.53172302 C-72.44495024 64.87521656 -72.50379432 67.21882539 -72.5625 69.5625 C-72.60567808 71.14779855 -72.64929213 72.73308529 -72.69335938 74.31835938 C-72.8006392 78.21212037 -72.9018849 82.10599772 -73 86 C-73.99 86 -74.98 86 -76 86 C-76 86.66 -76 87.32 -76 88 C-74.68 88.33 -73.36 88.66 -72 89 C-74.88415883 90.44207941 -77.41721528 90.09394887 -80.625 90.0625 C-81.81351563 90.05347656 -83.00203125 90.04445313 -84.2265625 90.03515625 C-85.59941406 90.01775391 -85.59941406 90.01775391 -87 90 C-87.495 90.99 -87.495 90.99 -88 92 C-89.65 92 -91.3 92 -93 92 C-96 85.375 -96 85.375 -96 82 C-96.66 82 -97.32 82 -98 82 C-103.82166501 62.69840826 -102.34760304 43.22144996 -92.97265625 25.46875 C-89.98758441 20.21975239 -89.98758441 20.21975239 -88 18 C-87.34 18 -86.68 18 -86 18 C-85.75765625 17.26394531 -85.5153125 16.52789063 -85.265625 15.76953125 C-80.77760115 5.9485161 -67.93048924 -0.91786275 -58.11669922 -4.73193359 C-38.47559708 -11.49412049 -18.55858033 -8.46003752 0 0 Z " fill="#F0B80D" transform="translate(106,13)"/>
<path d="M0 0 C3.06485148 1.51943296 5.96396654 3.26900735 8.875 5.0625 C9.65875 5.53494141 10.4425 6.00738281 11.25 6.49414062 C13.17198433 7.65436287 15.08822535 8.82305776 17 10 C16.44655057 12.66762624 16.1544313 13.8345379 14.25 15.875 C12 17 12 17 9.8125 16.5 C6.56639514 14.76874407 3.36040539 12.97652793 0.18359375 11.12109375 C-1.89178726 10.05555824 -3.72245723 9.45964015 -6 9 C-6 9.99 -6 10.98 -6 12 C-8.5 13.6875 -8.5 13.6875 -11 15 C-10.01 15 -9.02 15 -8 15 C-5.66666667 15 -3.33333333 15 -1 15 C-1 15.99 -1 16.98 -1 18 C0.32 18.66 1.64 19.32 3 20 C0.875 22.5625 0.875 22.5625 -2 25 C-5 24.9375 -5 24.9375 -8 24 C-8.9075 23.7525 -9.815 23.505 -10.75 23.25 C-13.65291372 21.63727016 -14.09619077 20.12225008 -15 17 C-15.78375 17.165 -16.5675 17.33 -17.375 17.5 C-20 18 -20 18 -22 18 C-22 18.99 -22 19.98 -22 21 C-23.5 22.6875 -23.5 22.6875 -25 24 C-22.36 24 -19.72 24 -17 24 C-17 24.66 -17 25.32 -17 26 C-15.35 26.33 -13.7 26.66 -12 27 C-12 27.66 -12 28.32 -12 29 C-7.79515698 30.6623798 -5.34632997 31.24089006 -1 30 C1.86408498 28.4968632 4.60809752 26.84755295 7.37890625 25.1796875 C10.32533916 23.85357314 11.05917561 23.95357169 14 25 C15.32 25 16.64 25 18 25 C20 27 20 27 20.1953125 30.0390625 C20.17210937 31.22242188 20.14890625 32.40578125 20.125 33.625 C20.10695312 34.81351563 20.08890625 36.00203125 20.0703125 37.2265625 C20.04710937 38.14179687 20.02390625 39.05703125 20 40 C18.71086513 40.67154933 17.41859796 41.33708859 16.125 42 C15.40570313 42.37125 14.68640625 42.7425 13.9453125 43.125 C12 44 12 44 10 44 C9.67 44.99 9.34 45.98 9 47 C8.01 47.33 7.02 47.66 6 48 C5.67 53.94 5.34 59.88 5 66 C-2.84615385 69.92307692 -2.84615385 69.92307692 -6 70 C-10.88354577 68.06540478 -10.88354577 68.06540478 -13 66 C-13.7262793 63.04373636 -13.40412273 60.20404779 -13.1875 57.1875 C-13.0344886 50.58844632 -13.0344886 50.58844632 -16.60546875 45.296875 C-20.63381803 43.00596191 -24.61872238 41.46042587 -29 40 C-29.33 35.71 -29.66 31.42 -30 27 C-30.28875 28.0725 -30.5775 29.145 -30.875 30.25 C-32 34 -32 34 -33.05810547 35.89550781 C-34.24036305 38.53704756 -34.22739797 40.53418244 -34.1953125 43.421875 C-34.18886719 44.44667969 -34.18242188 45.47148438 -34.17578125 46.52734375 C-34.15902344 47.59082031 -34.14226563 48.65429688 -34.125 49.75 C-34.11597656 50.82894531 -34.10695313 51.90789062 -34.09765625 53.01953125 C-34.07411305 55.67991278 -34.04122799 58.33984336 -34 61 C-33.23018799 61.30341309 -32.46037598 61.60682617 -31.66723633 61.91943359 C-28.92873552 63.02887108 -26.32265023 64.28985722 -23.6875 65.625 C-22.36298828 66.29402344 -22.36298828 66.29402344 -21.01171875 66.9765625 C-20.34785156 67.31429687 -19.68398438 67.65203125 -19 68 C-19 71.3 -19 74.6 -19 78 C-22.84453382 77.42740986 -25.4765417 76.32532977 -28.75 74.25 C-33.40633239 71.32051936 -38.17920953 68.64655328 -43 66 C-43.02481344 61.96151684 -43.0429136 57.92306353 -43.05493164 53.88452148 C-43.05994454 52.51211778 -43.06675658 51.13971938 -43.07543945 49.76733398 C-43.08763857 47.78892349 -43.09272248 45.8104732 -43.09765625 43.83203125 C-43.10289307 42.64327393 -43.10812988 41.4545166 -43.11352539 40.22973633 C-43.01241126 37.35309359 -42.56724789 34.80798942 -42 32 C-42.33 31.67 -42.66 31.34 -43 31 C-43.09938863 29.23146708 -43.12969223 27.45881725 -43.125 25.6875 C-43.12757812 24.72199219 -43.13015625 23.75648437 -43.1328125 22.76171875 C-43.01510712 20.31413917 -42.83153622 18.29988181 -42 16 C-37.51962957 13.75981478 -31.62233361 14.65191523 -26.9375 16 C-25.968125 16.33 -24.99875 16.66 -24 17 C-24.515625 16.401875 -25.03125 15.80375 -25.5625 15.1875 C-26.036875 14.465625 -26.51125 13.74375 -27 13 C-25.86927345 9.60782035 -25.51519084 9.42854651 -22.54296875 7.80859375 C-21.84236328 7.42123047 -21.14175781 7.03386719 -20.41992188 6.63476562 C-19.68322266 6.23966797 -18.94652344 5.84457031 -18.1875 5.4375 C-17.46240234 5.03853516 -16.73730469 4.63957031 -15.99023438 4.22851562 C-14.00050038 3.13807586 -12.00698122 2.05834792 -10 1 C-9.31607178 0.62633301 -8.63214355 0.25266602 -7.92749023 -0.13232422 C-4.90533868 -1.49277091 -3.17314185 -0.90393284 0 0 Z M32 16 C32.33 16.66 32.66 17.32 33 18 C34.32 18.66 35.64 19.32 37 20 C37 23.96 37 27.92 37 32 C35.68 32.33 34.36 32.66 33 33 C33.66 33.66 34.32 34.32 35 35 C35.66 34.67 36.32 34.34 37 34 C37.15498126 44.71092709 36.67842194 55.31485445 36 66 C34.26863607 66.72631836 32.53727214 67.45263672 30.8059082 68.17895508 C28.7858792 69.05613814 28.7858792 69.05613814 26.1875 70.6875 C24 72 24 72 22 72 C22 72.66 22 73.32 22 74 C20.30729167 74.71614583 18.61458333 75.43229167 16.921875 76.1484375 C14.91880788 77.03597537 12.95959207 78.02020396 11 79 C11 75.37 11 71.74 11 68 C11.99902344 67.61972656 12.99804688 67.23945312 14.02734375 66.84765625 C18.08119055 65.07832645 22.00934741 63.34612006 25 60 C27.0105676 54.59248881 26.44965782 48.65284112 26 43 C25.34 43 24.68 43 24 43 C24 42.01 24 41.02 24 40 C25.98 39.34 27.96 38.68 30 38 C28.02 37.34 26.04 36.68 24 36 C23.67 32.7 23.34 29.4 23 26 C20.525 25.01 20.525 25.01 18 24 C18 22.35 18 20.7 18 19 C23.00932754 15.99440348 26.32723489 15.70658112 32 16 Z " fill="#FCFDF9" transform="translate(76,29)"/>
<path d="M0 0 C15.2898226 11.72298995 25.72240946 27.99967593 29.07421875 47.05078125 C30.47231046 69.43931353 27.23587706 89.40517076 12.18359375 106.8203125 C0.23914919 119.45045665 -15.60042261 130.09376198 -33.50610352 131.21191406 C-58.17277073 131.59048699 -77.03211072 127.3300746 -95.25 109.81640625 C-110.87423913 93.58205252 -115.39213208 74.82719131 -115.12890625 52.953125 C-114.6429971 33.96415107 -104.75706255 17.37635263 -91.30078125 4.42578125 C-65.17235386 -18.2161842 -28.24475859 -18.81726907 0 0 Z M-92.92578125 13.05078125 C-94.19536466 15.69423373 -94.19536466 15.69423373 -94.92578125 18.05078125 C-95.58578125 18.05078125 -96.24578125 18.05078125 -96.92578125 18.05078125 C-109.20897095 31.37020712 -110.78812734 49.53117446 -110.10009766 66.76367188 C-109.70073173 72.00353181 -108.44124297 77.02630398 -106.92578125 82.05078125 C-106.26578125 82.05078125 -105.60578125 82.05078125 -104.92578125 82.05078125 C-104.90515625 82.97890625 -104.88453125 83.90703125 -104.86328125 84.86328125 C-104.08356406 90.6048351 -100.4294767 95.57608475 -96.92578125 100.05078125 C-96.26578125 100.05078125 -95.60578125 100.05078125 -94.92578125 100.05078125 C-94.26578125 101.37078125 -93.60578125 102.69078125 -92.92578125 104.05078125 C-91.60578125 104.05078125 -90.28578125 104.05078125 -88.92578125 104.05078125 C-88.59578125 105.70078125 -88.26578125 107.35078125 -87.92578125 109.05078125 C-86.44078125 109.54578125 -86.44078125 109.54578125 -84.92578125 110.05078125 C-84.92578125 110.71078125 -84.92578125 111.37078125 -84.92578125 112.05078125 C-84.26578125 112.05078125 -83.60578125 112.05078125 -82.92578125 112.05078125 C-82.92578125 112.71078125 -82.92578125 113.37078125 -82.92578125 114.05078125 C-82.26578125 114.05078125 -81.60578125 114.05078125 -80.92578125 114.05078125 C-80.59578125 115.04078125 -80.26578125 116.03078125 -79.92578125 117.05078125 C-76.14600457 119.37018967 -73.36493169 120.442471 -68.92578125 120.05078125 C-68.92578125 120.71078125 -68.92578125 121.37078125 -68.92578125 122.05078125 C-56.19109207 129.13222056 -37.63030558 126.67904619 -23.92578125 124.05078125 C-23.92578125 123.39078125 -23.92578125 122.73078125 -23.92578125 122.05078125 C-22.75015625 122.20546875 -22.75015625 122.20546875 -21.55078125 122.36328125 C-9.68909758 121.34072231 2.29355339 110.3926252 10.07421875 102.05078125 C10.90453644 99.90104866 10.90453644 99.90104866 11.07421875 98.05078125 C11.73421875 98.05078125 12.39421875 98.05078125 13.07421875 98.05078125 C15.27560535 94.24650633 15.27560535 94.24650633 16.07421875 90.05078125 C16.73421875 90.05078125 17.39421875 90.05078125 18.07421875 90.05078125 C19.42861543 87.3419879 19.13923326 85.04144857 19.07421875 82.05078125 C19.73421875 82.05078125 20.39421875 82.05078125 21.07421875 82.05078125 C25.4494271 62.46651532 26.3221739 43.00696098 15.88671875 25.05078125 C10.81904794 17.36403899 1.87339784 5.19974459 -7.1875 2.3359375 C-7.76113281 2.24183594 -8.33476563 2.14773438 -8.92578125 2.05078125 C-8.92578125 1.39078125 -8.92578125 0.73078125 -8.92578125 0.05078125 C-36.94522491 -12.95678529 -71.35560627 -11.77274656 -92.92578125 13.05078125 Z " fill="#F2EFE4" transform="translate(114.92578125,12.94921875)"/>
<path d="M0 0 C2.475 0.495 2.475 0.495 5 1 C5 4.3 5 7.6 5 11 C7.31 11.33 9.62 11.66 12 12 C10.75 13.5 10.75 13.5 9 15 C7.68 15 6.36 15 5 15 C5 15.99 5 16.98 5 18 C5.66 18 6.32 18 7 18 C8.36854721 33.1722888 8.36854721 33.1722888 5.20703125 37.39453125 C1.00698469 40.17345653 -3.18863508 41.39621169 -8 43 C-7.505 49.93 -7.505 49.93 -7 57 C-7.99 57 -8.98 57 -10 57 C-10 54.36 -10 51.72 -10 49 C-10.99 49 -11.98 49 -13 49 C-13 52.63 -13 56.26 -13 60 C-18.93838555 61.74056128 -23.37946788 62.97422731 -29.11328125 59.84765625 C-34.37930046 56.62069954 -34.37930046 56.62069954 -36 55 C-38.32961443 54.64159778 -40.66365343 54.31151288 -43 54 C-44.66934283 53.68033861 -46.3373217 53.35268934 -48 53 C-48.33 51.68 -48.66 50.36 -49 49 C-49.66 49 -50.32 49 -51 49 C-51 48.34 -51 47.68 -51 47 C-46.49487506 48.68942185 -42.2840266 50.82168139 -38 53 C-38 49.7 -38 46.4 -38 43 C-40.24710923 42.43822269 -42.49851964 41.89141156 -44.76171875 41.3984375 C-48.5473999 40.07420724 -50.37773451 39.09513304 -53 36 C-55.07612516 27.9002328 -56.09361431 16.49903237 -52 9 C-51.67 7.783125 -51.34 6.56625 -51 5.3125 C-50.67 4.219375 -50.34 3.12625 -50 2 C-49.34 1.67 -48.68 1.34 -48 1 C-48 5.62 -48 10.24 -48 15 C-46.35 15.33 -44.7 15.66 -43 16 C-38.46131173 17.56189677 -35.10529005 19.28645726 -32 23 C-30.59986074 28.87455691 -31.37769282 35.05979511 -32 41 C-28.29642854 42.52278826 -25.03057353 43.74272935 -21 44 C-18.80961577 42.62831762 -18.80961577 42.62831762 -17 41 C-16.01 41 -15.02 41 -14 41 C-14 35.06 -14 29.12 -14 23 C-12.68 22.34 -11.36 21.68 -10 21 C-9.401875 20.34 -8.80375 19.68 -8.1875 19 C-6 17 -6 17 1 15 C0.505 7.575 0.505 7.575 0 0 Z " fill="#E6BA33" transform="translate(95,54)"/>
<path d="M0 0 C3.06485148 1.51943296 5.96396654 3.26900735 8.875 5.0625 C9.65875 5.53494141 10.4425 6.00738281 11.25 6.49414062 C13.17198433 7.65436287 15.08822535 8.82305776 17 10 C16.44655057 12.66762624 16.1544313 13.8345379 14.25 15.875 C12 17 12 17 9.8125 16.5 C6.56639514 14.76874407 3.36040539 12.97652793 0.18359375 11.12109375 C-1.89178726 10.05555824 -3.72245723 9.45964015 -6 9 C-6 9.99 -6 10.98 -6 12 C-8.5 13.6875 -8.5 13.6875 -11 15 C-10.01 15 -9.02 15 -8 15 C-5.66666667 15 -3.33333333 15 -1 15 C-1 15.99 -1 16.98 -1 18 C0.32 18.66 1.64 19.32 3 20 C0.875 22.5625 0.875 22.5625 -2 25 C-5 24.9375 -5 24.9375 -8 24 C-8.9075 23.7525 -9.815 23.505 -10.75 23.25 C-13.65291372 21.63727016 -14.09619077 20.12225008 -15 17 C-15.78375 17.165 -16.5675 17.33 -17.375 17.5 C-20 18 -20 18 -22 18 C-22 18.99 -22 19.98 -22 21 C-23.5 22.6875 -23.5 22.6875 -25 24 C-24.01 24 -23.02 24 -22 24 C-22 24.66 -22 25.32 -22 26 C-23.2065625 26.4640625 -23.2065625 26.4640625 -24.4375 26.9375 C-27.23762602 28.7454438 -27.23762602 28.7454438 -27.5546875 31.640625 C-27.79085591 34.43170617 -27.94770289 37.19972753 -28 40 C-28.33 40 -28.66 40 -29 40 C-29.33 35.71 -29.66 31.42 -30 27 C-30.28875 28.0725 -30.5775 29.145 -30.875 30.25 C-32 34 -32 34 -33.05810547 35.89550781 C-34.24036305 38.53704756 -34.22739797 40.53418244 -34.1953125 43.421875 C-34.18886719 44.44667969 -34.18242188 45.47148438 -34.17578125 46.52734375 C-34.15902344 47.59082031 -34.14226563 48.65429688 -34.125 49.75 C-34.11597656 50.82894531 -34.10695313 51.90789062 -34.09765625 53.01953125 C-34.07411305 55.67991278 -34.04122799 58.33984336 -34 61 C-33.23018799 61.30341309 -32.46037598 61.60682617 -31.66723633 61.91943359 C-28.92873552 63.02887108 -26.32265023 64.28985722 -23.6875 65.625 C-22.36298828 66.29402344 -22.36298828 66.29402344 -21.01171875 66.9765625 C-20.34785156 67.31429687 -19.68398438 67.65203125 -19 68 C-19 71.3 -19 74.6 -19 78 C-22.84453382 77.42740986 -25.4765417 76.32532977 -28.75 74.25 C-33.40633239 71.32051936 -38.17920953 68.64655328 -43 66 C-43.02481344 61.96151684 -43.0429136 57.92306353 -43.05493164 53.88452148 C-43.05994454 52.51211778 -43.06675658 51.13971938 -43.07543945 49.76733398 C-43.08763857 47.78892349 -43.09272248 45.8104732 -43.09765625 43.83203125 C-43.10289307 42.64327393 -43.10812988 41.4545166 -43.11352539 40.22973633 C-43.01241126 37.35309359 -42.56724789 34.80798942 -42 32 C-42.33 31.67 -42.66 31.34 -43 31 C-43.09938863 29.23146708 -43.12969223 27.45881725 -43.125 25.6875 C-43.12757812 24.72199219 -43.13015625 23.75648437 -43.1328125 22.76171875 C-43.01510712 20.31413917 -42.83153622 18.29988181 -42 16 C-37.51962957 13.75981478 -31.62233361 14.65191523 -26.9375 16 C-25.968125 16.33 -24.99875 16.66 -24 17 C-24.515625 16.401875 -25.03125 15.80375 -25.5625 15.1875 C-26.036875 14.465625 -26.51125 13.74375 -27 13 C-25.86927345 9.60782035 -25.51519084 9.42854651 -22.54296875 7.80859375 C-21.84236328 7.42123047 -21.14175781 7.03386719 -20.41992188 6.63476562 C-19.68322266 6.23966797 -18.94652344 5.84457031 -18.1875 5.4375 C-17.46240234 5.03853516 -16.73730469 4.63957031 -15.99023438 4.22851562 C-14.00050038 3.13807586 -12.00698122 2.05834792 -10 1 C-9.31607178 0.62633301 -8.63214355 0.25266602 -7.92749023 -0.13232422 C-4.90533868 -1.49277091 -3.17314185 -0.90393284 0 0 Z " fill="#E5B923" transform="translate(76,29)"/>
<path d="M0 0 C0.33 0 0.66 0 1 0 C1.02712153 1.916588 1.04645097 3.8332873 1.0625 5.75 C1.07410156 6.81734375 1.08570313 7.8846875 1.09765625 8.984375 C1.01412632 11.56377928 0.65708155 13.53723766 0 16 C0 17.32 0 18.64 0 20 C-0.66 20 -1.32 20 -2 20 C-1.77570313 20.88171875 -1.55140625 21.7634375 -1.3203125 22.671875 C-0.67548215 29.37181964 -6.09971172 34.5748702 -10.05078125 39.6171875 C-21.24446148 52.75492554 -36.73463832 62.48224158 -54 65 C-75.49217452 66.56344626 -94.37884246 63.40700012 -111.625 49.875 C-113.09585648 48.597612 -114.55566527 47.30730107 -116 46 C-116.62777344 45.49855469 -117.25554687 44.99710938 -117.90234375 44.48046875 C-121.17682134 41.68367966 -122.37117852 39.47742428 -122.875 35.3125 C-123.00163064 32.86852873 -123 30.44802288 -123 28 C-120 31.75 -120 31.75 -120 34 C-119.34 34 -118.68 34 -118 34 C-117.34 34.99 -116.68 35.98 -116 37 C-115.01 37.185625 -115.01 37.185625 -114 37.375 C-113.34 37.58125 -112.68 37.7875 -112 38 C-110.875 40.5 -110.875 40.5 -110 43 C-109.34 43.33 -108.68 43.66 -108 44 C-108 44.66 -108 45.32 -108 46 C-107.34 46 -106.68 46 -106 46 C-106 46.66 -106 47.32 -106 48 C-105.34 48 -104.68 48 -104 48 C-103.67 48.66 -103.34 49.32 -103 50 C-99.37438822 52.06000669 -96.12797305 53.39294514 -92 54 C-92 54.66 -92 55.32 -92 56 C-91.09636719 56.13277344 -90.19273438 56.26554687 -89.26171875 56.40234375 C-88.08222656 56.57894531 -86.90273437 56.75554687 -85.6875 56.9375 C-84.51574219 57.11152344 -83.34398437 57.28554687 -82.13671875 57.46484375 C-79 58 -79 58 -76 59 C-73.52961185 59.09835269 -71.09472402 59.14123293 -68.625 59.125 C-67.92052734 59.12306641 -67.21605469 59.12113281 -66.49023438 59.11914062 C-59.96698993 59.06629706 -53.49328745 58.622644 -47 58 C-47 57.34 -47 56.68 -47 56 C-45.989375 55.731875 -44.97875 55.46375 -43.9375 55.1875 C-32.5941357 51.89133202 -18.68625783 44.28997586 -12.71484375 33.7265625 C-12.47894531 33.15679687 -12.24304688 32.58703125 -12 32 C-11.34 32 -10.68 32 -10 32 C-9.5359375 30.576875 -9.5359375 30.576875 -9.0625 29.125 C-8 26 -8 26 -7 24 C-6.34 24 -5.68 24 -5 24 C-4.67 21.36 -4.34 18.72 -4 16 C-3.34 16 -2.68 16 -2 16 C-1.855625 14.845 -1.71125 13.69 -1.5625 12.5 C-1.04166667 8.33333333 -0.52083333 4.16666667 0 0 Z " fill="#C2C2BF" transform="translate(138,79)"/>
<path d="M0 0 C0.33 0.66 0.66 1.32 1 2 C2.32 2.66 3.64 3.32 5 4 C5 7.96 5 11.92 5 16 C3.68 16.33 2.36 16.66 1 17 C1.66 17.66 2.32 18.32 3 19 C3.66 18.67 4.32 18.34 5 18 C5.15498126 28.71092709 4.67842194 39.31485445 4 50 C2.26863607 50.72631836 0.53727214 51.45263672 -1.1940918 52.17895508 C-3.2141208 53.05613814 -3.2141208 53.05613814 -5.8125 54.6875 C-8 56 -8 56 -10 56 C-10 56.66 -10 57.32 -10 58 C-11.69270833 58.71614583 -13.38541667 59.43229167 -15.078125 60.1484375 C-17.08119212 61.03597537 -19.04040793 62.02020396 -21 63 C-21 59.37 -21 55.74 -21 52 C-20.00097656 51.61972656 -19.00195312 51.23945312 -17.97265625 50.84765625 C-13.91880945 49.07832645 -9.99065259 47.34612006 -7 44 C-4.9894324 38.59248881 -5.55034218 32.65284112 -6 27 C-6.66 27 -7.32 27 -8 27 C-8 26.01 -8 25.02 -8 24 C-6.02 23.34 -4.04 22.68 -2 22 C-3.98 21.34 -5.96 20.68 -8 20 C-8.33 16.7 -8.66 13.4 -9 10 C-11.475 9.01 -11.475 9.01 -14 8 C-14 6.35 -14 4.7 -14 3 C-8.99067246 -0.00559652 -5.67276511 -0.29341888 0 0 Z M-14 9 C-13.34 9.99 -12.68 10.98 -12 12 C-13.65 11.67 -15.3 11.34 -17 11 C-16.01 10.34 -15.02 9.68 -14 9 Z " fill="#EBC13B" transform="translate(108,45)"/>
<path d="M0 0 C0.33 0 0.66 0 1 0 C1 4.62 1 9.24 1 14 C2.65 14.33 4.3 14.66 6 15 C10.51473555 16.57275624 13.8568386 18.35055757 17 22 C18.23692128 26.57352744 18.00762584 31.22212307 17.875 35.91796875 C17.80962759 39.57473768 18.41314815 41.28515288 21 44 C21 44.66 21 45.32 21 46 C19.02 46 17.04 46 15 46 C15 47.65 15 49.3 15 51 C14.01 51.495 14.01 51.495 13 52 C13 48.37 13 44.74 13 41 C10.525 41.495 10.525 41.495 8 42 C3.86307825 41.16001589 0.27364171 39.70490779 -2.84667969 36.77490234 C-6.95270794 30.45593 -5.95698765 19.21184169 -5 12 C-4.37931792 10.64464913 -3.71453463 9.3083052 -3 8 C-2.32811503 5.66816393 -1.66084583 3.33498858 -1 1 C-0.67 0.67 -0.34 0.34 0 0 Z " fill="#E7BC29" transform="translate(46,55)"/>
<path d="M0 0 C1.65 0.33 3.3 0.66 5 1 C5 4.3 5 7.6 5 11 C7.31 11.33 9.62 11.66 12 12 C10.75 13.5 10.75 13.5 9 15 C7.68 15 6.36 15 5 15 C5 15.99 5 16.98 5 18 C5.66 18 6.32 18 7 18 C8.36854721 33.1722888 8.36854721 33.1722888 5.20703125 37.39453125 C2.84787119 38.95544955 0.65640188 40.03678436 -2 41 C-3.7634375 41.680625 -3.7634375 41.680625 -5.5625 42.375 C-6.366875 42.58125 -7.17125 42.7875 -8 43 C-7.67 41.35 -7.34 39.7 -7 38 C-7.66 38 -8.32 38 -9 38 C-9 33.38 -9 28.76 -9 24 C-8.01 24 -7.02 24 -6 24 C-6 23.34 -6 22.68 -6 22 C-7.32 21.67 -8.64 21.34 -10 21 C-6.42270321 16.70724386 -5.04383779 16.7268108 1 15 C0.67 10.05 0.34 5.1 0 0 Z " fill="#E5BC37" transform="translate(95,54)"/>
<path d="M0 0 C3.06485148 1.51943296 5.96396654 3.26900735 8.875 5.0625 C9.65875 5.53494141 10.4425 6.00738281 11.25 6.49414062 C13.17198433 7.65436287 15.08822535 8.82305776 17 10 C16.44655057 12.66762624 16.1544313 13.8345379 14.25 15.875 C12 17 12 17 9.8125 16.5 C8.14805583 15.61229644 6.49890367 14.69284651 4.890625 13.70703125 C0.25079772 10.85580487 0.25079772 10.85580487 -5 9.875 C-8.51702784 11.19388544 -11.5787006 12.94346045 -14.75390625 14.94140625 C-17.39945225 16.18826358 -19.10595365 16.29694612 -22 16 C-24.8125 14.5 -24.8125 14.5 -27 13 C-25.86927345 9.60782035 -25.51519084 9.42854651 -22.54296875 7.80859375 C-21.84236328 7.42123047 -21.14175781 7.03386719 -20.41992188 6.63476562 C-19.31487305 6.04211914 -19.31487305 6.04211914 -18.1875 5.4375 C-17.46240234 5.03853516 -16.73730469 4.63957031 -15.99023438 4.22851562 C-14.00050038 3.13807586 -12.00698122 2.05834792 -10 1 C-9.31607178 0.62633301 -8.63214355 0.25266602 -7.92749023 -0.13232422 C-4.90533868 -1.49277091 -3.17314185 -0.90393284 0 0 Z " fill="#FBFAEB" transform="translate(76,29)"/>
<path d="M0 0 C0.29121422 4.37358953 0.46824053 8.74469259 0.625 13.125 C0.75068359 14.98125 0.75068359 14.98125 0.87890625 16.875 C0.97645793 20.50392238 0.94769009 23.49116896 0 27 C-2.9595892 29.96747093 -6.05982182 31.62358616 -10 33 C-10.66 33 -11.32 33 -12 33 C-12 33.66 -12 34.32 -12 35 C-13.69270833 35.71614583 -15.38541667 36.43229167 -17.078125 37.1484375 C-19.08119212 38.03597537 -21.04040793 39.02020396 -23 40 C-23 36.37 -23 32.74 -23 29 C-22.00097656 28.63132812 -21.00195312 28.26265625 -19.97265625 27.8828125 C-15.88329386 26.13157849 -11.96198706 24.41274634 -9 21 C-6.96465435 15.26343246 -7.55324203 8.97379234 -8 3 C-1.125 0 -1.125 0 0 0 Z " fill="#FEFDFA" transform="translate(110,68)"/>
<path d="M0 0 C2.76276177 0.52268466 5.3260876 1.10869587 8 2 C8 8.27 8 14.54 8 21 C10.475 21.99 10.475 21.99 13 23 C14.77948425 23.85726979 16.55053724 24.7322722 18.3125 25.625 C19.19550781 26.07101563 20.07851563 26.51703125 20.98828125 26.9765625 C21.98408203 27.48316406 21.98408203 27.48316406 23 28 C23 31.3 23 34.6 23 38 C19.14724659 37.42516645 16.47953247 36.31350339 13.1875 34.25 C12.39730469 33.76015625 11.60710938 33.2703125 10.79296875 32.765625 C9.41044922 31.89164063 9.41044922 31.89164063 8 31 C7.3105127 30.71938721 6.62102539 30.43877441 5.91064453 30.1496582 C3.42240845 28.99706402 1.83194428 28.05556575 0 26 C-1.00696796 21.53491737 -0.754434 17.23550776 -0.5 12.6875 C-0.46390625 11.46998047 -0.4278125 10.25246094 -0.390625 8.99804688 C-0.29642737 5.99549748 -0.16502633 2.99935361 0 0 Z " fill="#FCFCF1" transform="translate(34,69)"/>
<path d="M0 0 C1.37562854 1.28965176 2.70766393 2.62689293 4 4 C4 4.66 4 5.32 4 6 C4.66 6 5.32 6 6 6 C6.99 7.485 6.99 7.485 8 9 C8.66 9.12375 9.32 9.2475 10 9.375 C10.66 9.58125 11.32 9.7875 12 10 C13.125 12.5 13.125 12.5 14 15 C14.66 15.33 15.32 15.66 16 16 C16 16.66 16 17.32 16 18 C16.66 18 17.32 18 18 18 C18 18.66 18 19.32 18 20 C18.66 20 19.32 20 20 20 C20.33 20.66 20.66 21.32 21 22 C24.62561178 24.06000669 27.87202695 25.39294514 32 26 C32 26.66 32 27.32 32 28 C32.90363281 28.13277344 33.80726562 28.26554687 34.73828125 28.40234375 C36.50751953 28.66724609 36.50751953 28.66724609 38.3125 28.9375 C40.07013672 29.19853516 40.07013672 29.19853516 41.86328125 29.46484375 C45 30 45 30 48 31 C49.84610532 31.08239169 51.69505164 31.10743359 53.54296875 31.09765625 C55.15268555 31.09282227 55.15268555 31.09282227 56.79492188 31.08789062 C57.91447266 31.07951172 59.03402344 31.07113281 60.1875 31.0625 C61.31865234 31.05798828 62.44980469 31.05347656 63.61523438 31.04882812 C66.41020927 31.03703498 69.2050782 31.0205765 72 31 C68.59223523 33.27184318 67.37670738 33.24679414 63.37890625 33.23046875 C62.27869141 33.22853516 61.17847656 33.22660156 60.04492188 33.22460938 C58.32112305 33.20624023 58.32112305 33.20624023 56.5625 33.1875 C55.41716797 33.18685547 54.27183594 33.18621094 53.09179688 33.18554688 C44.22810724 33.13886858 44.22810724 33.13886858 40 32 C38.31115247 32.07937857 36.6234629 32.18586656 34.9375 32.3125 C24.119992 32.38442492 15.80385298 24.75333431 8 18 C7.36578125 17.49597656 6.7315625 16.99195312 6.078125 16.47265625 C2.80286661 13.65749368 1.64578104 11.49094475 1.1875 7.3125 C1.16042969 6.56613281 1.13335937 5.81976563 1.10546875 5.05078125 C1.08115904 2.79833485 1.08115904 2.79833485 0 0 Z " fill="#C7C6C0" transform="translate(14,107)"/>
<path d="M0 0 C0.66 0 1.32 0 2 0 C2 3.63 2 7.26 2 11 C2.9075 11.12375 3.815 11.2475 4.75 11.375 C8 12 8 12 12 14 C11.67 9.71 11.34 5.42 11 1 C12.32 1 13.64 1 15 1 C15 1.66 15 2.32 15 3 C15.66 3 16.32 3 17 3 C17 8.28 17 13.56 17 19 C17.66 19 18.32 19 19 19 C22 22.46153846 22 22.46153846 22 25 C20.02 25 18.04 25 16 25 C16 26.65 16 28.3 16 30 C15.34 30.33 14.68 30.66 14 31 C14 27.37 14 23.74 14 20 C12.35 20.33 10.7 20.66 9 21 C6.83203125 20.14453125 6.83203125 20.14453125 4.8125 18.8125 C4.13832031 18.38582031 3.46414062 17.95914063 2.76953125 17.51953125 C-0.11380995 15.04354951 -0.9156976 13.0101999 -1.23046875 9.23828125 C-1.21628906 8.27277344 -1.20210937 7.30726562 -1.1875 6.3125 C-1.18105469 5.33925781 -1.17460938 4.36601563 -1.16796875 3.36328125 C-1 1 -1 1 0 0 Z " fill="#EBBA19" transform="translate(45,76)"/>
<path d="M0 0 C3.8239078 2.71199135 3.8239078 2.71199135 5.203125 4.25 C5.203125 5.24 5.203125 6.23 5.203125 7.25 C3.883125 7.25 2.563125 7.25 1.203125 7.25 C1.203125 6.59 1.203125 5.93 1.203125 5.25 C0.48125 5.311875 -0.240625 5.37375 -0.984375 5.4375 C-4.35886815 5.21253379 -6.10281411 4.25130237 -8.796875 2.25 C-8.796875 1.59 -8.796875 0.93 -8.796875 0.25 C-9.46074219 0.06824219 -10.12460938 -0.11351562 -10.80859375 -0.30078125 C-20.16234698 -2.96352852 -20.16234698 -2.96352852 -23.796875 -5.75 C-23.796875 -6.41 -23.796875 -7.07 -23.796875 -7.75 C-33.366875 -8.41 -42.936875 -9.07 -52.796875 -9.75 C-52.796875 -10.41 -52.796875 -11.07 -52.796875 -11.75 C-34.19787033 -16.91179273 -15.62570343 -9.77697645 0 0 Z " fill="#F3F1E8" transform="translate(114.796875,12.75)"/>
<path d="M0 0 C1.65 0.33 3.3 0.66 5 1 C5 4.3 5 7.6 5 11 C7.31 11.33 9.62 11.66 12 12 C10.75 13.5 10.75 13.5 9 15 C7.68 15 6.36 15 5 15 C5.33 15.99 5.66 16.98 6 18 C6.14728053 20.51509823 6.23083395 22.98445635 6.25 25.5 C6.270625 26.17675781 6.29125 26.85351562 6.3125 27.55078125 C6.33528618 30.43892916 6.3201775 32.50194611 4.734375 34.96875 C3 36 3 36 -1 36 C-1.33 36.99 -1.66 37.98 -2 39 C-2.99 39 -3.98 39 -5 39 C-4.67 38.01 -4.34 37.02 -4 36 C-2.02 35.505 -2.02 35.505 0 35 C0.33 30.71 0.66 26.42 1 22 C-0.98 22 -2.96 22 -5 22 C-5 21.34 -5 20.68 -5 20 C-4.34 20 -3.68 20 -3 20 C-3 19.34 -3 18.68 -3 18 C-2.01 17.34 -1.02 16.68 0 16 C0.22107787 13.2114711 0.28107535 10.65346819 0.1875 7.875 C0.16719727 6.74384766 0.16719727 6.74384766 0.14648438 5.58984375 C0.11109985 3.72625873 0.05729167 1.86304022 0 0 Z " fill="#EBB816" transform="translate(95,54)"/>
<path d="M0 0 C0.33 0 0.66 0 1 0 C0.98952637 0.77077881 0.97905273 1.54155762 0.96826172 2.33569336 C0.92637137 5.86959498 0.9005694 9.4034441 0.875 12.9375 C0.85824219 14.14986328 0.84148438 15.36222656 0.82421875 16.61132812 C0.78716627 23.44751009 1.30469407 29.38563709 3 36 C3 37.32 3 38.64 3 40 C3.66 40 4.32 40 5 40 C5.6912864 41.83190897 6.38075048 43.66452051 7.0625 45.5 C7.73632095 47.29685587 8.42570201 49.08790515 9.125 50.875 C9.49625 51.844375 9.8675 52.81375 10.25 53.8125 C10.60578125 54.72644531 10.9615625 55.64039063 11.328125 56.58203125 C12 59 12 59 11 62 C6.6930025 58.13725574 4.25362232 54.247887 1.75 49.0625 C1.2240625 48.02706055 1.2240625 48.02706055 0.6875 46.97070312 C-2.28013179 40.94983479 -3.27812447 36.24089498 -2.25 29.51953125 C-1.92544696 26.24864516 -2.00879608 23.03600885 -2.0625 19.75 C-2.12375362 12.96446015 -1.38342512 6.63302935 0 0 Z " fill="#EBE3C6" transform="translate(5,55)"/>
<path d="M0 0 C2.375 1.0625 2.375 1.0625 4 2 C4 2.99 4 3.98 4 5 C-1.75 8 -1.75 8 -4 8 C-4 11.3 -4 14.6 -4 18 C-7.40312738 16.94124926 -10.01353231 15.99097846 -13 14 C-13.29296875 11.3984375 -13.29296875 11.3984375 -13.1875 8.375 C-13.16042969 7.37210938 -13.13335937 6.36921875 -13.10546875 5.3359375 C-13.05326172 4.17964844 -13.05326172 4.17964844 -13 3 C-5.74599542 -1.78764302 -5.74599542 -1.78764302 0 0 Z " fill="#FBF7D3" transform="translate(46,46)"/>
<path d="M0 0 C0.33 0 0.66 0 1 0 C1.02712153 1.916588 1.04645097 3.8332873 1.0625 5.75 C1.07410156 6.81734375 1.08570313 7.8846875 1.09765625 8.984375 C1.01412632 11.56377928 0.65708155 13.53723766 0 16 C0 17.32 0 18.64 0 20 C-0.66 20 -1.32 20 -2 20 C-1.66355469 21.32257813 -1.66355469 21.32257813 -1.3203125 22.671875 C-0.66598518 29.4704955 -6.29333886 34.85309461 -10.33203125 39.93359375 C-14.69901593 45.03927235 -14.69901593 45.03927235 -17 47 C-18.32 47 -19.64 47 -21 47 C-20.625 45.0625 -20.625 45.0625 -20 43 C-19.01 42.505 -19.01 42.505 -18 42 C-16.37094769 39.45017899 -14.9068299 36.83229383 -13.4375 34.1875 C-12.963125 33.465625 -12.48875 32.74375 -12 32 C-11.34 32 -10.68 32 -10 32 C-9.690625 31.05125 -9.38125 30.1025 -9.0625 29.125 C-8 26 -8 26 -7 24 C-6.34 24 -5.68 24 -5 24 C-4.67 21.36 -4.34 18.72 -4 16 C-3.34 16 -2.68 16 -2 16 C-1.855625 14.845 -1.71125 13.69 -1.5625 12.5 C-1.04166667 8.33333333 -0.52083333 4.16666667 0 0 Z " fill="#DEDACF" transform="translate(138,79)"/>
<path d="M0 0 C0.58910156 0.31324219 1.17820312 0.62648438 1.78515625 0.94921875 C4.89898533 2.42650274 7.56406369 2.81916125 11 3 C13.78307606 1.66457328 13.78307606 1.66457328 16 0 C16.66 0 17.32 0 18 0 C18 3.63 18 7.26 18 11 C11.84338099 14.0783095 8.74961481 14.22270048 2.125 12.0625 C0 10 0 10 -0.30859375 7.578125 C-0.3121884 5.03310971 -0.21405708 2.53538722 0 0 Z " fill="#FBFBF6" transform="translate(63,102)"/>
<path d="M0 0 C1.134375 0.020625 2.26875 0.04125 3.4375 0.0625 C3.4375 0.7225 3.4375 1.3825 3.4375 2.0625 C2.4475 2.0625 1.4575 2.0625 0.4375 2.0625 C0.4375 6.6825 0.4375 11.3025 0.4375 16.0625 C1.0975 16.0625 1.7575 16.0625 2.4375 16.0625 C2.1075 17.7125 1.7775 19.3625 1.4375 21.0625 C0.7775 21.0625 0.1175 21.0625 -0.5625 21.0625 C-0.8925 22.3825 -1.2225 23.7025 -1.5625 25.0625 C-4.5325 25.0625 -7.5025 25.0625 -10.5625 25.0625 C-10.5625 26.0525 -10.5625 27.0425 -10.5625 28.0625 C-12.2125 28.0625 -13.8625 28.0625 -15.5625 28.0625 C-16.2225 26.7425 -16.8825 25.4225 -17.5625 24.0625 C-16.44875 23.93875 -15.335 23.815 -14.1875 23.6875 C-10.53146323 23.4159187 -10.53146323 23.4159187 -8.5625 21.0625 C-7.5725 21.0625 -6.5825 21.0625 -5.5625 21.0625 C-5.53744385 20.46187744 -5.5123877 19.86125488 -5.48657227 19.24243164 C-5.3709472 16.53638563 -5.24807064 13.83071717 -5.125 11.125 C-5.08568359 10.17947266 -5.04636719 9.23394531 -5.00585938 8.25976562 C-4.96396484 7.36064453 -4.92207031 6.46152344 -4.87890625 5.53515625 C-4.84224854 4.70250244 -4.80559082 3.86984863 -4.76782227 3.01196289 C-4.40026195 -0.47789341 -3.67325383 0.06444305 0 0 Z " fill="#EEB90D" transform="translate(85.5625,75.9375)"/>
<path d="M0 0 C1.32 0 2.64 0 4 0 C4 0.66 4 1.32 4 2 C3.34 2 2.68 2 2 2 C1.34 6.62 0.68 11.24 0 16 C-0.66 16 -1.32 16 -2 16 C-2.95987226 24.43316346 -3.07343208 32.75777537 -2.875 41.23144531 C-2.86339844 42.06385742 -2.85179687 42.89626953 -2.83984375 43.75390625 C-2.82300537 44.49970947 -2.80616699 45.2455127 -2.78881836 46.01391602 C-3 48 -3 48 -5 51 C-7.50092411 45.20104449 -7.34495383 39.57606788 -7.3125 33.375 C-7.30831055 32.29919678 -7.30412109 31.22339355 -7.29980469 30.11499023 C-7.1417497 19.02507877 -4.93557793 9.92126326 0 0 Z " fill="#EDEBEA" transform="translate(7,39)"/>
<path d="M0 0 C0.928125 0.28875 1.85625 0.5775 2.8125 0.875 C5.54109468 3.52563483 5.47878693 4.70551149 5.6875 8.4375 C5.5082795 12.80816773 5.44779259 13.58141127 2.125 16.6875 C-1 18 -1 18 -3 18 C-2.99097656 17.39671875 -2.98195313 16.7934375 -2.97265625 16.171875 C-3.06751913 13.61470177 -3.25666039 11.45386542 -4 9 C-6.22610045 6.96119166 -8.16328604 6.1862622 -11 5 C-11 4.01 -11 3.02 -11 2 C-6.9007785 -0.38326832 -4.57013639 -1.64056178 0 0 Z " fill="#FAF6D5" transform="translate(105,46)"/>
<path d="M0 0 C1.3921875 0.3403125 1.3921875 0.3403125 2.8125 0.6875 C1.8225 1.1825 1.8225 1.1825 0.8125 1.6875 C1.1425 2.0175 1.4725 2.3475 1.8125 2.6875 C2.864375 2.31625 3.91625 1.945 5 1.5625 C9.06751116 0.62897285 10.26486132 0.71658962 13.8125 2.6875 C14.8025 3.3475 15.7925 4.0075 16.8125 4.6875 C16.8125 5.3475 16.8125 6.0075 16.8125 6.6875 C15.760625 6.378125 14.70875 6.06875 13.625 5.75 C6.88089928 4.86198674 1.34846767 9.34901568 -4.1875 12.6875 C-5.58137241 13.46187356 -6.97673479 14.23358685 -8.375 15 C-11.20518489 16.54349447 -11.20518489 16.54349447 -13.1875 18.6875 C-13.5175 17.6975 -13.8475 16.7075 -14.1875 15.6875 C-13.5275 15.6875 -12.8675 15.6875 -12.1875 15.6875 C-12.1875 15.0275 -12.1875 14.3675 -12.1875 13.6875 C-10.2075 13.3575 -8.2275 13.0275 -6.1875 12.6875 C-6.1875 11.3675 -6.1875 10.0475 -6.1875 8.6875 C-7.1775 8.3575 -8.1675 8.0275 -9.1875 7.6875 C-8.5275 7.6875 -7.8675 7.6875 -7.1875 7.6875 C-7.084375 6.924375 -6.98125 6.16125 -6.875 5.375 C-5.74045435 0.93995792 -4.71229146 -0.46198936 0 0 Z " fill="#EBBA14" transform="translate(61.1875,23.3125)"/>
<path d="M0 0 C0.33 0.66 0.66 1.32 1 2 C0.34 2 -0.32 2 -1 2 C-0.38125 2.61875 0.2375 3.2375 0.875 3.875 C2.25 5.25 3.625 6.625 5 8 C-0.75 12 -0.75 12 -3 12 C-3 12.66 -3 13.32 -3 14 C-4.69270833 14.71614583 -6.38541667 15.43229167 -8.078125 16.1484375 C-10.08119212 17.03597537 -12.04040793 18.02020396 -14 19 C-14 15.37 -14 11.74 -14 8 C-9.38 5.36 -4.76 2.72 0 0 Z " fill="#FBF9E8" transform="translate(101,89)"/>
<path d="M0 0 C4.62 2.31 9.24 4.62 14 7 C14 10.3 14 13.6 14 17 C10.10957984 16.42543617 7.44132504 15.28006931 4.125 13.1875 C3.26390625 12.65253906 2.4028125 12.11757812 1.515625 11.56640625 C0.68546875 11.04949219 -0.1446875 10.53257813 -1 10 C-3.32201375 8.64549198 -5.65969329 7.32278205 -8 6 C-8 5.67 -8 5.34 -8 5 C-6.35 5 -4.7 5 -3 5 C-3 5.66 -3 6.32 -3 7 C-1.35 7 0.3 7 2 7 C1.42415568 4.61435923 0.77772405 2.33317216 0 0 Z " fill="#FCF7D9" transform="translate(43,90)"/>
<path d="M0 0 C0.82638376 2.89234315 1 4.88742431 1 8 C0.01 8 -0.98 8 -2 8 C-4.02609043 15.78360253 -4.31152997 23.33344074 -4.26074219 31.35205078 C-4.24990682 33.39254709 -4.26075467 35.4321846 -4.2734375 37.47265625 C-4.27085938 38.76816406 -4.26828125 40.06367187 -4.265625 41.3984375 C-4.26336914 42.57067871 -4.26111328 43.74291992 -4.25878906 44.95068359 C-4.00547325 47.93550859 -3.40034877 49.42625554 -2 52 C-1.9222654 54.33203812 -1.91032272 56.66839059 -2 59 C-2.495 57.515 -2.495 57.515 -3 56 C-3.66 56 -4.32 56 -5 56 C-10.34300742 38.28538612 -10.05063111 18.63993364 -1.2421875 2.203125 C-0.83226562 1.47609375 -0.42234375 0.7490625 0 0 Z " fill="#E7B92C" transform="translate(13,39)"/>
<path d="M0 0 C0 0.99 0 1.98 0 3 C-0.66 3 -1.32 3 -2 3 C-1.505 5.97 -1.505 5.97 -1 9 C-3.26827645 10.48321908 -5.53941903 11.96167699 -7.8125 13.4375 C-8.77639648 14.06881836 -8.77639648 14.06881836 -9.75976562 14.71289062 C-15.51248979 18.43874824 -19.45882022 19.13889549 -26.1875 19.0625 C-26.93708984 19.05798828 -27.68667969 19.05347656 -28.45898438 19.04882812 C-30.30602383 19.03706354 -32.15302213 19.01912865 -34 19 C-34 18.67 -34 18.34 -34 18 C-32.35 18 -30.7 18 -29 18 C-29 17.34 -29 16.68 -29 16 C-27.4840625 15.5978125 -27.4840625 15.5978125 -25.9375 15.1875 C-15.86968773 12.26198341 -7.85116713 6.84460724 0 0 Z " fill="#CDC6B9" transform="translate(120,119)"/>
<path d="M0 0 C1.75 0.8125 1.75 0.8125 3.75 2.8125 C5.07 3.1425 6.39 3.4725 7.75 3.8125 C7.75 7.7725 7.75 11.7325 7.75 15.8125 C7.09 15.8125 6.43 15.8125 5.75 15.8125 C5.75 13.5025 5.75 11.1925 5.75 8.8125 C4.76 8.8125 3.77 8.8125 2.75 8.8125 C2.75 9.8025 2.75 10.7925 2.75 11.8125 C1.76 11.8125 0.77 11.8125 -0.25 11.8125 C-0.25 10.8225 -0.25 9.8325 -0.25 8.8125 C-1.24 8.8125 -2.23 8.8125 -3.25 8.8125 C-3.25 8.1525 -3.25 7.4925 -3.25 6.8125 C-5.725 5.8225 -5.725 5.8225 -8.25 4.8125 C-8.25 5.8025 -8.25 6.7925 -8.25 7.8125 C-12.03187881 9.64941257 -14.19568308 9.97087626 -18.25 8.8125 C-17.71375 8.565 -17.1775 8.3175 -16.625 8.0625 C-14.10961631 6.79336353 -14.10961631 6.79336353 -11.375 4.875 C-3.54147982 -0.29512332 -3.54147982 -0.29512332 0 0 Z " fill="#FCFBF4" transform="translate(88.25,53.1875)"/>
<path d="M0 0 C0.33 0 0.66 0 1 0 C1.68575816 28.99174482 1.68575816 28.99174482 -5 43 C-5.66 43 -6.32 43 -7 43 C-7 41.68 -7 40.36 -7 39 C-6.34 39 -5.68 39 -5 39 C-5.185625 37.865625 -5.37125 36.73125 -5.5625 35.5625 C-5.706875 34.386875 -5.85125 33.21125 -6 32 C-5.67 31.67 -5.34 31.34 -5 31 C-4.76572222 28.98405418 -4.58663876 26.961526 -4.4375 24.9375 C-4.31181641 23.28041016 -4.31181641 23.28041016 -4.18359375 21.58984375 C-4.12300781 20.73519531 -4.06242188 19.88054687 -4 19 C-3.67 19 -3.34 19 -3 19 C-2.95101562 17.87980469 -2.90203125 16.75960937 -2.8515625 15.60546875 C-2.77652144 14.13278797 -2.70097418 12.66013293 -2.625 11.1875 C-2.5940625 10.44951172 -2.563125 9.71152344 -2.53125 8.95117188 C-2.32653852 5.18106885 -2.13566173 3.20349259 0 0 Z " fill="#E2E1DC" transform="translate(143,60)"/>
<path d="M0 0 C-1.32 0.33 -2.64 0.66 -4 1 C-4 1.66 -4 2.32 -4 3 C-2.24236328 2.96519531 -2.24236328 2.96519531 -0.44921875 2.9296875 C8.25464016 2.81109117 16.48739927 2.89997515 25 5 C25 5.66 25 6.32 25 7 C23.1128125 6.7525 23.1128125 6.7525 21.1875 6.5 C15.91533959 5.97957215 10.66849778 5.85357865 5.375 5.8125 C4.57602295 5.79960938 3.7770459 5.78671875 2.95385742 5.7734375 C-2.37478838 5.76464707 -6.86730386 6.58043653 -12 8 C-15 8.125 -15 8.125 -17 8 C-17 7.34 -17 6.68 -17 6 C-15.35 6 -13.7 6 -12 6 C-11.67 4.35 -11.34 2.7 -11 1 C-7.26562152 0.12132271 -3.83225427 -0.08912219 0 0 Z " fill="#F7EFD3" transform="translate(66,0)"/>
<path d="M0 0 C0.65226562 0.0721875 1.30453125 0.144375 1.9765625 0.21875 C6.6737056 0.71756166 11.26852656 1.12451246 16 1 C16.33 1.99 16.66 2.98 17 4 C14.03 3.505 14.03 3.505 11 3 C11.33 4.32 11.66 5.64 12 7 C7.545 8.485 7.545 8.485 3 10 C3 10.99 3 11.98 3 13 C2.34 13 1.68 13 1 13 C1 11.68 1 10.36 1 9 C-0.32 8.34 -1.64 7.68 -3 7 C-2.360625 6.566875 -1.72125 6.13375 -1.0625 5.6875 C1.26746003 4.08760823 1.26746003 4.08760823 2 1 C1.34 0.67 0.68 0.34 0 0 Z " fill="#EFB91D" transform="translate(91,38)"/>
<path d="M0 0 C0.99 0 1.98 0 3 0 C3 0.66 3 1.32 3 2 C4.98 2.66 6.96 3.32 9 4 C9 7.3 9 10.6 9 14 C5 13 5 13 0 11 C0 7.37 0 3.74 0 0 Z " fill="#FBF5D0" transform="translate(48,76)"/>
<path d="M0 0 C0.66 0.33 1.32 0.66 2 1 C1.88487847 2.72985242 1.75744323 4.45888751 1.625 6.1875 C1.55539063 7.15042969 1.48578125 8.11335938 1.4140625 9.10546875 C0.99784147 12.01508938 0.20125904 14.32890774 -1 17 C-3.31 16.34 -5.62 15.68 -8 15 C-8 23.58 -8 32.16 -8 41 C-8.33 41 -8.66 41 -9 41 C-9.04962653 36.96154588 -9.08582632 32.92321113 -9.10986328 28.88452148 C-9.11988926 27.51209417 -9.13351356 26.13968805 -9.15087891 24.76733398 C-9.17527627 22.78899473 -9.18544484 20.81049633 -9.1953125 18.83203125 C-9.20578613 17.64327393 -9.21625977 16.4545166 -9.22705078 15.22973633 C-9.00370033 12.05263614 -8.36116639 9.85656545 -7 7 C-3.535 8.485 -3.535 8.485 0 10 C0 6.7 0 3.4 0 0 Z " fill="#ECC84A" transform="translate(42,54)"/>
<path d="M0 0 C0 3.63 0 7.26 0 11 C-4.455 12.485 -4.455 12.485 -9 14 C-9 10.7 -9 7.4 -9 4 C-2.25 0 -2.25 0 0 0 Z " fill="#FAF0B6" transform="translate(96,76)"/>
<path d="M0 0 C1.37562854 1.28965176 2.70766393 2.62689293 4 4 C4 4.66 4 5.32 4 6 C4.66 6 5.32 6 6 6 C6.99 7.485 6.99 7.485 8 9 C8.66 9.12375 9.32 9.2475 10 9.375 C10.66 9.58125 11.32 9.7875 12 10 C13.125 12.5 13.125 12.5 14 15 C14.66 15.33 15.32 15.66 16 16 C16 16.66 16 17.32 16 18 C11.33433828 17.88818676 7.94874986 17.63249991 4 15 C1.68501061 11.52751592 1.33620836 9.17921779 1.140625 5.0859375 C1.07473736 2.80471165 1.07473736 2.80471165 0 0 Z " fill="#D4D3D3" transform="translate(14,107)"/>
<path d="M0 0 C0 0.66 0 1.32 0 2 C1.32 2.66 2.64 3.32 4 4 C1.875 6.5625 1.875 6.5625 -1 9 C-4.88165184 9.07921738 -6.44315739 8.48357385 -9.375 5.9375 C-10.179375 4.9784375 -10.179375 4.9784375 -11 4 C-10 2 -10 2 -7.75 0.875 C-4.98386705 -0.00513321 -2.87951649 -0.1645438 0 0 Z " fill="#FAFCF8" transform="translate(75,45)"/>
<path d="M0 0 C0 0.33 0 0.66 0 1 C-1.41152344 1.07347656 -1.41152344 1.07347656 -2.8515625 1.1484375 C-4.71941406 1.26058594 -4.71941406 1.26058594 -6.625 1.375 C-8.46964844 1.47941406 -8.46964844 1.47941406 -10.3515625 1.5859375 C-13.86121657 1.98424942 -16.66998749 2.87831158 -20 4 C-22.28452807 4.27580863 -24.57818383 4.4843786 -26.875 4.625 C-28.02742188 4.69976563 -29.17984375 4.77453125 -30.3671875 4.8515625 C-31.23601563 4.90054687 -32.10484375 4.94953125 -33 5 C-33 5.99 -33 6.98 -33 8 C-32.34 8.33 -31.68 8.66 -31 9 C-34.81756824 10.37432457 -38.07255329 9.67975039 -42 9 C-32.97871346 -2.1439422 -12.75485947 -0.36365492 0 0 Z " fill="#E7BD35" transform="translate(81,5)"/>
<path d="M0 0 C2.475 0.495 2.475 0.495 5 1 C5 0.67 5 0.34 5 0 C6.65 0 8.3 0 10 0 C10 0.99 10 1.98 10 3 C10.66 3.33 11.32 3.66 12 4 C12 3.34 12 2.68 12 2 C13.32 1.67 14.64 1.34 16 1 C16 2.32 16 3.64 16 5 C17.32 5.33 18.64 5.66 20 6 C20 7.32 20 8.64 20 10 C17.23723823 9.47731534 14.6739124 8.89130413 12 8 C12 7.34 12 6.68 12 6 C11.319375 6.0825 10.63875 6.165 9.9375 6.25 C5.83124335 5.90053135 3.47678105 4.18150968 0 2 C0 1.34 0 0.68 0 0 Z " fill="#EEB813" transform="translate(34,127)"/>
<path d="M0 0 C0.33 0 0.66 0 1 0 C1 1.98 1 3.96 1 6 C1.99 6 2.98 6 4 6 C4.37125 7.60875 4.37125 7.60875 4.75 9.25 C5.68788218 12.99534153 5.68788218 12.99534153 8.0625 15.0625 C10.57296496 17.57296496 10.68504717 19.53551892 11 23 C10.01 23 9.02 23 8 23 C6.2109375 20.6640625 6.2109375 20.6640625 4.375 17.625 C3.76398437 16.62726563 3.15296875 15.62953125 2.5234375 14.6015625 C0.37868316 10.93898201 -0.1168037 9.11068862 -0.0625 4.875 C-0.05347656 3.96492188 -0.04445313 3.05484375 -0.03515625 2.1171875 C-0.02355469 1.41851562 -0.01195312 0.71984375 0 0 Z " fill="#DADBD9" transform="translate(6,93)"/>
<path d="M0 0 C0.33 0 0.66 0 1 0 C1.19430855 2.6246601 1.38073238 5.24946765 1.5625 7.875 C1.61857422 8.62136719 1.67464844 9.36773437 1.73242188 10.13671875 C2.11328125 15.7734375 2.11328125 15.7734375 1 18 C-0.65 18 -2.3 18 -4 18 C-4.96452932 13.756071 -5.15853967 11.74904259 -3 8 C-2.32811503 5.66816393 -1.66084583 3.33498858 -1 1 C-0.67 0.67 -0.34 0.34 0 0 Z " fill="#F1B70D" transform="translate(46,55)"/>
<path d="M0 0 C2 2 2 2 2 6 C2.99 6 3.98 6 5 6 C5 6.66 5 7.32 5 8 C3.34385343 8.38218767 1.67542976 8.71395102 0 9 C-0.33 8.67 -0.66 8.34 -1 8 C-2.51928038 7.92820036 -4.04167482 7.91607993 -5.5625 7.9375 C-6.80193359 7.95103516 -6.80193359 7.95103516 -8.06640625 7.96484375 C-9.02353516 7.98224609 -9.02353516 7.98224609 -10 8 C-9.1875 5.0625 -9.1875 5.0625 -8 2 C-5.29084291 1.09694764 -2.82957829 0.36276645 0 0 Z " fill="#EFB90B" transform="translate(61,45)"/>
<path d="M0 0 C0 3.63 0 7.26 0 11 C-1.65 11 -3.3 11 -5 11 C-5 9.02 -5 7.04 -5 5 C-6.32 4.67 -7.64 4.34 -9 4 C-9 3.01 -9 2.02 -9 1 C-5.8035914 -0.06546953 -3.34252724 -0.07427838 0 0 Z " fill="#F9FBEC" transform="translate(110,49)"/>
<path d="M0 0 C0 8.91 0 17.82 0 27 C-0.99 27.33 -1.98 27.66 -3 28 C-2.34 19.75 -1.68 11.5 -1 3 C-1.66 3 -2.32 3 -3 3 C-3 3.66 -3 4.32 -3 5 C-4.32 5 -5.64 5 -7 5 C-7 9.62 -7 14.24 -7 19 C-7.33 19 -7.66 19 -8 19 C-8 13.72 -8 8.44 -8 3 C-1 0 -1 0 0 0 Z " fill="#FCFCDC" transform="translate(110,68)"/>
<path d="M0 0 C0.33 0 0.66 0 1 0 C1.02898816 3.93748458 1.04679464 7.87494179 1.0625 11.8125 C1.07087891 12.93205078 1.07925781 14.05160156 1.08789062 15.20507812 C1.09111328 16.27822266 1.09433594 17.35136719 1.09765625 18.45703125 C1.10289307 19.44678955 1.10812988 20.43654785 1.11352539 21.45629883 C1 24 1 24 0 27 C-0.66 27 -1.32 27 -2 27 C-2.05797565 23.06256167 -2.09358789 19.12523281 -2.125 15.1875 C-2.14175781 14.06794922 -2.15851563 12.94839844 -2.17578125 11.79492188 C-2.18222656 10.72177734 -2.18867188 9.64863281 -2.1953125 8.54296875 C-2.20578613 7.55321045 -2.21625977 6.56345215 -2.22705078 5.54370117 C-2 3 -2 3 0 0 Z " fill="#E9E7EB" transform="translate(143,60)"/>
<path d="M0 0 C0.66 0.33 1.32 0.66 2 1 C-6.261959 11.55808656 -6.261959 11.55808656 -11 16 C-11.99 15.67 -12.98 15.34 -14 15 C-13.625 13.0625 -13.625 13.0625 -13 11 C-12.34 10.67 -11.68 10.34 -11 10 C-10.7525 9.38125 -10.505 8.7625 -10.25 8.125 C-8.48065997 5.11712195 -6.10903441 4.45934268 -3 3 C-1.18445841 1.43897509 -1.18445841 1.43897509 0 0 Z " fill="#D4D2D5" transform="translate(131,111)"/>
<path d="M0 0 C0.66 0 1.32 0 2 0 C2.33 2.31 2.66 4.62 3 7 C3.99 5.68 4.98 4.36 6 3 C6.125 8.75 6.125 8.75 5 11 C4.84932786 12.4465242 4.75138964 13.8987934 4.68359375 15.3515625 C4.64169922 16.20234375 4.59980469 17.053125 4.55664062 17.9296875 C4.51732422 18.81914063 4.47800781 19.70859375 4.4375 20.625 C4.37272461 21.97078125 4.37272461 21.97078125 4.30664062 23.34375 C4.20043139 25.56234283 4.09838806 27.7810488 4 30 C1.71165001 26.56747502 1.63432549 24.865095 1.3671875 20.80078125 C1.28339844 19.59228516 1.19960937 18.38378906 1.11328125 17.13867188 C1.03464844 15.87603516 0.95601562 14.61339844 0.875 13.3125 C0.78863281 12.03826172 0.70226562 10.76402344 0.61328125 9.45117188 C0.40092501 6.30122097 0.19683565 3.15095265 0 0 Z " fill="#F5E7BA" transform="translate(137,52)"/>
<path d="M0 0 C3.625 0.375 3.625 0.375 7 1 C4.21937032 4.60451996 1.21574914 7.78425086 -2 11 C-2.99 12.485 -2.99 12.485 -4 14 C-4.66 14 -5.32 14 -6 14 C-6.33 14.99 -6.66 15.98 -7 17 C-9 14 -9 14 -9 12 C-7.35 11.67 -5.7 11.34 -4 11 C-3.87882812 10.37351562 -3.75765625 9.74703125 -3.6328125 9.1015625 C-3.38144531 7.87566406 -3.38144531 7.87566406 -3.125 6.625 C-2.96257813 5.81289063 -2.80015625 5.00078125 -2.6328125 4.1640625 C-2 2 -2 2 0 0 Z " fill="#F5EEDE" transform="translate(24,17)"/>
<path d="M0 0 C0.99 0 1.98 0 3 0 C2.67 1.65 2.34 3.3 2 5 C0.35 5.33 -1.3 5.66 -3 6 C-3 6.66 -3 7.32 -3 8 C-2.01 7.67 -1.02 7.34 0 7 C0 9.64 0 12.28 0 15 C-0.66 13.68 -1.32 12.36 -2 11 C-2.99 11.99 -3.98 12.98 -5 14 C-6 13 -6 13 -6.09765625 10.93359375 C-6.08605469 10.10988281 -6.07445312 9.28617188 -6.0625 8.4375 C-6.05347656 7.61121094 -6.04445312 6.78492188 -6.03515625 5.93359375 C-6.02355469 5.29550781 -6.01195312 4.65742187 -6 4 C-4.7934375 3.566875 -4.7934375 3.566875 -3.5625 3.125 C-0.8673532 2.26737432 -0.8673532 2.26737432 0 0 Z " fill="#FCFCFB" transform="translate(41,46)"/>
<path d="M0 0 C0 0.66 0 1.32 0 2 C1.65 2.33 3.3 2.66 5 3 C5 3.33 5 3.66 5 4 C3.96939453 3.94779297 3.96939453 3.94779297 2.91796875 3.89453125 C2.01691406 3.86746094 1.11585937 3.84039062 0.1875 3.8125 C-0.70582031 3.77769531 -1.59914063 3.74289063 -2.51953125 3.70703125 C-5.0293354 3.80136328 -5.0293354 3.80136328 -6.80859375 5.29296875 C-8.75243383 8.07807733 -8.23478544 10.71300386 -8 14 C-7.67 14.99 -7.34 15.98 -7 17 C-8.32 16.67 -9.64 16.34 -11 16 C-12.06139007 6.38009949 -12.06139007 6.38009949 -9.58203125 3.15625 C-6.1040428 0.60523075 -4.44696031 0 0 0 Z " fill="#FBF3BF" transform="translate(59,53)"/>
<path d="M0 0 C0 0.99 0 1.98 0 3 C-0.66 3 -1.32 3 -2 3 C-1.67 4.98 -1.34 6.96 -1 9 C-2.12073862 9.83905565 -3.24674547 10.67107831 -4.375 11.5 C-5.00148438 11.9640625 -5.62796875 12.428125 -6.2734375 12.90625 C-8 14 -8 14 -10 14 C-10 13.01 -10 12.02 -10 11 C-10.99 10.67 -11.98 10.34 -13 10 C-12.22076172 9.41992188 -12.22076172 9.41992188 -11.42578125 8.828125 C-7.5657369 5.94557801 -3.73973042 3.03853097 0 0 Z " fill="#D1CBC0" transform="translate(120,119)"/>
<path d="M0 0 C0 1.32 0 2.64 0 4 C-1.65 4 -3.3 4 -5 4 C-5 4.99 -5 5.98 -5 7 C-8.63 7 -12.26 7 -16 7 C-16 7.99 -16 8.98 -16 10 C-16.66 10 -17.32 10 -18 10 C-17.9296875 8.203125 -17.9296875 8.203125 -17 6 C-14.68155266 4.70736184 -12.5745559 3.70830929 -10.125 2.75 C-9.48691406 2.481875 -8.84882812 2.21375 -8.19140625 1.9375 C-5.30898305 0.75805335 -3.14148355 0 0 0 Z " fill="#F2F3F0" transform="translate(54,2)"/>
<path d="M0 0 C0 0.66 0 1.32 0 2 C-2.5 3.625 -2.5 3.625 -5 5 C-4.01 5 -3.02 5 -2 5 C0.33333333 5 2.66666667 5 5 5 C5 5.33 5 5.66 5 6 C1.7 6.66 -1.6 7.32 -5 8 C-5 9.32 -5 10.64 -5 12 C-5.66 12 -6.32 12 -7 12 C-7.66 10.35 -8.32 8.7 -9 7 C-10.65 7.33 -12.3 7.66 -14 8 C-14.33 7.34 -14.66 6.68 -15 6 C-13.96875 5.566875 -12.9375 5.13375 -11.875 4.6875 C-9.41715468 3.64054763 -7.07393602 2.52823156 -4.6875 1.3125 C-2 0 -2 0 0 0 Z " fill="#E6BB34" transform="translate(70,39)"/>
<path d="M0 0 C0.53625 0.226875 1.0725 0.45375 1.625 0.6875 C0.635 2.3375 -0.355 3.9875 -1.375 5.6875 C-3.685 5.3575 -5.995 5.0275 -8.375 4.6875 C-8.375 5.6775 -8.375 6.6675 -8.375 7.6875 C-12.15687881 9.52441257 -14.32068308 9.84587626 -18.375 8.6875 C-17.83875 8.44 -17.3025 8.1925 -16.75 7.9375 C-14.23461631 6.66836353 -14.23461631 6.66836353 -11.5 4.75 C-3.58776596 -0.47207447 -3.58776596 -0.47207447 0 0 Z " fill="#F8ECB7" transform="translate(88.375,53.3125)"/>
<path d="M0 0 C0.99 0.33 1.98 0.66 3 1 C2.67 1.99 2.34 2.98 2 4 C1.01 4.33 0.02 4.66 -1 5 C-1.33 10.94 -1.66 16.88 -2 23 C-2.66 23 -3.32 23 -4 23 C-4.02689449 20.04160645 -4.04678741 17.08345573 -4.0625 14.125 C-4.07087891 13.28324219 -4.07925781 12.44148438 -4.08789062 11.57421875 C-4.09111328 10.76855469 -4.09433594 9.96289062 -4.09765625 9.1328125 C-4.10289307 8.38918457 -4.10812988 7.64555664 -4.11352539 6.87939453 C-4 5 -4 5 -3 3 C-3.66 3 -4.32 3 -5 3 C-5 2.34 -5 1.68 -5 1 C-2.525 1.495 -2.525 1.495 0 2 C0 1.34 0 0.68 0 0 Z " fill="#FDF0B7" transform="translate(83,72)"/>
<path d="M0 0 C0.66 0 1.32 0 2 0 C2.33 4.62 2.66 9.24 3 14 C2.01 14 1.02 14 0 14 C0 11.36 0 8.72 0 6 C-0.99 6 -1.98 6 -3 6 C-3 9.63 -3 13.26 -3 17 C-4.32 16.67 -5.64 16.34 -7 16 C-6.01 16 -5.02 16 -4 16 C-4 12.37 -4 8.74 -4 5 C-5.32 5.33 -6.64 5.66 -8 6 C-8.66 5.34 -9.32 4.68 -10 4 C-7.03 4 -4.06 4 -1 4 C-0.67 2.68 -0.34 1.36 0 0 Z " fill="#E6B923" transform="translate(85,97)"/>
<path d="M0 0 C0.99 0 1.98 0 3 0 C3.22171552 2.60365928 3.42784859 5.20696493 3.625 7.8125 C3.68945312 8.55048828 3.75390625 9.28847656 3.8203125 10.04882812 C4.2265625 15.66015625 4.2265625 15.66015625 2 19 C0.27706865 14.53665816 -0.22240791 10.89798769 -0.125 6.125 C-0.10695312 4.97257812 -0.08890625 3.82015625 -0.0703125 2.6328125 C-0.04710937 1.76398438 -0.02390625 0.89515625 0 0 Z " fill="#E5E4E6" transform="translate(0,71)"/>
<path d="M0 0 C0.66 0 1.32 0 2 0 C2 3.63 2 7.26 2 11 C1.34 11 0.68 11 0 11 C-0.33 9.68 -0.66 8.36 -1 7 C-2.32 7 -3.64 7 -5 7 C-6.34164079 6.7018576 -7.67851173 6.37756808 -9 6 C-9 5.34 -9 4.68 -9 4 C-8.43410156 3.79503906 -7.86820312 3.59007813 -7.28515625 3.37890625 C-6.55167969 3.10949219 -5.81820312 2.84007813 -5.0625 2.5625 C-4.33160156 2.29566406 -3.60070312 2.02882813 -2.84765625 1.75390625 C-1.01694322 1.14613052 -1.01694322 1.14613052 0 0 Z " fill="#FBF2C7" transform="translate(79,102)"/>
<path d="M0 0 C0.99 0.66 1.98 1.32 3 2 C3 2.66 3 3.32 3 4 C1.824375 3.773125 0.64875 3.54625 -0.5625 3.3125 C-5.2116614 2.69924163 -7.89316512 3.8610235 -12 6 C-12 4.02 -12 2.04 -12 0 C-7.43863991 -2.4880146 -4.77077766 -1.76695469 0 0 Z " fill="#E8BE24" transform="translate(75,26)"/>
<path d="M0 0 C4.455 0.99 4.455 0.99 9 2 C9 2.66 9 3.32 9 4 C9.66 4 10.32 4 11 4 C11 5.32 11 6.64 11 8 C8.9375 8.375 8.9375 8.375 6 8 C3.46427718 6.20822891 1.22825512 4.15761879 -1 2 C-0.67 1.34 -0.34 0.68 0 0 Z " fill="#D1CEC1" transform="translate(23,123)"/>
<path d="M0 0 C0 1.32 0 2.64 0 4 C-2.95547533 4.84442152 -4.7385388 5.0653653 -7.75 4.3125 C-10 3 -10 3 -10.8125 0.875 C-10.874375 0.25625 -10.93625 -0.3625 -11 -1 C-6.99799622 -2.60080151 -3.95443764 -1.29279692 0 0 Z " fill="#FAFCF6" transform="translate(56,99)"/>
<path d="M0 0 C0.66 0 1.32 0 2 0 C2 1.98 2 3.96 2 6 C4.31 6.66 6.62 7.32 9 8 C9 8.66 9 9.32 9 10 C7.02 10 5.04 10 3 10 C3 11.65 3 13.3 3 15 C2.01 15.495 2.01 15.495 1 16 C1 12.37 1 8.74 1 5 C0.01 5.33 -0.98 5.66 -2 6 C-2 5.34 -2 4.68 -2 4 C-1.34 4 -0.68 4 0 4 C0 2.68 0 1.36 0 0 Z " fill="#F4B90F" transform="translate(58,91)"/>
<path d="M0 0 C-0.15847412 0.56170898 -0.31694824 1.12341797 -0.48022461 1.70214844 C-1.02188362 4.09674429 -1.20641474 6.31438553 -1.31640625 8.765625 C-1.35830078 9.65507813 -1.40019531 10.54453125 -1.44335938 11.4609375 C-1.48267578 12.38132812 -1.52199219 13.30171875 -1.5625 14.25 C-1.62727539 15.65378906 -1.62727539 15.65378906 -1.69335938 17.0859375 C-1.7991805 19.39048641 -1.90126557 21.69513839 -2 24 C-2.33 24 -2.66 24 -3 24 C-3.01417969 22.73542969 -3.02835938 21.47085938 -3.04296875 20.16796875 C-3.08986685 18.50777588 -3.13811426 16.84762073 -3.1875 15.1875 C-3.19620117 13.93743164 -3.19620117 13.93743164 -3.20507812 12.66210938 C-3.28917961 10.33530174 -3.41026791 8.25372062 -4 6 C-6.3768061 3.84419983 -6.3768061 3.84419983 -9 3 C-6.01800145 0.01800145 -4.21244839 0 0 0 Z " fill="#FCF1C5" transform="translate(66,71)"/>
<path d="M0 0 C2.96175123 0.61277612 4.38058783 1.25372522 7 3 C7.6875 5.625 7.6875 5.625 8 8 C8.99 8.33 9.98 8.66 11 9 C5.25 12 5.25 12 3 12 C3 11.01 3 10.02 3 9 C4.32 9.33 5.64 9.66 7 10 C7 9.34 7 8.68 7 8 C4.36 8.33 1.72 8.66 -1 9 C0.32 7.35 1.64 5.7 3 4 C2.01 3.34 1.02 2.68 0 2 C0 1.34 0 0.68 0 0 Z " fill="#E8BF38" transform="translate(75,45)"/>
<path d="M0 0 C0.515625 0.2475 1.03125 0.495 1.5625 0.75 C0.5 2.75 0.5 2.75 -1.4375 4.75 C-5.125 5 -5.125 5 -8.4375 4.75 C-8.4375 7.06 -8.4375 9.37 -8.4375 11.75 C-7.4475 12.08 -6.4575 12.41 -5.4375 12.75 C-7.4175 13.74 -7.4175 13.74 -9.4375 14.75 C-9.4375 11.12 -9.4375 7.49 -9.4375 3.75 C-3.0375 -0.31153846 -3.0375 -0.31153846 0 0 Z " fill="#FBF4C3" transform="translate(96.4375,93.25)"/>
<path d="M0 0 C0.82638376 2.89234315 1 4.88742431 1 8 C0.01 8 -0.98 8 -2 8 C-2.13277344 8.69867188 -2.26554688 9.39734375 -2.40234375 10.1171875 C-2.57894531 11.02726562 -2.75554688 11.93734375 -2.9375 12.875 C-3.11152344 13.77992187 -3.28554687 14.68484375 -3.46484375 15.6171875 C-4 18 -4 18 -5 20 C-5.66 20 -6.32 20 -7 20 C-6.70544888 12.34167083 -3.62827658 6.65738822 0 0 Z " fill="#E7C450" transform="translate(13,39)"/>
<path d="M0 0 C1.0621875 0.16371094 2.124375 0.32742187 3.21875 0.49609375 C8.9708648 1.2151081 14.71245098 1.10749889 20.5 1.0625 C21.60859375 1.05798828 22.7171875 1.05347656 23.859375 1.04882812 C26.57297399 1.03713158 29.28645761 1.02074086 32 1 C27.24005468 4.17329688 22.15826653 3.328192 16.5625 3.3125 C14.84450195 3.33666992 14.84450195 3.33666992 13.09179688 3.36132812 C11.43954102 3.36229492 11.43954102 3.36229492 9.75390625 3.36328125 C8.74658447 3.36626221 7.7392627 3.36924316 6.70141602 3.37231445 C3.63928757 2.95028591 2.27010002 2.04440768 0 0 Z " fill="#D6C07C" transform="translate(54,137)"/>
<path d="M0 0 C2.475 0.495 2.475 0.495 5 1 C5 5.29 5 9.58 5 14 C1.71568547 10.71568547 1.4856148 9.71363525 0.8125 5.3125 C0.65394531 4.31863281 0.49539062 3.32476562 0.33203125 2.30078125 C0.22246094 1.54152344 0.11289063 0.78226563 0 0 Z " fill="#F1B709" transform="translate(95,54)"/>
<path d="M0 0 C1.98 0 3.96 0 6 0 C6 0.66 6 1.32 6 2 C4.68 1.67 3.36 1.34 2 1 C2 2.32 2 3.64 2 5 C-0.82001327 6.41000664 -2.87007255 6.24548451 -6 6 C-8.875 4.5 -8.875 4.5 -11 3 C-6.94952424 1.64984141 -4.2079832 2.37915002 0 3 C0 2.01 0 1.02 0 0 Z " fill="#EFBA0C" transform="translate(76,53)"/>
<path d="M0 0 C7.36095182 0.31323199 13.30883089 1.93914605 20 5 C20 5.33 20 5.66 20 6 C18.741875 6.04125 17.48375 6.0825 16.1875 6.125 C15.47980469 6.14820313 14.77210937 6.17140625 14.04296875 6.1953125 C12 6 12 6 9 4 C5.87478167 3.83300768 5.87478167 3.83300768 3 4 C2.67 3.01 2.34 2.02 2 1 C1.34 0.67 0.68 0.34 0 0 Z " fill="#EBC141" transform="translate(82,6)"/>
<path d="M0 0 C1.051875 0.474375 2.10375 0.94875 3.1875 1.4375 C6.10175851 2.69323741 8.84746914 3.52234381 12 4 C12 4.66 12 5.32 12 6 C1.84682713 6.63019694 1.84682713 6.63019694 -1.6875 4 C-2.120625 3.34 -2.55375 2.68 -3 2 C-2.01 2 -1.02 2 0 2 C0 1.34 0 0.68 0 0 Z " fill="#CDC8B7" transform="translate(34,129)"/>
<path d="M0 0 C0.33 0 0.66 0 1 0 C1 3.63 1 7.26 1 11 C-2.68266103 10.40049704 -6.34543185 9.75241109 -10 9 C-10.33 7.68 -10.66 6.36 -11 5 C-11.66 5 -12.32 5 -13 5 C-13 4.34 -13 3.68 -13 3 C-8.49487506 4.68942185 -4.2840266 6.82168139 0 9 C0 6.03 0 3.06 0 0 Z " fill="#E6C13A" transform="translate(57,98)"/>
<path d="M0 0 C1.9375 0.3125 1.9375 0.3125 4 1 C5.28317892 4.84953676 5.06643637 7.94738135 5 12 C4.01 12 3.02 12 2 12 C2 9.69 2 7.38 2 5 C1.34 5 0.68 5 0 5 C0 3.35 0 1.7 0 0 Z " fill="#EBEDEE" transform="translate(137,47)"/>
<path d="M0 0 C3.57410797 2.68058098 6.31941902 5.42589203 9 9 C8.67 9.66 8.34 10.32 8 11 C6.68 10.34 5.36 9.68 4 9 C3.01 9.99 2.02 10.98 1 12 C1 9.03 1 6.06 1 3 C0.34 2.67 -0.32 2.34 -1 2 C-0.67 1.34 -0.34 0.68 0 0 Z " fill="#EBBD24" transform="translate(121,27)"/>
<path d="M0 0 C1.32 0 2.64 0 4 0 C4 0.66 4 1.32 4 2 C5.32 2 6.64 2 8 2 C8.33 1.34 8.66 0.68 9 0 C10.5 1.375 10.5 1.375 12 3 C12 3.66 12 4.32 12 5 C11.34 5 10.68 5 10 5 C9.67 6.32 9.34 7.64 9 9 C6 6 3 3 0 0 Z " fill="#F5EACE" transform="translate(112,18)"/>
<path d="M0 0 C0.66 0 1.32 0 2 0 C0.58495882 4.83767202 -2.32851358 7.5696423 -6 10.8125 C-6.5465625 11.31458984 -7.093125 11.81667969 -7.65625 12.33398438 C-11.72627551 16 -11.72627551 16 -14 16 C-12.87410807 12.6223242 -11.68056948 11.28636808 -9 9 C-8.01 9 -7.02 9 -6 9 C-6 7.68 -6 6.36 -6 5 C-5.195625 4.731875 -4.39125 4.46375 -3.5625 4.1875 C-2.716875 3.795625 -1.87125 3.40375 -1 3 C-0.67 2.01 -0.34 1.02 0 0 Z " fill="#E2BD41" transform="translate(124,111)"/>
<path d="M0 0 C0.99 0.33 1.98 0.66 3 1 C2.67 1.66 2.34 2.32 2 3 C1.7677354 5.71262116 1.58063765 8.40773126 1.4375 11.125 C1.39431641 11.87910156 1.35113281 12.63320312 1.30664062 13.41015625 C1.2005168 15.27321888 1.09974999 17.13658524 1 19 C0.34 19 -0.32 19 -1 19 C-1.02683987 16.02077407 -1.04676037 13.04178705 -1.0625 10.0625 C-1.07087891 9.21236328 -1.07925781 8.36222656 -1.08789062 7.48632812 C-1.09111328 6.67744141 -1.09433594 5.86855469 -1.09765625 5.03515625 C-1.10289307 4.2862915 -1.10812988 3.53742676 -1.11352539 2.76586914 C-1 1 -1 1 0 0 Z " fill="#E2B827" transform="translate(82,76)"/>
<path d="M0 0 C0.66 0 1.32 0 2 0 C2.66 0.99 3.32 1.98 4 3 C6.05925139 3.72382467 6.05925139 3.72382467 8 4 C8 4.66 8 5.32 8 6 C7.30132812 5.98839844 6.60265625 5.97679687 5.8828125 5.96484375 C4.97273438 5.95582031 4.06265625 5.94679688 3.125 5.9375 C2.22007813 5.92589844 1.31515625 5.91429687 0.3828125 5.90234375 C-2.0168585 5.83750743 -2.0168585 5.83750743 -4 7 C-4.66 6.34 -5.32 5.68 -6 5 C-2.25 2 -2.25 2 0 2 C0 1.34 0 0.68 0 0 Z " fill="#F2B80A" transform="translate(70,39)"/>
<path d="M0 0 C3.3 1.65 6.6 3.3 10 5 C8.92643531 9.29425875 8.4915227 9.74740471 5 12 C3.68 11.34 2.36 10.68 1 10 C2.98 9.67 4.96 9.34 7 9 C7 7.68 7 6.36 7 5 C6.21625 4.9175 5.4325 4.835 4.625 4.75 C3.75875 4.5025 2.8925 4.255 2 4 C1.34 2.68 0.68 1.36 0 0 Z " fill="#FCF8D1" transform="translate(83,34)"/>
<path d="M0 0 C0 1.98 0 3.96 0 6 C-0.99 6.33 -1.98 6.66 -3 7 C-3.33 7.66 -3.66 8.32 -4 9 C-4.66 9 -5.32 9 -6 9 C-6 6.36 -6 3.72 -6 1 C-3.92446352 0.4465236 -2.15634036 0 0 0 Z " fill="#FDFBEB" transform="translate(95,78)"/>
<path d="M0 0 C0.33 0 0.66 0 1 0 C1.02712153 1.916588 1.04645097 3.8332873 1.0625 5.75 C1.07410156 6.81734375 1.08570313 7.8846875 1.09765625 8.984375 C1.01412632 11.56377928 0.65708155 13.53723766 0 16 C0 17.32 0 18.64 0 20 C-1.32 20 -2.64 20 -4 20 C-4 18.68 -4 17.36 -4 16 C-3.34 16 -2.68 16 -2 16 C-1.7834375 14.2675 -1.7834375 14.2675 -1.5625 12.5 C-1.04166667 8.33333333 -0.52083333 4.16666667 0 0 Z " fill="#E8DBB9" transform="translate(138,79)"/>
<path d="M0 0 C3.4375 0.8125 3.4375 0.8125 7 2 C7.33 2.99 7.66 3.98 8 5 C8.680625 4.9175 9.36125 4.835 10.0625 4.75 C14.16875665 5.09946865 16.52321895 6.81849032 20 9 C17.39417629 9.93065133 16.35801776 10.14917407 13.75 9.0625 C13.1725 8.711875 12.595 8.36125 12 8 C12 7.34 12 6.68 12 6 C11.319375 6.0825 10.63875 6.165 9.9375 6.25 C5.83124335 5.90053135 3.47678105 4.18150968 0 2 C0 1.34 0 0.68 0 0 Z " fill="#DFBE52" transform="translate(34,127)"/>
<path d="M0 0 C-3.78912441 2.99972349 -7.88831832 5.47510809 -12 8 C-12.33 7.01 -12.66 6.02 -13 5 C-11.35 4.67 -9.7 4.34 -8 4 C-8 2.68 -8 1.36 -8 0 C-4.71023192 -1.09658936 -3.28696233 -0.79953138 0 0 Z " fill="#F6F1D4" transform="translate(46,9)"/>
<path d="M0 0 C1.32 0 2.64 0 4 0 C4 3.96 4 7.92 4 12 C3.34 12 2.68 12 2 12 C2 9.69 2 7.38 2 5 C1.01 4.67 0.02 4.34 -1 4 C-0.67 2.68 -0.34 1.36 0 0 Z " fill="#FBF1C3" transform="translate(92,57)"/>
<path d="M0 0 C0.515625 0.2475 1.03125 0.495 1.5625 0.75 C0.5725 0.75 -0.4175 0.75 -1.4375 0.75 C-1.685 1.389375 -1.9325 2.02875 -2.1875 2.6875 C-3.4375 4.75 -3.4375 4.75 -7.4375 5.75 C-7.7675 8.72 -8.0975 11.69 -8.4375 14.75 C-8.7675 14.75 -9.0975 14.75 -9.4375 14.75 C-9.4375 11.12 -9.4375 7.49 -9.4375 3.75 C-3.0375 -0.31153846 -3.0375 -0.31153846 0 0 Z " fill="#F8EBAC" transform="translate(42.4375,45.25)"/>
<path d="M0 0 C2.475 0.99 2.475 0.99 5 2 C5 5.3 5 8.6 5 12 C1.31245243 11.50168276 -0.60490662 10.89932357 -3 8 C-0.69 8 1.62 8 4 8 C3.73323796 6.01508358 3.73323796 6.01508358 3 4 C2.01 3.67 1.02 3.34 0 3 C0 2.01 0 1.02 0 0 Z " fill="#FBF3C0" transform="translate(52,95)"/>
<path d="M0 0 C-1.96969697 6.81818182 -1.96969697 6.81818182 -5 9 C-5.99 9 -6.98 9 -8 9 C-6.68994234 5.06982701 -4.75047804 0 0 0 Z " fill="#EEF1EF" transform="translate(23,20)"/>
<path d="M0 0 C1.65 0 3.3 0 5 0 C5 0.66 5 1.32 5 2 C6.32 2.33 7.64 2.66 9 3 C3.375 6 3.375 6 0 6 C0 4.02 0 2.04 0 0 Z " fill="#F7FCFA" transform="translate(65,106)"/>
<path d="M0 0 C0 1.98 0 3.96 0 6 C-0.99 5.67 -1.98 5.34 -3 5 C-3 4.34 -3 3.68 -3 3 C-4.65 3 -6.3 3 -8 3 C-8 2.01 -8 1.02 -8 0 C-4.71023192 -1.09658936 -3.28696233 -0.79953138 0 0 Z " fill="#FAFCFC" transform="translate(109,50)"/>
<path d="M0 0 C1.8871875 0.0309375 1.8871875 0.0309375 3.8125 0.0625 C2.8125 2.0625 2.8125 2.0625 0.625 3.1875 C-2.45519331 4.14578236 -4.98059948 4.21165816 -8.1875 4.0625 C-7.8575 3.0725 -7.5275 2.0825 -7.1875 1.0625 C-4.43671116 0.14557039 -2.82801087 -0.04636083 0 0 Z " fill="#C5C1CB" transform="translate(98.1875,136.9375)"/>
<path d="M0 0 C4 2 4 2 7 4 C6.01 4.33 5.02 4.66 4 5 C3.34 4.67 2.68 4.34 2 4 C2.33 6.31 2.66 8.62 3 11 C2.01 10.67 1.02 10.34 0 10 C0 6.7 0 3.4 0 0 Z " fill="#FCF1B4" transform="translate(63,102)"/>
<path d="M0 0 C0.66 0 1.32 0 2 0 C2.33 2.31 2.66 4.62 3 7 C3.99 5.68 4.98 4.36 6 3 C6.125 8.75 6.125 8.75 5 11 C3.68 11 2.36 11 1 11 C0.67 7.37 0.34 3.74 0 0 Z " fill="#F1ECD2" transform="translate(137,52)"/>
<path d="M0 0 C1.65 0 3.3 0 5 0 C5 0.66 5 1.32 5 2 C6.32 2.66 7.64 3.32 9 4 C6.875 6.5625 6.875 6.5625 4 9 C0.6875 8.8125 0.6875 8.8125 -2 8 C-2 7.67 -2 7.34 -2 7 C0.64 6.67 3.28 6.34 6 6 C5.29660434 3.49034386 5.29660434 3.49034386 4 1 C1.95894361 0.11306697 1.95894361 0.11306697 0 0 Z " fill="#FCF3C3" transform="translate(70,45)"/>
<path d="M0 0 C1 2 1 2 0.3125 4.9375 C-1.06969371 8.16261865 -1.98583 9.30452938 -5 11 C-5.66 11 -6.32 11 -7 11 C-6.40312566 7.65750371 -5.26396123 5.53563658 -3 3 C-2.34 3 -1.68 3 -1 3 C-0.67 2.01 -0.34 1.02 0 0 Z " fill="#E7BF30" transform="translate(21,28)"/>
<path d="M0 0 C1.32 0 2.64 0 4 0 C4.28875 0.804375 4.5775 1.60875 4.875 2.4375 C5.73262568 5.1326468 5.73262568 5.1326468 8 6 C8 6.66 8 7.32 8 8 C5.69 7.34 3.38 6.68 1 6 C0.67 4.02 0.34 2.04 0 0 Z " fill="#DFCA86" transform="translate(22,117)"/>
<path d="M0 0 C0 0.66 0 1.32 0 2 C1.65 2.33 3.3 2.66 5 3 C5 3.33 5 3.66 5 4 C4.33613281 3.98839844 3.67226563 3.97679687 2.98828125 3.96484375 C-3.56306787 3.88106591 -3.56306787 3.88106591 -10 5 C-6.74272688 1.58761863 -4.94076175 0 0 0 Z " fill="#F5E9A9" transform="translate(59,53)"/>
<path d="M0 0 C1 3 1 3 -0.21484375 5.91796875 C-0.78332031 6.99691406 -1.35179687 8.07585938 -1.9375 9.1875 C-2.50339844 10.27417969 -3.06929687 11.36085938 -3.65234375 12.48046875 C-4.09707031 13.31191406 -4.54179687 14.14335938 -5 15 C-6.22419163 11.06204091 -5.48320272 8.83887763 -4 5 C-3.34 5 -2.68 5 -2 5 C-1.855625 4.360625 -1.71125 3.72125 -1.5625 3.0625 C-1 1 -1 1 0 0 Z " fill="#F9EDCC" transform="translate(13,36)"/>
<path d="M0 0 C-1.485 2.475 -1.485 2.475 -3 5 C-4.65 4.67 -6.3 4.34 -8 4 C-5.97675095 -0.48005146 -4.79569304 -1.43870791 0 0 Z " fill="#F7F4D1" transform="translate(90,54)"/>
<path d="M0 0 C0.66 0.33 1.32 0.66 2 1 C1.67 3.31 1.34 5.62 1 8 C1.66 8.33 2.32 8.66 3 9 C2.34 9 1.68 9 1 9 C1 9.99 1 10.98 1 12 C0.34 12 -0.32 12 -1 12 C-1 10.68 -1 9.36 -1 8 C-2.32 7.34 -3.64 6.68 -5 6 C-4.360625 5.566875 -3.72125 5.13375 -3.0625 4.6875 C-0.73253997 3.08760823 -0.73253997 3.08760823 0 0 Z " fill="#EBC643" transform="translate(93,39)"/>
<path d="M0 0 C0 1.32 0 2.64 0 4 C-7.42857143 6.42857143 -7.42857143 6.42857143 -11 5 C-8 3 -8 3 -4 3 C-4 2.34 -4 1.68 -4 1 C-2 0 -2 0 0 0 Z " fill="#E7BE39" transform="translate(102,100)"/>
<path d="M0 0 C0.33 0 0.66 0 1 0 C1.33 2.97 1.66 5.94 2 9 C2.66 9 3.32 9 4 9 C3.67 9.99 3.34 10.98 3 12 C2.01 12 1.02 12 0 12 C0 9.69 0 7.38 0 5 C-1.65 5.33 -3.3 5.66 -5 6 C-4.67 5.34 -4.34 4.68 -4 4 C-3.01 4 -2.02 4 -1 4 C-0.67 2.68 -0.34 1.36 0 0 Z " fill="#F0BC07" transform="translate(97,69)"/>
<path d="M0 0 C-5.5825192 3.32575612 -9.49686791 4.46450943 -16 4 C-16 3.67 -16 3.34 -16 3 C-14.35 3 -12.7 3 -11 3 C-11 2.34 -11 1.68 -11 1 C-4.03571429 -1.27678571 -4.03571429 -1.27678571 0 0 Z " fill="#D1C587" transform="translate(102,134)"/>
<path d="M0 0 C3.7910119 1.44950455 7.3874638 3.15172566 11 5 C6.99799622 6.60080151 3.95443764 5.29279692 0 4 C0 2.68 0 1.36 0 0 Z " fill="#E3BA28" transform="translate(33,95)"/>
<path d="M0 0 C1.98 0.99 1.98 0.99 4 2 C4 7.94 4 13.88 4 20 C3.67 20 3.34 20 3 20 C3 14.72 3 9.44 3 4 C2.34 4 1.68 4 1 4 C0.67 2.68 0.34 1.36 0 0 Z " fill="#DFB635" transform="translate(59,75)"/>
<path d="M0 0 C0 1.65 0 3.3 0 5 C-2.64 4.67 -5.28 4.34 -8 4 C-8 3.34 -8 2.68 -8 2 C-2.25 0 -2.25 0 0 0 Z " fill="#EAC035" transform="translate(78,114)"/>
<path d="M0 0 C0.66 0 1.32 0 2 0 C1.88541307 1.43836751 1.75790884 2.87570966 1.625 4.3125 C1.55539063 5.11300781 1.48578125 5.91351563 1.4140625 6.73828125 C1 9 1 9 -1 12 C-1.02687279 10.18757948 -1.04633715 8.37504767 -1.0625 6.5625 C-1.07410156 5.55316406 -1.08570313 4.54382813 -1.09765625 3.50390625 C-1 1 -1 1 0 0 Z " fill="#EFB80D" transform="translate(45,76)"/>
<path d="M0 0 C0.66 0.33 1.32 0.66 2 1 C2 2.32 2 3.64 2 5 C0.68 5.33 -0.64 5.66 -2 6 C-2.66 5.01 -3.32 4.02 -4 3 C-3 1 -3 1 0 0 Z " fill="#F6F2C2" transform="translate(68,46)"/>
<path d="M0 0 C-0.33 0.99 -0.66 1.98 -1 3 C-1.66 3 -2.32 3 -3 3 C-3 3.99 -3 4.98 -3 6 C-5.97 5.505 -5.97 5.505 -9 5 C-6.45523312 2.20075644 -3.92372883 0 0 0 Z " fill="#FCF3D4" transform="translate(68,30)"/>
<path d="M0 0 C3.94876098 0.56410871 6.75634176 1.65735794 10 4 C10.33 4.99 10.66 5.98 11 7 C6.89188572 5.55007731 3.53144334 3.54592427 0 1 C0 0.67 0 0.34 0 0 Z " fill="#E4C34E" transform="translate(80,31)"/>
<path d="M0 0 C0.66 0.33 1.32 0.66 2 1 C0.625 3.5 0.625 3.5 -1 6 C-1.66 6 -2.32 6 -3 6 C-3.33 6.99 -3.66 7.98 -4 9 C-6 6 -6 6 -6 4 C-4.35 3.67 -2.7 3.34 -1 3 C-0.67 2.01 -0.34 1.02 0 0 Z " fill="#F9E8C4" transform="translate(21,25)"/>
<path d="M0 0 C1.98 0.99 3.96 1.98 6 3 C6 3.99 6 4.98 6 6 C2 6 2 6 0.25 4.5 C-0.1625 4.005 -0.575 3.51 -1 3 C-0.67 2.01 -0.34 1.02 0 0 Z " fill="#EEF2F3" transform="translate(104,7)"/>
<path d="M0 0 C0.33 0 0.66 0 1 0 C1.33 3.96 1.66 7.92 2 12 C1.01 12 0.02 12 -1 12 C-1.33 9.69 -1.66 7.38 -2 5 C-1.34 5 -0.68 5 0 5 C0 3.35 0 1.7 0 0 Z " fill="#ECB426" transform="translate(32,49)"/>
<path d="M0 0 C2.97 0.495 2.97 0.495 6 1 C6.33 2.32 6.66 3.64 7 5 C5.68 5 4.36 5 3 5 C3 4.34 3 3.68 3 3 C2.34 3 1.68 3 1 3 C0.67 2.01 0.34 1.02 0 0 Z " fill="#EDF3ED" transform="translate(113,15)"/>
<path d="M0 0 C1.37562854 1.28965176 2.70766393 2.62689293 4 4 C4 4.66 4 5.32 4 6 C4.66 6 5.32 6 6 6 C6.66 7.32 7.32 8.64 8 10 C7.01 10 6.02 10 5 10 C5 9.34 5 8.68 5 8 C4.01 7.67 3.02 7.34 2 7 C0.8125 3.4375 0.8125 3.4375 0 0 Z " fill="#E4CFA1" transform="translate(14,107)"/>
<path d="M0 0 C0.99 0 1.98 0 3 0 C3.33 0.66 3.66 1.32 4 2 C4.99 2.33 5.98 2.66 7 3 C7 3.66 7 4.32 7 5 C4.625 5.125 4.625 5.125 2 5 C1.34 4.34 0.68 3.68 0 3 C0 2.01 0 1.02 0 0 Z " fill="#CBCCD0" transform="translate(27,126)"/>
<path d="M0 0 C0 0.66 0 1.32 0 2 C2.97 2.495 2.97 2.495 6 3 C5.34 3.66 4.68 4.32 4 5 C1.0574037 4.69347955 -1.34542308 4.32728846 -4 3 C-4 2.34 -4 1.68 -4 1 C-2 0 -2 0 0 0 Z " fill="#FBF9DA" transform="translate(70,111)"/>
<path d="M0 0 C-0.99 1.485 -0.99 1.485 -2 3 C-4.9375 2.625 -4.9375 2.625 -8 2 C-8.33 1.34 -8.66 0.68 -9 0 C-5.52176885 -1.15941038 -3.54104422 -0.70820884 0 0 Z " fill="#FAF5D1" transform="translate(76,96)"/>
<path d="M0 0 C0.99 0.33 1.98 0.66 3 1 C2.67 1.99 2.34 2.98 2 4 C0.35 4.33 -1.3 4.66 -3 5 C-3 4.34 -3 3.68 -3 3 C-3.66 3 -4.32 3 -5 3 C-5 2.34 -5 1.68 -5 1 C-2.525 1.495 -2.525 1.495 0 2 C0 1.34 0 0.68 0 0 Z " fill="#F7F0CB" transform="translate(83,72)"/>
<path d="M0 0 C0.82638376 2.89234315 1 4.88742431 1 8 C0.01 8 -0.98 8 -2 8 C-2.33 8.99 -2.66 9.98 -3 11 C-3.32613618 6.32538149 -2.70582788 3.83325617 0 0 Z " fill="#E5BD31" transform="translate(13,39)"/>
<path d="M0 0 C5.53846154 0.61538462 5.53846154 0.61538462 7.875 2.5625 C8.431875 3.2740625 8.431875 3.2740625 9 4 C7.02 4.33 5.04 4.66 3 5 C2.87625 4.360625 2.7525 3.72125 2.625 3.0625 C2.315625 2.0415625 2.315625 2.0415625 2 1 C1.34 0.67 0.68 0.34 0 0 Z " fill="#E4BB33" transform="translate(70,38)"/>
<path d="M0 0 C7.57142857 4 7.57142857 4 10 8 C7 8 7 8 5.5 6.5625 C5.005 6.046875 4.51 5.53125 4 5 C3.01 4.67 2.02 4.34 1 4 C0.3125 1.9375 0.3125 1.9375 0 0 Z " fill="#E3BA32" transform="translate(107,15)"/>
<path d="M0 0 C-0.33 1.65 -0.66 3.3 -1 5 C-3.97 4.505 -3.97 4.505 -7 4 C-3.375 0 -3.375 0 0 0 Z " fill="#F3F3F6" transform="translate(32,13)"/>
<path d="M0 0 C0.99 0 1.98 0 3 0 C2.67 1.65 2.34 3.3 2 5 C0.35 5 -1.3 5 -3 5 C-2.34 4.67 -1.68 4.34 -1 4 C-0.34786708 1.97536745 -0.34786708 1.97536745 0 0 Z " fill="#CAC9C9" transform="translate(107,130)"/>
<path d="M0 0 C0 3 0 3 -1.1875 5.1875 C-3 7 -3 7 -5.6875 7.25 C-6.450625 7.1675 -7.21375 7.085 -8 7 C-5.53058944 4.40062046 -2.81939117 2.20979308 0 0 Z " fill="#DBCBA4" transform="translate(115,123)"/>
<path d="M0 0 C2.64 0 5.28 0 8 0 C5.31158141 2.25245881 3.35358125 3.88213958 0 5 C0 3.35 0 1.7 0 0 Z " fill="#E6BA32" transform="translate(102,127)"/>
<path d="M0 0 C0.33 0 0.66 0 1 0 C1.25 2.3125 1.25 2.3125 1 5 C-1 6.8125 -1 6.8125 -3 8 C-3.66 7.67 -4.32 7.34 -5 7 C-3.625 4.5 -3.625 4.5 -2 2 C-1.34 2 -0.68 2 0 2 C0 1.34 0 0.68 0 0 Z " fill="#E3D4C0" transform="translate(128,109)"/>
<path d="M0 0 C1.79068573 2.6860286 2.66055791 4.6626589 3.625 7.6875 C3.88539062 8.49574219 4.14578125 9.30398437 4.4140625 10.13671875 C4.60742188 10.75160156 4.80078125 11.36648437 5 12 C4.01 11.67 3.02 11.34 2 11 C0.60955102 7.12137916 0 4.13537997 0 0 Z " fill="#EAD6A0" transform="translate(9,95)"/>
<path d="M0 0 C-0.33 1.32 -0.66 2.64 -1 4 C-3.31 4.33 -5.62 4.66 -8 5 C-3.16129032 0 -3.16129032 0 0 0 Z " fill="#E3C443" transform="translate(110,95)"/>
<path d="M0 0 C2.76276177 0.52268466 5.3260876 1.10869587 8 2 C9.1875 4.0625 9.1875 4.0625 10 6 C6.40992874 4.66654496 3.20429093 3.1056769 0 1 C0 0.67 0 0.34 0 0 Z " fill="#E3C044" transform="translate(46,91)"/>
<path d="M0 0 C-0.33 0.99 -0.66 1.98 -1 3 C-2.32 3 -3.64 3 -5 3 C-5.33 3.99 -5.66 4.98 -6 6 C-6.99 6 -7.98 6 -9 6 C-8 3 -8 3 -5.0625 1.3125 C-2 0 -2 0 0 0 Z " fill="#F7B908" transform="translate(99,87)"/>
<path d="M0 0 C0.33 0 0.66 0 1 0 C1.33 4.29 1.66 8.58 2 13 C1.01 13 0.02 13 -1 13 C-0.67 8.71 -0.34 4.42 0 0 Z " fill="#E1C442" transform="translate(86,98)"/>
<path d="M0 0 C0.33 1.32 0.66 2.64 1 4 C0.34 4 -0.32 4 -1 4 C-1 3.34 -1 2.68 -1 2 C-2.98 2.66 -4.96 3.32 -7 4 C-7.66 3.34 -8.32 2.68 -9 2 C-2.25 0 -2.25 0 0 0 Z " fill="#E7BC1D" transform="translate(97,105)"/>
<path d="M0 0 C0.33 0 0.66 0 1 0 C1 3.96 1 7.92 1 12 C0.01 12.33 -0.98 12.66 -2 13 C-1.34 8.71 -0.68 4.42 0 0 Z " fill="#EDDCA4" transform="translate(138,79)"/>
<path d="M0 0 C0.33 0.99 0.66 1.98 1 3 C-0.3125 5.1875 -0.3125 5.1875 -2 7 C-2.66 7 -3.32 7 -4 7 C-4 5.35 -4 3.7 -4 2 C-2.68 1.34 -1.36 0.68 0 0 Z " fill="#FAFCFC" transform="translate(93,80)"/>
<path d="M0 0 C8.57142857 0.85714286 8.57142857 0.85714286 12 3 C4.61538462 3.36923077 4.61538462 3.36923077 1.5 1.5 C1.005 1.005 0.51 0.51 0 0 Z " fill="#D0C08F" transform="translate(54,137)"/>
<path d="M0 0 C0.66 0.33 1.32 0.66 2 1 C0.3125 3.0625 0.3125 3.0625 -2 5 C-4.75 4.75 -4.75 4.75 -7 4 C-6.1028125 3.566875 -6.1028125 3.566875 -5.1875 3.125 C-2.80672208 1.95257974 -2.80672208 1.95257974 0 0 Z " fill="#E8C54E" transform="translate(62,42)"/>
<path d="M0 0 C2.31 0 4.62 0 7 0 C7 0.66 7 1.32 7 2 C4.69 2.66 2.38 3.32 0 4 C0 2.68 0 1.36 0 0 Z " fill="#FBF7CC" transform="translate(67,36)"/>
<path d="M0 0 C0 3 0 3 -2 5.1875 C-2.66 5.785625 -3.32 6.38375 -4 7 C-4.99 6.67 -5.98 6.34 -7 6 C-4.69 4.02 -2.38 2.04 0 0 Z " fill="#E2BF44" transform="translate(29,20)"/>
<path d="M0 0 C6.15234375 0.5859375 6.15234375 0.5859375 8 1 C8.33 1.66 8.66 2.32 9 3 C7.02 3.33 5.04 3.66 3 4 C2.67 3.01 2.34 2.02 2 1 C1.34 0.67 0.68 0.34 0 0 Z " fill="#E5B929" transform="translate(82,6)"/>
<path d="M0 0 C0.66 0.66 1.32 1.32 2 2 C1.625 4.625 1.625 4.625 1 7 C-0.37562854 5.71034824 -1.70766393 4.37310707 -3 3 C-3 2.34 -3 1.68 -3 1 C-2.01 0.67 -1.02 0.34 0 0 Z " fill="#E7B923" transform="translate(17,104)"/>
<path d="M0 0 C0.66 0 1.32 0 2 0 C1.67 1.65 1.34 3.3 1 5 C0.34 5 -0.32 5 -1 5 C-1.33 5.66 -1.66 6.32 -2 7 C-2.125 4.625 -2.125 4.625 -2 2 C-1.34 1.34 -0.68 0.68 0 0 Z " fill="#E4C349" transform="translate(132,98)"/>
<path d="M0 0 C0.99 0.33 1.98 0.66 3 1 C3.6875 3.0625 3.6875 3.0625 4 5 C2.68 4.67 1.36 4.34 0 4 C0 2.68 0 1.36 0 0 Z " fill="#F5B308" transform="translate(57,76)"/>
<path d="M0 0 C3.71599191 -0.20086443 4.77208445 -0.1519437 8 2 C8 2.66 8 3.32 8 4 C5.36 3.34 2.72 2.68 0 2 C0 1.34 0 0.68 0 0 Z " fill="#E3C247" transform="translate(70,26)"/>
</svg>
