<?xml version="1.0" encoding="UTF-8"?>
<!DOCTYPE svg PUBLIC "-//W3C//DTD SVG 1.1//EN" "http://www.w3.org/Graphics/SVG/1.1/DTD/svg11.dtd">
<svg xmlns="http://www.w3.org/2000/svg" version="1.1" width="144px" height="144px" style="shape-rendering:geometricPrecision; text-rendering:geometricPrecision; image-rendering:optimizeQuality; fill-rule:evenodd; clip-rule:evenodd" xmlns:xlink="http://www.w3.org/1999/xlink">
<g><path fill="#cac6bf" fill-opacity="0.992" stroke="#cac6bf" stroke-width="0.5" stroke-opacity="0.992" d="M 26.62,121.65 C 28.72,123.3 30.77,124.98 32.78,126.71 C 34.62,127.86 36.43,129.03 38.22,130.22 C 41.07,131.63 43.9,133.09 46.7,134.59 C 51.94,136.26 57.28,137.57 62.7,138.53 C 74.72,140.12 86.34,138.65 97.58,134.12 C 102.54,131.86 107.31,129.27 111.89,126.32 C 113.62,124.62 115.44,123.01 117.35,121.51 C 117.58,122.07 117.69,122.65 117.68,123.25 C 117.4,123.94 117.23,124.63 117.16,125.35 C 117.77,125.87 118.47,126.19 119.27,126.32 C 111.42,133.17 102.5,138.07 92.51,141.02 C 88.74,142.14 84.96,143.04 81.16,143.71 C 75.06,143.73 68.95,143.74 62.85,143.75 C 58.75,142.99 54.69,141.99 50.66,140.77 C 40.51,137.61 31.5,132.47 23.62,125.34 C 24.41,124.66 25.19,123.99 25.97,123.31 C 26.29,122.8 26.51,122.24 26.62,121.65 Z"/></g>
<g><path fill="#f2f0e6" fill-opacity="0.996" stroke="#f2f0e6" stroke-width="0.5" stroke-opacity="0.996" d="M 68.03,0 C 70.69,0.14 73.34,0.27 76,0.41 C 78.03,1.02 80.09,1.12 82.16,0.7 C 83.74,0.74 85.3,0.98 86.82,1.45 C 93.81,2.98 100.45,5.48 106.72,8.94 C 107.14,9.41 107.67,9.64 108.31,9.63 C 109.42,10.46 110.57,11.25 111.75,11.98 C 112.08,12.35 112.42,12.7 112.77,13.05 C 113.94,13.38 114.92,14 115.73,14.9 C 116.04,15.32 116.39,15.69 116.78,16.03 C 118.39,16.93 119.87,18.01 121.22,19.29 C 123.04,21.13 124.81,23.02 126.54,24.95 C 127.18,25.63 127.67,26.4 128.01,27.26 C 128.31,27.64 128.64,27.98 129.02,28.28 C 130.08,29.02 130.74,30.02 131.02,31.29 C 131.34,31.67 131.68,32.03 132.04,32.37 C 135.13,36.93 137.63,41.8 139.53,46.97 C 140.87,50.76 141.99,54.61 142.87,58.53 C 143.32,59.94 143.44,61.37 143.25,62.84 C 142.96,64.08 142.93,65.33 143.16,66.6 C 143.15,67.26 143.43,67.74 144,68.03 C 144,70.67 144,73.32 144,75.96 C 143.7,76.11 143.5,76.34 143.41,76.66 C 142.94,78.53 142.87,80.4 143.22,82.27 C 143.34,83 143.3,83.71 143.1,84.42 C 142.55,86.68 141.97,88.93 141.38,91.18 C 140.9,91.05 140.55,90.76 140.32,90.31 C 140.2,89.44 140.08,88.56 139.97,87.69 C 139.43,87.01 139.04,86.27 138.8,85.45 C 139.06,84.56 139.15,83.65 139.08,82.74 C 138.92,82.41 138.68,82.15 138.37,81.96 C 139.74,73.49 139.44,65.08 137.48,56.73 C 136.59,54.24 135.63,51.79 134.58,49.39 C 134.29,47.58 133.84,45.81 133.24,44.08 C 131.05,39.77 128.55,35.63 125.76,31.67 C 113.48,15.91 97.39,7.06 77.5,5.12 C 62.2,4 48.08,7.56 35.15,15.81 C 19.99,26.2 10.35,40.34 6.23,58.24 C 5.06,57.68 4.47,56.72 4.46,55.37 C 4.34,56.59 4.01,57.73 3.48,58.79 C 2.75,58.32 2.16,57.68 1.7,56.9 C 3.5,48.04 6.91,39.84 11.92,32.3 C 12.32,31.98 12.68,31.63 13.01,31.24 C 13.37,30.05 14.03,29.05 14.98,28.25 C 15.39,27.95 15.77,27.6 16.1,27.2 C 16.3,26.58 16.56,25.97 16.88,25.4 C 19.6,22.44 22.47,19.64 25.5,17 C 26.05,16.57 26.64,16.25 27.29,16.01 C 27.65,15.72 27.96,15.39 28.22,15.01 C 28.99,13.95 30,13.27 31.28,12.95 C 31.64,12.65 31.97,12.32 32.25,11.95 C 40.64,6.49 49.74,2.79 59.56,0.86 C 60.64,0.63 61.73,0.57 62.84,0.68 C 64.35,1.11 65.87,1.1 67.39,0.63 C 67.68,0.5 67.9,0.29 68.03,0 Z"/></g>
<g><path fill="#ded9d0" fill-opacity="0.996" stroke="#ded9d0" stroke-width="0.5" stroke-opacity="0.996" d="M 138.37,81.96 C 138.68,82.15 138.92,82.41 139.08,82.74 C 139.15,83.65 139.06,84.56 138.8,85.45 C 139.04,86.27 139.43,87.01 139.97,87.69 C 140.08,88.56 140.2,89.44 140.32,90.31 C 140.55,90.76 140.9,91.05 141.38,91.18 C 137.47,105.07 130.11,116.79 119.27,126.32 C 118.47,126.19 117.77,125.87 117.16,125.35 C 117.23,124.63 117.4,123.94 117.68,123.25 C 117.69,122.65 117.58,122.07 117.35,121.51 C 120.52,118.79 123.3,115.73 125.71,112.31 C 128.51,108.35 131.04,104.22 133.29,99.93 C 135.59,94.11 137.28,88.12 138.37,81.96 Z"/></g>
<g><path fill="#f2e6b9" d="M 5.63,63.25 C 4.68,71.15 4.95,79.02 6.44,86.85 C 6.06,87.2 5.9,87.62 5.98,88.12 C 6.32,88.63 6.64,89.15 6.92,89.7 C 7.11,90.23 7,90.65 6.57,90.96 C 5.92,90.21 5.63,89.33 5.71,88.3 C 5.25,87.6 4.75,86.93 4.22,86.29 C 4.19,85.36 4.18,84.43 4.18,83.5 C 3.93,83.08 3.71,82.66 3.51,82.23 C 3.68,80.31 3.59,78.4 3.26,76.5 C 3.36,72.47 3.53,68.45 3.77,64.43 C 4.01,63.45 4.63,63.06 5.63,63.25 Z"/></g>
<g><path fill="#e6e4de" fill-opacity="0.988" d="M 6.23,58.24 C 5.98,59.9 5.78,61.57 5.63,63.25 C 4.63,63.06 4.01,63.45 3.77,64.43 C 3.53,68.45 3.36,72.47 3.26,76.5 C 3.59,78.4 3.68,80.31 3.51,82.23 C 3.71,82.66 3.93,83.08 4.18,83.5 C 4.18,84.43 4.19,85.36 4.22,86.29 C 4.75,86.93 5.25,87.6 5.71,88.3 C 5.63,89.33 5.92,90.21 6.57,90.96 C 7,90.65 7.11,90.23 6.92,89.7 C 6.64,89.15 6.32,88.63 5.98,88.12 C 5.9,87.62 6.06,87.2 6.44,86.85 C 7.21,88.13 7.93,89.45 8.57,90.81 C 8.62,91.96 8.61,93.12 8.54,94.29 C 8.95,95.54 9.41,96.77 9.91,97.99 C 9.4,100.1 8.62,102.16 7.57,104.16 C 4.04,97.02 1.7,89.52 0.56,81.65 C 0.47,81.33 0.29,81.1 0,80.96 C 0,74.98 0,69 0,63.02 C 0.32,62.87 0.54,62.61 0.65,62.27 C 0.63,60.4 0.98,58.61 1.7,56.9 C 2.16,57.68 2.75,58.32 3.48,58.79 C 4.01,57.73 4.34,56.59 4.46,55.37 C 4.47,56.72 5.06,57.68 6.23,58.24 Z"/></g>
<g><path fill="#dcd7cf" fill-opacity="0.996" stroke="#dcd7cf" stroke-width="0.5" stroke-opacity="0.996" d="M 9.91,97.99 C 13.27,105.47 17.68,112.26 23.14,118.37 C 24.24,119.53 25.4,120.62 26.62,121.65 C 26.51,122.24 26.29,122.8 25.97,123.31 C 25.19,123.99 24.41,124.66 23.62,125.34 C 16.97,119.26 11.62,112.2 7.57,104.16 C 8.62,102.16 9.4,100.1 9.91,97.99 Z"/></g>
<g><path fill="#f0b90f" stroke="#f0b90f" stroke-width="0.5" d="M 138.37,81.96 C 137.28,88.12 135.59,94.11 133.29,99.93 C 131.04,104.22 128.51,108.35 125.71,112.31 C 123.3,115.73 120.52,118.79 117.35,121.51 C 115.44,123.01 113.62,124.62 111.89,126.32 C 107.31,129.27 102.54,131.86 97.58,134.12 C 86.34,138.65 74.72,140.12 62.7,138.53 C 57.28,137.57 51.94,136.26 46.7,134.59 C 43.9,133.09 41.07,131.63 38.22,130.22 C 36.43,129.03 34.62,127.86 32.78,126.71 C 30.77,124.98 28.72,123.3 26.62,121.65 C 25.4,120.62 24.24,119.53 23.14,118.37 C 17.68,112.26 13.27,105.47 9.91,97.99 C 9.41,96.77 8.95,95.54 8.54,94.29 C 8.61,93.12 8.62,91.96 8.57,90.81 C 7.93,89.45 7.21,88.13 6.44,86.85 C 4.95,79.02 4.68,71.15 5.63,63.25 C 5.78,61.57 5.98,59.9 6.23,58.24 C 10.35,40.34 19.99,26.2 35.15,15.81 C 48.08,7.56 62.2,4 77.5,5.12 C 97.39,7.06 113.48,15.91 125.76,31.67 C 128.55,35.63 131.05,39.77 133.24,44.08 C 133.84,45.81 134.29,47.58 134.58,49.39 C 135.63,51.79 136.59,54.24 137.48,56.73 C 139.44,65.08 139.74,73.49 138.37,81.96 Z M 49.28,40.63 C 50.64,42.14 52.21,43.38 54,44.34 C 55.07,45.05 56.24,45.4 57.51,45.39 C 62.03,43.18 66.42,40.74 70.67,38.04 C 71.24,37.74 71.85,37.66 72.48,37.8 C 76.45,39.79 80.31,41.97 84.07,44.34 C 85.02,44.87 86.02,45.25 87.08,45.47 C 89.69,44.63 91.98,43.28 93.95,41.4 C 94.26,40.51 94.03,39.79 93.27,39.24 C 86.63,35.5 80.02,31.72 73.44,27.9 C 72.8,27.64 72.14,27.52 71.45,27.56 C 64.5,31.31 57.6,35.18 50.76,39.15 C 50.07,39.46 49.58,39.96 49.28,40.63 Z M 34.46,49.58 C 33.05,49.54 31.74,49.15 30.55,48.42 C 30.25,48.9 30.24,49.4 30.52,49.92 C 31.68,50.89 32.2,52.12 32.08,53.61 C 31.6,54.1 31.03,54.44 30.38,54.63 C 30.5,55.28 30.56,55.94 30.57,56.6 C 31.02,56.21 31.47,56.19 31.91,56.55 C 31.58,57.68 31.42,58.84 31.45,60.01 C 32.49,60.68 33.57,61.3 34.7,61.85 C 35.1,62.87 35.71,63.76 36.52,64.51 C 36.82,64.32 37.14,64.21 37.49,64.17 C 38.2,64.64 38.93,65.09 39.67,65.53 C 40.35,65.81 41.02,65.78 41.66,65.44 C 41.14,65.03 40.65,64.6 40.18,64.14 C 40.98,63.78 41.55,63.21 41.89,62.41 C 41.7,59.9 41.99,57.45 42.73,55.06 C 43.7,53.94 44.82,53.03 46.12,52.31 C 47.14,51.8 48.12,51.23 49.06,50.58 C 49.83,49.26 49.46,48.28 47.97,47.64 C 47.17,47.16 46.34,46.74 45.47,46.37 C 44.57,45.74 43.58,45.36 42.49,45.21 C 39.18,45.5 36.51,46.96 34.46,49.58 Z M 64.49,49.03 C 64.46,49.57 64.63,50.03 65,50.42 C 66.99,51.97 69.16,53.21 71.5,54.13 C 72.43,54.18 73.3,53.96 74.1,53.47 C 75.75,52.45 77.43,51.49 79.15,50.59 C 79.78,50.14 79.91,49.59 79.54,48.94 C 77.67,47.86 75.88,46.68 74.17,45.41 C 72.75,44.69 71.34,44.72 69.94,45.49 C 67.95,46.43 66.14,47.61 64.49,49.03 Z M 102.21,63.97 C 102.19,64.76 102.56,65.14 103.33,65.14 C 104.2,64.92 105.06,64.63 105.88,64.28 C 107.01,63.15 108.24,62.15 109.58,61.28 C 109.85,60.87 109.9,60.44 109.74,59.98 C 110.24,58.87 110.48,57.71 110.45,56.49 C 110.48,54.88 110.5,53.27 110.52,51.66 C 110.48,50.91 110.3,50.19 109.98,49.51 C 107.91,47.9 105.71,46.49 103.37,45.27 C 102.21,44.8 101.07,44.82 99.95,45.35 C 98.32,46.43 96.66,47.48 94.99,48.5 C 94.03,49.16 93.99,49.87 94.89,50.63 C 96.58,51.66 98.3,52.63 100.05,53.55 C 100.61,53.92 101.09,54.38 101.51,54.91 C 101.72,57.92 101.95,60.95 102.21,63.97 Z M 61.85,56.04 C 61.74,55.51 61.41,55.29 60.87,55.39 C 59.84,54.65 58.73,54.08 57.53,53.7 C 56.69,53.65 55.88,53.78 55.1,54.09 C 54.62,54.2 54.26,54.46 54,54.87 C 52.39,55.79 50.81,56.76 49.26,57.77 C 48.87,58.03 48.6,58.39 48.46,58.84 C 48.32,61.68 48.29,64.52 48.39,67.36 C 48.87,68.36 49.62,69.14 50.63,69.68 C 54.41,71.73 58.1,73.93 61.7,76.3 C 62.38,77.23 62.82,78.27 63.04,79.42 C 63.05,84.1 63.1,88.78 63.18,93.47 C 63.25,94.52 63.81,95.14 64.86,95.32 C 67,96.7 69.21,97.93 71.5,99.02 C 72.14,99.06 72.76,98.94 73.34,98.67 C 75.31,97.61 77.25,96.51 79.16,95.35 C 80.27,95.22 80.86,94.6 80.93,93.49 C 80.98,88.82 80.97,84.14 80.89,79.46 C 80.84,78.63 81.02,77.86 81.43,77.15 C 81.85,76.54 82.38,76.05 83.03,75.69 C 86.45,73.68 89.89,71.71 93.34,69.78 C 94.15,69.33 94.85,68.76 95.44,68.06 C 95.67,65.56 95.77,63.05 95.75,60.52 C 95.8,59.71 95.63,58.95 95.24,58.24 C 92.85,56.54 90.35,55.03 87.72,53.71 C 87.33,53.49 86.92,53.43 86.49,53.55 C 82.31,55.84 78.16,58.19 74.04,60.6 C 73.22,60.99 72.36,61.18 71.45,61.17 C 68.23,59.51 65.04,57.8 61.85,56.04 Z M 110.93,69.93 C 111.07,78.19 111.24,86.44 111.44,94.67 C 112,94.07 112.25,93.36 112.19,92.53 C 112.28,87.19 112.23,81.84 112.04,76.5 C 111.98,74.15 112.19,71.83 112.67,69.54 C 112.69,68.58 112.31,67.83 111.53,67.28 C 111.08,68.09 110.88,68.98 110.93,69.93 Z M 33.4,70 C 33.53,77.51 33.56,85.02 33.51,92.53 C 33.45,93.78 33.92,94.75 34.93,95.46 C 41.29,99.13 47.66,102.8 54.02,106.47 C 54.75,106.9 55.53,107.05 56.37,106.92 C 56.88,106.6 57.15,106.14 57.2,105.53 C 57.48,102.94 57.24,100.42 56.49,97.95 C 55.59,97.16 54.61,96.46 53.58,95.86 C 50.58,94.18 47.57,92.5 44.57,90.83 C 43.86,90.28 43.18,89.68 42.54,89.03 C 42.22,88.22 42.07,87.38 42.11,86.5 C 42.09,82.5 42.1,78.49 42.15,74.49 C 42.1,73.56 41.95,72.65 41.69,71.76 C 39.67,70.4 37.55,69.19 35.34,68.13 C 33.94,67.92 33.29,68.54 33.4,70 Z M 86.79,106.07 C 87.36,107.11 88.22,107.36 89.36,106.81 C 96.37,102.8 103.3,98.69 110.16,94.48 C 110.46,86.84 110.57,79.18 110.47,71.5 C 110.46,70.81 110.41,70.12 110.32,69.43 C 110.27,68.81 109.97,68.36 109.42,68.09 C 108.65,68.08 107.94,68.29 107.28,68.7 C 105.59,69.72 103.92,70.74 102.26,71.77 C 101.99,72.66 101.85,73.56 101.85,74.49 C 101.82,78.83 101.82,83.16 101.87,87.5 C 101.87,88.05 101.73,88.57 101.47,89.05 C 100.6,89.88 99.66,90.61 98.64,91.23 C 94.83,93.36 91.08,95.57 87.39,97.88 C 87.08,98.35 86.91,98.87 86.88,99.44 C 86.85,101.65 86.82,103.86 86.79,106.07 Z M 48.18,78.04 C 48.16,80.72 48.29,83.37 48.59,86.01 C 50.6,87.24 52.64,88.45 54.69,89.64 C 55.99,90.28 56.8,89.91 57.13,88.55 C 57.25,85.93 57.13,83.32 56.79,80.73 C 54.7,79.11 52.45,77.71 50.05,76.53 C 48.85,76.29 48.22,76.79 48.18,78.04 Z M 86.75,87.1 C 86.76,87.87 86.89,88.61 87.13,89.33 C 87.43,89.79 87.84,89.97 88.38,89.88 C 90.19,89.13 91.93,88.23 93.58,87.16 C 94.78,86.58 95.51,85.65 95.77,84.36 C 95.74,82.4 95.79,80.45 95.91,78.49 C 96.01,77.67 95.79,76.97 95.23,76.4 C 94.28,76.4 93.42,76.67 92.62,77.19 C 90.93,78.1 89.34,79.15 87.84,80.34 C 87.35,80.95 87.08,81.66 87.03,82.46 C 86.88,84.01 86.79,85.55 86.75,87.1 Z M 63.82,112.19 C 66.08,113.49 68.32,114.82 70.53,116.2 C 71.17,116.42 71.82,116.47 72.48,116.36 C 74.86,115.43 77.1,114.22 79.21,112.75 C 79.88,112.36 80.36,111.79 80.62,111.06 C 80.69,108.6 80.71,106.13 80.7,103.67 C 80.57,103.49 80.44,103.31 80.31,103.13 C 79.5,102.89 78.7,102.93 77.91,103.24 C 76.43,104.17 74.92,105.03 73.37,105.81 C 72.77,106.05 72.15,106.16 71.51,106.15 C 69.97,105.53 68.45,104.83 66.96,104.05 C 66.43,103.1 65.59,102.64 64.45,102.68 C 63.81,102.7 63.4,103.02 63.21,103.62 C 62.96,105.95 62.94,108.28 63.16,110.61 C 63.13,111.26 63.35,111.78 63.82,112.19 Z"/></g>
<g><path fill="#fcf4b5" d="M 66.96,104.05 C 66.19,104.45 65.4,104.85 64.58,105.25 C 64.62,106.6 64.68,107.96 64.75,109.32 C 64.43,110.27 64.12,111.23 63.82,112.19 C 63.35,111.78 63.13,111.26 63.16,110.61 C 62.94,108.28 62.96,105.95 63.21,103.62 C 63.4,103.02 63.81,102.7 64.45,102.68 C 65.59,102.64 66.43,103.1 66.96,104.05 Z"/></g>
<g><path fill="#fef2ba" d="M 81.43,77.15 C 81.02,77.86 80.84,78.63 80.89,79.46 C 80.97,84.14 80.98,88.82 80.93,93.49 C 80.86,94.6 80.27,95.22 79.16,95.35 C 79.48,90.72 79.65,86.09 79.67,81.45 C 79.61,80.38 79.31,79.39 78.75,78.47 C 79.36,77.52 80.25,77.08 81.43,77.15 Z"/></g>
<g><path fill="#fcfbe8" stroke="#fcfbe8" stroke-width="0.5" d="M 48.18,78.04 C 48.22,76.79 48.85,76.29 50.05,76.53 C 52.45,77.71 54.7,79.11 56.79,80.73 C 57.13,83.32 57.25,85.93 57.13,88.55 C 56.8,89.91 55.99,90.28 54.69,89.64 C 52.64,88.45 50.6,87.24 48.59,86.01 C 48.29,83.37 48.16,80.72 48.18,78.04 Z M 86.75,87.1 C 86.79,85.55 86.88,84.01 87.03,82.46 C 87.08,81.66 87.35,80.95 87.84,80.34 C 89.34,79.15 90.93,78.1 92.62,77.19 C 93.42,76.67 94.28,76.4 95.23,76.4 C 95.79,76.97 96.01,77.67 95.91,78.49 C 95.79,80.45 95.74,82.4 95.77,84.36 C 95.51,85.65 94.78,86.58 93.58,87.16 C 91.93,88.23 90.19,89.13 88.38,89.88 C 87.84,89.97 87.43,89.79 87.13,89.33 C 86.89,88.61 86.76,87.87 86.75,87.1 Z"/></g>
<g><path fill="#fdf2bb" d="M 64.86,95.32 C 63.81,95.14 63.25,94.52 63.18,93.47 C 63.1,88.78 63.05,84.1 63.04,79.42 C 62.82,78.27 62.38,77.23 61.7,76.3 C 62.23,75.41 62.97,75.23 63.93,75.76 C 64.49,76.67 64.99,77.61 65.43,78.59 C 64.58,79.35 64.19,80.3 64.27,81.46 C 64.27,85.14 64.27,88.82 64.25,92.5 C 64.28,93.48 64.48,94.42 64.86,95.32 Z"/></g>
<g><path fill="#e3c34d" d="M 109.74,59.98 C 109.9,60.44 109.85,60.87 109.58,61.28 C 108.24,62.15 107.01,63.15 105.88,64.28 C 105.06,64.63 104.2,64.92 103.33,65.14 C 102.56,65.14 102.19,64.76 102.21,63.97 C 104.81,62.8 107.32,61.47 109.74,59.98 Z"/></g>
<g><path fill="#e9bb3a" d="M 34.46,49.58 C 33.2,52.8 33.1,56.07 34.16,59.38 C 34.94,60.33 35.83,61.17 36.83,61.91 C 37.72,62.28 38.6,62.68 39.47,63.09 C 39.81,63.37 40.05,63.72 40.18,64.14 C 40.65,64.6 41.14,65.03 41.66,65.44 C 41.02,65.78 40.35,65.81 39.67,65.53 C 38.93,65.09 38.2,64.64 37.49,64.17 C 37.14,64.21 36.82,64.32 36.52,64.51 C 35.71,63.76 35.1,62.87 34.7,61.85 C 33.57,61.3 32.49,60.68 31.45,60.01 C 31.42,58.84 31.58,57.68 31.91,56.55 C 31.47,56.19 31.02,56.21 30.57,56.6 C 30.56,55.94 30.5,55.28 30.38,54.63 C 31.03,54.44 31.6,54.1 32.08,53.61 C 32.2,52.12 31.68,50.89 30.52,49.92 C 30.24,49.4 30.25,48.9 30.55,48.42 C 31.74,49.15 33.05,49.54 34.46,49.58 Z"/></g>
<g><path fill="#fcfcd0" d="M 45.47,46.37 C 46.34,46.74 47.17,47.16 47.97,47.64 C 49.46,48.28 49.83,49.26 49.06,50.58 C 48.12,51.23 47.14,51.8 46.12,52.31 C 46.04,50.97 45.76,49.69 45.28,48.45 C 45.31,47.75 45.37,47.06 45.47,46.37 Z"/></g>
<g><path fill="#fbfbeb" stroke="#fbfbeb" stroke-width="0.5" d="M 64.49,49.03 C 66.14,47.61 67.95,46.43 69.94,45.49 C 71.34,44.72 72.75,44.69 74.17,45.41 C 75.88,46.68 77.67,47.86 79.54,48.94 C 79.91,49.59 79.78,50.14 79.15,50.59 C 77.43,51.49 75.75,52.45 74.1,53.47 C 73.3,53.96 72.43,54.18 71.5,54.13 C 69.16,53.21 66.99,51.97 65,50.42 C 64.63,50.03 64.46,49.57 64.49,49.03 Z"/></g>
<g><path fill="#deb531" d="M 110.93,69.93 C 110.88,68.98 111.08,68.09 111.53,67.28 C 112.31,67.83 112.69,68.58 112.67,69.54 C 112.19,71.83 111.98,74.15 112.04,76.5 C 112.23,81.84 112.28,87.19 112.19,92.53 C 112.25,93.36 112,94.07 111.44,94.67 C 111.24,86.44 111.07,78.19 110.93,69.93 Z"/></g>
<g><path fill="#f4edef" fill-opacity="0.635" d="M 76,0.41 C 78.07,0.34 80.14,0.28 82.21,0.21 C 82.19,0.38 82.18,0.54 82.16,0.7 C 80.09,1.12 78.03,1.02 76,0.41 Z"/></g>
<g><path fill="#e7e6ea" fill-opacity="0.635" d="M 144,75.96 C 144,77.97 144,79.98 144,81.99 C 143.74,82.09 143.48,82.18 143.22,82.27 C 142.87,80.4 142.94,78.53 143.41,76.66 C 143.5,76.34 143.7,76.11 144,75.96 Z"/></g>
<g><path fill="#f2f1f1" fill-opacity="0.69" d="M 63.01,0 C 64.68,0 66.36,0 68.03,0 C 67.9,0.29 67.68,0.5 67.39,0.63 C 65.87,1.1 64.35,1.11 62.84,0.68 C 62.89,0.45 62.95,0.23 63.01,0 Z"/></g>
<g><path fill="#ebebed" fill-opacity="0.69" d="M 143.25,62.84 C 143.5,62.89 143.75,62.95 144,63.01 C 144,64.68 144,66.36 144,68.03 C 143.43,67.74 143.15,67.26 143.16,66.6 C 142.93,65.33 142.96,64.08 143.25,62.84 Z"/></g>
<g><path fill="#ecf2ea" fill-opacity="0.525" d="M 131.02,31.29 C 131.71,31.31 132.04,31.66 132.04,32.37 C 131.68,32.03 131.34,31.67 131.02,31.29 Z"/></g>
<g><path fill="#e4da92" d="M 60.87,55.39 C 61.41,55.29 61.74,55.51 61.85,56.04 C 61.37,56.04 61.05,55.83 60.87,55.39 Z"/></g>
<g><path fill="#ecf0f2" fill-opacity="0.525" d="M 13.01,31.24 C 12.68,31.63 12.32,31.98 11.92,32.3 C 11.94,31.57 12.31,31.22 13.01,31.24 Z"/></g>
<g><path fill="#f1f1f1" fill-opacity="0.58" d="M 128.01,27.26 C 128.71,27.21 129.04,27.56 129.02,28.28 C 128.64,27.98 128.31,27.64 128.01,27.26 Z"/></g>
<g><path fill="#effaf8" fill-opacity="0.58" d="M 16.1,27.2 C 15.77,27.6 15.39,27.95 14.98,28.25 C 14.97,27.49 15.35,27.14 16.1,27.2 Z"/></g>
<g><path fill="#f5f5f5" fill-opacity="0.58" d="M 115.73,14.9 C 116.45,14.95 116.8,15.33 116.78,16.03 C 116.39,15.69 116.04,15.32 115.73,14.9 Z"/></g>
<g><path fill="#efefef" fill-opacity="0.58" d="M 28.22,15.01 C 27.96,15.39 27.65,15.72 27.29,16.01 C 27.24,15.36 27.55,15.03 28.22,15.01 Z"/></g>
<g><path fill="#f4f2f2" fill-opacity="0.525" d="M 111.75,11.98 C 112.45,12.01 112.79,12.36 112.77,13.05 C 112.42,12.7 112.08,12.35 111.75,11.98 Z"/></g>
<g><path fill="#f0f0f0" fill-opacity="0.525" d="M 32.25,11.95 C 31.97,12.32 31.64,12.65 31.28,12.95 C 31.21,12.26 31.53,11.93 32.25,11.95 Z"/></g>
<g><path fill="#f1f9f4" fill-opacity="0.624" d="M 106.72,8.94 C 107.27,9.12 107.8,9.35 108.31,9.63 C 107.67,9.64 107.14,9.41 106.72,8.94 Z"/></g>
<g><path fill="#ebe972" d="M 55.1,54.09 C 54.93,54.63 54.57,54.89 54,54.87 C 54.26,54.46 54.62,54.2 55.1,54.09 Z"/></g>
<g><path fill="#fdfdf8" stroke="#fdfdf8" stroke-width="0.5" d="M 81.43,77.15 C 80.25,77.08 79.36,77.52 78.75,78.47 C 79.31,79.39 79.61,80.38 79.67,81.45 C 79.65,86.09 79.48,90.72 79.16,95.35 C 77.25,96.51 75.31,97.61 73.34,98.67 C 72.76,98.94 72.14,99.06 71.5,99.02 C 69.21,97.93 67,96.7 64.86,95.32 C 64.48,94.42 64.28,93.48 64.25,92.5 C 64.27,88.82 64.27,85.14 64.27,81.46 C 64.19,80.3 64.58,79.35 65.43,78.59 C 64.99,77.61 64.49,76.67 63.93,75.76 C 62.97,75.23 62.23,75.41 61.7,76.3 C 58.1,73.93 54.41,71.73 50.63,69.68 C 49.62,69.14 48.87,68.36 48.39,67.36 C 48.29,64.52 48.32,61.68 48.46,58.84 C 48.6,58.39 48.87,58.03 49.26,57.77 C 50.81,56.76 52.39,55.79 54,54.87 C 54.57,54.89 54.93,54.63 55.1,54.09 C 55.88,53.78 56.69,53.65 57.53,53.7 C 58.73,54.08 59.84,54.65 60.87,55.39 C 61.05,55.83 61.37,56.04 61.85,56.04 C 65.04,57.8 68.23,59.51 71.45,61.17 C 72.36,61.18 73.22,60.99 74.04,60.6 C 78.16,58.19 82.31,55.84 86.49,53.55 C 86.92,53.43 87.33,53.49 87.72,53.71 C 90.35,55.03 92.85,56.54 95.24,58.24 C 95.63,58.95 95.8,59.71 95.75,60.52 C 95.77,63.05 95.67,65.56 95.44,68.06 C 94.85,68.76 94.15,69.33 93.34,69.78 C 89.89,71.71 86.45,73.68 83.03,75.69 C 82.38,76.05 81.85,76.54 81.43,77.15 Z"/></g>
<g><path fill="#fcfcf2" stroke="#fcfcf2" stroke-width="0.5" d="M 49.28,40.63 C 49.58,39.96 50.07,39.46 50.76,39.15 C 57.6,35.18 64.5,31.31 71.45,27.56 C 72.14,27.52 72.8,27.64 73.44,27.9 C 80.02,31.72 86.63,35.5 93.27,39.24 C 94.43,40.37 94.33,41.41 92.99,42.37 C 91.19,43.73 89.22,44.76 87.08,45.47 C 86.02,45.25 85.02,44.87 84.07,44.34 C 80.31,41.97 76.45,39.79 72.48,37.8 C 71.85,37.66 71.24,37.74 70.67,38.04 C 66.42,40.74 62.03,43.18 57.51,45.39 C 56.24,45.4 55.07,45.05 54,44.34 C 52.21,43.38 50.64,42.14 49.28,40.63 Z M 45.47,46.37 C 45.37,47.06 45.31,47.75 45.28,48.45 C 45.76,49.69 46.04,50.97 46.12,52.31 C 44.82,53.03 43.7,53.94 42.73,55.06 C 41.99,57.45 41.7,59.9 41.89,62.41 C 41.55,63.21 40.98,63.78 40.18,64.14 C 40.05,63.72 39.81,63.37 39.47,63.09 C 38.6,62.68 37.72,62.28 36.83,61.91 C 35.83,61.17 34.94,60.33 34.16,59.38 C 33.1,56.07 33.2,52.8 34.46,49.58 C 36.51,46.96 39.18,45.5 42.49,45.21 C 43.58,45.36 44.57,45.74 45.47,46.37 Z M 109.74,59.98 C 107.32,61.47 104.81,62.8 102.21,63.97 C 101.95,60.95 101.72,57.92 101.51,54.91 C 101.09,54.38 100.61,53.92 100.05,53.55 C 98.3,52.63 96.58,51.66 94.89,50.63 C 93.99,49.87 94.03,49.16 94.99,48.5 C 96.66,47.48 98.32,46.43 99.95,45.35 C 101.07,44.82 102.21,44.8 103.37,45.27 C 105.71,46.49 107.91,47.9 109.98,49.51 C 110.3,50.19 110.48,50.91 110.52,51.66 C 110.5,53.27 110.48,54.88 110.45,56.49 C 110.48,57.71 110.24,58.87 109.74,59.98 Z M 86.79,106.07 C 86.82,103.86 86.85,101.65 86.88,99.44 C 86.91,98.87 87.08,98.35 87.39,97.88 C 91.08,95.57 94.83,93.36 98.64,91.23 C 99.66,90.61 100.6,89.88 101.47,89.05 C 101.73,88.57 101.87,88.05 101.87,87.5 C 101.82,83.16 101.82,78.83 101.85,74.49 C 101.85,73.56 101.99,72.66 102.26,71.77 C 103.92,70.74 105.59,69.72 107.28,68.7 C 107.94,68.29 108.65,68.08 109.42,68.09 C 109.97,68.36 110.27,68.81 110.32,69.43 C 110.41,70.12 110.46,70.81 110.47,71.5 C 110.57,79.18 110.46,86.84 110.16,94.48 C 103.3,98.69 96.37,102.8 89.36,106.81 C 88.22,107.36 87.36,107.11 86.79,106.07 Z"/></g>
<g><path fill="#fbfcf4" stroke="#fbfcf4" stroke-width="0.5" d="M 33.4,70 C 33.29,68.54 33.94,67.92 35.34,68.13 C 37.55,69.19 39.67,70.4 41.69,71.76 C 41.95,72.65 42.1,73.56 42.15,74.49 C 42.1,78.49 42.09,82.5 42.11,86.5 C 42.07,87.38 42.22,88.22 42.54,89.03 C 43.18,89.68 43.86,90.28 44.57,90.83 C 47.57,92.5 50.58,94.18 53.58,95.86 C 54.61,96.46 55.59,97.16 56.49,97.95 C 57.24,100.42 57.48,102.94 57.2,105.53 C 57.15,106.14 56.88,106.6 56.37,106.92 C 55.53,107.05 54.75,106.9 54.02,106.47 C 47.66,102.8 41.29,99.13 34.93,95.46 C 33.92,94.75 33.45,93.78 33.51,92.53 C 33.56,85.02 33.53,77.51 33.4,70 Z M 63.82,112.19 C 64.12,111.23 64.43,110.27 64.75,109.32 C 64.68,107.96 64.62,106.6 64.58,105.25 C 65.4,104.85 66.19,104.45 66.96,104.05 C 68.45,104.83 69.97,105.53 71.51,106.15 C 72.15,106.16 72.77,106.05 73.37,105.81 C 74.92,105.03 76.43,104.17 77.91,103.24 C 78.7,102.93 79.5,102.89 80.31,103.13 C 80.44,103.31 80.57,103.49 80.7,103.67 C 80.71,106.13 80.69,108.6 80.62,111.06 C 80.36,111.79 79.88,112.36 79.21,112.75 C 77.1,114.22 74.86,115.43 72.48,116.36 C 71.82,116.47 71.17,116.42 70.53,116.2 C 68.32,114.82 66.08,113.49 63.82,112.19 Z"/></g>
</svg>
