<?xml version="1.0" encoding="UTF-8"?>
<!DOCTYPE svg PUBLIC "-//W3C//DTD SVG 1.1//EN" "http://www.w3.org/Graphics/SVG/1.1/DTD/svg11.dtd">
<svg xmlns="http://www.w3.org/2000/svg" version="1.1" width="153px" height="153px" style="shape-rendering:geometricPrecision; text-rendering:geometricPrecision; image-rendering:optimizeQuality; fill-rule:evenodd; clip-rule:evenodd" xmlns:xlink="http://www.w3.org/1999/xlink">
<g><path style="opacity:1" fill="#f8f6f1" d="M 63.5,-0.5 C 71.8333,-0.5 80.1667,-0.5 88.5,-0.5C 122.833,7.83333 144.167,29.1667 152.5,63.5C 152.5,71.8333 152.5,80.1667 152.5,88.5C 144.167,122.833 122.833,144.167 88.5,152.5C 80.1667,152.5 71.8333,152.5 63.5,152.5C 29.1667,144.167 7.83333,122.833 -0.5,88.5C -0.5,80.1667 -0.5,71.8333 -0.5,63.5C 7.83333,29.1667 29.1667,7.83333 63.5,-0.5 Z"/></g>
<g><path style="opacity:1" fill="#ce9705" d="M 96.5,146.5 C 92.6125,146.646 88.9458,147.313 85.5,148.5C 53.419,151.377 29.2523,139.044 13,111.5C -3.79407,73.8469 3.70593,42.0135 35.5,16C 71.5785,-4.21662 104.078,0.616718 133,30.5C 146.589,47.854 151.589,67.5207 148,89.5C 141.394,118.262 124.228,137.262 96.5,146.5 Z"/></g>
<g><path style="opacity:1" fill="#f9f8f6" d="M 113.5,54.5 C 103.833,54.5 94.1667,54.5 84.5,54.5C 84.5,60.1667 84.5,65.8333 84.5,71.5C 79.1667,71.5 73.8333,71.5 68.5,71.5C 68.5,65.8333 68.5,60.1667 68.5,54.5C 58.8333,54.5 49.1667,54.5 39.5,54.5C 39.5,49.1667 39.5,43.8333 39.5,38.5C 64.1667,38.5 88.8333,38.5 113.5,38.5C 113.5,43.8333 113.5,49.1667 113.5,54.5 Z"/></g>
<g><path style="opacity:1" fill="#dcb753" d="M 113.5,54.5 C 104.348,55.4936 95.015,55.8269 85.5,55.5C 85.5,60.5 85.5,65.5 85.5,70.5C 91.0262,70.1786 96.3595,70.5119 101.5,71.5C 95.8333,71.5 90.1667,71.5 84.5,71.5C 84.5,65.8333 84.5,60.1667 84.5,54.5C 94.1667,54.5 103.833,54.5 113.5,54.5 Z"/></g>
<g><path style="opacity:1" fill="#eee2bf" d="M 68.5,71.5 C 68.5,82.5 68.5,93.5 68.5,104.5C 62.8333,104.5 57.1667,104.5 51.5,104.5C 51.5,93.5 51.5,82.5 51.5,71.5C 57.1667,71.5 62.8333,71.5 68.5,71.5 Z"/></g>
<g><path style="opacity:1" fill="#f9faf9" d="M 52.5,72.5 C 57.5,72.5 62.5,72.5 67.5,72.5C 67.5,82.8333 67.5,93.1667 67.5,103.5C 62.5,103.5 57.5,103.5 52.5,103.5C 52.5,93.1667 52.5,82.8333 52.5,72.5 Z"/></g>
<g><path style="opacity:1" fill="#ce9706" d="M 68.5,71.5 C 73.8333,71.5 79.1667,71.5 84.5,71.5C 84.5,82.5 84.5,93.5 84.5,104.5C 79.1667,104.5 73.8333,104.5 68.5,104.5C 68.5,93.5 68.5,82.5 68.5,71.5 Z"/></g>
<g><path style="opacity:1" fill="#ece0b9" d="M 84.5,71.5 C 90.1667,71.5 95.8333,71.5 101.5,71.5C 101.5,82.5 101.5,93.5 101.5,104.5C 95.8333,104.5 90.1667,104.5 84.5,104.5C 84.5,93.5 84.5,82.5 84.5,71.5 Z"/></g>
<g><path style="opacity:1" fill="#f9faf9" d="M 85.5,72.5 C 90.5,72.5 95.5,72.5 100.5,72.5C 100.5,82.8333 100.5,93.1667 100.5,103.5C 95.5,103.5 90.5,103.5 85.5,103.5C 85.5,93.1667 85.5,82.8333 85.5,72.5 Z"/></g>
<g><path style="opacity:1" fill="#f9f8f5" d="M 68.5,104.5 C 73.8333,104.5 79.1667,104.5 84.5,104.5C 84.5,109.833 84.5,115.167 84.5,120.5C 79.1667,120.5 73.8333,120.5 68.5,120.5C 68.5,115.167 68.5,109.833 68.5,104.5 Z"/></g>
<g><path style="opacity:1" fill="#daaf3e" d="M 84.5,104.5 C 90.1667,104.5 95.8333,104.5 101.5,104.5C 96.3595,105.488 91.0262,105.821 85.5,105.5C 85.8205,110.695 85.4872,115.695 84.5,120.5C 84.5,115.167 84.5,109.833 84.5,104.5 Z"/></g>
<g><path style="opacity:1" fill="#e8d196" d="M 96.5,146.5 C 93.1244,148.082 89.4578,148.749 85.5,148.5C 88.9458,147.313 92.6125,146.646 96.5,146.5 Z"/></g>
</svg>
