<?xml version="1.0" encoding="UTF-8"?>
<!DOCTYPE svg PUBLIC "-//W3C//DTD SVG 1.1//EN" "http://www.w3.org/Graphics/SVG/1.1/DTD/svg11.dtd">
<svg xmlns="http://www.w3.org/2000/svg" version="1.1" width="128px" height="128px" style="shape-rendering:geometricPrecision; text-rendering:geometricPrecision; image-rendering:optimizeQuality; fill-rule:evenodd; clip-rule:evenodd" xmlns:xlink="http://www.w3.org/1999/xlink">
<g><path style="opacity:1" fill="#d9d7d8" d="M 57.5,35.5 C 61.5,35.5 65.5,35.5 69.5,35.5C 74.9089,36.7638 80.2422,38.5971 85.5,41C 91.2123,43.9256 95.7123,48.0922 99,53.5C 98.8744,50.9023 97.8744,48.569 96,46.5C 93.9373,44.2659 91.7706,42.2659 89.5,40.5C 94.9025,40.87 99.5692,42.87 103.5,46.5C 103.402,48.5529 104.069,50.2196 105.5,51.5C 105.5,51.8333 105.5,52.1667 105.5,52.5C 106.807,57.0662 107.474,61.7329 107.5,66.5C 107.877,75.6549 106.044,84.3216 102,92.5C 100.578,94.6381 98.745,95.8047 96.5,96C 98.2937,89.9751 98.7937,83.8084 98,77.5C 97.2175,85.9654 94.8841,93.9654 91,101.5C 86.8645,105.191 82.0312,106.358 76.5,105C 72.7084,102.947 71.5418,99.7806 73,95.5C 73.3333,96.5 73.6667,97.5 74,98.5C 74.8671,90.2412 74.3671,82.0745 72.5,74C 73.1667,72 73.8333,72 74.5,74C 75.6667,77.5 76.8333,81 78,84.5C 79.5523,66.4204 72.0523,53.9204 55.5,47C 52.5,46.3333 49.5,46.3333 46.5,47C 49.0278,47.6689 49.0278,48.5022 46.5,49.5C 45.684,47.7127 44.684,46.0461 43.5,44.5C 43.1667,45 42.8333,45.5 42.5,46C 44.2792,49.9559 44.9459,54.1226 44.5,58.5C 40.6424,57.4517 39.4757,55.1184 41,51.5C 39.8261,53.6709 37.9928,54.6709 35.5,54.5C 33.1432,54.6633 30.8098,54.4966 28.5,54C 31.5769,52.3383 33.5769,49.8383 34.5,46.5C 35.5652,43.9054 37.2319,41.7387 39.5,40C 45.4528,39.1488 51.2861,39.6488 57,41.5C 58.7618,41.0556 58.5951,40.5556 56.5,40C 54.2115,39.1779 51.8782,38.5112 49.5,38C 55.5376,37.5292 61.5376,37.5292 67.5,38C 64.0911,37.0042 60.7577,36.1708 57.5,35.5 Z"/></g>
<g><path style="opacity:1" fill="#7e7e7e" d="M 114.5,35.5 C 117.287,34.5233 120.287,34.19 123.5,34.5C 123.5,35.5 123.5,36.5 123.5,37.5C 123.011,38.9952 122.345,40.3285 121.5,41.5C 120.2,44.6451 118.2,45.1451 115.5,43C 118.5,41.3333 120.833,39 122.5,36C 121.181,35.805 119.847,35.9717 118.5,36.5C 117.432,35.5655 116.099,35.2322 114.5,35.5 Z"/></g>
<g><path style="opacity:1" fill="#d5d3d4" d="M 14.5,46.5 C 15.552,46.3505 16.552,46.5172 17.5,47C 18.1634,48.5185 19.1634,49.6851 20.5,50.5C 21.8233,52.6864 23.8233,54.1864 26.5,55C 22.6066,55.4645 18.9399,56.6312 15.5,58.5C 14.3036,57.4406 13.637,56.1073 13.5,54.5C 14.8129,52.6076 14.6462,50.941 13,49.5C 12.1779,51.7885 11.5112,54.1218 11,56.5C 10.51,55.2068 10.3433,53.8734 10.5,52.5C 11.2378,50.0598 12.5712,48.0598 14.5,46.5 Z"/></g>
<g><path style="opacity:0.549" fill="#161616" d="M 14.5,46.5 C 12.5712,48.0598 11.2378,50.0598 10.5,52.5C 9.59603,53.209 9.26269,54.209 9.5,55.5C 7.92635,56.9842 6.59302,58.6508 5.5,60.5C 6.55035,54.3569 9.55035,49.6902 14.5,46.5 Z"/></g>
<g><path style="opacity:1" fill="#423838" d="M 44.5,58.5 C 44.5,58.8333 44.5,59.1667 44.5,59.5C 41.7908,58.9866 39.2908,57.9866 37,56.5C 36.0979,56.7432 35.2646,57.0766 34.5,57.5C 33.0484,56.6981 31.3817,56.1981 29.5,56C 31.7078,55.8091 33.7078,55.3091 35.5,54.5C 37.9928,54.6709 39.8261,53.6709 41,51.5C 39.4757,55.1184 40.6424,57.4517 44.5,58.5 Z"/></g>
<g><path style="opacity:1" fill="#989898" d="M 49.5,56.5 C 49.8333,56.5 50.1667,56.5 50.5,56.5C 52.2681,59.1625 52.9347,62.1625 52.5,65.5C 51.8333,65.1667 51.1667,64.8333 50.5,64.5C 49.9084,61.8728 49.5751,59.2062 49.5,56.5 Z"/></g>
<g><path style="opacity:1" fill="#818080" d="M 34.5,46.5 C 33.5769,49.8383 31.5769,52.3383 28.5,54C 30.8098,54.4966 33.1432,54.6633 35.5,54.5C 33.7078,55.3091 31.7078,55.8091 29.5,56C 31.3817,56.1981 33.0484,56.6981 34.5,57.5C 32.4599,57.5641 30.1266,57.7308 27.5,58C 27,58.5 26.5,59 26,59.5C 25.1612,58.3759 23.9945,57.7092 22.5,57.5C 18.0904,59.3086 13.7571,60.642 9.5,61.5C 9.2537,59.7805 9.2537,57.7805 9.5,55.5C 9.26269,54.209 9.59603,53.209 10.5,52.5C 10.3433,53.8734 10.51,55.2068 11,56.5C 11.5112,54.1218 12.1779,51.7885 13,49.5C 14.6462,50.941 14.8129,52.6076 13.5,54.5C 13.637,56.1073 14.3036,57.4406 15.5,58.5C 18.9399,56.6312 22.6066,55.4645 26.5,55C 23.8233,54.1864 21.8233,52.6864 20.5,50.5C 22.6015,52.1089 24.9348,52.6089 27.5,52C 29.9957,50.3335 32.329,48.5002 34.5,46.5 Z"/></g>
<g><path style="opacity:1" fill="#d5d3d4" d="M 9.5,55.5 C 9.2537,57.7805 9.2537,59.7805 9.5,61.5C 13.7571,60.642 18.0904,59.3086 22.5,57.5C 23.9945,57.7092 25.1612,58.3759 26,59.5C 26.5,59 27,58.5 27.5,58C 30.1266,57.7308 32.4599,57.5641 34.5,57.5C 35.2646,57.0766 36.0979,56.7432 37,56.5C 39.2908,57.9866 41.7908,58.9866 44.5,59.5C 45.9108,61.914 47.9108,63.5806 50.5,64.5C 50.6317,67.7967 52.2984,69.4633 55.5,69.5C 57.7117,72.3577 60.7117,73.691 64.5,73.5C 62.5935,76.3324 59.9268,77.1657 56.5,76C 42.0482,67.1661 26.7149,64.9994 10.5,69.5C 8.59047,68.0254 7.42381,66.0254 7,63.5C 6.39112,66.0652 6.89112,68.3985 8.5,70.5C 8.80569,74.3887 8.80569,78.0553 8.5,81.5C 5.92815,74.7704 4.92815,67.7704 5.5,60.5C 6.59302,58.6508 7.92635,56.9842 9.5,55.5 Z"/></g>
<g><path style="opacity:1" fill="#cdcdcd" d="M 59.5,54.5 C 62.1367,56.4818 63.47,59.1485 63.5,62.5C 62.7109,62.7828 62.0442,63.2828 61.5,64C 63.1134,66.2276 63.78,68.7276 63.5,71.5C 62.391,71.4431 61.391,71.1098 60.5,70.5C 60.5168,67.0795 60.6835,63.7462 61,60.5C 60.1382,62.5944 58.9715,63.5944 57.5,63.5C 58.9459,65.6179 59.6126,67.9512 59.5,70.5C 59.5654,70.9382 59.3988,71.2716 59,71.5C 58.1841,70.1772 57.0174,69.5106 55.5,69.5C 54.8519,67.9142 54.3519,66.2475 54,64.5C 53.6174,65.056 53.1174,65.3893 52.5,65.5C 52.9347,62.1625 52.2681,59.1625 50.5,56.5C 50.8836,54.7074 52.0503,53.7074 54,53.5C 55.7659,54.2335 57.5992,54.5668 59.5,54.5 Z"/></g>
<g><path style="opacity:1" fill="#3b3939" d="M 47.5,56.5 C 48.1667,56.5 48.8333,56.5 49.5,56.5C 49.5751,59.2062 49.9084,61.8728 50.5,64.5C 47.9108,63.5806 45.9108,61.914 44.5,59.5C 46.0174,59.5106 47.1841,60.1772 48,61.5C 48.3845,59.8034 48.2178,58.1368 47.5,56.5 Z"/></g>
<g><path style="opacity:1" fill="#999899" d="M 107.5,66.5 C 111.916,86.7642 104.916,101.597 86.5,111C 82.5,111.667 78.5,111.667 74.5,111C 72.714,110.215 71.214,109.049 70,107.5C 69.5699,96.7947 69.2365,86.128 69,75.5C 70.5843,81.4191 71.9177,87.4191 73,93.5C 72.7558,82.6128 70.5892,72.1128 66.5,62C 66.6667,61.5 66.8333,61 67,60.5C 74.3997,72.6975 75.0664,72.3642 69,59.5C 65.16,54.4895 60.3267,50.8228 54.5,48.5C 53.537,48.9698 53.537,49.6365 54.5,50.5C 51.4816,50.3354 48.4816,50.502 45.5,51C 46.8613,52.5843 47.528,54.4176 47.5,56.5C 48.2178,58.1368 48.3845,59.8034 48,61.5C 47.1841,60.1772 46.0174,59.5106 44.5,59.5C 44.5,59.1667 44.5,58.8333 44.5,58.5C 44.9459,54.1226 44.2792,49.9559 42.5,46C 42.8333,45.5 43.1667,45 43.5,44.5C 44.684,46.0461 45.684,47.7127 46.5,49.5C 49.0278,48.5022 49.0278,47.6689 46.5,47C 49.5,46.3333 52.5,46.3333 55.5,47C 72.0523,53.9204 79.5523,66.4204 78,84.5C 76.8333,81 75.6667,77.5 74.5,74C 73.8333,72 73.1667,72 72.5,74C 74.3671,82.0745 74.8671,90.2412 74,98.5C 73.6667,97.5 73.3333,96.5 73,95.5C 71.5418,99.7806 72.7084,102.947 76.5,105C 82.0312,106.358 86.8645,105.191 91,101.5C 94.8841,93.9654 97.2175,85.9654 98,77.5C 98.7937,83.8084 98.2937,89.9751 96.5,96C 98.745,95.8047 100.578,94.6381 102,92.5C 106.044,84.3216 107.877,75.6549 107.5,66.5 Z"/></g>
<g><path style="opacity:1" fill="#723535" d="M 54.5,50.5 C 56.8263,51.1447 58.493,52.478 59.5,54.5C 57.5992,54.5668 55.7659,54.2335 54,53.5C 52.0503,53.7074 50.8836,54.7074 50.5,56.5C 50.1667,56.5 49.8333,56.5 49.5,56.5C 48.8333,56.5 48.1667,56.5 47.5,56.5C 47.528,54.4176 46.8613,52.5843 45.5,51C 48.4816,50.502 51.4816,50.3354 54.5,50.5 Z"/></g>
<g><path style="opacity:0.977" fill="#1d1c1b" d="M 76.5,-0.5 C 79.8333,-0.5 83.1667,-0.5 86.5,-0.5C 88.6676,2.49994 91.3343,4.99994 94.5,7C 99.2697,8.22032 103.936,9.72032 108.5,11.5C 111.259,15.8836 110.926,20.0502 107.5,24C 108.078,25.417 109.078,26.2504 110.5,26.5C 109.571,27.3149 108.571,28.1482 107.5,29C 110.094,29.4493 112.094,28.4493 113.5,26C 112.906,25.5357 112.239,25.369 111.5,25.5C 112.833,24.0665 114.333,22.7332 116,21.5C 116.5,22 117,22.5 117.5,23C 115.863,26.2846 115.196,29.7846 115.5,33.5C 118.898,33.1796 122.232,33.513 125.5,34.5C 125.058,35.7387 124.391,36.7387 123.5,37.5C 123.5,36.5 123.5,35.5 123.5,34.5C 120.287,34.19 117.287,34.5233 114.5,35.5C 113.115,36.3023 113.282,36.9689 115,37.5C 116.138,37.0109 117.305,36.6775 118.5,36.5C 119.847,35.9717 121.181,35.805 122.5,36C 120.833,39 118.5,41.3333 115.5,43C 118.2,45.1451 120.2,44.6451 121.5,41.5C 121.611,46.007 123.277,49.6737 126.5,52.5C 126.833,52.5 127.167,52.5 127.5,52.5C 127.5,53.8333 127.5,55.1667 127.5,56.5C 126.609,57.1098 125.609,57.4431 124.5,57.5C 124.26,61.6061 123.593,65.6061 122.5,69.5C 124.929,70.2648 126.262,71.9315 126.5,74.5C 125.167,74.5 123.833,74.5 122.5,74.5C 120.365,72.631 117.698,71.9644 114.5,72.5C 114.649,71.448 114.483,70.448 114,69.5C 113.349,71.235 113.515,72.9017 114.5,74.5C 116.771,75.3635 119.105,75.3635 121.5,74.5C 120.758,78.7257 119.425,82.7257 117.5,86.5C 117.529,88.0293 118.196,89.196 119.5,90C 118.552,90.4828 117.552,90.6495 116.5,90.5C 114.7,88.9496 112.533,87.9496 110,87.5C 109.308,88.0253 108.808,88.6919 108.5,89.5C 110.743,90.4742 113.076,90.8076 115.5,90.5C 112.5,94.5 109.5,98.5 106.5,102.5C 105.849,101.909 105.182,101.243 104.5,100.5C 103.406,101.868 103.74,103.035 105.5,104C 103.687,103.954 102.021,104.12 100.5,104.5C 101.602,105.176 102.602,105.842 103.5,106.5C 99.1272,109.113 94.9606,112.113 91,115.5C 90.5065,117.134 90.3398,118.801 90.5,120.5C 88.6203,120.771 87.287,120.104 86.5,118.5C 80.8592,119.381 75.5258,121.048 70.5,123.5C 70.1667,124.833 69.8333,126.167 69.5,127.5C 68.8333,127.5 68.1667,127.5 67.5,127.5C 66.7101,126.206 65.7101,125.039 64.5,124C 59.7481,123.227 55.0815,123.393 50.5,124.5C 50.5,124.167 50.5,123.833 50.5,123.5C 51.1217,122.373 51.955,121.373 53,120.5C 53.6667,119.5 53.6667,118.5 53,117.5C 52.3333,116.167 51.6667,116.167 51,117.5C 50.3923,119.154 49.8923,120.821 49.5,122.5C 48.7321,123.263 48.2321,124.263 48,125.5C 47.8138,122.964 47.3138,120.631 46.5,118.5C 47.2297,116.955 48.563,116.122 50.5,116C 45.0203,114.53 43.0203,116.364 44.5,121.5C 41.4208,121.196 38.5875,120.196 36,118.5C 34.6439,119.38 33.1439,119.714 31.5,119.5C 30.1225,120.234 28.6225,120.901 27,121.5C 26.4119,118.861 26.9119,116.527 28.5,114.5C 28.5,113.167 28.5,111.833 28.5,110.5C 25.1933,109.949 21.8599,109.616 18.5,109.5C 17.3591,106.167 15.5258,103.167 13,100.5C 10.4042,91.3791 7.40415,82.3791 4,73.5C 3.33333,69.8333 3.33333,66.1667 4,62.5C 4.27842,61.5842 4.77842,60.9175 5.5,60.5C 4.92815,67.7704 5.92815,74.7704 8.5,81.5C 10.1848,85.5713 11.8515,89.5713 13.5,93.5C 13.2832,100.307 16.2832,104.474 22.5,106C 20.5359,104.549 19.2026,102.716 18.5,100.5C 21.2971,102.795 23.9638,105.295 26.5,108C 27.1667,108.667 27.8333,108.667 28.5,108C 27.7476,107.329 27.4142,106.496 27.5,105.5C 34.2825,112.353 42.2825,114.186 51.5,111C 48.6212,109.164 47.1212,106.664 47,103.5C 48.5,106.333 50.6667,108.5 53.5,110C 58.305,110.781 62.9717,110.281 67.5,108.5C 68.6653,99.5185 68.832,90.5185 68,81.5C 66.7637,79.6928 66.4303,77.6928 67,75.5C 66.5831,74.244 65.7498,73.5774 64.5,73.5C 60.7117,73.691 57.7117,72.3577 55.5,69.5C 57.0174,69.5106 58.1841,70.1772 59,71.5C 59.3988,71.2716 59.5654,70.9382 59.5,70.5C 59.8333,70.5 60.1667,70.5 60.5,70.5C 61.391,71.1098 62.391,71.4431 63.5,71.5C 64.4734,71.0133 65.4734,70.5133 66.5,70C 65.7362,67.9307 65.2362,65.764 65,63.5C 64.6174,62.944 64.1174,62.6107 63.5,62.5C 63.47,59.1485 62.1367,56.4818 59.5,54.5C 58.493,52.478 56.8263,51.1447 54.5,50.5C 53.537,49.6365 53.537,48.9698 54.5,48.5C 60.3267,50.8228 65.16,54.4895 69,59.5C 75.0664,72.3642 74.3997,72.6975 67,60.5C 66.8333,61 66.6667,61.5 66.5,62C 70.5892,72.1128 72.7558,82.6128 73,93.5C 71.9177,87.4191 70.5843,81.4191 69,75.5C 69.2365,86.128 69.5699,96.7947 70,107.5C 71.214,109.049 72.714,110.215 74.5,111C 78.5,111.667 82.5,111.667 86.5,111C 104.916,101.597 111.916,86.7642 107.5,66.5C 107.474,61.7329 106.807,57.0662 105.5,52.5C 106.167,53.1667 106.833,53.8333 107.5,54.5C 110.071,72.9585 111.404,72.6251 111.5,53.5C 112.319,56.3054 112.819,59.3054 113,62.5C 113.815,57.6478 113.648,52.9811 112.5,48.5C 111.743,41.9876 109.577,35.9876 106,30.5C 105.51,31.7932 105.343,33.1266 105.5,34.5C 102.482,36.463 99.1487,36.963 95.5,36C 90.3666,33.9334 85.6999,31.1001 81.5,27.5C 81.1667,27.6667 80.8333,27.8333 80.5,28C 81.7101,29.0391 82.7101,30.2058 83.5,31.5C 82.8333,31.5 82.1667,31.5 81.5,31.5C 77.1787,26.5237 74.1787,20.8571 72.5,14.5C 73.8333,13.8333 74.8333,12.8333 75.5,11.5C 76.8195,10.0582 78.4862,9.39151 80.5,9.5C 81.0482,11.6264 81.7148,13.6264 82.5,15.5C 83.0863,24.2597 87.4197,30.4264 95.5,34C 98.0385,34.7958 100.372,34.6291 102.5,33.5C 103.829,29.226 105.329,24.8927 107,20.5C 107.769,17.9009 107.602,15.4009 106.5,13C 98.557,11.6014 91.557,8.2681 85.5,3C 80.9283,2.11315 76.595,2.77981 72.5,5C 69.3001,7.09946 65.9667,8.9328 62.5,10.5C 60.9522,9.20574 58.9522,8.53907 56.5,8.5C 52.78,8.61551 49.1133,9.11551 45.5,10C 41.0251,12.6499 37.0251,15.8166 33.5,19.5C 30.5929,19.1236 27.5929,19.6236 24.5,21C 22.6372,23.364 20.9705,25.864 19.5,28.5C 20.376,29.2508 21.376,29.7508 22.5,30C 16.4087,29.5919 13.4087,32.4252 13.5,38.5C 14.0878,44.1458 14.7544,44.4792 15.5,39.5C 17.1986,39.6204 18.8653,39.9537 20.5,40.5C 21.7133,40.2528 22.38,39.5862 22.5,38.5C 22.3505,37.448 22.5172,36.448 23,35.5C 23.3989,40.1834 25.8989,41.6834 30.5,40C 29.2089,38.7083 29.2089,37.5417 30.5,36.5C 31.4056,38.9137 33.0722,39.747 35.5,39C 41.3442,35.3037 47.0109,31.4703 52.5,27.5C 52.8333,27.5 53.1667,27.5 53.5,27.5C 53.7296,30.1573 55.063,32.4906 57.5,34.5C 57.5,34.8333 57.5,35.1667 57.5,35.5C 60.7577,36.1708 64.0911,37.0042 67.5,38C 61.5376,37.5292 55.5376,37.5292 49.5,38C 51.8782,38.5112 54.2115,39.1779 56.5,40C 58.5951,40.5556 58.7618,41.0556 57,41.5C 51.2861,39.6488 45.4528,39.1488 39.5,40C 37.2319,41.7387 35.5652,43.9054 34.5,46.5C 32.329,48.5002 29.9957,50.3335 27.5,52C 24.9348,52.6089 22.6015,52.1089 20.5,50.5C 19.1634,49.6851 18.1634,48.5185 17.5,47C 16.552,46.5172 15.552,46.3505 14.5,46.5C 13.5244,45.1851 12.5244,43.8518 11.5,42.5C 7.53468,44.3653 3.53468,45.032 -0.5,44.5C -0.5,43.1667 -0.5,41.8333 -0.5,40.5C -0.166667,40.5 0.166667,40.5 0.5,40.5C 0.708577,39.0783 1.20858,37.745 2,36.5C 5.3493,33.318 8.51597,29.9846 11.5,26.5C 14.2781,24.9745 17.2781,23.9745 20.5,23.5C 23.8453,18.659 28.5119,16.159 34.5,16C 37.6738,11.8167 41.6738,8.81673 46.5,7C 53.1667,6.66667 59.8333,6.33333 66.5,6C 70.0085,3.9703 73.3419,1.80364 76.5,-0.5 Z"/></g>
<g><path style="opacity:1" fill="#a1a1a1" d="M 18.5,100.5 C 18.5,100.167 18.5,99.8333 18.5,99.5C 20.035,100.354 21.3684,100.354 22.5,99.5C 23.69,101.869 25.3567,103.869 27.5,105.5C 27.4142,106.496 27.7476,107.329 28.5,108C 27.8333,108.667 27.1667,108.667 26.5,108C 23.9638,105.295 21.2971,102.795 18.5,100.5 Z"/></g>
<g><path style="opacity:1" fill="#3d3d3d" d="M 27.5,105.5 C 25.3567,103.869 23.69,101.869 22.5,99.5C 22.5,99.1667 22.5,98.8333 22.5,98.5C 22.369,97.7611 22.5357,97.0944 23,96.5C 24.5266,99.5531 26.0266,102.553 27.5,105.5 Z"/></g>
<g><path style="opacity:1" fill="#989797" d="M 13.5,93.5 C 14.9213,96.0094 16.5879,98.3428 18.5,100.5C 19.2026,102.716 20.5359,104.549 22.5,106C 16.2832,104.474 13.2832,100.307 13.5,93.5 Z"/></g>
<g><path style="opacity:1" fill="#3b3b3b" d="M 13.5,89.5 C 15.1528,92.7594 16.8195,96.0928 18.5,99.5C 18.5,99.8333 18.5,100.167 18.5,100.5C 16.5879,98.3428 14.9213,96.0094 13.5,93.5C 13.5,92.1667 13.5,90.8333 13.5,89.5 Z"/></g>
<g><path style="opacity:1" fill="#757575" d="M 116.5,90.5 C 116.167,90.5 115.833,90.5 115.5,90.5C 113.076,90.8076 110.743,90.4742 108.5,89.5C 108.808,88.6919 109.308,88.0253 110,87.5C 112.533,87.9496 114.7,88.9496 116.5,90.5 Z"/></g>
<g><path style="opacity:1" fill="#cbcbcb" d="M 110.5,81.5 C 113.401,82.0007 114.901,83.6674 115,86.5C 112.8,85.3492 111.3,83.6825 110.5,81.5 Z"/></g>
<g><path style="opacity:1" fill="#dcdadb" d="M 22.5,98.5 C 22.5,98.8333 22.5,99.1667 22.5,99.5C 21.3684,100.354 20.035,100.354 18.5,99.5C 16.8195,96.0928 15.1528,92.7594 13.5,89.5C 13.5,85.8333 13.5,82.1667 13.5,78.5C 15.767,77.5769 18.1003,76.7436 20.5,76C 28.1667,75.3333 35.8333,75.3333 43.5,76C 52.772,78.2721 58.272,84.1054 60,93.5C 60.1276,90.4856 60.1276,87.4856 60,84.5C 63.3864,89.7106 64.7197,95.3773 64,101.5C 61.3351,106.434 57.5018,107.601 52.5,105C 47.2671,99.3739 43.4338,92.8739 41,85.5C 41.3864,92.0482 42.8864,98.3815 45.5,104.5C 39.69,106.324 34.3567,105.491 29.5,102C 24.7751,96.9328 21.2751,91.0995 19,84.5C 19.2237,89.4667 20.3903,94.1334 22.5,98.5 Z"/></g>
<g><path style="opacity:1" fill="#858585" d="M 122.5,74.5 C 122.167,74.5 121.833,74.5 121.5,74.5C 119.105,75.3635 116.771,75.3635 114.5,74.5C 113.515,72.9017 113.349,71.235 114,69.5C 114.483,70.448 114.649,71.448 114.5,72.5C 117.698,71.9644 120.365,72.631 122.5,74.5 Z"/></g>
<g><path style="opacity:1" fill="#262525" d="M 10.5,69.5 C 11.1342,70.9468 12.3009,71.6134 14,71.5C 22.1416,70.4104 30.3083,70.2437 38.5,71C 40.9519,71.2895 43.2852,71.9562 45.5,73C 34.8506,72.194 24.184,72.3607 13.5,73.5C 13.5,75.1667 13.5,76.8333 13.5,78.5C 13.5,82.1667 13.5,85.8333 13.5,89.5C 11.8819,84.0965 11.0485,78.4298 11,72.5C 10.2917,71.6195 9.45837,70.9528 8.5,70.5C 6.89112,68.3985 6.39112,66.0652 7,63.5C 7.42381,66.0254 8.59047,68.0254 10.5,69.5 Z"/></g>
<g><path style="opacity:1" fill="#969696" d="M 8.5,70.5 C 9.45837,70.9528 10.2917,71.6195 11,72.5C 11.0485,78.4298 11.8819,84.0965 13.5,89.5C 13.5,90.8333 13.5,92.1667 13.5,93.5C 11.8515,89.5713 10.1848,85.5713 8.5,81.5C 8.80569,78.0553 8.80569,74.3887 8.5,70.5 Z"/></g>
<g><path style="opacity:1" fill="#c2c2c2" d="M 122.5,69.5 C 120.03,69.9725 117.696,69.1392 115.5,67C 116.025,66.3076 116.692,65.8076 117.5,65.5C 119.186,66.8569 120.852,68.1902 122.5,69.5 Z"/></g>
<g><path style="opacity:1" fill="#6b6b6b" d="M 60.5,70.5 C 60.1667,70.5 59.8333,70.5 59.5,70.5C 59.6126,67.9512 58.9459,65.6179 57.5,63.5C 58.9715,63.5944 60.1382,62.5944 61,60.5C 60.6835,63.7462 60.5168,67.0795 60.5,70.5 Z"/></g>
<g><path style="opacity:1" fill="#999999" d="M 64.5,73.5 C 65.7498,73.5774 66.5831,74.244 67,75.5C 66.4303,77.6928 66.7637,79.6928 68,81.5C 68.832,90.5185 68.6653,99.5185 67.5,108.5C 62.9717,110.281 58.305,110.781 53.5,110C 50.6667,108.5 48.5,106.333 47,103.5C 47.1212,106.664 48.6212,109.164 51.5,111C 42.2825,114.186 34.2825,112.353 27.5,105.5C 26.0266,102.553 24.5266,99.5531 23,96.5C 22.5357,97.0944 22.369,97.7611 22.5,98.5C 20.3903,94.1334 19.2237,89.4667 19,84.5C 21.2751,91.0995 24.7751,96.9328 29.5,102C 34.3567,105.491 39.69,106.324 45.5,104.5C 42.8864,98.3815 41.3864,92.0482 41,85.5C 43.4338,92.8739 47.2671,99.3739 52.5,105C 57.5018,107.601 61.3351,106.434 64,101.5C 64.7197,95.3773 63.3864,89.7106 60,84.5C 60.1276,87.4856 60.1276,90.4856 60,93.5C 58.272,84.1054 52.772,78.2721 43.5,76C 35.8333,75.3333 28.1667,75.3333 20.5,76C 18.1003,76.7436 15.767,77.5769 13.5,78.5C 13.5,76.8333 13.5,75.1667 13.5,73.5C 24.184,72.3607 34.8506,72.194 45.5,73C 43.2852,71.9562 40.9519,71.2895 38.5,71C 30.3083,70.2437 22.1416,70.4104 14,71.5C 12.3009,71.6134 11.1342,70.9468 10.5,69.5C 26.7149,64.9994 42.0482,67.1661 56.5,76C 59.9268,77.1657 62.5935,76.3324 64.5,73.5 Z"/></g>
<g><path style="opacity:1" fill="#848484" d="M 63.5,62.5 C 64.1174,62.6107 64.6174,62.944 65,63.5C 65.2362,65.764 65.7362,67.9307 66.5,70C 65.4734,70.5133 64.4734,71.0133 63.5,71.5C 63.78,68.7276 63.1134,66.2276 61.5,64C 62.0442,63.2828 62.7109,62.7828 63.5,62.5 Z"/></g>
<g><path style="opacity:1" fill="#494949" d="M 50.5,64.5 C 51.1667,64.8333 51.8333,65.1667 52.5,65.5C 53.1174,65.3893 53.6174,65.056 54,64.5C 54.3519,66.2475 54.8519,67.9142 55.5,69.5C 52.2984,69.4633 50.6317,67.7967 50.5,64.5 Z"/></g>
<g><path style="opacity:1" fill="#a45e26" d="M 110.5,53.5 C 110.833,53.5 111.167,53.5 111.5,53.5C 111.404,72.6251 110.071,72.9585 107.5,54.5C 109.886,61.3962 110.886,61.0629 110.5,53.5 Z"/></g>
<g><path style="opacity:1" fill="#898989" d="M 124.5,57.5 C 122.606,58.0476 120.94,59.0476 119.5,60.5C 118.5,60.1667 117.833,59.5 117.5,58.5C 119.964,56.7547 122.63,55.9214 125.5,56C 124.944,56.3826 124.611,56.8826 124.5,57.5 Z"/></g>
<g><path style="opacity:1" fill="#613c1d" d="M 112.5,48.5 C 113.648,52.9811 113.815,57.6478 113,62.5C 112.819,59.3054 112.319,56.3054 111.5,53.5C 111.167,53.5 110.833,53.5 110.5,53.5C 110.338,51.4727 110.505,49.4727 111,47.5C 111.333,48.8333 111.667,50.1667 112,51.5C 112.483,50.552 112.649,49.552 112.5,48.5 Z"/></g>
<g><path style="opacity:1" fill="#c6c6c6" d="M 126.5,52.5 C 123.52,53.6531 120.52,53.3197 117.5,51.5C 118.167,51.1667 118.833,50.8333 119.5,50.5C 121.762,51.4669 124.095,52.1336 126.5,52.5 Z"/></g>
<g><path style="opacity:1" fill="#8f8f8f" d="M 83.5,47.5 C 83.8966,46.475 84.5632,46.3083 85.5,47C 92.6768,52.5331 96.8435,59.6997 98,68.5C 97.1853,66.3772 96.1853,64.3772 95,62.5C 94.6667,67.1667 94.3333,71.8333 94,76.5C 93.5404,67.3284 91.2071,58.6617 87,50.5C 85.9609,49.2899 84.7942,48.2899 83.5,47.5 Z"/></g>
<g><path style="opacity:1" fill="#4e4138" d="M 103.5,46.5 C 104.931,47.7804 105.598,49.4471 105.5,51.5C 104.069,50.2196 103.402,48.5529 103.5,46.5 Z"/></g>
<g><path style="opacity:1" fill="#a15e26" d="M 13.5,38.5 C 16.5,38.5 19.5,38.5 22.5,38.5C 22.38,39.5862 21.7133,40.2528 20.5,40.5C 18.8653,39.9537 17.1986,39.6204 15.5,39.5C 14.7544,44.4792 14.0878,44.1458 13.5,38.5 Z"/></g>
<g><path style="opacity:1" fill="#2f2b29" d="M 78.5,33.5 C 80.3084,33.4914 81.9751,33.9914 83.5,35C 85.3702,37.0396 87.3702,38.8729 89.5,40.5C 91.7706,42.2659 93.9373,44.2659 96,46.5C 97.8744,48.569 98.8744,50.9023 99,53.5C 95.7123,48.0922 91.2123,43.9256 85.5,41C 80.2422,38.5971 74.9089,36.7638 69.5,35.5C 74.6405,36.031 79.6405,36.8643 84.5,38C 82.3162,36.6366 80.3162,35.1366 78.5,33.5 Z"/></g>
<g><path style="opacity:1" fill="#e6e6e6" d="M 114.5,35.5 C 116.099,35.2322 117.432,35.5655 118.5,36.5C 117.305,36.6775 116.138,37.0109 115,37.5C 113.282,36.9689 113.115,36.3023 114.5,35.5 Z"/></g>
<g><path style="opacity:1" fill="#b16d35" d="M 0.5,40.5 C 4.26879,36.2288 8.26879,32.0621 12.5,28C 14.4503,26.5039 16.4503,26.3373 18.5,27.5C 16.7471,29.6999 14.4138,30.8666 11.5,31C 10.5,32 9.5,33 8.5,34C 10.1667,33.6667 11.8333,33.3333 13.5,33C 12.5562,35.7191 12.2229,38.5525 12.5,41.5C 8.53837,42.3755 4.53837,43.0422 0.5,43.5C 0.5,42.5 0.5,41.5 0.5,40.5 Z"/></g>
<g><path style="opacity:0.988" fill="#858585" d="M 113.5,28.5 C 114.788,30.0348 114.788,31.7015 113.5,33.5C 112.566,31.9052 112.566,30.2385 113.5,28.5 Z"/></g>
<g><path style="opacity:1" fill="#a9a9a9" d="M 111.5,25.5 C 112.239,25.369 112.906,25.5357 113.5,26C 112.094,28.4493 110.094,29.4493 107.5,29C 108.571,28.1482 109.571,27.3149 110.5,26.5C 110.5,25.8333 110.833,25.5 111.5,25.5 Z"/></g>
<g><path style="opacity:1" fill="#2f241b" d="M 52.5,13.5 C 53.2625,14.2679 54.2625,14.7679 55.5,15C 52.1667,15.3333 48.8333,15.6667 45.5,16C 41.9965,18.0222 38.6632,20.1888 35.5,22.5C 39.5644,16.4278 45.2311,13.4278 52.5,13.5 Z"/></g>
<g><path style="opacity:1" fill="#b57036" d="M 62.5,10.5 C 62.189,11.4778 61.5223,12.1445 60.5,12.5C 59.3044,12.1543 59.3044,11.6543 60.5,11C 55.0788,10.1608 49.7455,10.4941 44.5,12C 47.3647,12.1829 50.0314,12.6829 52.5,13.5C 45.2311,13.4278 39.5644,16.4278 35.5,22.5C 34.6679,22.246 34.0013,21.246 33.5,19.5C 37.0251,15.8166 41.0251,12.6499 45.5,10C 49.1133,9.11551 52.78,8.61551 56.5,8.5C 58.9522,8.53907 60.9522,9.20574 62.5,10.5 Z"/></g>
<g><path style="opacity:1" fill="#dd9454" d="M 102.5,33.5 C 98.6178,31.9591 94.6178,30.1258 90.5,28C 87.4221,23.9899 84.7554,19.8232 82.5,15.5C 81.7148,13.6264 81.0482,11.6264 80.5,9.5C 78.5654,8.29099 76.5654,8.45766 74.5,10C 75.056,10.3826 75.3893,10.8826 75.5,11.5C 74.8333,12.8333 73.8333,13.8333 72.5,14.5C 71.4676,22.0955 74.4676,27.7622 81.5,31.5C 82.1667,31.5 82.8333,31.5 83.5,31.5C 89.1821,37.3355 96.1821,39.5021 104.5,38C 105.337,36.9887 105.67,35.8221 105.5,34.5C 105.343,33.1266 105.51,31.7932 106,30.5C 109.577,35.9876 111.743,41.9876 112.5,48.5C 112.649,49.552 112.483,50.552 112,51.5C 111.667,50.1667 111.333,48.8333 111,47.5C 110.505,49.4727 110.338,51.4727 110.5,53.5C 110.886,61.0629 109.886,61.3962 107.5,54.5C 106.833,53.8333 106.167,53.1667 105.5,52.5C 105.5,52.1667 105.5,51.8333 105.5,51.5C 105.598,49.4471 104.931,47.7804 103.5,46.5C 99.5692,42.87 94.9025,40.87 89.5,40.5C 87.3702,38.8729 85.3702,37.0396 83.5,35C 81.9751,33.9914 80.3084,33.4914 78.5,33.5C 80.3162,35.1366 82.3162,36.6366 84.5,38C 79.6405,36.8643 74.6405,36.031 69.5,35.5C 65.5,35.5 61.5,35.5 57.5,35.5C 57.5,35.1667 57.5,34.8333 57.5,34.5C 59.9267,34.477 62.26,33.977 64.5,33C 62.765,32.3486 61.0983,32.5153 59.5,33.5C 58.5019,31.5101 57.5019,29.5101 56.5,27.5C 55.3864,26.2241 54.3864,26.2241 53.5,27.5C 53.1667,27.5 52.8333,27.5 52.5,27.5C 46.2853,29.6093 40.6186,32.7759 35.5,37C 33.8034,37.3845 32.1368,37.2178 30.5,36.5C 29.2089,37.5417 29.2089,38.7083 30.5,40C 25.8989,41.6834 23.3989,40.1834 23,35.5C 22.5172,36.448 22.3505,37.448 22.5,38.5C 19.5,38.5 16.5,38.5 13.5,38.5C 13.4087,32.4252 16.4087,29.5919 22.5,30C 21.376,29.7508 20.376,29.2508 19.5,28.5C 20.9705,25.864 22.6372,23.364 24.5,21C 27.5929,19.6236 30.5929,19.1236 33.5,19.5C 34.0013,21.246 34.6679,22.246 35.5,22.5C 38.6632,20.1888 41.9965,18.0222 45.5,16C 48.8333,15.6667 52.1667,15.3333 55.5,15C 54.2625,14.7679 53.2625,14.2679 52.5,13.5C 50.0314,12.6829 47.3647,12.1829 44.5,12C 49.7455,10.4941 55.0788,10.1608 60.5,11C 59.3044,11.6543 59.3044,12.1543 60.5,12.5C 61.5223,12.1445 62.189,11.4778 62.5,10.5C 65.9667,8.9328 69.3001,7.09946 72.5,5C 76.595,2.77981 80.9283,2.11315 85.5,3C 91.557,8.2681 98.557,11.6014 106.5,13C 107.602,15.4009 107.769,17.9009 107,20.5C 105.329,24.8927 103.829,29.226 102.5,33.5 Z"/></g>
<g><path style="opacity:1" fill="#a76127" d="M 52.5,27.5 C 47.0109,31.4703 41.3442,35.3037 35.5,39C 33.0722,39.747 31.4056,38.9137 30.5,36.5C 32.1368,37.2178 33.8034,37.3845 35.5,37C 40.6186,32.7759 46.2853,29.6093 52.5,27.5 Z"/></g>
<g><path style="opacity:1" fill="#cfcece" d="M 48.5,31.5 C 51.0838,32.0483 52.0838,33.715 51.5,36.5C 46.2587,37.0502 45.2587,35.3836 48.5,31.5 Z"/></g>
<g><path style="opacity:1" fill="#a86128" d="M 105.5,34.5 C 105.67,35.8221 105.337,36.9887 104.5,38C 96.1821,39.5021 89.1821,37.3355 83.5,31.5C 82.7101,30.2058 81.7101,29.0391 80.5,28C 80.8333,27.8333 81.1667,27.6667 81.5,27.5C 85.6999,31.1001 90.3666,33.9334 95.5,36C 99.1487,36.963 102.482,36.463 105.5,34.5 Z"/></g>
<g><path style="opacity:1" fill="#7b5433" d="M 78.5,33.5 C 75.7835,33.3215 73.1168,32.8215 70.5,32C 73.4822,31.2971 76.1488,31.7971 78.5,33.5 Z"/></g>
<g><path style="opacity:1" fill="#a05f2a" d="M 53.5,27.5 C 54.3864,26.2241 55.3864,26.2241 56.5,27.5C 57.5019,29.5101 58.5019,31.5101 59.5,33.5C 61.0983,32.5153 62.765,32.3486 64.5,33C 62.26,33.977 59.9267,34.477 57.5,34.5C 55.063,32.4906 53.7296,30.1573 53.5,27.5 Z"/></g>
<g><path style="opacity:1" fill="#b66e32" d="M 82.5,15.5 C 84.7554,19.8232 87.4221,23.9899 90.5,28C 94.6178,30.1258 98.6178,31.9591 102.5,33.5C 100.372,34.6291 98.0385,34.7958 95.5,34C 87.4197,30.4264 83.0863,24.2597 82.5,15.5 Z"/></g>
<g><path style="opacity:1" fill="#af6528" d="M 72.5,14.5 C 74.1787,20.8571 77.1787,26.5237 81.5,31.5C 74.4676,27.7622 71.4676,22.0955 72.5,14.5 Z"/></g>
<g><path style="opacity:1" fill="#623d1d" d="M 80.5,9.5 C 78.4862,9.39151 76.8195,10.0582 75.5,11.5C 75.3893,10.8826 75.056,10.3826 74.5,10C 76.5654,8.45766 78.5654,8.29099 80.5,9.5 Z"/></g>
<g><path style="opacity:0.451" fill="#585858" d="M 106.5,102.5 C 108.186,105.537 107.186,106.87 103.5,106.5C 102.602,105.842 101.602,105.176 100.5,104.5C 102.021,104.12 103.687,103.954 105.5,104C 103.74,103.035 103.406,101.868 104.5,100.5C 105.182,101.243 105.849,101.909 106.5,102.5 Z"/></g>
<g><path style="opacity:1" fill="#929292" d="M 28.5,114.5 C 29.4345,113.432 29.7678,112.099 29.5,110.5C 30.675,110.281 31.675,110.614 32.5,111.5C 31.5328,113.63 30.3662,115.63 29,117.5C 28.5172,116.552 28.3505,115.552 28.5,114.5 Z"/></g>
<g><path style="opacity:0.994" fill="#bebebe" d="M 87.5,112.5 C 88.6491,112.791 89.3158,113.624 89.5,115C 89.3333,115.833 89.1667,116.667 89,117.5C 88.3923,115.846 87.8923,114.179 87.5,112.5 Z"/></g>
<g><path style="opacity:1" fill="#7a7a7a" d="M 86.5,118.5 C 84.8998,117.356 83.2331,116.189 81.5,115C 84.259,114.023 86.259,114.856 87.5,117.5C 87.3764,118.107 87.0431,118.44 86.5,118.5 Z"/></g>
<g><path style="opacity:1" fill="#bdbdbd" d="M 31.5,119.5 C 30.7611,119.631 30.0944,119.464 29.5,119C 32.2664,117.533 34.7664,115.7 37,113.5C 37.49,114.793 37.6567,116.127 37.5,117.5C 35.2143,117.595 33.2143,118.262 31.5,119.5 Z"/></g>
<g><path style="opacity:1" fill="#7c7c7c" d="M 46.5,118.5 C 46.7947,120.735 46.4614,122.735 45.5,124.5C 44.596,123.791 44.2627,122.791 44.5,121.5C 43.0203,116.364 45.0203,114.53 50.5,116C 48.563,116.122 47.2297,116.955 46.5,118.5 Z"/></g>
<g><path style="opacity:1" fill="#868686" d="M 64.5,115.5 C 67.9356,124.046 66.9356,125.046 61.5,118.5C 62.1882,117.145 63.1882,116.145 64.5,115.5 Z"/></g>
<g><path style="opacity:1" fill="#d0d0d0" d="M 70.5,115.5 C 71.1032,117.626 71.1032,119.959 70.5,122.5C 69.1667,120.167 69.1667,117.833 70.5,115.5 Z"/></g>
<g><path style="opacity:1" fill="#bebebe" d="M 50.5,123.5 C 49.8333,123.5 49.5,123.167 49.5,122.5C 49.8923,120.821 50.3923,119.154 51,117.5C 51.6667,116.167 52.3333,116.167 53,117.5C 53.6667,118.5 53.6667,119.5 53,120.5C 51.955,121.373 51.1217,122.373 50.5,123.5 Z"/></g>
<g><path style="opacity:1" fill="#757575" d="M 64.5,115.5 C 66.5,114.167 68.5,114.167 70.5,115.5C 69.1667,117.833 69.1667,120.167 70.5,122.5C 70.5,122.833 70.5,123.167 70.5,123.5C 69.8826,123.611 69.3826,123.944 69,124.5C 68.502,121.518 68.3354,118.518 68.5,115.5C 67.1667,115.5 65.8333,115.5 64.5,115.5 Z"/></g>
<g><path style="opacity:0.761" fill="#444444" d="M 46.5,118.5 C 47.3138,120.631 47.8138,122.964 48,125.5C 48.2321,124.263 48.7321,123.263 49.5,122.5C 49.5,123.167 49.8333,123.5 50.5,123.5C 50.5,123.833 50.5,124.167 50.5,124.5C 49.8333,125.5 49.1667,126.5 48.5,127.5C 47.8333,127.5 47.1667,127.5 46.5,127.5C 45.8902,126.609 45.5569,125.609 45.5,124.5C 46.4614,122.735 46.7947,120.735 46.5,118.5 Z"/></g>
</svg>
