<?xml version="1.0" encoding="UTF-8"?>
<!DOCTYPE svg PUBLIC "-//W3C//DTD SVG 1.1//EN" "http://www.w3.org/Graphics/SVG/1.1/DTD/svg11.dtd">
<svg xmlns="http://www.w3.org/2000/svg" version="1.1" width="176px" height="206px" style="shape-rendering:geometricPrecision; text-rendering:geometricPrecision; image-rendering:optimizeQuality; fill-rule:evenodd; clip-rule:evenodd" xmlns:xlink="http://www.w3.org/1999/xlink">
<g><path style="opacity:1" fill="#f4f3f1" d="M 109.5,13.5 C 110.326,15.2644 111.659,16.5977 113.5,17.5C 113.737,18.791 113.404,19.791 112.5,20.5C 103.267,18.0491 94.9339,13.7157 87.5,7.5C 83.6606,11.0136 79.3272,13.6802 74.5,15.5C 71.9407,15.8016 69.6074,15.4682 67.5,14.5C 73.3923,9.2049 80.0589,4.87157 87.5,1.5C 95.198,4.9448 102.531,8.9448 109.5,13.5 Z"/></g>
<g><path style="opacity:1" fill="#f2e8c9" d="M 81.5,-0.5 C 85.8333,-0.5 90.1667,-0.5 94.5,-0.5C 104.993,7.57984 116.66,13.2465 129.5,16.5C 125.425,16.0025 121.425,16.0025 117.5,16.5C 114.69,15.8008 112.023,14.8008 109.5,13.5C 102.531,8.9448 95.198,4.9448 87.5,1.5C 80.0589,4.87157 73.3923,9.2049 67.5,14.5C 62.7723,14.886 58.439,16.2194 54.5,18.5C 48.6669,19.5962 43.0002,20.9296 37.5,22.5C 29.0105,23.6393 20.6772,23.6393 12.5,22.5C 17.0323,22.8182 21.3656,22.4849 25.5,21.5C 28.5983,21.5875 28.9316,21.0875 26.5,20C 22.9748,19.8213 19.6414,19.3213 16.5,18.5C 40.3102,19.2271 61.9769,12.8937 81.5,-0.5 Z"/></g>
<g><path style="opacity:0.447" fill="#ecdfce" d="M 3.5,17.5 C 7.23958,16.3969 10.9062,16.7303 14.5,18.5C 10.7852,18.577 7.11853,18.2436 3.5,17.5 Z"/></g>
<g><path style="opacity:1" fill="#d4d2d1" d="M 67.5,14.5 C 69.6074,15.4682 71.9407,15.8016 74.5,15.5C 66.453,20.3617 57.7863,24.0284 48.5,26.5C 40.6525,26.4154 40.6525,25.7487 48.5,24.5C 48.281,23.325 48.6143,22.325 49.5,21.5C 52.175,20.9766 53.8417,19.9766 54.5,18.5C 58.439,16.2194 62.7723,14.886 67.5,14.5 Z"/></g>
<g><path style="opacity:1" fill="#484747" d="M 112.5,20.5 C 116.303,22.6591 120.303,24.3258 124.5,25.5C 126.5,26.5 128.5,27.5 130.5,28.5C 115.348,25.0209 101.181,19.0209 88,10.5C 78.3877,16.0565 68.5544,21.2231 58.5,26C 55.1727,26.6103 51.8394,27.1103 48.5,27.5C 48.5,27.1667 48.5,26.8333 48.5,26.5C 57.7863,24.0284 66.453,20.3617 74.5,15.5C 79.3272,13.6802 83.6606,11.0136 87.5,7.5C 94.9339,13.7157 103.267,18.0491 112.5,20.5 Z"/></g>
<g><path style="opacity:1" fill="#dccca9" d="M 109.5,13.5 C 112.023,14.8008 114.69,15.8008 117.5,16.5C 121.425,16.0025 125.425,16.0025 129.5,16.5C 133.04,16.7526 136.373,17.4192 139.5,18.5C 137.473,18.3379 135.473,18.5045 133.5,19C 133.833,19.3333 134.167,19.6667 134.5,20C 143.792,21.2313 153.126,21.7313 162.5,21.5C 162.842,22.3382 163.508,22.6716 164.5,22.5C 164.5,22.8333 164.5,23.1667 164.5,23.5C 157.167,23.5 149.833,23.5 142.5,23.5C 132.97,21.372 123.303,19.372 113.5,17.5C 111.659,16.5977 110.326,15.2644 109.5,13.5 Z"/></g>
<g><path style="opacity:1" fill="#ae9b73" d="M 139.5,18.5 C 139.833,18.5 140.167,18.5 140.5,18.5C 149.483,20.9272 158.483,20.9272 167.5,18.5C 168.833,18.5 170.167,18.5 171.5,18.5C 171.665,22.1817 171.499,25.8484 171,29.5C 170.047,26.5682 169.547,23.5682 169.5,20.5C 167.139,20.6741 164.806,21.0074 162.5,21.5C 153.126,21.7313 143.792,21.2313 134.5,20C 134.167,19.6667 133.833,19.3333 133.5,19C 135.473,18.5045 137.473,18.3379 139.5,18.5 Z"/></g>
<g><path style="opacity:0.813" fill="#d0c4ad" d="M 140.5,18.5 C 149.489,19.586 158.489,19.586 167.5,18.5C 158.483,20.9272 149.483,20.9272 140.5,18.5 Z"/></g>
<g><path style="opacity:1" fill="#a5a298" d="M 113.5,17.5 C 123.303,19.372 132.97,21.372 142.5,23.5C 138.774,23.1774 135.107,23.5108 131.5,24.5C 135.286,25.7292 135.286,26.3959 131.5,26.5C 129.182,26.0029 126.848,25.6695 124.5,25.5C 120.303,24.3258 116.303,22.6591 112.5,20.5C 113.404,19.791 113.737,18.791 113.5,17.5 Z"/></g>
<g><path style="opacity:1" fill="#8c897e" d="M 8.5,22.5 C 9.83333,22.5 11.1667,22.5 12.5,22.5C 20.6772,23.6393 29.0105,23.6393 37.5,22.5C 39.8568,22.3367 42.1902,22.5034 44.5,23C 40.4438,23.3512 36.7772,24.6845 33.5,27C 28.5,27.6667 23.5,27.6667 18.5,27C 15.2794,25.7225 11.946,24.8891 8.5,24.5C 8.5,23.8333 8.5,23.1667 8.5,22.5 Z"/></g>
<g><path style="opacity:1" fill="#aca9a4" d="M 54.5,18.5 C 53.8417,19.9766 52.175,20.9766 49.5,21.5C 48.6143,22.325 48.281,23.325 48.5,24.5C 40.6525,25.7487 40.6525,26.4154 48.5,26.5C 48.5,26.8333 48.5,27.1667 48.5,27.5C 43.0701,27.5167 37.7368,28.1834 32.5,29.5C 26.5,29.5 20.5,29.5 14.5,29.5C 14.5,42.1667 14.5,54.8333 14.5,67.5C 13.6694,56.3407 13.1694,45.0074 13,33.5C 12.3086,35.8912 11.3086,35.8912 10,33.5C 9.82614,38.6835 9.32614,43.6835 8.5,48.5C 8.5,40.5 8.5,32.5 8.5,24.5C 11.946,24.8891 15.2794,25.7225 18.5,27C 23.5,27.6667 28.5,27.6667 33.5,27C 36.7772,24.6845 40.4438,23.3512 44.5,23C 42.1902,22.5034 39.8568,22.3367 37.5,22.5C 43.0002,20.9296 48.6669,19.5962 54.5,18.5 Z"/></g>
<g><path style="opacity:0.94" fill="#a39067" d="M 3.5,17.5 C 7.11853,18.2436 10.7852,18.577 14.5,18.5C 15.1667,18.5 15.8333,18.5 16.5,18.5C 19.6414,19.3213 22.9748,19.8213 26.5,20C 28.9316,21.0875 28.5983,21.5875 25.5,21.5C 18.7895,21.713 12.1228,21.3796 5.5,20.5C 5.66568,24.8461 5.49902,29.1794 5,33.5C 4.76791,34.7375 4.26791,35.7375 3.5,36.5C 3.5,30.1667 3.5,23.8333 3.5,17.5 Z"/></g>
<g><path style="opacity:1" fill="#e7d5a6" d="M 25.5,21.5 C 21.3656,22.4849 17.0323,22.8182 12.5,22.5C 11.1667,22.5 9.83333,22.5 8.5,22.5C 7.50881,29.3134 7.17547,36.3134 7.5,43.5C 6.85013,43.8039 6.18346,44.1373 5.5,44.5C 4.20535,41.9881 3.53869,39.3214 3.5,36.5C 4.26791,35.7375 4.76791,34.7375 5,33.5C 5.49902,29.1794 5.66568,24.8461 5.5,20.5C 12.1228,21.3796 18.7895,21.713 25.5,21.5 Z"/></g>
<g><path style="opacity:1" fill="#868177" d="M 142.5,23.5 C 149.833,23.5 157.167,23.5 164.5,23.5C 165.5,23.5 166.5,23.5 167.5,23.5C 167.666,29.1764 167.499,34.8431 167,40.5C 166.727,35.7709 166.061,31.1042 165,26.5C 164.586,26.9574 164.086,27.2907 163.5,27.5C 162.503,34.1335 162.17,40.8002 162.5,47.5C 162.5,54.1667 162.5,60.8333 162.5,67.5C 162.167,67.5 161.833,67.5 161.5,67.5C 161.5,55.1667 161.5,42.8333 161.5,30.5C 151.804,30.2099 142.137,29.5432 132.5,28.5C 131.833,28.5 131.167,28.5 130.5,28.5C 128.5,27.5 126.5,26.5 124.5,25.5C 126.848,25.6695 129.182,26.0029 131.5,26.5C 135.286,26.3959 135.286,25.7292 131.5,24.5C 135.107,23.5108 138.774,23.1774 142.5,23.5 Z"/></g>
<g><path style="opacity:1" fill="#050404" d="M 130.5,28.5 C 131.167,28.5 131.833,28.5 132.5,28.5C 141.2,30.9527 150.2,31.9527 159.5,31.5C 159.5,49.5 159.5,67.5 159.5,85.5C 158.518,104.76 154.685,123.426 148,141.5C 144.489,147.195 140.989,152.861 137.5,158.5C 135.196,161.141 132.862,163.808 130.5,166.5C 126.474,170.195 122.474,173.862 118.5,177.5C 114.205,179.808 110.205,182.474 106.5,185.5C 100.684,189.157 94.5177,192.157 88,194.5C 82.1817,192.504 76.6817,189.837 71.5,186.5C 70.4863,185.326 69.153,184.66 67.5,184.5C 66.5637,183.026 65.2303,182.026 63.5,181.5C 55.9363,176.278 48.9363,170.278 42.5,163.5C 35.5416,155.524 30.2083,146.524 26.5,136.5C 21.4677,124.701 18.8011,112.368 18.5,99.5C 16.7408,76.8844 16.0742,54.2177 16.5,31.5C 22.5092,31.6662 28.5092,31.4995 34.5,31C 39.4966,30.5676 44.1633,29.4009 48.5,27.5C 51.8394,27.1103 55.1727,26.6103 58.5,26C 68.5544,21.2231 78.3877,16.0565 88,10.5C 101.181,19.0209 115.348,25.0209 130.5,28.5 Z"/></g>
<g><path style="opacity:1" fill="#9da2a6" d="M 84.5,16.5 C 85.4907,22.979 85.824,29.6457 85.5,36.5C 81.0728,33.2523 76.7395,29.7523 72.5,26C 73.305,24.8873 73.9717,23.7206 74.5,22.5C 77.7976,20.5146 81.1309,18.5146 84.5,16.5 Z"/></g>
<g><path style="opacity:1" fill="#3b3b3a" d="M 48.5,27.5 C 44.1633,29.4009 39.4966,30.5676 34.5,31C 28.5092,31.4995 22.5092,31.6662 16.5,31.5C 16.0742,54.2177 16.7408,76.8844 18.5,99.5C 18.1667,99.5 17.8333,99.5 17.5,99.5C 16.5793,91.5322 15.9127,83.5322 15.5,75.5C 15.5,60.5 15.5,45.5 15.5,30.5C 21.358,30.8222 27.0247,30.4889 32.5,29.5C 37.7368,28.1834 43.0701,27.5167 48.5,27.5 Z"/></g>
<g><path style="opacity:1" fill="#353534" d="M 36.5,34.5 C 35.3915,35.29 34.0581,35.79 32.5,36C 35.7771,38.7342 38.9438,41.5676 42,44.5C 44.3909,43.3975 44.8909,44.0642 43.5,46.5C 44.0983,47.7946 44.5983,49.1279 45,50.5C 45.8926,49.9186 46.8926,49.5852 48,49.5C 50.5895,50.9863 53.4228,51.6529 56.5,51.5C 55.5,52.1667 54.5,52.8333 53.5,53.5C 51.8036,55.5248 50.137,57.5248 48.5,59.5C 45.0874,58.8436 41.9207,57.5103 39,55.5C 38.8508,58.2785 38.0174,58.7785 36.5,57C 36.8333,56.6667 37.1667,56.3333 37.5,56C 32.3202,53.0106 28.4868,48.8439 26,43.5C 25.6667,44.5 25.3333,45.5 25,46.5C 22.3975,43.1159 21.8975,39.4492 23.5,35.5C 27.8422,35.2605 32.1756,34.9272 36.5,34.5 Z"/></g>
<g><path style="opacity:1" fill="#454647" d="M 46.5,32.5 C 45.6971,33.4232 45.5304,34.4232 46,35.5C 50.4059,39.6174 54.9059,43.6174 59.5,47.5C 61.1299,45.1391 62.7966,45.1391 64.5,47.5C 62.535,50.0119 59.8683,51.3452 56.5,51.5C 53.4228,51.6529 50.5895,50.9863 48,49.5C 46.8926,49.5852 45.8926,49.9186 45,50.5C 44.5983,49.1279 44.0983,47.7946 43.5,46.5C 44.8909,44.0642 44.3909,43.3975 42,44.5C 38.9438,41.5676 35.7771,38.7342 32.5,36C 34.0581,35.79 35.3915,35.29 36.5,34.5C 39.9032,34.1489 43.2365,33.4822 46.5,32.5 Z"/></g>
<g><path style="opacity:1" fill="#6f7073" d="M 84.5,16.5 C 84.56,15.9569 84.8933,15.6236 85.5,15.5C 86.4979,23.8068 86.8312,32.1401 86.5,40.5C 83.8333,40.5 81.1667,40.5 78.5,40.5C 75.6592,40.5597 72.9925,41.2264 70.5,42.5C 65.9382,40.1863 60.9382,37.6863 55.5,35C 56.6341,33.984 56.3008,33.3173 54.5,33C 57.2067,30.2582 60.5401,28.7582 64.5,28.5C 66.4817,28.9954 68.4817,29.4954 70.5,30C 74.5479,34.3841 79.3813,37.5508 85,39.5C 85.4828,38.552 85.6495,37.552 85.5,36.5C 85.824,29.6457 85.4907,22.979 84.5,16.5 Z"/></g>
<g><path style="opacity:1" fill="#87888d" d="M 74.5,22.5 C 73.9717,23.7206 73.305,24.8873 72.5,26C 76.7395,29.7523 81.0728,33.2523 85.5,36.5C 85.6495,37.552 85.4828,38.552 85,39.5C 79.3813,37.5508 74.5479,34.3841 70.5,30C 68.4817,29.4954 66.4817,28.9954 64.5,28.5C 64.8333,27.8333 65.1667,27.1667 65.5,26.5C 68.3777,24.8946 71.3777,23.5612 74.5,22.5 Z"/></g>
<g><path style="opacity:1" fill="#59595c" d="M 65.5,26.5 C 65.1667,27.1667 64.8333,27.8333 64.5,28.5C 60.5401,28.7582 57.2067,30.2582 54.5,33C 56.3008,33.3173 56.6341,33.984 55.5,35C 60.9382,37.6863 65.9382,40.1863 70.5,42.5C 69.1092,44.8903 67.1092,46.5569 64.5,47.5C 62.7966,45.1391 61.1299,45.1391 59.5,47.5C 54.9059,43.6174 50.4059,39.6174 46,35.5C 45.5304,34.4232 45.6971,33.4232 46.5,32.5C 52.802,30.511 59.1353,28.511 65.5,26.5 Z"/></g>
<g><path style="opacity:1" fill="#343432" d="M 132.5,28.5 C 142.137,29.5432 151.804,30.2099 161.5,30.5C 161.5,42.8333 161.5,55.1667 161.5,67.5C 161.5,71.8333 161.5,76.1667 161.5,80.5C 160.549,81.9187 160.216,83.5853 160.5,85.5C 160.167,85.5 159.833,85.5 159.5,85.5C 159.5,67.5 159.5,49.5 159.5,31.5C 150.2,31.9527 141.2,30.9527 132.5,28.5 Z"/></g>
<g><path style="opacity:1" fill="#301e13" d="M 78.5,40.5 C 83.3634,41.2656 88.3634,41.9322 93.5,42.5C 93.1583,43.3382 92.4916,43.6716 91.5,43.5C 79.3647,40.2336 69.3647,43.4003 61.5,53C 58.854,53.4974 56.1873,53.6641 53.5,53.5C 54.5,52.8333 55.5,52.1667 56.5,51.5C 59.8683,51.3452 62.535,50.0119 64.5,47.5C 67.1092,46.5569 69.1092,44.8903 70.5,42.5C 72.9925,41.2264 75.6592,40.5597 78.5,40.5 Z"/></g>
<g><path style="opacity:1" fill="#a8a5a2" d="M 164.5,23.5 C 164.5,23.1667 164.5,22.8333 164.5,22.5C 165.833,22.5 167.167,22.5 168.5,22.5C 168.5,28.5 168.5,34.5 168.5,40.5C 168.5,50.1667 168.5,59.8333 168.5,69.5C 168.276,73.1788 167.942,76.8455 167.5,80.5C 167.021,84.4497 165.188,87.783 162,90.5C 161.502,87.1832 161.335,83.8499 161.5,80.5C 161.5,76.1667 161.5,71.8333 161.5,67.5C 161.833,67.5 162.167,67.5 162.5,67.5C 162.334,72.8437 162.501,78.1771 163,83.5C 167.008,72.3467 167.508,61.0133 164.5,49.5C 164.253,48.2867 163.586,47.62 162.5,47.5C 162.17,40.8002 162.503,34.1335 163.5,27.5C 164.086,27.2907 164.586,26.9574 165,26.5C 166.061,31.1042 166.727,35.7709 167,40.5C 167.499,34.8431 167.666,29.1764 167.5,23.5C 166.5,23.5 165.5,23.5 164.5,23.5 Z"/></g>
<g><path style="opacity:1" fill="#626361" d="M 32.5,29.5 C 27.0247,30.4889 21.358,30.8222 15.5,30.5C 15.5,45.5 15.5,60.5 15.5,75.5C 15.1667,75.5 14.8333,75.5 14.5,75.5C 14.5,72.8333 14.5,70.1667 14.5,67.5C 14.5,54.8333 14.5,42.1667 14.5,29.5C 20.5,29.5 26.5,29.5 32.5,29.5 Z"/></g>
<g><path style="opacity:1" fill="#f3e9c9" d="M 167.5,18.5 C 168.919,17.5489 170.585,17.2155 172.5,17.5C 173.73,38.9914 173.73,60.3247 172.5,81.5C 170.58,67.7661 169.247,54.0994 168.5,40.5C 168.5,34.5 168.5,28.5 168.5,22.5C 167.167,22.5 165.833,22.5 164.5,22.5C 163.508,22.6716 162.842,22.3382 162.5,21.5C 164.806,21.0074 167.139,20.6741 169.5,20.5C 169.547,23.5682 170.047,26.5682 171,29.5C 171.499,25.8484 171.665,22.1817 171.5,18.5C 170.167,18.5 168.833,18.5 167.5,18.5 Z"/></g>
<g><path style="opacity:1" fill="#724520" d="M 80.5,47.5 C 82.3084,47.4914 83.9751,47.9914 85.5,49C 81.8484,49.4986 78.1817,49.6653 74.5,49.5C 76.5,48.8333 78.5,48.1667 80.5,47.5 Z"/></g>
<g><path style="opacity:1" fill="#2f1505" d="M 80.5,47.5 C 78.5,48.1667 76.5,48.8333 74.5,49.5C 70.863,50.9855 67.5296,52.9855 64.5,55.5C 64.0618,55.5654 63.7284,55.3988 63.5,55C 68.0293,49.7315 73.696,47.2315 80.5,47.5 Z"/></g>
<g><path style="opacity:1" fill="#a06837" d="M 101.5,47.5 C 101.408,52.5633 103.074,56.8966 106.5,60.5C 108.167,62.5 109.833,64.5 111.5,66.5C 107.638,65.4763 104.805,63.1429 103,59.5C 101.734,56.5338 100.567,53.5338 99.5,50.5C 99.4534,48.9623 100.12,47.9623 101.5,47.5 Z"/></g>
<g><path style="opacity:1" fill="#e0995a" d="M 134.5,56.5 C 132.926,58.1016 132.259,60.1016 132.5,62.5C 131.662,62.8417 131.328,63.5084 131.5,64.5C 127.253,64.8222 123.253,63.9889 119.5,62C 115.856,57.8644 112.856,53.3644 110.5,48.5C 109.37,46.6854 108.704,44.6854 108.5,42.5C 106.833,42.5 105.167,42.5 103.5,42.5C 103.608,44.5138 102.942,46.1805 101.5,47.5C 100.12,47.9623 99.4534,48.9623 99.5,50.5C 100.567,53.5338 101.734,56.5338 103,59.5C 104.805,63.1429 107.638,65.4763 111.5,66.5C 117.736,70.9765 124.736,72.8099 132.5,72C 133.701,71.0975 134.535,69.9308 135,68.5C 136.808,72.3952 137.974,76.3952 138.5,80.5C 138.666,84.5138 138.499,88.5138 138,92.5C 137.8,90.6803 136.966,89.347 135.5,88.5C 134.541,83.7894 132.708,79.456 130,75.5C 129.536,76.0944 129.369,76.7611 129.5,77.5C 126.729,76.3666 123.896,75.3666 121,74.5C 119.93,74.528 119.097,74.8614 118.5,75.5C 115.953,71.2857 112.287,68.619 107.5,67.5C 108.429,68.3149 109.429,69.1482 110.5,70C 107.335,69.6327 104.335,69.7994 101.5,70.5C 96.9666,69.0164 92.2999,68.3497 87.5,68.5C 86.3915,67.71 85.0581,67.21 83.5,67C 84.4231,64.9592 84.7564,62.7925 84.5,60.5C 83.209,60.2627 82.209,60.596 81.5,61.5C 81.1667,61.5 80.8333,61.5 80.5,61.5C 74.4707,63.0148 69.1373,65.8481 64.5,70C 62.5273,70.4955 60.5273,70.6621 58.5,70.5C 58.5386,69.2438 58.0386,68.2438 57,67.5C 56.5045,69.4727 56.3379,71.4727 56.5,73.5C 53.7224,73.9783 51.7224,72.9783 50.5,70.5C 47.7877,72.2603 44.7877,72.927 41.5,72.5C 41.5172,70.4352 41.8505,68.4352 42.5,66.5C 42.8333,65.5 43.5,64.8333 44.5,64.5C 46.604,64.7989 48.604,64.4656 50.5,63.5C 49.7579,59.9594 51.0912,57.1261 54.5,55C 55.8333,54.3333 57.1667,54.3333 58.5,55C 60.3013,56.3868 60.9679,57.8868 60.5,59.5C 62.188,58.4787 63.5213,57.1454 64.5,55.5C 67.5296,52.9855 70.863,50.9855 74.5,49.5C 78.1817,49.6653 81.8484,49.4986 85.5,49C 83.9751,47.9914 82.3084,47.4914 80.5,47.5C 77.6946,46.6805 74.6946,46.1805 71.5,46C 71.8333,45.6667 72.1667,45.3333 72.5,45C 77.5,44.3333 82.5,44.3333 87.5,45C 86.3044,45.6543 86.3044,46.1543 87.5,46.5C 89.261,45.9649 90.5943,44.9649 91.5,43.5C 92.4916,43.6716 93.1583,43.3382 93.5,42.5C 99.1978,38.3294 105.531,36.1628 112.5,36C 115.681,38.0917 118.681,40.425 121.5,43C 126.153,44.323 130.819,45.6563 135.5,47C 136.097,48.0617 136.43,49.2284 136.5,50.5C 136.281,52.6931 135.615,54.6931 134.5,56.5 Z"/></g>
<g><path style="opacity:0.966" fill="#f7edd1" d="M 3.5,17.5 C 3.5,23.8333 3.5,30.1667 3.5,36.5C 3.53869,39.3214 4.20535,41.9881 5.5,44.5C 6.18346,44.1373 6.85013,43.8039 7.5,43.5C 7.66638,51.5069 7.49971,59.5069 7,67.5C 6.66667,67.1667 6.33333,66.8333 6,66.5C 4.69967,73.771 4.19967,81.1044 4.5,88.5C 3.79915,81.9633 3.13248,75.2966 2.5,68.5C 2.4907,51.3773 2.82404,34.3773 3.5,17.5 Z"/></g>
<g><path style="opacity:1" fill="#222020" d="M 23.5,35.5 C 21.8975,39.4492 22.3975,43.1159 25,46.5C 25.3333,45.5 25.6667,44.5 26,43.5C 28.4868,48.8439 32.3202,53.0106 37.5,56C 37.1667,56.3333 36.8333,56.6667 36.5,57C 38.0174,58.7785 38.8508,58.2785 39,55.5C 41.9207,57.5103 45.0874,58.8436 48.5,59.5C 47.7659,60.7079 47.4326,62.0413 47.5,63.5C 46.209,63.2627 45.209,63.596 44.5,64.5C 43.5,64.8333 42.8333,65.5 42.5,66.5C 41.609,65.8902 40.609,65.5569 39.5,65.5C 41.9066,64.2883 44.24,62.7883 46.5,61C 44.8333,60.3333 43.1667,60.3333 41.5,61C 38.2608,62.7364 35.9274,65.2364 34.5,68.5C 32.5,70.1667 30.5,71.8333 28.5,73.5C 25.4504,76.0234 23.9504,75.0234 24,70.5C 23.586,70.9574 23.086,71.2907 22.5,71.5C 22.1667,65.5 21.8333,59.5 21.5,53.5C 21.504,47.1275 22.1707,41.1275 23.5,35.5 Z"/></g>
<g><path style="opacity:1" fill="#26150c" d="M 110.5,48.5 C 111.044,57.9386 115.711,64.2719 124.5,67.5C 129.599,69.8594 132.266,68.1928 132.5,62.5C 133.338,62.8417 133.672,63.5084 133.5,64.5C 133.681,68.1763 132.014,70.1763 128.5,70.5C 125.419,69.9733 122.419,69.14 119.5,68C 116.953,65.946 114.286,64.1126 111.5,62.5C 110.066,60.6216 108.399,59.955 106.5,60.5C 103.074,56.8966 101.408,52.5633 101.5,47.5C 102.942,46.1805 103.608,44.5138 103.5,42.5C 105.167,42.5 106.833,42.5 108.5,42.5C 108.704,44.6854 109.37,46.6854 110.5,48.5 Z"/></g>
<g><path style="opacity:1" fill="#151618" d="M 105.5,43.5 C 107.48,44.8475 108.647,46.8475 109,49.5C 109.851,52.053 109.518,54.3863 108,56.5C 102.895,53.0675 102.061,48.7342 105.5,43.5 Z"/></g>
<g><path style="opacity:1" fill="#b9bbbe" d="M 162.5,47.5 C 163.586,47.62 164.253,48.2867 164.5,49.5C 167.508,61.0133 167.008,72.3467 163,83.5C 162.501,78.1771 162.334,72.8437 162.5,67.5C 162.5,60.8333 162.5,54.1667 162.5,47.5 Z"/></g>
<g><path style="opacity:1" fill="#be8351" d="M 91.5,43.5 C 90.5943,44.9649 89.261,45.9649 87.5,46.5C 86.3044,46.1543 86.3044,45.6543 87.5,45C 82.5,44.3333 77.5,44.3333 72.5,45C 72.1667,45.3333 71.8333,45.6667 71.5,46C 74.6946,46.1805 77.6946,46.6805 80.5,47.5C 73.696,47.2315 68.0293,49.7315 63.5,55C 63.7284,55.3988 64.0618,55.5654 64.5,55.5C 63.5213,57.1454 62.188,58.4787 60.5,59.5C 60.9679,57.8868 60.3013,56.3868 58.5,55C 57.1667,54.3333 55.8333,54.3333 54.5,55C 51.0912,57.1261 49.7579,59.9594 50.5,63.5C 48.604,64.4656 46.604,64.7989 44.5,64.5C 45.209,63.596 46.209,63.2627 47.5,63.5C 47.4326,62.0413 47.7659,60.7079 48.5,59.5C 50.137,57.5248 51.8036,55.5248 53.5,53.5C 56.1873,53.6641 58.854,53.4974 61.5,53C 69.3647,43.4003 79.3647,40.2336 91.5,43.5 Z"/></g>
<g><path style="opacity:1" fill="#5a3517" d="M 111.5,62.5 C 111.062,62.4346 110.728,62.6012 110.5,63C 111.5,64 112.5,65 113.5,66C 112.906,66.4643 112.239,66.631 111.5,66.5C 109.833,64.5 108.167,62.5 106.5,60.5C 108.399,59.955 110.066,60.6216 111.5,62.5 Z"/></g>
<g><path style="opacity:1" fill="#a9a8a5" d="M 142.5,59.5 C 140.852,60.8098 139.186,62.1431 137.5,63.5C 136.702,63.0431 136.369,62.3764 136.5,61.5C 138.305,60.7629 139.971,59.7629 141.5,58.5C 142.107,58.6236 142.44,58.9569 142.5,59.5 Z"/></g>
<g><path style="opacity:1" fill="#bdbebd" d="M 14.5,67.5 C 14.5,70.1667 14.5,72.8333 14.5,75.5C 15.1099,80.3167 14.7765,82.3167 13.5,81.5C 11.901,81.2322 10.5676,81.5655 9.5,82.5C 9.16667,82.5 8.83333,82.5 8.5,82.5C 8.5,71.1667 8.5,59.8333 8.5,48.5C 9.32614,43.6835 9.82614,38.6835 10,33.5C 11.3086,35.8912 12.3086,35.8912 13,33.5C 13.1694,45.0074 13.6694,56.3407 14.5,67.5 Z"/></g>
<g><path style="opacity:1" fill="#b7906d" d="M 39.5,65.5 C 37.5887,66.075 35.922,67.075 34.5,68.5C 35.9274,65.2364 38.2608,62.7364 41.5,61C 43.1667,60.3333 44.8333,60.3333 46.5,61C 44.24,62.7883 41.9066,64.2883 39.5,65.5 Z"/></g>
<g><path style="opacity:1" fill="#743d12" d="M 107.5,67.5 C 105.436,67.313 103.436,66.813 101.5,66C 103.881,65.2615 105.881,65.7615 107.5,67.5 Z"/></g>
<g><path style="opacity:1" fill="#b06d36" d="M 110.5,48.5 C 112.856,53.3644 115.856,57.8644 119.5,62C 123.253,63.9889 127.253,64.8222 131.5,64.5C 129.964,67.0922 127.631,68.0922 124.5,67.5C 115.711,64.2719 111.044,57.9386 110.5,48.5 Z"/></g>
<g><path style="opacity:1" fill="#7a7b7c" d="M 142.5,59.5 C 143.258,61.9815 143.258,64.6481 142.5,67.5C 141.305,67.1344 140.639,66.301 140.5,65C 141.32,63.1997 141.986,61.3664 142.5,59.5 Z"/></g>
<g><path style="opacity:1" fill="#714523" d="M 81.5,61.5 C 82.209,60.596 83.209,60.2627 84.5,60.5C 84.7564,62.7925 84.4231,64.9592 83.5,67C 85.0581,67.21 86.3915,67.71 87.5,68.5C 86.5084,68.3284 85.8417,68.6618 85.5,69.5C 84.8333,69.5 84.1667,69.5 83.5,69.5C 82.9216,66.7196 82.2549,64.0529 81.5,61.5 Z"/></g>
<g><path style="opacity:1" fill="#967257" d="M 132.5,62.5 C 132.266,68.1928 129.599,69.8594 124.5,67.5C 127.631,68.0922 129.964,67.0922 131.5,64.5C 131.328,63.5084 131.662,62.8417 132.5,62.5 Z"/></g>
<g><path style="opacity:1" fill="#a06738" d="M 80.5,61.5 C 75.403,64.7476 70.403,68.2476 65.5,72C 63.5,72.6667 61.5,72.6667 59.5,72C 58.944,71.6174 58.6107,71.1174 58.5,70.5C 60.5273,70.6621 62.5273,70.4955 64.5,70C 69.1373,65.8481 74.4707,63.0148 80.5,61.5 Z"/></g>
<g><path style="opacity:1" fill="#ac6f3b" d="M 111.5,62.5 C 114.286,64.1126 116.953,65.946 119.5,68C 122.419,69.14 125.419,69.9733 128.5,70.5C 132.014,70.1763 133.681,68.1763 133.5,64.5C 134.496,64.4142 135.329,64.7476 136,65.5C 137.46,68.7478 138.626,72.0812 139.5,75.5C 139.634,77.2915 139.301,78.9582 138.5,80.5C 137.974,76.3952 136.808,72.3952 135,68.5C 134.535,69.9308 133.701,71.0975 132.5,72C 124.736,72.8099 117.736,70.9765 111.5,66.5C 112.239,66.631 112.906,66.4643 113.5,66C 112.5,65 111.5,64 110.5,63C 110.728,62.6012 111.062,62.4346 111.5,62.5 Z"/></g>
<g><path style="opacity:1" fill="#54514f" d="M 74.5,69.5 C 76.1667,69.5 77.8333,69.5 79.5,69.5C 80.8333,70.8333 82.1667,70.8333 83.5,69.5C 84.1667,69.5 84.8333,69.5 85.5,69.5C 89.6225,69.7978 93.6225,70.6311 97.5,72C 91.5376,71.5292 85.5376,71.5292 79.5,72C 83.7293,73.1146 87.7293,74.7813 91.5,77C 87.817,76.445 84.1504,75.445 80.5,74C 77.1832,73.5017 73.8499,73.335 70.5,73.5C 72.631,72.6862 74.9644,72.1862 77.5,72C 77.8333,71.6667 78.1667,71.3333 78.5,71C 76.9419,70.79 75.6085,70.29 74.5,69.5 Z"/></g>
<g><path style="opacity:1" fill="#362922" d="M 107.5,67.5 C 112.287,68.619 115.953,71.2857 118.5,75.5C 124.254,79.0617 127.754,84.0617 129,90.5C 123.166,79.3257 113.999,72.6591 101.5,70.5C 104.335,69.7994 107.335,69.6327 110.5,70C 109.429,69.1482 108.429,68.3149 107.5,67.5 Z"/></g>
<g><path style="opacity:1" fill="#ae6528" d="M 36.5,69.5 C 38.8139,70.1787 39.1472,71.512 37.5,73.5C 35.9783,74.562 34.3117,75.2287 32.5,75.5C 31.1416,73.2572 31.8083,71.5905 34.5,70.5C 35.1667,70.1667 35.8333,69.8333 36.5,69.5 Z"/></g>
<g><path style="opacity:1" fill="#724726" d="M 39.5,65.5 C 40.609,65.5569 41.609,65.8902 42.5,66.5C 41.8505,68.4352 41.5172,70.4352 41.5,72.5C 44.7877,72.927 47.7877,72.2603 50.5,70.5C 51.7224,72.9783 53.7224,73.9783 56.5,73.5C 56.3379,71.4727 56.5045,69.4727 57,67.5C 58.0386,68.2438 58.5386,69.2438 58.5,70.5C 57.6618,70.8417 57.3284,71.5084 57.5,72.5C 55.7211,74.3435 53.3878,75.0102 50.5,74.5C 48.2362,73.7814 45.9029,73.448 43.5,73.5C 43.7678,75.099 43.4345,76.4324 42.5,77.5C 42.1227,75.1759 41.1227,74.5092 39.5,75.5C 39.3444,72.9339 39.6777,70.4339 40.5,68C 38.7988,66.4152 37.4654,66.9152 36.5,69.5C 35.8333,69.8333 35.1667,70.1667 34.5,70.5C 34.5,69.8333 34.5,69.1667 34.5,68.5C 35.922,67.075 37.5887,66.075 39.5,65.5 Z"/></g>
<g><path style="opacity:1" fill="#dcdada" d="M 85.5,69.5 C 85.8417,68.6618 86.5084,68.3284 87.5,68.5C 92.2999,68.3497 96.9666,69.0164 101.5,70.5C 113.999,72.6591 123.166,79.3257 129,90.5C 127.754,84.0617 124.254,79.0617 118.5,75.5C 119.097,74.8614 119.93,74.528 121,74.5C 123.896,75.3666 126.729,76.3666 129.5,77.5C 131.74,80.8796 133.407,84.5463 134.5,88.5C 135.159,91.4552 135.492,94.4552 135.5,97.5C 136.675,107.791 134.842,117.457 130,126.5C 128.667,127.833 127.333,129.167 126,130.5C 126.418,125.535 126.418,120.535 126,115.5C 124.74,121.28 123.073,126.947 121,132.5C 117.345,139.07 111.845,141.237 104.5,139C 103.069,138.535 101.903,137.701 101,136.5C 102.02,133.818 102.52,129.151 102.5,122.5C 102.662,117.372 101.995,112.372 100.5,107.5C 100.543,106.584 100.876,105.917 101.5,105.5C 103.29,109.366 104.79,113.366 106,117.5C 107.177,102.65 101.677,91.1503 89.5,83C 85.0419,80.8594 80.3752,80.1928 75.5,81C 78.0635,81.763 78.0635,82.263 75.5,82.5C 73.7284,81.6401 72.3951,80.3068 71.5,78.5C 70.0171,81.4275 68.6838,84.4275 67.5,87.5C 64.5701,88.299 61.5701,88.6323 58.5,88.5C 57.7611,88.631 57.0944,88.4643 56.5,88C 59.1071,85.9343 61.1071,83.4343 62.5,80.5C 63.0831,75.8644 65.7497,73.5311 70.5,73.5C 73.8499,73.335 77.1832,73.5017 80.5,74C 84.1504,75.445 87.817,76.445 91.5,77C 87.7293,74.7813 83.7293,73.1146 79.5,72C 85.5376,71.5292 91.5376,71.5292 97.5,72C 93.6225,70.6311 89.6225,69.7978 85.5,69.5 Z"/></g>
<g><path style="opacity:1" fill="#999a9a" d="M 150.5,72.5 C 149.89,73.391 149.557,74.391 149.5,75.5C 148.21,77.14 146.543,77.64 144.5,77C 146.333,75.1667 148.167,73.3333 150,71.5C 150.399,71.7284 150.565,72.0618 150.5,72.5 Z"/></g>
<g><path style="opacity:0.749" fill="#d4c6a7" d="M 168.5,40.5 C 169.247,54.0994 170.58,67.7661 172.5,81.5C 172.817,85.7016 172.483,89.7016 171.5,93.5C 171.666,85.8261 171.5,78.1594 171,70.5C 170.329,69.7476 169.496,69.4142 168.5,69.5C 168.5,59.8333 168.5,50.1667 168.5,40.5 Z"/></g>
<g><path style="opacity:1" fill="#d29e6e" d="M 34.5,68.5 C 34.5,69.1667 34.5,69.8333 34.5,70.5C 31.8083,71.5905 31.1416,73.2572 32.5,75.5C 31.4324,76.4345 30.099,76.7678 28.5,76.5C 28.5,75.5 28.5,74.5 28.5,73.5C 30.5,71.8333 32.5,70.1667 34.5,68.5 Z"/></g>
<g><path style="opacity:1" fill="#9a693f" d="M 39.5,75.5 C 36.5647,75.7167 33.7313,76.3834 31,77.5C 29.9302,77.472 29.0968,77.1386 28.5,76.5C 30.099,76.7678 31.4324,76.4345 32.5,75.5C 34.3117,75.2287 35.9783,74.562 37.5,73.5C 39.1472,71.512 38.8139,70.1787 36.5,69.5C 37.4654,66.9152 38.7988,66.4152 40.5,68C 39.6777,70.4339 39.3444,72.9339 39.5,75.5 Z"/></g>
<g><path style="opacity:1" fill="#665d56" d="M 57.5,72.5 C 58.2674,73.172 58.9341,74.0053 59.5,75C 55.6402,75.1048 51.9735,75.9382 48.5,77.5C 48.1667,77.3333 47.8333,77.1667 47.5,77C 48.5707,76.1482 49.5707,75.3149 50.5,74.5C 53.3878,75.0102 55.7211,74.3435 57.5,72.5 Z"/></g>
<g><path style="opacity:1" fill="#1c1b1a" d="M 80.5,61.5 C 80.8333,61.5 81.1667,61.5 81.5,61.5C 82.2549,64.0529 82.9216,66.7196 83.5,69.5C 82.1667,70.8333 80.8333,70.8333 79.5,69.5C 78.5814,63.3203 76.9147,63.3203 74.5,69.5C 75.6085,70.29 76.9419,70.79 78.5,71C 78.1667,71.3333 77.8333,71.6667 77.5,72C 74.9644,72.1862 72.631,72.6862 70.5,73.5C 65.7497,73.5311 63.0831,75.8644 62.5,80.5C 59.5145,83.8247 55.8478,85.8247 51.5,86.5C 48.8544,84.5211 46.5211,82.1878 44.5,79.5C 42.6396,80.2599 40.973,81.2599 39.5,82.5C 39.2089,81.3509 38.3756,80.6842 37,80.5C 34.8255,80.8339 32.9921,81.8339 31.5,83.5C 29.8333,82.1667 28.1667,80.8333 26.5,79.5C 28.1603,78.9268 29.9937,78.9268 32,79.5C 34.4544,79.2409 36.4544,78.2409 38,76.5C 39.4397,77.1476 40.9397,77.4809 42.5,77.5C 43.4345,76.4324 43.7678,75.099 43.5,73.5C 45.9029,73.448 48.2362,73.7814 50.5,74.5C 49.5707,75.3149 48.5707,76.1482 47.5,77C 47.8333,77.1667 48.1667,77.3333 48.5,77.5C 51.9735,75.9382 55.6402,75.1048 59.5,75C 58.9341,74.0053 58.2674,73.172 57.5,72.5C 57.3284,71.5084 57.6618,70.8417 58.5,70.5C 58.6107,71.1174 58.944,71.6174 59.5,72C 61.5,72.6667 63.5,72.6667 65.5,72C 70.403,68.2476 75.403,64.7476 80.5,61.5 Z"/></g>
<g><path style="opacity:1" fill="#dfe4e5" d="M 79.5,69.5 C 77.8333,69.5 76.1667,69.5 74.5,69.5C 76.9147,63.3203 78.5814,63.3203 79.5,69.5 Z"/></g>
<g><path style="opacity:1" fill="#633c1b" d="M 135.5,88.5 C 135.167,88.5 134.833,88.5 134.5,88.5C 133.407,84.5463 131.74,80.8796 129.5,77.5C 129.369,76.7611 129.536,76.0944 130,75.5C 132.708,79.456 134.541,83.7894 135.5,88.5 Z"/></g>
<g><path style="opacity:1" fill="#d1cfcf" d="M 150.5,84.5 C 150.842,85.3382 151.508,85.6716 152.5,85.5C 152.5,86.1667 152.167,86.5 151.5,86.5C 149.396,86.7989 147.396,86.4656 145.5,85.5C 146.714,83.2458 148.381,82.9125 150.5,84.5 Z"/></g>
<g><path style="opacity:1" fill="#999999" d="M 62.5,80.5 C 61.1071,83.4343 59.1071,85.9343 56.5,88C 57.0944,88.4643 57.7611,88.631 58.5,88.5C 57.0903,89.8284 55.9236,89.4951 55,87.5C 54.7216,88.4158 54.2216,89.0825 53.5,89.5C 53.2178,88.2223 52.5511,87.2223 51.5,86.5C 55.8478,85.8247 59.5145,83.8247 62.5,80.5 Z"/></g>
<g><path style="opacity:1" fill="#969897" d="M 44.5,90.5 C 43.2101,89.9423 42.3768,88.9423 42,87.5C 41.3603,89.265 41.5269,90.9317 42.5,92.5C 40.2911,93.9758 38.9577,93.3091 38.5,90.5C 39.9591,81.2452 41.9591,81.2452 44.5,90.5 Z"/></g>
<g><path style="opacity:1" fill="#cbbb99" d="M 8.5,22.5 C 8.5,23.1667 8.5,23.8333 8.5,24.5C 8.5,32.5 8.5,40.5 8.5,48.5C 8.5,59.8333 8.5,71.1667 8.5,82.5C 8.81741,85.5719 8.48408,88.5719 7.5,91.5C 6.80762,90.9747 6.30762,90.3081 6,89.5C 5.69968,95.5036 5.86634,101.504 6.5,107.5C 4.90566,101.406 4.23899,95.0723 4.5,88.5C 4.19967,81.1044 4.69967,73.771 6,66.5C 6.33333,66.8333 6.66667,67.1667 7,67.5C 7.49971,59.5069 7.66638,51.5069 7.5,43.5C 7.17547,36.3134 7.50881,29.3134 8.5,22.5 Z"/></g>
<g><path style="opacity:1" fill="#e8e8e8" d="M 44.5,90.5 C 44.1667,91.5 43.5,92.1667 42.5,92.5C 41.5269,90.9317 41.3603,89.265 42,87.5C 42.3768,88.9423 43.2101,89.9423 44.5,90.5 Z"/></g>
<g><path style="opacity:1" fill="#8d8b8b" d="M 47.5,90.5 C 48.5676,89.5655 49.901,89.2322 51.5,89.5C 52.6715,90.3446 54.0048,91.0113 55.5,91.5C 55.189,92.4778 54.5223,93.1445 53.5,93.5C 52.3044,93.1543 52.3044,92.6543 53.5,92C 51.8659,91.5065 50.1992,91.3398 48.5,91.5C 48.5,90.8333 48.1667,90.5 47.5,90.5 Z"/></g>
<g><path style="opacity:1" fill="#413f40" d="M 58.5,88.5 C 61.5701,88.6323 64.5701,88.299 67.5,87.5C 68.404,88.209 68.7373,89.209 68.5,90.5C 66.0799,90.7076 63.7466,90.3742 61.5,89.5C 59.6639,90.0276 57.9972,90.6942 56.5,91.5C 56.1667,91.5 55.8333,91.5 55.5,91.5C 54.0048,91.0113 52.6715,90.3446 51.5,89.5C 52.1667,89.5 52.8333,89.5 53.5,89.5C 54.2216,89.0825 54.7216,88.4158 55,87.5C 55.9236,89.4951 57.0903,89.8284 58.5,88.5 Z"/></g>
<g><path style="opacity:1" fill="#c8c8c8" d="M 51.5,86.5 C 52.5511,87.2223 53.2178,88.2223 53.5,89.5C 52.8333,89.5 52.1667,89.5 51.5,89.5C 49.901,89.2322 48.5676,89.5655 47.5,90.5C 46.5,90.5 45.5,90.5 44.5,90.5C 41.9591,81.2452 39.9591,81.2452 38.5,90.5C 37.5082,92.4561 36.5082,94.4561 35.5,96.5C 34.3773,98.688 34.3773,101.021 35.5,103.5C 35.9065,106.719 35.9065,109.719 35.5,112.5C 34.9695,110.076 34.1362,107.743 33,105.5C 32.3333,102.833 32.3333,100.167 33,97.5C 34.9945,92.3668 37.1612,87.3668 39.5,82.5C 40.973,81.2599 42.6396,80.2599 44.5,79.5C 46.5211,82.1878 48.8544,84.5211 51.5,86.5 Z"/></g>
<g><path style="opacity:1" fill="#dbdadb" d="M 48.5,91.5 C 50.1992,91.3398 51.8659,91.5065 53.5,92C 52.3044,92.6543 52.3044,93.1543 53.5,93.5C 54.5223,93.1445 55.189,92.4778 55.5,91.5C 55.8333,91.5 56.1667,91.5 56.5,91.5C 60.5403,91.6488 64.5403,92.1488 68.5,93C 71.4645,95.8097 74.7978,97.9764 78.5,99.5C 80.9635,101.461 83.2968,103.628 85.5,106C 86.448,106.483 87.448,106.649 88.5,106.5C 93.5472,108.098 93.0472,109.431 87,110.5C 79.5725,106.426 71.7392,103.259 63.5,101C 54.6203,100.264 45.9536,100.764 37.5,102.5C 35.9261,100.898 35.2594,98.8984 35.5,96.5C 39.9393,95.8075 44.2727,94.1409 48.5,91.5 Z"/></g>
<g><path style="opacity:1" fill="#868483" d="M 152.5,85.5 C 153.973,86.072 155.307,86.9054 156.5,88C 154.76,89.517 153.094,91.017 151.5,92.5C 149.761,93.4339 148.095,93.4339 146.5,92.5C 148.732,90.3549 151.399,88.8549 154.5,88C 153.263,87.7679 152.263,87.2679 151.5,86.5C 152.167,86.5 152.5,86.1667 152.5,85.5 Z"/></g>
<g><path style="opacity:1" fill="#555454" d="M 38.5,90.5 C 38.9577,93.3091 40.2911,93.9758 42.5,92.5C 43.5,92.1667 44.1667,91.5 44.5,90.5C 45.5,90.5 46.5,90.5 47.5,90.5C 48.1667,90.5 48.5,90.8333 48.5,91.5C 44.2727,94.1409 39.9393,95.8075 35.5,96.5C 36.5082,94.4561 37.5082,92.4561 38.5,90.5 Z"/></g>
<g><path style="opacity:1" fill="#929090" d="M 112.5,81.5 C 112.897,80.475 113.563,80.3083 114.5,81C 122.353,88.2078 126.853,97.0411 128,107.5C 126.891,103.281 125.225,99.2807 123,95.5C 122.833,96 122.667,96.5 122.5,97C 123.597,102.46 123.764,107.96 123,113.5C 122.419,105.247 120.752,97.247 118,89.5C 116.694,86.3793 114.86,83.7126 112.5,81.5 Z"/></g>
<g><path style="opacity:1" fill="#9c9b9b" d="M 101.5,105.5 C 102.097,105.265 102.43,104.765 102.5,104C 98.8175,93.1079 91.6508,85.6079 81,81.5C 79.2785,81.6107 79.1118,82.1107 80.5,83C 78.0261,83.0367 76.0261,83.87 74.5,85.5C 74.4326,86.9587 74.7659,88.2921 75.5,89.5C 76.3235,91.4546 76.4901,93.4546 76,95.5C 74.8867,93.6707 73.3867,92.8374 71.5,93C 73.5008,95.3245 75.8342,97.1579 78.5,98.5C 78.5,98.8333 78.5,99.1667 78.5,99.5C 74.7978,97.9764 71.4645,95.8097 68.5,93C 64.5403,92.1488 60.5403,91.6488 56.5,91.5C 57.9972,90.6942 59.6639,90.0276 61.5,89.5C 63.7466,90.3742 66.0799,90.7076 68.5,90.5C 68.7373,89.209 68.404,88.209 67.5,87.5C 68.6838,84.4275 70.0171,81.4275 71.5,78.5C 72.3951,80.3068 73.7284,81.6401 75.5,82.5C 78.0635,82.263 78.0635,81.763 75.5,81C 80.3752,80.1928 85.0419,80.8594 89.5,83C 101.677,91.1503 107.177,102.65 106,117.5C 104.79,113.366 103.29,109.366 101.5,105.5 Z"/></g>
<g><path style="opacity:1" fill="#959393" d="M 77.5,89.5 C 77.8333,89.5 78.1667,89.5 78.5,89.5C 80.1264,92.2457 80.7931,95.2457 80.5,98.5C 79.8333,98.5 79.1667,98.5 78.5,98.5C 78.0371,95.5176 77.7038,92.5176 77.5,89.5 Z"/></g>
<g><path style="opacity:1" fill="#363333" d="M 75.5,89.5 C 76.1667,89.5 76.8333,89.5 77.5,89.5C 77.7038,92.5176 78.0371,95.5176 78.5,98.5C 75.8342,97.1579 73.5008,95.3245 71.5,93C 73.3867,92.8374 74.8867,93.6707 76,95.5C 76.4901,93.4546 76.3235,91.4546 75.5,89.5 Z"/></g>
<g><path style="opacity:1" fill="#f1efee" d="M 83.5,88.5 C 84.7505,91.9382 84.4172,95.2716 82.5,98.5C 81.6043,99.5063 80.9377,99.5063 80.5,98.5C 80.7931,95.2457 80.1264,92.2457 78.5,89.5C 79.9955,87.655 81.6621,87.3217 83.5,88.5 Z"/></g>
<g><path style="opacity:1" fill="#e7e8e8" d="M 85.5,88.5 C 86.5,88.5 87.5,88.5 88.5,88.5C 88.8333,89.1667 89.1667,89.8333 89.5,90.5C 89.6254,93.6082 88.2921,95.6082 85.5,96.5C 85.5,93.8333 85.5,91.1667 85.5,88.5 Z"/></g>
<g><path style="opacity:1" fill="#734145" d="M 88.5,88.5 C 87.5,88.5 86.5,88.5 85.5,88.5C 84.8333,88.5 84.1667,88.5 83.5,88.5C 81.6621,87.3217 79.9955,87.655 78.5,89.5C 78.1667,89.5 77.8333,89.5 77.5,89.5C 76.8333,89.5 76.1667,89.5 75.5,89.5C 74.7659,88.2921 74.4326,86.9587 74.5,85.5C 77.4686,84.6713 80.4686,84.5046 83.5,85C 85.8808,85.2233 87.5475,86.39 88.5,88.5 Z"/></g>
<g><path style="opacity:1" fill="#f6f4f5" d="M 70.5,82.5 C 71.1174,82.6107 71.6174,82.944 72,83.5C 72.8184,86.2272 72.6517,88.8938 71.5,91.5C 70.1195,91.0004 69.4528,90.0004 69.5,88.5C 70.1556,86.5466 70.4889,84.5466 70.5,82.5 Z"/></g>
<g><path style="opacity:1" fill="#96663d" d="M 139.5,75.5 C 140.795,79.2671 141.461,83.2671 141.5,87.5C 141.631,88.2389 141.464,88.9056 141,89.5C 140.667,87.8333 140.333,86.1667 140,84.5C 139.501,89.4889 139.334,94.4889 139.5,99.5C 139.66,101.199 139.494,102.866 139,104.5C 138.021,99.1056 136.855,93.7723 135.5,88.5C 136.966,89.347 137.8,90.6803 138,92.5C 138.499,88.5138 138.666,84.5138 138.5,80.5C 139.301,78.9582 139.634,77.2915 139.5,75.5 Z"/></g>
<g><path style="opacity:1" fill="#7a7b7a" d="M 83.5,88.5 C 84.1667,88.5 84.8333,88.5 85.5,88.5C 85.5,91.1667 85.5,93.8333 85.5,96.5C 84.8333,98.1667 84.1667,99.8333 83.5,101.5C 82.596,100.791 82.2627,99.791 82.5,98.5C 84.4172,95.2716 84.7505,91.9382 83.5,88.5 Z"/></g>
<g><path style="opacity:1" fill="#70706d" d="M 161.5,80.5 C 161.335,83.8499 161.502,87.1832 162,90.5C 165.188,87.783 167.021,84.4497 167.5,80.5C 167.819,85.3633 167.486,90.03 166.5,94.5C 166.565,94.0618 166.399,93.7284 166,93.5C 164.732,95.7173 163.232,97.7173 161.5,99.5C 160.507,94.8804 160.173,90.2137 160.5,85.5C 160.216,83.5853 160.549,81.9187 161.5,80.5 Z"/></g>
<g><path style="opacity:1" fill="#898989" d="M 89.5,90.5 C 90.1174,90.6107 90.6174,90.944 91,91.5C 92.1679,95.5057 93.3345,99.5057 94.5,103.5C 92.9303,105.379 91.2637,105.712 89.5,104.5C 90.6491,104.209 91.3158,103.376 91.5,102C 91.1416,99.9676 90.3083,98.1343 89,96.5C 88.5026,99.146 88.3359,101.813 88.5,104.5C 88.1667,104.5 87.8333,104.5 87.5,104.5C 87.4162,101.673 86.7496,99.006 85.5,96.5C 88.2921,95.6082 89.6254,93.6082 89.5,90.5 Z"/></g>
<g><path style="opacity:1" fill="#f1f0f0" d="M 85.5,96.5 C 86.7496,99.006 87.4162,101.673 87.5,104.5C 85.5956,104.262 84.2623,103.262 83.5,101.5C 84.1667,99.8333 84.8333,98.1667 85.5,96.5 Z"/></g>
<g><path style="opacity:1" fill="#e2e1e1" d="M 89.5,104.5 C 89.1667,104.5 88.8333,104.5 88.5,104.5C 88.3359,101.813 88.5026,99.146 89,96.5C 90.3083,98.1343 91.1416,99.9676 91.5,102C 91.3158,103.376 90.6491,104.209 89.5,104.5 Z"/></g>
<g><path style="opacity:1" fill="#7e7e80" d="M 14.5,75.5 C 14.8333,75.5 15.1667,75.5 15.5,75.5C 15.9127,83.5322 16.5793,91.5322 17.5,99.5C 17.8016,102.059 17.4682,104.393 16.5,106.5C 15.7249,101.516 15.0582,96.5157 14.5,91.5C 12.64,92.0715 10.9733,92.0715 9.5,91.5C 9.5,88.5 9.5,85.5 9.5,82.5C 10.5676,81.5655 11.901,81.2322 13.5,81.5C 14.7765,82.3167 15.1099,80.3167 14.5,75.5 Z"/></g>
<g><path style="opacity:1" fill="#41403e" d="M 9.5,91.5 C 10.9733,92.0715 12.64,92.0715 14.5,91.5C 15.0582,96.5157 15.7249,101.516 16.5,106.5C 15.7677,105.192 14.9344,103.858 14,102.5C 13.586,102.957 13.086,103.291 12.5,103.5C 11.224,98.3183 10.5573,98.3183 10.5,103.5C 9.51658,99.7016 9.18325,95.7016 9.5,91.5 Z"/></g>
<g><path style="opacity:1" fill="#bbbabb" d="M 150.5,102.5 C 151.167,103.5 151.833,104.5 152.5,105.5C 149.553,104.027 146.553,102.527 143.5,101C 144.108,100.13 144.941,99.6301 146,99.5C 147.643,100.315 149.143,101.315 150.5,102.5 Z"/></g>
<g><path style="opacity:1" fill="#191919" d="M 35.5,96.5 C 35.2594,98.8984 35.9261,100.898 37.5,102.5C 38.3171,104.478 39.8171,105.478 42,105.5C 49.4675,104.585 56.9675,104.252 64.5,104.5C 59.8333,105.167 55.1667,105.833 50.5,106.5C 47.1226,106.068 44.1226,106.735 41.5,108.5C 40.8333,107.833 40.1667,107.167 39.5,106.5C 37.8595,105.853 36.5261,104.853 35.5,103.5C 34.3773,101.021 34.3773,98.688 35.5,96.5 Z"/></g>
<g><path style="opacity:1" fill="#9f9f9f" d="M 35.5,103.5 C 36.5261,104.853 37.8595,105.853 39.5,106.5C 39.7205,112.71 39.7205,118.71 39.5,124.5C 38.3643,120.426 37.031,116.426 35.5,112.5C 35.9065,109.719 35.9065,106.719 35.5,103.5 Z"/></g>
<g><path style="opacity:1" fill="#424242" d="M 64.5,104.5 C 67.9466,104.814 71.2799,105.648 74.5,107C 75.6956,107.654 75.6956,108.154 74.5,108.5C 73.2054,107.902 71.8721,107.402 70.5,107C 63.8417,106.5 57.175,106.334 50.5,106.5C 55.1667,105.833 59.8333,105.167 64.5,104.5 Z"/></g>
<g><path style="opacity:1" fill="#b39e78" d="M 168.5,69.5 C 169.496,69.4142 170.329,69.7476 171,70.5C 171.5,78.1594 171.666,85.8261 171.5,93.5C 171.806,96.3854 171.473,99.0521 170.5,101.5C 170.666,95.4908 170.499,89.4908 170,83.5C 169.373,96.0656 167.373,108.399 164,120.5C 163.51,119.207 163.343,117.873 163.5,116.5C 164.49,111.919 165.157,107.253 165.5,102.5C 166.473,100.052 166.806,97.3854 166.5,94.5C 167.486,90.03 167.819,85.3633 167.5,80.5C 167.942,76.8455 168.276,73.1788 168.5,69.5 Z"/></g>
<g><path style="opacity:1" fill="#dcdadb" d="M 49.5,129.5 C 49.8333,130.833 50.1667,132.167 50.5,133.5C 49.791,134.404 48.791,134.737 47.5,134.5C 42.7235,127.64 40.7235,119.973 41.5,111.5C 52.7623,109.004 64.0957,108.838 75.5,111C 82.2275,114.065 86.3942,119.231 88,126.5C 88,123.833 88,121.167 88,118.5C 91.6123,123.662 92.9456,129.329 92,135.5C 87.182,142.09 82.182,142.09 77,135.5C 73.8061,130.446 71.1394,125.112 69,119.5C 69.3502,126.394 70.8502,133.06 73.5,139.5C 68.223,140.069 63.223,139.235 58.5,137C 53.4473,131.609 49.614,125.443 47,118.5C 46.7456,122.477 47.5789,126.144 49.5,129.5 Z"/></g>
<g><path style="opacity:1" fill="#979797" d="M 88.5,106.5 C 90.8333,106.5 93.1667,106.5 95.5,106.5C 96.6065,118.438 96.6065,130.438 95.5,142.5C 95.2648,141.903 94.7648,141.57 94,141.5C 89.3518,142.087 84.8518,142.754 80.5,143.5C 78.1644,141.996 76.331,139.996 75,137.5C 75.1212,140.664 76.6212,143.164 79.5,145C 70.2508,148.303 62.2508,146.47 55.5,139.5C 53.8061,135.346 51.8061,132.013 49.5,129.5C 47.5789,126.144 46.7456,122.477 47,118.5C 49.614,125.443 53.4473,131.609 58.5,137C 63.223,139.235 68.223,140.069 73.5,139.5C 70.8502,133.06 69.3502,126.394 69,119.5C 71.1394,125.112 73.8061,130.446 77,135.5C 82.182,142.09 87.182,142.09 92,135.5C 92.9456,129.329 91.6123,123.662 88,118.5C 88,121.167 88,123.833 88,126.5C 86.3942,119.231 82.2275,114.065 75.5,111C 64.0957,108.838 52.7623,109.004 41.5,111.5C 41.5,110.5 41.5,109.5 41.5,108.5C 44.1226,106.735 47.1226,106.068 50.5,106.5C 57.175,106.334 63.8417,106.5 70.5,107C 71.8721,107.402 73.2054,107.902 74.5,108.5C 75.6956,108.154 75.6956,107.654 74.5,107C 71.2799,105.648 67.9466,104.814 64.5,104.5C 56.9675,104.252 49.4675,104.585 42,105.5C 39.8171,105.478 38.3171,104.478 37.5,102.5C 45.9536,100.764 54.6203,100.264 63.5,101C 71.7392,103.259 79.5725,106.426 87,110.5C 93.0472,109.431 93.5472,108.098 88.5,106.5 Z"/></g>
<g><path style="opacity:1" fill="#cdcdcd" d="M 144.5,119.5 C 144.5,119.833 144.5,120.167 144.5,120.5C 144.5,120.833 144.5,121.167 144.5,121.5C 142.521,120.188 140.855,118.521 139.5,116.5C 140.002,115.479 140.668,115.312 141.5,116C 142.636,117.145 143.636,118.312 144.5,119.5 Z"/></g>
<g><path style="opacity:1" fill="#646464" d="M 144.5,120.5 C 145.954,121.52 146.287,122.687 145.5,124C 143.19,124.497 140.857,124.663 138.5,124.5C 136.621,124.607 136.288,124.107 137.5,123C 140.036,122.814 142.369,122.314 144.5,121.5C 144.5,121.167 144.5,120.833 144.5,120.5 Z"/></g>
<g><path style="opacity:1" fill="#9c8a67" d="M 8.5,82.5 C 8.83333,82.5 9.16667,82.5 9.5,82.5C 9.5,85.5 9.5,88.5 9.5,91.5C 9.18325,95.7016 9.51658,99.7016 10.5,103.5C 12.4842,118.447 16.4842,132.781 22.5,146.5C 21.9033,146.735 21.5699,147.235 21.5,148C 25.1546,156.146 30.1546,163.313 36.5,169.5C 36.0431,170.298 35.3764,170.631 34.5,170.5C 18.3977,152.619 9.06437,131.619 6.5,107.5C 5.86634,101.504 5.69968,95.5036 6,89.5C 6.30762,90.3081 6.80762,90.9747 7.5,91.5C 8.48408,88.5719 8.81741,85.5719 8.5,82.5 Z"/></g>
<g><path style="opacity:1" fill="#605f61" d="M 17.5,99.5 C 17.8333,99.5 18.1667,99.5 18.5,99.5C 18.8011,112.368 21.4677,124.701 26.5,136.5C 25.6043,135.494 24.9377,135.494 24.5,136.5C 20.1359,127.059 17.4692,117.059 16.5,106.5C 17.4682,104.393 17.8016,102.059 17.5,99.5 Z"/></g>
<g><path style="opacity:1" fill="#231f1d" d="M 165.5,102.5 C 165.157,107.253 164.49,111.919 163.5,116.5C 160.662,129.674 155.662,142.007 148.5,153.5C 147.833,153.5 147.5,153.833 147.5,154.5C 146.378,152.712 146.211,150.712 147,148.5C 153.178,135.458 157.344,121.791 159.5,107.5C 160.5,107.5 161.5,107.5 162.5,107.5C 162.575,104.593 163.409,101.927 165,99.5C 165.483,100.448 165.649,101.448 165.5,102.5 Z"/></g>
<g><path style="opacity:1" fill="#9e8c69" d="M 170.5,101.5 C 168.856,120.767 162.856,138.433 152.5,154.5C 151.597,152.38 150.263,152.046 148.5,153.5C 155.662,142.007 160.662,129.674 163.5,116.5C 163.343,117.873 163.51,119.207 164,120.5C 167.373,108.399 169.373,96.0656 170,83.5C 170.499,89.4908 170.666,95.4908 170.5,101.5 Z"/></g>
<g><path style="opacity:1" fill="#9f9f9f" d="M 40.5,125.5 C 42.9467,130.876 46.28,135.709 50.5,140C 50.2716,140.399 49.9382,140.565 49.5,140.5C 47.2843,139.797 45.451,138.464 44,136.5C 42.3262,132.979 41.1596,129.313 40.5,125.5 Z"/></g>
<g><path style="opacity:1" fill="#3b3b3b" d="M 55.5,139.5 C 53.3567,137.869 51.69,135.869 50.5,133.5C 50.1667,132.167 49.8333,130.833 49.5,129.5C 51.8061,132.013 53.8061,135.346 55.5,139.5 Z"/></g>
<g><path style="opacity:1" fill="#110f0d" d="M 16.5,106.5 C 17.4692,117.059 20.1359,127.059 24.5,136.5C 25.9517,141.403 27.9517,146.07 30.5,150.5C 30.6495,151.552 30.4828,152.552 30,153.5C 29.0138,152.829 27.8471,152.829 26.5,153.5C 25.4161,150.996 24.0828,148.663 22.5,146.5C 16.4842,132.781 12.4842,118.447 10.5,103.5C 10.5573,98.3183 11.224,98.3183 12.5,103.5C 13.086,103.291 13.586,102.957 14,102.5C 14.9344,103.858 15.7677,105.192 16.5,106.5 Z"/></g>
<g><path style="opacity:1" fill="#a5a5a5" d="M 50.5,133.5 C 51.69,135.869 53.3567,137.869 55.5,139.5C 56.1157,140.798 56.1157,141.798 55.5,142.5C 55.1667,142.5 54.8333,142.5 54.5,142.5C 52.1667,139.833 49.8333,137.167 47.5,134.5C 48.791,134.737 49.791,134.404 50.5,133.5 Z"/></g>
<g><path style="opacity:1" fill="#515151" d="M 133.5,134.5 C 136.53,140.142 134.864,141.808 128.5,139.5C 128.47,138.503 128.97,137.836 130,137.5C 131.162,138.187 132.328,138.353 133.5,138C 132.209,136.708 132.209,135.542 133.5,134.5 Z"/></g>
<g><path style="opacity:1" fill="#363636" d="M 39.5,106.5 C 40.1667,107.167 40.8333,107.833 41.5,108.5C 41.5,109.5 41.5,110.5 41.5,111.5C 40.7235,119.973 42.7235,127.64 47.5,134.5C 49.8333,137.167 52.1667,139.833 54.5,142.5C 52.5654,143.709 50.5654,143.542 48.5,142C 49.056,141.617 49.3893,141.117 49.5,140.5C 49.9382,140.565 50.2716,140.399 50.5,140C 46.28,135.709 42.9467,130.876 40.5,125.5C 39.8333,125.5 39.5,125.167 39.5,124.5C 39.7205,118.71 39.7205,112.71 39.5,106.5 Z"/></g>
<g><path style="opacity:1" fill="#828284" d="M 26.5,136.5 C 30.2083,146.524 35.5416,155.524 42.5,163.5C 42.631,164.239 42.4643,164.906 42,165.5C 39.932,163.604 38.0987,161.604 36.5,159.5C 34.4667,156.477 32.4667,153.477 30.5,150.5C 27.9517,146.07 25.9517,141.403 24.5,136.5C 24.9377,135.494 25.6043,135.494 26.5,136.5 Z"/></g>
<g><path style="opacity:1" fill="#474847" d="M 159.5,85.5 C 159.833,85.5 160.167,85.5 160.5,85.5C 160.173,90.2137 160.507,94.8804 161.5,99.5C 163.232,97.7173 164.732,95.7173 166,93.5C 166.399,93.7284 166.565,94.0618 166.5,94.5C 166.806,97.3854 166.473,100.052 165.5,102.5C 165.649,101.448 165.483,100.448 165,99.5C 163.409,101.927 162.575,104.593 162.5,107.5C 161.5,107.5 160.5,107.5 159.5,107.5C 157.344,121.791 153.178,135.458 147,148.5C 146.211,150.712 146.378,152.712 147.5,154.5C 145.549,157.786 143.215,160.786 140.5,163.5C 140.028,161.469 139.028,159.802 137.5,158.5C 140.989,152.861 144.489,147.195 148,141.5C 154.685,123.426 158.518,104.76 159.5,85.5 Z"/></g>
<g><path style="opacity:1" fill="#1c1b1b" d="M 134.5,56.5 C 135.167,58.1667 135.833,59.8333 136.5,61.5C 136.369,62.3764 136.702,63.0431 137.5,63.5C 139.186,62.1431 140.852,60.8098 142.5,59.5C 141.986,61.3664 141.32,63.1997 140.5,65C 140.639,66.301 141.305,67.1344 142.5,67.5C 142.5,67.8333 142.5,68.1667 142.5,68.5C 141.15,69.8235 141.317,70.8235 143,71.5C 145.111,70.5279 147.278,69.6946 149.5,69C 148.906,68.5357 148.239,68.369 147.5,68.5C 148.919,67.5489 150.585,67.2155 152.5,67.5C 152.598,69.5529 151.931,71.2196 150.5,72.5C 150.565,72.0618 150.399,71.7284 150,71.5C 148.167,73.3333 146.333,75.1667 144.5,77C 146.543,77.64 148.21,77.14 149.5,75.5C 150.299,78.4299 150.632,81.4299 150.5,84.5C 148.381,82.9125 146.714,83.2458 145.5,85.5C 147.396,86.4656 149.396,86.7989 151.5,86.5C 152.263,87.2679 153.263,87.7679 154.5,88C 151.399,88.8549 148.732,90.3549 146.5,92.5C 148.095,93.4339 149.761,93.4339 151.5,92.5C 151.658,95.9023 151.324,99.2356 150.5,102.5C 149.143,101.315 147.643,100.315 146,99.5C 144.941,99.6301 144.108,100.13 143.5,101C 146.553,102.527 149.553,104.027 152.5,105.5C 153.718,107.332 153.051,108.332 150.5,108.5C 150.611,107.883 150.944,107.383 151.5,107C 148.446,106.179 145.446,106.345 142.5,107.5C 142.709,108.086 143.043,108.586 143.5,109C 145.425,108.865 147.425,108.698 149.5,108.5C 148.391,112.527 146.724,116.193 144.5,119.5C 143.636,118.312 142.636,117.145 141.5,116C 140.668,115.312 140.002,115.479 139.5,116.5C 140.855,118.521 142.521,120.188 144.5,121.5C 142.369,122.314 140.036,122.814 137.5,123C 136.288,124.107 136.621,124.607 138.5,124.5C 139.263,125.268 140.263,125.768 141.5,126C 140.009,128.494 138.509,130.994 137,133.5C 135.989,134.337 134.822,134.67 133.5,134.5C 132.209,135.542 132.209,136.708 133.5,138C 132.328,138.353 131.162,138.187 130,137.5C 128.97,137.836 128.47,138.503 128.5,139.5C 128.5,140.5 128.5,141.5 128.5,142.5C 123.007,144.161 119.34,147.661 117.5,153C 116.563,153.692 115.897,153.525 115.5,152.5C 114.577,148.736 112.244,147.236 108.5,148C 110.093,148.949 111.426,150.115 112.5,151.5C 108.779,152.882 104.945,154.216 101,155.5C 100.768,154.263 100.268,153.263 99.5,152.5C 99.7373,151.209 99.404,150.209 98.5,149.5C 95.3052,147.118 92.4719,147.785 90,151.5C 90.0579,153.435 90.8912,155.102 92.5,156.5C 87.8918,157.626 83.5585,157.626 79.5,156.5C 80.355,155.469 81.0217,154.303 81.5,153C 81.4301,152.235 81.0967,151.735 80.5,151.5C 79.0804,148.651 77.0804,147.984 74.5,149.5C 71.3178,150.617 70.6511,152.617 72.5,155.5C 69.1563,154.492 65.8229,153.492 62.5,152.5C 63.209,151.596 64.209,151.263 65.5,151.5C 65.719,150.325 65.3857,149.325 64.5,148.5C 63.2997,149.531 61.9663,150.365 60.5,151C 59.2617,151.69 59.2617,152.19 60.5,152.5C 59.3588,153.339 58.0255,154.006 56.5,154.5C 55.218,153.042 55.218,151.708 56.5,150.5C 58.1317,149.804 59.465,148.138 60.5,145.5C 59.675,144.614 58.675,144.281 57.5,144.5C 56.8333,143.833 56.1667,143.167 55.5,142.5C 56.1157,141.798 56.1157,140.798 55.5,139.5C 62.2508,146.47 70.2508,148.303 79.5,145C 76.6212,143.164 75.1212,140.664 75,137.5C 76.331,139.996 78.1644,141.996 80.5,143.5C 85.5884,144.862 90.5884,144.528 95.5,142.5C 96.6065,130.438 96.6065,118.438 95.5,106.5C 93.1667,106.5 90.8333,106.5 88.5,106.5C 87.448,106.649 86.448,106.483 85.5,106C 83.2968,103.628 80.9635,101.461 78.5,99.5C 78.5,99.1667 78.5,98.8333 78.5,98.5C 79.1667,98.5 79.8333,98.5 80.5,98.5C 80.9377,99.5063 81.6043,99.5063 82.5,98.5C 82.2627,99.791 82.596,100.791 83.5,101.5C 84.2623,103.262 85.5956,104.262 87.5,104.5C 87.8333,104.5 88.1667,104.5 88.5,104.5C 88.8333,104.5 89.1667,104.5 89.5,104.5C 91.2637,105.712 92.9303,105.379 94.5,103.5C 93.3345,99.5057 92.1679,95.5057 91,91.5C 90.6174,90.944 90.1174,90.6107 89.5,90.5C 89.1667,89.8333 88.8333,89.1667 88.5,88.5C 87.5475,86.39 85.8808,85.2233 83.5,85C 80.4686,84.5046 77.4686,84.6713 74.5,85.5C 76.0261,83.87 78.0261,83.0367 80.5,83C 79.1118,82.1107 79.2785,81.6107 81,81.5C 91.6508,85.6079 98.8175,93.1079 102.5,104C 102.43,104.765 102.097,105.265 101.5,105.5C 100.364,101.229 98.1977,97.5627 95,94.5C 97.6576,103.097 99.8243,111.93 101.5,121C 101.333,122.167 101.167,123.333 101,124.5C 99.6866,120.58 98.6866,116.58 98,112.5C 98.1655,122.477 98.4988,132.477 99,142.5C 99.9025,143.701 101.069,144.535 102.5,145C 112.395,147.942 119.229,144.775 123,135.5C 123.085,137.085 123.251,138.418 123.5,139.5C 130.931,134.99 135.098,128.324 136,119.5C 136.822,111.988 136.655,104.655 135.5,97.5C 135.492,94.4552 135.159,91.4552 134.5,88.5C 134.833,88.5 135.167,88.5 135.5,88.5C 136.855,93.7723 138.021,99.1056 139,104.5C 139.494,102.866 139.66,101.199 139.5,99.5C 140.165,96.1976 141.165,92.8642 142.5,89.5C 142.457,88.5836 142.124,87.9169 141.5,87.5C 141.461,83.2671 140.795,79.2671 139.5,75.5C 138.626,72.0812 137.46,68.7478 136,65.5C 135.329,64.7476 134.496,64.4142 133.5,64.5C 133.672,63.5084 133.338,62.8417 132.5,62.5C 132.259,60.1016 132.926,58.1016 134.5,56.5 Z"/></g>
<g><path style="opacity:1" fill="#c2c2c2" d="M 95.5,142.5 C 90.5884,144.528 85.5884,144.862 80.5,143.5C 84.8518,142.754 89.3518,142.087 94,141.5C 94.7648,141.57 95.2648,141.903 95.5,142.5 Z"/></g>
<g><path style="opacity:1" fill="#9d9d9d" d="M 101.5,105.5 C 100.876,105.917 100.543,106.584 100.5,107.5C 101.995,112.372 102.662,117.372 102.5,122.5C 102.52,129.151 102.02,133.818 101,136.5C 101.903,137.701 103.069,138.535 104.5,139C 111.845,141.237 117.345,139.07 121,132.5C 123.073,126.947 124.74,121.28 126,115.5C 126.418,120.535 126.418,125.535 126,130.5C 127.333,129.167 128.667,127.833 130,126.5C 134.842,117.457 136.675,107.791 135.5,97.5C 136.655,104.655 136.822,111.988 136,119.5C 135.098,128.324 130.931,134.99 123.5,139.5C 123.251,138.418 123.085,137.085 123,135.5C 119.229,144.775 112.395,147.942 102.5,145C 101.069,144.535 99.9025,143.701 99,142.5C 98.4988,132.477 98.1655,122.477 98,112.5C 98.6866,116.58 99.6866,120.58 101,124.5C 101.167,123.333 101.333,122.167 101.5,121C 99.8243,111.93 97.6576,103.097 95,94.5C 98.1977,97.5627 100.364,101.229 101.5,105.5 Z"/></g>
<g><path style="opacity:1" fill="#8e8f8f" d="M 150.5,108.5 C 150.167,108.5 149.833,108.5 149.5,108.5C 147.425,108.698 145.425,108.865 143.5,109C 143.043,108.586 142.709,108.086 142.5,107.5C 145.446,106.345 148.446,106.179 151.5,107C 150.944,107.383 150.611,107.883 150.5,108.5 Z"/></g>
<g><path style="opacity:1" fill="#512908" d="M 141.5,87.5 C 142.124,87.9169 142.457,88.5836 142.5,89.5C 141.165,92.8642 140.165,96.1976 139.5,99.5C 139.334,94.4889 139.501,89.4889 140,84.5C 140.333,86.1667 140.667,87.8333 141,89.5C 141.464,88.9056 141.631,88.2389 141.5,87.5 Z"/></g>
<g><path style="opacity:1" fill="#c8c7c8" d="M 142.5,68.5 C 144.167,68.5 145.833,68.5 147.5,68.5C 148.239,68.369 148.906,68.5357 149.5,69C 147.278,69.6946 145.111,70.5279 143,71.5C 141.317,70.8235 141.15,69.8235 142.5,68.5 Z"/></g>
<g><path style="opacity:1" fill="#8e8e8e" d="M 57.5,144.5 C 58.675,144.281 59.675,144.614 60.5,145.5C 59.465,148.138 58.1317,149.804 56.5,150.5C 56.5172,148.435 56.8505,146.435 57.5,144.5 Z"/></g>
<g><path style="opacity:1" fill="#818181" d="M 115.5,152.5 C 114.609,151.89 113.609,151.557 112.5,151.5C 111.426,150.115 110.093,148.949 108.5,148C 112.244,147.236 114.577,148.736 115.5,152.5 Z"/></g>
<g><path style="opacity:1" fill="#d4d4d4" d="M 62.5,152.5 C 61.8333,152.5 61.1667,152.5 60.5,152.5C 59.2617,152.19 59.2617,151.69 60.5,151C 61.9663,150.365 63.2997,149.531 64.5,148.5C 65.3857,149.325 65.719,150.325 65.5,151.5C 64.209,151.263 63.209,151.596 62.5,152.5 Z"/></g>
<g><path style="opacity:1" fill="#424242" d="M 80.5,151.5 C 79.8333,152.167 79.1667,152.833 78.5,153.5C 78.5,152.5 78.5,151.5 78.5,150.5C 77.1667,150.5 75.8333,150.5 74.5,150.5C 74.5,150.167 74.5,149.833 74.5,149.5C 77.0804,147.984 79.0804,148.651 80.5,151.5 Z"/></g>
<g><path style="opacity:1" fill="#979797" d="M 74.5,149.5 C 74.5,149.833 74.5,150.167 74.5,150.5C 74.8064,153.385 74.4731,156.052 73.5,158.5C 73.7373,157.209 73.404,156.209 72.5,155.5C 70.6511,152.617 71.3178,150.617 74.5,149.5 Z"/></g>
<g><path style="opacity:1" fill="#777777" d="M 98.5,149.5 C 97.1667,151.5 97.1667,153.5 98.5,155.5C 98.5386,156.756 98.0386,157.756 97,158.5C 96.502,155.518 96.3354,152.518 96.5,149.5C 94.8967,149.312 93.5634,149.812 92.5,151C 93.9677,153.728 94.801,156.561 95,159.5C 94.1482,158.429 93.3149,157.429 92.5,156.5C 90.8912,155.102 90.0579,153.435 90,151.5C 92.4719,147.785 95.3052,147.118 98.5,149.5 Z"/></g>
<g><path style="opacity:1" fill="#dedede" d="M 98.5,149.5 C 99.404,150.209 99.7373,151.209 99.5,152.5C 98.8902,153.391 98.5569,154.391 98.5,155.5C 97.1667,153.5 97.1667,151.5 98.5,149.5 Z"/></g>
<g><path style="opacity:1" fill="#c9c9c9" d="M 80.5,151.5 C 81.0967,151.735 81.4301,152.235 81.5,153C 81.0217,154.303 80.355,155.469 79.5,156.5C 78.8333,157.5 78.1667,158.5 77.5,159.5C 76.9569,159.44 76.6236,159.107 76.5,158.5C 77.4565,156.925 78.1231,155.258 78.5,153.5C 79.1667,152.833 79.8333,152.167 80.5,151.5 Z"/></g>
<g><path style="opacity:1" fill="#302e28" d="M 30.5,150.5 C 32.4667,153.477 34.4667,156.477 36.5,159.5C 36.719,160.675 36.3857,161.675 35.5,162.5C 34.5832,161.873 33.5832,161.539 32.5,161.5C 30.5,158.833 28.5,156.167 26.5,153.5C 27.8471,152.829 29.0138,152.829 30,153.5C 30.4828,152.552 30.6495,151.552 30.5,150.5 Z"/></g>
<g><path style="opacity:1" fill="#2f2f2f" d="M 74.5,150.5 C 75.8333,150.5 77.1667,150.5 78.5,150.5C 78.5,151.5 78.5,152.5 78.5,153.5C 78.1231,155.258 77.4565,156.925 76.5,158.5C 76.6236,159.107 76.9569,159.44 77.5,159.5C 75.7435,162.148 74.4101,161.814 73.5,158.5C 74.4731,156.052 74.8064,153.385 74.5,150.5 Z"/></g>
<g><path style="opacity:1" fill="#c8b893" d="M 22.5,146.5 C 24.0828,148.663 25.4161,150.996 26.5,153.5C 28.5,156.167 30.5,158.833 32.5,161.5C 33.8333,163.167 35.1667,164.833 36.5,166.5C 38.1939,168.861 40.1939,170.861 42.5,172.5C 43.6253,174.129 44.9586,175.629 46.5,177C 50.2526,178.598 53.586,180.765 56.5,183.5C 59.9425,186.765 63.6092,189.932 67.5,193C 66.9056,193.464 66.2389,193.631 65.5,193.5C 53.728,187.722 43.3947,180.055 34.5,170.5C 35.3764,170.631 36.0431,170.298 36.5,169.5C 30.1546,163.313 25.1546,156.146 21.5,148C 21.5699,147.235 21.9033,146.735 22.5,146.5 Z"/></g>
<g><path style="opacity:1" fill="#686563" d="M 137.5,158.5 C 139.028,159.802 140.028,161.469 140.5,163.5C 139.833,164.833 138.833,165.833 137.5,166.5C 134.999,166.834 132.666,166.834 130.5,166.5C 132.862,163.808 135.196,161.141 137.5,158.5 Z"/></g>
<g><path style="opacity:1" fill="#636260" d="M 36.5,159.5 C 38.0987,161.604 39.932,163.604 42,165.5C 42.4643,164.906 42.631,164.239 42.5,163.5C 48.9363,170.278 55.9363,176.278 63.5,181.5C 58.4857,180.498 54.1523,178.165 50.5,174.5C 47.4249,169.289 42.7582,166.622 36.5,166.5C 35.1667,164.833 33.8333,163.167 32.5,161.5C 33.5832,161.539 34.5832,161.873 35.5,162.5C 36.3857,161.675 36.719,160.675 36.5,159.5 Z"/></g>
<g><path style="opacity:1" fill="#7f7b78" d="M 36.5,166.5 C 42.7582,166.622 47.4249,169.289 50.5,174.5C 49.1779,174.33 48.0113,174.663 47,175.5C 45.871,173.859 44.371,172.859 42.5,172.5C 40.1939,170.861 38.1939,168.861 36.5,166.5 Z"/></g>
<g><path style="opacity:1" fill="#807f79" d="M 137.5,166.5 C 136.289,168.95 134.622,170.95 132.5,172.5C 129.246,174.137 126.246,176.137 123.5,178.5C 122.732,177.737 122.232,176.737 122,175.5C 121.184,176.823 120.017,177.489 118.5,177.5C 122.474,173.862 126.474,170.195 130.5,166.5C 132.666,166.834 134.999,166.834 137.5,166.5 Z"/></g>
<g><path style="opacity:1" fill="#c2b28d" d="M 152.5,154.5 C 145.921,165.081 137.587,174.081 127.5,181.5C 128.28,178.042 129.947,175.042 132.5,172.5C 134.622,170.95 136.289,168.95 137.5,166.5C 138.833,165.833 139.833,164.833 140.5,163.5C 143.215,160.786 145.549,157.786 147.5,154.5C 147.5,153.833 147.833,153.5 148.5,153.5C 150.263,152.046 151.597,152.38 152.5,154.5 Z"/></g>
<g><path style="opacity:1" fill="#9a8f77" d="M 132.5,172.5 C 129.947,175.042 128.28,178.042 127.5,181.5C 115.515,191.152 102.515,199.152 88.5,205.5C 87.5,205.5 86.5,205.5 85.5,205.5C 81.5,203.167 77.5,200.833 73.5,198.5C 71.9689,197.075 72.3023,196.409 74.5,196.5C 78.6925,198.762 83.0258,200.762 87.5,202.5C 94.9634,199.603 101.963,195.936 108.5,191.5C 113.567,188.636 117.234,184.636 119.5,179.5C 121.099,179.768 122.432,179.434 123.5,178.5C 126.246,176.137 129.246,174.137 132.5,172.5 Z"/></g>
<g><path style="opacity:1" fill="#aeaba7" d="M 42.5,172.5 C 44.371,172.859 45.871,173.859 47,175.5C 48.0113,174.663 49.1779,174.33 50.5,174.5C 54.1523,178.165 58.4857,180.498 63.5,181.5C 65.2303,182.026 66.5637,183.026 67.5,184.5C 66.5837,184.982 65.5837,185.315 64.5,185.5C 62.997,184.477 61.497,183.477 60,182.5C 58.8615,182.989 57.6948,183.322 56.5,183.5C 53.586,180.765 50.2526,178.598 46.5,177C 44.9586,175.629 43.6253,174.129 42.5,172.5 Z"/></g>
<g><path style="opacity:1" fill="#a19d98" d="M 123.5,178.5 C 122.432,179.434 121.099,179.768 119.5,179.5C 117.234,184.636 113.567,188.636 108.5,191.5C 108.975,188.918 108.308,186.918 106.5,185.5C 110.205,182.474 114.205,179.808 118.5,177.5C 120.017,177.489 121.184,176.823 122,175.5C 122.232,176.737 122.732,177.737 123.5,178.5 Z"/></g>
<g><path style="opacity:1" fill="#cac2af" d="M 67.5,184.5 C 69.153,184.66 70.4863,185.326 71.5,186.5C 69.2495,186.181 67.2495,186.681 65.5,188C 67.412,192.081 70.412,194.915 74.5,196.5C 72.3023,196.409 71.9689,197.075 73.5,198.5C 70.4887,197.331 67.822,195.664 65.5,193.5C 66.2389,193.631 66.9056,193.464 67.5,193C 63.6092,189.932 59.9425,186.765 56.5,183.5C 57.6948,183.322 58.8615,182.989 60,182.5C 61.497,183.477 62.997,184.477 64.5,185.5C 65.5837,185.315 66.5837,184.982 67.5,184.5 Z"/></g>
<g><path style="opacity:1" fill="#e1dfda" d="M 106.5,185.5 C 108.308,186.918 108.975,188.918 108.5,191.5C 101.963,195.936 94.9634,199.603 87.5,202.5C 83.0258,200.762 78.6925,198.762 74.5,196.5C 70.412,194.915 67.412,192.081 65.5,188C 67.2495,186.681 69.2495,186.181 71.5,186.5C 76.6817,189.837 82.1817,192.504 88,194.5C 94.5177,192.157 100.684,189.157 106.5,185.5 Z"/></g>
</svg>
